solid Exported from Blender-2.74 (sub 0)
facet normal 0.098017 0.000000 -0.995185
outer loop
vertex -2.304798 -0.817904 6.629201
vertex -2.304798 -0.510211 6.629201
vertex -2.268782 -0.510211 6.632749
endloop
endfacet
facet normal 0.098017 0.000000 -0.995185
outer loop
vertex -2.268782 -0.510211 6.632749
vertex -2.268782 -0.817904 6.632749
vertex -2.304798 -0.817904 6.629201
endloop
endfacet
facet normal 0.290281 0.000000 -0.956942
outer loop
vertex -2.268782 -0.817904 6.632749
vertex -2.268782 -0.510211 6.632749
vertex -2.234149 -0.510211 6.643254
endloop
endfacet
facet normal 0.290281 0.000000 -0.956942
outer loop
vertex -2.234149 -0.510211 6.643254
vertex -2.234149 -0.817904 6.643254
vertex -2.268782 -0.817904 6.632749
endloop
endfacet
facet normal 0.471409 0.000000 -0.881915
outer loop
vertex -2.234149 -0.817904 6.643254
vertex -2.234149 -0.510211 6.643254
vertex -2.202231 -0.510211 6.660315
endloop
endfacet
facet normal 0.471376 0.000000 -0.881932
outer loop
vertex -2.202231 -0.510211 6.660315
vertex -2.202231 -0.817904 6.660315
vertex -2.234149 -0.817904 6.643254
endloop
endfacet
facet normal 0.634390 0.000000 -0.773014
outer loop
vertex -2.202231 -0.817904 6.660315
vertex -2.202231 -0.510211 6.660315
vertex -2.174255 -0.510211 6.683274
endloop
endfacet
facet normal 0.634390 0.000000 -0.773013
outer loop
vertex -2.174255 -0.510211 6.683274
vertex -2.174255 -0.817904 6.683274
vertex -2.202231 -0.817904 6.660315
endloop
endfacet
facet normal 0.773024 0.000000 -0.634377
outer loop
vertex -2.174255 -0.817904 6.683274
vertex -2.174255 -0.510211 6.683274
vertex -2.151296 -0.510211 6.711250
endloop
endfacet
facet normal 0.773007 0.000000 -0.634398
outer loop
vertex -2.151296 -0.510211 6.711250
vertex -2.151296 -0.817904 6.711250
vertex -2.174255 -0.817904 6.683274
endloop
endfacet
facet normal 0.881924 0.000000 -0.471391
outer loop
vertex -2.151296 -0.817904 6.711250
vertex -2.151296 -0.510211 6.711250
vertex -2.134236 -0.510211 6.743167
endloop
endfacet
facet normal 0.881915 0.000000 -0.471409
outer loop
vertex -2.134236 -0.510211 6.743167
vertex -2.134236 -0.817904 6.743167
vertex -2.151296 -0.817904 6.711250
endloop
endfacet
facet normal 0.956942 0.000000 -0.290280
outer loop
vertex -2.134236 -0.817904 6.743167
vertex -2.134236 -0.510211 6.743167
vertex -2.123730 -0.510211 6.777800
endloop
endfacet
facet normal 0.956942 0.000000 -0.290280
outer loop
vertex -2.123730 -0.510211 6.777800
vertex -2.123730 -0.817904 6.777800
vertex -2.134236 -0.817904 6.743167
endloop
endfacet
facet normal 0.995184 0.000000 -0.098023
outer loop
vertex -2.123730 -0.817904 6.777800
vertex -2.123730 -0.510211 6.777800
vertex -2.120183 -0.510211 6.813817
endloop
endfacet
facet normal 0.995185 0.000000 -0.098019
outer loop
vertex -2.120183 -0.510211 6.813817
vertex -2.120183 -0.817904 6.813817
vertex -2.123730 -0.817904 6.777800
endloop
endfacet
facet normal 0.995185 0.000000 0.098019
outer loop
vertex -2.120183 -0.817904 6.813817
vertex -2.120183 -0.510211 6.813817
vertex -2.123730 -0.510211 6.849833
endloop
endfacet
facet normal 0.995185 0.000000 0.098019
outer loop
vertex -2.123730 -0.510211 6.849833
vertex -2.123730 -0.817904 6.849833
vertex -2.120183 -0.817904 6.813817
endloop
endfacet
facet normal 0.956942 0.000000 0.290280
outer loop
vertex -2.123730 -0.817904 6.849833
vertex -2.123730 -0.510211 6.849833
vertex -2.134236 -0.510211 6.884466
endloop
endfacet
facet normal 0.956938 0.000000 0.290292
outer loop
vertex -2.134236 -0.510211 6.884466
vertex -2.134236 -0.817904 6.884466
vertex -2.123730 -0.817904 6.849833
endloop
endfacet
facet normal 0.881924 0.000000 0.471391
outer loop
vertex -2.134236 -0.817904 6.884466
vertex -2.134236 -0.510211 6.884466
vertex -2.151296 -0.510211 6.916384
endloop
endfacet
facet normal 0.881924 0.000000 0.471391
outer loop
vertex -2.151296 -0.510211 6.916384
vertex -2.151296 -0.817904 6.916384
vertex -2.134236 -0.817904 6.884466
endloop
endfacet
facet normal 0.773007 0.000000 0.634398
outer loop
vertex -2.151296 -0.817904 6.916384
vertex -2.151296 -0.510211 6.916384
vertex -2.174255 -0.510211 6.944360
endloop
endfacet
facet normal 0.773007 0.000000 0.634398
outer loop
vertex -2.174255 -0.510211 6.944360
vertex -2.174255 -0.817904 6.944360
vertex -2.151296 -0.817904 6.916384
endloop
endfacet
facet normal 0.634390 0.000000 0.773014
outer loop
vertex -2.174255 -0.817904 6.944360
vertex -2.174255 -0.510211 6.944360
vertex -2.202231 -0.510211 6.967319
endloop
endfacet
facet normal 0.634390 0.000000 0.773013
outer loop
vertex -2.202231 -0.510211 6.967319
vertex -2.202231 -0.817904 6.967319
vertex -2.174255 -0.817904 6.944360
endloop
endfacet
facet normal 0.471409 0.000000 0.881915
outer loop
vertex -2.202231 -0.817904 6.967319
vertex -2.202231 -0.510211 6.967319
vertex -2.234149 -0.510211 6.984379
endloop
endfacet
facet normal 0.471409 0.000000 0.881915
outer loop
vertex -2.234149 -0.510211 6.984379
vertex -2.234149 -0.817904 6.984379
vertex -2.202231 -0.817904 6.967319
endloop
endfacet
facet normal 0.290281 0.000000 0.956942
outer loop
vertex -2.234149 -0.817904 6.984379
vertex -2.234149 -0.510211 6.984379
vertex -2.268782 -0.510211 6.994885
endloop
endfacet
facet normal 0.290281 0.000000 0.956942
outer loop
vertex -2.268782 -0.510211 6.994885
vertex -2.268782 -0.817904 6.994885
vertex -2.234149 -0.817904 6.984379
endloop
endfacet
facet normal 0.097974 0.000000 0.995189
outer loop
vertex -2.268782 -0.817904 6.994885
vertex -2.268782 -0.510211 6.994885
vertex -2.304798 -0.510211 6.998432
endloop
endfacet
facet normal 0.098059 0.000000 0.995181
outer loop
vertex -2.304798 -0.510211 6.998432
vertex -2.304798 -0.817904 6.998432
vertex -2.268782 -0.817904 6.994885
endloop
endfacet
facet normal -0.098059 0.000000 0.995181
outer loop
vertex -2.304798 -0.817904 6.998432
vertex -2.304798 -0.510211 6.998432
vertex -2.340815 -0.510211 6.994885
endloop
endfacet
facet normal -0.097974 0.000000 0.995189
outer loop
vertex -2.340815 -0.510211 6.994885
vertex -2.340815 -0.817904 6.994885
vertex -2.304798 -0.817904 6.998432
endloop
endfacet
facet normal -0.290283 0.000000 0.956941
outer loop
vertex -2.340815 -0.817904 6.994885
vertex -2.340815 -0.510211 6.994885
vertex -2.375448 -0.510211 6.984379
endloop
endfacet
facet normal -0.290283 0.000000 0.956941
outer loop
vertex -2.375448 -0.510211 6.984379
vertex -2.375448 -0.817904 6.984379
vertex -2.340815 -0.817904 6.994885
endloop
endfacet
facet normal -0.471409 0.000000 0.881915
outer loop
vertex -2.375448 -0.817904 6.984379
vertex -2.375448 -0.510211 6.984379
vertex -2.407365 -0.510211 6.967319
endloop
endfacet
facet normal -0.471409 0.000000 0.881915
outer loop
vertex -2.407365 -0.510211 6.967319
vertex -2.407365 -0.817904 6.967319
vertex -2.375448 -0.817904 6.984379
endloop
endfacet
facet normal -0.634390 0.000000 0.773014
outer loop
vertex -2.407365 -0.817904 6.967319
vertex -2.407365 -0.510211 6.967319
vertex -2.435341 -0.510211 6.944359
endloop
endfacet
facet normal -0.634390 0.000000 0.773013
outer loop
vertex -2.435341 -0.510211 6.944359
vertex -2.435341 -0.817904 6.944359
vertex -2.407365 -0.817904 6.967319
endloop
endfacet
facet normal -0.773024 0.000000 0.634377
outer loop
vertex -2.435341 -0.817904 6.944359
vertex -2.435341 -0.510211 6.944359
vertex -2.458300 -0.510211 6.916383
endloop
endfacet
facet normal -0.773007 0.000000 0.634398
outer loop
vertex -2.458300 -0.510211 6.916383
vertex -2.458300 -0.817904 6.916383
vertex -2.435341 -0.817904 6.944359
endloop
endfacet
facet normal -0.881924 0.000000 0.471391
outer loop
vertex -2.458300 -0.817904 6.916383
vertex -2.458300 -0.510211 6.916383
vertex -2.475361 -0.510211 6.884466
endloop
endfacet
facet normal -0.881915 0.000000 0.471409
outer loop
vertex -2.475361 -0.510211 6.884466
vertex -2.475361 -0.817904 6.884466
vertex -2.458300 -0.817904 6.916383
endloop
endfacet
facet normal -0.956942 0.000000 0.290280
outer loop
vertex -2.475361 -0.817904 6.884466
vertex -2.475361 -0.510211 6.884466
vertex -2.485866 -0.510211 6.849833
endloop
endfacet
facet normal -0.956938 0.000000 0.290292
outer loop
vertex -2.485866 -0.510211 6.849833
vertex -2.485866 -0.817904 6.849833
vertex -2.475361 -0.817904 6.884466
endloop
endfacet
facet normal -0.995185 0.000000 0.098019
outer loop
vertex -2.485866 -0.817904 6.849833
vertex -2.485866 -0.510211 6.849833
vertex -2.489414 -0.510211 6.813817
endloop
endfacet
facet normal -0.995185 0.000000 0.098019
outer loop
vertex -2.489414 -0.510211 6.813817
vertex -2.489414 -0.817904 6.813817
vertex -2.485866 -0.817904 6.849833
endloop
endfacet
facet normal -0.995185 0.000000 -0.098019
outer loop
vertex -2.489414 -0.817904 6.813817
vertex -2.489414 -0.510211 6.813817
vertex -2.485866 -0.510211 6.777800
endloop
endfacet
facet normal -0.995184 0.000000 -0.098023
outer loop
vertex -2.485866 -0.510211 6.777800
vertex -2.485866 -0.817904 6.777800
vertex -2.489414 -0.817904 6.813817
endloop
endfacet
facet normal -0.956942 0.000000 -0.290280
outer loop
vertex -2.485866 -0.817904 6.777800
vertex -2.485866 -0.510211 6.777800
vertex -2.475361 -0.510211 6.743167
endloop
endfacet
facet normal -0.956942 0.000000 -0.290280
outer loop
vertex -2.475361 -0.510211 6.743167
vertex -2.475361 -0.817904 6.743167
vertex -2.485866 -0.817904 6.777800
endloop
endfacet
facet normal -0.881912 0.000000 -0.471414
outer loop
vertex -2.475361 -0.817904 6.743167
vertex -2.475361 -0.510211 6.743167
vertex -2.458300 -0.510211 6.711250
endloop
endfacet
facet normal -0.881922 0.000000 -0.471396
outer loop
vertex -2.458300 -0.510211 6.711250
vertex -2.458300 -0.817904 6.711250
vertex -2.475361 -0.817904 6.743167
endloop
endfacet
facet normal -0.773007 0.000000 -0.634398
outer loop
vertex -2.458300 -0.817904 6.711250
vertex -2.458300 -0.510211 6.711250
vertex -2.435341 -0.510211 6.683274
endloop
endfacet
facet normal -0.773024 0.000000 -0.634377
outer loop
vertex -2.435341 -0.510211 6.683274
vertex -2.435341 -0.817904 6.683274
vertex -2.458300 -0.817904 6.711250
endloop
endfacet
facet normal -0.634390 0.000000 -0.773014
outer loop
vertex -2.435341 -0.817904 6.683274
vertex -2.435341 -0.510211 6.683274
vertex -2.407365 -0.510211 6.660315
endloop
endfacet
facet normal -0.634390 0.000000 -0.773013
outer loop
vertex -2.407365 -0.510211 6.660315
vertex -2.407365 -0.817904 6.660315
vertex -2.435341 -0.817904 6.683274
endloop
endfacet
facet normal -0.471376 0.000000 -0.881932
outer loop
vertex -2.407365 -0.817904 6.660315
vertex -2.407365 -0.510211 6.660315
vertex -2.375447 -0.510211 6.643254
endloop
endfacet
facet normal -0.471409 0.000000 -0.881915
outer loop
vertex -2.375447 -0.510211 6.643254
vertex -2.375447 -0.817904 6.643254
vertex -2.407365 -0.817904 6.660315
endloop
endfacet
facet normal 0.000000 1.000000 -0.000015
outer loop
vertex -2.268782 -0.510211 6.632749
vertex -2.202231 -0.510211 6.660315
vertex -2.234149 -0.510211 6.643254
endloop
endfacet
facet normal 0.000000 1.000000 0.000000
outer loop
vertex -2.151296 -0.510211 6.711250
vertex -2.174255 -0.510211 6.683274
vertex -2.202231 -0.510211 6.660315
endloop
endfacet
facet normal 0.000000 1.000000 0.000000
outer loop
vertex -2.123730 -0.510211 6.777800
vertex -2.134236 -0.510211 6.743167
vertex -2.151296 -0.510211 6.711250
endloop
endfacet
facet normal 0.000000 1.000000 0.000000
outer loop
vertex -2.123730 -0.510211 6.849833
vertex -2.120183 -0.510211 6.813817
vertex -2.123730 -0.510211 6.777800
endloop
endfacet
facet normal 0.000000 1.000000 -0.000004
outer loop
vertex -2.151296 -0.510211 6.916384
vertex -2.134236 -0.510211 6.884466
vertex -2.123730 -0.510211 6.849833
endloop
endfacet
facet normal 0.000000 1.000000 0.000000
outer loop
vertex -2.202231 -0.510211 6.967319
vertex -2.174255 -0.510211 6.944360
vertex -2.151296 -0.510211 6.916384
endloop
endfacet
facet normal 0.000000 1.000000 0.000015
outer loop
vertex -2.268782 -0.510211 6.994885
vertex -2.234149 -0.510211 6.984379
vertex -2.202231 -0.510211 6.967319
endloop
endfacet
facet normal 0.000000 1.000000 0.000000
outer loop
vertex -2.340815 -0.510211 6.994885
vertex -2.304798 -0.510211 6.998432
vertex -2.268782 -0.510211 6.994885
endloop
endfacet
facet normal 0.000000 1.000000 -0.000015
outer loop
vertex -2.407365 -0.510211 6.967319
vertex -2.375448 -0.510211 6.984379
vertex -2.340815 -0.510211 6.994885
endloop
endfacet
facet normal 0.000000 1.000000 0.000000
outer loop
vertex -2.458300 -0.510211 6.916383
vertex -2.435341 -0.510211 6.944359
vertex -2.407365 -0.510211 6.967319
endloop
endfacet
facet normal 0.000000 1.000000 0.000000
outer loop
vertex -2.485866 -0.510211 6.849833
vertex -2.475361 -0.510211 6.884466
vertex -2.458300 -0.510211 6.916383
endloop
endfacet
facet normal 0.000000 1.000000 0.000000
outer loop
vertex -2.485866 -0.510211 6.777800
vertex -2.489414 -0.510211 6.813817
vertex -2.485866 -0.510211 6.849833
endloop
endfacet
facet normal 0.000000 1.000000 -0.000004
outer loop
vertex -2.458300 -0.510211 6.711250
vertex -2.475361 -0.510211 6.743167
vertex -2.485866 -0.510211 6.777800
endloop
endfacet
facet normal 0.000000 1.000000 0.000000
outer loop
vertex -2.407365 -0.510211 6.660315
vertex -2.435341 -0.510211 6.683274
vertex -2.458300 -0.510211 6.711250
endloop
endfacet
facet normal 0.000000 1.000000 -0.000015
outer loop
vertex -2.340815 -0.510211 6.632749
vertex -2.375447 -0.510211 6.643254
vertex -2.407365 -0.510211 6.660315
endloop
endfacet
facet normal 0.000000 1.000000 0.000000
outer loop
vertex -2.268782 -0.510211 6.632749
vertex -2.304798 -0.510211 6.629201
vertex -2.340815 -0.510211 6.632749
endloop
endfacet
facet normal 0.000000 1.000000 0.000000
outer loop
vertex -2.268782 -0.510211 6.632749
vertex -2.151296 -0.510211 6.711250
vertex -2.202231 -0.510211 6.660315
endloop
endfacet
facet normal 0.000000 1.000000 0.000000
outer loop
vertex -2.123730 -0.510211 6.849833
vertex -2.123730 -0.510211 6.777800
vertex -2.151296 -0.510211 6.711250
endloop
endfacet
facet normal 0.000000 1.000000 0.000001
outer loop
vertex -2.202231 -0.510211 6.967319
vertex -2.151296 -0.510211 6.916384
vertex -2.123730 -0.510211 6.849833
endloop
endfacet
facet normal 0.000000 1.000000 0.000000
outer loop
vertex -2.340815 -0.510211 6.994885
vertex -2.268782 -0.510211 6.994885
vertex -2.202231 -0.510211 6.967319
endloop
endfacet
facet normal 0.000000 1.000000 0.000004
outer loop
vertex -2.458300 -0.510211 6.916383
vertex -2.407365 -0.510211 6.967319
vertex -2.340815 -0.510211 6.994885
endloop
endfacet
facet normal 0.000000 1.000000 0.000000
outer loop
vertex -2.485866 -0.510211 6.777800
vertex -2.485866 -0.510211 6.849833
vertex -2.458300 -0.510211 6.916383
endloop
endfacet
facet normal 0.000000 1.000000 0.000001
outer loop
vertex -2.407365 -0.510211 6.660315
vertex -2.458300 -0.510211 6.711250
vertex -2.485866 -0.510211 6.777800
endloop
endfacet
facet normal 0.000000 1.000000 -0.000004
outer loop
vertex -2.268782 -0.510211 6.632749
vertex -2.340815 -0.510211 6.632749
vertex -2.407365 -0.510211 6.660315
endloop
endfacet
facet normal 0.000000 1.000000 0.000000
outer loop
vertex -2.268782 -0.510211 6.632749
vertex -2.123730 -0.510211 6.849833
vertex -2.151296 -0.510211 6.711250
endloop
endfacet
facet normal 0.000000 1.000000 0.000000
outer loop
vertex -2.340815 -0.510211 6.994885
vertex -2.202231 -0.510211 6.967319
vertex -2.123730 -0.510211 6.849833
endloop
endfacet
facet normal 0.000000 1.000000 0.000000
outer loop
vertex -2.485866 -0.510211 6.777800
vertex -2.458300 -0.510211 6.916383
vertex -2.340815 -0.510211 6.994885
endloop
endfacet
facet normal 0.000000 1.000000 0.000001
outer loop
vertex -2.268782 -0.510211 6.632749
vertex -2.407365 -0.510211 6.660315
vertex -2.485866 -0.510211 6.777800
endloop
endfacet
facet normal 0.000000 1.000000 0.000000
outer loop
vertex -2.268782 -0.510211 6.632749
vertex -2.340815 -0.510211 6.994885
vertex -2.123730 -0.510211 6.849833
endloop
endfacet
facet normal 0.000000 1.000000 0.000000
outer loop
vertex -2.268782 -0.510211 6.632749
vertex -2.485866 -0.510211 6.777800
vertex -2.340815 -0.510211 6.994885
endloop
endfacet
facet normal -0.098017 0.000000 -0.995185
outer loop
vertex -2.304798 -0.510211 6.629201
vertex -2.304798 -0.817904 6.629201
vertex -2.340815 -0.817904 6.632749
endloop
endfacet
facet normal -0.098017 0.000000 -0.995185
outer loop
vertex -2.340815 -0.817904 6.632749
vertex -2.340815 -0.510211 6.632749
vertex -2.304798 -0.510211 6.629201
endloop
endfacet
facet normal -0.290281 0.000000 -0.956942
outer loop
vertex -2.375447 -0.817904 6.643254
vertex -2.375447 -0.510211 6.643254
vertex -2.340815 -0.510211 6.632749
endloop
endfacet
facet normal -0.290281 0.000000 -0.956942
outer loop
vertex -2.340815 -0.510211 6.632749
vertex -2.340815 -0.817904 6.632749
vertex -2.375447 -0.817904 6.643254
endloop
endfacet
facet normal 0.000000 -1.000000 -0.000015
outer loop
vertex -2.304798 -0.817904 6.629201
vertex -2.375447 -0.817904 6.643254
vertex -2.340815 -0.817904 6.632749
endloop
endfacet
facet normal 0.000000 -1.000000 0.000015
outer loop
vertex -2.435341 -0.817904 6.683274
vertex -2.407365 -0.817904 6.660315
vertex -2.375447 -0.817904 6.643254
endloop
endfacet
facet normal 0.000000 -1.000000 0.000015
outer loop
vertex -2.475361 -0.817904 6.743167
vertex -2.458300 -0.817904 6.711250
vertex -2.435341 -0.817904 6.683274
endloop
endfacet
facet normal 0.000000 -1.000000 0.000000
outer loop
vertex -2.489414 -0.817904 6.813817
vertex -2.485866 -0.817904 6.777800
vertex -2.475361 -0.817904 6.743167
endloop
endfacet
facet normal 0.000000 -1.000000 0.000002
outer loop
vertex -2.475361 -0.817904 6.884466
vertex -2.485866 -0.817904 6.849833
vertex -2.489414 -0.817904 6.813817
endloop
endfacet
facet normal 0.000000 -1.000000 -0.000007
outer loop
vertex -2.435341 -0.817904 6.944359
vertex -2.458300 -0.817904 6.916383
vertex -2.475361 -0.817904 6.884466
endloop
endfacet
facet normal 0.000000 -1.000000 -0.000015
outer loop
vertex -2.375448 -0.817904 6.984379
vertex -2.407365 -0.817904 6.967319
vertex -2.435341 -0.817904 6.944359
endloop
endfacet
facet normal 0.000000 -1.000000 0.000000
outer loop
vertex -2.304798 -0.817904 6.998432
vertex -2.340815 -0.817904 6.994885
vertex -2.375448 -0.817904 6.984379
endloop
endfacet
facet normal 0.000000 -1.000000 0.000000
outer loop
vertex -2.234149 -0.817904 6.984379
vertex -2.268782 -0.817904 6.994885
vertex -2.304798 -0.817904 6.998432
endloop
endfacet
facet normal 0.000000 -1.000000 -0.000015
outer loop
vertex -2.174255 -0.817904 6.944360
vertex -2.202231 -0.817904 6.967319
vertex -2.234149 -0.817904 6.984379
endloop
endfacet
facet normal 0.000000 -1.000000 -0.000015
outer loop
vertex -2.134236 -0.817904 6.884466
vertex -2.151296 -0.817904 6.916384
vertex -2.174255 -0.817904 6.944360
endloop
endfacet
facet normal 0.000000 -1.000000 0.000000
outer loop
vertex -2.120183 -0.817904 6.813817
vertex -2.123730 -0.817904 6.849833
vertex -2.134236 -0.817904 6.884466
endloop
endfacet
facet normal 0.000000 -1.000000 -0.000002
outer loop
vertex -2.134236 -0.817904 6.743167
vertex -2.123730 -0.817904 6.777800
vertex -2.120183 -0.817904 6.813817
endloop
endfacet
facet normal 0.000000 -1.000000 0.000007
outer loop
vertex -2.174255 -0.817904 6.683274
vertex -2.151296 -0.817904 6.711250
vertex -2.134236 -0.817904 6.743167
endloop
endfacet
facet normal 0.000000 -1.000000 0.000015
outer loop
vertex -2.234149 -0.817904 6.643254
vertex -2.202231 -0.817904 6.660315
vertex -2.174255 -0.817904 6.683274
endloop
endfacet
facet normal 0.000000 -1.000000 -0.000015
outer loop
vertex -2.304798 -0.817904 6.629201
vertex -2.268782 -0.817904 6.632749
vertex -2.234149 -0.817904 6.643254
endloop
endfacet
facet normal 0.000000 -1.000000 0.000000
outer loop
vertex -2.304798 -0.817904 6.629201
vertex -2.435341 -0.817904 6.683274
vertex -2.375447 -0.817904 6.643254
endloop
endfacet
facet normal 0.000000 -1.000000 0.000000
outer loop
vertex -2.489414 -0.817904 6.813817
vertex -2.475361 -0.817904 6.743167
vertex -2.435341 -0.817904 6.683274
endloop
endfacet
facet normal 0.000000 -1.000000 0.000001
outer loop
vertex -2.435341 -0.817904 6.944359
vertex -2.475361 -0.817904 6.884466
vertex -2.489414 -0.817904 6.813817
endloop
endfacet
facet normal 0.000000 -1.000000 0.000000
outer loop
vertex -2.304798 -0.817904 6.998432
vertex -2.375448 -0.817904 6.984379
vertex -2.435341 -0.817904 6.944359
endloop
endfacet
facet normal 0.000000 -1.000000 0.000000
outer loop
vertex -2.174255 -0.817904 6.944360
vertex -2.234149 -0.817904 6.984379
vertex -2.304798 -0.817904 6.998432
endloop
endfacet
facet normal 0.000000 -1.000000 0.000000
outer loop
vertex -2.120183 -0.817904 6.813817
vertex -2.134236 -0.817904 6.884466
vertex -2.174255 -0.817904 6.944360
endloop
endfacet
facet normal 0.000000 -1.000000 -0.000001
outer loop
vertex -2.174255 -0.817904 6.683274
vertex -2.134236 -0.817904 6.743167
vertex -2.120183 -0.817904 6.813817
endloop
endfacet
facet normal 0.000000 -1.000000 0.000000
outer loop
vertex -2.304798 -0.817904 6.629201
vertex -2.234149 -0.817904 6.643254
vertex -2.174255 -0.817904 6.683274
endloop
endfacet
facet normal 0.000000 -1.000000 0.000001
outer loop
vertex -2.304798 -0.817904 6.629201
vertex -2.489414 -0.817904 6.813817
vertex -2.435341 -0.817904 6.683274
endloop
endfacet
facet normal 0.000000 -1.000000 -0.000001
outer loop
vertex -2.304798 -0.817904 6.998432
vertex -2.435341 -0.817904 6.944359
vertex -2.489414 -0.817904 6.813817
endloop
endfacet
facet normal 0.000000 -1.000000 -0.000001
outer loop
vertex -2.120183 -0.817904 6.813817
vertex -2.174255 -0.817904 6.944360
vertex -2.304798 -0.817904 6.998432
endloop
endfacet
facet normal 0.000000 -1.000000 0.000001
outer loop
vertex -2.304798 -0.817904 6.629201
vertex -2.174255 -0.817904 6.683274
vertex -2.120183 -0.817904 6.813817
endloop
endfacet
facet normal 0.000000 -1.000000 0.000000
outer loop
vertex -2.304798 -0.817904 6.629201
vertex -2.304798 -0.817904 6.998432
vertex -2.489414 -0.817904 6.813817
endloop
endfacet
facet normal 0.000000 -1.000000 0.000000
outer loop
vertex -2.304798 -0.817904 6.629201
vertex -2.120183 -0.817904 6.813817
vertex -2.304798 -0.817904 6.998432
endloop
endfacet
endsolid Exported from Blender-2.74 (sub 0)
