solid Exported from Blender-2.74 (sub 0)
facet normal 0.098016 0.000000 -0.995185
outer loop
vertex -2.304912 -0.817904 6.629429
vertex -2.304912 -0.510211 6.629429
vertex -2.268895 -0.510211 6.632976
endloop
endfacet
facet normal 0.097974 0.000000 -0.995189
outer loop
vertex -2.268895 -0.510211 6.632976
vertex -2.268895 -0.817904 6.632976
vertex -2.304912 -0.817904 6.629429
endloop
endfacet
facet normal 0.290283 0.000000 -0.956941
outer loop
vertex -2.268895 -0.817904 6.632976
vertex -2.268895 -0.510211 6.632976
vertex -2.234263 -0.510211 6.643482
endloop
endfacet
facet normal 0.290322 0.000000 -0.956929
outer loop
vertex -2.234263 -0.510211 6.643482
vertex -2.234263 -0.817904 6.643482
vertex -2.268895 -0.817904 6.632976
endloop
endfacet
facet normal 0.471376 0.000000 -0.881932
outer loop
vertex -2.234263 -0.817904 6.643482
vertex -2.234263 -0.510211 6.643482
vertex -2.202345 -0.510211 6.660542
endloop
endfacet
facet normal 0.471409 0.000000 -0.881915
outer loop
vertex -2.202345 -0.510211 6.660542
vertex -2.202345 -0.817904 6.660542
vertex -2.234263 -0.817904 6.643482
endloop
endfacet
facet normal 0.634390 0.000000 -0.773014
outer loop
vertex -2.202345 -0.817904 6.660542
vertex -2.202345 -0.510211 6.660542
vertex -2.174369 -0.510211 6.683501
endloop
endfacet
facet normal 0.634390 0.000000 -0.773013
outer loop
vertex -2.174369 -0.510211 6.683501
vertex -2.174369 -0.817904 6.683501
vertex -2.202345 -0.817904 6.660542
endloop
endfacet
facet normal 0.773007 0.000000 -0.634398
outer loop
vertex -2.174369 -0.817904 6.683501
vertex -2.174369 -0.510211 6.683501
vertex -2.151410 -0.510211 6.711477
endloop
endfacet
facet normal 0.773024 0.000000 -0.634377
outer loop
vertex -2.151410 -0.510211 6.711477
vertex -2.151410 -0.817904 6.711477
vertex -2.174369 -0.817904 6.683501
endloop
endfacet
facet normal 0.881915 0.000000 -0.471409
outer loop
vertex -2.151410 -0.817904 6.711477
vertex -2.151410 -0.510211 6.711477
vertex -2.134350 -0.510211 6.743395
endloop
endfacet
facet normal 0.881924 0.000000 -0.471391
outer loop
vertex -2.134350 -0.510211 6.743395
vertex -2.134350 -0.817904 6.743395
vertex -2.151410 -0.817904 6.711477
endloop
endfacet
facet normal 0.956942 0.000000 -0.290280
outer loop
vertex -2.134350 -0.817904 6.743395
vertex -2.134350 -0.510211 6.743395
vertex -2.123844 -0.510211 6.778028
endloop
endfacet
facet normal 0.956938 0.000000 -0.290292
outer loop
vertex -2.123844 -0.510211 6.778028
vertex -2.123844 -0.817904 6.778028
vertex -2.134350 -0.817904 6.743395
endloop
endfacet
facet normal 0.995185 0.000000 -0.098019
outer loop
vertex -2.123844 -0.817904 6.778028
vertex -2.123844 -0.510211 6.778028
vertex -2.120296 -0.510211 6.814044
endloop
endfacet
facet normal 0.995185 0.000000 -0.098019
outer loop
vertex -2.120296 -0.510211 6.814044
vertex -2.120296 -0.817904 6.814044
vertex -2.123844 -0.817904 6.778028
endloop
endfacet
facet normal 0.995184 0.000000 0.098023
outer loop
vertex -2.120296 -0.817904 6.814044
vertex -2.120296 -0.510211 6.814044
vertex -2.123844 -0.510211 6.850060
endloop
endfacet
facet normal 0.995185 0.000000 0.098019
outer loop
vertex -2.123844 -0.510211 6.850060
vertex -2.123844 -0.817904 6.850060
vertex -2.120296 -0.817904 6.814044
endloop
endfacet
facet normal 0.956938 0.000000 0.290292
outer loop
vertex -2.123844 -0.817904 6.850060
vertex -2.123844 -0.510211 6.850060
vertex -2.134350 -0.510211 6.884693
endloop
endfacet
facet normal 0.956942 0.000000 0.290280
outer loop
vertex -2.134350 -0.510211 6.884693
vertex -2.134350 -0.817904 6.884693
vertex -2.123844 -0.817904 6.850060
endloop
endfacet
facet normal 0.881924 0.000000 0.471391
outer loop
vertex -2.134350 -0.817904 6.884693
vertex -2.134350 -0.510211 6.884693
vertex -2.151410 -0.510211 6.916611
endloop
endfacet
facet normal 0.881924 0.000000 0.471391
outer loop
vertex -2.151410 -0.510211 6.916611
vertex -2.151410 -0.817904 6.916611
vertex -2.134350 -0.817904 6.884693
endloop
endfacet
facet normal 0.773007 0.000000 0.634398
outer loop
vertex -2.151410 -0.817904 6.916611
vertex -2.151410 -0.510211 6.916611
vertex -2.174369 -0.510211 6.944587
endloop
endfacet
facet normal 0.773007 0.000000 0.634398
outer loop
vertex -2.174369 -0.510211 6.944587
vertex -2.174369 -0.817904 6.944587
vertex -2.151410 -0.817904 6.916611
endloop
endfacet
facet normal 0.634390 0.000000 0.773014
outer loop
vertex -2.174369 -0.817904 6.944587
vertex -2.174369 -0.510211 6.944587
vertex -2.202345 -0.510211 6.967546
endloop
endfacet
facet normal 0.634390 0.000000 0.773013
outer loop
vertex -2.202345 -0.510211 6.967546
vertex -2.202345 -0.817904 6.967546
vertex -2.174369 -0.817904 6.944587
endloop
endfacet
facet normal 0.471409 0.000000 0.881915
outer loop
vertex -2.202345 -0.817904 6.967546
vertex -2.202345 -0.510211 6.967546
vertex -2.234263 -0.510211 6.984606
endloop
endfacet
facet normal 0.471409 0.000000 0.881915
outer loop
vertex -2.234263 -0.510211 6.984606
vertex -2.234263 -0.817904 6.984606
vertex -2.202345 -0.817904 6.967546
endloop
endfacet
facet normal 0.290283 0.000000 0.956941
outer loop
vertex -2.234263 -0.817904 6.984606
vertex -2.234263 -0.510211 6.984606
vertex -2.268895 -0.510211 6.995112
endloop
endfacet
facet normal 0.290283 0.000000 0.956941
outer loop
vertex -2.268895 -0.510211 6.995112
vertex -2.268895 -0.817904 6.995112
vertex -2.234263 -0.817904 6.984606
endloop
endfacet
facet normal 0.097974 0.000000 0.995189
outer loop
vertex -2.268895 -0.817904 6.995112
vertex -2.268895 -0.510211 6.995112
vertex -2.304912 -0.510211 6.998659
endloop
endfacet
facet normal 0.098059 0.000000 0.995181
outer loop
vertex -2.304912 -0.510211 6.998659
vertex -2.304912 -0.817904 6.998659
vertex -2.268895 -0.817904 6.995112
endloop
endfacet
facet normal -0.098059 0.000000 0.995181
outer loop
vertex -2.304912 -0.817904 6.998659
vertex -2.304912 -0.510211 6.998659
vertex -2.340929 -0.510211 6.995112
endloop
endfacet
facet normal -0.097974 0.000000 0.995189
outer loop
vertex -2.340929 -0.510211 6.995112
vertex -2.340929 -0.817904 6.995112
vertex -2.304912 -0.817904 6.998659
endloop
endfacet
facet normal -0.290281 0.000000 0.956942
outer loop
vertex -2.340929 -0.817904 6.995112
vertex -2.340929 -0.510211 6.995112
vertex -2.375561 -0.510211 6.984606
endloop
endfacet
facet normal -0.290281 0.000000 0.956942
outer loop
vertex -2.375561 -0.510211 6.984606
vertex -2.375561 -0.817904 6.984606
vertex -2.340929 -0.817904 6.995112
endloop
endfacet
facet normal -0.471409 0.000000 0.881915
outer loop
vertex -2.375561 -0.817904 6.984606
vertex -2.375561 -0.510211 6.984606
vertex -2.407479 -0.510211 6.967546
endloop
endfacet
facet normal -0.471409 0.000000 0.881915
outer loop
vertex -2.407479 -0.510211 6.967546
vertex -2.407479 -0.817904 6.967546
vertex -2.375561 -0.817904 6.984606
endloop
endfacet
facet normal -0.634390 0.000000 0.773014
outer loop
vertex -2.407479 -0.817904 6.967546
vertex -2.407479 -0.510211 6.967546
vertex -2.435455 -0.510211 6.944587
endloop
endfacet
facet normal -0.634390 0.000000 0.773013
outer loop
vertex -2.435455 -0.510211 6.944587
vertex -2.435455 -0.817904 6.944587
vertex -2.407479 -0.817904 6.967546
endloop
endfacet
facet normal -0.773007 0.000000 0.634398
outer loop
vertex -2.435455 -0.817904 6.944587
vertex -2.435455 -0.510211 6.944587
vertex -2.458414 -0.510211 6.916611
endloop
endfacet
facet normal -0.773007 0.000000 0.634398
outer loop
vertex -2.458414 -0.510211 6.916611
vertex -2.458414 -0.817904 6.916611
vertex -2.435455 -0.817904 6.944587
endloop
endfacet
facet normal -0.881924 0.000000 0.471391
outer loop
vertex -2.458414 -0.817904 6.916611
vertex -2.458414 -0.510211 6.916611
vertex -2.475474 -0.510211 6.884693
endloop
endfacet
facet normal -0.881924 0.000000 0.471391
outer loop
vertex -2.475474 -0.510211 6.884693
vertex -2.475474 -0.817904 6.884693
vertex -2.458414 -0.817904 6.916611
endloop
endfacet
facet normal -0.956942 0.000000 0.290280
outer loop
vertex -2.475474 -0.817904 6.884693
vertex -2.475474 -0.510211 6.884693
vertex -2.485980 -0.510211 6.850060
endloop
endfacet
facet normal -0.956938 0.000000 0.290292
outer loop
vertex -2.485980 -0.510211 6.850060
vertex -2.485980 -0.817904 6.850060
vertex -2.475474 -0.817904 6.884693
endloop
endfacet
facet normal -0.995185 0.000000 0.098012
outer loop
vertex -2.485980 -0.817904 6.850060
vertex -2.485980 -0.510211 6.850060
vertex -2.489527 -0.510211 6.814044
endloop
endfacet
facet normal -0.995185 0.000000 0.098016
outer loop
vertex -2.489527 -0.510211 6.814044
vertex -2.489527 -0.817904 6.814044
vertex -2.485980 -0.817904 6.850060
endloop
endfacet
facet normal -0.995185 0.000000 -0.098019
outer loop
vertex -2.489527 -0.817904 6.814044
vertex -2.489527 -0.510211 6.814044
vertex -2.485980 -0.510211 6.778027
endloop
endfacet
facet normal -0.995185 0.000000 -0.098019
outer loop
vertex -2.485980 -0.510211 6.778027
vertex -2.485980 -0.817904 6.778027
vertex -2.489527 -0.817904 6.814044
endloop
endfacet
facet normal -0.956942 0.000000 -0.290280
outer loop
vertex -2.485980 -0.817904 6.778027
vertex -2.485980 -0.510211 6.778027
vertex -2.475474 -0.510211 6.743394
endloop
endfacet
facet normal -0.956942 0.000000 -0.290280
outer loop
vertex -2.475474 -0.510211 6.743394
vertex -2.475474 -0.817904 6.743394
vertex -2.485980 -0.817904 6.778027
endloop
endfacet
facet normal -0.881915 0.000000 -0.471409
outer loop
vertex -2.475474 -0.817904 6.743394
vertex -2.475474 -0.510211 6.743394
vertex -2.458414 -0.510211 6.711477
endloop
endfacet
facet normal -0.881924 0.000000 -0.471391
outer loop
vertex -2.458414 -0.510211 6.711477
vertex -2.458414 -0.817904 6.711477
vertex -2.475474 -0.817904 6.743394
endloop
endfacet
facet normal -0.773003 0.000000 -0.634402
outer loop
vertex -2.458414 -0.817904 6.711477
vertex -2.458414 -0.510211 6.711477
vertex -2.435454 -0.510211 6.683501
endloop
endfacet
facet normal -0.773003 0.000000 -0.634402
outer loop
vertex -2.435454 -0.510211 6.683501
vertex -2.435454 -0.817904 6.683501
vertex -2.458414 -0.817904 6.711477
endloop
endfacet
facet normal -0.634393 0.000000 -0.773011
outer loop
vertex -2.435454 -0.817904 6.683501
vertex -2.435454 -0.510211 6.683501
vertex -2.407479 -0.510211 6.660542
endloop
endfacet
facet normal -0.634418 0.000000 -0.772990
outer loop
vertex -2.407479 -0.510211 6.660542
vertex -2.407479 -0.817904 6.660542
vertex -2.435454 -0.817904 6.683501
endloop
endfacet
facet normal -0.471373 0.000000 -0.881934
outer loop
vertex -2.407479 -0.817904 6.660542
vertex -2.407479 -0.510211 6.660542
vertex -2.375561 -0.510211 6.643482
endloop
endfacet
facet normal -0.471373 0.000000 -0.881934
outer loop
vertex -2.375561 -0.510211 6.643482
vertex -2.375561 -0.817904 6.643482
vertex -2.407479 -0.817904 6.660542
endloop
endfacet
facet normal 0.000000 1.000000 0.000015
outer loop
vertex -2.268895 -0.510211 6.632976
vertex -2.202345 -0.510211 6.660542
vertex -2.234263 -0.510211 6.643482
endloop
endfacet
facet normal 0.000000 1.000000 0.000000
outer loop
vertex -2.151410 -0.510211 6.711477
vertex -2.174369 -0.510211 6.683501
vertex -2.202345 -0.510211 6.660542
endloop
endfacet
facet normal 0.000000 1.000000 0.000000
outer loop
vertex -2.123844 -0.510211 6.778028
vertex -2.134350 -0.510211 6.743395
vertex -2.151410 -0.510211 6.711477
endloop
endfacet
facet normal 0.000000 1.000000 0.000000
outer loop
vertex -2.123844 -0.510211 6.850060
vertex -2.120296 -0.510211 6.814044
vertex -2.123844 -0.510211 6.778028
endloop
endfacet
facet normal 0.000000 1.000000 -0.000004
outer loop
vertex -2.151410 -0.510211 6.916611
vertex -2.134350 -0.510211 6.884693
vertex -2.123844 -0.510211 6.850060
endloop
endfacet
facet normal 0.000000 1.000000 0.000000
outer loop
vertex -2.202345 -0.510211 6.967546
vertex -2.174369 -0.510211 6.944587
vertex -2.151410 -0.510211 6.916611
endloop
endfacet
facet normal 0.000000 1.000000 -0.000015
outer loop
vertex -2.268895 -0.510211 6.995112
vertex -2.234263 -0.510211 6.984606
vertex -2.202345 -0.510211 6.967546
endloop
endfacet
facet normal 0.000000 1.000000 0.000000
outer loop
vertex -2.340929 -0.510211 6.995112
vertex -2.304912 -0.510211 6.998659
vertex -2.268895 -0.510211 6.995112
endloop
endfacet
facet normal 0.000000 1.000000 0.000015
outer loop
vertex -2.407479 -0.510211 6.967546
vertex -2.375561 -0.510211 6.984606
vertex -2.340929 -0.510211 6.995112
endloop
endfacet
facet normal 0.000000 1.000000 0.000000
outer loop
vertex -2.458414 -0.510211 6.916611
vertex -2.435455 -0.510211 6.944587
vertex -2.407479 -0.510211 6.967546
endloop
endfacet
facet normal 0.000000 1.000000 0.000000
outer loop
vertex -2.485980 -0.510211 6.850060
vertex -2.475474 -0.510211 6.884693
vertex -2.458414 -0.510211 6.916611
endloop
endfacet
facet normal 0.000000 1.000000 0.000000
outer loop
vertex -2.485980 -0.510211 6.778027
vertex -2.489527 -0.510211 6.814044
vertex -2.485980 -0.510211 6.850060
endloop
endfacet
facet normal 0.000000 1.000000 0.000004
outer loop
vertex -2.458414 -0.510211 6.711477
vertex -2.475474 -0.510211 6.743394
vertex -2.485980 -0.510211 6.778027
endloop
endfacet
facet normal 0.000000 1.000000 0.000007
outer loop
vertex -2.407479 -0.510211 6.660542
vertex -2.435454 -0.510211 6.683501
vertex -2.458414 -0.510211 6.711477
endloop
endfacet
facet normal 0.000000 1.000000 0.000000
outer loop
vertex -2.340928 -0.510211 6.632976
vertex -2.375561 -0.510211 6.643482
vertex -2.407479 -0.510211 6.660542
endloop
endfacet
facet normal 0.000000 1.000000 -0.000015
outer loop
vertex -2.268895 -0.510211 6.632976
vertex -2.304912 -0.510211 6.629429
vertex -2.340928 -0.510211 6.632976
endloop
endfacet
facet normal 0.000000 1.000000 -0.000004
outer loop
vertex -2.268895 -0.510211 6.632976
vertex -2.151410 -0.510211 6.711477
vertex -2.202345 -0.510211 6.660542
endloop
endfacet
facet normal 0.000000 1.000000 0.000000
outer loop
vertex -2.123844 -0.510211 6.850060
vertex -2.123844 -0.510211 6.778028
vertex -2.151410 -0.510211 6.711477
endloop
endfacet
facet normal 0.000000 1.000000 0.000001
outer loop
vertex -2.202345 -0.510211 6.967546
vertex -2.151410 -0.510211 6.916611
vertex -2.123844 -0.510211 6.850060
endloop
endfacet
facet normal 0.000000 1.000000 0.000000
outer loop
vertex -2.340929 -0.510211 6.995112
vertex -2.268895 -0.510211 6.995112
vertex -2.202345 -0.510211 6.967546
endloop
endfacet
facet normal 0.000000 1.000000 0.000000
outer loop
vertex -2.458414 -0.510211 6.916611
vertex -2.407479 -0.510211 6.967546
vertex -2.340929 -0.510211 6.995112
endloop
endfacet
facet normal 0.000000 1.000000 0.000000
outer loop
vertex -2.485980 -0.510211 6.778027
vertex -2.485980 -0.510211 6.850060
vertex -2.458414 -0.510211 6.916611
endloop
endfacet
facet normal 0.000000 1.000000 -0.000001
outer loop
vertex -2.407479 -0.510211 6.660542
vertex -2.458414 -0.510211 6.711477
vertex -2.485980 -0.510211 6.778027
endloop
endfacet
facet normal 0.000000 1.000000 0.000004
outer loop
vertex -2.268895 -0.510211 6.632976
vertex -2.340928 -0.510211 6.632976
vertex -2.407479 -0.510211 6.660542
endloop
endfacet
facet normal 0.000000 1.000000 -0.000000
outer loop
vertex -2.268895 -0.510211 6.632976
vertex -2.123844 -0.510211 6.850060
vertex -2.151410 -0.510211 6.711477
endloop
endfacet
facet normal 0.000000 1.000000 0.000000
outer loop
vertex -2.340929 -0.510211 6.995112
vertex -2.202345 -0.510211 6.967546
vertex -2.123844 -0.510211 6.850060
endloop
endfacet
facet normal 0.000000 1.000000 0.000000
outer loop
vertex -2.485980 -0.510211 6.778027
vertex -2.458414 -0.510211 6.916611
vertex -2.340929 -0.510211 6.995112
endloop
endfacet
facet normal 0.000000 1.000000 0.000000
outer loop
vertex -2.268895 -0.510211 6.632976
vertex -2.407479 -0.510211 6.660542
vertex -2.485980 -0.510211 6.778027
endloop
endfacet
facet normal 0.000000 1.000000 0.000000
outer loop
vertex -2.268895 -0.510211 6.632976
vertex -2.340929 -0.510211 6.995112
vertex -2.123844 -0.510211 6.850060
endloop
endfacet
facet normal 0.000000 1.000000 0.000000
outer loop
vertex -2.268895 -0.510211 6.632976
vertex -2.485980 -0.510211 6.778027
vertex -2.340929 -0.510211 6.995112
endloop
endfacet
facet normal -0.098017 0.000000 -0.995185
outer loop
vertex -2.304912 -0.510211 6.629429
vertex -2.304912 -0.817904 6.629429
vertex -2.340928 -0.817904 6.632976
endloop
endfacet
facet normal -0.097975 0.000000 -0.995189
outer loop
vertex -2.340928 -0.817904 6.632976
vertex -2.340928 -0.510211 6.632976
vertex -2.304912 -0.510211 6.629429
endloop
endfacet
facet normal -0.290322 0.000000 -0.956929
outer loop
vertex -2.375561 -0.817904 6.643482
vertex -2.375561 -0.510211 6.643482
vertex -2.340928 -0.510211 6.632976
endloop
endfacet
facet normal -0.290283 0.000000 -0.956941
outer loop
vertex -2.340928 -0.510211 6.632976
vertex -2.340928 -0.817904 6.632976
vertex -2.375561 -0.817904 6.643482
endloop
endfacet
facet normal 0.000000 -1.000000 0.000015
outer loop
vertex -2.304912 -0.817904 6.629429
vertex -2.375561 -0.817904 6.643482
vertex -2.340928 -0.817904 6.632976
endloop
endfacet
facet normal 0.000000 -1.000000 0.000000
outer loop
vertex -2.435454 -0.817904 6.683501
vertex -2.407479 -0.817904 6.660542
vertex -2.375561 -0.817904 6.643482
endloop
endfacet
facet normal 0.000000 -1.000000 0.000015
outer loop
vertex -2.475474 -0.817904 6.743394
vertex -2.458414 -0.817904 6.711477
vertex -2.435454 -0.817904 6.683501
endloop
endfacet
facet normal 0.000000 -1.000000 0.000000
outer loop
vertex -2.489527 -0.817904 6.814044
vertex -2.485980 -0.817904 6.778027
vertex -2.475474 -0.817904 6.743394
endloop
endfacet
facet normal 0.000000 -1.000000 -0.000004
outer loop
vertex -2.475474 -0.817904 6.884693
vertex -2.485980 -0.817904 6.850060
vertex -2.489527 -0.817904 6.814044
endloop
endfacet
facet normal 0.000000 -1.000000 -0.000007
outer loop
vertex -2.435455 -0.817904 6.944587
vertex -2.458414 -0.817904 6.916611
vertex -2.475474 -0.817904 6.884693
endloop
endfacet
facet normal 0.000000 -1.000000 -0.000015
outer loop
vertex -2.375561 -0.817904 6.984606
vertex -2.407479 -0.817904 6.967546
vertex -2.435455 -0.817904 6.944587
endloop
endfacet
facet normal 0.000000 -1.000000 0.000000
outer loop
vertex -2.304912 -0.817904 6.998659
vertex -2.340929 -0.817904 6.995112
vertex -2.375561 -0.817904 6.984606
endloop
endfacet
facet normal 0.000000 -1.000000 0.000000
outer loop
vertex -2.234263 -0.817904 6.984606
vertex -2.268895 -0.817904 6.995112
vertex -2.304912 -0.817904 6.998659
endloop
endfacet
facet normal 0.000000 -1.000000 -0.000015
outer loop
vertex -2.174369 -0.817904 6.944587
vertex -2.202345 -0.817904 6.967546
vertex -2.234263 -0.817904 6.984606
endloop
endfacet
facet normal 0.000000 -1.000000 -0.000015
outer loop
vertex -2.134350 -0.817904 6.884693
vertex -2.151410 -0.817904 6.916611
vertex -2.174369 -0.817904 6.944587
endloop
endfacet
facet normal 0.000000 -1.000000 0.000000
outer loop
vertex -2.120296 -0.817904 6.814044
vertex -2.123844 -0.817904 6.850060
vertex -2.134350 -0.817904 6.884693
endloop
endfacet
facet normal 0.000000 -1.000000 -0.000002
outer loop
vertex -2.134350 -0.817904 6.743395
vertex -2.123844 -0.817904 6.778028
vertex -2.120296 -0.817904 6.814044
endloop
endfacet
facet normal 0.000000 -1.000000 0.000007
outer loop
vertex -2.174369 -0.817904 6.683501
vertex -2.151410 -0.817904 6.711477
vertex -2.134350 -0.817904 6.743395
endloop
endfacet
facet normal 0.000000 -1.000000 0.000015
outer loop
vertex -2.234263 -0.817904 6.643482
vertex -2.202345 -0.817904 6.660542
vertex -2.174369 -0.817904 6.683501
endloop
endfacet
facet normal 0.000000 -1.000000 0.000000
outer loop
vertex -2.304912 -0.817904 6.629429
vertex -2.268895 -0.817904 6.632976
vertex -2.234263 -0.817904 6.643482
endloop
endfacet
facet normal 0.000000 -1.000000 -0.000004
outer loop
vertex -2.304912 -0.817904 6.629429
vertex -2.435454 -0.817904 6.683501
vertex -2.375561 -0.817904 6.643482
endloop
endfacet
facet normal 0.000000 -1.000000 0.000000
outer loop
vertex -2.489527 -0.817904 6.814044
vertex -2.475474 -0.817904 6.743394
vertex -2.435454 -0.817904 6.683501
endloop
endfacet
facet normal 0.000000 -1.000000 -0.000001
outer loop
vertex -2.435455 -0.817904 6.944587
vertex -2.475474 -0.817904 6.884693
vertex -2.489527 -0.817904 6.814044
endloop
endfacet
facet normal 0.000000 -1.000000 0.000000
outer loop
vertex -2.304912 -0.817904 6.998659
vertex -2.375561 -0.817904 6.984606
vertex -2.435455 -0.817904 6.944587
endloop
endfacet
facet normal 0.000000 -1.000000 0.000000
outer loop
vertex -2.174369 -0.817904 6.944587
vertex -2.234263 -0.817904 6.984606
vertex -2.304912 -0.817904 6.998659
endloop
endfacet
facet normal 0.000000 -1.000000 0.000000
outer loop
vertex -2.120296 -0.817904 6.814044
vertex -2.134350 -0.817904 6.884693
vertex -2.174369 -0.817904 6.944587
endloop
endfacet
facet normal 0.000000 -1.000000 -0.000001
outer loop
vertex -2.174369 -0.817904 6.683501
vertex -2.134350 -0.817904 6.743395
vertex -2.120296 -0.817904 6.814044
endloop
endfacet
facet normal 0.000000 -1.000000 0.000000
outer loop
vertex -2.304912 -0.817904 6.629429
vertex -2.234263 -0.817904 6.643482
vertex -2.174369 -0.817904 6.683501
endloop
endfacet
facet normal 0.000000 -1.000000 0.000001
outer loop
vertex -2.304912 -0.817904 6.629429
vertex -2.489527 -0.817904 6.814044
vertex -2.435454 -0.817904 6.683501
endloop
endfacet
facet normal 0.000000 -1.000000 0.000000
outer loop
vertex -2.304912 -0.817904 6.998659
vertex -2.435455 -0.817904 6.944587
vertex -2.489527 -0.817904 6.814044
endloop
endfacet
facet normal 0.000000 -1.000000 -0.000001
outer loop
vertex -2.120296 -0.817904 6.814044
vertex -2.174369 -0.817904 6.944587
vertex -2.304912 -0.817904 6.998659
endloop
endfacet
facet normal 0.000000 -1.000000 0.000001
outer loop
vertex -2.304912 -0.817904 6.629429
vertex -2.174369 -0.817904 6.683501
vertex -2.120296 -0.817904 6.814044
endloop
endfacet
facet normal 0.000000 -1.000000 0.000000
outer loop
vertex -2.304912 -0.817904 6.629429
vertex -2.304912 -0.817904 6.998659
vertex -2.489527 -0.817904 6.814044
endloop
endfacet
facet normal 0.000000 -1.000000 0.000000
outer loop
vertex -2.304912 -0.817904 6.629429
vertex -2.120296 -0.817904 6.814044
vertex -2.304912 -0.817904 6.998659
endloop
endfacet
endsolid Exported from Blender-2.74 (sub 0)
