solid Exported from Blender-2.74 (sub 0)
facet normal 0.098017 0.000000 -0.995185
outer loop
vertex -2.305025 -0.817904 6.629429
vertex -2.305025 -0.510211 6.629429
vertex -2.269009 -0.510211 6.632976
endloop
endfacet
facet normal 0.097975 0.000000 -0.995189
outer loop
vertex -2.269009 -0.510211 6.632976
vertex -2.269009 -0.817904 6.632976
vertex -2.305025 -0.817904 6.629429
endloop
endfacet
facet normal 0.290281 0.000000 -0.956942
outer loop
vertex -2.269009 -0.817904 6.632976
vertex -2.269009 -0.510211 6.632976
vertex -2.234376 -0.510211 6.643482
endloop
endfacet
facet normal 0.290320 0.000000 -0.956930
outer loop
vertex -2.234376 -0.510211 6.643482
vertex -2.234376 -0.817904 6.643482
vertex -2.269009 -0.817904 6.632976
endloop
endfacet
facet normal 0.471376 0.000000 -0.881932
outer loop
vertex -2.234376 -0.817904 6.643482
vertex -2.234376 -0.510211 6.643482
vertex -2.202459 -0.510211 6.660542
endloop
endfacet
facet normal 0.471409 0.000000 -0.881915
outer loop
vertex -2.202459 -0.510211 6.660542
vertex -2.202459 -0.817904 6.660542
vertex -2.234376 -0.817904 6.643482
endloop
endfacet
facet normal 0.634390 0.000000 -0.773014
outer loop
vertex -2.202459 -0.817904 6.660542
vertex -2.202459 -0.510211 6.660542
vertex -2.174483 -0.510211 6.683501
endloop
endfacet
facet normal 0.634390 0.000000 -0.773013
outer loop
vertex -2.174483 -0.510211 6.683501
vertex -2.174483 -0.817904 6.683501
vertex -2.202459 -0.817904 6.660542
endloop
endfacet
facet normal 0.773007 0.000000 -0.634398
outer loop
vertex -2.174483 -0.817904 6.683501
vertex -2.174483 -0.510211 6.683501
vertex -2.151523 -0.510211 6.711477
endloop
endfacet
facet normal 0.773024 0.000000 -0.634377
outer loop
vertex -2.151523 -0.510211 6.711477
vertex -2.151523 -0.817904 6.711477
vertex -2.174483 -0.817904 6.683501
endloop
endfacet
facet normal 0.881915 0.000000 -0.471409
outer loop
vertex -2.151523 -0.817904 6.711477
vertex -2.151523 -0.510211 6.711477
vertex -2.134463 -0.510211 6.743395
endloop
endfacet
facet normal 0.881924 0.000000 -0.471391
outer loop
vertex -2.134463 -0.510211 6.743395
vertex -2.134463 -0.817904 6.743395
vertex -2.151523 -0.817904 6.711477
endloop
endfacet
facet normal 0.956942 0.000000 -0.290280
outer loop
vertex -2.134463 -0.817904 6.743395
vertex -2.134463 -0.510211 6.743395
vertex -2.123957 -0.510211 6.778028
endloop
endfacet
facet normal 0.956938 0.000000 -0.290292
outer loop
vertex -2.123957 -0.510211 6.778028
vertex -2.123957 -0.817904 6.778028
vertex -2.134463 -0.817904 6.743395
endloop
endfacet
facet normal 0.995185 0.000000 -0.098019
outer loop
vertex -2.123957 -0.817904 6.778028
vertex -2.123957 -0.510211 6.778028
vertex -2.120410 -0.510211 6.814044
endloop
endfacet
facet normal 0.995185 0.000000 -0.098019
outer loop
vertex -2.120410 -0.510211 6.814044
vertex -2.120410 -0.817904 6.814044
vertex -2.123957 -0.817904 6.778028
endloop
endfacet
facet normal 0.995184 0.000000 0.098023
outer loop
vertex -2.120410 -0.817904 6.814044
vertex -2.120410 -0.510211 6.814044
vertex -2.123957 -0.510211 6.850060
endloop
endfacet
facet normal 0.995185 0.000000 0.098019
outer loop
vertex -2.123957 -0.510211 6.850060
vertex -2.123957 -0.817904 6.850060
vertex -2.120410 -0.817904 6.814044
endloop
endfacet
facet normal 0.956938 0.000000 0.290292
outer loop
vertex -2.123957 -0.817904 6.850060
vertex -2.123957 -0.510211 6.850060
vertex -2.134463 -0.510211 6.884693
endloop
endfacet
facet normal 0.956942 0.000000 0.290280
outer loop
vertex -2.134463 -0.510211 6.884693
vertex -2.134463 -0.817904 6.884693
vertex -2.123957 -0.817904 6.850060
endloop
endfacet
facet normal 0.881924 0.000000 0.471391
outer loop
vertex -2.134463 -0.817904 6.884693
vertex -2.134463 -0.510211 6.884693
vertex -2.151523 -0.510211 6.916611
endloop
endfacet
facet normal 0.881924 0.000000 0.471391
outer loop
vertex -2.151523 -0.510211 6.916611
vertex -2.151523 -0.817904 6.916611
vertex -2.134463 -0.817904 6.884693
endloop
endfacet
facet normal 0.773007 0.000000 0.634398
outer loop
vertex -2.151523 -0.817904 6.916611
vertex -2.151523 -0.510211 6.916611
vertex -2.174483 -0.510211 6.944587
endloop
endfacet
facet normal 0.773007 0.000000 0.634398
outer loop
vertex -2.174483 -0.510211 6.944587
vertex -2.174483 -0.817904 6.944587
vertex -2.151523 -0.817904 6.916611
endloop
endfacet
facet normal 0.634390 0.000000 0.773014
outer loop
vertex -2.174483 -0.817904 6.944587
vertex -2.174483 -0.510211 6.944587
vertex -2.202459 -0.510211 6.967546
endloop
endfacet
facet normal 0.634390 0.000000 0.773013
outer loop
vertex -2.202459 -0.510211 6.967546
vertex -2.202459 -0.817904 6.967546
vertex -2.174483 -0.817904 6.944587
endloop
endfacet
facet normal 0.471409 0.000000 0.881915
outer loop
vertex -2.202459 -0.817904 6.967546
vertex -2.202459 -0.510211 6.967546
vertex -2.234376 -0.510211 6.984606
endloop
endfacet
facet normal 0.471409 0.000000 0.881915
outer loop
vertex -2.234376 -0.510211 6.984606
vertex -2.234376 -0.817904 6.984606
vertex -2.202459 -0.817904 6.967546
endloop
endfacet
facet normal 0.290281 0.000000 0.956942
outer loop
vertex -2.234376 -0.817904 6.984606
vertex -2.234376 -0.510211 6.984606
vertex -2.269009 -0.510211 6.995112
endloop
endfacet
facet normal 0.290281 0.000000 0.956942
outer loop
vertex -2.269009 -0.510211 6.995112
vertex -2.269009 -0.817904 6.995112
vertex -2.234376 -0.817904 6.984606
endloop
endfacet
facet normal 0.097974 0.000000 0.995189
outer loop
vertex -2.269009 -0.817904 6.995112
vertex -2.269009 -0.510211 6.995112
vertex -2.305026 -0.510211 6.998659
endloop
endfacet
facet normal 0.098059 0.000000 0.995181
outer loop
vertex -2.305026 -0.510211 6.998659
vertex -2.305026 -0.817904 6.998659
vertex -2.269009 -0.817904 6.995112
endloop
endfacet
facet normal -0.098059 0.000000 0.995181
outer loop
vertex -2.305026 -0.817904 6.998659
vertex -2.305026 -0.510211 6.998659
vertex -2.341042 -0.510211 6.995112
endloop
endfacet
facet normal -0.097974 0.000000 0.995189
outer loop
vertex -2.341042 -0.510211 6.995112
vertex -2.341042 -0.817904 6.995112
vertex -2.305026 -0.817904 6.998659
endloop
endfacet
facet normal -0.290283 0.000000 0.956941
outer loop
vertex -2.341042 -0.817904 6.995112
vertex -2.341042 -0.510211 6.995112
vertex -2.375675 -0.510211 6.984606
endloop
endfacet
facet normal -0.290283 0.000000 0.956941
outer loop
vertex -2.375675 -0.510211 6.984606
vertex -2.375675 -0.817904 6.984606
vertex -2.341042 -0.817904 6.995112
endloop
endfacet
facet normal -0.471409 0.000000 0.881915
outer loop
vertex -2.375675 -0.817904 6.984606
vertex -2.375675 -0.510211 6.984606
vertex -2.407592 -0.510211 6.967546
endloop
endfacet
facet normal -0.471409 0.000000 0.881915
outer loop
vertex -2.407592 -0.510211 6.967546
vertex -2.407592 -0.817904 6.967546
vertex -2.375675 -0.817904 6.984606
endloop
endfacet
facet normal -0.634390 0.000000 0.773014
outer loop
vertex -2.407592 -0.817904 6.967546
vertex -2.407592 -0.510211 6.967546
vertex -2.435568 -0.510211 6.944587
endloop
endfacet
facet normal -0.634390 0.000000 0.773013
outer loop
vertex -2.435568 -0.510211 6.944587
vertex -2.435568 -0.817904 6.944587
vertex -2.407592 -0.817904 6.967546
endloop
endfacet
facet normal -0.773007 0.000000 0.634398
outer loop
vertex -2.435568 -0.817904 6.944587
vertex -2.435568 -0.510211 6.944587
vertex -2.458528 -0.510211 6.916611
endloop
endfacet
facet normal -0.773007 0.000000 0.634398
outer loop
vertex -2.458528 -0.510211 6.916611
vertex -2.458528 -0.817904 6.916611
vertex -2.435568 -0.817904 6.944587
endloop
endfacet
facet normal -0.881924 0.000000 0.471391
outer loop
vertex -2.458528 -0.817904 6.916611
vertex -2.458528 -0.510211 6.916611
vertex -2.475588 -0.510211 6.884693
endloop
endfacet
facet normal -0.881924 0.000000 0.471391
outer loop
vertex -2.475588 -0.510211 6.884693
vertex -2.475588 -0.817904 6.884693
vertex -2.458528 -0.817904 6.916611
endloop
endfacet
facet normal -0.956942 0.000000 0.290280
outer loop
vertex -2.475588 -0.817904 6.884693
vertex -2.475588 -0.510211 6.884693
vertex -2.486094 -0.510211 6.850060
endloop
endfacet
facet normal -0.956938 0.000000 0.290292
outer loop
vertex -2.486094 -0.510211 6.850060
vertex -2.486094 -0.817904 6.850060
vertex -2.475588 -0.817904 6.884693
endloop
endfacet
facet normal -0.995185 0.000000 0.098012
outer loop
vertex -2.486094 -0.817904 6.850060
vertex -2.486094 -0.510211 6.850060
vertex -2.489641 -0.510211 6.814044
endloop
endfacet
facet normal -0.995185 0.000000 0.098016
outer loop
vertex -2.489641 -0.510211 6.814044
vertex -2.489641 -0.817904 6.814044
vertex -2.486094 -0.817904 6.850060
endloop
endfacet
facet normal -0.995185 0.000000 -0.098012
outer loop
vertex -2.489641 -0.817904 6.814044
vertex -2.489641 -0.510211 6.814044
vertex -2.486094 -0.510211 6.778027
endloop
endfacet
facet normal -0.995185 0.000000 -0.098012
outer loop
vertex -2.486094 -0.510211 6.778027
vertex -2.486094 -0.817904 6.778027
vertex -2.489641 -0.817904 6.814044
endloop
endfacet
facet normal -0.956942 0.000000 -0.290280
outer loop
vertex -2.486094 -0.817904 6.778027
vertex -2.486094 -0.510211 6.778027
vertex -2.475588 -0.510211 6.743394
endloop
endfacet
facet normal -0.956942 0.000000 -0.290280
outer loop
vertex -2.475588 -0.510211 6.743394
vertex -2.475588 -0.817904 6.743394
vertex -2.486094 -0.817904 6.778027
endloop
endfacet
facet normal -0.881912 0.000000 -0.471414
outer loop
vertex -2.475588 -0.817904 6.743394
vertex -2.475588 -0.510211 6.743394
vertex -2.458527 -0.510211 6.711477
endloop
endfacet
facet normal -0.881922 0.000000 -0.471396
outer loop
vertex -2.458527 -0.510211 6.711477
vertex -2.458527 -0.817904 6.711477
vertex -2.475588 -0.817904 6.743394
endloop
endfacet
facet normal -0.773007 0.000000 -0.634398
outer loop
vertex -2.458527 -0.817904 6.711477
vertex -2.458527 -0.510211 6.711477
vertex -2.435568 -0.510211 6.683501
endloop
endfacet
facet normal -0.773007 0.000000 -0.634398
outer loop
vertex -2.435568 -0.510211 6.683501
vertex -2.435568 -0.817904 6.683501
vertex -2.458527 -0.817904 6.711477
endloop
endfacet
facet normal -0.634390 0.000000 -0.773014
outer loop
vertex -2.435568 -0.817904 6.683501
vertex -2.435568 -0.510211 6.683501
vertex -2.407592 -0.510211 6.660542
endloop
endfacet
facet normal -0.634415 0.000000 -0.772992
outer loop
vertex -2.407592 -0.510211 6.660542
vertex -2.407592 -0.817904 6.660542
vertex -2.435568 -0.817904 6.683501
endloop
endfacet
facet normal -0.471376 0.000000 -0.881932
outer loop
vertex -2.407592 -0.817904 6.660542
vertex -2.407592 -0.510211 6.660542
vertex -2.375674 -0.510211 6.643482
endloop
endfacet
facet normal -0.471376 0.000000 -0.881932
outer loop
vertex -2.375674 -0.510211 6.643482
vertex -2.375674 -0.817904 6.643482
vertex -2.407592 -0.817904 6.660542
endloop
endfacet
facet normal -0.072047 0.678108 -0.731423
outer loop
vertex -2.305025 -0.510211 6.629429
vertex -2.341042 -0.510211 6.632976
vertex -2.309341 -0.334945 6.792346
endloop
endfacet
facet normal -0.072155 0.678094 -0.731425
outer loop
vertex -2.309341 -0.334945 6.792346
vertex -2.305025 -0.334945 6.791920
vertex -2.305025 -0.510211 6.629429
endloop
endfacet
facet normal -0.098017 0.000000 -0.995185
outer loop
vertex -2.305025 -0.510211 6.629429
vertex -2.305025 -0.817904 6.629429
vertex -2.341042 -0.817904 6.632976
endloop
endfacet
facet normal -0.097975 0.000000 -0.995189
outer loop
vertex -2.341042 -0.817904 6.632976
vertex -2.341042 -0.510211 6.632976
vertex -2.305025 -0.510211 6.629429
endloop
endfacet
facet normal -0.290320 0.000000 -0.956930
outer loop
vertex -2.375674 -0.817904 6.643482
vertex -2.375674 -0.510211 6.643482
vertex -2.341042 -0.510211 6.632976
endloop
endfacet
facet normal -0.290281 0.000000 -0.956942
outer loop
vertex -2.341042 -0.510211 6.632976
vertex -2.341042 -0.817904 6.632976
vertex -2.375674 -0.817904 6.643482
endloop
endfacet
facet normal 0.000000 -1.000000 -0.000015
outer loop
vertex -2.305025 -0.817904 6.629429
vertex -2.375674 -0.817904 6.643482
vertex -2.341042 -0.817904 6.632976
endloop
endfacet
facet normal 0.000000 -1.000000 0.000015
outer loop
vertex -2.435568 -0.817904 6.683501
vertex -2.407592 -0.817904 6.660542
vertex -2.375674 -0.817904 6.643482
endloop
endfacet
facet normal 0.000000 -1.000000 0.000015
outer loop
vertex -2.475588 -0.817904 6.743394
vertex -2.458527 -0.817904 6.711477
vertex -2.435568 -0.817904 6.683501
endloop
endfacet
facet normal 0.000000 -1.000000 0.000000
outer loop
vertex -2.489641 -0.817904 6.814044
vertex -2.486094 -0.817904 6.778027
vertex -2.475588 -0.817904 6.743394
endloop
endfacet
facet normal 0.000000 -1.000000 -0.000004
outer loop
vertex -2.475588 -0.817904 6.884693
vertex -2.486094 -0.817904 6.850060
vertex -2.489641 -0.817904 6.814044
endloop
endfacet
facet normal 0.000000 -1.000000 -0.000007
outer loop
vertex -2.435568 -0.817904 6.944587
vertex -2.458528 -0.817904 6.916611
vertex -2.475588 -0.817904 6.884693
endloop
endfacet
facet normal 0.000000 -1.000000 -0.000015
outer loop
vertex -2.375675 -0.817904 6.984606
vertex -2.407592 -0.817904 6.967546
vertex -2.435568 -0.817904 6.944587
endloop
endfacet
facet normal 0.000000 -1.000000 0.000000
outer loop
vertex -2.305026 -0.817904 6.998659
vertex -2.341042 -0.817904 6.995112
vertex -2.375675 -0.817904 6.984606
endloop
endfacet
facet normal 0.000000 -1.000000 0.000000
outer loop
vertex -2.234376 -0.817904 6.984606
vertex -2.269009 -0.817904 6.995112
vertex -2.305026 -0.817904 6.998659
endloop
endfacet
facet normal 0.000000 -1.000000 -0.000015
outer loop
vertex -2.174483 -0.817904 6.944587
vertex -2.202459 -0.817904 6.967546
vertex -2.234376 -0.817904 6.984606
endloop
endfacet
facet normal 0.000000 -1.000000 -0.000015
outer loop
vertex -2.134463 -0.817904 6.884693
vertex -2.151523 -0.817904 6.916611
vertex -2.174483 -0.817904 6.944587
endloop
endfacet
facet normal 0.000000 -1.000000 0.000000
outer loop
vertex -2.120410 -0.817904 6.814044
vertex -2.123957 -0.817904 6.850060
vertex -2.134463 -0.817904 6.884693
endloop
endfacet
facet normal 0.000000 -1.000000 -0.000002
outer loop
vertex -2.134463 -0.817904 6.743395
vertex -2.123957 -0.817904 6.778028
vertex -2.120410 -0.817904 6.814044
endloop
endfacet
facet normal 0.000000 -1.000000 0.000007
outer loop
vertex -2.174483 -0.817904 6.683501
vertex -2.151523 -0.817904 6.711477
vertex -2.134463 -0.817904 6.743395
endloop
endfacet
facet normal 0.000000 -1.000000 0.000015
outer loop
vertex -2.234376 -0.817904 6.643482
vertex -2.202459 -0.817904 6.660542
vertex -2.174483 -0.817904 6.683501
endloop
endfacet
facet normal 0.000000 -1.000000 -0.000015
outer loop
vertex -2.305025 -0.817904 6.629429
vertex -2.269009 -0.817904 6.632976
vertex -2.234376 -0.817904 6.643482
endloop
endfacet
facet normal 0.000000 -1.000000 0.000000
outer loop
vertex -2.305025 -0.817904 6.629429
vertex -2.435568 -0.817904 6.683501
vertex -2.375674 -0.817904 6.643482
endloop
endfacet
facet normal 0.000000 -1.000000 -0.000004
outer loop
vertex -2.489641 -0.817904 6.814044
vertex -2.475588 -0.817904 6.743394
vertex -2.435568 -0.817904 6.683501
endloop
endfacet
facet normal 0.000000 -1.000000 -0.000001
outer loop
vertex -2.435568 -0.817904 6.944587
vertex -2.475588 -0.817904 6.884693
vertex -2.489641 -0.817904 6.814044
endloop
endfacet
facet normal 0.000000 -1.000000 0.000000
outer loop
vertex -2.305026 -0.817904 6.998659
vertex -2.375675 -0.817904 6.984606
vertex -2.435568 -0.817904 6.944587
endloop
endfacet
facet normal 0.000000 -1.000000 0.000000
outer loop
vertex -2.174483 -0.817904 6.944587
vertex -2.234376 -0.817904 6.984606
vertex -2.305026 -0.817904 6.998659
endloop
endfacet
facet normal 0.000000 -1.000000 0.000000
outer loop
vertex -2.120410 -0.817904 6.814044
vertex -2.134463 -0.817904 6.884693
vertex -2.174483 -0.817904 6.944587
endloop
endfacet
facet normal 0.000000 -1.000000 -0.000001
outer loop
vertex -2.174483 -0.817904 6.683501
vertex -2.134463 -0.817904 6.743395
vertex -2.120410 -0.817904 6.814044
endloop
endfacet
facet normal 0.000000 -1.000000 0.000000
outer loop
vertex -2.305025 -0.817904 6.629429
vertex -2.234376 -0.817904 6.643482
vertex -2.174483 -0.817904 6.683501
endloop
endfacet
facet normal 0.000000 -1.000000 0.000001
outer loop
vertex -2.305025 -0.817904 6.629429
vertex -2.489641 -0.817904 6.814044
vertex -2.435568 -0.817904 6.683501
endloop
endfacet
facet normal 0.000000 -1.000000 0.000000
outer loop
vertex -2.305026 -0.817904 6.998659
vertex -2.435568 -0.817904 6.944587
vertex -2.489641 -0.817904 6.814044
endloop
endfacet
facet normal 0.000000 -1.000000 -0.000001
outer loop
vertex -2.120410 -0.817904 6.814044
vertex -2.174483 -0.817904 6.944587
vertex -2.305026 -0.817904 6.998659
endloop
endfacet
facet normal 0.000000 -1.000000 0.000001
outer loop
vertex -2.305025 -0.817904 6.629429
vertex -2.174483 -0.817904 6.683501
vertex -2.120410 -0.817904 6.814044
endloop
endfacet
facet normal 0.000000 -1.000000 0.000000
outer loop
vertex -2.305025 -0.817904 6.629429
vertex -2.305026 -0.817904 6.998659
vertex -2.489641 -0.817904 6.814044
endloop
endfacet
facet normal 0.000000 -1.000000 0.000000
outer loop
vertex -2.305025 -0.817904 6.629429
vertex -2.120410 -0.817904 6.814044
vertex -2.305026 -0.817904 6.998659
endloop
endfacet
facet normal 0.000000 1.000000 0.000000
outer loop
vertex -2.300709 -0.334945 6.792346
vertex -2.292734 -0.334945 6.795649
vertex -2.296559 -0.334945 6.793604
endloop
endfacet
facet normal 0.000000 1.000000 0.000000
outer loop
vertex -2.286630 -0.334945 6.801753
vertex -2.289382 -0.334945 6.798400
vertex -2.292734 -0.334945 6.795649
endloop
endfacet
facet normal 0.000000 1.000000 0.000000
outer loop
vertex -2.283327 -0.334945 6.809728
vertex -2.284586 -0.334945 6.805578
vertex -2.286630 -0.334945 6.801753
endloop
endfacet
facet normal 0.000000 1.000000 0.000000
outer loop
vertex -2.283327 -0.334945 6.818360
vertex -2.282902 -0.334945 6.814044
vertex -2.283327 -0.334945 6.809728
endloop
endfacet
facet normal 0.000000 1.000000 0.000000
outer loop
vertex -2.286630 -0.334945 6.826335
vertex -2.284586 -0.334945 6.822510
vertex -2.283327 -0.334945 6.818360
endloop
endfacet
facet normal 0.000000 1.000000 0.000000
outer loop
vertex -2.292734 -0.334945 6.832439
vertex -2.289382 -0.334945 6.829688
vertex -2.286630 -0.334945 6.826335
endloop
endfacet
facet normal 0.000000 1.000000 0.000000
outer loop
vertex -2.300709 -0.334945 6.835742
vertex -2.296559 -0.334945 6.834484
vertex -2.292734 -0.334945 6.832439
endloop
endfacet
facet normal 0.000000 1.000000 0.000000
outer loop
vertex -2.309342 -0.334945 6.835742
vertex -2.305025 -0.334945 6.836168
vertex -2.300709 -0.334945 6.835742
endloop
endfacet
facet normal 0.000000 1.000000 0.000000
outer loop
vertex -2.317317 -0.334945 6.832439
vertex -2.313492 -0.334945 6.834484
vertex -2.309342 -0.334945 6.835742
endloop
endfacet
facet normal 0.000000 1.000000 0.000000
outer loop
vertex -2.323421 -0.334945 6.826335
vertex -2.320669 -0.334945 6.829688
vertex -2.317317 -0.334945 6.832439
endloop
endfacet
facet normal 0.000000 1.000000 0.000000
outer loop
vertex -2.326724 -0.334945 6.818360
vertex -2.325465 -0.334945 6.822510
vertex -2.323421 -0.334945 6.826335
endloop
endfacet
facet normal 0.000000 1.000000 0.000000
outer loop
vertex -2.326724 -0.334945 6.809728
vertex -2.327149 -0.334945 6.814044
vertex -2.326724 -0.334945 6.818360
endloop
endfacet
facet normal 0.000000 1.000000 0.000016
outer loop
vertex -2.323421 -0.334945 6.801753
vertex -2.325465 -0.334945 6.805578
vertex -2.326724 -0.334945 6.809728
endloop
endfacet
facet normal 0.000000 1.000000 0.000000
outer loop
vertex -2.317317 -0.334945 6.795649
vertex -2.320669 -0.334945 6.798400
vertex -2.323421 -0.334945 6.801753
endloop
endfacet
facet normal 0.000000 1.000000 0.000000
outer loop
vertex -2.309341 -0.334945 6.792346
vertex -2.313492 -0.334945 6.793604
vertex -2.317317 -0.334945 6.795649
endloop
endfacet
facet normal 0.000000 1.000000 0.000000
outer loop
vertex -2.300709 -0.334945 6.792346
vertex -2.305025 -0.334945 6.791920
vertex -2.309341 -0.334945 6.792346
endloop
endfacet
facet normal 0.000000 1.000000 0.000016
outer loop
vertex -2.300709 -0.334945 6.792346
vertex -2.286630 -0.334945 6.801753
vertex -2.292734 -0.334945 6.795649
endloop
endfacet
facet normal 0.000000 1.000000 0.000000
outer loop
vertex -2.283327 -0.334945 6.818360
vertex -2.283327 -0.334945 6.809728
vertex -2.286630 -0.334945 6.801753
endloop
endfacet
facet normal 0.000000 1.000000 -0.000008
outer loop
vertex -2.292734 -0.334945 6.832439
vertex -2.286630 -0.334945 6.826335
vertex -2.283327 -0.334945 6.818360
endloop
endfacet
facet normal 0.000000 1.000000 0.000000
outer loop
vertex -2.309342 -0.334945 6.835742
vertex -2.300709 -0.334945 6.835742
vertex -2.292734 -0.334945 6.832439
endloop
endfacet
facet normal 0.000000 1.000000 0.000000
outer loop
vertex -2.323421 -0.334945 6.826335
vertex -2.317317 -0.334945 6.832439
vertex -2.309342 -0.334945 6.835742
endloop
endfacet
facet normal 0.000000 1.000000 0.000000
outer loop
vertex -2.326724 -0.334945 6.809728
vertex -2.326724 -0.334945 6.818360
vertex -2.323421 -0.334945 6.826335
endloop
endfacet
facet normal 0.000000 1.000000 0.000008
outer loop
vertex -2.317317 -0.334945 6.795649
vertex -2.323421 -0.334945 6.801753
vertex -2.326724 -0.334945 6.809728
endloop
endfacet
facet normal 0.000000 1.000000 0.000000
outer loop
vertex -2.300709 -0.334945 6.792346
vertex -2.309341 -0.334945 6.792346
vertex -2.317317 -0.334945 6.795649
endloop
endfacet
facet normal 0.000000 1.000000 -0.000001
outer loop
vertex -2.300709 -0.334945 6.792346
vertex -2.283327 -0.334945 6.818360
vertex -2.286630 -0.334945 6.801753
endloop
endfacet
facet normal 0.000000 1.000000 0.000005
outer loop
vertex -2.309342 -0.334945 6.835742
vertex -2.292734 -0.334945 6.832439
vertex -2.283327 -0.334945 6.818360
endloop
endfacet
facet normal 0.000000 1.000000 0.000000
outer loop
vertex -2.326724 -0.334945 6.809728
vertex -2.323421 -0.334945 6.826335
vertex -2.309342 -0.334945 6.835742
endloop
endfacet
facet normal 0.000000 1.000000 -0.000005
outer loop
vertex -2.300709 -0.334945 6.792346
vertex -2.317317 -0.334945 6.795649
vertex -2.326724 -0.334945 6.809728
endloop
endfacet
facet normal 0.000000 1.000000 -0.000002
outer loop
vertex -2.300709 -0.334945 6.792346
vertex -2.309342 -0.334945 6.835742
vertex -2.283327 -0.334945 6.818360
endloop
endfacet
facet normal 0.000000 1.000000 0.000001
outer loop
vertex -2.300709 -0.334945 6.792346
vertex -2.326724 -0.334945 6.809728
vertex -2.309342 -0.334945 6.835742
endloop
endfacet
facet normal -0.568157 0.678096 0.466244
outer loop
vertex -2.458528 -0.510211 6.916611
vertex -2.435568 -0.510211 6.944587
vertex -2.320669 -0.334945 6.829688
endloop
endfacet
facet normal -0.567915 0.678219 0.466360
outer loop
vertex -2.320669 -0.334945 6.829688
vertex -2.323421 -0.334945 6.826335
vertex -2.458528 -0.510211 6.916611
endloop
endfacet
facet normal 0.703310 0.678113 0.213350
outer loop
vertex -2.134463 -0.510211 6.884693
vertex -2.123957 -0.510211 6.850060
vertex -2.283327 -0.334945 6.818360
endloop
endfacet
facet normal 0.703323 0.678109 0.213319
outer loop
vertex -2.283327 -0.334945 6.818360
vertex -2.284586 -0.334945 6.822510
vertex -2.134463 -0.510211 6.884693
endloop
endfacet
facet normal -0.731416 0.678116 0.072037
outer loop
vertex -2.489641 -0.510211 6.814044
vertex -2.486094 -0.510211 6.850060
vertex -2.326724 -0.334945 6.818360
endloop
endfacet
facet normal -0.731457 0.678072 0.072039
outer loop
vertex -2.326724 -0.334945 6.818360
vertex -2.327149 -0.334945 6.814044
vertex -2.489641 -0.510211 6.814044
endloop
endfacet
facet normal 0.213349 0.678108 -0.703314
outer loop
vertex -2.234376 -0.510211 6.643482
vertex -2.269009 -0.510211 6.632976
vertex -2.300709 -0.334945 6.792346
endloop
endfacet
facet normal 0.213246 0.678122 -0.703333
outer loop
vertex -2.300709 -0.334945 6.792346
vertex -2.296559 -0.334945 6.793604
vertex -2.234376 -0.510211 6.643482
endloop
endfacet
facet normal 0.466236 0.678117 0.568139
outer loop
vertex -2.202459 -0.510211 6.967546
vertex -2.174483 -0.510211 6.944587
vertex -2.289382 -0.334945 6.829688
endloop
endfacet
facet normal 0.466360 0.678043 0.568124
outer loop
vertex -2.289382 -0.334945 6.829688
vertex -2.292734 -0.334945 6.832439
vertex -2.202459 -0.510211 6.967546
endloop
endfacet
facet normal -0.648170 0.678115 -0.346461
outer loop
vertex -2.458527 -0.510211 6.711477
vertex -2.475588 -0.510211 6.743394
vertex -2.325465 -0.334945 6.805578
endloop
endfacet
facet normal -0.648208 0.678088 -0.346442
outer loop
vertex -2.325465 -0.334945 6.805578
vertex -2.323421 -0.334945 6.801753
vertex -2.458527 -0.510211 6.711477
endloop
endfacet
facet normal 0.568138 0.678107 -0.466251
outer loop
vertex -2.151523 -0.510211 6.711477
vertex -2.174483 -0.510211 6.683501
vertex -2.289382 -0.334945 6.798400
endloop
endfacet
facet normal 0.568029 0.678165 -0.466300
outer loop
vertex -2.289382 -0.334945 6.798400
vertex -2.286630 -0.334945 6.801753
vertex -2.151523 -0.510211 6.711477
endloop
endfacet
facet normal 0.072047 0.678109 0.731421
outer loop
vertex -2.305026 -0.510211 6.998659
vertex -2.269009 -0.510211 6.995112
vertex -2.300709 -0.334945 6.835742
endloop
endfacet
facet normal 0.072152 0.678125 0.731396
outer loop
vertex -2.300709 -0.334945 6.835742
vertex -2.305025 -0.334945 6.836168
vertex -2.305026 -0.510211 6.998659
endloop
endfacet
facet normal -0.346427 0.678115 -0.648189
outer loop
vertex -2.375674 -0.510211 6.643482
vertex -2.407592 -0.510211 6.660542
vertex -2.317317 -0.334945 6.795649
endloop
endfacet
facet normal -0.346668 0.678065 -0.648112
outer loop
vertex -2.317317 -0.334945 6.795649
vertex -2.313492 -0.334945 6.793604
vertex -2.375674 -0.510211 6.643482
endloop
endfacet
facet normal -0.346448 0.678116 0.648177
outer loop
vertex -2.407592 -0.510211 6.967546
vertex -2.375675 -0.510211 6.984606
vertex -2.313492 -0.334945 6.834484
endloop
endfacet
facet normal -0.346479 0.678090 0.648187
outer loop
vertex -2.313492 -0.334945 6.834484
vertex -2.317317 -0.334945 6.832439
vertex -2.407592 -0.510211 6.967546
endloop
endfacet
facet normal 0.072047 0.678108 -0.731423
outer loop
vertex -2.269009 -0.510211 6.632976
vertex -2.305025 -0.510211 6.629429
vertex -2.305025 -0.334945 6.791920
endloop
endfacet
facet normal 0.072152 0.678125 -0.731396
outer loop
vertex -2.305025 -0.334945 6.791920
vertex -2.300709 -0.334945 6.792346
vertex -2.269009 -0.510211 6.632976
endloop
endfacet
facet normal 0.731429 0.678102 -0.072039
outer loop
vertex -2.120410 -0.510211 6.814044
vertex -2.123957 -0.510211 6.778028
vertex -2.283327 -0.334945 6.809728
endloop
endfacet
facet normal 0.731419 0.678113 -0.072035
outer loop
vertex -2.283327 -0.334945 6.809728
vertex -2.282902 -0.334945 6.814044
vertex -2.120410 -0.510211 6.814044
endloop
endfacet
facet normal -0.648190 0.678100 0.346454
outer loop
vertex -2.475588 -0.510211 6.884693
vertex -2.458528 -0.510211 6.916611
vertex -2.323421 -0.334945 6.826335
endloop
endfacet
facet normal -0.648184 0.678121 0.346422
outer loop
vertex -2.323421 -0.334945 6.826335
vertex -2.325465 -0.334945 6.822510
vertex -2.475588 -0.510211 6.884693
endloop
endfacet
facet normal 0.648174 0.678113 0.346460
outer loop
vertex -2.151523 -0.510211 6.916611
vertex -2.134463 -0.510211 6.884693
vertex -2.284586 -0.334945 6.822510
endloop
endfacet
facet normal 0.648329 0.678003 0.346384
outer loop
vertex -2.284586 -0.334945 6.822510
vertex -2.286630 -0.334945 6.826335
vertex -2.151523 -0.510211 6.916611
endloop
endfacet
facet normal -0.731425 0.678106 -0.072037
outer loop
vertex -2.486094 -0.510211 6.778027
vertex -2.489641 -0.510211 6.814044
vertex -2.327149 -0.334945 6.814044
endloop
endfacet
facet normal -0.731420 0.678114 -0.072021
outer loop
vertex -2.327149 -0.334945 6.814044
vertex -2.326724 -0.334945 6.809728
vertex -2.486094 -0.510211 6.778027
endloop
endfacet
facet normal 0.346474 0.678106 -0.648174
outer loop
vertex -2.202459 -0.510211 6.660542
vertex -2.234376 -0.510211 6.643482
vertex -2.296559 -0.334945 6.793604
endloop
endfacet
facet normal 0.346277 0.678144 -0.648238
outer loop
vertex -2.296559 -0.334945 6.793604
vertex -2.292734 -0.334945 6.795649
vertex -2.202459 -0.510211 6.660542
endloop
endfacet
facet normal 0.346449 0.678112 0.648180
outer loop
vertex -2.234376 -0.510211 6.984606
vertex -2.202459 -0.510211 6.967546
vertex -2.292734 -0.334945 6.832439
endloop
endfacet
facet normal 0.346465 0.678120 0.648163
outer loop
vertex -2.292734 -0.334945 6.832439
vertex -2.296559 -0.334945 6.834484
vertex -2.234376 -0.510211 6.984606
endloop
endfacet
facet normal -0.568118 0.678119 -0.466258
outer loop
vertex -2.435568 -0.510211 6.683501
vertex -2.458527 -0.510211 6.711477
vertex -2.323421 -0.334945 6.801753
endloop
endfacet
facet normal -0.568217 0.678057 -0.466229
outer loop
vertex -2.323421 -0.334945 6.801753
vertex -2.320669 -0.334945 6.798400
vertex -2.435568 -0.510211 6.683501
endloop
endfacet
facet normal -0.072047 0.678109 0.731422
outer loop
vertex -2.341042 -0.510211 6.995112
vertex -2.305026 -0.510211 6.998659
vertex -2.305025 -0.334945 6.836168
endloop
endfacet
facet normal -0.072150 0.678105 0.731416
outer loop
vertex -2.305025 -0.334945 6.836168
vertex -2.309342 -0.334945 6.835742
vertex -2.341042 -0.510211 6.995112
endloop
endfacet
facet normal 0.648174 0.678113 -0.346459
outer loop
vertex -2.134463 -0.510211 6.743395
vertex -2.151523 -0.510211 6.711477
vertex -2.286630 -0.334945 6.801753
endloop
endfacet
facet normal 0.648327 0.678001 -0.346390
outer loop
vertex -2.286630 -0.334945 6.801753
vertex -2.284586 -0.334945 6.805578
vertex -2.134463 -0.510211 6.743395
endloop
endfacet
facet normal -0.213348 0.678112 -0.703311
outer loop
vertex -2.341042 -0.510211 6.632976
vertex -2.375674 -0.510211 6.643482
vertex -2.313492 -0.334945 6.793604
endloop
endfacet
facet normal -0.213232 0.678134 -0.703325
outer loop
vertex -2.313492 -0.334945 6.793604
vertex -2.309341 -0.334945 6.792346
vertex -2.341042 -0.510211 6.632976
endloop
endfacet
facet normal -0.466255 0.678111 0.568129
outer loop
vertex -2.435568 -0.510211 6.944587
vertex -2.407592 -0.510211 6.967546
vertex -2.317317 -0.334945 6.832439
endloop
endfacet
facet normal -0.466143 0.678179 0.568141
outer loop
vertex -2.317317 -0.334945 6.832439
vertex -2.320669 -0.334945 6.829688
vertex -2.435568 -0.510211 6.944587
endloop
endfacet
facet normal 0.731415 0.678117 0.072042
outer loop
vertex -2.123957 -0.510211 6.850060
vertex -2.120410 -0.510211 6.814044
vertex -2.282902 -0.334945 6.814044
endloop
endfacet
facet normal 0.731463 0.678067 0.072025
outer loop
vertex -2.282902 -0.334945 6.814044
vertex -2.283327 -0.334945 6.818360
vertex -2.123957 -0.510211 6.850060
endloop
endfacet
facet normal -0.703310 0.678113 0.213348
outer loop
vertex -2.486094 -0.510211 6.850060
vertex -2.475588 -0.510211 6.884693
vertex -2.325465 -0.334945 6.822510
endloop
endfacet
facet normal -0.703307 0.678109 0.213372
outer loop
vertex -2.325465 -0.334945 6.822510
vertex -2.326724 -0.334945 6.818360
vertex -2.486094 -0.510211 6.850060
endloop
endfacet
facet normal 0.568117 0.678121 0.466257
outer loop
vertex -2.174483 -0.510211 6.944587
vertex -2.151523 -0.510211 6.916611
vertex -2.286630 -0.334945 6.826335
endloop
endfacet
facet normal 0.568207 0.678045 0.466257
outer loop
vertex -2.286630 -0.334945 6.826335
vertex -2.289382 -0.334945 6.829688
vertex -2.174483 -0.510211 6.944587
endloop
endfacet
facet normal -0.703325 0.678098 -0.213346
outer loop
vertex -2.475588 -0.510211 6.743394
vertex -2.486094 -0.510211 6.778027
vertex -2.326724 -0.334945 6.809728
endloop
endfacet
facet normal -0.703227 0.678182 -0.213403
outer loop
vertex -2.326724 -0.334945 6.809728
vertex -2.325465 -0.334945 6.805578
vertex -2.475588 -0.510211 6.743394
endloop
endfacet
facet normal 0.466257 0.678108 -0.568132
outer loop
vertex -2.174483 -0.510211 6.683501
vertex -2.202459 -0.510211 6.660542
vertex -2.292734 -0.334945 6.795649
endloop
endfacet
facet normal 0.466360 0.678043 -0.568124
outer loop
vertex -2.292734 -0.334945 6.795649
vertex -2.289382 -0.334945 6.798400
vertex -2.174483 -0.510211 6.683501
endloop
endfacet
facet normal 0.213349 0.678108 0.703314
outer loop
vertex -2.269009 -0.510211 6.995112
vertex -2.234376 -0.510211 6.984606
vertex -2.296559 -0.334945 6.834484
endloop
endfacet
facet normal 0.213246 0.678122 0.703333
outer loop
vertex -2.296559 -0.334945 6.834484
vertex -2.300709 -0.334945 6.835742
vertex -2.269009 -0.510211 6.995112
endloop
endfacet
facet normal -0.466255 0.678111 -0.568129
outer loop
vertex -2.407592 -0.510211 6.660542
vertex -2.435568 -0.510211 6.683501
vertex -2.320669 -0.334945 6.798400
endloop
endfacet
facet normal -0.466342 0.678075 -0.568102
outer loop
vertex -2.320669 -0.334945 6.798400
vertex -2.317317 -0.334945 6.795649
vertex -2.407592 -0.510211 6.660542
endloop
endfacet
facet normal -0.213349 0.678114 0.703309
outer loop
vertex -2.375675 -0.510211 6.984606
vertex -2.341042 -0.510211 6.995112
vertex -2.309342 -0.334945 6.835742
endloop
endfacet
facet normal -0.213254 0.678091 0.703360
outer loop
vertex -2.309342 -0.334945 6.835742
vertex -2.313492 -0.334945 6.834484
vertex -2.375675 -0.510211 6.984606
endloop
endfacet
facet normal 0.703298 0.678124 -0.213353
outer loop
vertex -2.123957 -0.510211 6.778028
vertex -2.134463 -0.510211 6.743395
vertex -2.284586 -0.334945 6.805578
endloop
endfacet
facet normal 0.703348 0.678076 -0.213341
outer loop
vertex -2.284586 -0.334945 6.805578
vertex -2.283327 -0.334945 6.809728
vertex -2.123957 -0.510211 6.778028
endloop
endfacet
endsolid Exported from Blender-2.74 (sub 0)
