solid Exported from Blender-2.74 (sub 0)
facet normal 0.098059 0.000000 -0.995181
outer loop
vertex -2.304685 -0.817904 6.629315
vertex -2.304685 -0.510211 6.629315
vertex -2.268668 -0.510211 6.632863
endloop
endfacet
facet normal 0.098016 0.000000 -0.995185
outer loop
vertex -2.268668 -0.510211 6.632863
vertex -2.268668 -0.817904 6.632863
vertex -2.304685 -0.817904 6.629315
endloop
endfacet
facet normal 0.290283 0.000000 -0.956941
outer loop
vertex -2.268668 -0.817904 6.632863
vertex -2.268668 -0.510211 6.632863
vertex -2.234035 -0.510211 6.643368
endloop
endfacet
facet normal 0.290283 0.000000 -0.956941
outer loop
vertex -2.234035 -0.510211 6.643368
vertex -2.234035 -0.817904 6.643368
vertex -2.268668 -0.817904 6.632863
endloop
endfacet
facet normal 0.471409 0.000000 -0.881915
outer loop
vertex -2.234035 -0.817904 6.643368
vertex -2.234035 -0.510211 6.643368
vertex -2.202118 -0.510211 6.660429
endloop
endfacet
facet normal 0.471376 0.000000 -0.881932
outer loop
vertex -2.202118 -0.510211 6.660429
vertex -2.202118 -0.817904 6.660429
vertex -2.234035 -0.817904 6.643368
endloop
endfacet
facet normal 0.634415 0.000000 -0.772993
outer loop
vertex -2.202118 -0.817904 6.660429
vertex -2.202118 -0.510211 6.660429
vertex -2.174142 -0.510211 6.683388
endloop
endfacet
facet normal 0.634364 0.000000 -0.773035
outer loop
vertex -2.174142 -0.510211 6.683388
vertex -2.174142 -0.817904 6.683388
vertex -2.202118 -0.817904 6.660429
endloop
endfacet
facet normal 0.773024 0.000000 -0.634377
outer loop
vertex -2.174142 -0.817904 6.683388
vertex -2.174142 -0.510211 6.683388
vertex -2.151183 -0.510211 6.711364
endloop
endfacet
facet normal 0.773007 0.000000 -0.634398
outer loop
vertex -2.151183 -0.510211 6.711364
vertex -2.151183 -0.817904 6.711364
vertex -2.174142 -0.817904 6.683388
endloop
endfacet
facet normal 0.881924 0.000000 -0.471391
outer loop
vertex -2.151183 -0.817904 6.711364
vertex -2.151183 -0.510211 6.711364
vertex -2.134122 -0.510211 6.743281
endloop
endfacet
facet normal 0.881915 0.000000 -0.471409
outer loop
vertex -2.134122 -0.510211 6.743281
vertex -2.134122 -0.817904 6.743281
vertex -2.151183 -0.817904 6.711364
endloop
endfacet
facet normal 0.956942 0.000000 -0.290280
outer loop
vertex -2.134122 -0.817904 6.743281
vertex -2.134122 -0.510211 6.743281
vertex -2.123617 -0.510211 6.777914
endloop
endfacet
facet normal 0.956938 0.000000 -0.290292
outer loop
vertex -2.123617 -0.510211 6.777914
vertex -2.123617 -0.817904 6.777914
vertex -2.134122 -0.817904 6.743281
endloop
endfacet
facet normal 0.995185 0.000000 -0.098019
outer loop
vertex -2.123617 -0.817904 6.777914
vertex -2.123617 -0.510211 6.777914
vertex -2.120069 -0.510211 6.813931
endloop
endfacet
facet normal 0.995185 0.000000 -0.098019
outer loop
vertex -2.120069 -0.510211 6.813931
vertex -2.120069 -0.817904 6.813931
vertex -2.123617 -0.817904 6.777914
endloop
endfacet
facet normal 0.995185 0.000000 0.098019
outer loop
vertex -2.120069 -0.817904 6.813931
vertex -2.120069 -0.510211 6.813931
vertex -2.123617 -0.510211 6.849947
endloop
endfacet
facet normal 0.995184 0.000000 0.098023
outer loop
vertex -2.123617 -0.510211 6.849947
vertex -2.123617 -0.817904 6.849947
vertex -2.120069 -0.817904 6.813931
endloop
endfacet
facet normal 0.956942 0.000000 0.290280
outer loop
vertex -2.123617 -0.817904 6.849947
vertex -2.123617 -0.510211 6.849947
vertex -2.134122 -0.510211 6.884580
endloop
endfacet
facet normal 0.956942 0.000000 0.290280
outer loop
vertex -2.134122 -0.510211 6.884580
vertex -2.134122 -0.817904 6.884580
vertex -2.123617 -0.817904 6.849947
endloop
endfacet
facet normal 0.881915 0.000000 0.471409
outer loop
vertex -2.134122 -0.817904 6.884580
vertex -2.134122 -0.510211 6.884580
vertex -2.151183 -0.510211 6.916497
endloop
endfacet
facet normal 0.881924 0.000000 0.471391
outer loop
vertex -2.151183 -0.510211 6.916497
vertex -2.151183 -0.817904 6.916497
vertex -2.134122 -0.817904 6.884580
endloop
endfacet
facet normal 0.773007 0.000000 0.634398
outer loop
vertex -2.151183 -0.817904 6.916497
vertex -2.151183 -0.510211 6.916497
vertex -2.174142 -0.510211 6.944473
endloop
endfacet
facet normal 0.773024 0.000000 0.634377
outer loop
vertex -2.174142 -0.510211 6.944473
vertex -2.174142 -0.817904 6.944473
vertex -2.151183 -0.817904 6.916497
endloop
endfacet
facet normal 0.634364 0.000000 0.773035
outer loop
vertex -2.174142 -0.817904 6.944473
vertex -2.174142 -0.510211 6.944473
vertex -2.202118 -0.510211 6.967432
endloop
endfacet
facet normal 0.634415 0.000000 0.772992
outer loop
vertex -2.202118 -0.510211 6.967432
vertex -2.202118 -0.817904 6.967432
vertex -2.174142 -0.817904 6.944473
endloop
endfacet
facet normal 0.471376 0.000000 0.881932
outer loop
vertex -2.202118 -0.817904 6.967432
vertex -2.202118 -0.510211 6.967432
vertex -2.234035 -0.510211 6.984493
endloop
endfacet
facet normal 0.471409 0.000000 0.881915
outer loop
vertex -2.234035 -0.510211 6.984493
vertex -2.234035 -0.817904 6.984493
vertex -2.202118 -0.817904 6.967432
endloop
endfacet
facet normal 0.290283 0.000000 0.956941
outer loop
vertex -2.234035 -0.817904 6.984493
vertex -2.234035 -0.510211 6.984493
vertex -2.268668 -0.510211 6.994998
endloop
endfacet
facet normal 0.290283 0.000000 0.956941
outer loop
vertex -2.268668 -0.510211 6.994998
vertex -2.268668 -0.817904 6.994998
vertex -2.234035 -0.817904 6.984493
endloop
endfacet
facet normal 0.098016 0.000000 0.995185
outer loop
vertex -2.268668 -0.817904 6.994998
vertex -2.268668 -0.510211 6.994998
vertex -2.304685 -0.510211 6.998546
endloop
endfacet
facet normal 0.098016 0.000000 0.995185
outer loop
vertex -2.304685 -0.510211 6.998546
vertex -2.304685 -0.817904 6.998546
vertex -2.268668 -0.817904 6.994998
endloop
endfacet
facet normal -0.098016 0.000000 0.995185
outer loop
vertex -2.304685 -0.817904 6.998546
vertex -2.304685 -0.510211 6.998546
vertex -2.340701 -0.510211 6.994998
endloop
endfacet
facet normal -0.098016 0.000000 0.995185
outer loop
vertex -2.340701 -0.510211 6.994998
vertex -2.340701 -0.817904 6.994998
vertex -2.304685 -0.817904 6.998546
endloop
endfacet
facet normal -0.290281 0.000000 0.956942
outer loop
vertex -2.340701 -0.817904 6.994998
vertex -2.340701 -0.510211 6.994998
vertex -2.375334 -0.510211 6.984493
endloop
endfacet
facet normal -0.290281 0.000000 0.956942
outer loop
vertex -2.375334 -0.510211 6.984493
vertex -2.375334 -0.817904 6.984493
vertex -2.340701 -0.817904 6.994998
endloop
endfacet
facet normal -0.471409 0.000000 0.881915
outer loop
vertex -2.375334 -0.817904 6.984493
vertex -2.375334 -0.510211 6.984493
vertex -2.407252 -0.510211 6.967432
endloop
endfacet
facet normal -0.471376 0.000000 0.881932
outer loop
vertex -2.407252 -0.510211 6.967432
vertex -2.407252 -0.817904 6.967432
vertex -2.375334 -0.817904 6.984493
endloop
endfacet
facet normal -0.634418 0.000000 0.772990
outer loop
vertex -2.407252 -0.817904 6.967432
vertex -2.407252 -0.510211 6.967432
vertex -2.435227 -0.510211 6.944473
endloop
endfacet
facet normal -0.634367 0.000000 0.773032
outer loop
vertex -2.435227 -0.510211 6.944473
vertex -2.435227 -0.817904 6.944473
vertex -2.407252 -0.817904 6.967432
endloop
endfacet
facet normal -0.773021 0.000000 0.634381
outer loop
vertex -2.435227 -0.817904 6.944473
vertex -2.435227 -0.510211 6.944473
vertex -2.458187 -0.510211 6.916497
endloop
endfacet
facet normal -0.773003 0.000000 0.634402
outer loop
vertex -2.458187 -0.510211 6.916497
vertex -2.458187 -0.817904 6.916497
vertex -2.435227 -0.817904 6.944473
endloop
endfacet
facet normal -0.881924 0.000000 0.471391
outer loop
vertex -2.458187 -0.817904 6.916497
vertex -2.458187 -0.510211 6.916497
vertex -2.475247 -0.510211 6.884580
endloop
endfacet
facet normal -0.881915 0.000000 0.471409
outer loop
vertex -2.475247 -0.510211 6.884580
vertex -2.475247 -0.817904 6.884580
vertex -2.458187 -0.817904 6.916497
endloop
endfacet
facet normal -0.956944 0.000000 0.290274
outer loop
vertex -2.475247 -0.817904 6.884580
vertex -2.475247 -0.510211 6.884580
vertex -2.485753 -0.510211 6.849947
endloop
endfacet
facet normal -0.956944 0.000000 0.290274
outer loop
vertex -2.485753 -0.510211 6.849947
vertex -2.485753 -0.817904 6.849947
vertex -2.475247 -0.817904 6.884580
endloop
endfacet
facet normal -0.995184 0.000000 0.098023
outer loop
vertex -2.485753 -0.817904 6.849947
vertex -2.485753 -0.510211 6.849947
vertex -2.489300 -0.510211 6.813930
endloop
endfacet
facet normal -0.995185 0.000000 0.098015
outer loop
vertex -2.489300 -0.510211 6.813930
vertex -2.489300 -0.817904 6.813930
vertex -2.485753 -0.817904 6.849947
endloop
endfacet
facet normal -0.995184 0.000000 -0.098023
outer loop
vertex -2.489300 -0.817904 6.813930
vertex -2.489300 -0.510211 6.813930
vertex -2.485753 -0.510211 6.777914
endloop
endfacet
facet normal -0.995185 0.000000 -0.098019
outer loop
vertex -2.485753 -0.510211 6.777914
vertex -2.485753 -0.817904 6.777914
vertex -2.489300 -0.817904 6.813930
endloop
endfacet
facet normal -0.956938 0.000000 -0.290292
outer loop
vertex -2.485753 -0.817904 6.777914
vertex -2.485753 -0.510211 6.777914
vertex -2.475247 -0.510211 6.743281
endloop
endfacet
facet normal -0.956942 0.000000 -0.290280
outer loop
vertex -2.475247 -0.510211 6.743281
vertex -2.475247 -0.817904 6.743281
vertex -2.485753 -0.817904 6.777914
endloop
endfacet
facet normal -0.881924 0.000000 -0.471391
outer loop
vertex -2.475247 -0.817904 6.743281
vertex -2.475247 -0.510211 6.743281
vertex -2.458187 -0.510211 6.711363
endloop
endfacet
facet normal -0.881924 0.000000 -0.471391
outer loop
vertex -2.458187 -0.510211 6.711363
vertex -2.458187 -0.817904 6.711363
vertex -2.475247 -0.817904 6.743281
endloop
endfacet
facet normal -0.773003 0.000000 -0.634402
outer loop
vertex -2.458187 -0.817904 6.711363
vertex -2.458187 -0.510211 6.711363
vertex -2.435227 -0.510211 6.683387
endloop
endfacet
facet normal -0.773003 0.000000 -0.634402
outer loop
vertex -2.435227 -0.510211 6.683387
vertex -2.435227 -0.817904 6.683387
vertex -2.458187 -0.817904 6.711363
endloop
endfacet
facet normal -0.634418 0.000000 -0.772990
outer loop
vertex -2.435227 -0.817904 6.683387
vertex -2.435227 -0.510211 6.683387
vertex -2.407251 -0.510211 6.660428
endloop
endfacet
facet normal -0.634367 0.000000 -0.773032
outer loop
vertex -2.407251 -0.510211 6.660428
vertex -2.407251 -0.817904 6.660428
vertex -2.435227 -0.817904 6.683387
endloop
endfacet
facet normal -0.471406 0.000000 -0.881916
outer loop
vertex -2.407251 -0.817904 6.660428
vertex -2.407251 -0.510211 6.660428
vertex -2.375334 -0.510211 6.643368
endloop
endfacet
facet normal -0.471406 0.000000 -0.881916
outer loop
vertex -2.375334 -0.510211 6.643368
vertex -2.375334 -0.817904 6.643368
vertex -2.407251 -0.817904 6.660428
endloop
endfacet
facet normal 0.000000 1.000000 0.000015
outer loop
vertex -2.268668 -0.510211 6.632863
vertex -2.202118 -0.510211 6.660429
vertex -2.234035 -0.510211 6.643368
endloop
endfacet
facet normal 0.000000 1.000000 0.000000
outer loop
vertex -2.151183 -0.510211 6.711364
vertex -2.174142 -0.510211 6.683388
vertex -2.202118 -0.510211 6.660429
endloop
endfacet
facet normal 0.000000 1.000000 0.000000
outer loop
vertex -2.123617 -0.510211 6.777914
vertex -2.134122 -0.510211 6.743281
vertex -2.151183 -0.510211 6.711364
endloop
endfacet
facet normal 0.000000 1.000000 0.000000
outer loop
vertex -2.123617 -0.510211 6.849947
vertex -2.120069 -0.510211 6.813931
vertex -2.123617 -0.510211 6.777914
endloop
endfacet
facet normal 0.000000 1.000000 -0.000004
outer loop
vertex -2.151183 -0.510211 6.916497
vertex -2.134122 -0.510211 6.884580
vertex -2.123617 -0.510211 6.849947
endloop
endfacet
facet normal 0.000000 1.000000 0.000000
outer loop
vertex -2.202118 -0.510211 6.967432
vertex -2.174142 -0.510211 6.944473
vertex -2.151183 -0.510211 6.916497
endloop
endfacet
facet normal 0.000000 1.000000 -0.000015
outer loop
vertex -2.268668 -0.510211 6.994998
vertex -2.234035 -0.510211 6.984493
vertex -2.202118 -0.510211 6.967432
endloop
endfacet
facet normal 0.000000 1.000000 0.000000
outer loop
vertex -2.340701 -0.510211 6.994998
vertex -2.304685 -0.510211 6.998546
vertex -2.268668 -0.510211 6.994998
endloop
endfacet
facet normal 0.000000 1.000000 0.000015
outer loop
vertex -2.407252 -0.510211 6.967432
vertex -2.375334 -0.510211 6.984493
vertex -2.340701 -0.510211 6.994998
endloop
endfacet
facet normal 0.000000 1.000000 -0.000007
outer loop
vertex -2.458187 -0.510211 6.916497
vertex -2.435227 -0.510211 6.944473
vertex -2.407252 -0.510211 6.967432
endloop
endfacet
facet normal 0.000000 1.000000 0.000000
outer loop
vertex -2.485753 -0.510211 6.849947
vertex -2.475247 -0.510211 6.884580
vertex -2.458187 -0.510211 6.916497
endloop
endfacet
facet normal 0.000000 1.000000 0.000000
outer loop
vertex -2.485753 -0.510211 6.777914
vertex -2.489300 -0.510211 6.813930
vertex -2.485753 -0.510211 6.849947
endloop
endfacet
facet normal 0.000000 1.000000 0.000004
outer loop
vertex -2.458187 -0.510211 6.711363
vertex -2.475247 -0.510211 6.743281
vertex -2.485753 -0.510211 6.777914
endloop
endfacet
facet normal 0.000000 1.000000 0.000007
outer loop
vertex -2.407251 -0.510211 6.660428
vertex -2.435227 -0.510211 6.683387
vertex -2.458187 -0.510211 6.711363
endloop
endfacet
facet normal 0.000000 1.000000 0.000000
outer loop
vertex -2.340701 -0.510211 6.632862
vertex -2.375334 -0.510211 6.643368
vertex -2.407251 -0.510211 6.660428
endloop
endfacet
facet normal 0.000000 1.000000 -0.000015
outer loop
vertex -2.268668 -0.510211 6.632863
vertex -2.304685 -0.510211 6.629315
vertex -2.340701 -0.510211 6.632862
endloop
endfacet
facet normal 0.000000 1.000000 -0.000004
outer loop
vertex -2.268668 -0.510211 6.632863
vertex -2.151183 -0.510211 6.711364
vertex -2.202118 -0.510211 6.660429
endloop
endfacet
facet normal 0.000000 1.000000 0.000000
outer loop
vertex -2.123617 -0.510211 6.849947
vertex -2.123617 -0.510211 6.777914
vertex -2.151183 -0.510211 6.711364
endloop
endfacet
facet normal 0.000000 1.000000 0.000001
outer loop
vertex -2.202118 -0.510211 6.967432
vertex -2.151183 -0.510211 6.916497
vertex -2.123617 -0.510211 6.849947
endloop
endfacet
facet normal 0.000000 1.000000 0.000000
outer loop
vertex -2.340701 -0.510211 6.994998
vertex -2.268668 -0.510211 6.994998
vertex -2.202118 -0.510211 6.967432
endloop
endfacet
facet normal 0.000000 1.000000 0.000000
outer loop
vertex -2.458187 -0.510211 6.916497
vertex -2.407252 -0.510211 6.967432
vertex -2.340701 -0.510211 6.994998
endloop
endfacet
facet normal 0.000000 1.000000 0.000000
outer loop
vertex -2.485753 -0.510211 6.777914
vertex -2.485753 -0.510211 6.849947
vertex -2.458187 -0.510211 6.916497
endloop
endfacet
facet normal 0.000000 1.000000 -0.000001
outer loop
vertex -2.407251 -0.510211 6.660428
vertex -2.458187 -0.510211 6.711363
vertex -2.485753 -0.510211 6.777914
endloop
endfacet
facet normal 0.000000 1.000000 0.000004
outer loop
vertex -2.268668 -0.510211 6.632863
vertex -2.340701 -0.510211 6.632862
vertex -2.407251 -0.510211 6.660428
endloop
endfacet
facet normal 0.000000 1.000000 -0.000000
outer loop
vertex -2.268668 -0.510211 6.632863
vertex -2.123617 -0.510211 6.849947
vertex -2.151183 -0.510211 6.711364
endloop
endfacet
facet normal 0.000000 1.000000 0.000000
outer loop
vertex -2.340701 -0.510211 6.994998
vertex -2.202118 -0.510211 6.967432
vertex -2.123617 -0.510211 6.849947
endloop
endfacet
facet normal 0.000000 1.000000 0.000000
outer loop
vertex -2.485753 -0.510211 6.777914
vertex -2.458187 -0.510211 6.916497
vertex -2.340701 -0.510211 6.994998
endloop
endfacet
facet normal 0.000000 1.000000 0.000000
outer loop
vertex -2.268668 -0.510211 6.632863
vertex -2.407251 -0.510211 6.660428
vertex -2.485753 -0.510211 6.777914
endloop
endfacet
facet normal 0.000000 1.000000 0.000000
outer loop
vertex -2.268668 -0.510211 6.632863
vertex -2.340701 -0.510211 6.994998
vertex -2.123617 -0.510211 6.849947
endloop
endfacet
facet normal 0.000000 1.000000 0.000000
outer loop
vertex -2.268668 -0.510211 6.632863
vertex -2.485753 -0.510211 6.777914
vertex -2.340701 -0.510211 6.994998
endloop
endfacet
facet normal -0.098017 0.000000 -0.995185
outer loop
vertex -2.304685 -0.510211 6.629315
vertex -2.304685 -0.817904 6.629315
vertex -2.340701 -0.817904 6.632862
endloop
endfacet
facet normal -0.098017 0.000000 -0.995185
outer loop
vertex -2.340701 -0.817904 6.632862
vertex -2.340701 -0.510211 6.632862
vertex -2.304685 -0.510211 6.629315
endloop
endfacet
facet normal -0.290283 0.000000 -0.956941
outer loop
vertex -2.375334 -0.817904 6.643368
vertex -2.375334 -0.510211 6.643368
vertex -2.340701 -0.510211 6.632862
endloop
endfacet
facet normal -0.290283 0.000000 -0.956941
outer loop
vertex -2.340701 -0.510211 6.632862
vertex -2.340701 -0.817904 6.632862
vertex -2.375334 -0.817904 6.643368
endloop
endfacet
facet normal 0.000000 -1.000000 0.000015
outer loop
vertex -2.304685 -0.817904 6.629315
vertex -2.375334 -0.817904 6.643368
vertex -2.340701 -0.817904 6.632862
endloop
endfacet
facet normal 0.000000 -1.000000 0.000000
outer loop
vertex -2.435227 -0.817904 6.683387
vertex -2.407251 -0.817904 6.660428
vertex -2.375334 -0.817904 6.643368
endloop
endfacet
facet normal 0.000000 -1.000000 0.000015
outer loop
vertex -2.475247 -0.817904 6.743281
vertex -2.458187 -0.817904 6.711363
vertex -2.435227 -0.817904 6.683387
endloop
endfacet
facet normal 0.000000 -1.000000 0.000000
outer loop
vertex -2.489300 -0.817904 6.813930
vertex -2.485753 -0.817904 6.777914
vertex -2.475247 -0.817904 6.743281
endloop
endfacet
facet normal 0.000000 -1.000000 0.000002
outer loop
vertex -2.475247 -0.817904 6.884580
vertex -2.485753 -0.817904 6.849947
vertex -2.489300 -0.817904 6.813930
endloop
endfacet
facet normal 0.000000 -1.000000 -0.000007
outer loop
vertex -2.435227 -0.817904 6.944473
vertex -2.458187 -0.817904 6.916497
vertex -2.475247 -0.817904 6.884580
endloop
endfacet
facet normal 0.000000 -1.000000 0.000000
outer loop
vertex -2.375334 -0.817904 6.984493
vertex -2.407252 -0.817904 6.967432
vertex -2.435227 -0.817904 6.944473
endloop
endfacet
facet normal 0.000000 -1.000000 0.000000
outer loop
vertex -2.304685 -0.817904 6.998546
vertex -2.340701 -0.817904 6.994998
vertex -2.375334 -0.817904 6.984493
endloop
endfacet
facet normal 0.000000 -1.000000 0.000000
outer loop
vertex -2.234035 -0.817904 6.984493
vertex -2.268668 -0.817904 6.994998
vertex -2.304685 -0.817904 6.998546
endloop
endfacet
facet normal 0.000000 -1.000000 -0.000015
outer loop
vertex -2.174142 -0.817904 6.944473
vertex -2.202118 -0.817904 6.967432
vertex -2.234035 -0.817904 6.984493
endloop
endfacet
facet normal 0.000000 -1.000000 -0.000015
outer loop
vertex -2.134122 -0.817904 6.884580
vertex -2.151183 -0.817904 6.916497
vertex -2.174142 -0.817904 6.944473
endloop
endfacet
facet normal 0.000000 -1.000000 0.000000
outer loop
vertex -2.120069 -0.817904 6.813931
vertex -2.123617 -0.817904 6.849947
vertex -2.134122 -0.817904 6.884580
endloop
endfacet
facet normal 0.000000 -1.000000 -0.000002
outer loop
vertex -2.134122 -0.817904 6.743281
vertex -2.123617 -0.817904 6.777914
vertex -2.120069 -0.817904 6.813931
endloop
endfacet
facet normal 0.000000 -1.000000 0.000007
outer loop
vertex -2.174142 -0.817904 6.683388
vertex -2.151183 -0.817904 6.711364
vertex -2.134122 -0.817904 6.743281
endloop
endfacet
facet normal 0.000000 -1.000000 0.000015
outer loop
vertex -2.234035 -0.817904 6.643368
vertex -2.202118 -0.817904 6.660429
vertex -2.174142 -0.817904 6.683388
endloop
endfacet
facet normal 0.000000 -1.000000 0.000000
outer loop
vertex -2.304685 -0.817904 6.629315
vertex -2.268668 -0.817904 6.632863
vertex -2.234035 -0.817904 6.643368
endloop
endfacet
facet normal 0.000000 -1.000000 -0.000004
outer loop
vertex -2.304685 -0.817904 6.629315
vertex -2.435227 -0.817904 6.683387
vertex -2.375334 -0.817904 6.643368
endloop
endfacet
facet normal 0.000000 -1.000000 0.000000
outer loop
vertex -2.489300 -0.817904 6.813930
vertex -2.475247 -0.817904 6.743281
vertex -2.435227 -0.817904 6.683387
endloop
endfacet
facet normal 0.000000 -1.000000 0.000003
outer loop
vertex -2.435227 -0.817904 6.944473
vertex -2.475247 -0.817904 6.884580
vertex -2.489300 -0.817904 6.813930
endloop
endfacet
facet normal 0.000000 -1.000000 0.000000
outer loop
vertex -2.304685 -0.817904 6.998546
vertex -2.375334 -0.817904 6.984493
vertex -2.435227 -0.817904 6.944473
endloop
endfacet
facet normal 0.000000 -1.000000 0.000000
outer loop
vertex -2.174142 -0.817904 6.944473
vertex -2.234035 -0.817904 6.984493
vertex -2.304685 -0.817904 6.998546
endloop
endfacet
facet normal 0.000000 -1.000000 0.000000
outer loop
vertex -2.120069 -0.817904 6.813931
vertex -2.134122 -0.817904 6.884580
vertex -2.174142 -0.817904 6.944473
endloop
endfacet
facet normal 0.000000 -1.000000 -0.000001
outer loop
vertex -2.174142 -0.817904 6.683388
vertex -2.134122 -0.817904 6.743281
vertex -2.120069 -0.817904 6.813931
endloop
endfacet
facet normal 0.000000 -1.000000 0.000000
outer loop
vertex -2.304685 -0.817904 6.629315
vertex -2.234035 -0.817904 6.643368
vertex -2.174142 -0.817904 6.683388
endloop
endfacet
facet normal 0.000000 -1.000000 0.000001
outer loop
vertex -2.304685 -0.817904 6.629315
vertex -2.489300 -0.817904 6.813930
vertex -2.435227 -0.817904 6.683387
endloop
endfacet
facet normal 0.000000 -1.000000 -0.000001
outer loop
vertex -2.304685 -0.817904 6.998546
vertex -2.435227 -0.817904 6.944473
vertex -2.489300 -0.817904 6.813930
endloop
endfacet
facet normal 0.000000 -1.000000 -0.000001
outer loop
vertex -2.120069 -0.817904 6.813931
vertex -2.174142 -0.817904 6.944473
vertex -2.304685 -0.817904 6.998546
endloop
endfacet
facet normal 0.000000 -1.000000 0.000001
outer loop
vertex -2.304685 -0.817904 6.629315
vertex -2.174142 -0.817904 6.683388
vertex -2.120069 -0.817904 6.813931
endloop
endfacet
facet normal 0.000000 -1.000000 0.000000
outer loop
vertex -2.304685 -0.817904 6.629315
vertex -2.304685 -0.817904 6.998546
vertex -2.489300 -0.817904 6.813930
endloop
endfacet
facet normal 0.000000 -1.000000 0.000000
outer loop
vertex -2.304685 -0.817904 6.629315
vertex -2.120069 -0.817904 6.813931
vertex -2.304685 -0.817904 6.998546
endloop
endfacet
endsolid Exported from Blender-2.74 (sub 0)
