solid Exported from Blender-2.74 (sub 0)
facet normal 0.000000 -1.000000 0.000001
outer loop
vertex 16.532579 16.572693 -89.039345
vertex 17.894735 16.572693 -95.887360
vertex 17.550894 16.572693 -92.396271
endloop
endfacet
facet normal 0.000000 -1.000000 -0.000001
outer loop
vertex 16.532579 16.572693 -102.735382
vertex 17.550894 16.572693 -99.378456
vertex 17.894735 16.572693 -95.887360
endloop
endfacet
facet normal 0.000000 -1.000000 0.000000
outer loop
vertex 12.653488 16.572693 -108.540848
vertex 14.878929 16.572693 -105.829147
vertex 16.532579 16.572693 -102.735382
endloop
endfacet
facet normal 0.000000 -1.000000 0.000003
outer loop
vertex 6.848018 16.572693 -112.419952
vertex 9.941780 16.572693 -110.766296
vertex 12.653488 16.572693 -108.540848
endloop
endfacet
facet normal 0.000000 -1.000000 0.000003
outer loop
vertex -0.000002 16.572693 -113.782104
vertex 3.491088 16.572693 -113.438263
vertex 6.848018 16.572693 -112.419952
endloop
endfacet
facet normal 0.000000 -1.000000 0.000003
outer loop
vertex -6.847997 16.572693 -112.419952
vertex -3.491066 16.572693 -113.438263
vertex -0.000002 16.572693 -113.782104
endloop
endfacet
facet normal 0.000000 -1.000000 -0.000003
outer loop
vertex -12.653475 16.572693 -108.540863
vertex -9.941765 16.572693 -110.766312
vertex -6.847997 16.572693 -112.419952
endloop
endfacet
facet normal 0.000000 -1.000000 0.000003
outer loop
vertex -16.532576 16.572693 -102.735397
vertex -14.878918 16.572693 -105.829163
vertex -12.653475 16.572693 -108.540863
endloop
endfacet
facet normal 0.000000 -1.000000 0.000000
outer loop
vertex -17.894739 16.572693 -95.887383
vertex -17.550894 16.572693 -99.378471
vertex -16.532576 16.572693 -102.735397
endloop
endfacet
facet normal 0.000000 -1.000000 -0.000001
outer loop
vertex -16.532589 16.572693 -89.039352
vertex -17.550898 16.572693 -92.396286
vertex -17.894739 16.572693 -95.887383
endloop
endfacet
facet normal 0.000000 -1.000000 -0.000002
outer loop
vertex -12.653500 16.572693 -83.233879
vertex -14.878937 16.572693 -85.945587
vertex -16.532589 16.572693 -89.039352
endloop
endfacet
facet normal 0.000000 -1.000000 0.000000
outer loop
vertex -6.848029 16.572693 -79.354782
vertex -9.941793 16.572693 -81.008438
vertex -12.653500 16.572693 -83.233879
endloop
endfacet
facet normal 0.000000 -1.000000 -0.000003
outer loop
vertex -0.000008 16.572693 -77.992630
vertex -3.491099 16.572693 -78.336472
vertex -6.848029 16.572693 -79.354782
endloop
endfacet
facet normal 0.000000 -1.000000 0.000000
outer loop
vertex 6.848014 16.572693 -79.354782
vertex 3.491084 16.572693 -78.336472
vertex -0.000008 16.572693 -77.992630
endloop
endfacet
facet normal 0.000000 -1.000000 0.000000
outer loop
vertex 12.653488 16.572693 -83.233871
vertex 9.941780 16.572693 -81.008430
vertex 6.848014 16.572693 -79.354782
endloop
endfacet
facet normal 0.000000 -1.000000 0.000000
outer loop
vertex 16.532579 16.572693 -89.039345
vertex 14.878929 16.572693 -85.945580
vertex 12.653488 16.572693 -83.233871
endloop
endfacet
facet normal 0.000000 -1.000000 0.000000
outer loop
vertex 16.532579 16.572693 -89.039345
vertex 16.532579 16.572693 -102.735382
vertex 17.894735 16.572693 -95.887360
endloop
endfacet
facet normal 0.000000 -1.000000 0.000000
outer loop
vertex 6.848018 16.572693 -112.419952
vertex 12.653488 16.572693 -108.540848
vertex 16.532579 16.572693 -102.735382
endloop
endfacet
facet normal 0.000000 -1.000000 -0.000001
outer loop
vertex -6.847997 16.572693 -112.419952
vertex -0.000002 16.572693 -113.782104
vertex 6.848018 16.572693 -112.419952
endloop
endfacet
facet normal 0.000000 -1.000000 0.000000
outer loop
vertex -16.532576 16.572693 -102.735397
vertex -12.653475 16.572693 -108.540863
vertex -6.847997 16.572693 -112.419952
endloop
endfacet
facet normal 0.000000 -1.000000 0.000000
outer loop
vertex -16.532589 16.572693 -89.039352
vertex -17.894739 16.572693 -95.887383
vertex -16.532576 16.572693 -102.735397
endloop
endfacet
facet normal 0.000000 -1.000000 -0.000001
outer loop
vertex -6.848029 16.572693 -79.354782
vertex -12.653500 16.572693 -83.233879
vertex -16.532589 16.572693 -89.039352
endloop
endfacet
facet normal 0.000000 -1.000000 0.000000
outer loop
vertex 6.848014 16.572693 -79.354782
vertex -0.000008 16.572693 -77.992630
vertex -6.848029 16.572693 -79.354782
endloop
endfacet
facet normal 0.000000 -1.000000 0.000001
outer loop
vertex 16.532579 16.572693 -89.039345
vertex 12.653488 16.572693 -83.233871
vertex 6.848014 16.572693 -79.354782
endloop
endfacet
facet normal 0.000000 -1.000000 0.000000
outer loop
vertex 16.532579 16.572693 -89.039345
vertex 6.848018 16.572693 -112.419952
vertex 16.532579 16.572693 -102.735382
endloop
endfacet
facet normal 0.000000 -1.000000 -0.000000
outer loop
vertex -16.532576 16.572693 -102.735397
vertex -6.847997 16.572693 -112.419952
vertex 6.848018 16.572693 -112.419952
endloop
endfacet
facet normal 0.000000 -1.000000 0.000000
outer loop
vertex -6.848029 16.572693 -79.354782
vertex -16.532589 16.572693 -89.039352
vertex -16.532576 16.572693 -102.735397
endloop
endfacet
facet normal 0.000000 -1.000000 0.000000
outer loop
vertex 16.532579 16.572693 -89.039345
vertex 6.848014 16.572693 -79.354782
vertex -6.848029 16.572693 -79.354782
endloop
endfacet
facet normal 0.000000 -1.000000 0.000000
outer loop
vertex 16.532579 16.572693 -89.039345
vertex -16.532576 16.572693 -102.735397
vertex 6.848018 16.572693 -112.419952
endloop
endfacet
facet normal 0.000000 -1.000000 0.000000
outer loop
vertex 16.532579 16.572693 -89.039345
vertex -6.848029 16.572693 -79.354782
vertex -16.532576 16.572693 -102.735397
endloop
endfacet
facet normal 0.000000 1.000000 0.000002
outer loop
vertex 17.550894 18.572693 -92.396271
vertex 14.878929 18.572693 -85.945580
vertex 16.532579 18.572693 -89.039345
endloop
endfacet
facet normal -0.000069 1.000000 -0.000060
outer loop
vertex 9.941780 18.572632 -81.008430
vertex 12.653488 18.572693 -83.233871
vertex 14.878929 18.572693 -85.945580
endloop
endfacet
facet normal 0.000042 1.000000 0.000079
outer loop
vertex 3.491084 18.572693 -78.336472
vertex 6.848014 18.572632 -79.354782
vertex 9.941780 18.572632 -81.008430
endloop
endfacet
facet normal 0.000000 1.000000 0.000000
outer loop
vertex -3.491099 18.572693 -78.336472
vertex -0.000008 18.572693 -77.992630
vertex 3.491084 18.572693 -78.336472
endloop
endfacet
facet normal 0.000000 1.000000 0.000003
outer loop
vertex -9.941793 18.572693 -81.008438
vertex -6.848029 18.572693 -79.354782
vertex -3.491099 18.572693 -78.336472
endloop
endfacet
facet normal 0.000000 1.000000 0.000000
outer loop
vertex -14.878937 18.572693 -85.945587
vertex -12.653500 18.572693 -83.233879
vertex -9.941793 18.572693 -81.008438
endloop
endfacet
facet normal 0.000000 1.000000 0.000000
outer loop
vertex -17.550898 18.572693 -92.396286
vertex -16.532589 18.572693 -89.039352
vertex -14.878937 18.572693 -85.945587
endloop
endfacet
facet normal -0.000089 1.000000 -0.000009
outer loop
vertex -17.550894 18.572632 -99.378471
vertex -17.894739 18.572632 -95.887383
vertex -17.550898 18.572693 -92.396286
endloop
endfacet
facet normal 0.000164 1.000000 0.000067
outer loop
vertex -14.878918 18.572632 -105.829163
vertex -16.532576 18.572693 -102.735397
vertex -17.550894 18.572632 -99.378471
endloop
endfacet
facet normal 0.000057 1.000000 0.000067
outer loop
vertex -9.941765 18.572693 -110.766312
vertex -12.653475 18.572693 -108.540863
vertex -14.878918 18.572632 -105.829163
endloop
endfacet
facet normal 0.000000 1.000000 0.000000
outer loop
vertex -3.491066 18.572693 -113.438263
vertex -6.847997 18.572693 -112.419952
vertex -9.941765 18.572693 -110.766312
endloop
endfacet
facet normal 0.000000 1.000000 -0.000172
outer loop
vertex 3.491088 18.572693 -113.438263
vertex -0.000002 18.572632 -113.782104
vertex -3.491066 18.572693 -113.438263
endloop
endfacet
facet normal 0.000000 1.000000 0.000000
outer loop
vertex 9.941780 18.572693 -110.766296
vertex 6.848018 18.572693 -112.419952
vertex 3.491088 18.572693 -113.438263
endloop
endfacet
facet normal 0.000000 1.000000 0.000000
outer loop
vertex 14.878929 18.572693 -105.829147
vertex 12.653488 18.572693 -108.540848
vertex 9.941780 18.572693 -110.766296
endloop
endfacet
facet normal -0.000079 1.000000 0.000043
outer loop
vertex 17.550894 18.572632 -99.378456
vertex 16.532579 18.572693 -102.735382
vertex 14.878929 18.572693 -105.829147
endloop
endfacet
facet normal -0.000089 1.000000 -0.000009
outer loop
vertex 17.550894 18.572693 -92.396271
vertex 17.894735 18.572693 -95.887360
vertex 17.550894 18.572632 -99.378456
endloop
endfacet
facet normal -0.000021 1.000000 -0.000008
outer loop
vertex 17.550894 18.572693 -92.396271
vertex 9.941780 18.572632 -81.008430
vertex 14.878929 18.572693 -85.945580
endloop
endfacet
facet normal 0.000000 1.000000 -0.000025
outer loop
vertex -3.491099 18.572693 -78.336472
vertex 3.491084 18.572693 -78.336472
vertex 9.941780 18.572632 -81.008430
endloop
endfacet
facet normal 0.000000 1.000000 0.000001
outer loop
vertex -14.878937 18.572693 -85.945587
vertex -9.941793 18.572693 -81.008438
vertex -3.491099 18.572693 -78.336472
endloop
endfacet
facet normal 0.000021 1.000000 -0.000009
outer loop
vertex -17.550894 18.572632 -99.378471
vertex -17.550898 18.572693 -92.396286
vertex -14.878937 18.572693 -85.945587
endloop
endfacet
facet normal -0.000021 1.000000 -0.000008
outer loop
vertex -9.941765 18.572693 -110.766312
vertex -14.878918 18.572632 -105.829163
vertex -17.550894 18.572632 -99.378471
endloop
endfacet
facet normal 0.000000 1.000000 -0.000002
outer loop
vertex 3.491088 18.572693 -113.438263
vertex -3.491066 18.572693 -113.438263
vertex -9.941765 18.572693 -110.766312
endloop
endfacet
facet normal 0.000000 1.000000 0.000002
outer loop
vertex 14.878929 18.572693 -105.829147
vertex 9.941780 18.572693 -110.766296
vertex 3.491088 18.572693 -113.438263
endloop
endfacet
facet normal 0.000044 1.000000 -0.000009
outer loop
vertex 17.550894 18.572693 -92.396271
vertex 17.550894 18.572632 -99.378456
vertex 14.878929 18.572693 -105.829147
endloop
endfacet
facet normal 0.000006 1.000000 0.000010
outer loop
vertex 17.550894 18.572693 -92.396271
vertex -3.491099 18.572693 -78.336472
vertex 9.941780 18.572632 -81.008430
endloop
endfacet
facet normal 0.000004 1.000000 -0.000005
outer loop
vertex -17.550894 18.572632 -99.378471
vertex -14.878937 18.572693 -85.945587
vertex -3.491099 18.572693 -78.336472
endloop
endfacet
facet normal 0.000001 1.000000 0.000006
outer loop
vertex 3.491088 18.572693 -113.438263
vertex -9.941765 18.572693 -110.766312
vertex -17.550894 18.572632 -99.378471
endloop
endfacet
facet normal 0.000000 1.000000 -0.000000
outer loop
vertex 17.550894 18.572693 -92.396271
vertex 14.878929 18.572693 -105.829147
vertex 3.491088 18.572693 -113.438263
endloop
endfacet
facet normal -0.000001 1.000000 -0.000002
outer loop
vertex 17.550894 18.572693 -92.396271
vertex -17.550894 18.572632 -99.378471
vertex -3.491099 18.572693 -78.336472
endloop
endfacet
facet normal -0.000002 1.000000 0.000001
outer loop
vertex 17.550894 18.572693 -92.396271
vertex 3.491088 18.572693 -113.438263
vertex -17.550894 18.572632 -99.378471
endloop
endfacet
facet normal 0.956940 0.000000 0.290285
outer loop
vertex 16.532579 16.572693 -89.039345
vertex 17.550894 16.572693 -92.396271
vertex 17.550894 18.572693 -92.396271
endloop
endfacet
facet normal 0.956940 0.000000 0.290286
outer loop
vertex 17.550894 18.572693 -92.396271
vertex 16.532579 18.572693 -89.039345
vertex 16.532579 16.572693 -89.039345
endloop
endfacet
facet normal 0.773011 0.000000 0.634392
outer loop
vertex 12.653488 16.572693 -83.233871
vertex 14.878929 16.572693 -85.945580
vertex 14.878929 18.572693 -85.945580
endloop
endfacet
facet normal 0.773010 0.000000 0.634394
outer loop
vertex 14.878929 18.572693 -85.945580
vertex 12.653488 18.572693 -83.233871
vertex 12.653488 16.572693 -83.233871
endloop
endfacet
facet normal 0.881922 0.000000 0.471396
outer loop
vertex 14.878929 16.572693 -85.945580
vertex 16.532579 16.572693 -89.039345
vertex 16.532579 18.572693 -89.039345
endloop
endfacet
facet normal 0.881922 0.000000 0.471396
outer loop
vertex 16.532579 18.572693 -89.039345
vertex 14.878929 18.572693 -85.945580
vertex 14.878929 16.572693 -85.945580
endloop
endfacet
facet normal 0.881922 0.000000 -0.471396
outer loop
vertex 16.532579 16.572693 -102.735382
vertex 14.878929 16.572693 -105.829147
vertex 14.878929 18.572693 -105.829147
endloop
endfacet
facet normal 0.881922 0.000000 -0.471396
outer loop
vertex 14.878929 18.572693 -105.829147
vertex 16.532579 18.572693 -102.735382
vertex 16.532579 16.572693 -102.735382
endloop
endfacet
facet normal 0.995185 0.000000 -0.098017
outer loop
vertex 17.894735 16.572693 -95.887360
vertex 17.550894 16.572693 -99.378456
vertex 17.550894 18.572632 -99.378456
endloop
endfacet
facet normal 0.995185 0.000000 -0.098017
outer loop
vertex 17.550894 18.572632 -99.378456
vertex 17.894735 18.572693 -95.887360
vertex 17.894735 16.572693 -95.887360
endloop
endfacet
facet normal 0.471395 0.000000 0.881922
outer loop
vertex 6.848014 16.572693 -79.354782
vertex 9.941780 16.572693 -81.008430
vertex 9.941780 18.572632 -81.008430
endloop
endfacet
facet normal 0.471395 0.000000 0.881922
outer loop
vertex 9.941780 18.572632 -81.008430
vertex 6.848014 18.572632 -79.354782
vertex 6.848014 16.572693 -79.354782
endloop
endfacet
facet normal 0.290284 0.000000 0.956941
outer loop
vertex 3.491084 16.572693 -78.336472
vertex 6.848014 16.572693 -79.354782
vertex 6.848014 18.572632 -79.354782
endloop
endfacet
facet normal 0.290284 0.000000 0.956941
outer loop
vertex 6.848014 18.572632 -79.354782
vertex 3.491084 18.572693 -78.336472
vertex 3.491084 16.572693 -78.336472
endloop
endfacet
facet normal -0.098017 0.000000 0.995185
outer loop
vertex -3.491099 16.572693 -78.336472
vertex -0.000008 16.572693 -77.992630
vertex -0.000008 18.572693 -77.992630
endloop
endfacet
facet normal -0.098017 0.000000 0.995185
outer loop
vertex -0.000008 18.572693 -77.992630
vertex -3.491099 18.572693 -78.336472
vertex -3.491099 16.572693 -78.336472
endloop
endfacet
facet normal -0.290284 0.000000 0.956941
outer loop
vertex -6.848029 16.572693 -79.354782
vertex -3.491099 16.572693 -78.336472
vertex -3.491099 18.572693 -78.336472
endloop
endfacet
facet normal -0.290284 0.000000 0.956941
outer loop
vertex -3.491099 18.572693 -78.336472
vertex -6.848029 18.572693 -79.354782
vertex -6.848029 16.572693 -79.354782
endloop
endfacet
facet normal -0.471398 0.000000 0.881921
outer loop
vertex -9.941793 16.572693 -81.008438
vertex -6.848029 16.572693 -79.354782
vertex -6.848029 18.572693 -79.354782
endloop
endfacet
facet normal -0.471398 0.000000 0.881921
outer loop
vertex -6.848029 18.572693 -79.354782
vertex -9.941793 18.572693 -81.008438
vertex -9.941793 16.572693 -81.008438
endloop
endfacet
facet normal -0.634392 0.000000 0.773012
outer loop
vertex -12.653500 16.572693 -83.233879
vertex -9.941793 16.572693 -81.008438
vertex -9.941793 18.572693 -81.008438
endloop
endfacet
facet normal -0.634395 0.000000 0.773009
outer loop
vertex -9.941793 18.572693 -81.008438
vertex -12.653500 18.572693 -83.233879
vertex -12.653500 16.572693 -83.233879
endloop
endfacet
facet normal -0.956940 0.000000 -0.290286
outer loop
vertex -16.532576 16.572693 -102.735397
vertex -17.550894 16.572693 -99.378471
vertex -17.550894 18.572632 -99.378471
endloop
endfacet
facet normal -0.956940 0.000000 -0.290286
outer loop
vertex -17.550894 18.572632 -99.378471
vertex -16.532576 18.572693 -102.735397
vertex -16.532576 16.572693 -102.735397
endloop
endfacet
facet normal -0.773008 0.000000 -0.634396
outer loop
vertex -12.653475 16.572693 -108.540863
vertex -14.878918 16.572693 -105.829163
vertex -14.878918 18.572632 -105.829163
endloop
endfacet
facet normal -0.773010 0.000000 -0.634394
outer loop
vertex -14.878918 18.572632 -105.829163
vertex -12.653475 18.572693 -108.540863
vertex -12.653475 16.572693 -108.540863
endloop
endfacet
facet normal -0.471394 0.000000 -0.881923
outer loop
vertex -6.847997 16.572693 -112.419952
vertex -9.941765 16.572693 -110.766312
vertex -9.941765 18.572693 -110.766312
endloop
endfacet
facet normal -0.471394 0.000000 -0.881923
outer loop
vertex -9.941765 18.572693 -110.766312
vertex -6.847997 18.572693 -112.419952
vertex -6.847997 16.572693 -112.419952
endloop
endfacet
facet normal 0.995185 0.000000 0.098017
outer loop
vertex 17.550894 16.572693 -92.396271
vertex 17.894735 16.572693 -95.887360
vertex 17.894735 18.572693 -95.887360
endloop
endfacet
facet normal 0.995185 0.000000 0.098017
outer loop
vertex 17.894735 18.572693 -95.887360
vertex 17.550894 18.572693 -92.396271
vertex 17.550894 16.572693 -92.396271
endloop
endfacet
facet normal 0.634392 0.000000 0.773012
outer loop
vertex 9.941780 16.572693 -81.008430
vertex 12.653488 16.572693 -83.233871
vertex 12.653488 18.572693 -83.233871
endloop
endfacet
facet normal 0.634395 0.000000 0.773009
outer loop
vertex 12.653488 18.572693 -83.233871
vertex 9.941780 18.572632 -81.008430
vertex 9.941780 16.572693 -81.008430
endloop
endfacet
facet normal -0.098018 0.000000 -0.995185
outer loop
vertex -0.000002 16.572693 -113.782104
vertex -3.491066 16.572693 -113.438263
vertex -3.491066 18.572693 -113.438263
endloop
endfacet
facet normal -0.098016 0.000000 -0.995185
outer loop
vertex -3.491066 18.572693 -113.438263
vertex -0.000002 18.572632 -113.782104
vertex -0.000002 16.572693 -113.782104
endloop
endfacet
facet normal 0.098016 0.000000 -0.995185
outer loop
vertex 3.491088 16.572693 -113.438263
vertex -0.000002 16.572693 -113.782104
vertex -0.000002 18.572632 -113.782104
endloop
endfacet
facet normal 0.098017 0.000000 -0.995185
outer loop
vertex -0.000002 18.572632 -113.782104
vertex 3.491088 18.572693 -113.438263
vertex 3.491088 16.572693 -113.438263
endloop
endfacet
facet normal 0.290284 0.000000 -0.956941
outer loop
vertex 6.848018 16.572693 -112.419952
vertex 3.491088 16.572693 -113.438263
vertex 3.491088 18.572693 -113.438263
endloop
endfacet
facet normal 0.290284 0.000000 -0.956941
outer loop
vertex 3.491088 18.572693 -113.438263
vertex 6.848018 18.572693 -112.419952
vertex 6.848018 16.572693 -112.419952
endloop
endfacet
facet normal 0.471398 0.000000 -0.881921
outer loop
vertex 9.941780 16.572693 -110.766296
vertex 6.848018 16.572693 -112.419952
vertex 6.848018 18.572693 -112.419952
endloop
endfacet
facet normal 0.471398 0.000000 -0.881921
outer loop
vertex 6.848018 18.572693 -112.419952
vertex 9.941780 18.572693 -110.766296
vertex 9.941780 16.572693 -110.766296
endloop
endfacet
facet normal 0.634395 0.000000 -0.773009
outer loop
vertex 12.653488 16.572693 -108.540848
vertex 9.941780 16.572693 -110.766296
vertex 9.941780 18.572693 -110.766296
endloop
endfacet
facet normal 0.634395 0.000000 -0.773009
outer loop
vertex 9.941780 18.572693 -110.766296
vertex 12.653488 18.572693 -108.540848
vertex 12.653488 16.572693 -108.540848
endloop
endfacet
facet normal 0.773010 0.000000 -0.634394
outer loop
vertex 14.878929 16.572693 -105.829147
vertex 12.653488 16.572693 -108.540848
vertex 12.653488 18.572693 -108.540848
endloop
endfacet
facet normal 0.773010 0.000000 -0.634394
outer loop
vertex 12.653488 18.572693 -108.540848
vertex 14.878929 18.572693 -105.829147
vertex 14.878929 16.572693 -105.829147
endloop
endfacet
facet normal 0.098017 0.000000 0.995185
outer loop
vertex -0.000008 16.572693 -77.992630
vertex 3.491084 16.572693 -78.336472
vertex 3.491084 18.572693 -78.336472
endloop
endfacet
facet normal 0.098017 0.000000 0.995185
outer loop
vertex 3.491084 18.572693 -78.336472
vertex -0.000008 18.572693 -77.992630
vertex -0.000008 16.572693 -77.992630
endloop
endfacet
facet normal -0.773012 0.000000 0.634391
outer loop
vertex -14.878937 16.572693 -85.945587
vertex -12.653500 16.572693 -83.233879
vertex -12.653500 18.572693 -83.233879
endloop
endfacet
facet normal -0.773010 0.000000 0.634394
outer loop
vertex -12.653500 18.572693 -83.233879
vertex -14.878937 18.572693 -85.945587
vertex -14.878937 16.572693 -85.945587
endloop
endfacet
facet normal -0.881921 0.000000 0.471397
outer loop
vertex -16.532589 16.572693 -89.039352
vertex -14.878937 16.572693 -85.945587
vertex -14.878937 18.572693 -85.945587
endloop
endfacet
facet normal -0.881921 0.000000 0.471397
outer loop
vertex -14.878937 18.572693 -85.945587
vertex -16.532589 18.572693 -89.039352
vertex -16.532589 16.572693 -89.039352
endloop
endfacet
facet normal -0.956941 0.000000 0.290283
outer loop
vertex -17.550898 16.572693 -92.396286
vertex -16.532589 16.572693 -89.039352
vertex -16.532589 18.572693 -89.039352
endloop
endfacet
facet normal -0.956941 0.000000 0.290283
outer loop
vertex -16.532589 18.572693 -89.039352
vertex -17.550898 18.572693 -92.396286
vertex -17.550898 16.572693 -92.396286
endloop
endfacet
facet normal -0.995185 0.000000 -0.098018
outer loop
vertex -17.550894 16.572693 -99.378471
vertex -17.894739 16.572693 -95.887383
vertex -17.894739 18.572632 -95.887383
endloop
endfacet
facet normal -0.995185 0.000000 -0.098018
outer loop
vertex -17.894739 18.572632 -95.887383
vertex -17.550894 18.572632 -99.378471
vertex -17.550894 16.572693 -99.378471
endloop
endfacet
facet normal -0.881921 0.000000 -0.471398
outer loop
vertex -14.878918 16.572693 -105.829163
vertex -16.532576 16.572693 -102.735397
vertex -16.532576 18.572693 -102.735397
endloop
endfacet
facet normal -0.881921 0.000000 -0.471397
outer loop
vertex -16.532576 18.572693 -102.735397
vertex -14.878918 18.572632 -105.829163
vertex -14.878918 16.572693 -105.829163
endloop
endfacet
facet normal -0.634395 0.000000 -0.773009
outer loop
vertex -9.941765 16.572693 -110.766312
vertex -12.653475 16.572693 -108.540863
vertex -12.653475 18.572693 -108.540863
endloop
endfacet
facet normal -0.634394 0.000000 -0.773010
outer loop
vertex -12.653475 18.572693 -108.540863
vertex -9.941765 18.572693 -110.766312
vertex -9.941765 16.572693 -110.766312
endloop
endfacet
facet normal -0.290284 0.000000 -0.956941
outer loop
vertex -3.491066 16.572693 -113.438263
vertex -6.847997 16.572693 -112.419952
vertex -6.847997 18.572693 -112.419952
endloop
endfacet
facet normal -0.290284 0.000000 -0.956941
outer loop
vertex -6.847997 18.572693 -112.419952
vertex -3.491066 18.572693 -113.438263
vertex -3.491066 16.572693 -113.438263
endloop
endfacet
facet normal 0.956940 0.000000 -0.290285
outer loop
vertex 17.550894 16.572693 -99.378456
vertex 16.532579 16.572693 -102.735382
vertex 16.532579 18.572693 -102.735382
endloop
endfacet
facet normal 0.956940 0.000000 -0.290285
outer loop
vertex 16.532579 18.572693 -102.735382
vertex 17.550894 18.572632 -99.378456
vertex 17.550894 16.572693 -99.378456
endloop
endfacet
facet normal -0.995185 0.000000 0.098017
outer loop
vertex -17.894739 16.572693 -95.887383
vertex -17.550898 16.572693 -92.396286
vertex -17.550898 18.572693 -92.396286
endloop
endfacet
facet normal -0.995185 0.000000 0.098017
outer loop
vertex -17.550898 18.572693 -92.396286
vertex -17.894739 18.572632 -95.887383
vertex -17.894739 16.572693 -95.887383
endloop
endfacet
endsolid Exported from Blender-2.74 (sub 0)
