solid Exported from Blender-2.74 (sub 0)
facet normal -1.000000 0.000000 0.000000
outer loop
vertex -29.999998 0.000000 -29.999998
vertex -29.999998 0.000000 29.999998
vertex -29.999998 99.999992 29.999998
endloop
endfacet
facet normal -1.000000 0.000000 0.000000
outer loop
vertex -29.999998 99.999992 29.999998
vertex -29.999998 99.999992 -29.999998
vertex -29.999998 0.000000 -29.999998
endloop
endfacet
facet normal 0.000000 0.000000 -1.000000
outer loop
vertex -29.999998 99.999992 -29.999998
vertex 29.999998 99.999992 -29.999998
vertex 29.999998 0.000000 -29.999998
endloop
endfacet
facet normal 0.000000 0.000000 -1.000000
outer loop
vertex 29.999998 0.000000 -29.999998
vertex -29.999998 0.000000 -29.999998
vertex -29.999998 99.999992 -29.999998
endloop
endfacet
facet normal 1.000000 0.000000 0.000000
outer loop
vertex 29.999998 99.999992 -29.999998
vertex 29.999998 99.999992 29.999998
vertex 29.999998 0.000000 29.999998
endloop
endfacet
facet normal 1.000000 0.000000 0.000000
outer loop
vertex 29.999998 0.000000 29.999998
vertex 29.999998 0.000000 -29.999998
vertex 29.999998 99.999992 -29.999998
endloop
endfacet
facet normal 0.000000 0.000000 1.000000
outer loop
vertex -29.999998 0.000000 29.999998
vertex 29.999998 0.000000 29.999998
vertex 29.999998 99.999992 29.999998
endloop
endfacet
facet normal 0.000000 0.000000 1.000000
outer loop
vertex 29.999998 99.999992 29.999998
vertex -29.999998 99.999992 29.999998
vertex -29.999998 0.000000 29.999998
endloop
endfacet
facet normal 0.000000 -1.000000 0.000000
outer loop
vertex -29.999998 0.000000 29.999998
vertex -29.999998 0.000000 -29.999998
vertex 29.999998 0.000000 -29.999998
endloop
endfacet
facet normal 0.000000 -1.000000 0.000000
outer loop
vertex 29.999998 0.000000 -29.999998
vertex 29.999998 0.000000 29.999998
vertex -29.999998 0.000000 29.999998
endloop
endfacet
facet normal 0.000000 1.000000 0.000000
outer loop
vertex 29.999998 99.999992 29.999998
vertex 29.999998 99.999992 -29.999998
vertex -29.999998 99.999992 -29.999998
endloop
endfacet
facet normal 0.000000 1.000000 0.000000
outer loop
vertex -29.999998 99.999992 -29.999998
vertex -29.999998 99.999992 29.999998
vertex 29.999998 99.999992 29.999998
endloop
endfacet
endsolid Exported from Blender-2.74 (sub 0)
