solid Exported from Blender-2.74 (sub 0)
facet normal 0.098018 0.000000 -0.995185
outer loop
vertex 0.000000 -0.001000 -0.001000
vertex 0.000000 0.001000 -0.001000
vertex 0.000195 0.001000 -0.000981
endloop
endfacet
facet normal 0.098017 0.000000 -0.995185
outer loop
vertex 0.000195 0.001000 -0.000981
vertex 0.000195 -0.001000 -0.000981
vertex 0.000000 -0.001000 -0.001000
endloop
endfacet
facet normal 0.290284 0.000000 -0.956941
outer loop
vertex 0.000195 -0.001000 -0.000981
vertex 0.000195 0.001000 -0.000981
vertex 0.000383 0.001000 -0.000924
endloop
endfacet
facet normal 0.290285 0.000000 -0.956940
outer loop
vertex 0.000383 0.001000 -0.000924
vertex 0.000383 -0.001000 -0.000924
vertex 0.000195 -0.001000 -0.000981
endloop
endfacet
facet normal 0.471397 0.000000 -0.881921
outer loop
vertex 0.000383 -0.001000 -0.000924
vertex 0.000383 0.001000 -0.000924
vertex 0.000556 0.001000 -0.000831
endloop
endfacet
facet normal 0.471397 0.000000 -0.881921
outer loop
vertex 0.000556 0.001000 -0.000831
vertex 0.000556 -0.001000 -0.000831
vertex 0.000383 -0.001000 -0.000924
endloop
endfacet
facet normal 0.634393 0.000000 -0.773010
outer loop
vertex 0.000556 -0.001000 -0.000831
vertex 0.000556 0.001000 -0.000831
vertex 0.000707 0.001000 -0.000707
endloop
endfacet
facet normal 0.634393 0.000000 -0.773010
outer loop
vertex 0.000707 0.001000 -0.000707
vertex 0.000707 -0.001000 -0.000707
vertex 0.000556 -0.001000 -0.000831
endloop
endfacet
facet normal 0.773010 0.000000 -0.634393
outer loop
vertex 0.000707 -0.001000 -0.000707
vertex 0.000707 0.001000 -0.000707
vertex 0.000831 0.001000 -0.000556
endloop
endfacet
facet normal 0.773010 0.000000 -0.634394
outer loop
vertex 0.000831 0.001000 -0.000556
vertex 0.000831 -0.001000 -0.000556
vertex 0.000707 -0.001000 -0.000707
endloop
endfacet
facet normal 0.881921 0.000000 -0.471397
outer loop
vertex 0.000831 -0.001000 -0.000556
vertex 0.000831 0.001000 -0.000556
vertex 0.000924 0.001000 -0.000383
endloop
endfacet
facet normal 0.881921 0.000000 -0.471397
outer loop
vertex 0.000924 0.001000 -0.000383
vertex 0.000924 -0.001000 -0.000383
vertex 0.000831 -0.001000 -0.000556
endloop
endfacet
facet normal 0.956940 0.000000 -0.290285
outer loop
vertex 0.000924 -0.001000 -0.000383
vertex 0.000924 0.001000 -0.000383
vertex 0.000981 0.001000 -0.000195
endloop
endfacet
facet normal 0.956940 0.000000 -0.290285
outer loop
vertex 0.000981 0.001000 -0.000195
vertex 0.000981 -0.001000 -0.000195
vertex 0.000924 -0.001000 -0.000383
endloop
endfacet
facet normal 0.995185 0.000000 -0.098017
outer loop
vertex 0.000981 -0.001000 -0.000195
vertex 0.000981 0.001000 -0.000195
vertex 0.001000 0.001000 -0.000000
endloop
endfacet
facet normal 0.995185 0.000000 -0.098017
outer loop
vertex 0.001000 0.001000 -0.000000
vertex 0.001000 -0.001000 -0.000000
vertex 0.000981 -0.001000 -0.000195
endloop
endfacet
facet normal 0.995185 0.000000 0.098017
outer loop
vertex 0.001000 -0.001000 -0.000000
vertex 0.001000 0.001000 -0.000000
vertex 0.000981 0.001000 0.000195
endloop
endfacet
facet normal 0.995185 0.000000 0.098017
outer loop
vertex 0.000981 0.001000 0.000195
vertex 0.000981 -0.001000 0.000195
vertex 0.001000 -0.001000 -0.000000
endloop
endfacet
facet normal 0.956940 0.000000 0.290285
outer loop
vertex 0.000981 -0.001000 0.000195
vertex 0.000981 0.001000 0.000195
vertex 0.000924 0.001000 0.000383
endloop
endfacet
facet normal 0.956940 0.000000 0.290285
outer loop
vertex 0.000924 0.001000 0.000383
vertex 0.000924 -0.001000 0.000383
vertex 0.000981 -0.001000 0.000195
endloop
endfacet
facet normal 0.881921 0.000000 0.471397
outer loop
vertex 0.000924 -0.001000 0.000383
vertex 0.000924 0.001000 0.000383
vertex 0.000831 0.001000 0.000556
endloop
endfacet
facet normal 0.881921 0.000000 0.471397
outer loop
vertex 0.000831 0.001000 0.000556
vertex 0.000831 -0.001000 0.000556
vertex 0.000924 -0.001000 0.000383
endloop
endfacet
facet normal 0.773010 0.000000 0.634394
outer loop
vertex 0.000831 -0.001000 0.000556
vertex 0.000831 0.001000 0.000556
vertex 0.000707 0.001000 0.000707
endloop
endfacet
facet normal 0.773010 0.000000 0.634393
outer loop
vertex 0.000707 0.001000 0.000707
vertex 0.000707 -0.001000 0.000707
vertex 0.000831 -0.001000 0.000556
endloop
endfacet
facet normal 0.634393 0.000000 0.773010
outer loop
vertex 0.000707 -0.001000 0.000707
vertex 0.000707 0.001000 0.000707
vertex 0.000556 0.001000 0.000831
endloop
endfacet
facet normal 0.634394 0.000000 0.773010
outer loop
vertex 0.000556 0.001000 0.000831
vertex 0.000556 -0.001000 0.000831
vertex 0.000707 -0.001000 0.000707
endloop
endfacet
facet normal 0.471397 0.000000 0.881921
outer loop
vertex 0.000556 -0.001000 0.000831
vertex 0.000556 0.001000 0.000831
vertex 0.000383 0.001000 0.000924
endloop
endfacet
facet normal 0.471396 0.000000 0.881921
outer loop
vertex 0.000383 0.001000 0.000924
vertex 0.000383 -0.001000 0.000924
vertex 0.000556 -0.001000 0.000831
endloop
endfacet
facet normal 0.290284 0.000000 0.956941
outer loop
vertex 0.000383 -0.001000 0.000924
vertex 0.000383 0.001000 0.000924
vertex 0.000195 0.001000 0.000981
endloop
endfacet
facet normal 0.290284 0.000000 0.956941
outer loop
vertex 0.000195 0.001000 0.000981
vertex 0.000195 -0.001000 0.000981
vertex 0.000383 -0.001000 0.000924
endloop
endfacet
facet normal 0.098017 0.000000 0.995185
outer loop
vertex 0.000195 -0.001000 0.000981
vertex 0.000195 0.001000 0.000981
vertex -0.000000 0.001000 0.001000
endloop
endfacet
facet normal 0.098018 0.000000 0.995185
outer loop
vertex -0.000000 0.001000 0.001000
vertex -0.000000 -0.001000 0.001000
vertex 0.000195 -0.001000 0.000981
endloop
endfacet
facet normal -0.098018 0.000000 0.995185
outer loop
vertex -0.000000 -0.001000 0.001000
vertex -0.000000 0.001000 0.001000
vertex -0.000195 0.001000 0.000981
endloop
endfacet
facet normal -0.098018 0.000000 0.995185
outer loop
vertex -0.000195 0.001000 0.000981
vertex -0.000195 -0.001000 0.000981
vertex -0.000000 -0.001000 0.001000
endloop
endfacet
facet normal -0.290284 0.000000 0.956940
outer loop
vertex -0.000195 -0.001000 0.000981
vertex -0.000195 0.001000 0.000981
vertex -0.000383 0.001000 0.000924
endloop
endfacet
facet normal -0.290285 0.000000 0.956940
outer loop
vertex -0.000383 0.001000 0.000924
vertex -0.000383 -0.001000 0.000924
vertex -0.000195 -0.001000 0.000981
endloop
endfacet
facet normal -0.471397 0.000000 0.881921
outer loop
vertex -0.000383 -0.001000 0.000924
vertex -0.000383 0.001000 0.000924
vertex -0.000556 0.001000 0.000831
endloop
endfacet
facet normal -0.471397 0.000000 0.881921
outer loop
vertex -0.000556 0.001000 0.000831
vertex -0.000556 -0.001000 0.000831
vertex -0.000383 -0.001000 0.000924
endloop
endfacet
facet normal -0.634394 0.000000 0.773010
outer loop
vertex -0.000556 -0.001000 0.000831
vertex -0.000556 0.001000 0.000831
vertex -0.000707 0.001000 0.000707
endloop
endfacet
facet normal -0.634394 0.000000 0.773010
outer loop
vertex -0.000707 0.001000 0.000707
vertex -0.000707 -0.001000 0.000707
vertex -0.000556 -0.001000 0.000831
endloop
endfacet
facet normal -0.773011 0.000000 0.634392
outer loop
vertex -0.000707 -0.001000 0.000707
vertex -0.000707 0.001000 0.000707
vertex -0.000831 0.001000 0.000556
endloop
endfacet
facet normal -0.773011 0.000000 0.634393
outer loop
vertex -0.000831 0.001000 0.000556
vertex -0.000831 -0.001000 0.000556
vertex -0.000707 -0.001000 0.000707
endloop
endfacet
facet normal -0.881922 0.000000 0.471396
outer loop
vertex -0.000831 -0.001000 0.000556
vertex -0.000831 0.001000 0.000556
vertex -0.000924 0.001000 0.000383
endloop
endfacet
facet normal -0.881922 0.000000 0.471396
outer loop
vertex -0.000924 0.001000 0.000383
vertex -0.000924 -0.001000 0.000383
vertex -0.000831 -0.001000 0.000556
endloop
endfacet
facet normal -0.956941 0.000000 0.290283
outer loop
vertex -0.000924 -0.001000 0.000383
vertex -0.000924 0.001000 0.000383
vertex -0.000981 0.001000 0.000195
endloop
endfacet
facet normal -0.956941 0.000000 0.290284
outer loop
vertex -0.000981 0.001000 0.000195
vertex -0.000981 -0.001000 0.000195
vertex -0.000924 -0.001000 0.000383
endloop
endfacet
facet normal -0.995185 0.000000 0.098016
outer loop
vertex -0.000981 -0.001000 0.000195
vertex -0.000981 0.001000 0.000195
vertex -0.001000 0.001000 -0.000000
endloop
endfacet
facet normal -0.995185 0.000000 0.098016
outer loop
vertex -0.001000 0.001000 -0.000000
vertex -0.001000 -0.001000 -0.000000
vertex -0.000981 -0.001000 0.000195
endloop
endfacet
facet normal -0.995185 0.000000 -0.098018
outer loop
vertex -0.001000 -0.001000 -0.000000
vertex -0.001000 0.001000 -0.000000
vertex -0.000981 0.001000 -0.000195
endloop
endfacet
facet normal -0.995185 0.000000 -0.098018
outer loop
vertex -0.000981 0.001000 -0.000195
vertex -0.000981 -0.001000 -0.000195
vertex -0.001000 -0.001000 -0.000000
endloop
endfacet
facet normal -0.956940 0.000000 -0.290286
outer loop
vertex -0.000981 -0.001000 -0.000195
vertex -0.000981 0.001000 -0.000195
vertex -0.000924 0.001000 -0.000383
endloop
endfacet
facet normal -0.956940 0.000000 -0.290286
outer loop
vertex -0.000924 0.001000 -0.000383
vertex -0.000924 -0.001000 -0.000383
vertex -0.000981 -0.001000 -0.000195
endloop
endfacet
facet normal -0.881921 0.000000 -0.471398
outer loop
vertex -0.000924 -0.001000 -0.000383
vertex -0.000924 0.001000 -0.000383
vertex -0.000831 0.001000 -0.000556
endloop
endfacet
facet normal -0.881921 0.000000 -0.471398
outer loop
vertex -0.000831 0.001000 -0.000556
vertex -0.000831 -0.001000 -0.000556
vertex -0.000924 -0.001000 -0.000383
endloop
endfacet
facet normal -0.773010 0.000000 -0.634394
outer loop
vertex -0.000831 -0.001000 -0.000556
vertex -0.000831 0.001000 -0.000556
vertex -0.000707 0.001000 -0.000707
endloop
endfacet
facet normal -0.773010 0.000000 -0.634394
outer loop
vertex -0.000707 0.001000 -0.000707
vertex -0.000707 -0.001000 -0.000707
vertex -0.000831 -0.001000 -0.000556
endloop
endfacet
facet normal -0.634392 0.000000 -0.773011
outer loop
vertex -0.000707 -0.001000 -0.000707
vertex -0.000707 0.001000 -0.000707
vertex -0.000556 0.001000 -0.000831
endloop
endfacet
facet normal -0.634392 0.000000 -0.773011
outer loop
vertex -0.000556 0.001000 -0.000831
vertex -0.000556 -0.001000 -0.000831
vertex -0.000707 -0.001000 -0.000707
endloop
endfacet
facet normal -0.471396 0.000000 -0.881922
outer loop
vertex -0.000556 -0.001000 -0.000831
vertex -0.000556 0.001000 -0.000831
vertex -0.000383 0.001000 -0.000924
endloop
endfacet
facet normal -0.471395 0.000000 -0.881922
outer loop
vertex -0.000383 0.001000 -0.000924
vertex -0.000383 -0.001000 -0.000924
vertex -0.000556 -0.001000 -0.000831
endloop
endfacet
facet normal 0.000000 1.000000 -0.000004
outer loop
vertex 0.000195 0.001000 -0.000981
vertex 0.000556 0.001000 -0.000831
vertex 0.000383 0.001000 -0.000924
endloop
endfacet
facet normal 0.000000 1.000000 0.000000
outer loop
vertex 0.000831 0.001000 -0.000556
vertex 0.000707 0.001000 -0.000707
vertex 0.000556 0.001000 -0.000831
endloop
endfacet
facet normal 0.000000 1.000000 0.000000
outer loop
vertex 0.000981 0.001000 -0.000195
vertex 0.000924 0.001000 -0.000383
vertex 0.000831 0.001000 -0.000556
endloop
endfacet
facet normal 0.000000 1.000000 0.000000
outer loop
vertex 0.000981 0.001000 0.000195
vertex 0.001000 0.001000 -0.000000
vertex 0.000981 0.001000 -0.000195
endloop
endfacet
facet normal 0.000000 1.000000 0.000000
outer loop
vertex 0.000831 0.001000 0.000556
vertex 0.000924 0.001000 0.000383
vertex 0.000981 0.001000 0.000195
endloop
endfacet
facet normal 0.000000 1.000000 0.000000
outer loop
vertex 0.000556 0.001000 0.000831
vertex 0.000707 0.001000 0.000707
vertex 0.000831 0.001000 0.000556
endloop
endfacet
facet normal 0.000000 1.000000 0.000004
outer loop
vertex 0.000195 0.001000 0.000981
vertex 0.000383 0.001000 0.000924
vertex 0.000556 0.001000 0.000831
endloop
endfacet
facet normal 0.000000 1.000000 0.000000
outer loop
vertex -0.000195 0.001000 0.000981
vertex -0.000000 0.001000 0.001000
vertex 0.000195 0.001000 0.000981
endloop
endfacet
facet normal 0.000000 1.000000 0.000004
outer loop
vertex -0.000556 0.001000 0.000831
vertex -0.000383 0.001000 0.000924
vertex -0.000195 0.001000 0.000981
endloop
endfacet
facet normal 0.000000 1.000000 0.000000
outer loop
vertex -0.000831 0.001000 0.000556
vertex -0.000707 0.001000 0.000707
vertex -0.000556 0.001000 0.000831
endloop
endfacet
facet normal 0.000000 1.000000 0.000000
outer loop
vertex -0.000981 0.001000 0.000195
vertex -0.000924 0.001000 0.000383
vertex -0.000831 0.001000 0.000556
endloop
endfacet
facet normal 0.000000 1.000000 -0.000000
outer loop
vertex -0.000981 0.001000 -0.000195
vertex -0.001000 0.001000 -0.000000
vertex -0.000981 0.001000 0.000195
endloop
endfacet
facet normal 0.000000 1.000000 -0.000001
outer loop
vertex -0.000831 0.001000 -0.000556
vertex -0.000924 0.001000 -0.000383
vertex -0.000981 0.001000 -0.000195
endloop
endfacet
facet normal 0.000000 1.000000 0.000004
outer loop
vertex -0.000556 0.001000 -0.000831
vertex -0.000707 0.001000 -0.000707
vertex -0.000831 0.001000 -0.000556
endloop
endfacet
facet normal 0.000000 1.000000 0.000000
outer loop
vertex -0.000195 0.001000 -0.000981
vertex -0.000383 0.001000 -0.000924
vertex -0.000556 0.001000 -0.000831
endloop
endfacet
facet normal 0.000000 1.000000 0.000004
outer loop
vertex 0.000195 0.001000 -0.000981
vertex 0.000000 0.001000 -0.001000
vertex -0.000195 0.001000 -0.000981
endloop
endfacet
facet normal 0.000000 1.000000 0.000001
outer loop
vertex 0.000195 0.001000 -0.000981
vertex 0.000831 0.001000 -0.000556
vertex 0.000556 0.001000 -0.000831
endloop
endfacet
facet normal 0.000000 1.000000 0.000000
outer loop
vertex 0.000981 0.001000 0.000195
vertex 0.000981 0.001000 -0.000195
vertex 0.000831 0.001000 -0.000556
endloop
endfacet
facet normal 0.000000 1.000000 0.000000
outer loop
vertex 0.000556 0.001000 0.000831
vertex 0.000831 0.001000 0.000556
vertex 0.000981 0.001000 0.000195
endloop
endfacet
facet normal 0.000000 1.000000 0.000000
outer loop
vertex -0.000195 0.001000 0.000981
vertex 0.000195 0.001000 0.000981
vertex 0.000556 0.001000 0.000831
endloop
endfacet
facet normal 0.000000 1.000000 -0.000001
outer loop
vertex -0.000831 0.001000 0.000556
vertex -0.000556 0.001000 0.000831
vertex -0.000195 0.001000 0.000981
endloop
endfacet
facet normal 0.000000 1.000000 0.000000
outer loop
vertex -0.000981 0.001000 -0.000195
vertex -0.000981 0.001000 0.000195
vertex -0.000831 0.001000 0.000556
endloop
endfacet
facet normal 0.000000 1.000000 0.000000
outer loop
vertex -0.000556 0.001000 -0.000831
vertex -0.000831 0.001000 -0.000556
vertex -0.000981 0.001000 -0.000195
endloop
endfacet
facet normal 0.000000 1.000000 -0.000001
outer loop
vertex 0.000195 0.001000 -0.000981
vertex -0.000195 0.001000 -0.000981
vertex -0.000556 0.001000 -0.000831
endloop
endfacet
facet normal 0.000000 1.000000 -0.000000
outer loop
vertex 0.000195 0.001000 -0.000981
vertex 0.000981 0.001000 0.000195
vertex 0.000831 0.001000 -0.000556
endloop
endfacet
facet normal 0.000000 1.000000 -0.000000
outer loop
vertex -0.000195 0.001000 0.000981
vertex 0.000556 0.001000 0.000831
vertex 0.000981 0.001000 0.000195
endloop
endfacet
facet normal 0.000000 1.000000 0.000000
outer loop
vertex -0.000981 0.001000 -0.000195
vertex -0.000831 0.001000 0.000556
vertex -0.000195 0.001000 0.000981
endloop
endfacet
facet normal 0.000000 1.000000 0.000001
outer loop
vertex 0.000195 0.001000 -0.000981
vertex -0.000556 0.001000 -0.000831
vertex -0.000981 0.001000 -0.000195
endloop
endfacet
facet normal 0.000000 1.000000 0.000000
outer loop
vertex 0.000195 0.001000 -0.000981
vertex -0.000195 0.001000 0.000981
vertex 0.000981 0.001000 0.000195
endloop
endfacet
facet normal 0.000000 1.000000 -0.000000
outer loop
vertex 0.000195 0.001000 -0.000981
vertex -0.000981 0.001000 -0.000195
vertex -0.000195 0.001000 0.000981
endloop
endfacet
facet normal -0.098017 0.000000 -0.995185
outer loop
vertex 0.000000 0.001000 -0.001000
vertex 0.000000 -0.001000 -0.001000
vertex -0.000195 -0.001000 -0.000981
endloop
endfacet
facet normal -0.098017 0.000000 -0.995185
outer loop
vertex -0.000195 -0.001000 -0.000981
vertex -0.000195 0.001000 -0.000981
vertex 0.000000 0.001000 -0.001000
endloop
endfacet
facet normal -0.290283 0.000000 -0.956941
outer loop
vertex -0.000383 -0.001000 -0.000924
vertex -0.000383 0.001000 -0.000924
vertex -0.000195 0.001000 -0.000981
endloop
endfacet
facet normal -0.290284 0.000000 -0.956941
outer loop
vertex -0.000195 0.001000 -0.000981
vertex -0.000195 -0.001000 -0.000981
vertex -0.000383 -0.001000 -0.000924
endloop
endfacet
facet normal 0.000000 -1.000000 0.000004
outer loop
vertex 0.000000 -0.001000 -0.001000
vertex -0.000383 -0.001000 -0.000924
vertex -0.000195 -0.001000 -0.000981
endloop
endfacet
facet normal 0.000000 -1.000000 0.000004
outer loop
vertex -0.000707 -0.001000 -0.000707
vertex -0.000556 -0.001000 -0.000831
vertex -0.000383 -0.001000 -0.000924
endloop
endfacet
facet normal 0.000000 -1.000000 0.000004
outer loop
vertex -0.000924 -0.001000 -0.000383
vertex -0.000831 -0.001000 -0.000556
vertex -0.000707 -0.001000 -0.000707
endloop
endfacet
facet normal 0.000000 -1.000000 0.000000
outer loop
vertex -0.001000 -0.001000 -0.000000
vertex -0.000981 -0.001000 -0.000195
vertex -0.000924 -0.001000 -0.000383
endloop
endfacet
facet normal 0.000000 -1.000000 0.000000
outer loop
vertex -0.000924 -0.001000 0.000383
vertex -0.000981 -0.001000 0.000195
vertex -0.001000 -0.001000 -0.000000
endloop
endfacet
facet normal 0.000000 -1.000000 0.000000
outer loop
vertex -0.000707 -0.001000 0.000707
vertex -0.000831 -0.001000 0.000556
vertex -0.000924 -0.001000 0.000383
endloop
endfacet
facet normal 0.000000 -1.000000 0.000000
outer loop
vertex -0.000383 -0.001000 0.000924
vertex -0.000556 -0.001000 0.000831
vertex -0.000707 -0.001000 0.000707
endloop
endfacet
facet normal 0.000000 -1.000000 0.000000
outer loop
vertex -0.000000 -0.001000 0.001000
vertex -0.000195 -0.001000 0.000981
vertex -0.000383 -0.001000 0.000924
endloop
endfacet
facet normal 0.000000 -1.000000 0.000000
outer loop
vertex 0.000383 -0.001000 0.000924
vertex 0.000195 -0.001000 0.000981
vertex -0.000000 -0.001000 0.001000
endloop
endfacet
facet normal 0.000000 -1.000000 0.000000
outer loop
vertex 0.000707 -0.001000 0.000707
vertex 0.000556 -0.001000 0.000831
vertex 0.000383 -0.001000 0.000924
endloop
endfacet
facet normal 0.000000 -1.000000 0.000000
outer loop
vertex 0.000924 -0.001000 0.000383
vertex 0.000831 -0.001000 0.000556
vertex 0.000707 -0.001000 0.000707
endloop
endfacet
facet normal 0.000000 -1.000000 0.000000
outer loop
vertex 0.001000 -0.001000 -0.000000
vertex 0.000981 -0.001000 0.000195
vertex 0.000924 -0.001000 0.000383
endloop
endfacet
facet normal 0.000000 -1.000000 -0.000000
outer loop
vertex 0.000924 -0.001000 -0.000383
vertex 0.000981 -0.001000 -0.000195
vertex 0.001000 -0.001000 -0.000000
endloop
endfacet
facet normal 0.000000 -1.000000 0.000000
outer loop
vertex 0.000707 -0.001000 -0.000707
vertex 0.000831 -0.001000 -0.000556
vertex 0.000924 -0.001000 -0.000383
endloop
endfacet
facet normal 0.000000 -1.000000 0.000000
outer loop
vertex 0.000383 -0.001000 -0.000924
vertex 0.000556 -0.001000 -0.000831
vertex 0.000707 -0.001000 -0.000707
endloop
endfacet
facet normal 0.000000 -1.000000 0.000000
outer loop
vertex 0.000000 -0.001000 -0.001000
vertex 0.000195 -0.001000 -0.000981
vertex 0.000383 -0.001000 -0.000924
endloop
endfacet
facet normal 0.000000 -1.000000 -0.000001
outer loop
vertex 0.000000 -0.001000 -0.001000
vertex -0.000707 -0.001000 -0.000707
vertex -0.000383 -0.001000 -0.000924
endloop
endfacet
facet normal 0.000000 -1.000000 -0.000000
outer loop
vertex -0.001000 -0.001000 -0.000000
vertex -0.000924 -0.001000 -0.000383
vertex -0.000707 -0.001000 -0.000707
endloop
endfacet
facet normal 0.000000 -1.000000 -0.000000
outer loop
vertex -0.000707 -0.001000 0.000707
vertex -0.000924 -0.001000 0.000383
vertex -0.001000 -0.001000 -0.000000
endloop
endfacet
facet normal 0.000000 -1.000000 -0.000001
outer loop
vertex -0.000000 -0.001000 0.001000
vertex -0.000383 -0.001000 0.000924
vertex -0.000707 -0.001000 0.000707
endloop
endfacet
facet normal 0.000000 -1.000000 0.000001
outer loop
vertex 0.000707 -0.001000 0.000707
vertex 0.000383 -0.001000 0.000924
vertex -0.000000 -0.001000 0.001000
endloop
endfacet
facet normal 0.000000 -1.000000 0.000000
outer loop
vertex 0.001000 -0.001000 -0.000000
vertex 0.000924 -0.001000 0.000383
vertex 0.000707 -0.001000 0.000707
endloop
endfacet
facet normal 0.000000 -1.000000 -0.000000
outer loop
vertex 0.000707 -0.001000 -0.000707
vertex 0.000924 -0.001000 -0.000383
vertex 0.001000 -0.001000 -0.000000
endloop
endfacet
facet normal 0.000000 -1.000000 0.000000
outer loop
vertex 0.000000 -0.001000 -0.001000
vertex 0.000383 -0.001000 -0.000924
vertex 0.000707 -0.001000 -0.000707
endloop
endfacet
facet normal 0.000000 -1.000000 -0.000000
outer loop
vertex 0.000000 -0.001000 -0.001000
vertex -0.001000 -0.001000 -0.000000
vertex -0.000707 -0.001000 -0.000707
endloop
endfacet
facet normal 0.000000 -1.000000 -0.000000
outer loop
vertex -0.000000 -0.001000 0.001000
vertex -0.000707 -0.001000 0.000707
vertex -0.001000 -0.001000 -0.000000
endloop
endfacet
facet normal 0.000000 -1.000000 0.000000
outer loop
vertex 0.001000 -0.001000 -0.000000
vertex 0.000707 -0.001000 0.000707
vertex -0.000000 -0.001000 0.001000
endloop
endfacet
facet normal 0.000000 -1.000000 -0.000000
outer loop
vertex 0.000000 -0.001000 -0.001000
vertex 0.000707 -0.001000 -0.000707
vertex 0.001000 -0.001000 -0.000000
endloop
endfacet
facet normal 0.000000 -1.000000 0.000000
outer loop
vertex 0.000000 -0.001000 -0.001000
vertex -0.000000 -0.001000 0.001000
vertex -0.001000 -0.001000 -0.000000
endloop
endfacet
facet normal 0.000000 -1.000000 0.000000
outer loop
vertex 0.000000 -0.001000 -0.001000
vertex 0.001000 -0.001000 -0.000000
vertex -0.000000 -0.001000 0.001000
endloop
endfacet
endsolid Exported from Blender-2.74 (sub 0)
