solid Exported from Blender-2.74 (sub 0)
facet normal -0.230571 0.607539 0.760088
outer loop
vertex 1.930858 -1.543432 -9.707056
vertex 3.787510 -1.543432 -9.143847
vertex 2.147185 4.433582 -14.418871
endloop
endfacet
facet normal -0.230569 0.607540 0.760088
outer loop
vertex 2.147185 4.433582 -14.418871
vertex 2.019348 4.433582 -14.457651
vertex 1.930858 -1.543432 -9.707056
endloop
endfacet
facet normal -0.970265 -0.059134 0.234710
outer loop
vertex 3.787510 -1.543432 -9.143847
vertex 3.078764 16.876915 -7.432786
vertex 2.098386 5.701890 -14.301059
endloop
endfacet
facet normal -0.970265 -0.059134 0.234711
outer loop
vertex 2.098386 5.701890 -14.301059
vertex 2.147185 4.433582 -14.418871
vertex 3.787510 -1.543432 -9.143847
endloop
endfacet
facet normal -0.252986 -0.490379 0.833982
outer loop
vertex 3.078764 16.876915 -7.432786
vertex 1.569541 16.876915 -7.890604
vertex 1.994470 5.701890 -14.332580
endloop
endfacet
facet normal -0.252977 -0.490379 0.833985
outer loop
vertex 1.994470 5.701890 -14.332580
vertex 2.098386 5.701890 -14.301059
vertex 3.078764 16.876915 -7.432786
endloop
endfacet
facet normal 0.079145 0.589909 0.803582
outer loop
vertex -1.930851 -1.543432 -9.707058
vertex 0.000003 -1.543432 -9.897229
vertex 1.886402 4.433582 -14.470745
endloop
endfacet
facet normal 0.079145 0.589910 0.803581
outer loop
vertex 1.886402 4.433582 -14.470745
vertex 1.753456 4.433582 -14.457651
vertex -1.930851 -1.543432 -9.707058
endloop
endfacet
facet normal 0.086090 -0.478085 0.874084
outer loop
vertex 0.000002 16.876915 -8.045191
vertex -1.569538 16.876915 -7.890604
vertex 1.778333 5.701890 -14.332580
endloop
endfacet
facet normal 0.086099 -0.478085 0.874084
outer loop
vertex 1.778333 5.701890 -14.332580
vertex 1.886402 5.701890 -14.343224
vertex 0.000002 16.876915 -8.045191
endloop
endfacet
facet normal 0.829449 -0.070907 0.554064
outer loop
vertex -1.569538 16.876915 -7.890604
vertex -1.930851 -1.543432 -9.707058
vertex 1.753456 4.433582 -14.457651
endloop
endfacet
facet normal 0.829448 -0.070907 0.554066
outer loop
vertex 1.753456 4.433582 -14.457651
vertex 1.778333 5.701890 -14.332580
vertex -1.569538 16.876915 -7.890604
endloop
endfacet
facet normal -0.288859 -0.099561 0.952181
outer loop
vertex 2.098386 5.701890 -14.301059
vertex 2.019348 4.433582 -14.457651
vertex 2.147185 4.433582 -14.418871
endloop
endfacet
facet normal 0.000000 -1.000000 0.000000
outer loop
vertex 1.753456 4.433582 -14.457651
vertex 1.886402 4.433582 -14.470745
vertex 2.019348 4.433582 -14.457651
endloop
endfacet
facet normal 0.097534 -0.099563 0.990240
outer loop
vertex 1.886402 5.701890 -14.343224
vertex 1.778333 5.701890 -14.332580
vertex 1.753456 4.433582 -14.457651
endloop
endfacet
facet normal -0.288829 -0.099564 0.952190
outer loop
vertex 2.098386 5.701890 -14.301059
vertex 1.994470 5.701890 -14.332580
vertex 2.019348 4.433582 -14.457651
endloop
endfacet
facet normal -0.097713 -0.079262 0.992053
outer loop
vertex 1.994470 5.701890 -14.332580
vertex 1.886402 5.701890 -14.343224
vertex 1.753456 4.433582 -14.457651
endloop
endfacet
facet normal 0.000000 -0.098137 0.995173
outer loop
vertex 1.994470 5.701890 -14.332580
vertex 1.753456 4.433582 -14.457651
vertex 2.019348 4.433582 -14.457651
endloop
endfacet
endsolid Exported from Blender-2.74 (sub 0)
