solid Exported from Blender-2.74 (sub 0)
facet normal -0.288831 -0.099562 -0.952189
outer loop
vertex 2.309690 4.612901 14.027534
vertex 2.096268 4.612901 14.092274
vertex 2.054735 6.730315 13.883472
endloop
endfacet
facet normal -0.288842 -0.099561 -0.952186
outer loop
vertex 2.054735 6.730315 13.883472
vertex 2.228220 6.730315 13.830848
vertex 2.309690 4.612901 14.027534
endloop
endfacet
facet normal -0.097539 -0.099562 -0.990239
outer loop
vertex 2.096268 4.612901 14.092274
vertex 1.874318 4.612901 14.114134
vertex 1.874318 6.730315 13.901242
endloop
endfacet
facet normal -0.097527 -0.099562 -0.990240
outer loop
vertex 1.874318 6.730315 13.901242
vertex 2.054735 6.730315 13.883472
vertex 2.096268 4.612901 14.092274
endloop
endfacet
facet normal 0.097531 -0.099562 -0.990240
outer loop
vertex 1.874318 4.612901 14.114134
vertex 1.652367 4.612901 14.092274
vertex 1.693900 6.730315 13.883472
endloop
endfacet
facet normal 0.097536 -0.099562 -0.990239
outer loop
vertex 1.693900 6.730315 13.883472
vertex 1.874318 6.730315 13.901242
vertex 1.874318 4.612901 14.114134
endloop
endfacet
facet normal 0.097527 -0.099562 -0.990240
outer loop
vertex 1.652367 4.612901 14.092274
vertex 1.693900 6.730315 13.883472
vertex 1.874318 6.730315 13.901242
endloop
endfacet
facet normal -0.097527 -0.099562 -0.990240
outer loop
vertex 2.054735 6.730315 13.883472
vertex 2.096268 4.612901 14.092274
vertex 1.874318 6.730315 13.901242
endloop
endfacet
facet normal 0.000000 -1.000000 0.000000
outer loop
vertex 2.096268 4.612901 14.092274
vertex 1.874318 4.612901 14.114134
vertex 1.652367 4.612901 14.092274
endloop
endfacet
facet normal 0.000000 -0.089854 -0.995955
outer loop
vertex 2.096268 4.612901 14.092274
vertex 1.652367 4.612901 14.092274
vertex 1.874318 6.730315 13.901242
endloop
endfacet
facet normal -0.288846 -0.099562 -0.952185
outer loop
vertex 2.228220 6.730315 13.830848
vertex 2.309690 4.612901 14.027534
vertex 2.096268 4.612901 14.092274
endloop
endfacet
facet normal -0.288824 -0.099562 -0.952191
outer loop
vertex 2.096268 4.612901 14.092274
vertex 2.054735 6.730315 13.883472
vertex 2.228220 6.730315 13.830848
endloop
endfacet
endsolid Exported from Blender-2.74 (sub 0)
