solid Exported from Blender-2.74 (sub 0)
facet normal -0.133654 0.111654 0.984718
outer loop
vertex -29.814468 -10.202621 12.228541
vertex -31.168053 -11.822920 12.228541
vertex -23.707497 -11.822920 13.241149
endloop
endfacet
facet normal -0.137978 0.096012 0.985771
outer loop
vertex -23.707497 -11.822920 13.241149
vertex -23.338089 -11.292047 13.241149
vertex -29.814468 -10.202621 12.228541
endloop
endfacet
facet normal -0.141338 0.077140 0.986951
outer loop
vertex -28.803001 -8.349383 12.228541
vertex -29.814468 -10.202621 12.228541
vertex -23.338089 -11.292047 13.241149
endloop
endfacet
facet normal -0.141336 0.077139 0.986952
outer loop
vertex -23.338089 -11.292047 13.241149
vertex -23.062050 -10.786280 13.241149
vertex -28.803001 -8.349383 12.228541
endloop
endfacet
facet normal -0.153672 0.048084 0.986951
outer loop
vertex -28.172516 -6.334428 12.228541
vertex -28.803001 -8.349383 12.228541
vertex -23.062050 -10.786280 13.241149
endloop
endfacet
facet normal -0.153670 0.048083 0.986952
outer loop
vertex -23.062050 -10.786280 13.241149
vertex -22.889984 -10.236378 13.241149
vertex -28.172516 -6.334428 12.228541
endloop
endfacet
facet normal -0.174843 0.018763 0.984417
outer loop
vertex -27.947243 -4.235188 12.228541
vertex -28.172516 -6.334428 12.228541
vertex -22.889984 -10.236378 13.241149
endloop
endfacet
facet normal -0.174843 0.018762 0.984418
outer loop
vertex -22.889984 -10.236378 13.241149
vertex -22.828505 -9.663474 13.241149
vertex -27.947243 -4.235188 12.228541
endloop
endfacet
facet normal -0.000000 1.000000 0.000000
outer loop
vertex -31.168053 -11.822920 12.228541
vertex -31.168053 -11.822921 15.013915
vertex -23.707497 -11.822920 14.001304
endloop
endfacet
facet normal 0.000000 1.000000 0.000000
outer loop
vertex -23.707497 -11.822920 14.001304
vertex -23.707497 -11.822920 13.241149
vertex -31.168053 -11.822920 12.228541
endloop
endfacet
facet normal -0.820829 0.571174 0.000000
outer loop
vertex -23.338089 -11.292047 13.241149
vertex -23.707497 -11.822920 13.241149
vertex -23.707497 -11.822920 14.001304
endloop
endfacet
facet normal -0.820829 0.571175 0.000000
outer loop
vertex -23.707497 -11.822920 14.001304
vertex -23.338089 -11.292047 14.001304
vertex -23.338089 -11.292047 13.241149
endloop
endfacet
facet normal -0.877776 0.479072 0.000000
outer loop
vertex -23.062050 -10.786280 13.241149
vertex -23.338089 -11.292047 13.241149
vertex -23.338089 -11.292047 14.001304
endloop
endfacet
facet normal -0.877772 0.479079 0.000000
outer loop
vertex -23.338089 -11.292047 14.001304
vertex -23.062050 -10.786280 14.001304
vertex -23.062050 -10.786280 13.241149
endloop
endfacet
facet normal -0.954372 0.298621 0.000000
outer loop
vertex -22.889984 -10.236378 13.241149
vertex -23.062050 -10.786280 13.241149
vertex -23.062050 -10.786280 14.001304
endloop
endfacet
facet normal -0.954369 0.298629 0.000000
outer loop
vertex -23.062050 -10.786280 14.001304
vertex -22.889984 -10.236378 14.001304
vertex -22.889984 -10.236378 13.241149
endloop
endfacet
facet normal -0.727547 -0.686058 0.000000
outer loop
vertex -27.947241 -4.235188 15.013916
vertex -27.947243 -4.235188 12.228541
vertex -22.828505 -9.663474 13.241149
endloop
endfacet
facet normal -0.727545 -0.686060 0.000000
outer loop
vertex -22.828505 -9.663474 13.241149
vertex -22.828505 -9.663474 14.001304
vertex -27.947241 -4.235188 15.013916
endloop
endfacet
facet normal -0.994292 0.106691 0.000000
outer loop
vertex -22.828505 -9.663474 13.241149
vertex -22.889984 -10.236378 13.241149
vertex -22.889984 -10.236378 14.001304
endloop
endfacet
facet normal -0.994290 0.106708 0.000000
outer loop
vertex -22.889984 -10.236378 14.001304
vertex -22.828505 -9.663474 14.001304
vertex -22.828505 -9.663474 13.241149
endloop
endfacet
facet normal -0.134954 0.112739 -0.984417
outer loop
vertex -31.168053 -11.822921 15.013915
vertex -29.814468 -10.202621 15.013915
vertex -23.338089 -11.292047 14.001304
endloop
endfacet
facet normal -0.133910 0.093182 -0.986603
outer loop
vertex -23.338089 -11.292047 14.001304
vertex -23.707497 -11.822920 14.001304
vertex -31.168053 -11.822921 15.013915
endloop
endfacet
facet normal -0.141338 0.077140 -0.986951
outer loop
vertex -29.814468 -10.202621 15.013915
vertex -28.802999 -8.349384 15.013915
vertex -23.062050 -10.786280 14.001304
endloop
endfacet
facet normal -0.141338 0.077139 -0.986951
outer loop
vertex -23.062050 -10.786280 14.001304
vertex -23.338089 -11.292047 14.001304
vertex -29.814468 -10.202621 15.013915
endloop
endfacet
facet normal -0.153672 0.048084 -0.986951
outer loop
vertex -28.802999 -8.349384 15.013915
vertex -28.172514 -6.334428 15.013915
vertex -22.889984 -10.236378 14.001304
endloop
endfacet
facet normal -0.153672 0.048084 -0.986951
outer loop
vertex -22.889984 -10.236378 14.001304
vertex -23.062050 -10.786280 14.001304
vertex -28.802999 -8.349384 15.013915
endloop
endfacet
facet normal -0.174845 0.018763 -0.984417
outer loop
vertex -28.172514 -6.334428 15.013915
vertex -27.947241 -4.235188 15.013916
vertex -22.828505 -9.663474 14.001304
endloop
endfacet
facet normal -0.174842 0.018764 -0.984418
outer loop
vertex -22.828505 -9.663474 14.001304
vertex -22.889984 -10.236378 14.001304
vertex -28.172514 -6.334428 15.013915
endloop
endfacet
facet normal 0.767444 -0.641116 -0.000001
outer loop
vertex -31.168053 -11.822921 15.013915
vertex -31.168053 -11.822920 12.228541
vertex -29.814468 -10.202621 12.228541
endloop
endfacet
facet normal 0.767443 -0.641117 -0.000000
outer loop
vertex -29.814468 -10.202621 12.228541
vertex -29.814468 -10.202621 15.013915
vertex -31.168053 -11.822921 15.013915
endloop
endfacet
facet normal 0.877773 -0.479076 -0.000000
outer loop
vertex -28.803001 -8.349383 12.228541
vertex -28.802999 -8.349384 15.013915
vertex -29.814468 -10.202621 15.013915
endloop
endfacet
facet normal 0.877774 -0.479074 -0.000000
outer loop
vertex -29.814468 -10.202621 15.013915
vertex -29.814468 -10.202621 12.228541
vertex -28.803001 -8.349383 12.228541
endloop
endfacet
facet normal 0.954371 -0.298625 -0.000001
outer loop
vertex -28.172516 -6.334428 12.228541
vertex -28.172514 -6.334428 15.013915
vertex -28.802999 -8.349384 15.013915
endloop
endfacet
facet normal 0.954371 -0.298625 -0.000001
outer loop
vertex -28.802999 -8.349384 15.013915
vertex -28.803001 -8.349383 12.228541
vertex -28.172516 -6.334428 12.228541
endloop
endfacet
facet normal 0.994291 -0.106698 -0.000001
outer loop
vertex -27.947243 -4.235188 12.228541
vertex -27.947241 -4.235188 15.013916
vertex -28.172514 -6.334428 15.013915
endloop
endfacet
facet normal 0.994291 -0.106699 -0.000001
outer loop
vertex -28.172514 -6.334428 15.013915
vertex -28.172516 -6.334428 12.228541
vertex -27.947243 -4.235188 12.228541
endloop
endfacet
endsolid Exported from Blender-2.74 (sub 0)
