solid Exported from Blender-2.74 (sub 0)
facet normal 0.000000 0.000000 -1.000000
outer loop
vertex -10.740746 53.703732 -10.740746
vertex -10.740746 75.185234 -10.740746
vertex 10.740746 75.185234 -10.740746
endloop
endfacet
facet normal 0.000000 0.000000 -1.000000
outer loop
vertex 10.740746 75.185234 -10.740746
vertex 10.740746 53.703732 -10.740746
vertex -10.740746 53.703732 -10.740746
endloop
endfacet
facet normal 1.000000 0.000000 0.000000
outer loop
vertex 10.740746 53.703732 -10.740746
vertex 10.740746 75.185234 -10.740746
vertex 10.740746 75.185234 10.740746
endloop
endfacet
facet normal 1.000000 0.000000 0.000000
outer loop
vertex 10.740746 75.185234 10.740746
vertex 10.740746 53.703732 10.740746
vertex 10.740746 53.703732 -10.740746
endloop
endfacet
facet normal 0.000000 0.000000 -1.000000
outer loop
vertex -10.740746 53.703732 10.740746
vertex -10.740746 75.185234 10.740746
vertex 10.740746 75.185234 10.740746
endloop
endfacet
facet normal 0.000000 0.000000 -1.000000
outer loop
vertex 10.740746 75.185234 10.740746
vertex 10.740746 53.703732 10.740746
vertex -10.740746 53.703732 10.740746
endloop
endfacet
facet normal 0.000000 -1.000000 0.000000
outer loop
vertex -10.740746 53.703732 -10.740746
vertex 10.740746 53.703732 -10.740746
vertex 10.740746 53.703732 10.740746
endloop
endfacet
facet normal 0.000000 -1.000000 0.000000
outer loop
vertex 10.740746 53.703732 10.740746
vertex -10.740746 53.703732 10.740746
vertex -10.740746 53.703732 -10.740746
endloop
endfacet
facet normal 0.000000 0.278424 0.960458
outer loop
vertex 10.740746 75.185234 10.740746
vertex 6.922919 88.355301 6.922919
vertex -6.922919 88.355301 6.922919
endloop
endfacet
facet normal 0.000000 0.278424 0.960458
outer loop
vertex -6.922919 88.355301 6.922919
vertex -10.740746 75.185234 10.740746
vertex 10.740746 75.185234 10.740746
endloop
endfacet
facet normal 0.000000 0.333698 0.942680
outer loop
vertex 6.922919 88.355301 6.922919
vertex 3.840144 97.063980 3.840144
vertex -3.840144 97.063980 3.840144
endloop
endfacet
facet normal 0.000000 0.333698 0.942680
outer loop
vertex -3.840144 97.063980 3.840144
vertex -6.922919 88.355301 6.922919
vertex 6.922919 88.355301 6.922919
endloop
endfacet
facet normal 0.960458 0.278424 0.000000
outer loop
vertex 10.740746 75.185234 -10.740746
vertex 6.922919 88.355301 -6.922919
vertex 6.922919 88.355301 6.922919
endloop
endfacet
facet normal 0.960458 0.278424 0.000000
outer loop
vertex 6.922919 88.355301 6.922919
vertex 10.740746 75.185234 10.740746
vertex 10.740746 75.185234 -10.740746
endloop
endfacet
facet normal 0.000000 0.278424 -0.960458
outer loop
vertex -10.740746 75.185234 -10.740746
vertex -6.922919 88.355301 -6.922919
vertex 6.922919 88.355301 -6.922919
endloop
endfacet
facet normal 0.000000 0.278424 -0.960458
outer loop
vertex 6.922919 88.355301 -6.922919
vertex 10.740746 75.185234 -10.740746
vertex -10.740746 75.185234 -10.740746
endloop
endfacet
facet normal -0.960458 0.278424 0.000000
outer loop
vertex -6.922919 88.355301 -6.922919
vertex -10.740746 75.185234 -10.740746
vertex -10.740746 75.185234 10.740746
endloop
endfacet
facet normal -0.960458 0.278424 0.000000
outer loop
vertex -10.740746 75.185234 10.740746
vertex -6.922919 88.355301 6.922919
vertex -6.922919 88.355301 -6.922919
endloop
endfacet
facet normal 0.000000 0.504020 0.863692
outer loop
vertex 3.840144 97.063980 3.840144
vertex 1.073353 101.805176 1.073353
vertex -1.073353 101.805176 1.073353
endloop
endfacet
facet normal 0.000000 0.504019 0.863693
outer loop
vertex -1.073353 101.805176 1.073353
vertex -3.840144 97.063980 3.840144
vertex 3.840144 97.063980 3.840144
endloop
endfacet
facet normal 0.942680 0.333698 0.000000
outer loop
vertex 6.922919 88.355301 -6.922919
vertex 3.840144 97.063980 -3.840144
vertex 3.840144 97.063980 3.840144
endloop
endfacet
facet normal 0.942680 0.333698 0.000000
outer loop
vertex 3.840144 97.063980 3.840144
vertex 6.922919 88.355301 6.922919
vertex 6.922919 88.355301 -6.922919
endloop
endfacet
facet normal 0.000000 0.333698 -0.942680
outer loop
vertex -6.922919 88.355301 -6.922919
vertex -3.840144 97.063980 -3.840144
vertex 3.840144 97.063980 -3.840144
endloop
endfacet
facet normal 0.000000 0.333698 -0.942680
outer loop
vertex 3.840144 97.063980 -3.840144
vertex 6.922919 88.355301 -6.922919
vertex -6.922919 88.355301 -6.922919
endloop
endfacet
facet normal -0.942680 0.333698 0.000000
outer loop
vertex -6.922919 88.355301 6.922919
vertex -3.840144 97.063980 3.840144
vertex -3.840144 97.063980 -3.840144
endloop
endfacet
facet normal -0.942680 0.333698 0.000000
outer loop
vertex -3.840144 97.063980 -3.840144
vertex -6.922919 88.355301 -6.922919
vertex -6.922919 88.355301 6.922919
endloop
endfacet
facet normal 0.000000 1.000000 0.000000
outer loop
vertex 1.073353 101.805176 -1.073353
vertex -1.073353 101.805176 -1.073353
vertex -1.073353 101.805176 1.073353
endloop
endfacet
facet normal 0.000000 1.000000 0.000000
outer loop
vertex -1.073353 101.805176 1.073353
vertex 1.073353 101.805176 1.073353
vertex 1.073353 101.805176 -1.073353
endloop
endfacet
facet normal 0.863692 0.504020 0.000000
outer loop
vertex 3.840144 97.063980 -3.840144
vertex 1.073353 101.805176 -1.073353
vertex 1.073353 101.805176 1.073353
endloop
endfacet
facet normal 0.863692 0.504020 0.000000
outer loop
vertex 1.073353 101.805176 1.073353
vertex 3.840144 97.063980 3.840144
vertex 3.840144 97.063980 -3.840144
endloop
endfacet
facet normal 0.000000 0.504020 -0.863692
outer loop
vertex -3.840144 97.063980 -3.840144
vertex -1.073353 101.805176 -1.073353
vertex 1.073353 101.805176 -1.073353
endloop
endfacet
facet normal 0.000000 0.504019 -0.863693
outer loop
vertex 1.073353 101.805176 -1.073353
vertex 3.840144 97.063980 -3.840144
vertex -3.840144 97.063980 -3.840144
endloop
endfacet
facet normal -0.863692 0.504020 0.000000
outer loop
vertex -3.840144 97.063980 3.840144
vertex -1.073353 101.805176 1.073353
vertex -1.073353 101.805176 -1.073353
endloop
endfacet
facet normal -0.863692 0.504020 0.000000
outer loop
vertex -1.073353 101.805176 -1.073353
vertex -3.840144 97.063980 -3.840144
vertex -3.840144 97.063980 3.840144
endloop
endfacet
facet normal -1.000000 0.000000 0.000000
outer loop
vertex -10.740746 21.481493 21.481493
vertex -10.740746 0.000000 21.481493
vertex -10.740746 0.000000 42.962986
endloop
endfacet
facet normal -1.000000 0.000000 0.000000
outer loop
vertex -10.740746 0.000000 42.962986
vertex -10.740746 21.481493 42.962986
vertex -10.740746 21.481493 21.481493
endloop
endfacet
facet normal 0.000000 0.000000 -1.000000
outer loop
vertex 10.740746 21.481493 21.481493
vertex 10.740746 0.000000 21.481493
vertex -10.740746 0.000000 21.481493
endloop
endfacet
facet normal 0.000000 0.000000 -1.000000
outer loop
vertex -10.740746 0.000000 21.481493
vertex -10.740746 21.481493 21.481493
vertex 10.740746 21.481493 21.481493
endloop
endfacet
facet normal 1.000000 0.000000 0.000000
outer loop
vertex 10.740746 21.481493 42.962986
vertex 10.740746 0.000000 42.962986
vertex 10.740746 0.000000 21.481493
endloop
endfacet
facet normal 1.000000 0.000000 0.000000
outer loop
vertex 10.740746 0.000000 21.481493
vertex 10.740746 21.481493 21.481493
vertex 10.740746 21.481493 42.962986
endloop
endfacet
facet normal 0.000000 0.000000 1.000000
outer loop
vertex -10.740746 21.481493 42.962986
vertex -10.740746 0.000000 42.962986
vertex 10.740746 0.000000 42.962986
endloop
endfacet
facet normal 0.000000 0.000000 1.000000
outer loop
vertex 10.740746 0.000000 42.962986
vertex 10.740746 21.481493 42.962986
vertex -10.740746 21.481493 42.962986
endloop
endfacet
facet normal 0.000000 -1.000000 0.000000
outer loop
vertex -10.740746 0.000000 21.481493
vertex 10.740746 0.000000 21.481493
vertex 10.740746 0.000000 42.962986
endloop
endfacet
facet normal 0.000000 -1.000000 0.000000
outer loop
vertex 10.740746 0.000000 42.962986
vertex -10.740746 0.000000 42.962986
vertex -10.740746 0.000000 21.481493
endloop
endfacet
facet normal 0.000000 0.554700 0.832050
outer loop
vertex 10.740746 21.481493 42.962986
vertex 10.740746 53.703732 21.481493
vertex -10.740746 53.703732 21.481493
endloop
endfacet
facet normal 0.000000 0.554700 0.832050
outer loop
vertex -10.740746 53.703732 21.481493
vertex -10.740746 21.481493 42.962986
vertex 10.740746 21.481493 42.962986
endloop
endfacet
facet normal 0.000000 1.000000 0.000000
outer loop
vertex 10.740746 53.703732 0.000000
vertex -10.740746 53.703732 0.000000
vertex -10.740746 53.703732 21.481493
endloop
endfacet
facet normal 0.000000 1.000000 0.000000
outer loop
vertex -10.740746 53.703732 21.481493
vertex 10.740746 53.703732 21.481493
vertex 10.740746 53.703732 0.000000
endloop
endfacet
facet normal 1.000000 0.000000 0.000000
outer loop
vertex 10.740746 21.481493 21.481493
vertex 10.740746 53.703732 0.000000
vertex 10.740746 53.703732 21.481493
endloop
endfacet
facet normal 1.000000 0.000000 0.000000
outer loop
vertex 10.740746 53.703732 21.481493
vertex 10.740746 21.481493 42.962986
vertex 10.740746 21.481493 21.481493
endloop
endfacet
facet normal 0.000000 -0.554700 -0.832050
outer loop
vertex -10.740746 21.481493 21.481493
vertex -10.740746 53.703732 0.000000
vertex 10.740746 53.703732 0.000000
endloop
endfacet
facet normal 0.000000 -0.554700 -0.832050
outer loop
vertex 10.740746 53.703732 0.000000
vertex 10.740746 21.481493 21.481493
vertex -10.740746 21.481493 21.481493
endloop
endfacet
facet normal -1.000000 0.000000 0.000000
outer loop
vertex -10.740746 21.481493 21.481493
vertex -10.740746 21.481493 42.962986
vertex -10.740746 53.703732 21.481493
endloop
endfacet
facet normal -1.000000 0.000000 0.000000
outer loop
vertex -10.740746 53.703732 21.481493
vertex -10.740746 53.703732 0.000000
vertex -10.740746 21.481493 21.481493
endloop
endfacet
facet normal -1.000000 0.000000 0.000000
outer loop
vertex -42.962986 21.481493 -10.740746
vertex -42.962986 0.000000 -10.740746
vertex -42.962986 0.000000 10.740746
endloop
endfacet
facet normal -1.000000 0.000000 0.000000
outer loop
vertex -42.962986 0.000000 10.740746
vertex -42.962986 21.481493 10.740746
vertex -42.962986 21.481493 -10.740746
endloop
endfacet
facet normal 0.000000 0.000000 -1.000000
outer loop
vertex -21.481493 21.481493 -10.740746
vertex -21.481493 0.000000 -10.740746
vertex -42.962986 0.000000 -10.740746
endloop
endfacet
facet normal 0.000000 0.000000 -1.000000
outer loop
vertex -42.962986 0.000000 -10.740746
vertex -42.962986 21.481493 -10.740746
vertex -21.481493 21.481493 -10.740746
endloop
endfacet
facet normal 1.000000 0.000000 0.000000
outer loop
vertex -21.481493 21.481493 10.740746
vertex -21.481493 0.000000 10.740746
vertex -21.481493 0.000000 -10.740746
endloop
endfacet
facet normal 1.000000 0.000000 0.000000
outer loop
vertex -21.481493 0.000000 -10.740746
vertex -21.481493 21.481493 -10.740746
vertex -21.481493 21.481493 10.740746
endloop
endfacet
facet normal 0.000000 0.000000 1.000000
outer loop
vertex -42.962986 21.481493 10.740746
vertex -42.962986 0.000000 10.740746
vertex -21.481493 0.000000 10.740746
endloop
endfacet
facet normal 0.000000 0.000000 1.000000
outer loop
vertex -21.481493 0.000000 10.740746
vertex -21.481493 21.481493 10.740746
vertex -42.962986 21.481493 10.740746
endloop
endfacet
facet normal 0.000000 -1.000000 0.000000
outer loop
vertex -42.962986 0.000000 -10.740746
vertex -21.481493 0.000000 -10.740746
vertex -21.481493 0.000000 10.740746
endloop
endfacet
facet normal 0.000000 -1.000000 0.000000
outer loop
vertex -21.481493 0.000000 10.740746
vertex -42.962986 0.000000 10.740746
vertex -42.962986 0.000000 -10.740746
endloop
endfacet
facet normal 0.000000 0.000000 1.000000
outer loop
vertex -21.481493 21.481493 10.740746
vertex 0.000000 53.703732 10.740746
vertex -21.481493 53.703732 10.740746
endloop
endfacet
facet normal 0.000000 0.000000 1.000000
outer loop
vertex -21.481493 53.703732 10.740746
vertex -42.962986 21.481493 10.740746
vertex -21.481493 21.481493 10.740746
endloop
endfacet
facet normal 0.000000 1.000000 0.000000
outer loop
vertex 0.000000 53.703732 -10.740746
vertex -21.481493 53.703732 -10.740746
vertex -21.481493 53.703732 10.740746
endloop
endfacet
facet normal 0.000000 1.000000 0.000000
outer loop
vertex -21.481493 53.703732 10.740746
vertex 0.000000 53.703732 10.740746
vertex 0.000000 53.703732 -10.740746
endloop
endfacet
facet normal 0.832050 -0.554700 0.000000
outer loop
vertex -21.481493 21.481493 -10.740746
vertex 0.000000 53.703732 -10.740746
vertex 0.000000 53.703732 10.740746
endloop
endfacet
facet normal 0.832050 -0.554700 0.000000
outer loop
vertex 0.000000 53.703732 10.740746
vertex -21.481493 21.481493 10.740746
vertex -21.481493 21.481493 -10.740746
endloop
endfacet
facet normal 0.000000 0.000000 -1.000000
outer loop
vertex -21.481493 21.481493 -10.740746
vertex -42.962986 21.481493 -10.740746
vertex -21.481493 53.703732 -10.740746
endloop
endfacet
facet normal 0.000000 0.000000 -1.000000
outer loop
vertex -21.481493 53.703732 -10.740746
vertex 0.000000 53.703732 -10.740746
vertex -21.481493 21.481493 -10.740746
endloop
endfacet
facet normal -0.832050 0.554700 0.000000
outer loop
vertex -42.962986 21.481493 10.740746
vertex -21.481493 53.703732 10.740746
vertex -21.481493 53.703732 -10.740746
endloop
endfacet
facet normal -0.832050 0.554700 0.000000
outer loop
vertex -21.481493 53.703732 -10.740746
vertex -42.962986 21.481493 -10.740746
vertex -42.962986 21.481493 10.740746
endloop
endfacet
facet normal -1.000000 0.000000 0.000000
outer loop
vertex -10.740746 21.481493 -42.962986
vertex -10.740746 0.000000 -42.962986
vertex -10.740746 0.000000 -21.481493
endloop
endfacet
facet normal -1.000000 0.000000 0.000000
outer loop
vertex -10.740746 0.000000 -21.481493
vertex -10.740746 21.481493 -21.481493
vertex -10.740746 21.481493 -42.962986
endloop
endfacet
facet normal 0.000000 0.000000 -1.000000
outer loop
vertex 10.740746 21.481493 -42.962986
vertex 10.740746 0.000000 -42.962986
vertex -10.740746 0.000000 -42.962986
endloop
endfacet
facet normal 0.000000 0.000000 -1.000000
outer loop
vertex -10.740746 0.000000 -42.962986
vertex -10.740746 21.481493 -42.962986
vertex 10.740746 21.481493 -42.962986
endloop
endfacet
facet normal 1.000000 0.000000 0.000000
outer loop
vertex 10.740746 21.481493 -21.481493
vertex 10.740746 0.000000 -21.481493
vertex 10.740746 0.000000 -42.962986
endloop
endfacet
facet normal 1.000000 0.000000 0.000000
outer loop
vertex 10.740746 0.000000 -42.962986
vertex 10.740746 21.481493 -42.962986
vertex 10.740746 21.481493 -21.481493
endloop
endfacet
facet normal 0.000000 0.000000 1.000000
outer loop
vertex -10.740746 21.481493 -21.481493
vertex -10.740746 0.000000 -21.481493
vertex 10.740746 0.000000 -21.481493
endloop
endfacet
facet normal 0.000000 0.000000 1.000000
outer loop
vertex 10.740746 0.000000 -21.481493
vertex 10.740746 21.481493 -21.481493
vertex -10.740746 21.481493 -21.481493
endloop
endfacet
facet normal 0.000000 -1.000000 0.000000
outer loop
vertex -10.740746 0.000000 -42.962986
vertex 10.740746 0.000000 -42.962986
vertex 10.740746 0.000000 -21.481493
endloop
endfacet
facet normal 0.000000 -1.000000 0.000000
outer loop
vertex 10.740746 0.000000 -21.481493
vertex -10.740746 0.000000 -21.481493
vertex -10.740746 0.000000 -42.962986
endloop
endfacet
facet normal 0.000000 -0.554700 0.832050
outer loop
vertex 10.740746 21.481493 -21.481493
vertex 10.740746 53.703732 0.000000
vertex -10.740746 53.703732 0.000000
endloop
endfacet
facet normal 0.000000 -0.554700 0.832050
outer loop
vertex -10.740746 53.703732 0.000000
vertex -10.740746 21.481493 -21.481493
vertex 10.740746 21.481493 -21.481493
endloop
endfacet
facet normal 0.000000 1.000000 0.000000
outer loop
vertex 10.740746 53.703732 -21.481493
vertex -10.740746 53.703732 -21.481493
vertex -10.740746 53.703732 0.000000
endloop
endfacet
facet normal 0.000000 1.000000 0.000000
outer loop
vertex -10.740746 53.703732 0.000000
vertex 10.740746 53.703732 0.000000
vertex 10.740746 53.703732 -21.481493
endloop
endfacet
facet normal 1.000000 0.000000 0.000000
outer loop
vertex 10.740746 21.481493 -21.481493
vertex 10.740746 21.481493 -42.962986
vertex 10.740746 53.703732 -21.481493
endloop
endfacet
facet normal 1.000000 0.000000 0.000000
outer loop
vertex 10.740746 53.703732 -21.481493
vertex 10.740746 53.703732 0.000000
vertex 10.740746 21.481493 -21.481493
endloop
endfacet
facet normal 0.000000 0.554700 -0.832050
outer loop
vertex -10.740746 21.481493 -42.962986
vertex -10.740746 53.703732 -21.481493
vertex 10.740746 53.703732 -21.481493
endloop
endfacet
facet normal 0.000000 0.554700 -0.832050
outer loop
vertex 10.740746 53.703732 -21.481493
vertex 10.740746 21.481493 -42.962986
vertex -10.740746 21.481493 -42.962986
endloop
endfacet
facet normal -1.000000 0.000000 0.000000
outer loop
vertex -10.740746 21.481493 -21.481493
vertex -10.740746 53.703732 0.000000
vertex -10.740746 53.703732 -21.481493
endloop
endfacet
facet normal -1.000000 0.000000 0.000000
outer loop
vertex -10.740746 53.703732 -21.481493
vertex -10.740746 21.481493 -42.962986
vertex -10.740746 21.481493 -21.481493
endloop
endfacet
facet normal -1.000000 0.000000 0.000000
outer loop
vertex 21.481493 21.481493 -10.740746
vertex 21.481493 0.000000 -10.740746
vertex 21.481493 0.000000 10.740746
endloop
endfacet
facet normal -1.000000 0.000000 0.000000
outer loop
vertex 21.481493 0.000000 10.740746
vertex 21.481493 21.481493 10.740746
vertex 21.481493 21.481493 -10.740746
endloop
endfacet
facet normal 0.000000 0.000000 -1.000000
outer loop
vertex 42.962986 21.481493 -10.740746
vertex 42.962986 0.000000 -10.740746
vertex 21.481493 0.000000 -10.740746
endloop
endfacet
facet normal 0.000000 0.000000 -1.000000
outer loop
vertex 21.481493 0.000000 -10.740746
vertex 21.481493 21.481493 -10.740746
vertex 42.962986 21.481493 -10.740746
endloop
endfacet
facet normal 1.000000 0.000000 0.000000
outer loop
vertex 42.962986 21.481493 10.740746
vertex 42.962986 0.000000 10.740746
vertex 42.962986 0.000000 -10.740746
endloop
endfacet
facet normal 1.000000 0.000000 0.000000
outer loop
vertex 42.962986 0.000000 -10.740746
vertex 42.962986 21.481493 -10.740746
vertex 42.962986 21.481493 10.740746
endloop
endfacet
facet normal 0.000000 0.000000 1.000000
outer loop
vertex 21.481493 21.481493 10.740746
vertex 21.481493 0.000000 10.740746
vertex 42.962986 0.000000 10.740746
endloop
endfacet
facet normal 0.000000 0.000000 1.000000
outer loop
vertex 42.962986 0.000000 10.740746
vertex 42.962986 21.481493 10.740746
vertex 21.481493 21.481493 10.740746
endloop
endfacet
facet normal 0.000000 -1.000000 0.000000
outer loop
vertex 21.481493 0.000000 -10.740746
vertex 42.962986 0.000000 -10.740746
vertex 42.962986 0.000000 10.740746
endloop
endfacet
facet normal 0.000000 -1.000000 0.000000
outer loop
vertex 42.962986 0.000000 10.740746
vertex 21.481493 0.000000 10.740746
vertex 21.481493 0.000000 -10.740746
endloop
endfacet
facet normal 0.000000 0.000000 1.000000
outer loop
vertex 21.481493 21.481493 10.740746
vertex 42.962986 21.481493 10.740746
vertex 21.481493 53.703732 10.740746
endloop
endfacet
facet normal 0.000000 0.000000 1.000000
outer loop
vertex 21.481493 53.703732 10.740746
vertex 0.000000 53.703732 10.740746
vertex 21.481493 21.481493 10.740746
endloop
endfacet
facet normal 0.000000 1.000000 0.000000
outer loop
vertex 21.481493 53.703732 -10.740746
vertex 0.000000 53.703732 -10.740746
vertex 0.000000 53.703732 10.740746
endloop
endfacet
facet normal 0.000000 1.000000 0.000000
outer loop
vertex 0.000000 53.703732 10.740746
vertex 21.481493 53.703732 10.740746
vertex 21.481493 53.703732 -10.740746
endloop
endfacet
facet normal 0.832050 0.554700 0.000000
outer loop
vertex 42.962986 21.481493 -10.740746
vertex 21.481493 53.703732 -10.740746
vertex 21.481493 53.703732 10.740746
endloop
endfacet
facet normal 0.832050 0.554700 0.000000
outer loop
vertex 21.481493 53.703732 10.740746
vertex 42.962986 21.481493 10.740746
vertex 42.962986 21.481493 -10.740746
endloop
endfacet
facet normal 0.000000 0.000000 -1.000000
outer loop
vertex 21.481493 21.481493 -10.740746
vertex 0.000000 53.703732 -10.740746
vertex 21.481493 53.703732 -10.740746
endloop
endfacet
facet normal 0.000000 0.000000 -1.000000
outer loop
vertex 21.481493 53.703732 -10.740746
vertex 42.962986 21.481493 -10.740746
vertex 21.481493 21.481493 -10.740746
endloop
endfacet
facet normal -0.832050 -0.554700 0.000000
outer loop
vertex 21.481493 21.481493 10.740746
vertex 0.000000 53.703732 10.740746
vertex 0.000000 53.703732 -10.740746
endloop
endfacet
facet normal -0.832050 -0.554700 0.000000
outer loop
vertex 0.000000 53.703732 -10.740746
vertex 21.481493 21.481493 -10.740746
vertex 21.481493 21.481493 10.740746
endloop
endfacet
facet normal -1.000000 0.000000 0.000000
outer loop
vertex -10.740746 53.703732 10.740746
vertex -10.740746 53.703732 21.481493
vertex -10.740746 75.185234 10.740746
endloop
endfacet
facet normal 1.000000 0.000000 0.000000
outer loop
vertex 10.740746 53.703732 21.481493
vertex 10.740746 53.703732 10.740746
vertex 10.740746 75.185234 10.740746
endloop
endfacet
facet normal 0.000000 0.447213 0.894427
outer loop
vertex 10.740746 53.703732 21.481493
vertex 10.740746 75.185234 10.740746
vertex -10.740746 75.185234 10.740746
endloop
endfacet
facet normal 0.000000 0.447214 0.894427
outer loop
vertex -10.740746 75.185234 10.740746
vertex -10.740746 53.703732 21.481493
vertex 10.740746 53.703732 21.481493
endloop
endfacet
facet normal 0.894427 -0.447213 0.000000
outer loop
vertex -21.481493 53.703732 -10.740746
vertex -10.740746 75.185234 10.740746
vertex -21.481493 53.703732 10.740746
endloop
endfacet
facet normal -1.000000 0.000000 0.000000
outer loop
vertex -10.740746 53.703732 -10.740746
vertex -10.740746 53.703732 10.740746
vertex -10.740746 75.185234 10.740746
endloop
endfacet
facet normal 0.000000 -0.707107 0.707107
outer loop
vertex -21.481493 53.703732 -10.740746
vertex -10.740746 53.703732 -10.740746
vertex -10.740746 75.185234 10.740746
endloop
endfacet
facet normal -0.894427 0.447213 0.000000
outer loop
vertex -10.740746 75.185234 -10.740746
vertex -21.481493 53.703732 -10.740746
vertex -21.481493 53.703732 10.740746
endloop
endfacet
facet normal -0.894427 0.447213 0.000000
outer loop
vertex -21.481493 53.703732 10.740746
vertex -10.740746 75.185234 10.740746
vertex -10.740746 75.185234 -10.740746
endloop
endfacet
facet normal 1.000000 0.000000 0.000000
outer loop
vertex 10.740746 53.703732 -10.740746
vertex 10.740746 53.703732 -21.481493
vertex 10.740746 75.185234 -10.740746
endloop
endfacet
facet normal -1.000000 0.000000 0.000000
outer loop
vertex -10.740746 53.703732 -21.481493
vertex -10.740746 53.703732 -10.740746
vertex -10.740746 75.185234 -10.740746
endloop
endfacet
facet normal 0.000000 0.447213 -0.894427
outer loop
vertex -10.740746 75.185234 -10.740746
vertex 10.740746 75.185234 -10.740746
vertex 10.740746 53.703732 -21.481493
endloop
endfacet
facet normal 0.000000 0.447214 -0.894427
outer loop
vertex 10.740746 53.703732 -21.481493
vertex -10.740746 53.703732 -21.481493
vertex -10.740746 75.185234 -10.740746
endloop
endfacet
facet normal 0.000000 -1.000000 0.000000
outer loop
vertex -10.740746 53.703732 10.740746
vertex 10.740746 53.703732 10.740746
vertex 10.740746 53.703732 21.481493
endloop
endfacet
facet normal 0.000000 -1.000000 0.000000
outer loop
vertex 10.740746 53.703732 21.481493
vertex -10.740746 53.703732 21.481493
vertex -10.740746 53.703732 10.740746
endloop
endfacet
facet normal 0.000000 -1.000000 0.000000
outer loop
vertex 10.740746 53.703732 10.740746
vertex 10.740746 53.703732 -10.740746
vertex 21.481493 53.703732 -10.740746
endloop
endfacet
facet normal 0.000000 -1.000000 0.000000
outer loop
vertex 21.481493 53.703732 -10.740746
vertex 21.481493 53.703732 10.740746
vertex 10.740746 53.703732 10.740746
endloop
endfacet
facet normal 0.000000 0.000000 1.000000
outer loop
vertex 10.740746 53.703732 10.740746
vertex 21.481493 53.703732 10.740746
vertex 10.740746 75.185234 10.740746
endloop
endfacet
facet normal 0.000000 0.000000 -1.000000
outer loop
vertex 21.481493 53.703732 -10.740746
vertex 10.740746 53.703732 -10.740746
vertex 10.740746 75.185234 -10.740746
endloop
endfacet
facet normal 0.894427 0.447213 0.000000
outer loop
vertex 21.481493 53.703732 -10.740746
vertex 10.740746 75.185234 -10.740746
vertex 10.740746 75.185234 10.740746
endloop
endfacet
facet normal 0.894427 0.447213 0.000000
outer loop
vertex 10.740746 75.185234 10.740746
vertex 21.481493 53.703732 10.740746
vertex 21.481493 53.703732 -10.740746
endloop
endfacet
facet normal 0.000000 0.000000 -1.000000
outer loop
vertex -10.740746 53.703732 -10.740746
vertex -21.481493 53.703732 -10.740746
vertex -10.740746 75.185234 -10.740746
endloop
endfacet
endsolid Exported from Blender-2.74 (sub 0)
