solid Exported from Blender-2.74 (sub 0)
facet normal 0.094731 0.256789 -0.961814
outer loop
vertex -0.000003 39.669998 -29.999992
vertex -0.000001 74.669998 -20.655537
vertex 4.029695 74.669998 -20.258646
endloop
endfacet
facet normal 0.094730 0.256789 -0.961814
outer loop
vertex 4.029695 74.669998 -20.258646
vertex 5.852707 39.669998 -29.423548
vertex -0.000003 39.669998 -29.999992
endloop
endfacet
facet normal 0.280551 0.256789 -0.924852
outer loop
vertex 5.852707 39.669998 -29.423548
vertex 4.029695 74.669998 -20.258646
vertex 7.904532 74.669998 -19.083227
endloop
endfacet
facet normal 0.280550 0.256789 -0.924852
outer loop
vertex 7.904532 74.669998 -19.083227
vertex 11.480500 39.669998 -27.716377
vertex 5.852707 39.669998 -29.423548
endloop
endfacet
facet normal 0.455590 0.256789 -0.852348
outer loop
vertex 11.480500 39.669998 -27.716377
vertex 7.904532 74.669998 -19.083227
vertex 11.475603 74.669998 -17.174450
endloop
endfacet
facet normal 0.455590 0.256789 -0.852348
outer loop
vertex 11.475603 74.669998 -17.174450
vertex 16.667103 39.669998 -24.944078
vertex 11.480500 39.669998 -27.716377
endloop
endfacet
facet normal 0.613120 0.256789 -0.747090
outer loop
vertex 16.667103 39.669998 -24.944078
vertex 11.475603 74.669998 -17.174450
vertex 14.605673 74.669998 -14.605669
endloop
endfacet
facet normal 0.613121 0.256789 -0.747089
outer loop
vertex 14.605673 74.669998 -14.605669
vertex 21.213200 39.669998 -21.213194
vertex 16.667103 39.669998 -24.944078
endloop
endfacet
facet normal 0.747090 0.256789 -0.613120
outer loop
vertex 21.213200 39.669998 -21.213194
vertex 14.605673 74.669998 -14.605669
vertex 17.174452 74.669998 -11.475598
endloop
endfacet
facet normal 0.747090 0.256789 -0.613120
outer loop
vertex 17.174452 74.669998 -11.475598
vertex 24.944082 39.669998 -16.667097
vertex 21.213200 39.669998 -21.213194
endloop
endfacet
facet normal 0.852348 0.256789 -0.455590
outer loop
vertex 24.944082 39.669998 -16.667097
vertex 17.174452 74.669998 -11.475598
vertex 19.083229 74.669998 -7.904529
endloop
endfacet
facet normal 0.852348 0.256789 -0.455590
outer loop
vertex 19.083229 74.669998 -7.904529
vertex 27.716383 39.669998 -11.480495
vertex 24.944082 39.669998 -16.667097
endloop
endfacet
facet normal 0.924852 0.256789 -0.280550
outer loop
vertex 27.716383 39.669998 -11.480495
vertex 19.083229 74.669998 -7.904529
vertex 20.258646 74.669998 -4.029694
endloop
endfacet
facet normal 0.924852 0.256789 -0.280550
outer loop
vertex 20.258646 74.669998 -4.029694
vertex 29.423552 39.669998 -5.852704
vertex 27.716383 39.669998 -11.480495
endloop
endfacet
facet normal 0.961814 0.256789 -0.094731
outer loop
vertex 29.423552 39.669998 -5.852704
vertex 20.258646 74.669998 -4.029694
vertex 20.655539 74.669998 0.000002
endloop
endfacet
facet normal 0.961814 0.256789 -0.094731
outer loop
vertex 20.655539 74.669998 0.000002
vertex 29.999994 39.669998 0.000004
vertex 29.423552 39.669998 -5.852704
endloop
endfacet
facet normal 0.961814 0.256789 0.094730
outer loop
vertex 29.999994 39.669998 0.000004
vertex 20.655539 74.669998 0.000002
vertex 20.258648 74.669998 4.029697
endloop
endfacet
facet normal 0.961814 0.256789 0.094730
outer loop
vertex 20.258648 74.669998 4.029697
vertex 29.423553 39.669998 5.852712
vertex 29.999994 39.669998 0.000004
endloop
endfacet
facet normal 0.924851 0.256789 0.280551
outer loop
vertex 29.423553 39.669998 5.852712
vertex 20.258648 74.669998 4.029697
vertex 19.083229 74.669998 7.904533
endloop
endfacet
facet normal 0.924852 0.256789 0.280550
outer loop
vertex 19.083229 74.669998 7.904533
vertex 27.716383 39.669998 11.480504
vertex 29.423553 39.669998 5.852712
endloop
endfacet
facet normal 0.852348 0.256789 0.455589
outer loop
vertex 27.716383 39.669998 11.480504
vertex 19.083229 74.669998 7.904533
vertex 17.174452 74.669998 11.475607
endloop
endfacet
facet normal 0.852348 0.256789 0.455590
outer loop
vertex 17.174452 74.669998 11.475607
vertex 24.944082 39.669998 16.667112
vertex 27.716383 39.669998 11.480504
endloop
endfacet
facet normal 0.747090 0.256789 0.613120
outer loop
vertex 24.944082 39.669998 16.667112
vertex 17.174452 74.669998 11.475607
vertex 14.605673 74.669998 14.605677
endloop
endfacet
facet normal 0.747090 0.256789 0.613120
outer loop
vertex 14.605673 74.669998 14.605677
vertex 21.213200 39.669998 21.213209
vertex 24.944082 39.669998 16.667112
endloop
endfacet
facet normal 0.613120 0.256789 0.747090
outer loop
vertex 21.213200 39.669998 21.213209
vertex 14.605673 74.669998 14.605677
vertex 11.475600 74.669998 17.174458
endloop
endfacet
facet normal 0.613121 0.256789 0.747089
outer loop
vertex 11.475600 74.669998 17.174458
vertex 16.667101 39.669998 24.944096
vertex 21.213200 39.669998 21.213209
endloop
endfacet
facet normal 0.455590 0.256789 0.852348
outer loop
vertex 16.667101 39.669998 24.944096
vertex 11.475600 74.669998 17.174458
vertex 7.904529 74.669998 19.083237
endloop
endfacet
facet normal 0.455589 0.256789 0.852348
outer loop
vertex 7.904529 74.669998 19.083237
vertex 11.480495 39.669998 27.716394
vertex 16.667101 39.669998 24.944096
endloop
endfacet
facet normal 0.280551 0.256789 0.924852
outer loop
vertex 11.480495 39.669998 27.716394
vertex 7.904529 74.669998 19.083237
vertex 4.029690 74.669998 20.258654
endloop
endfacet
facet normal 0.280550 0.256789 0.924852
outer loop
vertex 4.029690 74.669998 20.258654
vertex 5.852700 39.669998 29.423565
vertex 11.480495 39.669998 27.716394
endloop
endfacet
facet normal 0.094730 0.256790 0.961814
outer loop
vertex 5.852700 39.669998 29.423565
vertex 4.029690 74.669998 20.258654
vertex -0.000008 74.669998 20.655542
endloop
endfacet
facet normal 0.094730 0.256789 0.961814
outer loop
vertex -0.000008 74.669998 20.655542
vertex -0.000012 39.669998 30.000004
vertex 5.852700 39.669998 29.423565
endloop
endfacet
facet normal -0.094731 0.256789 0.961814
outer loop
vertex -0.000012 39.669998 30.000004
vertex -0.000008 74.669998 20.655542
vertex -4.029706 74.669998 20.258652
endloop
endfacet
facet normal -0.094731 0.256789 0.961814
outer loop
vertex -4.029706 74.669998 20.258652
vertex -5.852724 39.669998 29.423561
vertex -0.000012 39.669998 30.000004
endloop
endfacet
facet normal -0.280551 0.256789 0.924851
outer loop
vertex -5.852724 39.669998 29.423561
vertex -4.029706 74.669998 20.258652
vertex -7.904543 74.669998 19.083231
endloop
endfacet
facet normal -0.280551 0.256789 0.924851
outer loop
vertex -7.904543 74.669998 19.083231
vertex -11.480517 39.669998 27.716385
vertex -5.852724 39.669998 29.423561
endloop
endfacet
facet normal -0.455589 0.256789 0.852348
outer loop
vertex -11.480517 39.669998 27.716385
vertex -7.904543 74.669998 19.083231
vertex -11.475615 74.669998 17.174452
endloop
endfacet
facet normal -0.455590 0.256789 0.852348
outer loop
vertex -11.475615 74.669998 17.174452
vertex -16.667122 39.669998 24.944086
vertex -11.480517 39.669998 27.716385
endloop
endfacet
facet normal -0.613120 0.256790 0.747090
outer loop
vertex -16.667122 39.669998 24.944086
vertex -11.475615 74.669998 17.174452
vertex -14.605685 74.669998 14.605669
endloop
endfacet
facet normal -0.613121 0.256789 0.747089
outer loop
vertex -14.605685 74.669998 14.605669
vertex -21.213219 39.669998 21.213198
vertex -16.667122 39.669998 24.944086
endloop
endfacet
facet normal -0.747090 0.256789 0.613120
outer loop
vertex -21.213219 39.669998 21.213198
vertex -14.605685 74.669998 14.605669
vertex -17.174465 74.669998 11.475595
endloop
endfacet
facet normal -0.747090 0.256789 0.613120
outer loop
vertex -17.174465 74.669998 11.475595
vertex -24.944101 39.669998 16.667095
vertex -21.213219 39.669998 21.213198
endloop
endfacet
facet normal -0.852349 0.256789 0.455589
outer loop
vertex -24.944101 39.669998 16.667095
vertex -17.174465 74.669998 11.475595
vertex -19.083241 74.669998 7.904521
endloop
endfacet
facet normal -0.852348 0.256789 0.455589
outer loop
vertex -19.083241 74.669998 7.904521
vertex -27.716398 39.669998 11.480486
vertex -24.944101 39.669998 16.667095
endloop
endfacet
facet normal -0.924852 0.256789 0.280550
outer loop
vertex -27.716398 39.669998 11.480486
vertex -19.083241 74.669998 7.904521
vertex -20.258656 74.669998 4.029682
endloop
endfacet
facet normal -0.924852 0.256789 0.280549
outer loop
vertex -20.258656 74.669998 4.029682
vertex -29.423565 39.669998 5.852690
vertex -27.716398 39.669998 11.480486
endloop
endfacet
facet normal -0.961814 0.256789 0.094730
outer loop
vertex -29.423565 39.669998 5.852690
vertex -20.258656 74.669998 4.029682
vertex -20.655542 74.669998 -0.000016
endloop
endfacet
facet normal -0.961814 0.256789 0.094730
outer loop
vertex -20.655542 74.669998 -0.000016
vertex -30.000002 39.669998 -0.000023
vertex -29.423565 39.669998 5.852690
endloop
endfacet
facet normal -0.961814 0.256789 -0.094731
outer loop
vertex -30.000002 39.669998 -0.000023
vertex -20.655542 74.669998 -0.000016
vertex -20.258648 74.669998 -4.029714
endloop
endfacet
facet normal -0.961813 0.256789 -0.094732
outer loop
vertex -20.258648 74.669998 -4.029714
vertex -29.423553 39.669998 -5.852734
vertex -30.000002 39.669998 -0.000023
endloop
endfacet
facet normal -0.924851 0.256789 -0.280552
outer loop
vertex -29.423553 39.669998 -5.852734
vertex -20.258648 74.669998 -4.029714
vertex -19.083225 74.669998 -7.904551
endloop
endfacet
facet normal -0.924851 0.256789 -0.280552
outer loop
vertex -19.083225 74.669998 -7.904551
vertex -27.716373 39.669998 -11.480527
vertex -29.423553 39.669998 -5.852734
endloop
endfacet
facet normal -0.852348 0.256789 -0.455591
outer loop
vertex -27.716373 39.669998 -11.480527
vertex -19.083225 74.669998 -7.904551
vertex -17.174442 74.669998 -11.475621
endloop
endfacet
facet normal -0.852348 0.256789 -0.455591
outer loop
vertex -17.174442 74.669998 -11.475621
vertex -24.944071 39.669998 -16.667130
vertex -27.716373 39.669998 -11.480527
endloop
endfacet
facet normal -0.747089 0.256789 -0.613121
outer loop
vertex -24.944071 39.669998 -16.667130
vertex -17.174442 74.669998 -11.475621
vertex -14.605656 74.669998 -14.605687
endloop
endfacet
facet normal -0.747089 0.256789 -0.613121
outer loop
vertex -14.605656 74.669998 -14.605687
vertex -21.213179 39.669998 -21.213221
vertex -24.944071 39.669998 -16.667130
endloop
endfacet
facet normal -0.613119 0.256789 -0.747090
outer loop
vertex -21.213179 39.669998 -21.213221
vertex -14.605656 74.669998 -14.605687
vertex -11.475581 74.669998 -17.174467
endloop
endfacet
facet normal -0.613119 0.256789 -0.747090
outer loop
vertex -11.475581 74.669998 -17.174467
vertex -16.667074 39.669998 -24.944103
vertex -21.213179 39.669998 -21.213221
endloop
endfacet
facet normal -0.455589 0.256789 -0.852349
outer loop
vertex -16.667074 39.669998 -24.944103
vertex -11.475581 74.669998 -17.174467
vertex -7.904507 74.669998 -19.083239
endloop
endfacet
facet normal -0.455588 0.256789 -0.852349
outer loop
vertex -7.904507 74.669998 -19.083239
vertex -11.480465 39.669998 -27.716394
vertex -16.667074 39.669998 -24.944103
endloop
endfacet
facet normal 0.000000 1.000000 0.000019
outer loop
vertex 4.029695 74.669998 -20.258646
vertex 11.475603 74.669998 -17.174450
vertex 7.904532 74.669998 -19.083227
endloop
endfacet
facet normal 0.000000 1.000000 0.000010
outer loop
vertex 17.174452 74.669998 -11.475598
vertex 14.605673 74.669998 -14.605669
vertex 11.475603 74.669998 -17.174450
endloop
endfacet
facet normal 0.000000 1.000000 0.000010
outer loop
vertex 20.258646 74.669998 -4.029694
vertex 19.083229 74.669998 -7.904529
vertex 17.174452 74.669998 -11.475598
endloop
endfacet
facet normal 0.000000 1.000000 -0.000001
outer loop
vertex 20.258648 74.669998 4.029697
vertex 20.655539 74.669998 0.000002
vertex 20.258646 74.669998 -4.029694
endloop
endfacet
facet normal 0.000000 1.000000 0.000000
outer loop
vertex 17.174452 74.669998 11.475607
vertex 19.083229 74.669998 7.904533
vertex 20.258648 74.669998 4.029697
endloop
endfacet
facet normal 0.000000 1.000000 -0.000010
outer loop
vertex 11.475600 74.669998 17.174458
vertex 14.605673 74.669998 14.605677
vertex 17.174452 74.669998 11.475607
endloop
endfacet
facet normal 0.000000 1.000000 0.000019
outer loop
vertex 4.029690 74.669998 20.258654
vertex 7.904529 74.669998 19.083237
vertex 11.475600 74.669998 17.174458
endloop
endfacet
facet normal 0.000000 1.000000 -0.000019
outer loop
vertex -4.029706 74.669998 20.258652
vertex -0.000008 74.669998 20.655542
vertex 4.029690 74.669998 20.258654
endloop
endfacet
facet normal 0.000000 1.000000 0.000000
outer loop
vertex -11.475615 74.669998 17.174452
vertex -7.904543 74.669998 19.083231
vertex -4.029706 74.669998 20.258652
endloop
endfacet
facet normal 0.000000 1.000000 0.000010
outer loop
vertex -17.174465 74.669998 11.475595
vertex -14.605685 74.669998 14.605669
vertex -11.475615 74.669998 17.174452
endloop
endfacet
facet normal 0.000000 1.000000 0.000010
outer loop
vertex -20.258656 74.669998 4.029682
vertex -19.083241 74.669998 7.904521
vertex -17.174465 74.669998 11.475595
endloop
endfacet
facet normal 0.000000 1.000000 0.000000
outer loop
vertex -20.258648 74.669998 -4.029714
vertex -20.655542 74.669998 -0.000016
vertex -20.258656 74.669998 4.029682
endloop
endfacet
facet normal 0.000000 1.000000 0.000005
outer loop
vertex -17.174442 74.669998 -11.475621
vertex -19.083225 74.669998 -7.904551
vertex -20.258648 74.669998 -4.029714
endloop
endfacet
facet normal 0.000000 1.000000 0.000010
outer loop
vertex -11.475581 74.669998 -17.174467
vertex -14.605656 74.669998 -14.605687
vertex -17.174442 74.669998 -11.475621
endloop
endfacet
facet normal 0.000000 1.000000 0.000019
outer loop
vertex -4.029666 74.669998 -20.258652
vertex -7.904507 74.669998 -19.083239
vertex -11.475581 74.669998 -17.174467
endloop
endfacet
facet normal 0.000000 1.000000 0.000019
outer loop
vertex 4.029695 74.669998 -20.258646
vertex -0.000001 74.669998 -20.655537
vertex -4.029666 74.669998 -20.258652
endloop
endfacet
facet normal 0.000000 1.000000 0.000000
outer loop
vertex 4.029695 74.669998 -20.258646
vertex 17.174452 74.669998 -11.475598
vertex 11.475603 74.669998 -17.174450
endloop
endfacet
facet normal 0.000000 1.000000 -0.000001
outer loop
vertex 20.258648 74.669998 4.029697
vertex 20.258646 74.669998 -4.029694
vertex 17.174452 74.669998 -11.475598
endloop
endfacet
facet normal 0.000000 1.000000 -0.000001
outer loop
vertex 11.475600 74.669998 17.174458
vertex 17.174452 74.669998 11.475607
vertex 20.258648 74.669998 4.029697
endloop
endfacet
facet normal 0.000000 1.000000 0.000000
outer loop
vertex -4.029706 74.669998 20.258652
vertex 4.029690 74.669998 20.258654
vertex 11.475600 74.669998 17.174458
endloop
endfacet
facet normal 0.000000 1.000000 0.000005
outer loop
vertex -17.174465 74.669998 11.475595
vertex -11.475615 74.669998 17.174452
vertex -4.029706 74.669998 20.258652
endloop
endfacet
facet normal 0.000000 1.000000 -0.000001
outer loop
vertex -20.258648 74.669998 -4.029714
vertex -20.258656 74.669998 4.029682
vertex -17.174465 74.669998 11.475595
endloop
endfacet
facet normal 0.000000 1.000000 -0.000004
outer loop
vertex -11.475581 74.669998 -17.174467
vertex -17.174442 74.669998 -11.475621
vertex -20.258648 74.669998 -4.029714
endloop
endfacet
facet normal 0.000000 1.000000 -0.000005
outer loop
vertex 4.029695 74.669998 -20.258646
vertex -4.029666 74.669998 -20.258652
vertex -11.475581 74.669998 -17.174467
endloop
endfacet
facet normal 0.000000 1.000000 -0.000002
outer loop
vertex 4.029695 74.669998 -20.258646
vertex 20.258648 74.669998 4.029697
vertex 17.174452 74.669998 -11.475598
endloop
endfacet
facet normal 0.000000 1.000000 0.000001
outer loop
vertex -4.029706 74.669998 20.258652
vertex 11.475600 74.669998 17.174458
vertex 20.258648 74.669998 4.029697
endloop
endfacet
facet normal 0.000000 1.000000 0.000001
outer loop
vertex -20.258648 74.669998 -4.029714
vertex -17.174465 74.669998 11.475595
vertex -4.029706 74.669998 20.258652
endloop
endfacet
facet normal 0.000000 1.000000 0.000001
outer loop
vertex 4.029695 74.669998 -20.258646
vertex -11.475581 74.669998 -17.174467
vertex -20.258648 74.669998 -4.029714
endloop
endfacet
facet normal 0.000000 1.000000 0.000000
outer loop
vertex 4.029695 74.669998 -20.258646
vertex -4.029706 74.669998 20.258652
vertex 20.258648 74.669998 4.029697
endloop
endfacet
facet normal 0.000000 1.000000 -0.000000
outer loop
vertex 4.029695 74.669998 -20.258646
vertex -20.258648 74.669998 -4.029714
vertex -4.029706 74.669998 20.258652
endloop
endfacet
facet normal -0.094730 0.256789 -0.961814
outer loop
vertex -0.000001 74.669998 -20.655537
vertex -0.000003 39.669998 -29.999992
vertex -5.852667 39.669998 -29.423559
endloop
endfacet
facet normal -0.094729 0.256789 -0.961814
outer loop
vertex -5.852667 39.669998 -29.423559
vertex -4.029666 74.669998 -20.258652
vertex -0.000001 74.669998 -20.655537
endloop
endfacet
facet normal -0.280549 0.256789 -0.924852
outer loop
vertex -11.480465 39.669998 -27.716394
vertex -7.904507 74.669998 -19.083239
vertex -4.029666 74.669998 -20.258652
endloop
endfacet
facet normal -0.280550 0.256789 -0.924852
outer loop
vertex -4.029666 74.669998 -20.258652
vertex -5.852667 39.669998 -29.423559
vertex -11.480465 39.669998 -27.716394
endloop
endfacet
facet normal -0.881921 0.000000 -0.471397
outer loop
vertex -27.716373 39.669998 -11.480527
vertex -24.944071 39.669998 -16.667130
vertex -24.944071 37.669998 -16.667130
endloop
endfacet
facet normal -0.881920 0.000000 -0.471398
outer loop
vertex -24.944071 37.669998 -16.667130
vertex -27.716373 37.669998 -11.480527
vertex -27.716373 39.669998 -11.480527
endloop
endfacet
facet normal 0.000000 -1.000000 -0.000005
outer loop
vertex -0.000003 37.669998 -29.999992
vertex -11.480465 37.669998 -27.716394
vertex -5.852667 37.669998 -29.423559
endloop
endfacet
facet normal 0.000000 -1.000000 0.000005
outer loop
vertex -21.213179 37.669998 -21.213221
vertex -16.667074 37.669998 -24.944103
vertex -11.480465 37.669998 -27.716394
endloop
endfacet
facet normal 0.000000 -1.000000 0.000005
outer loop
vertex -27.716373 37.669998 -11.480527
vertex -24.944071 37.669998 -16.667130
vertex -21.213179 37.669998 -21.213221
endloop
endfacet
facet normal 0.000000 -1.000000 -0.000002
outer loop
vertex -30.000002 37.669998 -0.000023
vertex -29.423553 37.669998 -5.852734
vertex -27.716373 37.669998 -11.480527
endloop
endfacet
facet normal 0.000000 -1.000000 0.000001
outer loop
vertex -27.716398 37.669998 11.480486
vertex -29.423565 37.669998 5.852690
vertex -30.000002 37.669998 -0.000023
endloop
endfacet
facet normal 0.000000 -1.000000 0.000000
outer loop
vertex -21.213219 37.669998 21.213198
vertex -24.944101 37.669998 16.667095
vertex -27.716398 37.669998 11.480486
endloop
endfacet
facet normal 0.000000 -1.000000 0.000005
outer loop
vertex -11.480517 37.669998 27.716385
vertex -16.667122 37.669998 24.944086
vertex -21.213219 37.669998 21.213198
endloop
endfacet
facet normal 0.000000 -1.000000 -0.000005
outer loop
vertex -0.000012 37.669998 30.000004
vertex -5.852724 37.669998 29.423561
vertex -11.480517 37.669998 27.716385
endloop
endfacet
facet normal 0.000000 -1.000000 0.000000
outer loop
vertex 11.480495 37.669998 27.716394
vertex 5.852700 37.669998 29.423565
vertex -0.000012 37.669998 30.000004
endloop
endfacet
facet normal 0.000000 -1.000000 0.000000
outer loop
vertex 21.213200 37.669998 21.213209
vertex 16.667101 37.669998 24.944096
vertex 11.480495 37.669998 27.716394
endloop
endfacet
facet normal 0.000000 -1.000000 0.000005
outer loop
vertex 27.716383 37.669998 11.480504
vertex 24.944082 37.669998 16.667112
vertex 21.213200 37.669998 21.213209
endloop
endfacet
facet normal 0.000000 -1.000000 0.000000
outer loop
vertex 29.999994 37.669998 0.000004
vertex 29.423553 37.669998 5.852712
vertex 27.716383 37.669998 11.480504
endloop
endfacet
facet normal 0.000000 -1.000000 0.000001
outer loop
vertex 27.716383 37.669998 -11.480495
vertex 29.423552 37.669998 -5.852704
vertex 29.999994 37.669998 0.000004
endloop
endfacet
facet normal 0.000000 -1.000000 -0.000002
outer loop
vertex 21.213200 37.669998 -21.213194
vertex 24.944082 37.669998 -16.667097
vertex 27.716383 37.669998 -11.480495
endloop
endfacet
facet normal 0.000000 -1.000000 0.000000
outer loop
vertex 11.480500 37.669998 -27.716377
vertex 16.667103 37.669998 -24.944078
vertex 21.213200 37.669998 -21.213194
endloop
endfacet
facet normal 0.000000 -1.000000 0.000005
outer loop
vertex -0.000003 37.669998 -29.999992
vertex 5.852707 37.669998 -29.423548
vertex 11.480500 37.669998 -27.716377
endloop
endfacet
facet normal 0.000000 -1.000000 0.000001
outer loop
vertex -0.000003 37.669998 -29.999992
vertex -21.213179 37.669998 -21.213221
vertex -11.480465 37.669998 -27.716394
endloop
endfacet
facet normal 0.000000 -1.000000 -0.000001
outer loop
vertex -30.000002 37.669998 -0.000023
vertex -27.716373 37.669998 -11.480527
vertex -21.213179 37.669998 -21.213221
endloop
endfacet
facet normal 0.000000 -1.000000 0.000000
outer loop
vertex -21.213219 37.669998 21.213198
vertex -27.716398 37.669998 11.480486
vertex -30.000002 37.669998 -0.000023
endloop
endfacet
facet normal 0.000000 -1.000000 -0.000002
outer loop
vertex -0.000012 37.669998 30.000004
vertex -11.480517 37.669998 27.716385
vertex -21.213219 37.669998 21.213198
endloop
endfacet
facet normal 0.000000 -1.000000 0.000001
outer loop
vertex 21.213200 37.669998 21.213209
vertex 11.480495 37.669998 27.716394
vertex -0.000012 37.669998 30.000004
endloop
endfacet
facet normal 0.000000 -1.000000 0.000000
outer loop
vertex 29.999994 37.669998 0.000004
vertex 27.716383 37.669998 11.480504
vertex 21.213200 37.669998 21.213209
endloop
endfacet
facet normal 0.000000 -1.000000 0.000000
outer loop
vertex 21.213200 37.669998 -21.213194
vertex 27.716383 37.669998 -11.480495
vertex 29.999994 37.669998 0.000004
endloop
endfacet
facet normal 0.000000 -1.000000 -0.000001
outer loop
vertex -0.000003 37.669998 -29.999992
vertex 11.480500 37.669998 -27.716377
vertex 21.213200 37.669998 -21.213194
endloop
endfacet
facet normal 0.000000 -1.000000 0.000000
outer loop
vertex -0.000003 37.669998 -29.999992
vertex -30.000002 37.669998 -0.000023
vertex -21.213179 37.669998 -21.213221
endloop
endfacet
facet normal 0.000000 -1.000000 0.000000
outer loop
vertex -0.000012 37.669998 30.000004
vertex -21.213219 37.669998 21.213198
vertex -30.000002 37.669998 -0.000023
endloop
endfacet
facet normal 0.000000 -1.000000 -0.000000
outer loop
vertex 29.999994 37.669998 0.000004
vertex 21.213200 37.669998 21.213209
vertex -0.000012 37.669998 30.000004
endloop
endfacet
facet normal 0.000000 -1.000000 0.000000
outer loop
vertex -0.000003 37.669998 -29.999992
vertex 21.213200 37.669998 -21.213194
vertex 29.999994 37.669998 0.000004
endloop
endfacet
facet normal 0.000000 -1.000000 0.000000
outer loop
vertex -0.000003 37.669998 -29.999992
vertex -0.000012 37.669998 30.000004
vertex -30.000002 37.669998 -0.000023
endloop
endfacet
facet normal 0.000000 -1.000000 0.000000
outer loop
vertex -0.000003 37.669998 -29.999992
vertex 29.999994 37.669998 0.000004
vertex -0.000012 37.669998 30.000004
endloop
endfacet
facet normal 0.773011 0.000000 -0.634393
outer loop
vertex 21.213200 39.669998 -21.213194
vertex 24.944082 39.669998 -16.667097
vertex 24.944082 37.669998 -16.667097
endloop
endfacet
facet normal 0.773011 0.000000 -0.634393
outer loop
vertex 24.944082 37.669998 -16.667097
vertex 21.213200 37.669998 -21.213194
vertex 21.213200 39.669998 -21.213194
endloop
endfacet
facet normal 0.098017 0.000000 0.995185
outer loop
vertex 5.852700 39.669998 29.423565
vertex -0.000012 39.669998 30.000004
vertex -0.000012 37.669998 30.000004
endloop
endfacet
facet normal 0.098016 0.000000 0.995185
outer loop
vertex -0.000012 37.669998 30.000004
vertex 5.852700 37.669998 29.423565
vertex 5.852700 39.669998 29.423565
endloop
endfacet
facet normal -0.471396 0.000000 -0.881922
outer loop
vertex -16.667074 39.669998 -24.944103
vertex -11.480465 39.669998 -27.716394
vertex -11.480465 37.669998 -27.716394
endloop
endfacet
facet normal -0.471395 0.000000 -0.881922
outer loop
vertex -11.480465 37.669998 -27.716394
vertex -16.667074 37.669998 -24.944103
vertex -16.667074 39.669998 -24.944103
endloop
endfacet
facet normal -0.471396 0.000000 0.881922
outer loop
vertex -11.480517 39.669998 27.716385
vertex -16.667122 39.669998 24.944086
vertex -16.667122 37.669998 24.944086
endloop
endfacet
facet normal -0.471397 0.000000 0.881921
outer loop
vertex -16.667122 37.669998 24.944086
vertex -11.480517 37.669998 27.716385
vertex -11.480517 39.669998 27.716385
endloop
endfacet
facet normal 0.098017 0.000000 -0.995185
outer loop
vertex -0.000003 39.669998 -29.999992
vertex 5.852707 39.669998 -29.423548
vertex 5.852707 37.669998 -29.423548
endloop
endfacet
facet normal 0.098018 0.000000 -0.995185
outer loop
vertex 5.852707 37.669998 -29.423548
vertex -0.000003 37.669998 -29.999992
vertex -0.000003 39.669998 -29.999992
endloop
endfacet
facet normal 0.995185 0.000000 -0.098017
outer loop
vertex 29.423552 39.669998 -5.852704
vertex 29.999994 39.669998 0.000004
vertex 29.999994 37.669998 0.000004
endloop
endfacet
facet normal 0.995185 0.000000 -0.098017
outer loop
vertex 29.999994 37.669998 0.000004
vertex 29.423552 37.669998 -5.852704
vertex 29.423552 39.669998 -5.852704
endloop
endfacet
facet normal -0.881922 0.000000 0.471396
outer loop
vertex -24.944101 39.669998 16.667095
vertex -27.716398 39.669998 11.480486
vertex -27.716398 37.669998 11.480486
endloop
endfacet
facet normal -0.881921 0.000000 0.471397
outer loop
vertex -27.716398 37.669998 11.480486
vertex -24.944101 37.669998 16.667095
vertex -24.944101 39.669998 16.667095
endloop
endfacet
facet normal 0.881921 0.000000 0.471397
outer loop
vertex 27.716383 39.669998 11.480504
vertex 24.944082 39.669998 16.667112
vertex 24.944082 37.669998 16.667112
endloop
endfacet
facet normal 0.881921 0.000000 0.471397
outer loop
vertex 24.944082 37.669998 16.667112
vertex 27.716383 37.669998 11.480504
vertex 27.716383 39.669998 11.480504
endloop
endfacet
facet normal -0.995185 0.000000 -0.098018
outer loop
vertex -30.000002 39.669998 -0.000023
vertex -29.423553 39.669998 -5.852734
vertex -29.423553 37.669998 -5.852734
endloop
endfacet
facet normal -0.995185 0.000000 -0.098018
outer loop
vertex -29.423553 37.669998 -5.852734
vertex -30.000002 37.669998 -0.000023
vertex -30.000002 39.669998 -0.000023
endloop
endfacet
facet normal 0.471397 0.000000 -0.881921
outer loop
vertex 11.480500 39.669998 -27.716377
vertex 16.667103 39.669998 -24.944078
vertex 16.667103 37.669998 -24.944078
endloop
endfacet
facet normal 0.471396 0.000000 -0.881921
outer loop
vertex 16.667103 37.669998 -24.944078
vertex 11.480500 37.669998 -27.716377
vertex 11.480500 39.669998 -27.716377
endloop
endfacet
facet normal 0.471397 0.000000 0.881921
outer loop
vertex 16.667101 39.669998 24.944096
vertex 11.480495 39.669998 27.716394
vertex 11.480495 37.669998 27.716394
endloop
endfacet
facet normal 0.471397 0.000000 0.881921
outer loop
vertex 11.480495 37.669998 27.716394
vertex 16.667101 37.669998 24.944096
vertex 16.667101 39.669998 24.944096
endloop
endfacet
facet normal -0.773009 0.000000 -0.634395
outer loop
vertex -24.944071 39.669998 -16.667130
vertex -21.213179 39.669998 -21.213221
vertex -21.213179 37.669998 -21.213221
endloop
endfacet
facet normal -0.773009 0.000000 -0.634395
outer loop
vertex -21.213179 37.669998 -21.213221
vertex -24.944071 37.669998 -16.667130
vertex -24.944071 39.669998 -16.667130
endloop
endfacet
facet normal -0.098017 0.000000 0.995185
outer loop
vertex -0.000012 39.669998 30.000004
vertex -5.852724 39.669998 29.423561
vertex -5.852724 37.669998 29.423561
endloop
endfacet
facet normal -0.098017 0.000000 0.995185
outer loop
vertex -5.852724 37.669998 29.423561
vertex -0.000012 37.669998 30.000004
vertex -0.000012 39.669998 30.000004
endloop
endfacet
facet normal 0.881921 0.000000 -0.471397
outer loop
vertex 24.944082 39.669998 -16.667097
vertex 27.716383 39.669998 -11.480495
vertex 27.716383 37.669998 -11.480495
endloop
endfacet
facet normal 0.881921 0.000000 -0.471397
outer loop
vertex 27.716383 37.669998 -11.480495
vertex 24.944082 37.669998 -16.667097
vertex 24.944082 39.669998 -16.667097
endloop
endfacet
facet normal -0.290283 0.000000 -0.956941
outer loop
vertex -11.480465 39.669998 -27.716394
vertex -5.852667 39.669998 -29.423559
vertex -5.852667 37.669998 -29.423559
endloop
endfacet
facet normal -0.290284 0.000000 -0.956941
outer loop
vertex -5.852667 37.669998 -29.423559
vertex -11.480465 37.669998 -27.716394
vertex -11.480465 39.669998 -27.716394
endloop
endfacet
facet normal -0.634394 0.000000 0.773010
outer loop
vertex -16.667122 39.669998 24.944086
vertex -21.213219 39.669998 21.213198
vertex -21.213219 37.669998 21.213198
endloop
endfacet
facet normal -0.634394 0.000000 0.773010
outer loop
vertex -21.213219 37.669998 21.213198
vertex -16.667122 37.669998 24.944086
vertex -16.667122 39.669998 24.944086
endloop
endfacet
facet normal 0.995185 0.000000 0.098017
outer loop
vertex 29.999994 39.669998 0.000004
vertex 29.423553 39.669998 5.852712
vertex 29.423553 37.669998 5.852712
endloop
endfacet
facet normal 0.995185 0.000000 0.098017
outer loop
vertex 29.423553 37.669998 5.852712
vertex 29.999994 37.669998 0.000004
vertex 29.999994 39.669998 0.000004
endloop
endfacet
facet normal -0.956941 0.000000 0.290284
outer loop
vertex -27.716398 39.669998 11.480486
vertex -29.423565 39.669998 5.852690
vertex -29.423565 37.669998 5.852690
endloop
endfacet
facet normal -0.956941 0.000000 0.290283
outer loop
vertex -29.423565 37.669998 5.852690
vertex -27.716398 37.669998 11.480486
vertex -27.716398 39.669998 11.480486
endloop
endfacet
facet normal 0.773011 0.000000 0.634393
outer loop
vertex 24.944082 39.669998 16.667112
vertex 21.213200 39.669998 21.213209
vertex 21.213200 37.669998 21.213209
endloop
endfacet
facet normal 0.773011 0.000000 0.634393
outer loop
vertex 21.213200 37.669998 21.213209
vertex 24.944082 37.669998 16.667112
vertex 24.944082 39.669998 16.667112
endloop
endfacet
facet normal -0.956940 0.000000 -0.290286
outer loop
vertex -29.423553 39.669998 -5.852734
vertex -27.716373 39.669998 -11.480527
vertex -27.716373 37.669998 -11.480527
endloop
endfacet
facet normal -0.956940 0.000000 -0.290285
outer loop
vertex -27.716373 37.669998 -11.480527
vertex -29.423553 37.669998 -5.852734
vertex -29.423553 39.669998 -5.852734
endloop
endfacet
facet normal 0.634393 0.000000 -0.773011
outer loop
vertex 16.667103 39.669998 -24.944078
vertex 21.213200 39.669998 -21.213194
vertex 21.213200 37.669998 -21.213194
endloop
endfacet
facet normal 0.634393 0.000000 -0.773011
outer loop
vertex 21.213200 37.669998 -21.213194
vertex 16.667103 37.669998 -24.944078
vertex 16.667103 39.669998 -24.944078
endloop
endfacet
facet normal 0.290284 0.000000 0.956940
outer loop
vertex 11.480495 39.669998 27.716394
vertex 5.852700 39.669998 29.423565
vertex 5.852700 37.669998 29.423565
endloop
endfacet
facet normal 0.290285 0.000000 0.956940
outer loop
vertex 5.852700 37.669998 29.423565
vertex 11.480495 37.669998 27.716394
vertex 11.480495 39.669998 27.716394
endloop
endfacet
facet normal -0.634393 0.000000 -0.773011
outer loop
vertex -21.213179 39.669998 -21.213221
vertex -16.667074 39.669998 -24.944103
vertex -16.667074 37.669998 -24.944103
endloop
endfacet
facet normal -0.634392 0.000000 -0.773012
outer loop
vertex -16.667074 37.669998 -24.944103
vertex -21.213179 37.669998 -21.213221
vertex -21.213179 39.669998 -21.213221
endloop
endfacet
facet normal -0.290285 0.000000 0.956940
outer loop
vertex -5.852724 39.669998 29.423561
vertex -11.480517 39.669998 27.716385
vertex -11.480517 37.669998 27.716385
endloop
endfacet
facet normal -0.290285 0.000000 0.956940
outer loop
vertex -11.480517 37.669998 27.716385
vertex -5.852724 37.669998 29.423561
vertex -5.852724 39.669998 29.423561
endloop
endfacet
facet normal 0.956940 0.000000 -0.290284
outer loop
vertex 27.716383 39.669998 -11.480495
vertex 29.423552 39.669998 -5.852704
vertex 29.423552 37.669998 -5.852704
endloop
endfacet
facet normal 0.956940 0.000000 -0.290284
outer loop
vertex 29.423552 37.669998 -5.852704
vertex 27.716383 37.669998 -11.480495
vertex 27.716383 39.669998 -11.480495
endloop
endfacet
facet normal -0.098016 0.000000 -0.995185
outer loop
vertex -5.852667 39.669998 -29.423559
vertex -0.000003 39.669998 -29.999992
vertex -0.000003 37.669998 -29.999992
endloop
endfacet
facet normal -0.098017 0.000000 -0.995185
outer loop
vertex -0.000003 37.669998 -29.999992
vertex -5.852667 37.669998 -29.423559
vertex -5.852667 39.669998 -29.423559
endloop
endfacet
facet normal -0.773011 0.000000 0.634392
outer loop
vertex -21.213219 39.669998 21.213198
vertex -24.944101 39.669998 16.667095
vertex -24.944101 37.669998 16.667095
endloop
endfacet
facet normal -0.773011 0.000000 0.634392
outer loop
vertex -24.944101 37.669998 16.667095
vertex -21.213219 37.669998 21.213198
vertex -21.213219 39.669998 21.213198
endloop
endfacet
facet normal 0.956940 0.000000 0.290284
outer loop
vertex 29.423553 39.669998 5.852712
vertex 27.716383 39.669998 11.480504
vertex 27.716383 37.669998 11.480504
endloop
endfacet
facet normal 0.956940 0.000000 0.290284
outer loop
vertex 27.716383 37.669998 11.480504
vertex 29.423553 37.669998 5.852712
vertex 29.423553 39.669998 5.852712
endloop
endfacet
facet normal -0.995185 0.000000 0.098016
outer loop
vertex -29.423565 39.669998 5.852690
vertex -30.000002 39.669998 -0.000023
vertex -30.000002 37.669998 -0.000023
endloop
endfacet
facet normal -0.995185 0.000000 0.098016
outer loop
vertex -30.000002 37.669998 -0.000023
vertex -29.423565 37.669998 5.852690
vertex -29.423565 39.669998 5.852690
endloop
endfacet
facet normal 0.290284 0.000000 -0.956940
outer loop
vertex 5.852707 39.669998 -29.423548
vertex 11.480500 39.669998 -27.716377
vertex 11.480500 37.669998 -27.716377
endloop
endfacet
facet normal 0.290285 0.000000 -0.956940
outer loop
vertex 11.480500 37.669998 -27.716377
vertex 5.852707 37.669998 -29.423548
vertex 5.852707 39.669998 -29.423548
endloop
endfacet
facet normal 0.634392 0.000000 0.773011
outer loop
vertex 21.213200 39.669998 21.213209
vertex 16.667101 39.669998 24.944096
vertex 16.667101 37.669998 24.944096
endloop
endfacet
facet normal 0.634393 0.000000 0.773011
outer loop
vertex 16.667101 37.669998 24.944096
vertex 21.213200 37.669998 21.213209
vertex 21.213200 39.669998 21.213209
endloop
endfacet
endsolid Exported from Blender-2.74 (sub 0)
