solid Exported from Blender-2.74 (sub 0)
facet normal -0.684321 0.000000 -0.729181
outer loop
vertex -17.665596 68.615829 -9.122634
vertex -21.781906 68.615829 -5.259561
vertex -21.781906 74.838715 -5.259561
endloop
endfacet
facet normal -0.684322 0.000000 -0.729180
outer loop
vertex -21.781906 74.838715 -5.259561
vertex -17.665596 74.838715 -9.122634
vertex -17.665596 68.615829 -9.122634
endloop
endfacet
facet normal -0.259787 0.000000 -0.965666
outer loop
vertex 27.695377 74.838715 6.224670
vertex 20.862791 74.984848 8.062798
vertex 20.862791 82.223335 8.062798
endloop
endfacet
facet normal -0.259787 0.000000 -0.965666
outer loop
vertex 20.862791 82.223335 8.062798
vertex 27.695377 82.077194 6.224670
vertex 27.695377 74.838715 6.224670
endloop
endfacet
facet normal -0.226098 0.000000 0.974104
outer loop
vertex -9.341503 68.615829 40.983257
vertex -3.842590 68.615829 42.259613
vertex -3.842590 74.838715 42.259613
endloop
endfacet
facet normal -0.226101 0.000000 0.974104
outer loop
vertex -3.842590 74.838715 42.259613
vertex -9.341503 74.838715 40.983257
vertex -9.341503 68.615829 40.983257
endloop
endfacet
facet normal 0.935553 0.000000 -0.353188
outer loop
vertex 27.695377 68.615829 6.224670
vertex 25.701586 68.615829 0.943351
vertex 25.701586 74.838715 0.943351
endloop
endfacet
facet normal 0.935553 0.000000 -0.353188
outer loop
vertex 25.701586 74.838715 0.943351
vertex 27.695377 74.838715 6.224670
vertex 27.695377 68.615829 6.224670
endloop
endfacet
facet normal -0.911278 0.000000 -0.411791
outer loop
vertex -25.065449 68.615829 -0.667688
vertex -27.390076 68.615829 4.476622
vertex -27.390076 74.838715 4.476622
endloop
endfacet
facet normal -0.911278 0.000000 -0.411791
outer loop
vertex -27.390076 74.838715 4.476622
vertex -25.065449 74.838715 -0.667688
vertex -25.065449 68.615829 -0.667688
endloop
endfacet
facet normal 0.729179 0.000000 -0.684323
outer loop
vertex 22.715792 68.615829 -3.847451
vertex 18.852701 68.615829 -7.963767
vertex 18.852701 74.838715 -7.963767
endloop
endfacet
facet normal 0.729180 0.000000 -0.684322
outer loop
vertex 18.852701 74.838715 -7.963767
vertex 22.715792 74.838715 -3.847451
vertex 22.715792 68.615829 -3.847451
endloop
endfacet
facet normal 0.163886 0.000000 0.986479
outer loop
vertex 1.799710 68.615829 42.438652
vertex 7.368495 68.615829 41.513496
vertex 7.368495 74.838715 41.513496
endloop
endfacet
facet normal 0.163887 0.000000 0.986479
outer loop
vertex 7.368495 74.838715 41.513496
vertex 1.799710 74.838715 42.438652
vertex 1.799710 68.615829 42.438652
endloop
endfacet
facet normal -0.999497 0.000000 -0.031718
outer loop
vertex -28.666447 68.615829 9.975571
vertex -28.845497 68.615829 15.617827
vertex -28.845497 74.838715 15.617827
endloop
endfacet
facet normal -0.999497 0.000000 -0.031718
outer loop
vertex -28.845497 74.838715 15.617827
vertex -28.666447 74.838715 9.975571
vertex -28.666447 68.615829 9.975571
endloop
endfacet
facet normal 0.411793 0.000000 -0.911277
outer loop
vertex 14.260799 68.615829 -11.247346
vertex 9.116522 68.615829 -13.571967
vertex 9.116522 74.838715 -13.571967
endloop
endfacet
facet normal 0.411792 0.000000 -0.911278
outer loop
vertex 9.116522 74.838715 -13.571967
vertex 14.260799 74.838715 -11.247346
vertex 14.260799 68.615829 -11.247346
endloop
endfacet
facet normal 0.528919 0.000000 0.848672
outer loop
vertex 12.649799 68.615829 39.519714
vertex 17.440655 68.615829 36.533905
vertex 17.440655 74.841522 36.533905
endloop
endfacet
facet normal 0.528919 0.000000 0.848672
outer loop
vertex 17.440655 74.841522 36.533905
vertex 12.649799 74.841522 39.519714
vertex 12.649799 68.615829 39.519714
endloop
endfacet
facet normal -0.935553 0.000000 0.353186
outer loop
vertex -27.920345 68.615829 21.186604
vertex -25.926556 68.615829 26.467949
vertex -25.926556 74.838715 26.467949
endloop
endfacet
facet normal -0.935553 0.000000 0.353186
outer loop
vertex -25.926556 74.838715 26.467949
vertex -27.920345 74.838715 21.186604
vertex -27.920345 68.615829 21.186604
endloop
endfacet
facet normal 0.813430 0.000000 0.581662
outer loop
vertex 21.556959 68.615829 32.670830
vertex 24.840504 68.615829 28.078926
vertex 24.840504 74.838715 28.078926
endloop
endfacet
facet normal 0.813431 0.000000 0.581662
outer loop
vertex 24.840504 74.838715 28.078926
vertex 21.556959 74.838715 32.670830
vertex 21.556959 68.615829 32.670830
endloop
endfacet
facet normal -0.163885 0.000000 -0.986479
outer loop
vertex -2.024621 68.615829 -15.027356
vertex -7.593438 68.615829 -14.102201
vertex -7.593438 74.838715 -14.102201
endloop
endfacet
facet normal -0.163885 0.000000 -0.986479
outer loop
vertex -7.593438 74.838715 -14.102201
vertex -2.024621 74.838715 -15.027356
vertex -2.024621 68.615829 -15.027356
endloop
endfacet
facet normal -0.729180 0.000000 0.684322
outer loop
vertex -22.940760 68.615829 31.258762
vertex -19.077665 68.615829 35.375080
vertex -19.077665 74.838715 35.375080
endloop
endfacet
facet normal -0.729179 0.000000 0.684323
outer loop
vertex -19.077665 74.838715 35.375080
vertex -22.940760 74.838715 31.258762
vertex -22.940760 68.615829 31.258762
endloop
endfacet
facet normal 0.974104 0.000000 0.226100
outer loop
vertex 27.165119 68.615829 22.934650
vertex 28.441483 68.615829 17.435711
vertex 28.441483 74.838715 17.435711
endloop
endfacet
facet normal 0.974104 0.000000 0.226100
outer loop
vertex 28.441483 74.838715 17.435711
vertex 27.165119 74.838715 22.934650
vertex 27.165119 68.615829 22.934650
endloop
endfacet
facet normal -0.528920 0.000000 -0.848672
outer loop
vertex -12.874743 68.615829 -12.108449
vertex -17.665596 68.615829 -9.122634
vertex -17.665596 74.838715 -9.122634
endloop
endfacet
facet normal -0.528920 0.000000 -0.848672
outer loop
vertex -17.665596 74.838715 -9.122634
vertex -12.874743 74.838715 -12.108449
vertex -12.874743 68.615829 -12.108449
endloop
endfacet
facet normal -0.411799 0.000000 0.911275
outer loop
vertex -14.485754 68.615829 38.658600
vertex -9.341503 68.615829 40.983257
vertex -9.341503 74.838715 40.983257
endloop
endfacet
facet normal -0.411800 0.000000 0.911274
outer loop
vertex -9.341503 74.838715 40.983257
vertex -14.485754 74.838715 38.658600
vertex -14.485754 68.615829 38.658600
endloop
endfacet
facet normal 0.986479 0.000000 -0.163886
outer loop
vertex 28.620529 68.615829 11.793450
vertex 27.695377 68.615829 6.224670
vertex 27.695377 74.838715 6.224670
endloop
endfacet
facet normal 0.986479 0.000000 -0.163886
outer loop
vertex 27.695377 74.838715 6.224670
vertex 28.620529 74.838715 11.793450
vertex 28.620529 68.615829 11.793450
endloop
endfacet
facet normal -0.813429 0.000000 -0.581665
outer loop
vertex -21.781906 68.615829 -5.259561
vertex -25.065449 68.615829 -0.667688
vertex -25.065449 74.838715 -0.667688
endloop
endfacet
facet normal -0.813429 0.000000 -0.581664
outer loop
vertex -25.065449 74.838715 -0.667688
vertex -21.781906 74.838715 -5.259561
vertex -21.781906 68.615829 -5.259561
endloop
endfacet
facet normal 0.848671 0.000000 -0.528921
outer loop
vertex 25.701586 68.615829 0.943351
vertex 22.715792 68.615829 -3.847451
vertex 22.715792 74.838715 -3.847451
endloop
endfacet
facet normal 0.848671 0.000000 -0.528921
outer loop
vertex 22.715792 74.838715 -3.847451
vertex 25.701586 74.838715 0.943351
vertex 25.701586 68.615829 0.943351
endloop
endfacet
facet normal -0.031715 0.000000 0.999497
outer loop
vertex -3.842590 68.615829 42.259613
vertex 1.799710 68.615829 42.438652
vertex 1.799710 74.838715 42.438652
endloop
endfacet
facet normal -0.031715 0.000000 0.999497
outer loop
vertex 1.799710 74.838715 42.438652
vertex -3.842590 74.838715 42.259613
vertex -3.842590 68.615829 42.259613
endloop
endfacet
facet normal -0.974104 0.000000 -0.226101
outer loop
vertex -27.390076 68.615829 4.476622
vertex -28.666447 68.615829 9.975571
vertex -28.666447 74.838715 9.975571
endloop
endfacet
facet normal -0.974104 0.000000 -0.226101
outer loop
vertex -28.666447 74.838715 9.975571
vertex -27.390076 74.838715 4.476622
vertex -27.390076 68.615829 4.476622
endloop
endfacet
facet normal 0.581666 0.000000 -0.813428
outer loop
vertex 18.852701 68.615829 -7.963767
vertex 14.260799 68.615829 -11.247346
vertex 14.260799 74.838715 -11.247346
endloop
endfacet
facet normal 0.581666 0.000000 -0.813428
outer loop
vertex 14.260799 74.838715 -11.247346
vertex 18.852701 74.838715 -7.963767
vertex 18.852701 68.615829 -7.963767
endloop
endfacet
facet normal 0.353188 0.000000 0.935553
outer loop
vertex 7.368495 68.615829 41.513496
vertex 12.649799 68.615829 39.519714
vertex 12.649799 74.841522 39.519714
endloop
endfacet
facet normal 0.353186 0.000000 0.935553
outer loop
vertex 12.649799 74.841522 39.519714
vertex 7.368495 74.838715 41.513496
vertex 7.368495 68.615829 41.513496
endloop
endfacet
facet normal -0.986479 0.000000 0.163886
outer loop
vertex -28.845497 68.615829 15.617827
vertex -27.920345 68.615829 21.186604
vertex -27.920345 74.838715 21.186604
endloop
endfacet
facet normal -0.986479 0.000000 0.163886
outer loop
vertex -27.920345 74.838715 21.186604
vertex -28.845497 74.838715 15.617827
vertex -28.845497 68.615829 15.617827
endloop
endfacet
facet normal 0.226098 0.000000 -0.974105
outer loop
vertex 9.116522 68.615829 -13.571967
vertex 3.617601 68.615829 -14.848317
vertex 3.617601 74.838715 -14.848317
endloop
endfacet
facet normal 0.226099 0.000000 -0.974104
outer loop
vertex 3.617601 74.838715 -14.848317
vertex 9.116522 74.838715 -13.571967
vertex 9.116522 68.615829 -13.571967
endloop
endfacet
facet normal 0.684322 0.000000 0.729180
outer loop
vertex 17.440655 68.615829 36.533905
vertex 21.556959 68.615829 32.670830
vertex 21.556959 74.838715 32.670830
endloop
endfacet
facet normal 0.684322 0.000000 0.729180
outer loop
vertex 21.556959 74.838715 32.670830
vertex 17.440655 74.841522 36.533905
vertex 17.440655 68.615829 36.533905
endloop
endfacet
facet normal 0.031716 0.000000 -0.999497
outer loop
vertex 3.617601 68.615829 -14.848317
vertex -2.024621 68.615829 -15.027356
vertex -2.024621 74.838715 -15.027356
endloop
endfacet
facet normal 0.031716 -0.000000 -0.999497
outer loop
vertex -2.024621 74.838715 -15.027356
vertex 3.617601 74.838715 -14.848317
vertex 3.617601 68.615829 -14.848317
endloop
endfacet
facet normal -0.848671 0.000000 0.528920
outer loop
vertex -25.926556 68.615829 26.467949
vertex -22.940760 68.615829 31.258762
vertex -22.940760 74.838715 31.258762
endloop
endfacet
facet normal -0.848671 0.000000 0.528921
outer loop
vertex -22.940760 74.838715 31.258762
vertex -25.926556 74.838715 26.467949
vertex -25.926556 68.615829 26.467949
endloop
endfacet
facet normal 0.911278 0.000000 0.411792
outer loop
vertex 24.840504 68.615829 28.078926
vertex 27.165119 68.615829 22.934650
vertex 27.165119 74.838715 22.934650
endloop
endfacet
facet normal 0.911278 0.000000 0.411792
outer loop
vertex 27.165119 74.838715 22.934650
vertex 24.840504 74.838715 28.078926
vertex 24.840504 68.615829 28.078926
endloop
endfacet
facet normal -0.353182 0.000000 -0.935555
outer loop
vertex -7.593438 68.615829 -14.102201
vertex -12.874743 68.615829 -12.108449
vertex -12.874743 74.838715 -12.108449
endloop
endfacet
facet normal -0.353182 0.000000 -0.935555
outer loop
vertex -12.874743 74.838715 -12.108449
vertex -7.593438 74.838715 -14.102201
vertex -7.593438 68.615829 -14.102201
endloop
endfacet
facet normal -0.581659 0.000000 0.813433
outer loop
vertex -19.077665 68.615829 35.375080
vertex -14.485754 68.615829 38.658600
vertex -14.485754 74.838715 38.658600
endloop
endfacet
facet normal -0.581658 0.000000 0.813433
outer loop
vertex -14.485754 74.838715 38.658600
vertex -19.077665 74.838715 35.375080
vertex -19.077665 68.615829 35.375080
endloop
endfacet
facet normal 0.999497 0.000000 0.031717
outer loop
vertex 28.441483 68.615829 17.435711
vertex 28.620529 68.615829 11.793450
vertex 28.620529 74.838715 11.793450
endloop
endfacet
facet normal 0.999497 0.000000 0.031717
outer loop
vertex 28.620529 74.838715 11.793450
vertex 28.441483 74.838715 17.435711
vertex 28.441483 68.615829 17.435711
endloop
endfacet
facet normal 0.528920 0.000000 0.848672
outer loop
vertex -9.738966 74.984848 -5.765746
vertex -13.352673 74.984848 -3.513566
vertex -13.352673 70.711296 -3.513566
endloop
endfacet
facet normal 0.528920 0.000000 0.848672
outer loop
vertex -13.352673 70.711296 -3.513566
vertex -9.738966 70.711296 -5.765746
vertex -9.738966 74.984848 -5.765746
endloop
endfacet
facet normal 0.017609 0.999785 -0.010975
outer loop
vertex 25.701586 74.838715 0.943351
vertex 22.715792 74.838715 -3.847451
vertex 17.106724 74.984848 0.465467
endloop
endfacet
facet normal 0.017609 0.999785 -0.010972
outer loop
vertex 17.106724 74.984848 0.465467
vertex 19.358889 74.984848 4.079136
vertex 25.701586 74.838715 0.943351
endloop
endfacet
facet normal 0.986479 0.000000 -0.163886
outer loop
vertex -21.087757 74.984848 19.348476
vertex -21.785593 74.984848 15.147990
vertex -21.785593 82.223335 15.147990
endloop
endfacet
facet normal 0.986479 0.000000 -0.163886
outer loop
vertex -21.785593 82.223335 15.147990
vertex -21.087757 82.223335 19.348476
vertex -21.087757 74.984848 19.348476
endloop
endfacet
facet normal -0.020212 0.999785 -0.004691
outer loop
vertex -27.390076 74.838715 4.476622
vertex -28.666447 74.838715 9.975571
vertex -21.650536 74.984848 10.892076
endloop
endfacet
facet normal -0.020212 0.999785 -0.004691
outer loop
vertex -21.650536 74.984848 10.892076
vertex -20.687778 74.984848 6.744257
vertex -27.390076 74.838715 4.476622
endloop
endfacet
facet normal -0.581659 0.000000 0.813432
outer loop
vertex -19.077665 74.838715 35.375080
vertex -14.485754 74.838715 38.658600
vertex -14.485754 82.077194 38.658600
endloop
endfacet
facet normal -0.581657 0.000000 0.813434
outer loop
vertex -14.485754 82.077194 38.658600
vertex -19.077665 82.077194 35.375080
vertex -19.077665 74.838715 35.375080
endloop
endfacet
facet normal 0.006881 0.999784 0.019635
outer loop
vertex 7.368495 74.838715 41.513496
vertex 12.649799 74.841522 39.519714
vertex 9.514017 74.987671 33.177017
endloop
endfacet
facet normal 0.006685 0.999786 0.019585
outer loop
vertex 9.514017 74.987671 33.177017
vertex 5.530367 74.984848 34.680912
vertex 7.368495 74.838715 41.513496
endloop
endfacet
facet normal 0.078939 0.000000 -0.996880
outer loop
vertex -28.666447 74.838715 9.975571
vertex -28.666447 82.077194 9.975571
vertex -26.242716 79.643250 10.167497
endloop
endfacet
facet normal 0.078938 0.000000 -0.996879
outer loop
vertex -26.242716 79.643250 10.167497
vertex -26.242716 77.372963 10.167497
vertex -28.666447 74.838715 9.975571
endloop
endfacet
facet normal 0.004691 0.999785 -0.020214
outer loop
vertex 9.116522 74.838715 -13.571967
vertex 3.617601 74.838715 -14.848317
vertex 2.701094 74.984848 -7.832408
endloop
endfacet
facet normal 0.004691 0.999785 -0.020210
outer loop
vertex 2.701094 74.984848 -7.832408
vertex 6.848891 74.984848 -6.869666
vertex 9.116522 74.838715 -13.571967
endloop
endfacet
facet normal 0.031715 0.000000 -0.999497
outer loop
vertex 1.329872 74.984848 35.378750
vertex -2.926075 74.984848 35.243702
vertex -2.926075 82.223335 35.243702
endloop
endfacet
facet normal 0.031716 -0.000000 -0.999497
outer loop
vertex -2.926075 82.223335 35.243702
vertex 1.329872 82.223335 35.378750
vertex 1.329872 74.984848 35.378750
endloop
endfacet
facet normal 0.684321 0.000000 0.729181
outer loop
vertex 17.440655 74.841522 36.533905
vertex 21.556959 74.838715 32.670830
vertex 21.556959 82.077194 32.670830
endloop
endfacet
facet normal 0.684322 0.000000 0.729180
outer loop
vertex 21.556959 82.077194 32.670830
vertex 17.440655 82.077194 36.533905
vertex 17.440655 74.841522 36.533905
endloop
endfacet
facet normal -0.017609 0.999785 0.010975
outer loop
vertex -25.926556 74.838715 26.467949
vertex -22.940760 74.838715 31.258762
vertex -17.331692 74.984848 26.945839
endloop
endfacet
facet normal -0.017609 0.999785 0.010974
outer loop
vertex -17.331692 74.984848 26.945839
vertex -19.583857 74.984848 23.332161
vertex -25.926556 74.838715 26.467949
endloop
endfacet
facet normal 0.018908 0.999785 0.008543
outer loop
vertex 24.840504 74.838715 28.078926
vertex 27.165119 74.838715 22.934650
vertex 20.462822 74.984848 20.667019
endloop
endfacet
facet normal 0.018908 0.999785 0.008544
outer loop
vertex 20.462822 74.984848 20.667019
vertex 18.709379 74.984848 24.547310
vertex 24.840504 74.838715 28.078926
endloop
endfacet
facet normal -0.007328 0.999785 -0.019411
outer loop
vertex -7.593438 74.838715 -14.102201
vertex -12.874743 74.838715 -12.108449
vertex -9.738966 74.984848 -5.765746
endloop
endfacet
facet normal -0.007328 0.999785 -0.019413
outer loop
vertex -9.738966 74.984848 -5.765746
vertex -5.755313 74.984848 -7.269618
vertex -7.593438 74.838715 -14.102201
endloop
endfacet
facet normal 0.965666 0.000000 -0.259787
outer loop
vertex 7.368495 74.838715 41.513496
vertex 5.530367 74.984848 34.680912
vertex 5.530367 82.223335 34.680912
endloop
endfacet
facet normal 0.965666 0.000000 -0.259788
outer loop
vertex 5.530367 82.223335 34.680912
vertex 7.368495 82.077194 41.513496
vertex 7.368495 74.838715 41.513496
endloop
endfacet
facet normal -0.129532 0.000000 0.991575
outer loop
vertex 21.425573 74.984848 16.519207
vertex 28.441483 74.838715 17.435711
vertex 28.441483 82.077194 17.435711
endloop
endfacet
facet normal -0.129532 0.000000 0.991575
outer loop
vertex 28.441483 82.077194 17.435711
vertex 21.425573 82.223335 16.519207
vertex 21.425573 74.984848 16.519207
endloop
endfacet
facet normal 0.656220 0.000000 0.754570
outer loop
vertex 22.715792 74.838715 -3.847451
vertex 22.715792 82.077194 -3.847451
vertex 20.731516 79.446053 -2.121803
endloop
endfacet
facet normal 0.656220 0.000000 0.754569
outer loop
vertex 20.731516 79.446053 -2.121803
vertex 20.731516 77.578293 -2.121803
vertex 22.715792 74.838715 -3.847451
endloop
endfacet
facet normal -0.004691 0.999785 0.020211
outer loop
vertex -9.341503 74.838715 40.983257
vertex -3.842590 74.838715 42.259613
vertex -2.926075 74.984848 35.243702
endloop
endfacet
facet normal -0.004691 0.999785 0.020211
outer loop
vertex -2.926075 74.984848 35.243702
vertex -7.073867 74.984848 34.280956
vertex -9.341503 74.838715 40.983257
endloop
endfacet
facet normal 0.019412 0.999785 -0.007329
outer loop
vertex 27.695377 74.838715 6.224670
vertex 25.701586 74.838715 0.943351
vertex 19.358889 74.984848 4.079136
endloop
endfacet
facet normal 0.019412 0.999785 -0.007329
outer loop
vertex 19.358889 74.984848 4.079136
vertex 20.862791 74.984848 8.062798
vertex 27.695377 74.838715 6.224670
endloop
endfacet
facet normal -0.018908 0.999785 -0.008543
outer loop
vertex -25.065449 74.838715 -0.667688
vertex -27.390076 74.838715 4.476622
vertex -20.687778 74.984848 6.744257
endloop
endfacet
facet normal -0.018908 0.999785 -0.008544
outer loop
vertex -20.687778 74.984848 6.744257
vertex -18.934328 74.984848 2.863940
vertex -25.065449 74.838715 -0.667688
endloop
endfacet
facet normal 0.031716 0.000000 -0.999497
outer loop
vertex 3.617601 74.838715 -14.848317
vertex -2.024621 74.838715 -15.027356
vertex -2.024621 82.077194 -15.027356
endloop
endfacet
facet normal 0.031716 -0.000000 -0.999497
outer loop
vertex -2.024621 82.077194 -15.027356
vertex 3.617601 82.077194 -14.848317
vertex 3.617601 74.838715 -14.848317
endloop
endfacet
facet normal 0.581659 0.000000 -0.813433
outer loop
vertex -10.954140 74.984848 32.527481
vertex -14.417786 74.984848 30.050747
vertex -14.417786 82.223335 30.050747
endloop
endfacet
facet normal 0.581658 0.000000 -0.813433
outer loop
vertex -14.417786 82.223335 30.050747
vertex -10.954140 82.223335 32.527481
vertex -10.954140 74.984848 32.527481
endloop
endfacet
facet normal 0.163886 0.000000 0.986479
outer loop
vertex 1.799710 74.838715 42.438652
vertex 7.368495 74.838715 41.513496
vertex 7.368495 82.077194 41.513496
endloop
endfacet
facet normal 0.163886 -0.000000 0.986479
outer loop
vertex 7.368495 82.077194 41.513496
vertex 1.799710 82.077194 42.438652
vertex 1.799710 74.838715 42.438652
endloop
endfacet
facet normal 0.008544 0.999785 -0.018907
outer loop
vertex 14.260799 74.838715 -11.247346
vertex 9.116522 74.838715 -13.571967
vertex 6.848891 74.984848 -6.869666
endloop
endfacet
facet normal 0.008544 0.999785 -0.018909
outer loop
vertex 6.848891 74.984848 -6.869666
vertex 10.729183 74.984848 -5.116221
vertex 14.260799 74.838715 -11.247346
endloop
endfacet
facet normal 0.010976 0.999785 0.017611
outer loop
vertex 12.649799 74.841522 39.519714
vertex 17.440655 74.841522 36.533905
vertex 13.127726 74.987671 30.924843
endloop
endfacet
facet normal 0.010976 0.999785 0.017611
outer loop
vertex 13.127726 74.987671 30.924843
vertex 9.514017 74.987671 33.177017
vertex 12.649799 74.841522 39.519714
endloop
endfacet
facet normal -0.019412 0.999785 0.007329
outer loop
vertex -27.920345 74.838715 21.186604
vertex -25.926556 74.838715 26.467949
vertex -19.583857 74.984848 23.332161
endloop
endfacet
facet normal -0.019412 0.999785 0.007327
outer loop
vertex -19.583857 74.984848 23.332161
vertex -21.087757 74.984848 19.348476
vertex -27.920345 74.838715 21.186604
endloop
endfacet
facet normal -0.609556 0.000000 -0.792743
outer loop
vertex -17.331692 74.984848 26.945839
vertex -22.940760 74.838715 31.258762
vertex -22.940760 82.077194 31.258762
endloop
endfacet
facet normal -0.609556 0.000000 -0.792743
outer loop
vertex -22.940760 82.077194 31.258762
vertex -17.331692 82.223335 26.945839
vertex -17.331692 74.984848 26.945839
endloop
endfacet
facet normal -0.684322 0.000000 -0.729180
outer loop
vertex 16.232626 74.984848 28.010948
vertex 13.127726 74.987671 30.924843
vertex 13.127726 82.223335 30.924843
endloop
endfacet
facet normal -0.684323 0.000000 -0.729179
outer loop
vertex 13.127726 82.223335 30.924843
vertex 16.232626 82.223335 28.010948
vertex 16.232626 74.984848 28.010948
endloop
endfacet
facet normal 0.999497 0.000000 0.031717
outer loop
vertex 28.441483 74.838715 17.435711
vertex 28.620529 74.838715 11.793450
vertex 28.620529 82.077194 11.793450
endloop
endfacet
facet normal 0.999497 0.000000 0.031717
outer loop
vertex 28.620529 82.077194 11.793450
vertex 28.441483 82.077194 17.435711
vertex 28.441483 74.838715 17.435711
endloop
endfacet
facet normal 0.020212 0.999785 0.004694
outer loop
vertex 27.165119 74.838715 22.934650
vertex 28.441483 74.838715 17.435711
vertex 21.425573 74.984848 16.519207
endloop
endfacet
facet normal 0.020212 0.999785 0.004691
outer loop
vertex 21.425573 74.984848 16.519207
vertex 20.462822 74.984848 20.667019
vertex 27.165119 74.838715 22.934650
endloop
endfacet
facet normal -0.010974 0.999785 -0.017608
outer loop
vertex -12.874743 74.838715 -12.108449
vertex -17.665596 74.838715 -9.122634
vertex -13.352673 74.984848 -3.513566
endloop
endfacet
facet normal -0.010974 0.999785 -0.017609
outer loop
vertex -13.352673 74.984848 -3.513566
vertex -9.738966 74.984848 -5.765746
vertex -12.874743 74.838715 -12.108449
endloop
endfacet
facet normal -0.008544 0.999785 0.018906
outer loop
vertex -14.485754 74.838715 38.658600
vertex -9.341503 74.838715 40.983257
vertex -7.073867 74.984848 34.280956
endloop
endfacet
facet normal -0.008544 0.999785 0.018909
outer loop
vertex -7.073867 74.984848 34.280956
vertex -10.954140 74.984848 32.527481
vertex -14.485754 74.838715 38.658600
endloop
endfacet
facet normal 0.259787 0.000000 0.965666
outer loop
vertex -27.920345 74.838715 21.186604
vertex -21.087757 74.984848 19.348476
vertex -21.087757 82.223335 19.348476
endloop
endfacet
facet normal 0.259786 0.000000 0.965666
outer loop
vertex -21.087757 82.223335 19.348476
vertex -27.920345 82.077194 21.186604
vertex -27.920345 74.838715 21.186604
endloop
endfacet
facet normal 0.000000 1.000000 -0.000009
outer loop
vertex 6.848891 70.711296 -6.869666
vertex 14.192822 70.711296 -2.639441
vertex 10.729183 70.711296 -5.116221
endloop
endfacet
facet normal 0.000000 1.000000 -0.000009
outer loop
vertex 19.358889 70.711296 4.079136
vertex 17.106724 70.711296 0.465467
vertex 14.192822 70.711296 -2.639441
endloop
endfacet
facet normal 0.000000 1.000000 -0.000004
outer loop
vertex 21.560627 70.711296 12.263289
vertex 20.862791 70.711296 8.062798
vertex 19.358889 70.711296 4.079136
endloop
endfacet
facet normal 0.000000 1.000000 -0.000003
outer loop
vertex 20.462822 70.711296 20.667019
vertex 21.425573 70.711296 16.519207
vertex 21.560627 70.711296 12.263289
endloop
endfacet
facet normal 0.000000 1.000000 0.000004
outer loop
vertex 16.232626 70.711296 28.010948
vertex 18.709379 70.711296 24.547310
vertex 20.462822 70.711296 20.667019
endloop
endfacet
facet normal -0.001793 0.999994 -0.002864
outer loop
vertex 9.514017 70.714111 33.177017
vertex 13.127726 70.714111 30.924843
vertex 16.232626 70.711296 28.010948
endloop
endfacet
facet normal 0.000555 0.999994 0.003348
outer loop
vertex 1.329872 70.711296 35.378750
vertex 5.530368 70.711296 34.680912
vertex 9.514017 70.714111 33.177017
endloop
endfacet
facet normal 0.000000 1.000000 -0.000035
outer loop
vertex -7.073867 70.711296 34.280956
vertex -2.926075 70.711296 35.243702
vertex 1.329872 70.711296 35.378750
endloop
endfacet
facet normal 0.000000 1.000000 0.000000
outer loop
vertex -14.417786 70.711296 30.050747
vertex -10.954140 70.711296 32.527481
vertex -7.073867 70.711296 34.280956
endloop
endfacet
facet normal 0.000000 1.000000 -0.000009
outer loop
vertex -19.583857 70.711296 23.332161
vertex -17.331692 70.711296 26.945839
vertex -14.417786 70.711296 30.050747
endloop
endfacet
facet normal 0.000000 1.000000 0.000000
outer loop
vertex -21.785593 70.711296 15.147990
vertex -21.087757 70.711296 19.348476
vertex -19.583857 70.711296 23.332161
endloop
endfacet
facet normal 0.000000 1.000000 0.000000
outer loop
vertex -20.687778 70.711296 6.744257
vertex -21.650536 70.711296 10.892076
vertex -21.785593 70.711296 15.147990
endloop
endfacet
facet normal 0.000000 1.000000 0.000004
outer loop
vertex -16.457575 70.711296 -0.599677
vertex -18.934328 70.711296 2.863940
vertex -20.687778 70.711296 6.744257
endloop
endfacet
facet normal 0.000000 1.000000 0.000000
outer loop
vertex -9.738966 70.711296 -5.765746
vertex -13.352673 70.711296 -3.513566
vertex -16.457575 70.711296 -0.599677
endloop
endfacet
facet normal 0.000000 1.000000 0.000017
outer loop
vertex -1.554794 70.711296 -7.967456
vertex -5.755313 70.711296 -7.269618
vertex -9.738966 70.711296 -5.765746
endloop
endfacet
facet normal 0.000000 1.000000 0.000017
outer loop
vertex 6.848891 70.711296 -6.869666
vertex 2.701094 70.711296 -7.832408
vertex -1.554794 70.711296 -7.967456
endloop
endfacet
facet normal 0.000000 1.000000 0.000000
outer loop
vertex 6.848891 70.711296 -6.869666
vertex 19.358889 70.711296 4.079136
vertex 14.192822 70.711296 -2.639441
endloop
endfacet
facet normal 0.000000 1.000000 0.000000
outer loop
vertex 20.462822 70.711296 20.667019
vertex 21.560627 70.711296 12.263289
vertex 19.358889 70.711296 4.079136
endloop
endfacet
facet normal 0.000752 1.000000 0.000435
outer loop
vertex 9.514017 70.714111 33.177017
vertex 16.232626 70.711296 28.010948
vertex 20.462822 70.711296 20.667019
endloop
endfacet
facet normal -0.000112 1.000000 0.000870
outer loop
vertex -7.073867 70.711296 34.280956
vertex 1.329872 70.711296 35.378750
vertex 9.514017 70.714111 33.177017
endloop
endfacet
facet normal 0.000000 1.000000 0.000000
outer loop
vertex -19.583857 70.711296 23.332161
vertex -14.417786 70.711296 30.050747
vertex -7.073867 70.711296 34.280956
endloop
endfacet
facet normal 0.000000 1.000000 0.000000
outer loop
vertex -20.687778 70.711296 6.744257
vertex -21.785593 70.711296 15.147990
vertex -19.583857 70.711296 23.332161
endloop
endfacet
facet normal 0.000000 1.000000 0.000000
outer loop
vertex -9.738966 70.711296 -5.765746
vertex -16.457575 70.711296 -0.599677
vertex -20.687778 70.711296 6.744257
endloop
endfacet
facet normal 0.000000 1.000000 -0.000004
outer loop
vertex 6.848891 70.711296 -6.869666
vertex -1.554794 70.711296 -7.967456
vertex -9.738966 70.711296 -5.765746
endloop
endfacet
facet normal 0.000000 1.000000 0.000000
outer loop
vertex 6.848891 70.711296 -6.869666
vertex 20.462822 70.711296 20.667019
vertex 19.358889 70.711296 4.079136
endloop
endfacet
facet normal -0.000196 1.000000 -0.000398
outer loop
vertex -7.073867 70.711296 34.280956
vertex 9.514017 70.714111 33.177017
vertex 20.462822 70.711296 20.667019
endloop
endfacet
facet normal 0.000000 1.000000 0.000000
outer loop
vertex -20.687778 70.711296 6.744257
vertex -19.583857 70.711296 23.332161
vertex -7.073867 70.711296 34.280956
endloop
endfacet
facet normal 0.000000 1.000000 -0.000001
outer loop
vertex 6.848891 70.711296 -6.869666
vertex -9.738966 70.711296 -5.765746
vertex -20.687778 70.711296 6.744257
endloop
endfacet
facet normal 0.000000 1.000000 0.000000
outer loop
vertex 6.848891 70.711296 -6.869666
vertex -7.073867 70.711296 34.280956
vertex 20.462822 70.711296 20.667019
endloop
endfacet
facet normal 0.000000 1.000000 0.000000
outer loop
vertex 6.848891 70.711296 -6.869666
vertex -20.687778 70.711296 6.744257
vertex -7.073867 70.711296 34.280956
endloop
endfacet
facet normal 0.411799 0.000000 -0.911275
outer loop
vertex -10.954140 74.984848 32.527481
vertex -7.073867 74.984848 34.280956
vertex -7.073867 70.711296 34.280956
endloop
endfacet
facet normal 0.411802 0.000000 -0.911273
outer loop
vertex -7.073867 70.711296 34.280956
vertex -10.954140 70.711296 32.527481
vertex -10.954140 74.984848 32.527481
endloop
endfacet
facet normal -0.986479 0.000000 0.163886
outer loop
vertex 21.560627 74.984848 12.263289
vertex 20.862791 74.984848 8.062798
vertex 20.862791 70.711296 8.062798
endloop
endfacet
facet normal -0.986479 0.000000 0.163885
outer loop
vertex 20.862791 70.711296 8.062798
vertex 21.560627 70.711296 12.263289
vertex 21.560627 74.984848 12.263289
endloop
endfacet
facet normal 0.813428 0.000000 0.581665
outer loop
vertex -16.457575 74.984848 -0.599677
vertex -18.934328 74.984848 2.863940
vertex -18.934328 70.711296 2.863940
endloop
endfacet
facet normal 0.813430 0.000000 0.581663
outer loop
vertex -18.934328 70.711296 2.863940
vertex -16.457575 70.711296 -0.599677
vertex -16.457575 74.984848 -0.599677
endloop
endfacet
facet normal -0.848671 0.000000 0.528922
outer loop
vertex 19.358889 74.984848 4.079136
vertex 17.106724 74.984848 0.465467
vertex 17.106724 70.711296 0.465467
endloop
endfacet
facet normal -0.848671 0.000000 0.528921
outer loop
vertex 17.106724 70.711296 0.465467
vertex 19.358889 70.711296 4.079136
vertex 19.358889 74.984848 4.079136
endloop
endfacet
facet normal 0.031716 0.000000 -0.999497
outer loop
vertex -2.926075 74.984848 35.243702
vertex 1.329872 74.984848 35.378750
vertex 1.329872 70.711296 35.378750
endloop
endfacet
facet normal 0.031717 0.000000 -0.999497
outer loop
vertex 1.329872 70.711296 35.378750
vertex -2.926075 70.711296 35.243702
vertex -2.926075 74.984848 35.243702
endloop
endfacet
facet normal 0.974104 0.000000 0.226101
outer loop
vertex -20.687778 74.984848 6.744257
vertex -21.650536 74.984848 10.892076
vertex -21.650536 70.711296 10.892076
endloop
endfacet
facet normal 0.974104 0.000000 0.226100
outer loop
vertex -21.650536 70.711296 10.892076
vertex -20.687778 70.711296 6.744257
vertex -20.687778 74.984848 6.744257
endloop
endfacet
facet normal -0.581665 0.000000 0.813428
outer loop
vertex 14.192822 74.984848 -2.639441
vertex 10.729183 74.984848 -5.116221
vertex 10.729183 70.711296 -5.116221
endloop
endfacet
facet normal -0.581666 0.000000 0.813427
outer loop
vertex 10.729183 70.711296 -5.116221
vertex 14.192822 70.711296 -2.639441
vertex 14.192822 74.984848 -2.639441
endloop
endfacet
facet normal -0.353187 0.000000 -0.935553
outer loop
vertex 5.530367 74.984848 34.680912
vertex 9.514017 74.987671 33.177017
vertex 9.514017 70.714111 33.177017
endloop
endfacet
facet normal -0.353187 0.000000 -0.935553
outer loop
vertex 9.514017 70.714111 33.177017
vertex 5.530368 70.711296 34.680912
vertex 5.530367 74.984848 34.680912
endloop
endfacet
facet normal 0.986479 0.000000 -0.163886
outer loop
vertex -21.785593 74.984848 15.147990
vertex -21.087757 74.984848 19.348476
vertex -21.087757 70.711296 19.348476
endloop
endfacet
facet normal 0.986479 0.000000 -0.163886
outer loop
vertex -21.087757 70.711296 19.348476
vertex -21.785593 70.711296 15.147990
vertex -21.785593 74.984848 15.147990
endloop
endfacet
facet normal -0.226099 0.000000 0.974104
outer loop
vertex 6.848891 74.984848 -6.869666
vertex 2.701094 74.984848 -7.832408
vertex 2.701094 70.711296 -7.832408
endloop
endfacet
facet normal -0.226098 -0.000000 0.974104
outer loop
vertex 2.701094 70.711296 -7.832408
vertex 6.848891 70.711296 -6.869666
vertex 6.848891 74.984848 -6.869666
endloop
endfacet
facet normal -0.684323 0.000000 -0.729179
outer loop
vertex 13.127726 74.987671 30.924843
vertex 16.232626 74.984848 28.010948
vertex 16.232626 70.711296 28.010948
endloop
endfacet
facet normal -0.684322 0.000000 -0.729180
outer loop
vertex 16.232626 70.711296 28.010948
vertex 13.127726 70.714111 30.924843
vertex 13.127726 74.987671 30.924843
endloop
endfacet
facet normal -0.031716 -0.000000 0.999497
outer loop
vertex 2.701094 74.984848 -7.832408
vertex -1.554794 74.984848 -7.967456
vertex -1.554794 70.711296 -7.967456
endloop
endfacet
facet normal -0.031716 -0.000000 0.999497
outer loop
vertex -1.554794 70.711296 -7.967456
vertex 2.701094 70.711296 -7.832408
vertex 2.701094 74.984848 -7.832408
endloop
endfacet
facet normal 0.848671 0.000000 -0.528921
outer loop
vertex -19.583857 74.984848 23.332161
vertex -17.331692 74.984848 26.945839
vertex -17.331692 70.711296 26.945839
endloop
endfacet
facet normal 0.848672 0.000000 -0.528920
outer loop
vertex -17.331692 70.711296 26.945839
vertex -19.583857 70.711296 23.332161
vertex -19.583857 74.984848 23.332161
endloop
endfacet
facet normal -0.911277 0.000000 -0.411793
outer loop
vertex 18.709379 74.984848 24.547310
vertex 20.462822 74.984848 20.667019
vertex 20.462822 70.711296 20.667019
endloop
endfacet
facet normal -0.911278 0.000000 -0.411791
outer loop
vertex 20.462822 70.711296 20.667019
vertex 18.709379 70.711296 24.547310
vertex 18.709379 74.984848 24.547310
endloop
endfacet
facet normal 0.353181 0.000000 0.935555
outer loop
vertex -5.755313 74.984848 -7.269618
vertex -9.738966 74.984848 -5.765746
vertex -9.738966 70.711296 -5.765746
endloop
endfacet
facet normal 0.353183 0.000000 0.935554
outer loop
vertex -9.738966 70.711296 -5.765746
vertex -5.755313 70.711296 -7.269618
vertex -5.755313 74.984848 -7.269618
endloop
endfacet
facet normal 0.581656 0.000000 -0.813434
outer loop
vertex -14.417786 74.984848 30.050747
vertex -10.954140 74.984848 32.527481
vertex -10.954140 70.711296 32.527481
endloop
endfacet
facet normal 0.581659 0.000000 -0.813433
outer loop
vertex -10.954140 70.711296 32.527481
vertex -14.417786 70.711296 30.050747
vertex -14.417786 74.984848 30.050747
endloop
endfacet
facet normal -0.999497 0.000000 -0.031717
outer loop
vertex 21.425573 74.984848 16.519207
vertex 21.560627 74.984848 12.263289
vertex 21.560627 70.711296 12.263289
endloop
endfacet
facet normal -0.999497 0.000000 -0.031717
outer loop
vertex 21.560627 70.711296 12.263289
vertex 21.425573 70.711296 16.519207
vertex 21.425573 74.984848 16.519207
endloop
endfacet
facet normal 0.684321 0.000000 0.729181
outer loop
vertex -13.352673 74.984848 -3.513566
vertex -16.457575 74.984848 -0.599677
vertex -16.457575 70.711296 -0.599677
endloop
endfacet
facet normal 0.684323 0.000000 0.729180
outer loop
vertex -16.457575 70.711296 -0.599677
vertex -13.352673 70.711296 -3.513566
vertex -13.352673 74.984848 -3.513566
endloop
endfacet
facet normal 0.226098 0.000000 -0.974105
outer loop
vertex -7.073867 74.984848 34.280956
vertex -2.926075 74.984848 35.243702
vertex -2.926075 70.711296 35.243702
endloop
endfacet
facet normal 0.226100 0.000000 -0.974104
outer loop
vertex -2.926075 70.711296 35.243702
vertex -7.073867 70.711296 34.280956
vertex -7.073867 74.984848 34.280956
endloop
endfacet
facet normal -0.935552 0.000000 0.353188
outer loop
vertex 20.862791 74.984848 8.062798
vertex 19.358889 74.984848 4.079136
vertex 19.358889 70.711296 4.079136
endloop
endfacet
facet normal -0.935553 0.000000 0.353187
outer loop
vertex 19.358889 70.711296 4.079136
vertex 20.862791 70.711296 8.062798
vertex 20.862791 74.984848 8.062798
endloop
endfacet
facet normal 0.911278 0.000000 0.411792
outer loop
vertex -18.934328 74.984848 2.863940
vertex -20.687778 74.984848 6.744257
vertex -20.687778 70.711296 6.744257
endloop
endfacet
facet normal 0.911278 0.000000 0.411791
outer loop
vertex -20.687778 70.711296 6.744257
vertex -18.934328 70.711296 2.863940
vertex -18.934328 74.984848 2.863940
endloop
endfacet
facet normal -0.729179 0.000000 0.684323
outer loop
vertex 17.106724 74.984848 0.465467
vertex 14.192822 74.984848 -2.639441
vertex 14.192822 70.711296 -2.639441
endloop
endfacet
facet normal -0.729180 0.000000 0.684322
outer loop
vertex 14.192822 70.711296 -2.639441
vertex 17.106724 70.711296 0.465467
vertex 17.106724 74.984848 0.465467
endloop
endfacet
facet normal -0.163885 -0.000000 -0.986479
outer loop
vertex 1.329872 74.984848 35.378750
vertex 5.530367 74.984848 34.680912
vertex 5.530368 70.711296 34.680912
endloop
endfacet
facet normal -0.163887 -0.000000 -0.986479
outer loop
vertex 5.530368 70.711296 34.680912
vertex 1.329872 70.711296 35.378750
vertex 1.329872 74.984848 35.378750
endloop
endfacet
facet normal 0.999497 0.000000 0.031718
outer loop
vertex -21.650536 74.984848 10.892076
vertex -21.785593 74.984848 15.147990
vertex -21.785593 70.711296 15.147990
endloop
endfacet
facet normal 0.999497 0.000000 0.031718
outer loop
vertex -21.785593 70.711296 15.147990
vertex -21.650536 70.711296 10.892076
vertex -21.650536 74.984848 10.892076
endloop
endfacet
facet normal -0.411792 -0.000000 0.911278
outer loop
vertex 10.729183 74.984848 -5.116221
vertex 6.848891 74.984848 -6.869666
vertex 6.848891 70.711296 -6.869666
endloop
endfacet
facet normal -0.411792 0.000000 0.911278
outer loop
vertex 6.848891 70.711296 -6.869666
vertex 10.729183 70.711296 -5.116221
vertex 10.729183 74.984848 -5.116221
endloop
endfacet
facet normal -0.528918 0.000000 -0.848673
outer loop
vertex 9.514017 74.987671 33.177017
vertex 13.127726 74.987671 30.924843
vertex 13.127726 70.714111 30.924843
endloop
endfacet
facet normal -0.528920 0.000000 -0.848671
outer loop
vertex 13.127726 70.714111 30.924843
vertex 9.514017 70.714111 33.177017
vertex 9.514017 74.987671 33.177017
endloop
endfacet
facet normal 0.935553 0.000000 -0.353185
outer loop
vertex -21.087757 74.984848 19.348476
vertex -19.583857 74.984848 23.332161
vertex -19.583857 70.711296 23.332161
endloop
endfacet
facet normal 0.935553 0.000000 -0.353185
outer loop
vertex -19.583857 70.711296 23.332161
vertex -21.087757 70.711296 19.348476
vertex -21.087757 74.984848 19.348476
endloop
endfacet
facet normal -0.813430 0.000000 -0.581663
outer loop
vertex 16.232626 74.984848 28.010948
vertex 18.709379 74.984848 24.547310
vertex 18.709379 70.711296 24.547310
endloop
endfacet
facet normal -0.813432 0.000000 -0.581661
outer loop
vertex 18.709379 70.711296 24.547310
vertex 16.232626 70.711296 28.010948
vertex 16.232626 74.984848 28.010948
endloop
endfacet
facet normal 0.163885 0.000000 0.986480
outer loop
vertex -1.554794 74.984848 -7.967456
vertex -5.755313 74.984848 -7.269618
vertex -5.755313 70.711296 -7.269618
endloop
endfacet
facet normal 0.163885 0.000000 0.986479
outer loop
vertex -5.755313 70.711296 -7.269618
vertex -1.554794 70.711296 -7.967456
vertex -1.554794 74.984848 -7.967456
endloop
endfacet
facet normal 0.729179 0.000000 -0.684323
outer loop
vertex -17.331692 74.984848 26.945839
vertex -14.417786 74.984848 30.050747
vertex -14.417786 70.711296 30.050747
endloop
endfacet
facet normal 0.729180 0.000000 -0.684322
outer loop
vertex -14.417786 70.711296 30.050747
vertex -17.331692 70.711296 26.945839
vertex -17.331692 74.984848 26.945839
endloop
endfacet
facet normal -0.974104 0.000000 -0.226100
outer loop
vertex 20.462822 74.984848 20.667019
vertex 21.425573 74.984848 16.519207
vertex 21.425573 70.711296 16.519207
endloop
endfacet
facet normal -0.974104 0.000000 -0.226100
outer loop
vertex 21.425573 70.711296 16.519207
vertex 20.462822 70.711296 20.667019
vertex 20.462822 74.984848 20.667019
endloop
endfacet
facet normal -0.049625 0.997760 0.044857
outer loop
vertex -25.065449 82.077194 -0.667688
vertex -18.934328 82.223335 2.863940
vertex -19.944052 82.278564 0.518799
endloop
endfacet
facet normal -0.049626 0.997760 0.044867
outer loop
vertex -19.944052 82.278564 0.518799
vertex -22.273031 82.223053 -0.822732
vertex -25.065449 82.077194 -0.667688
endloop
endfacet
facet normal -0.000658 0.999785 0.020741
outer loop
vertex -3.842590 82.077194 42.259613
vertex 1.799710 82.077194 42.438652
vertex 1.329872 82.223335 35.378750
endloop
endfacet
facet normal -0.000658 0.999785 0.020739
outer loop
vertex 1.329872 82.223335 35.378750
vertex -2.926075 82.223335 35.243702
vertex -3.842590 82.077194 42.259613
endloop
endfacet
facet normal -0.065798 0.995928 -0.061635
outer loop
vertex 14.260799 82.077194 -11.247346
vertex 10.729183 82.223335 -5.116221
vertex 13.016943 82.313492 -6.101653
endloop
endfacet
facet normal -0.065791 0.995928 -0.061638
outer loop
vertex 13.016943 82.313492 -6.101653
vertex 14.412470 82.255737 -8.524382
vertex 14.260799 82.077194 -11.247346
endloop
endfacet
facet normal -0.020469 0.999785 0.003402
outer loop
vertex -28.845497 82.077194 15.617827
vertex -27.920345 82.077194 21.186604
vertex -21.087757 82.223335 19.348476
endloop
endfacet
facet normal -0.020469 0.999785 0.003403
outer loop
vertex -21.087757 82.223335 19.348476
vertex -21.785593 82.223335 15.147990
vertex -28.845497 82.077194 15.617827
endloop
endfacet
facet normal 0.094702 0.992517 -0.077075
outer loop
vertex 21.556959 82.077194 32.670830
vertex 16.232626 82.223335 28.010948
vertex 16.756212 82.363602 30.460400
endloop
endfacet
facet normal 0.094703 0.992517 -0.077085
outer loop
vertex 16.756212 82.363602 30.460400
vertex 18.843418 82.306313 32.287132
vertex 21.556959 82.077194 32.670830
endloop
endfacet
facet normal 0.000658 0.999785 -0.020741
outer loop
vertex 3.617601 82.077194 -14.848317
vertex -2.024621 82.077194 -15.027356
vertex -1.554794 82.223335 -7.967456
endloop
endfacet
facet normal 0.000658 0.999785 -0.020739
outer loop
vertex -1.554794 82.223335 -7.967456
vertex 2.701094 82.223335 -7.832408
vertex 3.617601 82.077194 -14.848317
endloop
endfacet
facet normal -0.012069 0.999785 0.016878
outer loop
vertex -19.077665 82.077194 35.375080
vertex -14.485754 82.077194 38.658600
vertex -10.954140 82.223335 32.527481
endloop
endfacet
facet normal -0.012069 0.999785 0.016878
outer loop
vertex -10.954140 82.223335 32.527481
vertex -14.417786 82.223335 30.050747
vertex -19.077665 82.077194 35.375080
endloop
endfacet
facet normal 0.020740 0.999785 0.000657
outer loop
vertex 28.441483 82.077194 17.435711
vertex 28.620529 82.077194 11.793450
vertex 21.560627 82.223335 12.263289
endloop
endfacet
facet normal 0.020739 0.999785 0.000659
outer loop
vertex 21.560627 82.223335 12.263289
vertex 21.425573 82.223335 16.519207
vertex 28.441483 82.077194 17.435711
endloop
endfacet
facet normal -0.014200 0.999785 -0.015130
outer loop
vertex -17.665596 82.077194 -9.122634
vertex -21.781906 82.077194 -5.259561
vertex -16.457575 82.223335 -0.599677
endloop
endfacet
facet normal -0.014200 0.999785 -0.015130
outer loop
vertex -16.457575 82.223335 -0.599677
vertex -13.352673 82.223335 -3.513566
vertex -17.665596 82.077194 -9.122634
endloop
endfacet
facet normal 0.015130 0.999785 -0.014202
outer loop
vertex 22.715792 82.077194 -3.847451
vertex 18.852701 82.077194 -7.963767
vertex 14.192822 82.223335 -2.639441
endloop
endfacet
facet normal 0.015130 0.999785 -0.014198
outer loop
vertex 14.192822 82.223335 -2.639441
vertex 17.106724 82.223335 0.465467
vertex 22.715792 82.077194 -3.847451
endloop
endfacet
facet normal 0.082793 0.996566 -0.000954
outer loop
vertex 7.368495 82.077194 41.513496
vertex 5.530367 82.223335 34.680912
vertex 4.691076 82.295090 36.790047
endloop
endfacet
facet normal 0.082794 0.996566 -0.000959
outer loop
vertex 4.691076 82.295090 36.790047
vertex 5.515965 82.229507 39.856274
vertex 7.368495 82.077194 41.513496
endloop
endfacet
facet normal -0.020739 0.999785 -0.000657
outer loop
vertex -28.666447 82.077194 9.975571
vertex -28.845497 82.077194 15.617827
vertex -21.785593 82.223335 15.147990
endloop
endfacet
facet normal -0.020739 0.999785 -0.000655
outer loop
vertex -21.785593 82.223335 15.147990
vertex -21.650536 82.223335 10.892076
vertex -28.666447 82.077194 9.975571
endloop
endfacet
facet normal 0.016879 0.999785 0.012069
outer loop
vertex 21.556959 82.077194 32.670830
vertex 24.840504 82.077194 28.078926
vertex 18.709379 82.223335 24.547310
endloop
endfacet
facet normal 0.016879 0.999785 0.012067
outer loop
vertex 18.709379 82.223335 24.547310
vertex 16.232626 82.223335 28.010948
vertex 21.556959 82.077194 32.670830
endloop
endfacet
facet normal -0.003401 0.999785 -0.020470
outer loop
vertex -2.024621 82.077194 -15.027356
vertex -7.593438 82.077194 -14.102201
vertex -5.755313 82.223335 -7.269618
endloop
endfacet
facet normal -0.003401 0.999785 -0.020468
outer loop
vertex -5.755313 82.223335 -7.269618
vertex -1.554794 82.223335 -7.967456
vertex -2.024621 82.077194 -15.027356
endloop
endfacet
facet normal -0.015130 0.999785 0.014202
outer loop
vertex -22.940760 82.077194 31.258762
vertex -19.077665 82.077194 35.375080
vertex -14.417786 82.223335 30.050747
endloop
endfacet
facet normal -0.015130 0.999785 0.014198
outer loop
vertex -14.417786 82.223335 30.050747
vertex -17.331692 82.223335 26.945839
vertex -22.940760 82.077194 31.258762
endloop
endfacet
facet normal 0.020469 0.999785 -0.003402
outer loop
vertex 28.620529 82.077194 11.793450
vertex 27.695377 82.077194 6.224670
vertex 20.862791 82.223335 8.062798
endloop
endfacet
facet normal 0.020469 0.999785 -0.003399
outer loop
vertex 20.862791 82.223335 8.062798
vertex 21.560627 82.223335 12.263289
vertex 28.620529 82.077194 11.793450
endloop
endfacet
facet normal 0.499132 0.000000 -0.866526
outer loop
vertex 24.840504 74.838715 28.078926
vertex 18.709379 74.984848 24.547310
vertex 18.709379 82.223335 24.547310
endloop
endfacet
facet normal 0.499131 0.000000 -0.866527
outer loop
vertex 18.709379 82.223335 24.547310
vertex 24.840504 82.077194 28.078926
vertex 24.840504 74.838715 28.078926
endloop
endfacet
facet normal -0.998737 0.000000 -0.050252
outer loop
vertex -3.842590 74.838715 42.259613
vertex -3.842590 82.077194 42.259613
vertex -3.719429 79.628281 39.811832
endloop
endfacet
facet normal -0.998737 0.000000 -0.050252
outer loop
vertex -3.719429 79.628281 39.811832
vertex -3.719429 77.388550 39.811832
vertex -3.842590 74.838715 42.259613
endloop
endfacet
facet normal 0.729179 0.000000 -0.684323
outer loop
vertex -14.417786 74.984848 30.050747
vertex -17.331692 74.984848 26.945839
vertex -17.331692 82.223335 26.945839
endloop
endfacet
facet normal 0.729179 0.000000 -0.684323
outer loop
vertex -17.331692 82.223335 26.945839
vertex -14.417786 82.223335 30.050747
vertex -14.417786 74.984848 30.050747
endloop
endfacet
facet normal -0.581666 0.000000 0.813428
outer loop
vertex 10.729183 74.984848 -5.116221
vertex 14.192822 74.984848 -2.639441
vertex 14.192822 82.223335 -2.639441
endloop
endfacet
facet normal -0.581667 0.000000 0.813427
outer loop
vertex 14.192822 82.223335 -2.639441
vertex 10.729183 82.223335 -5.116221
vertex 10.729183 74.984848 -5.116221
endloop
endfacet
facet normal -0.031715 0.000000 0.999497
outer loop
vertex -3.842590 74.838715 42.259613
vertex 1.799710 74.838715 42.438652
vertex 1.799710 82.077194 42.438652
endloop
endfacet
facet normal -0.031715 0.000000 0.999497
outer loop
vertex 1.799710 82.077194 42.438652
vertex -3.842590 82.077194 42.259613
vertex -3.842590 74.838715 42.259613
endloop
endfacet
facet normal -0.986479 0.000000 0.163886
outer loop
vertex -28.845497 74.838715 15.617827
vertex -27.920345 74.838715 21.186604
vertex -27.920345 82.077194 21.186604
endloop
endfacet
facet normal -0.986479 0.000000 0.163886
outer loop
vertex -27.920345 82.077194 21.186604
vertex -28.845497 82.077194 15.617827
vertex -28.845497 74.838715 15.617827
endloop
endfacet
facet normal 0.813428 0.000000 0.581665
outer loop
vertex -18.934328 74.984848 2.863940
vertex -16.457575 74.984848 -0.599677
vertex -16.457575 82.223335 -0.599677
endloop
endfacet
facet normal 0.813429 0.000000 0.581664
outer loop
vertex -16.457575 82.223335 -0.599677
vertex -18.934328 82.223335 2.863940
vertex -18.934328 74.984848 2.863940
endloop
endfacet
facet normal -0.499134 0.000000 0.866525
outer loop
vertex -25.065449 74.838715 -0.667688
vertex -18.934328 74.984848 2.863940
vertex -18.934328 82.223335 2.863940
endloop
endfacet
facet normal -0.499132 0.000000 0.866526
outer loop
vertex -18.934328 82.223335 2.863940
vertex -25.065449 82.077194 -0.667688
vertex -25.065449 74.838715 -0.667688
endloop
endfacet
facet normal -0.729179 0.000000 0.684323
outer loop
vertex -22.940760 74.838715 31.258762
vertex -19.077665 74.838715 35.375080
vertex -19.077665 82.077194 35.375080
endloop
endfacet
facet normal -0.729180 0.000000 0.684322
outer loop
vertex -19.077665 82.077194 35.375080
vertex -22.940760 82.077194 31.258762
vertex -22.940760 74.838715 31.258762
endloop
endfacet
facet normal 0.999497 0.000000 0.031718
outer loop
vertex -21.785593 74.984848 15.147990
vertex -21.650536 74.984848 10.892076
vertex -21.650536 82.223335 10.892076
endloop
endfacet
facet normal 0.999497 0.000000 0.031718
outer loop
vertex -21.650536 82.223335 10.892076
vertex -21.785593 82.223335 15.147990
vertex -21.785593 74.984848 15.147990
endloop
endfacet
facet normal 0.581667 0.000000 -0.813427
outer loop
vertex 18.852701 74.838715 -7.963767
vertex 14.260799 74.838715 -11.247346
vertex 14.260799 82.077194 -11.247346
endloop
endfacet
facet normal 0.581666 0.000000 -0.813428
outer loop
vertex 14.260799 82.077194 -11.247346
vertex 18.852701 82.077194 -7.963767
vertex 18.852701 74.838715 -7.963767
endloop
endfacet
facet normal -0.986479 0.000000 0.163886
outer loop
vertex 20.862791 74.984848 8.062798
vertex 21.560627 74.984848 12.263289
vertex 21.560627 82.223335 12.263289
endloop
endfacet
facet normal -0.986479 0.000000 0.163886
outer loop
vertex 21.560627 82.223335 12.263289
vertex 20.862791 82.223335 8.062798
vertex 20.862791 74.984848 8.062798
endloop
endfacet
facet normal 0.991575 0.000000 0.129532
outer loop
vertex 2.701094 74.984848 -7.832408
vertex 3.617601 74.838715 -14.848317
vertex 3.617601 82.077194 -14.848317
endloop
endfacet
facet normal 0.991575 -0.000000 0.129532
outer loop
vertex 3.617601 82.077194 -14.848317
vertex 2.701094 82.223335 -7.832408
vertex 2.701094 74.984848 -7.832408
endloop
endfacet
facet normal 0.163885 0.000000 0.986480
outer loop
vertex -5.755313 74.984848 -7.269618
vertex -1.554794 74.984848 -7.967456
vertex -1.554794 82.223335 -7.967456
endloop
endfacet
facet normal 0.163886 0.000000 0.986479
outer loop
vertex -1.554794 82.223335 -7.967456
vertex -5.755313 82.223335 -7.269618
vertex -5.755313 74.984848 -7.269618
endloop
endfacet
facet normal -0.813429 0.000000 -0.581664
outer loop
vertex -21.781906 74.838715 -5.259561
vertex -25.065449 74.838715 -0.667688
vertex -25.065449 82.077194 -0.667688
endloop
endfacet
facet normal -0.813429 0.000000 -0.581665
outer loop
vertex -25.065449 82.077194 -0.667688
vertex -21.781906 82.077194 -5.259561
vertex -21.781906 74.838715 -5.259561
endloop
endfacet
facet normal -0.729180 0.000000 0.684322
outer loop
vertex 14.192822 74.984848 -2.639441
vertex 17.106724 74.984848 0.465467
vertex 17.106724 82.223335 0.465467
endloop
endfacet
facet normal -0.729180 0.000000 0.684322
outer loop
vertex 17.106724 82.223335 0.465467
vertex 14.192822 82.223335 -2.639441
vertex 14.192822 74.984848 -2.639441
endloop
endfacet
facet normal 0.792743 0.000000 -0.609556
outer loop
vertex -13.352673 74.984848 -3.513566
vertex -17.665596 74.838715 -9.122634
vertex -17.665596 82.077194 -9.122634
endloop
endfacet
facet normal 0.792742 0.000000 -0.609557
outer loop
vertex -17.665596 82.077194 -9.122634
vertex -13.352673 82.223335 -3.513566
vertex -13.352673 74.984848 -3.513566
endloop
endfacet
facet normal 0.986479 0.000000 -0.163886
outer loop
vertex 28.620529 74.838715 11.793450
vertex 27.695377 74.838715 6.224670
vertex 27.695377 82.077194 6.224670
endloop
endfacet
facet normal 0.986479 0.000000 -0.163886
outer loop
vertex 27.695377 82.077194 6.224670
vertex 28.620529 82.077194 11.793450
vertex 28.620529 74.838715 11.793450
endloop
endfacet
facet normal -0.813430 0.000000 -0.581663
outer loop
vertex 18.709379 74.984848 24.547310
vertex 16.232626 74.984848 28.010948
vertex 16.232626 82.223335 28.010948
endloop
endfacet
facet normal -0.813431 0.000000 -0.581661
outer loop
vertex 16.232626 82.223335 28.010948
vertex 18.709379 82.223335 24.547310
vertex 18.709379 74.984848 24.547310
endloop
endfacet
facet normal -0.999497 0.000000 -0.031718
outer loop
vertex -28.666447 74.838715 9.975571
vertex -28.845497 74.838715 15.617827
vertex -28.845497 82.077194 15.617827
endloop
endfacet
facet normal -0.999497 0.000000 -0.031718
outer loop
vertex -28.845497 82.077194 15.617827
vertex -28.666447 82.077194 9.975571
vertex -28.666447 74.838715 9.975571
endloop
endfacet
facet normal 0.684321 0.000000 0.729181
outer loop
vertex -16.457575 74.984848 -0.599677
vertex -13.352673 74.984848 -3.513566
vertex -13.352673 82.223335 -3.513566
endloop
endfacet
facet normal 0.684321 0.000000 0.729180
outer loop
vertex -13.352673 82.223335 -3.513566
vertex -16.457575 82.223335 -0.599677
vertex -16.457575 74.984848 -0.599677
endloop
endfacet
facet normal -0.163885 0.000000 -0.986480
outer loop
vertex -2.024621 74.838715 -15.027356
vertex -7.593438 74.838715 -14.102201
vertex -7.593438 82.077194 -14.102201
endloop
endfacet
facet normal -0.163885 0.000000 -0.986480
outer loop
vertex -7.593438 82.077194 -14.102201
vertex -2.024621 82.077194 -15.027356
vertex -2.024621 74.838715 -15.027356
endloop
endfacet
facet normal 0.866526 0.000000 0.499132
outer loop
vertex -14.485754 74.838715 38.658600
vertex -10.954140 74.984848 32.527481
vertex -10.954140 82.223335 32.527481
endloop
endfacet
facet normal 0.866526 0.000000 0.499133
outer loop
vertex -10.954140 82.223335 32.527481
vertex -14.485754 82.077194 38.658600
vertex -14.485754 74.838715 38.658600
endloop
endfacet
facet normal -0.866526 0.000000 -0.499131
outer loop
vertex 14.260799 74.838715 -11.247346
vertex 10.729183 74.984848 -5.116221
vertex 10.729183 82.223335 -5.116221
endloop
endfacet
facet normal -0.866526 0.000000 -0.499133
outer loop
vertex 10.729183 82.223335 -5.116221
vertex 14.260799 82.077194 -11.247346
vertex 14.260799 74.838715 -11.247346
endloop
endfacet
facet normal 0.729180 0.000000 -0.684322
outer loop
vertex 22.715792 74.838715 -3.847451
vertex 18.852701 74.838715 -7.963767
vertex 18.852701 82.077194 -7.963767
endloop
endfacet
facet normal 0.729180 0.000000 -0.684322
outer loop
vertex 18.852701 82.077194 -7.963767
vertex 22.715792 82.077194 -3.847451
vertex 22.715792 74.838715 -3.847451
endloop
endfacet
facet normal -0.999497 0.000000 -0.031717
outer loop
vertex 21.560627 74.984848 12.263289
vertex 21.425573 74.984848 16.519207
vertex 21.425573 82.223335 16.519207
endloop
endfacet
facet normal -0.999497 0.000000 -0.031717
outer loop
vertex 21.425573 82.223335 16.519207
vertex 21.560627 82.223335 12.263289
vertex 21.560627 74.984848 12.263289
endloop
endfacet
facet normal -0.792743 0.000000 0.609556
outer loop
vertex 13.127726 74.987671 30.924843
vertex 17.440655 74.841522 36.533905
vertex 17.440655 82.077194 36.533905
endloop
endfacet
facet normal -0.792742 0.000000 0.609558
outer loop
vertex 17.440655 82.077194 36.533905
vertex 13.127726 82.223335 30.924843
vertex 13.127726 74.987671 30.924843
endloop
endfacet
facet normal 0.813431 0.000000 0.581662
outer loop
vertex 21.556959 74.838715 32.670830
vertex 24.840504 74.838715 28.078926
vertex 24.840504 82.077194 28.078926
endloop
endfacet
facet normal 0.813430 0.000000 0.581662
outer loop
vertex 24.840504 82.077194 28.078926
vertex 21.556959 82.077194 32.670830
vertex 21.556959 74.838715 32.670830
endloop
endfacet
facet normal -0.163885 0.000000 -0.986479
outer loop
vertex 5.530367 74.984848 34.680912
vertex 1.329872 74.984848 35.378750
vertex 1.329872 82.223335 35.378750
endloop
endfacet
facet normal -0.163886 0.000000 -0.986479
outer loop
vertex 1.329872 82.223335 35.378750
vertex 5.530367 82.223335 34.680912
vertex 5.530367 74.984848 34.680912
endloop
endfacet
facet normal -0.684321 0.000000 -0.729181
outer loop
vertex -17.665596 74.838715 -9.122634
vertex -21.781906 74.838715 -5.259561
vertex -21.781906 82.077194 -5.259561
endloop
endfacet
facet normal -0.684321 0.000000 -0.729181
outer loop
vertex -21.781906 82.077194 -5.259561
vertex -17.665596 82.077194 -9.122634
vertex -17.665596 74.838715 -9.122634
endloop
endfacet
facet normal -0.031716 0.000000 0.999497
outer loop
vertex -1.554794 74.984848 -7.967456
vertex 2.701094 74.984848 -7.832408
vertex 2.701094 82.223335 -7.832408
endloop
endfacet
facet normal -0.031716 0.000000 0.999497
outer loop
vertex 2.701094 82.223335 -7.832408
vertex -1.554794 82.223335 -7.967456
vertex -1.554794 74.984848 -7.967456
endloop
endfacet
facet normal -0.965666 0.000000 0.259787
outer loop
vertex -7.593438 74.838715 -14.102201
vertex -5.755313 74.984848 -7.269618
vertex -5.755313 82.223335 -7.269618
endloop
endfacet
facet normal -0.965666 0.000000 0.259787
outer loop
vertex -5.755313 82.223335 -7.269618
vertex -7.593438 82.077194 -14.102201
vertex -7.593438 74.838715 -14.102201
endloop
endfacet
facet normal 0.014200 0.999785 0.015129
outer loop
vertex 17.229774 82.306313 33.801502
vertex 18.843418 82.306313 32.287132
vertex 16.756212 82.363602 30.460400
endloop
endfacet
facet normal 0.014200 0.999785 0.015131
outer loop
vertex 16.756212 82.363602 30.460400
vertex 15.539053 82.363602 31.602680
vertex 17.229774 82.306313 33.801502
endloop
endfacet
facet normal -0.082929 0.992518 0.089620
outer loop
vertex 13.127726 82.223335 30.924843
vertex 17.440655 82.077194 36.533905
vertex 17.229774 82.306313 33.801502
endloop
endfacet
facet normal -0.082928 0.992516 0.089642
outer loop
vertex 17.229774 82.306313 33.801502
vertex 15.539053 82.363602 31.602680
vertex 13.127726 82.223335 30.924843
endloop
endfacet
facet normal -0.044667 0.997867 -0.047602
outer loop
vertex 16.232626 82.223335 28.010948
vertex 13.127726 82.223335 30.924843
vertex 15.539053 82.363602 31.602680
endloop
endfacet
facet normal -0.044666 0.997868 -0.047589
outer loop
vertex 15.539053 82.363602 31.602680
vertex 16.756212 82.363602 30.460400
vertex 16.232626 82.223335 28.010948
endloop
endfacet
facet normal 0.072961 0.994300 0.077748
outer loop
vertex 17.440655 82.077194 36.533905
vertex 21.556959 82.077194 32.670830
vertex 18.843418 82.306313 32.287132
endloop
endfacet
facet normal 0.072960 0.994300 0.077744
outer loop
vertex 18.843418 82.306313 32.287132
vertex 17.229774 82.306313 33.801502
vertex 17.440655 82.077194 36.533905
endloop
endfacet
facet normal -0.991575 0.000000 -0.129532
outer loop
vertex -3.435842 77.433769 37.640972
vertex -3.719429 77.388550 39.811832
vertex -3.719429 79.628281 39.811832
endloop
endfacet
facet normal -0.991575 0.000000 -0.129534
outer loop
vertex -3.719429 79.628281 39.811832
vertex -3.435842 79.673500 37.640972
vertex -3.435842 77.433769 37.640972
endloop
endfacet
facet normal -0.978130 0.000000 -0.207994
outer loop
vertex -2.926075 82.223335 35.243702
vertex -2.926075 74.984848 35.243702
vertex -3.435842 77.433769 37.640972
endloop
endfacet
facet normal -0.978130 0.000000 -0.207994
outer loop
vertex -3.435842 77.433769 37.640972
vertex -3.435842 79.673500 37.640972
vertex -2.926075 82.223335 35.243702
endloop
endfacet
facet normal -0.988779 0.077761 -0.127548
outer loop
vertex -3.842590 82.077194 42.259613
vertex -2.926075 82.223335 35.243702
vertex -3.435842 79.673500 37.640972
endloop
endfacet
facet normal -0.988779 0.077761 -0.127549
outer loop
vertex -3.435842 79.673500 37.640972
vertex -3.719429 79.628281 39.811832
vertex -3.842590 82.077194 42.259613
endloop
endfacet
facet normal -0.988363 -0.077761 -0.130734
outer loop
vertex -2.926075 74.984848 35.243702
vertex -3.842590 74.838715 42.259613
vertex -3.719429 77.388550 39.811832
endloop
endfacet
facet normal -0.988363 -0.077761 -0.130733
outer loop
vertex -3.719429 77.388550 39.811832
vertex -3.435842 77.433769 37.640972
vertex -2.926075 74.984848 35.243702
endloop
endfacet
facet normal 0.012071 0.999785 -0.016883
outer loop
vertex 16.226971 82.255737 -7.226868
vertex 14.412470 82.255737 -8.524382
vertex 13.016943 82.313492 -6.101653
endloop
endfacet
facet normal 0.012071 0.999785 -0.016879
outer loop
vertex 13.016943 82.313492 -6.101653
vertex 14.385609 82.313492 -5.122948
vertex 16.226971 82.255737 -7.226868
endloop
endfacet
facet normal 0.079600 0.995928 0.042326
outer loop
vertex 14.192822 82.223335 -2.639441
vertex 18.852701 82.077194 -7.963767
vertex 16.226971 82.255737 -7.226868
endloop
endfacet
facet normal 0.079608 0.995927 0.042338
outer loop
vertex 16.226971 82.255737 -7.226868
vertex 14.385609 82.313492 -5.122948
vertex 14.192822 82.223335 -2.639441
endloop
endfacet
facet normal -0.024572 0.999107 0.034366
outer loop
vertex 10.729183 82.223335 -5.116221
vertex 14.192822 82.223335 -2.639441
vertex 14.385609 82.313492 -5.122948
endloop
endfacet
facet normal -0.024572 0.999108 0.034351
outer loop
vertex 14.385609 82.313492 -5.122948
vertex 13.016943 82.313492 -6.101653
vertex 10.729183 82.223335 -5.116221
endloop
endfacet
facet normal 0.048661 0.996495 -0.068049
outer loop
vertex 18.852701 82.077194 -7.963767
vertex 14.260799 82.077194 -11.247346
vertex 14.412470 82.255737 -8.524382
endloop
endfacet
facet normal 0.048661 0.996494 -0.068052
outer loop
vertex 14.412470 82.255737 -8.524382
vertex 16.226971 82.255737 -7.226868
vertex 18.852701 82.077194 -7.963767
endloop
endfacet
facet normal 0.609556 0.000000 0.792743
outer loop
vertex 19.284193 77.615997 -1.008930
vertex 20.731516 77.578293 -2.121803
vertex 20.731516 79.446053 -2.121803
endloop
endfacet
facet normal 0.609555 0.000000 0.792744
outer loop
vertex 20.731516 79.446053 -2.121803
vertex 19.284193 79.483765 -1.008930
vertex 19.284193 77.615997 -1.008930
endloop
endfacet
facet normal 0.560676 0.000000 0.828035
outer loop
vertex 17.106724 82.223335 0.465467
vertex 17.106724 74.984848 0.465467
vertex 19.284193 77.615997 -1.008930
endloop
endfacet
facet normal 0.560677 0.000000 0.828034
outer loop
vertex 19.284193 77.615997 -1.008930
vertex 19.284193 79.483765 -1.008930
vertex 17.106724 82.223335 0.465467
endloop
endfacet
facet normal 0.609459 0.058909 0.790626
outer loop
vertex 22.715792 82.077194 -3.847451
vertex 17.106724 82.223335 0.465467
vertex 19.284193 79.483765 -1.008930
endloop
endfacet
facet normal 0.609464 0.058911 0.790622
outer loop
vertex 19.284193 79.483765 -1.008930
vertex 20.731516 79.446053 -2.121803
vertex 22.715792 82.077194 -3.847451
endloop
endfacet
facet normal 0.607533 -0.058910 0.792107
outer loop
vertex 17.106724 74.984848 0.465467
vertex 22.715792 74.838715 -3.847451
vertex 20.731516 77.578293 -2.121803
endloop
endfacet
facet normal 0.607528 -0.058908 0.792111
outer loop
vertex 20.731516 77.578293 -2.121803
vertex 19.284193 77.615997 -1.008930
vertex 17.106724 74.984848 0.465467
endloop
endfacet
facet normal 0.000000 -1.000000 -0.000010
outer loop
vertex 9.116522 68.615829 -13.571967
vertex -2.024621 68.615829 -15.027356
vertex 3.617601 68.615829 -14.848317
endloop
endfacet
facet normal 0.000000 -1.000000 0.000020
outer loop
vertex -12.874743 68.615829 -12.108449
vertex -7.593438 68.615829 -14.102201
vertex -2.024621 68.615829 -15.027356
endloop
endfacet
facet normal 0.000000 -1.000000 0.000000
outer loop
vertex -21.781906 68.615829 -5.259561
vertex -17.665596 68.615829 -9.122634
vertex -12.874743 68.615829 -12.108449
endloop
endfacet
facet normal 0.000000 -1.000000 0.000000
outer loop
vertex -27.390076 68.615829 4.476622
vertex -25.065449 68.615829 -0.667688
vertex -21.781906 68.615829 -5.259561
endloop
endfacet
facet normal 0.000000 -1.000000 0.000000
outer loop
vertex -28.845497 68.615829 15.617827
vertex -28.666447 68.615829 9.975571
vertex -27.390076 68.615829 4.476622
endloop
endfacet
facet normal 0.000000 -1.000000 -0.000004
outer loop
vertex -25.926556 68.615829 26.467949
vertex -27.920345 68.615829 21.186604
vertex -28.845497 68.615829 15.617827
endloop
endfacet
facet normal 0.000000 -1.000000 0.000000
outer loop
vertex -19.077665 68.615829 35.375080
vertex -22.940760 68.615829 31.258762
vertex -25.926556 68.615829 26.467949
endloop
endfacet
facet normal 0.000000 -1.000000 -0.000010
outer loop
vertex -9.341503 68.615829 40.983257
vertex -14.485754 68.615829 38.658600
vertex -19.077665 68.615829 35.375080
endloop
endfacet
facet normal 0.000000 -1.000000 -0.000020
outer loop
vertex 1.799710 68.615829 42.438652
vertex -3.842590 68.615829 42.259613
vertex -9.341503 68.615829 40.983257
endloop
endfacet
facet normal 0.000000 -1.000000 0.000010
outer loop
vertex 12.649799 68.615829 39.519714
vertex 7.368495 68.615829 41.513496
vertex 1.799710 68.615829 42.438652
endloop
endfacet
facet normal 0.000000 -1.000000 -0.000010
outer loop
vertex 21.556959 68.615829 32.670830
vertex 17.440655 68.615829 36.533905
vertex 12.649799 68.615829 39.519714
endloop
endfacet
facet normal 0.000000 -1.000000 -0.000005
outer loop
vertex 27.165119 68.615829 22.934650
vertex 24.840504 68.615829 28.078926
vertex 21.556959 68.615829 32.670830
endloop
endfacet
facet normal 0.000000 -1.000000 -0.000002
outer loop
vertex 28.620529 68.615829 11.793450
vertex 28.441483 68.615829 17.435711
vertex 27.165119 68.615829 22.934650
endloop
endfacet
facet normal 0.000000 -1.000000 -0.000001
outer loop
vertex 25.701586 68.615829 0.943351
vertex 27.695377 68.615829 6.224670
vertex 28.620529 68.615829 11.793450
endloop
endfacet
facet normal 0.000000 -1.000000 0.000000
outer loop
vertex 18.852701 68.615829 -7.963767
vertex 22.715792 68.615829 -3.847451
vertex 25.701586 68.615829 0.943351
endloop
endfacet
facet normal 0.000000 -1.000000 0.000000
outer loop
vertex 9.116522 68.615829 -13.571967
vertex 14.260799 68.615829 -11.247346
vertex 18.852701 68.615829 -7.963767
endloop
endfacet
facet normal 0.000000 -1.000000 0.000000
outer loop
vertex 9.116522 68.615829 -13.571967
vertex -12.874743 68.615829 -12.108449
vertex -2.024621 68.615829 -15.027356
endloop
endfacet
facet normal 0.000000 -1.000000 0.000000
outer loop
vertex -27.390076 68.615829 4.476622
vertex -21.781906 68.615829 -5.259561
vertex -12.874743 68.615829 -12.108449
endloop
endfacet
facet normal 0.000000 -1.000000 0.000000
outer loop
vertex -25.926556 68.615829 26.467949
vertex -28.845497 68.615829 15.617827
vertex -27.390076 68.615829 4.476622
endloop
endfacet
facet normal 0.000000 -1.000000 -0.000001
outer loop
vertex -9.341503 68.615829 40.983257
vertex -19.077665 68.615829 35.375080
vertex -25.926556 68.615829 26.467949
endloop
endfacet
facet normal 0.000000 -1.000000 0.000003
outer loop
vertex 12.649799 68.615829 39.519714
vertex 1.799710 68.615829 42.438652
vertex -9.341503 68.615829 40.983257
endloop
endfacet
facet normal 0.000000 -1.000000 0.000003
outer loop
vertex 27.165119 68.615829 22.934650
vertex 21.556959 68.615829 32.670830
vertex 12.649799 68.615829 39.519714
endloop
endfacet
facet normal 0.000000 -1.000000 0.000000
outer loop
vertex 25.701586 68.615829 0.943351
vertex 28.620529 68.615829 11.793450
vertex 27.165119 68.615829 22.934650
endloop
endfacet
facet normal 0.000000 -1.000000 0.000000
outer loop
vertex 9.116522 68.615829 -13.571967
vertex 18.852701 68.615829 -7.963767
vertex 25.701586 68.615829 0.943351
endloop
endfacet
facet normal 0.000000 -1.000000 0.000001
outer loop
vertex 9.116522 68.615829 -13.571967
vertex -27.390076 68.615829 4.476622
vertex -12.874743 68.615829 -12.108449
endloop
endfacet
facet normal 0.000000 -1.000000 0.000001
outer loop
vertex -9.341503 68.615829 40.983257
vertex -25.926556 68.615829 26.467949
vertex -27.390076 68.615829 4.476622
endloop
endfacet
facet normal 0.000000 -1.000000 0.000000
outer loop
vertex 27.165119 68.615829 22.934650
vertex 12.649799 68.615829 39.519714
vertex -9.341503 68.615829 40.983257
endloop
endfacet
facet normal 0.000000 -1.000000 -0.000000
outer loop
vertex 9.116522 68.615829 -13.571967
vertex 25.701586 68.615829 0.943351
vertex 27.165119 68.615829 22.934650
endloop
endfacet
facet normal 0.000000 -1.000000 -0.000000
outer loop
vertex 9.116522 68.615829 -13.571967
vertex -9.341503 68.615829 40.983257
vertex -27.390076 68.615829 4.476622
endloop
endfacet
facet normal 0.000000 -1.000000 0.000000
outer loop
vertex 9.116522 68.615829 -13.571967
vertex 27.165119 68.615829 22.934650
vertex -9.341503 68.615829 40.983257
endloop
endfacet
facet normal -0.016878 0.999785 -0.012070
outer loop
vertex -21.025738 82.223053 -2.567010
vertex -22.273031 82.223053 -0.822732
vertex -19.944052 82.278564 0.518799
endloop
endfacet
facet normal -0.016878 0.999785 -0.012067
outer loop
vertex -19.944052 82.278564 0.518799
vertex -19.003227 82.278564 -0.796897
vertex -21.025738 82.223053 -2.567010
endloop
endfacet
facet normal 0.026410 0.997760 -0.061459
outer loop
vertex -16.457575 82.223335 -0.599677
vertex -21.781906 82.077194 -5.259561
vertex -21.025738 82.223053 -2.567010
endloop
endfacet
facet normal 0.026409 0.997759 -0.061481
outer loop
vertex -21.025738 82.223053 -2.567010
vertex -19.003227 82.278564 -0.796897
vertex -16.457575 82.223335 -0.599677
endloop
endfacet
facet normal 0.020550 0.999681 0.014694
outer loop
vertex -18.934328 82.223335 2.863940
vertex -16.457575 82.223335 -0.599677
vertex -19.003227 82.278564 -0.796897
endloop
endfacet
facet normal 0.020550 0.999681 0.014698
outer loop
vertex -19.003227 82.278564 -0.796897
vertex -19.944052 82.278564 0.518799
vertex -18.934328 82.223335 2.863940
endloop
endfacet
facet normal -0.054272 0.997772 -0.038810
outer loop
vertex -21.781906 82.077194 -5.259561
vertex -25.065449 82.077194 -0.667688
vertex -22.273031 82.223053 -0.822732
endloop
endfacet
facet normal -0.054272 0.997772 -0.038808
outer loop
vertex -22.273031 82.223053 -0.822732
vertex -21.025738 82.223053 -2.567010
vertex -21.781906 82.077194 -5.259561
endloop
endfacet
facet normal 0.129532 0.000000 -0.991575
outer loop
vertex -24.042234 77.418793 10.454951
vertex -26.242716 77.372963 10.167497
vertex -26.242716 79.643250 10.167497
endloop
endfacet
facet normal 0.129532 0.000000 -0.991575
outer loop
vertex -26.242716 79.643250 10.167497
vertex -24.042234 79.689087 10.454951
vertex -24.042234 77.418793 10.454951
endloop
endfacet
facet normal 0.179789 0.000000 -0.983705
outer loop
vertex -21.650536 82.223335 10.892076
vertex -21.650536 74.984848 10.892076
vertex -24.042234 77.418793 10.454951
endloop
endfacet
facet normal 0.179790 0.000000 -0.983705
outer loop
vertex -24.042234 77.418793 10.454951
vertex -24.042234 79.689087 10.454951
vertex -21.650536 82.223335 10.892076
endloop
endfacet
facet normal 0.128353 0.049711 -0.990482
outer loop
vertex -28.666447 82.077194 9.975571
vertex -21.650536 82.223335 10.892076
vertex -24.042234 79.689087 10.454951
endloop
endfacet
facet normal 0.128354 0.049712 -0.990482
outer loop
vertex -24.042234 79.689087 10.454951
vertex -26.242716 79.643250 10.167497
vertex -28.666447 82.077194 9.975571
endloop
endfacet
facet normal 0.130390 -0.049712 -0.990216
outer loop
vertex -21.650536 74.984848 10.892076
vertex -28.666447 74.838715 9.975571
vertex -26.242716 77.372963 10.167497
endloop
endfacet
facet normal 0.130390 -0.049711 -0.990216
outer loop
vertex -26.242716 77.372963 10.167497
vertex -24.042234 77.418793 10.454951
vertex -21.650536 74.984848 10.892076
endloop
endfacet
facet normal 0.003401 0.999785 0.020469
outer loop
vertex 3.016887 82.229507 40.271450
vertex 5.515965 82.229507 39.856274
vertex 4.691076 82.295090 36.790047
endloop
endfacet
facet normal 0.003401 0.999785 0.020467
outer loop
vertex 4.691076 82.295090 36.790047
vertex 2.806040 82.295090 37.103210
vertex 3.016887 82.229507 40.271450
endloop
endfacet
facet normal -0.078656 0.996566 0.025863
outer loop
vertex 1.329872 82.223335 35.378750
vertex 1.799710 82.077194 42.438652
vertex 3.016887 82.229507 40.271450
endloop
endfacet
facet normal -0.078655 0.996566 0.025867
outer loop
vertex 3.016887 82.229507 40.271450
vertex 2.806040 82.295090 37.103210
vertex 1.329872 82.223335 35.378750
endloop
endfacet
facet normal -0.006048 0.999319 -0.036410
outer loop
vertex 5.530367 82.223335 34.680912
vertex 1.329872 82.223335 35.378750
vertex 2.806040 82.295090 37.103210
endloop
endfacet
facet normal -0.006048 0.999319 -0.036399
outer loop
vertex 2.806040 82.295090 37.103210
vertex 4.691076 82.295090 36.790047
vertex 5.530367 82.223335 34.680912
endloop
endfacet
facet normal 0.012838 0.996927 0.077276
outer loop
vertex 1.799710 82.077194 42.438652
vertex 7.368495 82.077194 41.513496
vertex 5.515965 82.229507 39.856274
endloop
endfacet
facet normal 0.012838 0.996927 0.077273
outer loop
vertex 5.515965 82.229507 39.856274
vertex 3.016887 82.229507 40.271450
vertex 1.799710 82.077194 42.438652
endloop
endfacet
endsolid Exported from Blender-2.74 (sub 0)
