solid Exported from Blender-2.74 (sub 0)
facet normal 0.549010 0.000000 0.835816
outer loop
vertex -156.923859 -45.264954 5.424026
vertex -156.923859 -75.264954 5.424026
vertex -154.211761 -75.264954 3.642570
endloop
endfacet
facet normal 0.549010 0.000000 0.835816
outer loop
vertex -154.211761 -75.264954 3.642570
vertex -154.211761 -45.264954 3.642570
vertex -156.923859 -45.264954 5.424026
endloop
endfacet
facet normal 0.835817 0.000000 0.549008
outer loop
vertex -152.430313 -75.264954 0.930473
vertex -152.430313 -45.264954 0.930473
vertex -154.211761 -45.264954 3.642570
endloop
endfacet
facet normal 0.835817 0.000000 0.549008
outer loop
vertex -154.211761 -45.264954 3.642570
vertex -154.211761 -75.264954 3.642570
vertex -152.430313 -75.264954 0.930473
endloop
endfacet
facet normal 0.187364 0.000000 0.982290
outer loop
vertex -159.868622 -45.264954 5.985718
vertex -159.868622 -75.264954 5.985718
vertex -156.923859 -75.264954 5.424026
endloop
endfacet
facet normal 0.187364 0.000000 0.982290
outer loop
vertex -156.923859 -75.264954 5.424026
vertex -156.923859 -45.264954 5.424026
vertex -159.868622 -45.264954 5.985718
endloop
endfacet
facet normal 0.187365 0.000000 -0.982290
outer loop
vertex -156.923859 -45.264954 -9.452591
vertex -156.923859 -75.264954 -9.452591
vertex -159.868622 -75.264954 -10.014282
endloop
endfacet
facet normal 0.187364 0.000000 -0.982291
outer loop
vertex -159.868622 -75.264954 -10.014282
vertex -159.868622 -45.264954 -10.014282
vertex -156.923859 -45.264954 -9.452591
endloop
endfacet
facet normal 0.000000 1.000000 0.000000
outer loop
vertex -159.868622 -45.264954 5.985718
vertex -156.923859 -45.264954 5.424026
vertex -154.211761 -45.264954 3.642570
endloop
endfacet
facet normal 0.000002 1.000000 0.000008
outer loop
vertex -159.868622 -45.264954 -10.014282
vertex -162.813385 -45.264950 -9.452591
vertex -165.525482 -45.264950 -7.671135
endloop
endfacet
facet normal 0.000000 1.000000 0.000000
outer loop
vertex -154.211761 -45.264954 -7.671135
vertex -159.868622 -45.264954 -10.014282
vertex -165.525482 -45.264950 -7.671135
endloop
endfacet
facet normal 0.000000 1.000000 0.000000
outer loop
vertex -165.525482 -45.264950 -7.671135
vertex -154.211761 -45.264954 3.642570
vertex -154.211761 -45.264954 -7.671135
endloop
endfacet
facet normal 0.000000 1.000000 0.000000
outer loop
vertex -151.868622 -45.264954 -2.014282
vertex -152.430313 -45.264954 -4.959038
vertex -154.211761 -45.264954 -7.671135
endloop
endfacet
facet normal 0.000000 1.000000 -0.000001
outer loop
vertex -165.525482 -45.264950 -7.671135
vertex -167.306931 -45.264950 -4.959038
vertex -167.868622 -45.264950 -2.014282
endloop
endfacet
facet normal 0.000000 1.000000 0.000000
outer loop
vertex -154.211761 -45.264954 3.642570
vertex -151.868622 -45.264954 -2.014282
vertex -154.211761 -45.264954 -7.671135
endloop
endfacet
facet normal 0.000000 1.000000 0.000000
outer loop
vertex -165.525482 -45.264950 -7.671135
vertex -167.868622 -45.264950 -2.014282
vertex -165.525482 -45.264950 3.642570
endloop
endfacet
facet normal 0.000000 1.000000 -0.000002
outer loop
vertex -154.211761 -45.264954 3.642570
vertex -152.430313 -45.264954 0.930473
vertex -151.868622 -45.264954 -2.014282
endloop
endfacet
facet normal 0.000000 1.000000 0.000000
outer loop
vertex -154.211761 -45.264954 3.642570
vertex -165.525482 -45.264950 -7.671135
vertex -165.525482 -45.264950 3.642570
endloop
endfacet
facet normal 0.000000 1.000000 0.000000
outer loop
vertex -165.525482 -45.264950 3.642570
vertex -159.868622 -45.264954 5.985718
vertex -154.211761 -45.264954 3.642570
endloop
endfacet
facet normal 0.000002 1.000000 -0.000016
outer loop
vertex -162.813385 -45.264950 5.424026
vertex -159.868622 -45.264954 5.985718
vertex -165.525482 -45.264950 3.642570
endloop
endfacet
facet normal 0.000000 1.000000 0.000000
outer loop
vertex -154.211761 -45.264954 -7.671135
vertex -156.923859 -45.264954 -9.452591
vertex -159.868622 -45.264954 -10.014282
endloop
endfacet
facet normal 0.000000 1.000000 0.000000
outer loop
vertex -167.868622 -45.264950 -2.014282
vertex -167.306931 -45.264950 0.930473
vertex -165.525482 -45.264950 3.642570
endloop
endfacet
facet normal 0.982290 0.000000 0.187365
outer loop
vertex -152.430313 -45.264954 0.930473
vertex -152.430313 -75.264954 0.930473
vertex -151.868622 -75.264954 -2.014282
endloop
endfacet
facet normal 0.982290 0.000000 0.187365
outer loop
vertex -151.868622 -75.264954 -2.014282
vertex -151.868622 -45.264954 -2.014282
vertex -152.430313 -45.264954 0.930473
endloop
endfacet
facet normal -0.187364 0.000000 0.982290
outer loop
vertex -162.813385 -45.264950 5.424026
vertex -162.813385 -75.264954 5.424026
vertex -159.868622 -75.264954 5.985718
endloop
endfacet
facet normal -0.187365 0.000000 0.982290
outer loop
vertex -159.868622 -75.264954 5.985718
vertex -159.868622 -45.264954 5.985718
vertex -162.813385 -45.264950 5.424026
endloop
endfacet
facet normal -0.835817 0.000000 0.549008
outer loop
vertex -167.306931 -45.264950 0.930473
vertex -167.306931 -75.264954 0.930473
vertex -165.525482 -75.264954 3.642570
endloop
endfacet
facet normal -0.835817 0.000000 0.549008
outer loop
vertex -165.525482 -75.264954 3.642570
vertex -165.525482 -45.264950 3.642570
vertex -167.306931 -45.264950 0.930473
endloop
endfacet
facet normal -0.549010 0.000000 0.835816
outer loop
vertex -165.525482 -45.264950 3.642570
vertex -165.525482 -75.264954 3.642570
vertex -162.813385 -75.264954 5.424026
endloop
endfacet
facet normal -0.549010 0.000000 0.835816
outer loop
vertex -162.813385 -75.264954 5.424026
vertex -162.813385 -45.264950 5.424026
vertex -165.525482 -45.264950 3.642570
endloop
endfacet
facet normal -0.982290 0.000000 0.187365
outer loop
vertex -167.868622 -45.264950 -2.014282
vertex -167.868622 -75.264954 -2.014282
vertex -167.306931 -75.264954 0.930473
endloop
endfacet
facet normal -0.982290 0.000000 0.187365
outer loop
vertex -167.306931 -75.264954 0.930473
vertex -167.306931 -45.264950 0.930473
vertex -167.868622 -45.264950 -2.014282
endloop
endfacet
facet normal -0.835817 0.000000 -0.549008
outer loop
vertex -165.525482 -45.264950 -7.671135
vertex -165.525482 -75.264954 -7.671135
vertex -167.306931 -75.264954 -4.959038
endloop
endfacet
facet normal -0.835817 0.000000 -0.549008
outer loop
vertex -167.306931 -75.264954 -4.959038
vertex -167.306931 -45.264950 -4.959038
vertex -165.525482 -45.264950 -7.671135
endloop
endfacet
facet normal -0.187364 0.000000 -0.982291
outer loop
vertex -159.868622 -45.264954 -10.014282
vertex -159.868622 -75.264954 -10.014282
vertex -162.813385 -75.264954 -9.452591
endloop
endfacet
facet normal -0.187365 0.000000 -0.982290
outer loop
vertex -162.813385 -75.264954 -9.452591
vertex -162.813385 -45.264950 -9.452591
vertex -159.868622 -45.264954 -10.014282
endloop
endfacet
facet normal -0.549010 0.000000 -0.835816
outer loop
vertex -162.813385 -45.264950 -9.452591
vertex -162.813385 -75.264954 -9.452591
vertex -165.525482 -75.264954 -7.671135
endloop
endfacet
facet normal -0.549010 0.000000 -0.835816
outer loop
vertex -165.525482 -75.264954 -7.671135
vertex -165.525482 -45.264950 -7.671135
vertex -162.813385 -45.264950 -9.452591
endloop
endfacet
facet normal 0.549010 0.000000 -0.835816
outer loop
vertex -154.211761 -45.264954 -7.671135
vertex -154.211761 -75.264954 -7.671135
vertex -156.923859 -75.264954 -9.452591
endloop
endfacet
facet normal 0.549010 0.000000 -0.835816
outer loop
vertex -156.923859 -75.264954 -9.452591
vertex -156.923859 -45.264954 -9.452591
vertex -154.211761 -45.264954 -7.671135
endloop
endfacet
facet normal 0.982290 0.000000 -0.187365
outer loop
vertex -151.868622 -45.264954 -2.014282
vertex -151.868622 -75.264954 -2.014282
vertex -152.430313 -75.264954 -4.959038
endloop
endfacet
facet normal 0.982290 0.000000 -0.187365
outer loop
vertex -152.430313 -75.264954 -4.959038
vertex -152.430313 -45.264954 -4.959038
vertex -151.868622 -45.264954 -2.014282
endloop
endfacet
facet normal 0.835817 0.000000 -0.549008
outer loop
vertex -152.430313 -45.264954 -4.959038
vertex -152.430313 -75.264954 -4.959038
vertex -154.211761 -75.264954 -7.671135
endloop
endfacet
facet normal 0.835817 0.000000 -0.549008
outer loop
vertex -154.211761 -75.264954 -7.671135
vertex -154.211761 -45.264954 -7.671135
vertex -152.430313 -45.264954 -4.959038
endloop
endfacet
facet normal -0.982290 0.000000 -0.187365
outer loop
vertex -167.306931 -45.264950 -4.959038
vertex -167.306931 -75.264954 -4.959038
vertex -167.868622 -75.264954 -2.014282
endloop
endfacet
facet normal -0.982290 0.000000 -0.187365
outer loop
vertex -167.868622 -75.264954 -2.014282
vertex -167.868622 -45.264950 -2.014282
vertex -167.306931 -45.264950 -4.959038
endloop
endfacet
endsolid Exported from Blender-2.74 (sub 0)
