solid Exported from Blender-2.74 (sub 0)
facet normal 0.549010 0.000000 0.835816
outer loop
vertex 64.487961 -46.686462 10.394684
vertex 64.487961 -76.686462 10.394684
vertex 67.200058 -76.686462 8.613228
endloop
endfacet
facet normal 0.549010 0.000000 0.835816
outer loop
vertex 67.200058 -76.686462 8.613228
vertex 67.200058 -46.686462 8.613228
vertex 64.487961 -46.686462 10.394684
endloop
endfacet
facet normal 0.835815 0.000000 0.549012
outer loop
vertex 68.981522 -76.686462 5.901131
vertex 68.981522 -46.686462 5.901131
vertex 67.200058 -46.686462 8.613228
endloop
endfacet
facet normal 0.835815 0.000000 0.549012
outer loop
vertex 67.200058 -46.686462 8.613228
vertex 67.200058 -76.686462 8.613228
vertex 68.981522 -76.686462 5.901131
endloop
endfacet
facet normal 0.187366 0.000000 0.982290
outer loop
vertex 61.543209 -46.686462 10.956375
vertex 61.543209 -76.686462 10.956375
vertex 64.487961 -76.686462 10.394684
endloop
endfacet
facet normal 0.187365 0.000000 0.982290
outer loop
vertex 64.487961 -76.686462 10.394684
vertex 64.487961 -46.686462 10.394684
vertex 61.543209 -46.686462 10.956375
endloop
endfacet
facet normal 0.187365 0.000000 -0.982290
outer loop
vertex 64.487961 -46.686462 -4.481934
vertex 64.487961 -76.686462 -4.481934
vertex 61.543209 -76.686462 -5.043625
endloop
endfacet
facet normal 0.187365 0.000000 -0.982290
outer loop
vertex 61.543209 -76.686462 -5.043625
vertex 61.543209 -46.686462 -5.043625
vertex 64.487961 -46.686462 -4.481934
endloop
endfacet
facet normal 0.000000 1.000000 0.000000
outer loop
vertex 61.543209 -46.686462 10.956375
vertex 64.487961 -46.686462 10.394684
vertex 67.200058 -46.686462 8.613228
endloop
endfacet
facet normal 0.000002 1.000000 0.000008
outer loop
vertex 61.543209 -46.686462 -5.043625
vertex 58.598454 -46.686459 -4.481934
vertex 55.886356 -46.686459 -2.700478
endloop
endfacet
facet normal 0.000000 1.000000 0.000000
outer loop
vertex 67.200058 -46.686462 -2.700478
vertex 61.543209 -46.686462 -5.043625
vertex 55.886356 -46.686459 -2.700478
endloop
endfacet
facet normal 0.000000 1.000000 0.000000
outer loop
vertex 55.886356 -46.686459 -2.700478
vertex 67.200058 -46.686462 8.613228
vertex 67.200058 -46.686462 -2.700478
endloop
endfacet
facet normal 0.000000 1.000000 0.000000
outer loop
vertex 69.543213 -46.686462 2.956375
vertex 68.981522 -46.686462 0.011620
vertex 67.200058 -46.686462 -2.700478
endloop
endfacet
facet normal 0.000000 1.000000 0.000002
outer loop
vertex 55.886356 -46.686459 -2.700478
vertex 54.104900 -46.686459 0.011620
vertex 53.543209 -46.686459 2.956375
endloop
endfacet
facet normal 0.000000 1.000000 0.000000
outer loop
vertex 67.200058 -46.686462 8.613228
vertex 69.543213 -46.686462 2.956375
vertex 67.200058 -46.686462 -2.700478
endloop
endfacet
facet normal 0.000000 1.000000 0.000000
outer loop
vertex 55.886356 -46.686459 -2.700478
vertex 53.543209 -46.686459 2.956375
vertex 55.886356 -46.686459 8.613228
endloop
endfacet
facet normal 0.000000 1.000000 -0.000001
outer loop
vertex 67.200058 -46.686462 8.613228
vertex 68.981522 -46.686462 5.901131
vertex 69.543213 -46.686462 2.956375
endloop
endfacet
facet normal 0.000000 1.000000 0.000000
outer loop
vertex 67.200058 -46.686462 8.613228
vertex 55.886356 -46.686459 -2.700478
vertex 55.886356 -46.686459 8.613228
endloop
endfacet
facet normal 0.000000 1.000000 0.000000
outer loop
vertex 55.886356 -46.686459 8.613228
vertex 61.543209 -46.686462 10.956375
vertex 67.200058 -46.686462 8.613228
endloop
endfacet
facet normal 0.000002 1.000000 0.000000
outer loop
vertex 58.598454 -46.686459 10.394684
vertex 61.543209 -46.686462 10.956375
vertex 55.886356 -46.686459 8.613228
endloop
endfacet
facet normal 0.000000 1.000000 0.000000
outer loop
vertex 67.200058 -46.686462 -2.700478
vertex 64.487961 -46.686462 -4.481934
vertex 61.543209 -46.686462 -5.043625
endloop
endfacet
facet normal 0.000000 1.000000 -0.000004
outer loop
vertex 53.543209 -46.686459 2.956375
vertex 54.104900 -46.686459 5.901131
vertex 55.886356 -46.686459 8.613228
endloop
endfacet
facet normal 0.982290 0.000000 0.187365
outer loop
vertex 68.981522 -46.686462 5.901131
vertex 68.981522 -76.686462 5.901131
vertex 69.543213 -76.686462 2.956375
endloop
endfacet
facet normal 0.982290 0.000000 0.187365
outer loop
vertex 69.543213 -76.686462 2.956375
vertex 69.543213 -46.686462 2.956375
vertex 68.981522 -46.686462 5.901131
endloop
endfacet
facet normal -0.187365 0.000000 0.982290
outer loop
vertex 58.598454 -46.686459 10.394684
vertex 58.598454 -76.686462 10.394684
vertex 61.543209 -76.686462 10.956375
endloop
endfacet
facet normal -0.187365 0.000000 0.982290
outer loop
vertex 61.543209 -76.686462 10.956375
vertex 61.543209 -46.686462 10.956375
vertex 58.598454 -46.686459 10.394684
endloop
endfacet
facet normal -0.835816 0.000000 0.549010
outer loop
vertex 54.104900 -46.686459 5.901131
vertex 54.104900 -76.686462 5.901131
vertex 55.886356 -76.686462 8.613228
endloop
endfacet
facet normal -0.835816 0.000000 0.549010
outer loop
vertex 55.886356 -76.686462 8.613228
vertex 55.886356 -46.686459 8.613228
vertex 54.104900 -46.686459 5.901131
endloop
endfacet
facet normal -0.549010 0.000000 0.835816
outer loop
vertex 55.886356 -46.686459 8.613228
vertex 55.886356 -76.686462 8.613228
vertex 58.598454 -76.686462 10.394684
endloop
endfacet
facet normal -0.549010 0.000000 0.835816
outer loop
vertex 58.598454 -76.686462 10.394684
vertex 58.598454 -46.686459 10.394684
vertex 55.886356 -46.686459 8.613228
endloop
endfacet
facet normal -0.982290 0.000000 0.187365
outer loop
vertex 53.543209 -46.686459 2.956375
vertex 53.543209 -76.686462 2.956375
vertex 54.104900 -76.686462 5.901131
endloop
endfacet
facet normal -0.982290 0.000000 0.187365
outer loop
vertex 54.104900 -76.686462 5.901131
vertex 54.104900 -46.686459 5.901131
vertex 53.543209 -46.686459 2.956375
endloop
endfacet
facet normal -0.835816 0.000000 -0.549010
outer loop
vertex 55.886356 -46.686459 -2.700478
vertex 55.886356 -76.686462 -2.700478
vertex 54.104900 -76.686462 0.011620
endloop
endfacet
facet normal -0.835816 0.000000 -0.549010
outer loop
vertex 54.104900 -76.686462 0.011620
vertex 54.104900 -46.686459 0.011620
vertex 55.886356 -46.686459 -2.700478
endloop
endfacet
facet normal -0.187365 0.000000 -0.982290
outer loop
vertex 61.543209 -46.686462 -5.043625
vertex 61.543209 -76.686462 -5.043625
vertex 58.598454 -76.686462 -4.481934
endloop
endfacet
facet normal -0.187365 0.000000 -0.982290
outer loop
vertex 58.598454 -76.686462 -4.481934
vertex 58.598454 -46.686459 -4.481934
vertex 61.543209 -46.686462 -5.043625
endloop
endfacet
facet normal -0.549010 0.000000 -0.835816
outer loop
vertex 58.598454 -46.686459 -4.481934
vertex 58.598454 -76.686462 -4.481934
vertex 55.886356 -76.686462 -2.700478
endloop
endfacet
facet normal -0.549010 0.000000 -0.835816
outer loop
vertex 55.886356 -76.686462 -2.700478
vertex 55.886356 -46.686459 -2.700478
vertex 58.598454 -46.686459 -4.481934
endloop
endfacet
facet normal 0.549010 0.000000 -0.835816
outer loop
vertex 67.200058 -46.686462 -2.700478
vertex 67.200058 -76.686462 -2.700478
vertex 64.487961 -76.686462 -4.481934
endloop
endfacet
facet normal 0.549010 0.000000 -0.835816
outer loop
vertex 64.487961 -76.686462 -4.481934
vertex 64.487961 -46.686462 -4.481934
vertex 67.200058 -46.686462 -2.700478
endloop
endfacet
facet normal 0.982290 0.000000 -0.187365
outer loop
vertex 69.543213 -46.686462 2.956375
vertex 69.543213 -76.686462 2.956375
vertex 68.981522 -76.686462 0.011620
endloop
endfacet
facet normal 0.982290 0.000000 -0.187365
outer loop
vertex 68.981522 -76.686462 0.011620
vertex 68.981522 -46.686462 0.011620
vertex 69.543213 -46.686462 2.956375
endloop
endfacet
facet normal 0.835815 0.000000 -0.549012
outer loop
vertex 68.981522 -46.686462 0.011620
vertex 68.981522 -76.686462 0.011620
vertex 67.200058 -76.686462 -2.700478
endloop
endfacet
facet normal 0.835815 0.000000 -0.549012
outer loop
vertex 67.200058 -76.686462 -2.700478
vertex 67.200058 -46.686462 -2.700478
vertex 68.981522 -46.686462 0.011620
endloop
endfacet
facet normal -0.982290 0.000000 -0.187365
outer loop
vertex 54.104900 -46.686459 0.011620
vertex 54.104900 -76.686462 0.011620
vertex 53.543209 -76.686462 2.956375
endloop
endfacet
facet normal -0.982290 0.000000 -0.187365
outer loop
vertex 53.543209 -76.686462 2.956375
vertex 53.543209 -46.686459 2.956375
vertex 54.104900 -46.686459 0.011620
endloop
endfacet
endsolid Exported from Blender-2.74 (sub 0)
