solid Exported from Blender-2.74 (sub 0)
facet normal 0.000000 0.000000 1.000000
outer loop
vertex -18.777781 -57.006451 2.730965
vertex -26.777781 -57.006451 2.730965
vertex -26.777781 -63.676449 2.730965
endloop
endfacet
facet normal 0.000000 1.000000 0.000003
outer loop
vertex -10.777781 -57.006451 -13.269035
vertex -15.833023 -57.006451 -12.707344
vertex -13.120926 -57.006451 -10.925888
endloop
endfacet
facet normal 0.000000 1.000000 0.000000
outer loop
vertex -10.777781 -57.006451 -13.269035
vertex -18.777781 -57.006451 -13.269035
vertex -15.833023 -57.006451 -12.707344
endloop
endfacet
facet normal 0.000000 1.000000 0.000000
outer loop
vertex -13.120926 -57.006451 -10.925888
vertex -11.339474 -57.006451 -8.213791
vertex -10.777781 -57.006451 -13.269035
endloop
endfacet
facet normal 0.000000 1.000000 -0.000003
outer loop
vertex -10.777781 -57.006451 2.730965
vertex -13.120926 -57.006451 0.387817
vertex -15.833023 -57.006451 2.169273
endloop
endfacet
facet normal 0.000000 1.000000 0.000000
outer loop
vertex -13.120926 -57.006451 0.387817
vertex -10.777781 -57.006451 2.730965
vertex -11.339474 -57.006451 -2.324280
endloop
endfacet
facet normal 0.000001 1.000000 0.000000
outer loop
vertex -90.777786 -57.006447 -13.269035
vertex -95.833031 -57.006443 -12.707344
vertex -93.120934 -57.006447 -10.925888
endloop
endfacet
facet normal 0.000000 1.000000 0.000001
outer loop
vertex -93.120934 -57.006447 -10.925888
vertex -91.339478 -57.006447 -8.213791
vertex -90.777786 -57.006447 -13.269035
endloop
endfacet
facet normal 0.000000 0.000000 1.000000
outer loop
vertex -6.777782 -77.006454 6.730965
vertex -30.777784 -77.006447 6.730965
vertex -4.777784 -97.006454 6.730965
endloop
endfacet
facet normal -0.000000 0.000000 1.000000
outer loop
vertex -30.777781 -70.346451 6.730965
vertex -30.777784 -77.006447 6.730965
vertex -6.777782 -77.006454 6.730965
endloop
endfacet
facet normal 0.000000 0.000000 1.000000
outer loop
vertex -6.777782 -77.006454 6.730965
vertex -6.777782 -70.346451 6.730965
vertex -30.777781 -70.346451 6.730965
endloop
endfacet
facet normal 1.000000 0.000000 0.000000
outer loop
vertex -6.777782 -70.346451 6.730965
vertex -6.777782 -77.006454 6.730965
vertex -6.777782 -77.006454 -17.269035
endloop
endfacet
facet normal 1.000000 0.000000 0.000000
outer loop
vertex -6.777782 -77.006454 -17.269035
vertex -6.777782 -70.346451 -17.269035
vertex -6.777782 -70.346451 6.730965
endloop
endfacet
facet normal -0.000000 0.000000 -1.000000
outer loop
vertex -6.777782 -70.346451 -17.269035
vertex -6.777782 -77.006454 -17.269035
vertex -30.777784 -77.006447 -17.269035
endloop
endfacet
facet normal 0.000000 0.000000 -1.000000
outer loop
vertex -30.777784 -77.006447 -17.269035
vertex -30.777781 -70.346451 -17.269035
vertex -6.777782 -70.346451 -17.269035
endloop
endfacet
facet normal -1.000000 0.000000 0.000000
outer loop
vertex -30.777784 -77.006447 6.730965
vertex -30.777781 -70.346451 6.730965
vertex -30.777781 -70.346451 -17.269035
endloop
endfacet
facet normal -1.000000 0.000001 0.000000
outer loop
vertex -30.777781 -70.346451 -17.269035
vertex -30.777784 -77.006447 -17.269035
vertex -30.777784 -77.006447 6.730965
endloop
endfacet
facet normal 0.000000 1.000000 0.000000
outer loop
vertex -30.777781 -70.346451 -17.269035
vertex -30.777781 -70.346451 6.730965
vertex -28.777781 -70.346451 4.730965
endloop
endfacet
facet normal 0.000000 1.000000 0.000000
outer loop
vertex -28.777781 -70.346451 4.730965
vertex -28.777781 -70.346451 -15.269035
vertex -30.777781 -70.346451 -17.269035
endloop
endfacet
facet normal 0.000000 1.000000 -0.000001
outer loop
vertex -30.777781 -70.346451 6.730965
vertex -6.777782 -70.346451 6.730965
vertex -8.777782 -70.346451 4.730965
endloop
endfacet
facet normal 0.000000 1.000000 0.000005
outer loop
vertex -8.777782 -70.346451 4.730965
vertex -28.777781 -70.346451 4.730965
vertex -30.777781 -70.346451 6.730965
endloop
endfacet
facet normal 0.000000 1.000000 -0.000005
outer loop
vertex -28.777781 -70.346451 -15.269035
vertex -8.777782 -70.346451 -15.269035
vertex -6.777782 -70.346451 -17.269035
endloop
endfacet
facet normal 0.000000 1.000000 0.000001
outer loop
vertex -6.777782 -70.346451 -17.269035
vertex -30.777781 -70.346451 -17.269035
vertex -28.777781 -70.346451 -15.269035
endloop
endfacet
facet normal 0.000000 1.000000 0.000000
outer loop
vertex -6.777782 -70.346451 6.730965
vertex -6.777782 -70.346451 -17.269035
vertex -8.777782 -70.346451 -15.269035
endloop
endfacet
facet normal 0.000000 1.000000 0.000000
outer loop
vertex -8.777782 -70.346451 -15.269035
vertex -8.777782 -70.346451 4.730965
vertex -6.777782 -70.346451 6.730965
endloop
endfacet
facet normal 0.000000 0.000000 1.000000
outer loop
vertex -28.777781 -63.676449 4.730965
vertex -28.777781 -70.346451 4.730965
vertex -8.777782 -70.346451 4.730965
endloop
endfacet
facet normal 0.000000 0.000000 1.000000
outer loop
vertex -8.777782 -70.346451 4.730965
vertex -8.777782 -63.676449 4.730965
vertex -28.777781 -63.676449 4.730965
endloop
endfacet
facet normal 1.000000 0.000000 0.000000
outer loop
vertex -8.777782 -63.676449 4.730965
vertex -8.777782 -70.346451 4.730965
vertex -8.777782 -70.346451 -15.269035
endloop
endfacet
facet normal 1.000000 0.000000 0.000000
outer loop
vertex -8.777782 -70.346451 -15.269035
vertex -8.777782 -63.676449 -15.269035
vertex -8.777782 -63.676449 4.730965
endloop
endfacet
facet normal 0.000000 0.000000 -1.000000
outer loop
vertex -8.777782 -63.676449 -15.269035
vertex -8.777782 -70.346451 -15.269035
vertex -28.777781 -70.346451 -15.269035
endloop
endfacet
facet normal 0.000000 0.000000 -1.000000
outer loop
vertex -28.777781 -70.346451 -15.269035
vertex -28.777781 -63.676449 -15.269035
vertex -8.777782 -63.676449 -15.269035
endloop
endfacet
facet normal -1.000000 0.000000 0.000000
outer loop
vertex -28.777781 -63.676449 -15.269035
vertex -28.777781 -70.346451 -15.269035
vertex -28.777781 -70.346451 4.730965
endloop
endfacet
facet normal -1.000000 0.000000 0.000000
outer loop
vertex -28.777781 -70.346451 4.730965
vertex -28.777781 -63.676449 4.730965
vertex -28.777781 -63.676449 -15.269035
endloop
endfacet
facet normal 0.000000 1.000000 0.000000
outer loop
vertex -26.777781 -63.676449 2.730965
vertex -26.777781 -63.676449 -13.269035
vertex -28.777781 -63.676449 -15.269035
endloop
endfacet
facet normal 0.000000 1.000000 0.000000
outer loop
vertex -28.777781 -63.676449 -15.269035
vertex -28.777781 -63.676449 4.730965
vertex -26.777781 -63.676449 2.730965
endloop
endfacet
facet normal 0.000000 1.000000 0.000000
outer loop
vertex -28.777781 -63.676449 4.730965
vertex -8.777782 -63.676449 4.730965
vertex -10.777782 -63.676449 2.730965
endloop
endfacet
facet normal 0.000000 1.000000 -0.000003
outer loop
vertex -10.777782 -63.676449 2.730965
vertex -26.777781 -63.676449 2.730965
vertex -28.777781 -63.676449 4.730965
endloop
endfacet
facet normal 0.000000 1.000000 0.000003
outer loop
vertex -26.777781 -63.676449 -13.269035
vertex -10.777782 -63.676449 -13.269035
vertex -8.777782 -63.676449 -15.269035
endloop
endfacet
facet normal 0.000000 1.000000 -0.000000
outer loop
vertex -8.777782 -63.676449 -15.269035
vertex -28.777781 -63.676449 -15.269035
vertex -26.777781 -63.676449 -13.269035
endloop
endfacet
facet normal 0.000000 1.000000 0.000000
outer loop
vertex -8.777782 -63.676449 4.730965
vertex -8.777782 -63.676449 -15.269035
vertex -10.777782 -63.676449 -13.269035
endloop
endfacet
facet normal 0.000000 1.000000 0.000000
outer loop
vertex -10.777782 -63.676449 -13.269035
vertex -10.777782 -63.676449 2.730965
vertex -8.777782 -63.676449 4.730965
endloop
endfacet
facet normal 0.000000 0.000000 1.000000
outer loop
vertex -10.777781 -57.006451 2.730965
vertex -18.777781 -57.006451 2.730965
vertex -10.777782 -63.676449 2.730965
endloop
endfacet
facet normal 0.000000 0.000000 1.000000
outer loop
vertex -26.777781 -63.676449 2.730965
vertex -10.777782 -63.676449 2.730965
vertex -18.777781 -57.006451 2.730965
endloop
endfacet
facet normal 1.000000 -0.000000 0.000000
outer loop
vertex -10.777781 -57.006451 -5.269035
vertex -10.777781 -57.006451 2.730965
vertex -10.777782 -63.676449 2.730965
endloop
endfacet
facet normal 1.000000 -0.000000 0.000000
outer loop
vertex -10.777781 -57.006451 -13.269035
vertex -10.777781 -57.006451 -5.269035
vertex -10.777782 -63.676449 -13.269035
endloop
endfacet
facet normal 1.000000 -0.000000 0.000000
outer loop
vertex -10.777782 -63.676449 2.730965
vertex -10.777782 -63.676449 -13.269035
vertex -10.777781 -57.006451 -5.269035
endloop
endfacet
facet normal 0.000000 0.000000 -1.000000
outer loop
vertex -18.777781 -57.006451 -13.269035
vertex -10.777781 -57.006451 -13.269035
vertex -10.777782 -63.676449 -13.269035
endloop
endfacet
facet normal 0.000000 0.000000 -1.000000
outer loop
vertex -26.777781 -57.006451 -13.269035
vertex -18.777781 -57.006451 -13.269035
vertex -26.777781 -63.676449 -13.269035
endloop
endfacet
facet normal 0.000000 0.000000 -1.000000
outer loop
vertex -10.777782 -63.676449 -13.269035
vertex -26.777781 -63.676449 -13.269035
vertex -18.777781 -57.006451 -13.269035
endloop
endfacet
facet normal -1.000000 0.000000 0.000000
outer loop
vertex -26.777781 -57.006451 -5.269035
vertex -26.777781 -57.006451 -13.269035
vertex -26.777781 -63.676449 -13.269035
endloop
endfacet
facet normal -1.000000 0.000000 0.000000
outer loop
vertex -26.777781 -57.006451 2.730965
vertex -26.777781 -57.006451 -5.269035
vertex -26.777781 -63.676449 2.730965
endloop
endfacet
facet normal -1.000000 0.000000 0.000000
outer loop
vertex -26.777781 -63.676449 -13.269035
vertex -26.777781 -63.676449 2.730965
vertex -26.777781 -57.006451 -5.269035
endloop
endfacet
facet normal 0.000000 1.000000 0.000000
outer loop
vertex -10.777781 -57.006451 -13.269035
vertex -11.339474 -57.006451 -8.213791
vertex -10.777781 -57.006451 -5.269035
endloop
endfacet
facet normal 0.000000 1.000000 0.000000
outer loop
vertex -10.777781 -57.006451 2.730965
vertex -15.833023 -57.006451 2.169273
vertex -18.777781 -57.006451 2.730965
endloop
endfacet
facet normal 0.000000 1.000000 0.000000
outer loop
vertex -10.777781 -57.006451 -5.269035
vertex -11.339474 -57.006451 -2.324280
vertex -10.777781 -57.006451 2.730965
endloop
endfacet
facet normal 0.000000 1.000000 0.000000
outer loop
vertex -26.777781 -57.006451 -5.269035
vertex -26.777781 -57.006451 2.730965
vertex -26.216085 -57.006451 -2.324280
endloop
endfacet
facet normal 0.000000 1.000000 -0.000001
outer loop
vertex -24.434633 -57.006451 0.387817
vertex -26.216085 -57.006451 -2.324280
vertex -26.777781 -57.006451 2.730965
endloop
endfacet
facet normal 0.000000 1.000000 0.000003
outer loop
vertex -26.777781 -57.006451 2.730965
vertex -21.722540 -57.006451 2.169273
vertex -24.434633 -57.006451 0.387817
endloop
endfacet
facet normal 0.000000 1.000000 -0.000007
outer loop
vertex -26.777781 -57.006451 2.730965
vertex -18.777781 -57.006451 2.730965
vertex -21.722540 -57.006451 2.169273
endloop
endfacet
facet normal 0.000000 1.000000 0.000000
outer loop
vertex -26.777781 -57.006451 -13.269035
vertex -26.777781 -57.006451 -5.269035
vertex -26.216085 -57.006451 -8.213791
endloop
endfacet
facet normal 0.000000 1.000000 0.000001
outer loop
vertex -24.434633 -57.006451 -10.925888
vertex -26.777781 -57.006451 -13.269035
vertex -26.216085 -57.006451 -8.213791
endloop
endfacet
facet normal 0.000000 1.000000 0.000007
outer loop
vertex -26.777781 -57.006451 -13.269035
vertex -21.722540 -57.006451 -12.707344
vertex -18.777781 -57.006451 -13.269035
endloop
endfacet
facet normal 0.000000 1.000000 -0.000003
outer loop
vertex -26.777781 -57.006451 -13.269035
vertex -24.434633 -57.006451 -10.925888
vertex -21.722540 -57.006451 -12.707344
endloop
endfacet
facet normal 0.000000 0.000000 1.000000
outer loop
vertex -110.777786 -70.346443 6.730965
vertex -110.777786 -77.006447 6.730965
vertex -86.777786 -77.006447 6.730965
endloop
endfacet
facet normal 0.000000 0.000000 1.000000
outer loop
vertex -86.777786 -77.006447 6.730965
vertex -86.777786 -70.346451 6.730965
vertex -110.777786 -70.346443 6.730965
endloop
endfacet
facet normal 1.000000 0.000000 0.000000
outer loop
vertex -86.777786 -70.346451 6.730965
vertex -86.777786 -77.006447 6.730965
vertex -86.777786 -77.006447 -17.269035
endloop
endfacet
facet normal 1.000000 0.000000 0.000000
outer loop
vertex -86.777786 -77.006447 -17.269035
vertex -86.777786 -70.346451 -17.269035
vertex -86.777786 -70.346451 6.730965
endloop
endfacet
facet normal 0.000000 0.000000 -1.000000
outer loop
vertex -86.777786 -70.346451 -17.269035
vertex -86.777786 -77.006447 -17.269035
vertex -110.777786 -77.006447 -17.269035
endloop
endfacet
facet normal 0.000000 0.000000 -1.000000
outer loop
vertex -110.777786 -77.006447 -17.269035
vertex -110.777786 -70.346443 -17.269035
vertex -86.777786 -70.346451 -17.269035
endloop
endfacet
facet normal -1.000000 0.000000 0.000000
outer loop
vertex -110.777786 -70.346443 -17.269035
vertex -110.777786 -77.006447 -17.269035
vertex -110.777786 -77.006447 6.730965
endloop
endfacet
facet normal -1.000000 0.000000 0.000000
outer loop
vertex -110.777786 -77.006447 6.730965
vertex -110.777786 -70.346443 6.730965
vertex -110.777786 -70.346443 -17.269035
endloop
endfacet
facet normal 0.000000 1.000000 0.000000
outer loop
vertex -108.777786 -70.346443 4.730965
vertex -108.777786 -70.346443 -15.269035
vertex -110.777786 -70.346443 -17.269035
endloop
endfacet
facet normal 0.000000 1.000000 0.000000
outer loop
vertex -110.777786 -70.346443 -17.269035
vertex -110.777786 -70.346443 6.730965
vertex -108.777786 -70.346443 4.730965
endloop
endfacet
facet normal 0.000000 1.000000 -0.000001
outer loop
vertex -110.777786 -70.346443 6.730965
vertex -86.777786 -70.346451 6.730965
vertex -88.777786 -70.346451 4.730965
endloop
endfacet
facet normal 0.000000 1.000000 0.000005
outer loop
vertex -88.777786 -70.346451 4.730965
vertex -108.777786 -70.346443 4.730965
vertex -110.777786 -70.346443 6.730965
endloop
endfacet
facet normal 0.000000 1.000000 -0.000005
outer loop
vertex -108.777786 -70.346443 -15.269035
vertex -88.777786 -70.346451 -15.269035
vertex -86.777786 -70.346451 -17.269035
endloop
endfacet
facet normal 0.000000 1.000000 0.000001
outer loop
vertex -86.777786 -70.346451 -17.269035
vertex -110.777786 -70.346443 -17.269035
vertex -108.777786 -70.346443 -15.269035
endloop
endfacet
facet normal 0.000000 1.000000 0.000000
outer loop
vertex -86.777786 -70.346451 6.730965
vertex -86.777786 -70.346451 -17.269035
vertex -88.777786 -70.346451 -15.269035
endloop
endfacet
facet normal 0.000000 1.000000 0.000000
outer loop
vertex -88.777786 -70.346451 -15.269035
vertex -88.777786 -70.346451 4.730965
vertex -86.777786 -70.346451 6.730965
endloop
endfacet
facet normal -0.000000 0.000000 1.000000
outer loop
vertex -108.777786 -63.676441 4.730965
vertex -108.777786 -70.346443 4.730965
vertex -88.777786 -70.346451 4.730965
endloop
endfacet
facet normal 0.000000 0.000000 1.000000
outer loop
vertex -88.777786 -70.346451 4.730965
vertex -88.777786 -63.676445 4.730965
vertex -108.777786 -63.676441 4.730965
endloop
endfacet
facet normal 1.000000 0.000000 0.000000
outer loop
vertex -88.777786 -63.676445 4.730965
vertex -88.777786 -70.346451 4.730965
vertex -88.777786 -70.346451 -15.269035
endloop
endfacet
facet normal 1.000000 0.000000 0.000000
outer loop
vertex -88.777786 -70.346451 -15.269035
vertex -88.777786 -63.676445 -15.269035
vertex -88.777786 -63.676445 4.730965
endloop
endfacet
facet normal 0.000000 0.000000 -1.000000
outer loop
vertex -88.777786 -63.676445 -15.269035
vertex -88.777786 -70.346451 -15.269035
vertex -108.777786 -70.346443 -15.269035
endloop
endfacet
facet normal 0.000000 0.000000 -1.000000
outer loop
vertex -108.777786 -70.346443 -15.269035
vertex -108.777786 -63.676441 -15.269035
vertex -88.777786 -63.676445 -15.269035
endloop
endfacet
facet normal -1.000000 0.000000 0.000000
outer loop
vertex -108.777786 -63.676441 -15.269035
vertex -108.777786 -70.346443 -15.269035
vertex -108.777786 -70.346443 4.730965
endloop
endfacet
facet normal -1.000000 0.000000 0.000000
outer loop
vertex -108.777786 -70.346443 4.730965
vertex -108.777786 -63.676441 4.730965
vertex -108.777786 -63.676441 -15.269035
endloop
endfacet
facet normal 0.000000 1.000000 0.000000
outer loop
vertex -106.777786 -63.676441 2.730965
vertex -106.777786 -63.676441 -13.269035
vertex -108.777786 -63.676441 -15.269035
endloop
endfacet
facet normal 0.000000 1.000000 0.000000
outer loop
vertex -108.777786 -63.676441 -15.269035
vertex -108.777786 -63.676441 4.730965
vertex -106.777786 -63.676441 2.730965
endloop
endfacet
facet normal 0.000000 1.000000 0.000001
outer loop
vertex -108.777786 -63.676441 4.730965
vertex -88.777786 -63.676445 4.730965
vertex -90.777786 -63.676445 2.730965
endloop
endfacet
facet normal 0.000000 1.000000 0.000001
outer loop
vertex -90.777786 -63.676445 2.730965
vertex -106.777786 -63.676441 2.730965
vertex -108.777786 -63.676441 4.730965
endloop
endfacet
facet normal 0.000000 1.000000 -0.000001
outer loop
vertex -106.777786 -63.676441 -13.269035
vertex -90.777786 -63.676445 -13.269035
vertex -88.777786 -63.676445 -15.269035
endloop
endfacet
facet normal 0.000000 1.000000 -0.000001
outer loop
vertex -88.777786 -63.676445 -15.269035
vertex -108.777786 -63.676441 -15.269035
vertex -106.777786 -63.676441 -13.269035
endloop
endfacet
facet normal 0.000000 1.000000 0.000000
outer loop
vertex -88.777786 -63.676445 4.730965
vertex -88.777786 -63.676445 -15.269035
vertex -90.777786 -63.676445 -13.269035
endloop
endfacet
facet normal 0.000000 1.000000 0.000000
outer loop
vertex -90.777786 -63.676445 -13.269035
vertex -90.777786 -63.676445 2.730965
vertex -88.777786 -63.676445 4.730965
endloop
endfacet
facet normal 0.000000 0.000000 1.000000
outer loop
vertex -98.777786 -57.006443 2.730965
vertex -106.777786 -57.006443 2.730965
vertex -106.777786 -63.676441 2.730965
endloop
endfacet
facet normal 0.000000 0.000000 1.000000
outer loop
vertex -90.777786 -57.006447 2.730965
vertex -98.777786 -57.006443 2.730965
vertex -90.777786 -63.676445 2.730965
endloop
endfacet
facet normal -0.000000 0.000000 1.000000
outer loop
vertex -106.777786 -63.676441 2.730965
vertex -90.777786 -63.676445 2.730965
vertex -98.777786 -57.006443 2.730965
endloop
endfacet
facet normal 1.000000 0.000000 0.000000
outer loop
vertex -90.777786 -57.006447 -5.269035
vertex -90.777786 -57.006447 2.730965
vertex -90.777786 -63.676445 2.730965
endloop
endfacet
facet normal 1.000000 0.000000 0.000000
outer loop
vertex -90.777786 -57.006447 -13.269035
vertex -90.777786 -57.006447 -5.269035
vertex -90.777786 -63.676445 -13.269035
endloop
endfacet
facet normal 1.000000 0.000000 0.000000
outer loop
vertex -90.777786 -63.676445 2.730965
vertex -90.777786 -63.676445 -13.269035
vertex -90.777786 -57.006447 -5.269035
endloop
endfacet
facet normal 0.000000 0.000000 -1.000000
outer loop
vertex -98.777786 -57.006443 -13.269035
vertex -90.777786 -57.006447 -13.269035
vertex -90.777786 -63.676445 -13.269035
endloop
endfacet
facet normal 0.000000 0.000000 -1.000000
outer loop
vertex -106.777786 -57.006443 -13.269035
vertex -98.777786 -57.006443 -13.269035
vertex -106.777786 -63.676441 -13.269035
endloop
endfacet
facet normal 0.000000 0.000000 -1.000000
outer loop
vertex -90.777786 -63.676445 -13.269035
vertex -106.777786 -63.676441 -13.269035
vertex -98.777786 -57.006443 -13.269035
endloop
endfacet
facet normal -1.000000 0.000000 0.000000
outer loop
vertex -106.777786 -57.006443 -5.269035
vertex -106.777786 -57.006443 -13.269035
vertex -106.777786 -63.676441 -13.269035
endloop
endfacet
facet normal -1.000000 0.000000 0.000000
outer loop
vertex -106.777786 -57.006443 2.730965
vertex -106.777786 -57.006443 -5.269035
vertex -106.777786 -63.676441 2.730965
endloop
endfacet
facet normal -1.000000 0.000000 0.000000
outer loop
vertex -106.777786 -63.676441 -13.269035
vertex -106.777786 -63.676441 2.730965
vertex -106.777786 -57.006443 -5.269035
endloop
endfacet
facet normal 0.000000 1.000000 -0.000007
outer loop
vertex -90.777786 -57.006447 -13.269035
vertex -98.777786 -57.006443 -13.269035
vertex -95.833031 -57.006443 -12.707344
endloop
endfacet
facet normal 0.000000 1.000000 0.000000
outer loop
vertex -90.777786 -57.006447 -13.269035
vertex -91.339478 -57.006447 -8.213791
vertex -90.777786 -57.006447 -5.269035
endloop
endfacet
facet normal 0.000000 1.000000 0.000007
outer loop
vertex -90.777786 -57.006447 2.730965
vertex -95.833031 -57.006443 2.169273
vertex -98.777786 -57.006443 2.730965
endloop
endfacet
facet normal 0.000001 1.000000 0.000000
outer loop
vertex -90.777786 -57.006447 2.730965
vertex -93.120934 -57.006447 0.387817
vertex -95.833031 -57.006443 2.169273
endloop
endfacet
facet normal 0.000000 1.000000 0.000000
outer loop
vertex -90.777786 -57.006447 -5.269035
vertex -91.339478 -57.006447 -2.324280
vertex -90.777786 -57.006447 2.730965
endloop
endfacet
facet normal 0.000000 1.000000 -0.000001
outer loop
vertex -93.120934 -57.006447 0.387817
vertex -90.777786 -57.006447 2.730965
vertex -91.339478 -57.006447 -2.324280
endloop
endfacet
facet normal 0.000000 1.000000 0.000000
outer loop
vertex -106.777786 -57.006443 -5.269035
vertex -106.777786 -57.006443 2.730965
vertex -106.216095 -57.006443 -2.324280
endloop
endfacet
facet normal 0.000000 1.000000 0.000001
outer loop
vertex -104.434639 -57.006443 0.387817
vertex -106.216095 -57.006443 -2.324280
vertex -106.777786 -57.006443 2.730965
endloop
endfacet
facet normal 0.000000 1.000000 0.000003
outer loop
vertex -106.777786 -57.006443 2.730965
vertex -101.722542 -57.006443 2.169273
vertex -104.434639 -57.006443 0.387817
endloop
endfacet
facet normal 0.000000 1.000000 -0.000007
outer loop
vertex -106.777786 -57.006443 2.730965
vertex -98.777786 -57.006443 2.730965
vertex -101.722542 -57.006443 2.169273
endloop
endfacet
facet normal 0.000000 1.000000 0.000000
outer loop
vertex -106.777786 -57.006443 -13.269035
vertex -106.777786 -57.006443 -5.269035
vertex -106.216095 -57.006443 -8.213791
endloop
endfacet
facet normal 0.000000 1.000000 -0.000001
outer loop
vertex -104.434639 -57.006443 -10.925888
vertex -106.777786 -57.006443 -13.269035
vertex -106.216095 -57.006443 -8.213791
endloop
endfacet
facet normal 0.000000 1.000000 0.000007
outer loop
vertex -106.777786 -57.006443 -13.269035
vertex -101.722542 -57.006443 -12.707344
vertex -98.777786 -57.006443 -13.269035
endloop
endfacet
facet normal 0.000000 1.000000 -0.000003
outer loop
vertex -106.777786 -57.006443 -13.269035
vertex -104.434639 -57.006443 -10.925888
vertex -101.722542 -57.006443 -12.707344
endloop
endfacet
facet normal 0.000000 0.000000 1.000000
outer loop
vertex -4.777784 -97.006454 6.730965
vertex -4.777782 -77.006454 6.730965
vertex -6.777782 -77.006454 6.730965
endloop
endfacet
facet normal 0.000000 0.000000 1.000000
outer loop
vertex -30.777784 -77.006447 6.730965
vertex -86.777786 -77.006447 6.730965
vertex -112.777786 -97.006447 6.730965
endloop
endfacet
facet normal 0.000000 0.000000 1.000000
outer loop
vertex -112.777786 -97.006447 6.730965
vertex -4.777784 -97.006454 6.730965
vertex -30.777784 -77.006447 6.730965
endloop
endfacet
facet normal 0.000000 0.000000 1.000000
outer loop
vertex -112.777786 -97.006447 6.730965
vertex -86.777786 -77.006447 6.730965
vertex -110.777786 -77.006447 6.730965
endloop
endfacet
facet normal 0.000000 0.000000 1.000000
outer loop
vertex -110.777786 -77.006447 6.730965
vertex -112.777786 -77.006447 6.730965
vertex -112.777786 -97.006447 6.730965
endloop
endfacet
facet normal -1.000000 0.000000 0.000000
outer loop
vertex -112.777786 -97.006447 6.730965
vertex -112.777786 -77.006447 6.730965
vertex -112.777786 -77.006447 -17.269035
endloop
endfacet
facet normal -1.000000 0.000000 0.000000
outer loop
vertex -112.777786 -77.006447 -17.269035
vertex -112.777786 -97.006447 -17.269035
vertex -112.777786 -97.006447 6.730965
endloop
endfacet
facet normal 0.000000 0.000000 -1.000000
outer loop
vertex -112.777786 -97.006447 -17.269035
vertex -112.777786 -77.006447 -17.269035
vertex -110.777786 -77.006447 -17.269035
endloop
endfacet
facet normal 0.000000 0.000000 -1.000000
outer loop
vertex -86.777786 -77.006447 -17.269035
vertex -30.777784 -77.006447 -17.269035
vertex -4.777784 -97.006454 -17.269035
endloop
endfacet
facet normal 0.000000 0.000000 -1.000000
outer loop
vertex -4.777784 -97.006454 -17.269035
vertex -112.777786 -97.006447 -17.269035
vertex -86.777786 -77.006447 -17.269035
endloop
endfacet
facet normal 0.000000 0.000000 -1.000000
outer loop
vertex -110.777786 -77.006447 -17.269035
vertex -86.777786 -77.006447 -17.269035
vertex -112.777786 -97.006447 -17.269035
endloop
endfacet
facet normal -0.000000 0.000000 -1.000000
outer loop
vertex -4.777784 -97.006454 -17.269035
vertex -30.777784 -77.006447 -17.269035
vertex -6.777782 -77.006454 -17.269035
endloop
endfacet
facet normal 0.000000 0.000000 -1.000000
outer loop
vertex -6.777782 -77.006454 -17.269035
vertex -4.777782 -77.006454 -17.269035
vertex -4.777784 -97.006454 -17.269035
endloop
endfacet
facet normal 1.000000 -0.000000 0.000000
outer loop
vertex -4.777784 -97.006454 -17.269035
vertex -4.777782 -77.006454 -17.269035
vertex -4.777782 -77.006454 6.730965
endloop
endfacet
facet normal 1.000000 -0.000000 0.000000
outer loop
vertex -4.777782 -77.006454 6.730965
vertex -4.777784 -97.006454 6.730965
vertex -4.777784 -97.006454 -17.269035
endloop
endfacet
facet normal -0.000000 -1.000000 0.000000
outer loop
vertex -4.777784 -97.006454 -17.269035
vertex -4.777784 -97.006454 6.730965
vertex -112.777786 -97.006447 6.730965
endloop
endfacet
facet normal -0.000000 -1.000000 0.000000
outer loop
vertex -112.777786 -97.006447 6.730965
vertex -112.777786 -97.006447 -17.269035
vertex -4.777784 -97.006454 -17.269035
endloop
endfacet
facet normal 0.000000 1.000000 0.000000
outer loop
vertex -110.777786 -77.006447 -17.269035
vertex -112.777786 -77.006447 -17.269035
vertex -112.777786 -77.006447 6.730965
endloop
endfacet
facet normal 0.000000 1.000000 0.000000
outer loop
vertex -112.777786 -77.006447 6.730965
vertex -110.777786 -77.006447 6.730965
vertex -110.777786 -77.006447 -17.269035
endloop
endfacet
facet normal 0.000000 1.000000 0.000000
outer loop
vertex -30.777784 -77.006447 -17.269035
vertex -86.777786 -77.006447 -17.269035
vertex -86.777786 -77.006447 6.730965
endloop
endfacet
facet normal 0.000000 1.000000 0.000000
outer loop
vertex -86.777786 -77.006447 6.730965
vertex -30.777784 -77.006447 6.730965
vertex -30.777784 -77.006447 -17.269035
endloop
endfacet
facet normal 0.000000 1.000000 0.000000
outer loop
vertex -4.777782 -77.006454 -17.269035
vertex -6.777782 -77.006454 -17.269035
vertex -6.777782 -77.006454 6.730965
endloop
endfacet
facet normal 0.000000 1.000000 0.000000
outer loop
vertex -6.777782 -77.006454 6.730965
vertex -4.777782 -77.006454 6.730965
vertex -4.777782 -77.006454 -17.269035
endloop
endfacet
facet normal 0.000000 1.000000 0.000000
outer loop
vertex -90.777786 -57.006447 -5.269035
vertex -93.120934 -57.006447 0.387817
vertex -91.339478 -57.006447 -2.324280
endloop
endfacet
facet normal -0.000001 1.000000 -0.000008
outer loop
vertex -98.777786 -57.006443 2.730965
vertex -95.833031 -57.006443 2.169273
vertex -93.120934 -57.006447 0.387817
endloop
endfacet
facet normal 0.000000 1.000000 0.000000
outer loop
vertex -104.434639 -57.006443 0.387817
vertex -101.722542 -57.006443 2.169273
vertex -98.777786 -57.006443 2.730965
endloop
endfacet
facet normal 0.000000 1.000000 -0.000004
outer loop
vertex -106.777786 -57.006443 -5.269035
vertex -106.216095 -57.006443 -2.324280
vertex -104.434639 -57.006443 0.387817
endloop
endfacet
facet normal 0.000000 1.000000 0.000002
outer loop
vertex -104.434639 -57.006443 -10.925888
vertex -106.216095 -57.006443 -8.213791
vertex -106.777786 -57.006443 -5.269035
endloop
endfacet
facet normal 0.000000 1.000000 0.000000
outer loop
vertex -98.777786 -57.006443 -13.269035
vertex -101.722542 -57.006443 -12.707344
vertex -104.434639 -57.006443 -10.925888
endloop
endfacet
facet normal -0.000001 1.000000 0.000008
outer loop
vertex -93.120934 -57.006447 -10.925888
vertex -95.833031 -57.006443 -12.707344
vertex -98.777786 -57.006443 -13.269035
endloop
endfacet
facet normal 0.000000 1.000000 0.000000
outer loop
vertex -90.777786 -57.006447 -5.269035
vertex -91.339478 -57.006447 -8.213791
vertex -93.120934 -57.006447 -10.925888
endloop
endfacet
facet normal 0.000001 1.000000 0.000000
outer loop
vertex -90.777786 -57.006447 -5.269035
vertex -98.777786 -57.006443 2.730965
vertex -93.120934 -57.006447 0.387817
endloop
endfacet
facet normal 0.000000 1.000000 0.000000
outer loop
vertex -106.777786 -57.006443 -5.269035
vertex -104.434639 -57.006443 0.387817
vertex -98.777786 -57.006443 2.730965
endloop
endfacet
facet normal 0.000000 1.000000 0.000000
outer loop
vertex -98.777786 -57.006443 -13.269035
vertex -104.434639 -57.006443 -10.925888
vertex -106.777786 -57.006443 -5.269035
endloop
endfacet
facet normal 0.000001 1.000000 0.000000
outer loop
vertex -90.777786 -57.006447 -5.269035
vertex -93.120934 -57.006447 -10.925888
vertex -98.777786 -57.006443 -13.269035
endloop
endfacet
facet normal 0.000000 1.000000 -0.000000
outer loop
vertex -90.777786 -57.006447 -5.269035
vertex -106.777786 -57.006443 -5.269035
vertex -98.777786 -57.006443 2.730965
endloop
endfacet
facet normal 0.000000 1.000000 0.000000
outer loop
vertex -90.777786 -57.006447 -5.269035
vertex -98.777786 -57.006443 -13.269035
vertex -106.777786 -57.006443 -5.269035
endloop
endfacet
facet normal 0.000000 1.000000 0.000004
outer loop
vertex -21.722540 -57.006451 2.169273
vertex -26.216085 -57.006451 -2.324280
vertex -24.434633 -57.006451 0.387817
endloop
endfacet
facet normal 0.000000 1.000000 0.000000
outer loop
vertex -26.216085 -57.006451 -8.213791
vertex -26.777781 -57.006451 -5.269035
vertex -26.216085 -57.006451 -2.324280
endloop
endfacet
facet normal 0.000000 1.000000 -0.000004
outer loop
vertex -21.722540 -57.006451 -12.707344
vertex -24.434633 -57.006451 -10.925888
vertex -26.216085 -57.006451 -8.213791
endloop
endfacet
facet normal 0.000000 1.000000 -0.000009
outer loop
vertex -15.833023 -57.006451 -12.707344
vertex -18.777781 -57.006451 -13.269035
vertex -21.722540 -57.006451 -12.707344
endloop
endfacet
facet normal 0.000000 1.000000 -0.000007
outer loop
vertex -11.339474 -57.006451 -8.213791
vertex -13.120926 -57.006451 -10.925888
vertex -15.833023 -57.006451 -12.707344
endloop
endfacet
facet normal 0.000000 1.000000 0.000000
outer loop
vertex -11.339474 -57.006451 -2.324280
vertex -10.777781 -57.006451 -5.269035
vertex -11.339474 -57.006451 -8.213791
endloop
endfacet
facet normal 0.000000 1.000000 0.000011
outer loop
vertex -15.833023 -57.006451 2.169273
vertex -13.120926 -57.006451 0.387817
vertex -11.339474 -57.006451 -2.324280
endloop
endfacet
facet normal 0.000000 1.000000 0.000009
outer loop
vertex -21.722540 -57.006451 2.169273
vertex -18.777781 -57.006451 2.730965
vertex -15.833023 -57.006451 2.169273
endloop
endfacet
facet normal 0.000000 1.000000 0.000000
outer loop
vertex -21.722540 -57.006451 2.169273
vertex -26.216085 -57.006451 -8.213791
vertex -26.216085 -57.006451 -2.324280
endloop
endfacet
facet normal 0.000000 1.000000 0.000002
outer loop
vertex -15.833023 -57.006451 -12.707344
vertex -21.722540 -57.006451 -12.707344
vertex -26.216085 -57.006451 -8.213791
endloop
endfacet
facet normal 0.000000 1.000000 0.000000
outer loop
vertex -11.339474 -57.006451 -2.324280
vertex -11.339474 -57.006451 -8.213791
vertex -15.833023 -57.006451 -12.707344
endloop
endfacet
facet normal 0.000000 1.000000 0.000000
outer loop
vertex -21.722540 -57.006451 2.169273
vertex -15.833023 -57.006451 2.169273
vertex -11.339474 -57.006451 -2.324280
endloop
endfacet
facet normal 0.000000 1.000000 -0.000001
outer loop
vertex -21.722540 -57.006451 2.169273
vertex -15.833023 -57.006451 -12.707344
vertex -26.216085 -57.006451 -8.213791
endloop
endfacet
facet normal 0.000000 1.000000 0.000000
outer loop
vertex -21.722540 -57.006451 2.169273
vertex -11.339474 -57.006451 -2.324280
vertex -15.833023 -57.006451 -12.707344
endloop
endfacet
endsolid Exported from Blender-2.74 (sub 0)
