solid Exported from Blender-2.74 (sub 0)
facet normal -0.870838 -0.491570 0.000000
outer loop
vertex -2.770145 8.355812 32.216290
vertex -2.770145 8.355812 -27.963646
vertex 1.801704 0.256586 -23.391796
endloop
endfacet
facet normal -0.870838 -0.491570 0.000000
outer loop
vertex 1.801704 0.256586 -23.391796
vertex 1.801704 0.256586 27.644440
vertex -2.770145 8.355812 32.216290
endloop
endfacet
facet normal 0.000000 -0.491570 0.870838
outer loop
vertex 57.409790 8.355812 32.216290
vertex -2.770145 8.355812 32.216290
vertex 1.801704 0.256586 27.644440
endloop
endfacet
facet normal 0.000000 -0.491570 0.870838
outer loop
vertex 1.801704 0.256586 27.644440
vertex 52.837936 0.256586 27.644440
vertex 57.409790 8.355812 32.216290
endloop
endfacet
facet normal -0.515286 -0.857019 0.000000
outer loop
vertex -2.770145 8.355812 -27.963646
vertex -2.770145 8.355812 32.216290
vertex -15.911598 16.257158 43.187408
endloop
endfacet
facet normal -0.515285 -0.857019 0.000000
outer loop
vertex -15.911598 16.257158 43.187408
vertex -15.911598 16.257158 -38.934769
vertex -2.770145 8.355812 -27.963646
endloop
endfacet
facet normal 0.000000 -0.491570 -0.870838
outer loop
vertex -2.770145 8.355812 -27.963646
vertex 57.409790 8.355812 -27.963646
vertex 52.837936 0.256586 -23.391796
endloop
endfacet
facet normal 0.000000 -0.491570 -0.870838
outer loop
vertex 52.837936 0.256586 -23.391796
vertex 1.801704 0.256586 -23.391796
vertex -2.770145 8.355812 -27.963646
endloop
endfacet
facet normal 0.000000 -1.000000 0.000000
outer loop
vertex 33.931698 0.256586 0.709357
vertex 26.778648 0.256586 -3.420458
vertex 52.837936 0.256586 -23.391796
endloop
endfacet
facet normal 0.000000 -1.000000 -0.000000
outer loop
vertex 1.801704 0.256586 27.644440
vertex 26.778646 0.256586 13.098804
vertex 52.837936 0.256586 27.644440
endloop
endfacet
facet normal 0.000000 -1.000000 0.000000
outer loop
vertex 33.931698 0.256586 0.709357
vertex 52.837936 0.256586 -23.391796
vertex 52.837936 0.256586 27.644440
endloop
endfacet
facet normal 0.000000 -1.000000 0.000000
outer loop
vertex 26.778646 0.256586 13.098804
vertex 33.931698 0.256586 8.968988
vertex 52.837936 0.256586 27.644440
endloop
endfacet
facet normal 0.000000 -1.000000 0.000000
outer loop
vertex 33.931698 0.256586 8.968988
vertex 33.931698 0.256586 0.709357
vertex 52.837936 0.256586 27.644440
endloop
endfacet
facet normal 0.000000 -1.000000 0.000000
outer loop
vertex 1.801704 0.256586 27.644440
vertex 19.625595 0.256586 8.968987
vertex 26.778646 0.256586 13.098804
endloop
endfacet
facet normal 0.000000 -1.000000 0.000000
outer loop
vertex 52.837936 0.256586 -23.391796
vertex 26.778648 0.256586 -3.420458
vertex 19.625595 0.256586 0.709357
endloop
endfacet
facet normal 0.000000 -1.000000 0.000000
outer loop
vertex 1.801704 0.256586 27.644440
vertex 19.625595 0.256586 0.709357
vertex 19.625595 0.256586 8.968987
endloop
endfacet
facet normal 0.000000 -1.000000 0.000000
outer loop
vertex 1.801704 0.256586 -23.391796
vertex 52.837936 0.256586 -23.391796
vertex 19.625595 0.256586 0.709357
endloop
endfacet
facet normal 0.000000 -1.000000 0.000000
outer loop
vertex 1.801704 0.256586 27.644440
vertex 1.801704 0.256586 -23.391796
vertex 19.625595 0.256586 0.709357
endloop
endfacet
facet normal 0.000000 -0.811459 0.584409
outer loop
vertex -2.770145 8.355812 32.216290
vertex 57.409790 8.355812 32.216290
vertex 66.210587 16.257158 43.187408
endloop
endfacet
facet normal 0.000000 -0.811459 0.584409
outer loop
vertex 66.210587 16.257158 43.187408
vertex -15.911598 16.257158 43.187408
vertex -2.770145 8.355812 32.216290
endloop
endfacet
facet normal -0.944546 0.328379 0.000000
outer loop
vertex -12.602753 25.774698 42.048897
vertex -12.602753 25.774698 -37.796249
vertex -15.911598 16.257158 -38.934769
endloop
endfacet
facet normal -0.944546 0.328379 0.000000
outer loop
vertex -15.911598 16.257158 -38.934769
vertex -15.911598 16.257158 43.187408
vertex -12.602753 25.774698 42.048897
endloop
endfacet
facet normal 0.000000 -0.811459 -0.584409
outer loop
vertex -15.911598 16.257158 -38.934769
vertex 66.210587 16.257158 -38.934769
vertex 57.409790 8.355812 -27.963646
endloop
endfacet
facet normal 0.000000 -0.811459 -0.584409
outer loop
vertex 57.409790 8.355812 -27.963646
vertex -2.770145 8.355812 -27.963646
vertex -15.911598 16.257158 -38.934769
endloop
endfacet
facet normal 0.000000 0.000000 0.000000
outer loop
vertex 52.837936 0.256586 -23.391796
vertex 57.409790 8.355812 -27.963646
vertex 57.409790 8.355812 -27.963646
endloop
endfacet
facet normal 0.000000 0.000000 0.000000
outer loop
vertex 57.409790 8.355812 -27.963646
vertex 52.837936 0.256586 -23.391796
vertex 52.837936 0.256586 -23.391796
endloop
endfacet
facet normal 0.000000 0.000000 0.000000
outer loop
vertex 52.837936 0.256586 -23.391796
vertex 52.837936 0.256586 -23.391796
vertex 52.837936 0.256586 27.644440
endloop
endfacet
facet normal 0.000000 0.000000 0.000000
outer loop
vertex 52.837936 0.256586 27.644440
vertex 52.837936 0.256586 27.644440
vertex 52.837936 0.256586 -23.391796
endloop
endfacet
facet normal 0.000000 0.000000 0.000000
outer loop
vertex 52.837936 0.256586 27.644440
vertex 57.409790 8.355812 32.216290
vertex 57.409790 8.355812 32.216290
endloop
endfacet
facet normal 0.000000 0.000000 0.000000
outer loop
vertex 57.409790 8.355812 32.216290
vertex 52.837936 0.256586 27.644440
vertex 52.837936 0.256586 27.644440
endloop
endfacet
facet normal 0.000000 0.000000 0.000000
outer loop
vertex 66.210587 16.257158 43.187408
vertex 57.409790 8.355812 32.216290
vertex 57.409790 8.355812 32.216290
endloop
endfacet
facet normal 0.000000 0.000000 0.000000
outer loop
vertex 57.409790 8.355812 32.216290
vertex 66.210587 16.257158 43.187408
vertex 66.210587 16.257158 43.187408
endloop
endfacet
facet normal 0.000000 0.118776 0.992921
outer loop
vertex 67.242393 25.774698 42.048897
vertex -12.602753 25.774698 42.048897
vertex -15.911598 16.257158 43.187408
endloop
endfacet
facet normal 0.000000 0.118776 0.992921
outer loop
vertex -15.911598 16.257158 43.187408
vertex 66.210587 16.257158 43.187408
vertex 67.242393 25.774698 42.048897
endloop
endfacet
facet normal -0.873088 0.487562 0.000000
outer loop
vertex -5.274273 38.897964 35.474579
vertex -5.274273 38.897964 -30.909998
vertex -12.602753 25.774698 -37.796249
endloop
endfacet
facet normal -0.873088 0.487562 0.000000
outer loop
vertex -12.602753 25.774698 -37.796249
vertex -12.602753 25.774698 42.048897
vertex -5.274273 38.897964 35.474579
endloop
endfacet
facet normal 0.000000 0.118776 -0.992921
outer loop
vertex -12.602753 25.774698 -37.796249
vertex 67.242393 25.774698 -37.796249
vertex 66.210587 16.257158 -38.934769
endloop
endfacet
facet normal 0.000000 0.118776 -0.992921
outer loop
vertex 66.210587 16.257158 -38.934769
vertex -15.911598 16.257158 -38.934769
vertex -12.602753 25.774698 -37.796249
endloop
endfacet
facet normal 0.000000 0.000000 0.000000
outer loop
vertex 57.409790 8.355812 -27.963646
vertex 66.210587 16.257158 -38.934769
vertex 66.210587 16.257158 -38.934769
endloop
endfacet
facet normal 0.000000 0.000000 0.000000
outer loop
vertex 66.210587 16.257158 -38.934769
vertex 57.409790 8.355812 -27.963646
vertex 57.409790 8.355812 -27.963646
endloop
endfacet
facet normal 0.870838 -0.491571 0.000000
outer loop
vertex 57.409790 8.355812 -27.963646
vertex 57.409790 8.355812 32.216290
vertex 52.837936 0.256586 27.644440
endloop
endfacet
facet normal 0.870838 -0.491571 0.000000
outer loop
vertex 52.837936 0.256586 27.644440
vertex 52.837936 0.256586 -23.391796
vertex 57.409790 8.355812 -27.963646
endloop
endfacet
facet normal 0.668060 -0.744108 0.000000
outer loop
vertex 66.210587 16.257158 -38.934769
vertex 66.210587 16.257158 43.187408
vertex 57.409790 8.355812 32.216290
endloop
endfacet
facet normal 0.668059 -0.744108 0.000000
outer loop
vertex 57.409790 8.355812 32.216290
vertex 57.409790 8.355812 -27.963646
vertex 66.210587 16.257158 -38.934769
endloop
endfacet
facet normal 0.000000 0.000000 0.000000
outer loop
vertex 66.210587 16.257158 43.187408
vertex 67.242393 25.774698 42.048897
vertex 67.242393 25.774698 42.048897
endloop
endfacet
facet normal 0.000000 0.000000 0.000000
outer loop
vertex 67.242393 25.774698 42.048897
vertex 66.210587 16.257158 43.187408
vertex 66.210587 16.257158 43.187408
endloop
endfacet
facet normal 0.000000 0.447905 0.894081
outer loop
vertex 61.110306 38.897964 35.474579
vertex -5.274273 38.897964 35.474579
vertex -12.602753 25.774698 42.048897
endloop
endfacet
facet normal 0.000000 0.447905 0.894081
outer loop
vertex -12.602753 25.774698 42.048897
vertex 67.242393 25.774698 42.048897
vertex 61.110306 38.897964 35.474579
endloop
endfacet
facet normal -0.868448 0.495780 0.000000
outer loop
vertex 1.801704 51.292816 27.644440
vertex 1.801704 51.292816 -23.391796
vertex -5.274273 38.897964 -30.909998
endloop
endfacet
facet normal -0.868448 0.495780 0.000000
outer loop
vertex -5.274273 38.897964 -30.909998
vertex -5.274273 38.897964 35.474579
vertex 1.801704 51.292816 27.644440
endloop
endfacet
facet normal 0.000000 0.464650 -0.885494
outer loop
vertex -5.274273 38.897964 -30.909998
vertex 61.110306 38.897964 -30.909998
vertex 67.242393 25.774698 -37.796249
endloop
endfacet
facet normal 0.000000 0.464651 -0.885494
outer loop
vertex 67.242393 25.774698 -37.796249
vertex -12.602753 25.774698 -37.796249
vertex -5.274273 38.897964 -30.909998
endloop
endfacet
facet normal 0.000000 0.000000 0.000000
outer loop
vertex 66.210587 16.257158 -38.934769
vertex 67.242393 25.774698 -37.796249
vertex 67.242393 25.774698 -37.796249
endloop
endfacet
facet normal 0.000000 0.000000 0.000000
outer loop
vertex 67.242393 25.774698 -37.796249
vertex 66.210587 16.257158 -38.934769
vertex 66.210587 16.257158 -38.934769
endloop
endfacet
facet normal 0.994175 -0.107780 0.000000
outer loop
vertex 67.242393 25.774698 -37.796249
vertex 67.242393 25.774698 42.048897
vertex 66.210587 16.257158 43.187408
endloop
endfacet
facet normal 0.994175 -0.107779 0.000000
outer loop
vertex 66.210587 16.257158 43.187408
vertex 66.210587 16.257158 -38.934769
vertex 67.242393 25.774698 -37.796249
endloop
endfacet
facet normal 0.000000 0.000000 0.000000
outer loop
vertex 67.242393 25.774698 42.048897
vertex 61.110306 38.897964 35.474579
vertex 61.110306 38.897964 35.474579
endloop
endfacet
facet normal 0.000000 0.000000 0.000000
outer loop
vertex 61.110306 38.897964 35.474579
vertex 67.242393 25.774698 42.048897
vertex 67.242393 25.774698 42.048897
endloop
endfacet
facet normal 0.000000 0.534081 0.845433
outer loop
vertex 52.837936 51.292816 27.644440
vertex 1.801704 51.292816 27.644440
vertex -5.274273 38.897964 35.474579
endloop
endfacet
facet normal 0.000000 0.534081 0.845433
outer loop
vertex -5.274273 38.897964 35.474579
vertex 61.110306 38.897964 35.474579
vertex 52.837936 51.292816 27.644440
endloop
endfacet
facet normal 0.000000 1.000000 0.000000
outer loop
vertex 52.837936 51.292816 27.644440
vertex 52.837936 51.292816 -23.391796
vertex 1.801704 51.292816 -23.391796
endloop
endfacet
facet normal 0.000000 1.000000 0.000000
outer loop
vertex 1.801704 51.292816 -23.391796
vertex 1.801704 51.292816 27.644440
vertex 52.837936 51.292816 27.644440
endloop
endfacet
facet normal 0.000000 0.518613 -0.855009
outer loop
vertex 1.801704 51.292816 -23.391796
vertex 52.837936 51.292816 -23.391796
vertex 61.110306 38.897964 -30.909998
endloop
endfacet
facet normal 0.000000 0.518613 -0.855009
outer loop
vertex 61.110306 38.897964 -30.909998
vertex -5.274273 38.897964 -30.909998
vertex 1.801704 51.292816 -23.391796
endloop
endfacet
facet normal 0.000000 0.000000 0.000000
outer loop
vertex 67.242393 25.774698 -37.796249
vertex 61.110306 38.897964 -30.909998
vertex 61.110306 38.897964 -30.909998
endloop
endfacet
facet normal 0.000000 0.000000 0.000000
outer loop
vertex 61.110306 38.897964 -30.909998
vertex 67.242393 25.774698 -37.796249
vertex 67.242393 25.774698 -37.796249
endloop
endfacet
facet normal 0.905974 0.423333 0.000000
outer loop
vertex 61.110306 38.897964 -30.909998
vertex 61.110306 38.897964 35.474579
vertex 67.242393 25.774698 42.048897
endloop
endfacet
facet normal 0.905974 0.423333 0.000000
outer loop
vertex 67.242393 25.774698 42.048897
vertex 67.242393 25.774698 -37.796249
vertex 61.110306 38.897964 -30.909998
endloop
endfacet
facet normal 0.000000 0.000000 0.000000
outer loop
vertex 61.110306 38.897964 35.474579
vertex 52.837936 51.292816 27.644440
vertex 52.837936 51.292816 27.644440
endloop
endfacet
facet normal 0.000000 0.000000 0.000000
outer loop
vertex 52.837936 51.292816 27.644440
vertex 61.110306 38.897964 35.474579
vertex 61.110306 38.897964 35.474579
endloop
endfacet
facet normal 0.000000 0.000000 0.000000
outer loop
vertex 52.837936 51.292816 27.644440
vertex 52.837936 51.292816 27.644440
vertex 52.837936 51.292816 -23.391796
endloop
endfacet
facet normal 0.000000 0.000000 0.000000
outer loop
vertex 52.837936 51.292816 -23.391796
vertex 52.837936 51.292816 -23.391796
vertex 52.837936 51.292816 27.644440
endloop
endfacet
facet normal 0.000000 0.000000 0.000000
outer loop
vertex 61.110306 38.897964 -30.909998
vertex 52.837936 51.292816 -23.391796
vertex 52.837936 51.292816 -23.391796
endloop
endfacet
facet normal 0.000000 0.000000 0.000000
outer loop
vertex 52.837936 51.292816 -23.391796
vertex 61.110306 38.897964 -30.909998
vertex 61.110306 38.897964 -30.909998
endloop
endfacet
facet normal 0.831767 0.555124 0.000000
outer loop
vertex 52.837936 51.292816 -23.391796
vertex 52.837936 51.292816 27.644440
vertex 61.110306 38.897964 35.474579
endloop
endfacet
facet normal 0.831767 0.555125 0.000000
outer loop
vertex 61.110306 38.897964 35.474579
vertex 61.110306 38.897964 -30.909998
vertex 52.837936 51.292816 -23.391796
endloop
endfacet
facet normal -0.494734 -0.144751 0.856905
outer loop
vertex 26.778648 0.256586 -3.420458
vertex 33.931698 0.256586 0.709357
vertex 30.249868 24.884176 2.743834
endloop
endfacet
facet normal -0.494734 -0.144752 0.856905
outer loop
vertex 30.249868 24.884176 2.743834
vertex 26.620634 24.884176 0.648496
vertex 26.778648 0.256586 -3.420458
endloop
endfacet
facet normal 0.495179 -0.138528 0.857676
outer loop
vertex 19.625595 0.256586 0.709357
vertex 26.778648 0.256586 -3.420458
vertex 26.620634 24.884176 0.648496
endloop
endfacet
facet normal 0.495179 -0.138528 0.857676
outer loop
vertex 26.620634 24.884176 0.648496
vertex 22.991402 24.884176 2.743834
vertex 19.625595 0.256586 0.709357
endloop
endfacet
facet normal 0.000000 -1.000000 0.000001
outer loop
vertex 30.249868 24.884176 2.743834
vertex 22.991402 24.884176 2.743834
vertex 26.620634 24.884176 0.648496
endloop
endfacet
facet normal 0.000000 -1.000000 0.000000
outer loop
vertex 26.620634 24.884176 9.029848
vertex 22.991402 24.884176 6.934510
vertex 22.991402 24.884176 2.743834
endloop
endfacet
facet normal 0.000000 -1.000000 0.000000
outer loop
vertex 30.249868 24.884176 2.743834
vertex 30.249868 24.884176 6.934512
vertex 26.620634 24.884176 9.029848
endloop
endfacet
facet normal 0.000000 -1.000000 -0.000000
outer loop
vertex 30.249868 24.884176 2.743834
vertex 26.620634 24.884176 9.029848
vertex 22.991402 24.884176 2.743834
endloop
endfacet
facet normal -0.989009 -0.147857 0.000000
outer loop
vertex 33.931698 0.256586 0.709357
vertex 33.931698 0.256586 8.968988
vertex 30.249868 24.884176 6.934512
endloop
endfacet
facet normal -0.989009 -0.147857 0.000000
outer loop
vertex 30.249868 24.884176 6.934512
vertex 30.249868 24.884176 2.743834
vertex 33.931698 0.256586 0.709357
endloop
endfacet
facet normal 0.990790 -0.135409 0.000000
outer loop
vertex 19.625595 0.256586 8.968987
vertex 19.625595 0.256586 0.709357
vertex 22.991402 24.884176 2.743834
endloop
endfacet
facet normal 0.990790 -0.135410 0.000000
outer loop
vertex 22.991402 24.884176 2.743834
vertex 22.991402 24.884176 6.934510
vertex 19.625595 0.256586 8.968987
endloop
endfacet
facet normal 0.495179 -0.138527 -0.857676
outer loop
vertex 26.778646 0.256586 13.098804
vertex 19.625595 0.256586 8.968987
vertex 22.991402 24.884176 6.934510
endloop
endfacet
facet normal 0.495179 -0.138528 -0.857676
outer loop
vertex 22.991402 24.884176 6.934510
vertex 26.620634 24.884176 9.029848
vertex 26.778646 0.256586 13.098804
endloop
endfacet
facet normal -0.494734 -0.144751 -0.856905
outer loop
vertex 33.931698 0.256586 8.968988
vertex 26.778646 0.256586 13.098804
vertex 26.620634 24.884176 9.029848
endloop
endfacet
facet normal -0.494734 -0.144751 -0.856905
outer loop
vertex 26.620634 24.884176 9.029848
vertex 30.249868 24.884176 6.934512
vertex 33.931698 0.256586 8.968988
endloop
endfacet
endsolid Exported from Blender-2.74 (sub 0)
