solid Exported from Blender-2.74 (sub 0)
facet normal 0.333029 0.127141 0.934306
outer loop
vertex 0.010366 0.084584 -0.000016
vertex 0.009117 0.088147 -0.000056
vertex 0.008897 0.088100 0.000029
endloop
endfacet
facet normal 0.420826 0.164360 0.892127
outer loop
vertex 0.008897 0.088100 0.000029
vertex 0.009780 0.083629 0.000436
vertex 0.010366 0.084584 -0.000016
endloop
endfacet
facet normal 0.333049 0.127149 0.934298
outer loop
vertex 0.010366 0.084584 -0.000016
vertex 0.009227 0.088171 -0.000098
vertex 0.009117 0.088147 -0.000056
endloop
endfacet
facet normal 0.325608 0.158030 0.932205
outer loop
vertex 0.009117 0.088147 -0.000056
vertex 0.008182 0.091768 -0.000343
vertex 0.008897 0.088100 0.000029
endloop
endfacet
facet normal -0.442116 -0.167564 -0.881167
outer loop
vertex 0.009035 0.087651 0.000045
vertex 0.009780 0.083629 0.000436
vertex 0.008897 0.088100 0.000029
endloop
endfacet
facet normal 0.514975 0.087867 0.852690
outer loop
vertex 0.010850 0.080963 0.000064
vertex 0.010366 0.084584 -0.000016
vertex 0.009780 0.083629 0.000436
endloop
endfacet
facet normal 0.545021 0.191757 0.816199
outer loop
vertex 0.009227 0.088171 -0.000098
vertex 0.010366 0.084584 -0.000016
vertex 0.009334 0.088191 -0.000174
endloop
endfacet
facet normal 0.325605 0.158027 0.932206
outer loop
vertex 0.009227 0.088171 -0.000098
vertex 0.008182 0.091768 -0.000343
vertex 0.009117 0.088147 -0.000056
endloop
endfacet
facet normal -0.495045 -0.182645 -0.849454
outer loop
vertex 0.008182 0.091768 -0.000343
vertex 0.009035 0.087651 0.000045
vertex 0.008897 0.088100 0.000029
endloop
endfacet
facet normal 0.367526 0.157198 0.916632
outer loop
vertex 0.009010 0.086691 0.000220
vertex 0.009780 0.083629 0.000436
vertex 0.009035 0.087651 0.000045
endloop
endfacet
facet normal -0.286076 -0.244187 0.926571
outer loop
vertex 0.010850 0.080963 0.000064
vertex 0.009780 0.083629 0.000436
vertex 0.008823 0.084232 0.000300
endloop
endfacet
facet normal 0.894918 0.129265 0.427098
outer loop
vertex 0.010366 0.084584 -0.000016
vertex 0.010850 0.080963 0.000064
vertex 0.010953 0.084630 -0.001261
endloop
endfacet
facet normal 0.539966 0.212262 0.814483
outer loop
vertex 0.008182 0.091768 -0.000343
vertex 0.009227 0.088171 -0.000098
vertex 0.009334 0.088191 -0.000174
endloop
endfacet
facet normal 0.545034 0.191762 0.816189
outer loop
vertex 0.010366 0.084584 -0.000016
vertex 0.009549 0.088231 -0.000327
vertex 0.009334 0.088191 -0.000174
endloop
endfacet
facet normal 0.347228 0.159094 0.924187
outer loop
vertex 0.009035 0.087651 0.000045
vertex 0.008182 0.091768 -0.000343
vertex 0.008132 0.089847 0.000006
endloop
endfacet
facet normal 0.347233 0.159096 0.924185
outer loop
vertex 0.008132 0.089847 0.000006
vertex 0.009010 0.086691 0.000220
vertex 0.009035 0.087651 0.000045
endloop
endfacet
facet normal 0.690126 0.222269 0.688710
outer loop
vertex 0.009780 0.083629 0.000436
vertex 0.009010 0.086691 0.000220
vertex 0.009121 0.086237 0.000256
endloop
endfacet
facet normal -0.826342 -0.526817 0.199054
outer loop
vertex 0.008823 0.084232 0.000300
vertex 0.007403 0.086264 -0.000220
vertex 0.010850 0.080963 0.000064
endloop
endfacet
facet normal -0.125781 0.024920 0.991745
outer loop
vertex 0.009780 0.083629 0.000436
vertex 0.008844 0.086652 0.000242
vertex 0.008823 0.084232 0.000300
endloop
endfacet
facet normal 0.884240 0.194731 0.424500
outer loop
vertex 0.010953 0.084630 -0.001261
vertex 0.009972 0.088290 -0.000895
vertex 0.010366 0.084584 -0.000016
endloop
endfacet
facet normal 0.994036 0.011342 0.108465
outer loop
vertex 0.011129 0.080708 -0.002463
vertex 0.010953 0.084630 -0.001261
vertex 0.010850 0.080963 0.000064
endloop
endfacet
facet normal 0.539957 0.212259 0.814489
outer loop
vertex 0.009549 0.088231 -0.000327
vertex 0.008182 0.091768 -0.000343
vertex 0.009334 0.088191 -0.000174
endloop
endfacet
facet normal 0.741207 0.220158 0.634147
outer loop
vertex 0.009549 0.088231 -0.000327
vertex 0.010366 0.084584 -0.000016
vertex 0.009804 0.088269 -0.000639
endloop
endfacet
facet normal 0.145287 0.173418 0.974073
outer loop
vertex 0.007085 0.091695 -0.000166
vertex 0.008132 0.089847 0.000006
vertex 0.008182 0.091768 -0.000343
endloop
endfacet
facet normal 0.287079 0.143932 0.947032
outer loop
vertex 0.009010 0.086691 0.000220
vertex 0.008132 0.089847 0.000006
vertex 0.009121 0.086237 0.000256
endloop
endfacet
facet normal -0.629761 -0.211073 -0.747562
outer loop
vertex 0.009127 0.086238 0.000250
vertex 0.009780 0.083629 0.000436
vertex 0.009121 0.086237 0.000256
endloop
endfacet
facet normal -0.351590 -0.006114 0.936134
outer loop
vertex 0.007403 0.086264 -0.000220
vertex 0.008823 0.084232 0.000300
vertex 0.006543 0.089418 -0.000523
endloop
endfacet
facet normal 0.239415 0.206707 0.948658
outer loop
vertex 0.007784 0.084921 -0.000024
vertex 0.010850 0.080963 0.000064
vertex 0.007403 0.086264 -0.000220
endloop
endfacet
facet normal 0.117760 0.100083 0.987986
outer loop
vertex 0.009780 0.083629 0.000436
vertex 0.009127 0.086238 0.000250
vertex 0.008844 0.086652 0.000242
endloop
endfacet
facet normal -0.007251 0.024111 0.999683
outer loop
vertex 0.008322 0.087973 0.000206
vertex 0.008823 0.084232 0.000300
vertex 0.008844 0.086652 0.000242
endloop
endfacet
facet normal 0.871331 0.188414 0.453081
outer loop
vertex 0.009972 0.088290 -0.000895
vertex 0.010953 0.084630 -0.001261
vertex 0.010045 0.088297 -0.001039
endloop
endfacet
facet normal 0.867911 0.200141 0.454615
outer loop
vertex 0.009878 0.088282 -0.000713
vertex 0.010366 0.084584 -0.000016
vertex 0.009972 0.088290 -0.000895
endloop
endfacet
facet normal 0.970398 0.226373 0.084165
outer loop
vertex 0.011792 0.076750 0.000548
vertex 0.011129 0.080708 -0.002463
vertex 0.010850 0.080963 0.000064
endloop
endfacet
facet normal 0.770239 0.218315 -0.599225
outer loop
vertex 0.011129 0.080708 -0.002463
vertex 0.009601 0.084151 -0.003173
vertex 0.010953 0.084630 -0.001261
endloop
endfacet
facet normal 0.724731 0.282840 0.628304
outer loop
vertex 0.008182 0.091768 -0.000343
vertex 0.009549 0.088231 -0.000327
vertex 0.009804 0.088269 -0.000639
endloop
endfacet
facet normal -0.988420 -0.151642 -0.005586
outer loop
vertex 0.009804 0.088269 -0.000639
vertex 0.010366 0.084584 -0.000016
vertex 0.009803 0.088274 -0.000582
endloop
endfacet
facet normal 0.131555 0.305395 0.943095
outer loop
vertex 0.005537 0.094953 -0.001005
vertex 0.007085 0.091695 -0.000166
vertex 0.008182 0.091768 -0.000343
endloop
endfacet
facet normal -0.088696 0.042777 0.995140
outer loop
vertex 0.007085 0.091695 -0.000166
vertex 0.008367 0.088941 0.000066
vertex 0.008132 0.089847 0.000006
endloop
endfacet
facet normal -0.190831 0.015463 0.981501
outer loop
vertex 0.009121 0.086237 0.000256
vertex 0.008132 0.089847 0.000006
vertex 0.008367 0.088941 0.000066
endloop
endfacet
facet normal -0.625883 -0.226789 -0.746215
outer loop
vertex 0.008367 0.088941 0.000066
vertex 0.009127 0.086238 0.000250
vertex 0.009121 0.086237 0.000256
endloop
endfacet
facet normal 0.911505 0.214815 -0.350733
outer loop
vertex 0.006822 0.088532 -0.000340
vertex 0.007403 0.086264 -0.000220
vertex 0.006543 0.089418 -0.000523
endloop
endfacet
facet normal 0.581231 0.128116 -0.803590
outer loop
vertex 0.008823 0.084232 0.000300
vertex 0.006984 0.087592 -0.000495
vertex 0.006543 0.089418 -0.000523
endloop
endfacet
facet normal 0.933150 0.224012 -0.281159
outer loop
vertex 0.006822 0.088532 -0.000340
vertex 0.007784 0.084921 -0.000024
vertex 0.007403 0.086264 -0.000220
endloop
endfacet
facet normal 0.012876 0.032312 0.999395
outer loop
vertex 0.007989 0.084005 0.000003
vertex 0.010850 0.080963 0.000064
vertex 0.007784 0.084921 -0.000024
endloop
endfacet
facet normal 0.118278 0.100436 0.987888
outer loop
vertex 0.009127 0.086238 0.000250
vertex 0.008367 0.088941 0.000066
vertex 0.008844 0.086652 0.000242
endloop
endfacet
facet normal 0.723496 0.302525 0.620509
outer loop
vertex 0.008844 0.086652 0.000242
vertex 0.007085 0.091695 -0.000166
vertex 0.008322 0.087973 0.000206
endloop
endfacet
facet normal -0.186920 -0.000409 0.982375
outer loop
vertex 0.008823 0.084232 0.000300
vertex 0.008322 0.087973 0.000206
vertex 0.008270 0.087960 0.000196
endloop
endfacet
facet normal 0.832213 0.337284 0.440071
outer loop
vertex 0.009052 0.091859 -0.001892
vertex 0.009972 0.088290 -0.000895
vertex 0.010045 0.088297 -0.001039
endloop
endfacet
facet normal 0.965833 0.232292 0.114920
outer loop
vertex 0.010045 0.088297 -0.001039
vertex 0.010953 0.084630 -0.001261
vertex 0.010103 0.088276 -0.001485
endloop
endfacet
facet normal 0.830983 0.337553 0.442182
outer loop
vertex 0.009052 0.091859 -0.001892
vertex 0.009878 0.088282 -0.000713
vertex 0.009972 0.088290 -0.000895
endloop
endfacet
facet normal 0.843520 0.204820 0.496511
outer loop
vertex 0.009803 0.088274 -0.000582
vertex 0.010366 0.084584 -0.000016
vertex 0.009878 0.088282 -0.000713
endloop
endfacet
facet normal -0.084272 0.094882 0.991915
outer loop
vertex 0.009292 0.077534 0.000260
vertex 0.011792 0.076750 0.000548
vertex 0.010850 0.080963 0.000064
endloop
endfacet
facet normal 0.796156 -0.276248 -0.538351
outer loop
vertex 0.010118 0.075933 -0.001508
vertex 0.011129 0.080708 -0.002463
vertex 0.011792 0.076750 0.000548
endloop
endfacet
facet normal 0.086385 -0.164163 -0.982643
outer loop
vertex 0.009025 0.080187 -0.002561
vertex 0.009601 0.084151 -0.003173
vertex 0.011129 0.080708 -0.002463
endloop
endfacet
facet normal 0.805984 0.071231 -0.587636
outer loop
vertex 0.009344 0.087968 -0.003064
vertex 0.010953 0.084630 -0.001261
vertex 0.009601 0.084151 -0.003173
endloop
endfacet
facet normal 0.812445 0.336356 0.476234
outer loop
vertex 0.009804 0.088269 -0.000639
vertex 0.009052 0.091859 -0.001892
vertex 0.008182 0.091768 -0.000343
endloop
endfacet
facet normal -0.978678 -0.205397 -0.001468
outer loop
vertex 0.009052 0.091859 -0.001892
vertex 0.009804 0.088269 -0.000639
vertex 0.009803 0.088274 -0.000582
endloop
endfacet
facet normal -0.195486 0.041406 0.979832
outer loop
vertex 0.005537 0.094953 -0.001005
vertex 0.008182 0.091768 -0.000343
vertex 0.007376 0.095420 -0.000658
endloop
endfacet
facet normal -0.492511 -0.009956 0.870249
outer loop
vertex 0.005537 0.094953 -0.001005
vertex 0.006209 0.091260 -0.000667
vertex 0.007085 0.091695 -0.000166
endloop
endfacet
facet normal -0.030111 0.070202 0.997078
outer loop
vertex 0.007085 0.091695 -0.000166
vertex 0.008844 0.086652 0.000242
vertex 0.008367 0.088941 0.000066
endloop
endfacet
facet normal 0.911530 0.214845 -0.350649
outer loop
vertex 0.005893 0.091907 -0.000688
vertex 0.006822 0.088532 -0.000340
vertex 0.006543 0.089418 -0.000523
endloop
endfacet
facet normal -0.658741 -0.188322 0.728420
outer loop
vertex 0.006984 0.087592 -0.000495
vertex 0.008823 0.084232 0.000300
vertex 0.007208 0.087664 -0.000274
endloop
endfacet
facet normal 0.712122 0.182372 0.677955
outer loop
vertex 0.006984 0.087592 -0.000495
vertex 0.006209 0.091260 -0.000667
vertex 0.006543 0.089418 -0.000523
endloop
endfacet
facet normal -0.797092 -0.161481 0.581866
outer loop
vertex 0.007784 0.084921 -0.000024
vertex 0.006822 0.088532 -0.000340
vertex 0.007232 0.086701 -0.000286
endloop
endfacet
facet normal -0.797080 -0.161481 0.581882
outer loop
vertex 0.007232 0.086701 -0.000286
vertex 0.007989 0.084005 0.000003
vertex 0.007784 0.084921 -0.000024
endloop
endfacet
facet normal 0.052983 0.069973 0.996141
outer loop
vertex 0.010850 0.080963 0.000064
vertex 0.007989 0.084005 0.000003
vertex 0.007968 0.084000 0.000005
endloop
endfacet
facet normal -0.195209 0.033242 0.980198
outer loop
vertex 0.008322 0.087973 0.000206
vertex 0.007085 0.091695 -0.000166
vertex 0.008270 0.087960 0.000196
endloop
endfacet
facet normal -0.186883 -0.000403 0.982382
outer loop
vertex 0.008114 0.087919 0.000167
vertex 0.008823 0.084232 0.000300
vertex 0.008270 0.087960 0.000196
endloop
endfacet
facet normal 0.950309 0.291154 0.110192
outer loop
vertex 0.009052 0.091859 -0.001892
vertex 0.010045 0.088297 -0.001039
vertex 0.010103 0.088276 -0.001485
endloop
endfacet
facet normal 0.972340 0.229433 0.043769
outer loop
vertex 0.010953 0.084630 -0.001261
vertex 0.010141 0.088236 -0.002119
vertex 0.010103 0.088276 -0.001485
endloop
endfacet
facet normal 0.804796 0.344969 0.483011
outer loop
vertex 0.009052 0.091859 -0.001892
vertex 0.009803 0.088274 -0.000582
vertex 0.009878 0.088282 -0.000713
endloop
endfacet
facet normal 0.015815 0.049784 0.998635
outer loop
vertex 0.008723 0.080805 0.000106
vertex 0.009292 0.077534 0.000260
vertex 0.010850 0.080963 0.000064
endloop
endfacet
facet normal -0.076394 0.119262 0.989919
outer loop
vertex 0.009292 0.077534 0.000260
vertex 0.011809 0.073127 0.000985
vertex 0.011792 0.076750 0.000548
endloop
endfacet
facet normal 0.682371 0.290281 -0.670900
outer loop
vertex 0.010965 0.072967 -0.001930
vertex 0.010118 0.075933 -0.001508
vertex 0.011792 0.076750 0.000548
endloop
endfacet
facet normal 0.098531 -0.215243 -0.971577
outer loop
vertex 0.010118 0.075933 -0.001508
vertex 0.009025 0.080187 -0.002561
vertex 0.011129 0.080708 -0.002463
endloop
endfacet
facet normal -0.828557 0.034356 -0.558849
outer loop
vertex 0.009601 0.084151 -0.003173
vertex 0.009025 0.080187 -0.002561
vertex 0.007757 0.083913 -0.000452
endloop
endfacet
facet normal -0.440735 -0.004097 -0.897628
outer loop
vertex 0.009344 0.087968 -0.003064
vertex 0.009601 0.084151 -0.003173
vertex 0.006859 0.087456 -0.001841
endloop
endfacet
facet normal 0.761636 0.017357 -0.647772
outer loop
vertex 0.010141 0.088236 -0.002119
vertex 0.010953 0.084630 -0.001261
vertex 0.009344 0.087968 -0.003064
endloop
endfacet
facet normal 0.856629 0.159721 0.490587
outer loop
vertex 0.009052 0.091859 -0.001892
vertex 0.008195 0.095565 -0.001601
vertex 0.008182 0.091768 -0.000343
endloop
endfacet
facet normal -0.186179 0.002754 0.982512
outer loop
vertex 0.004794 0.097914 -0.001154
vertex 0.005537 0.094953 -0.001005
vertex 0.007376 0.095420 -0.000658
endloop
endfacet
facet normal -0.186175 0.002758 0.982513
outer loop
vertex 0.007376 0.095420 -0.000658
vertex 0.005231 0.097914 -0.001072
vertex 0.004794 0.097914 -0.001154
endloop
endfacet
facet normal 0.720676 0.215911 0.658793
outer loop
vertex 0.007376 0.095420 -0.000658
vertex 0.008182 0.091768 -0.000343
vertex 0.008195 0.095565 -0.001601
endloop
endfacet
facet normal 0.190890 0.123923 0.973758
outer loop
vertex 0.005537 0.094953 -0.001005
vertex 0.005893 0.091907 -0.000688
vertex 0.006209 0.091260 -0.000667
endloop
endfacet
facet normal -0.489517 -0.017796 0.871812
outer loop
vertex 0.006209 0.091260 -0.000667
vertex 0.007432 0.087736 -0.000053
vertex 0.007085 0.091695 -0.000166
endloop
endfacet
facet normal 0.150516 0.104489 0.983070
outer loop
vertex 0.005893 0.091907 -0.000688
vertex 0.006543 0.089418 -0.000523
vertex 0.006209 0.091260 -0.000667
endloop
endfacet
facet normal -0.923344 -0.221943 0.313332
outer loop
vertex 0.006822 0.088532 -0.000340
vertex 0.005893 0.091907 -0.000688
vertex 0.005822 0.091104 -0.001466
endloop
endfacet
facet normal -0.680306 -0.109658 0.724679
outer loop
vertex 0.006209 0.091260 -0.000667
vertex 0.006984 0.087592 -0.000495
vertex 0.007208 0.087664 -0.000274
endloop
endfacet
facet normal -0.658732 -0.188321 0.728428
outer loop
vertex 0.007208 0.087664 -0.000274
vertex 0.008823 0.084232 0.000300
vertex 0.007432 0.087736 -0.000053
endloop
endfacet
facet normal -0.797080 -0.161478 0.581884
outer loop
vertex 0.006578 0.088939 -0.000561
vertex 0.007232 0.086701 -0.000286
vertex 0.006822 0.088532 -0.000340
endloop
endfacet
facet normal 0.041248 0.117856 0.992174
outer loop
vertex 0.007989 0.084005 0.000003
vertex 0.007232 0.086701 -0.000286
vertex 0.007968 0.084000 0.000005
endloop
endfacet
facet normal -0.129358 -0.142181 -0.981352
outer loop
vertex 0.007968 0.084000 0.000005
vertex 0.007189 0.086691 -0.000283
vertex 0.010850 0.080963 0.000064
endloop
endfacet
facet normal -0.195190 0.033252 0.980201
outer loop
vertex 0.007085 0.091695 -0.000166
vertex 0.008114 0.087919 0.000167
vertex 0.008270 0.087960 0.000196
endloop
endfacet
facet normal -0.186907 -0.000408 0.982378
outer loop
vertex 0.008823 0.084232 0.000300
vertex 0.008114 0.087919 0.000167
vertex 0.007855 0.087852 0.000117
endloop
endfacet
facet normal 0.957644 0.285255 0.039349
outer loop
vertex 0.010141 0.088236 -0.002119
vertex 0.009052 0.091859 -0.001892
vertex 0.010103 0.088276 -0.001485
endloop
endfacet
facet normal 0.005967 0.178635 0.983897
outer loop
vertex 0.007757 0.083913 -0.000452
vertex 0.008723 0.080805 0.000106
vertex 0.010850 0.080963 0.000064
endloop
endfacet
facet normal -0.747067 -0.098949 0.657343
outer loop
vertex 0.009292 0.077534 0.000260
vertex 0.008723 0.080805 0.000106
vertex 0.008408 0.080517 -0.000295
endloop
endfacet
facet normal -0.870419 -0.490858 0.037818
outer loop
vertex 0.009292 0.077534 0.000260
vertex 0.010118 0.075933 -0.001508
vertex 0.011809 0.073127 0.000985
endloop
endfacet
facet normal 0.763650 0.081061 0.640522
outer loop
vertex 0.011792 0.076750 0.000548
vertex 0.011809 0.073127 0.000985
vertex 0.013310 0.073591 -0.000863
endloop
endfacet
facet normal 0.248706 0.492055 -0.834283
outer loop
vertex 0.011792 0.076750 0.000548
vertex 0.013310 0.073591 -0.000863
vertex 0.010965 0.072967 -0.001930
endloop
endfacet
facet normal -0.911732 -0.300174 0.280429
outer loop
vertex 0.010118 0.075933 -0.001508
vertex 0.010965 0.072967 -0.001930
vertex 0.011809 0.073127 0.000985
endloop
endfacet
facet normal -0.932821 -0.292084 -0.211024
outer loop
vertex 0.009025 0.080187 -0.002561
vertex 0.010118 0.075933 -0.001508
vertex 0.008408 0.080517 -0.000295
endloop
endfacet
facet normal -0.742265 -0.399056 -0.538329
outer loop
vertex 0.007757 0.083913 -0.000452
vertex 0.006859 0.087456 -0.001841
vertex 0.009601 0.084151 -0.003173
endloop
endfacet
facet normal -0.953475 -0.193745 -0.230974
outer loop
vertex 0.007757 0.083913 -0.000452
vertex 0.009025 0.080187 -0.002561
vertex 0.008408 0.080517 -0.000295
endloop
endfacet
facet normal -0.324365 -0.433474 -0.840766
outer loop
vertex 0.006841 0.091174 -0.003751
vertex 0.009344 0.087968 -0.003064
vertex 0.006859 0.087456 -0.001841
endloop
endfacet
facet normal 0.702781 0.252794 -0.664976
outer loop
vertex 0.009052 0.091859 -0.001892
vertex 0.010141 0.088236 -0.002119
vertex 0.009344 0.087968 -0.003064
endloop
endfacet
facet normal 0.972483 0.228575 -0.045049
outer loop
vertex 0.008195 0.095565 -0.001601
vertex 0.009052 0.091859 -0.001892
vertex 0.008145 0.095431 -0.003359
endloop
endfacet
facet normal -0.966607 -0.237534 0.096166
outer loop
vertex 0.004540 0.097914 -0.003710
vertex 0.005537 0.094953 -0.001005
vertex 0.004794 0.097914 -0.001154
endloop
endfacet
facet normal 0.121676 0.263394 0.956984
outer loop
vertex 0.005231 0.097914 -0.001072
vertex 0.007376 0.095420 -0.000658
vertex 0.007145 0.097914 -0.001315
endloop
endfacet
facet normal 0.714712 0.239296 0.657210
outer loop
vertex 0.007145 0.097914 -0.001315
vertex 0.007376 0.095420 -0.000658
vertex 0.008195 0.095565 -0.001601
endloop
endfacet
facet normal 0.714707 0.239294 0.657216
outer loop
vertex 0.008195 0.095565 -0.001601
vertex 0.007440 0.097914 -0.001636
vertex 0.007145 0.097914 -0.001315
endloop
endfacet
facet normal -0.977786 -0.094787 0.186948
outer loop
vertex 0.005893 0.091907 -0.000688
vertex 0.005537 0.094953 -0.001005
vertex 0.005822 0.091104 -0.001466
endloop
endfacet
facet normal -0.680305 -0.109657 0.724680
outer loop
vertex 0.006209 0.091260 -0.000667
vertex 0.007208 0.087664 -0.000274
vertex 0.007432 0.087736 -0.000053
endloop
endfacet
facet normal -0.226064 0.008220 0.974078
outer loop
vertex 0.007432 0.087736 -0.000053
vertex 0.008823 0.084232 0.000300
vertex 0.007085 0.091695 -0.000166
endloop
endfacet
facet normal -0.438904 0.211734 0.873231
outer loop
vertex 0.005822 0.091104 -0.001466
vertex 0.006578 0.088939 -0.000561
vertex 0.006822 0.088532 -0.000340
endloop
endfacet
facet normal -0.797052 -0.161467 0.581925
outer loop
vertex 0.007232 0.086701 -0.000286
vertex 0.006578 0.088939 -0.000561
vertex 0.006681 0.088481 -0.000548
endloop
endfacet
facet normal 0.041287 0.117862 0.992171
outer loop
vertex 0.007189 0.086691 -0.000283
vertex 0.007968 0.084000 0.000005
vertex 0.007232 0.086701 -0.000286
endloop
endfacet
facet normal -0.267510 -0.112982 0.956908
outer loop
vertex 0.010850 0.080963 0.000064
vertex 0.007189 0.086691 -0.000283
vertex 0.007757 0.083913 -0.000452
endloop
endfacet
facet normal -0.195208 0.033246 0.980198
outer loop
vertex 0.008114 0.087919 0.000167
vertex 0.007085 0.091695 -0.000166
vertex 0.007855 0.087852 0.000117
endloop
endfacet
facet normal -0.186880 -0.000401 0.982383
outer loop
vertex 0.008823 0.084232 0.000300
vertex 0.007855 0.087852 0.000117
vertex 0.007648 0.087799 0.000078
endloop
endfacet
facet normal -0.741216 -0.111669 0.661913
outer loop
vertex 0.008723 0.080805 0.000106
vertex 0.007757 0.083913 -0.000452
vertex 0.008408 0.080517 -0.000295
endloop
endfacet
facet normal -0.938014 -0.307585 -0.159752
outer loop
vertex 0.008408 0.080517 -0.000295
vertex 0.010118 0.075933 -0.001508
vertex 0.009292 0.077534 0.000260
endloop
endfacet
facet normal 0.689207 0.333167 0.643423
outer loop
vertex 0.011809 0.073127 0.000985
vertex 0.013193 0.069883 0.001183
vertex 0.013310 0.073591 -0.000863
endloop
endfacet
facet normal 0.364922 0.188185 -0.911822
outer loop
vertex 0.013310 0.073591 -0.000863
vertex 0.013996 0.069881 -0.001354
vertex 0.010965 0.072967 -0.001930
endloop
endfacet
facet normal -0.951873 0.149874 0.267349
outer loop
vertex 0.010994 0.069272 0.000244
vertex 0.011809 0.073127 0.000985
vertex 0.010965 0.072967 -0.001930
endloop
endfacet
facet normal -0.960352 -0.270206 -0.068656
outer loop
vertex 0.007757 0.083913 -0.000452
vertex 0.006785 0.087504 -0.001003
vertex 0.006859 0.087456 -0.001841
endloop
endfacet
facet normal -0.890233 -0.211547 -0.403401
outer loop
vertex 0.006841 0.091174 -0.003751
vertex 0.006859 0.087456 -0.001841
vertex 0.005822 0.091104 -0.001466
endloop
endfacet
facet normal 0.566876 0.276096 -0.776159
outer loop
vertex 0.009052 0.091859 -0.001892
vertex 0.009344 0.087968 -0.003064
vertex 0.006841 0.091174 -0.003751
endloop
endfacet
facet normal 0.951091 0.304795 -0.050259
outer loop
vertex 0.007440 0.097914 -0.001636
vertex 0.008195 0.095565 -0.001601
vertex 0.008145 0.095431 -0.003359
endloop
endfacet
facet normal 0.951090 0.304797 -0.050262
outer loop
vertex 0.008145 0.095431 -0.003359
vertex 0.007409 0.097914 -0.002238
vertex 0.007440 0.097914 -0.001636
endloop
endfacet
facet normal 0.374637 -0.269252 -0.887215
outer loop
vertex 0.008145 0.095431 -0.003359
vertex 0.009052 0.091859 -0.001892
vertex 0.006199 0.094878 -0.004013
endloop
endfacet
facet normal -0.870594 -0.457766 -0.180320
outer loop
vertex 0.004612 0.097914 -0.004057
vertex 0.006199 0.094878 -0.004013
vertex 0.005537 0.094953 -0.001005
endloop
endfacet
facet normal -0.870600 -0.457760 -0.180311
outer loop
vertex 0.005537 0.094953 -0.001005
vertex 0.004540 0.097914 -0.003710
vertex 0.004612 0.097914 -0.004057
endloop
endfacet
facet normal -0.912974 -0.018877 -0.407580
outer loop
vertex 0.005822 0.091104 -0.001466
vertex 0.005537 0.094953 -0.001005
vertex 0.006841 0.091174 -0.003751
endloop
endfacet
facet normal -0.001954 -0.062825 -0.998023
outer loop
vertex 0.008823 0.084232 0.000300
vertex 0.007648 0.087799 0.000078
vertex 0.007085 0.091695 -0.000166
endloop
endfacet
facet normal -0.932497 -0.200098 0.300682
outer loop
vertex 0.006578 0.088939 -0.000561
vertex 0.005822 0.091104 -0.001466
vertex 0.006681 0.088481 -0.000548
endloop
endfacet
facet normal 0.032046 0.155107 0.987378
outer loop
vertex 0.006681 0.088481 -0.000548
vertex 0.007189 0.086691 -0.000283
vertex 0.007232 0.086701 -0.000286
endloop
endfacet
facet normal -0.910420 -0.207664 0.357787
outer loop
vertex 0.007757 0.083913 -0.000452
vertex 0.007189 0.086691 -0.000283
vertex 0.006889 0.087565 -0.000539
endloop
endfacet
facet normal -0.195185 0.033252 0.980202
outer loop
vertex 0.007855 0.087852 0.000117
vertex 0.007085 0.091695 -0.000166
vertex 0.007648 0.087799 0.000078
endloop
endfacet
facet normal -0.367057 -0.100184 0.924788
outer loop
vertex 0.011809 0.073127 0.000985
vertex 0.010994 0.069272 0.000244
vertex 0.013193 0.069883 0.001183
endloop
endfacet
facet normal 0.944597 0.135159 0.299114
outer loop
vertex 0.013310 0.073591 -0.000863
vertex 0.013193 0.069883 0.001183
vertex 0.013996 0.069881 -0.001354
endloop
endfacet
facet normal 0.226808 0.041067 -0.973073
outer loop
vertex 0.010965 0.072967 -0.001930
vertex 0.013996 0.069881 -0.001354
vertex 0.011620 0.069255 -0.001934
endloop
endfacet
facet normal -0.947989 -0.166965 -0.270996
outer loop
vertex 0.010994 0.069272 0.000244
vertex 0.010965 0.072967 -0.001930
vertex 0.011620 0.069255 -0.001934
endloop
endfacet
facet normal -0.945661 -0.218810 0.240516
outer loop
vertex 0.006785 0.087504 -0.001003
vertex 0.007757 0.083913 -0.000452
vertex 0.006889 0.087565 -0.000539
endloop
endfacet
facet normal -0.961442 -0.266217 -0.068983
outer loop
vertex 0.006785 0.087504 -0.001003
vertex 0.005822 0.091104 -0.001466
vertex 0.006859 0.087456 -0.001841
endloop
endfacet
facet normal 0.632438 0.054927 -0.772661
outer loop
vertex 0.006841 0.091174 -0.003751
vertex 0.006199 0.094878 -0.004013
vertex 0.009052 0.091859 -0.001892
endloop
endfacet
facet normal 0.925577 0.344957 -0.155922
outer loop
vertex 0.007409 0.097914 -0.002238
vertex 0.008145 0.095431 -0.003359
vertex 0.007132 0.097914 -0.003882
endloop
endfacet
facet normal 0.333653 -0.061749 -0.940672
outer loop
vertex 0.007132 0.097914 -0.003882
vertex 0.008145 0.095431 -0.003359
vertex 0.006199 0.094878 -0.004013
endloop
endfacet
facet normal 0.333658 -0.061750 -0.940670
outer loop
vertex 0.006199 0.094878 -0.004013
vertex 0.006612 0.097914 -0.004066
vertex 0.007132 0.097914 -0.003882
endloop
endfacet
facet normal -0.004614 -0.016726 -0.999849
outer loop
vertex 0.006612 0.097914 -0.004066
vertex 0.006199 0.094878 -0.004013
vertex 0.004612 0.097914 -0.004057
endloop
endfacet
facet normal -0.961372 -0.181178 -0.207215
outer loop
vertex 0.006199 0.094878 -0.004013
vertex 0.006841 0.091174 -0.003751
vertex 0.005537 0.094953 -0.001005
endloop
endfacet
facet normal -0.949291 -0.239611 0.203551
outer loop
vertex 0.006681 0.088481 -0.000548
vertex 0.005822 0.091104 -0.001466
vertex 0.007189 0.086691 -0.000283
endloop
endfacet
facet normal -0.596043 0.030440 0.802375
outer loop
vertex 0.007189 0.086691 -0.000283
vertex 0.005822 0.091104 -0.001466
vertex 0.006889 0.087565 -0.000539
endloop
endfacet
facet normal 0.236567 -0.968677 0.075506
outer loop
vertex 0.013193 0.069883 0.001183
vertex 0.010994 0.069272 0.000244
vertex 0.013996 0.069881 -0.001354
endloop
endfacet
facet normal 0.236568 -0.968677 0.075506
outer loop
vertex 0.010994 0.069272 0.000244
vertex 0.011620 0.069255 -0.001934
vertex 0.013996 0.069881 -0.001354
endloop
endfacet
facet normal -0.944864 -0.221964 0.240758
outer loop
vertex 0.005822 0.091104 -0.001466
vertex 0.006785 0.087504 -0.001003
vertex 0.006889 0.087565 -0.000539
endloop
endfacet
facet normal -0.000003 1.000000 0.000117
outer loop
vertex 0.004612 0.097914 -0.004057
vertex 0.007132 0.097914 -0.003882
vertex 0.006612 0.097914 -0.004066
endloop
endfacet
facet normal 0.000107 1.000000 -0.000032
outer loop
vertex 0.007440 0.097914 -0.001636
vertex 0.007409 0.097914 -0.002238
vertex 0.007132 0.097914 -0.003882
endloop
endfacet
facet normal 0.000003 1.000000 0.000020
outer loop
vertex 0.005231 0.097914 -0.001072
vertex 0.007145 0.097914 -0.001315
vertex 0.007440 0.097914 -0.001636
endloop
endfacet
facet normal -0.000001 1.000000 0.000007
outer loop
vertex 0.004540 0.097914 -0.003710
vertex 0.004794 0.097914 -0.001154
vertex 0.005231 0.097914 -0.001072
endloop
endfacet
facet normal 0.000001 1.000000 -0.000066
outer loop
vertex 0.004612 0.097914 -0.004057
vertex 0.004540 0.097914 -0.003710
vertex 0.007132 0.097914 -0.003882
endloop
endfacet
facet normal -0.000004 1.000000 -0.000004
outer loop
vertex 0.005231 0.097914 -0.001072
vertex 0.007440 0.097914 -0.001636
vertex 0.007132 0.097914 -0.003882
endloop
endfacet
facet normal 0.000003 1.000000 0.000008
outer loop
vertex 0.004540 0.097914 -0.003710
vertex 0.005231 0.097914 -0.001072
vertex 0.007132 0.097914 -0.003882
endloop
endfacet
endsolid Exported from Blender-2.74 (sub 0)
