solid Exported from Blender-2.74 (sub 0)
facet normal 0.286817 0.162443 0.944113
outer loop
vertex 0.002452 0.085158 0.010927
vertex 0.002077 0.088878 0.010401
vertex 0.001847 0.088892 0.010469
endloop
endfacet
facet normal 0.383629 0.173584 0.907027
outer loop
vertex 0.001847 0.088892 0.010469
vertex 0.001629 0.084421 0.011417
vertex 0.002452 0.085158 0.010927
endloop
endfacet
facet normal 0.286811 0.162444 0.944114
outer loop
vertex 0.002452 0.085158 0.010927
vertex 0.002192 0.088871 0.010367
vertex 0.002077 0.088878 0.010401
endloop
endfacet
facet normal 0.286988 0.193713 0.938144
outer loop
vertex 0.002077 0.088878 0.010401
vertex 0.002038 0.092553 0.009654
vertex 0.001847 0.088892 0.010469
endloop
endfacet
facet normal -0.405772 -0.170569 -0.897917
outer loop
vertex 0.001875 0.088429 0.010544
vertex 0.001629 0.084421 0.011417
vertex 0.001847 0.088892 0.010469
endloop
endfacet
facet normal 0.459820 0.073695 0.884949
outer loop
vertex 0.002070 0.081558 0.011426
vertex 0.002452 0.085158 0.010927
vertex 0.001629 0.084421 0.011417
endloop
endfacet
facet normal 0.515828 0.162940 0.841054
outer loop
vertex 0.002192 0.088871 0.010367
vertex 0.002452 0.085158 0.010927
vertex 0.002307 0.088857 0.010300
endloop
endfacet
facet normal 0.286988 0.193713 0.938143
outer loop
vertex 0.002192 0.088871 0.010367
vertex 0.002038 0.092553 0.009654
vertex 0.002077 0.088878 0.010401
endloop
endfacet
facet normal -0.462867 -0.169408 -0.870089
outer loop
vertex 0.002038 0.092553 0.009654
vertex 0.001875 0.088429 0.010544
vertex 0.001847 0.088892 0.010469
endloop
endfacet
facet normal 0.328522 0.181606 0.926872
outer loop
vertex 0.001613 0.087527 0.010813
vertex 0.001629 0.084421 0.011417
vertex 0.001875 0.088429 0.010544
endloop
endfacet
facet normal -0.399830 -0.058685 0.914709
outer loop
vertex 0.002070 0.081558 0.011426
vertex 0.001629 0.084421 0.011417
vertex 0.000852 0.085202 0.011127
endloop
endfacet
facet normal 0.867938 -0.023500 0.496116
outer loop
vertex 0.002452 0.085158 0.010927
vertex 0.002070 0.081558 0.011426
vertex 0.003121 0.084919 0.009747
endloop
endfacet
facet normal 0.515816 0.183690 0.836775
outer loop
vertex 0.002038 0.092553 0.009654
vertex 0.002192 0.088871 0.010367
vertex 0.002307 0.088857 0.010300
endloop
endfacet
facet normal 0.515825 0.162941 0.841056
outer loop
vertex 0.002452 0.085158 0.010927
vertex 0.002535 0.088829 0.010165
vertex 0.002307 0.088857 0.010300
endloop
endfacet
facet normal 0.308768 0.188915 0.932187
outer loop
vertex 0.001875 0.088429 0.010544
vertex 0.002038 0.092553 0.009654
vertex 0.001516 0.090750 0.010193
endloop
endfacet
facet normal 0.308769 0.188914 0.932187
outer loop
vertex 0.001516 0.090750 0.010193
vertex 0.001613 0.087527 0.010813
vertex 0.001875 0.088429 0.010544
endloop
endfacet
facet normal 0.672681 0.144271 0.725731
outer loop
vertex 0.001629 0.084421 0.011417
vertex 0.001613 0.087527 0.010813
vertex 0.001612 0.087068 0.010906
endloop
endfacet
facet normal -0.938537 -0.299713 0.171234
outer loop
vertex 0.000852 0.085202 0.011127
vertex -0.000014 0.087421 0.010266
vertex 0.002070 0.081558 0.011426
endloop
endfacet
facet normal -0.186063 0.173518 0.967095
outer loop
vertex 0.001629 0.084421 0.011417
vertex 0.001442 0.087530 0.010823
vertex 0.000852 0.085202 0.011127
endloop
endfacet
facet normal 0.873073 0.041872 0.485789
outer loop
vertex 0.003121 0.084919 0.009747
vertex 0.002999 0.088722 0.009638
vertex 0.002452 0.085158 0.010927
endloop
endfacet
facet normal 0.958942 -0.198686 0.202373
outer loop
vertex 0.002459 0.080940 0.008976
vertex 0.003121 0.084919 0.009747
vertex 0.002070 0.081558 0.011426
endloop
endfacet
facet normal 0.515814 0.183689 0.836776
outer loop
vertex 0.002535 0.088829 0.010165
vertex 0.002038 0.092553 0.009654
vertex 0.002307 0.088857 0.010300
endloop
endfacet
facet normal 0.725542 0.124153 0.676886
outer loop
vertex 0.002535 0.088829 0.010165
vertex 0.002452 0.085158 0.010927
vertex 0.002813 0.088771 0.009878
endloop
endfacet
facet normal 0.112769 0.254145 0.960569
outer loop
vertex 0.000944 0.092750 0.009731
vertex 0.001516 0.090750 0.010193
vertex 0.002038 0.092553 0.009654
endloop
endfacet
facet normal 0.245317 0.190537 0.950534
outer loop
vertex 0.001613 0.087527 0.010813
vertex 0.001516 0.090750 0.010193
vertex 0.001612 0.087068 0.010906
endloop
endfacet
facet normal -0.606980 -0.154250 -0.779604
outer loop
vertex 0.001619 0.087067 0.010901
vertex 0.001629 0.084421 0.011417
vertex 0.001612 0.087068 0.010906
endloop
endfacet
facet normal -0.408362 0.187351 0.893387
outer loop
vertex -0.000014 0.087421 0.010266
vertex 0.000852 0.085202 0.011127
vertex -0.000089 0.090626 0.009559
endloop
endfacet
facet normal 0.213637 0.262122 0.941090
outer loop
vertex 0.000028 0.086061 0.010635
vertex 0.002070 0.081558 0.011426
vertex -0.000014 0.087421 0.010266
endloop
endfacet
facet normal 0.067957 0.191116 0.979212
outer loop
vertex 0.001629 0.084421 0.011417
vertex 0.001619 0.087067 0.010901
vertex 0.001442 0.087530 0.010823
endloop
endfacet
facet normal -0.071862 0.147126 0.986504
outer loop
vertex 0.001247 0.088920 0.010601
vertex 0.000852 0.085202 0.011127
vertex 0.001442 0.087530 0.010823
endloop
endfacet
facet normal 0.857051 0.042155 0.513504
outer loop
vertex 0.002999 0.088722 0.009638
vertex 0.003121 0.084919 0.009747
vertex 0.003082 0.088695 0.009502
endloop
endfacet
facet normal 0.856380 0.054443 0.513467
outer loop
vertex 0.002893 0.088757 0.009810
vertex 0.002452 0.085158 0.010927
vertex 0.002999 0.088722 0.009638
endloop
endfacet
facet normal 0.988013 0.011545 0.153940
outer loop
vertex 0.001963 0.077332 0.012428
vertex 0.002459 0.080940 0.008976
vertex 0.002070 0.081558 0.011426
endloop
endfacet
facet normal 0.840206 -0.034889 -0.541144
outer loop
vertex 0.002459 0.080940 0.008976
vertex 0.001833 0.084525 0.007772
vertex 0.003121 0.084919 0.009747
endloop
endfacet
facet normal 0.724635 0.187740 0.663067
outer loop
vertex 0.002038 0.092553 0.009654
vertex 0.002535 0.088829 0.010165
vertex 0.002813 0.088771 0.009878
endloop
endfacet
facet normal -0.993552 0.074365 -0.085586
outer loop
vertex 0.002813 0.088771 0.009878
vertex 0.002452 0.085158 0.010927
vertex 0.002809 0.088782 0.009934
endloop
endfacet
facet normal 0.132495 0.381037 0.915017
outer loop
vertex 0.000264 0.096145 0.008415
vertex 0.000944 0.092750 0.009731
vertex 0.002038 0.092553 0.009654
endloop
endfacet
facet normal -0.146141 0.182885 0.972212
outer loop
vertex 0.000944 0.092750 0.009731
vertex 0.001527 0.089829 0.010368
vertex 0.001516 0.090750 0.010193
endloop
endfacet
facet normal -0.250560 0.177736 0.951646
outer loop
vertex 0.001612 0.087068 0.010906
vertex 0.001516 0.090750 0.010193
vertex 0.001527 0.089829 0.010368
endloop
endfacet
facet normal -0.606954 -0.170156 -0.776307
outer loop
vertex 0.001527 0.089829 0.010368
vertex 0.001619 0.087067 0.010901
vertex 0.001612 0.087068 0.010906
endloop
endfacet
facet normal 0.958858 -0.039581 -0.281114
outer loop
vertex -0.000038 0.089730 0.009858
vertex -0.000014 0.087421 0.010266
vertex -0.000089 0.090626 0.009559
endloop
endfacet
facet normal 0.650227 -0.104691 -0.752493
outer loop
vertex 0.000852 0.085202 0.011127
vertex -0.000090 0.088766 0.009817
vertex -0.000089 0.090626 0.009559
endloop
endfacet
facet normal 0.977093 -0.027036 -0.211088
outer loop
vertex -0.000038 0.089730 0.009858
vertex 0.000028 0.086061 0.010635
vertex -0.000014 0.087421 0.010266
endloop
endfacet
facet normal -0.050407 0.150511 0.987322
outer loop
vertex 0.000011 0.085133 0.010776
vertex 0.002070 0.081558 0.011426
vertex 0.000028 0.086061 0.010635
endloop
endfacet
facet normal 0.068535 0.191328 0.979131
outer loop
vertex 0.001619 0.087067 0.010901
vertex 0.001527 0.089829 0.010368
vertex 0.001442 0.087530 0.010823
endloop
endfacet
facet normal 0.728615 0.206095 0.653180
outer loop
vertex 0.001442 0.087530 0.010823
vertex 0.000944 0.092750 0.009731
vertex 0.001247 0.088920 0.010601
endloop
endfacet
facet normal -0.250619 0.161593 0.954504
outer loop
vertex 0.000852 0.085202 0.011127
vertex 0.001247 0.088920 0.010601
vertex 0.001194 0.088918 0.010588
endloop
endfacet
facet normal 0.854842 0.193270 0.481550
outer loop
vertex 0.003012 0.092257 0.008195
vertex 0.002999 0.088722 0.009638
vertex 0.003082 0.088695 0.009502
endloop
endfacet
facet normal 0.982803 0.022051 0.183338
outer loop
vertex 0.003082 0.088695 0.009502
vertex 0.003121 0.084919 0.009747
vertex 0.003165 0.088607 0.009068
endloop
endfacet
facet normal 0.853579 0.194059 0.483471
outer loop
vertex 0.003012 0.092257 0.008195
vertex 0.002893 0.088757 0.009810
vertex 0.002999 0.088722 0.009638
endloop
endfacet
facet normal 0.830873 0.069552 0.552099
outer loop
vertex 0.002809 0.088782 0.009934
vertex 0.002452 0.085158 0.010927
vertex 0.002893 0.088757 0.009810
endloop
endfacet
facet normal -0.129460 0.231873 0.964093
outer loop
vertex -0.000257 0.078616 0.011821
vertex 0.001963 0.077332 0.012428
vertex 0.002070 0.081558 0.011426
endloop
endfacet
facet normal 0.745406 -0.511423 -0.427570
outer loop
vertex 0.000295 0.076666 0.010315
vertex 0.002459 0.080940 0.008976
vertex 0.001963 0.077332 0.012428
endloop
endfacet
facet normal 0.114656 -0.298198 -0.947593
outer loop
vertex 0.000303 0.080896 0.008729
vertex 0.001833 0.084525 0.007772
vertex 0.002459 0.080940 0.008976
endloop
endfacet
facet normal 0.839660 -0.183695 -0.511104
outer loop
vertex 0.002467 0.088286 0.007464
vertex 0.003121 0.084919 0.009747
vertex 0.001833 0.084525 0.007772
endloop
endfacet
facet normal 0.832921 0.201222 0.515512
outer loop
vertex 0.002813 0.088771 0.009878
vertex 0.003012 0.092257 0.008195
vertex 0.002038 0.092553 0.009654
endloop
endfacet
facet normal -0.996969 0.020710 -0.074997
outer loop
vertex 0.003012 0.092257 0.008195
vertex 0.002813 0.088771 0.009878
vertex 0.002809 0.088782 0.009934
endloop
endfacet
facet normal -0.248957 0.203633 0.946865
outer loop
vertex 0.000264 0.096145 0.008415
vertex 0.002038 0.092553 0.009654
vertex 0.002132 0.096226 0.008889
endloop
endfacet
facet normal -0.541277 0.207187 0.814919
outer loop
vertex 0.000264 0.096145 0.008415
vertex 0.000028 0.092465 0.009195
vertex 0.000944 0.092750 0.009731
endloop
endfacet
facet normal -0.083075 0.196495 0.976979
outer loop
vertex 0.000944 0.092750 0.009731
vertex 0.001442 0.087530 0.010823
vertex 0.001527 0.089829 0.010368
endloop
endfacet
facet normal 0.958890 -0.039544 -0.281009
outer loop
vertex -0.000125 0.093159 0.009077
vertex -0.000038 0.089730 0.009858
vertex -0.000089 0.090626 0.009559
endloop
endfacet
facet normal -0.734171 0.054675 0.676759
outer loop
vertex -0.000090 0.088766 0.009817
vertex 0.000852 0.085202 0.011127
vertex 0.000129 0.088812 0.010050
endloop
endfacet
facet normal 0.685400 0.099500 0.721337
outer loop
vertex -0.000090 0.088766 0.009817
vertex 0.000028 0.092465 0.009195
vertex -0.000089 0.090626 0.009559
endloop
endfacet
facet normal -0.851716 0.093745 0.515550
outer loop
vertex 0.000028 0.086061 0.010635
vertex -0.000038 0.089730 0.009858
vertex -0.000072 0.087874 0.010140
endloop
endfacet
facet normal -0.851719 0.093743 0.515545
outer loop
vertex -0.000072 0.087874 0.010140
vertex 0.000011 0.085133 0.010776
vertex 0.000028 0.086061 0.010635
endloop
endfacet
facet normal -0.002556 0.177428 0.984130
outer loop
vertex 0.002070 0.081558 0.011426
vertex 0.000011 0.085133 0.010776
vertex -0.000011 0.085133 0.010776
endloop
endfacet
facet normal -0.250642 0.195721 0.948089
outer loop
vertex 0.001247 0.088920 0.010601
vertex 0.000944 0.092750 0.009731
vertex 0.001194 0.088918 0.010588
endloop
endfacet
facet normal -0.250591 0.161592 0.954511
outer loop
vertex 0.001036 0.088910 0.010548
vertex 0.000852 0.085202 0.011127
vertex 0.001194 0.088918 0.010588
endloop
endfacet
facet normal 0.981847 0.081862 0.171101
outer loop
vertex 0.003012 0.092257 0.008195
vertex 0.003082 0.088695 0.009502
vertex 0.003165 0.088607 0.009068
endloop
endfacet
facet normal 0.993459 0.009131 0.113820
outer loop
vertex 0.003121 0.084919 0.009747
vertex 0.003237 0.088482 0.008448
vertex 0.003165 0.088607 0.009068
endloop
endfacet
facet normal 0.827050 0.212087 0.520584
outer loop
vertex 0.003012 0.092257 0.008195
vertex 0.002809 0.088782 0.009934
vertex 0.002893 0.088757 0.009810
endloop
endfacet
facet normal -0.043420 0.166648 0.985060
outer loop
vertex -0.000033 0.081888 0.011277
vertex -0.000257 0.078616 0.011821
vertex 0.002070 0.081558 0.011426
endloop
endfacet
facet normal -0.115980 0.253433 0.960375
outer loop
vertex -0.000257 0.078616 0.011821
vertex 0.001102 0.073879 0.013235
vertex 0.001963 0.077332 0.012428
endloop
endfacet
facet normal 0.776877 0.045632 -0.627996
outer loop
vertex 0.000452 0.073557 0.010284
vertex 0.000295 0.076666 0.010315
vertex 0.001963 0.077332 0.012428
endloop
endfacet
facet normal 0.113709 -0.348953 -0.930216
outer loop
vertex 0.000295 0.076666 0.010315
vertex 0.000303 0.080896 0.008729
vertex 0.002459 0.080940 0.008976
endloop
endfacet
facet normal -0.756040 0.150710 -0.636938
outer loop
vertex 0.001833 0.084525 0.007772
vertex 0.000303 0.080896 0.008729
vertex -0.000204 0.085040 0.010312
endloop
endfacet
facet normal -0.365071 -0.014844 -0.930861
outer loop
vertex 0.002467 0.088286 0.007464
vertex 0.001833 0.084525 0.007772
vertex -0.000148 0.088498 0.008486
endloop
endfacet
facet normal 0.788296 -0.233188 -0.569396
outer loop
vertex 0.003237 0.088482 0.008448
vertex 0.003121 0.084919 0.009747
vertex 0.002467 0.088286 0.007464
endloop
endfacet
facet normal 0.833452 0.022293 0.552142
outer loop
vertex 0.003012 0.092257 0.008195
vertex 0.003027 0.096068 0.008020
vertex 0.002038 0.092553 0.009654
endloop
endfacet
facet normal -0.249156 0.164501 0.954390
outer loop
vertex 0.000254 0.097914 0.008108
vertex 0.000264 0.096145 0.008415
vertex 0.002132 0.096226 0.008889
endloop
endfacet
facet normal -0.249159 0.164502 0.954389
outer loop
vertex 0.002132 0.096226 0.008889
vertex 0.001261 0.097914 0.008371
vertex 0.000254 0.097914 0.008108
endloop
endfacet
facet normal 0.702897 0.127665 0.699741
outer loop
vertex 0.002132 0.096226 0.008889
vertex 0.002038 0.092553 0.009654
vertex 0.003027 0.096068 0.008020
endloop
endfacet
facet normal 0.145441 0.196028 0.969753
outer loop
vertex 0.000264 0.096145 0.008415
vertex -0.000125 0.093159 0.009077
vertex 0.000028 0.092465 0.009195
endloop
endfacet
facet normal -0.540316 0.199126 0.817562
outer loop
vertex 0.000028 0.092465 0.009195
vertex 0.000347 0.088858 0.010284
vertex 0.000944 0.092750 0.009731
endloop
endfacet
facet normal 0.101069 0.187429 0.977065
outer loop
vertex -0.000125 0.093159 0.009077
vertex -0.000089 0.090626 0.009559
vertex 0.000028 0.092465 0.009195
endloop
endfacet
facet normal -0.969369 0.030772 0.243672
outer loop
vertex -0.000038 0.089730 0.009858
vertex -0.000125 0.093159 0.009077
vertex -0.000327 0.092303 0.008383
endloop
endfacet
facet normal -0.736431 0.135111 0.662883
outer loop
vertex 0.000028 0.092465 0.009195
vertex -0.000090 0.088766 0.009817
vertex 0.000129 0.088812 0.010050
endloop
endfacet
facet normal -0.734166 0.054676 0.676765
outer loop
vertex 0.000129 0.088812 0.010050
vertex 0.000852 0.085202 0.011127
vertex 0.000347 0.088858 0.010284
endloop
endfacet
facet normal -0.851717 0.093744 0.515549
outer loop
vertex -0.000164 0.090151 0.009574
vertex -0.000072 0.087874 0.010140
vertex -0.000038 0.089730 0.009858
endloop
endfacet
facet normal -0.002449 0.225954 0.974135
outer loop
vertex 0.000011 0.085133 0.010776
vertex -0.000072 0.087874 0.010140
vertex -0.000011 0.085133 0.010776
endloop
endfacet
facet normal -0.089507 -0.228407 -0.969443
outer loop
vertex -0.000011 0.085133 0.010776
vertex -0.000116 0.087874 0.010139
vertex 0.002070 0.081558 0.011426
endloop
endfacet
facet normal -0.250632 0.195725 0.948090
outer loop
vertex 0.000944 0.092750 0.009731
vertex 0.001036 0.088910 0.010548
vertex 0.001194 0.088918 0.010588
endloop
endfacet
facet normal -0.250585 0.161592 0.954513
outer loop
vertex 0.000852 0.085202 0.011127
vertex 0.001036 0.088910 0.010548
vertex 0.000773 0.088897 0.010481
endloop
endfacet
facet normal 0.992572 0.065855 0.102293
outer loop
vertex 0.003237 0.088482 0.008448
vertex 0.003012 0.092257 0.008195
vertex 0.003165 0.088607 0.009068
endloop
endfacet
facet normal -0.021804 0.291629 0.956283
outer loop
vertex -0.000204 0.085040 0.010312
vertex -0.000033 0.081888 0.011277
vertex 0.002070 0.081558 0.011426
endloop
endfacet
facet normal -0.793923 0.152204 0.588660
outer loop
vertex -0.000257 0.078616 0.011821
vertex -0.000033 0.081888 0.011277
vertex -0.000377 0.081630 0.010879
endloop
endfacet
facet normal -0.961503 -0.274770 0.003657
outer loop
vertex -0.000257 0.078616 0.011821
vertex 0.000295 0.076666 0.010315
vertex 0.001102 0.073879 0.013235
endloop
endfacet
facet normal 0.714324 -0.014583 0.699663
outer loop
vertex 0.001963 0.077332 0.012428
vertex 0.001102 0.073879 0.013235
vertex 0.002796 0.073766 0.011503
endloop
endfacet
facet normal 0.415042 0.317993 -0.852421
outer loop
vertex 0.001963 0.077332 0.012428
vertex 0.002796 0.073766 0.011503
vertex 0.000452 0.073557 0.010284
endloop
endfacet
facet normal -0.974081 -0.051490 0.220261
outer loop
vertex 0.000295 0.076666 0.010315
vertex 0.000452 0.073557 0.010284
vertex 0.001102 0.073879 0.013235
endloop
endfacet
facet normal -0.957996 -0.099009 -0.269150
outer loop
vertex 0.000303 0.080896 0.008729
vertex 0.000295 0.076666 0.010315
vertex -0.000377 0.081630 0.010879
endloop
endfacet
facet normal -0.775150 -0.285171 -0.563755
outer loop
vertex -0.000204 0.085040 0.010312
vertex -0.000148 0.088498 0.008486
vertex 0.001833 0.084525 0.007772
endloop
endfacet
facet normal -0.953624 -0.001738 -0.300996
outer loop
vertex -0.000204 0.085040 0.010312
vertex 0.000303 0.080896 0.008729
vertex -0.000377 0.081630 0.010879
endloop
endfacet
facet normal -0.356632 -0.449126 -0.819206
outer loop
vertex 0.000838 0.091863 0.006211
vertex 0.002467 0.088286 0.007464
vertex -0.000148 0.088498 0.008486
endloop
endfacet
facet normal 0.787486 0.005536 -0.616308
outer loop
vertex 0.003012 0.092257 0.008195
vertex 0.003237 0.088482 0.008448
vertex 0.002467 0.088286 0.007464
endloop
endfacet
facet normal 0.999659 -0.002586 0.025997
outer loop
vertex 0.003027 0.096068 0.008020
vertex 0.003012 0.092257 0.008195
vertex 0.003071 0.095734 0.006289
endloop
endfacet
facet normal -0.999659 -0.001145 0.026097
outer loop
vertex 0.000210 0.097914 0.006440
vertex 0.000264 0.096145 0.008415
vertex 0.000254 0.097914 0.008108
endloop
endfacet
facet normal 0.112120 0.344343 0.932125
outer loop
vertex 0.001261 0.097914 0.008371
vertex 0.002132 0.096226 0.008889
vertex 0.002420 0.097914 0.008231
endloop
endfacet
facet normal 0.702699 0.151418 0.695188
outer loop
vertex 0.002420 0.097914 0.008231
vertex 0.002132 0.096226 0.008889
vertex 0.003027 0.096068 0.008020
endloop
endfacet
facet normal 0.702697 0.151417 0.695191
outer loop
vertex 0.003027 0.096068 0.008020
vertex 0.002890 0.097914 0.007756
vertex 0.002420 0.097914 0.008231
endloop
endfacet
facet normal -0.983521 0.150471 0.100228
outer loop
vertex -0.000125 0.093159 0.009077
vertex 0.000264 0.096145 0.008415
vertex -0.000327 0.092303 0.008383
endloop
endfacet
facet normal -0.736427 0.135112 0.662887
outer loop
vertex 0.000028 0.092465 0.009195
vertex 0.000129 0.088812 0.010050
vertex 0.000347 0.088858 0.010284
endloop
endfacet
facet normal -0.285970 0.177700 0.941618
outer loop
vertex 0.000347 0.088858 0.010284
vertex 0.000852 0.085202 0.011127
vertex 0.000944 0.092750 0.009731
endloop
endfacet
facet normal -0.437670 0.409848 0.800294
outer loop
vertex -0.000327 0.092303 0.008383
vertex -0.000164 0.090151 0.009574
vertex -0.000038 0.089730 0.009858
endloop
endfacet
facet normal -0.851717 0.093743 0.515548
outer loop
vertex -0.000072 0.087874 0.010140
vertex -0.000164 0.090151 0.009574
vertex -0.000172 0.089687 0.009644
endloop
endfacet
facet normal -0.002420 0.225957 0.974134
outer loop
vertex -0.000116 0.087874 0.010139
vertex -0.000011 0.085133 0.010776
vertex -0.000072 0.087874 0.010140
endloop
endfacet
facet normal -0.353282 0.067715 0.933063
outer loop
vertex 0.002070 0.081558 0.011426
vertex -0.000116 0.087874 0.010139
vertex -0.000204 0.085040 0.010312
endloop
endfacet
facet normal -0.250614 0.195725 0.948095
outer loop
vertex 0.001036 0.088910 0.010548
vertex 0.000944 0.092750 0.009731
vertex 0.000773 0.088897 0.010481
endloop
endfacet
facet normal -0.250579 0.161594 0.954514
outer loop
vertex 0.000852 0.085202 0.011127
vertex 0.000773 0.088897 0.010481
vertex 0.000562 0.088887 0.010427
endloop
endfacet
facet normal -0.791548 0.139151 0.595054
outer loop
vertex -0.000033 0.081888 0.011277
vertex -0.000204 0.085040 0.010312
vertex -0.000377 0.081630 0.010879
endloop
endfacet
facet normal -0.970271 -0.106565 -0.217299
outer loop
vertex -0.000377 0.081630 0.010879
vertex 0.000295 0.076666 0.010315
vertex -0.000257 0.078616 0.011821
endloop
endfacet
facet normal 0.700884 0.246213 0.669433
outer loop
vertex 0.001102 0.073879 0.013235
vertex 0.001671 0.070457 0.013898
vertex 0.002796 0.073766 0.011503
endloop
endfacet
facet normal 0.462152 -0.011338 -0.886728
outer loop
vertex 0.002796 0.073766 0.011503
vertex 0.002629 0.069965 0.011464
vertex 0.000452 0.073557 0.010284
endloop
endfacet
facet normal -0.906852 0.391035 0.157198
outer loop
vertex -0.000537 0.070245 0.012818
vertex 0.001102 0.073879 0.013235
vertex 0.000452 0.073557 0.010284
endloop
endfacet
facet normal -0.989613 -0.054281 -0.133114
outer loop
vertex -0.000204 0.085040 0.010312
vertex -0.000267 0.088663 0.009304
vertex -0.000148 0.088498 0.008486
endloop
endfacet
facet normal -0.884305 -0.054207 -0.463753
outer loop
vertex 0.000838 0.091863 0.006211
vertex -0.000148 0.088498 0.008486
vertex -0.000327 0.092303 0.008383
endloop
endfacet
facet normal 0.668985 0.044952 -0.741916
outer loop
vertex 0.003012 0.092257 0.008195
vertex 0.002467 0.088286 0.007464
vertex 0.000838 0.091863 0.006211
endloop
endfacet
facet normal 0.997103 0.075266 0.010942
outer loop
vertex 0.002890 0.097914 0.007756
vertex 0.003027 0.096068 0.008020
vertex 0.003071 0.095734 0.006289
endloop
endfacet
facet normal 0.997104 0.075265 0.010943
outer loop
vertex 0.003071 0.095734 0.006289
vertex 0.002899 0.097914 0.006921
vertex 0.002890 0.097914 0.007756
endloop
endfacet
facet normal 0.362877 -0.452775 -0.814442
outer loop
vertex 0.003071 0.095734 0.006289
vertex 0.003012 0.092257 0.008195
vertex 0.001101 0.095556 0.005510
endloop
endfacet
facet normal -0.938560 -0.269398 -0.215709
outer loop
vertex 0.000508 0.097914 0.005145
vertex 0.001101 0.095556 0.005510
vertex 0.000264 0.096145 0.008415
endloop
endfacet
facet normal -0.938560 -0.269397 -0.215710
outer loop
vertex 0.000264 0.096145 0.008415
vertex 0.000210 0.097914 0.006440
vertex 0.000508 0.097914 0.005145
endloop
endfacet
facet normal -0.861010 0.136662 -0.489883
outer loop
vertex -0.000327 0.092303 0.008383
vertex 0.000264 0.096145 0.008415
vertex 0.000838 0.091863 0.006211
endloop
endfacet
facet normal 0.053779 -0.182290 -0.981773
outer loop
vertex 0.000852 0.085202 0.011127
vertex 0.000562 0.088887 0.010427
vertex 0.000944 0.092750 0.009731
endloop
endfacet
facet normal -0.972250 0.052392 0.228003
outer loop
vertex -0.000164 0.090151 0.009574
vertex -0.000327 0.092303 0.008383
vertex -0.000172 0.089687 0.009644
endloop
endfacet
facet normal -0.002320 0.263464 0.964666
outer loop
vertex -0.000172 0.089687 0.009644
vertex -0.000116 0.087874 0.010139
vertex -0.000072 0.087874 0.010140
endloop
endfacet
facet normal -0.956631 0.047113 0.287467
outer loop
vertex -0.000204 0.085040 0.010312
vertex -0.000116 0.087874 0.010139
vertex -0.000185 0.088756 0.009767
endloop
endfacet
facet normal -0.250598 0.195725 0.948099
outer loop
vertex 0.000773 0.088897 0.010481
vertex 0.000944 0.092750 0.009731
vertex 0.000562 0.088887 0.010427
endloop
endfacet
facet normal -0.444562 0.098485 0.890317
outer loop
vertex 0.001102 0.073879 0.013235
vertex -0.000537 0.070245 0.012818
vertex 0.001671 0.070457 0.013898
endloop
endfacet
facet normal 0.926512 -0.044585 0.373614
outer loop
vertex 0.002796 0.073766 0.011503
vertex 0.001671 0.070457 0.013898
vertex 0.002629 0.069965 0.011464
endloop
endfacet
facet normal 0.298140 -0.130092 -0.945616
outer loop
vertex 0.000452 0.073557 0.010284
vertex 0.002629 0.069965 0.011464
vertex 0.000219 0.069822 0.010724
endloop
endfacet
facet normal -0.939221 0.018032 -0.342840
outer loop
vertex -0.000537 0.070245 0.012818
vertex 0.000452 0.073557 0.010284
vertex 0.000219 0.069822 0.010724
endloop
endfacet
facet normal -0.985144 0.029905 0.169105
outer loop
vertex -0.000267 0.088663 0.009304
vertex -0.000204 0.085040 0.010312
vertex -0.000185 0.088756 0.009767
endloop
endfacet
facet normal -0.989715 -0.050220 -0.133948
outer loop
vertex -0.000267 0.088663 0.009304
vertex -0.000327 0.092303 0.008383
vertex -0.000148 0.088498 0.008486
endloop
endfacet
facet normal 0.680600 -0.183157 -0.709392
outer loop
vertex 0.000838 0.091863 0.006211
vertex 0.001101 0.095556 0.005510
vertex 0.003012 0.092257 0.008195
endloop
endfacet
facet normal 0.989202 0.106902 -0.100258
outer loop
vertex 0.002899 0.097914 0.006921
vertex 0.003071 0.095734 0.006289
vertex 0.002760 0.097914 0.005549
endloop
endfacet
facet normal 0.375425 -0.249499 -0.892640
outer loop
vertex 0.002760 0.097914 0.005549
vertex 0.003071 0.095734 0.006289
vertex 0.001101 0.095556 0.005510
endloop
endfacet
facet normal 0.375426 -0.249500 -0.892639
outer loop
vertex 0.001101 0.095556 0.005510
vertex 0.002027 0.097914 0.005240
vertex 0.002760 0.097914 0.005549
endloop
endfacet
facet normal 0.062097 -0.137346 -0.988575
outer loop
vertex 0.002027 0.097914 0.005240
vertex 0.001101 0.095556 0.005510
vertex 0.000508 0.097914 0.005145
endloop
endfacet
facet normal -0.960018 0.015087 -0.279530
outer loop
vertex 0.001101 0.095556 0.005510
vertex 0.000838 0.091863 0.006211
vertex 0.000264 0.096145 0.008415
endloop
endfacet
facet normal -0.990922 0.006090 0.134299
outer loop
vertex -0.000172 0.089687 0.009644
vertex -0.000327 0.092303 0.008383
vertex -0.000116 0.087874 0.010139
endloop
endfacet
facet normal -0.627398 0.261143 0.733605
outer loop
vertex -0.000116 0.087874 0.010139
vertex -0.000327 0.092303 0.008383
vertex -0.000185 0.088756 0.009767
endloop
endfacet
facet normal -0.002421 -0.980373 0.197136
outer loop
vertex 0.001671 0.070457 0.013898
vertex -0.000537 0.070245 0.012818
vertex 0.002629 0.069965 0.011464
endloop
endfacet
facet normal -0.002417 -0.980373 0.197139
outer loop
vertex -0.000537 0.070245 0.012818
vertex 0.000219 0.069822 0.010724
vertex 0.002629 0.069965 0.011464
endloop
endfacet
facet normal -0.985127 0.026704 0.169742
outer loop
vertex -0.000327 0.092303 0.008383
vertex -0.000267 0.088663 0.009304
vertex -0.000185 0.088756 0.009767
endloop
endfacet
facet normal 0.000000 1.000000 0.000000
outer loop
vertex 0.002899 0.097914 0.006921
vertex 0.002420 0.097914 0.008231
vertex 0.002890 0.097914 0.007756
endloop
endfacet
facet normal 0.000000 1.000000 -0.000065
outer loop
vertex 0.000254 0.097914 0.008108
vertex 0.001261 0.097914 0.008371
vertex 0.002420 0.097914 0.008231
endloop
endfacet
facet normal 0.000000 1.000000 0.000000
outer loop
vertex 0.000508 0.097914 0.005145
vertex 0.000210 0.097914 0.006440
vertex 0.000254 0.097914 0.008108
endloop
endfacet
facet normal 0.000000 1.000000 -0.000073
outer loop
vertex 0.002760 0.097914 0.005549
vertex 0.002027 0.097914 0.005240
vertex 0.000508 0.097914 0.005145
endloop
endfacet
facet normal 0.000000 1.000000 0.000000
outer loop
vertex 0.002899 0.097914 0.006921
vertex 0.002760 0.097914 0.005549
vertex 0.002420 0.097914 0.008231
endloop
endfacet
facet normal 0.000000 1.000000 0.000005
outer loop
vertex 0.000508 0.097914 0.005145
vertex 0.000254 0.097914 0.008108
vertex 0.002420 0.097914 0.008231
endloop
endfacet
facet normal 0.000000 1.000000 0.000005
outer loop
vertex 0.002760 0.097914 0.005549
vertex 0.000508 0.097914 0.005145
vertex 0.002420 0.097914 0.008231
endloop
endfacet
endsolid Exported from Blender-2.74 (sub 0)
