solid Exported from Blender-2.74 (sub 0)
facet normal 0.272927 -0.164260 0.947908
outer loop
vertex 0.002490 0.084167 -0.008660
vertex 0.002114 0.087849 -0.007914
vertex 0.001882 0.087841 -0.007849
endloop
endfacet
facet normal 0.370213 -0.141570 0.918096
outer loop
vertex 0.001882 0.087841 -0.007849
vertex 0.001662 0.083311 -0.008458
vertex 0.002490 0.084167 -0.008660
endloop
endfacet
facet normal 0.272932 -0.164258 0.947907
outer loop
vertex 0.002490 0.084167 -0.008660
vertex 0.002229 0.087854 -0.007946
vertex 0.002114 0.087849 -0.007914
endloop
endfacet
facet normal 0.273103 -0.132798 0.952774
outer loop
vertex 0.002114 0.087849 -0.007914
vertex 0.002076 0.091562 -0.007385
vertex 0.001882 0.087841 -0.007849
endloop
endfacet
facet normal -0.392555 0.141406 -0.908793
outer loop
vertex 0.001910 0.087379 -0.007932
vertex 0.001662 0.083311 -0.008458
vertex 0.001882 0.087841 -0.007849
endloop
endfacet
facet normal 0.446961 -0.228460 0.864888
outer loop
vertex 0.002110 0.080610 -0.009403
vertex 0.002490 0.084167 -0.008660
vertex 0.001662 0.083311 -0.008458
endloop
endfacet
facet normal 0.503336 -0.129803 0.854285
outer loop
vertex 0.002229 0.087854 -0.007946
vertex 0.002490 0.084167 -0.008660
vertex 0.002344 0.087863 -0.008013
endloop
endfacet
facet normal 0.273110 -0.132798 0.952773
outer loop
vertex 0.002229 0.087854 -0.007946
vertex 0.002076 0.091562 -0.007385
vertex 0.002114 0.087849 -0.007914
endloop
endfacet
facet normal -0.450052 0.133308 -0.882996
outer loop
vertex 0.002076 0.091562 -0.007385
vertex 0.001910 0.087379 -0.007932
vertex 0.001882 0.087841 -0.007849
endloop
endfacet
facet normal 0.314805 -0.140529 0.938696
outer loop
vertex 0.001647 0.086440 -0.007985
vertex 0.001662 0.083311 -0.008458
vertex 0.001910 0.087379 -0.007932
endloop
endfacet
facet normal -0.412706 -0.361032 0.836259
outer loop
vertex 0.002110 0.080610 -0.009403
vertex 0.001662 0.083311 -0.008458
vertex 0.000887 0.084146 -0.008480
endloop
endfacet
facet normal 0.860822 -0.190648 0.471846
outer loop
vertex 0.002490 0.084167 -0.008660
vertex 0.002110 0.080610 -0.009403
vertex 0.003176 0.084336 -0.009842
endloop
endfacet
facet normal 0.503336 -0.108820 0.857211
outer loop
vertex 0.002076 0.091562 -0.007385
vertex 0.002229 0.087854 -0.007946
vertex 0.002344 0.087863 -0.008013
endloop
endfacet
facet normal 0.503383 -0.129797 0.854259
outer loop
vertex 0.002490 0.084167 -0.008660
vertex 0.002575 0.087881 -0.008146
vertex 0.002344 0.087863 -0.008013
endloop
endfacet
facet normal 0.294968 -0.135378 0.945868
outer loop
vertex 0.001910 0.087379 -0.007932
vertex 0.002076 0.091562 -0.007385
vertex 0.001550 0.089684 -0.007490
endloop
endfacet
facet normal 0.294968 -0.135378 0.945868
outer loop
vertex 0.001550 0.089684 -0.007490
vertex 0.001647 0.086440 -0.007985
vertex 0.001910 0.087379 -0.007932
endloop
endfacet
facet normal 0.662436 -0.109030 0.741141
outer loop
vertex 0.001662 0.083311 -0.008458
vertex 0.001647 0.086440 -0.007985
vertex 0.001646 0.085976 -0.008052
endloop
endfacet
facet normal -0.940146 -0.337460 0.047396
outer loop
vertex 0.000887 0.084146 -0.008480
vertex 0.000028 0.086528 -0.008559
vertex 0.002110 0.080610 -0.009403
endloop
endfacet
facet normal -0.200273 -0.160365 0.966527
outer loop
vertex 0.001662 0.083311 -0.008458
vertex 0.001475 0.086439 -0.007978
vertex 0.000887 0.084146 -0.008480
endloop
endfacet
facet normal 0.865945 -0.125610 0.484109
outer loop
vertex 0.003176 0.084336 -0.009842
vertex 0.003046 0.087956 -0.008672
vertex 0.002490 0.084167 -0.008660
endloop
endfacet
facet normal 0.956441 -0.257412 0.137696
outer loop
vertex 0.002535 0.080848 -0.011912
vertex 0.003176 0.084336 -0.009842
vertex 0.002110 0.080610 -0.009403
endloop
endfacet
facet normal 0.503386 -0.108813 0.857183
outer loop
vertex 0.002575 0.087881 -0.008146
vertex 0.002076 0.091562 -0.007385
vertex 0.002344 0.087863 -0.008013
endloop
endfacet
facet normal 0.715496 -0.111808 0.689611
outer loop
vertex 0.002575 0.087881 -0.008146
vertex 0.002490 0.084167 -0.008660
vertex 0.002857 0.087922 -0.008432
endloop
endfacet
facet normal 0.098428 -0.082955 0.991681
outer loop
vertex 0.000981 0.091725 -0.007263
vertex 0.001550 0.089684 -0.007490
vertex 0.002076 0.091562 -0.007385
endloop
endfacet
facet normal 0.231554 -0.139842 0.962718
outer loop
vertex 0.001647 0.086440 -0.007985
vertex 0.001550 0.089684 -0.007490
vertex 0.001646 0.085976 -0.008052
endloop
endfacet
facet normal -0.595863 0.117553 -0.794436
outer loop
vertex 0.001652 0.085977 -0.008057
vertex 0.001662 0.083311 -0.008458
vertex 0.001646 0.085976 -0.008052
endloop
endfacet
facet normal -0.421537 -0.122066 0.898558
outer loop
vertex 0.000028 0.086528 -0.008559
vertex 0.000887 0.084146 -0.008480
vertex -0.000044 0.089784 -0.008151
endloop
endfacet
facet normal 0.199543 -0.069159 0.977445
outer loop
vertex 0.000068 0.085122 -0.008667
vertex 0.002110 0.080610 -0.009403
vertex 0.000028 0.086528 -0.008559
endloop
endfacet
facet normal 0.053487 -0.148476 0.987468
outer loop
vertex 0.001662 0.083311 -0.008458
vertex 0.001652 0.085977 -0.008057
vertex 0.001475 0.086439 -0.007978
endloop
endfacet
facet normal -0.086297 -0.192018 0.977590
outer loop
vertex 0.001281 0.087824 -0.007723
vertex 0.000887 0.084146 -0.008480
vertex 0.001475 0.086439 -0.007978
endloop
endfacet
facet normal 0.849529 -0.134596 0.510082
outer loop
vertex 0.003046 0.087956 -0.008672
vertex 0.003176 0.084336 -0.009842
vertex 0.003131 0.087976 -0.008807
endloop
endfacet
facet normal 0.848822 -0.123006 0.514170
outer loop
vertex 0.002938 0.087932 -0.008499
vertex 0.002490 0.084167 -0.008660
vertex 0.003046 0.087956 -0.008672
endloop
endfacet
facet normal 0.985683 -0.043185 0.162984
outer loop
vertex 0.001999 0.076293 -0.009878
vertex 0.002535 0.080848 -0.011912
vertex 0.002110 0.080610 -0.009403
endloop
endfacet
facet normal 0.847927 0.146517 -0.509464
outer loop
vertex 0.002535 0.080848 -0.011912
vertex 0.001917 0.084630 -0.011853
vertex 0.003176 0.084336 -0.009842
endloop
endfacet
facet normal 0.714627 -0.047270 0.697906
outer loop
vertex 0.002076 0.091562 -0.007385
vertex 0.002575 0.087881 -0.008146
vertex 0.002857 0.087922 -0.008432
endloop
endfacet
facet normal -0.992411 0.101203 -0.069839
outer loop
vertex 0.002857 0.087922 -0.008432
vertex 0.002490 0.084167 -0.008660
vertex 0.002852 0.087914 -0.008376
endloop
endfacet
facet normal 0.118487 0.051813 0.991603
outer loop
vertex 0.000311 0.095366 -0.007373
vertex 0.000981 0.091725 -0.007263
vertex 0.002076 0.091562 -0.007385
endloop
endfacet
facet normal -0.160476 -0.153361 0.975053
outer loop
vertex 0.000981 0.091725 -0.007263
vertex 0.001561 0.088758 -0.007634
vertex 0.001550 0.089684 -0.007490
endloop
endfacet
facet normal -0.264825 -0.151042 0.952394
outer loop
vertex 0.001646 0.085976 -0.008052
vertex 0.001550 0.089684 -0.007490
vertex 0.001561 0.088758 -0.007634
endloop
endfacet
facet normal -0.595727 0.101469 -0.796752
outer loop
vertex 0.001561 0.088758 -0.007634
vertex 0.001652 0.085977 -0.008057
vertex 0.001646 0.085976 -0.008052
endloop
endfacet
facet normal 0.962873 0.054607 -0.264375
outer loop
vertex 0.000004 0.088839 -0.008169
vertex 0.000028 0.086528 -0.008559
vertex -0.000044 0.089784 -0.008151
endloop
endfacet
facet normal 0.661153 0.152095 -0.734673
outer loop
vertex 0.000887 0.084146 -0.008480
vertex -0.000045 0.087945 -0.008532
vertex -0.000044 0.089784 -0.008151
endloop
endfacet
facet normal 0.980074 0.042898 -0.193946
outer loop
vertex 0.000004 0.088839 -0.008169
vertex 0.000068 0.085122 -0.008667
vertex 0.000028 0.086528 -0.008559
endloop
endfacet
facet normal -0.064872 -0.189164 0.979800
outer loop
vertex 0.000052 0.084201 -0.008846
vertex 0.002110 0.080610 -0.009403
vertex 0.000068 0.085122 -0.008667
endloop
endfacet
facet normal 0.054064 -0.148253 0.987471
outer loop
vertex 0.001652 0.085977 -0.008057
vertex 0.001561 0.088758 -0.007634
vertex 0.001475 0.086439 -0.007978
endloop
endfacet
facet normal 0.718676 -0.026677 0.694834
outer loop
vertex 0.001475 0.086439 -0.007978
vertex 0.000981 0.091725 -0.007263
vertex 0.001281 0.087824 -0.007723
endloop
endfacet
facet normal -0.264535 -0.167231 0.949766
outer loop
vertex 0.000887 0.084146 -0.008480
vertex 0.001281 0.087824 -0.007723
vertex 0.001228 0.087826 -0.007737
endloop
endfacet
facet normal 0.847409 0.018489 0.530618
outer loop
vertex 0.003072 0.091770 -0.008845
vertex 0.003046 0.087956 -0.008672
vertex 0.003131 0.087976 -0.008807
endloop
endfacet
facet normal 0.980029 -0.043133 0.194123
outer loop
vertex 0.003131 0.087976 -0.008807
vertex 0.003176 0.084336 -0.009842
vertex 0.003220 0.088038 -0.009244
endloop
endfacet
facet normal 0.846111 0.018592 0.532682
outer loop
vertex 0.003072 0.091770 -0.008845
vertex 0.002938 0.087932 -0.008499
vertex 0.003046 0.087956 -0.008672
endloop
endfacet
facet normal 0.822739 -0.121661 0.555248
outer loop
vertex 0.002852 0.087914 -0.008376
vertex 0.002490 0.084167 -0.008660
vertex 0.002938 0.087932 -0.008499
endloop
endfacet
facet normal -0.143776 -0.104522 0.984075
outer loop
vertex -0.000215 0.077711 -0.010051
vertex 0.001999 0.076293 -0.009878
vertex 0.002110 0.080610 -0.009403
endloop
endfacet
facet normal 0.752687 -0.340273 -0.563629
outer loop
vertex 0.000362 0.076378 -0.012115
vertex 0.002535 0.080848 -0.011912
vertex 0.001999 0.076293 -0.009878
endloop
endfacet
facet normal 0.128903 0.036542 -0.990984
outer loop
vertex 0.000383 0.080894 -0.012190
vertex 0.001917 0.084630 -0.011853
vertex 0.002535 0.080848 -0.011912
endloop
endfacet
facet normal 0.847319 -0.003743 -0.531071
outer loop
vertex 0.002547 0.088276 -0.010874
vertex 0.003176 0.084336 -0.009842
vertex 0.001917 0.084630 -0.011853
endloop
endfacet
facet normal 0.824979 0.014646 0.564974
outer loop
vertex 0.002857 0.087922 -0.008432
vertex 0.003072 0.091770 -0.008845
vertex 0.002076 0.091562 -0.007385
endloop
endfacet
facet normal -0.995844 0.047130 -0.077934
outer loop
vertex 0.003072 0.091770 -0.008845
vertex 0.002857 0.087922 -0.008432
vertex 0.002852 0.087914 -0.008376
endloop
endfacet
facet normal -0.262948 -0.125058 0.956671
outer loop
vertex 0.000311 0.095366 -0.007373
vertex 0.002076 0.091562 -0.007385
vertex 0.002172 0.095279 -0.006873
endloop
endfacet
facet normal -0.553361 -0.076741 0.829399
outer loop
vertex 0.000311 0.095366 -0.007373
vertex 0.000073 0.091639 -0.007876
vertex 0.000981 0.091725 -0.007263
endloop
endfacet
facet normal -0.097490 -0.142290 0.985012
outer loop
vertex 0.000981 0.091725 -0.007263
vertex 0.001475 0.086439 -0.007978
vertex 0.001561 0.088758 -0.007634
endloop
endfacet
facet normal 0.962902 0.054606 -0.264271
outer loop
vertex -0.000081 0.092332 -0.007756
vertex 0.000004 0.088839 -0.008169
vertex -0.000044 0.089784 -0.008151
endloop
endfacet
facet normal -0.743881 -0.173614 0.645368
outer loop
vertex -0.000045 0.087945 -0.008532
vertex 0.000887 0.084146 -0.008480
vertex 0.000170 0.087910 -0.008294
endloop
endfacet
facet normal 0.674752 -0.149846 0.722672
outer loop
vertex -0.000045 0.087945 -0.008532
vertex 0.000073 0.091639 -0.007876
vertex -0.000044 0.089784 -0.008151
endloop
endfacet
facet normal -0.859229 -0.082456 0.504902
outer loop
vertex 0.000068 0.085122 -0.008667
vertex 0.000004 0.088839 -0.008169
vertex -0.000029 0.086997 -0.008527
endloop
endfacet
facet normal -0.859236 -0.082457 0.504890
outer loop
vertex -0.000029 0.086997 -0.008527
vertex 0.000052 0.084201 -0.008846
vertex 0.000068 0.085122 -0.008667
endloop
endfacet
facet normal -0.017023 -0.162872 0.986500
outer loop
vertex 0.002110 0.080610 -0.009403
vertex 0.000052 0.084201 -0.008846
vertex 0.000029 0.084201 -0.008846
endloop
endfacet
facet normal -0.264553 -0.132913 0.955168
outer loop
vertex 0.001281 0.087824 -0.007723
vertex 0.000981 0.091725 -0.007263
vertex 0.001228 0.087826 -0.007737
endloop
endfacet
facet normal -0.264572 -0.167225 0.949757
outer loop
vertex 0.001070 0.087833 -0.007780
vertex 0.000887 0.084146 -0.008480
vertex 0.001228 0.087826 -0.007737
endloop
endfacet
facet normal 0.979101 0.017321 0.202637
outer loop
vertex 0.003072 0.091770 -0.008845
vertex 0.003131 0.087976 -0.008807
vertex 0.003220 0.088038 -0.009244
endloop
endfacet
facet normal 0.991708 -0.032020 0.124460
outer loop
vertex 0.003176 0.084336 -0.009842
vertex 0.003302 0.088129 -0.009869
vertex 0.003220 0.088038 -0.009244
endloop
endfacet
facet normal 0.819007 0.023194 0.573315
outer loop
vertex 0.003072 0.091770 -0.008845
vertex 0.002852 0.087914 -0.008376
vertex 0.002938 0.087932 -0.008499
endloop
endfacet
facet normal -0.057884 -0.173216 0.983181
outer loop
vertex 0.000008 0.080975 -0.009462
vertex -0.000215 0.077711 -0.010051
vertex 0.002110 0.080610 -0.009403
endloop
endfacet
facet normal -0.130298 -0.082999 0.987995
outer loop
vertex -0.000215 0.077711 -0.010051
vertex 0.001135 0.072771 -0.010288
vertex 0.001999 0.076293 -0.009878
endloop
endfacet
facet normal 0.785648 0.251658 -0.565177
outer loop
vertex 0.000528 0.073459 -0.013185
vertex 0.000362 0.076378 -0.012115
vertex 0.001999 0.076293 -0.009878
endloop
endfacet
facet normal 0.127833 -0.017099 -0.991648
outer loop
vertex 0.000362 0.076378 -0.012115
vertex 0.000383 0.080894 -0.012190
vertex 0.002535 0.080848 -0.011912
endloop
endfacet
facet normal -0.747237 0.357437 -0.560246
outer loop
vertex 0.001917 0.084630 -0.011853
vertex 0.000383 0.080894 -0.012190
vertex -0.000157 0.084270 -0.009317
endloop
endfacet
facet normal -0.351708 0.299064 -0.887052
outer loop
vertex 0.002547 0.088276 -0.010874
vertex 0.001917 0.084630 -0.011853
vertex -0.000083 0.088139 -0.009877
endloop
endfacet
facet normal 0.796916 -0.030696 -0.603310
outer loop
vertex 0.003302 0.088129 -0.009869
vertex 0.003176 0.084336 -0.009842
vertex 0.002547 0.088276 -0.010874
endloop
endfacet
facet normal 0.825428 -0.166208 0.539485
outer loop
vertex 0.003072 0.091770 -0.008845
vertex 0.003079 0.095419 -0.007732
vertex 0.002076 0.091562 -0.007385
endloop
endfacet
facet normal -0.263160 -0.164443 0.950634
outer loop
vertex 0.000296 0.097914 -0.006936
vertex 0.000311 0.095366 -0.007373
vertex 0.002172 0.095279 -0.006873
endloop
endfacet
facet normal -0.263159 -0.164442 0.950635
outer loop
vertex 0.002172 0.095279 -0.006873
vertex 0.000876 0.097914 -0.006776
vertex 0.000296 0.097914 -0.006936
endloop
endfacet
facet normal 0.692525 -0.116109 0.711989
outer loop
vertex 0.002172 0.095279 -0.006873
vertex 0.002076 0.091562 -0.007385
vertex 0.003079 0.095419 -0.007732
endloop
endfacet
facet normal 0.131105 -0.140872 0.981309
outer loop
vertex 0.000311 0.095366 -0.007373
vertex -0.000081 0.092332 -0.007756
vertex 0.000073 0.091639 -0.007876
endloop
endfacet
facet normal -0.552420 -0.085224 0.829198
outer loop
vertex 0.000073 0.091639 -0.007876
vertex 0.000385 0.087875 -0.008056
vertex 0.000981 0.091725 -0.007263
endloop
endfacet
facet normal 0.086681 -0.151314 0.984678
outer loop
vertex -0.000081 0.092332 -0.007756
vertex -0.000044 0.089784 -0.008151
vertex 0.000073 0.091639 -0.007876
endloop
endfacet
facet normal -0.972822 -0.050325 0.226018
outer loop
vertex 0.000004 0.088839 -0.008169
vertex -0.000081 0.092332 -0.007756
vertex -0.000270 0.091759 -0.008701
endloop
endfacet
facet normal -0.746139 -0.093179 0.659238
outer loop
vertex 0.000073 0.091639 -0.007876
vertex -0.000045 0.087945 -0.008532
vertex 0.000170 0.087910 -0.008294
endloop
endfacet
facet normal -0.743885 -0.173613 0.645362
outer loop
vertex 0.000170 0.087910 -0.008294
vertex 0.000887 0.084146 -0.008480
vertex 0.000385 0.087875 -0.008056
endloop
endfacet
facet normal -0.859223 -0.082459 0.504912
outer loop
vertex -0.000119 0.089332 -0.008298
vertex -0.000029 0.086997 -0.008527
vertex 0.000004 0.088839 -0.008169
endloop
endfacet
facet normal -0.016911 -0.113776 0.993362
outer loop
vertex 0.000052 0.084201 -0.008846
vertex -0.000029 0.086997 -0.008527
vertex 0.000029 0.084201 -0.008846
endloop
endfacet
facet normal -0.075101 0.110125 -0.991076
outer loop
vertex 0.000029 0.084201 -0.008846
vertex -0.000074 0.086997 -0.008528
vertex 0.002110 0.080610 -0.009403
endloop
endfacet
facet normal -0.264590 -0.132913 0.955158
outer loop
vertex 0.000981 0.091725 -0.007263
vertex 0.001070 0.087833 -0.007780
vertex 0.001228 0.087826 -0.007737
endloop
endfacet
facet normal -0.264585 -0.167224 0.949753
outer loop
vertex 0.000887 0.084146 -0.008480
vertex 0.001070 0.087833 -0.007780
vertex 0.000808 0.087844 -0.007851
endloop
endfacet
facet normal 0.990845 0.025287 0.132613
outer loop
vertex 0.003302 0.088129 -0.009869
vertex 0.003072 0.091770 -0.008845
vertex 0.003220 0.088038 -0.009244
endloop
endfacet
facet normal -0.036167 -0.045870 0.998293
outer loop
vertex -0.000157 0.084270 -0.009317
vertex 0.000008 0.080975 -0.009462
vertex 0.002110 0.080610 -0.009403
endloop
endfacet
facet normal -0.802614 -0.052045 0.594224
outer loop
vertex -0.000215 0.077711 -0.010051
vertex 0.000008 0.080975 -0.009462
vertex -0.000330 0.080867 -0.009928
endloop
endfacet
facet normal -0.960779 -0.257711 -0.102415
outer loop
vertex -0.000215 0.077711 -0.010051
vertex 0.000362 0.076378 -0.012115
vertex 0.001135 0.072771 -0.010288
endloop
endfacet
facet normal 0.704298 -0.250121 0.664382
outer loop
vertex 0.001999 0.076293 -0.009878
vertex 0.001135 0.072771 -0.010288
vertex 0.002854 0.073241 -0.011933
endloop
endfacet
facet normal 0.426384 0.584398 -0.690417
outer loop
vertex 0.001999 0.076293 -0.009878
vertex 0.002854 0.073241 -0.011933
vertex 0.000528 0.073459 -0.013185
endloop
endfacet
facet normal -0.976996 -0.119963 0.176316
outer loop
vertex 0.000362 0.076378 -0.012115
vertex 0.000528 0.073459 -0.013185
vertex 0.001135 0.072771 -0.010288
endloop
endfacet
facet normal -0.953810 -0.000655 -0.300411
outer loop
vertex 0.000383 0.080894 -0.012190
vertex 0.000362 0.076378 -0.012115
vertex -0.000330 0.080867 -0.009928
endloop
endfacet
facet normal -0.766322 -0.077699 -0.637741
outer loop
vertex -0.000157 0.084270 -0.009317
vertex -0.000083 0.088139 -0.009877
vertex 0.001917 0.084630 -0.011853
endloop
endfacet
facet normal -0.949224 0.101651 -0.297728
outer loop
vertex -0.000157 0.084270 -0.009317
vertex 0.000383 0.080894 -0.012190
vertex -0.000330 0.080867 -0.009928
endloop
endfacet
facet normal -0.343798 -0.147535 -0.927382
outer loop
vertex 0.000927 0.092070 -0.010877
vertex 0.002547 0.088276 -0.010874
vertex -0.000083 0.088139 -0.009877
endloop
endfacet
facet normal 0.796187 0.209936 -0.567462
outer loop
vertex 0.003072 0.091770 -0.008845
vertex 0.003302 0.088129 -0.009869
vertex 0.002547 0.088276 -0.010874
endloop
endfacet
facet normal 0.999189 -0.013624 0.037889
outer loop
vertex 0.003079 0.095419 -0.007732
vertex 0.003072 0.091770 -0.008845
vertex 0.003149 0.095685 -0.009474
endloop
endfacet
facet normal -0.999924 -0.007361 0.009932
outer loop
vertex 0.000278 0.097914 -0.008761
vertex 0.000311 0.095366 -0.007373
vertex 0.000296 0.097914 -0.006936
endloop
endfacet
facet normal 0.097955 0.011558 0.995124
outer loop
vertex 0.000876 0.097914 -0.006776
vertex 0.002172 0.095279 -0.006873
vertex 0.002598 0.097914 -0.006945
endloop
endfacet
facet normal 0.692327 -0.092205 0.715668
outer loop
vertex 0.002598 0.097914 -0.006945
vertex 0.002172 0.095279 -0.006873
vertex 0.003079 0.095419 -0.007732
endloop
endfacet
facet normal 0.692331 -0.092205 0.715665
outer loop
vertex 0.003079 0.095419 -0.007732
vertex 0.002892 0.097914 -0.007230
vertex 0.002598 0.097914 -0.006945
endloop
endfacet
facet normal -0.985218 0.110579 0.130839
outer loop
vertex -0.000081 0.092332 -0.007756
vertex 0.000311 0.095366 -0.007373
vertex -0.000270 0.091759 -0.008701
endloop
endfacet
facet normal -0.746144 -0.093179 0.659232
outer loop
vertex 0.000073 0.091639 -0.007876
vertex 0.000170 0.087910 -0.008294
vertex 0.000385 0.087875 -0.008056
endloop
endfacet
facet normal -0.299817 -0.147637 0.942504
outer loop
vertex 0.000385 0.087875 -0.008056
vertex 0.000887 0.084146 -0.008480
vertex 0.000981 0.091725 -0.007263
endloop
endfacet
facet normal -0.450062 0.118832 0.885056
outer loop
vertex -0.000270 0.091759 -0.008701
vertex -0.000119 0.089332 -0.008298
vertex 0.000004 0.088839 -0.008169
endloop
endfacet
facet normal -0.859205 -0.082461 0.504943
outer loop
vertex -0.000029 0.086997 -0.008527
vertex -0.000119 0.089332 -0.008298
vertex -0.000127 0.088871 -0.008387
endloop
endfacet
facet normal -0.016824 -0.113775 0.993364
outer loop
vertex -0.000074 0.086997 -0.008528
vertex 0.000029 0.084201 -0.008846
vertex -0.000029 0.086997 -0.008527
endloop
endfacet
facet normal -0.366728 -0.248219 0.896604
outer loop
vertex 0.002110 0.080610 -0.009403
vertex -0.000074 0.086997 -0.008528
vertex -0.000157 0.084270 -0.009317
endloop
endfacet
facet normal -0.264608 -0.132912 0.955153
outer loop
vertex 0.001070 0.087833 -0.007780
vertex 0.000981 0.091725 -0.007263
vertex 0.000808 0.087844 -0.007851
endloop
endfacet
facet normal -0.264589 -0.167223 0.949752
outer loop
vertex 0.000887 0.084146 -0.008480
vertex 0.000808 0.087844 -0.007851
vertex 0.000598 0.087853 -0.007908
endloop
endfacet
facet normal -0.800303 -0.066489 0.595898
outer loop
vertex 0.000008 0.080975 -0.009462
vertex -0.000157 0.084270 -0.009317
vertex -0.000330 0.080867 -0.009928
endloop
endfacet
facet normal -0.966805 -0.025130 -0.254277
outer loop
vertex -0.000330 0.080867 -0.009928
vertex 0.000362 0.076378 -0.012115
vertex -0.000215 0.077711 -0.010051
endloop
endfacet
facet normal 0.690649 0.005742 0.723167
outer loop
vertex 0.001135 0.072771 -0.010288
vertex 0.001703 0.069323 -0.010803
vertex 0.002854 0.073241 -0.011933
endloop
endfacet
facet normal 0.474790 0.285524 -0.832496
outer loop
vertex 0.002854 0.073241 -0.011933
vertex 0.002697 0.069674 -0.013246
vertex 0.000528 0.073459 -0.013185
endloop
endfacet
facet normal -0.909963 0.317919 0.266262
outer loop
vertex -0.000489 0.069491 -0.011922
vertex 0.001135 0.072771 -0.010288
vertex 0.000528 0.073459 -0.013185
endloop
endfacet
facet normal -0.987476 -0.004056 -0.157718
outer loop
vertex -0.000157 0.084270 -0.009317
vertex -0.000215 0.088021 -0.009053
vertex -0.000083 0.088139 -0.009877
endloop
endfacet
facet normal -0.877458 0.106627 -0.467652
outer loop
vertex 0.000927 0.092070 -0.010877
vertex -0.000083 0.088139 -0.009877
vertex -0.000270 0.091759 -0.008701
endloop
endfacet
facet normal 0.679394 0.289484 -0.674258
outer loop
vertex 0.003072 0.091770 -0.008845
vertex 0.002547 0.088276 -0.010874
vertex 0.000927 0.092070 -0.010877
endloop
endfacet
facet normal 0.996658 0.064775 0.049777
outer loop
vertex 0.002892 0.097914 -0.007230
vertex 0.003079 0.095419 -0.007732
vertex 0.003149 0.095685 -0.009474
endloop
endfacet
facet normal 0.996658 0.064775 0.049777
outer loop
vertex 0.003149 0.095685 -0.009474
vertex 0.002924 0.097914 -0.007872
vertex 0.002892 0.097914 -0.007230
endloop
endfacet
facet normal 0.375578 -0.154348 -0.913848
outer loop
vertex 0.003149 0.095685 -0.009474
vertex 0.003072 0.091770 -0.008845
vertex 0.001190 0.095784 -0.010296
endloop
endfacet
facet normal -0.934720 -0.179146 -0.306929
outer loop
vertex 0.000651 0.097914 -0.009897
vertex 0.001190 0.095784 -0.010296
vertex 0.000311 0.095366 -0.007373
endloop
endfacet
facet normal -0.934720 -0.179145 -0.306931
outer loop
vertex 0.000311 0.095366 -0.007373
vertex 0.000278 0.097914 -0.008761
vertex 0.000651 0.097914 -0.009897
endloop
endfacet
facet normal -0.854264 0.295149 -0.427925
outer loop
vertex -0.000270 0.091759 -0.008701
vertex 0.000311 0.095366 -0.007373
vertex 0.000927 0.092070 -0.010877
endloop
endfacet
facet normal 0.068238 0.157351 -0.985182
outer loop
vertex 0.000887 0.084146 -0.008480
vertex 0.000598 0.087853 -0.007908
vertex 0.000981 0.091725 -0.007263
endloop
endfacet
facet normal -0.975531 -0.024695 0.218471
outer loop
vertex -0.000119 0.089332 -0.008298
vertex -0.000270 0.091759 -0.008701
vertex -0.000127 0.088871 -0.008387
endloop
endfacet
facet normal -0.016707 -0.075267 0.997023
outer loop
vertex -0.000127 0.088871 -0.008387
vertex -0.000074 0.086997 -0.008528
vertex -0.000029 0.086997 -0.008527
endloop
endfacet
facet normal -0.960750 -0.049648 0.272936
outer loop
vertex -0.000157 0.084270 -0.009317
vertex -0.000074 0.086997 -0.008528
vertex -0.000139 0.087953 -0.008584
endloop
endfacet
facet normal -0.264606 -0.132912 0.955153
outer loop
vertex 0.000808 0.087844 -0.007851
vertex 0.000981 0.091725 -0.007263
vertex 0.000598 0.087853 -0.007908
endloop
endfacet
facet normal -0.457465 -0.204671 0.865353
outer loop
vertex 0.001135 0.072771 -0.010288
vertex -0.000489 0.069491 -0.011922
vertex 0.001703 0.069323 -0.010803
endloop
endfacet
facet normal 0.921192 -0.169577 0.350213
outer loop
vertex 0.002854 0.073241 -0.011933
vertex 0.001703 0.069323 -0.010803
vertex 0.002697 0.069674 -0.013246
endloop
endfacet
facet normal 0.311924 0.193796 -0.930132
outer loop
vertex 0.000528 0.073459 -0.013185
vertex 0.002697 0.069674 -0.013246
vertex 0.000298 0.069793 -0.014026
endloop
endfacet
facet normal -0.934273 0.134272 -0.330310
outer loop
vertex -0.000489 0.069491 -0.011922
vertex 0.000528 0.073459 -0.013185
vertex 0.000298 0.069793 -0.014026
endloop
endfacet
facet normal -0.987528 -0.026099 0.155263
outer loop
vertex -0.000215 0.088021 -0.009053
vertex -0.000157 0.084270 -0.009317
vertex -0.000139 0.087953 -0.008584
endloop
endfacet
facet normal -0.987576 0.000049 -0.157142
outer loop
vertex -0.000215 0.088021 -0.009053
vertex -0.000270 0.091759 -0.008701
vertex -0.000083 0.088139 -0.009877
endloop
endfacet
facet normal 0.691104 0.063648 -0.719947
outer loop
vertex 0.000927 0.092070 -0.010877
vertex 0.001190 0.095784 -0.010296
vertex 0.003072 0.091770 -0.008845
endloop
endfacet
facet normal 0.990266 0.131889 -0.044477
outer loop
vertex 0.002924 0.097914 -0.007872
vertex 0.003149 0.095685 -0.009474
vertex 0.002853 0.097914 -0.009446
endloop
endfacet
facet normal 0.388738 0.063351 -0.919168
outer loop
vertex 0.002853 0.097914 -0.009446
vertex 0.003149 0.095685 -0.009474
vertex 0.001190 0.095784 -0.010296
endloop
endfacet
facet normal 0.388735 0.063351 -0.919169
outer loop
vertex 0.001190 0.095784 -0.010296
vertex 0.002043 0.097914 -0.009788
vertex 0.002853 0.097914 -0.009446
endloop
endfacet
facet normal 0.076540 0.201952 -0.976400
outer loop
vertex 0.002043 0.097914 -0.009788
vertex 0.001190 0.095784 -0.010296
vertex 0.000651 0.097914 -0.009897
endloop
endfacet
facet normal -0.955965 0.110321 -0.271956
outer loop
vertex 0.001190 0.095784 -0.010296
vertex 0.000927 0.092070 -0.010877
vertex 0.000311 0.095366 -0.007373
endloop
endfacet
facet normal -0.992751 -0.036848 0.114404
outer loop
vertex -0.000127 0.088871 -0.008387
vertex -0.000270 0.091759 -0.008701
vertex -0.000074 0.086997 -0.008528
endloop
endfacet
facet normal -0.638426 0.001576 0.769681
outer loop
vertex -0.000074 0.086997 -0.008528
vertex -0.000270 0.091759 -0.008701
vertex -0.000139 0.087953 -0.008584
endloop
endfacet
facet normal -0.002823 -0.989706 -0.143087
outer loop
vertex 0.001703 0.069323 -0.010803
vertex -0.000489 0.069491 -0.011922
vertex 0.002697 0.069674 -0.013246
endloop
endfacet
facet normal -0.002822 -0.989708 -0.143074
outer loop
vertex -0.000489 0.069491 -0.011922
vertex 0.000298 0.069793 -0.014026
vertex 0.002697 0.069674 -0.013246
endloop
endfacet
facet normal -0.987511 -0.029328 0.154794
outer loop
vertex -0.000270 0.091759 -0.008701
vertex -0.000215 0.088021 -0.009053
vertex -0.000139 0.087953 -0.008584
endloop
endfacet
facet normal -0.000001 1.000000 0.000005
outer loop
vertex 0.000876 0.097914 -0.006776
vertex 0.000278 0.097914 -0.008761
vertex 0.000296 0.097914 -0.006936
endloop
endfacet
facet normal 0.000001 1.000000 -0.000018
outer loop
vertex 0.002043 0.097914 -0.009788
vertex 0.000651 0.097914 -0.009897
vertex 0.000278 0.097914 -0.008761
endloop
endfacet
facet normal 0.000000 1.000000 0.000000
outer loop
vertex 0.002924 0.097914 -0.007872
vertex 0.002853 0.097914 -0.009446
vertex 0.002043 0.097914 -0.009788
endloop
endfacet
facet normal 0.000000 1.000000 -0.000010
outer loop
vertex 0.002598 0.097914 -0.006945
vertex 0.002892 0.097914 -0.007230
vertex 0.002924 0.097914 -0.007872
endloop
endfacet
facet normal 0.000000 1.000000 0.000008
outer loop
vertex 0.000876 0.097914 -0.006776
vertex 0.002598 0.097914 -0.006945
vertex 0.000278 0.097914 -0.008761
endloop
endfacet
facet normal 0.000003 1.000000 -0.000014
outer loop
vertex 0.002924 0.097914 -0.007872
vertex 0.002043 0.097914 -0.009788
vertex 0.000278 0.097914 -0.008761
endloop
endfacet
facet normal 0.000003 1.000000 0.000000
outer loop
vertex 0.002598 0.097914 -0.006945
vertex 0.002924 0.097914 -0.007872
vertex 0.000278 0.097914 -0.008761
endloop
endfacet
endsolid Exported from Blender-2.74 (sub 0)
