solid Exported from Blender-2.74 (sub 0)
facet normal 0.274198 0.004371 0.961663
outer loop
vertex -0.008547 0.084263 0.000056
vertex -0.008309 0.088030 -0.000030
vertex -0.008536 0.088073 0.000035
endloop
endfacet
facet normal 0.372850 0.003894 0.927883
outer loop
vertex -0.008536 0.088073 0.000035
vertex -0.009495 0.083618 0.000439
vertex -0.008547 0.084263 0.000056
endloop
endfacet
facet normal 0.274203 0.004371 0.961662
outer loop
vertex -0.008547 0.084263 0.000056
vertex -0.008195 0.088008 -0.000062
vertex -0.008309 0.088030 -0.000030
endloop
endfacet
facet normal 0.279545 0.035680 0.959470
outer loop
vertex -0.008309 0.088030 -0.000030
vertex -0.007738 0.091724 -0.000333
vertex -0.008536 0.088073 0.000035
endloop
endfacet
facet normal -0.394520 0.001585 -0.918886
outer loop
vertex -0.008585 0.087606 0.000055
vertex -0.009495 0.083618 0.000439
vertex -0.008536 0.088073 0.000035
endloop
endfacet
facet normal 0.433004 -0.103795 0.895396
outer loop
vertex -0.009513 0.080739 0.000114
vertex -0.008547 0.084263 0.000056
vertex -0.009495 0.083618 0.000439
endloop
endfacet
facet normal 0.504011 -0.020337 0.863458
outer loop
vertex -0.008195 0.088008 -0.000062
vertex -0.008547 0.084263 0.000056
vertex -0.008082 0.087984 -0.000128
endloop
endfacet
facet normal 0.279551 0.035679 0.959468
outer loop
vertex -0.008195 0.088008 -0.000062
vertex -0.007738 0.091724 -0.000333
vertex -0.008309 0.088030 -0.000030
endloop
endfacet
facet normal -0.451720 0.008758 -0.892117
outer loop
vertex -0.007738 0.091724 -0.000333
vertex -0.008585 0.087606 0.000055
vertex -0.008536 0.088073 0.000035
endloop
endfacet
facet normal 0.319013 0.018392 0.947572
outer loop
vertex -0.008995 0.086734 0.000210
vertex -0.009495 0.083618 0.000439
vertex -0.008585 0.087606 0.000055
endloop
endfacet
facet normal -0.437277 -0.097939 0.893978
outer loop
vertex -0.009513 0.080739 0.000114
vertex -0.009495 0.083618 0.000439
vertex -0.010127 0.084542 0.000231
endloop
endfacet
facet normal 0.834499 -0.220391 0.505014
outer loop
vertex -0.008547 0.084263 0.000056
vertex -0.009513 0.080739 0.000114
vertex -0.007883 0.084056 -0.001133
endloop
endfacet
facet normal 0.507449 0.000493 0.861681
outer loop
vertex -0.007738 0.091724 -0.000333
vertex -0.008195 0.088008 -0.000062
vertex -0.008082 0.087984 -0.000128
endloop
endfacet
facet normal 0.504014 -0.020337 0.863456
outer loop
vertex -0.008547 0.084263 0.000056
vertex -0.007856 0.087935 -0.000261
vertex -0.008082 0.087984 -0.000128
endloop
endfacet
facet normal 0.300501 0.028136 0.953366
outer loop
vertex -0.008585 0.087606 0.000055
vertex -0.007738 0.091724 -0.000333
vertex -0.008558 0.089980 -0.000023
endloop
endfacet
facet normal 0.300494 0.028137 0.953369
outer loop
vertex -0.008558 0.089980 -0.000023
vertex -0.008995 0.086734 0.000210
vertex -0.008585 0.087606 0.000055
endloop
endfacet
facet normal 0.659899 -0.050754 0.749638
outer loop
vertex -0.009495 0.083618 0.000439
vertex -0.008995 0.086734 0.000210
vertex -0.009073 0.086273 0.000247
endloop
endfacet
facet normal -0.979806 -0.161647 0.117686
outer loop
vertex -0.010127 0.084542 0.000231
vertex -0.010598 0.086956 -0.000375
vertex -0.009513 0.080739 0.000114
endloop
endfacet
facet normal -0.191459 0.089061 0.977452
outer loop
vertex -0.009495 0.083618 0.000439
vertex -0.009165 0.086763 0.000217
vertex -0.010127 0.084542 0.000231
endloop
endfacet
facet normal 0.850307 -0.155961 0.502647
outer loop
vertex -0.007883 0.084056 -0.001133
vertex -0.007396 0.087816 -0.000790
vertex -0.008547 0.084263 0.000056
endloop
endfacet
facet normal 0.907269 -0.373067 0.194122
outer loop
vertex -0.009138 0.080352 -0.002384
vertex -0.007883 0.084056 -0.001133
vertex -0.009513 0.080739 0.000114
endloop
endfacet
facet normal 0.507445 0.000493 0.861684
outer loop
vertex -0.007856 0.087935 -0.000261
vertex -0.007738 0.091724 -0.000333
vertex -0.008082 0.087984 -0.000128
endloop
endfacet
facet normal 0.710797 -0.073411 0.699556
outer loop
vertex -0.007856 0.087935 -0.000261
vertex -0.008547 0.084263 0.000056
vertex -0.007580 0.087866 -0.000549
endloop
endfacet
facet normal 0.116415 0.120509 0.985863
outer loop
vertex -0.008788 0.092086 -0.000253
vertex -0.008558 0.089980 -0.000023
vertex -0.007738 0.091724 -0.000333
endloop
endfacet
facet normal 0.237606 0.037846 0.970624
outer loop
vertex -0.008995 0.086734 0.000210
vertex -0.008558 0.089980 -0.000023
vertex -0.009073 0.086273 0.000247
endloop
endfacet
facet normal -0.594584 0.036509 -0.803204
outer loop
vertex -0.009066 0.086272 0.000242
vertex -0.009495 0.083618 0.000439
vertex -0.009073 0.086273 0.000247
endloop
endfacet
facet normal -0.405907 0.147038 0.902009
outer loop
vertex -0.010598 0.086956 -0.000375
vertex -0.010127 0.084542 0.000231
vertex -0.010138 0.090191 -0.000695
endloop
endfacet
facet normal 0.217898 0.114247 0.969262
outer loop
vertex -0.010785 0.085574 -0.000170
vertex -0.009513 0.080739 0.000114
vertex -0.010598 0.086956 -0.000375
endloop
endfacet
facet normal 0.061493 0.063842 0.996064
outer loop
vertex -0.009495 0.083618 0.000439
vertex -0.009066 0.086272 0.000242
vertex -0.009165 0.086763 0.000217
endloop
endfacet
facet normal -0.083676 0.042495 0.995587
outer loop
vertex -0.009128 0.088183 0.000159
vertex -0.010127 0.084542 0.000231
vertex -0.009165 0.086763 0.000217
endloop
endfacet
facet normal 0.833528 -0.156276 0.529914
outer loop
vertex -0.007396 0.087816 -0.000790
vertex -0.007883 0.084056 -0.001133
vertex -0.007314 0.087791 -0.000926
endloop
endfacet
facet normal 0.834822 -0.144124 0.531319
outer loop
vertex -0.007501 0.087847 -0.000616
vertex -0.008547 0.084263 0.000056
vertex -0.007396 0.087816 -0.000790
endloop
endfacet
facet normal 0.971049 -0.166151 0.171631
outer loop
vertex -0.010325 0.076499 0.000603
vertex -0.009138 0.080352 -0.002384
vertex -0.009513 0.080739 0.000114
endloop
endfacet
facet normal 0.843280 -0.107909 -0.526530
outer loop
vertex -0.009138 0.080352 -0.002384
vertex -0.009144 0.084105 -0.003163
vertex -0.007883 0.084056 -0.001133
endloop
endfacet
facet normal 0.720481 -0.009353 0.693411
outer loop
vertex -0.007738 0.091724 -0.000333
vertex -0.007856 0.087935 -0.000261
vertex -0.007580 0.087866 -0.000549
endloop
endfacet
facet normal -0.965404 0.243391 -0.093571
outer loop
vertex -0.007580 0.087866 -0.000549
vertex -0.008547 0.084263 0.000056
vertex -0.007584 0.087871 -0.000492
endloop
endfacet
facet normal 0.157656 0.246920 0.956125
outer loop
vertex -0.008873 0.095674 -0.001166
vertex -0.008788 0.092086 -0.000253
vertex -0.007738 0.091724 -0.000333
endloop
endfacet
facet normal -0.150791 0.091196 0.984350
outer loop
vertex -0.008788 0.092086 -0.000253
vertex -0.008700 0.089055 0.000041
vertex -0.008558 0.089980 -0.000023
endloop
endfacet
facet normal -0.253972 0.105407 0.961451
outer loop
vertex -0.009073 0.086273 0.000247
vertex -0.008558 0.089980 -0.000023
vertex -0.008700 0.089055 0.000041
endloop
endfacet
facet normal -0.597205 0.020562 -0.801825
outer loop
vertex -0.008700 0.089055 0.000041
vertex -0.009066 0.086272 0.000242
vertex -0.009073 0.086273 0.000247
endloop
endfacet
facet normal 0.950100 -0.161565 -0.266847
outer loop
vertex -0.010241 0.089270 -0.000504
vertex -0.010598 0.086956 -0.000375
vertex -0.010138 0.090191 -0.000695
endloop
endfacet
facet normal 0.652501 -0.121323 -0.748013
outer loop
vertex -0.010127 0.084542 0.000231
vertex -0.010443 0.088338 -0.000661
vertex -0.010138 0.090191 -0.000695
endloop
endfacet
facet normal 0.967511 -0.160266 -0.195544
outer loop
vertex -0.010241 0.089270 -0.000504
vertex -0.010785 0.085574 -0.000170
vertex -0.010598 0.086956 -0.000375
endloop
endfacet
facet normal -0.062000 0.042246 0.997182
outer loop
vertex -0.010954 0.084651 -0.000141
vertex -0.009513 0.080739 0.000114
vertex -0.010785 0.085574 -0.000170
endloop
endfacet
facet normal 0.062111 0.063963 0.996018
outer loop
vertex -0.009066 0.086272 0.000242
vertex -0.008700 0.089055 0.000041
vertex -0.009165 0.086763 0.000217
endloop
endfacet
facet normal 0.727680 0.009129 0.685856
outer loop
vertex -0.009165 0.086763 0.000217
vertex -0.008788 0.092086 -0.000253
vertex -0.009128 0.088183 0.000159
endloop
endfacet
facet normal -0.256571 0.089257 0.962395
outer loop
vertex -0.010127 0.084542 0.000231
vertex -0.009128 0.088183 0.000159
vertex -0.009180 0.088190 0.000145
endloop
endfacet
facet normal 0.856474 -0.004137 0.516174
outer loop
vertex -0.006770 0.091444 -0.001800
vertex -0.007396 0.087816 -0.000790
vertex -0.007314 0.087791 -0.000926
endloop
endfacet
facet normal 0.966499 -0.158389 0.201972
outer loop
vertex -0.007314 0.087791 -0.000926
vertex -0.007883 0.084056 -0.001133
vertex -0.007230 0.087742 -0.001366
endloop
endfacet
facet normal 0.855282 -0.003380 0.518151
outer loop
vertex -0.006770 0.091444 -0.001800
vertex -0.007501 0.087847 -0.000616
vertex -0.007396 0.087816 -0.000790
endloop
endfacet
facet normal 0.810622 -0.129619 0.571043
outer loop
vertex -0.007584 0.087871 -0.000492
vertex -0.008547 0.084263 0.000056
vertex -0.007501 0.087847 -0.000616
endloop
endfacet
facet normal -0.126250 0.137446 0.982430
outer loop
vertex -0.012290 0.078186 0.000115
vertex -0.010325 0.076499 0.000603
vertex -0.009513 0.080739 0.000114
endloop
endfacet
facet normal 0.670051 -0.572687 -0.472292
outer loop
vertex -0.012000 0.076359 -0.001603
vertex -0.009138 0.080352 -0.002384
vertex -0.010325 0.076499 0.000603
endloop
endfacet
facet normal 0.100526 -0.201954 -0.974222
outer loop
vertex -0.011263 0.080686 -0.002672
vertex -0.009144 0.084105 -0.003163
vertex -0.009138 0.080352 -0.002384
endloop
endfacet
facet normal 0.818054 -0.257119 -0.514469
outer loop
vertex -0.007910 0.087724 -0.003009
vertex -0.007883 0.084056 -0.001133
vertex -0.009144 0.084105 -0.003163
endloop
endfacet
facet normal 0.834861 0.003301 0.550451
outer loop
vertex -0.007580 0.087866 -0.000549
vertex -0.006770 0.091444 -0.001800
vertex -0.007738 0.091724 -0.000333
endloop
endfacet
facet normal -0.977657 0.190135 -0.089635
outer loop
vertex -0.006770 0.091444 -0.001800
vertex -0.007580 0.087866 -0.000549
vertex -0.007584 0.087871 -0.000492
endloop
endfacet
facet normal -0.248004 0.131071 0.959851
outer loop
vertex -0.008873 0.095674 -0.001166
vertex -0.007738 0.091724 -0.000333
vertex -0.007034 0.095397 -0.000653
endloop
endfacet
facet normal -0.531036 0.196987 0.824134
outer loop
vertex -0.008873 0.095674 -0.001166
vertex -0.009717 0.092016 -0.000836
vertex -0.008788 0.092086 -0.000253
endloop
endfacet
facet normal -0.086561 0.093789 0.991822
outer loop
vertex -0.008788 0.092086 -0.000253
vertex -0.009165 0.086763 0.000217
vertex -0.008700 0.089055 0.000041
endloop
endfacet
facet normal 0.950130 -0.161547 -0.266751
outer loop
vertex -0.009755 0.092735 -0.000872
vertex -0.010241 0.089270 -0.000504
vertex -0.010138 0.090191 -0.000695
endloop
endfacet
facet normal -0.740486 0.094574 0.665385
outer loop
vertex -0.010443 0.088338 -0.000661
vertex -0.010127 0.084542 0.000231
vertex -0.010229 0.088321 -0.000420
endloop
endfacet
facet normal 0.665652 -0.096187 0.740037
outer loop
vertex -0.010443 0.088338 -0.000661
vertex -0.009717 0.092016 -0.000836
vertex -0.010138 0.090191 -0.000695
endloop
endfacet
facet normal -0.844376 0.170394 0.507932
outer loop
vertex -0.010785 0.085574 -0.000170
vertex -0.010241 0.089270 -0.000504
vertex -0.010579 0.087424 -0.000447
endloop
endfacet
facet normal -0.844374 0.170395 0.507936
outer loop
vertex -0.010579 0.087424 -0.000447
vertex -0.010954 0.084651 -0.000141
vertex -0.010785 0.085574 -0.000170
endloop
endfacet
facet normal -0.010359 0.061334 0.998064
outer loop
vertex -0.009513 0.080739 0.000114
vertex -0.010954 0.084651 -0.000141
vertex -0.010976 0.084654 -0.000141
endloop
endfacet
facet normal -0.250949 0.123454 0.960096
outer loop
vertex -0.009128 0.088183 0.000159
vertex -0.008788 0.092086 -0.000253
vertex -0.009180 0.088190 0.000145
endloop
endfacet
facet normal -0.256549 0.089250 0.962402
outer loop
vertex -0.009336 0.088213 0.000101
vertex -0.010127 0.084542 0.000231
vertex -0.009180 0.088190 0.000145
endloop
endfacet
facet normal 0.975484 -0.098206 0.196941
outer loop
vertex -0.006770 0.091444 -0.001800
vertex -0.007314 0.087791 -0.000926
vertex -0.007230 0.087742 -0.001366
endloop
endfacet
facet normal 0.977509 -0.164789 0.131610
outer loop
vertex -0.007883 0.084056 -0.001133
vertex -0.007156 0.087679 -0.001995
vertex -0.007230 0.087742 -0.001366
endloop
endfacet
facet normal 0.830605 0.014316 0.556677
outer loop
vertex -0.006770 0.091444 -0.001800
vertex -0.007584 0.087871 -0.000492
vertex -0.007501 0.087847 -0.000616
endloop
endfacet
facet normal -0.052463 0.057193 0.996984
outer loop
vertex -0.011530 0.081419 -0.000031
vertex -0.012290 0.078186 0.000115
vertex -0.009513 0.080739 0.000114
endloop
endfacet
facet normal -0.109395 0.156826 0.981549
outer loop
vertex -0.012290 0.078186 0.000115
vertex -0.011752 0.073162 0.000978
vertex -0.010325 0.076499 0.000603
endloop
endfacet
facet normal 0.796736 -0.008768 -0.604264
outer loop
vertex -0.012337 0.073290 -0.002002
vertex -0.012000 0.076359 -0.001603
vertex -0.010325 0.076499 0.000603
endloop
endfacet
facet normal 0.090910 -0.253543 -0.963043
outer loop
vertex -0.012000 0.076359 -0.001603
vertex -0.011263 0.080686 -0.002672
vertex -0.009138 0.080352 -0.002384
endloop
endfacet
facet normal -0.698777 0.343155 -0.627659
outer loop
vertex -0.009144 0.084105 -0.003163
vertex -0.011263 0.080686 -0.002672
vertex -0.011165 0.084648 -0.000616
endloop
endfacet
facet normal -0.328505 0.151428 -0.932284
outer loop
vertex -0.007910 0.087724 -0.003009
vertex -0.009144 0.084105 -0.003163
vertex -0.010494 0.088238 -0.002015
endloop
endfacet
facet normal 0.761662 -0.290625 -0.579144
outer loop
vertex -0.007156 0.087679 -0.001995
vertex -0.007883 0.084056 -0.001133
vertex -0.007910 0.087724 -0.003009
endloop
endfacet
facet normal 0.805685 -0.176367 0.565479
outer loop
vertex -0.006770 0.091444 -0.001800
vertex -0.006145 0.095197 -0.001519
vertex -0.007738 0.091724 -0.000333
endloop
endfacet
facet normal -0.254682 0.091888 0.962649
outer loop
vertex -0.008517 0.097914 -0.001286
vertex -0.008873 0.095674 -0.001166
vertex -0.007034 0.095397 -0.000653
endloop
endfacet
facet normal -0.254679 0.091887 0.962650
outer loop
vertex -0.007034 0.095397 -0.000653
vertex -0.007813 0.097914 -0.001099
vertex -0.008517 0.097914 -0.001286
endloop
endfacet
facet normal 0.688175 -0.068931 0.722263
outer loop
vertex -0.007034 0.095397 -0.000653
vertex -0.007738 0.091724 -0.000333
vertex -0.006145 0.095197 -0.001519
endloop
endfacet
facet normal 0.139092 0.057207 0.988626
outer loop
vertex -0.008873 0.095674 -0.001166
vertex -0.009755 0.092735 -0.000872
vertex -0.009717 0.092016 -0.000836
endloop
endfacet
facet normal -0.531466 0.188628 0.825810
outer loop
vertex -0.009717 0.092016 -0.000836
vertex -0.010015 0.088304 -0.000179
vertex -0.008788 0.092086 -0.000253
endloop
endfacet
facet normal 0.093694 0.055112 0.994075
outer loop
vertex -0.009755 0.092735 -0.000872
vertex -0.010138 0.090191 -0.000695
vertex -0.009717 0.092016 -0.000836
endloop
endfacet
facet normal -0.960493 0.158935 0.228458
outer loop
vertex -0.010241 0.089270 -0.000504
vertex -0.009755 0.092735 -0.000872
vertex -0.010064 0.092008 -0.001667
endloop
endfacet
facet normal -0.729456 0.175370 0.661165
outer loop
vertex -0.009717 0.092016 -0.000836
vertex -0.010443 0.088338 -0.000661
vertex -0.010229 0.088321 -0.000420
endloop
endfacet
facet normal -0.740479 0.094575 0.665392
outer loop
vertex -0.010229 0.088321 -0.000420
vertex -0.010127 0.084542 0.000231
vertex -0.010015 0.088304 -0.000179
endloop
endfacet
facet normal -0.844377 0.170393 0.507931
outer loop
vertex -0.010288 0.089736 -0.000738
vertex -0.010579 0.087424 -0.000447
vertex -0.010241 0.089270 -0.000504
endloop
endfacet
facet normal -0.002171 0.109938 0.993936
outer loop
vertex -0.010954 0.084651 -0.000141
vertex -0.010579 0.087424 -0.000447
vertex -0.010976 0.084654 -0.000141
endloop
endfacet
facet normal -0.089050 -0.098021 -0.991192
outer loop
vertex -0.010976 0.084654 -0.000141
vertex -0.010622 0.087431 -0.000448
vertex -0.009513 0.080739 0.000114
endloop
endfacet
facet normal -0.250933 0.123447 0.960101
outer loop
vertex -0.008788 0.092086 -0.000253
vertex -0.009336 0.088213 0.000101
vertex -0.009180 0.088190 0.000145
endloop
endfacet
facet normal -0.256546 0.089249 0.962403
outer loop
vertex -0.010127 0.084542 0.000231
vertex -0.009336 0.088213 0.000101
vertex -0.009596 0.088251 0.000029
endloop
endfacet
facet normal 0.986046 -0.107725 0.126920
outer loop
vertex -0.007156 0.087679 -0.001995
vertex -0.006770 0.091444 -0.001800
vertex -0.007230 0.087742 -0.001366
endloop
endfacet
facet normal -0.010269 0.179504 0.983704
outer loop
vertex -0.011165 0.084648 -0.000616
vertex -0.011530 0.081419 -0.000031
vertex -0.009513 0.080739 0.000114
endloop
endfacet
facet normal -0.780757 0.209946 0.588507
outer loop
vertex -0.012290 0.078186 0.000115
vertex -0.011530 0.081419 -0.000031
vertex -0.011896 0.081269 -0.000463
endloop
endfacet
facet normal -0.992383 -0.114234 -0.046108
outer loop
vertex -0.012290 0.078186 0.000115
vertex -0.012000 0.076359 -0.001603
vertex -0.011752 0.073162 0.000978
endloop
endfacet
facet normal 0.676904 -0.210193 0.705422
outer loop
vertex -0.010325 0.076499 0.000603
vertex -0.011752 0.073162 0.000978
vertex -0.010035 0.072975 -0.000726
endloop
endfacet
facet normal 0.491105 0.342479 -0.800952
outer loop
vertex -0.010325 0.076499 0.000603
vertex -0.010035 0.072975 -0.000726
vertex -0.012337 0.073290 -0.002002
endloop
endfacet
facet normal -0.977325 0.081760 0.195323
outer loop
vertex -0.012000 0.076359 -0.001603
vertex -0.012337 0.073290 -0.002002
vertex -0.011752 0.073162 0.000978
endloop
endfacet
facet normal -0.951082 0.088806 -0.295901
outer loop
vertex -0.011263 0.080686 -0.002672
vertex -0.012000 0.076359 -0.001603
vertex -0.011896 0.081269 -0.000463
endloop
endfacet
facet normal -0.789402 -0.089382 -0.607335
outer loop
vertex -0.011165 0.084648 -0.000616
vertex -0.010494 0.088238 -0.002015
vertex -0.009144 0.084105 -0.003163
endloop
endfacet
facet normal -0.930184 0.187096 -0.315837
outer loop
vertex -0.011165 0.084648 -0.000616
vertex -0.011263 0.080686 -0.002672
vertex -0.011896 0.081269 -0.000463
endloop
endfacet
facet normal -0.393104 -0.288416 -0.873090
outer loop
vertex -0.008904 0.091638 -0.003855
vertex -0.007910 0.087724 -0.003009
vertex -0.010494 0.088238 -0.002015
endloop
endfacet
facet normal 0.800421 -0.051125 -0.597254
outer loop
vertex -0.006770 0.091444 -0.001800
vertex -0.007156 0.087679 -0.001995
vertex -0.007910 0.087724 -0.003009
endloop
endfacet
facet normal 0.984981 -0.167187 0.043139
outer loop
vertex -0.006145 0.095197 -0.001519
vertex -0.006770 0.091444 -0.001800
vertex -0.006091 0.095062 -0.003277
endloop
endfacet
facet normal -0.987478 0.157547 0.008128
outer loop
vertex -0.008532 0.097914 -0.003158
vertex -0.008873 0.095674 -0.001166
vertex -0.008517 0.097914 -0.001286
endloop
endfacet
facet normal 0.131108 0.212285 0.968373
outer loop
vertex -0.007813 0.097914 -0.001099
vertex -0.007034 0.095397 -0.000653
vertex -0.006174 0.097914 -0.001321
endloop
endfacet
facet normal 0.691903 -0.045096 0.720580
outer loop
vertex -0.006174 0.097914 -0.001321
vertex -0.007034 0.095397 -0.000653
vertex -0.006145 0.095197 -0.001519
endloop
endfacet
facet normal 0.691909 -0.045096 0.720575
outer loop
vertex -0.006145 0.095197 -0.001519
vertex -0.005900 0.097914 -0.001584
vertex -0.006174 0.097914 -0.001321
endloop
endfacet
facet normal -0.950234 0.295022 0.100087
outer loop
vertex -0.009755 0.092735 -0.000872
vertex -0.008873 0.095674 -0.001166
vertex -0.010064 0.092008 -0.001667
endloop
endfacet
facet normal -0.729447 0.175370 0.661175
outer loop
vertex -0.009717 0.092016 -0.000836
vertex -0.010229 0.088321 -0.000420
vertex -0.010015 0.088304 -0.000179
endloop
endfacet
facet normal -0.288435 0.112242 0.950898
outer loop
vertex -0.010015 0.088304 -0.000179
vertex -0.010127 0.084542 0.000231
vertex -0.008788 0.092086 -0.000253
endloop
endfacet
facet normal -0.396171 0.380546 0.835604
outer loop
vertex -0.010064 0.092008 -0.001667
vertex -0.010288 0.089736 -0.000738
vertex -0.010241 0.089270 -0.000504
endloop
endfacet
facet normal -0.844362 0.170394 0.507955
outer loop
vertex -0.010579 0.087424 -0.000447
vertex -0.010288 0.089736 -0.000738
vertex -0.010372 0.089274 -0.000724
endloop
endfacet
facet normal -0.002189 0.109944 0.993935
outer loop
vertex -0.010622 0.087431 -0.000448
vertex -0.010976 0.084654 -0.000141
vertex -0.010579 0.087424 -0.000447
endloop
endfacet
facet normal -0.371976 0.016312 0.928099
outer loop
vertex -0.009513 0.080739 0.000114
vertex -0.010622 0.087431 -0.000448
vertex -0.011165 0.084648 -0.000616
endloop
endfacet
facet normal -0.250928 0.123447 0.960102
outer loop
vertex -0.009336 0.088213 0.000101
vertex -0.008788 0.092086 -0.000253
vertex -0.009596 0.088251 0.000029
endloop
endfacet
facet normal -0.256562 0.089252 0.962398
outer loop
vertex -0.010127 0.084542 0.000231
vertex -0.009596 0.088251 0.000029
vertex -0.009804 0.088281 -0.000030
endloop
endfacet
facet normal -0.780717 0.196037 0.593338
outer loop
vertex -0.011530 0.081419 -0.000031
vertex -0.011165 0.084648 -0.000616
vertex -0.011896 0.081269 -0.000463
endloop
endfacet
facet normal -0.966287 0.077429 -0.245548
outer loop
vertex -0.011896 0.081269 -0.000463
vertex -0.012000 0.076359 -0.001603
vertex -0.012290 0.078186 0.000115
endloop
endfacet
facet normal 0.706083 0.051067 0.706285
outer loop
vertex -0.011752 0.073162 0.000978
vertex -0.011757 0.069639 0.001237
vertex -0.010035 0.072975 -0.000726
endloop
endfacet
facet normal 0.486640 0.016015 -0.873456
outer loop
vertex -0.010035 0.072975 -0.000726
vertex -0.010801 0.069282 -0.001220
vertex -0.012337 0.073290 -0.002002
endloop
endfacet
facet normal -0.838538 0.511862 0.186685
outer loop
vertex -0.013930 0.069913 0.000102
vertex -0.011752 0.073162 0.000978
vertex -0.012337 0.073290 -0.002002
endloop
endfacet
facet normal -0.980165 0.122130 -0.156083
outer loop
vertex -0.011165 0.084648 -0.000616
vertex -0.010616 0.088325 -0.001186
vertex -0.010494 0.088238 -0.002015
endloop
endfacet
facet normal -0.864151 0.143156 -0.482441
outer loop
vertex -0.008904 0.091638 -0.003855
vertex -0.010494 0.088238 -0.002015
vertex -0.010064 0.092008 -0.001667
endloop
endfacet
facet normal 0.694341 0.021101 -0.719336
outer loop
vertex -0.006770 0.091444 -0.001800
vertex -0.007910 0.087724 -0.003009
vertex -0.008904 0.091638 -0.003855
endloop
endfacet
facet normal 0.995351 -0.088739 0.037435
outer loop
vertex -0.005900 0.097914 -0.001584
vertex -0.006145 0.095197 -0.001519
vertex -0.006091 0.095062 -0.003277
endloop
endfacet
facet normal 0.995351 -0.088739 0.037435
outer loop
vertex -0.006091 0.095062 -0.003277
vertex -0.005882 0.097914 -0.002071
vertex -0.005900 0.097914 -0.001584
endloop
endfacet
facet normal 0.316065 -0.408902 -0.856097
outer loop
vertex -0.006091 0.095062 -0.003277
vertex -0.006770 0.091444 -0.001800
vertex -0.008035 0.095295 -0.004106
endloop
endfacet
facet normal -0.960868 -0.087479 -0.262832
outer loop
vertex -0.008246 0.097914 -0.004204
vertex -0.008035 0.095295 -0.004106
vertex -0.008873 0.095674 -0.001166
endloop
endfacet
facet normal -0.960869 -0.087478 -0.262829
outer loop
vertex -0.008873 0.095674 -0.001166
vertex -0.008532 0.097914 -0.003158
vertex -0.008246 0.097914 -0.004204
endloop
endfacet
facet normal -0.809955 0.329466 -0.485206
outer loop
vertex -0.010064 0.092008 -0.001667
vertex -0.008873 0.095674 -0.001166
vertex -0.008904 0.091638 -0.003855
endloop
endfacet
facet normal 0.060085 -0.074579 -0.995403
outer loop
vertex -0.010127 0.084542 0.000231
vertex -0.009804 0.088281 -0.000030
vertex -0.008788 0.092086 -0.000253
endloop
endfacet
facet normal -0.959330 0.182391 0.215453
outer loop
vertex -0.010288 0.089736 -0.000738
vertex -0.010064 0.092008 -0.001667
vertex -0.010372 0.089274 -0.000724
endloop
endfacet
facet normal 0.004210 0.147782 0.989011
outer loop
vertex -0.010372 0.089274 -0.000724
vertex -0.010622 0.087431 -0.000448
vertex -0.010579 0.087424 -0.000447
endloop
endfacet
facet normal -0.946937 0.167859 0.274105
outer loop
vertex -0.011165 0.084648 -0.000616
vertex -0.010622 0.087431 -0.000448
vertex -0.010537 0.088349 -0.000713
endloop
endfacet
facet normal -0.250943 0.123450 0.960098
outer loop
vertex -0.009596 0.088251 0.000029
vertex -0.008788 0.092086 -0.000253
vertex -0.009804 0.088281 -0.000030
endloop
endfacet
facet normal -0.455599 0.066142 0.887724
outer loop
vertex -0.011752 0.073162 0.000978
vertex -0.013930 0.069913 0.000102
vertex -0.011757 0.069639 0.001237
endloop
endfacet
facet normal 0.893435 -0.236458 0.381919
outer loop
vertex -0.010035 0.072975 -0.000726
vertex -0.011757 0.069639 0.001237
vertex -0.010801 0.069282 -0.001220
endloop
endfacet
facet normal 0.308141 -0.067090 -0.948972
outer loop
vertex -0.012337 0.073290 -0.002002
vertex -0.010801 0.069282 -0.001220
vertex -0.013174 0.069616 -0.002014
endloop
endfacet
facet normal -0.911308 0.208950 -0.354765
outer loop
vertex -0.013930 0.069913 0.000102
vertex -0.012337 0.073290 -0.002002
vertex -0.013174 0.069616 -0.002014
endloop
endfacet
facet normal -0.973467 0.169202 0.154055
outer loop
vertex -0.010616 0.088325 -0.001186
vertex -0.011165 0.084648 -0.000616
vertex -0.010537 0.088349 -0.000713
endloop
endfacet
facet normal -0.979591 0.126223 -0.156427
outer loop
vertex -0.010616 0.088325 -0.001186
vertex -0.010064 0.092008 -0.001667
vertex -0.010494 0.088238 -0.002015
endloop
endfacet
facet normal 0.668452 -0.208089 -0.714052
outer loop
vertex -0.008904 0.091638 -0.003855
vertex -0.008035 0.095295 -0.004106
vertex -0.006770 0.091444 -0.001800
endloop
endfacet
facet normal 0.996638 -0.043679 -0.069319
outer loop
vertex -0.005882 0.097914 -0.002071
vertex -0.006091 0.095062 -0.003277
vertex -0.006008 0.097914 -0.003879
endloop
endfacet
facet normal 0.363528 -0.202706 -0.909262
outer loop
vertex -0.006008 0.097914 -0.003879
vertex -0.006091 0.095062 -0.003277
vertex -0.008035 0.095295 -0.004106
endloop
endfacet
facet normal 0.363539 -0.202714 -0.909256
outer loop
vertex -0.008035 0.095295 -0.004106
vertex -0.006485 0.097914 -0.004070
vertex -0.006008 0.097914 -0.003879
endloop
endfacet
facet normal 0.075665 -0.031093 -0.996648
outer loop
vertex -0.006485 0.097914 -0.004070
vertex -0.008035 0.095295 -0.004106
vertex -0.008246 0.097914 -0.004204
endloop
endfacet
facet normal -0.934612 0.202155 -0.292632
outer loop
vertex -0.008035 0.095295 -0.004106
vertex -0.008904 0.091638 -0.003855
vertex -0.008873 0.095674 -0.001166
endloop
endfacet
facet normal -0.981670 0.150795 0.116557
outer loop
vertex -0.010372 0.089274 -0.000724
vertex -0.010064 0.092008 -0.001667
vertex -0.010622 0.087431 -0.000448
endloop
endfacet
facet normal -0.604569 0.273145 0.748257
outer loop
vertex -0.010622 0.087431 -0.000448
vertex -0.010064 0.092008 -0.001667
vertex -0.010537 0.088349 -0.000713
endloop
endfacet
facet normal -0.165004 -0.983146 0.078725
outer loop
vertex -0.011757 0.069639 0.001237
vertex -0.013930 0.069913 0.000102
vertex -0.010801 0.069282 -0.001220
endloop
endfacet
facet normal -0.165003 -0.983146 0.078733
outer loop
vertex -0.013930 0.069913 0.000102
vertex -0.013174 0.069616 -0.002014
vertex -0.010801 0.069282 -0.001220
endloop
endfacet
facet normal -0.973980 0.165989 0.154310
outer loop
vertex -0.010064 0.092008 -0.001667
vertex -0.010616 0.088325 -0.001186
vertex -0.010537 0.088349 -0.000713
endloop
endfacet
facet normal -0.000016 1.000000 0.000002
outer loop
vertex -0.006485 0.097914 -0.004070
vertex -0.005882 0.097914 -0.002071
vertex -0.006008 0.097914 -0.003879
endloop
endfacet
facet normal 0.000000 1.000000 0.000021
outer loop
vertex -0.006174 0.097914 -0.001321
vertex -0.005900 0.097914 -0.001584
vertex -0.005882 0.097914 -0.002071
endloop
endfacet
facet normal 0.000000 1.000000 0.000000
outer loop
vertex -0.008517 0.097914 -0.001286
vertex -0.007813 0.097914 -0.001099
vertex -0.006174 0.097914 -0.001321
endloop
endfacet
facet normal 0.000000 1.000000 0.000001
outer loop
vertex -0.008246 0.097914 -0.004204
vertex -0.008532 0.097914 -0.003158
vertex -0.008517 0.097914 -0.001286
endloop
endfacet
facet normal 0.000005 1.000000 0.000000
outer loop
vertex -0.006485 0.097914 -0.004070
vertex -0.008246 0.097914 -0.004204
vertex -0.005882 0.097914 -0.002071
endloop
endfacet
facet normal 0.000000 1.000000 0.000000
outer loop
vertex -0.008517 0.097914 -0.001286
vertex -0.006174 0.097914 -0.001321
vertex -0.005882 0.097914 -0.002071
endloop
endfacet
facet normal 0.000000 1.000000 0.000000
outer loop
vertex -0.008246 0.097914 -0.004204
vertex -0.008517 0.097914 -0.001286
vertex -0.005882 0.097914 -0.002071
endloop
endfacet
endsolid Exported from Blender-2.74 (sub 0)
