solid Exported from Blender-2.74 (sub 0)
facet normal 0.549812 -0.520895 0.652974
outer loop
vertex -29.670856 -78.589241 -107.857414
vertex -30.024082 -77.873169 -106.988747
vertex -31.094536 -78.567764 -106.641495
endloop
endfacet
facet normal -1.000000 0.000000 0.000000
outer loop
vertex -46.511864 -82.426468 -126.204681
vertex -46.511864 -82.426468 -66.204681
vertex -46.511864 17.573524 -66.204681
endloop
endfacet
facet normal -1.000000 0.000000 0.000000
outer loop
vertex -46.511864 17.573524 -66.204681
vertex -46.511864 17.573524 -126.204681
vertex -46.511864 -82.426468 -126.204681
endloop
endfacet
facet normal 0.000000 0.000000 -1.000000
outer loop
vertex -46.511864 17.573524 -126.204681
vertex 13.488132 17.573524 -126.204681
vertex 13.488132 -82.426468 -126.204681
endloop
endfacet
facet normal 0.000000 0.000000 -1.000000
outer loop
vertex 13.488132 -82.426468 -126.204681
vertex -46.511864 -82.426468 -126.204681
vertex -46.511864 17.573524 -126.204681
endloop
endfacet
facet normal 1.000000 0.000000 0.000000
outer loop
vertex 13.488132 17.573524 -126.204681
vertex 13.488132 17.573524 -66.204681
vertex 13.488132 -82.426468 -66.204681
endloop
endfacet
facet normal 1.000000 0.000000 0.000000
outer loop
vertex 13.488132 -82.426468 -66.204681
vertex 13.488132 -82.426468 -126.204681
vertex 13.488132 17.573524 -126.204681
endloop
endfacet
facet normal 0.000000 0.000000 1.000000
outer loop
vertex -46.511864 -82.426468 -66.204681
vertex 13.488132 -82.426468 -66.204681
vertex 13.488132 17.573524 -66.204681
endloop
endfacet
facet normal 0.000000 0.000000 1.000000
outer loop
vertex 13.488132 17.573524 -66.204681
vertex -46.511864 17.573524 -66.204681
vertex -46.511864 -82.426468 -66.204681
endloop
endfacet
facet normal 0.000000 -1.000000 0.000000
outer loop
vertex -46.511864 -82.426468 -66.204681
vertex -46.511864 -82.426468 -126.204681
vertex 13.488132 -82.426468 -126.204681
endloop
endfacet
facet normal 0.000000 -1.000000 0.000000
outer loop
vertex 13.488132 -82.426468 -126.204681
vertex 13.488132 -82.426468 -66.204681
vertex -46.511864 -82.426468 -66.204681
endloop
endfacet
facet normal 0.000000 1.000000 0.000000
outer loop
vertex 13.488132 17.573524 -66.204681
vertex 13.488132 17.573524 -126.204681
vertex -46.511864 17.573524 -126.204681
endloop
endfacet
facet normal 0.000000 1.000000 0.000000
outer loop
vertex -46.511864 17.573524 -126.204681
vertex -46.511864 17.573524 -66.204681
vertex 13.488132 17.573524 -66.204681
endloop
endfacet
endsolid Exported from Blender-2.74 (sub 0)
