solid Exported from Blender-2.74 (sub 0)
facet normal -1.000000 0.000000 0.000000
outer loop
vertex -46.511864 -82.426468 -126.204681
vertex -46.511864 -82.426468 -66.204681
vertex -46.511864 17.573524 -66.204681
endloop
endfacet
facet normal -1.000000 0.000000 0.000000
outer loop
vertex -46.511864 17.573524 -66.204681
vertex -46.511864 17.573524 -126.204681
vertex -46.511864 -82.426468 -126.204681
endloop
endfacet
facet normal 0.000000 0.000000 -1.000000
outer loop
vertex -46.511864 17.573524 -126.204681
vertex 13.488132 17.573524 -126.204681
vertex 13.488132 -82.426468 -126.204681
endloop
endfacet
facet normal 0.000000 0.000000 -1.000000
outer loop
vertex 13.488132 -82.426468 -126.204681
vertex -46.511864 -82.426468 -126.204681
vertex -46.511864 17.573524 -126.204681
endloop
endfacet
facet normal 1.000000 0.000000 0.000000
outer loop
vertex 13.488132 17.573524 -126.204681
vertex 13.488132 17.573524 -66.204681
vertex 13.488132 -82.426468 -66.204681
endloop
endfacet
facet normal 1.000000 0.000000 0.000000
outer loop
vertex 13.488132 -82.426468 -66.204681
vertex 13.488132 -82.426468 -126.204681
vertex 13.488132 17.573524 -126.204681
endloop
endfacet
facet normal 0.000000 0.000000 1.000000
outer loop
vertex -46.511864 -82.426468 -66.204681
vertex 13.488132 -82.426468 -66.204681
vertex 13.488132 17.573524 -66.204681
endloop
endfacet
facet normal 0.000000 0.000000 1.000000
outer loop
vertex 13.488132 17.573524 -66.204681
vertex -46.511864 17.573524 -66.204681
vertex -46.511864 -82.426468 -66.204681
endloop
endfacet
facet normal 0.000000 -1.000000 0.000000
outer loop
vertex -46.511864 -82.426468 -66.204681
vertex -46.511864 -82.426468 -126.204681
vertex 13.488132 -82.426468 -126.204681
endloop
endfacet
facet normal 0.000000 -1.000000 0.000000
outer loop
vertex 13.488132 -82.426468 -126.204681
vertex 13.488132 -82.426468 -66.204681
vertex -46.511864 -82.426468 -66.204681
endloop
endfacet
facet normal 0.000000 1.000000 0.000000
outer loop
vertex 13.488132 17.573524 -66.204681
vertex 13.488132 17.573524 -126.204681
vertex -46.511864 17.573524 -126.204681
endloop
endfacet
facet normal 0.000000 1.000000 0.000000
outer loop
vertex -46.511864 17.573524 -126.204681
vertex -46.511864 17.573524 -66.204681
vertex 13.488132 17.573524 -66.204681
endloop
endfacet
facet normal -0.532683 -0.843220 -0.072307
outer loop
vertex -1.957582 -78.121170 -97.058884
vertex -2.318771 -77.831581 -97.775162
vertex -1.111921 -78.589241 -97.830368
endloop
endfacet
facet normal -0.628495 -0.739844 -0.240053
outer loop
vertex -1.729023 -78.589241 -96.214691
vertex -1.957582 -78.121170 -97.058884
vertex -1.111921 -78.589241 -97.830368
endloop
endfacet
endsolid Exported from Blender-2.74 (sub 0)
