solid Exported from Blender-2.74 (sub 0)
facet normal 0.873329 -0.034061 0.485939
outer loop
vertex -21.994871 -76.918335 -114.352226
vertex -23.209690 -78.589241 -112.286034
vertex -20.945757 -78.315964 -116.335686
endloop
endfacet
facet normal 0.721140 0.535715 0.439279
outer loop
vertex -20.945757 -78.315964 -116.335686
vertex -23.209690 -78.589241 -112.286034
vertex -19.148201 -78.589241 -118.953247
endloop
endfacet
facet normal -1.000000 0.000000 0.000000
outer loop
vertex -46.511864 -82.426468 -126.204681
vertex -46.511864 -82.426468 -66.204681
vertex -46.511864 17.573524 -66.204681
endloop
endfacet
facet normal -1.000000 0.000000 0.000000
outer loop
vertex -46.511864 17.573524 -66.204681
vertex -46.511864 17.573524 -126.204681
vertex -46.511864 -82.426468 -126.204681
endloop
endfacet
facet normal 0.000000 0.000000 -1.000000
outer loop
vertex -46.511864 17.573524 -126.204681
vertex 13.488132 17.573524 -126.204681
vertex 13.488132 -82.426468 -126.204681
endloop
endfacet
facet normal 0.000000 0.000000 -1.000000
outer loop
vertex 13.488132 -82.426468 -126.204681
vertex -46.511864 -82.426468 -126.204681
vertex -46.511864 17.573524 -126.204681
endloop
endfacet
facet normal 1.000000 0.000000 0.000000
outer loop
vertex 13.488132 17.573524 -126.204681
vertex 13.488132 17.573524 -66.204681
vertex 13.488132 -82.426468 -66.204681
endloop
endfacet
facet normal 1.000000 0.000000 0.000000
outer loop
vertex 13.488132 -82.426468 -66.204681
vertex 13.488132 -82.426468 -126.204681
vertex 13.488132 17.573524 -126.204681
endloop
endfacet
facet normal 0.000000 0.000000 1.000000
outer loop
vertex -46.511864 -82.426468 -66.204681
vertex 13.488132 -82.426468 -66.204681
vertex 13.488132 17.573524 -66.204681
endloop
endfacet
facet normal 0.000000 0.000000 1.000000
outer loop
vertex 13.488132 17.573524 -66.204681
vertex -46.511864 17.573524 -66.204681
vertex -46.511864 -82.426468 -66.204681
endloop
endfacet
facet normal 0.000000 -1.000000 0.000000
outer loop
vertex -46.511864 -82.426468 -66.204681
vertex -46.511864 -82.426468 -126.204681
vertex 13.488132 -82.426468 -126.204681
endloop
endfacet
facet normal 0.000000 -1.000000 0.000000
outer loop
vertex 13.488132 -82.426468 -126.204681
vertex 13.488132 -82.426468 -66.204681
vertex -46.511864 -82.426468 -66.204681
endloop
endfacet
facet normal 0.000000 1.000000 0.000000
outer loop
vertex 13.488132 17.573524 -66.204681
vertex 13.488132 17.573524 -126.204681
vertex -46.511864 17.573524 -126.204681
endloop
endfacet
facet normal 0.000000 1.000000 0.000000
outer loop
vertex -46.511864 17.573524 -126.204681
vertex -46.511864 17.573524 -66.204681
vertex 13.488132 17.573524 -66.204681
endloop
endfacet
endsolid Exported from Blender-2.74 (sub 0)
