solid Exported from Blender-2.74 (sub 0)
facet normal -0.896372 -0.138203 0.421208
outer loop
vertex -15.163363 -77.290863 -113.784447
vertex -16.098642 -78.508553 -116.174362
vertex -14.179633 -78.589241 -112.116974
endloop
endfacet
facet normal -0.532203 -0.790952 -0.301920
outer loop
vertex -14.179633 -78.589241 -112.116974
vertex -14.967720 -77.899094 -112.535866
vertex -15.163363 -77.290863 -113.784447
endloop
endfacet
facet normal -1.000000 0.000000 0.000000
outer loop
vertex -46.511864 -82.426468 -126.204681
vertex -46.511864 -82.426468 -66.204681
vertex -46.511864 17.573524 -66.204681
endloop
endfacet
facet normal -1.000000 0.000000 0.000000
outer loop
vertex -46.511864 17.573524 -66.204681
vertex -46.511864 17.573524 -126.204681
vertex -46.511864 -82.426468 -126.204681
endloop
endfacet
facet normal 0.000000 0.000000 -1.000000
outer loop
vertex -46.511864 17.573524 -126.204681
vertex 13.488132 17.573524 -126.204681
vertex 13.488132 -82.426468 -126.204681
endloop
endfacet
facet normal 0.000000 0.000000 -1.000000
outer loop
vertex 13.488132 -82.426468 -126.204681
vertex -46.511864 -82.426468 -126.204681
vertex -46.511864 17.573524 -126.204681
endloop
endfacet
facet normal 1.000000 0.000000 0.000000
outer loop
vertex 13.488132 17.573524 -126.204681
vertex 13.488132 17.573524 -66.204681
vertex 13.488132 -82.426468 -66.204681
endloop
endfacet
facet normal 1.000000 0.000000 0.000000
outer loop
vertex 13.488132 -82.426468 -66.204681
vertex 13.488132 -82.426468 -126.204681
vertex 13.488132 17.573524 -126.204681
endloop
endfacet
facet normal 0.000000 0.000000 1.000000
outer loop
vertex -46.511864 -82.426468 -66.204681
vertex 13.488132 -82.426468 -66.204681
vertex 13.488132 17.573524 -66.204681
endloop
endfacet
facet normal 0.000000 0.000000 1.000000
outer loop
vertex 13.488132 17.573524 -66.204681
vertex -46.511864 17.573524 -66.204681
vertex -46.511864 -82.426468 -66.204681
endloop
endfacet
facet normal 0.000000 -1.000000 0.000000
outer loop
vertex -46.511864 -82.426468 -66.204681
vertex -46.511864 -82.426468 -126.204681
vertex 13.488132 -82.426468 -126.204681
endloop
endfacet
facet normal 0.000000 -1.000000 0.000000
outer loop
vertex 13.488132 -82.426468 -126.204681
vertex 13.488132 -82.426468 -66.204681
vertex -46.511864 -82.426468 -66.204681
endloop
endfacet
facet normal 0.000000 1.000000 0.000000
outer loop
vertex 13.488132 17.573524 -66.204681
vertex 13.488132 17.573524 -126.204681
vertex -46.511864 17.573524 -126.204681
endloop
endfacet
facet normal 0.000000 1.000000 0.000000
outer loop
vertex -46.511864 17.573524 -126.204681
vertex -46.511864 17.573524 -66.204681
vertex 13.488132 17.573524 -66.204681
endloop
endfacet
endsolid Exported from Blender-2.74 (sub 0)
