solid Exported from Blender-2.74 (sub 0)
facet normal -1.000000 0.000000 0.000000
outer loop
vertex -46.511864 -82.426468 -126.204681
vertex -46.511864 -82.426468 -66.204681
vertex -46.511864 17.573524 -66.204681
endloop
endfacet
facet normal -1.000000 0.000000 0.000000
outer loop
vertex -46.511864 17.573524 -66.204681
vertex -46.511864 17.573524 -126.204681
vertex -46.511864 -82.426468 -126.204681
endloop
endfacet
facet normal 0.000000 0.000000 -1.000000
outer loop
vertex -46.511864 17.573524 -126.204681
vertex 13.488132 17.573524 -126.204681
vertex 13.488132 -82.426468 -126.204681
endloop
endfacet
facet normal 0.000000 0.000000 -1.000000
outer loop
vertex 13.488132 -82.426468 -126.204681
vertex -46.511864 -82.426468 -126.204681
vertex -46.511864 17.573524 -126.204681
endloop
endfacet
facet normal 1.000000 0.000000 0.000000
outer loop
vertex 13.488132 17.573524 -126.204681
vertex 13.488132 17.573524 -66.204681
vertex 13.488132 -82.426468 -66.204681
endloop
endfacet
facet normal 1.000000 0.000000 0.000000
outer loop
vertex 13.488132 -82.426468 -66.204681
vertex 13.488132 -82.426468 -126.204681
vertex 13.488132 17.573524 -126.204681
endloop
endfacet
facet normal 0.000000 0.000000 1.000000
outer loop
vertex -46.511864 -82.426468 -66.204681
vertex 13.488132 -82.426468 -66.204681
vertex 13.488132 17.573524 -66.204681
endloop
endfacet
facet normal 0.000000 0.000000 1.000000
outer loop
vertex 13.488132 17.573524 -66.204681
vertex -46.511864 17.573524 -66.204681
vertex -46.511864 -82.426468 -66.204681
endloop
endfacet
facet normal 0.000000 -1.000000 0.000000
outer loop
vertex -46.511864 -82.426468 -66.204681
vertex -46.511864 -82.426468 -126.204681
vertex 13.488132 -82.426468 -126.204681
endloop
endfacet
facet normal 0.000000 -1.000000 0.000000
outer loop
vertex 13.488132 -82.426468 -126.204681
vertex 13.488132 -82.426468 -66.204681
vertex -46.511864 -82.426468 -66.204681
endloop
endfacet
facet normal 0.000000 1.000000 0.000000
outer loop
vertex 13.488132 17.573524 -66.204681
vertex 13.488132 17.573524 -126.204681
vertex -46.511864 17.573524 -126.204681
endloop
endfacet
facet normal 0.000000 1.000000 0.000000
outer loop
vertex -46.511864 17.573524 -126.204681
vertex -46.511864 17.573524 -66.204681
vertex 13.488132 17.573524 -66.204681
endloop
endfacet
endsolid Exported from Blender-2.74 (sub 0)
