solid Exported from Blender-2.74 (sub 0)
facet normal 0.640417 -0.767937 0.011744
outer loop
vertex -38.573463 -78.589241 -101.360451
vertex -38.327431 -78.383308 -101.311180
vertex -38.601105 -78.589241 -99.853363
endloop
endfacet
facet normal 0.501177 -0.571745 0.649561
outer loop
vertex -38.327431 -78.383308 -101.311180
vertex -35.662403 -76.114204 -101.370201
vertex -37.559601 -76.912498 -100.609009
endloop
endfacet
facet normal 0.487795 -0.093274 0.867961
outer loop
vertex -33.478477 -78.589241 -103.226677
vertex -33.621101 -77.574562 -103.037483
vertex -34.461197 -77.022156 -102.505997
endloop
endfacet
facet normal 0.405296 -0.455399 0.792684
outer loop
vertex -38.327431 -78.383308 -101.311180
vertex -34.461197 -77.022156 -102.505997
vertex -35.662403 -76.114204 -101.370201
endloop
endfacet
facet normal 0.290269 -0.536392 0.792482
outer loop
vertex -38.327431 -78.383308 -101.311180
vertex -38.573463 -78.589241 -101.360451
vertex -33.478477 -78.589241 -103.226677
endloop
endfacet
facet normal 0.352704 -0.199279 0.914269
outer loop
vertex -38.327431 -78.383308 -101.311180
vertex -33.478477 -78.589241 -103.226677
vertex -34.461197 -77.022156 -102.505997
endloop
endfacet
facet normal -0.527927 0.810036 0.255214
outer loop
vertex -37.319336 -77.049454 -99.397903
vertex -38.073868 -77.869080 -98.357292
vertex -38.170078 -78.589241 -96.270546
endloop
endfacet
facet normal -0.761580 0.646650 -0.042889
outer loop
vertex -38.601105 -78.589241 -99.853363
vertex -38.073868 -77.869080 -98.357292
vertex -37.319336 -77.049454 -99.397903
endloop
endfacet
facet normal -0.895511 0.431802 0.107736
outer loop
vertex -38.073868 -77.869080 -98.357292
vertex -38.601105 -78.589241 -99.853363
vertex -38.170078 -78.589241 -96.270546
endloop
endfacet
facet normal -1.000000 0.000000 0.000000
outer loop
vertex -46.511864 -82.426468 -126.204681
vertex -46.511864 -82.426468 -66.204681
vertex -46.511864 17.573524 -66.204681
endloop
endfacet
facet normal -1.000000 0.000000 0.000000
outer loop
vertex -46.511864 17.573524 -66.204681
vertex -46.511864 17.573524 -126.204681
vertex -46.511864 -82.426468 -126.204681
endloop
endfacet
facet normal 0.000000 0.000000 -1.000000
outer loop
vertex -46.511864 17.573524 -126.204681
vertex 13.488132 17.573524 -126.204681
vertex 13.488132 -82.426468 -126.204681
endloop
endfacet
facet normal 0.000000 0.000000 -1.000000
outer loop
vertex 13.488132 -82.426468 -126.204681
vertex -46.511864 -82.426468 -126.204681
vertex -46.511864 17.573524 -126.204681
endloop
endfacet
facet normal 1.000000 0.000000 0.000000
outer loop
vertex 13.488132 17.573524 -126.204681
vertex 13.488132 17.573524 -66.204681
vertex 13.488132 -82.426468 -66.204681
endloop
endfacet
facet normal 1.000000 0.000000 0.000000
outer loop
vertex 13.488132 -82.426468 -66.204681
vertex 13.488132 -82.426468 -126.204681
vertex 13.488132 17.573524 -126.204681
endloop
endfacet
facet normal 0.000000 0.000000 1.000000
outer loop
vertex -46.511864 -82.426468 -66.204681
vertex 13.488132 -82.426468 -66.204681
vertex 13.488132 17.573524 -66.204681
endloop
endfacet
facet normal 0.000000 0.000000 1.000000
outer loop
vertex 13.488132 17.573524 -66.204681
vertex -46.511864 17.573524 -66.204681
vertex -46.511864 -82.426468 -66.204681
endloop
endfacet
facet normal 0.000000 -1.000000 0.000000
outer loop
vertex -46.511864 -82.426468 -66.204681
vertex -46.511864 -82.426468 -126.204681
vertex 13.488132 -82.426468 -126.204681
endloop
endfacet
facet normal 0.000000 -1.000000 0.000000
outer loop
vertex 13.488132 -82.426468 -126.204681
vertex 13.488132 -82.426468 -66.204681
vertex -46.511864 -82.426468 -66.204681
endloop
endfacet
facet normal 0.000000 1.000000 0.000000
outer loop
vertex 13.488132 17.573524 -66.204681
vertex 13.488132 17.573524 -126.204681
vertex -46.511864 17.573524 -126.204681
endloop
endfacet
facet normal 0.000000 1.000000 0.000000
outer loop
vertex -46.511864 17.573524 -126.204681
vertex -46.511864 17.573524 -66.204681
vertex 13.488132 17.573524 -66.204681
endloop
endfacet
endsolid Exported from Blender-2.74 (sub 0)
