solid Exported from Blender-2.74 (sub 0)
facet normal 0.098018 0.000000 -0.995185
outer loop
vertex 0.000000 0.087304 -0.002500
vertex 0.000000 0.092304 -0.002500
vertex 0.000488 0.092304 -0.002452
endloop
endfacet
facet normal 0.098017 0.000000 -0.995185
outer loop
vertex 0.000488 0.092304 -0.002452
vertex 0.000488 0.087304 -0.002452
vertex 0.000000 0.087304 -0.002500
endloop
endfacet
facet normal 0.290285 0.000000 -0.956940
outer loop
vertex 0.000488 0.087304 -0.002452
vertex 0.000488 0.092304 -0.002452
vertex 0.000957 0.092304 -0.002310
endloop
endfacet
facet normal 0.290286 0.000000 -0.956940
outer loop
vertex 0.000957 0.092304 -0.002310
vertex 0.000957 0.087304 -0.002310
vertex 0.000488 0.087304 -0.002452
endloop
endfacet
facet normal 0.471396 0.000000 -0.881922
outer loop
vertex 0.000957 0.087304 -0.002310
vertex 0.000957 0.092304 -0.002310
vertex 0.001389 0.092304 -0.002079
endloop
endfacet
facet normal 0.471397 0.000000 -0.881921
outer loop
vertex 0.001389 0.092304 -0.002079
vertex 0.001389 0.087304 -0.002079
vertex 0.000957 0.087304 -0.002310
endloop
endfacet
facet normal 0.634394 0.000000 -0.773010
outer loop
vertex 0.001389 0.087304 -0.002079
vertex 0.001389 0.092304 -0.002079
vertex 0.001768 0.092304 -0.001768
endloop
endfacet
facet normal 0.634393 0.000000 -0.773011
outer loop
vertex 0.001768 0.092304 -0.001768
vertex 0.001768 0.087304 -0.001768
vertex 0.001389 0.087304 -0.002079
endloop
endfacet
facet normal 0.773010 0.000000 -0.634394
outer loop
vertex 0.001768 0.087304 -0.001768
vertex 0.001768 0.092304 -0.001768
vertex 0.002079 0.092304 -0.001389
endloop
endfacet
facet normal 0.773011 0.000000 -0.634393
outer loop
vertex 0.002079 0.092304 -0.001389
vertex 0.002079 0.087304 -0.001389
vertex 0.001768 0.087304 -0.001768
endloop
endfacet
facet normal 0.881922 0.000000 -0.471396
outer loop
vertex 0.002079 0.087304 -0.001389
vertex 0.002079 0.092304 -0.001389
vertex 0.002310 0.092304 -0.000957
endloop
endfacet
facet normal 0.881922 0.000000 -0.471396
outer loop
vertex 0.002310 0.092304 -0.000957
vertex 0.002310 0.087304 -0.000957
vertex 0.002079 0.087304 -0.001389
endloop
endfacet
facet normal 0.956940 0.000000 -0.290285
outer loop
vertex 0.002310 0.087304 -0.000957
vertex 0.002310 0.092304 -0.000957
vertex 0.002452 0.092304 -0.000488
endloop
endfacet
facet normal 0.956940 0.000000 -0.290285
outer loop
vertex 0.002452 0.092304 -0.000488
vertex 0.002452 0.087304 -0.000488
vertex 0.002310 0.087304 -0.000957
endloop
endfacet
facet normal 0.995185 0.000000 -0.098017
outer loop
vertex 0.002452 0.087304 -0.000488
vertex 0.002452 0.092304 -0.000488
vertex 0.002500 0.092304 -0.000000
endloop
endfacet
facet normal 0.995185 0.000000 -0.098018
outer loop
vertex 0.002500 0.092304 -0.000000
vertex 0.002500 0.087304 -0.000000
vertex 0.002452 0.087304 -0.000488
endloop
endfacet
facet normal 0.995185 0.000000 0.098017
outer loop
vertex 0.002500 0.087304 -0.000000
vertex 0.002500 0.092304 -0.000000
vertex 0.002452 0.092304 0.000488
endloop
endfacet
facet normal 0.995185 0.000000 0.098017
outer loop
vertex 0.002452 0.092304 0.000488
vertex 0.002452 0.087304 0.000488
vertex 0.002500 0.087304 -0.000000
endloop
endfacet
facet normal 0.956940 0.000000 0.290285
outer loop
vertex 0.002452 0.087304 0.000488
vertex 0.002452 0.092304 0.000488
vertex 0.002310 0.092304 0.000957
endloop
endfacet
facet normal 0.956940 0.000000 0.290285
outer loop
vertex 0.002310 0.092304 0.000957
vertex 0.002310 0.087304 0.000957
vertex 0.002452 0.087304 0.000488
endloop
endfacet
facet normal 0.881922 0.000000 0.471396
outer loop
vertex 0.002310 0.087304 0.000957
vertex 0.002310 0.092304 0.000957
vertex 0.002079 0.092304 0.001389
endloop
endfacet
facet normal 0.881921 0.000000 0.471397
outer loop
vertex 0.002079 0.092304 0.001389
vertex 0.002079 0.087304 0.001389
vertex 0.002310 0.087304 0.000957
endloop
endfacet
facet normal 0.773010 0.000000 0.634394
outer loop
vertex 0.002079 0.087304 0.001389
vertex 0.002079 0.092304 0.001389
vertex 0.001768 0.092304 0.001768
endloop
endfacet
facet normal 0.773010 0.000000 0.634393
outer loop
vertex 0.001768 0.092304 0.001768
vertex 0.001768 0.087304 0.001768
vertex 0.002079 0.087304 0.001389
endloop
endfacet
facet normal 0.634393 0.000000 0.773011
outer loop
vertex 0.001768 0.087304 0.001768
vertex 0.001768 0.092304 0.001768
vertex 0.001389 0.092304 0.002079
endloop
endfacet
facet normal 0.634394 0.000000 0.773010
outer loop
vertex 0.001389 0.092304 0.002079
vertex 0.001389 0.087304 0.002079
vertex 0.001768 0.087304 0.001768
endloop
endfacet
facet normal 0.471397 0.000000 0.881921
outer loop
vertex 0.001389 0.087304 0.002079
vertex 0.001389 0.092304 0.002079
vertex 0.000957 0.092304 0.002310
endloop
endfacet
facet normal 0.471398 0.000000 0.881921
outer loop
vertex 0.000957 0.092304 0.002310
vertex 0.000957 0.087304 0.002310
vertex 0.001389 0.087304 0.002079
endloop
endfacet
facet normal 0.290284 0.000000 0.956940
outer loop
vertex 0.000957 0.087304 0.002310
vertex 0.000957 0.092304 0.002310
vertex 0.000488 0.092304 0.002452
endloop
endfacet
facet normal 0.290284 0.000000 0.956941
outer loop
vertex 0.000488 0.092304 0.002452
vertex 0.000488 0.087304 0.002452
vertex 0.000957 0.087304 0.002310
endloop
endfacet
facet normal 0.098017 0.000000 0.995185
outer loop
vertex 0.000488 0.087304 0.002452
vertex 0.000488 0.092304 0.002452
vertex 0.000000 0.092304 0.002500
endloop
endfacet
facet normal 0.098017 0.000000 0.995185
outer loop
vertex 0.000000 0.092304 0.002500
vertex 0.000000 0.087304 0.002500
vertex 0.000488 0.087304 0.002452
endloop
endfacet
facet normal -0.098018 0.000000 0.995185
outer loop
vertex 0.000000 0.087304 0.002500
vertex 0.000000 0.092304 0.002500
vertex -0.000488 0.092304 0.002452
endloop
endfacet
facet normal -0.098017 0.000000 0.995185
outer loop
vertex -0.000488 0.092304 0.002452
vertex -0.000488 0.087304 0.002452
vertex 0.000000 0.087304 0.002500
endloop
endfacet
facet normal -0.290285 0.000000 0.956940
outer loop
vertex -0.000488 0.087304 0.002452
vertex -0.000488 0.092304 0.002452
vertex -0.000957 0.092304 0.002310
endloop
endfacet
facet normal -0.290285 0.000000 0.956940
outer loop
vertex -0.000957 0.092304 0.002310
vertex -0.000957 0.087304 0.002310
vertex -0.000488 0.087304 0.002452
endloop
endfacet
facet normal -0.471398 0.000000 0.881921
outer loop
vertex -0.000957 0.087304 0.002310
vertex -0.000957 0.092304 0.002310
vertex -0.001389 0.092304 0.002079
endloop
endfacet
facet normal -0.471397 0.000000 0.881921
outer loop
vertex -0.001389 0.092304 0.002079
vertex -0.001389 0.087304 0.002079
vertex -0.000957 0.087304 0.002310
endloop
endfacet
facet normal -0.634393 0.000000 0.773011
outer loop
vertex -0.001389 0.087304 0.002079
vertex -0.001389 0.092304 0.002079
vertex -0.001768 0.092304 0.001768
endloop
endfacet
facet normal -0.634395 0.000000 0.773009
outer loop
vertex -0.001768 0.092304 0.001768
vertex -0.001768 0.087304 0.001768
vertex -0.001389 0.087304 0.002079
endloop
endfacet
facet normal -0.773011 0.000000 0.634393
outer loop
vertex -0.001768 0.087304 0.001768
vertex -0.001768 0.092304 0.001768
vertex -0.002079 0.092304 0.001389
endloop
endfacet
facet normal -0.773011 0.000000 0.634392
outer loop
vertex -0.002079 0.092304 0.001389
vertex -0.002079 0.087304 0.001389
vertex -0.001768 0.087304 0.001768
endloop
endfacet
facet normal -0.881922 0.000000 0.471395
outer loop
vertex -0.002079 0.087304 0.001389
vertex -0.002079 0.092304 0.001389
vertex -0.002310 0.092304 0.000957
endloop
endfacet
facet normal -0.881922 0.000000 0.471396
outer loop
vertex -0.002310 0.092304 0.000957
vertex -0.002310 0.087304 0.000957
vertex -0.002079 0.087304 0.001389
endloop
endfacet
facet normal -0.956941 0.000000 0.290284
outer loop
vertex -0.002310 0.087304 0.000957
vertex -0.002310 0.092304 0.000957
vertex -0.002452 0.092304 0.000488
endloop
endfacet
facet normal -0.956941 0.000000 0.290284
outer loop
vertex -0.002452 0.092304 0.000488
vertex -0.002452 0.087304 0.000488
vertex -0.002310 0.087304 0.000957
endloop
endfacet
facet normal -0.995185 0.000000 0.098016
outer loop
vertex -0.002452 0.087304 0.000488
vertex -0.002452 0.092304 0.000488
vertex -0.002500 0.092304 -0.000000
endloop
endfacet
facet normal -0.995185 0.000000 0.098016
outer loop
vertex -0.002500 0.092304 -0.000000
vertex -0.002500 0.087304 -0.000000
vertex -0.002452 0.087304 0.000488
endloop
endfacet
facet normal -0.995185 0.000000 -0.098018
outer loop
vertex -0.002500 0.087304 -0.000000
vertex -0.002500 0.092304 -0.000000
vertex -0.002452 0.092304 -0.000488
endloop
endfacet
facet normal -0.995185 0.000000 -0.098018
outer loop
vertex -0.002452 0.092304 -0.000488
vertex -0.002452 0.087304 -0.000488
vertex -0.002500 0.087304 -0.000000
endloop
endfacet
facet normal -0.956940 0.000000 -0.290285
outer loop
vertex -0.002452 0.087304 -0.000488
vertex -0.002452 0.092304 -0.000488
vertex -0.002310 0.092304 -0.000957
endloop
endfacet
facet normal -0.956940 0.000000 -0.290286
outer loop
vertex -0.002310 0.092304 -0.000957
vertex -0.002310 0.087304 -0.000957
vertex -0.002452 0.087304 -0.000488
endloop
endfacet
facet normal -0.881921 0.000000 -0.471398
outer loop
vertex -0.002310 0.087304 -0.000957
vertex -0.002310 0.092304 -0.000957
vertex -0.002079 0.092304 -0.001389
endloop
endfacet
facet normal -0.881921 0.000000 -0.471398
outer loop
vertex -0.002079 0.092304 -0.001389
vertex -0.002079 0.087304 -0.001389
vertex -0.002310 0.087304 -0.000957
endloop
endfacet
facet normal -0.773010 0.000000 -0.634394
outer loop
vertex -0.002079 0.087304 -0.001389
vertex -0.002079 0.092304 -0.001389
vertex -0.001768 0.092304 -0.001768
endloop
endfacet
facet normal -0.773009 0.000000 -0.634395
outer loop
vertex -0.001768 0.092304 -0.001768
vertex -0.001768 0.087304 -0.001768
vertex -0.002079 0.087304 -0.001389
endloop
endfacet
facet normal -0.634393 0.000000 -0.773011
outer loop
vertex -0.001768 0.087304 -0.001768
vertex -0.001768 0.092304 -0.001768
vertex -0.001389 0.092304 -0.002079
endloop
endfacet
facet normal -0.634393 0.000000 -0.773011
outer loop
vertex -0.001389 0.092304 -0.002079
vertex -0.001389 0.087304 -0.002079
vertex -0.001768 0.087304 -0.001768
endloop
endfacet
facet normal -0.471395 0.000000 -0.881922
outer loop
vertex -0.001389 0.087304 -0.002079
vertex -0.001389 0.092304 -0.002079
vertex -0.000957 0.092304 -0.002310
endloop
endfacet
facet normal -0.471395 0.000000 -0.881922
outer loop
vertex -0.000957 0.092304 -0.002310
vertex -0.000957 0.087304 -0.002310
vertex -0.001389 0.087304 -0.002079
endloop
endfacet
facet normal -0.290281 0.000000 -0.956941
outer loop
vertex -0.000488 0.092304 -0.002452
vertex -0.000957 0.092304 -0.002310
vertex -0.000957 0.099181 -0.002310
endloop
endfacet
facet normal -0.290284 0.000000 -0.956940
outer loop
vertex -0.000957 0.099181 -0.002310
vertex -0.000488 0.099181 -0.002452
vertex -0.000488 0.092304 -0.002452
endloop
endfacet
facet normal -0.098017 0.000000 -0.995185
outer loop
vertex 0.000000 0.092304 -0.002500
vertex 0.000000 0.087304 -0.002500
vertex -0.000488 0.087304 -0.002452
endloop
endfacet
facet normal -0.098017 0.000000 -0.995185
outer loop
vertex -0.000488 0.087304 -0.002452
vertex -0.000488 0.092304 -0.002452
vertex 0.000000 0.092304 -0.002500
endloop
endfacet
facet normal -0.290283 0.000000 -0.956941
outer loop
vertex -0.000957 0.087304 -0.002310
vertex -0.000957 0.092304 -0.002310
vertex -0.000488 0.092304 -0.002452
endloop
endfacet
facet normal -0.290283 0.000000 -0.956941
outer loop
vertex -0.000488 0.092304 -0.002452
vertex -0.000488 0.087304 -0.002452
vertex -0.000957 0.087304 -0.002310
endloop
endfacet
facet normal 0.000000 -1.000000 0.000000
outer loop
vertex 0.000000 0.087304 -0.002500
vertex -0.000957 0.087304 -0.002310
vertex -0.000488 0.087304 -0.002452
endloop
endfacet
facet normal 0.000000 -1.000000 0.000000
outer loop
vertex -0.001768 0.087304 -0.001768
vertex -0.001389 0.087304 -0.002079
vertex -0.000957 0.087304 -0.002310
endloop
endfacet
facet normal 0.000000 -1.000000 0.000078
outer loop
vertex -0.002310 0.087304 -0.000957
vertex -0.002079 0.087304 -0.001389
vertex -0.001768 0.087304 -0.001768
endloop
endfacet
facet normal 0.000000 -1.000000 0.000039
outer loop
vertex -0.002500 0.087304 -0.000000
vertex -0.002452 0.087304 -0.000488
vertex -0.002310 0.087304 -0.000957
endloop
endfacet
facet normal 0.000000 -1.000000 0.000039
outer loop
vertex -0.002310 0.087304 0.000957
vertex -0.002452 0.087304 0.000488
vertex -0.002500 0.087304 -0.000000
endloop
endfacet
facet normal 0.000000 -1.000000 0.000000
outer loop
vertex -0.001768 0.087304 0.001768
vertex -0.002079 0.087304 0.001389
vertex -0.002310 0.087304 0.000957
endloop
endfacet
facet normal 0.000000 -1.000000 0.000155
outer loop
vertex -0.000957 0.087304 0.002310
vertex -0.001389 0.087304 0.002079
vertex -0.001768 0.087304 0.001768
endloop
endfacet
facet normal 0.000000 -1.000000 0.000000
outer loop
vertex 0.000000 0.087304 0.002500
vertex -0.000488 0.087304 0.002452
vertex -0.000957 0.087304 0.002310
endloop
endfacet
facet normal 0.000000 -1.000000 -0.000155
outer loop
vertex 0.000957 0.087304 0.002310
vertex 0.000488 0.087304 0.002452
vertex 0.000000 0.087304 0.002500
endloop
endfacet
facet normal 0.000000 -1.000000 0.000155
outer loop
vertex 0.001768 0.087304 0.001768
vertex 0.001389 0.087304 0.002079
vertex 0.000957 0.087304 0.002310
endloop
endfacet
facet normal 0.000000 -1.000000 0.000078
outer loop
vertex 0.002310 0.087304 0.000957
vertex 0.002079 0.087304 0.001389
vertex 0.001768 0.087304 0.001768
endloop
endfacet
facet normal 0.000000 -1.000000 0.000039
outer loop
vertex 0.002500 0.087304 -0.000000
vertex 0.002452 0.087304 0.000488
vertex 0.002310 0.087304 0.000957
endloop
endfacet
facet normal 0.000000 -1.000000 -0.000019
outer loop
vertex 0.002310 0.087304 -0.000957
vertex 0.002452 0.087304 -0.000488
vertex 0.002500 0.087304 -0.000000
endloop
endfacet
facet normal 0.000000 -1.000000 0.000000
outer loop
vertex 0.001768 0.087304 -0.001768
vertex 0.002079 0.087304 -0.001389
vertex 0.002310 0.087304 -0.000957
endloop
endfacet
facet normal 0.000000 -1.000000 0.000000
outer loop
vertex 0.000957 0.087304 -0.002310
vertex 0.001389 0.087304 -0.002079
vertex 0.001768 0.087304 -0.001768
endloop
endfacet
facet normal 0.000000 -1.000000 0.000000
outer loop
vertex 0.000000 0.087304 -0.002500
vertex 0.000488 0.087304 -0.002452
vertex 0.000957 0.087304 -0.002310
endloop
endfacet
facet normal 0.000000 -1.000000 0.000000
outer loop
vertex 0.000000 0.087304 -0.002500
vertex -0.001768 0.087304 -0.001768
vertex -0.000957 0.087304 -0.002310
endloop
endfacet
facet normal 0.000000 -1.000000 -0.000040
outer loop
vertex -0.002500 0.087304 -0.000000
vertex -0.002310 0.087304 -0.000957
vertex -0.001768 0.087304 -0.001768
endloop
endfacet
facet normal 0.000000 -1.000000 0.000010
outer loop
vertex -0.001768 0.087304 0.001768
vertex -0.002310 0.087304 0.000957
vertex -0.002500 0.087304 -0.000000
endloop
endfacet
facet normal 0.000000 -1.000000 -0.000040
outer loop
vertex 0.000000 0.087304 0.002500
vertex -0.000957 0.087304 0.002310
vertex -0.001768 0.087304 0.001768
endloop
endfacet
facet normal 0.000000 -1.000000 0.000000
outer loop
vertex 0.001768 0.087304 0.001768
vertex 0.000957 0.087304 0.002310
vertex 0.000000 0.087304 0.002500
endloop
endfacet
facet normal 0.000000 -1.000000 0.000000
outer loop
vertex 0.002500 0.087304 -0.000000
vertex 0.002310 0.087304 0.000957
vertex 0.001768 0.087304 0.001768
endloop
endfacet
facet normal 0.000000 -1.000000 0.000000
outer loop
vertex 0.001768 0.087304 -0.001768
vertex 0.002310 0.087304 -0.000957
vertex 0.002500 0.087304 -0.000000
endloop
endfacet
facet normal 0.000000 -1.000000 -0.000040
outer loop
vertex 0.000000 0.087304 -0.002500
vertex 0.000957 0.087304 -0.002310
vertex 0.001768 0.087304 -0.001768
endloop
endfacet
facet normal 0.000000 -1.000000 0.000000
outer loop
vertex 0.000000 0.087304 -0.002500
vertex -0.002500 0.087304 -0.000000
vertex -0.001768 0.087304 -0.001768
endloop
endfacet
facet normal 0.000000 -1.000000 -0.000006
outer loop
vertex 0.000000 0.087304 0.002500
vertex -0.001768 0.087304 0.001768
vertex -0.002500 0.087304 -0.000000
endloop
endfacet
facet normal 0.000000 -1.000000 0.000011
outer loop
vertex 0.002500 0.087304 -0.000000
vertex 0.001768 0.087304 0.001768
vertex 0.000000 0.087304 0.002500
endloop
endfacet
facet normal 0.000000 -1.000000 0.000000
outer loop
vertex 0.000000 0.087304 -0.002500
vertex 0.001768 0.087304 -0.001768
vertex 0.002500 0.087304 -0.000000
endloop
endfacet
facet normal 0.000000 -1.000000 0.000002
outer loop
vertex 0.000000 0.087304 -0.002500
vertex 0.000000 0.087304 0.002500
vertex -0.002500 0.087304 -0.000000
endloop
endfacet
facet normal 0.000000 -1.000000 -0.000002
outer loop
vertex 0.000000 0.087304 -0.002500
vertex 0.002500 0.087304 -0.000000
vertex 0.000000 0.087304 0.002500
endloop
endfacet
facet normal -0.393390 0.550977 -0.735981
outer loop
vertex -0.000957 0.099181 -0.002310
vertex -0.001389 0.099181 -0.002079
vertex -0.000952 0.100367 -0.001425
endloop
endfacet
facet normal -0.393389 0.550972 -0.735986
outer loop
vertex -0.000952 0.100367 -0.001425
vertex -0.000656 0.100367 -0.001583
vertex -0.000957 0.099181 -0.002310
endloop
endfacet
facet normal -0.634393 0.000000 0.773010
outer loop
vertex -0.001768 0.092304 0.001768
vertex -0.001389 0.092304 0.002079
vertex -0.001389 0.099181 0.002079
endloop
endfacet
facet normal -0.634394 0.000000 0.773010
outer loop
vertex -0.001389 0.099181 0.002079
vertex -0.001768 0.099181 0.001768
vertex -0.001768 0.092304 0.001768
endloop
endfacet
facet normal 0.995185 -0.000000 0.098017
outer loop
vertex 0.002452 0.092304 0.000488
vertex 0.002500 0.092304 -0.000000
vertex 0.002500 0.099181 -0.000000
endloop
endfacet
facet normal 0.995185 -0.000000 0.098017
outer loop
vertex 0.002500 0.099181 -0.000000
vertex 0.002452 0.099181 0.000488
vertex 0.002452 0.092304 0.000488
endloop
endfacet
facet normal -0.956941 0.000000 0.290284
outer loop
vertex -0.002452 0.092304 0.000488
vertex -0.002310 0.092304 0.000957
vertex -0.002310 0.099181 0.000957
endloop
endfacet
facet normal -0.956941 0.000000 0.290283
outer loop
vertex -0.002310 0.099181 0.000957
vertex -0.002452 0.099181 0.000488
vertex -0.002452 0.092304 0.000488
endloop
endfacet
facet normal 0.773010 -0.000000 0.634393
outer loop
vertex 0.001768 0.092304 0.001768
vertex 0.002079 0.092304 0.001389
vertex 0.002079 0.099181 0.001389
endloop
endfacet
facet normal 0.773010 -0.000000 0.634393
outer loop
vertex 0.002079 0.099181 0.001389
vertex 0.001768 0.099181 0.001768
vertex 0.001768 0.092304 0.001768
endloop
endfacet
facet normal -0.956940 0.000000 -0.290286
outer loop
vertex -0.002310 0.092304 -0.000957
vertex -0.002452 0.092304 -0.000488
vertex -0.002452 0.099181 -0.000488
endloop
endfacet
facet normal -0.956940 0.000000 -0.290285
outer loop
vertex -0.002452 0.099181 -0.000488
vertex -0.002310 0.099181 -0.000957
vertex -0.002310 0.092304 -0.000957
endloop
endfacet
facet normal 0.634394 -0.000000 -0.773010
outer loop
vertex 0.001768 0.092304 -0.001768
vertex 0.001389 0.092304 -0.002079
vertex 0.001389 0.099181 -0.002079
endloop
endfacet
facet normal 0.634393 -0.000000 -0.773010
outer loop
vertex 0.001389 0.099181 -0.002079
vertex 0.001768 0.099181 -0.001768
vertex 0.001768 0.092304 -0.001768
endloop
endfacet
facet normal 0.290284 -0.000000 0.956940
outer loop
vertex 0.000488 0.092304 0.002452
vertex 0.000957 0.092304 0.002310
vertex 0.000957 0.099181 0.002310
endloop
endfacet
facet normal 0.290284 -0.000000 0.956940
outer loop
vertex 0.000957 0.099181 0.002310
vertex 0.000488 0.099181 0.002452
vertex 0.000488 0.092304 0.002452
endloop
endfacet
facet normal -0.634392 0.000000 -0.773011
outer loop
vertex -0.001389 0.092304 -0.002079
vertex -0.001768 0.092304 -0.001768
vertex -0.001768 0.099181 -0.001768
endloop
endfacet
facet normal -0.634394 0.000000 -0.773010
outer loop
vertex -0.001768 0.099181 -0.001768
vertex -0.001389 0.099181 -0.002079
vertex -0.001389 0.092304 -0.002079
endloop
endfacet
facet normal -0.290286 0.000000 0.956940
outer loop
vertex -0.000957 0.092304 0.002310
vertex -0.000488 0.092304 0.002452
vertex -0.000488 0.099181 0.002452
endloop
endfacet
facet normal -0.290285 0.000000 0.956940
outer loop
vertex -0.000488 0.099181 0.002452
vertex -0.000957 0.099181 0.002310
vertex -0.000957 0.092304 0.002310
endloop
endfacet
facet normal 0.956940 -0.000000 -0.290285
outer loop
vertex 0.002452 0.092304 -0.000488
vertex 0.002310 0.092304 -0.000957
vertex 0.002310 0.099181 -0.000957
endloop
endfacet
facet normal 0.956940 -0.000000 -0.290285
outer loop
vertex 0.002310 0.099181 -0.000957
vertex 0.002452 0.099181 -0.000488
vertex 0.002452 0.092304 -0.000488
endloop
endfacet
facet normal -0.098017 0.000000 -0.995185
outer loop
vertex 0.000000 0.092304 -0.002500
vertex -0.000488 0.092304 -0.002452
vertex -0.000488 0.099181 -0.002452
endloop
endfacet
facet normal -0.098017 0.000000 -0.995185
outer loop
vertex -0.000488 0.099181 -0.002452
vertex 0.000000 0.099181 -0.002500
vertex 0.000000 0.092304 -0.002500
endloop
endfacet
facet normal -0.773011 0.000000 0.634393
outer loop
vertex -0.002079 0.092304 0.001389
vertex -0.001768 0.092304 0.001768
vertex -0.001768 0.099181 0.001768
endloop
endfacet
facet normal -0.773011 0.000000 0.634392
outer loop
vertex -0.001768 0.099181 0.001768
vertex -0.002079 0.099181 0.001389
vertex -0.002079 0.092304 0.001389
endloop
endfacet
facet normal 0.956940 0.000000 0.290285
outer loop
vertex 0.002310 0.092304 0.000957
vertex 0.002452 0.092304 0.000488
vertex 0.002452 0.099181 0.000488
endloop
endfacet
facet normal 0.956940 -0.000000 0.290284
outer loop
vertex 0.002452 0.099181 0.000488
vertex 0.002310 0.099181 0.000957
vertex 0.002310 0.092304 0.000957
endloop
endfacet
facet normal -0.995185 0.000000 0.098016
outer loop
vertex -0.002500 0.092304 -0.000000
vertex -0.002452 0.092304 0.000488
vertex -0.002452 0.099181 0.000488
endloop
endfacet
facet normal -0.995185 0.000000 0.098016
outer loop
vertex -0.002452 0.099181 0.000488
vertex -0.002500 0.099181 -0.000000
vertex -0.002500 0.092304 -0.000000
endloop
endfacet
facet normal 0.290284 -0.000000 -0.956940
outer loop
vertex 0.000957 0.092304 -0.002310
vertex 0.000488 0.092304 -0.002452
vertex 0.000488 0.099181 -0.002452
endloop
endfacet
facet normal 0.290287 -0.000000 -0.956940
outer loop
vertex 0.000488 0.099181 -0.002452
vertex 0.000957 0.099181 -0.002310
vertex 0.000957 0.092304 -0.002310
endloop
endfacet
facet normal 0.634393 -0.000000 0.773011
outer loop
vertex 0.001389 0.092304 0.002079
vertex 0.001768 0.092304 0.001768
vertex 0.001768 0.099181 0.001768
endloop
endfacet
facet normal 0.634394 -0.000000 0.773010
outer loop
vertex 0.001768 0.099181 0.001768
vertex 0.001389 0.099181 0.002079
vertex 0.001389 0.092304 0.002079
endloop
endfacet
facet normal -0.881921 0.000000 -0.471398
outer loop
vertex -0.002079 0.092304 -0.001389
vertex -0.002310 0.092304 -0.000957
vertex -0.002310 0.099181 -0.000957
endloop
endfacet
facet normal -0.881921 0.000000 -0.471397
outer loop
vertex -0.002310 0.099181 -0.000957
vertex -0.002079 0.099181 -0.001389
vertex -0.002079 0.092304 -0.001389
endloop
endfacet
facet normal 0.773010 -0.000000 -0.634394
outer loop
vertex 0.002079 0.092304 -0.001389
vertex 0.001768 0.092304 -0.001768
vertex 0.001768 0.099181 -0.001768
endloop
endfacet
facet normal 0.773011 -0.000000 -0.634393
outer loop
vertex 0.001768 0.099181 -0.001768
vertex 0.002079 0.099181 -0.001389
vertex 0.002079 0.092304 -0.001389
endloop
endfacet
facet normal 0.098017 -0.000000 0.995185
outer loop
vertex 0.000000 0.092304 0.002500
vertex 0.000488 0.092304 0.002452
vertex 0.000488 0.099181 0.002452
endloop
endfacet
facet normal 0.098017 -0.000000 0.995185
outer loop
vertex 0.000488 0.099181 0.002452
vertex 0.000000 0.099181 0.002500
vertex 0.000000 0.092304 0.002500
endloop
endfacet
facet normal -0.471395 0.000000 -0.881922
outer loop
vertex -0.000957 0.092304 -0.002310
vertex -0.001389 0.092304 -0.002079
vertex -0.001389 0.099181 -0.002079
endloop
endfacet
facet normal -0.471395 0.000000 -0.881922
outer loop
vertex -0.001389 0.099181 -0.002079
vertex -0.000957 0.099181 -0.002310
vertex -0.000957 0.092304 -0.002310
endloop
endfacet
facet normal -0.471397 0.000000 0.881921
outer loop
vertex -0.001389 0.092304 0.002079
vertex -0.000957 0.092304 0.002310
vertex -0.000957 0.099181 0.002310
endloop
endfacet
facet normal -0.471396 0.000000 0.881921
outer loop
vertex -0.000957 0.099181 0.002310
vertex -0.001389 0.099181 0.002079
vertex -0.001389 0.092304 0.002079
endloop
endfacet
facet normal 0.098017 -0.000000 -0.995185
outer loop
vertex 0.000488 0.092304 -0.002452
vertex 0.000000 0.092304 -0.002500
vertex 0.000000 0.099181 -0.002500
endloop
endfacet
facet normal 0.098017 -0.000000 -0.995185
outer loop
vertex 0.000000 0.099181 -0.002500
vertex 0.000488 0.099181 -0.002452
vertex 0.000488 0.092304 -0.002452
endloop
endfacet
facet normal 0.995185 -0.000000 -0.098018
outer loop
vertex 0.002500 0.092304 -0.000000
vertex 0.002452 0.092304 -0.000488
vertex 0.002452 0.099181 -0.000488
endloop
endfacet
facet normal 0.995185 -0.000000 -0.098017
outer loop
vertex 0.002452 0.099181 -0.000488
vertex 0.002500 0.099181 -0.000000
vertex 0.002500 0.092304 -0.000000
endloop
endfacet
facet normal -0.881921 0.000000 0.471397
outer loop
vertex -0.002310 0.092304 0.000957
vertex -0.002079 0.092304 0.001389
vertex -0.002079 0.099181 0.001389
endloop
endfacet
facet normal -0.881922 0.000000 0.471396
outer loop
vertex -0.002079 0.099181 0.001389
vertex -0.002310 0.099181 0.000957
vertex -0.002310 0.092304 0.000957
endloop
endfacet
facet normal 0.881921 -0.000000 0.471397
outer loop
vertex 0.002079 0.092304 0.001389
vertex 0.002310 0.092304 0.000957
vertex 0.002310 0.099181 0.000957
endloop
endfacet
facet normal 0.881921 -0.000000 0.471396
outer loop
vertex 0.002310 0.099181 0.000957
vertex 0.002079 0.099181 0.001389
vertex 0.002079 0.092304 0.001389
endloop
endfacet
facet normal -0.995185 0.000000 -0.098018
outer loop
vertex -0.002452 0.092304 -0.000488
vertex -0.002500 0.092304 -0.000000
vertex -0.002500 0.099181 -0.000000
endloop
endfacet
facet normal -0.995185 0.000000 -0.098018
outer loop
vertex -0.002500 0.099181 -0.000000
vertex -0.002452 0.099181 -0.000488
vertex -0.002452 0.092304 -0.000488
endloop
endfacet
facet normal 0.471395 -0.000000 -0.881922
outer loop
vertex 0.001389 0.092304 -0.002079
vertex 0.000957 0.092304 -0.002310
vertex 0.000957 0.099181 -0.002310
endloop
endfacet
facet normal 0.471397 -0.000000 -0.881921
outer loop
vertex 0.000957 0.099181 -0.002310
vertex 0.001389 0.099181 -0.002079
vertex 0.001389 0.092304 -0.002079
endloop
endfacet
facet normal 0.471396 -0.000000 0.881922
outer loop
vertex 0.000957 0.092304 0.002310
vertex 0.001389 0.092304 0.002079
vertex 0.001389 0.099181 0.002079
endloop
endfacet
facet normal 0.471397 -0.000000 0.881921
outer loop
vertex 0.001389 0.099181 0.002079
vertex 0.000957 0.099181 0.002310
vertex 0.000957 0.092304 0.002310
endloop
endfacet
facet normal -0.773009 0.000000 -0.634395
outer loop
vertex -0.001768 0.092304 -0.001768
vertex -0.002079 0.092304 -0.001389
vertex -0.002079 0.099181 -0.001389
endloop
endfacet
facet normal -0.773010 0.000000 -0.634393
outer loop
vertex -0.002079 0.099181 -0.001389
vertex -0.001768 0.099181 -0.001768
vertex -0.001768 0.092304 -0.001768
endloop
endfacet
facet normal -0.098018 0.000000 0.995185
outer loop
vertex -0.000488 0.092304 0.002452
vertex 0.000000 0.092304 0.002500
vertex 0.000000 0.099181 0.002500
endloop
endfacet
facet normal -0.098017 0.000000 0.995185
outer loop
vertex 0.000000 0.099181 0.002500
vertex -0.000488 0.099181 0.002452
vertex -0.000488 0.092304 0.002452
endloop
endfacet
facet normal 0.881921 -0.000000 -0.471397
outer loop
vertex 0.002310 0.092304 -0.000957
vertex 0.002079 0.092304 -0.001389
vertex 0.002079 0.099181 -0.001389
endloop
endfacet
facet normal 0.881922 -0.000000 -0.471396
outer loop
vertex 0.002079 0.099181 -0.001389
vertex 0.002310 0.099181 -0.000957
vertex 0.002310 0.092304 -0.000957
endloop
endfacet
facet normal -0.043193 0.897673 -0.438539
outer loop
vertex 0.000000 0.100367 -0.001713
vertex -0.000334 0.100367 -0.001680
vertex -0.000121 0.100901 -0.000609
endloop
endfacet
facet normal -0.043193 0.897669 -0.438549
outer loop
vertex -0.000121 0.100901 -0.000609
vertex 0.000000 0.100901 -0.000621
vertex 0.000000 0.100367 -0.001713
endloop
endfacet
facet normal -0.393396 0.550981 0.735976
outer loop
vertex -0.001389 0.099181 0.002079
vertex -0.000957 0.099181 0.002310
vertex -0.000656 0.100367 0.001583
endloop
endfacet
facet normal -0.393384 0.550966 0.735993
outer loop
vertex -0.000656 0.100367 0.001583
vertex -0.000952 0.100367 0.001425
vertex -0.001389 0.099181 0.002079
endloop
endfacet
facet normal 0.830502 0.550974 -0.081814
outer loop
vertex 0.002500 0.099181 -0.000000
vertex 0.002452 0.099181 -0.000488
vertex 0.001680 0.100367 -0.000334
endloop
endfacet
facet normal 0.830503 0.550974 -0.081810
outer loop
vertex 0.001680 0.100367 -0.000334
vertex 0.001713 0.100367 -0.000000
vertex 0.002500 0.099181 -0.000000
endloop
endfacet
facet normal -0.645093 0.550974 -0.529417
outer loop
vertex -0.001768 0.099181 -0.001768
vertex -0.002079 0.099181 -0.001389
vertex -0.001425 0.100367 -0.000952
endloop
endfacet
facet normal -0.645092 0.550973 -0.529419
outer loop
vertex -0.001425 0.100367 -0.000952
vertex -0.001212 0.100367 -0.001212
vertex -0.001768 0.099181 -0.001768
endloop
endfacet
facet normal -0.081798 0.550974 0.830504
outer loop
vertex -0.000488 0.099181 0.002452
vertex 0.000000 0.099181 0.002500
vertex 0.000000 0.100367 0.001713
endloop
endfacet
facet normal -0.081797 0.550977 0.830502
outer loop
vertex 0.000000 0.100367 0.001713
vertex -0.000334 0.100367 0.001680
vertex -0.000488 0.099181 0.002452
endloop
endfacet
facet normal 0.735987 0.550978 -0.393377
outer loop
vertex 0.002310 0.099181 -0.000957
vertex 0.002079 0.099181 -0.001389
vertex 0.001425 0.100367 -0.000952
endloop
endfacet
facet normal 0.735977 0.550970 -0.393407
outer loop
vertex 0.001425 0.100367 -0.000952
vertex 0.001583 0.100367 -0.000656
vertex 0.002310 0.099181 -0.000957
endloop
endfacet
facet normal -0.798589 0.550975 -0.242244
outer loop
vertex -0.002310 0.099181 -0.000957
vertex -0.002452 0.099181 -0.000488
vertex -0.001680 0.100367 -0.000334
endloop
endfacet
facet normal -0.798585 0.550973 -0.242260
outer loop
vertex -0.001680 0.100367 -0.000334
vertex -0.001583 0.100367 -0.000656
vertex -0.002310 0.099181 -0.000957
endloop
endfacet
facet normal 0.529415 0.550974 -0.645095
outer loop
vertex 0.001768 0.099181 -0.001768
vertex 0.001389 0.099181 -0.002079
vertex 0.000952 0.100367 -0.001425
endloop
endfacet
facet normal 0.529411 0.550969 -0.645102
outer loop
vertex 0.000952 0.100367 -0.001425
vertex 0.001212 0.100367 -0.001212
vertex 0.001768 0.099181 -0.001768
endloop
endfacet
facet normal 0.242249 0.550977 0.798586
outer loop
vertex 0.000488 0.099181 0.002452
vertex 0.000957 0.099181 0.002310
vertex 0.000656 0.100367 0.001583
endloop
endfacet
facet normal 0.242248 0.550974 0.798589
outer loop
vertex 0.000656 0.100367 0.001583
vertex 0.000334 0.100367 0.001680
vertex 0.000488 0.099181 0.002452
endloop
endfacet
facet normal -0.830502 0.550974 0.081814
outer loop
vertex -0.002500 0.099181 -0.000000
vertex -0.002452 0.099181 0.000488
vertex -0.001680 0.100367 0.000334
endloop
endfacet
facet normal -0.830505 0.550975 0.081780
outer loop
vertex -0.001680 0.100367 0.000334
vertex -0.001713 0.100367 -0.000000
vertex -0.002500 0.099181 -0.000000
endloop
endfacet
facet normal 0.242248 0.550970 -0.798591
outer loop
vertex 0.000957 0.099181 -0.002310
vertex 0.000488 0.099181 -0.002452
vertex 0.000334 0.100367 -0.001680
endloop
endfacet
facet normal 0.242251 0.550980 -0.798584
outer loop
vertex 0.000334 0.100367 -0.001680
vertex 0.000656 0.100367 -0.001583
vertex 0.000957 0.099181 -0.002310
endloop
endfacet
facet normal 0.529414 0.550974 0.645095
outer loop
vertex 0.001389 0.099181 0.002079
vertex 0.001768 0.099181 0.001768
vertex 0.001212 0.100367 0.001212
endloop
endfacet
facet normal 0.529411 0.550970 0.645102
outer loop
vertex 0.001212 0.100367 0.001212
vertex 0.000952 0.100367 0.001425
vertex 0.001389 0.099181 0.002079
endloop
endfacet
facet normal -0.735982 0.550974 0.393395
outer loop
vertex -0.002310 0.099181 0.000957
vertex -0.002079 0.099181 0.001389
vertex -0.001425 0.100367 0.000952
endloop
endfacet
facet normal -0.735986 0.550977 0.393381
outer loop
vertex -0.001425 0.100367 0.000952
vertex -0.001583 0.100367 0.000656
vertex -0.002310 0.099181 0.000957
endloop
endfacet
facet normal 0.735981 0.550974 0.393395
outer loop
vertex 0.002079 0.099181 0.001389
vertex 0.002310 0.099181 0.000957
vertex 0.001583 0.100367 0.000656
endloop
endfacet
facet normal 0.735986 0.550977 0.393381
outer loop
vertex 0.001583 0.100367 0.000656
vertex 0.001425 0.100367 0.000952
vertex 0.002079 0.099181 0.001389
endloop
endfacet
facet normal -0.242247 0.550975 -0.798588
outer loop
vertex -0.000488 0.099181 -0.002452
vertex -0.000957 0.099181 -0.002310
vertex -0.000656 0.100367 -0.001583
endloop
endfacet
facet normal -0.242249 0.550977 -0.798586
outer loop
vertex -0.000656 0.100367 -0.001583
vertex -0.000334 0.100367 -0.001680
vertex -0.000488 0.099181 -0.002452
endloop
endfacet
facet normal -0.529415 0.550974 0.645095
outer loop
vertex -0.001768 0.099181 0.001768
vertex -0.001389 0.099181 0.002079
vertex -0.000952 0.100367 0.001425
endloop
endfacet
facet normal -0.529416 0.550976 0.645093
outer loop
vertex -0.000952 0.100367 0.001425
vertex -0.001212 0.100367 0.001212
vertex -0.001768 0.099181 0.001768
endloop
endfacet
facet normal 0.830502 0.550974 0.081814
outer loop
vertex 0.002452 0.099181 0.000488
vertex 0.002500 0.099181 -0.000000
vertex 0.001713 0.100367 -0.000000
endloop
endfacet
facet normal 0.830505 0.550976 0.081780
outer loop
vertex 0.001713 0.100367 -0.000000
vertex 0.001680 0.100367 0.000334
vertex 0.002452 0.099181 0.000488
endloop
endfacet
facet normal -0.529411 0.550970 -0.645101
outer loop
vertex -0.001389 0.099181 -0.002079
vertex -0.001768 0.099181 -0.001768
vertex -0.001212 0.100367 -0.001212
endloop
endfacet
facet normal -0.529415 0.550976 -0.645093
outer loop
vertex -0.001212 0.100367 -0.001212
vertex -0.000952 0.100367 -0.001425
vertex -0.001389 0.099181 -0.002079
endloop
endfacet
facet normal -0.242250 0.550975 0.798587
outer loop
vertex -0.000957 0.099181 0.002310
vertex -0.000488 0.099181 0.002452
vertex -0.000334 0.100367 0.001680
endloop
endfacet
facet normal -0.242249 0.550974 0.798588
outer loop
vertex -0.000334 0.100367 0.001680
vertex -0.000656 0.100367 0.001583
vertex -0.000957 0.099181 0.002310
endloop
endfacet
facet normal 0.798589 0.550975 -0.242244
outer loop
vertex 0.002452 0.099181 -0.000488
vertex 0.002310 0.099181 -0.000957
vertex 0.001583 0.100367 -0.000656
endloop
endfacet
facet normal 0.798591 0.550977 -0.242231
outer loop
vertex 0.001583 0.100367 -0.000656
vertex 0.001680 0.100367 -0.000334
vertex 0.002452 0.099181 -0.000488
endloop
endfacet
facet normal -0.735982 0.550974 -0.393395
outer loop
vertex -0.002079 0.099181 -0.001389
vertex -0.002310 0.099181 -0.000957
vertex -0.001583 0.100367 -0.000656
endloop
endfacet
facet normal -0.735986 0.550977 -0.393381
outer loop
vertex -0.001583 0.100367 -0.000656
vertex -0.001425 0.100367 -0.000952
vertex -0.002079 0.099181 -0.001389
endloop
endfacet
facet normal 0.645097 0.550977 -0.529409
outer loop
vertex 0.002079 0.099181 -0.001389
vertex 0.001768 0.099181 -0.001768
vertex 0.001212 0.100367 -0.001212
endloop
endfacet
facet normal 0.645087 0.550969 -0.529430
outer loop
vertex 0.001212 0.100367 -0.001212
vertex 0.001425 0.100367 -0.000952
vertex 0.002079 0.099181 -0.001389
endloop
endfacet
facet normal 0.081797 0.550975 0.830503
outer loop
vertex 0.000000 0.099181 0.002500
vertex 0.000488 0.099181 0.002452
vertex 0.000334 0.100367 0.001680
endloop
endfacet
facet normal 0.081798 0.550975 0.830503
outer loop
vertex 0.000334 0.100367 0.001680
vertex 0.000000 0.100367 0.001713
vertex 0.000000 0.099181 0.002500
endloop
endfacet
facet normal -0.830504 0.550975 -0.081793
outer loop
vertex -0.002452 0.099181 -0.000488
vertex -0.002500 0.099181 -0.000000
vertex -0.001713 0.100367 -0.000000
endloop
endfacet
facet normal -0.830503 0.550974 -0.081810
outer loop
vertex -0.001713 0.100367 -0.000000
vertex -0.001680 0.100367 -0.000334
vertex -0.002452 0.099181 -0.000488
endloop
endfacet
facet normal 0.393392 0.550976 -0.735981
outer loop
vertex 0.001389 0.099181 -0.002079
vertex 0.000957 0.099181 -0.002310
vertex 0.000656 0.100367 -0.001583
endloop
endfacet
facet normal 0.393394 0.550978 -0.735979
outer loop
vertex 0.000656 0.100367 -0.001583
vertex 0.000952 0.100367 -0.001425
vertex 0.001389 0.099181 -0.002079
endloop
endfacet
facet normal 0.393393 0.550976 0.735980
outer loop
vertex 0.000957 0.099181 0.002310
vertex 0.001389 0.099181 0.002079
vertex 0.000952 0.100367 0.001425
endloop
endfacet
facet normal 0.393389 0.550972 0.735986
outer loop
vertex 0.000952 0.100367 0.001425
vertex 0.000656 0.100367 0.001583
vertex 0.000957 0.099181 0.002310
endloop
endfacet
facet normal -0.798589 0.550975 0.242244
outer loop
vertex -0.002452 0.099181 0.000488
vertex -0.002310 0.099181 0.000957
vertex -0.001583 0.100367 0.000656
endloop
endfacet
facet normal -0.798592 0.550977 0.242231
outer loop
vertex -0.001583 0.100367 0.000656
vertex -0.001680 0.100367 0.000334
vertex -0.002452 0.099181 0.000488
endloop
endfacet
facet normal 0.081798 0.550976 -0.830503
outer loop
vertex 0.000488 0.099181 -0.002452
vertex 0.000000 0.099181 -0.002500
vertex 0.000000 0.100367 -0.001713
endloop
endfacet
facet normal 0.081797 0.550976 -0.830503
outer loop
vertex 0.000000 0.100367 -0.001713
vertex 0.000334 0.100367 -0.001680
vertex 0.000488 0.099181 -0.002452
endloop
endfacet
facet normal 0.645093 0.550974 0.529417
outer loop
vertex 0.001768 0.099181 0.001768
vertex 0.002079 0.099181 0.001389
vertex 0.001425 0.100367 0.000952
endloop
endfacet
facet normal 0.645097 0.550978 0.529408
outer loop
vertex 0.001425 0.100367 0.000952
vertex 0.001212 0.100367 0.001212
vertex 0.001768 0.099181 0.001768
endloop
endfacet
facet normal -0.081797 0.550976 -0.830503
outer loop
vertex 0.000000 0.099181 -0.002500
vertex -0.000488 0.099181 -0.002452
vertex -0.000334 0.100367 -0.001680
endloop
endfacet
facet normal -0.081797 0.550974 -0.830504
outer loop
vertex -0.000334 0.100367 -0.001680
vertex 0.000000 0.100367 -0.001713
vertex 0.000000 0.099181 -0.002500
endloop
endfacet
facet normal -0.645093 0.550974 0.529417
outer loop
vertex -0.002079 0.099181 0.001389
vertex -0.001768 0.099181 0.001768
vertex -0.001212 0.100367 0.001212
endloop
endfacet
facet normal -0.645098 0.550978 0.529408
outer loop
vertex -0.001212 0.100367 0.001212
vertex -0.001425 0.100367 0.000952
vertex -0.002079 0.099181 0.001389
endloop
endfacet
facet normal 0.798585 0.550972 0.242264
outer loop
vertex 0.002310 0.099181 0.000957
vertex 0.002452 0.099181 0.000488
vertex 0.001680 0.100367 0.000334
endloop
endfacet
facet normal 0.798585 0.550973 0.242260
outer loop
vertex 0.001680 0.100367 0.000334
vertex 0.001583 0.100367 0.000656
vertex 0.002310 0.099181 0.000957
endloop
endfacet
facet normal 0.000000 1.000000 0.000629
outer loop
vertex 0.000121 0.100901 -0.000609
vertex 0.000345 0.100901 -0.000516
vertex 0.000238 0.100901 -0.000574
endloop
endfacet
facet normal 0.000000 1.000000 0.000000
outer loop
vertex 0.000516 0.100901 -0.000345
vertex 0.000439 0.100901 -0.000439
vertex 0.000345 0.100901 -0.000516
endloop
endfacet
facet normal 0.000000 1.000000 0.000000
outer loop
vertex 0.000609 0.100901 -0.000121
vertex 0.000574 0.100901 -0.000238
vertex 0.000516 0.100901 -0.000345
endloop
endfacet
facet normal 0.000000 1.000000 0.000000
outer loop
vertex 0.000609 0.100901 0.000121
vertex 0.000621 0.100901 -0.000000
vertex 0.000609 0.100901 -0.000121
endloop
endfacet
facet normal 0.000000 1.000000 -0.000157
outer loop
vertex 0.000516 0.100901 0.000345
vertex 0.000574 0.100901 0.000238
vertex 0.000609 0.100901 0.000121
endloop
endfacet
facet normal 0.000000 1.000000 0.000000
outer loop
vertex 0.000345 0.100901 0.000516
vertex 0.000439 0.100901 0.000439
vertex 0.000516 0.100901 0.000345
endloop
endfacet
facet normal 0.000000 1.000000 0.000000
outer loop
vertex 0.000121 0.100901 0.000609
vertex 0.000238 0.100901 0.000574
vertex 0.000345 0.100901 0.000516
endloop
endfacet
facet normal 0.000000 1.000000 0.000629
outer loop
vertex -0.000121 0.100901 0.000609
vertex 0.000000 0.100901 0.000621
vertex 0.000121 0.100901 0.000609
endloop
endfacet
facet normal 0.000000 1.000000 -0.000629
outer loop
vertex -0.000345 0.100901 0.000516
vertex -0.000238 0.100901 0.000574
vertex -0.000121 0.100901 0.000609
endloop
endfacet
facet normal 0.000000 1.000000 0.000000
outer loop
vertex -0.000516 0.100901 0.000345
vertex -0.000439 0.100901 0.000439
vertex -0.000345 0.100901 0.000516
endloop
endfacet
facet normal 0.000000 1.000000 0.000000
outer loop
vertex -0.000609 0.100901 0.000121
vertex -0.000574 0.100901 0.000238
vertex -0.000516 0.100901 0.000345
endloop
endfacet
facet normal 0.000000 1.000000 -0.000079
outer loop
vertex -0.000609 0.100901 -0.000121
vertex -0.000621 0.100901 -0.000000
vertex -0.000609 0.100901 0.000121
endloop
endfacet
facet normal 0.000000 1.000000 0.000157
outer loop
vertex -0.000516 0.100901 -0.000345
vertex -0.000574 0.100901 -0.000238
vertex -0.000609 0.100901 -0.000121
endloop
endfacet
facet normal 0.000000 1.000000 0.000000
outer loop
vertex -0.000345 0.100901 -0.000516
vertex -0.000439 0.100901 -0.000439
vertex -0.000516 0.100901 -0.000345
endloop
endfacet
facet normal 0.000000 1.000000 -0.000629
outer loop
vertex -0.000121 0.100901 -0.000609
vertex -0.000238 0.100901 -0.000574
vertex -0.000345 0.100901 -0.000516
endloop
endfacet
facet normal 0.000000 1.000000 0.000000
outer loop
vertex 0.000121 0.100901 -0.000609
vertex 0.000000 0.100901 -0.000621
vertex -0.000121 0.100901 -0.000609
endloop
endfacet
facet normal 0.000000 1.000000 -0.000162
outer loop
vertex 0.000121 0.100901 -0.000609
vertex 0.000516 0.100901 -0.000345
vertex 0.000345 0.100901 -0.000516
endloop
endfacet
facet normal 0.000000 1.000000 0.000000
outer loop
vertex 0.000609 0.100901 0.000121
vertex 0.000609 0.100901 -0.000121
vertex 0.000516 0.100901 -0.000345
endloop
endfacet
facet normal 0.000000 1.000000 0.000000
outer loop
vertex 0.000345 0.100901 0.000516
vertex 0.000516 0.100901 0.000345
vertex 0.000609 0.100901 0.000121
endloop
endfacet
facet normal 0.000000 1.000000 0.000162
outer loop
vertex -0.000121 0.100901 0.000609
vertex 0.000121 0.100901 0.000609
vertex 0.000345 0.100901 0.000516
endloop
endfacet
facet normal 0.000000 1.000000 0.000162
outer loop
vertex -0.000516 0.100901 0.000345
vertex -0.000345 0.100901 0.000516
vertex -0.000121 0.100901 0.000609
endloop
endfacet
facet normal 0.000000 1.000000 0.000000
outer loop
vertex -0.000609 0.100901 -0.000121
vertex -0.000609 0.100901 0.000121
vertex -0.000516 0.100901 0.000345
endloop
endfacet
facet normal 0.000000 1.000000 0.000081
outer loop
vertex -0.000345 0.100901 -0.000516
vertex -0.000516 0.100901 -0.000345
vertex -0.000609 0.100901 -0.000121
endloop
endfacet
facet normal 0.000000 1.000000 0.000000
outer loop
vertex 0.000121 0.100901 -0.000609
vertex -0.000121 0.100901 -0.000609
vertex -0.000345 0.100901 -0.000516
endloop
endfacet
facet normal 0.000000 1.000000 0.000023
outer loop
vertex 0.000121 0.100901 -0.000609
vertex 0.000609 0.100901 0.000121
vertex 0.000516 0.100901 -0.000345
endloop
endfacet
facet normal 0.000000 1.000000 -0.000023
outer loop
vertex -0.000121 0.100901 0.000609
vertex 0.000345 0.100901 0.000516
vertex 0.000609 0.100901 0.000121
endloop
endfacet
facet normal 0.000000 1.000000 0.000000
outer loop
vertex -0.000609 0.100901 -0.000121
vertex -0.000516 0.100901 0.000345
vertex -0.000121 0.100901 0.000609
endloop
endfacet
facet normal 0.000000 1.000000 0.000023
outer loop
vertex 0.000121 0.100901 -0.000609
vertex -0.000345 0.100901 -0.000516
vertex -0.000609 0.100901 -0.000121
endloop
endfacet
facet normal 0.000000 1.000000 0.000000
outer loop
vertex 0.000121 0.100901 -0.000609
vertex -0.000121 0.100901 0.000609
vertex 0.000609 0.100901 0.000121
endloop
endfacet
facet normal 0.000000 1.000000 -0.000009
outer loop
vertex 0.000121 0.100901 -0.000609
vertex -0.000609 0.100901 -0.000121
vertex -0.000121 0.100901 0.000609
endloop
endfacet
facet normal -0.340637 0.897662 0.279586
outer loop
vertex -0.001425 0.100367 0.000952
vertex -0.001212 0.100367 0.001212
vertex -0.000439 0.100901 0.000439
endloop
endfacet
facet normal -0.340635 0.897657 0.279607
outer loop
vertex -0.000439 0.100901 0.000439
vertex -0.000516 0.100901 0.000345
vertex -0.001425 0.100367 0.000952
endloop
endfacet
facet normal 0.421694 0.897675 0.127880
outer loop
vertex 0.001583 0.100367 0.000656
vertex 0.001680 0.100367 0.000334
vertex 0.000609 0.100901 0.000121
endloop
endfacet
facet normal 0.421698 0.897683 0.127815
outer loop
vertex 0.000609 0.100901 0.000121
vertex 0.000574 0.100901 0.000238
vertex 0.001583 0.100367 0.000656
endloop
endfacet
facet normal -0.207729 0.897672 -0.388630
outer loop
vertex -0.000656 0.100367 -0.001583
vertex -0.000952 0.100367 -0.001425
vertex -0.000345 0.100901 -0.000516
endloop
endfacet
facet normal -0.207729 0.897675 -0.388624
outer loop
vertex -0.000345 0.100901 -0.000516
vertex -0.000238 0.100901 -0.000574
vertex -0.000656 0.100367 -0.001583
endloop
endfacet
facet normal -0.207729 0.897672 0.388630
outer loop
vertex -0.000952 0.100367 0.001425
vertex -0.000656 0.100367 0.001583
vertex -0.000238 0.100901 0.000574
endloop
endfacet
facet normal -0.207734 0.897692 0.388582
outer loop
vertex -0.000238 0.100901 0.000574
vertex -0.000345 0.100901 0.000516
vertex -0.000952 0.100367 0.001425
endloop
endfacet
facet normal 0.438546 0.897672 -0.043151
outer loop
vertex 0.001713 0.100367 -0.000000
vertex 0.001680 0.100367 -0.000334
vertex 0.000609 0.100901 -0.000121
endloop
endfacet
facet normal 0.438542 0.897666 -0.043328
outer loop
vertex 0.000609 0.100901 -0.000121
vertex 0.000621 0.100901 -0.000000
vertex 0.001713 0.100367 -0.000000
endloop
endfacet
facet normal -0.340640 0.897672 -0.279553
outer loop
vertex -0.001212 0.100367 -0.001212
vertex -0.001425 0.100367 -0.000952
vertex -0.000516 0.100901 -0.000345
endloop
endfacet
facet normal -0.340644 0.897682 -0.279516
outer loop
vertex -0.000516 0.100901 -0.000345
vertex -0.000439 0.100901 -0.000439
vertex -0.001212 0.100367 -0.001212
endloop
endfacet
facet normal -0.043193 0.897671 0.438544
outer loop
vertex -0.000334 0.100367 0.001680
vertex 0.000000 0.100367 0.001713
vertex 0.000000 0.100901 0.000621
endloop
endfacet
facet normal -0.043194 0.897673 0.438540
outer loop
vertex 0.000000 0.100901 0.000621
vertex -0.000121 0.100901 0.000609
vertex -0.000334 0.100367 0.001680
endloop
endfacet
facet normal 0.388633 0.897668 -0.207741
outer loop
vertex 0.001583 0.100367 -0.000656
vertex 0.001425 0.100367 -0.000952
vertex 0.000516 0.100901 -0.000345
endloop
endfacet
facet normal 0.388631 0.897665 -0.207758
outer loop
vertex 0.000516 0.100901 -0.000345
vertex 0.000574 0.100901 -0.000238
vertex 0.001583 0.100367 -0.000656
endloop
endfacet
facet normal -0.421692 0.897671 -0.127915
outer loop
vertex -0.001583 0.100367 -0.000656
vertex -0.001680 0.100367 -0.000334
vertex -0.000609 0.100901 -0.000121
endloop
endfacet
facet normal -0.421692 0.897672 -0.127912
outer loop
vertex -0.000609 0.100901 -0.000121
vertex -0.000574 0.100901 -0.000238
vertex -0.001583 0.100367 -0.000656
endloop
endfacet
facet normal 0.279557 0.897674 -0.340631
outer loop
vertex 0.001212 0.100367 -0.001212
vertex 0.000952 0.100367 -0.001425
vertex 0.000345 0.100901 -0.000516
endloop
endfacet
facet normal 0.279568 0.897711 -0.340523
outer loop
vertex 0.000345 0.100901 -0.000516
vertex 0.000439 0.100901 -0.000439
vertex 0.001212 0.100367 -0.001212
endloop
endfacet
facet normal 0.127919 0.897671 0.421691
outer loop
vertex 0.000334 0.100367 0.001680
vertex 0.000656 0.100367 0.001583
vertex 0.000238 0.100901 0.000574
endloop
endfacet
facet normal 0.127919 0.897673 0.421687
outer loop
vertex 0.000238 0.100901 0.000574
vertex 0.000121 0.100901 0.000609
vertex 0.000334 0.100367 0.001680
endloop
endfacet
facet normal -0.438545 0.897669 0.043223
outer loop
vertex -0.001713 0.100367 -0.000000
vertex -0.001680 0.100367 0.000334
vertex -0.000609 0.100901 0.000121
endloop
endfacet
facet normal -0.438546 0.897673 0.043131
outer loop
vertex -0.000609 0.100901 0.000121
vertex -0.000621 0.100901 -0.000000
vertex -0.001713 0.100367 -0.000000
endloop
endfacet
facet normal 0.127918 0.897664 -0.421706
outer loop
vertex 0.000656 0.100367 -0.001583
vertex 0.000334 0.100367 -0.001680
vertex 0.000121 0.100901 -0.000609
endloop
endfacet
facet normal 0.127922 0.897691 -0.421647
outer loop
vertex 0.000121 0.100901 -0.000609
vertex 0.000238 0.100901 -0.000574
vertex 0.000656 0.100367 -0.001583
endloop
endfacet
facet normal 0.279560 0.897685 0.340599
outer loop
vertex 0.000952 0.100367 0.001425
vertex 0.001212 0.100367 0.001212
vertex 0.000439 0.100901 0.000439
endloop
endfacet
facet normal 0.279559 0.897681 0.340610
outer loop
vertex 0.000439 0.100901 0.000439
vertex 0.000345 0.100901 0.000516
vertex 0.000952 0.100367 0.001425
endloop
endfacet
facet normal -0.388636 0.897675 0.207707
outer loop
vertex -0.001583 0.100367 0.000656
vertex -0.001425 0.100367 0.000952
vertex -0.000516 0.100901 0.000345
endloop
endfacet
facet normal -0.388631 0.897665 0.207757
outer loop
vertex -0.000516 0.100901 0.000345
vertex -0.000574 0.100901 0.000238
vertex -0.001583 0.100367 0.000656
endloop
endfacet
facet normal 0.388633 0.897668 0.207741
outer loop
vertex 0.001425 0.100367 0.000952
vertex 0.001583 0.100367 0.000656
vertex 0.000574 0.100901 0.000238
endloop
endfacet
facet normal 0.388631 0.897665 0.207757
outer loop
vertex 0.000574 0.100901 0.000238
vertex 0.000516 0.100901 0.000345
vertex 0.001425 0.100367 0.000952
endloop
endfacet
facet normal -0.127917 0.897664 -0.421706
outer loop
vertex -0.000334 0.100367 -0.001680
vertex -0.000656 0.100367 -0.001583
vertex -0.000238 0.100901 -0.000574
endloop
endfacet
facet normal -0.127917 0.897664 -0.421708
outer loop
vertex -0.000238 0.100901 -0.000574
vertex -0.000121 0.100901 -0.000609
vertex -0.000334 0.100367 -0.001680
endloop
endfacet
facet normal -0.279557 0.897674 0.340631
outer loop
vertex -0.001212 0.100367 0.001212
vertex -0.000952 0.100367 0.001425
vertex -0.000345 0.100901 0.000516
endloop
endfacet
facet normal -0.279560 0.897681 0.340610
outer loop
vertex -0.000345 0.100901 0.000516
vertex -0.000439 0.100901 0.000439
vertex -0.001212 0.100367 0.001212
endloop
endfacet
facet normal 0.438544 0.897670 0.043223
outer loop
vertex 0.001680 0.100367 0.000334
vertex 0.001713 0.100367 -0.000000
vertex 0.000621 0.100901 -0.000000
endloop
endfacet
facet normal 0.438543 0.897665 0.043328
outer loop
vertex 0.000621 0.100901 -0.000000
vertex 0.000609 0.100901 0.000121
vertex 0.001680 0.100367 0.000334
endloop
endfacet
facet normal -0.279557 0.897674 -0.340631
outer loop
vertex -0.000952 0.100367 -0.001425
vertex -0.001212 0.100367 -0.001212
vertex -0.000439 0.100901 -0.000439
endloop
endfacet
facet normal -0.279559 0.897681 -0.340610
outer loop
vertex -0.000439 0.100901 -0.000439
vertex -0.000345 0.100901 -0.000516
vertex -0.000952 0.100367 -0.001425
endloop
endfacet
facet normal -0.127920 0.897675 0.421684
outer loop
vertex -0.000656 0.100367 0.001583
vertex -0.000334 0.100367 0.001680
vertex -0.000121 0.100901 0.000609
endloop
endfacet
facet normal -0.127917 0.897654 0.421728
outer loop
vertex -0.000121 0.100901 0.000609
vertex -0.000238 0.100901 0.000574
vertex -0.000656 0.100367 0.001583
endloop
endfacet
facet normal 0.421690 0.897667 -0.127951
outer loop
vertex 0.001680 0.100367 -0.000334
vertex 0.001583 0.100367 -0.000656
vertex 0.000574 0.100901 -0.000238
endloop
endfacet
facet normal 0.421692 0.897671 -0.127913
outer loop
vertex 0.000574 0.100901 -0.000238
vertex 0.000609 0.100901 -0.000121
vertex 0.001680 0.100367 -0.000334
endloop
endfacet
facet normal -0.388635 0.897675 -0.207707
outer loop
vertex -0.001425 0.100367 -0.000952
vertex -0.001583 0.100367 -0.000656
vertex -0.000574 0.100901 -0.000238
endloop
endfacet
facet normal -0.388631 0.897665 -0.207757
outer loop
vertex -0.000574 0.100901 -0.000238
vertex -0.000516 0.100901 -0.000345
vertex -0.001425 0.100367 -0.000952
endloop
endfacet
facet normal 0.340641 0.897672 -0.279553
outer loop
vertex 0.001425 0.100367 -0.000952
vertex 0.001212 0.100367 -0.001212
vertex 0.000439 0.100901 -0.000439
endloop
endfacet
facet normal 0.340635 0.897657 -0.279607
outer loop
vertex 0.000439 0.100901 -0.000439
vertex 0.000516 0.100901 -0.000345
vertex 0.001425 0.100367 -0.000952
endloop
endfacet
facet normal 0.043193 0.897678 0.438529
outer loop
vertex 0.000000 0.100367 0.001713
vertex 0.000334 0.100367 0.001680
vertex 0.000121 0.100901 0.000609
endloop
endfacet
facet normal 0.043193 0.897669 0.438548
outer loop
vertex 0.000121 0.100901 0.000609
vertex 0.000000 0.100901 0.000621
vertex 0.000000 0.100367 0.001713
endloop
endfacet
facet normal -0.438545 0.897671 -0.043187
outer loop
vertex -0.001680 0.100367 -0.000334
vertex -0.001713 0.100367 -0.000000
vertex -0.000621 0.100901 -0.000000
endloop
endfacet
facet normal -0.438544 0.897669 -0.043230
outer loop
vertex -0.000621 0.100901 -0.000000
vertex -0.000609 0.100901 -0.000121
vertex -0.001680 0.100367 -0.000334
endloop
endfacet
facet normal 0.207730 0.897672 -0.388630
outer loop
vertex 0.000952 0.100367 -0.001425
vertex 0.000656 0.100367 -0.001583
vertex 0.000238 0.100901 -0.000574
endloop
endfacet
facet normal 0.207726 0.897657 -0.388667
outer loop
vertex 0.000238 0.100901 -0.000574
vertex 0.000345 0.100901 -0.000516
vertex 0.000952 0.100367 -0.001425
endloop
endfacet
facet normal 0.207729 0.897672 0.388630
outer loop
vertex 0.000656 0.100367 0.001583
vertex 0.000952 0.100367 0.001425
vertex 0.000345 0.100901 0.000516
endloop
endfacet
facet normal 0.207726 0.897657 0.388666
outer loop
vertex 0.000345 0.100901 0.000516
vertex 0.000238 0.100901 0.000574
vertex 0.000656 0.100367 0.001583
endloop
endfacet
facet normal -0.421690 0.897667 0.127950
outer loop
vertex -0.001680 0.100367 0.000334
vertex -0.001583 0.100367 0.000656
vertex -0.000574 0.100901 0.000238
endloop
endfacet
facet normal -0.421698 0.897683 0.127815
outer loop
vertex -0.000574 0.100901 0.000238
vertex -0.000609 0.100901 0.000121
vertex -0.001680 0.100367 0.000334
endloop
endfacet
facet normal 0.043193 0.897670 -0.438545
outer loop
vertex 0.000334 0.100367 -0.001680
vertex 0.000000 0.100367 -0.001713
vertex 0.000000 0.100901 -0.000621
endloop
endfacet
facet normal 0.043193 0.897663 -0.438561
outer loop
vertex 0.000000 0.100901 -0.000621
vertex 0.000121 0.100901 -0.000609
vertex 0.000334 0.100367 -0.001680
endloop
endfacet
facet normal 0.340640 0.897671 0.279553
outer loop
vertex 0.001212 0.100367 0.001212
vertex 0.001425 0.100367 0.000952
vertex 0.000516 0.100901 0.000345
endloop
endfacet
facet normal 0.340635 0.897657 0.279607
outer loop
vertex 0.000516 0.100901 0.000345
vertex 0.000439 0.100901 0.000439
vertex 0.001212 0.100367 0.001212
endloop
endfacet
endsolid Exported from Blender-2.74 (sub 0)
