solid Exported from Blender-2.74 (sub 0)
facet normal 0.000000 -1.000000 0.000000
outer loop
vertex -20.894119 -6.155191 19.800751
vertex -20.894119 -6.155191 -22.199249
vertex 21.105881 -6.155191 -22.199249
endloop
endfacet
facet normal 0.000000 -1.000000 0.000000
outer loop
vertex 21.105881 -6.155191 -22.199249
vertex 21.105881 -6.155191 19.800751
vertex -20.894119 -6.155191 19.800751
endloop
endfacet
facet normal 0.000000 1.000000 0.000000
outer loop
vertex -20.894119 -5.155191 19.800751
vertex 21.105881 -5.155191 19.800751
vertex 21.105881 -5.155191 -22.199249
endloop
endfacet
facet normal 0.000000 1.000000 0.000000
outer loop
vertex 21.105881 -5.155191 -22.199249
vertex -20.894119 -5.155191 -22.199249
vertex -20.894119 -5.155191 19.800751
endloop
endfacet
facet normal 0.000000 0.000000 -1.000000
outer loop
vertex 21.105881 -6.155191 -22.199249
vertex -20.894119 -6.155191 -22.199249
vertex -20.894119 -5.155191 -22.199249
endloop
endfacet
facet normal 0.000000 0.000000 -1.000000
outer loop
vertex -20.894119 -5.155191 -22.199249
vertex 21.105881 -5.155191 -22.199249
vertex 21.105881 -6.155191 -22.199249
endloop
endfacet
facet normal 1.000000 0.000000 0.000000
outer loop
vertex 21.105881 -6.155191 19.800751
vertex 21.105881 -6.155191 -22.199249
vertex 21.105881 -5.155191 -22.199249
endloop
endfacet
facet normal 1.000000 0.000000 0.000000
outer loop
vertex 21.105881 -5.155191 -22.199249
vertex 21.105881 -5.155191 19.800751
vertex 21.105881 -6.155191 19.800751
endloop
endfacet
facet normal 0.000000 0.000000 1.000000
outer loop
vertex -20.894119 -6.155191 19.800751
vertex 21.105881 -6.155191 19.800751
vertex 21.105881 -5.155191 19.800751
endloop
endfacet
facet normal 0.000000 0.000000 1.000000
outer loop
vertex 21.105881 -5.155191 19.800751
vertex -20.894119 -5.155191 19.800751
vertex -20.894119 -6.155191 19.800751
endloop
endfacet
facet normal -1.000000 0.000000 0.000000
outer loop
vertex -20.894119 -6.155191 -22.199249
vertex -20.894119 -6.155191 19.800751
vertex -20.894119 -5.155191 19.800751
endloop
endfacet
facet normal -1.000000 0.000000 0.000000
outer loop
vertex -20.894119 -5.155191 19.800751
vertex -20.894119 -5.155191 -22.199249
vertex -20.894119 -6.155191 -22.199249
endloop
endfacet
endsolid Exported from Blender-2.74 (sub 0)
