solid Exported from Blender-2.74 (sub 0)
facet normal 0.098021 0.000000 -0.995184
outer loop
vertex -0.166279 -11.333209 -21.342262
vertex -0.166279 -10.590449 -21.342262
vertex 3.646613 -10.590449 -20.966709
endloop
endfacet
facet normal 0.098021 0.000000 -0.995184
outer loop
vertex 3.646613 -10.590449 -20.966709
vertex 3.646613 -11.333209 -20.966709
vertex -0.166279 -11.333209 -21.342262
endloop
endfacet
facet normal 0.290287 0.000000 -0.956940
outer loop
vertex 7.312990 -10.590449 -19.854515
vertex 7.312990 -11.333209 -19.854515
vertex 3.646613 -11.333209 -20.966709
endloop
endfacet
facet normal 0.290288 0.000000 -0.956939
outer loop
vertex 3.646613 -11.333209 -20.966709
vertex 3.646613 -10.590449 -20.966709
vertex 7.312990 -10.590449 -19.854515
endloop
endfacet
facet normal 0.471395 0.000000 -0.881922
outer loop
vertex 10.691957 -10.590449 -18.048431
vertex 10.691957 -11.333209 -18.048431
vertex 7.312990 -11.333209 -19.854515
endloop
endfacet
facet normal 0.471394 0.000000 -0.881923
outer loop
vertex 7.312990 -11.333209 -19.854515
vertex 7.312990 -10.590449 -19.854515
vertex 10.691957 -10.590449 -18.048431
endloop
endfacet
facet normal 0.634384 0.000000 -0.773018
outer loop
vertex 13.653635 -10.590449 -15.617907
vertex 13.653635 -11.333209 -15.617907
vertex 10.691957 -11.333209 -18.048431
endloop
endfacet
facet normal 0.634383 0.000000 -0.773019
outer loop
vertex 10.691957 -11.333209 -18.048431
vertex 10.691957 -10.590449 -18.048431
vertex 13.653635 -10.590449 -15.617907
endloop
endfacet
facet normal 0.773018 0.000000 -0.634384
outer loop
vertex 16.084160 -10.590449 -12.656226
vertex 16.084160 -11.333209 -12.656226
vertex 13.653635 -11.333209 -15.617907
endloop
endfacet
facet normal 0.773019 0.000000 -0.634383
outer loop
vertex 13.653635 -11.333209 -15.617907
vertex 13.653635 -10.590449 -15.617907
vertex 16.084160 -10.590449 -12.656226
endloop
endfacet
facet normal 0.881923 0.000000 -0.471394
outer loop
vertex 17.890240 -10.590449 -9.277261
vertex 17.890240 -11.333209 -9.277261
vertex 16.084160 -11.333209 -12.656226
endloop
endfacet
facet normal 0.881923 0.000000 -0.471394
outer loop
vertex 16.084160 -11.333209 -12.656226
vertex 16.084160 -10.590449 -12.656226
vertex 17.890240 -10.590449 -9.277261
endloop
endfacet
facet normal 0.956939 0.000000 -0.290288
outer loop
vertex 19.002434 -10.590449 -5.610887
vertex 19.002434 -11.333209 -5.610887
vertex 17.890240 -11.333209 -9.277261
endloop
endfacet
facet normal 0.956940 0.000000 -0.290287
outer loop
vertex 17.890240 -11.333209 -9.277261
vertex 17.890240 -10.590449 -9.277261
vertex 19.002434 -10.590449 -5.610887
endloop
endfacet
facet normal 0.995184 0.000000 -0.098022
outer loop
vertex 19.377989 -10.590449 -1.797996
vertex 19.377989 -11.333209 -1.797996
vertex 19.002434 -11.333209 -5.610887
endloop
endfacet
facet normal 0.995184 0.000000 -0.098022
outer loop
vertex 19.002434 -11.333209 -5.610887
vertex 19.002434 -10.590449 -5.610887
vertex 19.377989 -10.590449 -1.797996
endloop
endfacet
facet normal 0.995184 0.000000 0.098021
outer loop
vertex 19.002436 -10.590449 2.014894
vertex 19.002436 -11.333209 2.014894
vertex 19.377989 -11.333209 -1.797996
endloop
endfacet
facet normal 0.995184 0.000000 0.098021
outer loop
vertex 19.377989 -11.333209 -1.797996
vertex 19.377989 -10.590449 -1.797996
vertex 19.002436 -10.590449 2.014894
endloop
endfacet
facet normal 0.956939 0.000000 0.290288
outer loop
vertex 17.890240 -10.590449 5.681270
vertex 17.890240 -11.333209 5.681270
vertex 19.002436 -11.333209 2.014894
endloop
endfacet
facet normal 0.956939 0.000000 0.290288
outer loop
vertex 19.002436 -11.333209 2.014894
vertex 19.002436 -10.590449 2.014894
vertex 17.890240 -10.590449 5.681270
endloop
endfacet
facet normal 0.881923 0.000000 0.471393
outer loop
vertex 16.084160 -10.590449 9.060239
vertex 16.084160 -11.333209 9.060239
vertex 17.890240 -11.333209 5.681270
endloop
endfacet
facet normal 0.881923 0.000000 0.471394
outer loop
vertex 17.890240 -11.333209 5.681270
vertex 17.890240 -10.590449 5.681270
vertex 16.084160 -10.590449 9.060239
endloop
endfacet
facet normal 0.773018 0.000000 0.634383
outer loop
vertex 13.653635 -10.590449 12.021919
vertex 13.653635 -11.333209 12.021919
vertex 16.084160 -11.333209 9.060239
endloop
endfacet
facet normal 0.773019 0.000000 0.634383
outer loop
vertex 16.084160 -11.333209 9.060239
vertex 16.084160 -10.590449 9.060239
vertex 13.653635 -10.590449 12.021919
endloop
endfacet
facet normal 0.634383 0.000000 0.773019
outer loop
vertex 10.691956 -10.590449 14.452441
vertex 10.691956 -11.333209 14.452441
vertex 13.653635 -11.333209 12.021919
endloop
endfacet
facet normal 0.634383 0.000000 0.773018
outer loop
vertex 13.653635 -11.333209 12.021919
vertex 13.653635 -10.590449 12.021919
vertex 10.691956 -10.590449 14.452441
endloop
endfacet
facet normal 0.471394 0.000000 0.881923
outer loop
vertex 7.312986 -10.590449 16.258526
vertex 7.312986 -11.333209 16.258526
vertex 10.691956 -11.333209 14.452441
endloop
endfacet
facet normal 0.471394 0.000000 0.881923
outer loop
vertex 10.691956 -11.333209 14.452441
vertex 10.691956 -10.590449 14.452441
vertex 7.312986 -10.590449 16.258526
endloop
endfacet
facet normal 0.290287 0.000000 0.956940
outer loop
vertex 3.646608 -10.590449 17.370716
vertex 3.646608 -11.333209 17.370716
vertex 7.312986 -11.333209 16.258526
endloop
endfacet
facet normal 0.290286 0.000000 0.956940
outer loop
vertex 7.312986 -11.333209 16.258526
vertex 7.312986 -10.590449 16.258526
vertex 3.646608 -10.590449 17.370716
endloop
endfacet
facet normal 0.098022 0.000000 0.995184
outer loop
vertex -0.166285 -10.590449 17.746273
vertex -0.166285 -11.333209 17.746273
vertex 3.646608 -11.333209 17.370716
endloop
endfacet
facet normal 0.098022 0.000000 0.995184
outer loop
vertex 3.646608 -11.333209 17.370716
vertex 3.646608 -10.590449 17.370716
vertex -0.166285 -10.590449 17.746273
endloop
endfacet
facet normal -0.098023 0.000000 0.995184
outer loop
vertex -3.979179 -10.590449 17.370714
vertex -3.979179 -11.333209 17.370714
vertex -0.166285 -11.333209 17.746273
endloop
endfacet
facet normal -0.098022 0.000000 0.995184
outer loop
vertex -0.166285 -11.333209 17.746273
vertex -0.166285 -10.590449 17.746273
vertex -3.979179 -10.590449 17.370714
endloop
endfacet
facet normal -0.290288 0.000000 0.956939
outer loop
vertex -7.645555 -10.590449 16.258518
vertex -7.645555 -11.333209 16.258518
vertex -3.979179 -11.333209 17.370714
endloop
endfacet
facet normal -0.290288 0.000000 0.956939
outer loop
vertex -3.979179 -11.333209 17.370714
vertex -3.979179 -10.590449 17.370714
vertex -7.645555 -10.590449 16.258518
endloop
endfacet
facet normal -0.471394 0.000000 0.881923
outer loop
vertex -11.024523 -10.590449 14.452435
vertex -11.024523 -11.333209 14.452435
vertex -7.645555 -11.333209 16.258518
endloop
endfacet
facet normal -0.471394 0.000000 0.881923
outer loop
vertex -7.645555 -11.333209 16.258518
vertex -7.645555 -10.590449 16.258518
vertex -11.024523 -10.590449 14.452435
endloop
endfacet
facet normal -0.634384 0.000000 0.773018
outer loop
vertex -13.986202 -10.590449 12.021910
vertex -13.986202 -11.333209 12.021910
vertex -11.024523 -11.333209 14.452435
endloop
endfacet
facet normal -0.634384 0.000000 0.773018
outer loop
vertex -11.024523 -11.333209 14.452435
vertex -11.024523 -10.590449 14.452435
vertex -13.986202 -10.590449 12.021910
endloop
endfacet
facet normal -0.773018 0.000000 0.634383
outer loop
vertex -16.416729 -10.590449 9.060227
vertex -16.416729 -11.333209 9.060227
vertex -13.986202 -11.333209 12.021910
endloop
endfacet
facet normal -0.773018 0.000000 0.634384
outer loop
vertex -13.986202 -11.333209 12.021910
vertex -13.986202 -10.590449 12.021910
vertex -16.416729 -10.590449 9.060227
endloop
endfacet
facet normal -0.881923 0.000000 0.471393
outer loop
vertex -18.222809 -10.590449 5.681256
vertex -18.222809 -11.333209 5.681256
vertex -16.416729 -11.333209 9.060227
endloop
endfacet
facet normal -0.881923 0.000000 0.471393
outer loop
vertex -16.416729 -11.333209 9.060227
vertex -16.416729 -10.590449 9.060227
vertex -18.222809 -10.590449 5.681256
endloop
endfacet
facet normal -0.956940 0.000000 0.290286
outer loop
vertex -19.334997 -10.590449 2.014879
vertex -19.334997 -11.333209 2.014879
vertex -18.222809 -11.333209 5.681256
endloop
endfacet
facet normal -0.956940 0.000000 0.290286
outer loop
vertex -18.222809 -11.333209 5.681256
vertex -18.222809 -10.590449 5.681256
vertex -19.334997 -10.590449 2.014879
endloop
endfacet
facet normal -0.995184 0.000000 0.098020
outer loop
vertex -19.710546 -10.590449 -1.798015
vertex -19.710546 -11.333209 -1.798015
vertex -19.334997 -11.333209 2.014879
endloop
endfacet
facet normal -0.995184 0.000000 0.098020
outer loop
vertex -19.334997 -11.333209 2.014879
vertex -19.334997 -10.590449 2.014879
vertex -19.710546 -10.590449 -1.798015
endloop
endfacet
facet normal -0.995184 0.000000 -0.098023
outer loop
vertex -19.334988 -10.590449 -5.610908
vertex -19.334988 -11.333209 -5.610908
vertex -19.710546 -11.333209 -1.798015
endloop
endfacet
facet normal -0.995184 0.000000 -0.098023
outer loop
vertex -19.710546 -11.333209 -1.798015
vertex -19.710546 -10.590449 -1.798015
vertex -19.334988 -10.590449 -5.610908
endloop
endfacet
facet normal -0.956939 0.000000 -0.290288
outer loop
vertex -18.222790 -10.590449 -9.277283
vertex -18.222790 -11.333209 -9.277283
vertex -19.334988 -11.333209 -5.610908
endloop
endfacet
facet normal -0.956939 0.000000 -0.290288
outer loop
vertex -19.334988 -11.333209 -5.610908
vertex -19.334988 -10.590449 -5.610908
vertex -18.222790 -10.590449 -9.277283
endloop
endfacet
facet normal -0.881922 0.000000 -0.471395
outer loop
vertex -16.416704 -10.590449 -12.656249
vertex -16.416704 -11.333209 -12.656249
vertex -18.222790 -11.333209 -9.277283
endloop
endfacet
facet normal -0.881922 0.000000 -0.471395
outer loop
vertex -18.222790 -11.333209 -9.277283
vertex -18.222790 -10.590449 -9.277283
vertex -16.416704 -10.590449 -12.656249
endloop
endfacet
facet normal -0.773011 0.000000 -0.634392
outer loop
vertex -13.986176 -10.590449 -15.617866
vertex -13.986176 -11.333209 -15.617866
vertex -16.416704 -11.333209 -12.656249
endloop
endfacet
facet normal -0.773012 0.000000 -0.634392
outer loop
vertex -16.416704 -11.333209 -12.656249
vertex -16.416704 -10.590449 -12.656249
vertex -13.986176 -10.590449 -15.617866
endloop
endfacet
facet normal -0.634393 0.000000 -0.773011
outer loop
vertex -11.024490 -10.590449 -18.048450
vertex -11.024490 -11.333209 -18.048450
vertex -13.986176 -11.333209 -15.617866
endloop
endfacet
facet normal -0.634392 0.000000 -0.773011
outer loop
vertex -13.986176 -11.333209 -15.617866
vertex -13.986176 -10.590449 -15.617866
vertex -11.024490 -10.590449 -18.048450
endloop
endfacet
facet normal -0.471392 0.000000 -0.881924
outer loop
vertex -7.645517 -10.590449 -19.854527
vertex -7.645517 -11.333209 -19.854527
vertex -11.024490 -11.333209 -18.048450
endloop
endfacet
facet normal -0.471392 0.000000 -0.881924
outer loop
vertex -11.024490 -11.333209 -18.048450
vertex -11.024490 -10.590449 -18.048450
vertex -7.645517 -10.590449 -19.854527
endloop
endfacet
facet normal 0.000000 -1.000000 0.000003
outer loop
vertex 7.312990 -11.333209 -19.854515
vertex -0.166279 -11.333209 -21.342262
vertex 3.646613 -11.333209 -20.966709
endloop
endfacet
facet normal 0.000000 -1.000000 0.000000
outer loop
vertex -7.645517 -11.333209 -19.854527
vertex -3.979139 -11.333209 -20.966713
vertex -0.166279 -11.333209 -21.342262
endloop
endfacet
facet normal 0.000000 -1.000000 0.000000
outer loop
vertex -13.986176 -11.333209 -15.617866
vertex -11.024490 -11.333209 -18.048450
vertex -7.645517 -11.333209 -19.854527
endloop
endfacet
facet normal 0.000000 -1.000000 0.000000
outer loop
vertex -18.222790 -11.333209 -9.277283
vertex -16.416704 -11.333209 -12.656249
vertex -13.986176 -11.333209 -15.617866
endloop
endfacet
facet normal 0.000000 -1.000000 0.000000
outer loop
vertex -19.710546 -11.333209 -1.798015
vertex -19.334988 -11.333209 -5.610908
vertex -18.222790 -11.333209 -9.277283
endloop
endfacet
facet normal 0.000000 -1.000000 0.000000
outer loop
vertex -18.222809 -11.333209 5.681256
vertex -19.334997 -11.333209 2.014879
vertex -19.710546 -11.333209 -1.798015
endloop
endfacet
facet normal 0.000000 -1.000000 -0.000001
outer loop
vertex -13.986202 -11.333209 12.021910
vertex -16.416729 -11.333209 9.060227
vertex -18.222809 -11.333209 5.681256
endloop
endfacet
facet normal 0.000000 -1.000000 0.000000
outer loop
vertex -7.645555 -11.333209 16.258518
vertex -11.024523 -11.333209 14.452435
vertex -13.986202 -11.333209 12.021910
endloop
endfacet
facet normal 0.000000 -1.000000 -0.000003
outer loop
vertex -0.166285 -11.333209 17.746273
vertex -3.979179 -11.333209 17.370714
vertex -7.645555 -11.333209 16.258518
endloop
endfacet
facet normal 0.000000 -1.000000 0.000000
outer loop
vertex 7.312986 -11.333209 16.258526
vertex 3.646608 -11.333209 17.370716
vertex -0.166285 -11.333209 17.746273
endloop
endfacet
facet normal 0.000000 -1.000000 0.000000
outer loop
vertex 13.653635 -11.333209 12.021919
vertex 10.691956 -11.333209 14.452441
vertex 7.312986 -11.333209 16.258526
endloop
endfacet
facet normal 0.000000 -1.000000 0.000000
outer loop
vertex 17.890240 -11.333209 5.681270
vertex 16.084160 -11.333209 9.060239
vertex 13.653635 -11.333209 12.021919
endloop
endfacet
facet normal 0.000000 -1.000000 0.000000
outer loop
vertex 19.377989 -11.333209 -1.797996
vertex 19.002436 -11.333209 2.014894
vertex 17.890240 -11.333209 5.681270
endloop
endfacet
facet normal 0.000000 -1.000000 0.000000
outer loop
vertex 17.890240 -11.333209 -9.277261
vertex 19.002434 -11.333209 -5.610887
vertex 19.377989 -11.333209 -1.797996
endloop
endfacet
facet normal 0.000000 -1.000000 0.000000
outer loop
vertex 13.653635 -11.333209 -15.617907
vertex 16.084160 -11.333209 -12.656226
vertex 17.890240 -11.333209 -9.277261
endloop
endfacet
facet normal 0.000000 -1.000000 0.000003
outer loop
vertex 7.312990 -11.333209 -19.854515
vertex 10.691957 -11.333209 -18.048431
vertex 13.653635 -11.333209 -15.617907
endloop
endfacet
facet normal 0.000000 -1.000000 0.000000
outer loop
vertex 7.312990 -11.333209 -19.854515
vertex -7.645517 -11.333209 -19.854527
vertex -0.166279 -11.333209 -21.342262
endloop
endfacet
facet normal 0.000000 -1.000000 0.000000
outer loop
vertex -18.222790 -11.333209 -9.277283
vertex -13.986176 -11.333209 -15.617866
vertex -7.645517 -11.333209 -19.854527
endloop
endfacet
facet normal 0.000000 -1.000000 0.000000
outer loop
vertex -18.222809 -11.333209 5.681256
vertex -19.710546 -11.333209 -1.798015
vertex -18.222790 -11.333209 -9.277283
endloop
endfacet
facet normal 0.000000 -1.000000 -0.000000
outer loop
vertex -7.645555 -11.333209 16.258518
vertex -13.986202 -11.333209 12.021910
vertex -18.222809 -11.333209 5.681256
endloop
endfacet
facet normal 0.000000 -1.000000 0.000001
outer loop
vertex 7.312986 -11.333209 16.258526
vertex -0.166285 -11.333209 17.746273
vertex -7.645555 -11.333209 16.258518
endloop
endfacet
facet normal 0.000000 -1.000000 -0.000001
outer loop
vertex 17.890240 -11.333209 5.681270
vertex 13.653635 -11.333209 12.021919
vertex 7.312986 -11.333209 16.258526
endloop
endfacet
facet normal 0.000000 -1.000000 0.000000
outer loop
vertex 17.890240 -11.333209 -9.277261
vertex 19.377989 -11.333209 -1.797996
vertex 17.890240 -11.333209 5.681270
endloop
endfacet
facet normal 0.000000 -1.000000 0.000000
outer loop
vertex 7.312990 -11.333209 -19.854515
vertex 13.653635 -11.333209 -15.617907
vertex 17.890240 -11.333209 -9.277261
endloop
endfacet
facet normal 0.000000 -1.000000 -0.000000
outer loop
vertex 7.312990 -11.333209 -19.854515
vertex -18.222790 -11.333209 -9.277283
vertex -7.645517 -11.333209 -19.854527
endloop
endfacet
facet normal 0.000000 -1.000000 0.000000
outer loop
vertex -7.645555 -11.333209 16.258518
vertex -18.222809 -11.333209 5.681256
vertex -18.222790 -11.333209 -9.277283
endloop
endfacet
facet normal 0.000000 -1.000000 0.000000
outer loop
vertex 17.890240 -11.333209 5.681270
vertex 7.312986 -11.333209 16.258526
vertex -7.645555 -11.333209 16.258518
endloop
endfacet
facet normal 0.000000 -1.000000 0.000000
outer loop
vertex 7.312990 -11.333209 -19.854515
vertex 17.890240 -11.333209 -9.277261
vertex 17.890240 -11.333209 5.681270
endloop
endfacet
facet normal 0.000000 -1.000000 0.000000
outer loop
vertex 7.312990 -11.333209 -19.854515
vertex -7.645555 -11.333209 16.258518
vertex -18.222790 -11.333209 -9.277283
endloop
endfacet
facet normal 0.000000 -1.000000 0.000000
outer loop
vertex 7.312990 -11.333209 -19.854515
vertex 17.890240 -11.333209 5.681270
vertex -7.645555 -11.333209 16.258518
endloop
endfacet
facet normal -0.098022 0.000000 -0.995184
outer loop
vertex -0.166279 -10.590449 -21.342262
vertex -0.166279 -11.333209 -21.342262
vertex -3.979139 -11.333209 -20.966713
endloop
endfacet
facet normal -0.098021 0.000000 -0.995184
outer loop
vertex -3.979139 -11.333209 -20.966713
vertex -3.979139 -10.590449 -20.966713
vertex -0.166279 -10.590449 -21.342262
endloop
endfacet
facet normal -0.290285 0.000000 -0.956940
outer loop
vertex -3.979139 -10.590449 -20.966713
vertex -3.979139 -11.333209 -20.966713
vertex -7.645517 -11.333209 -19.854527
endloop
endfacet
facet normal -0.290286 0.000000 -0.956940
outer loop
vertex -7.645517 -11.333209 -19.854527
vertex -7.645517 -10.590449 -19.854527
vertex -3.979139 -10.590449 -20.966713
endloop
endfacet
facet normal 0.000000 1.000000 0.000000
outer loop
vertex -3.979139 -10.590449 -20.966713
vertex 3.646613 -10.590449 -20.966709
vertex -0.166279 -10.590449 -21.342262
endloop
endfacet
facet normal 0.000000 1.000000 0.000003
outer loop
vertex 10.691957 -10.590449 -18.048431
vertex 7.312990 -10.590449 -19.854515
vertex 3.646613 -10.590449 -20.966709
endloop
endfacet
facet normal 0.000000 1.000000 0.000000
outer loop
vertex 16.084160 -10.590449 -12.656226
vertex 13.653635 -10.590449 -15.617907
vertex 10.691957 -10.590449 -18.048431
endloop
endfacet
facet normal 0.000000 1.000000 0.000000
outer loop
vertex 19.002434 -10.590449 -5.610887
vertex 17.890240 -10.590449 -9.277261
vertex 16.084160 -10.590449 -12.656226
endloop
endfacet
facet normal 0.000000 1.000000 0.000000
outer loop
vertex 19.002436 -10.590449 2.014894
vertex 19.377989 -10.590449 -1.797996
vertex 19.002434 -10.590449 -5.610887
endloop
endfacet
facet normal 0.000000 1.000000 -0.000001
outer loop
vertex 16.084160 -10.590449 9.060239
vertex 17.890240 -10.590449 5.681270
vertex 19.002436 -10.590449 2.014894
endloop
endfacet
facet normal 0.000000 1.000000 0.000001
outer loop
vertex 10.691956 -10.590449 14.452441
vertex 13.653635 -10.590449 12.021919
vertex 16.084160 -10.590449 9.060239
endloop
endfacet
facet normal 0.000000 1.000000 -0.000003
outer loop
vertex 3.646608 -10.590449 17.370716
vertex 7.312986 -10.590449 16.258526
vertex 10.691956 -10.590449 14.452441
endloop
endfacet
facet normal 0.000000 1.000000 0.000000
outer loop
vertex -3.979179 -10.590449 17.370714
vertex -0.166285 -10.590449 17.746273
vertex 3.646608 -10.590449 17.370716
endloop
endfacet
facet normal 0.000000 1.000000 0.000000
outer loop
vertex -11.024523 -10.590449 14.452435
vertex -7.645555 -10.590449 16.258518
vertex -3.979179 -10.590449 17.370714
endloop
endfacet
facet normal 0.000000 1.000000 -0.000001
outer loop
vertex -16.416729 -10.590449 9.060227
vertex -13.986202 -10.590449 12.021910
vertex -11.024523 -10.590449 14.452435
endloop
endfacet
facet normal 0.000000 1.000000 0.000000
outer loop
vertex -19.334997 -10.590449 2.014879
vertex -18.222809 -10.590449 5.681256
vertex -16.416729 -10.590449 9.060227
endloop
endfacet
facet normal 0.000000 1.000000 0.000000
outer loop
vertex -19.334988 -10.590449 -5.610908
vertex -19.710546 -10.590449 -1.798015
vertex -19.334997 -10.590449 2.014879
endloop
endfacet
facet normal 0.000000 1.000000 0.000000
outer loop
vertex -16.416704 -10.590449 -12.656249
vertex -18.222790 -10.590449 -9.277283
vertex -19.334988 -10.590449 -5.610908
endloop
endfacet
facet normal 0.000000 1.000000 0.000000
outer loop
vertex -11.024490 -10.590449 -18.048450
vertex -13.986176 -10.590449 -15.617866
vertex -16.416704 -10.590449 -12.656249
endloop
endfacet
facet normal 0.000000 1.000000 0.000003
outer loop
vertex -3.979139 -10.590449 -20.966713
vertex -7.645517 -10.590449 -19.854527
vertex -11.024490 -10.590449 -18.048450
endloop
endfacet
facet normal 0.000000 1.000000 0.000000
outer loop
vertex -3.979139 -10.590449 -20.966713
vertex 10.691957 -10.590449 -18.048431
vertex 3.646613 -10.590449 -20.966709
endloop
endfacet
facet normal 0.000000 1.000000 0.000000
outer loop
vertex 19.002434 -10.590449 -5.610887
vertex 16.084160 -10.590449 -12.656226
vertex 10.691957 -10.590449 -18.048431
endloop
endfacet
facet normal 0.000000 1.000000 0.000000
outer loop
vertex 16.084160 -10.590449 9.060239
vertex 19.002436 -10.590449 2.014894
vertex 19.002434 -10.590449 -5.610887
endloop
endfacet
facet normal 0.000000 1.000000 0.000001
outer loop
vertex 3.646608 -10.590449 17.370716
vertex 10.691956 -10.590449 14.452441
vertex 16.084160 -10.590449 9.060239
endloop
endfacet
facet normal 0.000000 1.000000 0.000000
outer loop
vertex -11.024523 -10.590449 14.452435
vertex -3.979179 -10.590449 17.370714
vertex 3.646608 -10.590449 17.370716
endloop
endfacet
facet normal 0.000000 1.000000 0.000000
outer loop
vertex -19.334997 -10.590449 2.014879
vertex -16.416729 -10.590449 9.060227
vertex -11.024523 -10.590449 14.452435
endloop
endfacet
facet normal 0.000000 1.000000 0.000000
outer loop
vertex -16.416704 -10.590449 -12.656249
vertex -19.334988 -10.590449 -5.610908
vertex -19.334997 -10.590449 2.014879
endloop
endfacet
facet normal 0.000000 1.000000 -0.000000
outer loop
vertex -3.979139 -10.590449 -20.966713
vertex -11.024490 -10.590449 -18.048450
vertex -16.416704 -10.590449 -12.656249
endloop
endfacet
facet normal 0.000000 1.000000 0.000000
outer loop
vertex -3.979139 -10.590449 -20.966713
vertex 19.002434 -10.590449 -5.610887
vertex 10.691957 -10.590449 -18.048431
endloop
endfacet
facet normal 0.000000 1.000000 -0.000000
outer loop
vertex 3.646608 -10.590449 17.370716
vertex 16.084160 -10.590449 9.060239
vertex 19.002434 -10.590449 -5.610887
endloop
endfacet
facet normal 0.000000 1.000000 0.000000
outer loop
vertex -19.334997 -10.590449 2.014879
vertex -11.024523 -10.590449 14.452435
vertex 3.646608 -10.590449 17.370716
endloop
endfacet
facet normal 0.000000 1.000000 -0.000000
outer loop
vertex -3.979139 -10.590449 -20.966713
vertex -16.416704 -10.590449 -12.656249
vertex -19.334997 -10.590449 2.014879
endloop
endfacet
facet normal 0.000000 1.000000 -0.000000
outer loop
vertex -3.979139 -10.590449 -20.966713
vertex 3.646608 -10.590449 17.370716
vertex 19.002434 -10.590449 -5.610887
endloop
endfacet
facet normal 0.000000 1.000000 0.000000
outer loop
vertex -3.979139 -10.590449 -20.966713
vertex -19.334997 -10.590449 2.014879
vertex 3.646608 -10.590449 17.370716
endloop
endfacet
endsolid Exported from Blender-2.74 (sub 0)
