solid Exported from Blender-2.74 (sub 0)
facet normal -0.098022 0.000000 0.995184
outer loop
vertex -0.166279 -7.727843 -21.342264
vertex -0.166279 -8.485084 -21.342264
vertex 3.646614 -8.485084 -20.966707
endloop
endfacet
facet normal -0.098023 0.000000 0.995184
outer loop
vertex 3.646614 -8.485084 -20.966707
vertex 3.646614 -7.727843 -20.966707
vertex -0.166279 -7.727843 -21.342264
endloop
endfacet
facet normal -0.290286 0.000000 0.956940
outer loop
vertex 7.312990 -8.485084 -19.854515
vertex 7.312990 -7.727843 -19.854515
vertex 3.646614 -7.727843 -20.966707
endloop
endfacet
facet normal -0.290288 0.000000 0.956939
outer loop
vertex 3.646614 -7.727843 -20.966707
vertex 3.646614 -8.485084 -20.966707
vertex 7.312990 -8.485084 -19.854515
endloop
endfacet
facet normal -0.471394 0.000000 0.881923
outer loop
vertex 10.691957 -8.485084 -18.048431
vertex 10.691957 -7.727843 -18.048431
vertex 7.312990 -7.727843 -19.854515
endloop
endfacet
facet normal -0.471394 0.000000 0.881923
outer loop
vertex 7.312990 -7.727843 -19.854515
vertex 7.312990 -8.485084 -19.854515
vertex 10.691957 -8.485084 -18.048431
endloop
endfacet
facet normal -0.634383 0.000000 0.773019
outer loop
vertex 13.653637 -8.485084 -15.617908
vertex 13.653637 -7.727843 -15.617908
vertex 10.691957 -7.727843 -18.048431
endloop
endfacet
facet normal -0.634383 0.000000 0.773019
outer loop
vertex 10.691957 -7.727843 -18.048431
vertex 10.691957 -8.485084 -18.048431
vertex 13.653637 -8.485084 -15.617908
endloop
endfacet
facet normal -0.773018 0.000000 0.634384
outer loop
vertex 16.084160 -8.485084 -12.656228
vertex 16.084160 -7.727843 -12.656228
vertex 13.653637 -7.727843 -15.617908
endloop
endfacet
facet normal -0.773019 0.000000 0.634383
outer loop
vertex 13.653637 -7.727843 -15.617908
vertex 13.653637 -8.485084 -15.617908
vertex 16.084160 -8.485084 -12.656228
endloop
endfacet
facet normal -0.881923 0.000000 0.471394
outer loop
vertex 17.890240 -8.485084 -9.277261
vertex 17.890240 -7.727843 -9.277261
vertex 16.084160 -7.727843 -12.656228
endloop
endfacet
facet normal -0.881923 0.000000 0.471393
outer loop
vertex 16.084160 -7.727843 -12.656228
vertex 16.084160 -8.485084 -12.656228
vertex 17.890240 -8.485084 -9.277261
endloop
endfacet
facet normal -0.956939 0.000000 0.290288
outer loop
vertex 19.002434 -8.485084 -5.610888
vertex 19.002434 -7.727843 -5.610888
vertex 17.890240 -7.727843 -9.277261
endloop
endfacet
facet normal -0.956940 0.000000 0.290287
outer loop
vertex 17.890240 -7.727843 -9.277261
vertex 17.890240 -8.485084 -9.277261
vertex 19.002434 -8.485084 -5.610888
endloop
endfacet
facet normal -0.995184 0.000000 0.098021
outer loop
vertex 19.377987 -8.485084 -1.797996
vertex 19.377987 -7.727843 -1.797996
vertex 19.002434 -7.727843 -5.610888
endloop
endfacet
facet normal -0.995184 0.000000 0.098021
outer loop
vertex 19.002434 -7.727843 -5.610888
vertex 19.002434 -8.485084 -5.610888
vertex 19.377987 -8.485084 -1.797996
endloop
endfacet
facet normal -0.995184 0.000000 -0.098021
outer loop
vertex 19.002434 -8.485084 2.014894
vertex 19.002434 -7.727843 2.014894
vertex 19.377987 -7.727843 -1.797996
endloop
endfacet
facet normal -0.995184 0.000000 -0.098021
outer loop
vertex 19.377987 -7.727843 -1.797996
vertex 19.377987 -8.485084 -1.797996
vertex 19.002434 -8.485084 2.014894
endloop
endfacet
facet normal -0.956939 0.000000 -0.290288
outer loop
vertex 17.890240 -8.485084 5.681269
vertex 17.890240 -7.727843 5.681269
vertex 19.002434 -7.727843 2.014894
endloop
endfacet
facet normal -0.956940 0.000000 -0.290287
outer loop
vertex 19.002434 -7.727843 2.014894
vertex 19.002434 -8.485084 2.014894
vertex 17.890240 -8.485084 5.681269
endloop
endfacet
facet normal -0.881923 0.000000 -0.471394
outer loop
vertex 16.084160 -8.485084 9.060238
vertex 16.084160 -7.727843 9.060238
vertex 17.890240 -7.727843 5.681269
endloop
endfacet
facet normal -0.881923 0.000000 -0.471393
outer loop
vertex 17.890240 -7.727843 5.681269
vertex 17.890240 -8.485084 5.681269
vertex 16.084160 -8.485084 9.060238
endloop
endfacet
facet normal -0.773018 0.000000 -0.634384
outer loop
vertex 13.653637 -8.485084 12.021918
vertex 13.653637 -7.727843 12.021918
vertex 16.084160 -7.727843 9.060238
endloop
endfacet
facet normal -0.773019 0.000000 -0.634383
outer loop
vertex 16.084160 -7.727843 9.060238
vertex 16.084160 -8.485084 9.060238
vertex 13.653637 -8.485084 12.021918
endloop
endfacet
facet normal -0.634383 0.000000 -0.773019
outer loop
vertex 10.691956 -8.485084 14.452443
vertex 10.691956 -7.727843 14.452443
vertex 13.653637 -7.727843 12.021918
endloop
endfacet
facet normal -0.634383 0.000000 -0.773019
outer loop
vertex 13.653637 -7.727843 12.021918
vertex 13.653637 -8.485084 12.021918
vertex 10.691956 -8.485084 14.452443
endloop
endfacet
facet normal -0.471394 0.000000 -0.881923
outer loop
vertex 7.312986 -8.485084 16.258526
vertex 7.312986 -7.727843 16.258526
vertex 10.691956 -7.727843 14.452443
endloop
endfacet
facet normal -0.471394 0.000000 -0.881923
outer loop
vertex 10.691956 -7.727843 14.452443
vertex 10.691956 -8.485084 14.452443
vertex 7.312986 -8.485084 16.258526
endloop
endfacet
facet normal -0.290286 0.000000 -0.956940
outer loop
vertex 3.646608 -8.485084 17.370716
vertex 3.646608 -7.727843 17.370716
vertex 7.312986 -7.727843 16.258526
endloop
endfacet
facet normal -0.290286 0.000000 -0.956940
outer loop
vertex 7.312986 -7.727843 16.258526
vertex 7.312986 -8.485084 16.258526
vertex 3.646608 -8.485084 17.370716
endloop
endfacet
facet normal -0.098021 0.000000 -0.995184
outer loop
vertex -0.166285 -8.485084 17.746271
vertex -0.166285 -7.727843 17.746271
vertex 3.646608 -7.727843 17.370716
endloop
endfacet
facet normal -0.098023 0.000000 -0.995184
outer loop
vertex 3.646608 -7.727843 17.370716
vertex 3.646608 -8.485084 17.370716
vertex -0.166285 -8.485084 17.746271
endloop
endfacet
facet normal 0.098023 0.000000 -0.995184
outer loop
vertex -3.979179 -8.485084 17.370712
vertex -3.979179 -7.727843 17.370712
vertex -0.166285 -7.727843 17.746271
endloop
endfacet
facet normal 0.098023 0.000000 -0.995184
outer loop
vertex -0.166285 -7.727843 17.746271
vertex -0.166285 -8.485084 17.746271
vertex -3.979179 -8.485084 17.370712
endloop
endfacet
facet normal 0.290286 0.000000 -0.956940
outer loop
vertex -7.645555 -8.485084 16.258522
vertex -7.645555 -7.727843 16.258522
vertex -3.979179 -7.727843 17.370712
endloop
endfacet
facet normal 0.290286 0.000000 -0.956940
outer loop
vertex -3.979179 -7.727843 17.370712
vertex -3.979179 -8.485084 17.370712
vertex -7.645555 -8.485084 16.258522
endloop
endfacet
facet normal 0.471394 0.000000 -0.881923
outer loop
vertex -11.024523 -8.485084 14.452435
vertex -11.024523 -7.727843 14.452435
vertex -7.645555 -7.727843 16.258522
endloop
endfacet
facet normal 0.471396 0.000000 -0.881922
outer loop
vertex -7.645555 -7.727843 16.258522
vertex -7.645555 -8.485084 16.258522
vertex -11.024523 -8.485084 14.452435
endloop
endfacet
facet normal 0.634383 0.000000 -0.773019
outer loop
vertex -13.986202 -8.485084 12.021911
vertex -13.986202 -7.727843 12.021911
vertex -11.024523 -7.727843 14.452435
endloop
endfacet
facet normal 0.634384 0.000000 -0.773018
outer loop
vertex -11.024523 -7.727843 14.452435
vertex -11.024523 -8.485084 14.452435
vertex -13.986202 -8.485084 12.021911
endloop
endfacet
facet normal 0.773019 0.000000 -0.634383
outer loop
vertex -16.416725 -8.485084 9.060227
vertex -16.416725 -7.727843 9.060227
vertex -13.986202 -7.727843 12.021911
endloop
endfacet
facet normal 0.773019 0.000000 -0.634382
outer loop
vertex -13.986202 -7.727843 12.021911
vertex -13.986202 -8.485084 12.021911
vertex -16.416725 -8.485084 9.060227
endloop
endfacet
facet normal 0.881923 0.000000 -0.471394
outer loop
vertex -18.222809 -8.485084 5.681256
vertex -18.222809 -7.727843 5.681256
vertex -16.416725 -7.727843 9.060227
endloop
endfacet
facet normal 0.881923 0.000000 -0.471394
outer loop
vertex -16.416725 -7.727843 9.060227
vertex -16.416725 -8.485084 9.060227
vertex -18.222809 -8.485084 5.681256
endloop
endfacet
facet normal 0.956940 0.000000 -0.290285
outer loop
vertex -19.334995 -8.485084 2.014879
vertex -19.334995 -7.727843 2.014879
vertex -18.222809 -7.727843 5.681256
endloop
endfacet
facet normal 0.956940 0.000000 -0.290285
outer loop
vertex -18.222809 -7.727843 5.681256
vertex -18.222809 -8.485084 5.681256
vertex -19.334995 -8.485084 2.014879
endloop
endfacet
facet normal 0.995184 0.000000 -0.098021
outer loop
vertex -19.710548 -8.485084 -1.798015
vertex -19.710548 -7.727843 -1.798015
vertex -19.334995 -7.727843 2.014879
endloop
endfacet
facet normal 0.995184 0.000000 -0.098021
outer loop
vertex -19.334995 -7.727843 2.014879
vertex -19.334995 -8.485084 2.014879
vertex -19.710548 -8.485084 -1.798015
endloop
endfacet
facet normal 0.995184 0.000000 0.098023
outer loop
vertex -19.334990 -8.485084 -5.610909
vertex -19.334990 -7.727843 -5.610909
vertex -19.710548 -7.727843 -1.798015
endloop
endfacet
facet normal 0.995184 0.000000 0.098023
outer loop
vertex -19.710548 -7.727843 -1.798015
vertex -19.710548 -8.485084 -1.798015
vertex -19.334990 -8.485084 -5.610909
endloop
endfacet
facet normal 0.956939 0.000000 0.290288
outer loop
vertex -18.222790 -8.485084 -9.277284
vertex -18.222790 -7.727843 -9.277284
vertex -19.334990 -7.727843 -5.610909
endloop
endfacet
facet normal 0.956939 0.000000 0.290289
outer loop
vertex -19.334990 -7.727843 -5.610909
vertex -19.334990 -8.485084 -5.610909
vertex -18.222790 -8.485084 -9.277284
endloop
endfacet
facet normal 0.881922 0.000000 0.471395
outer loop
vertex -16.416704 -8.485084 -12.656249
vertex -16.416704 -7.727843 -12.656249
vertex -18.222790 -7.727843 -9.277284
endloop
endfacet
facet normal 0.881922 0.000000 0.471395
outer loop
vertex -18.222790 -7.727843 -9.277284
vertex -18.222790 -8.485084 -9.277284
vertex -16.416704 -8.485084 -12.656249
endloop
endfacet
facet normal 0.773012 0.000000 0.634392
outer loop
vertex -13.986176 -8.485084 -15.617866
vertex -13.986176 -7.727843 -15.617866
vertex -16.416704 -7.727843 -12.656249
endloop
endfacet
facet normal 0.773011 0.000000 0.634392
outer loop
vertex -16.416704 -7.727843 -12.656249
vertex -16.416704 -8.485084 -12.656249
vertex -13.986176 -8.485084 -15.617866
endloop
endfacet
facet normal 0.634392 0.000000 0.773011
outer loop
vertex -11.024490 -8.485084 -18.048449
vertex -11.024490 -7.727843 -18.048449
vertex -13.986176 -7.727843 -15.617866
endloop
endfacet
facet normal 0.634392 0.000000 0.773012
outer loop
vertex -13.986176 -7.727843 -15.617866
vertex -13.986176 -8.485084 -15.617866
vertex -11.024490 -8.485084 -18.048449
endloop
endfacet
facet normal 0.471392 0.000000 0.881924
outer loop
vertex -7.645518 -8.485084 -19.854527
vertex -7.645518 -7.727843 -19.854527
vertex -11.024490 -7.727843 -18.048449
endloop
endfacet
facet normal 0.471393 0.000000 0.881923
outer loop
vertex -11.024490 -7.727843 -18.048449
vertex -11.024490 -8.485084 -18.048449
vertex -7.645518 -8.485084 -19.854527
endloop
endfacet
facet normal 0.000000 -1.000000 0.000001
outer loop
vertex 7.312990 -7.727843 -19.854515
vertex -0.166279 -7.727843 -21.342264
vertex 3.646614 -7.727843 -20.966707
endloop
endfacet
facet normal 0.000000 -1.000000 0.000000
outer loop
vertex -7.645518 -7.727843 -19.854527
vertex -3.979138 -7.727843 -20.966713
vertex -0.166279 -7.727843 -21.342264
endloop
endfacet
facet normal 0.000000 -1.000000 -0.000001
outer loop
vertex -13.986176 -7.727843 -15.617866
vertex -11.024490 -7.727843 -18.048449
vertex -7.645518 -7.727843 -19.854527
endloop
endfacet
facet normal 0.000000 -1.000000 0.000000
outer loop
vertex -18.222790 -7.727843 -9.277284
vertex -16.416704 -7.727843 -12.656249
vertex -13.986176 -7.727843 -15.617866
endloop
endfacet
facet normal 0.000000 -1.000000 0.000000
outer loop
vertex -19.710548 -7.727843 -1.798015
vertex -19.334990 -7.727843 -5.610909
vertex -18.222790 -7.727843 -9.277284
endloop
endfacet
facet normal 0.000000 -1.000000 -0.000000
outer loop
vertex -18.222809 -7.727843 5.681256
vertex -19.334995 -7.727843 2.014879
vertex -19.710548 -7.727843 -1.798015
endloop
endfacet
facet normal 0.000000 -1.000000 -0.000001
outer loop
vertex -13.986202 -7.727843 12.021911
vertex -16.416725 -7.727843 9.060227
vertex -18.222809 -7.727843 5.681256
endloop
endfacet
facet normal 0.000000 -1.000000 0.000000
outer loop
vertex -7.645555 -7.727843 16.258522
vertex -11.024523 -7.727843 14.452435
vertex -13.986202 -7.727843 12.021911
endloop
endfacet
facet normal 0.000000 -1.000000 0.000000
outer loop
vertex -0.166285 -7.727843 17.746271
vertex -3.979179 -7.727843 17.370712
vertex -7.645555 -7.727843 16.258522
endloop
endfacet
facet normal 0.000000 -1.000000 0.000000
outer loop
vertex 7.312986 -7.727843 16.258526
vertex 3.646608 -7.727843 17.370716
vertex -0.166285 -7.727843 17.746271
endloop
endfacet
facet normal 0.000000 -1.000000 0.000000
outer loop
vertex 13.653637 -7.727843 12.021918
vertex 10.691956 -7.727843 14.452443
vertex 7.312986 -7.727843 16.258526
endloop
endfacet
facet normal 0.000000 -1.000000 0.000001
outer loop
vertex 17.890240 -7.727843 5.681269
vertex 16.084160 -7.727843 9.060238
vertex 13.653637 -7.727843 12.021918
endloop
endfacet
facet normal 0.000000 -1.000000 0.000000
outer loop
vertex 19.377987 -7.727843 -1.797996
vertex 19.002434 -7.727843 2.014894
vertex 17.890240 -7.727843 5.681269
endloop
endfacet
facet normal 0.000000 -1.000000 -0.000000
outer loop
vertex 17.890240 -7.727843 -9.277261
vertex 19.002434 -7.727843 -5.610888
vertex 19.377987 -7.727843 -1.797996
endloop
endfacet
facet normal 0.000000 -1.000000 -0.000001
outer loop
vertex 13.653637 -7.727843 -15.617908
vertex 16.084160 -7.727843 -12.656228
vertex 17.890240 -7.727843 -9.277261
endloop
endfacet
facet normal 0.000000 -1.000000 0.000000
outer loop
vertex 7.312990 -7.727843 -19.854515
vertex 10.691957 -7.727843 -18.048431
vertex 13.653637 -7.727843 -15.617908
endloop
endfacet
facet normal 0.000000 -1.000000 0.000000
outer loop
vertex 7.312990 -7.727843 -19.854515
vertex -7.645518 -7.727843 -19.854527
vertex -0.166279 -7.727843 -21.342264
endloop
endfacet
facet normal 0.000000 -1.000000 0.000000
outer loop
vertex -18.222790 -7.727843 -9.277284
vertex -13.986176 -7.727843 -15.617866
vertex -7.645518 -7.727843 -19.854527
endloop
endfacet
facet normal 0.000000 -1.000000 0.000000
outer loop
vertex -18.222809 -7.727843 5.681256
vertex -19.710548 -7.727843 -1.798015
vertex -18.222790 -7.727843 -9.277284
endloop
endfacet
facet normal 0.000000 -1.000000 0.000000
outer loop
vertex -7.645555 -7.727843 16.258522
vertex -13.986202 -7.727843 12.021911
vertex -18.222809 -7.727843 5.681256
endloop
endfacet
facet normal 0.000000 -1.000000 0.000000
outer loop
vertex 7.312986 -7.727843 16.258526
vertex -0.166285 -7.727843 17.746271
vertex -7.645555 -7.727843 16.258522
endloop
endfacet
facet normal 0.000000 -1.000000 -0.000000
outer loop
vertex 17.890240 -7.727843 5.681269
vertex 13.653637 -7.727843 12.021918
vertex 7.312986 -7.727843 16.258526
endloop
endfacet
facet normal 0.000000 -1.000000 0.000000
outer loop
vertex 17.890240 -7.727843 -9.277261
vertex 19.377987 -7.727843 -1.797996
vertex 17.890240 -7.727843 5.681269
endloop
endfacet
facet normal 0.000000 -1.000000 0.000000
outer loop
vertex 7.312990 -7.727843 -19.854515
vertex 13.653637 -7.727843 -15.617908
vertex 17.890240 -7.727843 -9.277261
endloop
endfacet
facet normal 0.000000 -1.000000 0.000000
outer loop
vertex 7.312990 -7.727843 -19.854515
vertex -18.222790 -7.727843 -9.277284
vertex -7.645518 -7.727843 -19.854527
endloop
endfacet
facet normal 0.000000 -1.000000 0.000000
outer loop
vertex -7.645555 -7.727843 16.258522
vertex -18.222809 -7.727843 5.681256
vertex -18.222790 -7.727843 -9.277284
endloop
endfacet
facet normal 0.000000 -1.000000 0.000000
outer loop
vertex 17.890240 -7.727843 5.681269
vertex 7.312986 -7.727843 16.258526
vertex -7.645555 -7.727843 16.258522
endloop
endfacet
facet normal 0.000000 -1.000000 0.000000
outer loop
vertex 7.312990 -7.727843 -19.854515
vertex 17.890240 -7.727843 -9.277261
vertex 17.890240 -7.727843 5.681269
endloop
endfacet
facet normal 0.000000 -1.000000 0.000000
outer loop
vertex 7.312990 -7.727843 -19.854515
vertex -7.645555 -7.727843 16.258522
vertex -18.222790 -7.727843 -9.277284
endloop
endfacet
facet normal 0.000000 -1.000000 -0.000000
outer loop
vertex 7.312990 -7.727843 -19.854515
vertex 17.890240 -7.727843 5.681269
vertex -7.645555 -7.727843 16.258522
endloop
endfacet
facet normal 0.098023 0.000000 0.995184
outer loop
vertex -0.166279 -8.485084 -21.342264
vertex -0.166279 -7.727843 -21.342264
vertex -3.979138 -7.727843 -20.966713
endloop
endfacet
facet normal 0.098021 0.000000 0.995184
outer loop
vertex -3.979138 -7.727843 -20.966713
vertex -3.979138 -8.485084 -20.966713
vertex -0.166279 -8.485084 -21.342264
endloop
endfacet
facet normal 0.290285 0.000000 0.956940
outer loop
vertex -3.979138 -8.485084 -20.966713
vertex -3.979138 -7.727843 -20.966713
vertex -7.645518 -7.727843 -19.854527
endloop
endfacet
facet normal 0.290285 0.000000 0.956940
outer loop
vertex -7.645518 -7.727843 -19.854527
vertex -7.645518 -8.485084 -19.854527
vertex -3.979138 -8.485084 -20.966713
endloop
endfacet
facet normal 0.000000 1.000000 -0.000003
outer loop
vertex -3.979138 -8.485084 -20.966713
vertex 3.646614 -8.485084 -20.966707
vertex -0.166279 -8.485084 -21.342264
endloop
endfacet
facet normal 0.000000 1.000000 -0.000001
outer loop
vertex 10.691957 -8.485084 -18.048431
vertex 7.312990 -8.485084 -19.854515
vertex 3.646614 -8.485084 -20.966707
endloop
endfacet
facet normal 0.000000 1.000000 0.000000
outer loop
vertex 16.084160 -8.485084 -12.656228
vertex 13.653637 -8.485084 -15.617908
vertex 10.691957 -8.485084 -18.048431
endloop
endfacet
facet normal 0.000000 1.000000 0.000001
outer loop
vertex 19.002434 -8.485084 -5.610888
vertex 17.890240 -8.485084 -9.277261
vertex 16.084160 -8.485084 -12.656228
endloop
endfacet
facet normal 0.000000 1.000000 0.000000
outer loop
vertex 19.002434 -8.485084 2.014894
vertex 19.377987 -8.485084 -1.797996
vertex 19.002434 -8.485084 -5.610888
endloop
endfacet
facet normal 0.000000 1.000000 -0.000001
outer loop
vertex 16.084160 -8.485084 9.060238
vertex 17.890240 -8.485084 5.681269
vertex 19.002434 -8.485084 2.014894
endloop
endfacet
facet normal 0.000000 1.000000 0.000000
outer loop
vertex 10.691956 -8.485084 14.452443
vertex 13.653637 -8.485084 12.021918
vertex 16.084160 -8.485084 9.060238
endloop
endfacet
facet normal 0.000000 1.000000 -0.000001
outer loop
vertex 3.646608 -8.485084 17.370716
vertex 7.312986 -8.485084 16.258526
vertex 10.691956 -8.485084 14.452443
endloop
endfacet
facet normal 0.000000 1.000000 -0.000003
outer loop
vertex -3.979179 -8.485084 17.370712
vertex -0.166285 -8.485084 17.746271
vertex 3.646608 -8.485084 17.370716
endloop
endfacet
facet normal 0.000000 1.000000 0.000001
outer loop
vertex -11.024523 -8.485084 14.452435
vertex -7.645555 -8.485084 16.258522
vertex -3.979179 -8.485084 17.370712
endloop
endfacet
facet normal 0.000000 1.000000 0.000000
outer loop
vertex -16.416725 -8.485084 9.060227
vertex -13.986202 -8.485084 12.021911
vertex -11.024523 -8.485084 14.452435
endloop
endfacet
facet normal 0.000000 1.000000 -0.000001
outer loop
vertex -19.334995 -8.485084 2.014879
vertex -18.222809 -8.485084 5.681256
vertex -16.416725 -8.485084 9.060227
endloop
endfacet
facet normal 0.000000 1.000000 0.000000
outer loop
vertex -19.334990 -8.485084 -5.610909
vertex -19.710548 -8.485084 -1.798015
vertex -19.334995 -8.485084 2.014879
endloop
endfacet
facet normal 0.000000 1.000000 0.000001
outer loop
vertex -16.416704 -8.485084 -12.656249
vertex -18.222790 -8.485084 -9.277284
vertex -19.334990 -8.485084 -5.610909
endloop
endfacet
facet normal 0.000000 1.000000 -0.000001
outer loop
vertex -11.024490 -8.485084 -18.048449
vertex -13.986176 -8.485084 -15.617866
vertex -16.416704 -8.485084 -12.656249
endloop
endfacet
facet normal 0.000000 1.000000 0.000000
outer loop
vertex -3.979138 -8.485084 -20.966713
vertex -7.645518 -8.485084 -19.854527
vertex -11.024490 -8.485084 -18.048449
endloop
endfacet
facet normal 0.000000 1.000000 0.000000
outer loop
vertex -3.979138 -8.485084 -20.966713
vertex 10.691957 -8.485084 -18.048431
vertex 3.646614 -8.485084 -20.966707
endloop
endfacet
facet normal 0.000000 1.000000 -0.000000
outer loop
vertex 19.002434 -8.485084 -5.610888
vertex 16.084160 -8.485084 -12.656228
vertex 10.691957 -8.485084 -18.048431
endloop
endfacet
facet normal 0.000000 1.000000 0.000000
outer loop
vertex 16.084160 -8.485084 9.060238
vertex 19.002434 -8.485084 2.014894
vertex 19.002434 -8.485084 -5.610888
endloop
endfacet
facet normal 0.000000 1.000000 0.000000
outer loop
vertex 3.646608 -8.485084 17.370716
vertex 10.691956 -8.485084 14.452443
vertex 16.084160 -8.485084 9.060238
endloop
endfacet
facet normal 0.000000 1.000000 0.000000
outer loop
vertex -11.024523 -8.485084 14.452435
vertex -3.979179 -8.485084 17.370712
vertex 3.646608 -8.485084 17.370716
endloop
endfacet
facet normal 0.000000 1.000000 0.000000
outer loop
vertex -19.334995 -8.485084 2.014879
vertex -16.416725 -8.485084 9.060227
vertex -11.024523 -8.485084 14.452435
endloop
endfacet
facet normal 0.000000 1.000000 -0.000000
outer loop
vertex -16.416704 -8.485084 -12.656249
vertex -19.334990 -8.485084 -5.610909
vertex -19.334995 -8.485084 2.014879
endloop
endfacet
facet normal 0.000000 1.000000 0.000000
outer loop
vertex -3.979138 -8.485084 -20.966713
vertex -11.024490 -8.485084 -18.048449
vertex -16.416704 -8.485084 -12.656249
endloop
endfacet
facet normal 0.000000 1.000000 -0.000000
outer loop
vertex -3.979138 -8.485084 -20.966713
vertex 19.002434 -8.485084 -5.610888
vertex 10.691957 -8.485084 -18.048431
endloop
endfacet
facet normal 0.000000 1.000000 0.000000
outer loop
vertex 3.646608 -8.485084 17.370716
vertex 16.084160 -8.485084 9.060238
vertex 19.002434 -8.485084 -5.610888
endloop
endfacet
facet normal 0.000000 1.000000 0.000000
outer loop
vertex -19.334995 -8.485084 2.014879
vertex -11.024523 -8.485084 14.452435
vertex 3.646608 -8.485084 17.370716
endloop
endfacet
facet normal 0.000000 1.000000 0.000000
outer loop
vertex -3.979138 -8.485084 -20.966713
vertex -16.416704 -8.485084 -12.656249
vertex -19.334995 -8.485084 2.014879
endloop
endfacet
facet normal 0.000000 1.000000 0.000000
outer loop
vertex -3.979138 -8.485084 -20.966713
vertex 3.646608 -8.485084 17.370716
vertex 19.002434 -8.485084 -5.610888
endloop
endfacet
facet normal 0.000000 1.000000 0.000000
outer loop
vertex -3.979138 -8.485084 -20.966713
vertex -19.334995 -8.485084 2.014879
vertex 3.646608 -8.485084 17.370716
endloop
endfacet
endsolid Exported from Blender-2.74 (sub 0)
