solid Exported from Blender-2.74 (sub 0)
facet normal 0.098017 0.000000 -0.995185
outer loop
vertex -0.166279 -11.961829 -22.797995
vertex -0.166279 -9.961829 -22.797995
vertex 3.930618 -9.961829 -22.394487
endloop
endfacet
facet normal 0.098017 0.000000 -0.995185
outer loop
vertex 3.930618 -9.961829 -22.394487
vertex 3.930618 -11.961829 -22.394487
vertex -0.166279 -11.961829 -22.797995
endloop
endfacet
facet normal 0.290285 0.000000 -0.956940
outer loop
vertex 3.930618 -11.961829 -22.394487
vertex 3.930618 -9.961829 -22.394487
vertex 7.870075 -9.961829 -21.199465
endloop
endfacet
facet normal 0.290285 0.000000 -0.956940
outer loop
vertex 7.870075 -9.961829 -21.199465
vertex 7.870075 -11.961829 -21.199465
vertex 3.930618 -11.961829 -22.394487
endloop
endfacet
facet normal 0.471397 0.000000 -0.881921
outer loop
vertex 7.870075 -11.961829 -21.199465
vertex 7.870075 -9.961829 -21.199465
vertex 11.500698 -9.961829 -19.258856
endloop
endfacet
facet normal 0.471396 0.000000 -0.881921
outer loop
vertex 11.500698 -9.961829 -19.258856
vertex 11.500698 -11.961829 -19.258856
vertex 7.870075 -11.961829 -21.199465
endloop
endfacet
facet normal 0.634394 0.000000 -0.773010
outer loop
vertex 11.500698 -11.961829 -19.258856
vertex 11.500698 -9.961829 -19.258856
vertex 14.682964 -9.961829 -16.647236
endloop
endfacet
facet normal 0.634393 0.000000 -0.773010
outer loop
vertex 14.682964 -9.961829 -16.647236
vertex 14.682964 -11.961829 -16.647236
vertex 11.500698 -11.961829 -19.258856
endloop
endfacet
facet normal 0.773011 0.000000 -0.634393
outer loop
vertex 14.682964 -11.961829 -16.647236
vertex 14.682964 -9.961829 -16.647236
vertex 17.294584 -9.961829 -13.464967
endloop
endfacet
facet normal 0.773010 0.000000 -0.634393
outer loop
vertex 17.294584 -9.961829 -13.464967
vertex 17.294584 -11.961829 -13.464967
vertex 14.682964 -11.961829 -16.647236
endloop
endfacet
facet normal 0.881921 0.000000 -0.471397
outer loop
vertex 17.294584 -11.961829 -13.464967
vertex 17.294584 -9.961829 -13.464967
vertex 19.235191 -9.961829 -9.834346
endloop
endfacet
facet normal 0.881921 0.000000 -0.471397
outer loop
vertex 19.235191 -9.961829 -9.834346
vertex 19.235191 -11.961829 -9.834346
vertex 17.294584 -11.961829 -13.464967
endloop
endfacet
facet normal 0.956940 0.000000 -0.290285
outer loop
vertex 19.235191 -11.961829 -9.834346
vertex 19.235191 -9.961829 -9.834346
vertex 20.430212 -9.961829 -5.894892
endloop
endfacet
facet normal 0.956940 0.000000 -0.290285
outer loop
vertex 20.430212 -9.961829 -5.894892
vertex 20.430212 -11.961829 -5.894892
vertex 19.235191 -11.961829 -9.834346
endloop
endfacet
facet normal 0.995185 0.000000 -0.098017
outer loop
vertex 20.430212 -11.961829 -5.894892
vertex 20.430212 -9.961829 -5.894892
vertex 20.833721 -9.961829 -1.797996
endloop
endfacet
facet normal 0.995185 0.000000 -0.098017
outer loop
vertex 20.833721 -9.961829 -1.797996
vertex 20.833721 -11.961829 -1.797996
vertex 20.430212 -11.961829 -5.894892
endloop
endfacet
facet normal 0.995185 0.000000 0.098017
outer loop
vertex 20.833721 -11.961829 -1.797996
vertex 20.833721 -9.961829 -1.797996
vertex 20.430214 -9.961829 2.298899
endloop
endfacet
facet normal 0.995185 0.000000 0.098017
outer loop
vertex 20.430214 -9.961829 2.298899
vertex 20.430214 -11.961829 2.298899
vertex 20.833721 -11.961829 -1.797996
endloop
endfacet
facet normal 0.956940 0.000000 0.290285
outer loop
vertex 20.430214 -11.961829 2.298899
vertex 20.430214 -9.961829 2.298899
vertex 19.235191 -9.961829 6.238355
endloop
endfacet
facet normal 0.956940 0.000000 0.290285
outer loop
vertex 19.235191 -9.961829 6.238355
vertex 19.235191 -11.961829 6.238355
vertex 20.430214 -11.961829 2.298899
endloop
endfacet
facet normal 0.881921 0.000000 0.471396
outer loop
vertex 19.235191 -11.961829 6.238355
vertex 19.235191 -9.961829 6.238355
vertex 17.294584 -9.961829 9.868979
endloop
endfacet
facet normal 0.881921 0.000000 0.471396
outer loop
vertex 17.294584 -9.961829 9.868979
vertex 17.294584 -11.961829 9.868979
vertex 19.235191 -11.961829 6.238355
endloop
endfacet
facet normal 0.773010 0.000000 0.634393
outer loop
vertex 17.294584 -11.961829 9.868979
vertex 17.294584 -9.961829 9.868979
vertex 14.682964 -9.961829 13.051248
endloop
endfacet
facet normal 0.773010 0.000000 0.634393
outer loop
vertex 14.682964 -9.961829 13.051248
vertex 14.682964 -11.961829 13.051248
vertex 17.294584 -11.961829 9.868979
endloop
endfacet
facet normal 0.634393 0.000000 0.773011
outer loop
vertex 14.682964 -11.961829 13.051248
vertex 14.682964 -9.961829 13.051248
vertex 11.500696 -9.961829 15.662866
endloop
endfacet
facet normal 0.634393 0.000000 0.773010
outer loop
vertex 11.500696 -9.961829 15.662866
vertex 11.500696 -11.961829 15.662866
vertex 14.682964 -11.961829 13.051248
endloop
endfacet
facet normal 0.471397 0.000000 0.881921
outer loop
vertex 11.500696 -11.961829 15.662866
vertex 11.500696 -9.961829 15.662866
vertex 7.870071 -9.961829 17.603476
endloop
endfacet
facet normal 0.471396 0.000000 0.881921
outer loop
vertex 7.870071 -9.961829 17.603476
vertex 7.870071 -11.961829 17.603476
vertex 11.500696 -11.961829 15.662866
endloop
endfacet
facet normal 0.290284 0.000000 0.956940
outer loop
vertex 7.870071 -11.961829 17.603476
vertex 7.870071 -9.961829 17.603476
vertex 3.930614 -9.961829 18.798494
endloop
endfacet
facet normal 0.290284 0.000000 0.956940
outer loop
vertex 3.930614 -9.961829 18.798494
vertex 3.930614 -11.961829 18.798494
vertex 7.870071 -11.961829 17.603476
endloop
endfacet
facet normal 0.098018 0.000000 0.995185
outer loop
vertex 3.930614 -11.961829 18.798494
vertex 3.930614 -9.961829 18.798494
vertex -0.166285 -9.961829 19.202005
endloop
endfacet
facet normal 0.098018 0.000000 0.995185
outer loop
vertex -0.166285 -9.961829 19.202005
vertex -0.166285 -11.961829 19.202005
vertex 3.930614 -11.961829 18.798494
endloop
endfacet
facet normal -0.098018 0.000000 0.995185
outer loop
vertex -0.166285 -11.961829 19.202005
vertex -0.166285 -9.961829 19.202005
vertex -4.263184 -9.961829 18.798492
endloop
endfacet
facet normal -0.098018 0.000000 0.995185
outer loop
vertex -4.263184 -9.961829 18.798492
vertex -4.263184 -11.961829 18.798492
vertex -0.166285 -11.961829 19.202005
endloop
endfacet
facet normal -0.290285 0.000000 0.956940
outer loop
vertex -4.263184 -11.961829 18.798492
vertex -4.263184 -9.961829 18.798492
vertex -8.202641 -9.961829 17.603470
endloop
endfacet
facet normal -0.290285 0.000000 0.956940
outer loop
vertex -8.202641 -9.961829 17.603470
vertex -8.202641 -11.961829 17.603470
vertex -4.263184 -11.961829 18.798492
endloop
endfacet
facet normal -0.471397 0.000000 0.881921
outer loop
vertex -8.202641 -11.961829 17.603470
vertex -8.202641 -9.961829 17.603470
vertex -11.833263 -9.961829 15.662860
endloop
endfacet
facet normal -0.471397 0.000000 0.881921
outer loop
vertex -11.833263 -9.961829 15.662860
vertex -11.833263 -11.961829 15.662860
vertex -8.202641 -11.961829 17.603470
endloop
endfacet
facet normal -0.634394 0.000000 0.773010
outer loop
vertex -11.833263 -11.961829 15.662860
vertex -11.833263 -9.961829 15.662860
vertex -15.015532 -9.961829 13.051238
endloop
endfacet
facet normal -0.634394 0.000000 0.773010
outer loop
vertex -15.015532 -9.961829 13.051238
vertex -15.015532 -11.961829 13.051238
vertex -11.833263 -11.961829 15.662860
endloop
endfacet
facet normal -0.773010 0.000000 0.634393
outer loop
vertex -15.015532 -11.961829 13.051238
vertex -15.015532 -9.961829 13.051238
vertex -17.627153 -9.961829 9.868968
endloop
endfacet
facet normal -0.773010 0.000000 0.634393
outer loop
vertex -17.627153 -9.961829 9.868968
vertex -17.627153 -11.961829 9.868968
vertex -15.015532 -11.961829 13.051238
endloop
endfacet
facet normal -0.881922 0.000000 0.471396
outer loop
vertex -17.627153 -11.961829 9.868968
vertex -17.627153 -9.961829 9.868968
vertex -19.567759 -9.961829 6.238341
endloop
endfacet
facet normal -0.881922 0.000000 0.471396
outer loop
vertex -19.567759 -9.961829 6.238341
vertex -19.567759 -11.961829 6.238341
vertex -17.627153 -11.961829 9.868968
endloop
endfacet
facet normal -0.956941 0.000000 0.290284
outer loop
vertex -19.567759 -11.961829 6.238341
vertex -19.567759 -9.961829 6.238341
vertex -20.762775 -9.961829 2.298884
endloop
endfacet
facet normal -0.956941 0.000000 0.290284
outer loop
vertex -20.762775 -9.961829 2.298884
vertex -20.762775 -11.961829 2.298884
vertex -19.567759 -11.961829 6.238341
endloop
endfacet
facet normal -0.995185 0.000000 0.098016
outer loop
vertex -20.762775 -11.961829 2.298884
vertex -20.762775 -9.961829 2.298884
vertex -21.166279 -9.961829 -1.798015
endloop
endfacet
facet normal -0.995185 0.000000 0.098016
outer loop
vertex -21.166279 -9.961829 -1.798015
vertex -21.166279 -11.961829 -1.798015
vertex -20.762775 -11.961829 2.298884
endloop
endfacet
facet normal -0.995185 0.000000 -0.098018
outer loop
vertex -21.166279 -11.961829 -1.798015
vertex -21.166279 -9.961829 -1.798015
vertex -20.762766 -9.961829 -5.894913
endloop
endfacet
facet normal -0.995185 0.000000 -0.098018
outer loop
vertex -20.762766 -9.961829 -5.894913
vertex -20.762766 -11.961829 -5.894913
vertex -21.166279 -11.961829 -1.798015
endloop
endfacet
facet normal -0.956940 0.000000 -0.290286
outer loop
vertex -20.762766 -11.961829 -5.894913
vertex -20.762766 -9.961829 -5.894913
vertex -19.567741 -9.961829 -9.834368
endloop
endfacet
facet normal -0.956940 0.000000 -0.290286
outer loop
vertex -19.567741 -9.961829 -9.834368
vertex -19.567741 -11.961829 -9.834368
vertex -20.762766 -11.961829 -5.894913
endloop
endfacet
facet normal -0.881921 0.000000 -0.471398
outer loop
vertex -19.567741 -11.961829 -9.834368
vertex -19.567741 -9.961829 -9.834368
vertex -17.627129 -9.961829 -13.464990
endloop
endfacet
facet normal -0.881921 0.000000 -0.471398
outer loop
vertex -17.627129 -9.961829 -13.464990
vertex -17.627129 -11.961829 -13.464990
vertex -19.567741 -11.961829 -9.834368
endloop
endfacet
facet normal -0.773009 0.000000 -0.634395
outer loop
vertex -17.627129 -11.961829 -13.464990
vertex -17.627129 -9.961829 -13.464990
vertex -15.015503 -9.961829 -16.647255
endloop
endfacet
facet normal -0.773010 0.000000 -0.634394
outer loop
vertex -15.015503 -9.961829 -16.647255
vertex -15.015503 -11.961829 -16.647255
vertex -17.627129 -11.961829 -13.464990
endloop
endfacet
facet normal -0.634393 0.000000 -0.773011
outer loop
vertex -15.015503 -11.961829 -16.647255
vertex -15.015503 -9.961829 -16.647255
vertex -11.833231 -9.961829 -19.258875
endloop
endfacet
facet normal -0.634393 0.000000 -0.773010
outer loop
vertex -11.833231 -9.961829 -19.258875
vertex -11.833231 -11.961829 -19.258875
vertex -15.015503 -11.961829 -16.647255
endloop
endfacet
facet normal -0.471395 0.000000 -0.881922
outer loop
vertex -11.833231 -11.961829 -19.258875
vertex -11.833231 -9.961829 -19.258875
vertex -8.202602 -9.961829 -21.199476
endloop
endfacet
facet normal -0.471395 0.000000 -0.881922
outer loop
vertex -8.202602 -9.961829 -21.199476
vertex -8.202602 -11.961829 -21.199476
vertex -11.833231 -11.961829 -19.258875
endloop
endfacet
facet normal 0.000000 1.000000 0.000000
outer loop
vertex 3.930618 -9.961829 -22.394487
vertex 11.500698 -9.961829 -19.258856
vertex 7.870075 -9.961829 -21.199465
endloop
endfacet
facet normal 0.000000 1.000000 0.000000
outer loop
vertex 17.294584 -9.961829 -13.464967
vertex 14.682964 -9.961829 -16.647236
vertex 11.500698 -9.961829 -19.258856
endloop
endfacet
facet normal 0.000000 1.000000 0.000000
outer loop
vertex 20.430212 -9.961829 -5.894892
vertex 19.235191 -9.961829 -9.834346
vertex 17.294584 -9.961829 -13.464967
endloop
endfacet
facet normal 0.000000 1.000000 0.000000
outer loop
vertex 20.430214 -9.961829 2.298899
vertex 20.833721 -9.961829 -1.797996
vertex 20.430212 -9.961829 -5.894892
endloop
endfacet
facet normal 0.000000 1.000000 0.000001
outer loop
vertex 17.294584 -9.961829 9.868979
vertex 19.235191 -9.961829 6.238355
vertex 20.430214 -9.961829 2.298899
endloop
endfacet
facet normal 0.000000 1.000000 0.000000
outer loop
vertex 11.500696 -9.961829 15.662866
vertex 14.682964 -9.961829 13.051248
vertex 17.294584 -9.961829 9.868979
endloop
endfacet
facet normal 0.000000 1.000000 -0.000002
outer loop
vertex 3.930614 -9.961829 18.798494
vertex 7.870071 -9.961829 17.603476
vertex 11.500696 -9.961829 15.662866
endloop
endfacet
facet normal 0.000000 1.000000 -0.000002
outer loop
vertex -4.263184 -9.961829 18.798492
vertex -0.166285 -9.961829 19.202005
vertex 3.930614 -9.961829 18.798494
endloop
endfacet
facet normal 0.000000 1.000000 0.000002
outer loop
vertex -11.833263 -9.961829 15.662860
vertex -8.202641 -9.961829 17.603470
vertex -4.263184 -9.961829 18.798492
endloop
endfacet
facet normal 0.000000 1.000000 0.000000
outer loop
vertex -17.627153 -9.961829 9.868968
vertex -15.015532 -9.961829 13.051238
vertex -11.833263 -9.961829 15.662860
endloop
endfacet
facet normal 0.000000 1.000000 0.000000
outer loop
vertex -20.762775 -9.961829 2.298884
vertex -19.567759 -9.961829 6.238341
vertex -17.627153 -9.961829 9.868968
endloop
endfacet
facet normal 0.000000 1.000000 0.000000
outer loop
vertex -20.762766 -9.961829 -5.894913
vertex -21.166279 -9.961829 -1.798015
vertex -20.762775 -9.961829 2.298884
endloop
endfacet
facet normal 0.000000 1.000000 0.000001
outer loop
vertex -17.627129 -9.961829 -13.464990
vertex -19.567741 -9.961829 -9.834368
vertex -20.762766 -9.961829 -5.894913
endloop
endfacet
facet normal 0.000000 1.000000 0.000000
outer loop
vertex -11.833231 -9.961829 -19.258875
vertex -15.015503 -9.961829 -16.647255
vertex -17.627129 -9.961829 -13.464990
endloop
endfacet
facet normal 0.000000 1.000000 -0.000002
outer loop
vertex -4.263144 -9.961829 -22.394491
vertex -8.202602 -9.961829 -21.199476
vertex -11.833231 -9.961829 -19.258875
endloop
endfacet
facet normal 0.000000 1.000000 -0.000005
outer loop
vertex 3.930618 -9.961829 -22.394487
vertex -0.166279 -9.961829 -22.797995
vertex -4.263144 -9.961829 -22.394491
endloop
endfacet
facet normal 0.000000 1.000000 0.000000
outer loop
vertex 3.930618 -9.961829 -22.394487
vertex 17.294584 -9.961829 -13.464967
vertex 11.500698 -9.961829 -19.258856
endloop
endfacet
facet normal 0.000000 1.000000 0.000000
outer loop
vertex 20.430214 -9.961829 2.298899
vertex 20.430212 -9.961829 -5.894892
vertex 17.294584 -9.961829 -13.464967
endloop
endfacet
facet normal 0.000000 1.000000 0.000000
outer loop
vertex 11.500696 -9.961829 15.662866
vertex 17.294584 -9.961829 9.868979
vertex 20.430214 -9.961829 2.298899
endloop
endfacet
facet normal 0.000000 1.000000 0.000001
outer loop
vertex -4.263184 -9.961829 18.798492
vertex 3.930614 -9.961829 18.798494
vertex 11.500696 -9.961829 15.662866
endloop
endfacet
facet normal 0.000000 1.000000 0.000000
outer loop
vertex -17.627153 -9.961829 9.868968
vertex -11.833263 -9.961829 15.662860
vertex -4.263184 -9.961829 18.798492
endloop
endfacet
facet normal 0.000000 1.000000 -0.000000
outer loop
vertex -20.762766 -9.961829 -5.894913
vertex -20.762775 -9.961829 2.298884
vertex -17.627153 -9.961829 9.868968
endloop
endfacet
facet normal 0.000000 1.000000 -0.000000
outer loop
vertex -11.833231 -9.961829 -19.258875
vertex -17.627129 -9.961829 -13.464990
vertex -20.762766 -9.961829 -5.894913
endloop
endfacet
facet normal 0.000000 1.000000 0.000001
outer loop
vertex 3.930618 -9.961829 -22.394487
vertex -4.263144 -9.961829 -22.394491
vertex -11.833231 -9.961829 -19.258875
endloop
endfacet
facet normal 0.000000 1.000000 -0.000000
outer loop
vertex 3.930618 -9.961829 -22.394487
vertex 20.430214 -9.961829 2.298899
vertex 17.294584 -9.961829 -13.464967
endloop
endfacet
facet normal 0.000000 1.000000 0.000000
outer loop
vertex -4.263184 -9.961829 18.798492
vertex 11.500696 -9.961829 15.662866
vertex 20.430214 -9.961829 2.298899
endloop
endfacet
facet normal 0.000000 1.000000 -0.000000
outer loop
vertex -20.762766 -9.961829 -5.894913
vertex -17.627153 -9.961829 9.868968
vertex -4.263184 -9.961829 18.798492
endloop
endfacet
facet normal 0.000000 1.000000 0.000000
outer loop
vertex 3.930618 -9.961829 -22.394487
vertex -11.833231 -9.961829 -19.258875
vertex -20.762766 -9.961829 -5.894913
endloop
endfacet
facet normal 0.000000 1.000000 0.000000
outer loop
vertex 3.930618 -9.961829 -22.394487
vertex -4.263184 -9.961829 18.798492
vertex 20.430214 -9.961829 2.298899
endloop
endfacet
facet normal 0.000000 1.000000 0.000000
outer loop
vertex 3.930618 -9.961829 -22.394487
vertex -20.762766 -9.961829 -5.894913
vertex -4.263184 -9.961829 18.798492
endloop
endfacet
facet normal -0.098016 0.000000 -0.995185
outer loop
vertex -0.166279 -9.961829 -22.797995
vertex -0.166279 -11.961829 -22.797995
vertex -4.263144 -11.961829 -22.394491
endloop
endfacet
facet normal -0.098016 0.000000 -0.995185
outer loop
vertex -4.263144 -11.961829 -22.394491
vertex -4.263144 -9.961829 -22.394491
vertex -0.166279 -9.961829 -22.797995
endloop
endfacet
facet normal -0.290283 0.000000 -0.956941
outer loop
vertex -8.202602 -11.961829 -21.199476
vertex -8.202602 -9.961829 -21.199476
vertex -4.263144 -9.961829 -22.394491
endloop
endfacet
facet normal -0.290283 0.000000 -0.956941
outer loop
vertex -4.263144 -9.961829 -22.394491
vertex -4.263144 -11.961829 -22.394491
vertex -8.202602 -11.961829 -21.199476
endloop
endfacet
facet normal 0.000000 -1.000000 0.000005
outer loop
vertex -0.166279 -11.961829 -22.797995
vertex -8.202602 -11.961829 -21.199476
vertex -4.263144 -11.961829 -22.394491
endloop
endfacet
facet normal 0.000000 -1.000000 0.000000
outer loop
vertex -15.015503 -11.961829 -16.647255
vertex -11.833231 -11.961829 -19.258875
vertex -8.202602 -11.961829 -21.199476
endloop
endfacet
facet normal 0.000000 -1.000000 0.000000
outer loop
vertex -19.567741 -11.961829 -9.834368
vertex -17.627129 -11.961829 -13.464990
vertex -15.015503 -11.961829 -16.647255
endloop
endfacet
facet normal 0.000000 -1.000000 0.000001
outer loop
vertex -21.166279 -11.961829 -1.798015
vertex -20.762766 -11.961829 -5.894913
vertex -19.567741 -11.961829 -9.834368
endloop
endfacet
facet normal 0.000000 -1.000000 0.000001
outer loop
vertex -19.567759 -11.961829 6.238341
vertex -20.762775 -11.961829 2.298884
vertex -21.166279 -11.961829 -1.798015
endloop
endfacet
facet normal 0.000000 -1.000000 -0.000001
outer loop
vertex -15.015532 -11.961829 13.051238
vertex -17.627153 -11.961829 9.868968
vertex -19.567759 -11.961829 6.238341
endloop
endfacet
facet normal 0.000000 -1.000000 0.000000
outer loop
vertex -8.202641 -11.961829 17.603470
vertex -11.833263 -11.961829 15.662860
vertex -15.015532 -11.961829 13.051238
endloop
endfacet
facet normal 0.000000 -1.000000 0.000002
outer loop
vertex -0.166285 -11.961829 19.202005
vertex -4.263184 -11.961829 18.798492
vertex -8.202641 -11.961829 17.603470
endloop
endfacet
facet normal 0.000000 -1.000000 -0.000002
outer loop
vertex 7.870071 -11.961829 17.603476
vertex 3.930614 -11.961829 18.798494
vertex -0.166285 -11.961829 19.202005
endloop
endfacet
facet normal 0.000000 -1.000000 0.000000
outer loop
vertex 14.682964 -11.961829 13.051248
vertex 11.500696 -11.961829 15.662866
vertex 7.870071 -11.961829 17.603476
endloop
endfacet
facet normal 0.000000 -1.000000 -0.000001
outer loop
vertex 19.235191 -11.961829 6.238355
vertex 17.294584 -11.961829 9.868979
vertex 14.682964 -11.961829 13.051248
endloop
endfacet
facet normal 0.000000 -1.000000 -0.000001
outer loop
vertex 20.833721 -11.961829 -1.797996
vertex 20.430214 -11.961829 2.298899
vertex 19.235191 -11.961829 6.238355
endloop
endfacet
facet normal 0.000000 -1.000000 0.000000
outer loop
vertex 19.235191 -11.961829 -9.834346
vertex 20.430212 -11.961829 -5.894892
vertex 20.833721 -11.961829 -1.797996
endloop
endfacet
facet normal 0.000000 -1.000000 0.000001
outer loop
vertex 14.682964 -11.961829 -16.647236
vertex 17.294584 -11.961829 -13.464967
vertex 19.235191 -11.961829 -9.834346
endloop
endfacet
facet normal 0.000000 -1.000000 0.000000
outer loop
vertex 7.870075 -11.961829 -21.199465
vertex 11.500698 -11.961829 -19.258856
vertex 14.682964 -11.961829 -16.647236
endloop
endfacet
facet normal 0.000000 -1.000000 0.000000
outer loop
vertex -0.166279 -11.961829 -22.797995
vertex 3.930618 -11.961829 -22.394487
vertex 7.870075 -11.961829 -21.199465
endloop
endfacet
facet normal 0.000000 -1.000000 -0.000001
outer loop
vertex -0.166279 -11.961829 -22.797995
vertex -15.015503 -11.961829 -16.647255
vertex -8.202602 -11.961829 -21.199476
endloop
endfacet
facet normal 0.000000 -1.000000 -0.000000
outer loop
vertex -21.166279 -11.961829 -1.798015
vertex -19.567741 -11.961829 -9.834368
vertex -15.015503 -11.961829 -16.647255
endloop
endfacet
facet normal 0.000000 -1.000000 0.000000
outer loop
vertex -15.015532 -11.961829 13.051238
vertex -19.567759 -11.961829 6.238341
vertex -21.166279 -11.961829 -1.798015
endloop
endfacet
facet normal 0.000000 -1.000000 0.000000
outer loop
vertex -0.166285 -11.961829 19.202005
vertex -8.202641 -11.961829 17.603470
vertex -15.015532 -11.961829 13.051238
endloop
endfacet
facet normal 0.000000 -1.000000 0.000001
outer loop
vertex 14.682964 -11.961829 13.051248
vertex 7.870071 -11.961829 17.603476
vertex -0.166285 -11.961829 19.202005
endloop
endfacet
facet normal 0.000000 -1.000000 0.000000
outer loop
vertex 20.833721 -11.961829 -1.797996
vertex 19.235191 -11.961829 6.238355
vertex 14.682964 -11.961829 13.051248
endloop
endfacet
facet normal 0.000000 -1.000000 -0.000000
outer loop
vertex 14.682964 -11.961829 -16.647236
vertex 19.235191 -11.961829 -9.834346
vertex 20.833721 -11.961829 -1.797996
endloop
endfacet
facet normal 0.000000 -1.000000 -0.000001
outer loop
vertex -0.166279 -11.961829 -22.797995
vertex 7.870075 -11.961829 -21.199465
vertex 14.682964 -11.961829 -16.647236
endloop
endfacet
facet normal 0.000000 -1.000000 0.000000
outer loop
vertex -0.166279 -11.961829 -22.797995
vertex -21.166279 -11.961829 -1.798015
vertex -15.015503 -11.961829 -16.647255
endloop
endfacet
facet normal 0.000000 -1.000000 0.000000
outer loop
vertex -0.166285 -11.961829 19.202005
vertex -15.015532 -11.961829 13.051238
vertex -21.166279 -11.961829 -1.798015
endloop
endfacet
facet normal 0.000000 -1.000000 -0.000000
outer loop
vertex 20.833721 -11.961829 -1.797996
vertex 14.682964 -11.961829 13.051248
vertex -0.166285 -11.961829 19.202005
endloop
endfacet
facet normal 0.000000 -1.000000 0.000000
outer loop
vertex -0.166279 -11.961829 -22.797995
vertex 14.682964 -11.961829 -16.647236
vertex 20.833721 -11.961829 -1.797996
endloop
endfacet
facet normal 0.000000 -1.000000 -0.000000
outer loop
vertex -0.166279 -11.961829 -22.797995
vertex -0.166285 -11.961829 19.202005
vertex -21.166279 -11.961829 -1.798015
endloop
endfacet
facet normal 0.000000 -1.000000 0.000000
outer loop
vertex -0.166279 -11.961829 -22.797995
vertex 20.833721 -11.961829 -1.797996
vertex -0.166285 -11.961829 19.202005
endloop
endfacet
endsolid Exported from Blender-2.74 (sub 0)
