solid Exported from Blender-2.74 (sub 0)
facet normal 0.000000 1.000000 0.000000
outer loop
vertex -19.739422 -5.000493 -21.044552
vertex -19.739422 -5.000493 18.646053
vertex 19.951183 -5.000493 18.646053
endloop
endfacet
facet normal 0.000000 1.000000 0.000000
outer loop
vertex 19.951183 -5.000493 18.646053
vertex 19.951183 -5.000493 -21.044552
vertex -19.739422 -5.000493 -21.044552
endloop
endfacet
facet normal 0.000000 -1.000000 0.000000
outer loop
vertex -19.739422 -6.309890 -21.044552
vertex 19.951183 -6.309890 -21.044552
vertex 19.951183 -6.309890 18.646053
endloop
endfacet
facet normal 0.000000 -1.000000 0.000000
outer loop
vertex 19.951183 -6.309890 18.646053
vertex -19.739422 -6.309890 18.646053
vertex -19.739422 -6.309890 -21.044552
endloop
endfacet
facet normal 0.000000 0.000000 -1.000000
outer loop
vertex 19.951183 -6.309890 -21.044552
vertex -19.739422 -6.309890 -21.044552
vertex -19.739422 -5.000493 -21.044552
endloop
endfacet
facet normal 0.000000 0.000000 -1.000000
outer loop
vertex -19.739422 -5.000493 -21.044552
vertex 19.951183 -5.000493 -21.044552
vertex 19.951183 -6.309890 -21.044552
endloop
endfacet
facet normal 1.000000 0.000000 0.000000
outer loop
vertex 19.951183 -6.309890 18.646053
vertex 19.951183 -6.309890 -21.044552
vertex 19.951183 -5.000493 -21.044552
endloop
endfacet
facet normal 1.000000 0.000000 0.000000
outer loop
vertex 19.951183 -5.000493 -21.044552
vertex 19.951183 -5.000493 18.646053
vertex 19.951183 -6.309890 18.646053
endloop
endfacet
facet normal 0.000000 0.000000 1.000000
outer loop
vertex 19.951183 -5.000493 18.646053
vertex -19.739422 -5.000493 18.646053
vertex -19.739422 -6.309890 18.646053
endloop
endfacet
facet normal 0.000000 0.000000 1.000000
outer loop
vertex -19.739422 -6.309890 18.646053
vertex 19.951183 -6.309890 18.646053
vertex 19.951183 -5.000493 18.646053
endloop
endfacet
facet normal -1.000000 0.000000 0.000000
outer loop
vertex -19.739422 -5.000493 18.646053
vertex -19.739422 -5.000493 -21.044552
vertex -19.739422 -6.309890 -21.044552
endloop
endfacet
facet normal -1.000000 0.000000 0.000000
outer loop
vertex -19.739422 -6.309890 -21.044552
vertex -19.739422 -6.309890 18.646053
vertex -19.739422 -5.000493 18.646053
endloop
endfacet
endsolid Exported from Blender-2.74 (sub 0)
