solid Exported from Blender-2.74 (sub 0)
facet normal 0.098017 0.000000 -0.995185
outer loop
vertex -0.166279 -9.856463 -22.797997
vertex -0.166279 -6.356463 -22.797997
vertex 3.930619 -6.356463 -22.394485
endloop
endfacet
facet normal 0.098018 0.000000 -0.995185
outer loop
vertex 3.930619 -6.356463 -22.394485
vertex 3.930619 -9.856463 -22.394485
vertex -0.166279 -9.856463 -22.797997
endloop
endfacet
facet normal 0.290285 0.000000 -0.956940
outer loop
vertex 3.930619 -9.856463 -22.394485
vertex 3.930619 -6.356463 -22.394485
vertex 7.870075 -6.356463 -21.199465
endloop
endfacet
facet normal 0.290285 0.000000 -0.956940
outer loop
vertex 7.870075 -6.356463 -21.199465
vertex 7.870075 -9.856463 -21.199465
vertex 3.930619 -9.856463 -22.394485
endloop
endfacet
facet normal 0.471397 0.000000 -0.881921
outer loop
vertex 7.870075 -9.856463 -21.199465
vertex 7.870075 -6.356463 -21.199465
vertex 11.500698 -6.356463 -19.258856
endloop
endfacet
facet normal 0.471397 0.000000 -0.881921
outer loop
vertex 11.500698 -6.356463 -19.258856
vertex 11.500698 -9.856463 -19.258856
vertex 7.870075 -9.856463 -21.199465
endloop
endfacet
facet normal 0.634394 0.000000 -0.773010
outer loop
vertex 11.500698 -9.856463 -19.258856
vertex 11.500698 -6.356463 -19.258856
vertex 14.682964 -6.356463 -16.647238
endloop
endfacet
facet normal 0.634393 0.000000 -0.773011
outer loop
vertex 14.682964 -6.356463 -16.647238
vertex 14.682964 -9.856463 -16.647238
vertex 11.500698 -9.856463 -19.258856
endloop
endfacet
facet normal 0.773011 0.000000 -0.634393
outer loop
vertex 14.682964 -9.856463 -16.647238
vertex 14.682964 -6.356463 -16.647238
vertex 17.294584 -6.356463 -13.464969
endloop
endfacet
facet normal 0.773010 0.000000 -0.634394
outer loop
vertex 17.294584 -6.356463 -13.464969
vertex 17.294584 -9.856463 -13.464969
vertex 14.682964 -9.856463 -16.647238
endloop
endfacet
facet normal 0.881922 0.000000 -0.471396
outer loop
vertex 17.294584 -9.856463 -13.464969
vertex 17.294584 -6.356463 -13.464969
vertex 19.235189 -6.356463 -9.834346
endloop
endfacet
facet normal 0.881921 0.000000 -0.471396
outer loop
vertex 19.235189 -6.356463 -9.834346
vertex 19.235189 -9.856463 -9.834346
vertex 17.294584 -9.856463 -13.464969
endloop
endfacet
facet normal 0.956940 0.000000 -0.290285
outer loop
vertex 19.235189 -9.856463 -9.834346
vertex 19.235189 -6.356463 -9.834346
vertex 20.430212 -6.356463 -5.894893
endloop
endfacet
facet normal 0.956940 0.000000 -0.290285
outer loop
vertex 20.430212 -6.356463 -5.894893
vertex 20.430212 -9.856463 -5.894893
vertex 19.235189 -9.856463 -9.834346
endloop
endfacet
facet normal 0.995185 0.000000 -0.098017
outer loop
vertex 20.430212 -9.856463 -5.894893
vertex 20.430212 -6.356463 -5.894893
vertex 20.833719 -6.356463 -1.797996
endloop
endfacet
facet normal 0.995185 0.000000 -0.098017
outer loop
vertex 20.833719 -6.356463 -1.797996
vertex 20.833719 -9.856463 -1.797996
vertex 20.430212 -9.856463 -5.894893
endloop
endfacet
facet normal 0.995185 0.000000 0.098017
outer loop
vertex 20.833719 -9.856463 -1.797996
vertex 20.833719 -6.356463 -1.797996
vertex 20.430212 -6.356463 2.298899
endloop
endfacet
facet normal 0.995185 0.000000 0.098017
outer loop
vertex 20.430212 -6.356463 2.298899
vertex 20.430212 -9.856463 2.298899
vertex 20.833719 -9.856463 -1.797996
endloop
endfacet
facet normal 0.956940 0.000000 0.290285
outer loop
vertex 20.430212 -9.856463 2.298899
vertex 20.430212 -6.356463 2.298899
vertex 19.235189 -6.356463 6.238354
endloop
endfacet
facet normal 0.956940 0.000000 0.290285
outer loop
vertex 19.235189 -6.356463 6.238354
vertex 19.235189 -9.856463 6.238354
vertex 20.430212 -9.856463 2.298899
endloop
endfacet
facet normal 0.881922 0.000000 0.471396
outer loop
vertex 19.235189 -9.856463 6.238354
vertex 19.235189 -6.356463 6.238354
vertex 17.294584 -6.356463 9.868979
endloop
endfacet
facet normal 0.881922 0.000000 0.471396
outer loop
vertex 17.294584 -6.356463 9.868979
vertex 17.294584 -9.856463 9.868979
vertex 19.235189 -9.856463 6.238354
endloop
endfacet
facet normal 0.773010 0.000000 0.634393
outer loop
vertex 17.294584 -9.856463 9.868979
vertex 17.294584 -6.356463 9.868979
vertex 14.682964 -6.356463 13.051247
endloop
endfacet
facet normal 0.773010 0.000000 0.634393
outer loop
vertex 14.682964 -6.356463 13.051247
vertex 14.682964 -9.856463 13.051247
vertex 17.294584 -9.856463 9.868979
endloop
endfacet
facet normal 0.634394 0.000000 0.773010
outer loop
vertex 14.682964 -9.856463 13.051247
vertex 14.682964 -6.356463 13.051247
vertex 11.500696 -6.356463 15.662868
endloop
endfacet
facet normal 0.634393 0.000000 0.773010
outer loop
vertex 11.500696 -6.356463 15.662868
vertex 11.500696 -9.856463 15.662868
vertex 14.682964 -9.856463 13.051247
endloop
endfacet
facet normal 0.471396 0.000000 0.881922
outer loop
vertex 11.500696 -9.856463 15.662868
vertex 11.500696 -6.356463 15.662868
vertex 7.870071 -6.356463 17.603476
endloop
endfacet
facet normal 0.471396 0.000000 0.881921
outer loop
vertex 7.870071 -6.356463 17.603476
vertex 7.870071 -9.856463 17.603476
vertex 11.500696 -9.856463 15.662868
endloop
endfacet
facet normal 0.290284 0.000000 0.956941
outer loop
vertex 7.870071 -9.856463 17.603476
vertex 7.870071 -6.356463 17.603476
vertex 3.930614 -6.356463 18.798494
endloop
endfacet
facet normal 0.290285 0.000000 0.956940
outer loop
vertex 3.930614 -6.356463 18.798494
vertex 3.930614 -9.856463 18.798494
vertex 7.870071 -9.856463 17.603476
endloop
endfacet
facet normal 0.098017 0.000000 0.995185
outer loop
vertex 3.930614 -9.856463 18.798494
vertex 3.930614 -6.356463 18.798494
vertex -0.166285 -6.356463 19.202003
endloop
endfacet
facet normal 0.098018 0.000000 0.995185
outer loop
vertex -0.166285 -6.356463 19.202003
vertex -0.166285 -9.856463 19.202003
vertex 3.930614 -9.856463 18.798494
endloop
endfacet
facet normal -0.098018 0.000000 0.995185
outer loop
vertex -0.166285 -9.856463 19.202003
vertex -0.166285 -6.356463 19.202003
vertex -4.263184 -6.356463 18.798491
endloop
endfacet
facet normal -0.098019 0.000000 0.995185
outer loop
vertex -4.263184 -6.356463 18.798491
vertex -4.263184 -9.856463 18.798491
vertex -0.166285 -9.856463 19.202003
endloop
endfacet
facet normal -0.290284 0.000000 0.956941
outer loop
vertex -4.263184 -9.856463 18.798491
vertex -4.263184 -6.356463 18.798491
vertex -8.202641 -6.356463 17.603472
endloop
endfacet
facet normal -0.290284 0.000000 0.956941
outer loop
vertex -8.202641 -6.356463 17.603472
vertex -8.202641 -9.856463 17.603472
vertex -4.263184 -9.856463 18.798491
endloop
endfacet
facet normal -0.471398 0.000000 0.881921
outer loop
vertex -8.202641 -9.856463 17.603472
vertex -8.202641 -6.356463 17.603472
vertex -11.833263 -6.356463 15.662860
endloop
endfacet
facet normal -0.471397 0.000000 0.881921
outer loop
vertex -11.833263 -6.356463 15.662860
vertex -11.833263 -9.856463 15.662860
vertex -8.202641 -9.856463 17.603472
endloop
endfacet
facet normal -0.634393 0.000000 0.773010
outer loop
vertex -11.833263 -9.856463 15.662860
vertex -11.833263 -6.356463 15.662860
vertex -15.015532 -6.356463 13.051239
endloop
endfacet
facet normal -0.634394 0.000000 0.773010
outer loop
vertex -15.015532 -6.356463 13.051239
vertex -15.015532 -9.856463 13.051239
vertex -11.833263 -9.856463 15.662860
endloop
endfacet
facet normal -0.773011 0.000000 0.634393
outer loop
vertex -15.015532 -9.856463 13.051239
vertex -15.015532 -6.356463 13.051239
vertex -17.627150 -6.356463 9.868968
endloop
endfacet
facet normal -0.773011 0.000000 0.634393
outer loop
vertex -17.627150 -6.356463 9.868968
vertex -17.627150 -9.856463 9.868968
vertex -15.015532 -9.856463 13.051239
endloop
endfacet
facet normal -0.881921 0.000000 0.471396
outer loop
vertex -17.627150 -9.856463 9.868968
vertex -17.627150 -6.356463 9.868968
vertex -19.567759 -6.356463 6.238341
endloop
endfacet
facet normal -0.881922 0.000000 0.471396
outer loop
vertex -19.567759 -6.356463 6.238341
vertex -19.567759 -9.856463 6.238341
vertex -17.627150 -9.856463 9.868968
endloop
endfacet
facet normal -0.956941 0.000000 0.290283
outer loop
vertex -19.567759 -9.856463 6.238341
vertex -19.567759 -6.356463 6.238341
vertex -20.762774 -6.356463 2.298884
endloop
endfacet
facet normal -0.956941 0.000000 0.290283
outer loop
vertex -20.762774 -6.356463 2.298884
vertex -20.762774 -9.856463 2.298884
vertex -19.567759 -9.856463 6.238341
endloop
endfacet
facet normal -0.995185 0.000000 0.098017
outer loop
vertex -20.762774 -9.856463 2.298884
vertex -20.762774 -6.356463 2.298884
vertex -21.166281 -6.356463 -1.798015
endloop
endfacet
facet normal -0.995185 0.000000 0.098017
outer loop
vertex -21.166281 -6.356463 -1.798015
vertex -21.166281 -9.856463 -1.798015
vertex -20.762774 -9.856463 2.298884
endloop
endfacet
facet normal -0.995185 0.000000 -0.098018
outer loop
vertex -21.166281 -9.856463 -1.798015
vertex -21.166281 -6.356463 -1.798015
vertex -20.762768 -6.356463 -5.894914
endloop
endfacet
facet normal -0.995185 0.000000 -0.098018
outer loop
vertex -20.762768 -6.356463 -5.894914
vertex -20.762768 -9.856463 -5.894914
vertex -21.166281 -9.856463 -1.798015
endloop
endfacet
facet normal -0.956940 0.000000 -0.290286
outer loop
vertex -20.762768 -9.856463 -5.894914
vertex -20.762768 -6.356463 -5.894914
vertex -19.567741 -6.356463 -9.834369
endloop
endfacet
facet normal -0.956940 0.000000 -0.290286
outer loop
vertex -19.567741 -6.356463 -9.834369
vertex -19.567741 -9.856463 -9.834369
vertex -20.762768 -9.856463 -5.894914
endloop
endfacet
facet normal -0.881921 0.000000 -0.471398
outer loop
vertex -19.567741 -9.856463 -9.834369
vertex -19.567741 -6.356463 -9.834369
vertex -17.627129 -6.356463 -13.464990
endloop
endfacet
facet normal -0.881921 0.000000 -0.471398
outer loop
vertex -17.627129 -6.356463 -13.464990
vertex -17.627129 -9.856463 -13.464990
vertex -19.567741 -9.856463 -9.834369
endloop
endfacet
facet normal -0.773009 0.000000 -0.634395
outer loop
vertex -17.627129 -9.856463 -13.464990
vertex -17.627129 -6.356463 -13.464990
vertex -15.015503 -6.356463 -16.647255
endloop
endfacet
facet normal -0.773010 0.000000 -0.634394
outer loop
vertex -15.015503 -6.356463 -16.647255
vertex -15.015503 -9.856463 -16.647255
vertex -17.627129 -9.856463 -13.464990
endloop
endfacet
facet normal -0.634393 0.000000 -0.773011
outer loop
vertex -15.015503 -9.856463 -16.647255
vertex -15.015503 -6.356463 -16.647255
vertex -11.833231 -6.356463 -19.258873
endloop
endfacet
facet normal -0.634392 0.000000 -0.773011
outer loop
vertex -11.833231 -6.356463 -19.258873
vertex -11.833231 -9.856463 -19.258873
vertex -15.015503 -9.856463 -16.647255
endloop
endfacet
facet normal -0.471396 0.000000 -0.881922
outer loop
vertex -11.833231 -9.856463 -19.258873
vertex -11.833231 -6.356463 -19.258873
vertex -8.202602 -6.356463 -21.199478
endloop
endfacet
facet normal -0.471395 0.000000 -0.881922
outer loop
vertex -8.202602 -6.356463 -21.199478
vertex -8.202602 -9.856463 -21.199478
vertex -11.833231 -9.856463 -19.258873
endloop
endfacet
facet normal 0.000000 1.000000 -0.000001
outer loop
vertex 3.930619 -6.356463 -22.394485
vertex 11.500698 -6.356463 -19.258856
vertex 7.870075 -6.356463 -21.199465
endloop
endfacet
facet normal 0.000000 1.000000 0.000000
outer loop
vertex 17.294584 -6.356463 -13.464969
vertex 14.682964 -6.356463 -16.647238
vertex 11.500698 -6.356463 -19.258856
endloop
endfacet
facet normal 0.000000 1.000000 0.000001
outer loop
vertex 20.430212 -6.356463 -5.894893
vertex 19.235189 -6.356463 -9.834346
vertex 17.294584 -6.356463 -13.464969
endloop
endfacet
facet normal 0.000000 1.000000 0.000000
outer loop
vertex 20.430212 -6.356463 2.298899
vertex 20.833719 -6.356463 -1.797996
vertex 20.430212 -6.356463 -5.894893
endloop
endfacet
facet normal 0.000000 1.000000 -0.000000
outer loop
vertex 17.294584 -6.356463 9.868979
vertex 19.235189 -6.356463 6.238354
vertex 20.430212 -6.356463 2.298899
endloop
endfacet
facet normal 0.000000 1.000000 0.000001
outer loop
vertex 11.500696 -6.356463 15.662868
vertex 14.682964 -6.356463 13.051247
vertex 17.294584 -6.356463 9.868979
endloop
endfacet
facet normal 0.000000 1.000000 0.000000
outer loop
vertex 3.930614 -6.356463 18.798494
vertex 7.870071 -6.356463 17.603476
vertex 11.500696 -6.356463 15.662868
endloop
endfacet
facet normal 0.000000 1.000000 -0.000001
outer loop
vertex -4.263184 -6.356463 18.798491
vertex -0.166285 -6.356463 19.202003
vertex 3.930614 -6.356463 18.798494
endloop
endfacet
facet normal 0.000000 1.000000 0.000001
outer loop
vertex -11.833263 -6.356463 15.662860
vertex -8.202641 -6.356463 17.603472
vertex -4.263184 -6.356463 18.798491
endloop
endfacet
facet normal 0.000000 1.000000 0.000001
outer loop
vertex -17.627150 -6.356463 9.868968
vertex -15.015532 -6.356463 13.051239
vertex -11.833263 -6.356463 15.662860
endloop
endfacet
facet normal 0.000000 1.000000 0.000001
outer loop
vertex -20.762774 -6.356463 2.298884
vertex -19.567759 -6.356463 6.238341
vertex -17.627150 -6.356463 9.868968
endloop
endfacet
facet normal 0.000000 1.000000 0.000000
outer loop
vertex -20.762768 -6.356463 -5.894914
vertex -21.166281 -6.356463 -1.798015
vertex -20.762774 -6.356463 2.298884
endloop
endfacet
facet normal 0.000000 1.000000 0.000000
outer loop
vertex -17.627129 -6.356463 -13.464990
vertex -19.567741 -6.356463 -9.834369
vertex -20.762768 -6.356463 -5.894914
endloop
endfacet
facet normal 0.000000 1.000000 0.000000
outer loop
vertex -11.833231 -6.356463 -19.258873
vertex -15.015503 -6.356463 -16.647255
vertex -17.627129 -6.356463 -13.464990
endloop
endfacet
facet normal 0.000000 1.000000 0.000001
outer loop
vertex -4.263144 -6.356463 -22.394491
vertex -8.202602 -6.356463 -21.199478
vertex -11.833231 -6.356463 -19.258873
endloop
endfacet
facet normal 0.000000 1.000000 -0.000002
outer loop
vertex 3.930619 -6.356463 -22.394485
vertex -0.166279 -6.356463 -22.797997
vertex -4.263144 -6.356463 -22.394491
endloop
endfacet
facet normal 0.000000 1.000000 0.000001
outer loop
vertex 3.930619 -6.356463 -22.394485
vertex 17.294584 -6.356463 -13.464969
vertex 11.500698 -6.356463 -19.258856
endloop
endfacet
facet normal 0.000000 1.000000 0.000000
outer loop
vertex 20.430212 -6.356463 2.298899
vertex 20.430212 -6.356463 -5.894893
vertex 17.294584 -6.356463 -13.464969
endloop
endfacet
facet normal 0.000000 1.000000 0.000000
outer loop
vertex 11.500696 -6.356463 15.662868
vertex 17.294584 -6.356463 9.868979
vertex 20.430212 -6.356463 2.298899
endloop
endfacet
facet normal 0.000000 1.000000 0.000001
outer loop
vertex -4.263184 -6.356463 18.798491
vertex 3.930614 -6.356463 18.798494
vertex 11.500696 -6.356463 15.662868
endloop
endfacet
facet normal 0.000000 1.000000 -0.000001
outer loop
vertex -17.627150 -6.356463 9.868968
vertex -11.833263 -6.356463 15.662860
vertex -4.263184 -6.356463 18.798491
endloop
endfacet
facet normal 0.000000 1.000000 0.000000
outer loop
vertex -20.762768 -6.356463 -5.894914
vertex -20.762774 -6.356463 2.298884
vertex -17.627150 -6.356463 9.868968
endloop
endfacet
facet normal 0.000000 1.000000 0.000000
outer loop
vertex -11.833231 -6.356463 -19.258873
vertex -17.627129 -6.356463 -13.464990
vertex -20.762768 -6.356463 -5.894914
endloop
endfacet
facet normal 0.000000 1.000000 0.000000
outer loop
vertex 3.930619 -6.356463 -22.394485
vertex -4.263144 -6.356463 -22.394491
vertex -11.833231 -6.356463 -19.258873
endloop
endfacet
facet normal 0.000000 1.000000 0.000000
outer loop
vertex 3.930619 -6.356463 -22.394485
vertex 20.430212 -6.356463 2.298899
vertex 17.294584 -6.356463 -13.464969
endloop
endfacet
facet normal 0.000000 1.000000 0.000000
outer loop
vertex -4.263184 -6.356463 18.798491
vertex 11.500696 -6.356463 15.662868
vertex 20.430212 -6.356463 2.298899
endloop
endfacet
facet normal 0.000000 1.000000 0.000000
outer loop
vertex -20.762768 -6.356463 -5.894914
vertex -17.627150 -6.356463 9.868968
vertex -4.263184 -6.356463 18.798491
endloop
endfacet
facet normal 0.000000 1.000000 -0.000000
outer loop
vertex 3.930619 -6.356463 -22.394485
vertex -11.833231 -6.356463 -19.258873
vertex -20.762768 -6.356463 -5.894914
endloop
endfacet
facet normal 0.000000 1.000000 -0.000000
outer loop
vertex 3.930619 -6.356463 -22.394485
vertex -4.263184 -6.356463 18.798491
vertex 20.430212 -6.356463 2.298899
endloop
endfacet
facet normal 0.000000 1.000000 0.000000
outer loop
vertex 3.930619 -6.356463 -22.394485
vertex -20.762768 -6.356463 -5.894914
vertex -4.263184 -6.356463 18.798491
endloop
endfacet
facet normal -0.098017 0.000000 -0.995185
outer loop
vertex -0.166279 -6.356463 -22.797997
vertex -0.166279 -9.856463 -22.797997
vertex -4.263144 -9.856463 -22.394491
endloop
endfacet
facet normal -0.098017 0.000000 -0.995185
outer loop
vertex -4.263144 -9.856463 -22.394491
vertex -4.263144 -6.356463 -22.394491
vertex -0.166279 -6.356463 -22.797997
endloop
endfacet
facet normal -0.290283 0.000000 -0.956941
outer loop
vertex -8.202602 -9.856463 -21.199478
vertex -8.202602 -6.356463 -21.199478
vertex -4.263144 -6.356463 -22.394491
endloop
endfacet
facet normal -0.290282 0.000000 -0.956941
outer loop
vertex -4.263144 -6.356463 -22.394491
vertex -4.263144 -9.856463 -22.394491
vertex -8.202602 -9.856463 -21.199478
endloop
endfacet
facet normal 0.000000 -1.000000 0.000000
outer loop
vertex -0.166279 -9.856463 -22.797997
vertex -8.202602 -9.856463 -21.199478
vertex -4.263144 -9.856463 -22.394491
endloop
endfacet
facet normal 0.000000 -1.000000 -0.000002
outer loop
vertex -15.015503 -9.856463 -16.647255
vertex -11.833231 -9.856463 -19.258873
vertex -8.202602 -9.856463 -21.199478
endloop
endfacet
facet normal 0.000000 -1.000000 -0.000001
outer loop
vertex -19.567741 -9.856463 -9.834369
vertex -17.627129 -9.856463 -13.464990
vertex -15.015503 -9.856463 -16.647255
endloop
endfacet
facet normal 0.000000 -1.000000 0.000001
outer loop
vertex -21.166281 -9.856463 -1.798015
vertex -20.762768 -9.856463 -5.894914
vertex -19.567741 -9.856463 -9.834369
endloop
endfacet
facet normal 0.000000 -1.000000 0.000000
outer loop
vertex -19.567759 -9.856463 6.238341
vertex -20.762774 -9.856463 2.298884
vertex -21.166281 -9.856463 -1.798015
endloop
endfacet
facet normal 0.000000 -1.000000 0.000000
outer loop
vertex -15.015532 -9.856463 13.051239
vertex -17.627150 -9.856463 9.868968
vertex -19.567759 -9.856463 6.238341
endloop
endfacet
facet normal 0.000000 -1.000000 -0.000002
outer loop
vertex -8.202641 -9.856463 17.603472
vertex -11.833263 -9.856463 15.662860
vertex -15.015532 -9.856463 13.051239
endloop
endfacet
facet normal 0.000000 -1.000000 -0.000002
outer loop
vertex -0.166285 -9.856463 19.202003
vertex -4.263184 -9.856463 18.798491
vertex -8.202641 -9.856463 17.603472
endloop
endfacet
facet normal 0.000000 -1.000000 0.000000
outer loop
vertex 7.870071 -9.856463 17.603476
vertex 3.930614 -9.856463 18.798494
vertex -0.166285 -9.856463 19.202003
endloop
endfacet
facet normal 0.000000 -1.000000 -0.000002
outer loop
vertex 14.682964 -9.856463 13.051247
vertex 11.500696 -9.856463 15.662868
vertex 7.870071 -9.856463 17.603476
endloop
endfacet
facet normal 0.000000 -1.000000 -0.000001
outer loop
vertex 19.235189 -9.856463 6.238354
vertex 17.294584 -9.856463 9.868979
vertex 14.682964 -9.856463 13.051247
endloop
endfacet
facet normal 0.000000 -1.000000 0.000000
outer loop
vertex 20.833719 -9.856463 -1.797996
vertex 20.430212 -9.856463 2.298899
vertex 19.235189 -9.856463 6.238354
endloop
endfacet
facet normal 0.000000 -1.000000 -0.000000
outer loop
vertex 19.235189 -9.856463 -9.834346
vertex 20.430212 -9.856463 -5.894893
vertex 20.833719 -9.856463 -1.797996
endloop
endfacet
facet normal 0.000000 -1.000000 0.000001
outer loop
vertex 14.682964 -9.856463 -16.647238
vertex 17.294584 -9.856463 -13.464969
vertex 19.235189 -9.856463 -9.834346
endloop
endfacet
facet normal 0.000000 -1.000000 0.000002
outer loop
vertex 7.870075 -9.856463 -21.199465
vertex 11.500698 -9.856463 -19.258856
vertex 14.682964 -9.856463 -16.647238
endloop
endfacet
facet normal 0.000000 -1.000000 0.000000
outer loop
vertex -0.166279 -9.856463 -22.797997
vertex 3.930619 -9.856463 -22.394485
vertex 7.870075 -9.856463 -21.199465
endloop
endfacet
facet normal 0.000000 -1.000000 0.000000
outer loop
vertex -0.166279 -9.856463 -22.797997
vertex -15.015503 -9.856463 -16.647255
vertex -8.202602 -9.856463 -21.199478
endloop
endfacet
facet normal 0.000000 -1.000000 0.000000
outer loop
vertex -21.166281 -9.856463 -1.798015
vertex -19.567741 -9.856463 -9.834369
vertex -15.015503 -9.856463 -16.647255
endloop
endfacet
facet normal 0.000000 -1.000000 0.000000
outer loop
vertex -15.015532 -9.856463 13.051239
vertex -19.567759 -9.856463 6.238341
vertex -21.166281 -9.856463 -1.798015
endloop
endfacet
facet normal 0.000000 -1.000000 0.000001
outer loop
vertex -0.166285 -9.856463 19.202003
vertex -8.202641 -9.856463 17.603472
vertex -15.015532 -9.856463 13.051239
endloop
endfacet
facet normal 0.000000 -1.000000 0.000000
outer loop
vertex 14.682964 -9.856463 13.051247
vertex 7.870071 -9.856463 17.603476
vertex -0.166285 -9.856463 19.202003
endloop
endfacet
facet normal 0.000000 -1.000000 0.000000
outer loop
vertex 20.833719 -9.856463 -1.797996
vertex 19.235189 -9.856463 6.238354
vertex 14.682964 -9.856463 13.051247
endloop
endfacet
facet normal 0.000000 -1.000000 -0.000000
outer loop
vertex 14.682964 -9.856463 -16.647238
vertex 19.235189 -9.856463 -9.834346
vertex 20.833719 -9.856463 -1.797996
endloop
endfacet
facet normal 0.000000 -1.000000 -0.000001
outer loop
vertex -0.166279 -9.856463 -22.797997
vertex 7.870075 -9.856463 -21.199465
vertex 14.682964 -9.856463 -16.647238
endloop
endfacet
facet normal 0.000000 -1.000000 0.000000
outer loop
vertex -0.166279 -9.856463 -22.797997
vertex -21.166281 -9.856463 -1.798015
vertex -15.015503 -9.856463 -16.647255
endloop
endfacet
facet normal 0.000000 -1.000000 0.000000
outer loop
vertex -0.166285 -9.856463 19.202003
vertex -15.015532 -9.856463 13.051239
vertex -21.166281 -9.856463 -1.798015
endloop
endfacet
facet normal 0.000000 -1.000000 -0.000000
outer loop
vertex 20.833719 -9.856463 -1.797996
vertex 14.682964 -9.856463 13.051247
vertex -0.166285 -9.856463 19.202003
endloop
endfacet
facet normal 0.000000 -1.000000 -0.000000
outer loop
vertex -0.166279 -9.856463 -22.797997
vertex 14.682964 -9.856463 -16.647238
vertex 20.833719 -9.856463 -1.797996
endloop
endfacet
facet normal 0.000000 -1.000000 0.000000
outer loop
vertex -0.166279 -9.856463 -22.797997
vertex -0.166285 -9.856463 19.202003
vertex -21.166281 -9.856463 -1.798015
endloop
endfacet
facet normal 0.000000 -1.000000 0.000000
outer loop
vertex -0.166279 -9.856463 -22.797997
vertex 20.833719 -9.856463 -1.797996
vertex -0.166285 -9.856463 19.202003
endloop
endfacet
endsolid Exported from Blender-2.74 (sub 0)
