solid Exported from Blender-2.74 (sub 0)
facet normal 0.098017 0.000000 -0.995185
outer loop
vertex -0.261986 -5.025266 -22.702282
vertex -0.261986 -1.525266 -22.702282
vertex 3.834910 -1.525266 -22.298775
endloop
endfacet
facet normal 0.098017 0.000000 -0.995185
outer loop
vertex 3.834910 -1.525266 -22.298775
vertex 3.834910 -5.025266 -22.298775
vertex -0.261986 -5.025266 -22.702282
endloop
endfacet
facet normal 0.290284 0.000000 -0.956941
outer loop
vertex 3.834910 -5.025266 -22.298775
vertex 3.834910 -1.525266 -22.298775
vertex 7.774367 -1.525266 -21.103756
endloop
endfacet
facet normal 0.290285 0.000000 -0.956940
outer loop
vertex 7.774367 -1.525266 -21.103756
vertex 7.774367 -5.025266 -21.103756
vertex 3.834910 -5.025266 -22.298775
endloop
endfacet
facet normal 0.471398 0.000000 -0.881921
outer loop
vertex 7.774367 -5.025266 -21.103756
vertex 7.774367 -1.525266 -21.103756
vertex 11.404987 -1.525266 -19.163145
endloop
endfacet
facet normal 0.471397 0.000000 -0.881921
outer loop
vertex 11.404987 -1.525266 -19.163145
vertex 11.404987 -5.025266 -19.163145
vertex 7.774367 -5.025266 -21.103756
endloop
endfacet
facet normal 0.634394 0.000000 -0.773010
outer loop
vertex 11.404987 -5.025266 -19.163145
vertex 11.404987 -1.525266 -19.163145
vertex 14.587255 -1.525266 -16.551525
endloop
endfacet
facet normal 0.634393 0.000000 -0.773011
outer loop
vertex 14.587255 -1.525266 -16.551525
vertex 14.587255 -5.025266 -16.551525
vertex 11.404987 -5.025266 -19.163145
endloop
endfacet
facet normal 0.773010 0.000000 -0.634393
outer loop
vertex 14.587255 -5.025266 -16.551525
vertex 14.587255 -1.525266 -16.551525
vertex 17.198877 -1.525266 -13.369255
endloop
endfacet
facet normal 0.773010 0.000000 -0.634393
outer loop
vertex 17.198877 -1.525266 -13.369255
vertex 17.198877 -5.025266 -13.369255
vertex 14.587255 -5.025266 -16.551525
endloop
endfacet
facet normal 0.881922 0.000000 -0.471396
outer loop
vertex 17.198877 -5.025266 -13.369255
vertex 17.198877 -1.525266 -13.369255
vertex 19.139482 -1.525266 -9.738633
endloop
endfacet
facet normal 0.881922 0.000000 -0.471396
outer loop
vertex 19.139482 -1.525266 -9.738633
vertex 19.139482 -5.025266 -9.738633
vertex 17.198877 -5.025266 -13.369255
endloop
endfacet
facet normal 0.956940 0.000000 -0.290285
outer loop
vertex 19.139482 -5.025266 -9.738633
vertex 19.139482 -1.525266 -9.738633
vertex 20.334505 -1.525266 -5.799180
endloop
endfacet
facet normal 0.956940 0.000000 -0.290285
outer loop
vertex 20.334505 -1.525266 -5.799180
vertex 20.334505 -5.025266 -5.799180
vertex 19.139482 -5.025266 -9.738633
endloop
endfacet
facet normal 0.995185 0.000000 -0.098016
outer loop
vertex 20.334505 -5.025266 -5.799180
vertex 20.334505 -1.525266 -5.799180
vertex 20.738010 -1.525266 -1.702284
endloop
endfacet
facet normal 0.995185 0.000000 -0.098016
outer loop
vertex 20.738010 -1.525266 -1.702284
vertex 20.738010 -5.025266 -1.702284
vertex 20.334505 -5.025266 -5.799180
endloop
endfacet
facet normal 0.995185 0.000000 0.098016
outer loop
vertex 20.738010 -5.025266 -1.702284
vertex 20.738010 -1.525266 -1.702284
vertex 20.334505 -1.525266 2.394612
endloop
endfacet
facet normal 0.995185 0.000000 0.098016
outer loop
vertex 20.334505 -1.525266 2.394612
vertex 20.334505 -5.025266 2.394612
vertex 20.738010 -5.025266 -1.702284
endloop
endfacet
facet normal 0.956940 0.000000 0.290284
outer loop
vertex 20.334505 -5.025266 2.394612
vertex 20.334505 -1.525266 2.394612
vertex 19.139486 -1.525266 6.334066
endloop
endfacet
facet normal 0.956940 0.000000 0.290284
outer loop
vertex 19.139486 -1.525266 6.334066
vertex 19.139486 -5.025266 6.334066
vertex 20.334505 -5.025266 2.394612
endloop
endfacet
facet normal 0.881921 0.000000 0.471397
outer loop
vertex 19.139486 -5.025266 6.334066
vertex 19.139486 -1.525266 6.334066
vertex 17.198877 -1.525266 9.964691
endloop
endfacet
facet normal 0.881921 0.000000 0.471397
outer loop
vertex 17.198877 -1.525266 9.964691
vertex 17.198877 -5.025266 9.964691
vertex 19.139486 -5.025266 6.334066
endloop
endfacet
facet normal 0.773010 0.000000 0.634394
outer loop
vertex 17.198877 -5.025266 9.964691
vertex 17.198877 -1.525266 9.964691
vertex 14.587255 -1.525266 13.146959
endloop
endfacet
facet normal 0.773010 0.000000 0.634394
outer loop
vertex 14.587255 -1.525266 13.146959
vertex 14.587255 -5.025266 13.146959
vertex 17.198877 -5.025266 9.964691
endloop
endfacet
facet normal 0.634393 0.000000 0.773010
outer loop
vertex 14.587255 -5.025266 13.146959
vertex 14.587255 -1.525266 13.146959
vertex 11.404987 -1.525266 15.758580
endloop
endfacet
facet normal 0.634393 0.000000 0.773010
outer loop
vertex 11.404987 -1.525266 15.758580
vertex 11.404987 -5.025266 15.758580
vertex 14.587255 -5.025266 13.146959
endloop
endfacet
facet normal 0.471397 0.000000 0.881921
outer loop
vertex 11.404987 -5.025266 15.758580
vertex 11.404987 -1.525266 15.758580
vertex 7.774362 -1.525266 17.699190
endloop
endfacet
facet normal 0.471397 0.000000 0.881921
outer loop
vertex 7.774362 -1.525266 17.699190
vertex 7.774362 -5.025266 17.699190
vertex 11.404987 -5.025266 15.758580
endloop
endfacet
facet normal 0.290284 0.000000 0.956941
outer loop
vertex 7.774362 -5.025266 17.699190
vertex 7.774362 -1.525266 17.699190
vertex 3.834905 -1.525266 18.894207
endloop
endfacet
facet normal 0.290284 0.000000 0.956941
outer loop
vertex 3.834905 -1.525266 18.894207
vertex 3.834905 -5.025266 18.894207
vertex 7.774362 -5.025266 17.699190
endloop
endfacet
facet normal 0.098018 0.000000 0.995185
outer loop
vertex 3.834905 -5.025266 18.894207
vertex 3.834905 -1.525266 18.894207
vertex -0.261993 -1.525266 19.297718
endloop
endfacet
facet normal 0.098017 0.000000 0.995185
outer loop
vertex -0.261993 -1.525266 19.297718
vertex -0.261993 -5.025266 19.297718
vertex 3.834905 -5.025266 18.894207
endloop
endfacet
facet normal -0.098017 0.000000 0.995185
outer loop
vertex -0.261993 -5.025266 19.297718
vertex -0.261993 -1.525266 19.297718
vertex -4.358891 -1.525266 18.894205
endloop
endfacet
facet normal -0.098019 0.000000 0.995184
outer loop
vertex -4.358891 -1.525266 18.894205
vertex -4.358891 -5.025266 18.894205
vertex -0.261993 -5.025266 19.297718
endloop
endfacet
facet normal -0.290285 0.000000 0.956940
outer loop
vertex -4.358891 -5.025266 18.894205
vertex -4.358891 -1.525266 18.894205
vertex -8.298347 -1.525266 17.699183
endloop
endfacet
facet normal -0.290285 0.000000 0.956940
outer loop
vertex -8.298347 -1.525266 17.699183
vertex -8.298347 -5.025266 17.699183
vertex -4.358891 -5.025266 18.894205
endloop
endfacet
facet normal -0.471397 0.000000 0.881921
outer loop
vertex -8.298347 -5.025266 17.699183
vertex -8.298347 -1.525266 17.699183
vertex -11.928972 -1.525266 15.758574
endloop
endfacet
facet normal -0.471397 0.000000 0.881921
outer loop
vertex -11.928972 -1.525266 15.758574
vertex -11.928972 -5.025266 15.758574
vertex -8.298347 -5.025266 17.699183
endloop
endfacet
facet normal -0.634394 0.000000 0.773010
outer loop
vertex -11.928972 -5.025266 15.758574
vertex -11.928972 -1.525266 15.758574
vertex -15.111238 -1.525266 13.146952
endloop
endfacet
facet normal -0.634394 0.000000 0.773010
outer loop
vertex -15.111238 -1.525266 13.146952
vertex -15.111238 -5.025266 13.146952
vertex -11.928972 -5.025266 15.758574
endloop
endfacet
facet normal -0.773011 0.000000 0.634392
outer loop
vertex -15.111238 -5.025266 13.146952
vertex -15.111238 -1.525266 13.146952
vertex -17.722857 -1.525266 9.964680
endloop
endfacet
facet normal -0.773011 0.000000 0.634392
outer loop
vertex -17.722857 -1.525266 9.964680
vertex -17.722857 -5.025266 9.964680
vertex -15.111238 -5.025266 13.146952
endloop
endfacet
facet normal -0.881921 0.000000 0.471397
outer loop
vertex -17.722857 -5.025266 9.964680
vertex -17.722857 -1.525266 9.964680
vertex -19.663465 -1.525266 6.334054
endloop
endfacet
facet normal -0.881921 0.000000 0.471397
outer loop
vertex -19.663465 -1.525266 6.334054
vertex -19.663465 -5.025266 6.334054
vertex -17.722857 -5.025266 9.964680
endloop
endfacet
facet normal -0.956941 0.000000 0.290283
outer loop
vertex -19.663465 -5.025266 6.334054
vertex -19.663465 -1.525266 6.334054
vertex -20.858480 -1.525266 2.394597
endloop
endfacet
facet normal -0.956941 0.000000 0.290283
outer loop
vertex -20.858480 -1.525266 2.394597
vertex -20.858480 -5.025266 2.394597
vertex -19.663465 -5.025266 6.334054
endloop
endfacet
facet normal -0.995185 0.000000 0.098017
outer loop
vertex -20.858480 -5.025266 2.394597
vertex -20.858480 -1.525266 2.394597
vertex -21.261988 -1.525266 -1.702302
endloop
endfacet
facet normal -0.995185 0.000000 0.098017
outer loop
vertex -21.261988 -1.525266 -1.702302
vertex -21.261988 -5.025266 -1.702302
vertex -20.858480 -5.025266 2.394597
endloop
endfacet
facet normal -0.995185 0.000000 -0.098018
outer loop
vertex -21.261988 -5.025266 -1.702302
vertex -21.261988 -1.525266 -1.702302
vertex -20.858475 -1.525266 -5.799201
endloop
endfacet
facet normal -0.995185 0.000000 -0.098018
outer loop
vertex -20.858475 -1.525266 -5.799201
vertex -20.858475 -5.025266 -5.799201
vertex -21.261988 -5.025266 -1.702302
endloop
endfacet
facet normal -0.956940 0.000000 -0.290286
outer loop
vertex -20.858475 -5.025266 -5.799201
vertex -20.858475 -1.525266 -5.799201
vertex -19.663448 -1.525266 -9.738656
endloop
endfacet
facet normal -0.956940 0.000000 -0.290286
outer loop
vertex -19.663448 -1.525266 -9.738656
vertex -19.663448 -5.025266 -9.738656
vertex -20.858475 -5.025266 -5.799201
endloop
endfacet
facet normal -0.881921 0.000000 -0.471398
outer loop
vertex -19.663448 -5.025266 -9.738656
vertex -19.663448 -1.525266 -9.738656
vertex -17.722834 -1.525266 -13.369277
endloop
endfacet
facet normal -0.881921 0.000000 -0.471398
outer loop
vertex -17.722834 -1.525266 -13.369277
vertex -17.722834 -5.025266 -13.369277
vertex -19.663448 -5.025266 -9.738656
endloop
endfacet
facet normal -0.773010 0.000000 -0.634394
outer loop
vertex -17.722834 -5.025266 -13.369277
vertex -17.722834 -1.525266 -13.369277
vertex -15.111210 -1.525266 -16.551544
endloop
endfacet
facet normal -0.773010 0.000000 -0.634394
outer loop
vertex -15.111210 -1.525266 -16.551544
vertex -15.111210 -5.025266 -16.551544
vertex -17.722834 -5.025266 -13.369277
endloop
endfacet
facet normal -0.634392 0.000000 -0.773011
outer loop
vertex -15.111210 -5.025266 -16.551544
vertex -15.111210 -1.525266 -16.551544
vertex -11.928938 -1.525266 -19.163160
endloop
endfacet
facet normal -0.634392 0.000000 -0.773011
outer loop
vertex -11.928938 -1.525266 -19.163160
vertex -11.928938 -5.025266 -19.163160
vertex -15.111210 -5.025266 -16.551544
endloop
endfacet
facet normal -0.471395 0.000000 -0.881922
outer loop
vertex -11.928938 -5.025266 -19.163160
vertex -11.928938 -1.525266 -19.163160
vertex -8.298309 -1.525266 -21.103765
endloop
endfacet
facet normal -0.471395 0.000000 -0.881922
outer loop
vertex -8.298309 -1.525266 -21.103765
vertex -8.298309 -5.025266 -21.103765
vertex -11.928938 -5.025266 -19.163160
endloop
endfacet
facet normal 0.000000 1.000000 -0.000000
outer loop
vertex 3.834910 -1.525266 -22.298775
vertex 11.404987 -1.525266 -19.163145
vertex 7.774367 -1.525266 -21.103756
endloop
endfacet
facet normal 0.000000 1.000000 0.000000
outer loop
vertex 17.198877 -1.525266 -13.369255
vertex 14.587255 -1.525266 -16.551525
vertex 11.404987 -1.525266 -19.163145
endloop
endfacet
facet normal 0.000000 1.000000 0.000000
outer loop
vertex 20.334505 -1.525266 -5.799180
vertex 19.139482 -1.525266 -9.738633
vertex 17.198877 -1.525266 -13.369255
endloop
endfacet
facet normal 0.000000 1.000000 0.000000
outer loop
vertex 20.334505 -1.525266 2.394612
vertex 20.738010 -1.525266 -1.702284
vertex 20.334505 -1.525266 -5.799180
endloop
endfacet
facet normal 0.000000 1.000000 -0.000000
outer loop
vertex 17.198877 -1.525266 9.964691
vertex 19.139486 -1.525266 6.334066
vertex 20.334505 -1.525266 2.394612
endloop
endfacet
facet normal 0.000000 1.000000 -0.000000
outer loop
vertex 11.404987 -1.525266 15.758580
vertex 14.587255 -1.525266 13.146959
vertex 17.198877 -1.525266 9.964691
endloop
endfacet
facet normal 0.000000 1.000000 0.000000
outer loop
vertex 3.834905 -1.525266 18.894207
vertex 7.774362 -1.525266 17.699190
vertex 11.404987 -1.525266 15.758580
endloop
endfacet
facet normal 0.000000 1.000000 0.000001
outer loop
vertex -4.358891 -1.525266 18.894205
vertex -0.261993 -1.525266 19.297718
vertex 3.834905 -1.525266 18.894207
endloop
endfacet
facet normal 0.000000 1.000000 -0.000000
outer loop
vertex -11.928972 -1.525266 15.758574
vertex -8.298347 -1.525266 17.699183
vertex -4.358891 -1.525266 18.894205
endloop
endfacet
facet normal 0.000000 1.000000 -0.000000
outer loop
vertex -17.722857 -1.525266 9.964680
vertex -15.111238 -1.525266 13.146952
vertex -11.928972 -1.525266 15.758574
endloop
endfacet
facet normal 0.000000 1.000000 0.000000
outer loop
vertex -20.858480 -1.525266 2.394597
vertex -19.663465 -1.525266 6.334054
vertex -17.722857 -1.525266 9.964680
endloop
endfacet
facet normal 0.000000 1.000000 -0.000000
outer loop
vertex -20.858475 -1.525266 -5.799201
vertex -21.261988 -1.525266 -1.702302
vertex -20.858480 -1.525266 2.394597
endloop
endfacet
facet normal 0.000000 1.000000 0.000000
outer loop
vertex -17.722834 -1.525266 -13.369277
vertex -19.663448 -1.525266 -9.738656
vertex -20.858475 -1.525266 -5.799201
endloop
endfacet
facet normal 0.000000 1.000000 0.000000
outer loop
vertex -11.928938 -1.525266 -19.163160
vertex -15.111210 -1.525266 -16.551544
vertex -17.722834 -1.525266 -13.369277
endloop
endfacet
facet normal 0.000000 1.000000 0.000000
outer loop
vertex -4.358852 -1.525266 -22.298782
vertex -8.298309 -1.525266 -21.103765
vertex -11.928938 -1.525266 -19.163160
endloop
endfacet
facet normal 0.000000 1.000000 -0.000001
outer loop
vertex 3.834910 -1.525266 -22.298775
vertex -0.261986 -1.525266 -22.702282
vertex -4.358852 -1.525266 -22.298782
endloop
endfacet
facet normal 0.000000 1.000000 0.000000
outer loop
vertex 3.834910 -1.525266 -22.298775
vertex 17.198877 -1.525266 -13.369255
vertex 11.404987 -1.525266 -19.163145
endloop
endfacet
facet normal 0.000000 1.000000 0.000000
outer loop
vertex 20.334505 -1.525266 2.394612
vertex 20.334505 -1.525266 -5.799180
vertex 17.198877 -1.525266 -13.369255
endloop
endfacet
facet normal 0.000000 1.000000 0.000000
outer loop
vertex 11.404987 -1.525266 15.758580
vertex 17.198877 -1.525266 9.964691
vertex 20.334505 -1.525266 2.394612
endloop
endfacet
facet normal 0.000000 1.000000 -0.000000
outer loop
vertex -4.358891 -1.525266 18.894205
vertex 3.834905 -1.525266 18.894207
vertex 11.404987 -1.525266 15.758580
endloop
endfacet
facet normal 0.000000 1.000000 0.000000
outer loop
vertex -17.722857 -1.525266 9.964680
vertex -11.928972 -1.525266 15.758574
vertex -4.358891 -1.525266 18.894205
endloop
endfacet
facet normal 0.000000 1.000000 0.000000
outer loop
vertex -20.858475 -1.525266 -5.799201
vertex -20.858480 -1.525266 2.394597
vertex -17.722857 -1.525266 9.964680
endloop
endfacet
facet normal 0.000000 1.000000 -0.000000
outer loop
vertex -11.928938 -1.525266 -19.163160
vertex -17.722834 -1.525266 -13.369277
vertex -20.858475 -1.525266 -5.799201
endloop
endfacet
facet normal 0.000000 1.000000 0.000000
outer loop
vertex 3.834910 -1.525266 -22.298775
vertex -4.358852 -1.525266 -22.298782
vertex -11.928938 -1.525266 -19.163160
endloop
endfacet
facet normal 0.000000 1.000000 0.000000
outer loop
vertex 3.834910 -1.525266 -22.298775
vertex 20.334505 -1.525266 2.394612
vertex 17.198877 -1.525266 -13.369255
endloop
endfacet
facet normal 0.000000 1.000000 -0.000000
outer loop
vertex -4.358891 -1.525266 18.894205
vertex 11.404987 -1.525266 15.758580
vertex 20.334505 -1.525266 2.394612
endloop
endfacet
facet normal 0.000000 1.000000 -0.000000
outer loop
vertex -20.858475 -1.525266 -5.799201
vertex -17.722857 -1.525266 9.964680
vertex -4.358891 -1.525266 18.894205
endloop
endfacet
facet normal 0.000000 1.000000 0.000000
outer loop
vertex 3.834910 -1.525266 -22.298775
vertex -11.928938 -1.525266 -19.163160
vertex -20.858475 -1.525266 -5.799201
endloop
endfacet
facet normal 0.000000 1.000000 0.000000
outer loop
vertex 3.834910 -1.525266 -22.298775
vertex -4.358891 -1.525266 18.894205
vertex 20.334505 -1.525266 2.394612
endloop
endfacet
facet normal 0.000000 1.000000 -0.000000
outer loop
vertex 3.834910 -1.525266 -22.298775
vertex -20.858475 -1.525266 -5.799201
vertex -4.358891 -1.525266 18.894205
endloop
endfacet
facet normal -0.098015 0.000000 -0.995185
outer loop
vertex -0.261986 -1.525266 -22.702282
vertex -0.261986 -5.025266 -22.702282
vertex -4.358852 -5.025266 -22.298782
endloop
endfacet
facet normal -0.098015 0.000000 -0.995185
outer loop
vertex -4.358852 -5.025266 -22.298782
vertex -4.358852 -1.525266 -22.298782
vertex -0.261986 -1.525266 -22.702282
endloop
endfacet
facet normal -0.290284 0.000000 -0.956940
outer loop
vertex -8.298309 -5.025266 -21.103765
vertex -8.298309 -1.525266 -21.103765
vertex -4.358852 -1.525266 -22.298782
endloop
endfacet
facet normal -0.290284 0.000000 -0.956941
outer loop
vertex -4.358852 -1.525266 -22.298782
vertex -4.358852 -5.025266 -22.298782
vertex -8.298309 -5.025266 -21.103765
endloop
endfacet
facet normal 0.000000 -1.000000 0.000002
outer loop
vertex -0.261986 -5.025266 -22.702282
vertex -8.298309 -5.025266 -21.103765
vertex -4.358852 -5.025266 -22.298782
endloop
endfacet
facet normal 0.000000 -1.000000 0.000001
outer loop
vertex -15.111210 -5.025266 -16.551544
vertex -11.928938 -5.025266 -19.163160
vertex -8.298309 -5.025266 -21.103765
endloop
endfacet
facet normal 0.000000 -1.000000 0.000001
outer loop
vertex -19.663448 -5.025266 -9.738656
vertex -17.722834 -5.025266 -13.369277
vertex -15.111210 -5.025266 -16.551544
endloop
endfacet
facet normal 0.000000 -1.000000 0.000000
outer loop
vertex -21.261988 -5.025266 -1.702302
vertex -20.858475 -5.025266 -5.799201
vertex -19.663448 -5.025266 -9.738656
endloop
endfacet
facet normal 0.000000 -1.000000 -0.000000
outer loop
vertex -19.663465 -5.025266 6.334054
vertex -20.858480 -5.025266 2.394597
vertex -21.261988 -5.025266 -1.702302
endloop
endfacet
facet normal 0.000000 -1.000000 -0.000001
outer loop
vertex -15.111238 -5.025266 13.146952
vertex -17.722857 -5.025266 9.964680
vertex -19.663465 -5.025266 6.334054
endloop
endfacet
facet normal 0.000000 -1.000000 0.000001
outer loop
vertex -8.298347 -5.025266 17.699183
vertex -11.928972 -5.025266 15.758574
vertex -15.111238 -5.025266 13.146952
endloop
endfacet
facet normal 0.000000 -1.000000 0.000001
outer loop
vertex -0.261993 -5.025266 19.297718
vertex -4.358891 -5.025266 18.894205
vertex -8.298347 -5.025266 17.699183
endloop
endfacet
facet normal 0.000000 -1.000000 -0.000001
outer loop
vertex 7.774362 -5.025266 17.699190
vertex 3.834905 -5.025266 18.894207
vertex -0.261993 -5.025266 19.297718
endloop
endfacet
facet normal 0.000000 -1.000000 0.000000
outer loop
vertex 14.587255 -5.025266 13.146959
vertex 11.404987 -5.025266 15.758580
vertex 7.774362 -5.025266 17.699190
endloop
endfacet
facet normal 0.000000 -1.000000 -0.000001
outer loop
vertex 19.139486 -5.025266 6.334066
vertex 17.198877 -5.025266 9.964691
vertex 14.587255 -5.025266 13.146959
endloop
endfacet
facet normal 0.000000 -1.000000 0.000000
outer loop
vertex 20.738010 -5.025266 -1.702284
vertex 20.334505 -5.025266 2.394612
vertex 19.139486 -5.025266 6.334066
endloop
endfacet
facet normal 0.000000 -1.000000 -0.000000
outer loop
vertex 19.139482 -5.025266 -9.738633
vertex 20.334505 -5.025266 -5.799180
vertex 20.738010 -5.025266 -1.702284
endloop
endfacet
facet normal 0.000000 -1.000000 0.000000
outer loop
vertex 14.587255 -5.025266 -16.551525
vertex 17.198877 -5.025266 -13.369255
vertex 19.139482 -5.025266 -9.738633
endloop
endfacet
facet normal 0.000000 -1.000000 -0.000001
outer loop
vertex 7.774367 -5.025266 -21.103756
vertex 11.404987 -5.025266 -19.163145
vertex 14.587255 -5.025266 -16.551525
endloop
endfacet
facet normal 0.000000 -1.000000 -0.000001
outer loop
vertex -0.261986 -5.025266 -22.702282
vertex 3.834910 -5.025266 -22.298775
vertex 7.774367 -5.025266 -21.103756
endloop
endfacet
facet normal 0.000000 -1.000000 -0.000000
outer loop
vertex -0.261986 -5.025266 -22.702282
vertex -15.111210 -5.025266 -16.551544
vertex -8.298309 -5.025266 -21.103765
endloop
endfacet
facet normal 0.000000 -1.000000 0.000000
outer loop
vertex -21.261988 -5.025266 -1.702302
vertex -19.663448 -5.025266 -9.738656
vertex -15.111210 -5.025266 -16.551544
endloop
endfacet
facet normal 0.000000 -1.000000 0.000000
outer loop
vertex -15.111238 -5.025266 13.146952
vertex -19.663465 -5.025266 6.334054
vertex -21.261988 -5.025266 -1.702302
endloop
endfacet
facet normal 0.000000 -1.000000 -0.000000
outer loop
vertex -0.261993 -5.025266 19.297718
vertex -8.298347 -5.025266 17.699183
vertex -15.111238 -5.025266 13.146952
endloop
endfacet
facet normal 0.000000 -1.000000 0.000000
outer loop
vertex 14.587255 -5.025266 13.146959
vertex 7.774362 -5.025266 17.699190
vertex -0.261993 -5.025266 19.297718
endloop
endfacet
facet normal 0.000000 -1.000000 0.000000
outer loop
vertex 20.738010 -5.025266 -1.702284
vertex 19.139486 -5.025266 6.334066
vertex 14.587255 -5.025266 13.146959
endloop
endfacet
facet normal 0.000000 -1.000000 -0.000000
outer loop
vertex 14.587255 -5.025266 -16.551525
vertex 19.139482 -5.025266 -9.738633
vertex 20.738010 -5.025266 -1.702284
endloop
endfacet
facet normal 0.000000 -1.000000 0.000000
outer loop
vertex -0.261986 -5.025266 -22.702282
vertex 7.774367 -5.025266 -21.103756
vertex 14.587255 -5.025266 -16.551525
endloop
endfacet
facet normal 0.000000 -1.000000 -0.000000
outer loop
vertex -0.261986 -5.025266 -22.702282
vertex -21.261988 -5.025266 -1.702302
vertex -15.111210 -5.025266 -16.551544
endloop
endfacet
facet normal 0.000000 -1.000000 0.000000
outer loop
vertex -0.261993 -5.025266 19.297718
vertex -15.111238 -5.025266 13.146952
vertex -21.261988 -5.025266 -1.702302
endloop
endfacet
facet normal 0.000000 -1.000000 0.000000
outer loop
vertex 20.738010 -5.025266 -1.702284
vertex 14.587255 -5.025266 13.146959
vertex -0.261993 -5.025266 19.297718
endloop
endfacet
facet normal 0.000000 -1.000000 0.000000
outer loop
vertex -0.261986 -5.025266 -22.702282
vertex 14.587255 -5.025266 -16.551525
vertex 20.738010 -5.025266 -1.702284
endloop
endfacet
facet normal 0.000000 -1.000000 0.000000
outer loop
vertex -0.261986 -5.025266 -22.702282
vertex -0.261993 -5.025266 19.297718
vertex -21.261988 -5.025266 -1.702302
endloop
endfacet
facet normal 0.000000 -1.000000 -0.000000
outer loop
vertex -0.261986 -5.025266 -22.702282
vertex 20.738010 -5.025266 -1.702284
vertex -0.261993 -5.025266 19.297718
endloop
endfacet
endsolid Exported from Blender-2.74 (sub 0)
