solid Exported from Blender-2.74 (sub 0)
facet normal -0.098021 0.000000 0.995184
outer loop
vertex -0.261986 -2.896646 -21.246550
vertex -0.261986 -3.653886 -21.246550
vertex 3.550905 -3.653886 -20.870996
endloop
endfacet
facet normal -0.098021 0.000000 0.995184
outer loop
vertex 3.550905 -3.653886 -20.870996
vertex 3.550905 -2.896646 -20.870996
vertex -0.261986 -2.896646 -21.246550
endloop
endfacet
facet normal -0.290286 0.000000 0.956940
outer loop
vertex 7.217282 -3.653886 -19.758806
vertex 7.217282 -2.896646 -19.758806
vertex 3.550905 -2.896646 -20.870996
endloop
endfacet
facet normal -0.290287 0.000000 0.956940
outer loop
vertex 3.550905 -2.896646 -20.870996
vertex 3.550905 -3.653886 -20.870996
vertex 7.217282 -3.653886 -19.758806
endloop
endfacet
facet normal -0.471394 0.000000 0.881923
outer loop
vertex 10.596247 -3.653886 -17.952721
vertex 10.596247 -2.896646 -17.952721
vertex 7.217282 -2.896646 -19.758806
endloop
endfacet
facet normal -0.471396 0.000000 0.881922
outer loop
vertex 7.217282 -2.896646 -19.758806
vertex 7.217282 -3.653886 -19.758806
vertex 10.596247 -3.653886 -17.952721
endloop
endfacet
facet normal -0.634383 0.000000 0.773019
outer loop
vertex 13.557928 -3.653886 -15.522196
vertex 13.557928 -2.896646 -15.522196
vertex 10.596247 -2.896646 -17.952721
endloop
endfacet
facet normal -0.634384 0.000000 0.773018
outer loop
vertex 10.596247 -2.896646 -17.952721
vertex 10.596247 -3.653886 -17.952721
vertex 13.557928 -3.653886 -15.522196
endloop
endfacet
facet normal -0.773019 0.000000 0.634383
outer loop
vertex 15.988453 -3.653886 -12.560514
vertex 15.988453 -2.896646 -12.560514
vertex 13.557928 -2.896646 -15.522196
endloop
endfacet
facet normal -0.773019 0.000000 0.634383
outer loop
vertex 13.557928 -2.896646 -15.522196
vertex 13.557928 -3.653886 -15.522196
vertex 15.988453 -3.653886 -12.560514
endloop
endfacet
facet normal -0.881923 0.000000 0.471394
outer loop
vertex 17.794533 -3.653886 -9.181548
vertex 17.794533 -2.896646 -9.181548
vertex 15.988453 -2.896646 -12.560514
endloop
endfacet
facet normal -0.881923 0.000000 0.471394
outer loop
vertex 15.988453 -2.896646 -12.560514
vertex 15.988453 -3.653886 -12.560514
vertex 17.794533 -3.653886 -9.181548
endloop
endfacet
facet normal -0.956940 0.000000 0.290288
outer loop
vertex 18.906727 -3.653886 -5.515174
vertex 18.906727 -2.896646 -5.515174
vertex 17.794533 -2.896646 -9.181548
endloop
endfacet
facet normal -0.956940 0.000000 0.290287
outer loop
vertex 17.794533 -2.896646 -9.181548
vertex 17.794533 -3.653886 -9.181548
vertex 18.906727 -3.653886 -5.515174
endloop
endfacet
facet normal -0.995184 0.000000 0.098021
outer loop
vertex 19.282278 -3.653886 -1.702284
vertex 19.282278 -2.896646 -1.702284
vertex 18.906727 -2.896646 -5.515174
endloop
endfacet
facet normal -0.995184 0.000000 0.098021
outer loop
vertex 18.906727 -2.896646 -5.515174
vertex 18.906727 -3.653886 -5.515174
vertex 19.282278 -3.653886 -1.702284
endloop
endfacet
facet normal -0.995184 0.000000 -0.098021
outer loop
vertex 18.906727 -3.653886 2.110607
vertex 18.906727 -2.896646 2.110607
vertex 19.282278 -2.896646 -1.702284
endloop
endfacet
facet normal -0.995184 0.000000 -0.098021
outer loop
vertex 19.282278 -2.896646 -1.702284
vertex 19.282278 -3.653886 -1.702284
vertex 18.906727 -3.653886 2.110607
endloop
endfacet
facet normal -0.956940 0.000000 -0.290286
outer loop
vertex 17.794537 -3.653886 5.776981
vertex 17.794537 -2.896646 5.776981
vertex 18.906727 -2.896646 2.110607
endloop
endfacet
facet normal -0.956940 0.000000 -0.290286
outer loop
vertex 18.906727 -2.896646 2.110607
vertex 18.906727 -3.653886 2.110607
vertex 17.794537 -3.653886 5.776981
endloop
endfacet
facet normal -0.881923 0.000000 -0.471394
outer loop
vertex 15.988453 -3.653886 9.155951
vertex 15.988453 -2.896646 9.155951
vertex 17.794537 -2.896646 5.776981
endloop
endfacet
facet normal -0.881923 0.000000 -0.471394
outer loop
vertex 17.794537 -2.896646 5.776981
vertex 17.794537 -3.653886 5.776981
vertex 15.988453 -3.653886 9.155951
endloop
endfacet
facet normal -0.773019 0.000000 -0.634383
outer loop
vertex 13.557928 -3.653886 12.117631
vertex 13.557928 -2.896646 12.117631
vertex 15.988453 -2.896646 9.155951
endloop
endfacet
facet normal -0.773019 0.000000 -0.634383
outer loop
vertex 15.988453 -2.896646 9.155951
vertex 15.988453 -3.653886 9.155951
vertex 13.557928 -3.653886 12.117631
endloop
endfacet
facet normal -0.634383 0.000000 -0.773019
outer loop
vertex 10.596247 -3.653886 14.548156
vertex 10.596247 -2.896646 14.548156
vertex 13.557928 -2.896646 12.117631
endloop
endfacet
facet normal -0.634383 0.000000 -0.773019
outer loop
vertex 13.557928 -2.896646 12.117631
vertex 13.557928 -3.653886 12.117631
vertex 10.596247 -3.653886 14.548156
endloop
endfacet
facet normal -0.471394 0.000000 -0.881923
outer loop
vertex 7.217277 -3.653886 16.354239
vertex 7.217277 -2.896646 16.354239
vertex 10.596247 -2.896646 14.548156
endloop
endfacet
facet normal -0.471394 0.000000 -0.881923
outer loop
vertex 10.596247 -2.896646 14.548156
vertex 10.596247 -3.653886 14.548156
vertex 7.217277 -3.653886 16.354239
endloop
endfacet
facet normal -0.290286 0.000000 -0.956940
outer loop
vertex 3.550900 -3.653886 17.466429
vertex 3.550900 -2.896646 17.466429
vertex 7.217277 -2.896646 16.354239
endloop
endfacet
facet normal -0.290286 0.000000 -0.956940
outer loop
vertex 7.217277 -2.896646 16.354239
vertex 7.217277 -3.653886 16.354239
vertex 3.550900 -3.653886 17.466429
endloop
endfacet
facet normal -0.098022 0.000000 -0.995184
outer loop
vertex -0.261993 -3.653886 17.841986
vertex -0.261993 -2.896646 17.841986
vertex 3.550900 -2.896646 17.466429
endloop
endfacet
facet normal -0.098022 0.000000 -0.995184
outer loop
vertex 3.550900 -2.896646 17.466429
vertex 3.550900 -3.653886 17.466429
vertex -0.261993 -3.653886 17.841986
endloop
endfacet
facet normal 0.098022 0.000000 -0.995184
outer loop
vertex -4.074886 -3.653886 17.466427
vertex -4.074886 -2.896646 17.466427
vertex -0.261993 -2.896646 17.841986
endloop
endfacet
facet normal 0.098023 0.000000 -0.995184
outer loop
vertex -0.261993 -2.896646 17.841986
vertex -0.261993 -3.653886 17.841986
vertex -4.074886 -3.653886 17.466427
endloop
endfacet
facet normal 0.290288 0.000000 -0.956939
outer loop
vertex -7.741263 -3.653886 16.354231
vertex -7.741263 -2.896646 16.354231
vertex -4.074886 -2.896646 17.466427
endloop
endfacet
facet normal 0.290288 0.000000 -0.956939
outer loop
vertex -4.074886 -2.896646 17.466427
vertex -4.074886 -3.653886 17.466427
vertex -7.741263 -3.653886 16.354231
endloop
endfacet
facet normal 0.471393 0.000000 -0.881923
outer loop
vertex -11.120232 -3.653886 14.548150
vertex -11.120232 -2.896646 14.548150
vertex -7.741263 -2.896646 16.354231
endloop
endfacet
facet normal 0.471393 0.000000 -0.881923
outer loop
vertex -7.741263 -2.896646 16.354231
vertex -7.741263 -3.653886 16.354231
vertex -11.120232 -3.653886 14.548150
endloop
endfacet
facet normal 0.634392 0.000000 -0.773012
outer loop
vertex -14.081850 -3.653886 12.117623
vertex -14.081850 -2.896646 12.117623
vertex -11.120232 -2.896646 14.548150
endloop
endfacet
facet normal 0.634392 0.000000 -0.773012
outer loop
vertex -11.120232 -2.896646 14.548150
vertex -11.120232 -3.653886 14.548150
vertex -14.081850 -3.653886 12.117623
endloop
endfacet
facet normal 0.773012 0.000000 -0.634392
outer loop
vertex -16.512432 -3.653886 9.155939
vertex -16.512432 -2.896646 9.155939
vertex -14.081850 -2.896646 12.117623
endloop
endfacet
facet normal 0.773012 0.000000 -0.634392
outer loop
vertex -14.081850 -2.896646 12.117623
vertex -14.081850 -3.653886 12.117623
vertex -16.512432 -3.653886 9.155939
endloop
endfacet
facet normal 0.881923 0.000000 -0.471394
outer loop
vertex -18.318516 -3.653886 5.776969
vertex -18.318516 -2.896646 5.776969
vertex -16.512432 -2.896646 9.155939
endloop
endfacet
facet normal 0.881923 0.000000 -0.471394
outer loop
vertex -16.512432 -2.896646 9.155939
vertex -16.512432 -3.653886 9.155939
vertex -18.318516 -3.653886 5.776969
endloop
endfacet
facet normal 0.956940 0.000000 -0.290285
outer loop
vertex -19.430702 -3.653886 2.110592
vertex -19.430702 -2.896646 2.110592
vertex -18.318516 -2.896646 5.776969
endloop
endfacet
facet normal 0.956940 0.000000 -0.290285
outer loop
vertex -18.318516 -2.896646 5.776969
vertex -18.318516 -3.653886 5.776969
vertex -19.430702 -3.653886 2.110592
endloop
endfacet
facet normal 0.995184 0.000000 -0.098021
outer loop
vertex -19.806255 -3.653886 -1.702302
vertex -19.806255 -2.896646 -1.702302
vertex -19.430702 -2.896646 2.110592
endloop
endfacet
facet normal 0.995184 0.000000 -0.098021
outer loop
vertex -19.430702 -2.896646 2.110592
vertex -19.430702 -3.653886 2.110592
vertex -19.806255 -3.653886 -1.702302
endloop
endfacet
facet normal 0.995184 0.000000 0.098023
outer loop
vertex -19.430696 -3.653886 -5.515195
vertex -19.430696 -2.896646 -5.515195
vertex -19.806255 -2.896646 -1.702302
endloop
endfacet
facet normal 0.995184 0.000000 0.098023
outer loop
vertex -19.806255 -2.896646 -1.702302
vertex -19.806255 -3.653886 -1.702302
vertex -19.430696 -3.653886 -5.515195
endloop
endfacet
facet normal 0.956939 0.000000 0.290289
outer loop
vertex -18.318497 -3.653886 -9.181571
vertex -18.318497 -2.896646 -9.181571
vertex -19.430696 -2.896646 -5.515195
endloop
endfacet
facet normal 0.956939 0.000000 0.290289
outer loop
vertex -19.430696 -2.896646 -5.515195
vertex -19.430696 -3.653886 -5.515195
vertex -18.318497 -3.653886 -9.181571
endloop
endfacet
facet normal 0.881922 0.000000 0.471395
outer loop
vertex -16.512409 -3.653886 -12.560536
vertex -16.512409 -2.896646 -12.560536
vertex -18.318497 -2.896646 -9.181571
endloop
endfacet
facet normal 0.881922 0.000000 0.471395
outer loop
vertex -18.318497 -2.896646 -9.181571
vertex -18.318497 -3.653886 -9.181571
vertex -16.512409 -3.653886 -12.560536
endloop
endfacet
facet normal 0.773012 0.000000 0.634392
outer loop
vertex -14.081881 -3.653886 -15.522155
vertex -14.081881 -2.896646 -15.522155
vertex -16.512409 -2.896646 -12.560536
endloop
endfacet
facet normal 0.773011 0.000000 0.634392
outer loop
vertex -16.512409 -2.896646 -12.560536
vertex -16.512409 -3.653886 -12.560536
vertex -14.081881 -3.653886 -15.522155
endloop
endfacet
facet normal 0.634392 0.000000 0.773012
outer loop
vertex -11.120197 -3.653886 -17.952736
vertex -11.120197 -2.896646 -17.952736
vertex -14.081881 -2.896646 -15.522155
endloop
endfacet
facet normal 0.634392 0.000000 0.773012
outer loop
vertex -14.081881 -2.896646 -15.522155
vertex -14.081881 -3.653886 -15.522155
vertex -11.120197 -3.653886 -17.952736
endloop
endfacet
facet normal 0.471393 0.000000 0.881923
outer loop
vertex -7.741225 -3.653886 -19.758814
vertex -7.741225 -2.896646 -19.758814
vertex -11.120197 -2.896646 -17.952736
endloop
endfacet
facet normal 0.471392 0.000000 0.881924
outer loop
vertex -11.120197 -2.896646 -17.952736
vertex -11.120197 -3.653886 -17.952736
vertex -7.741225 -3.653886 -19.758814
endloop
endfacet
facet normal 0.000000 -1.000000 0.000000
outer loop
vertex 7.217282 -2.896646 -19.758806
vertex -0.261986 -2.896646 -21.246550
vertex 3.550905 -2.896646 -20.870996
endloop
endfacet
facet normal 0.000000 -1.000000 -0.000001
outer loop
vertex -7.741225 -2.896646 -19.758814
vertex -4.074847 -2.896646 -20.871004
vertex -0.261986 -2.896646 -21.246550
endloop
endfacet
facet normal 0.000000 -1.000000 0.000000
outer loop
vertex -14.081881 -2.896646 -15.522155
vertex -11.120197 -2.896646 -17.952736
vertex -7.741225 -2.896646 -19.758814
endloop
endfacet
facet normal 0.000000 -1.000000 0.000000
outer loop
vertex -18.318497 -2.896646 -9.181571
vertex -16.512409 -2.896646 -12.560536
vertex -14.081881 -2.896646 -15.522155
endloop
endfacet
facet normal 0.000000 -1.000000 0.000000
outer loop
vertex -19.806255 -2.896646 -1.702302
vertex -19.430696 -2.896646 -5.515195
vertex -18.318497 -2.896646 -9.181571
endloop
endfacet
facet normal 0.000000 -1.000000 -0.000000
outer loop
vertex -18.318516 -2.896646 5.776969
vertex -19.430702 -2.896646 2.110592
vertex -19.806255 -2.896646 -1.702302
endloop
endfacet
facet normal 0.000000 -1.000000 0.000000
outer loop
vertex -14.081850 -2.896646 12.117623
vertex -16.512432 -2.896646 9.155939
vertex -18.318516 -2.896646 5.776969
endloop
endfacet
facet normal 0.000000 -1.000000 0.000000
outer loop
vertex -7.741263 -2.896646 16.354231
vertex -11.120232 -2.896646 14.548150
vertex -14.081850 -2.896646 12.117623
endloop
endfacet
facet normal 0.000000 -1.000000 0.000000
outer loop
vertex -0.261993 -2.896646 17.841986
vertex -4.074886 -2.896646 17.466427
vertex -7.741263 -2.896646 16.354231
endloop
endfacet
facet normal 0.000000 -1.000000 0.000000
outer loop
vertex 7.217277 -2.896646 16.354239
vertex 3.550900 -2.896646 17.466429
vertex -0.261993 -2.896646 17.841986
endloop
endfacet
facet normal 0.000000 -1.000000 0.000000
outer loop
vertex 13.557928 -2.896646 12.117631
vertex 10.596247 -2.896646 14.548156
vertex 7.217277 -2.896646 16.354239
endloop
endfacet
facet normal 0.000000 -1.000000 0.000000
outer loop
vertex 17.794537 -2.896646 5.776981
vertex 15.988453 -2.896646 9.155951
vertex 13.557928 -2.896646 12.117631
endloop
endfacet
facet normal 0.000000 -1.000000 0.000000
outer loop
vertex 19.282278 -2.896646 -1.702284
vertex 18.906727 -2.896646 2.110607
vertex 17.794537 -2.896646 5.776981
endloop
endfacet
facet normal 0.000000 -1.000000 0.000000
outer loop
vertex 17.794533 -2.896646 -9.181548
vertex 18.906727 -2.896646 -5.515174
vertex 19.282278 -2.896646 -1.702284
endloop
endfacet
facet normal 0.000000 -1.000000 0.000000
outer loop
vertex 13.557928 -2.896646 -15.522196
vertex 15.988453 -2.896646 -12.560514
vertex 17.794533 -2.896646 -9.181548
endloop
endfacet
facet normal 0.000000 -1.000000 0.000001
outer loop
vertex 7.217282 -2.896646 -19.758806
vertex 10.596247 -2.896646 -17.952721
vertex 13.557928 -2.896646 -15.522196
endloop
endfacet
facet normal 0.000000 -1.000000 0.000000
outer loop
vertex 7.217282 -2.896646 -19.758806
vertex -7.741225 -2.896646 -19.758814
vertex -0.261986 -2.896646 -21.246550
endloop
endfacet
facet normal 0.000000 -1.000000 -0.000000
outer loop
vertex -18.318497 -2.896646 -9.181571
vertex -14.081881 -2.896646 -15.522155
vertex -7.741225 -2.896646 -19.758814
endloop
endfacet
facet normal 0.000000 -1.000000 0.000000
outer loop
vertex -18.318516 -2.896646 5.776969
vertex -19.806255 -2.896646 -1.702302
vertex -18.318497 -2.896646 -9.181571
endloop
endfacet
facet normal 0.000000 -1.000000 0.000000
outer loop
vertex -7.741263 -2.896646 16.354231
vertex -14.081850 -2.896646 12.117623
vertex -18.318516 -2.896646 5.776969
endloop
endfacet
facet normal 0.000000 -1.000000 0.000000
outer loop
vertex 7.217277 -2.896646 16.354239
vertex -0.261993 -2.896646 17.841986
vertex -7.741263 -2.896646 16.354231
endloop
endfacet
facet normal 0.000000 -1.000000 -0.000000
outer loop
vertex 17.794537 -2.896646 5.776981
vertex 13.557928 -2.896646 12.117631
vertex 7.217277 -2.896646 16.354239
endloop
endfacet
facet normal 0.000000 -1.000000 0.000000
outer loop
vertex 17.794533 -2.896646 -9.181548
vertex 19.282278 -2.896646 -1.702284
vertex 17.794537 -2.896646 5.776981
endloop
endfacet
facet normal 0.000000 -1.000000 -0.000000
outer loop
vertex 7.217282 -2.896646 -19.758806
vertex 13.557928 -2.896646 -15.522196
vertex 17.794533 -2.896646 -9.181548
endloop
endfacet
facet normal 0.000000 -1.000000 -0.000000
outer loop
vertex 7.217282 -2.896646 -19.758806
vertex -18.318497 -2.896646 -9.181571
vertex -7.741225 -2.896646 -19.758814
endloop
endfacet
facet normal 0.000000 -1.000000 -0.000000
outer loop
vertex -7.741263 -2.896646 16.354231
vertex -18.318516 -2.896646 5.776969
vertex -18.318497 -2.896646 -9.181571
endloop
endfacet
facet normal 0.000000 -1.000000 -0.000000
outer loop
vertex 17.794537 -2.896646 5.776981
vertex 7.217277 -2.896646 16.354239
vertex -7.741263 -2.896646 16.354231
endloop
endfacet
facet normal 0.000000 -1.000000 -0.000000
outer loop
vertex 7.217282 -2.896646 -19.758806
vertex 17.794533 -2.896646 -9.181548
vertex 17.794537 -2.896646 5.776981
endloop
endfacet
facet normal 0.000000 -1.000000 0.000000
outer loop
vertex 7.217282 -2.896646 -19.758806
vertex -7.741263 -2.896646 16.354231
vertex -18.318497 -2.896646 -9.181571
endloop
endfacet
facet normal 0.000000 -1.000000 0.000000
outer loop
vertex 7.217282 -2.896646 -19.758806
vertex 17.794537 -2.896646 5.776981
vertex -7.741263 -2.896646 16.354231
endloop
endfacet
facet normal 0.098019 0.000000 0.995185
outer loop
vertex -0.261986 -3.653886 -21.246550
vertex -0.261986 -2.896646 -21.246550
vertex -4.074847 -2.896646 -20.871004
endloop
endfacet
facet normal 0.098020 0.000000 0.995185
outer loop
vertex -4.074847 -2.896646 -20.871004
vertex -4.074847 -3.653886 -20.871004
vertex -0.261986 -3.653886 -21.246550
endloop
endfacet
facet normal 0.290287 0.000000 0.956940
outer loop
vertex -4.074847 -3.653886 -20.871004
vertex -4.074847 -2.896646 -20.871004
vertex -7.741225 -2.896646 -19.758814
endloop
endfacet
facet normal 0.290286 0.000000 0.956940
outer loop
vertex -7.741225 -2.896646 -19.758814
vertex -7.741225 -3.653886 -19.758814
vertex -4.074847 -3.653886 -20.871004
endloop
endfacet
facet normal 0.000000 1.000000 -0.000001
outer loop
vertex -4.074847 -3.653886 -20.871004
vertex 3.550905 -3.653886 -20.870996
vertex -0.261986 -3.653886 -21.246550
endloop
endfacet
facet normal 0.000000 1.000000 -0.000001
outer loop
vertex 10.596247 -3.653886 -17.952721
vertex 7.217282 -3.653886 -19.758806
vertex 3.550905 -3.653886 -20.870996
endloop
endfacet
facet normal 0.000000 1.000000 0.000001
outer loop
vertex 15.988453 -3.653886 -12.560514
vertex 13.557928 -3.653886 -15.522196
vertex 10.596247 -3.653886 -17.952721
endloop
endfacet
facet normal 0.000000 1.000000 -0.000000
outer loop
vertex 18.906727 -3.653886 -5.515174
vertex 17.794533 -3.653886 -9.181548
vertex 15.988453 -3.653886 -12.560514
endloop
endfacet
facet normal 0.000000 1.000000 0.000000
outer loop
vertex 18.906727 -3.653886 2.110607
vertex 19.282278 -3.653886 -1.702284
vertex 18.906727 -3.653886 -5.515174
endloop
endfacet
facet normal 0.000000 1.000000 0.000000
outer loop
vertex 15.988453 -3.653886 9.155951
vertex 17.794537 -3.653886 5.776981
vertex 18.906727 -3.653886 2.110607
endloop
endfacet
facet normal 0.000000 1.000000 -0.000001
outer loop
vertex 10.596247 -3.653886 14.548156
vertex 13.557928 -3.653886 12.117631
vertex 15.988453 -3.653886 9.155951
endloop
endfacet
facet normal 0.000000 1.000000 0.000001
outer loop
vertex 3.550900 -3.653886 17.466429
vertex 7.217277 -3.653886 16.354239
vertex 10.596247 -3.653886 14.548156
endloop
endfacet
facet normal 0.000000 1.000000 0.000000
outer loop
vertex -4.074886 -3.653886 17.466427
vertex -0.261993 -3.653886 17.841986
vertex 3.550900 -3.653886 17.466429
endloop
endfacet
facet normal 0.000000 1.000000 0.000000
outer loop
vertex -11.120232 -3.653886 14.548150
vertex -7.741263 -3.653886 16.354231
vertex -4.074886 -3.653886 17.466427
endloop
endfacet
facet normal 0.000000 1.000000 -0.000001
outer loop
vertex -16.512432 -3.653886 9.155939
vertex -14.081850 -3.653886 12.117623
vertex -11.120232 -3.653886 14.548150
endloop
endfacet
facet normal 0.000000 1.000000 0.000000
outer loop
vertex -19.430702 -3.653886 2.110592
vertex -18.318516 -3.653886 5.776969
vertex -16.512432 -3.653886 9.155939
endloop
endfacet
facet normal 0.000000 1.000000 0.000000
outer loop
vertex -19.430696 -3.653886 -5.515195
vertex -19.806255 -3.653886 -1.702302
vertex -19.430702 -3.653886 2.110592
endloop
endfacet
facet normal 0.000000 1.000000 0.000000
outer loop
vertex -16.512409 -3.653886 -12.560536
vertex -18.318497 -3.653886 -9.181571
vertex -19.430696 -3.653886 -5.515195
endloop
endfacet
facet normal 0.000000 1.000000 0.000000
outer loop
vertex -11.120197 -3.653886 -17.952736
vertex -14.081881 -3.653886 -15.522155
vertex -16.512409 -3.653886 -12.560536
endloop
endfacet
facet normal 0.000000 1.000000 0.000001
outer loop
vertex -4.074847 -3.653886 -20.871004
vertex -7.741225 -3.653886 -19.758814
vertex -11.120197 -3.653886 -17.952736
endloop
endfacet
facet normal 0.000000 1.000000 0.000000
outer loop
vertex -4.074847 -3.653886 -20.871004
vertex 10.596247 -3.653886 -17.952721
vertex 3.550905 -3.653886 -20.870996
endloop
endfacet
facet normal 0.000000 1.000000 -0.000000
outer loop
vertex 18.906727 -3.653886 -5.515174
vertex 15.988453 -3.653886 -12.560514
vertex 10.596247 -3.653886 -17.952721
endloop
endfacet
facet normal 0.000000 1.000000 0.000000
outer loop
vertex 15.988453 -3.653886 9.155951
vertex 18.906727 -3.653886 2.110607
vertex 18.906727 -3.653886 -5.515174
endloop
endfacet
facet normal 0.000000 1.000000 -0.000000
outer loop
vertex 3.550900 -3.653886 17.466429
vertex 10.596247 -3.653886 14.548156
vertex 15.988453 -3.653886 9.155951
endloop
endfacet
facet normal 0.000000 1.000000 0.000000
outer loop
vertex -11.120232 -3.653886 14.548150
vertex -4.074886 -3.653886 17.466427
vertex 3.550900 -3.653886 17.466429
endloop
endfacet
facet normal 0.000000 1.000000 0.000000
outer loop
vertex -19.430702 -3.653886 2.110592
vertex -16.512432 -3.653886 9.155939
vertex -11.120232 -3.653886 14.548150
endloop
endfacet
facet normal 0.000000 1.000000 0.000000
outer loop
vertex -16.512409 -3.653886 -12.560536
vertex -19.430696 -3.653886 -5.515195
vertex -19.430702 -3.653886 2.110592
endloop
endfacet
facet normal 0.000000 1.000000 0.000000
outer loop
vertex -4.074847 -3.653886 -20.871004
vertex -11.120197 -3.653886 -17.952736
vertex -16.512409 -3.653886 -12.560536
endloop
endfacet
facet normal 0.000000 1.000000 -0.000000
outer loop
vertex -4.074847 -3.653886 -20.871004
vertex 18.906727 -3.653886 -5.515174
vertex 10.596247 -3.653886 -17.952721
endloop
endfacet
facet normal 0.000000 1.000000 0.000000
outer loop
vertex 3.550900 -3.653886 17.466429
vertex 15.988453 -3.653886 9.155951
vertex 18.906727 -3.653886 -5.515174
endloop
endfacet
facet normal 0.000000 1.000000 0.000000
outer loop
vertex -19.430702 -3.653886 2.110592
vertex -11.120232 -3.653886 14.548150
vertex 3.550900 -3.653886 17.466429
endloop
endfacet
facet normal 0.000000 1.000000 -0.000000
outer loop
vertex -4.074847 -3.653886 -20.871004
vertex -16.512409 -3.653886 -12.560536
vertex -19.430702 -3.653886 2.110592
endloop
endfacet
facet normal 0.000000 1.000000 0.000000
outer loop
vertex -4.074847 -3.653886 -20.871004
vertex 3.550900 -3.653886 17.466429
vertex 18.906727 -3.653886 -5.515174
endloop
endfacet
facet normal 0.000000 1.000000 0.000000
outer loop
vertex -4.074847 -3.653886 -20.871004
vertex -19.430702 -3.653886 2.110592
vertex 3.550900 -3.653886 17.466429
endloop
endfacet
endsolid Exported from Blender-2.74 (sub 0)
