solid Exported from Blender-2.74 (sub 0)
facet normal -0.583569 0.655806 -0.478921
outer loop
vertex -13.340393 12.705463 -14.962902
vertex -15.015535 9.994169 -16.634415
vertex -17.627148 9.994169 -13.452143
endloop
endfacet
facet normal -0.583569 0.655806 -0.478921
outer loop
vertex -17.627148 9.994169 -13.452143
vertex -15.657393 12.705464 -12.139621
vertex -13.340393 12.705463 -14.962902
endloop
endfacet
facet normal 0.074013 0.655599 -0.751473
outer loop
vertex 3.468435 12.705463 -20.061829
vertex 3.930604 9.994169 -22.381691
vertex -0.166294 9.994169 -22.785192
endloop
endfacet
facet normal 0.074012 0.655599 -0.751474
outer loop
vertex -0.166294 9.994169 -22.785192
vertex -0.166293 12.705463 -20.419809
vertex 3.468435 12.705463 -20.061829
endloop
endfacet
facet normal -0.471396 0.000000 0.881922
outer loop
vertex -8.202623 5.564111 17.616278
vertex -8.202623 9.994172 17.616278
vertex -11.833246 9.994172 15.675672
endloop
endfacet
facet normal -0.471397 0.000000 0.881921
outer loop
vertex -11.833246 9.994172 15.675672
vertex -11.833246 5.564110 15.675672
vertex -8.202623 5.564111 17.616278
endloop
endfacet
facet normal -0.583078 0.656535 0.478520
outer loop
vertex -15.657379 12.705466 8.562008
vertex -17.627134 9.994171 9.881784
vertex -15.015514 9.994172 13.064053
endloop
endfacet
facet normal -0.583078 0.656536 0.478520
outer loop
vertex -15.015514 9.994172 13.064053
vertex -13.340374 12.705466 11.385284
vertex -15.657379 12.705466 8.562008
endloop
endfacet
facet normal -0.665717 0.655899 -0.355833
outer loop
vertex -15.657393 12.705464 -12.139621
vertex -17.627148 9.994169 -13.452143
vertex -19.567755 9.994170 -9.821513
endloop
endfacet
facet normal -0.665717 0.655900 -0.355832
outer loop
vertex -19.567755 9.994170 -9.821513
vertex -17.379078 12.705464 -8.918564
vertex -15.657393 12.705464 -12.139621
endloop
endfacet
facet normal -0.478475 0.656615 0.583024
outer loop
vertex -13.340374 12.705466 11.385284
vertex -15.015514 9.994172 13.064053
vertex -11.833246 9.994172 15.675672
endloop
endfacet
facet normal -0.478475 0.656616 0.583024
outer loop
vertex -11.833246 9.994172 15.675672
vertex -10.517096 12.705466 13.702285
vertex -13.340374 12.705466 11.385284
endloop
endfacet
facet normal 0.224241 0.935445 0.273238
outer loop
vertex 6.316358 18.031853 7.913125
vertex 8.084551 18.031853 6.462007
vertex 5.203342 19.564110 3.580799
endloop
endfacet
facet normal 0.224241 0.935445 0.273238
outer loop
vertex 5.203342 19.564110 3.580799
vertex 4.052605 19.564110 4.525184
vertex 6.316358 18.031853 7.913125
endloop
endfacet
facet normal -0.224242 0.935445 -0.273237
outer loop
vertex -4.385169 19.564108 -8.102818
vertex -6.648922 18.031851 -11.490759
vertex -8.417114 18.031851 -10.039635
endloop
endfacet
facet normal -0.224240 0.935444 -0.273241
outer loop
vertex -8.417114 18.031851 -10.039635
vertex -5.535904 19.564110 -7.158431
vertex -4.385169 19.564108 -8.102818
endloop
endfacet
facet normal -0.166626 0.935445 0.311736
outer loop
vertex -6.648908 18.031853 7.913125
vertex -4.631591 18.031853 8.991404
vertex -3.072294 19.564110 5.226925
endloop
endfacet
facet normal -0.166626 0.935445 0.311735
outer loop
vertex -3.072294 19.564110 5.226925
vertex -4.385159 19.564110 4.525184
vertex -6.648908 18.031853 7.913125
endloop
endfacet
facet normal -0.102608 0.935445 0.338253
outer loop
vertex -4.631591 18.031853 8.991404
vertex -2.442674 18.031853 9.655404
vertex -1.647752 19.564110 5.659055
endloop
endfacet
facet normal -0.102608 0.935445 0.338252
outer loop
vertex -1.647752 19.564110 5.659055
vertex -3.072294 19.564110 5.226925
vertex -4.631591 18.031853 8.991404
endloop
endfacet
facet normal -0.034647 0.935444 0.351771
outer loop
vertex -1.647752 19.564110 5.659055
vertex -2.442674 18.031853 9.655404
vertex -0.166277 18.031853 9.879613
endloop
endfacet
facet normal -0.034647 0.935445 0.351771
outer loop
vertex -0.166277 18.031853 9.879613
vertex -0.166278 19.564110 5.804969
vertex -1.647752 19.564110 5.659055
endloop
endfacet
facet normal 0.751027 0.656115 -0.073970
outer loop
vertex 18.464720 12.705465 -1.788825
vertex 20.833727 9.994170 -1.785199
vertex 20.430216 9.994170 -5.882098
endloop
endfacet
facet normal 0.751027 0.656115 -0.073970
outer loop
vertex 20.430216 9.994170 -5.882098
vertex 18.106728 12.705465 -5.423553
vertex 18.464720 12.705465 -1.788825
endloop
endfacet
facet normal 0.034647 0.935445 0.351771
outer loop
vertex -0.166278 19.564110 5.804969
vertex -0.166277 18.031853 9.879613
vertex 2.110121 18.031853 9.655404
endloop
endfacet
facet normal 0.034647 0.935444 0.351772
outer loop
vertex 2.110121 18.031853 9.655404
vertex 1.315197 19.564110 5.659056
vertex -0.166278 19.564110 5.804969
endloop
endfacet
facet normal -0.429407 0.736095 0.523234
outer loop
vertex -13.340374 12.705466 11.385284
vertex -10.517096 12.705466 13.702285
vertex -8.404263 16.185686 10.540204
endloop
endfacet
facet normal -0.429406 0.736095 0.523235
outer loop
vertex -8.404263 16.185686 10.540204
vertex -10.651249 16.185686 8.696155
vertex -13.340374 12.705466 11.385284
endloop
endfacet
facet normal -0.098016 0.000000 -0.995185
outer loop
vertex -4.263193 9.994169 -22.381685
vertex -0.166294 9.994169 -22.785192
vertex -0.166294 5.564107 -22.785192
endloop
endfacet
facet normal -0.098017 0.000000 -0.995185
outer loop
vertex -0.166294 5.564107 -22.785192
vertex -4.263193 5.564107 -22.381685
vertex -4.263193 9.994169 -22.381685
endloop
endfacet
facet normal 0.478966 0.655727 -0.583622
outer loop
vertex 13.007816 12.705463 -14.962932
vertex 14.682955 9.994169 -16.634447
vertex 11.500687 9.994169 -19.246065
endloop
endfacet
facet normal 0.478966 0.655726 -0.583622
outer loop
vertex 11.500687 9.994169 -19.246065
vertex 10.184540 12.705463 -17.279934
vertex 13.007816 12.705463 -14.962932
endloop
endfacet
facet normal -0.523235 0.736095 -0.429406
outer loop
vertex -10.651262 16.185684 -12.273779
vertex -13.340393 12.705463 -14.962902
vertex -15.657393 12.705464 -12.139621
endloop
endfacet
facet normal -0.523234 0.736095 -0.429407
outer loop
vertex -15.657393 12.705464 -12.139621
vertex -12.495312 16.185684 -10.026793
vertex -10.651262 16.185684 -12.273779
endloop
endfacet
facet normal 0.166625 0.935445 -0.311735
outer loop
vertex 4.052601 19.564108 -8.102826
vertex 6.316350 18.031851 -11.490771
vertex 4.299030 18.031851 -12.569046
endloop
endfacet
facet normal 0.166626 0.935445 -0.311736
outer loop
vertex 4.299030 18.031851 -12.569046
vertex 2.739734 19.564108 -8.804565
vertex 4.052601 19.564108 -8.102826
endloop
endfacet
facet normal 0.391388 0.862347 0.321204
outer loop
vertex 8.084551 18.031853 6.462007
vertex 10.318699 16.185686 8.696155
vertex 12.162750 16.185686 6.449170
endloop
endfacet
facet normal 0.391389 0.862347 0.321204
outer loop
vertex 12.162750 16.185686 6.449170
vertex 9.535671 18.031853 4.693813
vertex 8.084551 18.031853 6.462007
endloop
endfacet
facet normal 0.049628 0.862348 0.503879
outer loop
vertex -0.166276 16.185686 13.039173
vertex 2.726521 16.185686 12.754257
vertex 2.110121 18.031853 9.655404
endloop
endfacet
facet normal 0.049629 0.862347 0.503880
outer loop
vertex 2.110121 18.031853 9.655404
vertex -0.166277 18.031853 9.879613
vertex -0.166276 16.185686 13.039173
endloop
endfacet
facet normal 0.429407 0.736095 -0.523234
outer loop
vertex 10.318691 16.185684 -12.273802
vertex 13.007816 12.705463 -14.962932
vertex 10.184540 12.705463 -17.279934
endloop
endfacet
facet normal 0.429406 0.736095 -0.523234
outer loop
vertex 10.184540 12.705463 -17.279934
vertex 8.071707 16.185684 -14.117849
vertex 10.318691 16.185684 -12.273802
endloop
endfacet
facet normal 0.722257 0.656004 -0.219095
outer loop
vertex 18.106728 12.705465 -5.423553
vertex 20.430216 9.994170 -5.882098
vertex 19.235191 9.994170 -9.821555
endloop
endfacet
facet normal 0.722258 0.656004 -0.219095
outer loop
vertex 19.235191 9.994170 -9.821555
vertex 17.046516 12.705464 -8.918600
vertex 18.106728 12.705465 -5.423553
endloop
endfacet
facet normal -0.049628 0.862347 0.503879
outer loop
vertex -2.442674 18.031853 9.655404
vertex -3.059073 16.185686 12.754253
vertex -0.166276 16.185686 13.039173
endloop
endfacet
facet normal -0.049629 0.862347 0.503880
outer loop
vertex -0.166276 16.185686 13.039173
vertex -0.166277 18.031853 9.879613
vertex -2.442674 18.031853 9.655404
endloop
endfacet
facet normal 0.446532 0.862348 -0.238676
outer loop
vertex 10.613945 18.031851 -6.254139
vertex 13.532999 16.185684 -7.463252
vertex 12.162745 16.185684 -10.026817
endloop
endfacet
facet normal 0.446532 0.862347 -0.238676
outer loop
vertex 12.162745 16.185684 -10.026817
vertex 9.535666 18.031851 -8.271457
vertex 10.613945 18.031851 -6.254139
endloop
endfacet
facet normal -0.321205 0.862347 -0.391389
outer loop
vertex -8.404282 16.185684 -14.117834
vertex -10.651262 16.185684 -12.273779
vertex -8.417114 18.031851 -10.039635
endloop
endfacet
facet normal -0.321205 0.862347 -0.391388
outer loop
vertex -8.417114 18.031851 -10.039635
vertex -6.648922 18.031851 -11.490759
vertex -8.404282 16.185684 -14.117834
endloop
endfacet
facet normal 0.146976 0.862348 0.484515
outer loop
vertex 2.726521 16.185686 12.754257
vertex 5.508150 16.185686 11.910460
vertex 4.299038 18.031853 8.991404
endloop
endfacet
facet normal 0.146976 0.862347 0.484515
outer loop
vertex 4.299038 18.031853 8.991404
vertex 2.110121 18.031853 9.655404
vertex 2.726521 16.185686 12.754257
endloop
endfacet
facet normal 0.634393 0.000000 0.773011
outer loop
vertex 14.682970 5.564110 13.064051
vertex 14.682970 9.994172 13.064051
vertex 11.500700 9.994172 15.675672
endloop
endfacet
facet normal 0.634393 0.000000 0.773011
outer loop
vertex 11.500700 9.994172 15.675672
vertex 11.500700 5.564110 15.675672
vertex 14.682970 5.564110 13.064051
endloop
endfacet
facet normal 0.000000 -1.000000 0.000000
outer loop
vertex -20.762764 5.564109 2.311707
vertex -20.762772 5.564108 -5.882056
vertex -17.627148 5.564108 -13.452143
endloop
endfacet
facet normal -0.750930 0.656228 0.073960
outer loop
vertex -18.797268 12.705465 -1.788818
vertex -21.166273 9.994170 -1.785191
vertex -20.762764 9.994171 2.311706
endloop
endfacet
facet normal -0.750930 0.656227 0.073960
outer loop
vertex -20.762764 9.994171 2.311706
vertex -18.439280 12.705465 1.845908
vertex -18.797268 12.705465 -1.788818
endloop
endfacet
facet normal 0.196487 0.736095 0.647732
outer loop
vertex 3.468451 12.705467 16.484184
vertex 6.963497 12.705466 15.423974
vertex 5.508150 16.185686 11.910460
endloop
endfacet
facet normal 0.196488 0.736095 0.647732
outer loop
vertex 5.508150 16.185686 11.910460
vertex 2.726521 16.185686 12.754257
vertex 3.468451 12.705467 16.484184
endloop
endfacet
facet normal 0.503879 0.862347 0.049628
outer loop
vertex 11.277950 18.031853 0.487576
vertex 14.376799 16.185686 1.103975
vertex 14.661716 16.185684 -1.788824
endloop
endfacet
facet normal 0.503880 0.862347 0.049628
outer loop
vertex 14.661716 16.185684 -1.788824
vertex 11.502155 18.031853 -1.788823
vertex 11.277950 18.031853 0.487576
endloop
endfacet
facet normal 0.523234 0.736095 0.429407
outer loop
vertex 13.007828 12.705466 11.385283
vertex 15.324831 12.705466 8.562006
vertex 12.162750 16.185686 6.449170
endloop
endfacet
facet normal 0.523233 0.736096 0.429407
outer loop
vertex 12.162750 16.185686 6.449170
vertex 10.318699 16.185686 8.696155
vertex 13.007828 12.705466 11.385283
endloop
endfacet
facet normal 0.066346 0.736096 0.673618
outer loop
vertex -0.166276 16.185686 13.039173
vertex -0.166275 12.705467 16.842176
vertex 3.468451 12.705467 16.484184
endloop
endfacet
facet normal 0.066346 0.736095 0.673619
outer loop
vertex 3.468451 12.705467 16.484184
vertex 2.726521 16.185686 12.754257
vertex -0.166276 16.185686 13.039173
endloop
endfacet
facet normal 0.166626 0.935445 0.311735
outer loop
vertex 2.739739 19.564110 5.226925
vertex 4.299038 18.031853 8.991404
vertex 6.316358 18.031853 7.913125
endloop
endfacet
facet normal 0.166626 0.935444 0.311737
outer loop
vertex 6.316358 18.031853 7.913125
vertex 4.052605 19.564110 4.525184
vertex 2.739739 19.564110 5.226925
endloop
endfacet
facet normal -0.146976 0.862347 0.484515
outer loop
vertex -4.631591 18.031853 8.991404
vertex -5.840701 16.185686 11.910457
vertex -3.059073 16.185686 12.754253
endloop
endfacet
facet normal -0.146976 0.862347 0.484516
outer loop
vertex -3.059073 16.185686 12.754253
vertex -2.442674 18.031853 9.655404
vertex -4.631591 18.031853 8.991404
endloop
endfacet
facet normal 0.066344 0.736095 -0.673619
outer loop
vertex 2.726508 16.185684 -16.331900
vertex 3.468435 12.705463 -20.061829
vertex -0.166293 12.705463 -20.419809
endloop
endfacet
facet normal 0.066344 0.736095 -0.673619
outer loop
vertex -0.166293 12.705463 -20.419809
vertex -0.166290 16.185684 -16.616808
vertex 2.726508 16.185684 -16.331900
endloop
endfacet
facet normal 0.484516 0.862347 -0.146976
outer loop
vertex 11.277950 18.031853 -4.065222
vertex 14.376799 16.185684 -4.681623
vertex 13.532999 16.185684 -7.463252
endloop
endfacet
facet normal 0.484515 0.862347 -0.146978
outer loop
vertex 13.532999 16.185684 -7.463252
vertex 10.613945 18.031851 -6.254139
vertex 11.277950 18.031853 -4.065222
endloop
endfacet
facet normal 0.446532 0.862347 0.238676
outer loop
vertex 9.535671 18.031853 4.693813
vertex 12.162750 16.185686 6.449170
vertex 13.533001 16.185686 3.885606
endloop
endfacet
facet normal 0.446532 0.862347 0.238676
outer loop
vertex 13.533001 16.185686 3.885606
vertex 10.613949 18.031853 2.676494
vertex 9.535671 18.031853 4.693813
endloop
endfacet
facet normal -0.503880 0.862347 0.049627
outer loop
vertex -11.834709 18.031853 -1.788818
vertex -14.994267 16.185684 -1.788818
vertex -14.709351 16.185686 1.103980
endloop
endfacet
facet normal -0.503879 0.862347 0.049628
outer loop
vertex -14.709351 16.185686 1.103980
vertex -11.610502 18.031853 0.487580
vertex -11.834709 18.031853 -1.788818
endloop
endfacet
facet normal -0.311736 0.935445 0.166626
outer loop
vertex -7.182024 19.564110 1.117199
vertex -10.946503 18.031853 2.676497
vertex -9.868225 18.031853 4.693814
endloop
endfacet
facet normal -0.311735 0.935445 0.166627
outer loop
vertex -9.868225 18.031853 4.693814
vertex -6.480282 19.564110 2.430063
vertex -7.182024 19.564110 1.117199
endloop
endfacet
facet normal 0.647732 0.736095 -0.196487
outer loop
vertex 14.376799 16.185684 -4.681623
vertex 18.106728 12.705465 -5.423553
vertex 17.046516 12.705464 -8.918600
endloop
endfacet
facet normal 0.647732 0.736095 -0.196487
outer loop
vertex 17.046516 12.705464 -8.918600
vertex 13.532999 16.185684 -7.463252
vertex 14.376799 16.185684 -4.681623
endloop
endfacet
facet normal 0.321204 0.862348 0.391388
outer loop
vertex 6.316358 18.031853 7.913125
vertex 8.071716 16.185686 10.540204
vertex 10.318699 16.185686 8.696155
endloop
endfacet
facet normal 0.321204 0.862347 0.391389
outer loop
vertex 10.318699 16.185686 8.696155
vertex 8.084551 18.031853 6.462007
vertex 6.316358 18.031853 7.913125
endloop
endfacet
facet normal 0.596953 0.736095 0.319078
outer loop
vertex 12.162750 16.185686 6.449170
vertex 15.324831 12.705466 8.562006
vertex 17.046518 12.705465 5.340951
endloop
endfacet
facet normal 0.596954 0.736095 0.319077
outer loop
vertex 17.046518 12.705465 5.340951
vertex 13.533001 16.185686 3.885606
vertex 12.162750 16.185686 6.449170
endloop
endfacet
facet normal 0.523234 0.736095 -0.429407
outer loop
vertex 12.162745 16.185684 -10.026817
vertex 15.324825 12.705464 -12.139652
vertex 13.007816 12.705463 -14.962932
endloop
endfacet
facet normal 0.523233 0.736095 -0.429407
outer loop
vertex 13.007816 12.705463 -14.962932
vertex 10.318691 16.185684 -12.273802
vertex 12.162745 16.185684 -10.026817
endloop
endfacet
facet normal -0.273238 0.935445 0.224242
outer loop
vertex -9.868225 18.031853 4.693814
vertex -8.417105 18.031853 6.462007
vertex -5.535898 19.564110 3.580799
endloop
endfacet
facet normal -0.273238 0.935445 0.224241
outer loop
vertex -5.535898 19.564110 3.580799
vertex -6.480282 19.564110 2.430063
vertex -9.868225 18.031853 4.693814
endloop
endfacet
facet normal 0.471395 0.000000 -0.881922
outer loop
vertex 7.870060 9.994169 -21.186668
vertex 11.500687 9.994169 -19.246065
vertex 11.500687 5.564107 -19.246065
endloop
endfacet
facet normal 0.471396 0.000000 -0.881922
outer loop
vertex 11.500687 5.564107 -19.246065
vertex 7.870060 5.564107 -21.186668
vertex 7.870060 9.994169 -21.186668
endloop
endfacet
facet normal -0.634395 0.000000 -0.773009
outer loop
vertex -15.015535 5.564107 -16.634415
vertex -15.015535 9.994169 -16.634415
vertex -11.833271 9.994169 -19.246044
endloop
endfacet
facet normal -0.634395 0.000000 -0.773009
outer loop
vertex -11.833271 9.994169 -19.246044
vertex -11.833271 5.564107 -19.246044
vertex -15.015535 5.564107 -16.634415
endloop
endfacet
facet normal -0.000000 -1.000000 0.000000
outer loop
vertex 3.930621 5.564111 18.811295
vertex -20.762764 5.564109 2.311707
vertex 20.430216 5.564108 -5.882098
endloop
endfacet
facet normal -0.000000 -1.000000 0.000000
outer loop
vertex 20.430216 5.564108 -5.882098
vertex 17.294590 5.564110 9.881781
vertex 3.930621 5.564111 18.811295
endloop
endfacet
facet normal -0.773011 0.000000 0.634393
outer loop
vertex -15.015514 5.564110 13.064053
vertex -15.015514 9.994172 13.064053
vertex -17.627134 9.994171 9.881784
endloop
endfacet
facet normal -0.773010 0.000000 0.634393
outer loop
vertex -17.627134 9.994171 9.881784
vertex -17.627134 5.564110 9.881784
vertex -15.015514 5.564110 13.064053
endloop
endfacet
facet normal 0.956940 -0.000001 0.290285
outer loop
vertex 20.430216 5.564109 2.311700
vertex 20.430216 9.994171 2.311700
vertex 19.235195 9.994171 6.251156
endloop
endfacet
facet normal 0.956940 0.000000 0.290285
outer loop
vertex 19.235195 9.994171 6.251156
vertex 19.235195 5.564109 6.251156
vertex 20.430216 5.564109 2.311700
endloop
endfacet
facet normal -0.224241 0.935445 0.273239
outer loop
vertex -5.535898 19.564110 3.580799
vertex -8.417105 18.031853 6.462007
vertex -6.648908 18.031853 7.913125
endloop
endfacet
facet normal -0.224241 0.935445 0.273239
outer loop
vertex -6.648908 18.031853 7.913125
vertex -4.385159 19.564110 4.525184
vertex -5.535898 19.564110 3.580799
endloop
endfacet
facet normal -0.351771 0.935445 -0.034646
outer loop
vertex -7.614156 19.564110 -3.270282
vertex -11.610508 18.031853 -4.065198
vertex -11.834709 18.031853 -1.788818
endloop
endfacet
facet normal -0.351771 0.935445 -0.034645
outer loop
vertex -11.834709 18.031853 -1.788818
vertex -7.760067 19.564110 -1.788818
vertex -7.614156 19.564110 -3.270282
endloop
endfacet
facet normal -0.196488 0.736095 -0.647732
outer loop
vertex -3.059089 16.185684 -16.331894
vertex -3.801022 12.705463 -20.061821
vertex -7.296066 12.705463 -19.001606
endloop
endfacet
facet normal -0.196489 0.736095 -0.647732
outer loop
vertex -7.296066 12.705463 -19.001606
vertex -5.840717 16.185684 -15.488091
vertex -3.059089 16.185684 -16.331894
endloop
endfacet
facet normal 0.000000 1.000000 -0.000001
outer loop
vertex -7.182027 19.564110 -4.694824
vertex -7.614156 19.564110 -3.270282
vertex -7.760067 19.564110 -1.788818
endloop
endfacet
facet normal -0.995185 0.000000 0.098017
outer loop
vertex -20.762764 9.994171 2.311706
vertex -21.166273 9.994170 -1.785191
vertex -21.166273 5.564109 -1.785190
endloop
endfacet
facet normal -0.995185 -0.000000 0.098017
outer loop
vertex -21.166273 5.564109 -1.785190
vertex -20.762764 5.564109 2.311707
vertex -20.762764 9.994171 2.311706
endloop
endfacet
facet normal -0.634393 0.000000 0.773011
outer loop
vertex -11.833246 9.994172 15.675672
vertex -15.015514 9.994172 13.064053
vertex -15.015514 5.564110 13.064053
endloop
endfacet
facet normal -0.634393 0.000000 0.773011
outer loop
vertex -15.015514 5.564110 13.064053
vertex -11.833246 5.564110 15.675672
vertex -11.833246 9.994172 15.675672
endloop
endfacet
facet normal 0.355514 0.656678 0.665120
outer loop
vertex 6.963497 12.705466 15.423974
vertex 7.870077 9.994172 17.616280
vertex 11.500700 9.994172 15.675672
endloop
endfacet
facet normal 0.355514 0.656678 0.665119
outer loop
vertex 11.500700 9.994172 15.675672
vertex 10.184551 12.705466 13.702285
vertex 6.963497 12.705466 15.423974
endloop
endfacet
facet normal -0.647732 0.736095 -0.196487
outer loop
vertex -13.865562 16.185684 -7.463223
vertex -17.379078 12.705464 -8.918564
vertex -18.439285 12.705465 -5.423516
endloop
endfacet
facet normal -0.647732 0.736095 -0.196486
outer loop
vertex -18.439285 12.705465 -5.423516
vertex -14.709356 16.185684 -4.681593
vertex -13.865562 16.185684 -7.463223
endloop
endfacet
facet normal -0.000000 -1.000000 0.000000
outer loop
vertex 17.294590 5.564110 9.881781
vertex 11.500700 5.564110 15.675672
vertex 3.930621 5.564111 18.811295
endloop
endfacet
facet normal -0.102608 0.935444 -0.338253
outer loop
vertex -1.647761 19.564108 -9.236692
vertex -2.442688 18.031851 -13.233042
vertex -4.631604 18.031851 -12.569038
endloop
endfacet
facet normal -0.102608 0.935445 -0.338252
outer loop
vertex -4.631604 18.031851 -12.569038
vertex -3.072303 19.564108 -8.804561
vertex -1.647761 19.564108 -9.236692
endloop
endfacet
facet normal 0.219192 0.655620 -0.722577
outer loop
vertex 6.963483 12.705463 -19.001619
vertex 7.870060 9.994169 -21.186668
vertex 3.930604 9.994169 -22.381691
endloop
endfacet
facet normal 0.219191 0.655621 -0.722576
outer loop
vertex 3.930604 9.994169 -22.381691
vertex 3.468435 12.705463 -20.061829
vertex 6.963483 12.705463 -19.001619
endloop
endfacet
facet normal 0.273238 0.935445 0.224240
outer loop
vertex 5.203342 19.564110 3.580799
vertex 8.084551 18.031853 6.462007
vertex 9.535671 18.031853 4.693813
endloop
endfacet
facet normal 0.273238 0.935444 0.224242
outer loop
vertex 9.535671 18.031853 4.693813
vertex 6.147727 19.564110 2.430062
vertex 5.203342 19.564110 3.580799
endloop
endfacet
facet normal -0.673618 0.736095 -0.066345
outer loop
vertex -14.709356 16.185684 -4.681593
vertex -18.439285 12.705465 -5.423516
vertex -18.797268 12.705465 -1.788818
endloop
endfacet
facet normal -0.673618 0.736095 -0.066345
outer loop
vertex -18.797268 12.705465 -1.788818
vertex -14.994267 16.185684 -1.788818
vertex -14.709356 16.185684 -4.681593
endloop
endfacet
facet normal -0.647732 0.736095 0.196487
outer loop
vertex -14.709351 16.185686 1.103980
vertex -18.439280 12.705465 1.845908
vertex -17.379068 12.705465 5.340957
endloop
endfacet
facet normal -0.647732 0.736095 0.196487
outer loop
vertex -17.379068 12.705465 5.340957
vertex -13.865553 16.185686 3.885610
vertex -14.709351 16.185686 1.103980
endloop
endfacet
facet normal -0.596954 0.736095 -0.319078
outer loop
vertex -12.495312 16.185684 -10.026793
vertex -15.657393 12.705464 -12.139621
vertex -17.379078 12.705464 -8.918564
endloop
endfacet
facet normal -0.596954 0.736095 -0.319077
outer loop
vertex -17.379078 12.705464 -8.918564
vertex -13.865562 16.185684 -7.463223
vertex -12.495312 16.185684 -10.026793
endloop
endfacet
facet normal 0.351771 0.935445 0.034646
outer loop
vertex 11.277950 18.031853 0.487576
vertex 11.502155 18.031853 -1.788823
vertex 7.427511 19.564110 -1.788821
endloop
endfacet
facet normal 0.351771 0.935445 0.034646
outer loop
vertex 7.427511 19.564110 -1.788821
vertex 7.281599 19.564110 -0.307346
vertex 11.277950 18.031853 0.487576
endloop
endfacet
facet normal -0.484516 0.862347 0.146976
outer loop
vertex -11.610502 18.031853 0.487580
vertex -14.709351 16.185686 1.103980
vertex -13.865553 16.185686 3.885610
endloop
endfacet
facet normal -0.484516 0.862347 0.146976
outer loop
vertex -13.865553 16.185686 3.885610
vertex -10.946503 18.031853 2.676497
vertex -11.610502 18.031853 0.487580
endloop
endfacet
facet normal 0.238676 0.862347 0.446532
outer loop
vertex 4.299038 18.031853 8.991404
vertex 5.508150 16.185686 11.910460
vertex 8.071716 16.185686 10.540204
endloop
endfacet
facet normal 0.238676 0.862347 0.446532
outer loop
vertex 8.071716 16.185686 10.540204
vertex 6.316358 18.031853 7.913125
vertex 4.299038 18.031853 8.991404
endloop
endfacet
facet normal 0.647731 0.736096 0.196487
outer loop
vertex 13.533001 16.185686 3.885606
vertex 17.046518 12.705465 5.340951
vertex 18.106731 12.705465 1.845903
endloop
endfacet
facet normal 0.647732 0.736095 0.196487
outer loop
vertex 18.106731 12.705465 1.845903
vertex 14.376799 16.185686 1.103975
vertex 13.533001 16.185686 3.885606
endloop
endfacet
facet normal -0.484516 0.862347 -0.146976
outer loop
vertex -10.946508 18.031851 -6.254116
vertex -13.865562 16.185684 -7.463223
vertex -14.709356 16.185684 -4.681593
endloop
endfacet
facet normal -0.484516 0.862347 -0.146976
outer loop
vertex -14.709356 16.185684 -4.681593
vertex -11.610508 18.031853 -4.065198
vertex -10.946508 18.031851 -6.254116
endloop
endfacet
facet normal -0.391389 0.862347 -0.321204
outer loop
vertex -8.417114 18.031851 -10.039635
vertex -10.651262 16.185684 -12.273779
vertex -12.495312 16.185684 -10.026793
endloop
endfacet
facet normal -0.391389 0.862347 -0.321204
outer loop
vertex -12.495312 16.185684 -10.026793
vertex -9.868233 18.031851 -8.271438
vertex -8.417114 18.031851 -10.039635
endloop
endfacet
facet normal -0.446532 0.862347 0.238676
outer loop
vertex -10.946503 18.031853 2.676497
vertex -13.865553 16.185686 3.885610
vertex -12.495300 16.185686 6.449172
endloop
endfacet
facet normal -0.446532 0.862347 0.238676
outer loop
vertex -12.495300 16.185686 6.449172
vertex -9.868225 18.031853 4.693814
vertex -10.946503 18.031853 2.676497
endloop
endfacet
facet normal -0.503880 0.862347 -0.049627
outer loop
vertex -11.610508 18.031853 -4.065198
vertex -14.709356 16.185684 -4.681593
vertex -14.994267 16.185684 -1.788818
endloop
endfacet
facet normal -0.503880 0.862347 -0.049627
outer loop
vertex -14.994267 16.185684 -1.788818
vertex -11.834709 18.031853 -1.788818
vertex -11.610508 18.031853 -4.065198
endloop
endfacet
facet normal -0.446532 0.862347 -0.238676
outer loop
vertex -9.868233 18.031851 -8.271438
vertex -12.495312 16.185684 -10.026793
vertex -13.865562 16.185684 -7.463223
endloop
endfacet
facet normal -0.446533 0.862347 -0.238675
outer loop
vertex -13.865562 16.185684 -7.463223
vertex -10.946508 18.031851 -6.254116
vertex -9.868233 18.031851 -8.271438
endloop
endfacet
facet normal -0.391389 0.862347 0.321204
outer loop
vertex -9.868225 18.031853 4.693814
vertex -12.495300 16.185686 6.449172
vertex -10.651249 16.185686 8.696155
endloop
endfacet
facet normal -0.391388 0.862347 0.321205
outer loop
vertex -10.651249 16.185686 8.696155
vertex -8.417105 18.031853 6.462007
vertex -9.868225 18.031853 4.693814
endloop
endfacet
facet normal 0.773011 0.000000 0.634393
outer loop
vertex 17.294590 9.994171 9.881781
vertex 14.682970 9.994172 13.064051
vertex 14.682970 5.564110 13.064051
endloop
endfacet
facet normal 0.773011 0.000000 0.634393
outer loop
vertex 14.682970 5.564110 13.064051
vertex 17.294590 5.564110 9.881781
vertex 17.294590 9.994171 9.881781
endloop
endfacet
facet normal 0.000003 1.000000 -0.000018
outer loop
vertex 5.203338 19.564110 -7.158442
vertex 4.052601 19.564108 -8.102826
vertex 2.739734 19.564108 -8.804565
endloop
endfacet
facet normal -0.290284 0.000000 0.956941
outer loop
vertex -4.263170 5.564111 18.811295
vertex -4.263170 9.994172 18.811295
vertex -8.202623 9.994172 17.616278
endloop
endfacet
facet normal -0.290284 0.000000 0.956940
outer loop
vertex -8.202623 9.994172 17.616278
vertex -8.202623 5.564111 17.616278
vertex -4.263170 5.564111 18.811295
endloop
endfacet
facet normal -0.338253 0.935445 -0.102609
outer loop
vertex -7.182027 19.564110 -4.694824
vertex -10.946508 18.031851 -6.254116
vertex -11.610508 18.031853 -4.065198
endloop
endfacet
facet normal -0.338253 0.935445 -0.102607
outer loop
vertex -11.610508 18.031853 -4.065198
vertex -7.614156 19.564110 -3.270282
vertex -7.182027 19.564110 -4.694824
endloop
endfacet
facet normal -0.273239 0.935444 -0.224241
outer loop
vertex -5.535904 19.564110 -7.158431
vertex -8.417114 18.031851 -10.039635
vertex -9.868233 18.031851 -8.271438
endloop
endfacet
facet normal -0.273239 0.935444 -0.224242
outer loop
vertex -9.868233 18.031851 -8.271438
vertex -6.480289 19.564110 -6.007692
vertex -5.535904 19.564110 -7.158431
endloop
endfacet
facet normal -0.290287 0.000000 -0.956940
outer loop
vertex -8.202646 5.564107 -21.186655
vertex -8.202646 9.994169 -21.186655
vertex -4.263193 9.994169 -22.381685
endloop
endfacet
facet normal -0.290287 0.000000 -0.956940
outer loop
vertex -4.263193 9.994169 -22.381685
vertex -4.263193 5.564107 -22.381685
vertex -8.202646 5.564107 -21.186655
endloop
endfacet
facet normal -0.351771 0.935445 0.034647
outer loop
vertex -7.760067 19.564110 -1.788818
vertex -11.834709 18.031853 -1.788818
vertex -11.610502 18.031853 0.487580
endloop
endfacet
facet normal -0.351771 0.935445 0.034646
outer loop
vertex -11.610502 18.031853 0.487580
vertex -7.614153 19.564110 -0.307344
vertex -7.760067 19.564110 -1.788818
endloop
endfacet
facet normal 0.583568 0.655806 -0.478923
outer loop
vertex 15.324825 12.705464 -12.139652
vertex 17.294580 9.994169 -13.452178
vertex 14.682955 9.994169 -16.634447
endloop
endfacet
facet normal 0.583568 0.655806 -0.478923
outer loop
vertex 14.682955 9.994169 -16.634447
vertex 13.007816 12.705463 -14.962932
vertex 15.324825 12.705464 -12.139652
endloop
endfacet
facet normal 0.665301 0.656442 0.355610
outer loop
vertex 15.324831 12.705466 8.562006
vertex 17.294590 9.994171 9.881781
vertex 19.235195 9.994171 6.251156
endloop
endfacet
facet normal 0.665301 0.656442 0.355609
outer loop
vertex 19.235195 9.994171 6.251156
vertex 17.046518 12.705465 5.340951
vertex 15.324831 12.705466 8.562006
endloop
endfacet
facet normal -0.219193 0.655621 -0.722575
outer loop
vertex -3.801022 12.705463 -20.061821
vertex -4.263193 9.994169 -22.381685
vertex -8.202646 9.994169 -21.186655
endloop
endfacet
facet normal -0.219191 0.655621 -0.722577
outer loop
vertex -8.202646 9.994169 -21.186655
vertex -7.296066 12.705463 -19.001606
vertex -3.801022 12.705463 -20.061821
endloop
endfacet
facet normal -0.721981 0.656336 0.219011
outer loop
vertex -18.439280 12.705465 1.845908
vertex -20.762764 9.994171 2.311706
vertex -19.567743 9.994171 6.251162
endloop
endfacet
facet normal -0.721980 0.656338 0.219010
outer loop
vertex -19.567743 9.994171 6.251162
vertex -17.379068 12.705465 5.340957
vertex -18.439280 12.705465 1.845908
endloop
endfacet
facet normal -0.665301 0.656441 0.355611
outer loop
vertex -17.379068 12.705465 5.340957
vertex -19.567743 9.994171 6.251162
vertex -17.627134 9.994171 9.881784
endloop
endfacet
facet normal -0.665301 0.656442 0.355611
outer loop
vertex -17.627134 9.994171 9.881784
vertex -15.657379 12.705466 8.562008
vertex -17.379068 12.705465 5.340957
endloop
endfacet
facet normal 0.311736 0.935445 0.166627
outer loop
vertex 9.535671 18.031853 4.693813
vertex 10.613949 18.031853 2.676494
vertex 6.849470 19.564110 1.117196
endloop
endfacet
facet normal 0.311735 0.935445 0.166626
outer loop
vertex 6.849470 19.564110 1.117196
vertex 6.147727 19.564110 2.430062
vertex 9.535671 18.031853 4.693813
endloop
endfacet
facet normal -0.995185 0.000000 -0.098016
outer loop
vertex -21.166273 9.994170 -1.785191
vertex -20.762772 9.994170 -5.882056
vertex -20.762772 5.564108 -5.882056
endloop
endfacet
facet normal -0.995185 0.000001 -0.098016
outer loop
vertex -20.762772 5.564108 -5.882056
vertex -21.166273 5.564109 -1.785190
vertex -21.166273 9.994170 -1.785191
endloop
endfacet
facet normal -0.751028 0.656114 -0.073969
outer loop
vertex -18.439285 12.705465 -5.423516
vertex -20.762772 9.994170 -5.882056
vertex -21.166273 9.994170 -1.785191
endloop
endfacet
facet normal -0.751027 0.656115 -0.073969
outer loop
vertex -21.166273 9.994170 -1.785191
vertex -18.797268 12.705465 -1.788818
vertex -18.439285 12.705465 -5.423516
endloop
endfacet
facet normal -0.722258 0.656004 -0.219094
outer loop
vertex -17.379078 12.705464 -8.918564
vertex -19.567755 9.994170 -9.821513
vertex -20.762772 9.994170 -5.882056
endloop
endfacet
facet normal -0.722258 0.656004 -0.219094
outer loop
vertex -20.762772 9.994170 -5.882056
vertex -18.439285 12.705465 -5.423516
vertex -17.379078 12.705464 -8.918564
endloop
endfacet
facet normal 0.311736 0.935445 -0.166626
outer loop
vertex 10.613945 18.031851 -6.254139
vertex 9.535666 18.031851 -8.271457
vertex 6.147725 19.564110 -6.007706
endloop
endfacet
facet normal 0.311736 0.935444 -0.166627
outer loop
vertex 6.147725 19.564110 -6.007706
vertex 6.849467 19.564110 -4.694839
vertex 10.613945 18.031851 -6.254139
endloop
endfacet
facet normal -0.074014 0.655599 -0.751473
outer loop
vertex -0.166293 12.705463 -20.419809
vertex -0.166294 9.994169 -22.785192
vertex -4.263193 9.994169 -22.381685
endloop
endfacet
facet normal -0.074013 0.655599 -0.751473
outer loop
vertex -4.263193 9.994169 -22.381685
vertex -3.801022 12.705463 -20.061821
vertex -0.166293 12.705463 -20.419809
endloop
endfacet
facet normal -0.673619 0.736095 0.066346
outer loop
vertex -14.994267 16.185684 -1.788818
vertex -18.797268 12.705465 -1.788818
vertex -18.439280 12.705465 1.845908
endloop
endfacet
facet normal -0.673619 0.736095 0.066345
outer loop
vertex -18.439280 12.705465 1.845908
vertex -14.709351 16.185686 1.103980
vertex -14.994267 16.185684 -1.788818
endloop
endfacet
facet normal 0.338253 0.935445 0.102608
outer loop
vertex 6.849470 19.564110 1.117196
vertex 10.613949 18.031853 2.676494
vertex 11.277950 18.031853 0.487576
endloop
endfacet
facet normal 0.338253 0.935445 0.102607
outer loop
vertex 11.277950 18.031853 0.487576
vertex 7.281599 19.564110 -0.307346
vertex 6.849470 19.564110 1.117196
endloop
endfacet
facet normal -0.000003 1.000000 -0.000009
outer loop
vertex -3.072303 19.564108 -8.804561
vertex -4.385169 19.564108 -8.102818
vertex -5.535904 19.564110 -7.158431
endloop
endfacet
facet normal -0.523234 0.736095 0.429407
outer loop
vertex -12.495300 16.185686 6.449172
vertex -15.657379 12.705466 8.562008
vertex -13.340374 12.705466 11.385284
endloop
endfacet
facet normal -0.523234 0.736095 0.429407
outer loop
vertex -13.340374 12.705466 11.385284
vertex -10.651249 16.185686 8.696155
vertex -12.495300 16.185686 6.449172
endloop
endfacet
facet normal -0.238676 0.862347 -0.446533
outer loop
vertex -4.631604 18.031851 -12.569038
vertex -5.840717 16.185684 -15.488091
vertex -8.404282 16.185684 -14.117834
endloop
endfacet
facet normal -0.238677 0.862347 -0.446531
outer loop
vertex -8.404282 16.185684 -14.117834
vertex -6.648922 18.031851 -11.490759
vertex -4.631604 18.031851 -12.569038
endloop
endfacet
facet normal -0.881922 0.000000 -0.471396
outer loop
vertex -19.567755 9.994170 -9.821513
vertex -17.627148 9.994169 -13.452143
vertex -17.627148 5.564108 -13.452143
endloop
endfacet
facet normal -0.881922 0.000000 -0.471396
outer loop
vertex -17.627148 5.564108 -13.452143
vertex -19.567755 5.564108 -9.821513
vertex -19.567755 9.994170 -9.821513
endloop
endfacet
facet normal 0.146976 0.862347 -0.484516
outer loop
vertex 5.508140 16.185684 -15.488100
vertex 2.726508 16.185684 -16.331900
vertex 2.110111 18.031851 -13.233047
endloop
endfacet
facet normal 0.146977 0.862347 -0.484515
outer loop
vertex 2.110111 18.031851 -13.233047
vertex 4.299030 18.031851 -12.569046
vertex 5.508140 16.185684 -15.488100
endloop
endfacet
facet normal 0.000000 -1.000000 0.000000
outer loop
vertex 20.430216 5.564108 -5.882098
vertex 20.833727 5.564109 -1.785199
vertex 20.430216 5.564109 2.311700
endloop
endfacet
facet normal 0.773010 0.000000 -0.634394
outer loop
vertex 14.682955 5.564107 -16.634447
vertex 14.682955 9.994169 -16.634447
vertex 17.294580 9.994169 -13.452178
endloop
endfacet
facet normal 0.773010 0.000000 -0.634394
outer loop
vertex 17.294580 9.994169 -13.452178
vertex 17.294580 5.564108 -13.452178
vertex 14.682955 5.564107 -16.634447
endloop
endfacet
facet normal -0.066346 0.736095 0.673618
outer loop
vertex -3.059073 16.185686 12.754253
vertex -3.801000 12.705467 16.484182
vertex -0.166275 12.705467 16.842176
endloop
endfacet
facet normal -0.066347 0.736095 0.673618
outer loop
vertex -0.166275 12.705467 16.842176
vertex -0.166276 16.185686 13.039173
vertex -3.059073 16.185686 12.754253
endloop
endfacet
facet normal 0.000000 -1.000000 0.000000
outer loop
vertex 11.500687 5.564107 -19.246065
vertex 17.294580 5.564108 -13.452178
vertex 20.430216 5.564108 -5.882098
endloop
endfacet
facet normal 0.049627 0.862347 -0.503879
outer loop
vertex 2.110111 18.031851 -13.233047
vertex 2.726508 16.185684 -16.331900
vertex -0.166290 16.185684 -16.616808
endloop
endfacet
facet normal 0.049626 0.862347 -0.503879
outer loop
vertex -0.166290 16.185684 -16.616808
vertex -0.166288 18.031851 -13.457248
vertex 2.110111 18.031851 -13.233047
endloop
endfacet
facet normal 0.471397 0.000000 0.881921
outer loop
vertex 11.500700 9.994172 15.675672
vertex 7.870077 9.994172 17.616280
vertex 7.870077 5.564111 17.616280
endloop
endfacet
facet normal 0.471397 0.000000 0.881921
outer loop
vertex 7.870077 5.564111 17.616280
vertex 11.500700 5.564110 15.675672
vertex 11.500700 9.994172 15.675672
endloop
endfacet
facet normal 0.750930 0.656227 0.073960
outer loop
vertex 18.106731 12.705465 1.845903
vertex 20.430216 9.994171 2.311700
vertex 20.833727 9.994170 -1.785199
endloop
endfacet
facet normal 0.750929 0.656228 0.073960
outer loop
vertex 20.833727 9.994170 -1.785199
vertex 18.464720 12.705465 -1.788825
vertex 18.106731 12.705465 1.845903
endloop
endfacet
facet normal -0.956940 0.000000 0.290285
outer loop
vertex -19.567743 9.994171 6.251162
vertex -20.762764 9.994171 2.311706
vertex -20.762764 5.564109 2.311707
endloop
endfacet
facet normal -0.956940 0.000000 0.290285
outer loop
vertex -20.762764 5.564109 2.311707
vertex -19.567743 5.564109 6.251162
vertex -19.567743 9.994171 6.251162
endloop
endfacet
facet normal -0.338253 0.935445 0.102607
outer loop
vertex -7.614153 19.564110 -0.307344
vertex -11.610502 18.031853 0.487580
vertex -10.946503 18.031853 2.676497
endloop
endfacet
facet normal -0.338253 0.935445 0.102607
outer loop
vertex -10.946503 18.031853 2.676497
vertex -7.182024 19.564110 1.117199
vertex -7.614153 19.564110 -0.307344
endloop
endfacet
facet normal -0.478967 0.655727 -0.583620
outer loop
vertex -10.517118 12.705463 -17.279913
vertex -11.833271 9.994169 -19.246044
vertex -15.015535 9.994169 -16.634415
endloop
endfacet
facet normal -0.478967 0.655726 -0.583621
outer loop
vertex -15.015535 9.994169 -16.634415
vertex -13.340393 12.705463 -14.962902
vertex -10.517118 12.705463 -17.279913
endloop
endfacet
facet normal 0.596953 0.736095 -0.319079
outer loop
vertex 17.046516 12.705464 -8.918600
vertex 15.324825 12.705464 -12.139652
vertex 12.162745 16.185684 -10.026817
endloop
endfacet
facet normal 0.596953 0.736095 -0.319078
outer loop
vertex 12.162745 16.185684 -10.026817
vertex 13.532999 16.185684 -7.463252
vertex 17.046516 12.705464 -8.918600
endloop
endfacet
facet normal 0.000000 -1.000000 0.000000
outer loop
vertex -11.833271 5.564107 -19.246044
vertex -8.202646 5.564107 -21.186655
vertex -4.263193 5.564107 -22.381685
endloop
endfacet
facet normal 0.102608 0.935445 0.338253
outer loop
vertex 1.315197 19.564110 5.659056
vertex 2.110121 18.031853 9.655404
vertex 4.299038 18.031853 8.991404
endloop
endfacet
facet normal 0.102608 0.935445 0.338253
outer loop
vertex 4.299038 18.031853 8.991404
vertex 2.739739 19.564110 5.226925
vertex 1.315197 19.564110 5.659056
endloop
endfacet
facet normal 0.196487 0.736095 -0.647732
outer loop
vertex 5.508140 16.185684 -15.488100
vertex 6.963483 12.705463 -19.001619
vertex 3.468435 12.705463 -20.061829
endloop
endfacet
facet normal 0.196488 0.736095 -0.647732
outer loop
vertex 3.468435 12.705463 -20.061829
vertex 2.726508 16.185684 -16.331900
vertex 5.508140 16.185684 -15.488100
endloop
endfacet
facet normal 0.956940 0.000000 -0.290285
outer loop
vertex 19.235191 5.564108 -9.821555
vertex 19.235191 9.994170 -9.821555
vertex 20.430216 9.994170 -5.882098
endloop
endfacet
facet normal 0.956940 0.000000 -0.290285
outer loop
vertex 20.430216 9.994170 -5.882098
vertex 20.430216 5.564108 -5.882098
vertex 19.235191 5.564108 -9.821555
endloop
endfacet
facet normal 0.000000 1.000000 0.000004
outer loop
vertex -7.760067 19.564110 -1.788818
vertex -7.614153 19.564110 -0.307344
vertex -7.182024 19.564110 1.117199
endloop
endfacet
facet normal 0.000000 1.000000 0.000000
outer loop
vertex -5.535898 19.564110 3.580799
vertex -3.072294 19.564110 5.226925
vertex -0.166278 19.564110 5.804969
endloop
endfacet
facet normal -0.146977 0.862348 -0.484515
outer loop
vertex -2.442688 18.031851 -13.233042
vertex -3.059089 16.185684 -16.331894
vertex -5.840717 16.185684 -15.488091
endloop
endfacet
facet normal -0.146977 0.862348 -0.484515
outer loop
vertex -5.840717 16.185684 -15.488091
vertex -4.631604 18.031851 -12.569038
vertex -2.442688 18.031851 -13.233042
endloop
endfacet
facet normal -0.000000 1.000000 0.000000
outer loop
vertex 7.427511 19.564110 -1.788821
vertex 5.203338 19.564110 -7.158442
vertex -0.166285 19.564108 -9.382605
endloop
endfacet
facet normal 0.224241 0.935444 -0.273239
outer loop
vertex 5.203338 19.564110 -7.158442
vertex 8.084545 18.031851 -10.039652
vertex 6.316350 18.031851 -11.490771
endloop
endfacet
facet normal 0.224240 0.935444 -0.273241
outer loop
vertex 6.316350 18.031851 -11.490771
vertex 4.052601 19.564108 -8.102826
vertex 5.203338 19.564110 -7.158442
endloop
endfacet
facet normal 0.000000 1.000000 0.000000
outer loop
vertex 7.427511 19.564110 -1.788821
vertex 6.849467 19.564110 -4.694839
vertex 5.203338 19.564110 -7.158442
endloop
endfacet
facet normal 0.319079 0.736095 0.596953
outer loop
vertex 5.508150 16.185686 11.910460
vertex 6.963497 12.705466 15.423974
vertex 10.184551 12.705466 13.702285
endloop
endfacet
facet normal 0.319078 0.736095 0.596953
outer loop
vertex 10.184551 12.705466 13.702285
vertex 8.071716 16.185686 10.540204
vertex 5.508150 16.185686 11.910460
endloop
endfacet
facet normal -0.238676 0.862347 0.446532
outer loop
vertex -8.404263 16.185686 10.540204
vertex -5.840701 16.185686 11.910457
vertex -4.631591 18.031853 8.991404
endloop
endfacet
facet normal -0.238677 0.862347 0.446532
outer loop
vertex -4.631591 18.031853 8.991404
vertex -6.648908 18.031853 7.913125
vertex -8.404263 16.185686 10.540204
endloop
endfacet
facet normal 0.000000 -1.000000 0.000002
outer loop
vertex 3.930621 5.564111 18.811295
vertex -0.166274 5.564111 19.214808
vertex -4.263170 5.564111 18.811295
endloop
endfacet
facet normal 0.000000 1.000000 0.000001
outer loop
vertex -7.760067 19.564110 -1.788818
vertex -5.535898 19.564110 3.580799
vertex -0.166278 19.564110 5.804969
endloop
endfacet
facet normal 0.000000 1.000000 0.000000
outer loop
vertex -0.166278 19.564110 5.804969
vertex 7.427511 19.564110 -1.788821
vertex -7.760067 19.564110 -1.788818
endloop
endfacet
facet normal 0.000000 1.000000 -0.000018
outer loop
vertex -0.166285 19.564108 -9.382605
vertex -1.647761 19.564108 -9.236692
vertex -3.072303 19.564108 -8.804561
endloop
endfacet
facet normal 0.881921 0.000000 -0.471397
outer loop
vertex 19.235191 5.564108 -9.821555
vertex 17.294580 5.564108 -13.452178
vertex 17.294580 9.994169 -13.452178
endloop
endfacet
facet normal 0.881921 0.000000 -0.471397
outer loop
vertex 17.294580 9.994169 -13.452178
vertex 19.235191 9.994170 -9.821555
vertex 19.235191 5.564108 -9.821555
endloop
endfacet
facet normal 0.321204 0.862347 -0.391389
outer loop
vertex 8.084545 18.031851 -10.039652
vertex 10.318691 16.185684 -12.273802
vertex 8.071707 16.185684 -14.117849
endloop
endfacet
facet normal 0.321204 0.862347 -0.391389
outer loop
vertex 8.071707 16.185684 -14.117849
vertex 6.316350 18.031851 -11.490771
vertex 8.084545 18.031851 -10.039652
endloop
endfacet
facet normal 0.000000 1.000000 -0.000005
outer loop
vertex 5.203338 19.564110 -7.158442
vertex 2.739734 19.564108 -8.804565
vertex -0.166285 19.564108 -9.382605
endloop
endfacet
facet normal 0.673619 0.736095 0.066346
outer loop
vertex 18.106731 12.705465 1.845903
vertex 18.464720 12.705465 -1.788825
vertex 14.661716 16.185684 -1.788824
endloop
endfacet
facet normal 0.673618 0.736095 0.066346
outer loop
vertex 14.661716 16.185684 -1.788824
vertex 14.376799 16.185686 1.103975
vertex 18.106731 12.705465 1.845903
endloop
endfacet
facet normal 0.238676 0.862347 -0.446533
outer loop
vertex 6.316350 18.031851 -11.490771
vertex 8.071707 16.185684 -14.117849
vertex 5.508140 16.185684 -15.488100
endloop
endfacet
facet normal 0.238675 0.862348 -0.446532
outer loop
vertex 5.508140 16.185684 -15.488100
vertex 4.299030 18.031851 -12.569046
vertex 6.316350 18.031851 -11.490771
endloop
endfacet
facet normal 0.000000 -1.000000 0.000002
outer loop
vertex 17.294590 5.564110 9.881781
vertex 14.682970 5.564110 13.064051
vertex 11.500700 5.564110 15.675672
endloop
endfacet
facet normal -0.319078 0.736095 0.596953
outer loop
vertex -10.517096 12.705466 13.702285
vertex -7.296046 12.705466 15.423972
vertex -5.840701 16.185686 11.910457
endloop
endfacet
facet normal -0.319078 0.736095 0.596953
outer loop
vertex -5.840701 16.185686 11.910457
vertex -8.404263 16.185686 10.540204
vertex -10.517096 12.705466 13.702285
endloop
endfacet
facet normal 0.000000 1.000000 -0.000000
outer loop
vertex -0.166285 19.564108 -9.382605
vertex -5.535904 19.564110 -7.158431
vertex -7.760067 19.564110 -1.788818
endloop
endfacet
facet normal -0.000000 1.000000 -0.000000
outer loop
vertex -7.760067 19.564110 -1.788818
vertex 7.427511 19.564110 -1.788821
vertex -0.166285 19.564108 -9.382605
endloop
endfacet
facet normal 0.665716 0.655900 -0.355833
outer loop
vertex 17.046516 12.705464 -8.918600
vertex 19.235191 9.994170 -9.821555
vertex 17.294580 9.994169 -13.452178
endloop
endfacet
facet normal 0.665717 0.655899 -0.355833
outer loop
vertex 17.294580 9.994169 -13.452178
vertex 15.324825 12.705464 -12.139652
vertex 17.046516 12.705464 -8.918600
endloop
endfacet
facet normal 0.673618 0.736096 -0.066346
outer loop
vertex 14.661716 16.185684 -1.788824
vertex 18.464720 12.705465 -1.788825
vertex 18.106728 12.705465 -5.423553
endloop
endfacet
facet normal 0.673618 0.736095 -0.066346
outer loop
vertex 18.106728 12.705465 -5.423553
vertex 14.376799 16.185684 -4.681623
vertex 14.661716 16.185684 -1.788824
endloop
endfacet
facet normal 0.290285 0.000000 -0.956940
outer loop
vertex 3.930604 5.564107 -22.381691
vertex 3.930604 9.994169 -22.381691
vertex 7.870060 9.994169 -21.186668
endloop
endfacet
facet normal 0.290285 0.000000 -0.956940
outer loop
vertex 7.870060 9.994169 -21.186668
vertex 7.870060 5.564107 -21.186668
vertex 3.930604 5.564107 -22.381691
endloop
endfacet
facet normal 0.000000 -1.000000 0.000000
outer loop
vertex -20.762764 5.564109 2.311707
vertex -4.263193 5.564107 -22.381685
vertex 11.500687 5.564107 -19.246065
endloop
endfacet
facet normal -0.000000 -1.000000 0.000000
outer loop
vertex 11.500687 5.564107 -19.246065
vertex 20.430216 5.564108 -5.882098
vertex -20.762764 5.564109 2.311707
endloop
endfacet
facet normal -0.321204 0.862347 0.391389
outer loop
vertex -10.651249 16.185686 8.696155
vertex -8.404263 16.185686 10.540204
vertex -6.648908 18.031853 7.913125
endloop
endfacet
facet normal -0.321204 0.862347 0.391389
outer loop
vertex -6.648908 18.031853 7.913125
vertex -8.417105 18.031853 6.462007
vertex -10.651249 16.185686 8.696155
endloop
endfacet
facet normal 0.338252 0.935445 -0.102609
outer loop
vertex 7.281599 19.564110 -3.270296
vertex 11.277950 18.031853 -4.065222
vertex 10.613945 18.031851 -6.254139
endloop
endfacet
facet normal 0.338253 0.935444 -0.102609
outer loop
vertex 10.613945 18.031851 -6.254139
vertex 6.849467 19.564110 -4.694839
vertex 7.281599 19.564110 -3.270296
endloop
endfacet
facet normal 0.503879 0.862347 -0.049629
outer loop
vertex 11.502155 18.031853 -1.788823
vertex 14.661716 16.185684 -1.788824
vertex 14.376799 16.185684 -4.681623
endloop
endfacet
facet normal 0.503880 0.862347 -0.049627
outer loop
vertex 14.376799 16.185684 -4.681623
vertex 11.277950 18.031853 -4.065222
vertex 11.502155 18.031853 -1.788823
endloop
endfacet
facet normal 0.429407 0.736095 0.523234
outer loop
vertex 8.071716 16.185686 10.540204
vertex 10.184551 12.705466 13.702285
vertex 13.007828 12.705466 11.385283
endloop
endfacet
facet normal 0.429407 0.736095 0.523234
outer loop
vertex 13.007828 12.705466 11.385283
vertex 10.318699 16.185686 8.696155
vertex 8.071716 16.185686 10.540204
endloop
endfacet
facet normal 0.218913 0.656720 0.721662
outer loop
vertex 3.468451 12.705467 16.484184
vertex 3.930621 9.994172 18.811295
vertex 7.870077 9.994172 17.616280
endloop
endfacet
facet normal 0.218913 0.656721 0.721661
outer loop
vertex 7.870077 9.994172 17.616280
vertex 6.963497 12.705466 15.423974
vertex 3.468451 12.705467 16.484184
endloop
endfacet
facet normal 0.000000 1.000000 0.000000
outer loop
vertex 6.849467 19.564110 -4.694839
vertex 6.147725 19.564110 -6.007706
vertex 5.203338 19.564110 -7.158442
endloop
endfacet
facet normal -0.429408 0.736095 -0.523233
outer loop
vertex -8.404282 16.185684 -14.117834
vertex -10.517118 12.705463 -17.279913
vertex -13.340393 12.705463 -14.962902
endloop
endfacet
facet normal -0.429408 0.736095 -0.523233
outer loop
vertex -13.340393 12.705463 -14.962902
vertex -10.651262 16.185684 -12.273779
vertex -8.404282 16.185684 -14.117834
endloop
endfacet
facet normal 0.721979 0.656339 0.219010
outer loop
vertex 17.046518 12.705465 5.340951
vertex 19.235195 9.994171 6.251156
vertex 20.430216 9.994171 2.311700
endloop
endfacet
facet normal 0.721981 0.656337 0.219011
outer loop
vertex 20.430216 9.994171 2.311700
vertex 18.106731 12.705465 1.845903
vertex 17.046518 12.705465 5.340951
endloop
endfacet
facet normal 0.391388 0.862347 -0.321205
outer loop
vertex 9.535666 18.031851 -8.271457
vertex 12.162745 16.185684 -10.026817
vertex 10.318691 16.185684 -12.273802
endloop
endfacet
facet normal 0.391389 0.862347 -0.321204
outer loop
vertex 10.318691 16.185684 -12.273802
vertex 8.084545 18.031851 -10.039652
vertex 9.535666 18.031851 -8.271457
endloop
endfacet
facet normal -0.000001 -1.000000 -0.000001
outer loop
vertex -20.762772 5.564108 -5.882056
vertex -19.567755 5.564108 -9.821513
vertex -17.627148 5.564108 -13.452143
endloop
endfacet
facet normal -0.066345 0.736095 -0.673619
outer loop
vertex -0.166293 12.705463 -20.419809
vertex -3.801022 12.705463 -20.061821
vertex -3.059089 16.185684 -16.331894
endloop
endfacet
facet normal -0.066345 0.736095 -0.673619
outer loop
vertex -3.059089 16.185684 -16.331894
vertex -0.166290 16.185684 -16.616808
vertex -0.166293 12.705463 -20.419809
endloop
endfacet
facet normal -0.034646 0.935445 -0.351771
outer loop
vertex -0.166285 19.564108 -9.382605
vertex -0.166288 18.031851 -13.457248
vertex -2.442688 18.031851 -13.233042
endloop
endfacet
facet normal -0.034646 0.935445 -0.351770
outer loop
vertex -2.442688 18.031851 -13.233042
vertex -1.647761 19.564108 -9.236692
vertex -0.166285 19.564108 -9.382605
endloop
endfacet
facet normal 0.098016 0.000000 -0.995185
outer loop
vertex -0.166294 9.994169 -22.785192
vertex 3.930604 9.994169 -22.381691
vertex 3.930604 5.564107 -22.381691
endloop
endfacet
facet normal 0.098014 0.000000 -0.995185
outer loop
vertex 3.930604 5.564107 -22.381691
vertex -0.166294 5.564107 -22.785192
vertex -0.166294 9.994169 -22.785192
endloop
endfacet
facet normal 0.351771 0.935445 -0.034646
outer loop
vertex 7.427511 19.564110 -1.788821
vertex 11.502155 18.031853 -1.788823
vertex 11.277950 18.031853 -4.065222
endloop
endfacet
facet normal 0.351771 0.935445 -0.034647
outer loop
vertex 11.277950 18.031853 -4.065222
vertex 7.281599 19.564110 -3.270296
vertex 7.427511 19.564110 -1.788821
endloop
endfacet
facet normal -0.073917 0.656742 0.750484
outer loop
vertex -3.801000 12.705467 16.484182
vertex -4.263170 9.994172 18.811295
vertex -0.166274 9.994172 19.214808
endloop
endfacet
facet normal -0.073917 0.656742 0.750484
outer loop
vertex -0.166274 9.994172 19.214808
vertex -0.166275 12.705467 16.842176
vertex -3.801000 12.705467 16.484182
endloop
endfacet
facet normal 0.000000 1.000000 0.000000
outer loop
vertex 6.849470 19.564110 1.117196
vertex 7.281599 19.564110 -0.307346
vertex 7.427511 19.564110 -1.788821
endloop
endfacet
facet normal 0.000000 1.000000 0.000009
outer loop
vertex -5.535898 19.564110 3.580799
vertex -4.385159 19.564110 4.525184
vertex -3.072294 19.564110 5.226925
endloop
endfacet
facet normal 0.273239 0.935444 -0.224242
outer loop
vertex 6.147725 19.564110 -6.007706
vertex 9.535666 18.031851 -8.271457
vertex 8.084545 18.031851 -10.039652
endloop
endfacet
facet normal 0.273239 0.935445 -0.224240
outer loop
vertex 8.084545 18.031851 -10.039652
vertex 5.203338 19.564110 -7.158442
vertex 6.147725 19.564110 -6.007706
endloop
endfacet
facet normal -0.000000 -1.000000 0.000001
outer loop
vertex -11.833246 5.564110 15.675672
vertex -15.015514 5.564110 13.064053
vertex -17.627134 5.564110 9.881784
endloop
endfacet
facet normal 0.000000 1.000000 0.000000
outer loop
vertex -7.760067 19.564110 -1.788818
vertex -7.182024 19.564110 1.117199
vertex -5.535898 19.564110 3.580799
endloop
endfacet
facet normal 0.000000 1.000000 0.000000
outer loop
vertex -0.166278 19.564110 5.804969
vertex 2.739739 19.564110 5.226925
vertex 5.203342 19.564110 3.580799
endloop
endfacet
facet normal -0.000000 -1.000000 0.000000
outer loop
vertex -4.263170 5.564111 18.811295
vertex -8.202623 5.564111 17.616278
vertex -11.833246 5.564110 15.675672
endloop
endfacet
facet normal -0.471396 0.000000 -0.881921
outer loop
vertex -11.833271 9.994169 -19.246044
vertex -8.202646 9.994169 -21.186655
vertex -8.202646 5.564107 -21.186655
endloop
endfacet
facet normal -0.471398 0.000000 -0.881921
outer loop
vertex -8.202646 5.564107 -21.186655
vertex -11.833271 5.564107 -19.246044
vertex -11.833271 9.994169 -19.246044
endloop
endfacet
facet normal 0.000000 1.000000 -0.000001
outer loop
vertex 5.203342 19.564110 3.580799
vertex 6.849470 19.564110 1.117196
vertex 7.427511 19.564110 -1.788821
endloop
endfacet
facet normal -0.000000 1.000000 0.000000
outer loop
vertex -0.166285 19.564108 -9.382605
vertex -3.072303 19.564108 -8.804561
vertex -5.535904 19.564110 -7.158431
endloop
endfacet
facet normal 0.000000 1.000000 0.000002
outer loop
vertex -5.535904 19.564110 -7.158431
vertex -7.182027 19.564110 -4.694824
vertex -7.760067 19.564110 -1.788818
endloop
endfacet
facet normal 0.000000 1.000000 0.000000
outer loop
vertex -0.166278 19.564110 5.804969
vertex 1.315197 19.564110 5.659056
vertex 2.739739 19.564110 5.226925
endloop
endfacet
facet normal 0.000000 1.000000 0.000018
outer loop
vertex 2.739734 19.564108 -8.804565
vertex 1.315190 19.564108 -9.236695
vertex -0.166285 19.564108 -9.382605
endloop
endfacet
facet normal 0.000000 1.000000 0.000000
outer loop
vertex 2.739739 19.564110 5.226925
vertex 4.052605 19.564110 4.525184
vertex 5.203342 19.564110 3.580799
endloop
endfacet
facet normal 0.000000 1.000000 0.000000
outer loop
vertex 7.427511 19.564110 -1.788821
vertex 7.281599 19.564110 -3.270296
vertex 6.849467 19.564110 -4.694839
endloop
endfacet
facet normal 0.000000 1.000000 0.000004
outer loop
vertex 5.203342 19.564110 3.580799
vertex 6.147727 19.564110 2.430062
vertex 6.849470 19.564110 1.117196
endloop
endfacet
facet normal 0.000000 1.000000 0.000009
outer loop
vertex -3.072294 19.564110 5.226925
vertex -1.647752 19.564110 5.659055
vertex -0.166278 19.564110 5.804969
endloop
endfacet
facet normal 0.000000 1.000000 0.000009
outer loop
vertex -7.182024 19.564110 1.117199
vertex -6.480282 19.564110 2.430063
vertex -5.535898 19.564110 3.580799
endloop
endfacet
facet normal 0.034646 0.935445 -0.351770
outer loop
vertex 2.110111 18.031851 -13.233047
vertex -0.166288 18.031851 -13.457248
vertex -0.166285 19.564108 -9.382605
endloop
endfacet
facet normal 0.034646 0.935444 -0.351772
outer loop
vertex -0.166285 19.564108 -9.382605
vertex 1.315190 19.564108 -9.236695
vertex 2.110111 18.031851 -13.233047
endloop
endfacet
facet normal 0.290283 0.000000 0.956941
outer loop
vertex 7.870077 9.994172 17.616280
vertex 3.930621 9.994172 18.811295
vertex 3.930621 5.564111 18.811295
endloop
endfacet
facet normal 0.290283 0.000000 0.956941
outer loop
vertex 3.930621 5.564111 18.811295
vertex 7.870077 5.564111 17.616280
vertex 7.870077 9.994172 17.616280
endloop
endfacet
facet normal 0.634393 0.000000 -0.773011
outer loop
vertex 11.500687 9.994169 -19.246065
vertex 14.682955 9.994169 -16.634447
vertex 14.682955 5.564107 -16.634447
endloop
endfacet
facet normal 0.634393 0.000000 -0.773010
outer loop
vertex 14.682955 5.564107 -16.634447
vertex 11.500687 5.564107 -19.246065
vertex 11.500687 9.994169 -19.246065
endloop
endfacet
facet normal 0.000000 -1.000000 0.000000
outer loop
vertex -11.833246 5.564110 15.675672
vertex -17.627134 5.564110 9.881784
vertex -20.762764 5.564109 2.311707
endloop
endfacet
facet normal 0.319077 0.736095 -0.596953
outer loop
vertex 8.071707 16.185684 -14.117849
vertex 10.184540 12.705463 -17.279934
vertex 6.963483 12.705463 -19.001619
endloop
endfacet
facet normal 0.319077 0.736095 -0.596954
outer loop
vertex 6.963483 12.705463 -19.001619
vertex 5.508140 16.185684 -15.488100
vertex 8.071707 16.185684 -14.117849
endloop
endfacet
facet normal -0.218913 0.656721 0.721661
outer loop
vertex -7.296046 12.705466 15.423972
vertex -8.202623 9.994172 17.616278
vertex -4.263170 9.994172 18.811295
endloop
endfacet
facet normal -0.218914 0.656720 0.721661
outer loop
vertex -4.263170 9.994172 18.811295
vertex -3.801000 12.705467 16.484182
vertex -7.296046 12.705466 15.423972
endloop
endfacet
facet normal -0.773012 0.000000 -0.634392
outer loop
vertex -17.627148 5.564108 -13.452143
vertex -17.627148 9.994169 -13.452143
vertex -15.015535 9.994169 -16.634415
endloop
endfacet
facet normal -0.773012 0.000000 -0.634392
outer loop
vertex -15.015535 9.994169 -16.634415
vertex -15.015535 5.564107 -16.634415
vertex -17.627148 5.564108 -13.452143
endloop
endfacet
facet normal 0.484516 0.862347 0.146976
outer loop
vertex 10.613949 18.031853 2.676494
vertex 13.533001 16.185686 3.885606
vertex 14.376799 16.185686 1.103975
endloop
endfacet
facet normal 0.484515 0.862347 0.146977
outer loop
vertex 14.376799 16.185686 1.103975
vertex 11.277950 18.031853 0.487576
vertex 10.613949 18.031853 2.676494
endloop
endfacet
facet normal -0.319078 0.736095 -0.596953
outer loop
vertex -7.296066 12.705463 -19.001606
vertex -10.517118 12.705463 -17.279913
vertex -8.404282 16.185684 -14.117834
endloop
endfacet
facet normal -0.319079 0.736095 -0.596953
outer loop
vertex -8.404282 16.185684 -14.117834
vertex -5.840717 16.185684 -15.488091
vertex -7.296066 12.705463 -19.001606
endloop
endfacet
facet normal 0.000000 1.000000 0.000000
outer loop
vertex -0.166278 19.564110 5.804969
vertex 5.203342 19.564110 3.580799
vertex 7.427511 19.564110 -1.788821
endloop
endfacet
facet normal 0.478476 0.656615 0.583024
outer loop
vertex 10.184551 12.705466 13.702285
vertex 11.500700 9.994172 15.675672
vertex 14.682970 9.994172 13.064051
endloop
endfacet
facet normal 0.478475 0.656616 0.583024
outer loop
vertex 14.682970 9.994172 13.064051
vertex 13.007828 12.705466 11.385283
vertex 10.184551 12.705466 13.702285
endloop
endfacet
facet normal 0.000001 -1.000000 -0.000000
outer loop
vertex 17.294580 5.564108 -13.452178
vertex 19.235191 5.564108 -9.821555
vertex 20.430216 5.564108 -5.882098
endloop
endfacet
facet normal 0.000000 1.000000 -0.000004
outer loop
vertex -5.535904 19.564110 -7.158431
vertex -6.480289 19.564110 -6.007692
vertex -7.182027 19.564110 -4.694824
endloop
endfacet
facet normal -0.956941 0.000000 -0.290284
outer loop
vertex -20.762772 5.564108 -5.882056
vertex -20.762772 9.994170 -5.882056
vertex -19.567755 9.994170 -9.821513
endloop
endfacet
facet normal -0.956941 0.000000 -0.290284
outer loop
vertex -19.567755 9.994170 -9.821513
vertex -19.567755 5.564108 -9.821513
vertex -20.762772 5.564108 -5.882056
endloop
endfacet
facet normal 0.073917 0.656742 0.750484
outer loop
vertex -0.166275 12.705467 16.842176
vertex -0.166274 9.994172 19.214808
vertex 3.930621 9.994172 18.811295
endloop
endfacet
facet normal 0.073917 0.656742 0.750484
outer loop
vertex 3.930621 9.994172 18.811295
vertex 3.468451 12.705467 16.484184
vertex -0.166275 12.705467 16.842176
endloop
endfacet
facet normal -0.881921 0.000000 0.471397
outer loop
vertex -17.627134 9.994171 9.881784
vertex -19.567743 9.994171 6.251162
vertex -19.567743 5.564109 6.251162
endloop
endfacet
facet normal -0.881921 0.000000 0.471397
outer loop
vertex -19.567743 5.564109 6.251162
vertex -17.627134 5.564110 9.881784
vertex -17.627134 9.994171 9.881784
endloop
endfacet
facet normal -0.000000 -1.000000 0.000000
outer loop
vertex -20.762764 5.564109 2.311707
vertex -21.166273 5.564109 -1.785190
vertex -20.762772 5.564108 -5.882056
endloop
endfacet
facet normal -0.000000 -1.000000 0.000000
outer loop
vertex -17.627148 5.564108 -13.452143
vertex -11.833271 5.564107 -19.246044
vertex -4.263193 5.564107 -22.381685
endloop
endfacet
facet normal -0.000000 -1.000000 -0.000000
outer loop
vertex -20.762764 5.564109 2.311707
vertex -17.627148 5.564108 -13.452143
vertex -4.263193 5.564107 -22.381685
endloop
endfacet
facet normal 0.000000 -1.000000 -0.000001
outer loop
vertex 3.930621 5.564111 18.811295
vertex -4.263170 5.564111 18.811295
vertex -11.833246 5.564110 15.675672
endloop
endfacet
facet normal 0.000000 -1.000000 0.000000
outer loop
vertex 20.430216 5.564108 -5.882098
vertex 20.430216 5.564109 2.311700
vertex 17.294590 5.564110 9.881781
endloop
endfacet
facet normal -0.596953 0.736095 0.319078
outer loop
vertex -13.865553 16.185686 3.885610
vertex -17.379068 12.705465 5.340957
vertex -15.657379 12.705466 8.562008
endloop
endfacet
facet normal -0.596953 0.736095 0.319078
outer loop
vertex -15.657379 12.705466 8.562008
vertex -12.495300 16.185686 6.449172
vertex -13.865553 16.185686 3.885610
endloop
endfacet
facet normal 0.102608 0.935445 -0.338252
outer loop
vertex 4.299030 18.031851 -12.569046
vertex 2.110111 18.031851 -13.233047
vertex 1.315190 19.564108 -9.236695
endloop
endfacet
facet normal 0.102607 0.935445 -0.338253
outer loop
vertex 1.315190 19.564108 -9.236695
vertex 2.739734 19.564108 -8.804565
vertex 4.299030 18.031851 -12.569046
endloop
endfacet
facet normal 0.000000 -1.000000 0.000000
outer loop
vertex -4.263193 5.564107 -22.381685
vertex 3.930604 5.564107 -22.381691
vertex 11.500687 5.564107 -19.246065
endloop
endfacet
facet normal 0.000000 -1.000000 0.000000
outer loop
vertex 3.930621 5.564111 18.811295
vertex -11.833246 5.564110 15.675672
vertex -20.762764 5.564109 2.311707
endloop
endfacet
facet normal -0.196487 0.736095 0.647732
outer loop
vertex -5.840701 16.185686 11.910457
vertex -7.296046 12.705466 15.423972
vertex -3.801000 12.705467 16.484182
endloop
endfacet
facet normal -0.196487 0.736095 0.647732
outer loop
vertex -3.801000 12.705467 16.484182
vertex -3.059073 16.185686 12.754253
vertex -5.840701 16.185686 11.910457
endloop
endfacet
facet normal 0.000000 -1.000000 0.000000
outer loop
vertex 11.500700 5.564110 15.675672
vertex 7.870077 5.564111 17.616280
vertex 3.930621 5.564111 18.811295
endloop
endfacet
facet normal -0.000001 -1.000000 -0.000001
outer loop
vertex 20.430216 5.564109 2.311700
vertex 19.235195 5.564109 6.251156
vertex 17.294590 5.564110 9.881781
endloop
endfacet
facet normal 0.000000 -1.000000 0.000001
outer loop
vertex -17.627148 5.564108 -13.452143
vertex -15.015535 5.564107 -16.634415
vertex -11.833271 5.564107 -19.246044
endloop
endfacet
facet normal 0.000000 -1.000000 0.000000
outer loop
vertex -4.263193 5.564107 -22.381685
vertex -0.166294 5.564107 -22.785192
vertex 3.930604 5.564107 -22.381691
endloop
endfacet
facet normal -0.000000 -1.000000 0.000001
outer loop
vertex 11.500687 5.564107 -19.246065
vertex 14.682955 5.564107 -16.634447
vertex 17.294580 5.564108 -13.452178
endloop
endfacet
facet normal 0.000001 -1.000000 -0.000000
outer loop
vertex -17.627134 5.564110 9.881784
vertex -19.567743 5.564109 6.251162
vertex -20.762764 5.564109 2.311707
endloop
endfacet
facet normal 0.995185 0.000000 -0.098018
outer loop
vertex 20.430216 5.564108 -5.882098
vertex 20.430216 9.994170 -5.882098
vertex 20.833727 9.994170 -1.785199
endloop
endfacet
facet normal 0.995185 -0.000001 -0.098018
outer loop
vertex 20.833727 9.994170 -1.785199
vertex 20.833727 5.564109 -1.785199
vertex 20.430216 5.564108 -5.882098
endloop
endfacet
facet normal -0.000000 -1.000000 0.000000
outer loop
vertex 3.930604 5.564107 -22.381691
vertex 7.870060 5.564107 -21.186668
vertex 11.500687 5.564107 -19.246065
endloop
endfacet
facet normal 0.881922 0.000000 0.471396
outer loop
vertex 19.235195 5.564109 6.251156
vertex 19.235195 9.994171 6.251156
vertex 17.294590 9.994171 9.881781
endloop
endfacet
facet normal 0.881922 0.000000 0.471396
outer loop
vertex 17.294590 9.994171 9.881781
vertex 17.294590 5.564110 9.881781
vertex 19.235195 5.564109 6.251156
endloop
endfacet
facet normal 0.355928 0.655664 -0.665898
outer loop
vertex 10.184540 12.705463 -17.279934
vertex 11.500687 9.994169 -19.246065
vertex 7.870060 9.994169 -21.186668
endloop
endfacet
facet normal 0.355929 0.655664 -0.665898
outer loop
vertex 7.870060 9.994169 -21.186668
vertex 6.963483 12.705463 -19.001619
vertex 10.184540 12.705463 -17.279934
endloop
endfacet
facet normal -0.355930 0.655664 -0.665897
outer loop
vertex -7.296066 12.705463 -19.001606
vertex -8.202646 9.994169 -21.186655
vertex -11.833271 9.994169 -19.246044
endloop
endfacet
facet normal -0.355931 0.655664 -0.665897
outer loop
vertex -11.833271 9.994169 -19.246044
vertex -10.517118 12.705463 -17.279913
vertex -7.296066 12.705463 -19.001606
endloop
endfacet
facet normal 0.583078 0.656536 0.478520
outer loop
vertex 13.007828 12.705466 11.385283
vertex 14.682970 9.994172 13.064051
vertex 17.294590 9.994171 9.881781
endloop
endfacet
facet normal 0.583078 0.656536 0.478520
outer loop
vertex 17.294590 9.994171 9.881781
vertex 15.324831 12.705466 8.562006
vertex 13.007828 12.705466 11.385283
endloop
endfacet
facet normal -0.311736 0.935444 -0.166626
outer loop
vertex -6.480289 19.564110 -6.007692
vertex -9.868233 18.031851 -8.271438
vertex -10.946508 18.031851 -6.254116
endloop
endfacet
facet normal -0.311736 0.935445 -0.166624
outer loop
vertex -10.946508 18.031851 -6.254116
vertex -7.182027 19.564110 -4.694824
vertex -6.480289 19.564110 -6.007692
endloop
endfacet
facet normal 0.098018 0.000000 0.995185
outer loop
vertex 3.930621 5.564111 18.811295
vertex 3.930621 9.994172 18.811295
vertex -0.166274 9.994172 19.214808
endloop
endfacet
facet normal 0.098018 0.000000 0.995185
outer loop
vertex -0.166274 9.994172 19.214808
vertex -0.166274 5.564111 19.214808
vertex 3.930621 5.564111 18.811295
endloop
endfacet
facet normal -0.049627 0.862347 -0.503879
outer loop
vertex -0.166288 18.031851 -13.457248
vertex -0.166290 16.185684 -16.616808
vertex -3.059089 16.185684 -16.331894
endloop
endfacet
facet normal -0.049628 0.862348 -0.503878
outer loop
vertex -3.059089 16.185684 -16.331894
vertex -2.442688 18.031851 -13.233042
vertex -0.166288 18.031851 -13.457248
endloop
endfacet
facet normal 0.995185 -0.000000 0.098018
outer loop
vertex 20.833727 9.994170 -1.785199
vertex 20.430216 9.994171 2.311700
vertex 20.430216 5.564109 2.311700
endloop
endfacet
facet normal 0.995185 -0.000000 0.098018
outer loop
vertex 20.430216 5.564109 2.311700
vertex 20.833727 5.564109 -1.785199
vertex 20.833727 9.994170 -1.785199
endloop
endfacet
facet normal -0.355513 0.656678 0.665120
outer loop
vertex -10.517096 12.705466 13.702285
vertex -11.833246 9.994172 15.675672
vertex -8.202623 9.994172 17.616278
endloop
endfacet
facet normal -0.355514 0.656678 0.665119
outer loop
vertex -8.202623 9.994172 17.616278
vertex -7.296046 12.705466 15.423972
vertex -10.517096 12.705466 13.702285
endloop
endfacet
facet normal -0.098018 0.000000 0.995185
outer loop
vertex -0.166274 9.994172 19.214808
vertex -4.263170 9.994172 18.811295
vertex -4.263170 5.564111 18.811295
endloop
endfacet
facet normal -0.098018 0.000000 0.995185
outer loop
vertex -4.263170 5.564111 18.811295
vertex -0.166274 5.564111 19.214808
vertex -0.166274 9.994172 19.214808
endloop
endfacet
facet normal -0.166626 0.935445 -0.311735
outer loop
vertex -4.631604 18.031851 -12.569038
vertex -6.648922 18.031851 -11.490759
vertex -4.385169 19.564108 -8.102818
endloop
endfacet
facet normal -0.166627 0.935444 -0.311736
outer loop
vertex -4.385169 19.564108 -8.102818
vertex -3.072303 19.564108 -8.804561
vertex -4.631604 18.031851 -12.569038
endloop
endfacet
endsolid Exported from Blender-2.74 (sub 0)
