solid Exported from Blender-2.74 (sub 0)
facet normal 0.572684 -0.671673 0.469987
outer loop
vertex -14.283937 11.916231 -11.221869
vertex -16.024376 9.621044 -12.381248
vertex -13.652456 9.621087 -15.271397
endloop
endfacet
facet normal 0.572686 -0.671672 0.469986
outer loop
vertex -13.652456 9.621087 -15.271397
vertex -12.172329 11.916273 -13.794837
vertex -14.283937 11.916231 -11.221869
endloop
endfacet
facet normal -0.072632 -0.671460 0.737473
outer loop
vertex -0.166293 11.916401 -18.767782
vertex -0.166294 9.621215 -20.857521
vertex 3.554555 9.621215 -20.491070
endloop
endfacet
facet normal -0.072633 -0.671463 0.737470
outer loop
vertex 3.554555 9.621215 -20.491070
vertex 3.146160 11.916401 -18.441540
vertex -0.166293 11.916401 -18.767782
endloop
endfacet
facet normal 0.466088 -0.149879 -0.871951
outer loop
vertex -11.024506 6.524076 14.465247
vertex -10.762474 9.620406 14.073084
vertex -7.465113 9.620363 15.835645
endloop
endfacet
facet normal 0.466070 -0.149854 -0.871965
outer loop
vertex -7.465113 9.620363 15.835645
vertex -7.645538 6.524076 16.271328
vertex -11.024506 6.524076 14.465247
endloop
endfacet
facet normal 0.572154 -0.672428 -0.469553
outer loop
vertex -12.172676 11.915720 10.217647
vertex -13.652679 9.620491 11.701157
vertex -16.024546 9.620534 8.810951
endloop
endfacet
facet normal 0.572155 -0.672428 -0.469552
outer loop
vertex -16.024546 9.620534 8.810951
vertex -14.284290 11.915763 7.644561
vertex -12.172676 11.915720 10.217647
endloop
endfacet
facet normal 0.653294 -0.671771 0.349186
outer loop
vertex -15.853029 11.916145 -8.286465
vertex -17.786877 9.620959 -9.083942
vertex -16.024376 9.621044 -12.381248
endloop
endfacet
facet normal 0.653288 -0.671775 0.349189
outer loop
vertex -16.024376 9.621044 -12.381248
vertex -14.283937 11.916231 -11.221869
vertex -15.853029 11.916145 -8.286465
endloop
endfacet
facet normal 0.469499 -0.672502 -0.572112
outer loop
vertex -9.599649 11.915678 12.329318
vertex -10.762474 9.620406 14.073084
vertex -13.652679 9.620491 11.701157
endloop
endfacet
facet normal 0.469504 -0.672514 -0.572093
outer loop
vertex -13.652679 9.620491 11.701157
vertex -12.172676 11.915720 10.217647
vertex -9.599649 11.915678 12.329318
endloop
endfacet
facet normal -0.229271 -0.932416 -0.279349
outer loop
vertex 3.765731 18.211620 4.095789
vertex 4.838158 18.211620 3.215615
vertex 7.286675 16.875988 5.664130
endloop
endfacet
facet normal -0.229264 -0.932413 -0.279363
outer loop
vertex 7.286675 16.875988 5.664130
vertex 5.689446 16.875988 6.974925
vertex 3.765731 18.211620 4.095789
endloop
endfacet
facet normal 0.229261 -0.932415 0.279358
outer loop
vertex -5.170720 18.211618 -6.793246
vertex -7.619239 16.875988 -9.241758
vertex -6.022011 16.875986 -10.552559
endloop
endfacet
facet normal 0.229276 -0.932413 0.279354
outer loop
vertex -6.022011 16.875986 -10.552559
vertex -4.098295 18.211618 -7.673423
vertex -5.170720 18.211618 -6.793246
endloop
endfacet
facet normal 0.170352 -0.932415 -0.318721
outer loop
vertex -4.098286 18.211620 4.095789
vertex -2.874656 18.211620 4.749799
vertex -4.199815 16.875988 7.948892
endloop
endfacet
facet normal 0.170358 -0.932414 -0.318721
outer loop
vertex -4.199815 16.875988 7.948892
vertex -6.021997 16.875988 6.974925
vertex -4.098286 18.211620 4.095789
endloop
endfacet
facet normal 0.104919 -0.932412 -0.345832
outer loop
vertex -2.874656 18.211620 4.749799
vertex -1.547041 18.211620 5.152571
vertex -2.222575 16.875988 8.548681
endloop
endfacet
facet normal 0.104907 -0.932414 -0.345831
outer loop
vertex -2.222575 16.875988 8.548681
vertex -4.199815 16.875988 7.948892
vertex -2.874656 18.211620 4.749799
endloop
endfacet
facet normal 0.035425 -0.932414 -0.359652
outer loop
vertex -0.166278 18.211620 5.288535
vertex -0.166277 16.875988 8.751222
vertex -2.222575 16.875988 8.548681
endloop
endfacet
facet normal 0.035416 -0.932412 -0.359656
outer loop
vertex -2.222575 16.875988 8.548681
vertex -1.547041 18.211620 5.152571
vertex -0.166278 18.211620 5.288535
endloop
endfacet
facet normal -0.736981 -0.672007 0.072568
outer loop
vertex 16.486744 11.916060 -5.101277
vertex 18.539717 9.620874 -5.506110
vertex 18.906178 9.620789 -1.785199
endloop
endfacet
facet normal -0.737001 -0.671981 0.072599
outer loop
vertex 18.906178 9.620789 -1.785199
vertex 16.813120 11.915976 -1.788825
vertex 16.486744 11.916060 -5.101277
endloop
endfacet
facet normal -0.035425 -0.932412 -0.359656
outer loop
vertex 1.214485 18.211620 5.152571
vertex 1.890021 16.875988 8.548681
vertex -0.166277 16.875988 8.751222
endloop
endfacet
facet normal -0.035415 -0.932414 -0.359652
outer loop
vertex -0.166277 16.875988 8.751222
vertex -0.166278 18.211620 5.288535
vertex 1.214485 18.211620 5.152571
endloop
endfacet
facet normal 0.430081 -0.735106 -0.524071
outer loop
vertex -9.625584 15.221875 7.670489
vertex -7.598392 15.221875 9.334113
vertex -9.599649 11.915678 12.329318
endloop
endfacet
facet normal 0.430089 -0.735102 -0.524069
outer loop
vertex -9.599649 11.915678 12.329318
vertex -12.172676 11.915720 10.217647
vertex -9.625584 15.221875 7.670489
endloop
endfacet
facet normal 0.096914 -0.149931 0.983935
outer loop
vertex -3.979188 6.524073 -20.953907
vertex -0.166294 6.524073 -21.329460
vertex -0.166294 9.621215 -20.857521
endloop
endfacet
facet normal 0.096906 -0.149921 0.983937
outer loop
vertex -0.166294 9.621215 -20.857521
vertex -3.887144 9.621215 -20.491064
vertex -3.979188 6.524073 -20.953907
endloop
endfacet
facet normal -0.470041 -0.671601 0.572726
outer loop
vertex 9.266787 11.916316 -15.906356
vertex 10.429731 9.621172 -17.643293
vertex 13.319876 9.621087 -15.271428
endloop
endfacet
facet normal -0.470035 -0.671584 0.572750
outer loop
vertex 13.319876 9.621087 -15.271428
vertex 11.839752 11.916273 -13.794867
vertex 9.266787 11.916316 -15.906356
endloop
endfacet
facet normal 0.524066 -0.735108 0.430083
outer loop
vertex -11.289219 15.221874 -9.220921
vertex -14.283937 11.916231 -11.221869
vertex -12.172329 11.916273 -13.794837
endloop
endfacet
facet normal 0.524070 -0.735105 0.430082
outer loop
vertex -12.172329 11.916273 -13.794837
vertex -9.625595 15.221873 -11.248112
vertex -11.289219 15.221874 -9.220921
endloop
endfacet
facet normal -0.170357 -0.932414 0.318719
outer loop
vertex 2.542096 18.211618 -8.327438
vertex 3.867254 16.875986 -11.526534
vertex 5.689439 16.875986 -10.552571
endloop
endfacet
facet normal -0.170352 -0.932414 0.318724
outer loop
vertex 5.689439 16.875986 -10.552571
vertex 3.765727 18.211618 -7.673430
vertex 2.542096 18.211618 -8.327438
endloop
endfacet
facet normal -0.390723 -0.862855 -0.320649
outer loop
vertex 8.597471 16.875988 4.066902
vertex 10.956659 15.221874 5.643299
vertex 9.293032 15.221875 7.670489
endloop
endfacet
facet normal -0.390719 -0.862857 -0.320650
outer loop
vertex 9.293032 15.221875 7.670489
vertex 7.286675 16.875988 5.664130
vertex 8.597471 16.875988 4.066902
endloop
endfacet
facet normal -0.049545 -0.862859 -0.503011
outer loop
vertex -0.166277 16.875988 8.751222
vertex 1.890021 16.875988 8.548681
vertex 2.443553 15.221875 11.331607
endloop
endfacet
facet normal -0.049538 -0.862857 -0.503015
outer loop
vertex 2.443553 15.221875 11.331607
vertex -0.166276 15.221875 11.588630
vertex -0.166277 16.875988 8.751222
endloop
endfacet
facet normal -0.430083 -0.735108 0.524065
outer loop
vertex 7.265836 15.221873 -12.911757
vertex 9.266787 11.916316 -15.906356
vertex 11.839752 11.916273 -13.794867
endloop
endfacet
facet normal -0.430081 -0.735106 0.524071
outer loop
vertex 11.839752 11.916273 -13.794867
vertex 9.293026 15.221873 -11.248135
vertex 7.265836 15.221873 -12.911757
endloop
endfacet
facet normal -0.708766 -0.671881 0.215002
outer loop
vertex 15.520470 11.916145 -8.286501
vertex 17.454315 9.620959 -9.083923
vertex 18.539717 9.620874 -5.506110
endloop
endfacet
facet normal -0.708763 -0.671888 0.214994
outer loop
vertex 18.539717 9.620874 -5.506110
vertex 16.486744 11.916060 -5.101277
vertex 15.520470 11.916145 -8.286501
endloop
endfacet
facet normal 0.049539 -0.862856 -0.503016
outer loop
vertex -0.166277 16.875988 8.751222
vertex -0.166276 15.221875 11.588630
vertex -2.776105 15.221875 11.331603
endloop
endfacet
facet normal 0.049546 -0.862858 -0.503012
outer loop
vertex -2.776105 15.221875 11.331603
vertex -2.222575 16.875988 8.548681
vertex -0.166277 16.875988 8.751222
endloop
endfacet
facet normal -0.445768 -0.862855 0.238272
outer loop
vertex 8.597466 16.875988 -7.644546
vertex 10.956654 15.221874 -9.220944
vertex 12.192871 15.221874 -6.908181
endloop
endfacet
facet normal -0.445767 -0.862857 0.238266
outer loop
vertex 12.192871 15.221874 -6.908181
vertex 9.571434 16.875988 -5.822363
vertex 8.597466 16.875988 -7.644546
endloop
endfacet
facet normal 0.320651 -0.862855 0.390721
outer loop
vertex -6.022011 16.875986 -10.552559
vertex -7.619239 16.875988 -9.241758
vertex -9.625595 15.221873 -11.248112
endloop
endfacet
facet normal 0.320651 -0.862855 0.390723
outer loop
vertex -9.625595 15.221873 -11.248112
vertex -7.598409 15.221873 -12.911741
vertex -6.022011 16.875986 -10.552559
endloop
endfacet
facet normal -0.146724 -0.862857 -0.483684
outer loop
vertex 1.890021 16.875988 8.548681
vertex 3.867262 16.875988 7.948892
vertex 4.953079 15.221875 10.570332
endloop
endfacet
facet normal -0.146727 -0.862858 -0.483681
outer loop
vertex 4.953079 15.221875 10.570332
vertex 2.443553 15.221875 11.331607
vertex 1.890021 16.875988 8.548681
endloop
endfacet
facet normal -0.627224 -0.149879 -0.764281
outer loop
vertex 10.691959 6.524076 14.465247
vertex 10.429928 9.620406 14.073084
vertex 13.320135 9.620491 11.701155
endloop
endfacet
facet normal -0.627216 -0.149890 -0.764286
outer loop
vertex 13.320135 9.620491 11.701155
vertex 13.653643 6.524076 12.034722
vertex 10.691959 6.524076 14.465247
endloop
endfacet
facet normal -0.000000 1.000000 -0.000000
outer loop
vertex -16.416723 6.524074 -12.643402
vertex -19.334993 6.524074 -5.598051
vertex -19.334986 6.524075 2.027701
endloop
endfacet
facet normal 0.736894 -0.672101 -0.072578
outer loop
vertex -16.819479 11.915933 1.523755
vertex -18.872326 9.620704 1.935657
vertex -19.238724 9.620789 -1.785191
endloop
endfacet
facet normal 0.736895 -0.672100 -0.072580
outer loop
vertex -19.238724 9.620789 -1.785191
vertex -17.145668 11.916018 -1.788818
vertex -16.819479 11.915933 1.523755
endloop
endfacet
facet normal -0.196805 -0.735103 -0.648761
outer loop
vertex 2.443553 15.221875 11.331607
vertex 4.953079 15.221875 10.570332
vertex 6.331580 11.915635 13.898415
endloop
endfacet
facet normal -0.196798 -0.735099 -0.648768
outer loop
vertex 6.331580 11.915635 13.898415
vertex 3.146298 11.915592 14.864690
vertex 2.443553 15.221875 11.331607
endloop
endfacet
facet normal -0.503016 -0.862856 -0.049538
outer loop
vertex 10.373764 16.875988 -1.788823
vertex 13.211172 15.221874 -1.788824
vertex 12.954147 15.221874 0.821007
endloop
endfacet
facet normal -0.503012 -0.862858 -0.049544
outer loop
vertex 12.954147 15.221874 0.821007
vertex 10.171228 16.875988 0.267477
vertex 10.373764 16.875988 -1.788823
endloop
endfacet
facet normal -0.524071 -0.735105 -0.430081
outer loop
vertex 9.293032 15.221875 7.670489
vertex 10.956659 15.221874 5.643299
vertex 13.951742 11.915763 7.644559
endloop
endfacet
facet normal -0.524068 -0.735102 -0.430090
outer loop
vertex 13.951742 11.915763 7.644559
vertex 11.840130 11.915720 10.217645
vertex 9.293032 15.221875 7.670489
endloop
endfacet
facet normal -0.066450 -0.735100 -0.674694
outer loop
vertex 2.443553 15.221875 11.331607
vertex 3.146298 11.915592 14.864690
vertex -0.166275 11.915592 15.190944
endloop
endfacet
facet normal -0.066446 -0.735102 -0.674693
outer loop
vertex -0.166275 11.915592 15.190944
vertex -0.166276 15.221875 11.588630
vertex 2.443553 15.221875 11.331607
endloop
endfacet
facet normal -0.170358 -0.932413 -0.318721
outer loop
vertex 3.765731 18.211620 4.095789
vertex 5.689446 16.875988 6.974925
vertex 3.867262 16.875988 7.948892
endloop
endfacet
facet normal -0.170351 -0.932415 -0.318721
outer loop
vertex 3.867262 16.875988 7.948892
vertex 2.542101 18.211620 4.749799
vertex 3.765731 18.211620 4.095789
endloop
endfacet
facet normal 0.146726 -0.862858 -0.483681
outer loop
vertex -2.222575 16.875988 8.548681
vertex -2.776105 15.221875 11.331603
vertex -5.285630 15.221875 10.570329
endloop
endfacet
facet normal 0.146724 -0.862856 -0.483685
outer loop
vertex -5.285630 15.221875 10.570329
vertex -4.199815 16.875988 7.948892
vertex -2.222575 16.875988 8.548681
endloop
endfacet
facet normal -0.066449 -0.735110 0.674684
outer loop
vertex -0.166290 15.221873 -15.166262
vertex -0.166293 11.916401 -18.767782
vertex 3.146160 11.916401 -18.441540
endloop
endfacet
facet normal -0.066443 -0.735107 0.674687
outer loop
vertex 3.146160 11.916401 -18.441540
vertex 2.443541 15.221873 -14.909247
vertex -0.166290 15.221873 -15.166262
endloop
endfacet
facet normal -0.483682 -0.862857 0.146728
outer loop
vertex 9.571434 16.875988 -5.822363
vertex 12.192871 15.221874 -6.908181
vertex 12.954147 15.221874 -4.398654
endloop
endfacet
facet normal -0.483682 -0.862857 0.146725
outer loop
vertex 12.954147 15.221874 -4.398654
vertex 10.171228 16.875988 -3.845122
vertex 9.571434 16.875988 -5.822363
endloop
endfacet
facet normal -0.445765 -0.862856 -0.238270
outer loop
vertex 9.571438 16.875988 2.244718
vertex 12.192873 15.221874 3.330535
vertex 10.956659 15.221874 5.643299
endloop
endfacet
facet normal -0.445771 -0.862854 -0.238267
outer loop
vertex 10.956659 15.221874 5.643299
vertex 8.597471 16.875988 4.066902
vertex 9.571438 16.875988 2.244718
endloop
endfacet
facet normal 0.503013 -0.862858 -0.049537
outer loop
vertex -10.503780 16.875988 0.267480
vertex -13.286699 15.221874 0.821012
vertex -13.543722 15.221874 -1.788818
endloop
endfacet
facet normal 0.503016 -0.862856 -0.049545
outer loop
vertex -13.543722 15.221874 -1.788818
vertex -10.706318 16.875988 -1.788818
vertex -10.503780 16.875988 0.267480
endloop
endfacet
facet normal 0.318721 -0.932414 -0.170357
outer loop
vertex -6.050887 18.211620 2.143189
vertex -8.930025 16.875988 4.066903
vertex -9.903990 16.875988 2.244721
endloop
endfacet
facet normal 0.318721 -0.932414 -0.170353
outer loop
vertex -9.903990 16.875988 2.244721
vertex -6.704897 18.211620 0.919561
vertex -6.050887 18.211620 2.143189
endloop
endfacet
facet normal -0.648762 -0.735106 0.196790
outer loop
vertex 12.192871 15.221874 -6.908181
vertex 15.520470 11.916145 -8.286501
vertex 16.486744 11.916060 -5.101277
endloop
endfacet
facet normal -0.648765 -0.735100 0.196805
outer loop
vertex 16.486744 11.916060 -5.101277
vertex 12.954147 15.221874 -4.398654
vertex 12.192871 15.221874 -6.908181
endloop
endfacet
facet normal -0.320648 -0.862857 -0.390722
outer loop
vertex 7.286675 16.875988 5.664130
vertex 9.293032 15.221875 7.670489
vertex 7.265843 15.221875 9.334113
endloop
endfacet
facet normal -0.320652 -0.862855 -0.390721
outer loop
vertex 7.265843 15.221875 9.334113
vertex 5.689446 16.875988 6.974925
vertex 7.286675 16.875988 5.664130
endloop
endfacet
facet normal -0.597902 -0.735104 -0.319587
outer loop
vertex 12.192873 15.221874 3.330535
vertex 15.520716 11.915848 4.709035
vertex 13.951742 11.915763 7.644559
endloop
endfacet
facet normal -0.597900 -0.735105 -0.319588
outer loop
vertex 13.951742 11.915763 7.644559
vertex 10.956659 15.221874 5.643299
vertex 12.192873 15.221874 3.330535
endloop
endfacet
facet normal -0.524066 -0.735106 0.430086
outer loop
vertex 9.293026 15.221873 -11.248135
vertex 11.839752 11.916273 -13.794867
vertex 13.951370 11.916231 -11.221900
endloop
endfacet
facet normal -0.524068 -0.735108 0.430080
outer loop
vertex 13.951370 11.916231 -11.221900
vertex 10.956654 15.221874 -9.220944
vertex 9.293026 15.221873 -11.248135
endloop
endfacet
facet normal 0.279349 -0.932416 -0.229270
outer loop
vertex -6.050887 18.211620 2.143189
vertex -5.170714 18.211620 3.215615
vertex -7.619229 16.875988 5.664131
endloop
endfacet
facet normal 0.279363 -0.932413 -0.229264
outer loop
vertex -7.619229 16.875988 5.664131
vertex -8.930025 16.875988 4.066903
vertex -6.050887 18.211620 2.143189
endloop
endfacet
facet normal -0.466064 -0.149921 0.871956
outer loop
vertex 7.312975 6.524073 -19.841717
vertex 10.691946 6.524073 -18.035641
vertex 10.429731 9.621172 -17.643293
endloop
endfacet
facet normal -0.466063 -0.149924 0.871957
outer loop
vertex 10.429731 9.621172 -17.643293
vertex 7.132367 9.621215 -19.405731
vertex 7.312975 6.524073 -19.841717
endloop
endfacet
facet normal 0.627226 -0.149924 0.764271
outer loop
vertex -11.024530 6.524073 -18.035620
vertex -10.762316 9.621172 -17.643272
vertex -13.652456 9.621087 -15.271397
endloop
endfacet
facet normal 0.627222 -0.149928 0.764274
outer loop
vertex -13.652456 9.621087 -15.271397
vertex -13.986147 6.524073 -15.605086
vertex -11.024530 6.524073 -18.035620
endloop
endfacet
facet normal 0.000000 1.000000 -0.000000
outer loop
vertex 16.084166 6.524076 9.073040
vertex 19.002438 6.524074 -5.598093
vertex -19.334986 6.524075 2.027701
endloop
endfacet
facet normal 0.000000 1.000000 0.000000
outer loop
vertex -19.334986 6.524075 2.027701
vertex 3.646616 6.524076 17.383516
vertex 16.084166 6.524076 9.073040
endloop
endfacet
facet normal 0.764285 -0.149885 -0.627218
outer loop
vertex -16.416710 6.524076 9.073044
vertex -16.024546 9.620534 8.810951
vertex -13.652679 9.620491 11.701157
endloop
endfacet
facet normal 0.764286 -0.149887 -0.627216
outer loop
vertex -13.652679 9.620491 11.701157
vertex -13.986187 6.524076 12.034724
vertex -16.416710 6.524076 9.073044
endloop
endfacet
facet normal -0.946135 -0.149874 -0.286995
outer loop
vertex 17.890244 6.524075 5.694071
vertex 17.454502 9.620619 5.513523
vertex 18.539778 9.620704 1.935651
endloop
endfacet
facet normal -0.946129 -0.149890 -0.287008
outer loop
vertex 18.539778 9.620704 1.935651
vertex 19.002438 6.524075 2.027695
vertex 17.890244 6.524075 5.694071
endloop
endfacet
facet normal 0.229264 -0.932413 -0.279363
outer loop
vertex -4.098286 18.211620 4.095789
vertex -6.021997 16.875988 6.974925
vertex -7.619229 16.875988 5.664131
endloop
endfacet
facet normal 0.229270 -0.932415 -0.279350
outer loop
vertex -7.619229 16.875988 5.664131
vertex -5.170714 18.211620 3.215615
vertex -4.098286 18.211620 4.095789
endloop
endfacet
facet normal 0.359652 -0.932414 0.035424
outer loop
vertex -7.243632 18.211620 -1.788818
vertex -10.706318 16.875988 -1.788818
vertex -10.503784 16.875988 -3.845099
endloop
endfacet
facet normal 0.359657 -0.932412 0.035414
outer loop
vertex -10.503784 16.875988 -3.845099
vertex -7.107671 18.211620 -3.169570
vertex -7.243632 18.211620 -1.788818
endloop
endfacet
facet normal 0.196797 -0.735110 0.648756
outer loop
vertex -5.285646 15.221873 -14.147962
vertex -6.663905 11.916359 -17.475374
vertex -3.478746 11.916401 -18.441532
endloop
endfacet
facet normal 0.196804 -0.735107 0.648757
outer loop
vertex -3.478746 11.916401 -18.441532
vertex -2.776122 15.221873 -14.909242
vertex -5.285646 15.221873 -14.147962
endloop
endfacet
facet normal 0.000000 -1.000000 0.000000
outer loop
vertex -7.243632 18.211620 -1.788818
vertex -7.107671 18.211620 -3.169570
vertex -6.704901 18.211620 -4.497187
endloop
endfacet
facet normal 0.983938 -0.149914 -0.096914
outer loop
vertex -19.334986 6.524075 2.027701
vertex -19.710541 6.524075 -1.785190
vertex -19.238724 9.620789 -1.785191
endloop
endfacet
facet normal 0.983944 -0.149888 -0.096894
outer loop
vertex -19.238724 9.620789 -1.785191
vertex -18.872326 9.620704 1.935657
vertex -19.334986 6.524075 2.027701
endloop
endfacet
facet normal 0.627216 -0.149890 -0.764286
outer loop
vertex -11.024506 6.524076 14.465247
vertex -13.986187 6.524076 12.034724
vertex -13.652679 9.620491 11.701157
endloop
endfacet
facet normal 0.627224 -0.149879 -0.764282
outer loop
vertex -13.652679 9.620491 11.701157
vertex -10.762474 9.620406 14.073084
vertex -11.024506 6.524076 14.465247
endloop
endfacet
facet normal -0.348857 -0.672568 -0.652650
outer loop
vertex 9.267105 11.915678 12.329318
vertex 10.429928 9.620406 14.073084
vertex 7.132566 9.620363 15.835649
endloop
endfacet
facet normal -0.348843 -0.672577 -0.652647
outer loop
vertex 7.132566 9.620363 15.835649
vertex 6.331580 11.915635 13.898415
vertex 9.267105 11.915678 12.329318
endloop
endfacet
facet normal 0.648768 -0.735101 0.196791
outer loop
vertex -13.286705 15.221874 -4.398625
vertex -16.819302 11.916060 -5.101241
vertex -15.853029 11.916145 -8.286465
endloop
endfacet
facet normal 0.648759 -0.735106 0.196803
outer loop
vertex -15.853029 11.916145 -8.286465
vertex -12.525434 15.221874 -6.908152
vertex -13.286705 15.221874 -4.398625
endloop
endfacet
facet normal 0.000000 1.000000 -0.000000
outer loop
vertex 3.646616 6.524076 17.383516
vertex 10.691959 6.524076 14.465247
vertex 16.084166 6.524076 9.073040
endloop
endfacet
facet normal 0.104907 -0.932414 0.345831
outer loop
vertex -2.874665 18.211618 -8.327434
vertex -4.199828 16.875986 -11.526526
vertex -2.222588 16.875986 -12.126319
endloop
endfacet
facet normal 0.104919 -0.932412 0.345832
outer loop
vertex -2.222588 16.875986 -12.126319
vertex -1.547050 18.211618 -8.730206
vertex -2.874665 18.211618 -8.327434
endloop
endfacet
facet normal -0.215109 -0.671487 0.709108
outer loop
vertex 3.146160 11.916401 -18.441540
vertex 3.554555 9.621215 -20.491070
vertex 7.132367 9.621215 -19.405731
endloop
endfacet
facet normal -0.215104 -0.671480 0.709115
outer loop
vertex 7.132367 9.621215 -19.405731
vertex 6.331324 11.916359 -17.475388
vertex 3.146160 11.916401 -18.441540
endloop
endfacet
facet normal -0.279362 -0.932413 -0.229264
outer loop
vertex 5.718332 18.211620 2.143188
vertex 8.597471 16.875988 4.066902
vertex 7.286675 16.875988 5.664130
endloop
endfacet
facet normal -0.279349 -0.932416 -0.229270
outer loop
vertex 7.286675 16.875988 5.664130
vertex 4.838158 18.211620 3.215615
vertex 5.718332 18.211620 2.143188
endloop
endfacet
facet normal 0.674682 -0.735110 0.066466
outer loop
vertex -13.543722 15.221874 -1.788818
vertex -17.145668 11.916018 -1.788818
vertex -16.819302 11.916060 -5.101241
endloop
endfacet
facet normal 0.674694 -0.735101 0.066445
outer loop
vertex -16.819302 11.916060 -5.101241
vertex -13.286705 15.221874 -4.398625
vertex -13.543722 15.221874 -1.788818
endloop
endfacet
facet normal 0.648759 -0.735104 -0.196812
outer loop
vertex -12.525425 15.221874 3.330539
vertex -15.853264 11.915848 4.709040
vertex -16.819479 11.915933 1.523755
endloop
endfacet
facet normal 0.648758 -0.735107 -0.196803
outer loop
vertex -16.819479 11.915933 1.523755
vertex -13.286699 15.221874 0.821012
vertex -12.525425 15.221874 3.330539
endloop
endfacet
facet normal 0.597903 -0.735106 0.319581
outer loop
vertex -12.525434 15.221874 -6.908152
vertex -15.853029 11.916145 -8.286465
vertex -14.283937 11.916231 -11.221869
endloop
endfacet
facet normal 0.597896 -0.735109 0.319586
outer loop
vertex -14.283937 11.916231 -11.221869
vertex -11.289219 15.221874 -9.220921
vertex -12.525434 15.221874 -6.908152
endloop
endfacet
facet normal -0.359652 -0.932414 -0.035414
outer loop
vertex 6.775114 18.211620 -0.408057
vertex 6.911077 18.211620 -1.788821
vertex 10.373764 16.875988 -1.788823
endloop
endfacet
facet normal -0.359655 -0.932413 -0.035425
outer loop
vertex 10.373764 16.875988 -1.788823
vertex 10.171228 16.875988 0.267477
vertex 6.775114 18.211620 -0.408057
endloop
endfacet
facet normal 0.483683 -0.862857 -0.146727
outer loop
vertex -9.903990 16.875988 2.244721
vertex -12.525425 15.221874 3.330539
vertex -13.286699 15.221874 0.821012
endloop
endfacet
facet normal 0.483682 -0.862858 -0.146724
outer loop
vertex -13.286699 15.221874 0.821012
vertex -10.503780 16.875988 0.267480
vertex -9.903990 16.875988 2.244721
endloop
endfacet
facet normal -0.238272 -0.862855 -0.445767
outer loop
vertex 5.689446 16.875988 6.974925
vertex 7.265843 15.221875 9.334113
vertex 4.953079 15.221875 10.570332
endloop
endfacet
facet normal -0.238264 -0.862857 -0.445767
outer loop
vertex 4.953079 15.221875 10.570332
vertex 3.867262 16.875988 7.948892
vertex 5.689446 16.875988 6.974925
endloop
endfacet
facet normal -0.648756 -0.735107 -0.196811
outer loop
vertex 12.954147 15.221874 0.821007
vertex 16.486931 11.915933 1.523750
vertex 15.520716 11.915848 4.709035
endloop
endfacet
facet normal -0.648762 -0.735103 -0.196804
outer loop
vertex 15.520716 11.915848 4.709035
vertex 12.192873 15.221874 3.330535
vertex 12.954147 15.221874 0.821007
endloop
endfacet
facet normal 0.483682 -0.862858 0.146726
outer loop
vertex -10.503784 16.875988 -3.845099
vertex -13.286705 15.221874 -4.398625
vertex -12.525434 15.221874 -6.908152
endloop
endfacet
facet normal 0.483684 -0.862857 0.146724
outer loop
vertex -12.525434 15.221874 -6.908152
vertex -9.903996 16.875988 -5.822340
vertex -10.503784 16.875988 -3.845099
endloop
endfacet
facet normal 0.390724 -0.862855 0.320649
outer loop
vertex -8.930033 16.875988 -7.644526
vertex -11.289219 15.221874 -9.220921
vertex -9.625595 15.221873 -11.248112
endloop
endfacet
facet normal 0.390721 -0.862856 0.320650
outer loop
vertex -9.625595 15.221873 -11.248112
vertex -7.619239 16.875988 -9.241758
vertex -8.930033 16.875988 -7.644526
endloop
endfacet
facet normal 0.445768 -0.862854 -0.238272
outer loop
vertex -8.930025 16.875988 4.066903
vertex -11.289207 15.221874 5.643300
vertex -12.525425 15.221874 3.330539
endloop
endfacet
facet normal 0.445767 -0.862857 -0.238265
outer loop
vertex -12.525425 15.221874 3.330539
vertex -9.903990 16.875988 2.244721
vertex -8.930025 16.875988 4.066903
endloop
endfacet
facet normal 0.503017 -0.862856 0.049537
outer loop
vertex -10.706318 16.875988 -1.788818
vertex -13.543722 15.221874 -1.788818
vertex -13.286705 15.221874 -4.398625
endloop
endfacet
facet normal 0.503011 -0.862859 0.049544
outer loop
vertex -13.286705 15.221874 -4.398625
vertex -10.503784 16.875988 -3.845099
vertex -10.706318 16.875988 -1.788818
endloop
endfacet
facet normal 0.445766 -0.862856 0.238269
outer loop
vertex -9.903996 16.875988 -5.822340
vertex -12.525434 15.221874 -6.908152
vertex -11.289219 15.221874 -9.220921
endloop
endfacet
facet normal 0.445771 -0.862854 0.238266
outer loop
vertex -11.289219 15.221874 -9.220921
vertex -8.930033 16.875988 -7.644526
vertex -9.903996 16.875988 -5.822340
endloop
endfacet
facet normal 0.390722 -0.862856 -0.320648
outer loop
vertex -7.619229 16.875988 5.664131
vertex -9.625584 15.221875 7.670489
vertex -11.289207 15.221874 5.643300
endloop
endfacet
facet normal 0.390721 -0.862855 -0.320652
outer loop
vertex -11.289207 15.221874 5.643300
vertex -8.930025 16.875988 4.066903
vertex -7.619229 16.875988 5.664131
endloop
endfacet
facet normal -0.764287 -0.149888 -0.627216
outer loop
vertex 16.084166 6.524076 9.073040
vertex 13.653643 6.524076 12.034722
vertex 13.320135 9.620491 11.701155
endloop
endfacet
facet normal -0.764285 -0.149885 -0.627218
outer loop
vertex 13.320135 9.620491 11.701155
vertex 15.692003 9.620534 8.810947
vertex 16.084166 6.524076 9.073040
endloop
endfacet
facet normal 0.000000 -1.000000 0.000000
outer loop
vertex 2.542096 18.211618 -8.327438
vertex 3.765727 18.211618 -7.673430
vertex 4.838153 18.211618 -6.793258
endloop
endfacet
facet normal 0.287002 -0.149856 -0.946136
outer loop
vertex -7.645538 6.524076 16.271328
vertex -7.465113 9.620363 15.835645
vertex -3.887182 9.620363 16.920979
endloop
endfacet
facet normal 0.287008 -0.149864 -0.946133
outer loop
vertex -3.887182 9.620363 16.920979
vertex -3.979165 6.524076 17.383516
vertex -7.645538 6.524076 16.271328
endloop
endfacet
facet normal 0.345834 -0.932413 0.104908
outer loop
vertex -7.107671 18.211620 -3.169570
vertex -10.503784 16.875988 -3.845099
vertex -9.903996 16.875988 -5.822340
endloop
endfacet
facet normal 0.345827 -0.932414 0.104918
outer loop
vertex -9.903996 16.875988 -5.822340
vertex -6.704901 18.211620 -4.497187
vertex -7.107671 18.211620 -3.169570
endloop
endfacet
facet normal 0.279362 -0.932413 0.229264
outer loop
vertex -6.050893 18.211618 -5.720818
vertex -8.930033 16.875988 -7.644526
vertex -7.619239 16.875988 -9.241758
endloop
endfacet
facet normal 0.279349 -0.932416 0.229270
outer loop
vertex -7.619239 16.875988 -9.241758
vertex -5.170720 18.211618 -6.793246
vertex -6.050893 18.211618 -5.720818
endloop
endfacet
facet normal 0.287011 -0.149920 0.946123
outer loop
vertex -3.979188 6.524073 -20.953907
vertex -3.887144 9.621215 -20.491064
vertex -7.464952 9.621215 -19.405716
endloop
endfacet
facet normal 0.287008 -0.149924 0.946123
outer loop
vertex -7.464952 9.621215 -19.405716
vertex -7.645561 6.524073 -19.841705
vertex -3.979188 6.524073 -20.953907
endloop
endfacet
facet normal 0.359655 -0.932413 -0.035425
outer loop
vertex -7.107668 18.211620 -0.408055
vertex -10.503780 16.875988 0.267480
vertex -10.706318 16.875988 -1.788818
endloop
endfacet
facet normal 0.359652 -0.932414 -0.035414
outer loop
vertex -10.706318 16.875988 -1.788818
vertex -7.243632 18.211620 -1.788818
vertex -7.107668 18.211620 -0.408055
endloop
endfacet
facet normal -0.572683 -0.671672 0.469991
outer loop
vertex 11.839752 11.916273 -13.794867
vertex 13.319876 9.621087 -15.271428
vertex 15.691811 9.621044 -12.381284
endloop
endfacet
facet normal -0.572684 -0.671674 0.469987
outer loop
vertex 15.691811 9.621044 -12.381284
vertex 13.951370 11.916231 -11.221900
vertex 11.839752 11.916273 -13.794867
endloop
endfacet
facet normal -0.652831 -0.672338 -0.348960
outer loop
vertex 15.520716 11.915848 4.709035
vertex 17.454502 9.620619 5.513523
vertex 15.692003 9.620534 8.810947
endloop
endfacet
facet normal -0.652848 -0.672326 -0.348953
outer loop
vertex 15.692003 9.620534 8.810947
vertex 13.951742 11.915763 7.644559
vertex 15.520716 11.915848 4.709035
endloop
endfacet
facet normal 0.215113 -0.671481 0.709112
outer loop
vertex -6.663905 11.916359 -17.475374
vertex -7.464952 9.621215 -19.405716
vertex -3.887144 9.621215 -20.491064
endloop
endfacet
facet normal 0.215103 -0.671488 0.709108
outer loop
vertex -3.887144 9.621215 -20.491064
vertex -3.478746 11.916401 -18.441532
vertex -6.663905 11.916359 -17.475374
endloop
endfacet
facet normal 0.708465 -0.672227 -0.214915
outer loop
vertex -15.853264 11.915848 4.709040
vertex -17.787048 9.620619 5.513529
vertex -18.872326 9.620704 1.935657
endloop
endfacet
facet normal 0.708468 -0.672221 -0.214922
outer loop
vertex -18.872326 9.620704 1.935657
vertex -16.819479 11.915933 1.523755
vertex -15.853264 11.915848 4.709040
endloop
endfacet
facet normal 0.652841 -0.672325 -0.348966
outer loop
vertex -14.284290 11.915763 7.644561
vertex -16.024546 9.620534 8.810951
vertex -17.787048 9.620619 5.513529
endloop
endfacet
facet normal 0.652838 -0.672338 -0.348948
outer loop
vertex -17.787048 9.620619 5.513529
vertex -15.853264 11.915848 4.709040
vertex -14.284290 11.915763 7.644561
endloop
endfacet
facet normal -0.318722 -0.932415 -0.170352
outer loop
vertex 5.718332 18.211620 2.143188
vertex 6.372343 18.211620 0.919559
vertex 9.571438 16.875988 2.244718
endloop
endfacet
facet normal -0.318721 -0.932414 -0.170357
outer loop
vertex 9.571438 16.875988 2.244718
vertex 8.597471 16.875988 4.066902
vertex 5.718332 18.211620 2.143188
endloop
endfacet
facet normal 0.983940 -0.149898 0.096913
outer loop
vertex -19.710541 6.524075 -1.785190
vertex -19.334993 6.524074 -5.598051
vertex -18.872272 9.620874 -5.506069
endloop
endfacet
facet normal 0.983939 -0.149913 0.096900
outer loop
vertex -18.872272 9.620874 -5.506069
vertex -19.238724 9.620789 -1.785191
vertex -19.710541 6.524075 -1.785190
endloop
endfacet
facet normal 0.737010 -0.671975 0.072570
outer loop
vertex -17.145668 11.916018 -1.788818
vertex -19.238724 9.620789 -1.785191
vertex -18.872272 9.620874 -5.506069
endloop
endfacet
facet normal 0.736976 -0.672008 0.072604
outer loop
vertex -18.872272 9.620874 -5.506069
vertex -16.819302 11.916060 -5.101241
vertex -17.145668 11.916018 -1.788818
endloop
endfacet
facet normal 0.708762 -0.671887 0.214997
outer loop
vertex -16.819302 11.916060 -5.101241
vertex -18.872272 9.620874 -5.506069
vertex -17.786877 9.620959 -9.083942
endloop
endfacet
facet normal 0.708767 -0.671883 0.214994
outer loop
vertex -17.786877 9.620959 -9.083942
vertex -15.853029 11.916145 -8.286465
vertex -16.819302 11.916060 -5.101241
endloop
endfacet
facet normal -0.318723 -0.932414 0.170353
outer loop
vertex 6.372341 18.211620 -4.497201
vertex 5.718329 18.211618 -5.720831
vertex 8.597466 16.875988 -7.644546
endloop
endfacet
facet normal -0.318719 -0.932414 0.170357
outer loop
vertex 8.597466 16.875988 -7.644546
vertex 9.571434 16.875988 -5.822363
vertex 6.372341 18.211620 -4.497201
endloop
endfacet
facet normal 0.072632 -0.671462 0.737470
outer loop
vertex -3.478746 11.916401 -18.441532
vertex -3.887144 9.621215 -20.491064
vertex -0.166294 9.621215 -20.857521
endloop
endfacet
facet normal 0.072636 -0.671460 0.737473
outer loop
vertex -0.166294 9.621215 -20.857521
vertex -0.166293 11.916401 -18.767782
vertex -3.478746 11.916401 -18.441532
endloop
endfacet
facet normal 0.674686 -0.735107 -0.066456
outer loop
vertex -13.286699 15.221874 0.821012
vertex -16.819479 11.915933 1.523755
vertex -17.145668 11.916018 -1.788818
endloop
endfacet
facet normal 0.674683 -0.735111 -0.066445
outer loop
vertex -17.145668 11.916018 -1.788818
vertex -13.543722 15.221874 -1.788818
vertex -13.286699 15.221874 0.821012
endloop
endfacet
facet normal -0.345834 -0.932413 -0.104908
outer loop
vertex 6.775114 18.211620 -0.408057
vertex 10.171228 16.875988 0.267477
vertex 9.571438 16.875988 2.244718
endloop
endfacet
facet normal -0.345826 -0.932414 -0.104917
outer loop
vertex 9.571438 16.875988 2.244718
vertex 6.372343 18.211620 0.919559
vertex 6.775114 18.211620 -0.408057
endloop
endfacet
facet normal 0.000000 -1.000000 0.000000
outer loop
vertex -5.170720 18.211618 -6.793246
vertex -4.098295 18.211618 -7.673423
vertex -2.874665 18.211618 -8.327434
endloop
endfacet
facet normal 0.524068 -0.735101 -0.430091
outer loop
vertex -9.625584 15.221875 7.670489
vertex -12.172676 11.915720 10.217647
vertex -14.284290 11.915763 7.644561
endloop
endfacet
facet normal 0.524071 -0.735105 -0.430081
outer loop
vertex -14.284290 11.915763 7.644561
vertex -11.289207 15.221874 5.643300
vertex -9.625584 15.221875 7.670489
endloop
endfacet
facet normal 0.238272 -0.862855 0.445767
outer loop
vertex -6.022011 16.875986 -10.552559
vertex -7.598409 15.221873 -12.911741
vertex -5.285646 15.221873 -14.147962
endloop
endfacet
facet normal 0.238265 -0.862856 0.445767
outer loop
vertex -5.285646 15.221873 -14.147962
vertex -4.199828 16.875986 -11.526526
vertex -6.022011 16.875986 -10.552559
endloop
endfacet
facet normal 0.871956 -0.149917 0.466066
outer loop
vertex -18.222805 6.524074 -9.264428
vertex -16.416723 6.524074 -12.643402
vertex -16.024376 9.621044 -12.381248
endloop
endfacet
facet normal 0.871952 -0.149902 0.466078
outer loop
vertex -16.024376 9.621044 -12.381248
vertex -17.786877 9.620959 -9.083942
vertex -18.222805 6.524074 -9.264428
endloop
endfacet
facet normal -0.146724 -0.862858 0.483682
outer loop
vertex 3.867254 16.875986 -11.526534
vertex 1.890012 16.875986 -12.126325
vertex 2.443541 15.221873 -14.909247
endloop
endfacet
facet normal -0.146728 -0.862857 0.483683
outer loop
vertex 2.443541 15.221873 -14.909247
vertex 4.953070 15.221873 -14.147970
vertex 3.867254 16.875986 -11.526534
endloop
endfacet
facet normal 0.000000 1.000000 0.000000
outer loop
vertex 19.002438 6.524075 2.027695
vertex 19.377995 6.524075 -1.785199
vertex 19.002438 6.524074 -5.598093
endloop
endfacet
facet normal -0.764268 -0.149917 0.627231
outer loop
vertex 16.084156 6.524074 -12.643437
vertex 15.691811 9.621044 -12.381284
vertex 13.319876 9.621087 -15.271428
endloop
endfacet
facet normal -0.764279 -0.149943 0.627212
outer loop
vertex 13.319876 9.621087 -15.271428
vertex 13.653627 6.524073 -15.605118
vertex 16.084156 6.524074 -12.643437
endloop
endfacet
facet normal 0.066451 -0.735102 -0.674692
outer loop
vertex -0.166276 15.221875 11.588630
vertex -0.166275 11.915592 15.190944
vertex -3.478847 11.915592 14.864688
endloop
endfacet
facet normal 0.066446 -0.735100 -0.674695
outer loop
vertex -3.478847 11.915592 14.864688
vertex -2.776105 15.221875 11.331603
vertex -0.166276 15.221875 11.588630
endloop
endfacet
facet normal -0.000000 1.000000 0.000000
outer loop
vertex 19.002438 6.524074 -5.598093
vertex 16.084156 6.524074 -12.643437
vertex 10.691946 6.524073 -18.035641
endloop
endfacet
facet normal -0.049536 -0.862856 0.503016
outer loop
vertex -0.166288 16.875986 -12.328856
vertex -0.166290 15.221873 -15.166262
vertex 2.443541 15.221873 -14.909247
endloop
endfacet
facet normal -0.049543 -0.862859 0.503011
outer loop
vertex 2.443541 15.221873 -14.909247
vertex 1.890012 16.875986 -12.126325
vertex -0.166288 16.875986 -12.328856
endloop
endfacet
facet normal -0.466071 -0.149853 -0.871964
outer loop
vertex 10.691959 6.524076 14.465247
vertex 7.312992 6.524076 16.271328
vertex 7.132566 9.620363 15.835649
endloop
endfacet
facet normal -0.466089 -0.149880 -0.871950
outer loop
vertex 7.132566 9.620363 15.835649
vertex 10.429928 9.620406 14.073084
vertex 10.691959 6.524076 14.465247
endloop
endfacet
facet normal -0.736888 -0.672107 -0.072579
outer loop
vertex 16.813120 11.915976 -1.788825
vertex 18.906178 9.620789 -1.785199
vertex 18.539778 9.620704 1.935651
endloop
endfacet
facet normal -0.736894 -0.672101 -0.072570
outer loop
vertex 18.539778 9.620704 1.935651
vertex 16.486931 11.915933 1.523750
vertex 16.813120 11.915976 -1.788825
endloop
endfacet
facet normal 0.946129 -0.149889 -0.287008
outer loop
vertex -18.222794 6.524075 5.694077
vertex -19.334986 6.524075 2.027701
vertex -18.872326 9.620704 1.935657
endloop
endfacet
facet normal 0.946135 -0.149874 -0.286995
outer loop
vertex -18.872326 9.620704 1.935657
vertex -17.787048 9.620619 5.513529
vertex -18.222794 6.524075 5.694077
endloop
endfacet
facet normal 0.345831 -0.932414 -0.104907
outer loop
vertex -6.704897 18.211620 0.919561
vertex -9.903990 16.875988 2.244721
vertex -10.503780 16.875988 0.267480
endloop
endfacet
facet normal 0.345832 -0.932412 -0.104918
outer loop
vertex -10.503780 16.875988 0.267480
vertex -7.107668 18.211620 -0.408055
vertex -6.704897 18.211620 0.919561
endloop
endfacet
facet normal 0.470051 -0.671585 0.572735
outer loop
vertex -12.172329 11.916273 -13.794837
vertex -13.652456 9.621087 -15.271397
vertex -10.762316 9.621172 -17.643272
endloop
endfacet
facet normal 0.470026 -0.671602 0.572736
outer loop
vertex -10.762316 9.621172 -17.643272
vertex -9.599365 11.916316 -15.906335
vertex -12.172329 11.916273 -13.794837
endloop
endfacet
facet normal -0.597895 -0.735109 0.319587
outer loop
vertex 12.192871 15.221874 -6.908181
vertex 10.956654 15.221874 -9.220944
vertex 13.951370 11.916231 -11.221900
endloop
endfacet
facet normal -0.597901 -0.735106 0.319583
outer loop
vertex 13.951370 11.916231 -11.221900
vertex 15.520470 11.916145 -8.286501
vertex 12.192871 15.221874 -6.908181
endloop
endfacet
facet normal 0.000000 1.000000 0.000001
outer loop
vertex -3.979188 6.524073 -20.953907
vertex -7.645561 6.524073 -19.841705
vertex -11.024530 6.524073 -18.035620
endloop
endfacet
facet normal -0.104907 -0.932414 -0.345830
outer loop
vertex 2.542101 18.211620 4.749799
vertex 3.867262 16.875988 7.948892
vertex 1.890021 16.875988 8.548681
endloop
endfacet
facet normal -0.104919 -0.932412 -0.345832
outer loop
vertex 1.890021 16.875988 8.548681
vertex 1.214485 18.211620 5.152571
vertex 2.542101 18.211620 4.749799
endloop
endfacet
facet normal -0.196797 -0.735107 0.648759
outer loop
vertex 2.443541 15.221873 -14.909247
vertex 3.146160 11.916401 -18.441540
vertex 6.331324 11.916359 -17.475388
endloop
endfacet
facet normal -0.196803 -0.735111 0.648754
outer loop
vertex 6.331324 11.916359 -17.475388
vertex 4.953070 15.221873 -14.147970
vertex 2.443541 15.221873 -14.909247
endloop
endfacet
facet normal -0.946125 -0.149912 0.287008
outer loop
vertex 17.454315 9.620959 -9.083923
vertex 17.890240 6.524074 -9.264470
vertex 19.002438 6.524074 -5.598093
endloop
endfacet
facet normal -0.946124 -0.149894 0.287022
outer loop
vertex 19.002438 6.524074 -5.598093
vertex 18.539717 9.620874 -5.506110
vertex 17.454315 9.620959 -9.083923
endloop
endfacet
facet normal 0.000000 -1.000000 0.000003
outer loop
vertex -6.704897 18.211620 0.919561
vertex -7.107668 18.211620 -0.408055
vertex -7.243632 18.211620 -1.788818
endloop
endfacet
facet normal 0.000000 -1.000000 0.000003
outer loop
vertex -0.166278 18.211620 5.288535
vertex -2.874656 18.211620 4.749799
vertex -5.170714 18.211620 3.215615
endloop
endfacet
facet normal 0.146728 -0.862857 0.483682
outer loop
vertex -4.199828 16.875986 -11.526526
vertex -5.285646 15.221873 -14.147962
vertex -2.776122 15.221873 -14.909242
endloop
endfacet
facet normal 0.146724 -0.862858 0.483681
outer loop
vertex -2.776122 15.221873 -14.909242
vertex -2.222588 16.875986 -12.126319
vertex -4.199828 16.875986 -11.526526
endloop
endfacet
facet normal -0.000000 -1.000000 0.000001
outer loop
vertex -0.166285 18.211618 -8.866170
vertex 4.838153 18.211618 -6.793258
vertex 6.911077 18.211620 -1.788821
endloop
endfacet
facet normal -0.229263 -0.932413 0.279364
outer loop
vertex 3.765727 18.211618 -7.673430
vertex 5.689439 16.875986 -10.552571
vertex 7.286669 16.875988 -9.241776
endloop
endfacet
facet normal -0.229270 -0.932416 0.279348
outer loop
vertex 7.286669 16.875988 -9.241776
vertex 4.838153 18.211618 -6.793258
vertex 3.765727 18.211618 -7.673430
endloop
endfacet
facet normal 0.000002 -1.000000 0.000000
outer loop
vertex 4.838153 18.211618 -6.793258
vertex 6.372341 18.211620 -4.497201
vertex 6.911077 18.211620 -1.788821
endloop
endfacet
facet normal -0.319581 -0.735106 -0.597903
outer loop
vertex 7.265843 15.221875 9.334113
vertex 9.267105 11.915678 12.329318
vertex 6.331580 11.915635 13.898415
endloop
endfacet
facet normal -0.319591 -0.735102 -0.597902
outer loop
vertex 6.331580 11.915635 13.898415
vertex 4.953079 15.221875 10.570332
vertex 7.265843 15.221875 9.334113
endloop
endfacet
facet normal 0.238265 -0.862857 -0.445767
outer loop
vertex -6.021997 16.875988 6.974925
vertex -4.199815 16.875988 7.948892
vertex -5.285630 15.221875 10.570329
endloop
endfacet
facet normal 0.238271 -0.862855 -0.445768
outer loop
vertex -5.285630 15.221875 10.570329
vertex -7.598392 15.221875 9.334113
vertex -6.021997 16.875988 6.974925
endloop
endfacet
facet normal 0.000000 1.000000 0.000000
outer loop
vertex -3.979165 6.524076 17.383516
vertex -0.166274 6.524076 17.759075
vertex 3.646616 6.524076 17.383516
endloop
endfacet
facet normal 0.000000 -1.000000 -0.000001
outer loop
vertex 6.911077 18.211620 -1.788821
vertex -0.166278 18.211620 5.288535
vertex -5.170714 18.211620 3.215615
endloop
endfacet
facet normal 0.000000 -1.000000 0.000000
outer loop
vertex -5.170714 18.211620 3.215615
vertex -7.243632 18.211620 -1.788818
vertex 6.911077 18.211620 -1.788821
endloop
endfacet
facet normal 0.000000 -1.000000 0.000010
outer loop
vertex -2.874665 18.211618 -8.327434
vertex -1.547050 18.211618 -8.730206
vertex -0.166285 18.211618 -8.866170
endloop
endfacet
facet normal -0.871956 -0.149910 0.466067
outer loop
vertex 16.084156 6.524074 -12.643437
vertex 17.890240 6.524074 -9.264470
vertex 17.454315 9.620959 -9.083923
endloop
endfacet
facet normal -0.871953 -0.149917 0.466072
outer loop
vertex 17.454315 9.620959 -9.083923
vertex 15.691811 9.621044 -12.381284
vertex 16.084156 6.524074 -12.643437
endloop
endfacet
facet normal -0.320650 -0.862855 0.390724
outer loop
vertex 5.689439 16.875986 -10.552571
vertex 7.265836 15.221873 -12.911757
vertex 9.293026 15.221873 -11.248135
endloop
endfacet
facet normal -0.320650 -0.862856 0.390722
outer loop
vertex 9.293026 15.221873 -11.248135
vertex 7.286669 16.875988 -9.241776
vertex 5.689439 16.875986 -10.552571
endloop
endfacet
facet normal 0.000000 -1.000000 0.000003
outer loop
vertex -0.166285 18.211618 -8.866170
vertex 2.542096 18.211618 -8.327438
vertex 4.838153 18.211618 -6.793258
endloop
endfacet
facet normal -0.674687 -0.735107 -0.066445
outer loop
vertex 12.954147 15.221874 0.821007
vertex 13.211172 15.221874 -1.788824
vertex 16.813120 11.915976 -1.788825
endloop
endfacet
facet normal -0.674688 -0.735106 -0.066447
outer loop
vertex 16.813120 11.915976 -1.788825
vertex 16.486931 11.915933 1.523750
vertex 12.954147 15.221874 0.821007
endloop
endfacet
facet normal -0.238269 -0.862856 0.445765
outer loop
vertex 3.867254 16.875986 -11.526534
vertex 4.953070 15.221873 -14.147970
vertex 7.265836 15.221873 -12.911757
endloop
endfacet
facet normal -0.238265 -0.862854 0.445771
outer loop
vertex 7.265836 15.221873 -12.911757
vertex 5.689439 16.875986 -10.552571
vertex 3.867254 16.875986 -11.526534
endloop
endfacet
facet normal -0.000000 1.000000 -0.000001
outer loop
vertex 10.691959 6.524076 14.465247
vertex 13.653643 6.524076 12.034722
vertex 16.084166 6.524076 9.073040
endloop
endfacet
facet normal 0.319591 -0.735102 -0.597902
outer loop
vertex -7.598392 15.221875 9.334113
vertex -5.285630 15.221875 10.570329
vertex -6.664130 11.915635 13.898413
endloop
endfacet
facet normal 0.319580 -0.735106 -0.597903
outer loop
vertex -6.664130 11.915635 13.898413
vertex -9.599649 11.915678 12.329318
vertex -7.598392 15.221875 9.334113
endloop
endfacet
facet normal 0.000000 -1.000000 -0.000000
outer loop
vertex 6.911077 18.211620 -1.788821
vertex -7.243632 18.211620 -1.788818
vertex -5.170720 18.211618 -6.793246
endloop
endfacet
facet normal 0.000000 -1.000000 0.000001
outer loop
vertex -5.170720 18.211618 -6.793246
vertex -0.166285 18.211618 -8.866170
vertex 6.911077 18.211620 -1.788821
endloop
endfacet
facet normal -0.653293 -0.671775 0.349180
outer loop
vertex 13.951370 11.916231 -11.221900
vertex 15.691811 9.621044 -12.381284
vertex 17.454315 9.620959 -9.083923
endloop
endfacet
facet normal -0.653295 -0.671765 0.349196
outer loop
vertex 17.454315 9.620959 -9.083923
vertex 15.520470 11.916145 -8.286501
vertex 13.951370 11.916231 -11.221900
endloop
endfacet
facet normal -0.674692 -0.735102 0.066459
outer loop
vertex 12.954147 15.221874 -4.398654
vertex 16.486744 11.916060 -5.101277
vertex 16.813120 11.915976 -1.788825
endloop
endfacet
facet normal -0.674687 -0.735107 0.066445
outer loop
vertex 16.813120 11.915976 -1.788825
vertex 13.211172 15.221874 -1.788824
vertex 12.954147 15.221874 -4.398654
endloop
endfacet
facet normal -0.287009 -0.149923 0.946123
outer loop
vertex 7.312975 6.524073 -19.841717
vertex 7.132367 9.621215 -19.405731
vertex 3.554555 9.621215 -20.491070
endloop
endfacet
facet normal -0.287007 -0.149920 0.946124
outer loop
vertex 3.554555 9.621215 -20.491070
vertex 3.646599 6.524073 -20.953913
vertex 7.312975 6.524073 -19.841717
endloop
endfacet
facet normal -0.000000 1.000000 0.000000
outer loop
vertex 19.002438 6.524074 -5.598093
vertex 10.691946 6.524073 -18.035641
vertex -3.979188 6.524073 -20.953907
endloop
endfacet
facet normal 0.000000 1.000000 -0.000000
outer loop
vertex -3.979188 6.524073 -20.953907
vertex -19.334986 6.524075 2.027701
vertex 19.002438 6.524074 -5.598093
endloop
endfacet
facet normal 0.320652 -0.862855 -0.390721
outer loop
vertex -7.619229 16.875988 5.664131
vertex -6.021997 16.875988 6.974925
vertex -7.598392 15.221875 9.334113
endloop
endfacet
facet normal 0.320648 -0.862856 -0.390722
outer loop
vertex -7.598392 15.221875 9.334113
vertex -9.625584 15.221875 7.670489
vertex -7.619229 16.875988 5.664131
endloop
endfacet
facet normal -0.345830 -0.932414 0.104907
outer loop
vertex 6.372341 18.211620 -4.497201
vertex 9.571434 16.875988 -5.822363
vertex 10.171228 16.875988 -3.845122
endloop
endfacet
facet normal -0.345832 -0.932412 0.104919
outer loop
vertex 10.171228 16.875988 -3.845122
vertex 6.775114 18.211620 -3.169585
vertex 6.372341 18.211620 -4.497201
endloop
endfacet
facet normal -0.503013 -0.862858 0.049538
outer loop
vertex 10.171228 16.875988 -3.845122
vertex 12.954147 15.221874 -4.398654
vertex 13.211172 15.221874 -1.788824
endloop
endfacet
facet normal -0.503016 -0.862856 0.049545
outer loop
vertex 13.211172 15.221874 -1.788824
vertex 10.373764 16.875988 -1.788823
vertex 10.171228 16.875988 -3.845122
endloop
endfacet
facet normal -0.430089 -0.735102 -0.524069
outer loop
vertex 9.293032 15.221875 7.670489
vertex 11.840130 11.915720 10.217645
vertex 9.267105 11.915678 12.329318
endloop
endfacet
facet normal -0.430081 -0.735106 -0.524070
outer loop
vertex 9.267105 11.915678 12.329318
vertex 7.265843 15.221875 9.334113
vertex 9.293032 15.221875 7.670489
endloop
endfacet
facet normal -0.214802 -0.672623 -0.708123
outer loop
vertex 6.331580 11.915635 13.898415
vertex 7.132566 9.620363 15.835649
vertex 3.554633 9.620363 16.920979
endloop
endfacet
facet normal -0.214805 -0.672621 -0.708124
outer loop
vertex 3.554633 9.620363 16.920979
vertex 3.146298 11.915592 14.864690
vertex 6.331580 11.915635 13.898415
endloop
endfacet
facet normal -0.000005 -1.000000 0.000005
outer loop
vertex 4.838153 18.211618 -6.793258
vertex 5.718329 18.211618 -5.720831
vertex 6.372341 18.211620 -4.497201
endloop
endfacet
facet normal 0.430085 -0.735106 0.524066
outer loop
vertex -9.625595 15.221873 -11.248112
vertex -12.172329 11.916273 -13.794837
vertex -9.599365 11.916316 -15.906335
endloop
endfacet
facet normal 0.430081 -0.735108 0.524067
outer loop
vertex -9.599365 11.916316 -15.906335
vertex -7.598409 15.221873 -12.911741
vertex -9.625595 15.221873 -11.248112
endloop
endfacet
facet normal -0.708470 -0.672221 -0.214916
outer loop
vertex 16.486931 11.915933 1.523750
vertex 18.539778 9.620704 1.935651
vertex 17.454502 9.620619 5.513523
endloop
endfacet
facet normal -0.708462 -0.672228 -0.214921
outer loop
vertex 17.454502 9.620619 5.513523
vertex 15.520716 11.915848 4.709035
vertex 16.486931 11.915933 1.523750
endloop
endfacet
facet normal -0.390722 -0.862857 0.320648
outer loop
vertex 7.286669 16.875988 -9.241776
vertex 9.293026 15.221873 -11.248135
vertex 10.956654 15.221874 -9.220944
endloop
endfacet
facet normal -0.390721 -0.862855 0.320652
outer loop
vertex 10.956654 15.221874 -9.220944
vertex 8.597466 16.875988 -7.644546
vertex 7.286669 16.875988 -9.241776
endloop
endfacet
facet normal 0.000001 1.000000 0.000000
outer loop
vertex -16.416723 6.524074 -12.643402
vertex -18.222805 6.524074 -9.264428
vertex -19.334993 6.524074 -5.598051
endloop
endfacet
facet normal 0.066445 -0.735107 0.674687
outer loop
vertex -0.166290 15.221873 -15.166262
vertex -2.776122 15.221873 -14.909242
vertex -3.478746 11.916401 -18.441532
endloop
endfacet
facet normal 0.066451 -0.735110 0.674683
outer loop
vertex -3.478746 11.916401 -18.441532
vertex -0.166293 11.916401 -18.767782
vertex -0.166290 15.221873 -15.166262
endloop
endfacet
facet normal 0.035425 -0.932412 0.359656
outer loop
vertex -1.547050 18.211618 -8.730206
vertex -2.222588 16.875986 -12.126319
vertex -0.166288 16.875986 -12.328856
endloop
endfacet
facet normal 0.035415 -0.932415 0.359651
outer loop
vertex -0.166288 16.875986 -12.328856
vertex -0.166285 18.211618 -8.866170
vertex -1.547050 18.211618 -8.730206
endloop
endfacet
facet normal -0.096911 -0.149922 0.983937
outer loop
vertex -0.166294 6.524073 -21.329460
vertex 3.646599 6.524073 -20.953913
vertex 3.554555 9.621215 -20.491070
endloop
endfacet
facet normal -0.096905 -0.149931 0.983936
outer loop
vertex 3.554555 9.621215 -20.491070
vertex -0.166294 9.621215 -20.857521
vertex -0.166294 6.524073 -21.329460
endloop
endfacet
facet normal -0.359655 -0.932413 0.035424
outer loop
vertex 6.775114 18.211620 -3.169585
vertex 10.171228 16.875988 -3.845122
vertex 10.373764 16.875988 -1.788823
endloop
endfacet
facet normal -0.359652 -0.932414 0.035414
outer loop
vertex 10.373764 16.875988 -1.788823
vertex 6.911077 18.211620 -1.788821
vertex 6.775114 18.211620 -3.169585
endloop
endfacet
facet normal 0.072527 -0.672643 -0.736404
outer loop
vertex -0.166275 11.915592 15.190944
vertex -0.166274 9.620363 17.287441
vertex -3.887182 9.620363 16.920979
endloop
endfacet
facet normal 0.072529 -0.672645 -0.736403
outer loop
vertex -3.887182 9.620363 16.920979
vertex -3.478847 11.915592 14.864688
vertex -0.166275 11.915592 15.190944
endloop
endfacet
facet normal 0.000000 -1.000000 0.000000
outer loop
vertex 6.911077 18.211620 -1.788821
vertex 6.775114 18.211620 -0.408057
vertex 6.372343 18.211620 0.919559
endloop
endfacet
facet normal 0.000000 -1.000000 0.000000
outer loop
vertex -2.874656 18.211620 4.749799
vertex -4.098286 18.211620 4.095789
vertex -5.170714 18.211620 3.215615
endloop
endfacet
facet normal -0.279358 -0.932415 0.229261
outer loop
vertex 4.838153 18.211618 -6.793258
vertex 7.286669 16.875988 -9.241776
vertex 8.597466 16.875988 -7.644546
endloop
endfacet
facet normal -0.279354 -0.932413 0.229275
outer loop
vertex 8.597466 16.875988 -7.644546
vertex 5.718329 18.211618 -5.720831
vertex 4.838153 18.211618 -6.793258
endloop
endfacet
facet normal 0.000000 1.000000 0.000000
outer loop
vertex -16.416710 6.524076 9.073044
vertex -13.986187 6.524076 12.034724
vertex -11.024506 6.524076 14.465247
endloop
endfacet
facet normal 0.000000 -1.000000 0.000001
outer loop
vertex -5.170714 18.211620 3.215615
vertex -6.704897 18.211620 0.919561
vertex -7.243632 18.211620 -1.788818
endloop
endfacet
facet normal 0.000000 -1.000000 0.000003
outer loop
vertex 4.838158 18.211620 3.215615
vertex 2.542101 18.211620 4.749799
vertex -0.166278 18.211620 5.288535
endloop
endfacet
facet normal -0.000000 1.000000 0.000003
outer loop
vertex -11.024506 6.524076 14.465247
vertex -7.645538 6.524076 16.271328
vertex -3.979165 6.524076 17.383516
endloop
endfacet
facet normal 0.466066 -0.149925 0.871955
outer loop
vertex -11.024530 6.524073 -18.035620
vertex -7.645561 6.524073 -19.841705
vertex -7.464952 9.621215 -19.405716
endloop
endfacet
facet normal 0.466064 -0.149921 0.871957
outer loop
vertex -7.464952 9.621215 -19.405716
vertex -10.762316 9.621172 -17.643272
vertex -11.024530 6.524073 -18.035620
endloop
endfacet
facet normal 0.000000 -1.000000 0.000000
outer loop
vertex 6.911077 18.211620 -1.788821
vertex 6.372343 18.211620 0.919559
vertex 4.838158 18.211620 3.215615
endloop
endfacet
facet normal 0.000000 -1.000000 0.000000
outer loop
vertex -5.170720 18.211618 -6.793246
vertex -2.874665 18.211618 -8.327434
vertex -0.166285 18.211618 -8.866170
endloop
endfacet
facet normal -0.000002 -1.000000 -0.000001
outer loop
vertex -7.243632 18.211620 -1.788818
vertex -6.704901 18.211620 -4.497187
vertex -5.170720 18.211618 -6.793246
endloop
endfacet
facet normal 0.000000 -1.000000 0.000010
outer loop
vertex 2.542101 18.211620 4.749799
vertex 1.214485 18.211620 5.152571
vertex -0.166278 18.211620 5.288535
endloop
endfacet
facet normal 0.000000 -1.000000 -0.000010
outer loop
vertex -0.166285 18.211618 -8.866170
vertex 1.214479 18.211618 -8.730210
vertex 2.542096 18.211618 -8.327438
endloop
endfacet
facet normal 0.000000 -1.000000 -0.000010
outer loop
vertex 4.838158 18.211620 3.215615
vertex 3.765731 18.211620 4.095789
vertex 2.542101 18.211620 4.749799
endloop
endfacet
facet normal 0.000000 -1.000000 -0.000003
outer loop
vertex 6.372341 18.211620 -4.497201
vertex 6.775114 18.211620 -3.169585
vertex 6.911077 18.211620 -1.788821
endloop
endfacet
facet normal 0.000000 -1.000000 0.000000
outer loop
vertex 6.372343 18.211620 0.919559
vertex 5.718332 18.211620 2.143188
vertex 4.838158 18.211620 3.215615
endloop
endfacet
facet normal 0.000000 -1.000000 -0.000020
outer loop
vertex -0.166278 18.211620 5.288535
vertex -1.547041 18.211620 5.152571
vertex -2.874656 18.211620 4.749799
endloop
endfacet
facet normal 0.000000 -1.000000 -0.000005
outer loop
vertex -5.170714 18.211620 3.215615
vertex -6.050887 18.211620 2.143189
vertex -6.704897 18.211620 0.919561
endloop
endfacet
facet normal -0.035414 -0.932414 0.359652
outer loop
vertex 1.214479 18.211618 -8.730210
vertex -0.166285 18.211618 -8.866170
vertex -0.166288 16.875986 -12.328856
endloop
endfacet
facet normal -0.035424 -0.932412 0.359656
outer loop
vertex -0.166288 16.875986 -12.328856
vertex 1.890012 16.875986 -12.126325
vertex 1.214479 18.211618 -8.730210
endloop
endfacet
facet normal -0.287008 -0.149864 -0.946133
outer loop
vertex 7.312992 6.524076 16.271328
vertex 3.646616 6.524076 17.383516
vertex 3.554633 9.620363 16.920979
endloop
endfacet
facet normal -0.287001 -0.149855 -0.946136
outer loop
vertex 3.554633 9.620363 16.920979
vertex 7.132566 9.620363 15.835649
vertex 7.312992 6.524076 16.271328
endloop
endfacet
facet normal -0.627211 -0.149940 0.764280
outer loop
vertex 10.691946 6.524073 -18.035641
vertex 13.653627 6.524073 -15.605118
vertex 13.319876 9.621087 -15.271428
endloop
endfacet
facet normal -0.627224 -0.149923 0.764273
outer loop
vertex 13.319876 9.621087 -15.271428
vertex 10.429731 9.621172 -17.643293
vertex 10.691946 6.524073 -18.035641
endloop
endfacet
facet normal -0.000000 1.000000 0.000000
outer loop
vertex -19.334986 6.524075 2.027701
vertex -16.416710 6.524076 9.073044
vertex -11.024506 6.524076 14.465247
endloop
endfacet
facet normal -0.319590 -0.735110 0.597893
outer loop
vertex 4.953070 15.221873 -14.147970
vertex 6.331324 11.916359 -17.475388
vertex 9.266787 11.916316 -15.906356
endloop
endfacet
facet normal -0.319586 -0.735108 0.597897
outer loop
vertex 9.266787 11.916316 -15.906356
vertex 7.265836 15.221873 -12.911757
vertex 4.953070 15.221873 -14.147970
endloop
endfacet
facet normal 0.214803 -0.672622 -0.708124
outer loop
vertex -3.478847 11.915592 14.864688
vertex -3.887182 9.620363 16.920979
vertex -7.465113 9.620363 15.835645
endloop
endfacet
facet normal 0.214804 -0.672623 -0.708122
outer loop
vertex -7.465113 9.620363 15.835645
vertex -6.664130 11.915635 13.898413
vertex -3.478847 11.915592 14.864688
endloop
endfacet
facet normal 0.764269 -0.149928 0.627227
outer loop
vertex -13.986147 6.524073 -15.605086
vertex -13.652456 9.621087 -15.271397
vertex -16.024376 9.621044 -12.381248
endloop
endfacet
facet normal 0.764277 -0.149917 0.627221
outer loop
vertex -16.024376 9.621044 -12.381248
vertex -16.416723 6.524074 -12.643402
vertex -13.986147 6.524073 -15.605086
endloop
endfacet
facet normal -0.483682 -0.862858 -0.146727
outer loop
vertex 10.171228 16.875988 0.267477
vertex 12.954147 15.221874 0.821007
vertex 12.192873 15.221874 3.330535
endloop
endfacet
facet normal -0.483684 -0.862856 -0.146725
outer loop
vertex 12.192873 15.221874 3.330535
vertex 9.571438 16.875988 2.244718
vertex 10.171228 16.875988 0.267477
endloop
endfacet
facet normal 0.319588 -0.735107 0.597897
outer loop
vertex -5.285646 15.221873 -14.147962
vertex -7.598409 15.221873 -12.911741
vertex -9.599365 11.916316 -15.906335
endloop
endfacet
facet normal 0.319592 -0.735109 0.597892
outer loop
vertex -9.599365 11.916316 -15.906335
vertex -6.663905 11.916359 -17.475374
vertex -5.285646 15.221873 -14.147962
endloop
endfacet
facet normal 0.000000 -1.000000 0.000000
outer loop
vertex 6.911077 18.211620 -1.788821
vertex 4.838158 18.211620 3.215615
vertex -0.166278 18.211620 5.288535
endloop
endfacet
facet normal -0.469493 -0.672514 -0.572103
outer loop
vertex 11.840130 11.915720 10.217645
vertex 13.320135 9.620491 11.701155
vertex 10.429928 9.620406 14.073084
endloop
endfacet
facet normal -0.469511 -0.672501 -0.572103
outer loop
vertex 10.429928 9.620406 14.073084
vertex 9.267105 11.915678 12.329318
vertex 11.840130 11.915720 10.217645
endloop
endfacet
facet normal -0.000001 1.000000 0.000001
outer loop
vertex 19.002438 6.524074 -5.598093
vertex 17.890240 6.524074 -9.264470
vertex 16.084156 6.524074 -12.643437
endloop
endfacet
facet normal 0.000005 -1.000000 0.000010
outer loop
vertex -6.704901 18.211620 -4.497187
vertex -6.050893 18.211618 -5.720818
vertex -5.170720 18.211618 -6.793246
endloop
endfacet
facet normal 0.946124 -0.149907 0.287016
outer loop
vertex -18.222805 6.524074 -9.264428
vertex -17.786877 9.620959 -9.083942
vertex -18.872272 9.620874 -5.506069
endloop
endfacet
facet normal 0.946128 -0.149895 0.287006
outer loop
vertex -18.872272 9.620874 -5.506069
vertex -19.334993 6.524074 -5.598051
vertex -18.222805 6.524074 -9.264428
endloop
endfacet
facet normal -0.072527 -0.672644 -0.736403
outer loop
vertex 3.146298 11.915592 14.864690
vertex 3.554633 9.620363 16.920979
vertex -0.166274 9.620363 17.287441
endloop
endfacet
facet normal -0.072529 -0.672643 -0.736404
outer loop
vertex -0.166274 9.620363 17.287441
vertex -0.166275 11.915592 15.190944
vertex 3.146298 11.915592 14.864690
endloop
endfacet
facet normal 0.871961 -0.149877 -0.466070
outer loop
vertex -16.416710 6.524076 9.073044
vertex -18.222794 6.524075 5.694077
vertex -17.787048 9.620619 5.513529
endloop
endfacet
facet normal 0.871958 -0.149883 -0.466073
outer loop
vertex -17.787048 9.620619 5.513529
vertex -16.024546 9.620534 8.810951
vertex -16.416710 6.524076 9.073044
endloop
endfacet
facet normal 0.000000 1.000000 0.000000
outer loop
vertex -19.334993 6.524074 -5.598051
vertex -19.710541 6.524075 -1.785190
vertex -19.334986 6.524075 2.027701
endloop
endfacet
facet normal 0.000000 1.000000 0.000000
outer loop
vertex -3.979188 6.524073 -20.953907
vertex -11.024530 6.524073 -18.035620
vertex -16.416723 6.524074 -12.643402
endloop
endfacet
facet normal 0.000000 1.000000 -0.000000
outer loop
vertex -3.979188 6.524073 -20.953907
vertex -16.416723 6.524074 -12.643402
vertex -19.334986 6.524075 2.027701
endloop
endfacet
facet normal 0.000000 1.000000 0.000000
outer loop
vertex -11.024506 6.524076 14.465247
vertex -3.979165 6.524076 17.383516
vertex 3.646616 6.524076 17.383516
endloop
endfacet
facet normal -0.000000 1.000000 -0.000000
outer loop
vertex 16.084166 6.524076 9.073040
vertex 19.002438 6.524075 2.027695
vertex 19.002438 6.524074 -5.598093
endloop
endfacet
facet normal 0.597901 -0.735105 -0.319586
outer loop
vertex -11.289207 15.221874 5.643300
vertex -14.284290 11.915763 7.644561
vertex -15.853264 11.915848 4.709040
endloop
endfacet
facet normal 0.597901 -0.735103 -0.319590
outer loop
vertex -15.853264 11.915848 4.709040
vertex -12.525425 15.221874 3.330539
vertex -11.289207 15.221874 5.643300
endloop
endfacet
facet normal -0.104918 -0.932412 0.345831
outer loop
vertex 2.542096 18.211618 -8.327438
vertex 1.214479 18.211618 -8.730210
vertex 1.890012 16.875986 -12.126325
endloop
endfacet
facet normal -0.104906 -0.932414 0.345831
outer loop
vertex 1.890012 16.875986 -12.126325
vertex 3.867254 16.875986 -11.526534
vertex 2.542096 18.211618 -8.327438
endloop
endfacet
facet normal -0.000000 1.000000 -0.000000
outer loop
vertex 10.691946 6.524073 -18.035641
vertex 3.646599 6.524073 -20.953913
vertex -3.979188 6.524073 -20.953907
endloop
endfacet
facet normal -0.000000 1.000000 -0.000000
outer loop
vertex -19.334986 6.524075 2.027701
vertex -11.024506 6.524076 14.465247
vertex 3.646616 6.524076 17.383516
endloop
endfacet
facet normal 0.196798 -0.735099 -0.648768
outer loop
vertex -2.776105 15.221875 11.331603
vertex -3.478847 11.915592 14.864688
vertex -6.664130 11.915635 13.898413
endloop
endfacet
facet normal 0.196804 -0.735103 -0.648761
outer loop
vertex -6.664130 11.915635 13.898413
vertex -5.285630 15.221875 10.570329
vertex -2.776105 15.221875 11.331603
endloop
endfacet
facet normal 0.000000 1.000000 0.000001
outer loop
vertex 3.646616 6.524076 17.383516
vertex 7.312992 6.524076 16.271328
vertex 10.691959 6.524076 14.465247
endloop
endfacet
facet normal 0.000001 1.000000 0.000000
outer loop
vertex 16.084166 6.524076 9.073040
vertex 17.890244 6.524075 5.694071
vertex 19.002438 6.524075 2.027695
endloop
endfacet
facet normal -0.000000 1.000000 -0.000001
outer loop
vertex -11.024530 6.524073 -18.035620
vertex -13.986147 6.524073 -15.605086
vertex -16.416723 6.524074 -12.643402
endloop
endfacet
facet normal 0.000000 1.000000 0.000000
outer loop
vertex 3.646599 6.524073 -20.953913
vertex -0.166294 6.524073 -21.329460
vertex -3.979188 6.524073 -20.953907
endloop
endfacet
facet normal 0.000000 1.000000 -0.000001
outer loop
vertex 16.084156 6.524074 -12.643437
vertex 13.653627 6.524073 -15.605118
vertex 10.691946 6.524073 -18.035641
endloop
endfacet
facet normal -0.000001 1.000000 -0.000001
outer loop
vertex -19.334986 6.524075 2.027701
vertex -18.222794 6.524075 5.694077
vertex -16.416710 6.524076 9.073044
endloop
endfacet
facet normal -0.983939 -0.149912 0.096902
outer loop
vertex 19.377995 6.524075 -1.785199
vertex 18.906178 9.620789 -1.785199
vertex 18.539717 9.620874 -5.506110
endloop
endfacet
facet normal -0.983940 -0.149900 0.096915
outer loop
vertex 18.539717 9.620874 -5.506110
vertex 19.002438 6.524074 -5.598093
vertex 19.377995 6.524075 -1.785199
endloop
endfacet
facet normal -0.000000 1.000000 0.000001
outer loop
vertex 10.691946 6.524073 -18.035641
vertex 7.312975 6.524073 -19.841717
vertex 3.646599 6.524073 -20.953913
endloop
endfacet
facet normal -0.871959 -0.149881 -0.466073
outer loop
vertex 16.084166 6.524076 9.073040
vertex 15.692003 9.620534 8.810947
vertex 17.454502 9.620619 5.513523
endloop
endfacet
facet normal -0.871962 -0.149877 -0.466068
outer loop
vertex 17.454502 9.620619 5.513523
vertex 17.890244 6.524075 5.694071
vertex 16.084166 6.524076 9.073040
endloop
endfacet
facet normal -0.349296 -0.671527 0.653486
outer loop
vertex 6.331324 11.916359 -17.475388
vertex 7.132367 9.621215 -19.405731
vertex 10.429731 9.621172 -17.643293
endloop
endfacet
facet normal -0.349300 -0.671533 0.653477
outer loop
vertex 10.429731 9.621172 -17.643293
vertex 9.266787 11.916316 -15.906356
vertex 6.331324 11.916359 -17.475388
endloop
endfacet
facet normal 0.349294 -0.671533 0.653480
outer loop
vertex -9.599365 11.916316 -15.906335
vertex -10.762316 9.621172 -17.643272
vertex -7.464952 9.621215 -19.405716
endloop
endfacet
facet normal 0.349304 -0.671527 0.653482
outer loop
vertex -7.464952 9.621215 -19.405716
vertex -6.663905 11.916359 -17.475374
vertex -9.599365 11.916316 -15.906335
endloop
endfacet
facet normal -0.572154 -0.672429 -0.469552
outer loop
vertex 13.951742 11.915763 7.644559
vertex 15.692003 9.620534 8.810947
vertex 13.320135 9.620491 11.701155
endloop
endfacet
facet normal -0.572155 -0.672429 -0.469552
outer loop
vertex 13.320135 9.620491 11.701155
vertex 11.840130 11.915720 10.217645
vertex 13.951742 11.915763 7.644559
endloop
endfacet
facet normal 0.318720 -0.932414 0.170356
outer loop
vertex -6.704901 18.211620 -4.497187
vertex -9.903996 16.875988 -5.822340
vertex -8.930033 16.875988 -7.644526
endloop
endfacet
facet normal 0.318724 -0.932414 0.170352
outer loop
vertex -8.930033 16.875988 -7.644526
vertex -6.050893 18.211618 -5.720818
vertex -6.704901 18.211620 -4.497187
endloop
endfacet
facet normal -0.096906 -0.149877 -0.983944
outer loop
vertex -0.166274 6.524076 17.759075
vertex -0.166274 9.620363 17.287441
vertex 3.554633 9.620363 16.920979
endloop
endfacet
facet normal -0.096915 -0.149865 -0.983945
outer loop
vertex 3.554633 9.620363 16.920979
vertex 3.646616 6.524076 17.383516
vertex -0.166274 6.524076 17.759075
endloop
endfacet
facet normal 0.049537 -0.862858 0.503012
outer loop
vertex -2.222588 16.875986 -12.126319
vertex -2.776122 15.221873 -14.909242
vertex -0.166290 15.221873 -15.166262
endloop
endfacet
facet normal 0.049545 -0.862856 0.503016
outer loop
vertex -0.166290 15.221873 -15.166262
vertex -0.166288 16.875986 -12.328856
vertex -2.222588 16.875986 -12.126319
endloop
endfacet
facet normal -0.983941 -0.149890 -0.096915
outer loop
vertex 19.377995 6.524075 -1.785199
vertex 19.002438 6.524075 2.027695
vertex 18.539778 9.620704 1.935651
endloop
endfacet
facet normal -0.983940 -0.149913 -0.096894
outer loop
vertex 18.539778 9.620704 1.935651
vertex 18.906178 9.620789 -1.785199
vertex 19.377995 6.524075 -1.785199
endloop
endfacet
facet normal 0.348853 -0.672576 -0.652643
outer loop
vertex -6.664130 11.915635 13.898413
vertex -7.465113 9.620363 15.835645
vertex -10.762474 9.620406 14.073084
endloop
endfacet
facet normal 0.348847 -0.672567 -0.652655
outer loop
vertex -10.762474 9.620406 14.073084
vertex -9.599649 11.915678 12.329318
vertex -6.664130 11.915635 13.898413
endloop
endfacet
facet normal 0.096915 -0.149865 -0.983945
outer loop
vertex -0.166274 6.524076 17.759075
vertex -3.979165 6.524076 17.383516
vertex -3.887182 9.620363 16.920979
endloop
endfacet
facet normal 0.096906 -0.149877 -0.983944
outer loop
vertex -3.887182 9.620363 16.920979
vertex -0.166274 9.620363 17.287441
vertex -0.166274 6.524076 17.759075
endloop
endfacet
facet normal 0.170353 -0.932414 0.318723
outer loop
vertex -2.874665 18.211618 -8.327434
vertex -4.098295 18.211618 -7.673423
vertex -6.022011 16.875986 -10.552559
endloop
endfacet
facet normal 0.170357 -0.932414 0.318719
outer loop
vertex -6.022011 16.875986 -10.552559
vertex -4.199828 16.875986 -11.526526
vertex -2.874665 18.211618 -8.327434
endloop
endfacet
endsolid Exported from Blender-2.74 (sub 0)
