solid Exported from Blender-2.74 (sub 0)
facet normal 0.000000 -1.000000 0.000000
outer loop
vertex 0.105881 -1.160568 27.668673
vertex -29.592604 -1.160568 -2.029812
vertex 0.105881 -1.160568 -31.728296
endloop
endfacet
facet normal 0.000000 -1.000000 0.000000
outer loop
vertex 0.105881 -1.160568 -31.728296
vertex 29.804365 -1.160568 -2.029812
vertex 0.105881 -1.160568 27.668673
endloop
endfacet
facet normal 0.000000 1.000000 0.000000
outer loop
vertex 0.105881 -0.160568 27.668673
vertex 29.804365 -0.160568 -2.029812
vertex 0.105881 -0.160568 -31.728296
endloop
endfacet
facet normal 0.000000 1.000000 0.000000
outer loop
vertex 0.105881 -0.160568 -31.728296
vertex -29.592604 -0.160568 -2.029812
vertex 0.105881 -0.160568 27.668673
endloop
endfacet
facet normal -0.707107 0.000000 -0.707107
outer loop
vertex 0.105881 -1.160568 -31.728296
vertex -29.592604 -1.160568 -2.029812
vertex -29.592604 -0.160568 -2.029812
endloop
endfacet
facet normal -0.707107 0.000000 -0.707107
outer loop
vertex -29.592604 -0.160568 -2.029812
vertex 0.105881 -0.160568 -31.728296
vertex 0.105881 -1.160568 -31.728296
endloop
endfacet
facet normal 0.707107 0.000000 -0.707107
outer loop
vertex 29.804365 -1.160568 -2.029812
vertex 0.105881 -1.160568 -31.728296
vertex 0.105881 -0.160568 -31.728296
endloop
endfacet
facet normal 0.707107 0.000000 -0.707107
outer loop
vertex 0.105881 -0.160568 -31.728296
vertex 29.804365 -0.160568 -2.029812
vertex 29.804365 -1.160568 -2.029812
endloop
endfacet
facet normal 0.707107 0.000000 0.707107
outer loop
vertex 0.105881 -1.160568 27.668673
vertex 29.804365 -1.160568 -2.029812
vertex 29.804365 -0.160568 -2.029812
endloop
endfacet
facet normal 0.707107 0.000000 0.707107
outer loop
vertex 29.804365 -0.160568 -2.029812
vertex 0.105881 -0.160568 27.668673
vertex 0.105881 -1.160568 27.668673
endloop
endfacet
facet normal -0.707107 0.000000 0.707107
outer loop
vertex -29.592604 -1.160568 -2.029812
vertex 0.105881 -1.160568 27.668673
vertex 0.105881 -0.160568 27.668673
endloop
endfacet
facet normal -0.707107 0.000000 0.707107
outer loop
vertex 0.105881 -0.160568 27.668673
vertex -29.592604 -0.160568 -2.029812
vertex -29.592604 -1.160568 -2.029812
endloop
endfacet
endsolid Exported from Blender-2.74 (sub 0)
