solid Exported from Blender-2.74 (sub 0)
facet normal 0.098017 0.000000 -0.995185
outer loop
vertex -0.166279 2.157730 -22.797997
vertex -0.166279 5.657730 -22.797997
vertex 3.930619 5.657730 -22.394485
endloop
endfacet
facet normal 0.098018 0.000000 -0.995185
outer loop
vertex 3.930619 5.657730 -22.394485
vertex 3.930619 2.157730 -22.394485
vertex -0.166279 2.157730 -22.797997
endloop
endfacet
facet normal 0.290285 0.000000 -0.956940
outer loop
vertex 3.930619 2.157730 -22.394485
vertex 3.930619 5.657730 -22.394485
vertex 7.870075 5.657730 -21.199467
endloop
endfacet
facet normal 0.290284 0.000000 -0.956941
outer loop
vertex 7.870075 5.657730 -21.199467
vertex 7.870075 2.157730 -21.199467
vertex 3.930619 2.157730 -22.394485
endloop
endfacet
facet normal 0.471397 0.000000 -0.881921
outer loop
vertex 7.870075 2.157730 -21.199467
vertex 7.870075 5.657730 -21.199467
vertex 11.500698 5.657730 -19.258858
endloop
endfacet
facet normal 0.471397 0.000000 -0.881921
outer loop
vertex 11.500698 5.657730 -19.258858
vertex 11.500698 2.157730 -19.258858
vertex 7.870075 2.157730 -21.199467
endloop
endfacet
facet normal 0.634393 0.000000 -0.773010
outer loop
vertex 11.500698 2.157730 -19.258858
vertex 11.500698 5.657730 -19.258858
vertex 14.682964 5.657730 -16.647238
endloop
endfacet
facet normal 0.634394 0.000000 -0.773010
outer loop
vertex 14.682964 5.657730 -16.647238
vertex 14.682964 2.157730 -16.647238
vertex 11.500698 2.157730 -19.258858
endloop
endfacet
facet normal 0.773010 0.000000 -0.634393
outer loop
vertex 14.682964 2.157730 -16.647238
vertex 14.682964 5.657730 -16.647238
vertex 17.294586 5.657730 -13.464969
endloop
endfacet
facet normal 0.773010 0.000000 -0.634394
outer loop
vertex 17.294586 5.657730 -13.464969
vertex 17.294586 2.157730 -13.464969
vertex 14.682964 2.157730 -16.647238
endloop
endfacet
facet normal 0.881922 0.000000 -0.471396
outer loop
vertex 17.294586 2.157730 -13.464969
vertex 17.294586 5.657730 -13.464969
vertex 19.235189 5.657730 -9.834346
endloop
endfacet
facet normal 0.881922 0.000000 -0.471396
outer loop
vertex 19.235189 5.657730 -9.834346
vertex 19.235189 2.157730 -9.834346
vertex 17.294586 2.157730 -13.464969
endloop
endfacet
facet normal 0.956940 0.000000 -0.290285
outer loop
vertex 19.235189 2.157730 -9.834346
vertex 19.235189 5.657730 -9.834346
vertex 20.430212 5.657730 -5.894893
endloop
endfacet
facet normal 0.956940 0.000000 -0.290285
outer loop
vertex 20.430212 5.657730 -5.894893
vertex 20.430212 2.157730 -5.894893
vertex 19.235189 2.157730 -9.834346
endloop
endfacet
facet normal 0.995185 0.000000 -0.098017
outer loop
vertex 20.430212 2.157730 -5.894893
vertex 20.430212 5.657730 -5.894893
vertex 20.833719 5.657730 -1.797996
endloop
endfacet
facet normal 0.995185 0.000000 -0.098017
outer loop
vertex 20.833719 5.657730 -1.797996
vertex 20.833719 2.157730 -1.797996
vertex 20.430212 2.157730 -5.894893
endloop
endfacet
facet normal 0.995185 0.000000 0.098017
outer loop
vertex 20.833719 2.157730 -1.797996
vertex 20.833719 5.657730 -1.797996
vertex 20.430212 5.657730 2.298899
endloop
endfacet
facet normal 0.995185 0.000000 0.098017
outer loop
vertex 20.430212 5.657730 2.298899
vertex 20.430212 2.157730 2.298899
vertex 20.833719 2.157730 -1.797996
endloop
endfacet
facet normal 0.956940 0.000000 0.290285
outer loop
vertex 20.430212 2.157730 2.298899
vertex 20.430212 5.657730 2.298899
vertex 19.235189 5.657730 6.238355
endloop
endfacet
facet normal 0.956940 0.000000 0.290285
outer loop
vertex 19.235189 5.657730 6.238355
vertex 19.235189 2.157730 6.238355
vertex 20.430212 2.157730 2.298899
endloop
endfacet
facet normal 0.881922 0.000000 0.471395
outer loop
vertex 19.235189 2.157730 6.238355
vertex 19.235189 5.657730 6.238355
vertex 17.294586 5.657730 9.868979
endloop
endfacet
facet normal 0.881922 0.000000 0.471396
outer loop
vertex 17.294586 5.657730 9.868979
vertex 17.294586 2.157730 9.868979
vertex 19.235189 2.157730 6.238355
endloop
endfacet
facet normal 0.773010 0.000000 0.634394
outer loop
vertex 17.294586 2.157730 9.868979
vertex 17.294586 5.657730 9.868979
vertex 14.682964 5.657730 13.051247
endloop
endfacet
facet normal 0.773010 0.000000 0.634393
outer loop
vertex 14.682964 5.657730 13.051247
vertex 14.682964 2.157730 13.051247
vertex 17.294586 2.157730 9.868979
endloop
endfacet
facet normal 0.634394 0.000000 0.773010
outer loop
vertex 14.682964 2.157730 13.051247
vertex 14.682964 5.657730 13.051247
vertex 11.500696 5.657730 15.662868
endloop
endfacet
facet normal 0.634393 0.000000 0.773010
outer loop
vertex 11.500696 5.657730 15.662868
vertex 11.500696 2.157730 15.662868
vertex 14.682964 2.157730 13.051247
endloop
endfacet
facet normal 0.471397 0.000000 0.881921
outer loop
vertex 11.500696 2.157730 15.662868
vertex 11.500696 5.657730 15.662868
vertex 7.870071 5.657730 17.603477
endloop
endfacet
facet normal 0.471397 0.000000 0.881921
outer loop
vertex 7.870071 5.657730 17.603477
vertex 7.870071 2.157730 17.603477
vertex 11.500696 2.157730 15.662868
endloop
endfacet
facet normal 0.290284 0.000000 0.956941
outer loop
vertex 7.870071 2.157730 17.603477
vertex 7.870071 5.657730 17.603477
vertex 3.930614 5.657730 18.798496
endloop
endfacet
facet normal 0.290284 0.000000 0.956940
outer loop
vertex 3.930614 5.657730 18.798496
vertex 3.930614 2.157730 18.798496
vertex 7.870071 2.157730 17.603477
endloop
endfacet
facet normal 0.098017 0.000000 0.995185
outer loop
vertex 3.930614 2.157730 18.798496
vertex 3.930614 5.657730 18.798496
vertex -0.166285 5.657730 19.202003
endloop
endfacet
facet normal 0.098017 0.000000 0.995185
outer loop
vertex -0.166285 5.657730 19.202003
vertex -0.166285 2.157730 19.202003
vertex 3.930614 2.157730 18.798496
endloop
endfacet
facet normal -0.098018 0.000000 0.995185
outer loop
vertex -0.166285 2.157730 19.202003
vertex -0.166285 5.657730 19.202003
vertex -4.263184 5.657730 18.798491
endloop
endfacet
facet normal -0.098019 0.000000 0.995184
outer loop
vertex -4.263184 5.657730 18.798491
vertex -4.263184 2.157730 18.798491
vertex -0.166285 2.157730 19.202003
endloop
endfacet
facet normal -0.290284 0.000000 0.956941
outer loop
vertex -4.263184 2.157730 18.798491
vertex -4.263184 5.657730 18.798491
vertex -8.202641 5.657730 17.603470
endloop
endfacet
facet normal -0.290285 0.000000 0.956940
outer loop
vertex -8.202641 5.657730 17.603470
vertex -8.202641 2.157730 17.603470
vertex -4.263184 2.157730 18.798491
endloop
endfacet
facet normal -0.471397 0.000000 0.881921
outer loop
vertex -8.202641 2.157730 17.603470
vertex -8.202641 5.657730 17.603470
vertex -11.833265 5.657730 15.662862
endloop
endfacet
facet normal -0.471397 0.000000 0.881921
outer loop
vertex -11.833265 5.657730 15.662862
vertex -11.833265 2.157730 15.662862
vertex -8.202641 2.157730 17.603470
endloop
endfacet
facet normal -0.634394 0.000000 0.773010
outer loop
vertex -11.833265 2.157730 15.662862
vertex -11.833265 5.657730 15.662862
vertex -15.015532 5.657730 13.051239
endloop
endfacet
facet normal -0.634394 0.000000 0.773010
outer loop
vertex -15.015532 5.657730 13.051239
vertex -15.015532 2.157730 13.051239
vertex -11.833265 2.157730 15.662862
endloop
endfacet
facet normal -0.773011 0.000000 0.634393
outer loop
vertex -15.015532 2.157730 13.051239
vertex -15.015532 5.657730 13.051239
vertex -17.627151 5.657730 9.868968
endloop
endfacet
facet normal -0.773011 0.000000 0.634393
outer loop
vertex -17.627151 5.657730 9.868968
vertex -17.627151 2.157730 9.868968
vertex -15.015532 2.157730 13.051239
endloop
endfacet
facet normal -0.881922 0.000000 0.471396
outer loop
vertex -17.627151 2.157730 9.868968
vertex -17.627151 5.657730 9.868968
vertex -19.567759 5.657730 6.238341
endloop
endfacet
facet normal -0.881922 0.000000 0.471396
outer loop
vertex -19.567759 5.657730 6.238341
vertex -19.567759 2.157730 6.238341
vertex -17.627151 2.157730 9.868968
endloop
endfacet
facet normal -0.956941 0.000000 0.290283
outer loop
vertex -19.567759 2.157730 6.238341
vertex -19.567759 5.657730 6.238341
vertex -20.762774 5.657730 2.298883
endloop
endfacet
facet normal -0.956941 0.000000 0.290283
outer loop
vertex -20.762774 5.657730 2.298883
vertex -20.762774 2.157730 2.298883
vertex -19.567759 2.157730 6.238341
endloop
endfacet
facet normal -0.995185 0.000000 0.098017
outer loop
vertex -20.762774 2.157730 2.298883
vertex -20.762774 5.657730 2.298883
vertex -21.166281 5.657730 -1.798015
endloop
endfacet
facet normal -0.995185 0.000000 0.098017
outer loop
vertex -21.166281 5.657730 -1.798015
vertex -21.166281 2.157730 -1.798015
vertex -20.762774 2.157730 2.298883
endloop
endfacet
facet normal -0.995185 0.000000 -0.098018
outer loop
vertex -21.166281 2.157730 -1.798015
vertex -21.166281 5.657730 -1.798015
vertex -20.762768 5.657730 -5.894914
endloop
endfacet
facet normal -0.995185 0.000000 -0.098018
outer loop
vertex -20.762768 5.657730 -5.894914
vertex -20.762768 2.157730 -5.894914
vertex -21.166281 2.157730 -1.798015
endloop
endfacet
facet normal -0.956940 0.000000 -0.290286
outer loop
vertex -20.762768 2.157730 -5.894914
vertex -20.762768 5.657730 -5.894914
vertex -19.567741 5.657730 -9.834369
endloop
endfacet
facet normal -0.956940 0.000000 -0.290286
outer loop
vertex -19.567741 5.657730 -9.834369
vertex -19.567741 2.157730 -9.834369
vertex -20.762768 2.157730 -5.894914
endloop
endfacet
facet normal -0.881921 0.000000 -0.471398
outer loop
vertex -19.567741 2.157730 -9.834369
vertex -19.567741 5.657730 -9.834369
vertex -17.627131 5.657730 -13.464990
endloop
endfacet
facet normal -0.881921 0.000000 -0.471397
outer loop
vertex -17.627131 5.657730 -13.464990
vertex -17.627131 2.157730 -13.464990
vertex -19.567741 2.157730 -9.834369
endloop
endfacet
facet normal -0.773009 0.000000 -0.634395
outer loop
vertex -17.627131 2.157730 -13.464990
vertex -17.627131 5.657730 -13.464990
vertex -15.015503 5.657730 -16.647255
endloop
endfacet
facet normal -0.773009 0.000000 -0.634395
outer loop
vertex -15.015503 5.657730 -16.647255
vertex -15.015503 2.157730 -16.647255
vertex -17.627131 2.157730 -13.464990
endloop
endfacet
facet normal -0.634392 0.000000 -0.773011
outer loop
vertex -15.015503 2.157730 -16.647255
vertex -15.015503 5.657730 -16.647255
vertex -11.833229 5.657730 -19.258873
endloop
endfacet
facet normal -0.634392 0.000000 -0.773012
outer loop
vertex -11.833229 5.657730 -19.258873
vertex -11.833229 2.157730 -19.258873
vertex -15.015503 2.157730 -16.647255
endloop
endfacet
facet normal -0.471396 0.000000 -0.881921
outer loop
vertex -11.833229 2.157730 -19.258873
vertex -11.833229 5.657730 -19.258873
vertex -8.202602 5.657730 -21.199478
endloop
endfacet
facet normal -0.471396 0.000000 -0.881922
outer loop
vertex -8.202602 5.657730 -21.199478
vertex -8.202602 2.157730 -21.199478
vertex -11.833229 2.157730 -19.258873
endloop
endfacet
facet normal 0.000000 1.000000 -0.000001
outer loop
vertex 3.930619 5.657730 -22.394485
vertex 11.500698 5.657730 -19.258858
vertex 7.870075 5.657730 -21.199467
endloop
endfacet
facet normal 0.000000 1.000000 0.000001
outer loop
vertex 17.294586 5.657730 -13.464969
vertex 14.682964 5.657730 -16.647238
vertex 11.500698 5.657730 -19.258858
endloop
endfacet
facet normal 0.000000 1.000000 0.000000
outer loop
vertex 20.430212 5.657730 -5.894893
vertex 19.235189 5.657730 -9.834346
vertex 17.294586 5.657730 -13.464969
endloop
endfacet
facet normal 0.000000 1.000000 0.000000
outer loop
vertex 20.430212 5.657730 2.298899
vertex 20.833719 5.657730 -1.797996
vertex 20.430212 5.657730 -5.894893
endloop
endfacet
facet normal 0.000000 1.000000 0.000000
outer loop
vertex 17.294586 5.657730 9.868979
vertex 19.235189 5.657730 6.238355
vertex 20.430212 5.657730 2.298899
endloop
endfacet
facet normal 0.000000 1.000000 0.000001
outer loop
vertex 11.500696 5.657730 15.662868
vertex 14.682964 5.657730 13.051247
vertex 17.294586 5.657730 9.868979
endloop
endfacet
facet normal 0.000000 1.000000 -0.000001
outer loop
vertex 3.930614 5.657730 18.798496
vertex 7.870071 5.657730 17.603477
vertex 11.500696 5.657730 15.662868
endloop
endfacet
facet normal 0.000000 1.000000 0.000002
outer loop
vertex -4.263184 5.657730 18.798491
vertex -0.166285 5.657730 19.202003
vertex 3.930614 5.657730 18.798496
endloop
endfacet
facet normal 0.000000 1.000000 -0.000001
outer loop
vertex -11.833265 5.657730 15.662862
vertex -8.202641 5.657730 17.603470
vertex -4.263184 5.657730 18.798491
endloop
endfacet
facet normal 0.000000 1.000000 -0.000001
outer loop
vertex -17.627151 5.657730 9.868968
vertex -15.015532 5.657730 13.051239
vertex -11.833265 5.657730 15.662862
endloop
endfacet
facet normal 0.000000 1.000000 0.000000
outer loop
vertex -20.762774 5.657730 2.298883
vertex -19.567759 5.657730 6.238341
vertex -17.627151 5.657730 9.868968
endloop
endfacet
facet normal 0.000000 1.000000 0.000000
outer loop
vertex -20.762768 5.657730 -5.894914
vertex -21.166281 5.657730 -1.798015
vertex -20.762774 5.657730 2.298883
endloop
endfacet
facet normal 0.000000 1.000000 0.000001
outer loop
vertex -17.627131 5.657730 -13.464990
vertex -19.567741 5.657730 -9.834369
vertex -20.762768 5.657730 -5.894914
endloop
endfacet
facet normal 0.000000 1.000000 -0.000001
outer loop
vertex -11.833229 5.657730 -19.258873
vertex -15.015503 5.657730 -16.647255
vertex -17.627131 5.657730 -13.464990
endloop
endfacet
facet normal 0.000000 1.000000 0.000000
outer loop
vertex -4.263144 5.657730 -22.394493
vertex -8.202602 5.657730 -21.199478
vertex -11.833229 5.657730 -19.258873
endloop
endfacet
facet normal 0.000000 1.000000 -0.000002
outer loop
vertex 3.930619 5.657730 -22.394485
vertex -0.166279 5.657730 -22.797997
vertex -4.263144 5.657730 -22.394493
endloop
endfacet
facet normal 0.000000 1.000000 0.000000
outer loop
vertex 3.930619 5.657730 -22.394485
vertex 17.294586 5.657730 -13.464969
vertex 11.500698 5.657730 -19.258858
endloop
endfacet
facet normal 0.000000 1.000000 0.000000
outer loop
vertex 20.430212 5.657730 2.298899
vertex 20.430212 5.657730 -5.894893
vertex 17.294586 5.657730 -13.464969
endloop
endfacet
facet normal 0.000000 1.000000 0.000000
outer loop
vertex 11.500696 5.657730 15.662868
vertex 17.294586 5.657730 9.868979
vertex 20.430212 5.657730 2.298899
endloop
endfacet
facet normal 0.000000 1.000000 -0.000001
outer loop
vertex -4.263184 5.657730 18.798491
vertex 3.930614 5.657730 18.798496
vertex 11.500696 5.657730 15.662868
endloop
endfacet
facet normal 0.000000 1.000000 0.000001
outer loop
vertex -17.627151 5.657730 9.868968
vertex -11.833265 5.657730 15.662862
vertex -4.263184 5.657730 18.798491
endloop
endfacet
facet normal 0.000000 1.000000 0.000000
outer loop
vertex -20.762768 5.657730 -5.894914
vertex -20.762774 5.657730 2.298883
vertex -17.627151 5.657730 9.868968
endloop
endfacet
facet normal 0.000000 1.000000 0.000000
outer loop
vertex -11.833229 5.657730 -19.258873
vertex -17.627131 5.657730 -13.464990
vertex -20.762768 5.657730 -5.894914
endloop
endfacet
facet normal 0.000000 1.000000 0.000000
outer loop
vertex 3.930619 5.657730 -22.394485
vertex -4.263144 5.657730 -22.394493
vertex -11.833229 5.657730 -19.258873
endloop
endfacet
facet normal 0.000000 1.000000 0.000000
outer loop
vertex 3.930619 5.657730 -22.394485
vertex 20.430212 5.657730 2.298899
vertex 17.294586 5.657730 -13.464969
endloop
endfacet
facet normal 0.000000 1.000000 0.000000
outer loop
vertex -4.263184 5.657730 18.798491
vertex 11.500696 5.657730 15.662868
vertex 20.430212 5.657730 2.298899
endloop
endfacet
facet normal 0.000000 1.000000 0.000000
outer loop
vertex -20.762768 5.657730 -5.894914
vertex -17.627151 5.657730 9.868968
vertex -4.263184 5.657730 18.798491
endloop
endfacet
facet normal 0.000000 1.000000 0.000000
outer loop
vertex 3.930619 5.657730 -22.394485
vertex -11.833229 5.657730 -19.258873
vertex -20.762768 5.657730 -5.894914
endloop
endfacet
facet normal 0.000000 1.000000 -0.000000
outer loop
vertex 3.930619 5.657730 -22.394485
vertex -4.263184 5.657730 18.798491
vertex 20.430212 5.657730 2.298899
endloop
endfacet
facet normal 0.000000 1.000000 -0.000000
outer loop
vertex 3.930619 5.657730 -22.394485
vertex -20.762768 5.657730 -5.894914
vertex -4.263184 5.657730 18.798491
endloop
endfacet
facet normal -0.098017 0.000000 -0.995185
outer loop
vertex -0.166279 5.657730 -22.797997
vertex -0.166279 2.157730 -22.797997
vertex -4.263144 2.157730 -22.394493
endloop
endfacet
facet normal -0.098017 0.000000 -0.995185
outer loop
vertex -4.263144 2.157730 -22.394493
vertex -4.263144 5.657730 -22.394493
vertex -0.166279 5.657730 -22.797997
endloop
endfacet
facet normal -0.290283 0.000000 -0.956941
outer loop
vertex -8.202602 2.157730 -21.199478
vertex -8.202602 5.657730 -21.199478
vertex -4.263144 5.657730 -22.394493
endloop
endfacet
facet normal -0.290282 0.000000 -0.956941
outer loop
vertex -4.263144 5.657730 -22.394493
vertex -4.263144 2.157730 -22.394493
vertex -8.202602 2.157730 -21.199478
endloop
endfacet
facet normal 0.000000 -1.000000 -0.000001
outer loop
vertex -0.166279 2.157730 -22.797997
vertex -8.202602 2.157730 -21.199478
vertex -4.263144 2.157730 -22.394493
endloop
endfacet
facet normal 0.000000 -1.000000 0.000000
outer loop
vertex -15.015503 2.157730 -16.647255
vertex -11.833229 2.157730 -19.258873
vertex -8.202602 2.157730 -21.199478
endloop
endfacet
facet normal 0.000000 -1.000000 0.000000
outer loop
vertex -19.567741 2.157730 -9.834369
vertex -17.627131 2.157730 -13.464990
vertex -15.015503 2.157730 -16.647255
endloop
endfacet
facet normal 0.000000 -1.000000 0.000000
outer loop
vertex -21.166281 2.157730 -1.798015
vertex -20.762768 2.157730 -5.894914
vertex -19.567741 2.157730 -9.834369
endloop
endfacet
facet normal 0.000000 -1.000000 0.000000
outer loop
vertex -19.567759 2.157730 6.238341
vertex -20.762774 2.157730 2.298883
vertex -21.166281 2.157730 -1.798015
endloop
endfacet
facet normal 0.000000 -1.000000 0.000000
outer loop
vertex -15.015532 2.157730 13.051239
vertex -17.627151 2.157730 9.868968
vertex -19.567759 2.157730 6.238341
endloop
endfacet
facet normal 0.000000 -1.000000 0.000000
outer loop
vertex -8.202641 2.157730 17.603470
vertex -11.833265 2.157730 15.662862
vertex -15.015532 2.157730 13.051239
endloop
endfacet
facet normal 0.000000 -1.000000 0.000001
outer loop
vertex -0.166285 2.157730 19.202003
vertex -4.263184 2.157730 18.798491
vertex -8.202641 2.157730 17.603470
endloop
endfacet
facet normal 0.000000 -1.000000 0.000001
outer loop
vertex 7.870071 2.157730 17.603477
vertex 3.930614 2.157730 18.798496
vertex -0.166285 2.157730 19.202003
endloop
endfacet
facet normal 0.000000 -1.000000 0.000000
outer loop
vertex 14.682964 2.157730 13.051247
vertex 11.500696 2.157730 15.662868
vertex 7.870071 2.157730 17.603477
endloop
endfacet
facet normal 0.000000 -1.000000 0.000000
outer loop
vertex 19.235189 2.157730 6.238355
vertex 17.294586 2.157730 9.868979
vertex 14.682964 2.157730 13.051247
endloop
endfacet
facet normal 0.000000 -1.000000 0.000000
outer loop
vertex 20.833719 2.157730 -1.797996
vertex 20.430212 2.157730 2.298899
vertex 19.235189 2.157730 6.238355
endloop
endfacet
facet normal 0.000000 -1.000000 -0.000000
outer loop
vertex 19.235189 2.157730 -9.834346
vertex 20.430212 2.157730 -5.894893
vertex 20.833719 2.157730 -1.797996
endloop
endfacet
facet normal 0.000000 -1.000000 0.000000
outer loop
vertex 14.682964 2.157730 -16.647238
vertex 17.294586 2.157730 -13.464969
vertex 19.235189 2.157730 -9.834346
endloop
endfacet
facet normal 0.000000 -1.000000 -0.000000
outer loop
vertex 7.870075 2.157730 -21.199467
vertex 11.500698 2.157730 -19.258858
vertex 14.682964 2.157730 -16.647238
endloop
endfacet
facet normal 0.000000 -1.000000 0.000000
outer loop
vertex -0.166279 2.157730 -22.797997
vertex 3.930619 2.157730 -22.394485
vertex 7.870075 2.157730 -21.199467
endloop
endfacet
facet normal 0.000000 -1.000000 0.000000
outer loop
vertex -0.166279 2.157730 -22.797997
vertex -15.015503 2.157730 -16.647255
vertex -8.202602 2.157730 -21.199478
endloop
endfacet
facet normal 0.000000 -1.000000 0.000000
outer loop
vertex -21.166281 2.157730 -1.798015
vertex -19.567741 2.157730 -9.834369
vertex -15.015503 2.157730 -16.647255
endloop
endfacet
facet normal 0.000000 -1.000000 -0.000000
outer loop
vertex -15.015532 2.157730 13.051239
vertex -19.567759 2.157730 6.238341
vertex -21.166281 2.157730 -1.798015
endloop
endfacet
facet normal 0.000000 -1.000000 0.000000
outer loop
vertex -0.166285 2.157730 19.202003
vertex -8.202641 2.157730 17.603470
vertex -15.015532 2.157730 13.051239
endloop
endfacet
facet normal 0.000000 -1.000000 0.000000
outer loop
vertex 14.682964 2.157730 13.051247
vertex 7.870071 2.157730 17.603477
vertex -0.166285 2.157730 19.202003
endloop
endfacet
facet normal 0.000000 -1.000000 0.000000
outer loop
vertex 20.833719 2.157730 -1.797996
vertex 19.235189 2.157730 6.238355
vertex 14.682964 2.157730 13.051247
endloop
endfacet
facet normal 0.000000 -1.000000 0.000000
outer loop
vertex 14.682964 2.157730 -16.647238
vertex 19.235189 2.157730 -9.834346
vertex 20.833719 2.157730 -1.797996
endloop
endfacet
facet normal 0.000000 -1.000000 0.000000
outer loop
vertex -0.166279 2.157730 -22.797997
vertex 7.870075 2.157730 -21.199467
vertex 14.682964 2.157730 -16.647238
endloop
endfacet
facet normal 0.000000 -1.000000 -0.000000
outer loop
vertex -0.166279 2.157730 -22.797997
vertex -21.166281 2.157730 -1.798015
vertex -15.015503 2.157730 -16.647255
endloop
endfacet
facet normal 0.000000 -1.000000 -0.000000
outer loop
vertex -0.166285 2.157730 19.202003
vertex -15.015532 2.157730 13.051239
vertex -21.166281 2.157730 -1.798015
endloop
endfacet
facet normal 0.000000 -1.000000 0.000000
outer loop
vertex 20.833719 2.157730 -1.797996
vertex 14.682964 2.157730 13.051247
vertex -0.166285 2.157730 19.202003
endloop
endfacet
facet normal 0.000000 -1.000000 -0.000000
outer loop
vertex -0.166279 2.157730 -22.797997
vertex 14.682964 2.157730 -16.647238
vertex 20.833719 2.157730 -1.797996
endloop
endfacet
facet normal 0.000000 -1.000000 0.000000
outer loop
vertex -0.166279 2.157730 -22.797997
vertex -0.166285 2.157730 19.202003
vertex -21.166281 2.157730 -1.798015
endloop
endfacet
facet normal 0.000000 -1.000000 -0.000000
outer loop
vertex -0.166279 2.157730 -22.797997
vertex 20.833719 2.157730 -1.797996
vertex -0.166285 2.157730 19.202003
endloop
endfacet
endsolid Exported from Blender-2.74 (sub 0)
