solid Exported from Blender-2.74 (sub 0)
facet normal -0.098022 0.000000 0.995184
outer loop
vertex -0.166279 4.286350 -21.342264
vertex -0.166279 3.529110 -21.342264
vertex 3.646614 3.529110 -20.966707
endloop
endfacet
facet normal -0.098023 0.000000 0.995184
outer loop
vertex 3.646614 3.529110 -20.966707
vertex 3.646614 4.286350 -20.966707
vertex -0.166279 4.286350 -21.342264
endloop
endfacet
facet normal -0.290287 0.000000 0.956940
outer loop
vertex 7.312990 3.529110 -19.854515
vertex 7.312990 4.286350 -19.854515
vertex 3.646614 4.286350 -20.966707
endloop
endfacet
facet normal -0.290288 0.000000 0.956939
outer loop
vertex 3.646614 4.286350 -20.966707
vertex 3.646614 3.529110 -20.966707
vertex 7.312990 3.529110 -19.854515
endloop
endfacet
facet normal -0.471394 0.000000 0.881923
outer loop
vertex 10.691957 3.529110 -18.048433
vertex 10.691957 4.286350 -18.048433
vertex 7.312990 4.286350 -19.854515
endloop
endfacet
facet normal -0.471394 0.000000 0.881923
outer loop
vertex 7.312990 4.286350 -19.854515
vertex 7.312990 3.529110 -19.854515
vertex 10.691957 3.529110 -18.048433
endloop
endfacet
facet normal -0.634384 0.000000 0.773018
outer loop
vertex 13.653637 3.529110 -15.617908
vertex 13.653637 4.286350 -15.617908
vertex 10.691957 4.286350 -18.048433
endloop
endfacet
facet normal -0.634383 0.000000 0.773019
outer loop
vertex 10.691957 4.286350 -18.048433
vertex 10.691957 3.529110 -18.048433
vertex 13.653637 3.529110 -15.617908
endloop
endfacet
facet normal -0.773019 0.000000 0.634383
outer loop
vertex 16.084162 3.529110 -12.656228
vertex 16.084162 4.286350 -12.656228
vertex 13.653637 4.286350 -15.617908
endloop
endfacet
facet normal -0.773019 0.000000 0.634383
outer loop
vertex 13.653637 4.286350 -15.617908
vertex 13.653637 3.529110 -15.617908
vertex 16.084162 3.529110 -12.656228
endloop
endfacet
facet normal -0.881923 0.000000 0.471393
outer loop
vertex 17.890240 3.529110 -9.277261
vertex 17.890240 4.286350 -9.277261
vertex 16.084162 4.286350 -12.656228
endloop
endfacet
facet normal -0.881923 0.000000 0.471393
outer loop
vertex 16.084162 4.286350 -12.656228
vertex 16.084162 3.529110 -12.656228
vertex 17.890240 3.529110 -9.277261
endloop
endfacet
facet normal -0.956940 0.000000 0.290288
outer loop
vertex 19.002434 3.529110 -5.610888
vertex 19.002434 4.286350 -5.610888
vertex 17.890240 4.286350 -9.277261
endloop
endfacet
facet normal -0.956940 0.000000 0.290288
outer loop
vertex 17.890240 4.286350 -9.277261
vertex 17.890240 3.529110 -9.277261
vertex 19.002434 3.529110 -5.610888
endloop
endfacet
facet normal -0.995184 0.000000 0.098021
outer loop
vertex 19.377987 3.529110 -1.797996
vertex 19.377987 4.286350 -1.797996
vertex 19.002434 4.286350 -5.610888
endloop
endfacet
facet normal -0.995184 0.000000 0.098021
outer loop
vertex 19.002434 4.286350 -5.610888
vertex 19.002434 3.529110 -5.610888
vertex 19.377987 3.529110 -1.797996
endloop
endfacet
facet normal -0.995184 0.000000 -0.098021
outer loop
vertex 19.002434 3.529110 2.014894
vertex 19.002434 4.286350 2.014894
vertex 19.377987 4.286350 -1.797996
endloop
endfacet
facet normal -0.995184 0.000000 -0.098021
outer loop
vertex 19.377987 4.286350 -1.797996
vertex 19.377987 3.529110 -1.797996
vertex 19.002434 3.529110 2.014894
endloop
endfacet
facet normal -0.956940 0.000000 -0.290287
outer loop
vertex 17.890240 3.529110 5.681270
vertex 17.890240 4.286350 5.681270
vertex 19.002434 4.286350 2.014894
endloop
endfacet
facet normal -0.956940 0.000000 -0.290287
outer loop
vertex 19.002434 4.286350 2.014894
vertex 19.002434 3.529110 2.014894
vertex 17.890240 3.529110 5.681270
endloop
endfacet
facet normal -0.881923 0.000000 -0.471393
outer loop
vertex 16.084162 3.529110 9.060238
vertex 16.084162 4.286350 9.060238
vertex 17.890240 4.286350 5.681270
endloop
endfacet
facet normal -0.881923 0.000000 -0.471393
outer loop
vertex 17.890240 4.286350 5.681270
vertex 17.890240 3.529110 5.681270
vertex 16.084162 3.529110 9.060238
endloop
endfacet
facet normal -0.773019 0.000000 -0.634383
outer loop
vertex 13.653637 3.529110 12.021918
vertex 13.653637 4.286350 12.021918
vertex 16.084162 4.286350 9.060238
endloop
endfacet
facet normal -0.773019 0.000000 -0.634383
outer loop
vertex 16.084162 4.286350 9.060238
vertex 16.084162 3.529110 9.060238
vertex 13.653637 3.529110 12.021918
endloop
endfacet
facet normal -0.634383 0.000000 -0.773019
outer loop
vertex 10.691956 3.529110 14.452443
vertex 10.691956 4.286350 14.452443
vertex 13.653637 4.286350 12.021918
endloop
endfacet
facet normal -0.634383 0.000000 -0.773019
outer loop
vertex 13.653637 4.286350 12.021918
vertex 13.653637 3.529110 12.021918
vertex 10.691956 3.529110 14.452443
endloop
endfacet
facet normal -0.471394 0.000000 -0.881923
outer loop
vertex 7.312986 3.529110 16.258526
vertex 7.312986 4.286350 16.258526
vertex 10.691956 4.286350 14.452443
endloop
endfacet
facet normal -0.471393 0.000000 -0.881923
outer loop
vertex 10.691956 4.286350 14.452443
vertex 10.691956 3.529110 14.452443
vertex 7.312986 3.529110 16.258526
endloop
endfacet
facet normal -0.290287 0.000000 -0.956940
outer loop
vertex 3.646608 3.529110 17.370718
vertex 3.646608 4.286350 17.370718
vertex 7.312986 4.286350 16.258526
endloop
endfacet
facet normal -0.290286 0.000000 -0.956940
outer loop
vertex 7.312986 4.286350 16.258526
vertex 7.312986 3.529110 16.258526
vertex 3.646608 3.529110 17.370718
endloop
endfacet
facet normal -0.098021 0.000000 -0.995184
outer loop
vertex -0.166285 3.529110 17.746271
vertex -0.166285 4.286350 17.746271
vertex 3.646608 4.286350 17.370718
endloop
endfacet
facet normal -0.098021 0.000000 -0.995184
outer loop
vertex 3.646608 4.286350 17.370718
vertex 3.646608 3.529110 17.370718
vertex -0.166285 3.529110 17.746271
endloop
endfacet
facet normal 0.098022 0.000000 -0.995184
outer loop
vertex -3.979179 3.529110 17.370712
vertex -3.979179 4.286350 17.370712
vertex -0.166285 4.286350 17.746271
endloop
endfacet
facet normal 0.098023 0.000000 -0.995184
outer loop
vertex -0.166285 4.286350 17.746271
vertex -0.166285 3.529110 17.746271
vertex -3.979179 3.529110 17.370712
endloop
endfacet
facet normal 0.290287 0.000000 -0.956940
outer loop
vertex -7.645555 3.529110 16.258518
vertex -7.645555 4.286350 16.258518
vertex -3.979179 4.286350 17.370712
endloop
endfacet
facet normal 0.290287 0.000000 -0.956940
outer loop
vertex -3.979179 4.286350 17.370712
vertex -3.979179 3.529110 17.370712
vertex -7.645555 3.529110 16.258518
endloop
endfacet
facet normal 0.471394 0.000000 -0.881923
outer loop
vertex -11.024525 3.529110 14.452437
vertex -11.024525 4.286350 14.452437
vertex -7.645555 4.286350 16.258518
endloop
endfacet
facet normal 0.471393 0.000000 -0.881923
outer loop
vertex -7.645555 4.286350 16.258518
vertex -7.645555 3.529110 16.258518
vertex -11.024525 3.529110 14.452437
endloop
endfacet
facet normal 0.634384 0.000000 -0.773018
outer loop
vertex -13.986202 3.529110 12.021911
vertex -13.986202 4.286350 12.021911
vertex -11.024525 4.286350 14.452437
endloop
endfacet
facet normal 0.634384 0.000000 -0.773018
outer loop
vertex -11.024525 4.286350 14.452437
vertex -11.024525 3.529110 14.452437
vertex -13.986202 3.529110 12.021911
endloop
endfacet
facet normal 0.773019 0.000000 -0.634383
outer loop
vertex -16.416727 3.529110 9.060227
vertex -16.416727 4.286350 9.060227
vertex -13.986202 4.286350 12.021911
endloop
endfacet
facet normal 0.773019 0.000000 -0.634383
outer loop
vertex -13.986202 4.286350 12.021911
vertex -13.986202 3.529110 12.021911
vertex -16.416727 3.529110 9.060227
endloop
endfacet
facet normal 0.881923 0.000000 -0.471393
outer loop
vertex -18.222809 3.529110 5.681256
vertex -18.222809 4.286350 5.681256
vertex -16.416727 4.286350 9.060227
endloop
endfacet
facet normal 0.881923 0.000000 -0.471393
outer loop
vertex -16.416727 4.286350 9.060227
vertex -16.416727 3.529110 9.060227
vertex -18.222809 3.529110 5.681256
endloop
endfacet
facet normal 0.956940 0.000000 -0.290285
outer loop
vertex -19.334995 3.529110 2.014878
vertex -19.334995 4.286350 2.014878
vertex -18.222809 4.286350 5.681256
endloop
endfacet
facet normal 0.956940 0.000000 -0.290285
outer loop
vertex -18.222809 4.286350 5.681256
vertex -18.222809 3.529110 5.681256
vertex -19.334995 3.529110 2.014878
endloop
endfacet
facet normal 0.995184 0.000000 -0.098021
outer loop
vertex -19.710548 3.529110 -1.798015
vertex -19.710548 4.286350 -1.798015
vertex -19.334995 4.286350 2.014878
endloop
endfacet
facet normal 0.995184 0.000000 -0.098021
outer loop
vertex -19.334995 4.286350 2.014878
vertex -19.334995 3.529110 2.014878
vertex -19.710548 3.529110 -1.798015
endloop
endfacet
facet normal 0.995184 0.000000 0.098023
outer loop
vertex -19.334990 3.529110 -5.610909
vertex -19.334990 4.286350 -5.610909
vertex -19.710548 4.286350 -1.798015
endloop
endfacet
facet normal 0.995184 0.000000 0.098023
outer loop
vertex -19.710548 4.286350 -1.798015
vertex -19.710548 3.529110 -1.798015
vertex -19.334990 3.529110 -5.610909
endloop
endfacet
facet normal 0.956939 0.000000 0.290289
outer loop
vertex -18.222790 3.529110 -9.277284
vertex -18.222790 4.286350 -9.277284
vertex -19.334990 4.286350 -5.610909
endloop
endfacet
facet normal 0.956939 0.000000 0.290289
outer loop
vertex -19.334990 4.286350 -5.610909
vertex -19.334990 3.529110 -5.610909
vertex -18.222790 3.529110 -9.277284
endloop
endfacet
facet normal 0.881922 0.000000 0.471395
outer loop
vertex -16.416706 3.529110 -12.656249
vertex -16.416706 4.286350 -12.656249
vertex -18.222790 4.286350 -9.277284
endloop
endfacet
facet normal 0.881922 0.000000 0.471395
outer loop
vertex -18.222790 4.286350 -9.277284
vertex -18.222790 3.529110 -9.277284
vertex -16.416706 3.529110 -12.656249
endloop
endfacet
facet normal 0.773011 0.000000 0.634393
outer loop
vertex -13.986176 3.529110 -15.617866
vertex -13.986176 4.286350 -15.617866
vertex -16.416706 4.286350 -12.656249
endloop
endfacet
facet normal 0.773012 0.000000 0.634392
outer loop
vertex -16.416706 4.286350 -12.656249
vertex -16.416706 3.529110 -12.656249
vertex -13.986176 3.529110 -15.617866
endloop
endfacet
facet normal 0.634392 0.000000 0.773012
outer loop
vertex -11.024488 3.529110 -18.048449
vertex -11.024488 4.286350 -18.048449
vertex -13.986176 4.286350 -15.617866
endloop
endfacet
facet normal 0.634391 0.000000 0.773012
outer loop
vertex -13.986176 4.286350 -15.617866
vertex -13.986176 3.529110 -15.617866
vertex -11.024488 3.529110 -18.048449
endloop
endfacet
facet normal 0.471392 0.000000 0.881924
outer loop
vertex -7.645518 3.529110 -19.854527
vertex -7.645518 4.286350 -19.854527
vertex -11.024488 4.286350 -18.048449
endloop
endfacet
facet normal 0.471393 0.000000 0.881923
outer loop
vertex -11.024488 4.286350 -18.048449
vertex -11.024488 3.529110 -18.048449
vertex -7.645518 3.529110 -19.854527
endloop
endfacet
facet normal 0.000000 -1.000000 -0.000001
outer loop
vertex 7.312990 4.286350 -19.854515
vertex -0.166279 4.286350 -21.342264
vertex 3.646614 4.286350 -20.966707
endloop
endfacet
facet normal 0.000000 -1.000000 0.000000
outer loop
vertex -7.645518 4.286350 -19.854527
vertex -3.979139 4.286350 -20.966715
vertex -0.166279 4.286350 -21.342264
endloop
endfacet
facet normal 0.000000 -1.000000 0.000000
outer loop
vertex -13.986176 4.286350 -15.617866
vertex -11.024488 4.286350 -18.048449
vertex -7.645518 4.286350 -19.854527
endloop
endfacet
facet normal 0.000000 -1.000000 0.000001
outer loop
vertex -18.222790 4.286350 -9.277284
vertex -16.416706 4.286350 -12.656249
vertex -13.986176 4.286350 -15.617866
endloop
endfacet
facet normal 0.000000 -1.000000 0.000000
outer loop
vertex -19.710548 4.286350 -1.798015
vertex -19.334990 4.286350 -5.610909
vertex -18.222790 4.286350 -9.277284
endloop
endfacet
facet normal 0.000000 -1.000000 0.000000
outer loop
vertex -18.222809 4.286350 5.681256
vertex -19.334995 4.286350 2.014878
vertex -19.710548 4.286350 -1.798015
endloop
endfacet
facet normal 0.000000 -1.000000 -0.000001
outer loop
vertex -13.986202 4.286350 12.021911
vertex -16.416727 4.286350 9.060227
vertex -18.222809 4.286350 5.681256
endloop
endfacet
facet normal 0.000000 -1.000000 0.000000
outer loop
vertex -7.645555 4.286350 16.258518
vertex -11.024525 4.286350 14.452437
vertex -13.986202 4.286350 12.021911
endloop
endfacet
facet normal 0.000000 -1.000000 0.000000
outer loop
vertex -0.166285 4.286350 17.746271
vertex -3.979179 4.286350 17.370712
vertex -7.645555 4.286350 16.258518
endloop
endfacet
facet normal 0.000000 -1.000000 0.000000
outer loop
vertex 7.312986 4.286350 16.258526
vertex 3.646608 4.286350 17.370718
vertex -0.166285 4.286350 17.746271
endloop
endfacet
facet normal 0.000000 -1.000000 -0.000001
outer loop
vertex 13.653637 4.286350 12.021918
vertex 10.691956 4.286350 14.452443
vertex 7.312986 4.286350 16.258526
endloop
endfacet
facet normal 0.000000 -1.000000 0.000000
outer loop
vertex 17.890240 4.286350 5.681270
vertex 16.084162 4.286350 9.060238
vertex 13.653637 4.286350 12.021918
endloop
endfacet
facet normal 0.000000 -1.000000 0.000000
outer loop
vertex 19.377987 4.286350 -1.797996
vertex 19.002434 4.286350 2.014894
vertex 17.890240 4.286350 5.681270
endloop
endfacet
facet normal 0.000000 -1.000000 -0.000000
outer loop
vertex 17.890240 4.286350 -9.277261
vertex 19.002434 4.286350 -5.610888
vertex 19.377987 4.286350 -1.797996
endloop
endfacet
facet normal 0.000000 -1.000000 0.000000
outer loop
vertex 13.653637 4.286350 -15.617908
vertex 16.084162 4.286350 -12.656228
vertex 17.890240 4.286350 -9.277261
endloop
endfacet
facet normal 0.000000 -1.000000 -0.000001
outer loop
vertex 7.312990 4.286350 -19.854515
vertex 10.691957 4.286350 -18.048433
vertex 13.653637 4.286350 -15.617908
endloop
endfacet
facet normal 0.000000 -1.000000 0.000000
outer loop
vertex 7.312990 4.286350 -19.854515
vertex -7.645518 4.286350 -19.854527
vertex -0.166279 4.286350 -21.342264
endloop
endfacet
facet normal 0.000000 -1.000000 0.000000
outer loop
vertex -18.222790 4.286350 -9.277284
vertex -13.986176 4.286350 -15.617866
vertex -7.645518 4.286350 -19.854527
endloop
endfacet
facet normal 0.000000 -1.000000 -0.000000
outer loop
vertex -18.222809 4.286350 5.681256
vertex -19.710548 4.286350 -1.798015
vertex -18.222790 4.286350 -9.277284
endloop
endfacet
facet normal 0.000000 -1.000000 0.000000
outer loop
vertex -7.645555 4.286350 16.258518
vertex -13.986202 4.286350 12.021911
vertex -18.222809 4.286350 5.681256
endloop
endfacet
facet normal 0.000000 -1.000000 0.000000
outer loop
vertex 7.312986 4.286350 16.258526
vertex -0.166285 4.286350 17.746271
vertex -7.645555 4.286350 16.258518
endloop
endfacet
facet normal 0.000000 -1.000000 0.000000
outer loop
vertex 17.890240 4.286350 5.681270
vertex 13.653637 4.286350 12.021918
vertex 7.312986 4.286350 16.258526
endloop
endfacet
facet normal 0.000000 -1.000000 0.000000
outer loop
vertex 17.890240 4.286350 -9.277261
vertex 19.377987 4.286350 -1.797996
vertex 17.890240 4.286350 5.681270
endloop
endfacet
facet normal 0.000000 -1.000000 -0.000000
outer loop
vertex 7.312990 4.286350 -19.854515
vertex 13.653637 4.286350 -15.617908
vertex 17.890240 4.286350 -9.277261
endloop
endfacet
facet normal 0.000000 -1.000000 0.000000
outer loop
vertex 7.312990 4.286350 -19.854515
vertex -18.222790 4.286350 -9.277284
vertex -7.645518 4.286350 -19.854527
endloop
endfacet
facet normal 0.000000 -1.000000 0.000000
outer loop
vertex -7.645555 4.286350 16.258518
vertex -18.222809 4.286350 5.681256
vertex -18.222790 4.286350 -9.277284
endloop
endfacet
facet normal 0.000000 -1.000000 0.000000
outer loop
vertex 17.890240 4.286350 5.681270
vertex 7.312986 4.286350 16.258526
vertex -7.645555 4.286350 16.258518
endloop
endfacet
facet normal 0.000000 -1.000000 0.000000
outer loop
vertex 7.312990 4.286350 -19.854515
vertex 17.890240 4.286350 -9.277261
vertex 17.890240 4.286350 5.681270
endloop
endfacet
facet normal 0.000000 -1.000000 -0.000000
outer loop
vertex 7.312990 4.286350 -19.854515
vertex -7.645555 4.286350 16.258518
vertex -18.222790 4.286350 -9.277284
endloop
endfacet
facet normal 0.000000 -1.000000 0.000000
outer loop
vertex 7.312990 4.286350 -19.854515
vertex 17.890240 4.286350 5.681270
vertex -7.645555 4.286350 16.258518
endloop
endfacet
facet normal 0.098021 0.000000 0.995184
outer loop
vertex -0.166279 3.529110 -21.342264
vertex -0.166279 4.286350 -21.342264
vertex -3.979139 4.286350 -20.966715
endloop
endfacet
facet normal 0.098021 0.000000 0.995184
outer loop
vertex -3.979139 4.286350 -20.966715
vertex -3.979139 3.529110 -20.966715
vertex -0.166279 3.529110 -21.342264
endloop
endfacet
facet normal 0.290286 0.000000 0.956940
outer loop
vertex -3.979139 3.529110 -20.966715
vertex -3.979139 4.286350 -20.966715
vertex -7.645518 4.286350 -19.854527
endloop
endfacet
facet normal 0.290286 0.000000 0.956940
outer loop
vertex -7.645518 4.286350 -19.854527
vertex -7.645518 3.529110 -19.854527
vertex -3.979139 3.529110 -20.966715
endloop
endfacet
facet normal 0.000000 1.000000 0.000000
outer loop
vertex -3.979139 3.529110 -20.966715
vertex 3.646614 3.529110 -20.966707
vertex -0.166279 3.529110 -21.342264
endloop
endfacet
facet normal 0.000000 1.000000 -0.000001
outer loop
vertex 10.691957 3.529110 -18.048433
vertex 7.312990 3.529110 -19.854515
vertex 3.646614 3.529110 -20.966707
endloop
endfacet
facet normal 0.000000 1.000000 -0.000001
outer loop
vertex 16.084162 3.529110 -12.656228
vertex 13.653637 3.529110 -15.617908
vertex 10.691957 3.529110 -18.048433
endloop
endfacet
facet normal 0.000000 1.000000 0.000000
outer loop
vertex 19.002434 3.529110 -5.610888
vertex 17.890240 3.529110 -9.277261
vertex 16.084162 3.529110 -12.656228
endloop
endfacet
facet normal 0.000000 1.000000 0.000000
outer loop
vertex 19.002434 3.529110 2.014894
vertex 19.377987 3.529110 -1.797996
vertex 19.002434 3.529110 -5.610888
endloop
endfacet
facet normal 0.000000 1.000000 0.000000
outer loop
vertex 16.084162 3.529110 9.060238
vertex 17.890240 3.529110 5.681270
vertex 19.002434 3.529110 2.014894
endloop
endfacet
facet normal 0.000000 1.000000 0.000000
outer loop
vertex 10.691956 3.529110 14.452443
vertex 13.653637 3.529110 12.021918
vertex 16.084162 3.529110 9.060238
endloop
endfacet
facet normal 0.000000 1.000000 0.000001
outer loop
vertex 3.646608 3.529110 17.370718
vertex 7.312986 3.529110 16.258526
vertex 10.691956 3.529110 14.452443
endloop
endfacet
facet normal 0.000000 1.000000 -0.000001
outer loop
vertex -3.979179 3.529110 17.370712
vertex -0.166285 3.529110 17.746271
vertex 3.646608 3.529110 17.370718
endloop
endfacet
facet normal 0.000000 1.000000 0.000001
outer loop
vertex -11.024525 3.529110 14.452437
vertex -7.645555 3.529110 16.258518
vertex -3.979179 3.529110 17.370712
endloop
endfacet
facet normal 0.000000 1.000000 0.000000
outer loop
vertex -16.416727 3.529110 9.060227
vertex -13.986202 3.529110 12.021911
vertex -11.024525 3.529110 14.452437
endloop
endfacet
facet normal 0.000000 1.000000 -0.000000
outer loop
vertex -19.334995 3.529110 2.014878
vertex -18.222809 3.529110 5.681256
vertex -16.416727 3.529110 9.060227
endloop
endfacet
facet normal 0.000000 1.000000 0.000000
outer loop
vertex -19.334990 3.529110 -5.610909
vertex -19.710548 3.529110 -1.798015
vertex -19.334995 3.529110 2.014878
endloop
endfacet
facet normal 0.000000 1.000000 -0.000000
outer loop
vertex -16.416706 3.529110 -12.656249
vertex -18.222790 3.529110 -9.277284
vertex -19.334990 3.529110 -5.610909
endloop
endfacet
facet normal 0.000000 1.000000 0.000000
outer loop
vertex -11.024488 3.529110 -18.048449
vertex -13.986176 3.529110 -15.617866
vertex -16.416706 3.529110 -12.656249
endloop
endfacet
facet normal 0.000000 1.000000 0.000000
outer loop
vertex -3.979139 3.529110 -20.966715
vertex -7.645518 3.529110 -19.854527
vertex -11.024488 3.529110 -18.048449
endloop
endfacet
facet normal 0.000000 1.000000 0.000000
outer loop
vertex -3.979139 3.529110 -20.966715
vertex 10.691957 3.529110 -18.048433
vertex 3.646614 3.529110 -20.966707
endloop
endfacet
facet normal 0.000000 1.000000 0.000000
outer loop
vertex 19.002434 3.529110 -5.610888
vertex 16.084162 3.529110 -12.656228
vertex 10.691957 3.529110 -18.048433
endloop
endfacet
facet normal 0.000000 1.000000 0.000000
outer loop
vertex 16.084162 3.529110 9.060238
vertex 19.002434 3.529110 2.014894
vertex 19.002434 3.529110 -5.610888
endloop
endfacet
facet normal 0.000000 1.000000 0.000000
outer loop
vertex 3.646608 3.529110 17.370718
vertex 10.691956 3.529110 14.452443
vertex 16.084162 3.529110 9.060238
endloop
endfacet
facet normal 0.000000 1.000000 0.000000
outer loop
vertex -11.024525 3.529110 14.452437
vertex -3.979179 3.529110 17.370712
vertex 3.646608 3.529110 17.370718
endloop
endfacet
facet normal 0.000000 1.000000 0.000000
outer loop
vertex -19.334995 3.529110 2.014878
vertex -16.416727 3.529110 9.060227
vertex -11.024525 3.529110 14.452437
endloop
endfacet
facet normal 0.000000 1.000000 0.000000
outer loop
vertex -16.416706 3.529110 -12.656249
vertex -19.334990 3.529110 -5.610909
vertex -19.334995 3.529110 2.014878
endloop
endfacet
facet normal 0.000000 1.000000 0.000000
outer loop
vertex -3.979139 3.529110 -20.966715
vertex -11.024488 3.529110 -18.048449
vertex -16.416706 3.529110 -12.656249
endloop
endfacet
facet normal 0.000000 1.000000 -0.000000
outer loop
vertex -3.979139 3.529110 -20.966715
vertex 19.002434 3.529110 -5.610888
vertex 10.691957 3.529110 -18.048433
endloop
endfacet
facet normal 0.000000 1.000000 0.000000
outer loop
vertex 3.646608 3.529110 17.370718
vertex 16.084162 3.529110 9.060238
vertex 19.002434 3.529110 -5.610888
endloop
endfacet
facet normal 0.000000 1.000000 0.000000
outer loop
vertex -19.334995 3.529110 2.014878
vertex -11.024525 3.529110 14.452437
vertex 3.646608 3.529110 17.370718
endloop
endfacet
facet normal 0.000000 1.000000 -0.000000
outer loop
vertex -3.979139 3.529110 -20.966715
vertex -16.416706 3.529110 -12.656249
vertex -19.334995 3.529110 2.014878
endloop
endfacet
facet normal 0.000000 1.000000 0.000000
outer loop
vertex -3.979139 3.529110 -20.966715
vertex 3.646608 3.529110 17.370718
vertex 19.002434 3.529110 -5.610888
endloop
endfacet
facet normal 0.000000 1.000000 0.000000
outer loop
vertex -3.979139 3.529110 -20.966715
vertex -19.334995 3.529110 2.014878
vertex 3.646608 3.529110 17.370718
endloop
endfacet
endsolid Exported from Blender-2.74 (sub 0)
