solid Exported from Blender-2.74 (sub 0)
facet normal 0.098017 0.000000 -0.995185
outer loop
vertex -0.166279 0.164982 -22.797995
vertex -0.166279 2.164982 -22.797995
vertex 3.930619 2.164982 -22.394487
endloop
endfacet
facet normal 0.098017 0.000000 -0.995185
outer loop
vertex 3.930619 2.164982 -22.394487
vertex 3.930619 0.164982 -22.394487
vertex -0.166279 0.164982 -22.797995
endloop
endfacet
facet normal 0.290284 0.000000 -0.956940
outer loop
vertex 3.930619 0.164982 -22.394487
vertex 3.930619 2.164982 -22.394487
vertex 7.870075 2.164982 -21.199467
endloop
endfacet
facet normal 0.290285 0.000000 -0.956940
outer loop
vertex 7.870075 2.164982 -21.199467
vertex 7.870075 0.164982 -21.199467
vertex 3.930619 0.164982 -22.394487
endloop
endfacet
facet normal 0.471398 0.000000 -0.881921
outer loop
vertex 7.870075 0.164982 -21.199467
vertex 7.870075 2.164982 -21.199467
vertex 11.500698 2.164982 -19.258856
endloop
endfacet
facet normal 0.471397 0.000000 -0.881921
outer loop
vertex 11.500698 2.164982 -19.258856
vertex 11.500698 0.164982 -19.258856
vertex 7.870075 0.164982 -21.199467
endloop
endfacet
facet normal 0.634394 0.000000 -0.773010
outer loop
vertex 11.500698 0.164982 -19.258856
vertex 11.500698 2.164982 -19.258856
vertex 14.682964 2.164982 -16.647236
endloop
endfacet
facet normal 0.634393 0.000000 -0.773010
outer loop
vertex 14.682964 2.164982 -16.647236
vertex 14.682964 0.164982 -16.647236
vertex 11.500698 0.164982 -19.258856
endloop
endfacet
facet normal 0.773010 0.000000 -0.634394
outer loop
vertex 14.682964 0.164982 -16.647236
vertex 14.682964 2.164982 -16.647236
vertex 17.294584 2.164982 -13.464969
endloop
endfacet
facet normal 0.773010 0.000000 -0.634393
outer loop
vertex 17.294584 2.164982 -13.464969
vertex 17.294584 0.164982 -13.464969
vertex 14.682964 0.164982 -16.647236
endloop
endfacet
facet normal 0.881921 0.000000 -0.471397
outer loop
vertex 17.294584 0.164982 -13.464969
vertex 17.294584 2.164982 -13.464969
vertex 19.235191 2.164982 -9.834346
endloop
endfacet
facet normal 0.881921 0.000000 -0.471397
outer loop
vertex 19.235191 2.164982 -9.834346
vertex 19.235191 0.164982 -9.834346
vertex 17.294584 0.164982 -13.464969
endloop
endfacet
facet normal 0.956940 0.000000 -0.290284
outer loop
vertex 19.235191 0.164982 -9.834346
vertex 19.235191 2.164982 -9.834346
vertex 20.430210 2.164982 -5.894892
endloop
endfacet
facet normal 0.956940 0.000000 -0.290284
outer loop
vertex 20.430210 2.164982 -5.894892
vertex 20.430210 0.164982 -5.894892
vertex 19.235191 0.164982 -9.834346
endloop
endfacet
facet normal 0.995185 0.000000 -0.098017
outer loop
vertex 20.430210 0.164982 -5.894892
vertex 20.430210 2.164982 -5.894892
vertex 20.833719 2.164982 -1.797996
endloop
endfacet
facet normal 0.995185 0.000000 -0.098017
outer loop
vertex 20.833719 2.164982 -1.797996
vertex 20.833719 0.164982 -1.797996
vertex 20.430210 0.164982 -5.894892
endloop
endfacet
facet normal 0.995185 0.000000 0.098016
outer loop
vertex 20.833719 0.164982 -1.797996
vertex 20.833719 2.164982 -1.797996
vertex 20.430214 2.164982 2.298899
endloop
endfacet
facet normal 0.995185 0.000000 0.098016
outer loop
vertex 20.430214 2.164982 2.298899
vertex 20.430214 0.164982 2.298899
vertex 20.833719 0.164982 -1.797996
endloop
endfacet
facet normal 0.956940 0.000000 0.290285
outer loop
vertex 20.430214 0.164982 2.298899
vertex 20.430214 2.164982 2.298899
vertex 19.235191 2.164982 6.238355
endloop
endfacet
facet normal 0.956940 0.000000 0.290285
outer loop
vertex 19.235191 2.164982 6.238355
vertex 19.235191 0.164982 6.238355
vertex 20.430214 0.164982 2.298899
endloop
endfacet
facet normal 0.881921 0.000000 0.471396
outer loop
vertex 19.235191 0.164982 6.238355
vertex 19.235191 2.164982 6.238355
vertex 17.294584 2.164982 9.868979
endloop
endfacet
facet normal 0.881921 0.000000 0.471396
outer loop
vertex 17.294584 2.164982 9.868979
vertex 17.294584 0.164982 9.868979
vertex 19.235191 0.164982 6.238355
endloop
endfacet
facet normal 0.773010 0.000000 0.634393
outer loop
vertex 17.294584 0.164982 9.868979
vertex 17.294584 2.164982 9.868979
vertex 14.682964 2.164982 13.051248
endloop
endfacet
facet normal 0.773010 0.000000 0.634393
outer loop
vertex 14.682964 2.164982 13.051248
vertex 14.682964 0.164982 13.051248
vertex 17.294584 0.164982 9.868979
endloop
endfacet
facet normal 0.634393 0.000000 0.773011
outer loop
vertex 14.682964 0.164982 13.051248
vertex 14.682964 2.164982 13.051248
vertex 11.500696 2.164982 15.662866
endloop
endfacet
facet normal 0.634393 0.000000 0.773011
outer loop
vertex 11.500696 2.164982 15.662866
vertex 11.500696 0.164982 15.662866
vertex 14.682964 0.164982 13.051248
endloop
endfacet
facet normal 0.471397 0.000000 0.881921
outer loop
vertex 11.500696 0.164982 15.662866
vertex 11.500696 2.164982 15.662866
vertex 7.870070 2.164982 17.603476
endloop
endfacet
facet normal 0.471397 0.000000 0.881921
outer loop
vertex 7.870070 2.164982 17.603476
vertex 7.870070 0.164982 17.603476
vertex 11.500696 0.164982 15.662866
endloop
endfacet
facet normal 0.290284 0.000000 0.956940
outer loop
vertex 7.870070 0.164982 17.603476
vertex 7.870070 2.164982 17.603476
vertex 3.930614 2.164982 18.798494
endloop
endfacet
facet normal 0.290284 0.000000 0.956940
outer loop
vertex 3.930614 2.164982 18.798494
vertex 3.930614 0.164982 18.798494
vertex 7.870070 0.164982 17.603476
endloop
endfacet
facet normal 0.098018 0.000000 0.995185
outer loop
vertex 3.930614 0.164982 18.798494
vertex 3.930614 2.164982 18.798494
vertex -0.166285 2.164982 19.202005
endloop
endfacet
facet normal 0.098018 0.000000 0.995185
outer loop
vertex -0.166285 2.164982 19.202005
vertex -0.166285 0.164982 19.202005
vertex 3.930614 0.164982 18.798494
endloop
endfacet
facet normal -0.098018 0.000000 0.995185
outer loop
vertex -0.166285 0.164982 19.202005
vertex -0.166285 2.164982 19.202005
vertex -4.263184 2.164982 18.798492
endloop
endfacet
facet normal -0.098018 0.000000 0.995185
outer loop
vertex -4.263184 2.164982 18.798492
vertex -4.263184 0.164982 18.798492
vertex -0.166285 0.164982 19.202005
endloop
endfacet
facet normal -0.290285 0.000000 0.956940
outer loop
vertex -4.263184 0.164982 18.798492
vertex -4.263184 2.164982 18.798492
vertex -8.202641 2.164982 17.603470
endloop
endfacet
facet normal -0.290285 0.000000 0.956940
outer loop
vertex -8.202641 2.164982 17.603470
vertex -8.202641 0.164982 17.603470
vertex -4.263184 0.164982 18.798492
endloop
endfacet
facet normal -0.471397 0.000000 0.881921
outer loop
vertex -8.202641 0.164982 17.603470
vertex -8.202641 2.164982 17.603470
vertex -11.833263 2.164982 15.662860
endloop
endfacet
facet normal -0.471397 0.000000 0.881921
outer loop
vertex -11.833263 2.164982 15.662860
vertex -11.833263 0.164982 15.662860
vertex -8.202641 0.164982 17.603470
endloop
endfacet
facet normal -0.634394 0.000000 0.773010
outer loop
vertex -11.833263 0.164982 15.662860
vertex -11.833263 2.164982 15.662860
vertex -15.015532 2.164982 13.051238
endloop
endfacet
facet normal -0.634394 0.000000 0.773010
outer loop
vertex -15.015532 2.164982 13.051238
vertex -15.015532 0.164982 13.051238
vertex -11.833263 0.164982 15.662860
endloop
endfacet
facet normal -0.773011 0.000000 0.634393
outer loop
vertex -15.015532 0.164982 13.051238
vertex -15.015532 2.164982 13.051238
vertex -17.627151 2.164982 9.868968
endloop
endfacet
facet normal -0.773011 0.000000 0.634393
outer loop
vertex -17.627151 2.164982 9.868968
vertex -17.627151 0.164982 9.868968
vertex -15.015532 0.164982 13.051238
endloop
endfacet
facet normal -0.881921 0.000000 0.471396
outer loop
vertex -17.627151 0.164982 9.868968
vertex -17.627151 2.164982 9.868968
vertex -19.567759 2.164982 6.238342
endloop
endfacet
facet normal -0.881922 0.000000 0.471396
outer loop
vertex -19.567759 2.164982 6.238342
vertex -19.567759 0.164982 6.238342
vertex -17.627151 0.164982 9.868968
endloop
endfacet
facet normal -0.956941 0.000000 0.290283
outer loop
vertex -19.567759 0.164982 6.238342
vertex -19.567759 2.164982 6.238342
vertex -20.762774 2.164982 2.298884
endloop
endfacet
facet normal -0.956941 0.000000 0.290283
outer loop
vertex -20.762774 2.164982 2.298884
vertex -20.762774 0.164982 2.298884
vertex -19.567759 0.164982 6.238342
endloop
endfacet
facet normal -0.995185 0.000000 0.098017
outer loop
vertex -20.762774 0.164982 2.298884
vertex -20.762774 2.164982 2.298884
vertex -21.166281 2.164982 -1.798015
endloop
endfacet
facet normal -0.995185 0.000000 0.098017
outer loop
vertex -21.166281 2.164982 -1.798015
vertex -21.166281 0.164982 -1.798015
vertex -20.762774 0.164982 2.298884
endloop
endfacet
facet normal -0.995185 0.000000 -0.098018
outer loop
vertex -21.166281 0.164982 -1.798015
vertex -21.166281 2.164982 -1.798015
vertex -20.762768 2.164982 -5.894913
endloop
endfacet
facet normal -0.995185 0.000000 -0.098018
outer loop
vertex -20.762768 2.164982 -5.894913
vertex -20.762768 0.164982 -5.894913
vertex -21.166281 0.164982 -1.798015
endloop
endfacet
facet normal -0.956940 0.000000 -0.290286
outer loop
vertex -20.762768 0.164982 -5.894913
vertex -20.762768 2.164982 -5.894913
vertex -19.567741 2.164982 -9.834368
endloop
endfacet
facet normal -0.956940 0.000000 -0.290286
outer loop
vertex -19.567741 2.164982 -9.834368
vertex -19.567741 0.164982 -9.834368
vertex -20.762768 0.164982 -5.894913
endloop
endfacet
facet normal -0.881921 0.000000 -0.471398
outer loop
vertex -19.567741 0.164982 -9.834368
vertex -19.567741 2.164982 -9.834368
vertex -17.627129 2.164982 -13.464991
endloop
endfacet
facet normal -0.881921 0.000000 -0.471398
outer loop
vertex -17.627129 2.164982 -13.464991
vertex -17.627129 0.164982 -13.464991
vertex -19.567741 0.164982 -9.834368
endloop
endfacet
facet normal -0.773009 0.000000 -0.634395
outer loop
vertex -17.627129 0.164982 -13.464991
vertex -17.627129 2.164982 -13.464991
vertex -15.015503 2.164982 -16.647255
endloop
endfacet
facet normal -0.773009 0.000000 -0.634395
outer loop
vertex -15.015503 2.164982 -16.647255
vertex -15.015503 0.164982 -16.647255
vertex -17.627129 0.164982 -13.464991
endloop
endfacet
facet normal -0.634393 0.000000 -0.773011
outer loop
vertex -15.015503 0.164982 -16.647255
vertex -15.015503 2.164982 -16.647255
vertex -11.833231 2.164982 -19.258875
endloop
endfacet
facet normal -0.634393 0.000000 -0.773011
outer loop
vertex -11.833231 2.164982 -19.258875
vertex -11.833231 0.164982 -19.258875
vertex -15.015503 0.164982 -16.647255
endloop
endfacet
facet normal -0.471395 0.000000 -0.881922
outer loop
vertex -11.833231 0.164982 -19.258875
vertex -11.833231 2.164982 -19.258875
vertex -8.202602 2.164982 -21.199476
endloop
endfacet
facet normal -0.471395 0.000000 -0.881922
outer loop
vertex -8.202602 2.164982 -21.199476
vertex -8.202602 0.164982 -21.199476
vertex -11.833231 0.164982 -19.258875
endloop
endfacet
facet normal 0.000000 1.000000 0.000000
outer loop
vertex 3.930619 2.164982 -22.394487
vertex 11.500698 2.164982 -19.258856
vertex 7.870075 2.164982 -21.199467
endloop
endfacet
facet normal 0.000000 1.000000 0.000000
outer loop
vertex 17.294584 2.164982 -13.464969
vertex 14.682964 2.164982 -16.647236
vertex 11.500698 2.164982 -19.258856
endloop
endfacet
facet normal 0.000000 1.000000 0.000000
outer loop
vertex 20.430210 2.164982 -5.894892
vertex 19.235191 2.164982 -9.834346
vertex 17.294584 2.164982 -13.464969
endloop
endfacet
facet normal 0.000000 1.000000 -0.000000
outer loop
vertex 20.430214 2.164982 2.298899
vertex 20.833719 2.164982 -1.797996
vertex 20.430210 2.164982 -5.894892
endloop
endfacet
facet normal 0.000000 1.000000 -0.000000
outer loop
vertex 17.294584 2.164982 9.868979
vertex 19.235191 2.164982 6.238355
vertex 20.430214 2.164982 2.298899
endloop
endfacet
facet normal 0.000000 1.000000 -0.000000
outer loop
vertex 11.500696 2.164982 15.662866
vertex 14.682964 2.164982 13.051248
vertex 17.294584 2.164982 9.868979
endloop
endfacet
facet normal 0.000000 1.000000 0.000000
outer loop
vertex 3.930614 2.164982 18.798494
vertex 7.870070 2.164982 17.603476
vertex 11.500696 2.164982 15.662866
endloop
endfacet
facet normal 0.000000 1.000000 0.000000
outer loop
vertex -4.263184 2.164982 18.798492
vertex -0.166285 2.164982 19.202005
vertex 3.930614 2.164982 18.798494
endloop
endfacet
facet normal 0.000000 1.000000 0.000001
outer loop
vertex -11.833263 2.164982 15.662860
vertex -8.202641 2.164982 17.603470
vertex -4.263184 2.164982 18.798492
endloop
endfacet
facet normal 0.000000 1.000000 -0.000000
outer loop
vertex -17.627151 2.164982 9.868968
vertex -15.015532 2.164982 13.051238
vertex -11.833263 2.164982 15.662860
endloop
endfacet
facet normal 0.000000 1.000000 -0.000000
outer loop
vertex -20.762774 2.164982 2.298884
vertex -19.567759 2.164982 6.238342
vertex -17.627151 2.164982 9.868968
endloop
endfacet
facet normal 0.000000 1.000000 0.000000
outer loop
vertex -20.762768 2.164982 -5.894913
vertex -21.166281 2.164982 -1.798015
vertex -20.762774 2.164982 2.298884
endloop
endfacet
facet normal 0.000000 1.000000 0.000000
outer loop
vertex -17.627129 2.164982 -13.464991
vertex -19.567741 2.164982 -9.834368
vertex -20.762768 2.164982 -5.894913
endloop
endfacet
facet normal 0.000000 1.000000 0.000000
outer loop
vertex -11.833231 2.164982 -19.258875
vertex -15.015503 2.164982 -16.647255
vertex -17.627129 2.164982 -13.464991
endloop
endfacet
facet normal 0.000000 1.000000 0.000000
outer loop
vertex -4.263144 2.164982 -22.394491
vertex -8.202602 2.164982 -21.199476
vertex -11.833231 2.164982 -19.258875
endloop
endfacet
facet normal 0.000000 1.000000 0.000000
outer loop
vertex 3.930619 2.164982 -22.394487
vertex -0.166279 2.164982 -22.797995
vertex -4.263144 2.164982 -22.394491
endloop
endfacet
facet normal 0.000000 1.000000 -0.000000
outer loop
vertex 3.930619 2.164982 -22.394487
vertex 17.294584 2.164982 -13.464969
vertex 11.500698 2.164982 -19.258856
endloop
endfacet
facet normal 0.000000 1.000000 -0.000000
outer loop
vertex 20.430214 2.164982 2.298899
vertex 20.430210 2.164982 -5.894892
vertex 17.294584 2.164982 -13.464969
endloop
endfacet
facet normal 0.000000 1.000000 -0.000000
outer loop
vertex 11.500696 2.164982 15.662866
vertex 17.294584 2.164982 9.868979
vertex 20.430214 2.164982 2.298899
endloop
endfacet
facet normal 0.000000 1.000000 0.000000
outer loop
vertex -4.263184 2.164982 18.798492
vertex 3.930614 2.164982 18.798494
vertex 11.500696 2.164982 15.662866
endloop
endfacet
facet normal 0.000000 1.000000 -0.000000
outer loop
vertex -17.627151 2.164982 9.868968
vertex -11.833263 2.164982 15.662860
vertex -4.263184 2.164982 18.798492
endloop
endfacet
facet normal 0.000000 1.000000 0.000000
outer loop
vertex -20.762768 2.164982 -5.894913
vertex -20.762774 2.164982 2.298884
vertex -17.627151 2.164982 9.868968
endloop
endfacet
facet normal 0.000000 1.000000 0.000000
outer loop
vertex -11.833231 2.164982 -19.258875
vertex -17.627129 2.164982 -13.464991
vertex -20.762768 2.164982 -5.894913
endloop
endfacet
facet normal 0.000000 1.000000 0.000000
outer loop
vertex 3.930619 2.164982 -22.394487
vertex -4.263144 2.164982 -22.394491
vertex -11.833231 2.164982 -19.258875
endloop
endfacet
facet normal 0.000000 1.000000 -0.000000
outer loop
vertex 3.930619 2.164982 -22.394487
vertex 20.430214 2.164982 2.298899
vertex 17.294584 2.164982 -13.464969
endloop
endfacet
facet normal 0.000000 1.000000 0.000000
outer loop
vertex -4.263184 2.164982 18.798492
vertex 11.500696 2.164982 15.662866
vertex 20.430214 2.164982 2.298899
endloop
endfacet
facet normal 0.000000 1.000000 0.000000
outer loop
vertex -20.762768 2.164982 -5.894913
vertex -17.627151 2.164982 9.868968
vertex -4.263184 2.164982 18.798492
endloop
endfacet
facet normal 0.000000 1.000000 0.000000
outer loop
vertex 3.930619 2.164982 -22.394487
vertex -11.833231 2.164982 -19.258875
vertex -20.762768 2.164982 -5.894913
endloop
endfacet
facet normal 0.000000 1.000000 -0.000000
outer loop
vertex 3.930619 2.164982 -22.394487
vertex -4.263184 2.164982 18.798492
vertex 20.430214 2.164982 2.298899
endloop
endfacet
facet normal 0.000000 1.000000 -0.000000
outer loop
vertex 3.930619 2.164982 -22.394487
vertex -20.762768 2.164982 -5.894913
vertex -4.263184 2.164982 18.798492
endloop
endfacet
facet normal -0.098017 0.000000 -0.995185
outer loop
vertex -0.166279 2.164982 -22.797995
vertex -0.166279 0.164982 -22.797995
vertex -4.263144 0.164982 -22.394491
endloop
endfacet
facet normal -0.098017 0.000000 -0.995185
outer loop
vertex -4.263144 0.164982 -22.394491
vertex -4.263144 2.164982 -22.394491
vertex -0.166279 2.164982 -22.797995
endloop
endfacet
facet normal -0.290283 0.000000 -0.956941
outer loop
vertex -8.202602 0.164982 -21.199476
vertex -8.202602 2.164982 -21.199476
vertex -4.263144 2.164982 -22.394491
endloop
endfacet
facet normal -0.290283 0.000000 -0.956941
outer loop
vertex -4.263144 2.164982 -22.394491
vertex -4.263144 0.164982 -22.394491
vertex -8.202602 0.164982 -21.199476
endloop
endfacet
facet normal 0.000000 -1.000000 -0.000000
outer loop
vertex -0.166279 0.164982 -22.797995
vertex -8.202602 0.164982 -21.199476
vertex -4.263144 0.164982 -22.394491
endloop
endfacet
facet normal 0.000000 -1.000000 -0.000000
outer loop
vertex -15.015503 0.164982 -16.647255
vertex -11.833231 0.164982 -19.258875
vertex -8.202602 0.164982 -21.199476
endloop
endfacet
facet normal 0.000000 -1.000000 0.000000
outer loop
vertex -19.567741 0.164982 -9.834368
vertex -17.627129 0.164982 -13.464991
vertex -15.015503 0.164982 -16.647255
endloop
endfacet
facet normal 0.000000 -1.000000 0.000000
outer loop
vertex -21.166281 0.164982 -1.798015
vertex -20.762768 0.164982 -5.894913
vertex -19.567741 0.164982 -9.834368
endloop
endfacet
facet normal 0.000000 -1.000000 0.000000
outer loop
vertex -19.567759 0.164982 6.238342
vertex -20.762774 0.164982 2.298884
vertex -21.166281 0.164982 -1.798015
endloop
endfacet
facet normal 0.000000 -1.000000 0.000000
outer loop
vertex -15.015532 0.164982 13.051238
vertex -17.627151 0.164982 9.868968
vertex -19.567759 0.164982 6.238342
endloop
endfacet
facet normal 0.000000 -1.000000 0.000000
outer loop
vertex -8.202641 0.164982 17.603470
vertex -11.833263 0.164982 15.662860
vertex -15.015532 0.164982 13.051238
endloop
endfacet
facet normal 0.000000 -1.000000 0.000000
outer loop
vertex -0.166285 0.164982 19.202005
vertex -4.263184 0.164982 18.798492
vertex -8.202641 0.164982 17.603470
endloop
endfacet
facet normal 0.000000 -1.000000 0.000000
outer loop
vertex 7.870070 0.164982 17.603476
vertex 3.930614 0.164982 18.798494
vertex -0.166285 0.164982 19.202005
endloop
endfacet
facet normal 0.000000 -1.000000 0.000000
outer loop
vertex 14.682964 0.164982 13.051248
vertex 11.500696 0.164982 15.662866
vertex 7.870070 0.164982 17.603476
endloop
endfacet
facet normal 0.000000 -1.000000 0.000000
outer loop
vertex 19.235191 0.164982 6.238355
vertex 17.294584 0.164982 9.868979
vertex 14.682964 0.164982 13.051248
endloop
endfacet
facet normal 0.000000 -1.000000 0.000000
outer loop
vertex 20.833719 0.164982 -1.797996
vertex 20.430214 0.164982 2.298899
vertex 19.235191 0.164982 6.238355
endloop
endfacet
facet normal 0.000000 -1.000000 0.000000
outer loop
vertex 19.235191 0.164982 -9.834346
vertex 20.430210 0.164982 -5.894892
vertex 20.833719 0.164982 -1.797996
endloop
endfacet
facet normal 0.000000 -1.000000 0.000000
outer loop
vertex 14.682964 0.164982 -16.647236
vertex 17.294584 0.164982 -13.464969
vertex 19.235191 0.164982 -9.834346
endloop
endfacet
facet normal 0.000000 -1.000000 0.000000
outer loop
vertex 7.870075 0.164982 -21.199467
vertex 11.500698 0.164982 -19.258856
vertex 14.682964 0.164982 -16.647236
endloop
endfacet
facet normal 0.000000 -1.000000 0.000000
outer loop
vertex -0.166279 0.164982 -22.797995
vertex 3.930619 0.164982 -22.394487
vertex 7.870075 0.164982 -21.199467
endloop
endfacet
facet normal 0.000000 -1.000000 -0.000000
outer loop
vertex -0.166279 0.164982 -22.797995
vertex -15.015503 0.164982 -16.647255
vertex -8.202602 0.164982 -21.199476
endloop
endfacet
facet normal 0.000000 -1.000000 0.000000
outer loop
vertex -21.166281 0.164982 -1.798015
vertex -19.567741 0.164982 -9.834368
vertex -15.015503 0.164982 -16.647255
endloop
endfacet
facet normal 0.000000 -1.000000 0.000000
outer loop
vertex -15.015532 0.164982 13.051238
vertex -19.567759 0.164982 6.238342
vertex -21.166281 0.164982 -1.798015
endloop
endfacet
facet normal 0.000000 -1.000000 -0.000000
outer loop
vertex -0.166285 0.164982 19.202005
vertex -8.202641 0.164982 17.603470
vertex -15.015532 0.164982 13.051238
endloop
endfacet
facet normal 0.000000 -1.000000 0.000000
outer loop
vertex 14.682964 0.164982 13.051248
vertex 7.870070 0.164982 17.603476
vertex -0.166285 0.164982 19.202005
endloop
endfacet
facet normal 0.000000 -1.000000 0.000000
outer loop
vertex 20.833719 0.164982 -1.797996
vertex 19.235191 0.164982 6.238355
vertex 14.682964 0.164982 13.051248
endloop
endfacet
facet normal 0.000000 -1.000000 0.000000
outer loop
vertex 14.682964 0.164982 -16.647236
vertex 19.235191 0.164982 -9.834346
vertex 20.833719 0.164982 -1.797996
endloop
endfacet
facet normal 0.000000 -1.000000 0.000000
outer loop
vertex -0.166279 0.164982 -22.797995
vertex 7.870075 0.164982 -21.199467
vertex 14.682964 0.164982 -16.647236
endloop
endfacet
facet normal 0.000000 -1.000000 0.000000
outer loop
vertex -0.166279 0.164982 -22.797995
vertex -21.166281 0.164982 -1.798015
vertex -15.015503 0.164982 -16.647255
endloop
endfacet
facet normal 0.000000 -1.000000 0.000000
outer loop
vertex -0.166285 0.164982 19.202005
vertex -15.015532 0.164982 13.051238
vertex -21.166281 0.164982 -1.798015
endloop
endfacet
facet normal 0.000000 -1.000000 0.000000
outer loop
vertex 20.833719 0.164982 -1.797996
vertex 14.682964 0.164982 13.051248
vertex -0.166285 0.164982 19.202005
endloop
endfacet
facet normal 0.000000 -1.000000 0.000000
outer loop
vertex -0.166279 0.164982 -22.797995
vertex 14.682964 0.164982 -16.647236
vertex 20.833719 0.164982 -1.797996
endloop
endfacet
facet normal 0.000000 -1.000000 0.000000
outer loop
vertex -0.166279 0.164982 -22.797995
vertex -0.166285 0.164982 19.202005
vertex -21.166281 0.164982 -1.798015
endloop
endfacet
facet normal 0.000000 -1.000000 -0.000000
outer loop
vertex -0.166279 0.164982 -22.797995
vertex 20.833719 0.164982 -1.797996
vertex -0.166285 0.164982 19.202005
endloop
endfacet
endsolid Exported from Blender-2.74 (sub 0)
