solid Exported from Blender-2.74 (sub 0)
facet normal 0.098021 0.000000 -0.995184
outer loop
vertex -0.166279 0.793602 -21.342262
vertex -0.166279 1.536362 -21.342262
vertex 3.646614 1.536362 -20.966709
endloop
endfacet
facet normal 0.098021 0.000000 -0.995184
outer loop
vertex 3.646614 1.536362 -20.966709
vertex 3.646614 0.793602 -20.966709
vertex -0.166279 0.793602 -21.342262
endloop
endfacet
facet normal 0.290287 0.000000 -0.956940
outer loop
vertex 7.312990 1.536362 -19.854515
vertex 7.312990 0.793602 -19.854515
vertex 3.646614 0.793602 -20.966709
endloop
endfacet
facet normal 0.290288 0.000000 -0.956939
outer loop
vertex 3.646614 0.793602 -20.966709
vertex 3.646614 1.536362 -20.966709
vertex 7.312990 1.536362 -19.854515
endloop
endfacet
facet normal 0.471394 0.000000 -0.881923
outer loop
vertex 10.691957 1.536362 -18.048431
vertex 10.691957 0.793602 -18.048431
vertex 7.312990 0.793602 -19.854515
endloop
endfacet
facet normal 0.471395 0.000000 -0.881922
outer loop
vertex 7.312990 0.793602 -19.854515
vertex 7.312990 1.536362 -19.854515
vertex 10.691957 1.536362 -18.048431
endloop
endfacet
facet normal 0.634384 0.000000 -0.773018
outer loop
vertex 13.653635 1.536362 -15.617908
vertex 13.653635 0.793602 -15.617908
vertex 10.691957 0.793602 -18.048431
endloop
endfacet
facet normal 0.634383 0.000000 -0.773019
outer loop
vertex 10.691957 0.793602 -18.048431
vertex 10.691957 1.536362 -18.048431
vertex 13.653635 1.536362 -15.617908
endloop
endfacet
facet normal 0.773018 0.000000 -0.634384
outer loop
vertex 16.084160 1.536362 -12.656228
vertex 16.084160 0.793602 -12.656228
vertex 13.653635 0.793602 -15.617908
endloop
endfacet
facet normal 0.773018 0.000000 -0.634384
outer loop
vertex 13.653635 0.793602 -15.617908
vertex 13.653635 1.536362 -15.617908
vertex 16.084160 1.536362 -12.656228
endloop
endfacet
facet normal 0.881923 0.000000 -0.471394
outer loop
vertex 17.890240 1.536362 -9.277261
vertex 17.890240 0.793602 -9.277261
vertex 16.084160 0.793602 -12.656228
endloop
endfacet
facet normal 0.881923 0.000000 -0.471393
outer loop
vertex 16.084160 0.793602 -12.656228
vertex 16.084160 1.536362 -12.656228
vertex 17.890240 1.536362 -9.277261
endloop
endfacet
facet normal 0.956940 0.000000 -0.290287
outer loop
vertex 19.002432 1.536362 -5.610887
vertex 19.002432 0.793602 -5.610887
vertex 17.890240 0.793602 -9.277261
endloop
endfacet
facet normal 0.956940 0.000000 -0.290287
outer loop
vertex 17.890240 0.793602 -9.277261
vertex 17.890240 1.536362 -9.277261
vertex 19.002432 1.536362 -5.610887
endloop
endfacet
facet normal 0.995184 0.000000 -0.098022
outer loop
vertex 19.377987 1.536362 -1.797996
vertex 19.377987 0.793602 -1.797996
vertex 19.002432 0.793602 -5.610887
endloop
endfacet
facet normal 0.995184 0.000000 -0.098022
outer loop
vertex 19.002432 0.793602 -5.610887
vertex 19.002432 1.536362 -5.610887
vertex 19.377987 1.536362 -1.797996
endloop
endfacet
facet normal 0.995184 0.000000 0.098021
outer loop
vertex 19.002436 1.536362 2.014894
vertex 19.002436 0.793602 2.014894
vertex 19.377987 0.793602 -1.797996
endloop
endfacet
facet normal 0.995184 0.000000 0.098021
outer loop
vertex 19.377987 0.793602 -1.797996
vertex 19.377987 1.536362 -1.797996
vertex 19.002436 1.536362 2.014894
endloop
endfacet
facet normal 0.956939 0.000000 0.290288
outer loop
vertex 17.890240 1.536362 5.681270
vertex 17.890240 0.793602 5.681270
vertex 19.002436 0.793602 2.014894
endloop
endfacet
facet normal 0.956939 0.000000 0.290288
outer loop
vertex 19.002436 0.793602 2.014894
vertex 19.002436 1.536362 2.014894
vertex 17.890240 1.536362 5.681270
endloop
endfacet
facet normal 0.881923 0.000000 0.471393
outer loop
vertex 16.084160 1.536362 9.060239
vertex 16.084160 0.793602 9.060239
vertex 17.890240 0.793602 5.681270
endloop
endfacet
facet normal 0.881923 0.000000 0.471393
outer loop
vertex 17.890240 0.793602 5.681270
vertex 17.890240 1.536362 5.681270
vertex 16.084160 1.536362 9.060239
endloop
endfacet
facet normal 0.773019 0.000000 0.634383
outer loop
vertex 13.653635 1.536362 12.021919
vertex 13.653635 0.793602 12.021919
vertex 16.084160 0.793602 9.060239
endloop
endfacet
facet normal 0.773018 0.000000 0.634384
outer loop
vertex 16.084160 0.793602 9.060239
vertex 16.084160 1.536362 9.060239
vertex 13.653635 1.536362 12.021919
endloop
endfacet
facet normal 0.634383 0.000000 0.773019
outer loop
vertex 10.691956 1.536362 14.452441
vertex 10.691956 0.793602 14.452441
vertex 13.653635 0.793602 12.021919
endloop
endfacet
facet normal 0.634383 0.000000 0.773019
outer loop
vertex 13.653635 0.793602 12.021919
vertex 13.653635 1.536362 12.021919
vertex 10.691956 1.536362 14.452441
endloop
endfacet
facet normal 0.471394 0.000000 0.881923
outer loop
vertex 7.312985 1.536362 16.258526
vertex 7.312985 0.793602 16.258526
vertex 10.691956 0.793602 14.452441
endloop
endfacet
facet normal 0.471394 0.000000 0.881922
outer loop
vertex 10.691956 0.793602 14.452441
vertex 10.691956 1.536362 14.452441
vertex 7.312985 1.536362 16.258526
endloop
endfacet
facet normal 0.290287 0.000000 0.956940
outer loop
vertex 3.646608 1.536362 17.370716
vertex 3.646608 0.793602 17.370716
vertex 7.312985 0.793602 16.258526
endloop
endfacet
facet normal 0.290286 0.000000 0.956940
outer loop
vertex 7.312985 0.793602 16.258526
vertex 7.312985 1.536362 16.258526
vertex 3.646608 1.536362 17.370716
endloop
endfacet
facet normal 0.098022 0.000000 0.995184
outer loop
vertex -0.166285 1.536362 17.746273
vertex -0.166285 0.793602 17.746273
vertex 3.646608 0.793602 17.370716
endloop
endfacet
facet normal 0.098022 0.000000 0.995184
outer loop
vertex 3.646608 0.793602 17.370716
vertex 3.646608 1.536362 17.370716
vertex -0.166285 1.536362 17.746273
endloop
endfacet
facet normal -0.098023 0.000000 0.995184
outer loop
vertex -3.979178 1.536362 17.370714
vertex -3.979178 0.793602 17.370714
vertex -0.166285 0.793602 17.746273
endloop
endfacet
facet normal -0.098022 0.000000 0.995184
outer loop
vertex -0.166285 0.793602 17.746273
vertex -0.166285 1.536362 17.746273
vertex -3.979178 1.536362 17.370714
endloop
endfacet
facet normal -0.290288 0.000000 0.956939
outer loop
vertex -7.645555 1.536362 16.258518
vertex -7.645555 0.793602 16.258518
vertex -3.979178 0.793602 17.370714
endloop
endfacet
facet normal -0.290287 0.000000 0.956939
outer loop
vertex -3.979178 0.793602 17.370714
vertex -3.979178 1.536362 17.370714
vertex -7.645555 1.536362 16.258518
endloop
endfacet
facet normal -0.471394 0.000000 0.881923
outer loop
vertex -11.024523 1.536362 14.452435
vertex -11.024523 0.793602 14.452435
vertex -7.645555 0.793602 16.258518
endloop
endfacet
facet normal -0.471394 0.000000 0.881923
outer loop
vertex -7.645555 0.793602 16.258518
vertex -7.645555 1.536362 16.258518
vertex -11.024523 1.536362 14.452435
endloop
endfacet
facet normal -0.634384 0.000000 0.773018
outer loop
vertex -13.986202 1.536362 12.021910
vertex -13.986202 0.793602 12.021910
vertex -11.024523 0.793602 14.452435
endloop
endfacet
facet normal -0.634384 0.000000 0.773019
outer loop
vertex -11.024523 0.793602 14.452435
vertex -11.024523 1.536362 14.452435
vertex -13.986202 1.536362 12.021910
endloop
endfacet
facet normal -0.773019 0.000000 0.634383
outer loop
vertex -16.416727 1.536362 9.060227
vertex -16.416727 0.793602 9.060227
vertex -13.986202 0.793602 12.021910
endloop
endfacet
facet normal -0.773019 0.000000 0.634383
outer loop
vertex -13.986202 0.793602 12.021910
vertex -13.986202 1.536362 12.021910
vertex -16.416727 1.536362 9.060227
endloop
endfacet
facet normal -0.881923 0.000000 0.471394
outer loop
vertex -18.222809 1.536362 5.681257
vertex -18.222809 0.793602 5.681257
vertex -16.416727 0.793602 9.060227
endloop
endfacet
facet normal -0.881923 0.000000 0.471394
outer loop
vertex -16.416727 0.793602 9.060227
vertex -16.416727 1.536362 9.060227
vertex -18.222809 1.536362 5.681257
endloop
endfacet
facet normal -0.956940 0.000000 0.290285
outer loop
vertex -19.334995 1.536362 2.014879
vertex -19.334995 0.793602 2.014879
vertex -18.222809 0.793602 5.681257
endloop
endfacet
facet normal -0.956940 0.000000 0.290285
outer loop
vertex -18.222809 0.793602 5.681257
vertex -18.222809 1.536362 5.681257
vertex -19.334995 1.536362 2.014879
endloop
endfacet
facet normal -0.995184 0.000000 0.098021
outer loop
vertex -19.710548 1.536362 -1.798015
vertex -19.710548 0.793602 -1.798015
vertex -19.334995 0.793602 2.014879
endloop
endfacet
facet normal -0.995184 0.000000 0.098021
outer loop
vertex -19.334995 0.793602 2.014879
vertex -19.334995 1.536362 2.014879
vertex -19.710548 1.536362 -1.798015
endloop
endfacet
facet normal -0.995184 0.000000 -0.098023
outer loop
vertex -19.334990 1.536362 -5.610908
vertex -19.334990 0.793602 -5.610908
vertex -19.710548 0.793602 -1.798015
endloop
endfacet
facet normal -0.995184 0.000000 -0.098023
outer loop
vertex -19.710548 0.793602 -1.798015
vertex -19.710548 1.536362 -1.798015
vertex -19.334990 1.536362 -5.610908
endloop
endfacet
facet normal -0.956939 0.000000 -0.290289
outer loop
vertex -18.222790 1.536362 -9.277283
vertex -18.222790 0.793602 -9.277283
vertex -19.334990 0.793602 -5.610908
endloop
endfacet
facet normal -0.956939 0.000000 -0.290289
outer loop
vertex -19.334990 0.793602 -5.610908
vertex -19.334990 1.536362 -5.610908
vertex -18.222790 1.536362 -9.277283
endloop
endfacet
facet normal -0.881922 0.000000 -0.471394
outer loop
vertex -16.416704 1.536362 -12.656250
vertex -16.416704 0.793602 -12.656250
vertex -18.222790 0.793602 -9.277283
endloop
endfacet
facet normal -0.881922 0.000000 -0.471395
outer loop
vertex -18.222790 0.793602 -9.277283
vertex -18.222790 1.536362 -9.277283
vertex -16.416704 1.536362 -12.656250
endloop
endfacet
facet normal -0.773011 0.000000 -0.634392
outer loop
vertex -13.986176 1.536362 -15.617865
vertex -13.986176 0.793602 -15.617865
vertex -16.416704 0.793602 -12.656250
endloop
endfacet
facet normal -0.773011 0.000000 -0.634392
outer loop
vertex -16.416704 0.793602 -12.656250
vertex -16.416704 1.536362 -12.656250
vertex -13.986176 1.536362 -15.617865
endloop
endfacet
facet normal -0.634392 0.000000 -0.773011
outer loop
vertex -11.024490 1.536362 -18.048450
vertex -11.024490 0.793602 -18.048450
vertex -13.986176 0.793602 -15.617865
endloop
endfacet
facet normal -0.634392 0.000000 -0.773011
outer loop
vertex -13.986176 0.793602 -15.617865
vertex -13.986176 1.536362 -15.617865
vertex -11.024490 1.536362 -18.048450
endloop
endfacet
facet normal -0.471392 0.000000 -0.881924
outer loop
vertex -7.645517 1.536362 -19.854527
vertex -7.645517 0.793602 -19.854527
vertex -11.024490 0.793602 -18.048450
endloop
endfacet
facet normal -0.471392 0.000000 -0.881924
outer loop
vertex -11.024490 0.793602 -18.048450
vertex -11.024490 1.536362 -18.048450
vertex -7.645517 1.536362 -19.854527
endloop
endfacet
facet normal 0.000000 -1.000000 0.000000
outer loop
vertex 7.312990 0.793602 -19.854515
vertex -0.166279 0.793602 -21.342262
vertex 3.646614 0.793602 -20.966709
endloop
endfacet
facet normal 0.000000 -1.000000 0.000000
outer loop
vertex -7.645517 0.793602 -19.854527
vertex -3.979139 0.793602 -20.966713
vertex -0.166279 0.793602 -21.342262
endloop
endfacet
facet normal 0.000000 -1.000000 0.000000
outer loop
vertex -13.986176 0.793602 -15.617865
vertex -11.024490 0.793602 -18.048450
vertex -7.645517 0.793602 -19.854527
endloop
endfacet
facet normal 0.000000 -1.000000 0.000000
outer loop
vertex -18.222790 0.793602 -9.277283
vertex -16.416704 0.793602 -12.656250
vertex -13.986176 0.793602 -15.617865
endloop
endfacet
facet normal 0.000000 -1.000000 0.000000
outer loop
vertex -19.710548 0.793602 -1.798015
vertex -19.334990 0.793602 -5.610908
vertex -18.222790 0.793602 -9.277283
endloop
endfacet
facet normal 0.000000 -1.000000 -0.000000
outer loop
vertex -18.222809 0.793602 5.681257
vertex -19.334995 0.793602 2.014879
vertex -19.710548 0.793602 -1.798015
endloop
endfacet
facet normal 0.000000 -1.000000 -0.000000
outer loop
vertex -13.986202 0.793602 12.021910
vertex -16.416727 0.793602 9.060227
vertex -18.222809 0.793602 5.681257
endloop
endfacet
facet normal 0.000000 -1.000000 -0.000000
outer loop
vertex -7.645555 0.793602 16.258518
vertex -11.024523 0.793602 14.452435
vertex -13.986202 0.793602 12.021910
endloop
endfacet
facet normal 0.000000 -1.000000 0.000000
outer loop
vertex -0.166285 0.793602 17.746273
vertex -3.979178 0.793602 17.370714
vertex -7.645555 0.793602 16.258518
endloop
endfacet
facet normal 0.000000 -1.000000 -0.000000
outer loop
vertex 7.312985 0.793602 16.258526
vertex 3.646608 0.793602 17.370716
vertex -0.166285 0.793602 17.746273
endloop
endfacet
facet normal 0.000000 -1.000000 0.000000
outer loop
vertex 13.653635 0.793602 12.021919
vertex 10.691956 0.793602 14.452441
vertex 7.312985 0.793602 16.258526
endloop
endfacet
facet normal 0.000000 -1.000000 0.000000
outer loop
vertex 17.890240 0.793602 5.681270
vertex 16.084160 0.793602 9.060239
vertex 13.653635 0.793602 12.021919
endloop
endfacet
facet normal 0.000000 -1.000000 0.000000
outer loop
vertex 19.377987 0.793602 -1.797996
vertex 19.002436 0.793602 2.014894
vertex 17.890240 0.793602 5.681270
endloop
endfacet
facet normal 0.000000 -1.000000 -0.000000
outer loop
vertex 17.890240 0.793602 -9.277261
vertex 19.002432 0.793602 -5.610887
vertex 19.377987 0.793602 -1.797996
endloop
endfacet
facet normal 0.000000 -1.000000 -0.000000
outer loop
vertex 13.653635 0.793602 -15.617908
vertex 16.084160 0.793602 -12.656228
vertex 17.890240 0.793602 -9.277261
endloop
endfacet
facet normal 0.000000 -1.000000 -0.000000
outer loop
vertex 7.312990 0.793602 -19.854515
vertex 10.691957 0.793602 -18.048431
vertex 13.653635 0.793602 -15.617908
endloop
endfacet
facet normal 0.000000 -1.000000 -0.000000
outer loop
vertex 7.312990 0.793602 -19.854515
vertex -7.645517 0.793602 -19.854527
vertex -0.166279 0.793602 -21.342262
endloop
endfacet
facet normal 0.000000 -1.000000 -0.000000
outer loop
vertex -18.222790 0.793602 -9.277283
vertex -13.986176 0.793602 -15.617865
vertex -7.645517 0.793602 -19.854527
endloop
endfacet
facet normal 0.000000 -1.000000 0.000000
outer loop
vertex -18.222809 0.793602 5.681257
vertex -19.710548 0.793602 -1.798015
vertex -18.222790 0.793602 -9.277283
endloop
endfacet
facet normal 0.000000 -1.000000 0.000000
outer loop
vertex -7.645555 0.793602 16.258518
vertex -13.986202 0.793602 12.021910
vertex -18.222809 0.793602 5.681257
endloop
endfacet
facet normal 0.000000 -1.000000 0.000000
outer loop
vertex 7.312985 0.793602 16.258526
vertex -0.166285 0.793602 17.746273
vertex -7.645555 0.793602 16.258518
endloop
endfacet
facet normal 0.000000 -1.000000 -0.000000
outer loop
vertex 17.890240 0.793602 5.681270
vertex 13.653635 0.793602 12.021919
vertex 7.312985 0.793602 16.258526
endloop
endfacet
facet normal 0.000000 -1.000000 0.000000
outer loop
vertex 17.890240 0.793602 -9.277261
vertex 19.377987 0.793602 -1.797996
vertex 17.890240 0.793602 5.681270
endloop
endfacet
facet normal 0.000000 -1.000000 -0.000000
outer loop
vertex 7.312990 0.793602 -19.854515
vertex 13.653635 0.793602 -15.617908
vertex 17.890240 0.793602 -9.277261
endloop
endfacet
facet normal 0.000000 -1.000000 0.000000
outer loop
vertex 7.312990 0.793602 -19.854515
vertex -18.222790 0.793602 -9.277283
vertex -7.645517 0.793602 -19.854527
endloop
endfacet
facet normal 0.000000 -1.000000 0.000000
outer loop
vertex -7.645555 0.793602 16.258518
vertex -18.222809 0.793602 5.681257
vertex -18.222790 0.793602 -9.277283
endloop
endfacet
facet normal 0.000000 -1.000000 -0.000000
outer loop
vertex 17.890240 0.793602 5.681270
vertex 7.312985 0.793602 16.258526
vertex -7.645555 0.793602 16.258518
endloop
endfacet
facet normal 0.000000 -1.000000 0.000000
outer loop
vertex 7.312990 0.793602 -19.854515
vertex 17.890240 0.793602 -9.277261
vertex 17.890240 0.793602 5.681270
endloop
endfacet
facet normal 0.000000 -1.000000 0.000000
outer loop
vertex 7.312990 0.793602 -19.854515
vertex -7.645555 0.793602 16.258518
vertex -18.222790 0.793602 -9.277283
endloop
endfacet
facet normal 0.000000 -1.000000 0.000000
outer loop
vertex 7.312990 0.793602 -19.854515
vertex 17.890240 0.793602 5.681270
vertex -7.645555 0.793602 16.258518
endloop
endfacet
facet normal -0.098021 0.000000 -0.995184
outer loop
vertex -0.166279 1.536362 -21.342262
vertex -0.166279 0.793602 -21.342262
vertex -3.979139 0.793602 -20.966713
endloop
endfacet
facet normal -0.098021 0.000000 -0.995184
outer loop
vertex -3.979139 0.793602 -20.966713
vertex -3.979139 1.536362 -20.966713
vertex -0.166279 1.536362 -21.342262
endloop
endfacet
facet normal -0.290286 0.000000 -0.956940
outer loop
vertex -3.979139 1.536362 -20.966713
vertex -3.979139 0.793602 -20.966713
vertex -7.645517 0.793602 -19.854527
endloop
endfacet
facet normal -0.290286 0.000000 -0.956940
outer loop
vertex -7.645517 0.793602 -19.854527
vertex -7.645517 1.536362 -19.854527
vertex -3.979139 1.536362 -20.966713
endloop
endfacet
facet normal 0.000000 1.000000 0.000000
outer loop
vertex -3.979139 1.536362 -20.966713
vertex 3.646614 1.536362 -20.966709
vertex -0.166279 1.536362 -21.342262
endloop
endfacet
facet normal 0.000000 1.000000 -0.000000
outer loop
vertex 10.691957 1.536362 -18.048431
vertex 7.312990 1.536362 -19.854515
vertex 3.646614 1.536362 -20.966709
endloop
endfacet
facet normal 0.000000 1.000000 0.000000
outer loop
vertex 16.084160 1.536362 -12.656228
vertex 13.653635 1.536362 -15.617908
vertex 10.691957 1.536362 -18.048431
endloop
endfacet
facet normal 0.000000 1.000000 -0.000000
outer loop
vertex 19.002432 1.536362 -5.610887
vertex 17.890240 1.536362 -9.277261
vertex 16.084160 1.536362 -12.656228
endloop
endfacet
facet normal 0.000000 1.000000 0.000000
outer loop
vertex 19.002436 1.536362 2.014894
vertex 19.377987 1.536362 -1.797996
vertex 19.002432 1.536362 -5.610887
endloop
endfacet
facet normal 0.000000 1.000000 0.000000
outer loop
vertex 16.084160 1.536362 9.060239
vertex 17.890240 1.536362 5.681270
vertex 19.002436 1.536362 2.014894
endloop
endfacet
facet normal 0.000000 1.000000 0.000000
outer loop
vertex 10.691956 1.536362 14.452441
vertex 13.653635 1.536362 12.021919
vertex 16.084160 1.536362 9.060239
endloop
endfacet
facet normal 0.000000 1.000000 0.000000
outer loop
vertex 3.646608 1.536362 17.370716
vertex 7.312985 1.536362 16.258526
vertex 10.691956 1.536362 14.452441
endloop
endfacet
facet normal 0.000000 1.000000 -0.000000
outer loop
vertex -3.979178 1.536362 17.370714
vertex -0.166285 1.536362 17.746273
vertex 3.646608 1.536362 17.370716
endloop
endfacet
facet normal 0.000000 1.000000 -0.000000
outer loop
vertex -11.024523 1.536362 14.452435
vertex -7.645555 1.536362 16.258518
vertex -3.979178 1.536362 17.370714
endloop
endfacet
facet normal 0.000000 1.000000 0.000000
outer loop
vertex -16.416727 1.536362 9.060227
vertex -13.986202 1.536362 12.021910
vertex -11.024523 1.536362 14.452435
endloop
endfacet
facet normal 0.000000 1.000000 -0.000000
outer loop
vertex -19.334995 1.536362 2.014879
vertex -18.222809 1.536362 5.681257
vertex -16.416727 1.536362 9.060227
endloop
endfacet
facet normal 0.000000 1.000000 0.000000
outer loop
vertex -19.334990 1.536362 -5.610908
vertex -19.710548 1.536362 -1.798015
vertex -19.334995 1.536362 2.014879
endloop
endfacet
facet normal 0.000000 1.000000 0.000000
outer loop
vertex -16.416704 1.536362 -12.656250
vertex -18.222790 1.536362 -9.277283
vertex -19.334990 1.536362 -5.610908
endloop
endfacet
facet normal 0.000000 1.000000 0.000000
outer loop
vertex -11.024490 1.536362 -18.048450
vertex -13.986176 1.536362 -15.617865
vertex -16.416704 1.536362 -12.656250
endloop
endfacet
facet normal 0.000000 1.000000 0.000000
outer loop
vertex -3.979139 1.536362 -20.966713
vertex -7.645517 1.536362 -19.854527
vertex -11.024490 1.536362 -18.048450
endloop
endfacet
facet normal 0.000000 1.000000 -0.000000
outer loop
vertex -3.979139 1.536362 -20.966713
vertex 10.691957 1.536362 -18.048431
vertex 3.646614 1.536362 -20.966709
endloop
endfacet
facet normal 0.000000 1.000000 0.000000
outer loop
vertex 19.002432 1.536362 -5.610887
vertex 16.084160 1.536362 -12.656228
vertex 10.691957 1.536362 -18.048431
endloop
endfacet
facet normal 0.000000 1.000000 0.000000
outer loop
vertex 16.084160 1.536362 9.060239
vertex 19.002436 1.536362 2.014894
vertex 19.002432 1.536362 -5.610887
endloop
endfacet
facet normal 0.000000 1.000000 0.000000
outer loop
vertex 3.646608 1.536362 17.370716
vertex 10.691956 1.536362 14.452441
vertex 16.084160 1.536362 9.060239
endloop
endfacet
facet normal 0.000000 1.000000 0.000000
outer loop
vertex -11.024523 1.536362 14.452435
vertex -3.979178 1.536362 17.370714
vertex 3.646608 1.536362 17.370716
endloop
endfacet
facet normal 0.000000 1.000000 0.000000
outer loop
vertex -19.334995 1.536362 2.014879
vertex -16.416727 1.536362 9.060227
vertex -11.024523 1.536362 14.452435
endloop
endfacet
facet normal 0.000000 1.000000 0.000000
outer loop
vertex -16.416704 1.536362 -12.656250
vertex -19.334990 1.536362 -5.610908
vertex -19.334995 1.536362 2.014879
endloop
endfacet
facet normal 0.000000 1.000000 0.000000
outer loop
vertex -3.979139 1.536362 -20.966713
vertex -11.024490 1.536362 -18.048450
vertex -16.416704 1.536362 -12.656250
endloop
endfacet
facet normal 0.000000 1.000000 0.000000
outer loop
vertex -3.979139 1.536362 -20.966713
vertex 19.002432 1.536362 -5.610887
vertex 10.691957 1.536362 -18.048431
endloop
endfacet
facet normal 0.000000 1.000000 -0.000000
outer loop
vertex 3.646608 1.536362 17.370716
vertex 16.084160 1.536362 9.060239
vertex 19.002432 1.536362 -5.610887
endloop
endfacet
facet normal 0.000000 1.000000 0.000000
outer loop
vertex -19.334995 1.536362 2.014879
vertex -11.024523 1.536362 14.452435
vertex 3.646608 1.536362 17.370716
endloop
endfacet
facet normal 0.000000 1.000000 -0.000000
outer loop
vertex -3.979139 1.536362 -20.966713
vertex -16.416704 1.536362 -12.656250
vertex -19.334995 1.536362 2.014879
endloop
endfacet
facet normal 0.000000 1.000000 0.000000
outer loop
vertex -3.979139 1.536362 -20.966713
vertex 3.646608 1.536362 17.370716
vertex 19.002432 1.536362 -5.610887
endloop
endfacet
facet normal 0.000000 1.000000 0.000000
outer loop
vertex -3.979139 1.536362 -20.966713
vertex -19.334995 1.536362 2.014879
vertex 3.646608 1.536362 17.370716
endloop
endfacet
endsolid Exported from Blender-2.74 (sub 0)
