solid Exported from Blender-2.74 (sub 0)
facet normal -0.932543 0.349182 0.091848
outer loop
vertex -9.779541 -1.212063 -68.007980
vertex -11.023701 -4.539149 -67.991379
vertex -10.461159 -4.539150 -62.279831
endloop
endfacet
facet normal -0.932544 0.349179 0.091847
outer loop
vertex -10.461159 -4.539150 -62.279831
vertex -9.240791 -1.212063 -62.537910
vertex -9.779541 -1.212063 -68.007980
endloop
endfacet
facet normal -0.896446 0.349908 0.271933
outer loop
vertex -9.240791 -1.212063 -62.537910
vertex -10.461159 -4.539150 -62.279831
vertex -8.795166 -4.539150 -56.787773
endloop
endfacet
facet normal -0.896446 0.349909 0.271934
outer loop
vertex -8.795166 -4.539150 -56.787773
vertex -7.645229 -1.212064 -57.278053
vertex -9.240791 -1.212063 -62.537910
endloop
endfacet
facet normal -0.825964 0.350534 0.441486
outer loop
vertex -7.645229 -1.212064 -57.278053
vertex -8.795166 -4.539150 -56.787773
vertex -6.089735 -4.539151 -51.726257
endloop
endfacet
facet normal -0.825963 0.350535 0.441486
outer loop
vertex -6.089735 -4.539151 -51.726257
vertex -5.054184 -1.212064 -52.430542
vertex -7.645229 -1.212064 -57.278053
endloop
endfacet
facet normal -0.723819 0.351031 0.594023
outer loop
vertex -5.054184 -1.212064 -52.430542
vertex -6.089735 -4.539151 -51.726257
vertex -2.448832 -4.539151 -47.289810
endloop
endfacet
facet normal -0.723819 0.351030 0.594023
outer loop
vertex -2.448832 -4.539151 -47.289810
vertex -1.567217 -1.212065 -48.181660
vertex -5.054184 -1.212064 -52.430542
endloop
endfacet
facet normal -0.593939 0.351380 0.723718
outer loop
vertex -1.567217 -1.212065 -48.181660
vertex -2.448832 -4.539151 -47.289810
vertex 1.987623 -4.539151 -43.648911
endloop
endfacet
facet normal -0.593939 0.351380 0.723718
outer loop
vertex 1.987623 -4.539151 -43.648911
vertex 2.681662 -1.212065 -44.694695
vertex -1.567217 -1.212065 -48.181660
endloop
endfacet
facet normal -0.441303 0.351570 0.825621
outer loop
vertex 2.681662 -1.212065 -44.694695
vertex 1.987623 -4.539151 -43.648911
vertex 7.049135 -4.539152 -40.943481
endloop
endfacet
facet normal -0.441303 0.351569 0.825621
outer loop
vertex 7.049135 -4.539152 -40.943481
vertex 7.529172 -1.212065 -42.103649
vertex 2.681662 -1.212065 -44.694695
endloop
endfacet
facet normal -0.271750 0.351593 0.895843
outer loop
vertex 7.529172 -1.212065 -42.103649
vertex 7.049135 -4.539152 -40.943481
vertex 12.541193 -4.539152 -39.277481
endloop
endfacet
facet normal -0.271751 0.351594 0.895842
outer loop
vertex 12.541193 -4.539152 -39.277481
vertex 12.789027 -1.212065 -40.508095
vertex 7.529172 -1.212065 -42.103649
endloop
endfacet
facet normal -0.091764 0.351450 0.931699
outer loop
vertex 12.789027 -1.212065 -40.508095
vertex 12.541193 -4.539152 -39.277481
vertex 18.252741 -4.539152 -38.714943
endloop
endfacet
facet normal -0.091765 0.351448 0.931699
outer loop
vertex 18.252741 -4.539152 -38.714943
vertex 18.259092 -1.212066 -39.969334
vertex 12.789027 -1.212065 -40.508095
endloop
endfacet
facet normal 0.091777 0.351141 0.931814
outer loop
vertex 18.259092 -1.212066 -39.969334
vertex 18.252741 -4.539152 -38.714943
vertex 23.964289 -4.539152 -39.277489
endloop
endfacet
facet normal 0.091776 0.351141 0.931814
outer loop
vertex 23.964289 -4.539152 -39.277489
vertex 23.729158 -1.212065 -40.508095
vertex 18.259092 -1.212066 -39.969334
endloop
endfacet
facet normal 0.271850 0.350683 0.896169
outer loop
vertex 23.729158 -1.212065 -40.508095
vertex 23.964289 -4.539152 -39.277489
vertex 29.456345 -4.539152 -40.943489
endloop
endfacet
facet normal 0.271849 0.350681 0.896170
outer loop
vertex 29.456345 -4.539152 -40.943489
vertex 28.989012 -1.212065 -42.103649
vertex 23.729158 -1.212065 -40.508095
endloop
endfacet
facet normal 0.441565 0.350089 0.826110
outer loop
vertex 28.989012 -1.212065 -42.103649
vertex 29.456345 -4.539152 -40.943489
vertex 34.517845 -4.539151 -43.648911
endloop
endfacet
facet normal 0.441566 0.350092 0.826109
outer loop
vertex 34.517845 -4.539151 -43.648911
vertex 33.836517 -1.212065 -44.694698
vertex 28.989012 -1.212065 -42.103649
endloop
endfacet
facet normal 0.594413 0.349388 0.724294
outer loop
vertex 33.836517 -1.212065 -44.694698
vertex 34.517845 -4.539151 -43.648911
vertex 38.954292 -4.539151 -47.289810
endloop
endfacet
facet normal 0.594411 0.349387 0.724296
outer loop
vertex 38.954292 -4.539151 -47.289810
vertex 38.085400 -1.212065 -48.181660
vertex 33.836517 -1.212065 -44.694698
endloop
endfacet
facet normal 0.724521 0.348598 0.594599
outer loop
vertex 38.085400 -1.212065 -48.181660
vertex 38.954292 -4.539151 -47.289810
vertex 42.595200 -4.539151 -51.726265
endloop
endfacet
facet normal 0.724521 0.348603 0.594597
outer loop
vertex 42.595200 -4.539151 -51.726265
vertex 41.572357 -1.212064 -52.430542
vertex 38.085400 -1.212065 -48.181660
endloop
endfacet
facet normal 0.826875 0.347762 0.441972
outer loop
vertex 41.572357 -1.212064 -52.430542
vertex 42.595200 -4.539151 -51.726265
vertex 45.300629 -4.539150 -56.787777
endloop
endfacet
facet normal 0.826874 0.347761 0.441975
outer loop
vertex 45.300629 -4.539150 -56.787777
vertex 44.163406 -1.212064 -57.278053
vertex 41.572357 -1.212064 -52.430542
endloop
endfacet
facet normal 0.897517 0.346898 0.272258
outer loop
vertex 44.163406 -1.212064 -57.278053
vertex 45.300629 -4.539150 -56.787777
vertex 46.966625 -4.539150 -62.279835
endloop
endfacet
facet normal 0.897517 0.346897 0.272260
outer loop
vertex 46.966625 -4.539150 -62.279835
vertex 45.758972 -1.212063 -62.537910
vertex 44.163406 -1.212064 -57.278053
endloop
endfacet
facet normal 0.933701 0.346043 0.091962
outer loop
vertex 45.758972 -1.212063 -62.537910
vertex 46.966625 -4.539150 -62.279835
vertex 47.529167 -4.539149 -67.991386
endloop
endfacet
facet normal 0.933700 0.346046 0.091961
outer loop
vertex 47.529167 -4.539149 -67.991386
vertex 46.297722 -1.212063 -68.007973
vertex 45.758972 -1.212063 -62.537910
endloop
endfacet
facet normal 0.933995 0.345240 -0.091992
outer loop
vertex 46.297722 -1.212063 -68.007973
vertex 47.529167 -4.539149 -67.991386
vertex 46.966621 -4.539149 -73.702934
endloop
endfacet
facet normal 0.933997 0.345236 -0.091990
outer loop
vertex 46.966621 -4.539149 -73.702934
vertex 45.758972 -1.212062 -73.478043
vertex 46.297722 -1.212063 -68.007973
endloop
endfacet
facet normal 0.898361 0.344503 -0.272515
outer loop
vertex 45.758972 -1.212062 -73.478043
vertex 46.966621 -4.539149 -73.702934
vertex 45.300621 -4.539148 -79.194992
endloop
endfacet
facet normal 0.898361 0.344503 -0.272516
outer loop
vertex 45.300621 -4.539148 -79.194992
vertex 44.163406 -1.212062 -78.737900
vertex 45.758972 -1.212062 -73.478043
endloop
endfacet
facet normal 0.828138 0.343874 -0.442648
outer loop
vertex 44.163406 -1.212062 -78.737900
vertex 45.300621 -4.539148 -79.194992
vertex 42.595192 -4.539148 -84.256500
endloop
endfacet
facet normal 0.828137 0.343876 -0.442649
outer loop
vertex 42.595192 -4.539148 -84.256500
vertex 41.572357 -1.212062 -83.585403
vertex 44.163406 -1.212062 -78.737900
endloop
endfacet
facet normal 0.726009 0.343377 -0.595821
outer loop
vertex 41.572357 -1.212062 -83.585403
vertex 42.595192 -4.539148 -84.256500
vertex 38.954285 -4.539147 -88.692947
endloop
endfacet
facet normal 0.726012 0.343372 -0.595822
outer loop
vertex 38.954285 -4.539147 -88.692947
vertex 38.085400 -1.212061 -87.834282
vertex 41.572357 -1.212062 -83.585403
endloop
endfacet
facet normal 0.595902 0.343021 -0.726111
outer loop
vertex 38.085400 -1.212061 -87.834282
vertex 38.954285 -4.539147 -88.692947
vertex 34.517838 -4.539147 -92.333847
endloop
endfacet
facet normal 0.595903 0.343020 -0.726110
outer loop
vertex 34.517838 -4.539147 -92.333847
vertex 33.836517 -1.212061 -91.321251
vertex 38.085400 -1.212061 -87.834282
endloop
endfacet
facet normal 0.442832 0.342828 -0.828474
outer loop
vertex 33.836517 -1.212061 -91.321251
vertex 34.517838 -4.539147 -92.333847
vertex 29.456331 -4.539147 -95.039276
endloop
endfacet
facet normal 0.442829 0.342825 -0.828477
outer loop
vertex 29.456331 -4.539147 -95.039276
vertex 28.989014 -1.212061 -93.912308
vertex 33.836517 -1.212061 -91.321251
endloop
endfacet
facet normal 0.272698 0.342801 -0.898957
outer loop
vertex 28.989014 -1.212061 -93.912308
vertex 29.456331 -4.539147 -95.039276
vertex 23.964277 -4.539147 -96.705276
endloop
endfacet
facet normal 0.272694 0.342805 -0.898956
outer loop
vertex 23.964277 -4.539147 -96.705276
vertex 23.729162 -1.212060 -95.507858
vertex 28.989014 -1.212061 -93.912308
endloop
endfacet
facet normal 0.092071 0.342951 -0.934830
outer loop
vertex 23.729162 -1.212060 -95.507858
vertex 23.964277 -4.539147 -96.705276
vertex 18.252731 -4.539147 -97.267807
endloop
endfacet
facet normal 0.092073 0.342951 -0.934830
outer loop
vertex 18.252731 -4.539147 -97.267807
vertex 18.259094 -1.212060 -96.046608
vertex 23.729162 -1.212060 -95.507858
endloop
endfacet
facet normal -0.092063 0.343262 -0.934717
outer loop
vertex 18.259094 -1.212060 -96.046608
vertex 18.252731 -4.539147 -97.267807
vertex 12.541187 -4.539147 -96.705269
endloop
endfacet
facet normal -0.092058 0.343261 -0.934718
outer loop
vertex 12.541187 -4.539147 -96.705269
vertex 12.789030 -1.212060 -95.507858
vertex 18.259094 -1.212060 -96.046608
endloop
endfacet
facet normal 0.258952 0.942221 -0.212518
outer loop
vertex 37.450699 0.493939 -80.713478
vertex 34.520576 0.493940 -84.283836
vertex 31.625538 1.999533 -81.136246
endloop
endfacet
facet normal 0.258954 0.942220 -0.212517
outer loop
vertex 31.625538 1.999533 -81.136246
vertex 34.068497 1.999533 -78.159492
vertex 37.450699 0.493939 -80.713478
endloop
endfacet
facet normal -0.032647 0.942895 -0.331485
outer loop
vertex 17.860395 0.493940 -91.184708
vertex 13.263861 0.493940 -90.731987
vertex 13.902940 1.999534 -86.512329
endloop
endfacet
facet normal -0.032649 0.942895 -0.331485
outer loop
vertex 13.902940 1.999534 -86.512329
vertex 17.735260 1.999534 -86.889786
vertex 17.860395 0.493940 -91.184708
endloop
endfacet
facet normal -0.272600 0.343723 -0.898634
outer loop
vertex 12.789030 -1.212060 -95.507858
vertex 12.541187 -4.539147 -96.705269
vertex 7.049134 -4.539147 -95.039268
endloop
endfacet
facet normal -0.272597 0.343720 -0.898636
outer loop
vertex 7.049134 -4.539147 -95.039268
vertex 7.529177 -1.212061 -93.912308
vertex 12.789030 -1.212060 -95.507858
endloop
endfacet
facet normal 0.038410 0.920020 0.389985
outer loop
vertex 17.860394 0.493937 -44.062576
vertex 22.456928 0.493937 -44.515297
vertex 21.567577 1.999530 -47.979576
endloop
endfacet
facet normal 0.038410 0.920020 0.389984
outer loop
vertex 21.567577 1.999530 -47.979576
vertex 17.735258 1.999530 -47.602127
vertex 17.860394 0.493937 -44.062576
endloop
endfacet
facet normal 0.298435 0.941005 -0.159517
outer loop
vertex 39.627972 0.493939 -76.640083
vertex 37.450699 0.493939 -80.713478
vertex 34.068497 1.999533 -78.159492
endloop
endfacet
facet normal 0.298435 0.941005 -0.159517
outer loop
vertex 34.068497 1.999533 -78.159492
vertex 35.883785 1.999533 -74.763329
vertex 39.627972 0.493939 -76.640083
endloop
endfacet
facet normal 0.032482 0.943493 -0.329797
outer loop
vertex 22.456932 0.493940 -90.731987
vertex 17.860395 0.493940 -91.184708
vertex 17.735260 1.999534 -86.889786
endloop
endfacet
facet normal 0.032481 0.943493 -0.329797
outer loop
vertex 17.735260 1.999534 -86.889786
vertex 21.567579 1.999534 -86.512337
vertex 22.456932 0.493940 -90.731987
endloop
endfacet
facet normal -0.038637 0.919031 0.392288
outer loop
vertex 13.263859 0.493937 -44.515297
vertex 17.860394 0.493937 -44.062576
vertex 17.735258 1.999530 -47.602127
endloop
endfacet
facet normal -0.038637 0.919031 0.392288
outer loop
vertex 17.735258 1.999530 -47.602127
vertex 13.902937 1.999530 -47.979576
vertex 13.263859 0.493937 -44.515297
endloop
endfacet
facet normal -0.300954 0.921099 0.246987
outer loop
vertex -1.729914 0.493937 -54.533825
vertex 1.200207 0.493937 -50.963455
vertex 3.844975 1.999531 -53.355675
endloop
endfacet
facet normal -0.300955 0.921099 0.246987
outer loop
vertex 3.844975 1.999531 -53.355675
vertex 1.402012 1.999531 -56.332436
vertex -1.729914 0.493937 -54.533825
endloop
endfacet
facet normal -0.442571 0.344317 -0.827996
outer loop
vertex 7.529177 -1.212061 -93.912308
vertex 7.049134 -4.539147 -95.039268
vertex 1.987627 -4.539147 -92.333839
endloop
endfacet
facet normal -0.442575 0.344321 -0.827992
outer loop
vertex 1.987627 -4.539147 -92.333839
vertex 2.681667 -1.212061 -91.321243
vertex 7.529177 -1.212061 -93.912308
endloop
endfacet
facet normal 0.327910 0.939458 -0.099470
outer loop
vertex 40.968731 0.493938 -72.220184
vertex 39.627972 0.493939 -76.640083
vertex 35.883785 1.999533 -74.763329
endloop
endfacet
facet normal 0.327912 0.939457 -0.099471
outer loop
vertex 35.883785 1.999533 -74.763329
vertex 37.001633 1.999532 -71.078285
vertex 40.968731 0.493938 -72.220184
endloop
endfacet
facet normal 0.096007 0.943725 -0.316491
outer loop
vertex 26.876822 0.493940 -89.391235
vertex 22.456932 0.493940 -90.731987
vertex 21.567579 1.999534 -86.512337
endloop
endfacet
facet normal 0.096006 0.943725 -0.316490
outer loop
vertex 21.567579 1.999534 -86.512337
vertex 25.252626 1.999534 -85.394485
vertex 26.876822 0.493940 -89.391235
endloop
endfacet
facet normal 0.346030 0.937604 -0.034081
outer loop
vertex 41.421455 0.493938 -67.623650
vertex 40.968731 0.493938 -72.220184
vertex 37.001633 1.999532 -71.078285
endloop
endfacet
facet normal 0.346028 0.937605 -0.034080
outer loop
vertex 37.001633 1.999532 -71.078285
vertex 37.379078 1.999532 -67.245964
vertex 41.421455 0.493938 -67.623650
endloop
endfacet
facet normal 0.156090 0.943588 -0.292022
outer loop
vertex 30.950212 0.493940 -87.213959
vertex 26.876822 0.493940 -89.391235
vertex 25.252626 1.999534 -85.394485
endloop
endfacet
facet normal 0.156089 0.943588 -0.292023
outer loop
vertex 25.252626 1.999534 -85.394485
vertex 28.648781 1.999533 -83.579208
vertex 30.950212 0.493940 -87.213959
endloop
endfacet
facet normal -0.363289 0.925136 0.110203
outer loop
vertex -5.247955 0.493938 -63.027115
vertex -3.907192 0.493937 -58.607220
vertex -0.413275 1.999531 -59.728592
endloop
endfacet
facet normal -0.363288 0.925136 0.110202
outer loop
vertex -0.413275 1.999531 -59.728592
vertex -1.531120 1.999532 -63.413639
vertex -5.247955 0.493938 -63.027115
endloop
endfacet
facet normal -0.595438 0.345028 -0.725541
outer loop
vertex 2.681667 -1.212061 -91.321243
vertex 1.987627 -4.539147 -92.333839
vertex -2.448818 -4.539147 -88.692932
endloop
endfacet
facet normal -0.595436 0.345026 -0.725543
outer loop
vertex -2.448818 -4.539147 -88.692932
vertex -1.567207 -1.212061 -87.834282
vertex 2.681667 -1.212061 -91.321243
endloop
endfacet
facet normal 0.210970 0.943085 -0.257066
outer loop
vertex 34.520576 0.493940 -84.283836
vertex 30.950212 0.493940 -87.213959
vertex 28.648781 1.999533 -83.579208
endloop
endfacet
facet normal 0.210969 0.943085 -0.257066
outer loop
vertex 28.648781 1.999533 -83.579208
vertex 31.625538 1.999533 -81.136246
vertex 34.520576 0.493940 -84.283836
endloop
endfacet
facet normal -0.365673 0.930046 -0.036017
outer loop
vertex -5.247942 0.493938 -72.220184
vertex -5.700672 0.493938 -67.623650
vertex -1.908573 1.999532 -67.245964
endloop
endfacet
facet normal -0.365672 0.930047 -0.036017
outer loop
vertex -1.908573 1.999532 -67.245964
vertex -1.531111 1.999532 -71.078285
vertex -5.247942 0.493938 -72.220184
endloop
endfacet
facet normal 0.351662 0.935486 0.034636
outer loop
vertex 40.968731 0.493938 -63.027115
vertex 41.421455 0.493938 -67.623650
vertex 37.379078 1.999532 -67.245964
endloop
endfacet
facet normal 0.351661 0.935487 0.034635
outer loop
vertex 37.379078 1.999532 -67.245964
vertex 37.001633 1.999532 -63.413639
vertex 40.968731 0.493938 -63.027115
endloop
endfacet
facet normal -0.345542 0.932531 -0.104818
outer loop
vertex -3.907187 0.493939 -76.640083
vertex -5.247942 0.493938 -72.220184
vertex -1.531111 1.999532 -71.078285
endloop
endfacet
facet normal -0.345542 0.932531 -0.104818
outer loop
vertex -1.531111 1.999532 -71.078285
vertex -0.413267 1.999533 -74.763329
vertex -3.907187 0.493939 -76.640083
endloop
endfacet
facet normal 0.343987 0.933159 0.104347
outer loop
vertex 39.627972 0.493937 -58.607224
vertex 40.968731 0.493938 -63.027115
vertex 37.001633 1.999532 -63.413639
endloop
endfacet
facet normal 0.343985 0.933159 0.104347
outer loop
vertex 37.001633 1.999532 -63.413639
vertex 35.883785 1.999531 -59.728596
vertex 39.627972 0.493937 -58.607224
endloop
endfacet
facet normal -0.725319 0.345816 -0.595250
outer loop
vertex -1.567207 -1.212061 -87.834282
vertex -2.448818 -4.539147 -88.692932
vertex -6.089712 -4.539148 -84.256477
endloop
endfacet
facet normal -0.725318 0.345815 -0.595253
outer loop
vertex -6.089712 -4.539148 -84.256477
vertex -5.054173 -1.212062 -83.585403
vertex -1.567207 -1.212061 -87.834282
endloop
endfacet
facet normal -0.313000 0.934902 -0.167302
outer loop
vertex -1.729906 0.493939 -80.713478
vertex -3.907187 0.493939 -76.640083
vertex -0.413267 1.999533 -74.763329
endloop
endfacet
facet normal -0.312999 0.934902 -0.167302
outer loop
vertex -0.413267 1.999533 -74.763329
vertex 1.402023 1.999533 -78.159485
vertex -1.729906 0.493939 -80.713478
endloop
endfacet
facet normal 0.322603 0.930695 0.172435
outer loop
vertex 37.450699 0.493937 -54.533825
vertex 39.627972 0.493937 -58.607224
vertex 35.883785 1.999531 -59.728596
endloop
endfacet
facet normal 0.322602 0.930696 0.172435
outer loop
vertex 35.883785 1.999531 -59.728596
vertex 34.068497 1.999531 -56.332436
vertex 37.450699 0.493937 -54.533825
endloop
endfacet
facet normal -0.249062 0.919710 0.303483
outer loop
vertex 1.200207 0.493937 -50.963455
vertex 4.770566 0.493937 -48.033333
vertex 6.821733 1.999530 -50.912712
endloop
endfacet
facet normal -0.249062 0.919710 0.303483
outer loop
vertex 6.821733 1.999530 -50.912712
vertex 3.844975 1.999531 -53.355675
vertex 1.200207 0.493937 -50.963455
endloop
endfacet
facet normal -0.269870 0.937080 -0.221476
outer loop
vertex 1.200216 0.493940 -84.283836
vertex -1.729906 0.493939 -80.713478
vertex 1.402023 1.999533 -78.159485
endloop
endfacet
facet normal -0.269869 0.937080 -0.221476
outer loop
vertex 1.402023 1.999533 -78.159485
vertex 3.844980 1.999533 -81.136246
vertex 1.200216 0.493940 -84.283836
endloop
endfacet
facet normal 0.287647 0.928187 0.236066
outer loop
vertex 34.520576 0.493937 -50.963455
vertex 37.450699 0.493937 -54.533825
vertex 34.068497 1.999531 -56.332436
endloop
endfacet
facet normal 0.287648 0.928187 0.236066
outer loop
vertex 34.068497 1.999531 -56.332436
vertex 31.625538 1.999531 -53.355675
vertex 34.520576 0.493937 -50.963455
endloop
endfacet
facet normal -0.827235 0.346658 -0.442166
outer loop
vertex -5.054173 -1.212062 -83.585403
vertex -6.089712 -4.539148 -84.256477
vertex -8.795139 -4.539148 -79.194977
endloop
endfacet
facet normal -0.827235 0.346658 -0.442166
outer loop
vertex -8.795139 -4.539148 -79.194977
vertex -7.645216 -1.212062 -78.737900
vertex -5.054173 -1.212062 -83.585403
endloop
endfacet
facet normal -0.114692 0.918638 0.378087
outer loop
vertex 8.843966 0.493937 -45.856064
vertex 13.263859 0.493937 -44.515297
vertex 13.902937 1.999530 -47.979576
endloop
endfacet
facet normal -0.114692 0.918638 0.378087
outer loop
vertex 13.902937 1.999530 -47.979576
vertex 10.217892 1.999530 -49.097427
vertex 8.843966 0.493937 -45.856064
endloop
endfacet
facet normal -0.218169 0.939006 -0.265840
outer loop
vertex 4.770572 0.493940 -87.213951
vertex 1.200216 0.493940 -84.283836
vertex 3.844980 1.999533 -81.136246
endloop
endfacet
facet normal -0.218169 0.939006 -0.265839
outer loop
vertex 3.844980 1.999533 -81.136246
vertex 6.821738 1.999533 -83.579201
vertex 4.770572 0.493940 -87.213951
endloop
endfacet
facet normal 0.239898 0.925743 0.292316
outer loop
vertex 30.950212 0.493937 -48.033340
vertex 34.520576 0.493937 -50.963455
vertex 31.625538 1.999531 -53.355675
endloop
endfacet
facet normal 0.239896 0.925744 0.292316
outer loop
vertex 31.625538 1.999531 -53.355675
vertex 28.648781 1.999530 -50.912712
vertex 30.950212 0.493937 -48.033340
endloop
endfacet
facet normal -0.185994 0.918870 0.347972
outer loop
vertex 4.770566 0.493937 -48.033333
vertex 8.843966 0.493937 -45.856064
vertex 10.217892 1.999530 -49.097427
endloop
endfacet
facet normal -0.185994 0.918870 0.347971
outer loop
vertex 10.217892 1.999530 -49.097427
vertex 6.821733 1.999530 -50.912712
vertex 4.770566 0.493937 -48.033333
endloop
endfacet
facet normal -0.339477 0.922946 0.181454
outer loop
vertex -3.907192 0.493937 -58.607220
vertex -1.729914 0.493937 -54.533825
vertex 1.402012 1.999531 -56.332436
endloop
endfacet
facet normal -0.339477 0.922946 0.181454
outer loop
vertex 1.402012 1.999531 -56.332436
vertex -0.413275 1.999531 -59.728592
vertex -3.907192 0.493937 -58.607220
endloop
endfacet
facet normal -0.897296 0.347521 -0.272191
outer loop
vertex -7.645216 -1.212062 -78.737900
vertex -8.795139 -4.539148 -79.194977
vertex -10.461136 -4.539149 -73.702919
endloop
endfacet
facet normal -0.897296 0.347521 -0.272192
outer loop
vertex -10.461136 -4.539149 -73.702919
vertex -9.240776 -1.212062 -73.478043
vertex -7.645216 -1.212062 -78.737900
endloop
endfacet
facet normal -0.160000 0.940636 -0.299340
outer loop
vertex 8.843970 0.493940 -89.391228
vertex 4.770572 0.493940 -87.213951
vertex 6.821738 1.999533 -83.579201
endloop
endfacet
facet normal -0.160001 0.940636 -0.299340
outer loop
vertex 6.821738 1.999533 -83.579201
vertex 10.217896 1.999534 -85.394485
vertex 8.843970 0.493940 -89.391228
endloop
endfacet
facet normal 0.180844 0.923485 0.338335
outer loop
vertex 26.876820 0.493937 -45.856064
vertex 30.950212 0.493937 -48.033340
vertex 28.648781 1.999530 -50.912712
endloop
endfacet
facet normal 0.180845 0.923485 0.338335
outer loop
vertex 28.648781 1.999530 -50.912712
vertex 25.252625 1.999530 -49.097427
vertex 26.876820 0.493937 -45.856064
endloop
endfacet
facet normal -0.371915 0.927544 0.036630
outer loop
vertex -5.700672 0.493938 -67.623650
vertex -5.247955 0.493938 -63.027115
vertex -1.531120 1.999532 -63.413639
endloop
endfacet
facet normal -0.371915 0.927544 0.036631
outer loop
vertex -1.531120 1.999532 -63.413639
vertex -1.908573 1.999532 -67.245964
vertex -5.700672 0.493938 -67.623650
endloop
endfacet
facet normal -0.097474 0.941939 -0.321326
outer loop
vertex 13.263861 0.493940 -90.731987
vertex 8.843970 0.493940 -89.391228
vertex 10.217896 1.999534 -85.394485
endloop
endfacet
facet normal -0.097474 0.941939 -0.321326
outer loop
vertex 10.217896 1.999534 -85.394485
vertex 13.902940 1.999534 -86.512329
vertex 13.263861 0.493940 -90.731987
endloop
endfacet
facet normal 0.112715 0.921538 0.371569
outer loop
vertex 22.456928 0.493937 -44.515297
vertex 26.876820 0.493937 -45.856064
vertex 25.252625 1.999530 -49.097427
endloop
endfacet
facet normal 0.112715 0.921538 0.371569
outer loop
vertex 25.252625 1.999530 -49.097427
vertex 21.567577 1.999530 -47.979576
vertex 22.456928 0.493937 -44.515297
endloop
endfacet
facet normal -0.253919 0.916404 0.309400
outer loop
vertex -1.567217 -1.212065 -48.181660
vertex 2.681662 -1.212065 -44.694695
vertex 4.770566 0.493937 -48.033333
endloop
endfacet
facet normal -0.253918 0.916405 0.309400
outer loop
vertex 4.770566 0.493937 -48.033333
vertex 1.200207 0.493937 -50.963455
vertex -1.567217 -1.212065 -48.181660
endloop
endfacet
facet normal 0.285364 0.946204 -0.152530
outer loop
vertex 44.163406 -1.212062 -78.737900
vertex 41.572357 -1.212062 -83.585403
vertex 37.450699 0.493939 -80.713478
endloop
endfacet
facet normal 0.285363 0.946204 -0.152530
outer loop
vertex 37.450699 0.493939 -80.713478
vertex 39.627972 0.493939 -76.640083
vertex 44.163406 -1.212062 -78.737900
endloop
endfacet
facet normal 0.109154 0.926610 0.359833
outer loop
vertex 23.729158 -1.212065 -40.508095
vertex 28.989012 -1.212065 -42.103649
vertex 26.876820 0.493937 -45.856064
endloop
endfacet
facet normal 0.109155 0.926609 0.359834
outer loop
vertex 26.876820 0.493937 -45.856064
vertex 22.456928 0.493937 -44.515297
vertex 23.729158 -1.212065 -40.508095
endloop
endfacet
facet normal 0.032360 0.943928 -0.328563
outer loop
vertex 23.729162 -1.212060 -95.507858
vertex 18.259094 -1.212060 -96.046608
vertex 17.860395 0.493940 -91.184708
endloop
endfacet
facet normal 0.032362 0.943928 -0.328562
outer loop
vertex 17.860395 0.493940 -91.184708
vertex 22.456932 0.493940 -90.731987
vertex 23.729162 -1.212060 -95.507858
endloop
endfacet
facet normal 0.324917 0.940592 0.098563
outer loop
vertex 44.163406 -1.212064 -57.278053
vertex 45.758972 -1.212063 -62.537910
vertex 40.968731 0.493938 -63.027115
endloop
endfacet
facet normal 0.324918 0.940592 0.098563
outer loop
vertex 40.968731 0.493938 -63.027115
vertex 39.627972 0.493937 -58.607224
vertex 44.163406 -1.212064 -57.278053
endloop
endfacet
facet normal -0.309533 0.916330 0.254027
outer loop
vertex -5.054184 -1.212064 -52.430542
vertex -1.567217 -1.212065 -48.181660
vertex 1.200207 0.493937 -50.963455
endloop
endfacet
facet normal -0.309532 0.916330 0.254027
outer loop
vertex 1.200207 0.493937 -50.963455
vertex -1.729914 0.493937 -54.533825
vertex -5.054184 -1.212064 -52.430542
endloop
endfacet
facet normal 0.311858 0.945407 -0.094601
outer loop
vertex 45.758972 -1.212062 -73.478043
vertex 44.163406 -1.212062 -78.737900
vertex 39.627972 0.493939 -76.640083
endloop
endfacet
facet normal 0.311857 0.945408 -0.094600
outer loop
vertex 39.627972 0.493939 -76.640083
vertex 40.968731 0.493938 -72.220184
vertex 45.758972 -1.212062 -73.478043
endloop
endfacet
facet normal -0.279910 0.932138 -0.229717
outer loop
vertex -1.567207 -1.212061 -87.834282
vertex -5.054173 -1.212062 -83.585403
vertex -1.729906 0.493939 -80.713478
endloop
endfacet
facet normal -0.279910 0.932138 -0.229717
outer loop
vertex -1.729906 0.493939 -80.713478
vertex 1.200216 0.493940 -84.283836
vertex -1.567207 -1.212061 -87.834282
endloop
endfacet
facet normal 0.037556 0.923681 0.381318
outer loop
vertex 18.259092 -1.212066 -39.969334
vertex 23.729158 -1.212065 -40.508095
vertex 22.456928 0.493937 -44.515297
endloop
endfacet
facet normal 0.037557 0.923681 0.381318
outer loop
vertex 22.456928 0.493937 -44.515297
vertex 17.860394 0.493937 -44.062576
vertex 18.259092 -1.212066 -39.969334
endloop
endfacet
facet normal 0.094765 0.945213 -0.312398
outer loop
vertex 28.989014 -1.212061 -93.912308
vertex 23.729162 -1.212060 -95.507858
vertex 22.456932 0.493940 -90.731987
endloop
endfacet
facet normal 0.094764 0.945213 -0.312398
outer loop
vertex 22.456932 0.493940 -90.731987
vertex 26.876822 0.493940 -89.391235
vertex 28.989014 -1.212061 -93.912308
endloop
endfacet
facet normal 0.305123 0.938243 0.163092
outer loop
vertex 41.572357 -1.212064 -52.430542
vertex 44.163406 -1.212064 -57.278053
vertex 39.627972 0.493937 -58.607224
endloop
endfacet
facet normal 0.305124 0.938243 0.163092
outer loop
vertex 39.627972 0.493937 -58.607224
vertex 37.450699 0.493937 -54.533825
vertex 41.572357 -1.212064 -52.430542
endloop
endfacet
facet normal -0.351688 0.917049 0.187981
outer loop
vertex -7.645229 -1.212064 -57.278053
vertex -5.054184 -1.212064 -52.430542
vertex -1.729914 0.493937 -54.533825
endloop
endfacet
facet normal -0.351689 0.917048 0.187982
outer loop
vertex -1.729914 0.493937 -54.533825
vertex -3.907192 0.493937 -58.607220
vertex -7.645229 -1.212064 -57.278053
endloop
endfacet
facet normal -0.388647 0.920591 0.038278
outer loop
vertex -9.779541 -1.212063 -68.007980
vertex -9.240791 -1.212063 -62.537910
vertex -5.247955 0.493938 -63.027115
endloop
endfacet
facet normal -0.388647 0.920591 0.038278
outer loop
vertex -5.247955 0.493938 -63.027115
vertex -5.700672 0.493938 -67.623650
vertex -9.779541 -1.212063 -68.007980
endloop
endfacet
facet normal 0.327791 0.944199 -0.032284
outer loop
vertex 46.297722 -1.212063 -68.007973
vertex 45.758972 -1.212062 -73.478043
vertex 40.968731 0.493938 -72.220184
endloop
endfacet
facet normal 0.327790 0.944199 -0.032285
outer loop
vertex 40.968731 0.493938 -72.220184
vertex 41.421455 0.493938 -67.623650
vertex 46.297722 -1.212063 -68.007973
endloop
endfacet
facet normal -0.224880 0.935064 -0.274017
outer loop
vertex 2.681667 -1.212061 -91.321243
vertex -1.567207 -1.212061 -87.834282
vertex 1.200216 0.493940 -84.283836
endloop
endfacet
facet normal -0.224880 0.935064 -0.274017
outer loop
vertex 1.200216 0.493940 -84.283836
vertex 4.770572 0.493940 -87.213951
vertex 2.681667 -1.212061 -91.321243
endloop
endfacet
facet normal -0.361156 0.926048 -0.109555
outer loop
vertex -7.645216 -1.212062 -78.737900
vertex -9.240776 -1.212062 -73.478043
vertex -5.247942 0.493938 -72.220184
endloop
endfacet
facet normal -0.361156 0.926048 -0.109555
outer loop
vertex -5.247942 0.493938 -72.220184
vertex -3.907187 0.493939 -76.640083
vertex -7.645216 -1.212062 -78.737900
endloop
endfacet
facet normal -0.382564 0.923160 -0.037680
outer loop
vertex -9.240776 -1.212062 -73.478043
vertex -9.779541 -1.212063 -68.007980
vertex -5.700672 0.493938 -67.623650
endloop
endfacet
facet normal -0.382565 0.923160 -0.037680
outer loop
vertex -5.700672 0.493938 -67.623650
vertex -5.247942 0.493938 -72.220184
vertex -9.240776 -1.212062 -73.478043
endloop
endfacet
facet normal -0.038175 0.921039 0.387594
outer loop
vertex 12.789027 -1.212065 -40.508095
vertex 18.259092 -1.212066 -39.969334
vertex 17.860394 0.493937 -44.062576
endloop
endfacet
facet normal -0.038175 0.921039 0.387594
outer loop
vertex 17.860394 0.493937 -44.062576
vertex 13.263859 0.493937 -44.515297
vertex 12.789027 -1.212065 -40.508095
endloop
endfacet
facet normal 0.152691 0.946087 -0.285665
outer loop
vertex 33.836517 -1.212061 -91.321251
vertex 28.989014 -1.212061 -93.912308
vertex 26.876822 0.493940 -89.391235
endloop
endfacet
facet normal 0.152692 0.946087 -0.285666
outer loop
vertex 26.876822 0.493940 -89.391235
vertex 30.950212 0.493940 -87.213959
vertex 33.836517 -1.212061 -91.321251
endloop
endfacet
facet normal 0.332352 0.942587 0.032734
outer loop
vertex 45.758972 -1.212063 -62.537910
vertex 46.297722 -1.212063 -68.007973
vertex 41.421455 0.493938 -67.623650
endloop
endfacet
facet normal 0.332350 0.942588 0.032734
outer loop
vertex 41.421455 0.493938 -67.623650
vertex 40.968731 0.493938 -63.027115
vertex 45.758972 -1.212063 -62.537910
endloop
endfacet
facet normal 0.272944 0.935588 0.223999
outer loop
vertex 38.085400 -1.212065 -48.181660
vertex 41.572357 -1.212064 -52.430542
vertex 37.450699 0.493937 -54.533825
endloop
endfacet
facet normal 0.272943 0.935589 0.223998
outer loop
vertex 37.450699 0.493937 -54.533825
vertex 34.520576 0.493937 -50.963455
vertex 38.085400 -1.212065 -48.181660
endloop
endfacet
facet normal -0.378382 0.918505 0.114781
outer loop
vertex -9.240791 -1.212063 -62.537910
vertex -7.645229 -1.212064 -57.278053
vertex -3.907192 0.493937 -58.607220
endloop
endfacet
facet normal -0.378383 0.918505 0.114782
outer loop
vertex -3.907192 0.493937 -58.607220
vertex -5.247955 0.493938 -63.027115
vertex -9.240791 -1.212063 -62.537910
endloop
endfacet
facet normal -0.163698 0.937769 -0.306256
outer loop
vertex 7.529177 -1.212061 -93.912308
vertex 2.681667 -1.212061 -91.321243
vertex 4.770572 0.493940 -87.213951
endloop
endfacet
facet normal -0.163698 0.937769 -0.306256
outer loop
vertex 4.770572 0.493940 -87.213951
vertex 8.843970 0.493940 -89.391228
vertex 7.529177 -1.212061 -93.912308
endloop
endfacet
facet normal -0.326183 0.929090 -0.174348
outer loop
vertex -5.054173 -1.212062 -83.585403
vertex -7.645216 -1.212062 -78.737900
vertex -3.907187 0.493939 -76.640083
endloop
endfacet
facet normal -0.326182 0.929090 -0.174348
outer loop
vertex -3.907187 0.493939 -76.640083
vertex -1.729906 0.493939 -80.713478
vertex -5.054173 -1.212062 -83.585403
endloop
endfacet
facet normal -0.114547 0.918851 0.377613
outer loop
vertex 7.529172 -1.212065 -42.103649
vertex 12.789027 -1.212065 -40.508095
vertex 13.263859 0.493937 -44.515297
endloop
endfacet
facet normal -0.114548 0.918852 0.377612
outer loop
vertex 13.263859 0.493937 -44.515297
vertex 8.843966 0.493937 -45.856064
vertex 7.529172 -1.212065 -42.103649
endloop
endfacet
facet normal 0.204637 0.946545 -0.249352
outer loop
vertex 38.085400 -1.212061 -87.834282
vertex 33.836517 -1.212061 -91.321251
vertex 30.950212 0.493940 -87.213959
endloop
endfacet
facet normal 0.204638 0.946545 -0.249352
outer loop
vertex 30.950212 0.493940 -87.213959
vertex 34.520576 0.493940 -84.283836
vertex 38.085400 -1.212061 -87.834282
endloop
endfacet
facet normal 0.228801 0.932697 0.278795
outer loop
vertex 33.836517 -1.212065 -44.694698
vertex 38.085400 -1.212065 -48.181660
vertex 34.520576 0.493937 -50.963455
endloop
endfacet
facet normal 0.228800 0.932697 0.278794
outer loop
vertex 34.520576 0.493937 -50.963455
vertex 30.950212 0.493937 -48.033340
vertex 33.836517 -1.212065 -44.694698
endloop
endfacet
facet normal -0.098894 0.940179 -0.326011
outer loop
vertex 12.789030 -1.212060 -95.507858
vertex 7.529177 -1.212061 -93.912308
vertex 8.843970 0.493940 -89.391228
endloop
endfacet
facet normal -0.098894 0.940179 -0.326011
outer loop
vertex 8.843970 0.493940 -89.391228
vertex 13.263861 0.493940 -90.731987
vertex 12.789030 -1.212060 -95.507858
endloop
endfacet
facet normal -0.187744 0.917268 0.351245
outer loop
vertex 2.681662 -1.212065 -44.694695
vertex 7.529172 -1.212065 -42.103649
vertex 8.843966 0.493937 -45.856064
endloop
endfacet
facet normal -0.187744 0.917267 0.351245
outer loop
vertex 8.843966 0.493937 -45.856064
vertex 4.770566 0.493937 -48.033333
vertex 2.681662 -1.212065 -44.694695
endloop
endfacet
facet normal 0.249263 0.946584 -0.204564
outer loop
vertex 41.572357 -1.212062 -83.585403
vertex 38.085400 -1.212061 -87.834282
vertex 34.520576 0.493940 -84.283836
endloop
endfacet
facet normal 0.249262 0.946584 -0.204565
outer loop
vertex 34.520576 0.493940 -84.283836
vertex 37.450699 0.493939 -80.713478
vertex 41.572357 -1.212062 -83.585403
endloop
endfacet
facet normal 0.173667 0.929664 0.324908
outer loop
vertex 28.989012 -1.212065 -42.103649
vertex 33.836517 -1.212065 -44.694698
vertex 30.950212 0.493937 -48.033340
endloop
endfacet
facet normal 0.173667 0.929664 0.324908
outer loop
vertex 30.950212 0.493937 -48.033340
vertex 26.876820 0.493937 -45.856064
vertex 28.989012 -1.212065 -42.103649
endloop
endfacet
facet normal -0.032829 0.942243 -0.333317
outer loop
vertex 18.259094 -1.212060 -96.046608
vertex 12.789030 -1.212060 -95.507858
vertex 13.263861 0.493940 -90.731987
endloop
endfacet
facet normal -0.032829 0.942243 -0.333317
outer loop
vertex 13.263861 0.493940 -90.731987
vertex 17.860395 0.493940 -91.184708
vertex 18.259094 -1.212060 -96.046608
endloop
endfacet
facet normal -0.932841 0.348376 -0.091879
outer loop
vertex -11.023701 -4.539149 -67.991379
vertex -9.779541 -1.212063 -68.007980
vertex -9.240776 -1.212062 -73.478043
endloop
endfacet
facet normal -0.932842 0.348372 -0.091881
outer loop
vertex -9.240776 -1.212062 -73.478043
vertex -10.461136 -4.539149 -73.702919
vertex -11.023701 -4.539149 -67.991379
endloop
endfacet
facet normal -0.000001 1.000000 0.000000
outer loop
vertex -1.908573 1.999532 -67.245964
vertex -0.413267 1.999533 -74.763329
vertex -1.531111 1.999532 -71.078285
endloop
endfacet
facet normal 0.000000 1.000000 0.000000
outer loop
vertex 3.844980 1.999533 -81.136246
vertex 1.402023 1.999533 -78.159485
vertex -0.413267 1.999533 -74.763329
endloop
endfacet
facet normal -0.000001 1.000000 -0.000001
outer loop
vertex 10.217896 1.999534 -85.394485
vertex 6.821738 1.999533 -83.579201
vertex 3.844980 1.999533 -81.136246
endloop
endfacet
facet normal 0.000000 1.000000 0.000000
outer loop
vertex 17.735260 1.999534 -86.889786
vertex 13.902940 1.999534 -86.512329
vertex 10.217896 1.999534 -85.394485
endloop
endfacet
facet normal 0.000000 1.000000 0.000000
outer loop
vertex 25.252626 1.999534 -85.394485
vertex 21.567579 1.999534 -86.512337
vertex 17.735260 1.999534 -86.889786
endloop
endfacet
facet normal 0.000001 1.000000 -0.000001
outer loop
vertex 31.625538 1.999533 -81.136246
vertex 28.648781 1.999533 -83.579208
vertex 25.252626 1.999534 -85.394485
endloop
endfacet
facet normal 0.000000 1.000000 0.000000
outer loop
vertex 35.883785 1.999533 -74.763329
vertex 34.068497 1.999533 -78.159492
vertex 31.625538 1.999533 -81.136246
endloop
endfacet
facet normal 0.000001 1.000000 0.000000
outer loop
vertex 37.379078 1.999532 -67.245964
vertex 37.001633 1.999532 -71.078285
vertex 35.883785 1.999533 -74.763329
endloop
endfacet
facet normal -0.000001 1.000000 -0.000000
outer loop
vertex 35.883785 1.999531 -59.728596
vertex 37.001633 1.999532 -63.413639
vertex 37.379078 1.999532 -67.245964
endloop
endfacet
facet normal 0.000000 1.000000 0.000000
outer loop
vertex 31.625538 1.999531 -53.355675
vertex 34.068497 1.999531 -56.332436
vertex 35.883785 1.999531 -59.728596
endloop
endfacet
facet normal 0.000001 1.000000 0.000001
outer loop
vertex 25.252625 1.999530 -49.097427
vertex 28.648781 1.999530 -50.912712
vertex 31.625538 1.999531 -53.355675
endloop
endfacet
facet normal 0.000000 1.000000 0.000000
outer loop
vertex 17.735258 1.999530 -47.602127
vertex 21.567577 1.999530 -47.979576
vertex 25.252625 1.999530 -49.097427
endloop
endfacet
facet normal 0.000000 1.000000 0.000000
outer loop
vertex 10.217892 1.999530 -49.097427
vertex 13.902937 1.999530 -47.979576
vertex 17.735258 1.999530 -47.602127
endloop
endfacet
facet normal -0.000001 1.000000 0.000001
outer loop
vertex 3.844975 1.999531 -53.355675
vertex 6.821733 1.999530 -50.912712
vertex 10.217892 1.999530 -49.097427
endloop
endfacet
facet normal 0.000000 1.000000 0.000000
outer loop
vertex -0.413275 1.999531 -59.728592
vertex 1.402012 1.999531 -56.332436
vertex 3.844975 1.999531 -53.355675
endloop
endfacet
facet normal 0.000001 1.000000 -0.000000
outer loop
vertex -1.908573 1.999532 -67.245964
vertex -1.531120 1.999532 -63.413639
vertex -0.413275 1.999531 -59.728592
endloop
endfacet
facet normal 0.000000 1.000000 0.000000
outer loop
vertex -1.908573 1.999532 -67.245964
vertex 3.844980 1.999533 -81.136246
vertex -0.413267 1.999533 -74.763329
endloop
endfacet
facet normal 0.000000 1.000000 0.000000
outer loop
vertex 17.735260 1.999534 -86.889786
vertex 10.217896 1.999534 -85.394485
vertex 3.844980 1.999533 -81.136246
endloop
endfacet
facet normal -0.000000 1.000000 0.000000
outer loop
vertex 31.625538 1.999533 -81.136246
vertex 25.252626 1.999534 -85.394485
vertex 17.735260 1.999534 -86.889786
endloop
endfacet
facet normal -0.000000 1.000000 0.000000
outer loop
vertex 37.379078 1.999532 -67.245964
vertex 35.883785 1.999533 -74.763329
vertex 31.625538 1.999533 -81.136246
endloop
endfacet
facet normal 0.000000 1.000000 0.000000
outer loop
vertex 31.625538 1.999531 -53.355675
vertex 35.883785 1.999531 -59.728596
vertex 37.379078 1.999532 -67.245964
endloop
endfacet
facet normal 0.000000 1.000000 0.000000
outer loop
vertex 17.735258 1.999530 -47.602127
vertex 25.252625 1.999530 -49.097427
vertex 31.625538 1.999531 -53.355675
endloop
endfacet
facet normal -0.000000 1.000000 0.000000
outer loop
vertex 3.844975 1.999531 -53.355675
vertex 10.217892 1.999530 -49.097427
vertex 17.735258 1.999530 -47.602127
endloop
endfacet
facet normal -0.000000 1.000000 0.000000
outer loop
vertex -1.908573 1.999532 -67.245964
vertex -0.413275 1.999531 -59.728592
vertex 3.844975 1.999531 -53.355675
endloop
endfacet
facet normal -0.000000 1.000000 0.000000
outer loop
vertex -1.908573 1.999532 -67.245964
vertex 17.735260 1.999534 -86.889786
vertex 3.844980 1.999533 -81.136246
endloop
endfacet
facet normal 0.000000 1.000000 0.000000
outer loop
vertex 37.379078 1.999532 -67.245964
vertex 31.625538 1.999533 -81.136246
vertex 17.735260 1.999534 -86.889786
endloop
endfacet
facet normal -0.000000 1.000000 0.000000
outer loop
vertex 17.735258 1.999530 -47.602127
vertex 31.625538 1.999531 -53.355675
vertex 37.379078 1.999532 -67.245964
endloop
endfacet
facet normal 0.000000 1.000000 0.000000
outer loop
vertex -1.908573 1.999532 -67.245964
vertex 3.844975 1.999531 -53.355675
vertex 17.735258 1.999530 -47.602127
endloop
endfacet
facet normal 0.000000 1.000000 0.000000
outer loop
vertex -1.908573 1.999532 -67.245964
vertex 37.379078 1.999532 -67.245964
vertex 17.735260 1.999534 -86.889786
endloop
endfacet
facet normal 0.000000 1.000000 0.000000
outer loop
vertex -1.908573 1.999532 -67.245964
vertex 17.735258 1.999530 -47.602127
vertex 37.379078 1.999532 -67.245964
endloop
endfacet
facet normal -0.000000 -1.000000 0.000000
outer loop
vertex -10.461159 -4.539150 -62.279831
vertex -6.089735 -4.539151 -51.726257
vertex -8.795166 -4.539150 -56.787773
endloop
endfacet
facet normal 0.000000 -1.000000 -0.000001
outer loop
vertex 1.987623 -4.539151 -43.648911
vertex -2.448832 -4.539151 -47.289810
vertex -6.089735 -4.539151 -51.726257
endloop
endfacet
facet normal 0.000000 -1.000000 -0.000001
outer loop
vertex 12.541193 -4.539152 -39.277481
vertex 7.049135 -4.539152 -40.943481
vertex 1.987623 -4.539151 -43.648911
endloop
endfacet
facet normal 0.000000 -1.000000 0.000000
outer loop
vertex 23.964289 -4.539152 -39.277489
vertex 18.252741 -4.539152 -38.714943
vertex 12.541193 -4.539152 -39.277481
endloop
endfacet
facet normal -0.000000 -1.000000 -0.000001
outer loop
vertex 34.517845 -4.539151 -43.648911
vertex 29.456345 -4.539152 -40.943489
vertex 23.964289 -4.539152 -39.277489
endloop
endfacet
facet normal -0.000000 -1.000000 0.000000
outer loop
vertex 42.595200 -4.539151 -51.726265
vertex 38.954292 -4.539151 -47.289810
vertex 34.517845 -4.539151 -43.648911
endloop
endfacet
facet normal 0.000000 -1.000000 0.000000
outer loop
vertex 46.966625 -4.539150 -62.279835
vertex 45.300629 -4.539150 -56.787777
vertex 42.595200 -4.539151 -51.726265
endloop
endfacet
facet normal 0.000000 -1.000000 -0.000000
outer loop
vertex 46.966621 -4.539149 -73.702934
vertex 47.529167 -4.539149 -67.991386
vertex 46.966625 -4.539150 -62.279835
endloop
endfacet
facet normal -0.000000 -1.000000 -0.000000
outer loop
vertex 42.595192 -4.539148 -84.256500
vertex 45.300621 -4.539148 -79.194992
vertex 46.966621 -4.539149 -73.702934
endloop
endfacet
facet normal -0.000000 -1.000000 0.000000
outer loop
vertex 34.517838 -4.539147 -92.333847
vertex 38.954285 -4.539147 -88.692947
vertex 42.595192 -4.539148 -84.256500
endloop
endfacet
facet normal 0.000000 -1.000000 0.000000
outer loop
vertex 23.964277 -4.539147 -96.705276
vertex 29.456331 -4.539147 -95.039276
vertex 34.517838 -4.539147 -92.333847
endloop
endfacet
facet normal 0.000000 -1.000000 0.000001
outer loop
vertex 12.541187 -4.539147 -96.705269
vertex 18.252731 -4.539147 -97.267807
vertex 23.964277 -4.539147 -96.705276
endloop
endfacet
facet normal 0.000000 -1.000000 0.000000
outer loop
vertex 1.987627 -4.539147 -92.333839
vertex 7.049134 -4.539147 -95.039268
vertex 12.541187 -4.539147 -96.705269
endloop
endfacet
facet normal 0.000000 -1.000000 -0.000001
outer loop
vertex -6.089712 -4.539148 -84.256477
vertex -2.448818 -4.539147 -88.692932
vertex 1.987627 -4.539147 -92.333839
endloop
endfacet
facet normal 0.000000 -1.000000 0.000000
outer loop
vertex -10.461136 -4.539149 -73.702919
vertex -8.795139 -4.539148 -79.194977
vertex -6.089712 -4.539148 -84.256477
endloop
endfacet
facet normal 0.000000 -1.000000 -0.000000
outer loop
vertex -10.461159 -4.539150 -62.279831
vertex -11.023701 -4.539149 -67.991379
vertex -10.461136 -4.539149 -73.702919
endloop
endfacet
facet normal 0.000000 -1.000000 -0.000000
outer loop
vertex -10.461159 -4.539150 -62.279831
vertex 1.987623 -4.539151 -43.648911
vertex -6.089735 -4.539151 -51.726257
endloop
endfacet
facet normal -0.000000 -1.000000 -0.000000
outer loop
vertex 23.964289 -4.539152 -39.277489
vertex 12.541193 -4.539152 -39.277481
vertex 1.987623 -4.539151 -43.648911
endloop
endfacet
facet normal 0.000000 -1.000000 -0.000000
outer loop
vertex 42.595200 -4.539151 -51.726265
vertex 34.517845 -4.539151 -43.648911
vertex 23.964289 -4.539152 -39.277489
endloop
endfacet
facet normal 0.000000 -1.000000 -0.000000
outer loop
vertex 46.966621 -4.539149 -73.702934
vertex 46.966625 -4.539150 -62.279835
vertex 42.595200 -4.539151 -51.726265
endloop
endfacet
facet normal -0.000000 -1.000000 0.000000
outer loop
vertex 34.517838 -4.539147 -92.333847
vertex 42.595192 -4.539148 -84.256500
vertex 46.966621 -4.539149 -73.702934
endloop
endfacet
facet normal 0.000000 -1.000000 0.000000
outer loop
vertex 12.541187 -4.539147 -96.705269
vertex 23.964277 -4.539147 -96.705276
vertex 34.517838 -4.539147 -92.333847
endloop
endfacet
facet normal -0.000000 -1.000000 -0.000000
outer loop
vertex -6.089712 -4.539148 -84.256477
vertex 1.987627 -4.539147 -92.333839
vertex 12.541187 -4.539147 -96.705269
endloop
endfacet
facet normal 0.000000 -1.000000 -0.000000
outer loop
vertex -10.461159 -4.539150 -62.279831
vertex -10.461136 -4.539149 -73.702919
vertex -6.089712 -4.539148 -84.256477
endloop
endfacet
facet normal -0.000000 -1.000000 -0.000000
outer loop
vertex -10.461159 -4.539150 -62.279831
vertex 23.964289 -4.539152 -39.277489
vertex 1.987623 -4.539151 -43.648911
endloop
endfacet
facet normal -0.000000 -1.000000 -0.000000
outer loop
vertex 46.966621 -4.539149 -73.702934
vertex 42.595200 -4.539151 -51.726265
vertex 23.964289 -4.539152 -39.277489
endloop
endfacet
facet normal 0.000000 -1.000000 -0.000000
outer loop
vertex 12.541187 -4.539147 -96.705269
vertex 34.517838 -4.539147 -92.333847
vertex 46.966621 -4.539149 -73.702934
endloop
endfacet
facet normal -0.000000 -1.000000 -0.000000
outer loop
vertex -10.461159 -4.539150 -62.279831
vertex -6.089712 -4.539148 -84.256477
vertex 12.541187 -4.539147 -96.705269
endloop
endfacet
facet normal 0.000000 -1.000000 -0.000000
outer loop
vertex -10.461159 -4.539150 -62.279831
vertex 46.966621 -4.539149 -73.702934
vertex 23.964289 -4.539152 -39.277489
endloop
endfacet
facet normal 0.000000 -1.000000 -0.000000
outer loop
vertex -10.461159 -4.539150 -62.279831
vertex 12.541187 -4.539147 -96.705269
vertex 46.966621 -4.539149 -73.702934
endloop
endfacet
endsolid Exported from Blender-2.74 (sub 0)
