solid Exported from Blender-2.74 (sub 0)
facet normal 0.098018 0.000000 -0.995185
outer loop
vertex -12.000000 -27.953159 9.400000
vertex -12.000000 -25.753159 9.400000
vertex -11.492765 -25.753159 9.449959
endloop
endfacet
facet normal 0.098021 0.000000 -0.995184
outer loop
vertex -11.492765 -25.753159 9.449959
vertex -11.492765 -27.953159 9.449959
vertex -12.000000 -27.953159 9.400000
endloop
endfacet
facet normal 0.290284 0.000000 -0.956940
outer loop
vertex -11.492765 -27.953159 9.449959
vertex -11.492765 -25.753159 9.449959
vertex -11.005023 -25.753159 9.597914
endloop
endfacet
facet normal 0.290284 0.000000 -0.956941
outer loop
vertex -11.005023 -25.753159 9.597914
vertex -11.005023 -27.953159 9.597914
vertex -11.492765 -27.953159 9.449959
endloop
endfacet
facet normal 0.471396 0.000000 -0.881922
outer loop
vertex -11.005023 -27.953159 9.597914
vertex -11.005023 -25.753159 9.597914
vertex -10.555517 -25.753159 9.838179
endloop
endfacet
facet normal 0.471396 0.000000 -0.881922
outer loop
vertex -10.555517 -25.753159 9.838179
vertex -10.555517 -27.953159 9.838179
vertex -11.005023 -27.953159 9.597914
endloop
endfacet
facet normal 0.634395 0.000000 -0.773009
outer loop
vertex -10.555517 -27.953159 9.838179
vertex -10.555517 -25.753159 9.838179
vertex -10.161523 -25.753159 10.161523
endloop
endfacet
facet normal 0.634394 0.000000 -0.773010
outer loop
vertex -10.161523 -25.753159 10.161523
vertex -10.161523 -27.953159 10.161523
vertex -10.555517 -27.953159 9.838179
endloop
endfacet
facet normal 0.773010 0.000000 -0.634393
outer loop
vertex -10.161523 -27.953159 10.161523
vertex -10.161523 -25.753159 10.161523
vertex -9.838179 -25.753159 10.555517
endloop
endfacet
facet normal 0.773007 0.000000 -0.634398
outer loop
vertex -9.838179 -25.753159 10.555517
vertex -9.838179 -27.953159 10.555517
vertex -10.161523 -27.953159 10.161523
endloop
endfacet
facet normal 0.881922 0.000000 -0.471395
outer loop
vertex -9.838179 -27.953159 10.555517
vertex -9.838179 -25.753159 10.555517
vertex -9.597914 -25.753159 11.005023
endloop
endfacet
facet normal 0.881922 0.000000 -0.471395
outer loop
vertex -9.597914 -25.753159 11.005023
vertex -9.597914 -27.953159 11.005023
vertex -9.838179 -27.953159 10.555517
endloop
endfacet
facet normal 0.956940 0.000000 -0.290286
outer loop
vertex -9.597914 -27.953159 11.005023
vertex -9.597914 -25.753159 11.005023
vertex -9.449959 -25.753159 11.492765
endloop
endfacet
facet normal 0.956941 0.000000 -0.290284
outer loop
vertex -9.449959 -25.753159 11.492765
vertex -9.449959 -27.953159 11.492765
vertex -9.597914 -27.953159 11.005023
endloop
endfacet
facet normal 0.995185 0.000000 -0.098019
outer loop
vertex -9.449959 -27.953159 11.492765
vertex -9.449959 -25.753159 11.492765
vertex -9.400000 -25.753159 12.000000
endloop
endfacet
facet normal 0.995185 0.000000 -0.098019
outer loop
vertex -9.400000 -25.753159 12.000000
vertex -9.400000 -27.953159 12.000000
vertex -9.449959 -27.953159 11.492765
endloop
endfacet
facet normal 0.995185 0.000000 0.098019
outer loop
vertex -9.400000 -27.953159 12.000000
vertex -9.400000 -25.753159 12.000000
vertex -9.449959 -25.753159 12.507235
endloop
endfacet
facet normal 0.995185 0.000000 0.098019
outer loop
vertex -9.449959 -25.753159 12.507235
vertex -9.449959 -27.953159 12.507235
vertex -9.400000 -27.953159 12.000000
endloop
endfacet
facet normal 0.956940 0.000000 0.290286
outer loop
vertex -9.449959 -27.953159 12.507235
vertex -9.449959 -25.753159 12.507235
vertex -9.597914 -25.753159 12.994976
endloop
endfacet
facet normal 0.956940 0.000000 0.290285
outer loop
vertex -9.597914 -25.753159 12.994976
vertex -9.597914 -27.953159 12.994976
vertex -9.449959 -27.953159 12.507235
endloop
endfacet
facet normal 0.881922 0.000000 0.471395
outer loop
vertex -9.597914 -27.953159 12.994976
vertex -9.597914 -25.753159 12.994976
vertex -9.838179 -25.753159 13.444483
endloop
endfacet
facet normal 0.881923 0.000000 0.471393
outer loop
vertex -9.838179 -25.753159 13.444483
vertex -9.838179 -27.953159 13.444483
vertex -9.597914 -27.953159 12.994976
endloop
endfacet
facet normal 0.773008 0.000000 0.634397
outer loop
vertex -9.838179 -27.953159 13.444483
vertex -9.838179 -25.753159 13.444483
vertex -10.161523 -25.753159 13.838477
endloop
endfacet
facet normal 0.773010 0.000000 0.634395
outer loop
vertex -10.161523 -25.753159 13.838477
vertex -10.161523 -27.953159 13.838477
vertex -9.838179 -27.953159 13.444483
endloop
endfacet
facet normal 0.634395 0.000000 0.773009
outer loop
vertex -10.161523 -27.953159 13.838477
vertex -10.161523 -25.753159 13.838477
vertex -10.555517 -25.753159 14.161821
endloop
endfacet
facet normal 0.634394 0.000000 0.773010
outer loop
vertex -10.555517 -25.753159 14.161821
vertex -10.555517 -27.953159 14.161821
vertex -10.161523 -27.953159 13.838477
endloop
endfacet
facet normal 0.471394 0.000000 0.881923
outer loop
vertex -10.555517 -27.953159 14.161821
vertex -10.555517 -25.753159 14.161821
vertex -11.005024 -25.753159 14.402087
endloop
endfacet
facet normal 0.471398 0.000000 0.881921
outer loop
vertex -11.005024 -25.753159 14.402087
vertex -11.005024 -27.953159 14.402087
vertex -10.555517 -27.953159 14.161821
endloop
endfacet
facet normal 0.290285 0.000000 0.956940
outer loop
vertex -11.005024 -27.953159 14.402087
vertex -11.005024 -25.753159 14.402087
vertex -11.492765 -25.753159 14.550041
endloop
endfacet
facet normal 0.290281 0.000000 0.956941
outer loop
vertex -11.492765 -25.753159 14.550041
vertex -11.492765 -27.953159 14.550041
vertex -11.005024 -27.953159 14.402087
endloop
endfacet
facet normal 0.098018 0.000000 0.995185
outer loop
vertex -11.492765 -27.953159 14.550041
vertex -11.492765 -25.753159 14.550041
vertex -12.000001 -25.753159 14.600000
endloop
endfacet
facet normal 0.098018 0.000000 0.995185
outer loop
vertex -12.000001 -25.753159 14.600000
vertex -12.000001 -27.953159 14.600000
vertex -11.492765 -27.953159 14.550041
endloop
endfacet
facet normal -0.098018 0.000000 0.995185
outer loop
vertex -12.000001 -27.953159 14.600000
vertex -12.000001 -25.753159 14.600000
vertex -12.507236 -25.753159 14.550041
endloop
endfacet
facet normal -0.098018 0.000000 0.995185
outer loop
vertex -12.507236 -25.753159 14.550041
vertex -12.507236 -27.953159 14.550041
vertex -12.000001 -27.953159 14.600000
endloop
endfacet
facet normal -0.290284 0.000000 0.956940
outer loop
vertex -12.507236 -27.953159 14.550041
vertex -12.507236 -25.753159 14.550041
vertex -12.994978 -25.753159 14.402086
endloop
endfacet
facet normal -0.290284 0.000000 0.956941
outer loop
vertex -12.994978 -25.753159 14.402086
vertex -12.994978 -27.953159 14.402086
vertex -12.507236 -27.953159 14.550041
endloop
endfacet
facet normal -0.471396 0.000000 0.881922
outer loop
vertex -12.994978 -27.953159 14.402086
vertex -12.994978 -25.753159 14.402086
vertex -13.444484 -25.753159 14.161820
endloop
endfacet
facet normal -0.471399 0.000000 0.881920
outer loop
vertex -13.444484 -25.753159 14.161820
vertex -13.444484 -27.953159 14.161820
vertex -12.994978 -27.953159 14.402086
endloop
endfacet
facet normal -0.634391 0.000000 0.773012
outer loop
vertex -13.444484 -27.953159 14.161820
vertex -13.444484 -25.753159 14.161820
vertex -13.838479 -25.753159 13.838476
endloop
endfacet
facet normal -0.634395 0.000000 0.773009
outer loop
vertex -13.838479 -25.753159 13.838476
vertex -13.838479 -27.953159 13.838476
vertex -13.444484 -27.953159 14.161820
endloop
endfacet
facet normal -0.773012 0.000000 0.634391
outer loop
vertex -13.838479 -27.953159 13.838476
vertex -13.838479 -25.753159 13.838476
vertex -14.161821 -25.753159 13.444481
endloop
endfacet
facet normal -0.773012 0.000000 0.634391
outer loop
vertex -14.161821 -25.753159 13.444481
vertex -14.161821 -27.953159 13.444481
vertex -13.838479 -27.953159 13.838476
endloop
endfacet
facet normal -0.881921 0.000000 0.471398
outer loop
vertex -14.161821 -27.953159 13.444481
vertex -14.161821 -25.753159 13.444481
vertex -14.402087 -25.753159 12.994975
endloop
endfacet
facet normal -0.881922 0.000000 0.471396
outer loop
vertex -14.402087 -25.753159 12.994975
vertex -14.402087 -27.953159 12.994975
vertex -14.161821 -27.953159 13.444481
endloop
endfacet
facet normal -0.956940 0.000000 0.290285
outer loop
vertex -14.402087 -27.953159 12.994975
vertex -14.402087 -25.753159 12.994975
vertex -14.550042 -25.753159 12.507233
endloop
endfacet
facet normal -0.956941 0.000000 0.290284
outer loop
vertex -14.550042 -25.753159 12.507233
vertex -14.550042 -27.953159 12.507233
vertex -14.402087 -27.953159 12.994975
endloop
endfacet
facet normal -0.995185 0.000000 0.098017
outer loop
vertex -14.550042 -27.953159 12.507233
vertex -14.550042 -25.753159 12.507233
vertex -14.600000 -25.753159 11.999997
endloop
endfacet
facet normal -0.995185 0.000000 0.098017
outer loop
vertex -14.600000 -25.753159 11.999997
vertex -14.600000 -27.953159 11.999997
vertex -14.550042 -27.953159 12.507233
endloop
endfacet
facet normal -0.995185 0.000000 -0.098019
outer loop
vertex -14.600000 -27.953159 11.999997
vertex -14.600000 -25.753159 11.999997
vertex -14.550041 -25.753159 11.492763
endloop
endfacet
facet normal -0.995185 0.000000 -0.098019
outer loop
vertex -14.550041 -25.753159 11.492763
vertex -14.550041 -27.953159 11.492763
vertex -14.600000 -27.953159 11.999997
endloop
endfacet
facet normal -0.956940 0.000000 -0.290287
outer loop
vertex -14.550041 -27.953159 11.492763
vertex -14.550041 -25.753159 11.492763
vertex -14.402085 -25.753159 11.005020
endloop
endfacet
facet normal -0.956940 0.000000 -0.290285
outer loop
vertex -14.402085 -25.753159 11.005020
vertex -14.402085 -27.953159 11.005020
vertex -14.550041 -27.953159 11.492763
endloop
endfacet
facet normal -0.881921 0.000000 -0.471398
outer loop
vertex -14.402085 -27.953159 11.005020
vertex -14.402085 -25.753159 11.005020
vertex -14.161819 -25.753159 10.555515
endloop
endfacet
facet normal -0.881921 0.000000 -0.471397
outer loop
vertex -14.161819 -25.753159 10.555515
vertex -14.161819 -27.953159 10.555515
vertex -14.402085 -27.953159 11.005020
endloop
endfacet
facet normal -0.773010 0.000000 -0.634393
outer loop
vertex -14.161819 -27.953159 10.555515
vertex -14.161819 -25.753159 10.555515
vertex -13.838475 -25.753159 10.161520
endloop
endfacet
facet normal -0.773008 0.000000 -0.634396
outer loop
vertex -13.838475 -25.753159 10.161520
vertex -13.838475 -27.953159 10.161520
vertex -14.161819 -27.953159 10.555515
endloop
endfacet
facet normal -0.634393 0.000000 -0.773010
outer loop
vertex -13.838475 -27.953159 10.161520
vertex -13.838475 -25.753159 10.161520
vertex -13.444480 -25.753159 9.838177
endloop
endfacet
facet normal -0.634391 0.000000 -0.773012
outer loop
vertex -13.444480 -25.753159 9.838177
vertex -13.444480 -27.953159 9.838177
vertex -13.838475 -27.953159 10.161520
endloop
endfacet
facet normal -0.471394 0.000000 -0.881923
outer loop
vertex -13.444480 -27.953159 9.838177
vertex -13.444480 -25.753159 9.838177
vertex -12.994973 -25.753159 9.597912
endloop
endfacet
facet normal -0.471395 0.000000 -0.881922
outer loop
vertex -12.994973 -25.753159 9.597912
vertex -12.994973 -27.953159 9.597912
vertex -13.444480 -27.953159 9.838177
endloop
endfacet
facet normal 0.000000 1.000000 -0.000038
outer loop
vertex -11.492765 -25.753159 9.449959
vertex -10.555517 -25.753159 9.838179
vertex -11.005023 -25.753159 9.597914
endloop
endfacet
facet normal 0.000000 1.000000 0.000000
outer loop
vertex -9.838179 -25.753159 10.555517
vertex -10.161523 -25.753159 10.161523
vertex -10.555517 -25.753159 9.838179
endloop
endfacet
facet normal 0.000000 1.000000 -0.000019
outer loop
vertex -9.449959 -25.753159 11.492765
vertex -9.597914 -25.753159 11.005023
vertex -9.838179 -25.753159 10.555517
endloop
endfacet
facet normal 0.000000 1.000000 0.000000
outer loop
vertex -9.449959 -25.753159 12.507235
vertex -9.400000 -25.753159 12.000000
vertex -9.449959 -25.753159 11.492765
endloop
endfacet
facet normal 0.000000 1.000000 0.000019
outer loop
vertex -9.838179 -25.753159 13.444483
vertex -9.597914 -25.753159 12.994976
vertex -9.449959 -25.753159 12.507235
endloop
endfacet
facet normal 0.000000 1.000000 0.000000
outer loop
vertex -10.555517 -25.753159 14.161821
vertex -10.161523 -25.753159 13.838477
vertex -9.838179 -25.753159 13.444483
endloop
endfacet
facet normal 0.000000 1.000000 0.000000
outer loop
vertex -11.492765 -25.753159 14.550041
vertex -11.005024 -25.753159 14.402087
vertex -10.555517 -25.753159 14.161821
endloop
endfacet
facet normal 0.000000 1.000000 0.000000
outer loop
vertex -12.507236 -25.753159 14.550041
vertex -12.000001 -25.753159 14.600000
vertex -11.492765 -25.753159 14.550041
endloop
endfacet
facet normal 0.000000 1.000000 0.000038
outer loop
vertex -13.444484 -25.753159 14.161820
vertex -12.994978 -25.753159 14.402086
vertex -12.507236 -25.753159 14.550041
endloop
endfacet
facet normal 0.000000 1.000000 0.000000
outer loop
vertex -14.161821 -25.753159 13.444481
vertex -13.838479 -25.753159 13.838476
vertex -13.444484 -25.753159 14.161820
endloop
endfacet
facet normal 0.000000 1.000000 0.000000
outer loop
vertex -14.550042 -25.753159 12.507233
vertex -14.402087 -25.753159 12.994975
vertex -14.161821 -25.753159 13.444481
endloop
endfacet
facet normal 0.000000 1.000000 0.000000
outer loop
vertex -14.550041 -25.753159 11.492763
vertex -14.600000 -25.753159 11.999997
vertex -14.550042 -25.753159 12.507233
endloop
endfacet
facet normal 0.000000 1.000000 0.000009
outer loop
vertex -14.161819 -25.753159 10.555515
vertex -14.402085 -25.753159 11.005020
vertex -14.550041 -25.753159 11.492763
endloop
endfacet
facet normal 0.000000 1.000000 0.000038
outer loop
vertex -13.444480 -25.753159 9.838177
vertex -13.838475 -25.753159 10.161520
vertex -14.161819 -25.753159 10.555515
endloop
endfacet
facet normal 0.000000 1.000000 0.000000
outer loop
vertex -12.507231 -25.753159 9.449958
vertex -12.994973 -25.753159 9.597912
vertex -13.444480 -25.753159 9.838177
endloop
endfacet
facet normal 0.000000 1.000000 0.000038
outer loop
vertex -11.492765 -25.753159 9.449959
vertex -12.000000 -25.753159 9.400000
vertex -12.507231 -25.753159 9.449958
endloop
endfacet
facet normal 0.000000 1.000000 0.000000
outer loop
vertex -11.492765 -25.753159 9.449959
vertex -9.838179 -25.753159 10.555517
vertex -10.555517 -25.753159 9.838179
endloop
endfacet
facet normal 0.000000 1.000000 0.000000
outer loop
vertex -9.449959 -25.753159 12.507235
vertex -9.449959 -25.753159 11.492765
vertex -9.838179 -25.753159 10.555517
endloop
endfacet
facet normal 0.000000 1.000000 0.000000
outer loop
vertex -10.555517 -25.753159 14.161821
vertex -9.838179 -25.753159 13.444483
vertex -9.449959 -25.753159 12.507235
endloop
endfacet
facet normal 0.000000 1.000000 -0.000010
outer loop
vertex -12.507236 -25.753159 14.550041
vertex -11.492765 -25.753159 14.550041
vertex -10.555517 -25.753159 14.161821
endloop
endfacet
facet normal 0.000000 1.000000 -0.000010
outer loop
vertex -14.161821 -25.753159 13.444481
vertex -13.444484 -25.753159 14.161820
vertex -12.507236 -25.753159 14.550041
endloop
endfacet
facet normal 0.000000 1.000000 0.000000
outer loop
vertex -14.550041 -25.753159 11.492763
vertex -14.550042 -25.753159 12.507233
vertex -14.161821 -25.753159 13.444481
endloop
endfacet
facet normal 0.000000 1.000000 0.000000
outer loop
vertex -13.444480 -25.753159 9.838177
vertex -14.161819 -25.753159 10.555515
vertex -14.550041 -25.753159 11.492763
endloop
endfacet
facet normal 0.000000 1.000000 0.000000
outer loop
vertex -11.492765 -25.753159 9.449959
vertex -12.507231 -25.753159 9.449958
vertex -13.444480 -25.753159 9.838177
endloop
endfacet
facet normal 0.000000 1.000000 0.000000
outer loop
vertex -11.492765 -25.753159 9.449959
vertex -9.449959 -25.753159 12.507235
vertex -9.838179 -25.753159 10.555517
endloop
endfacet
facet normal 0.000000 1.000000 -0.000001
outer loop
vertex -12.507236 -25.753159 14.550041
vertex -10.555517 -25.753159 14.161821
vertex -9.449959 -25.753159 12.507235
endloop
endfacet
facet normal 0.000000 1.000000 0.000000
outer loop
vertex -14.550041 -25.753159 11.492763
vertex -14.161821 -25.753159 13.444481
vertex -12.507236 -25.753159 14.550041
endloop
endfacet
facet normal 0.000000 1.000000 -0.000003
outer loop
vertex -11.492765 -25.753159 9.449959
vertex -13.444480 -25.753159 9.838177
vertex -14.550041 -25.753159 11.492763
endloop
endfacet
facet normal 0.000000 1.000000 0.000001
outer loop
vertex -11.492765 -25.753159 9.449959
vertex -12.507236 -25.753159 14.550041
vertex -9.449959 -25.753159 12.507235
endloop
endfacet
facet normal 0.000000 1.000000 0.000001
outer loop
vertex -11.492765 -25.753159 9.449959
vertex -14.550041 -25.753159 11.492763
vertex -12.507236 -25.753159 14.550041
endloop
endfacet
facet normal -0.098015 0.000000 -0.995185
outer loop
vertex -12.000000 -25.753159 9.400000
vertex -12.000000 -27.953159 9.400000
vertex -12.507231 -27.953159 9.449958
endloop
endfacet
facet normal -0.098022 0.000000 -0.995184
outer loop
vertex -12.507231 -27.953159 9.449958
vertex -12.507231 -25.753159 9.449958
vertex -12.000000 -25.753159 9.400000
endloop
endfacet
facet normal -0.290281 0.000000 -0.956941
outer loop
vertex -12.994973 -27.953159 9.597912
vertex -12.994973 -25.753159 9.597912
vertex -12.507231 -25.753159 9.449958
endloop
endfacet
facet normal -0.290284 0.000000 -0.956941
outer loop
vertex -12.507231 -25.753159 9.449958
vertex -12.507231 -27.953159 9.449958
vertex -12.994973 -27.953159 9.597912
endloop
endfacet
facet normal 0.000000 -1.000000 0.000038
outer loop
vertex -12.000000 -27.953159 9.400000
vertex -12.994973 -27.953159 9.597912
vertex -12.507231 -27.953159 9.449958
endloop
endfacet
facet normal 0.000000 -1.000000 0.000038
outer loop
vertex -13.838475 -27.953159 10.161520
vertex -13.444480 -27.953159 9.838177
vertex -12.994973 -27.953159 9.597912
endloop
endfacet
facet normal 0.000000 -1.000000 0.000000
outer loop
vertex -14.402085 -27.953159 11.005020
vertex -14.161819 -27.953159 10.555515
vertex -13.838475 -27.953159 10.161520
endloop
endfacet
facet normal 0.000000 -1.000000 0.000000
outer loop
vertex -14.600000 -27.953159 11.999997
vertex -14.550041 -27.953159 11.492763
vertex -14.402085 -27.953159 11.005020
endloop
endfacet
facet normal 0.000000 -1.000000 0.000009
outer loop
vertex -14.402087 -27.953159 12.994975
vertex -14.550042 -27.953159 12.507233
vertex -14.600000 -27.953159 11.999997
endloop
endfacet
facet normal 0.000000 -1.000000 0.000000
outer loop
vertex -13.838479 -27.953159 13.838476
vertex -14.161821 -27.953159 13.444481
vertex -14.402087 -27.953159 12.994975
endloop
endfacet
facet normal 0.000000 -1.000000 -0.000038
outer loop
vertex -12.994978 -27.953159 14.402086
vertex -13.444484 -27.953159 14.161820
vertex -13.838479 -27.953159 13.838476
endloop
endfacet
facet normal 0.000000 -1.000000 -0.000038
outer loop
vertex -12.000001 -27.953159 14.600000
vertex -12.507236 -27.953159 14.550041
vertex -12.994978 -27.953159 14.402086
endloop
endfacet
facet normal 0.000000 -1.000000 -0.000038
outer loop
vertex -11.005024 -27.953159 14.402087
vertex -11.492765 -27.953159 14.550041
vertex -12.000001 -27.953159 14.600000
endloop
endfacet
facet normal 0.000000 -1.000000 -0.000038
outer loop
vertex -10.161523 -27.953159 13.838477
vertex -10.555517 -27.953159 14.161821
vertex -11.005024 -27.953159 14.402087
endloop
endfacet
facet normal 0.000000 -1.000000 0.000000
outer loop
vertex -9.597914 -27.953159 12.994976
vertex -9.838179 -27.953159 13.444483
vertex -10.161523 -27.953159 13.838477
endloop
endfacet
facet normal 0.000000 -1.000000 0.000000
outer loop
vertex -9.400000 -27.953159 12.000000
vertex -9.449959 -27.953159 12.507235
vertex -9.597914 -27.953159 12.994976
endloop
endfacet
facet normal 0.000000 -1.000000 0.000009
outer loop
vertex -9.597914 -27.953159 11.005023
vertex -9.449959 -27.953159 11.492765
vertex -9.400000 -27.953159 12.000000
endloop
endfacet
facet normal 0.000000 -1.000000 0.000000
outer loop
vertex -10.161523 -27.953159 10.161523
vertex -9.838179 -27.953159 10.555517
vertex -9.597914 -27.953159 11.005023
endloop
endfacet
facet normal 0.000000 -1.000000 0.000038
outer loop
vertex -11.005023 -27.953159 9.597914
vertex -10.555517 -27.953159 9.838179
vertex -10.161523 -27.953159 10.161523
endloop
endfacet
facet normal 0.000000 -1.000000 0.000038
outer loop
vertex -12.000000 -27.953159 9.400000
vertex -11.492765 -27.953159 9.449959
vertex -11.005023 -27.953159 9.597914
endloop
endfacet
facet normal 0.000000 -1.000000 0.000000
outer loop
vertex -12.000000 -27.953159 9.400000
vertex -13.838475 -27.953159 10.161520
vertex -12.994973 -27.953159 9.597912
endloop
endfacet
facet normal 0.000000 -1.000000 0.000005
outer loop
vertex -14.600000 -27.953159 11.999997
vertex -14.402085 -27.953159 11.005020
vertex -13.838475 -27.953159 10.161520
endloop
endfacet
facet normal 0.000000 -1.000000 0.000002
outer loop
vertex -13.838479 -27.953159 13.838476
vertex -14.402087 -27.953159 12.994975
vertex -14.600000 -27.953159 11.999997
endloop
endfacet
facet normal 0.000000 -1.000000 0.000000
outer loop
vertex -12.000001 -27.953159 14.600000
vertex -12.994978 -27.953159 14.402086
vertex -13.838479 -27.953159 13.838476
endloop
endfacet
facet normal 0.000000 -1.000000 0.000000
outer loop
vertex -10.161523 -27.953159 13.838477
vertex -11.005024 -27.953159 14.402087
vertex -12.000001 -27.953159 14.600000
endloop
endfacet
facet normal 0.000000 -1.000000 0.000005
outer loop
vertex -9.400000 -27.953159 12.000000
vertex -9.597914 -27.953159 12.994976
vertex -10.161523 -27.953159 13.838477
endloop
endfacet
facet normal 0.000000 -1.000000 -0.000005
outer loop
vertex -10.161523 -27.953159 10.161523
vertex -9.597914 -27.953159 11.005023
vertex -9.400000 -27.953159 12.000000
endloop
endfacet
facet normal 0.000000 -1.000000 0.000000
outer loop
vertex -12.000000 -27.953159 9.400000
vertex -11.005023 -27.953159 9.597914
vertex -10.161523 -27.953159 10.161523
endloop
endfacet
facet normal 0.000000 -1.000000 0.000000
outer loop
vertex -12.000000 -27.953159 9.400000
vertex -14.600000 -27.953159 11.999997
vertex -13.838475 -27.953159 10.161520
endloop
endfacet
facet normal 0.000000 -1.000000 0.000001
outer loop
vertex -12.000001 -27.953159 14.600000
vertex -13.838479 -27.953159 13.838476
vertex -14.600000 -27.953159 11.999997
endloop
endfacet
facet normal 0.000000 -1.000000 0.000003
outer loop
vertex -9.400000 -27.953159 12.000000
vertex -10.161523 -27.953159 13.838477
vertex -12.000001 -27.953159 14.600000
endloop
endfacet
facet normal 0.000000 -1.000000 0.000001
outer loop
vertex -12.000000 -27.953159 9.400000
vertex -10.161523 -27.953159 10.161523
vertex -9.400000 -27.953159 12.000000
endloop
endfacet
facet normal 0.000000 -1.000000 0.000000
outer loop
vertex -12.000000 -27.953159 9.400000
vertex -12.000001 -27.953159 14.600000
vertex -14.600000 -27.953159 11.999997
endloop
endfacet
facet normal 0.000000 -1.000000 -0.000001
outer loop
vertex -12.000000 -27.953159 9.400000
vertex -9.400000 -27.953159 12.000000
vertex -12.000001 -27.953159 14.600000
endloop
endfacet
facet normal -0.449861 0.298794 -0.841634
outer loop
vertex -2.846672 -21.807716 49.744766
vertex -1.933288 -21.807716 49.256554
vertex -2.173136 -23.799873 48.677505
endloop
endfacet
facet normal -0.449863 0.298793 -0.841633
outer loop
vertex -2.173136 -23.799873 48.677505
vertex -3.194878 -23.799873 49.223640
vertex -2.846672 -21.807716 49.744766
endloop
endfacet
facet normal 0.471391 -0.000005 -0.881924
outer loop
vertex 2.350098 -23.799873 48.677502
vertex 3.371841 -23.799873 49.223633
vertex 3.371841 -24.554691 49.223637
endloop
endfacet
facet normal 0.471391 -0.000004 -0.881924
outer loop
vertex 3.371841 -24.554691 49.223637
vertex 2.350098 -24.554691 48.677505
vertex 2.350098 -23.799873 48.677502
endloop
endfacet
facet normal -0.605417 0.298792 0.737695
outer loop
vertex -2.846667 -21.807716 58.530296
vertex -3.647254 -21.807716 57.873268
vertex -4.090436 -23.799873 58.316452
endloop
endfacet
facet normal -0.605412 0.298793 0.737698
outer loop
vertex -4.090436 -23.799873 58.316452
vertex -3.194872 -23.799873 59.051422
vertex -2.846667 -21.807716 58.530296
endloop
endfacet
facet normal 0.949723 0.298792 0.093540
outer loop
vertex 5.371619 -21.807716 54.137527
vertex 5.270105 -21.807716 55.168217
vertex 5.884817 -23.799873 55.290489
endloop
endfacet
facet normal 0.949722 0.298794 0.093539
outer loop
vertex 5.884817 -23.799873 55.290489
vertex 5.998373 -23.799873 54.137527
vertex 5.371619 -21.807716 54.137527
endloop
endfacet
facet normal -0.093536 0.298793 -0.949723
outer loop
vertex -0.942208 -21.807716 48.955910
vertex 0.088481 -21.807716 48.854397
vertex 0.088480 -23.799873 48.227642
endloop
endfacet
facet normal -0.093535 0.298793 -0.949723
outer loop
vertex 0.088480 -23.799873 48.227642
vertex -1.064482 -23.799873 48.341198
vertex -0.942208 -21.807716 48.955910
endloop
endfacet
facet normal -0.841634 0.298792 0.449862
outer loop
vertex -4.304280 -21.807716 57.072681
vertex -4.792494 -21.807716 56.159298
vertex -5.371539 -23.799873 56.399147
endloop
endfacet
facet normal -0.841633 0.298793 0.449863
outer loop
vertex -5.371539 -23.799873 56.399147
vertex -4.825407 -23.799873 57.420887
vertex -4.304280 -21.807716 57.072681
endloop
endfacet
facet normal 0.841632 0.298794 0.449865
outer loop
vertex 4.969465 -21.807716 56.159298
vertex 4.481251 -21.807716 57.072681
vertex 5.002379 -23.799873 57.420887
endloop
endfacet
facet normal 0.841634 0.298792 0.449861
outer loop
vertex 5.002379 -23.799873 57.420887
vertex 5.548511 -23.799873 56.399143
vertex 4.969465 -21.807716 56.159298
endloop
endfacet
facet normal 0.277030 0.298794 -0.913223
outer loop
vertex 1.119169 -21.807716 48.955910
vertex 2.110250 -21.807716 49.256550
vertex 2.350098 -23.799873 48.677502
endloop
endfacet
facet normal 0.277021 0.298793 -0.913226
outer loop
vertex 2.350098 -23.799873 48.677502
vertex 1.241443 -23.799873 48.341198
vertex 1.119169 -21.807716 48.955910
endloop
endfacet
facet normal -0.949722 0.298795 0.093540
outer loop
vertex -5.093134 -21.807716 55.168217
vertex -5.194649 -21.807716 54.137527
vertex -5.821403 -23.799873 54.137527
endloop
endfacet
facet normal -0.949723 0.298793 0.093539
outer loop
vertex -5.821403 -23.799873 54.137527
vertex -5.707846 -23.799873 55.290493
vertex -5.093134 -21.807716 55.168217
endloop
endfacet
facet normal 0.605413 0.298793 0.737697
outer loop
vertex 3.824225 -21.807716 57.873268
vertex 3.023637 -21.807716 58.530296
vertex 3.371844 -23.799873 59.051422
endloop
endfacet
facet normal 0.605415 0.298793 0.737696
outer loop
vertex 3.371844 -23.799873 59.051422
vertex 4.267408 -23.799873 58.316452
vertex 3.824225 -21.807716 57.873268
endloop
endfacet
facet normal -0.949722 0.298796 -0.093539
outer loop
vertex -5.194649 -21.807716 54.137527
vertex -5.093136 -21.807716 53.106850
vertex -5.707848 -23.799873 52.984577
endloop
endfacet
facet normal -0.949723 0.298791 -0.093539
outer loop
vertex -5.707848 -23.799873 52.984577
vertex -5.821403 -23.799873 54.137527
vertex -5.194649 -21.807716 54.137527
endloop
endfacet
facet normal 0.605412 0.298793 -0.737698
outer loop
vertex 3.023634 -21.807716 49.744762
vertex 3.824223 -21.807716 50.401787
vertex 4.267405 -23.799873 49.958603
endloop
endfacet
facet normal 0.605412 0.298794 -0.737698
outer loop
vertex 4.267405 -23.799873 49.958603
vertex 3.371841 -23.799873 49.223633
vertex 3.023634 -21.807716 49.744762
endloop
endfacet
facet normal 0.277024 0.298794 0.913225
outer loop
vertex 2.110252 -21.807716 59.018509
vertex 1.119173 -21.807716 59.319149
vertex 1.241447 -23.799873 59.933861
endloop
endfacet
facet normal 0.277026 0.298792 0.913225
outer loop
vertex 1.241447 -23.799873 59.933861
vertex 2.350101 -23.799873 59.597553
vertex 2.110252 -21.807716 59.018509
endloop
endfacet
facet normal -0.841633 0.298794 -0.449863
outer loop
vertex -4.792497 -21.807716 52.115768
vertex -4.304284 -21.807716 51.202385
vertex -4.825411 -23.799873 50.854179
endloop
endfacet
facet normal -0.841633 0.298793 -0.449863
outer loop
vertex -4.825411 -23.799873 50.854179
vertex -5.371542 -23.799873 51.875919
vertex -4.792497 -21.807716 52.115768
endloop
endfacet
facet normal 0.841629 0.298796 -0.449868
outer loop
vertex 4.481248 -21.807716 51.202377
vertex 4.969463 -21.807716 52.115761
vertex 5.548510 -23.799873 51.875912
endloop
endfacet
facet normal 0.841634 0.298794 -0.449861
outer loop
vertex 5.548510 -23.799873 51.875912
vertex 5.002376 -23.799873 50.854168
vertex 4.481248 -21.807716 51.202377
endloop
endfacet
facet normal -0.093543 0.298793 0.949722
outer loop
vertex 0.088485 -21.807716 59.420662
vertex -0.942203 -21.807716 59.319149
vertex -1.064477 -23.799873 59.933861
endloop
endfacet
facet normal -0.093535 0.298793 0.949723
outer loop
vertex -1.064477 -23.799873 59.933861
vertex 0.088485 -23.799873 60.047417
vertex 0.088485 -21.807716 59.420662
endloop
endfacet
facet normal -0.605418 0.298792 -0.737694
outer loop
vertex -3.647259 -21.807716 50.401794
vertex -2.846672 -21.807716 49.744766
vertex -3.194878 -23.799873 49.223640
endloop
endfacet
facet normal -0.605411 0.298794 -0.737698
outer loop
vertex -3.194878 -23.799873 49.223640
vertex -4.090442 -23.799873 49.958611
vertex -3.647259 -21.807716 50.401794
endloop
endfacet
facet normal 0.949723 0.298792 -0.093540
outer loop
vertex 5.270104 -21.807716 53.106838
vertex 5.371619 -21.807716 54.137527
vertex 5.998373 -23.799873 54.137527
endloop
endfacet
facet normal 0.949723 0.298792 -0.093539
outer loop
vertex 5.998373 -23.799873 54.137527
vertex 5.884816 -23.799873 52.984566
vertex 5.270104 -21.807716 53.106838
endloop
endfacet
facet normal -0.449861 0.298793 0.841634
outer loop
vertex -1.933282 -21.807716 59.018509
vertex -2.846667 -21.807716 58.530296
vertex -3.194872 -23.799873 59.051422
endloop
endfacet
facet normal -0.449858 0.298793 0.841636
outer loop
vertex -3.194872 -23.799873 59.051422
vertex -2.173131 -23.799873 59.597553
vertex -1.933282 -21.807716 59.018509
endloop
endfacet
facet normal -0.277030 0.298793 -0.913224
outer loop
vertex -1.933288 -21.807716 49.256554
vertex -0.942208 -21.807716 48.955910
vertex -1.064482 -23.799873 48.341198
endloop
endfacet
facet normal -0.277026 0.298794 -0.913224
outer loop
vertex -1.064482 -23.799873 48.341198
vertex -2.173136 -23.799873 48.677505
vertex -1.933288 -21.807716 49.256554
endloop
endfacet
facet normal -0.737700 0.298791 0.605411
outer loop
vertex -3.647254 -21.807716 57.873268
vertex -4.304280 -21.807716 57.072681
vertex -4.825407 -23.799873 57.420887
endloop
endfacet
facet normal -0.737695 0.298795 0.605416
outer loop
vertex -4.825407 -23.799873 57.420887
vertex -4.090436 -23.799873 58.316452
vertex -3.647254 -21.807716 57.873268
endloop
endfacet
facet normal 0.913226 0.298792 0.277022
outer loop
vertex 5.270105 -21.807716 55.168217
vertex 4.969465 -21.807716 56.159298
vertex 5.548511 -23.799873 56.399143
endloop
endfacet
facet normal 0.913225 0.298794 0.277024
outer loop
vertex 5.548511 -23.799873 56.399143
vertex 5.884817 -23.799873 55.290489
vertex 5.270105 -21.807716 55.168217
endloop
endfacet
facet normal 0.093536 0.298794 -0.949723
outer loop
vertex 0.088481 -21.807716 48.854397
vertex 1.119169 -21.807716 48.955910
vertex 1.241443 -23.799873 48.341198
endloop
endfacet
facet normal 0.093535 0.298793 -0.949723
outer loop
vertex 1.241443 -23.799873 48.341198
vertex 0.088480 -23.799873 48.227642
vertex 0.088481 -21.807716 48.854397
endloop
endfacet
facet normal -0.913226 0.298792 0.277024
outer loop
vertex -4.792494 -21.807716 56.159298
vertex -5.093134 -21.807716 55.168217
vertex -5.707846 -23.799873 55.290493
endloop
endfacet
facet normal -0.913225 0.298794 0.277025
outer loop
vertex -5.707846 -23.799873 55.290493
vertex -5.371539 -23.799873 56.399147
vertex -4.792494 -21.807716 56.159298
endloop
endfacet
facet normal 0.737697 0.298794 0.605413
outer loop
vertex 4.481251 -21.807716 57.072681
vertex 3.824225 -21.807716 57.873268
vertex 4.267408 -23.799873 58.316452
endloop
endfacet
facet normal 0.737697 0.298793 0.605413
outer loop
vertex 4.267408 -23.799873 58.316452
vertex 5.002379 -23.799873 57.420887
vertex 4.481251 -21.807716 57.072681
endloop
endfacet
facet normal 0.449866 0.298793 -0.841631
outer loop
vertex 2.110250 -21.807716 49.256550
vertex 3.023634 -21.807716 49.744762
vertex 3.371841 -23.799873 49.223633
endloop
endfacet
facet normal 0.449856 0.298795 -0.841636
outer loop
vertex 3.371841 -23.799873 49.223633
vertex 2.350098 -23.799873 48.677502
vertex 2.110250 -21.807716 49.256550
endloop
endfacet
facet normal 0.449856 0.298794 0.841637
outer loop
vertex 3.023637 -21.807716 58.530296
vertex 2.110252 -21.807716 59.018509
vertex 2.350101 -23.799873 59.597553
endloop
endfacet
facet normal 0.449862 0.298792 0.841634
outer loop
vertex 2.350101 -23.799873 59.597553
vertex 3.371844 -23.799873 59.051422
vertex 3.023637 -21.807716 58.530296
endloop
endfacet
facet normal -0.913228 0.298790 -0.277020
outer loop
vertex -5.093136 -21.807716 53.106850
vertex -4.792497 -21.807716 52.115768
vertex -5.371542 -23.799873 51.875919
endloop
endfacet
facet normal -0.913225 0.298793 -0.277023
outer loop
vertex -5.371542 -23.799873 51.875919
vertex -5.707848 -23.799873 52.984577
vertex -5.093136 -21.807716 53.106850
endloop
endfacet
facet normal 0.737703 0.298792 -0.605407
outer loop
vertex 3.824223 -21.807716 50.401787
vertex 4.481248 -21.807716 51.202377
vertex 5.002376 -23.799873 50.854168
endloop
endfacet
facet normal 0.737694 0.298795 -0.605416
outer loop
vertex 5.002376 -23.799873 50.854168
vertex 4.267405 -23.799873 49.958603
vertex 3.824223 -21.807716 50.401787
endloop
endfacet
facet normal 0.093536 0.298793 0.949723
outer loop
vertex 1.119173 -21.807716 59.319149
vertex 0.088485 -21.807716 59.420662
vertex 0.088485 -23.799873 60.047417
endloop
endfacet
facet normal 0.093541 0.298793 0.949722
outer loop
vertex 0.088485 -23.799873 60.047417
vertex 1.241447 -23.799873 59.933861
vertex 1.119173 -21.807716 59.319149
endloop
endfacet
facet normal -0.737697 0.298794 -0.605413
outer loop
vertex -4.304284 -21.807716 51.202385
vertex -3.647259 -21.807716 50.401794
vertex -4.090442 -23.799873 49.958611
endloop
endfacet
facet normal -0.737701 0.298793 -0.605409
outer loop
vertex -4.090442 -23.799873 49.958611
vertex -4.825411 -23.799873 50.854179
vertex -4.304284 -21.807716 51.202385
endloop
endfacet
facet normal 0.913225 0.298793 -0.277024
outer loop
vertex 4.969463 -21.807716 52.115761
vertex 5.270104 -21.807716 53.106838
vertex 5.884816 -23.799873 52.984566
endloop
endfacet
facet normal 0.913225 0.298793 -0.277023
outer loop
vertex 5.884816 -23.799873 52.984566
vertex 5.548510 -23.799873 51.875912
vertex 4.969463 -21.807716 52.115761
endloop
endfacet
facet normal -0.277030 0.298792 0.913224
outer loop
vertex -0.942203 -21.807716 59.319149
vertex -1.933282 -21.807716 59.018509
vertex -2.173131 -23.799873 59.597553
endloop
endfacet
facet normal -0.277021 0.298793 0.913226
outer loop
vertex -2.173131 -23.799873 59.597553
vertex -1.064477 -23.799873 59.933861
vertex -0.942203 -21.807716 59.319149
endloop
endfacet
facet normal 0.000000 1.000000 0.000000
outer loop
vertex -5.093134 -21.807716 55.168217
vertex -5.093136 -21.807716 53.106850
vertex -5.194649 -21.807716 54.137527
endloop
endfacet
facet normal 0.000000 1.000000 0.000000
outer loop
vertex -4.304284 -21.807716 51.202385
vertex -4.792497 -21.807716 52.115768
vertex -5.093136 -21.807716 53.106850
endloop
endfacet
facet normal 0.000000 1.000000 0.000009
outer loop
vertex -2.846672 -21.807716 49.744766
vertex -3.647259 -21.807716 50.401794
vertex -4.304284 -21.807716 51.202385
endloop
endfacet
facet normal 0.000000 1.000000 0.000018
outer loop
vertex -0.942208 -21.807716 48.955910
vertex -1.933288 -21.807716 49.256554
vertex -2.846672 -21.807716 49.744766
endloop
endfacet
facet normal 0.000000 1.000000 0.000036
outer loop
vertex 1.119169 -21.807716 48.955910
vertex 0.088481 -21.807716 48.854397
vertex -0.942208 -21.807716 48.955910
endloop
endfacet
facet normal 0.000000 1.000000 0.000018
outer loop
vertex 3.023634 -21.807716 49.744762
vertex 2.110250 -21.807716 49.256550
vertex 1.119169 -21.807716 48.955910
endloop
endfacet
facet normal 0.000000 1.000000 0.000000
outer loop
vertex 4.481248 -21.807716 51.202377
vertex 3.824223 -21.807716 50.401787
vertex 3.023634 -21.807716 49.744762
endloop
endfacet
facet normal 0.000000 1.000000 -0.000009
outer loop
vertex 5.270104 -21.807716 53.106838
vertex 4.969463 -21.807716 52.115761
vertex 4.481248 -21.807716 51.202377
endloop
endfacet
facet normal 0.000000 1.000000 0.000000
outer loop
vertex 5.270105 -21.807716 55.168217
vertex 5.371619 -21.807716 54.137527
vertex 5.270104 -21.807716 53.106838
endloop
endfacet
facet normal 0.000000 1.000000 -0.000014
outer loop
vertex 4.481251 -21.807716 57.072681
vertex 4.969465 -21.807716 56.159298
vertex 5.270105 -21.807716 55.168217
endloop
endfacet
facet normal 0.000000 1.000000 0.000000
outer loop
vertex 3.023637 -21.807716 58.530296
vertex 3.824225 -21.807716 57.873268
vertex 4.481251 -21.807716 57.072681
endloop
endfacet
facet normal 0.000000 1.000000 0.000018
outer loop
vertex 1.119173 -21.807716 59.319149
vertex 2.110252 -21.807716 59.018509
vertex 3.023637 -21.807716 58.530296
endloop
endfacet
facet normal 0.000000 1.000000 0.000000
outer loop
vertex -0.942203 -21.807716 59.319149
vertex 0.088485 -21.807716 59.420662
vertex 1.119173 -21.807716 59.319149
endloop
endfacet
facet normal 0.000000 1.000000 0.000018
outer loop
vertex -2.846667 -21.807716 58.530296
vertex -1.933282 -21.807716 59.018509
vertex -0.942203 -21.807716 59.319149
endloop
endfacet
facet normal 0.000000 1.000000 0.000018
outer loop
vertex -4.304280 -21.807716 57.072681
vertex -3.647254 -21.807716 57.873268
vertex -2.846667 -21.807716 58.530296
endloop
endfacet
facet normal 0.000000 1.000000 -0.000018
outer loop
vertex -5.093134 -21.807716 55.168217
vertex -4.792494 -21.807716 56.159298
vertex -4.304280 -21.807716 57.072681
endloop
endfacet
facet normal 0.000000 1.000000 0.000000
outer loop
vertex -5.093134 -21.807716 55.168217
vertex -4.304284 -21.807716 51.202385
vertex -5.093136 -21.807716 53.106850
endloop
endfacet
facet normal 0.000000 1.000000 -0.000005
outer loop
vertex -0.942208 -21.807716 48.955910
vertex -2.846672 -21.807716 49.744766
vertex -4.304284 -21.807716 51.202385
endloop
endfacet
facet normal 0.000000 1.000000 -0.000005
outer loop
vertex 3.023634 -21.807716 49.744762
vertex 1.119169 -21.807716 48.955910
vertex -0.942208 -21.807716 48.955910
endloop
endfacet
facet normal 0.000000 1.000000 0.000000
outer loop
vertex 5.270104 -21.807716 53.106838
vertex 4.481248 -21.807716 51.202377
vertex 3.023634 -21.807716 49.744762
endloop
endfacet
facet normal 0.000000 1.000000 0.000001
outer loop
vertex 4.481251 -21.807716 57.072681
vertex 5.270105 -21.807716 55.168217
vertex 5.270104 -21.807716 53.106838
endloop
endfacet
facet normal 0.000000 1.000000 0.000000
outer loop
vertex 1.119173 -21.807716 59.319149
vertex 3.023637 -21.807716 58.530296
vertex 4.481251 -21.807716 57.072681
endloop
endfacet
facet normal 0.000000 1.000000 -0.000005
outer loop
vertex -2.846667 -21.807716 58.530296
vertex -0.942203 -21.807716 59.319149
vertex 1.119173 -21.807716 59.319149
endloop
endfacet
facet normal 0.000000 1.000000 0.000000
outer loop
vertex -5.093134 -21.807716 55.168217
vertex -4.304280 -21.807716 57.072681
vertex -2.846667 -21.807716 58.530296
endloop
endfacet
facet normal 0.000000 1.000000 0.000001
outer loop
vertex -5.093134 -21.807716 55.168217
vertex -0.942208 -21.807716 48.955910
vertex -4.304284 -21.807716 51.202385
endloop
endfacet
facet normal 0.000000 1.000000 0.000000
outer loop
vertex 5.270104 -21.807716 53.106838
vertex 3.023634 -21.807716 49.744762
vertex -0.942208 -21.807716 48.955910
endloop
endfacet
facet normal 0.000000 1.000000 0.000000
outer loop
vertex 1.119173 -21.807716 59.319149
vertex 4.481251 -21.807716 57.072681
vertex 5.270104 -21.807716 53.106838
endloop
endfacet
facet normal 0.000000 1.000000 0.000000
outer loop
vertex -5.093134 -21.807716 55.168217
vertex -2.846667 -21.807716 58.530296
vertex 1.119173 -21.807716 59.319149
endloop
endfacet
facet normal 0.000000 1.000000 0.000000
outer loop
vertex -5.093134 -21.807716 55.168217
vertex 5.270104 -21.807716 53.106838
vertex -0.942208 -21.807716 48.955910
endloop
endfacet
facet normal 0.000000 1.000000 -0.000000
outer loop
vertex -5.093134 -21.807716 55.168217
vertex 1.119173 -21.807716 59.319149
vertex 5.270104 -21.807716 53.106838
endloop
endfacet
facet normal 0.000000 -1.000000 0.000000
outer loop
vertex -5.707846 -24.554691 55.290493
vertex -4.825407 -24.554691 57.420887
vertex -5.371539 -24.554691 56.399147
endloop
endfacet
facet normal 0.000000 -1.000000 0.000000
outer loop
vertex -3.194872 -24.554691 59.051422
vertex -4.090436 -24.554691 58.316452
vertex -4.825407 -24.554691 57.420887
endloop
endfacet
facet normal 0.000000 -1.000000 0.000029
outer loop
vertex -1.064477 -24.554691 59.933861
vertex -2.173131 -24.554691 59.597553
vertex -3.194872 -24.554691 59.051422
endloop
endfacet
facet normal 0.000000 -1.000000 0.000000
outer loop
vertex 1.241447 -24.554691 59.933861
vertex 0.088485 -24.554691 60.047417
vertex -1.064477 -24.554691 59.933861
endloop
endfacet
facet normal 0.000000 -1.000000 0.000029
outer loop
vertex 3.371844 -24.554691 59.051422
vertex 2.350101 -24.554691 59.597553
vertex 1.241447 -24.554691 59.933861
endloop
endfacet
facet normal 0.000000 -1.000000 0.000000
outer loop
vertex 5.002379 -24.554691 57.420887
vertex 4.267408 -24.554691 58.316452
vertex 3.371844 -24.554691 59.051422
endloop
endfacet
facet normal 0.000000 -1.000000 0.000007
outer loop
vertex 5.884817 -24.554691 55.290489
vertex 5.548511 -24.554691 56.399147
vertex 5.002379 -24.554691 57.420887
endloop
endfacet
facet normal 0.000000 -1.000000 0.000000
outer loop
vertex 5.884816 -24.554691 52.984566
vertex 5.998373 -24.554691 54.137527
vertex 5.884817 -24.554691 55.290489
endloop
endfacet
facet normal 0.000000 -1.000000 0.000007
outer loop
vertex 5.002376 -24.554691 50.854168
vertex 5.548510 -24.554691 51.875912
vertex 5.884816 -24.554691 52.984566
endloop
endfacet
facet normal 0.000000 -1.000000 0.000015
outer loop
vertex 3.371841 -24.554691 49.223637
vertex 4.267405 -24.554691 49.958607
vertex 5.002376 -24.554691 50.854168
endloop
endfacet
facet normal 0.000000 -1.000000 -0.000029
outer loop
vertex 1.241443 -24.554691 48.341198
vertex 2.350098 -24.554691 48.677505
vertex 3.371841 -24.554691 49.223637
endloop
endfacet
facet normal 0.000000 -1.000000 -0.000015
outer loop
vertex -1.064482 -24.554691 48.341198
vertex 0.088480 -24.554691 48.227642
vertex 1.241443 -24.554691 48.341198
endloop
endfacet
facet normal 0.000000 -1.000000 -0.000029
outer loop
vertex -3.194878 -24.554691 49.223640
vertex -2.173136 -24.554691 48.677509
vertex -1.064482 -24.554691 48.341198
endloop
endfacet
facet normal 0.000000 -1.000000 0.000000
outer loop
vertex -4.825411 -24.554691 50.854179
vertex -4.090442 -24.554691 49.958614
vertex -3.194878 -24.554691 49.223640
endloop
endfacet
facet normal 0.000000 -1.000000 0.000000
outer loop
vertex -5.707848 -24.554691 52.984577
vertex -5.371542 -24.554691 51.875919
vertex -4.825411 -24.554691 50.854179
endloop
endfacet
facet normal 0.000000 -1.000000 0.000000
outer loop
vertex -5.707846 -24.554691 55.290493
vertex -5.821403 -24.554691 54.137531
vertex -5.707848 -24.554691 52.984577
endloop
endfacet
facet normal 0.000000 -1.000000 0.000000
outer loop
vertex -5.707846 -24.554691 55.290493
vertex -3.194872 -24.554691 59.051422
vertex -4.825407 -24.554691 57.420887
endloop
endfacet
facet normal 0.000000 -1.000000 -0.000007
outer loop
vertex 1.241447 -24.554691 59.933861
vertex -1.064477 -24.554691 59.933861
vertex -3.194872 -24.554691 59.051422
endloop
endfacet
facet normal 0.000000 -1.000000 -0.000004
outer loop
vertex 5.002379 -24.554691 57.420887
vertex 3.371844 -24.554691 59.051422
vertex 1.241447 -24.554691 59.933861
endloop
endfacet
facet normal 0.000000 -1.000000 0.000000
outer loop
vertex 5.884816 -24.554691 52.984566
vertex 5.884817 -24.554691 55.290489
vertex 5.002379 -24.554691 57.420887
endloop
endfacet
facet normal 0.000000 -1.000000 -0.000002
outer loop
vertex 3.371841 -24.554691 49.223637
vertex 5.002376 -24.554691 50.854168
vertex 5.884816 -24.554691 52.984566
endloop
endfacet
facet normal 0.000000 -1.000000 0.000004
outer loop
vertex -1.064482 -24.554691 48.341198
vertex 1.241443 -24.554691 48.341198
vertex 3.371841 -24.554691 49.223637
endloop
endfacet
facet normal 0.000000 -1.000000 0.000004
outer loop
vertex -4.825411 -24.554691 50.854179
vertex -3.194878 -24.554691 49.223640
vertex -1.064482 -24.554691 48.341198
endloop
endfacet
facet normal 0.000000 -1.000000 -0.000002
outer loop
vertex -5.707846 -24.554691 55.290493
vertex -5.707848 -24.554691 52.984577
vertex -4.825411 -24.554691 50.854179
endloop
endfacet
facet normal 0.000000 -1.000000 0.000001
outer loop
vertex -5.707846 -24.554691 55.290493
vertex 1.241447 -24.554691 59.933861
vertex -3.194872 -24.554691 59.051422
endloop
endfacet
facet normal 0.000000 -1.000000 -0.000001
outer loop
vertex 5.884816 -24.554691 52.984566
vertex 5.002379 -24.554691 57.420887
vertex 1.241447 -24.554691 59.933861
endloop
endfacet
facet normal 0.000000 -1.000000 0.000000
outer loop
vertex -1.064482 -24.554691 48.341198
vertex 3.371841 -24.554691 49.223637
vertex 5.884816 -24.554691 52.984566
endloop
endfacet
facet normal 0.000000 -1.000000 0.000000
outer loop
vertex -5.707846 -24.554691 55.290493
vertex -4.825411 -24.554691 50.854179
vertex -1.064482 -24.554691 48.341198
endloop
endfacet
facet normal 0.000000 -1.000000 0.000000
outer loop
vertex -5.707846 -24.554691 55.290493
vertex 5.884816 -24.554691 52.984566
vertex 1.241447 -24.554691 59.933861
endloop
endfacet
facet normal 0.000000 -1.000000 0.000000
outer loop
vertex -5.707846 -24.554691 55.290493
vertex -1.064482 -24.554691 48.341198
vertex 5.884816 -24.554691 52.984566
endloop
endfacet
facet normal 0.471398 0.000000 0.881921
outer loop
vertex 3.371844 -23.799873 59.051422
vertex 2.350101 -23.799873 59.597553
vertex 2.350101 -24.554691 59.597553
endloop
endfacet
facet normal 0.471391 0.000000 0.881924
outer loop
vertex 2.350101 -24.554691 59.597553
vertex 3.371844 -24.554691 59.051422
vertex 3.371844 -23.799873 59.051422
endloop
endfacet
facet normal -0.956941 0.000000 -0.290282
outer loop
vertex -5.707848 -23.799873 52.984577
vertex -5.371542 -23.799873 51.875919
vertex -5.371542 -24.554691 51.875919
endloop
endfacet
facet normal -0.956940 0.000000 -0.290284
outer loop
vertex -5.371542 -24.554691 51.875919
vertex -5.707848 -24.554691 52.984577
vertex -5.707848 -23.799873 52.984577
endloop
endfacet
facet normal 0.773011 0.000000 -0.634393
outer loop
vertex 4.267405 -23.799873 49.958603
vertex 5.002376 -23.799873 50.854168
vertex 5.002376 -24.554691 50.854168
endloop
endfacet
facet normal 0.773009 -0.000003 -0.634395
outer loop
vertex 5.002376 -24.554691 50.854168
vertex 4.267405 -24.554691 49.958607
vertex 4.267405 -23.799873 49.958603
endloop
endfacet
facet normal 0.098010 0.000000 0.995185
outer loop
vertex 1.241447 -23.799873 59.933861
vertex 0.088485 -23.799873 60.047417
vertex 0.088485 -24.554691 60.047417
endloop
endfacet
facet normal 0.098019 0.000000 0.995185
outer loop
vertex 0.088485 -24.554691 60.047417
vertex 1.241447 -24.554691 59.933861
vertex 1.241447 -23.799873 59.933861
endloop
endfacet
facet normal -0.773014 -0.000004 -0.634388
outer loop
vertex -4.825411 -23.799873 50.854179
vertex -4.090442 -23.799873 49.958611
vertex -4.090442 -24.554691 49.958614
endloop
endfacet
facet normal -0.773011 0.000000 -0.634393
outer loop
vertex -4.090442 -24.554691 49.958614
vertex -4.825411 -24.554691 50.854179
vertex -4.825411 -23.799873 50.854179
endloop
endfacet
facet normal 0.956941 0.000000 -0.290282
outer loop
vertex 5.548510 -23.799873 51.875912
vertex 5.884816 -23.799873 52.984566
vertex 5.884816 -24.554691 52.984566
endloop
endfacet
facet normal 0.956939 0.000000 -0.290288
outer loop
vertex 5.884816 -24.554691 52.984566
vertex 5.548510 -24.554691 51.875912
vertex 5.548510 -23.799873 51.875912
endloop
endfacet
facet normal -0.290296 0.000000 0.956937
outer loop
vertex -1.064477 -23.799873 59.933861
vertex -2.173131 -23.799873 59.597553
vertex -2.173131 -24.554691 59.597553
endloop
endfacet
facet normal -0.290279 0.000000 0.956942
outer loop
vertex -2.173131 -24.554691 59.597553
vertex -1.064477 -24.554691 59.933861
vertex -1.064477 -23.799873 59.933861
endloop
endfacet
facet normal -0.471404 -0.000004 -0.881917
outer loop
vertex -3.194878 -23.799873 49.223640
vertex -2.173136 -23.799873 48.677505
vertex -2.173136 -24.554691 48.677509
endloop
endfacet
facet normal -0.471391 0.000000 -0.881924
outer loop
vertex -2.173136 -24.554691 48.677509
vertex -3.194878 -24.554691 49.223640
vertex -3.194878 -23.799873 49.223640
endloop
endfacet
facet normal -0.634390 0.000000 0.773013
outer loop
vertex -3.194872 -23.799873 59.051422
vertex -4.090436 -23.799873 58.316452
vertex -4.090436 -24.554691 58.316452
endloop
endfacet
facet normal -0.634395 0.000000 0.773009
outer loop
vertex -4.090436 -24.554691 58.316452
vertex -3.194872 -24.554691 59.051422
vertex -3.194872 -23.799873 59.051422
endloop
endfacet
facet normal 0.995185 0.000000 0.098017
outer loop
vertex 5.998373 -23.799873 54.137527
vertex 5.884817 -23.799873 55.290489
vertex 5.884817 -24.554691 55.290489
endloop
endfacet
facet normal 0.995185 0.000000 0.098017
outer loop
vertex 5.884817 -24.554691 55.290489
vertex 5.998373 -24.554691 54.137527
vertex 5.998373 -23.799873 54.137527
endloop
endfacet
facet normal -0.098010 -0.000000 -0.995185
outer loop
vertex -1.064482 -23.799873 48.341198
vertex 0.088480 -23.799873 48.227642
vertex 0.088480 -24.554691 48.227642
endloop
endfacet
facet normal -0.098019 -0.000000 -0.995185
outer loop
vertex 0.088480 -24.554691 48.227642
vertex -1.064482 -24.554691 48.341198
vertex -1.064482 -23.799873 48.341198
endloop
endfacet
facet normal -0.881920 0.000000 0.471400
outer loop
vertex -4.825407 -23.799873 57.420887
vertex -5.371539 -23.799873 56.399147
vertex -5.371539 -24.554691 56.399147
endloop
endfacet
facet normal -0.881921 0.000000 0.471398
outer loop
vertex -5.371539 -24.554691 56.399147
vertex -4.825407 -24.554691 57.420887
vertex -4.825407 -23.799873 57.420887
endloop
endfacet
facet normal 0.881920 0.000000 0.471400
outer loop
vertex 5.548511 -23.799873 56.399143
vertex 5.002379 -23.799873 57.420887
vertex 5.002379 -24.554691 57.420887
endloop
endfacet
facet normal 0.881921 0.000003 0.471398
outer loop
vertex 5.002379 -24.554691 57.420887
vertex 5.548511 -24.554691 56.399147
vertex 5.548511 -23.799873 56.399143
endloop
endfacet
facet normal 0.290287 -0.000005 -0.956940
outer loop
vertex 1.241443 -23.799873 48.341198
vertex 2.350098 -23.799873 48.677502
vertex 2.350098 -24.554691 48.677505
endloop
endfacet
facet normal 0.290287 0.000000 -0.956940
outer loop
vertex 2.350098 -24.554691 48.677505
vertex 1.241443 -24.554691 48.341198
vertex 1.241443 -23.799873 48.341198
endloop
endfacet
facet normal -0.995185 0.000001 0.098017
outer loop
vertex -5.707846 -23.799873 55.290493
vertex -5.821403 -23.799873 54.137527
vertex -5.821403 -24.554691 54.137531
endloop
endfacet
facet normal -0.995185 0.000000 0.098017
outer loop
vertex -5.821403 -24.554691 54.137531
vertex -5.707846 -24.554691 55.290493
vertex -5.707846 -23.799873 55.290493
endloop
endfacet
facet normal 0.634395 0.000000 0.773009
outer loop
vertex 4.267408 -23.799873 58.316452
vertex 3.371844 -23.799873 59.051422
vertex 3.371844 -24.554691 59.051422
endloop
endfacet
facet normal 0.634390 0.000000 0.773013
outer loop
vertex 3.371844 -24.554691 59.051422
vertex 4.267408 -24.554691 58.316452
vertex 4.267408 -23.799873 58.316452
endloop
endfacet
facet normal -0.995185 0.000000 -0.098016
outer loop
vertex -5.821403 -23.799873 54.137527
vertex -5.707848 -23.799873 52.984577
vertex -5.707848 -24.554691 52.984577
endloop
endfacet
facet normal -0.995185 -0.000001 -0.098016
outer loop
vertex -5.707848 -24.554691 52.984577
vertex -5.821403 -24.554691 54.137531
vertex -5.821403 -23.799873 54.137527
endloop
endfacet
facet normal 0.634395 -0.000004 -0.773009
outer loop
vertex 3.371841 -23.799873 49.223633
vertex 4.267405 -23.799873 49.958603
vertex 4.267405 -24.554691 49.958607
endloop
endfacet
facet normal 0.634395 -0.000004 -0.773009
outer loop
vertex 4.267405 -24.554691 49.958607
vertex 3.371841 -24.554691 49.223637
vertex 3.371841 -23.799873 49.223633
endloop
endfacet
facet normal 0.290279 0.000000 0.956942
outer loop
vertex 2.350101 -23.799873 59.597553
vertex 1.241447 -23.799873 59.933861
vertex 1.241447 -24.554691 59.933861
endloop
endfacet
facet normal 0.290296 0.000000 0.956937
outer loop
vertex 1.241447 -24.554691 59.933861
vertex 2.350101 -24.554691 59.597553
vertex 2.350101 -23.799873 59.597553
endloop
endfacet
facet normal -0.881923 0.000000 -0.471392
outer loop
vertex -5.371542 -23.799873 51.875919
vertex -4.825411 -23.799873 50.854179
vertex -4.825411 -24.554691 50.854179
endloop
endfacet
facet normal -0.881921 0.000000 -0.471398
outer loop
vertex -4.825411 -24.554691 50.854179
vertex -5.371542 -24.554691 51.875919
vertex -5.371542 -23.799873 51.875919
endloop
endfacet
facet normal 0.881922 0.000000 -0.471396
outer loop
vertex 5.002376 -23.799873 50.854168
vertex 5.548510 -23.799873 51.875912
vertex 5.548510 -24.554691 51.875912
endloop
endfacet
facet normal 0.881922 0.000000 -0.471396
outer loop
vertex 5.548510 -24.554691 51.875912
vertex 5.002376 -24.554691 50.854168
vertex 5.002376 -23.799873 50.854168
endloop
endfacet
facet normal -0.098019 -0.000000 0.995185
outer loop
vertex 0.088485 -23.799873 60.047417
vertex -1.064477 -23.799873 59.933861
vertex -1.064477 -24.554691 59.933861
endloop
endfacet
facet normal -0.098010 -0.000000 0.995185
outer loop
vertex -1.064477 -24.554691 59.933861
vertex 0.088485 -24.554691 60.047417
vertex 0.088485 -23.799873 60.047417
endloop
endfacet
facet normal -0.634395 0.000000 -0.773009
outer loop
vertex -4.090442 -23.799873 49.958611
vertex -3.194878 -23.799873 49.223640
vertex -3.194878 -24.554691 49.223640
endloop
endfacet
facet normal -0.634390 -0.000004 -0.773013
outer loop
vertex -3.194878 -24.554691 49.223640
vertex -4.090442 -24.554691 49.958614
vertex -4.090442 -23.799873 49.958611
endloop
endfacet
facet normal 0.995185 0.000000 -0.098017
outer loop
vertex 5.884816 -23.799873 52.984566
vertex 5.998373 -23.799873 54.137527
vertex 5.998373 -24.554691 54.137527
endloop
endfacet
facet normal 0.995185 0.000000 -0.098017
outer loop
vertex 5.998373 -24.554691 54.137527
vertex 5.884816 -24.554691 52.984566
vertex 5.884816 -23.799873 52.984566
endloop
endfacet
facet normal -0.471391 0.000000 0.881924
outer loop
vertex -2.173131 -23.799873 59.597553
vertex -3.194872 -23.799873 59.051422
vertex -3.194872 -24.554691 59.051422
endloop
endfacet
facet normal -0.471398 0.000000 0.881921
outer loop
vertex -3.194872 -24.554691 59.051422
vertex -2.173131 -24.554691 59.597553
vertex -2.173131 -23.799873 59.597553
endloop
endfacet
facet normal -0.290287 0.000000 -0.956940
outer loop
vertex -2.173136 -23.799873 48.677505
vertex -1.064482 -23.799873 48.341198
vertex -1.064482 -24.554691 48.341198
endloop
endfacet
facet normal -0.290288 -0.000005 -0.956939
outer loop
vertex -1.064482 -24.554691 48.341198
vertex -2.173136 -24.554691 48.677509
vertex -2.173136 -23.799873 48.677505
endloop
endfacet
facet normal -0.773011 0.000000 0.634393
outer loop
vertex -4.090436 -23.799873 58.316452
vertex -4.825407 -23.799873 57.420887
vertex -4.825407 -24.554691 57.420887
endloop
endfacet
facet normal -0.773012 0.000000 0.634391
outer loop
vertex -4.825407 -24.554691 57.420887
vertex -4.090436 -24.554691 58.316452
vertex -4.090436 -23.799873 58.316452
endloop
endfacet
facet normal 0.956941 0.000002 0.290282
outer loop
vertex 5.884817 -23.799873 55.290489
vertex 5.548511 -23.799873 56.399143
vertex 5.548511 -24.554691 56.399147
endloop
endfacet
facet normal 0.956941 0.000000 0.290282
outer loop
vertex 5.548511 -24.554691 56.399147
vertex 5.884817 -24.554691 55.290489
vertex 5.884817 -23.799873 55.290489
endloop
endfacet
facet normal 0.098019 0.000000 -0.995185
outer loop
vertex 0.088480 -23.799873 48.227642
vertex 1.241443 -23.799873 48.341198
vertex 1.241443 -24.554691 48.341198
endloop
endfacet
facet normal 0.098011 0.000000 -0.995185
outer loop
vertex 1.241443 -24.554691 48.341198
vertex 0.088480 -24.554691 48.227642
vertex 0.088480 -23.799873 48.227642
endloop
endfacet
facet normal -0.956940 0.000000 0.290284
outer loop
vertex -5.371539 -23.799873 56.399147
vertex -5.707846 -23.799873 55.290493
vertex -5.707846 -24.554691 55.290493
endloop
endfacet
facet normal -0.956941 0.000000 0.290284
outer loop
vertex -5.707846 -24.554691 55.290493
vertex -5.371539 -24.554691 56.399147
vertex -5.371539 -23.799873 56.399147
endloop
endfacet
facet normal 0.773014 0.000000 0.634388
outer loop
vertex 5.002379 -23.799873 57.420887
vertex 4.267408 -23.799873 58.316452
vertex 4.267408 -24.554691 58.316452
endloop
endfacet
facet normal 0.773009 0.000000 0.634395
outer loop
vertex 4.267408 -24.554691 58.316452
vertex 5.002379 -24.554691 57.420887
vertex 5.002379 -23.799873 57.420887
endloop
endfacet
endsolid Exported from Blender-2.74 (sub 0)
