solid Exported from Blender-2.74 (sub 0)
facet normal 0.098018 0.000000 -0.995185
outer loop
vertex -12.000000 -27.953159 9.400000
vertex -12.000000 -25.753159 9.400000
vertex -11.492765 -25.753159 9.449959
endloop
endfacet
facet normal 0.098021 0.000000 -0.995184
outer loop
vertex -11.492765 -25.753159 9.449959
vertex -11.492765 -27.953159 9.449959
vertex -12.000000 -27.953159 9.400000
endloop
endfacet
facet normal 0.290284 0.000000 -0.956940
outer loop
vertex -11.492765 -27.953159 9.449959
vertex -11.492765 -25.753159 9.449959
vertex -11.005023 -25.753159 9.597914
endloop
endfacet
facet normal 0.290284 0.000000 -0.956941
outer loop
vertex -11.005023 -25.753159 9.597914
vertex -11.005023 -27.953159 9.597914
vertex -11.492765 -27.953159 9.449959
endloop
endfacet
facet normal 0.471396 0.000000 -0.881922
outer loop
vertex -11.005023 -27.953159 9.597914
vertex -11.005023 -25.753159 9.597914
vertex -10.555517 -25.753159 9.838179
endloop
endfacet
facet normal 0.471396 0.000000 -0.881922
outer loop
vertex -10.555517 -25.753159 9.838179
vertex -10.555517 -27.953159 9.838179
vertex -11.005023 -27.953159 9.597914
endloop
endfacet
facet normal 0.634395 0.000000 -0.773009
outer loop
vertex -10.555517 -27.953159 9.838179
vertex -10.555517 -25.753159 9.838179
vertex -10.161523 -25.753159 10.161523
endloop
endfacet
facet normal 0.634394 0.000000 -0.773010
outer loop
vertex -10.161523 -25.753159 10.161523
vertex -10.161523 -27.953159 10.161523
vertex -10.555517 -27.953159 9.838179
endloop
endfacet
facet normal 0.773010 0.000000 -0.634393
outer loop
vertex -10.161523 -27.953159 10.161523
vertex -10.161523 -25.753159 10.161523
vertex -9.838179 -25.753159 10.555517
endloop
endfacet
facet normal 0.773007 0.000000 -0.634398
outer loop
vertex -9.838179 -25.753159 10.555517
vertex -9.838179 -27.953159 10.555517
vertex -10.161523 -27.953159 10.161523
endloop
endfacet
facet normal 0.881922 0.000000 -0.471395
outer loop
vertex -9.838179 -27.953159 10.555517
vertex -9.838179 -25.753159 10.555517
vertex -9.597914 -25.753159 11.005023
endloop
endfacet
facet normal 0.881922 0.000000 -0.471395
outer loop
vertex -9.597914 -25.753159 11.005023
vertex -9.597914 -27.953159 11.005023
vertex -9.838179 -27.953159 10.555517
endloop
endfacet
facet normal 0.956940 0.000000 -0.290286
outer loop
vertex -9.597914 -27.953159 11.005023
vertex -9.597914 -25.753159 11.005023
vertex -9.449959 -25.753159 11.492765
endloop
endfacet
facet normal 0.956941 0.000000 -0.290284
outer loop
vertex -9.449959 -25.753159 11.492765
vertex -9.449959 -27.953159 11.492765
vertex -9.597914 -27.953159 11.005023
endloop
endfacet
facet normal 0.995185 0.000000 -0.098019
outer loop
vertex -9.449959 -27.953159 11.492765
vertex -9.449959 -25.753159 11.492765
vertex -9.400000 -25.753159 12.000000
endloop
endfacet
facet normal 0.995185 0.000000 -0.098019
outer loop
vertex -9.400000 -25.753159 12.000000
vertex -9.400000 -27.953159 12.000000
vertex -9.449959 -27.953159 11.492765
endloop
endfacet
facet normal 0.995185 0.000000 0.098019
outer loop
vertex -9.400000 -27.953159 12.000000
vertex -9.400000 -25.753159 12.000000
vertex -9.449959 -25.753159 12.507235
endloop
endfacet
facet normal 0.995185 0.000000 0.098019
outer loop
vertex -9.449959 -25.753159 12.507235
vertex -9.449959 -27.953159 12.507235
vertex -9.400000 -27.953159 12.000000
endloop
endfacet
facet normal 0.956940 0.000000 0.290286
outer loop
vertex -9.449959 -27.953159 12.507235
vertex -9.449959 -25.753159 12.507235
vertex -9.597914 -25.753159 12.994976
endloop
endfacet
facet normal 0.956940 0.000000 0.290285
outer loop
vertex -9.597914 -25.753159 12.994976
vertex -9.597914 -27.953159 12.994976
vertex -9.449959 -27.953159 12.507235
endloop
endfacet
facet normal 0.881922 0.000000 0.471395
outer loop
vertex -9.597914 -27.953159 12.994976
vertex -9.597914 -25.753159 12.994976
vertex -9.838179 -25.753159 13.444483
endloop
endfacet
facet normal 0.881923 0.000000 0.471393
outer loop
vertex -9.838179 -25.753159 13.444483
vertex -9.838179 -27.953159 13.444483
vertex -9.597914 -27.953159 12.994976
endloop
endfacet
facet normal 0.773008 0.000000 0.634397
outer loop
vertex -9.838179 -27.953159 13.444483
vertex -9.838179 -25.753159 13.444483
vertex -10.161523 -25.753159 13.838477
endloop
endfacet
facet normal 0.773010 0.000000 0.634395
outer loop
vertex -10.161523 -25.753159 13.838477
vertex -10.161523 -27.953159 13.838477
vertex -9.838179 -27.953159 13.444483
endloop
endfacet
facet normal 0.634395 0.000000 0.773009
outer loop
vertex -10.161523 -27.953159 13.838477
vertex -10.161523 -25.753159 13.838477
vertex -10.555517 -25.753159 14.161821
endloop
endfacet
facet normal 0.634394 0.000000 0.773010
outer loop
vertex -10.555517 -25.753159 14.161821
vertex -10.555517 -27.953159 14.161821
vertex -10.161523 -27.953159 13.838477
endloop
endfacet
facet normal 0.471394 0.000000 0.881923
outer loop
vertex -10.555517 -27.953159 14.161821
vertex -10.555517 -25.753159 14.161821
vertex -11.005024 -25.753159 14.402087
endloop
endfacet
facet normal 0.471398 0.000000 0.881921
outer loop
vertex -11.005024 -25.753159 14.402087
vertex -11.005024 -27.953159 14.402087
vertex -10.555517 -27.953159 14.161821
endloop
endfacet
facet normal 0.290285 0.000000 0.956940
outer loop
vertex -11.005024 -27.953159 14.402087
vertex -11.005024 -25.753159 14.402087
vertex -11.492765 -25.753159 14.550041
endloop
endfacet
facet normal 0.290281 0.000000 0.956941
outer loop
vertex -11.492765 -25.753159 14.550041
vertex -11.492765 -27.953159 14.550041
vertex -11.005024 -27.953159 14.402087
endloop
endfacet
facet normal 0.098018 0.000000 0.995185
outer loop
vertex -11.492765 -27.953159 14.550041
vertex -11.492765 -25.753159 14.550041
vertex -12.000001 -25.753159 14.600000
endloop
endfacet
facet normal 0.098018 0.000000 0.995185
outer loop
vertex -12.000001 -25.753159 14.600000
vertex -12.000001 -27.953159 14.600000
vertex -11.492765 -27.953159 14.550041
endloop
endfacet
facet normal -0.098018 0.000000 0.995185
outer loop
vertex -12.000001 -27.953159 14.600000
vertex -12.000001 -25.753159 14.600000
vertex -12.507236 -25.753159 14.550041
endloop
endfacet
facet normal -0.098018 0.000000 0.995185
outer loop
vertex -12.507236 -25.753159 14.550041
vertex -12.507236 -27.953159 14.550041
vertex -12.000001 -27.953159 14.600000
endloop
endfacet
facet normal -0.290284 0.000000 0.956940
outer loop
vertex -12.507236 -27.953159 14.550041
vertex -12.507236 -25.753159 14.550041
vertex -12.994978 -25.753159 14.402086
endloop
endfacet
facet normal -0.290284 0.000000 0.956941
outer loop
vertex -12.994978 -25.753159 14.402086
vertex -12.994978 -27.953159 14.402086
vertex -12.507236 -27.953159 14.550041
endloop
endfacet
facet normal -0.471396 0.000000 0.881922
outer loop
vertex -12.994978 -27.953159 14.402086
vertex -12.994978 -25.753159 14.402086
vertex -13.444484 -25.753159 14.161820
endloop
endfacet
facet normal -0.471399 0.000000 0.881920
outer loop
vertex -13.444484 -25.753159 14.161820
vertex -13.444484 -27.953159 14.161820
vertex -12.994978 -27.953159 14.402086
endloop
endfacet
facet normal -0.634391 0.000000 0.773012
outer loop
vertex -13.444484 -27.953159 14.161820
vertex -13.444484 -25.753159 14.161820
vertex -13.838479 -25.753159 13.838476
endloop
endfacet
facet normal -0.634395 0.000000 0.773009
outer loop
vertex -13.838479 -25.753159 13.838476
vertex -13.838479 -27.953159 13.838476
vertex -13.444484 -27.953159 14.161820
endloop
endfacet
facet normal -0.773012 0.000000 0.634391
outer loop
vertex -13.838479 -27.953159 13.838476
vertex -13.838479 -25.753159 13.838476
vertex -14.161821 -25.753159 13.444481
endloop
endfacet
facet normal -0.773012 0.000000 0.634391
outer loop
vertex -14.161821 -25.753159 13.444481
vertex -14.161821 -27.953159 13.444481
vertex -13.838479 -27.953159 13.838476
endloop
endfacet
facet normal -0.881921 0.000000 0.471398
outer loop
vertex -14.161821 -27.953159 13.444481
vertex -14.161821 -25.753159 13.444481
vertex -14.402087 -25.753159 12.994975
endloop
endfacet
facet normal -0.881922 0.000000 0.471396
outer loop
vertex -14.402087 -25.753159 12.994975
vertex -14.402087 -27.953159 12.994975
vertex -14.161821 -27.953159 13.444481
endloop
endfacet
facet normal -0.956940 0.000000 0.290285
outer loop
vertex -14.402087 -27.953159 12.994975
vertex -14.402087 -25.753159 12.994975
vertex -14.550042 -25.753159 12.507233
endloop
endfacet
facet normal -0.956941 0.000000 0.290284
outer loop
vertex -14.550042 -25.753159 12.507233
vertex -14.550042 -27.953159 12.507233
vertex -14.402087 -27.953159 12.994975
endloop
endfacet
facet normal -0.995185 0.000000 0.098017
outer loop
vertex -14.550042 -27.953159 12.507233
vertex -14.550042 -25.753159 12.507233
vertex -14.600000 -25.753159 11.999997
endloop
endfacet
facet normal -0.995185 0.000000 0.098017
outer loop
vertex -14.600000 -25.753159 11.999997
vertex -14.600000 -27.953159 11.999997
vertex -14.550042 -27.953159 12.507233
endloop
endfacet
facet normal -0.995185 0.000000 -0.098019
outer loop
vertex -14.600000 -27.953159 11.999997
vertex -14.600000 -25.753159 11.999997
vertex -14.550041 -25.753159 11.492763
endloop
endfacet
facet normal -0.995185 0.000000 -0.098019
outer loop
vertex -14.550041 -25.753159 11.492763
vertex -14.550041 -27.953159 11.492763
vertex -14.600000 -27.953159 11.999997
endloop
endfacet
facet normal -0.956940 0.000000 -0.290287
outer loop
vertex -14.550041 -27.953159 11.492763
vertex -14.550041 -25.753159 11.492763
vertex -14.402085 -25.753159 11.005020
endloop
endfacet
facet normal -0.956940 0.000000 -0.290285
outer loop
vertex -14.402085 -25.753159 11.005020
vertex -14.402085 -27.953159 11.005020
vertex -14.550041 -27.953159 11.492763
endloop
endfacet
facet normal -0.881921 0.000000 -0.471398
outer loop
vertex -14.402085 -27.953159 11.005020
vertex -14.402085 -25.753159 11.005020
vertex -14.161819 -25.753159 10.555515
endloop
endfacet
facet normal -0.881921 0.000000 -0.471397
outer loop
vertex -14.161819 -25.753159 10.555515
vertex -14.161819 -27.953159 10.555515
vertex -14.402085 -27.953159 11.005020
endloop
endfacet
facet normal -0.773010 0.000000 -0.634393
outer loop
vertex -14.161819 -27.953159 10.555515
vertex -14.161819 -25.753159 10.555515
vertex -13.838475 -25.753159 10.161520
endloop
endfacet
facet normal -0.773008 0.000000 -0.634396
outer loop
vertex -13.838475 -25.753159 10.161520
vertex -13.838475 -27.953159 10.161520
vertex -14.161819 -27.953159 10.555515
endloop
endfacet
facet normal -0.634393 0.000000 -0.773010
outer loop
vertex -13.838475 -27.953159 10.161520
vertex -13.838475 -25.753159 10.161520
vertex -13.444480 -25.753159 9.838177
endloop
endfacet
facet normal -0.634391 0.000000 -0.773012
outer loop
vertex -13.444480 -25.753159 9.838177
vertex -13.444480 -27.953159 9.838177
vertex -13.838475 -27.953159 10.161520
endloop
endfacet
facet normal -0.471394 0.000000 -0.881923
outer loop
vertex -13.444480 -27.953159 9.838177
vertex -13.444480 -25.753159 9.838177
vertex -12.994973 -25.753159 9.597912
endloop
endfacet
facet normal -0.471395 0.000000 -0.881922
outer loop
vertex -12.994973 -25.753159 9.597912
vertex -12.994973 -27.953159 9.597912
vertex -13.444480 -27.953159 9.838177
endloop
endfacet
facet normal 0.000000 1.000000 -0.000038
outer loop
vertex -11.492765 -25.753159 9.449959
vertex -10.555517 -25.753159 9.838179
vertex -11.005023 -25.753159 9.597914
endloop
endfacet
facet normal 0.000000 1.000000 0.000000
outer loop
vertex -9.838179 -25.753159 10.555517
vertex -10.161523 -25.753159 10.161523
vertex -10.555517 -25.753159 9.838179
endloop
endfacet
facet normal 0.000000 1.000000 -0.000019
outer loop
vertex -9.449959 -25.753159 11.492765
vertex -9.597914 -25.753159 11.005023
vertex -9.838179 -25.753159 10.555517
endloop
endfacet
facet normal 0.000000 1.000000 0.000000
outer loop
vertex -9.449959 -25.753159 12.507235
vertex -9.400000 -25.753159 12.000000
vertex -9.449959 -25.753159 11.492765
endloop
endfacet
facet normal 0.000000 1.000000 0.000019
outer loop
vertex -9.838179 -25.753159 13.444483
vertex -9.597914 -25.753159 12.994976
vertex -9.449959 -25.753159 12.507235
endloop
endfacet
facet normal 0.000000 1.000000 0.000000
outer loop
vertex -10.555517 -25.753159 14.161821
vertex -10.161523 -25.753159 13.838477
vertex -9.838179 -25.753159 13.444483
endloop
endfacet
facet normal 0.000000 1.000000 0.000000
outer loop
vertex -11.492765 -25.753159 14.550041
vertex -11.005024 -25.753159 14.402087
vertex -10.555517 -25.753159 14.161821
endloop
endfacet
facet normal 0.000000 1.000000 0.000000
outer loop
vertex -12.507236 -25.753159 14.550041
vertex -12.000001 -25.753159 14.600000
vertex -11.492765 -25.753159 14.550041
endloop
endfacet
facet normal 0.000000 1.000000 0.000038
outer loop
vertex -13.444484 -25.753159 14.161820
vertex -12.994978 -25.753159 14.402086
vertex -12.507236 -25.753159 14.550041
endloop
endfacet
facet normal 0.000000 1.000000 0.000000
outer loop
vertex -14.161821 -25.753159 13.444481
vertex -13.838479 -25.753159 13.838476
vertex -13.444484 -25.753159 14.161820
endloop
endfacet
facet normal 0.000000 1.000000 0.000000
outer loop
vertex -14.550042 -25.753159 12.507233
vertex -14.402087 -25.753159 12.994975
vertex -14.161821 -25.753159 13.444481
endloop
endfacet
facet normal 0.000000 1.000000 0.000000
outer loop
vertex -14.550041 -25.753159 11.492763
vertex -14.600000 -25.753159 11.999997
vertex -14.550042 -25.753159 12.507233
endloop
endfacet
facet normal 0.000000 1.000000 0.000009
outer loop
vertex -14.161819 -25.753159 10.555515
vertex -14.402085 -25.753159 11.005020
vertex -14.550041 -25.753159 11.492763
endloop
endfacet
facet normal 0.000000 1.000000 0.000038
outer loop
vertex -13.444480 -25.753159 9.838177
vertex -13.838475 -25.753159 10.161520
vertex -14.161819 -25.753159 10.555515
endloop
endfacet
facet normal 0.000000 1.000000 0.000000
outer loop
vertex -12.507231 -25.753159 9.449958
vertex -12.994973 -25.753159 9.597912
vertex -13.444480 -25.753159 9.838177
endloop
endfacet
facet normal 0.000000 1.000000 0.000038
outer loop
vertex -11.492765 -25.753159 9.449959
vertex -12.000000 -25.753159 9.400000
vertex -12.507231 -25.753159 9.449958
endloop
endfacet
facet normal 0.000000 1.000000 0.000000
outer loop
vertex -11.492765 -25.753159 9.449959
vertex -9.838179 -25.753159 10.555517
vertex -10.555517 -25.753159 9.838179
endloop
endfacet
facet normal 0.000000 1.000000 0.000000
outer loop
vertex -9.449959 -25.753159 12.507235
vertex -9.449959 -25.753159 11.492765
vertex -9.838179 -25.753159 10.555517
endloop
endfacet
facet normal 0.000000 1.000000 0.000000
outer loop
vertex -10.555517 -25.753159 14.161821
vertex -9.838179 -25.753159 13.444483
vertex -9.449959 -25.753159 12.507235
endloop
endfacet
facet normal 0.000000 1.000000 -0.000010
outer loop
vertex -12.507236 -25.753159 14.550041
vertex -11.492765 -25.753159 14.550041
vertex -10.555517 -25.753159 14.161821
endloop
endfacet
facet normal 0.000000 1.000000 -0.000010
outer loop
vertex -14.161821 -25.753159 13.444481
vertex -13.444484 -25.753159 14.161820
vertex -12.507236 -25.753159 14.550041
endloop
endfacet
facet normal 0.000000 1.000000 0.000000
outer loop
vertex -14.550041 -25.753159 11.492763
vertex -14.550042 -25.753159 12.507233
vertex -14.161821 -25.753159 13.444481
endloop
endfacet
facet normal 0.000000 1.000000 0.000000
outer loop
vertex -13.444480 -25.753159 9.838177
vertex -14.161819 -25.753159 10.555515
vertex -14.550041 -25.753159 11.492763
endloop
endfacet
facet normal 0.000000 1.000000 0.000000
outer loop
vertex -11.492765 -25.753159 9.449959
vertex -12.507231 -25.753159 9.449958
vertex -13.444480 -25.753159 9.838177
endloop
endfacet
facet normal 0.000000 1.000000 0.000000
outer loop
vertex -11.492765 -25.753159 9.449959
vertex -9.449959 -25.753159 12.507235
vertex -9.838179 -25.753159 10.555517
endloop
endfacet
facet normal 0.000000 1.000000 -0.000001
outer loop
vertex -12.507236 -25.753159 14.550041
vertex -10.555517 -25.753159 14.161821
vertex -9.449959 -25.753159 12.507235
endloop
endfacet
facet normal 0.000000 1.000000 0.000000
outer loop
vertex -14.550041 -25.753159 11.492763
vertex -14.161821 -25.753159 13.444481
vertex -12.507236 -25.753159 14.550041
endloop
endfacet
facet normal 0.000000 1.000000 -0.000003
outer loop
vertex -11.492765 -25.753159 9.449959
vertex -13.444480 -25.753159 9.838177
vertex -14.550041 -25.753159 11.492763
endloop
endfacet
facet normal 0.000000 1.000000 0.000001
outer loop
vertex -11.492765 -25.753159 9.449959
vertex -12.507236 -25.753159 14.550041
vertex -9.449959 -25.753159 12.507235
endloop
endfacet
facet normal 0.000000 1.000000 0.000001
outer loop
vertex -11.492765 -25.753159 9.449959
vertex -14.550041 -25.753159 11.492763
vertex -12.507236 -25.753159 14.550041
endloop
endfacet
facet normal -0.098015 0.000000 -0.995185
outer loop
vertex -12.000000 -25.753159 9.400000
vertex -12.000000 -27.953159 9.400000
vertex -12.507231 -27.953159 9.449958
endloop
endfacet
facet normal -0.098022 0.000000 -0.995184
outer loop
vertex -12.507231 -27.953159 9.449958
vertex -12.507231 -25.753159 9.449958
vertex -12.000000 -25.753159 9.400000
endloop
endfacet
facet normal -0.290281 0.000000 -0.956941
outer loop
vertex -12.994973 -27.953159 9.597912
vertex -12.994973 -25.753159 9.597912
vertex -12.507231 -25.753159 9.449958
endloop
endfacet
facet normal -0.290284 0.000000 -0.956941
outer loop
vertex -12.507231 -25.753159 9.449958
vertex -12.507231 -27.953159 9.449958
vertex -12.994973 -27.953159 9.597912
endloop
endfacet
facet normal 0.000000 -1.000000 0.000038
outer loop
vertex -12.000000 -27.953159 9.400000
vertex -12.994973 -27.953159 9.597912
vertex -12.507231 -27.953159 9.449958
endloop
endfacet
facet normal 0.000000 -1.000000 0.000038
outer loop
vertex -13.838475 -27.953159 10.161520
vertex -13.444480 -27.953159 9.838177
vertex -12.994973 -27.953159 9.597912
endloop
endfacet
facet normal 0.000000 -1.000000 0.000000
outer loop
vertex -14.402085 -27.953159 11.005020
vertex -14.161819 -27.953159 10.555515
vertex -13.838475 -27.953159 10.161520
endloop
endfacet
facet normal 0.000000 -1.000000 0.000000
outer loop
vertex -14.600000 -27.953159 11.999997
vertex -14.550041 -27.953159 11.492763
vertex -14.402085 -27.953159 11.005020
endloop
endfacet
facet normal 0.000000 -1.000000 0.000009
outer loop
vertex -14.402087 -27.953159 12.994975
vertex -14.550042 -27.953159 12.507233
vertex -14.600000 -27.953159 11.999997
endloop
endfacet
facet normal 0.000000 -1.000000 0.000000
outer loop
vertex -13.838479 -27.953159 13.838476
vertex -14.161821 -27.953159 13.444481
vertex -14.402087 -27.953159 12.994975
endloop
endfacet
facet normal 0.000000 -1.000000 -0.000038
outer loop
vertex -12.994978 -27.953159 14.402086
vertex -13.444484 -27.953159 14.161820
vertex -13.838479 -27.953159 13.838476
endloop
endfacet
facet normal 0.000000 -1.000000 -0.000038
outer loop
vertex -12.000001 -27.953159 14.600000
vertex -12.507236 -27.953159 14.550041
vertex -12.994978 -27.953159 14.402086
endloop
endfacet
facet normal 0.000000 -1.000000 -0.000038
outer loop
vertex -11.005024 -27.953159 14.402087
vertex -11.492765 -27.953159 14.550041
vertex -12.000001 -27.953159 14.600000
endloop
endfacet
facet normal 0.000000 -1.000000 -0.000038
outer loop
vertex -10.161523 -27.953159 13.838477
vertex -10.555517 -27.953159 14.161821
vertex -11.005024 -27.953159 14.402087
endloop
endfacet
facet normal 0.000000 -1.000000 0.000000
outer loop
vertex -9.597914 -27.953159 12.994976
vertex -9.838179 -27.953159 13.444483
vertex -10.161523 -27.953159 13.838477
endloop
endfacet
facet normal 0.000000 -1.000000 0.000000
outer loop
vertex -9.400000 -27.953159 12.000000
vertex -9.449959 -27.953159 12.507235
vertex -9.597914 -27.953159 12.994976
endloop
endfacet
facet normal 0.000000 -1.000000 0.000009
outer loop
vertex -9.597914 -27.953159 11.005023
vertex -9.449959 -27.953159 11.492765
vertex -9.400000 -27.953159 12.000000
endloop
endfacet
facet normal 0.000000 -1.000000 0.000000
outer loop
vertex -10.161523 -27.953159 10.161523
vertex -9.838179 -27.953159 10.555517
vertex -9.597914 -27.953159 11.005023
endloop
endfacet
facet normal 0.000000 -1.000000 0.000038
outer loop
vertex -11.005023 -27.953159 9.597914
vertex -10.555517 -27.953159 9.838179
vertex -10.161523 -27.953159 10.161523
endloop
endfacet
facet normal 0.000000 -1.000000 0.000038
outer loop
vertex -12.000000 -27.953159 9.400000
vertex -11.492765 -27.953159 9.449959
vertex -11.005023 -27.953159 9.597914
endloop
endfacet
facet normal 0.000000 -1.000000 0.000000
outer loop
vertex -12.000000 -27.953159 9.400000
vertex -13.838475 -27.953159 10.161520
vertex -12.994973 -27.953159 9.597912
endloop
endfacet
facet normal 0.000000 -1.000000 0.000005
outer loop
vertex -14.600000 -27.953159 11.999997
vertex -14.402085 -27.953159 11.005020
vertex -13.838475 -27.953159 10.161520
endloop
endfacet
facet normal 0.000000 -1.000000 0.000002
outer loop
vertex -13.838479 -27.953159 13.838476
vertex -14.402087 -27.953159 12.994975
vertex -14.600000 -27.953159 11.999997
endloop
endfacet
facet normal 0.000000 -1.000000 0.000000
outer loop
vertex -12.000001 -27.953159 14.600000
vertex -12.994978 -27.953159 14.402086
vertex -13.838479 -27.953159 13.838476
endloop
endfacet
facet normal 0.000000 -1.000000 0.000000
outer loop
vertex -10.161523 -27.953159 13.838477
vertex -11.005024 -27.953159 14.402087
vertex -12.000001 -27.953159 14.600000
endloop
endfacet
facet normal 0.000000 -1.000000 0.000005
outer loop
vertex -9.400000 -27.953159 12.000000
vertex -9.597914 -27.953159 12.994976
vertex -10.161523 -27.953159 13.838477
endloop
endfacet
facet normal 0.000000 -1.000000 -0.000005
outer loop
vertex -10.161523 -27.953159 10.161523
vertex -9.597914 -27.953159 11.005023
vertex -9.400000 -27.953159 12.000000
endloop
endfacet
facet normal 0.000000 -1.000000 0.000000
outer loop
vertex -12.000000 -27.953159 9.400000
vertex -11.005023 -27.953159 9.597914
vertex -10.161523 -27.953159 10.161523
endloop
endfacet
facet normal 0.000000 -1.000000 0.000000
outer loop
vertex -12.000000 -27.953159 9.400000
vertex -14.600000 -27.953159 11.999997
vertex -13.838475 -27.953159 10.161520
endloop
endfacet
facet normal 0.000000 -1.000000 0.000001
outer loop
vertex -12.000001 -27.953159 14.600000
vertex -13.838479 -27.953159 13.838476
vertex -14.600000 -27.953159 11.999997
endloop
endfacet
facet normal 0.000000 -1.000000 0.000003
outer loop
vertex -9.400000 -27.953159 12.000000
vertex -10.161523 -27.953159 13.838477
vertex -12.000001 -27.953159 14.600000
endloop
endfacet
facet normal 0.000000 -1.000000 0.000001
outer loop
vertex -12.000000 -27.953159 9.400000
vertex -10.161523 -27.953159 10.161523
vertex -9.400000 -27.953159 12.000000
endloop
endfacet
facet normal 0.000000 -1.000000 0.000000
outer loop
vertex -12.000000 -27.953159 9.400000
vertex -12.000001 -27.953159 14.600000
vertex -14.600000 -27.953159 11.999997
endloop
endfacet
facet normal 0.000000 -1.000000 -0.000001
outer loop
vertex -12.000000 -27.953159 9.400000
vertex -9.400000 -27.953159 12.000000
vertex -12.000001 -27.953159 14.600000
endloop
endfacet
endsolid Exported from Blender-2.74 (sub 0)
