solid Exported from Blender-2.74 (sub 0)
facet normal -0.290166 0.956550 -0.028581
outer loop
vertex -1.050006 8.565768 0.024378
vertex -0.547899 8.718081 0.024378
vertex -0.537866 8.718081 -0.077493
endloop
endfacet
facet normal -0.290166 0.956550 -0.028577
outer loop
vertex -0.537866 8.718081 -0.077493
vertex -1.030325 8.565768 -0.175449
vertex -1.050006 8.565768 0.024378
endloop
endfacet
facet normal -0.952718 0.289003 -0.093835
outer loop
vertex -2.650869 6.615110 0.024378
vertex -2.498557 7.117217 0.024378
vertex -2.451042 7.117217 -0.458047
endloop
endfacet
facet normal -0.952718 0.289004 -0.093835
outer loop
vertex -2.451042 7.117217 -0.458047
vertex -2.600428 6.615110 -0.487762
vertex -2.650869 6.615110 0.024378
endloop
endfacet
facet normal -0.770780 0.632563 -0.075916
outer loop
vertex -2.251215 7.579961 0.024378
vertex -1.918349 7.985560 0.024378
vertex -1.881982 7.985560 -0.344854
endloop
endfacet
facet normal -0.770780 0.632562 -0.075915
outer loop
vertex -1.881982 7.985560 -0.344854
vertex -2.208453 7.579961 -0.409793
vertex -2.251215 7.579961 0.024378
endloop
endfacet
facet normal -0.470890 0.880972 -0.046378
outer loop
vertex -1.512750 8.318426 0.024378
vertex -1.050006 8.565768 0.024378
vertex -1.030325 8.565768 -0.175449
endloop
endfacet
facet normal -0.470890 0.880972 -0.046378
outer loop
vertex -1.030325 8.565768 -0.175449
vertex -1.484177 8.318426 -0.265726
vertex -1.512750 8.318426 0.024378
endloop
endfacet
facet normal -0.990438 0.097549 -0.097550
outer loop
vertex -2.702299 6.092937 0.024378
vertex -2.650869 6.615110 0.024378
vertex -2.600428 6.615110 -0.487762
endloop
endfacet
facet normal -0.990438 0.097551 -0.097550
outer loop
vertex -2.600428 6.615110 -0.487762
vertex -2.650869 6.092937 -0.497795
vertex -2.702299 6.092937 0.024378
endloop
endfacet
facet normal -0.878613 0.469629 -0.086535
outer loop
vertex -2.498557 7.117217 0.024378
vertex -2.251215 7.579961 0.024378
vertex -2.208453 7.579961 -0.409793
endloop
endfacet
facet normal -0.878613 0.469629 -0.086536
outer loop
vertex -2.208453 7.579961 -0.409793
vertex -2.451042 7.117217 -0.458047
vertex -2.498557 7.117217 0.024378
endloop
endfacet
facet normal -0.633159 0.771506 -0.062362
outer loop
vertex -1.918349 7.985560 0.024378
vertex -1.512750 8.318426 0.024378
vertex -1.484177 8.318426 -0.265726
endloop
endfacet
facet normal -0.633159 0.771506 -0.062362
outer loop
vertex -1.484177 8.318426 -0.265726
vertex -1.881982 7.985560 -0.344854
vertex -1.918349 7.985560 0.024378
endloop
endfacet
facet normal -0.952376 0.097551 -0.288900
outer loop
vertex -2.650869 6.092937 -0.497795
vertex -2.600428 6.615110 -0.487762
vertex -2.451042 6.615110 -0.980221
endloop
endfacet
facet normal -0.952376 0.097550 -0.288900
outer loop
vertex -2.451042 6.615110 -0.980221
vertex -2.498557 6.092937 -0.999902
vertex -2.650869 6.092937 -0.497795
endloop
endfacet
facet normal -0.844848 0.469629 -0.256282
outer loop
vertex -2.451042 7.117217 -0.458047
vertex -2.208453 7.579961 -0.409793
vertex -2.081810 7.579961 -0.827280
endloop
endfacet
facet normal -0.844848 0.469628 -0.256282
outer loop
vertex -2.081810 7.579961 -0.827280
vertex -2.310324 7.117217 -0.921933
vertex -2.451042 7.117217 -0.458047
endloop
endfacet
facet normal -0.608826 0.771506 -0.184686
outer loop
vertex -1.881982 7.985560 -0.344854
vertex -1.484177 8.318426 -0.265726
vertex -1.399557 8.318426 -0.544682
endloop
endfacet
facet normal -0.608827 0.771506 -0.184685
outer loop
vertex -1.399557 8.318426 -0.544682
vertex -1.774281 7.985560 -0.699897
vertex -1.881982 7.985560 -0.344854
endloop
endfacet
facet normal -0.279015 0.956551 -0.084626
outer loop
vertex -1.030325 8.565768 -0.175449
vertex -0.537866 8.718081 -0.077493
vertex -0.508151 8.718081 -0.175449
endloop
endfacet
facet normal -0.279015 0.956549 -0.084644
outer loop
vertex -0.508151 8.718081 -0.175449
vertex -0.972037 8.565768 -0.367597
vertex -1.030325 8.565768 -0.175449
endloop
endfacet
facet normal -0.916106 0.289003 -0.277898
outer loop
vertex -2.600428 6.615110 -0.487762
vertex -2.451042 7.117217 -0.458047
vertex -2.310324 7.117217 -0.921933
endloop
endfacet
facet normal -0.916106 0.289005 -0.277897
outer loop
vertex -2.310324 7.117217 -0.921933
vertex -2.451042 6.615110 -0.980221
vertex -2.600428 6.615110 -0.487762
endloop
endfacet
facet normal -0.741159 0.632563 -0.224828
outer loop
vertex -2.208453 7.579961 -0.409793
vertex -1.881982 7.985560 -0.344854
vertex -1.774281 7.985560 -0.699897
endloop
endfacet
facet normal -0.741159 0.632562 -0.224830
outer loop
vertex -1.774281 7.985560 -0.699897
vertex -2.081810 7.579961 -0.827280
vertex -2.208453 7.579961 -0.409793
endloop
endfacet
facet normal -0.452794 0.880972 -0.137353
outer loop
vertex -1.484177 8.318426 -0.265726
vertex -1.030325 8.565768 -0.175449
vertex -0.972037 8.565768 -0.367597
endloop
endfacet
facet normal -0.452794 0.880972 -0.137354
outer loop
vertex -0.972037 8.565768 -0.367597
vertex -1.399557 8.318426 -0.544682
vertex -1.484177 8.318426 -0.265726
endloop
endfacet
facet normal -0.877715 0.097550 -0.469148
outer loop
vertex -2.498557 6.092937 -0.999902
vertex -2.451042 6.615110 -0.980221
vertex -2.208452 6.615110 -1.434074
endloop
endfacet
facet normal -0.877715 0.097551 -0.469149
outer loop
vertex -2.208452 6.615110 -1.434074
vertex -2.251215 6.092937 -1.462647
vertex -2.498557 6.092937 -0.999902
endloop
endfacet
facet normal -0.778617 0.469628 -0.416179
outer loop
vertex -2.310324 7.117217 -0.921933
vertex -2.081810 7.579961 -0.827280
vertex -1.876152 7.579961 -1.212038
endloop
endfacet
facet normal -0.778616 0.469629 -0.416180
outer loop
vertex -1.876152 7.579961 -1.212038
vertex -2.081810 7.117217 -1.349454
vertex -2.310324 7.117217 -0.921933
endloop
endfacet
facet normal -0.561098 0.771506 -0.299911
outer loop
vertex -1.774281 7.985560 -0.699897
vertex -1.399557 8.318426 -0.544682
vertex -1.262141 8.318426 -0.801769
endloop
endfacet
facet normal -0.561098 0.771506 -0.299914
outer loop
vertex -1.262141 8.318426 -0.801769
vertex -1.599384 7.985560 -1.027107
vertex -1.774281 7.985560 -0.699897
endloop
endfacet
facet normal -0.257142 0.956551 -0.137434
outer loop
vertex -0.972037 8.565768 -0.367597
vertex -0.508151 8.718081 -0.175449
vertex -0.459897 8.718081 -0.265726
endloop
endfacet
facet normal -0.257141 0.956549 -0.137448
outer loop
vertex -0.459897 8.718081 -0.265726
vertex -0.877383 8.565768 -0.544682
vertex -0.972037 8.565768 -0.367597
endloop
endfacet
facet normal -0.844288 0.289003 -0.451282
outer loop
vertex -2.451042 6.615110 -0.980221
vertex -2.310324 7.117217 -0.921933
vertex -2.081810 7.117217 -1.349454
endloop
endfacet
facet normal -0.844288 0.289004 -0.451281
outer loop
vertex -2.081810 7.117217 -1.349454
vertex -2.208452 6.615110 -1.434074
vertex -2.451042 6.615110 -0.980221
endloop
endfacet
facet normal -0.683057 0.632562 -0.365101
outer loop
vertex -2.081810 7.579961 -0.827280
vertex -1.774281 7.985560 -0.699897
vertex -1.599384 7.985560 -1.027107
endloop
endfacet
facet normal -0.683057 0.632562 -0.365100
outer loop
vertex -1.599384 7.985560 -1.027107
vertex -1.876152 7.579961 -1.212038
vertex -2.081810 7.579961 -0.827280
endloop
endfacet
facet normal -0.417297 0.880972 -0.223052
outer loop
vertex -1.399557 8.318426 -0.544682
vertex -0.972037 8.565768 -0.367597
vertex -0.877383 8.565768 -0.544682
endloop
endfacet
facet normal -0.417297 0.880972 -0.223050
outer loop
vertex -0.877383 8.565768 -0.544682
vertex -1.262141 8.318426 -0.801769
vertex -1.399557 8.318426 -0.544682
endloop
endfacet
facet normal -0.769323 0.097550 -0.631368
outer loop
vertex -2.251215 6.092937 -1.462647
vertex -2.208452 6.615110 -1.434074
vertex -1.881982 6.615110 -1.831879
endloop
endfacet
facet normal -0.769324 0.097550 -0.631367
outer loop
vertex -1.881982 6.615110 -1.831879
vertex -1.918348 6.092937 -1.868246
vertex -2.251215 6.092937 -1.462647
endloop
endfacet
facet normal -0.682463 0.469628 -0.560083
outer loop
vertex -2.081810 7.117217 -1.349454
vertex -1.876152 7.579961 -1.212038
vertex -1.599384 7.579961 -1.549281
endloop
endfacet
facet normal -0.682463 0.469629 -0.560083
outer loop
vertex -1.599384 7.579961 -1.549281
vertex -1.774281 7.117217 -1.724178
vertex -2.081810 7.117217 -1.349454
endloop
endfacet
facet normal -0.491806 0.771506 -0.403615
outer loop
vertex -1.599384 7.985560 -1.027107
vertex -1.262141 8.318426 -0.801769
vertex -1.077210 8.318426 -1.027107
endloop
endfacet
facet normal -0.491806 0.771506 -0.403615
outer loop
vertex -1.077210 8.318426 -1.027107
vertex -1.364012 7.985560 -1.313909
vertex -1.599384 7.985560 -1.027107
endloop
endfacet
facet normal -0.225387 0.956550 -0.184968
outer loop
vertex -0.877383 8.565768 -0.544682
vertex -0.459897 8.718081 -0.265726
vertex -0.394958 8.718081 -0.344855
endloop
endfacet
facet normal -0.225386 0.956550 -0.184969
outer loop
vertex -0.394958 8.718081 -0.344855
vertex -0.750001 8.565768 -0.699898
vertex -0.877383 8.565768 -0.544682
endloop
endfacet
facet normal -0.740024 0.289003 -0.607323
outer loop
vertex -2.208452 6.615110 -1.434074
vertex -2.081810 7.117217 -1.349454
vertex -1.774281 7.117217 -1.724178
endloop
endfacet
facet normal -0.740024 0.289003 -0.607323
outer loop
vertex -1.774281 7.117217 -1.724178
vertex -1.881982 6.615110 -1.831879
vertex -2.208452 6.615110 -1.434074
endloop
endfacet
facet normal -0.598704 0.632562 -0.491344
outer loop
vertex -1.876152 7.579961 -1.212038
vertex -1.599384 7.985560 -1.027107
vertex -1.364012 7.985560 -1.313909
endloop
endfacet
facet normal -0.598703 0.632562 -0.491345
outer loop
vertex -1.364012 7.985560 -1.313909
vertex -1.599384 7.579961 -1.549281
vertex -1.876152 7.579961 -1.212038
endloop
endfacet
facet normal -0.365764 0.880973 -0.300172
outer loop
vertex -1.262141 8.318426 -0.801769
vertex -0.877383 8.565768 -0.544682
vertex -0.750001 8.565768 -0.699898
endloop
endfacet
facet normal -0.365764 0.880972 -0.300174
outer loop
vertex -0.750001 8.565768 -0.699898
vertex -1.077210 8.318426 -1.027107
vertex -1.262141 8.318426 -0.801769
endloop
endfacet
facet normal -0.631367 0.097550 -0.769324
outer loop
vertex -1.918348 6.092937 -1.868246
vertex -1.881982 6.615110 -1.831879
vertex -1.484177 6.615110 -2.158349
endloop
endfacet
facet normal -0.631366 0.097550 -0.769325
outer loop
vertex -1.484177 6.615110 -2.158349
vertex -1.512749 6.092937 -2.201112
vertex -1.918348 6.092937 -1.868246
endloop
endfacet
facet normal -0.560083 0.469628 -0.682463
outer loop
vertex -1.774281 7.117217 -1.724178
vertex -1.599384 7.579961 -1.549281
vertex -1.262141 7.579961 -1.826049
endloop
endfacet
facet normal -0.560083 0.469629 -0.682463
outer loop
vertex -1.262141 7.579961 -1.826049
vertex -1.399557 7.117217 -2.031706
vertex -1.774281 7.117217 -1.724178
endloop
endfacet
facet normal -0.403615 0.771506 -0.491805
outer loop
vertex -1.364012 7.985560 -1.313909
vertex -1.077210 8.318426 -1.027107
vertex -0.851872 8.318426 -1.212038
endloop
endfacet
facet normal -0.403615 0.771506 -0.491806
outer loop
vertex -0.851872 8.318426 -1.212038
vertex -1.077210 7.985560 -1.549281
vertex -1.364012 7.985560 -1.313909
endloop
endfacet
facet normal -0.184970 0.956548 -0.225392
outer loop
vertex -0.750001 8.565768 -0.699898
vertex -0.394958 8.718081 -0.344855
vertex -0.315829 8.718081 -0.409794
endloop
endfacet
facet normal -0.184970 0.956550 -0.225383
outer loop
vertex -0.315829 8.718081 -0.409794
vertex -0.594785 8.565768 -0.827280
vertex -0.750001 8.565768 -0.699898
endloop
endfacet
facet normal -0.607322 0.289003 -0.740025
outer loop
vertex -1.881982 6.615110 -1.831879
vertex -1.774281 7.117217 -1.724178
vertex -1.399557 7.117217 -2.031706
endloop
endfacet
facet normal -0.607322 0.289003 -0.740025
outer loop
vertex -1.399557 7.117217 -2.031706
vertex -1.484177 6.615110 -2.158349
vertex -1.881982 6.615110 -1.831879
endloop
endfacet
facet normal -0.491344 0.632562 -0.598704
outer loop
vertex -1.599384 7.579961 -1.549281
vertex -1.364012 7.985560 -1.313909
vertex -1.077210 7.985560 -1.549281
endloop
endfacet
facet normal -0.491343 0.632562 -0.598704
outer loop
vertex -1.077210 7.985560 -1.549281
vertex -1.262141 7.579961 -1.826049
vertex -1.599384 7.579961 -1.549281
endloop
endfacet
facet normal -0.300174 0.880971 -0.365767
outer loop
vertex -1.077210 8.318426 -1.027107
vertex -0.750001 8.565768 -0.699898
vertex -0.594785 8.565768 -0.827280
endloop
endfacet
facet normal -0.300175 0.880972 -0.365763
outer loop
vertex -0.594785 8.565768 -0.827280
vertex -0.851872 8.318426 -1.212038
vertex -1.077210 8.318426 -1.027107
endloop
endfacet
facet normal -0.469149 0.097550 -0.877715
outer loop
vertex -1.512749 6.092937 -2.201112
vertex -1.484177 6.615110 -2.158349
vertex -1.030324 6.615110 -2.400939
endloop
endfacet
facet normal -0.469148 0.097550 -0.877715
outer loop
vertex -1.030324 6.615110 -2.400939
vertex -1.050005 6.092937 -2.448454
vertex -1.512749 6.092937 -2.201112
endloop
endfacet
facet normal -0.416179 0.469629 -0.778617
outer loop
vertex -1.399557 7.117217 -2.031706
vertex -1.262141 7.579961 -1.826049
vertex -0.877383 7.579961 -2.031707
endloop
endfacet
facet normal -0.416180 0.469628 -0.778617
outer loop
vertex -0.877383 7.579961 -2.031707
vertex -0.972037 7.117217 -2.260221
vertex -1.399557 7.117217 -2.031706
endloop
endfacet
facet normal -0.299913 0.771506 -0.561098
outer loop
vertex -1.077210 7.985560 -1.549281
vertex -0.851872 8.318426 -1.212038
vertex -0.594785 8.318426 -1.349454
endloop
endfacet
facet normal -0.299913 0.771505 -0.561099
outer loop
vertex -0.594785 8.318426 -1.349454
vertex -0.750000 7.985560 -1.724178
vertex -1.077210 7.985560 -1.549281
endloop
endfacet
facet normal -0.137445 0.956548 -0.257148
outer loop
vertex -0.594785 8.565768 -0.827280
vertex -0.315829 8.718081 -0.409794
vertex -0.225552 8.718081 -0.458048
endloop
endfacet
facet normal -0.137445 0.956550 -0.257138
outer loop
vertex -0.225552 8.718081 -0.458048
vertex -0.417700 8.565768 -0.921934
vertex -0.594785 8.565768 -0.827280
endloop
endfacet
facet normal -0.451280 0.289003 -0.844288
outer loop
vertex -1.484177 6.615110 -2.158349
vertex -1.399557 7.117217 -2.031706
vertex -0.972037 7.117217 -2.260221
endloop
endfacet
facet normal -0.451282 0.289003 -0.844288
outer loop
vertex -0.972037 7.117217 -2.260221
vertex -1.030324 6.615110 -2.400939
vertex -1.484177 6.615110 -2.158349
endloop
endfacet
facet normal -0.365101 0.632563 -0.683056
outer loop
vertex -1.262141 7.579961 -1.826049
vertex -1.077210 7.985560 -1.549281
vertex -0.750000 7.985560 -1.724178
endloop
endfacet
facet normal -0.365101 0.632562 -0.683057
outer loop
vertex -0.750000 7.985560 -1.724178
vertex -0.877383 7.579961 -2.031707
vertex -1.262141 7.579961 -1.826049
endloop
endfacet
facet normal -0.223050 0.880972 -0.417298
outer loop
vertex -0.851872 8.318426 -1.212038
vertex -0.594785 8.565768 -0.827280
vertex -0.417700 8.565768 -0.921934
endloop
endfacet
facet normal -0.223050 0.880972 -0.417298
outer loop
vertex -0.417700 8.565768 -0.921934
vertex -0.594785 8.318426 -1.349454
vertex -0.851872 8.318426 -1.212038
endloop
endfacet
facet normal -0.288900 0.097550 -0.952376
outer loop
vertex -1.050005 6.092937 -2.448454
vertex -1.030324 6.615110 -2.400939
vertex -0.537865 6.615110 -2.550324
endloop
endfacet
facet normal -0.288901 0.097551 -0.952376
outer loop
vertex -0.537865 6.615110 -2.550324
vertex -0.547898 6.092937 -2.600766
vertex -1.050005 6.092937 -2.448454
endloop
endfacet
facet normal -0.256281 0.469629 -0.844848
outer loop
vertex -0.972037 7.117217 -2.260221
vertex -0.877383 7.579961 -2.031707
vertex -0.459896 7.579961 -2.158350
endloop
endfacet
facet normal -0.256280 0.469629 -0.844849
outer loop
vertex -0.459896 7.579961 -2.158350
vertex -0.508150 7.117217 -2.400939
vertex -0.972037 7.117217 -2.260221
endloop
endfacet
facet normal -0.184685 0.771506 -0.608827
outer loop
vertex -0.750000 7.985560 -1.724178
vertex -0.594785 8.318426 -1.349454
vertex -0.315829 8.318426 -1.434074
endloop
endfacet
facet normal -0.184686 0.771506 -0.608826
outer loop
vertex -0.315829 8.318426 -1.434074
vertex -0.394957 7.985560 -1.831879
vertex -0.750000 7.985560 -1.724178
endloop
endfacet
facet normal -0.084638 0.956549 -0.279016
outer loop
vertex -0.417700 8.565768 -0.921934
vertex -0.225552 8.718081 -0.458048
vertex -0.127596 8.718081 -0.487763
endloop
endfacet
facet normal -0.084638 0.956551 -0.279011
outer loop
vertex -0.127596 8.718081 -0.487763
vertex -0.225552 8.565768 -0.980221
vertex -0.417700 8.565768 -0.921934
endloop
endfacet
facet normal -0.277897 0.289003 -0.916106
outer loop
vertex -1.030324 6.615110 -2.400939
vertex -0.972037 7.117217 -2.260221
vertex -0.508150 7.117217 -2.400939
endloop
endfacet
facet normal -0.277898 0.289003 -0.916106
outer loop
vertex -0.508150 7.117217 -2.400939
vertex -0.537865 6.615110 -2.550324
vertex -1.030324 6.615110 -2.400939
endloop
endfacet
facet normal -0.224829 0.632563 -0.741158
outer loop
vertex -0.877383 7.579961 -2.031707
vertex -0.750000 7.985560 -1.724178
vertex -0.394957 7.985560 -1.831879
endloop
endfacet
facet normal -0.224828 0.632562 -0.741159
outer loop
vertex -0.394957 7.985560 -1.831879
vertex -0.459896 7.579961 -2.158350
vertex -0.877383 7.579961 -2.031707
endloop
endfacet
facet normal -0.137353 0.880972 -0.452794
outer loop
vertex -0.594785 8.318426 -1.349454
vertex -0.417700 8.565768 -0.921934
vertex -0.225552 8.565768 -0.980221
endloop
endfacet
facet normal -0.137354 0.880974 -0.452791
outer loop
vertex -0.225552 8.565768 -0.980221
vertex -0.315829 8.318426 -1.434074
vertex -0.594785 8.318426 -1.349454
endloop
endfacet
facet normal -0.097548 0.097551 -0.990438
outer loop
vertex -0.547898 6.092937 -2.600766
vertex -0.537865 6.615110 -2.550324
vertex -0.025724 6.615110 -2.600765
endloop
endfacet
facet normal -0.097550 0.097551 -0.990438
outer loop
vertex -0.025724 6.615110 -2.600765
vertex -0.025724 6.092937 -2.652196
vertex -0.547898 6.092937 -2.600766
endloop
endfacet
facet normal -0.086536 0.469629 -0.878613
outer loop
vertex -0.508150 7.117217 -2.400939
vertex -0.459896 7.579961 -2.158350
vertex -0.025724 7.579961 -2.201112
endloop
endfacet
facet normal -0.086536 0.469629 -0.878613
outer loop
vertex -0.025724 7.579961 -2.201112
vertex -0.025725 7.117217 -2.448454
vertex -0.508150 7.117217 -2.400939
endloop
endfacet
facet normal -0.062360 0.771505 -0.633160
outer loop
vertex -0.394957 7.985560 -1.831879
vertex -0.315829 8.318426 -1.434074
vertex -0.025725 8.318426 -1.462647
endloop
endfacet
facet normal -0.062361 0.771507 -0.633158
outer loop
vertex -0.025725 8.318426 -1.462647
vertex -0.025725 7.985560 -1.868245
vertex -0.394957 7.985560 -1.831879
endloop
endfacet
facet normal -0.028579 0.956549 -0.290167
outer loop
vertex -0.225552 8.565768 -0.980221
vertex -0.127596 8.718081 -0.487763
vertex -0.025724 8.718081 -0.497796
endloop
endfacet
facet normal -0.028579 0.956549 -0.290167
outer loop
vertex -0.025724 8.718081 -0.497796
vertex -0.025725 8.565768 -0.999903
vertex -0.225552 8.565768 -0.980221
endloop
endfacet
facet normal -0.093835 0.289003 -0.952718
outer loop
vertex -0.537865 6.615110 -2.550324
vertex -0.508150 7.117217 -2.400939
vertex -0.025725 7.117217 -2.448454
endloop
endfacet
facet normal -0.093835 0.289003 -0.952718
outer loop
vertex -0.025725 7.117217 -2.448454
vertex -0.025724 6.615110 -2.600765
vertex -0.537865 6.615110 -2.550324
endloop
endfacet
facet normal -0.075915 0.632562 -0.770780
outer loop
vertex -0.459896 7.579961 -2.158350
vertex -0.394957 7.985560 -1.831879
vertex -0.025725 7.985560 -1.868245
endloop
endfacet
facet normal -0.075914 0.632562 -0.770781
outer loop
vertex -0.025725 7.985560 -1.868245
vertex -0.025724 7.579961 -2.201112
vertex -0.459896 7.579961 -2.158350
endloop
endfacet
facet normal -0.046378 0.880973 -0.470889
outer loop
vertex -0.315829 8.318426 -1.434074
vertex -0.225552 8.565768 -0.980221
vertex -0.025725 8.565768 -0.999903
endloop
endfacet
facet normal -0.046379 0.880972 -0.470889
outer loop
vertex -0.025725 8.565768 -0.999903
vertex -0.025725 8.318426 -1.462647
vertex -0.315829 8.318426 -1.434074
endloop
endfacet
facet normal 0.097549 0.097551 -0.990438
outer loop
vertex -0.025724 6.092937 -2.652196
vertex -0.025724 6.615110 -2.600765
vertex 0.486416 6.615110 -2.550324
endloop
endfacet
facet normal 0.097550 0.097551 -0.990438
outer loop
vertex 0.486416 6.615110 -2.550324
vertex 0.496449 6.092937 -2.600766
vertex -0.025724 6.092937 -2.652196
endloop
endfacet
facet normal 0.086535 0.469628 -0.878613
outer loop
vertex -0.025725 7.117217 -2.448454
vertex -0.025724 7.579961 -2.201112
vertex 0.408447 7.579961 -2.158349
endloop
endfacet
facet normal 0.086537 0.469629 -0.878613
outer loop
vertex 0.408447 7.579961 -2.158349
vertex 0.456701 7.117217 -2.400939
vertex -0.025725 7.117217 -2.448454
endloop
endfacet
facet normal 0.062361 0.771506 -0.633158
outer loop
vertex -0.025725 7.985560 -1.868245
vertex -0.025725 8.318426 -1.462647
vertex 0.264380 8.318426 -1.434074
endloop
endfacet
facet normal 0.062361 0.771506 -0.633158
outer loop
vertex 0.264380 8.318426 -1.434074
vertex 0.343508 7.985560 -1.831879
vertex -0.025725 7.985560 -1.868245
endloop
endfacet
facet normal 0.028579 0.956549 -0.290169
outer loop
vertex -0.025725 8.565768 -0.999903
vertex -0.025724 8.718081 -0.497796
vertex 0.076147 8.718081 -0.487763
endloop
endfacet
facet normal 0.028579 0.956550 -0.290165
outer loop
vertex 0.076147 8.718081 -0.487763
vertex 0.174103 8.565768 -0.980221
vertex -0.025725 8.565768 -0.999903
endloop
endfacet
facet normal 0.093835 0.289003 -0.952718
outer loop
vertex -0.025724 6.615110 -2.600765
vertex -0.025725 7.117217 -2.448454
vertex 0.456701 7.117217 -2.400939
endloop
endfacet
facet normal 0.093835 0.289003 -0.952718
outer loop
vertex 0.456701 7.117217 -2.400939
vertex 0.486416 6.615110 -2.550324
vertex -0.025724 6.615110 -2.600765
endloop
endfacet
facet normal 0.075916 0.632562 -0.770780
outer loop
vertex -0.025724 7.579961 -2.201112
vertex -0.025725 7.985560 -1.868245
vertex 0.343508 7.985560 -1.831879
endloop
endfacet
facet normal 0.075915 0.632562 -0.770781
outer loop
vertex 0.343508 7.985560 -1.831879
vertex 0.408447 7.579961 -2.158349
vertex -0.025724 7.579961 -2.201112
endloop
endfacet
facet normal 0.046379 0.880972 -0.470891
outer loop
vertex -0.025725 8.318426 -1.462647
vertex -0.025725 8.565768 -0.999903
vertex 0.174103 8.565768 -0.980221
endloop
endfacet
facet normal 0.046379 0.880972 -0.470889
outer loop
vertex 0.174103 8.565768 -0.980221
vertex 0.264380 8.318426 -1.434074
vertex -0.025725 8.318426 -1.462647
endloop
endfacet
facet normal 0.288901 0.097551 -0.952376
outer loop
vertex 0.496449 6.092937 -2.600766
vertex 0.486416 6.615110 -2.550324
vertex 0.978875 6.615110 -2.400938
endloop
endfacet
facet normal 0.288899 0.097551 -0.952376
outer loop
vertex 0.978875 6.615110 -2.400938
vertex 0.998556 6.092937 -2.448454
vertex 0.496449 6.092937 -2.600766
endloop
endfacet
facet normal 0.256281 0.469629 -0.844848
outer loop
vertex 0.456701 7.117217 -2.400939
vertex 0.408447 7.579961 -2.158349
vertex 0.825934 7.579961 -2.031706
endloop
endfacet
facet normal 0.256282 0.469629 -0.844848
outer loop
vertex 0.825934 7.579961 -2.031706
vertex 0.920587 7.117217 -2.260221
vertex 0.456701 7.117217 -2.400939
endloop
endfacet
facet normal 0.184685 0.771504 -0.608829
outer loop
vertex 0.343508 7.985560 -1.831879
vertex 0.264380 8.318426 -1.434074
vertex 0.543335 8.318426 -1.349454
endloop
endfacet
facet normal 0.184686 0.771506 -0.608826
outer loop
vertex 0.543335 8.318426 -1.349454
vertex 0.698551 7.985560 -1.724178
vertex 0.343508 7.985560 -1.831879
endloop
endfacet
facet normal 0.084638 0.956549 -0.279016
outer loop
vertex 0.174103 8.565768 -0.980221
vertex 0.076147 8.718081 -0.487763
vertex 0.174103 8.718081 -0.458048
endloop
endfacet
facet normal 0.084638 0.956550 -0.279014
outer loop
vertex 0.174103 8.718081 -0.458048
vertex 0.366251 8.565768 -0.921934
vertex 0.174103 8.565768 -0.980221
endloop
endfacet
facet normal 0.277896 0.289003 -0.916106
outer loop
vertex 0.486416 6.615110 -2.550324
vertex 0.456701 7.117217 -2.400939
vertex 0.920587 7.117217 -2.260221
endloop
endfacet
facet normal 0.277898 0.289003 -0.916106
outer loop
vertex 0.920587 7.117217 -2.260221
vertex 0.978875 6.615110 -2.400938
vertex 0.486416 6.615110 -2.550324
endloop
endfacet
facet normal 0.224828 0.632563 -0.741159
outer loop
vertex 0.408447 7.579961 -2.158349
vertex 0.343508 7.985560 -1.831879
vertex 0.698551 7.985560 -1.724178
endloop
endfacet
facet normal 0.224829 0.632562 -0.741159
outer loop
vertex 0.698551 7.985560 -1.724178
vertex 0.825934 7.579961 -2.031706
vertex 0.408447 7.579961 -2.158349
endloop
endfacet
facet normal 0.137353 0.880972 -0.452794
outer loop
vertex 0.264380 8.318426 -1.434074
vertex 0.174103 8.565768 -0.980221
vertex 0.366251 8.565768 -0.921934
endloop
endfacet
facet normal 0.137354 0.880974 -0.452791
outer loop
vertex 0.366251 8.565768 -0.921934
vertex 0.543335 8.318426 -1.349454
vertex 0.264380 8.318426 -1.434074
endloop
endfacet
facet normal 0.469149 0.097551 -0.877715
outer loop
vertex 0.998556 6.092937 -2.448454
vertex 0.978875 6.615110 -2.400938
vertex 1.432727 6.615110 -2.158349
endloop
endfacet
facet normal 0.469149 0.097551 -0.877715
outer loop
vertex 1.432727 6.615110 -2.158349
vertex 1.461300 6.092937 -2.201112
vertex 0.998556 6.092937 -2.448454
endloop
endfacet
facet normal 0.416179 0.469629 -0.778617
outer loop
vertex 0.920587 7.117217 -2.260221
vertex 0.825934 7.579961 -2.031706
vertex 1.210692 7.579961 -1.826049
endloop
endfacet
facet normal 0.416180 0.469629 -0.778616
outer loop
vertex 1.210692 7.579961 -1.826049
vertex 1.348107 7.117217 -2.031706
vertex 0.920587 7.117217 -2.260221
endloop
endfacet
facet normal 0.299913 0.771506 -0.561098
outer loop
vertex 0.698551 7.985560 -1.724178
vertex 0.543335 8.318426 -1.349454
vertex 0.800422 8.318426 -1.212038
endloop
endfacet
facet normal 0.299913 0.771507 -0.561097
outer loop
vertex 0.800422 8.318426 -1.212038
vertex 1.025761 7.985560 -1.549281
vertex 0.698551 7.985560 -1.724178
endloop
endfacet
facet normal 0.137445 0.956549 -0.257144
outer loop
vertex 0.366251 8.565768 -0.921934
vertex 0.174103 8.718081 -0.458048
vertex 0.264380 8.718081 -0.409794
endloop
endfacet
facet normal 0.137445 0.956550 -0.257139
outer loop
vertex 0.264380 8.718081 -0.409794
vertex 0.543335 8.565768 -0.827280
vertex 0.366251 8.565768 -0.921934
endloop
endfacet
facet normal 0.451282 0.289003 -0.844288
outer loop
vertex 0.978875 6.615110 -2.400938
vertex 0.920587 7.117217 -2.260221
vertex 1.348107 7.117217 -2.031706
endloop
endfacet
facet normal 0.451281 0.289003 -0.844288
outer loop
vertex 1.348107 7.117217 -2.031706
vertex 1.432727 6.615110 -2.158349
vertex 0.978875 6.615110 -2.400938
endloop
endfacet
facet normal 0.365101 0.632563 -0.683056
outer loop
vertex 0.825934 7.579961 -2.031706
vertex 0.698551 7.985560 -1.724178
vertex 1.025761 7.985560 -1.549281
endloop
endfacet
facet normal 0.365101 0.632561 -0.683058
outer loop
vertex 1.025761 7.985560 -1.549281
vertex 1.210692 7.579961 -1.826049
vertex 0.825934 7.579961 -2.031706
endloop
endfacet
facet normal 0.223050 0.880972 -0.417298
outer loop
vertex 0.543335 8.318426 -1.349454
vertex 0.366251 8.565768 -0.921934
vertex 0.543335 8.565768 -0.827280
endloop
endfacet
facet normal 0.223050 0.880973 -0.417295
outer loop
vertex 0.543335 8.565768 -0.827280
vertex 0.800422 8.318426 -1.212038
vertex 0.543335 8.318426 -1.349454
endloop
endfacet
facet normal 0.631367 0.097550 -0.769324
outer loop
vertex 1.461300 6.092937 -2.201112
vertex 1.432727 6.615110 -2.158349
vertex 1.830533 6.615110 -1.831879
endloop
endfacet
facet normal 0.631368 0.097551 -0.769324
outer loop
vertex 1.830533 6.615110 -1.831879
vertex 1.866899 6.092937 -1.868245
vertex 1.461300 6.092937 -2.201112
endloop
endfacet
facet normal 0.560084 0.469629 -0.682462
outer loop
vertex 1.348107 7.117217 -2.031706
vertex 1.210692 7.579961 -1.826049
vertex 1.547935 7.579961 -1.549280
endloop
endfacet
facet normal 0.560082 0.469629 -0.682463
outer loop
vertex 1.547935 7.579961 -1.549280
vertex 1.722832 7.117217 -1.724178
vertex 1.348107 7.117217 -2.031706
endloop
endfacet
facet normal 0.403615 0.771505 -0.491808
outer loop
vertex 1.025761 7.985560 -1.549281
vertex 0.800422 8.318426 -1.212038
vertex 1.025761 8.318426 -1.027107
endloop
endfacet
facet normal 0.403615 0.771507 -0.491804
outer loop
vertex 1.025761 8.318426 -1.027107
vertex 1.312562 7.985560 -1.313909
vertex 1.025761 7.985560 -1.549281
endloop
endfacet
facet normal 0.184970 0.956548 -0.225392
outer loop
vertex 0.543335 8.565768 -0.827280
vertex 0.264380 8.718081 -0.409794
vertex 0.343509 8.718081 -0.344854
endloop
endfacet
facet normal 0.184970 0.956550 -0.225385
outer loop
vertex 0.343509 8.718081 -0.344854
vertex 0.698551 8.565768 -0.699898
vertex 0.543335 8.565768 -0.827280
endloop
endfacet
facet normal 0.607321 0.289004 -0.740025
outer loop
vertex 1.432727 6.615110 -2.158349
vertex 1.348107 7.117217 -2.031706
vertex 1.722832 7.117217 -1.724178
endloop
endfacet
facet normal 0.607323 0.289003 -0.740024
outer loop
vertex 1.722832 7.117217 -1.724178
vertex 1.830533 6.615110 -1.831879
vertex 1.432727 6.615110 -2.158349
endloop
endfacet
facet normal 0.491344 0.632562 -0.598704
outer loop
vertex 1.210692 7.579961 -1.826049
vertex 1.025761 7.985560 -1.549281
vertex 1.312562 7.985560 -1.313909
endloop
endfacet
facet normal 0.491344 0.632562 -0.598704
outer loop
vertex 1.312562 7.985560 -1.313909
vertex 1.547935 7.579961 -1.549280
vertex 1.210692 7.579961 -1.826049
endloop
endfacet
facet normal 0.300175 0.880972 -0.365765
outer loop
vertex 0.800422 8.318426 -1.212038
vertex 0.543335 8.565768 -0.827280
vertex 0.698551 8.565768 -0.699898
endloop
endfacet
facet normal 0.300175 0.880972 -0.365763
outer loop
vertex 0.698551 8.565768 -0.699898
vertex 1.025761 8.318426 -1.027107
vertex 0.800422 8.318426 -1.212038
endloop
endfacet
facet normal 0.769323 0.097551 -0.631368
outer loop
vertex 1.866899 6.092937 -1.868245
vertex 1.830533 6.615110 -1.831879
vertex 2.157003 6.615110 -1.434073
endloop
endfacet
facet normal 0.769324 0.097551 -0.631367
outer loop
vertex 2.157003 6.615110 -1.434073
vertex 2.199766 6.092937 -1.462646
vertex 1.866899 6.092937 -1.868245
endloop
endfacet
facet normal 0.682463 0.469629 -0.560083
outer loop
vertex 1.722832 7.117217 -1.724178
vertex 1.547935 7.579961 -1.549280
vertex 1.824703 7.579961 -1.212037
endloop
endfacet
facet normal 0.682463 0.469629 -0.560083
outer loop
vertex 1.824703 7.579961 -1.212037
vertex 2.030360 7.117217 -1.349454
vertex 1.722832 7.117217 -1.724178
endloop
endfacet
facet normal 0.491807 0.771505 -0.403616
outer loop
vertex 1.312562 7.985560 -1.313909
vertex 1.025761 8.318426 -1.027107
vertex 1.210692 8.318426 -0.801768
endloop
endfacet
facet normal 0.491806 0.771506 -0.403615
outer loop
vertex 1.210692 8.318426 -0.801768
vertex 1.547935 7.985560 -1.027107
vertex 1.312562 7.985560 -1.313909
endloop
endfacet
facet normal 0.225386 0.956549 -0.184975
outer loop
vertex 0.698551 8.565768 -0.699898
vertex 0.343509 8.718081 -0.344854
vertex 0.408448 8.718081 -0.265726
endloop
endfacet
facet normal 0.225387 0.956550 -0.184967
outer loop
vertex 0.408448 8.718081 -0.265726
vertex 0.825934 8.565768 -0.544682
vertex 0.698551 8.565768 -0.699898
endloop
endfacet
facet normal 0.740025 0.289003 -0.607322
outer loop
vertex 1.830533 6.615110 -1.831879
vertex 1.722832 7.117217 -1.724178
vertex 2.030360 7.117217 -1.349454
endloop
endfacet
facet normal 0.740025 0.289003 -0.607322
outer loop
vertex 2.030360 7.117217 -1.349454
vertex 2.157003 6.615110 -1.434073
vertex 1.830533 6.615110 -1.831879
endloop
endfacet
facet normal 0.598704 0.632562 -0.491343
outer loop
vertex 1.547935 7.579961 -1.549280
vertex 1.312562 7.985560 -1.313909
vertex 1.547935 7.985560 -1.027107
endloop
endfacet
facet normal 0.598704 0.632562 -0.491344
outer loop
vertex 1.547935 7.985560 -1.027107
vertex 1.824703 7.579961 -1.212037
vertex 1.547935 7.579961 -1.549280
endloop
endfacet
facet normal 0.365764 0.880972 -0.300175
outer loop
vertex 1.025761 8.318426 -1.027107
vertex 0.698551 8.565768 -0.699898
vertex 0.825934 8.565768 -0.544682
endloop
endfacet
facet normal 0.365764 0.880972 -0.300174
outer loop
vertex 0.825934 8.565768 -0.544682
vertex 1.210692 8.318426 -0.801768
vertex 1.025761 8.318426 -1.027107
endloop
endfacet
facet normal 0.877715 0.097551 -0.469149
outer loop
vertex 2.199766 6.092937 -1.462646
vertex 2.157003 6.615110 -1.434073
vertex 2.399592 6.615110 -0.980220
endloop
endfacet
facet normal 0.877716 0.097551 -0.469147
outer loop
vertex 2.399592 6.615110 -0.980220
vertex 2.447108 6.092937 -0.999902
vertex 2.199766 6.092937 -1.462646
endloop
endfacet
facet normal 0.778617 0.469628 -0.416179
outer loop
vertex 2.030360 7.117217 -1.349454
vertex 1.824703 7.579961 -1.212037
vertex 2.030360 7.579961 -0.827279
endloop
endfacet
facet normal 0.778616 0.469630 -0.416178
outer loop
vertex 2.030360 7.579961 -0.827279
vertex 2.258874 7.117217 -0.921933
vertex 2.030360 7.117217 -1.349454
endloop
endfacet
facet normal 0.561098 0.771506 -0.299913
outer loop
vertex 1.547935 7.985560 -1.027107
vertex 1.210692 8.318426 -0.801768
vertex 1.348107 8.318426 -0.544681
endloop
endfacet
facet normal 0.561098 0.771506 -0.299913
outer loop
vertex 1.348107 8.318426 -0.544681
vertex 1.722832 7.985560 -0.699897
vertex 1.547935 7.985560 -1.027107
endloop
endfacet
facet normal 0.257142 0.956549 -0.137449
outer loop
vertex 0.825934 8.565768 -0.544682
vertex 0.408448 8.718081 -0.265726
vertex 0.456702 8.718081 -0.175449
endloop
endfacet
facet normal 0.257142 0.956550 -0.137445
outer loop
vertex 0.456702 8.718081 -0.175449
vertex 0.920588 8.565768 -0.367597
vertex 0.825934 8.565768 -0.544682
endloop
endfacet
facet normal 0.844288 0.289004 -0.451281
outer loop
vertex 2.157003 6.615110 -1.434073
vertex 2.030360 7.117217 -1.349454
vertex 2.258874 7.117217 -0.921933
endloop
endfacet
facet normal 0.844289 0.289002 -0.451281
outer loop
vertex 2.258874 7.117217 -0.921933
vertex 2.399592 6.615110 -0.980220
vertex 2.157003 6.615110 -1.434073
endloop
endfacet
facet normal 0.683057 0.632562 -0.365100
outer loop
vertex 1.824703 7.579961 -1.212037
vertex 1.547935 7.985560 -1.027107
vertex 1.722832 7.985560 -0.699897
endloop
endfacet
facet normal 0.683057 0.632562 -0.365101
outer loop
vertex 1.722832 7.985560 -0.699897
vertex 2.030360 7.579961 -0.827279
vertex 1.824703 7.579961 -1.212037
endloop
endfacet
facet normal 0.417298 0.880972 -0.223047
outer loop
vertex 1.210692 8.318426 -0.801768
vertex 0.825934 8.565768 -0.544682
vertex 0.920588 8.565768 -0.367597
endloop
endfacet
facet normal 0.417297 0.880972 -0.223050
outer loop
vertex 0.920588 8.565768 -0.367597
vertex 1.348107 8.318426 -0.544681
vertex 1.210692 8.318426 -0.801768
endloop
endfacet
facet normal 0.952376 0.097550 -0.288900
outer loop
vertex 2.447108 6.092937 -0.999902
vertex 2.399592 6.615110 -0.980220
vertex 2.548978 6.615110 -0.487761
endloop
endfacet
facet normal 0.952376 0.097552 -0.288900
outer loop
vertex 2.548978 6.615110 -0.487761
vertex 2.599420 6.092937 -0.497795
vertex 2.447108 6.092937 -0.999902
endloop
endfacet
facet normal 0.844848 0.469629 -0.256282
outer loop
vertex 2.258874 7.117217 -0.921933
vertex 2.030360 7.579961 -0.827279
vertex 2.157003 7.579961 -0.409793
endloop
endfacet
facet normal 0.844849 0.469629 -0.256281
outer loop
vertex 2.157003 7.579961 -0.409793
vertex 2.399592 7.117217 -0.458047
vertex 2.258874 7.117217 -0.921933
endloop
endfacet
facet normal 0.608827 0.771506 -0.184685
outer loop
vertex 1.722832 7.985560 -0.699897
vertex 1.348107 8.318426 -0.544681
vertex 1.432728 8.318426 -0.265726
endloop
endfacet
facet normal 0.608827 0.771506 -0.184685
outer loop
vertex 1.432728 8.318426 -0.265726
vertex 1.830533 7.985560 -0.344854
vertex 1.722832 7.985560 -0.699897
endloop
endfacet
facet normal 0.279015 0.956550 -0.084635
outer loop
vertex 0.920588 8.565768 -0.367597
vertex 0.456702 8.718081 -0.175449
vertex 0.486416 8.718081 -0.077493
endloop
endfacet
facet normal 0.279015 0.956549 -0.084640
outer loop
vertex 0.486416 8.718081 -0.077493
vertex 0.978875 8.565768 -0.175449
vertex 0.920588 8.565768 -0.367597
endloop
endfacet
facet normal 0.916105 0.289005 -0.277898
outer loop
vertex 2.399592 6.615110 -0.980220
vertex 2.258874 7.117217 -0.921933
vertex 2.399592 7.117217 -0.458047
endloop
endfacet
facet normal 0.916106 0.289002 -0.277898
outer loop
vertex 2.399592 7.117217 -0.458047
vertex 2.548978 6.615110 -0.487761
vertex 2.399592 6.615110 -0.980220
endloop
endfacet
facet normal 0.741160 0.632562 -0.224829
outer loop
vertex 2.030360 7.579961 -0.827279
vertex 1.722832 7.985560 -0.699897
vertex 1.830533 7.985560 -0.344854
endloop
endfacet
facet normal 0.741159 0.632562 -0.224828
outer loop
vertex 1.830533 7.985560 -0.344854
vertex 2.157003 7.579961 -0.409793
vertex 2.030360 7.579961 -0.827279
endloop
endfacet
facet normal 0.452794 0.880972 -0.137352
outer loop
vertex 1.348107 8.318426 -0.544681
vertex 0.920588 8.565768 -0.367597
vertex 0.978875 8.565768 -0.175449
endloop
endfacet
facet normal 0.452794 0.880972 -0.137355
outer loop
vertex 0.978875 8.565768 -0.175449
vertex 1.432728 8.318426 -0.265726
vertex 1.348107 8.318426 -0.544681
endloop
endfacet
facet normal 0.990438 0.097551 -0.097549
outer loop
vertex 2.599420 6.092937 -0.497795
vertex 2.548978 6.615110 -0.487761
vertex 2.599419 6.615110 0.024379
endloop
endfacet
facet normal 0.990438 0.097550 -0.097549
outer loop
vertex 2.599419 6.615110 0.024379
vertex 2.650849 6.092937 0.024379
vertex 2.599420 6.092937 -0.497795
endloop
endfacet
facet normal 0.878613 0.469629 -0.086535
outer loop
vertex 2.399592 7.117217 -0.458047
vertex 2.157003 7.579961 -0.409793
vertex 2.199765 7.579961 0.024379
endloop
endfacet
facet normal 0.878612 0.469630 -0.086536
outer loop
vertex 2.199765 7.579961 0.024379
vertex 2.447107 7.117217 0.024378
vertex 2.399592 7.117217 -0.458047
endloop
endfacet
facet normal 0.633159 0.771506 -0.062362
outer loop
vertex 1.830533 7.985560 -0.344854
vertex 1.432728 8.318426 -0.265726
vertex 1.461300 8.318426 0.024378
endloop
endfacet
facet normal 0.633159 0.771506 -0.062361
outer loop
vertex 1.461300 8.318426 0.024378
vertex 1.866899 7.985560 0.024379
vertex 1.830533 7.985560 -0.344854
endloop
endfacet
facet normal 0.290166 0.956549 -0.028579
outer loop
vertex 0.978875 8.565768 -0.175449
vertex 0.486416 8.718081 -0.077493
vertex 0.496450 8.718081 0.024378
endloop
endfacet
facet normal 0.290166 0.956550 -0.028578
outer loop
vertex 0.496450 8.718081 0.024378
vertex 0.998556 8.565768 0.024378
vertex 0.978875 8.565768 -0.175449
endloop
endfacet
facet normal 0.952718 0.289003 -0.093835
outer loop
vertex 2.548978 6.615110 -0.487761
vertex 2.399592 7.117217 -0.458047
vertex 2.447107 7.117217 0.024378
endloop
endfacet
facet normal 0.952718 0.289004 -0.093835
outer loop
vertex 2.447107 7.117217 0.024378
vertex 2.599419 6.615110 0.024379
vertex 2.548978 6.615110 -0.487761
endloop
endfacet
facet normal 0.770781 0.632561 -0.075916
outer loop
vertex 2.157003 7.579961 -0.409793
vertex 1.830533 7.985560 -0.344854
vertex 1.866899 7.985560 0.024379
endloop
endfacet
facet normal 0.770780 0.632562 -0.075914
outer loop
vertex 1.866899 7.985560 0.024379
vertex 2.199765 7.579961 0.024379
vertex 2.157003 7.579961 -0.409793
endloop
endfacet
facet normal 0.470890 0.880972 -0.046377
outer loop
vertex 1.432728 8.318426 -0.265726
vertex 0.978875 8.565768 -0.175449
vertex 0.998556 8.565768 0.024378
endloop
endfacet
facet normal 0.470890 0.880972 -0.046378
outer loop
vertex 0.998556 8.565768 0.024378
vertex 1.461300 8.318426 0.024378
vertex 1.432728 8.318426 -0.265726
endloop
endfacet
facet normal 0.990438 0.097552 0.097550
outer loop
vertex 2.650849 6.092937 0.024379
vertex 2.599419 6.615110 0.024379
vertex 2.548977 6.615110 0.536519
endloop
endfacet
facet normal 0.990438 0.097551 0.097550
outer loop
vertex 2.548977 6.615110 0.536519
vertex 2.599420 6.092937 0.546552
vertex 2.650849 6.092937 0.024379
endloop
endfacet
facet normal 0.878613 0.469629 0.086535
outer loop
vertex 2.447107 7.117217 0.024378
vertex 2.199765 7.579961 0.024379
vertex 2.157002 7.579961 0.458550
endloop
endfacet
facet normal 0.878612 0.469630 0.086536
outer loop
vertex 2.157002 7.579961 0.458550
vertex 2.399592 7.117217 0.506804
vertex 2.447107 7.117217 0.024378
endloop
endfacet
facet normal 0.633159 0.771506 0.062362
outer loop
vertex 1.866899 7.985560 0.024379
vertex 1.461300 8.318426 0.024378
vertex 1.432728 8.318426 0.314483
endloop
endfacet
facet normal 0.633159 0.771506 0.062362
outer loop
vertex 1.432728 8.318426 0.314483
vertex 1.830533 7.985560 0.393611
vertex 1.866899 7.985560 0.024379
endloop
endfacet
facet normal 0.290166 0.956549 0.028581
outer loop
vertex 0.998556 8.565768 0.024378
vertex 0.496450 8.718081 0.024378
vertex 0.486416 8.718081 0.126250
endloop
endfacet
facet normal 0.290166 0.956550 0.028577
outer loop
vertex 0.486416 8.718081 0.126250
vertex 0.978875 8.565768 0.224206
vertex 0.998556 8.565768 0.024378
endloop
endfacet
facet normal 0.952719 0.289002 0.093835
outer loop
vertex 2.599419 6.615110 0.024379
vertex 2.447107 7.117217 0.024378
vertex 2.399592 7.117217 0.506804
endloop
endfacet
facet normal 0.952719 0.289001 0.093836
outer loop
vertex 2.399592 7.117217 0.506804
vertex 2.548977 6.615110 0.536519
vertex 2.599419 6.615110 0.024379
endloop
endfacet
facet normal 0.770781 0.632561 0.075916
outer loop
vertex 2.199765 7.579961 0.024379
vertex 1.866899 7.985560 0.024379
vertex 1.830533 7.985560 0.393611
endloop
endfacet
facet normal 0.770780 0.632562 0.075915
outer loop
vertex 1.830533 7.985560 0.393611
vertex 2.157002 7.579961 0.458550
vertex 2.199765 7.579961 0.024379
endloop
endfacet
facet normal 0.470890 0.880972 0.046378
outer loop
vertex 1.461300 8.318426 0.024378
vertex 0.998556 8.565768 0.024378
vertex 0.978875 8.565768 0.224206
endloop
endfacet
facet normal 0.470889 0.880972 0.046378
outer loop
vertex 0.978875 8.565768 0.224206
vertex 1.432728 8.318426 0.314483
vertex 1.461300 8.318426 0.024378
endloop
endfacet
facet normal 0.952376 0.097550 0.288900
outer loop
vertex 2.599420 6.092937 0.546552
vertex 2.548977 6.615110 0.536519
vertex 2.399592 6.615110 1.028978
endloop
endfacet
facet normal 0.952376 0.097552 0.288901
outer loop
vertex 2.399592 6.615110 1.028978
vertex 2.447107 6.092937 1.048659
vertex 2.599420 6.092937 0.546552
endloop
endfacet
facet normal 0.844848 0.469629 0.256282
outer loop
vertex 2.399592 7.117217 0.506804
vertex 2.157002 7.579961 0.458550
vertex 2.030359 7.579961 0.876037
endloop
endfacet
facet normal 0.844848 0.469629 0.256281
outer loop
vertex 2.030359 7.579961 0.876037
vertex 2.258874 7.117217 0.970690
vertex 2.399592 7.117217 0.506804
endloop
endfacet
facet normal 0.608827 0.771506 0.184685
outer loop
vertex 1.830533 7.985560 0.393611
vertex 1.432728 8.318426 0.314483
vertex 1.348107 8.318426 0.593438
endloop
endfacet
facet normal 0.608827 0.771506 0.184686
outer loop
vertex 1.348107 8.318426 0.593438
vertex 1.722831 7.985560 0.748654
vertex 1.830533 7.985560 0.393611
endloop
endfacet
facet normal 0.279015 0.956549 0.084646
outer loop
vertex 0.978875 8.565768 0.224206
vertex 0.486416 8.718081 0.126250
vertex 0.456701 8.718081 0.224206
endloop
endfacet
facet normal 0.279015 0.956550 0.084635
outer loop
vertex 0.456701 8.718081 0.224206
vertex 0.920587 8.565768 0.416354
vertex 0.978875 8.565768 0.224206
endloop
endfacet
facet normal 0.916106 0.289004 0.277898
outer loop
vertex 2.548977 6.615110 0.536519
vertex 2.399592 7.117217 0.506804
vertex 2.258874 7.117217 0.970690
endloop
endfacet
facet normal 0.916106 0.289002 0.277897
outer loop
vertex 2.258874 7.117217 0.970690
vertex 2.399592 6.615110 1.028978
vertex 2.548977 6.615110 0.536519
endloop
endfacet
facet normal 0.741160 0.632562 0.224829
outer loop
vertex 2.157002 7.579961 0.458550
vertex 1.830533 7.985560 0.393611
vertex 1.722831 7.985560 0.748654
endloop
endfacet
facet normal 0.741160 0.632562 0.224828
outer loop
vertex 1.722831 7.985560 0.748654
vertex 2.030359 7.579961 0.876037
vertex 2.157002 7.579961 0.458550
endloop
endfacet
facet normal 0.452794 0.880972 0.137353
outer loop
vertex 1.432728 8.318426 0.314483
vertex 0.978875 8.565768 0.224206
vertex 0.920587 8.565768 0.416354
endloop
endfacet
facet normal 0.452794 0.880972 0.137355
outer loop
vertex 0.920587 8.565768 0.416354
vertex 1.348107 8.318426 0.593438
vertex 1.432728 8.318426 0.314483
endloop
endfacet
facet normal 0.877715 0.097551 0.469148
outer loop
vertex 2.447107 6.092937 1.048659
vertex 2.399592 6.615110 1.028978
vertex 2.157002 6.615110 1.482830
endloop
endfacet
facet normal 0.877715 0.097551 0.469149
outer loop
vertex 2.157002 6.615110 1.482830
vertex 2.199765 6.092937 1.511403
vertex 2.447107 6.092937 1.048659
endloop
endfacet
facet normal 0.778616 0.469630 0.416179
outer loop
vertex 2.258874 7.117217 0.970690
vertex 2.030359 7.579961 0.876037
vertex 1.824702 7.579961 1.260794
endloop
endfacet
facet normal 0.778615 0.469630 0.416180
outer loop
vertex 1.824702 7.579961 1.260794
vertex 2.030360 7.117217 1.398210
vertex 2.258874 7.117217 0.970690
endloop
endfacet
facet normal 0.561098 0.771506 0.299912
outer loop
vertex 1.722831 7.985560 0.748654
vertex 1.348107 8.318426 0.593438
vertex 1.210692 8.318426 0.850525
endloop
endfacet
facet normal 0.561098 0.771505 0.299914
outer loop
vertex 1.210692 8.318426 0.850525
vertex 1.547934 7.985560 1.075864
vertex 1.722831 7.985560 0.748654
endloop
endfacet
facet normal 0.257142 0.956549 0.137449
outer loop
vertex 0.920587 8.565768 0.416354
vertex 0.456701 8.718081 0.224206
vertex 0.408447 8.718081 0.314483
endloop
endfacet
facet normal 0.257142 0.956550 0.137444
outer loop
vertex 0.408447 8.718081 0.314483
vertex 0.825934 8.565768 0.593438
vertex 0.920587 8.565768 0.416354
endloop
endfacet
facet normal 0.844289 0.289003 0.451281
outer loop
vertex 2.399592 6.615110 1.028978
vertex 2.258874 7.117217 0.970690
vertex 2.030360 7.117217 1.398210
endloop
endfacet
facet normal 0.844288 0.289003 0.451283
outer loop
vertex 2.030360 7.117217 1.398210
vertex 2.157002 6.615110 1.482830
vertex 2.399592 6.615110 1.028978
endloop
endfacet
facet normal 0.683057 0.632561 0.365101
outer loop
vertex 2.030359 7.579961 0.876037
vertex 1.722831 7.985560 0.748654
vertex 1.547934 7.985560 1.075864
endloop
endfacet
facet normal 0.683057 0.632561 0.365103
outer loop
vertex 1.547934 7.985560 1.075864
vertex 1.824702 7.579961 1.260794
vertex 2.030359 7.579961 0.876037
endloop
endfacet
facet normal 0.417297 0.880972 0.223052
outer loop
vertex 1.348107 8.318426 0.593438
vertex 0.920587 8.565768 0.416354
vertex 0.825934 8.565768 0.593438
endloop
endfacet
facet normal 0.417297 0.880973 0.223047
outer loop
vertex 0.825934 8.565768 0.593438
vertex 1.210692 8.318426 0.850525
vertex 1.348107 8.318426 0.593438
endloop
endfacet
facet normal 0.769323 0.097551 0.631368
outer loop
vertex 2.199765 6.092937 1.511403
vertex 2.157002 6.615110 1.482830
vertex 1.830532 6.615110 1.880635
endloop
endfacet
facet normal 0.769323 0.097551 0.631368
outer loop
vertex 1.830532 6.615110 1.880635
vertex 1.866899 6.092937 1.917002
vertex 2.199765 6.092937 1.511403
endloop
endfacet
facet normal 0.682463 0.469630 0.560083
outer loop
vertex 2.030360 7.117217 1.398210
vertex 1.824702 7.579961 1.260794
vertex 1.547933 7.579961 1.598037
endloop
endfacet
facet normal 0.682463 0.469630 0.560083
outer loop
vertex 1.547933 7.579961 1.598037
vertex 1.722831 7.117217 1.772934
vertex 2.030360 7.117217 1.398210
endloop
endfacet
facet normal 0.491806 0.771506 0.403616
outer loop
vertex 1.547934 7.985560 1.075864
vertex 1.210692 8.318426 0.850525
vertex 1.025761 8.318426 1.075864
endloop
endfacet
facet normal 0.491806 0.771506 0.403615
outer loop
vertex 1.025761 8.318426 1.075864
vertex 1.312562 7.985560 1.362665
vertex 1.547934 7.985560 1.075864
endloop
endfacet
facet normal 0.225387 0.956550 0.184968
outer loop
vertex 0.825934 8.565768 0.593438
vertex 0.408447 8.718081 0.314483
vertex 0.343508 8.718081 0.393611
endloop
endfacet
facet normal 0.225387 0.956549 0.184971
outer loop
vertex 0.343508 8.718081 0.393611
vertex 0.698551 8.565768 0.748654
vertex 0.825934 8.565768 0.593438
endloop
endfacet
facet normal 0.740025 0.289003 0.607322
outer loop
vertex 2.157002 6.615110 1.482830
vertex 2.030360 7.117217 1.398210
vertex 1.722831 7.117217 1.772934
endloop
endfacet
facet normal 0.740024 0.289003 0.607324
outer loop
vertex 1.722831 7.117217 1.772934
vertex 1.830532 6.615110 1.880635
vertex 2.157002 6.615110 1.482830
endloop
endfacet
facet normal 0.598705 0.632562 0.491343
outer loop
vertex 1.824702 7.579961 1.260794
vertex 1.547934 7.985560 1.075864
vertex 1.312562 7.985560 1.362665
endloop
endfacet
facet normal 0.598704 0.632561 0.491345
outer loop
vertex 1.312562 7.985560 1.362665
vertex 1.547933 7.579961 1.598037
vertex 1.824702 7.579961 1.260794
endloop
endfacet
facet normal 0.365764 0.880972 0.300174
outer loop
vertex 1.210692 8.318426 0.850525
vertex 0.825934 8.565768 0.593438
vertex 0.698551 8.565768 0.748654
endloop
endfacet
facet normal 0.365764 0.880972 0.300174
outer loop
vertex 0.698551 8.565768 0.748654
vertex 1.025761 8.318426 1.075864
vertex 1.210692 8.318426 0.850525
endloop
endfacet
facet normal 0.631367 0.097552 0.769324
outer loop
vertex 1.866899 6.092937 1.917002
vertex 1.830532 6.615110 1.880635
vertex 1.432726 6.615110 2.207105
endloop
endfacet
facet normal 0.631368 0.097551 0.769323
outer loop
vertex 1.432726 6.615110 2.207105
vertex 1.461300 6.092937 2.249868
vertex 1.866899 6.092937 1.917002
endloop
endfacet
facet normal 0.560083 0.469630 0.682463
outer loop
vertex 1.722831 7.117217 1.772934
vertex 1.547933 7.579961 1.598037
vertex 1.210690 7.579961 1.874805
endloop
endfacet
facet normal 0.560082 0.469630 0.682463
outer loop
vertex 1.210690 7.579961 1.874805
vertex 1.348107 7.117217 2.080463
vertex 1.722831 7.117217 1.772934
endloop
endfacet
facet normal 0.403615 0.771506 0.491806
outer loop
vertex 1.312562 7.985560 1.362665
vertex 1.025761 8.318426 1.075864
vertex 0.800422 8.318426 1.260794
endloop
endfacet
facet normal 0.403615 0.771506 0.491807
outer loop
vertex 0.800422 8.318426 1.260794
vertex 1.025761 7.985560 1.598037
vertex 1.312562 7.985560 1.362665
endloop
endfacet
facet normal 0.184970 0.956548 0.225392
outer loop
vertex 0.698551 8.565768 0.748654
vertex 0.343508 8.718081 0.393611
vertex 0.264380 8.718081 0.458550
endloop
endfacet
facet normal 0.184970 0.956550 0.225385
outer loop
vertex 0.264380 8.718081 0.458550
vertex 0.543335 8.565768 0.876037
vertex 0.698551 8.565768 0.748654
endloop
endfacet
facet normal 0.607323 0.289002 0.740025
outer loop
vertex 1.830532 6.615110 1.880635
vertex 1.722831 7.117217 1.772934
vertex 1.348107 7.117217 2.080463
endloop
endfacet
facet normal 0.607323 0.289002 0.740025
outer loop
vertex 1.348107 7.117217 2.080463
vertex 1.432726 6.615110 2.207105
vertex 1.830532 6.615110 1.880635
endloop
endfacet
facet normal 0.491343 0.632561 0.598706
outer loop
vertex 1.547933 7.579961 1.598037
vertex 1.312562 7.985560 1.362665
vertex 1.025761 7.985560 1.598037
endloop
endfacet
facet normal 0.491344 0.632562 0.598703
outer loop
vertex 1.025761 7.985560 1.598037
vertex 1.210690 7.579961 1.874805
vertex 1.547933 7.579961 1.598037
endloop
endfacet
facet normal 0.300175 0.880972 0.365765
outer loop
vertex 1.025761 8.318426 1.075864
vertex 0.698551 8.565768 0.748654
vertex 0.543335 8.565768 0.876037
endloop
endfacet
facet normal 0.300175 0.880974 0.365760
outer loop
vertex 0.543335 8.565768 0.876037
vertex 0.800422 8.318426 1.260794
vertex 1.025761 8.318426 1.075864
endloop
endfacet
facet normal 0.469148 0.097551 0.877715
outer loop
vertex 1.461300 6.092937 2.249868
vertex 1.432726 6.615110 2.207105
vertex 0.978874 6.615110 2.449695
endloop
endfacet
facet normal 0.469149 0.097551 0.877715
outer loop
vertex 0.978874 6.615110 2.449695
vertex 0.998555 6.092937 2.497210
vertex 1.461300 6.092937 2.249868
endloop
endfacet
facet normal 0.416179 0.469630 0.778616
outer loop
vertex 1.348107 7.117217 2.080463
vertex 1.210690 7.579961 1.874805
vertex 0.825933 7.579961 2.080462
endloop
endfacet
facet normal 0.416180 0.469629 0.778616
outer loop
vertex 0.825933 7.579961 2.080462
vertex 0.920587 7.117217 2.308977
vertex 1.348107 7.117217 2.080463
endloop
endfacet
facet normal 0.299913 0.771506 0.561098
outer loop
vertex 1.025761 7.985560 1.598037
vertex 0.800422 8.318426 1.260794
vertex 0.543335 8.318426 1.398210
endloop
endfacet
facet normal 0.299913 0.771505 0.561099
outer loop
vertex 0.543335 8.318426 1.398210
vertex 0.698551 7.985560 1.772934
vertex 1.025761 7.985560 1.598037
endloop
endfacet
facet normal 0.137445 0.956548 0.257146
outer loop
vertex 0.543335 8.565768 0.876037
vertex 0.264380 8.718081 0.458550
vertex 0.174103 8.718081 0.506804
endloop
endfacet
facet normal 0.137445 0.956550 0.257139
outer loop
vertex 0.174103 8.718081 0.506804
vertex 0.366250 8.565768 0.970690
vertex 0.543335 8.565768 0.876037
endloop
endfacet
facet normal 0.451282 0.289003 0.844288
outer loop
vertex 1.432726 6.615110 2.207105
vertex 1.348107 7.117217 2.080463
vertex 0.920587 7.117217 2.308977
endloop
endfacet
facet normal 0.451282 0.289002 0.844288
outer loop
vertex 0.920587 7.117217 2.308977
vertex 0.978874 6.615110 2.449695
vertex 1.432726 6.615110 2.207105
endloop
endfacet
facet normal 0.365102 0.632563 0.683055
outer loop
vertex 1.210690 7.579961 1.874805
vertex 1.025761 7.985560 1.598037
vertex 0.698551 7.985560 1.772934
endloop
endfacet
facet normal 0.365101 0.632560 0.683058
outer loop
vertex 0.698551 7.985560 1.772934
vertex 0.825933 7.579961 2.080462
vertex 1.210690 7.579961 1.874805
endloop
endfacet
facet normal 0.223050 0.880970 0.417302
outer loop
vertex 0.800422 8.318426 1.260794
vertex 0.543335 8.565768 0.876037
vertex 0.366250 8.565768 0.970690
endloop
endfacet
facet normal 0.223050 0.880973 0.417295
outer loop
vertex 0.366250 8.565768 0.970690
vertex 0.543335 8.318426 1.398210
vertex 0.800422 8.318426 1.260794
endloop
endfacet
facet normal 0.288899 0.097551 0.952377
outer loop
vertex 0.998555 6.092937 2.497210
vertex 0.978874 6.615110 2.449695
vertex 0.486415 6.615110 2.599080
endloop
endfacet
facet normal 0.288900 0.097551 0.952376
outer loop
vertex 0.486415 6.615110 2.599080
vertex 0.496449 6.092937 2.649523
vertex 0.998555 6.092937 2.497210
endloop
endfacet
facet normal 0.256281 0.469630 0.844848
outer loop
vertex 0.920587 7.117217 2.308977
vertex 0.825933 7.579961 2.080462
vertex 0.408446 7.579961 2.207105
endloop
endfacet
facet normal 0.256281 0.469631 0.844847
outer loop
vertex 0.408446 7.579961 2.207105
vertex 0.456701 7.117217 2.449695
vertex 0.920587 7.117217 2.308977
endloop
endfacet
facet normal 0.184686 0.771506 0.608827
outer loop
vertex 0.698551 7.985560 1.772934
vertex 0.543335 8.318426 1.398210
vertex 0.264380 8.318426 1.482830
endloop
endfacet
facet normal 0.184686 0.771506 0.608826
outer loop
vertex 0.264380 8.318426 1.482830
vertex 0.343508 7.985560 1.880635
vertex 0.698551 7.985560 1.772934
endloop
endfacet
facet normal 0.084639 0.956550 0.279014
outer loop
vertex 0.366250 8.565768 0.970690
vertex 0.174103 8.718081 0.506804
vertex 0.076147 8.718081 0.536519
endloop
endfacet
facet normal 0.084638 0.956550 0.279014
outer loop
vertex 0.076147 8.718081 0.536519
vertex 0.174103 8.565768 1.028977
vertex 0.366250 8.565768 0.970690
endloop
endfacet
facet normal 0.277897 0.289001 0.916107
outer loop
vertex 0.978874 6.615110 2.449695
vertex 0.920587 7.117217 2.308977
vertex 0.456701 7.117217 2.449695
endloop
endfacet
facet normal 0.277898 0.289003 0.916106
outer loop
vertex 0.456701 7.117217 2.449695
vertex 0.486415 6.615110 2.599080
vertex 0.978874 6.615110 2.449695
endloop
endfacet
facet normal 0.224829 0.632564 0.741158
outer loop
vertex 0.825933 7.579961 2.080462
vertex 0.698551 7.985560 1.772934
vertex 0.343508 7.985560 1.880635
endloop
endfacet
facet normal 0.224829 0.632561 0.741161
outer loop
vertex 0.343508 7.985560 1.880635
vertex 0.408446 7.579961 2.207105
vertex 0.825933 7.579961 2.080462
endloop
endfacet
facet normal 0.137353 0.880973 0.452792
outer loop
vertex 0.543335 8.318426 1.398210
vertex 0.366250 8.565768 0.970690
vertex 0.174103 8.565768 1.028977
endloop
endfacet
facet normal 0.137353 0.880971 0.452795
outer loop
vertex 0.174103 8.565768 1.028977
vertex 0.264380 8.318426 1.482830
vertex 0.543335 8.318426 1.398210
endloop
endfacet
facet normal 0.097549 0.097551 0.990438
outer loop
vertex 0.496449 6.092937 2.649523
vertex 0.486415 6.615110 2.599080
vertex -0.025725 6.615110 2.649522
endloop
endfacet
facet normal 0.097549 0.097551 0.990438
outer loop
vertex -0.025725 6.615110 2.649522
vertex -0.025725 6.092937 2.700952
vertex 0.496449 6.092937 2.649523
endloop
endfacet
facet normal 0.086536 0.469630 0.878612
outer loop
vertex 0.456701 7.117217 2.449695
vertex 0.408446 7.579961 2.207105
vertex -0.025725 7.579961 2.249867
endloop
endfacet
facet normal 0.086535 0.469630 0.878612
outer loop
vertex -0.025725 7.579961 2.249867
vertex -0.025725 7.117217 2.497210
vertex 0.456701 7.117217 2.449695
endloop
endfacet
facet normal 0.062360 0.771505 0.633160
outer loop
vertex 0.343508 7.985560 1.880635
vertex 0.264380 8.318426 1.482830
vertex -0.025725 8.318426 1.511403
endloop
endfacet
facet normal 0.062361 0.771505 0.633159
outer loop
vertex -0.025725 8.318426 1.511403
vertex -0.025725 7.985560 1.917002
vertex 0.343508 7.985560 1.880635
endloop
endfacet
facet normal 0.028579 0.956550 0.290165
outer loop
vertex 0.174103 8.565768 1.028977
vertex 0.076147 8.718081 0.536519
vertex -0.025725 8.718081 0.546552
endloop
endfacet
facet normal 0.028579 0.956549 0.290167
outer loop
vertex -0.025725 8.718081 0.546552
vertex -0.025725 8.565768 1.048659
vertex 0.174103 8.565768 1.028977
endloop
endfacet
facet normal 0.093835 0.289003 0.952718
outer loop
vertex 0.486415 6.615110 2.599080
vertex 0.456701 7.117217 2.449695
vertex -0.025725 7.117217 2.497210
endloop
endfacet
facet normal 0.093834 0.289003 0.952719
outer loop
vertex -0.025725 7.117217 2.497210
vertex -0.025725 6.615110 2.649522
vertex 0.486415 6.615110 2.599080
endloop
endfacet
facet normal 0.075915 0.632562 0.770780
outer loop
vertex 0.408446 7.579961 2.207105
vertex 0.343508 7.985560 1.880635
vertex -0.025725 7.985560 1.917002
endloop
endfacet
facet normal 0.075916 0.632561 0.770781
outer loop
vertex -0.025725 7.985560 1.917002
vertex -0.025725 7.579961 2.249867
vertex 0.408446 7.579961 2.207105
endloop
endfacet
facet normal 0.046379 0.880974 0.470887
outer loop
vertex 0.264380 8.318426 1.482830
vertex 0.174103 8.565768 1.028977
vertex -0.025725 8.565768 1.048659
endloop
endfacet
facet normal 0.046378 0.880972 0.470890
outer loop
vertex -0.025725 8.565768 1.048659
vertex -0.025725 8.318426 1.511403
vertex 0.264380 8.318426 1.482830
endloop
endfacet
facet normal -0.097550 0.097551 0.990438
outer loop
vertex -0.025725 6.092937 2.700952
vertex -0.025725 6.615110 2.649522
vertex -0.537865 6.615110 2.599080
endloop
endfacet
facet normal -0.097550 0.097551 0.990438
outer loop
vertex -0.537865 6.615110 2.599080
vertex -0.547899 6.092937 2.649522
vertex -0.025725 6.092937 2.700952
endloop
endfacet
facet normal -0.086535 0.469630 0.878612
outer loop
vertex -0.025725 7.117217 2.497210
vertex -0.025725 7.579961 2.249867
vertex -0.459896 7.579961 2.207105
endloop
endfacet
facet normal -0.086536 0.469630 0.878612
outer loop
vertex -0.459896 7.579961 2.207105
vertex -0.508150 7.117217 2.449695
vertex -0.025725 7.117217 2.497210
endloop
endfacet
facet normal -0.062361 0.771506 0.633158
outer loop
vertex -0.025725 7.985560 1.917002
vertex -0.025725 8.318426 1.511403
vertex -0.315829 8.318426 1.482830
endloop
endfacet
facet normal -0.062361 0.771507 0.633158
outer loop
vertex -0.315829 8.318426 1.482830
vertex -0.394957 7.985560 1.880635
vertex -0.025725 7.985560 1.917002
endloop
endfacet
facet normal -0.028579 0.956549 0.290167
outer loop
vertex -0.025725 8.565768 1.048659
vertex -0.025725 8.718081 0.546552
vertex -0.127596 8.718081 0.536519
endloop
endfacet
facet normal -0.028579 0.956550 0.290163
outer loop
vertex -0.127596 8.718081 0.536519
vertex -0.225552 8.565768 1.028977
vertex -0.025725 8.565768 1.048659
endloop
endfacet
facet normal -0.093835 0.289003 0.952718
outer loop
vertex -0.025725 6.615110 2.649522
vertex -0.025725 7.117217 2.497210
vertex -0.508150 7.117217 2.449695
endloop
endfacet
facet normal -0.093835 0.289002 0.952719
outer loop
vertex -0.508150 7.117217 2.449695
vertex -0.537865 6.615110 2.599080
vertex -0.025725 6.615110 2.649522
endloop
endfacet
facet normal -0.075916 0.632562 0.770780
outer loop
vertex -0.025725 7.579961 2.249867
vertex -0.025725 7.985560 1.917002
vertex -0.394957 7.985560 1.880635
endloop
endfacet
facet normal -0.075916 0.632561 0.770781
outer loop
vertex -0.394957 7.985560 1.880635
vertex -0.459896 7.579961 2.207105
vertex -0.025725 7.579961 2.249867
endloop
endfacet
facet normal -0.046379 0.880971 0.470891
outer loop
vertex -0.025725 8.318426 1.511403
vertex -0.025725 8.565768 1.048659
vertex -0.225552 8.565768 1.028977
endloop
endfacet
facet normal -0.046379 0.880972 0.470890
outer loop
vertex -0.225552 8.565768 1.028977
vertex -0.315829 8.318426 1.482830
vertex -0.025725 8.318426 1.511403
endloop
endfacet
facet normal -0.288901 0.097551 0.952376
outer loop
vertex -0.547899 6.092937 2.649522
vertex -0.537865 6.615110 2.599080
vertex -1.030324 6.615110 2.449694
endloop
endfacet
facet normal -0.288900 0.097551 0.952376
outer loop
vertex -1.030324 6.615110 2.449694
vertex -1.050005 6.092937 2.497209
vertex -0.547899 6.092937 2.649522
endloop
endfacet
facet normal -0.256282 0.469630 0.844848
outer loop
vertex -0.508150 7.117217 2.449695
vertex -0.459896 7.579961 2.207105
vertex -0.877383 7.579961 2.080462
endloop
endfacet
facet normal -0.256282 0.469630 0.844848
outer loop
vertex -0.877383 7.579961 2.080462
vertex -0.972036 7.117217 2.308977
vertex -0.508150 7.117217 2.449695
endloop
endfacet
facet normal -0.184686 0.771506 0.608827
outer loop
vertex -0.394957 7.985560 1.880635
vertex -0.315829 8.318426 1.482830
vertex -0.594784 8.318426 1.398210
endloop
endfacet
facet normal -0.184685 0.771505 0.608828
outer loop
vertex -0.594784 8.318426 1.398210
vertex -0.750000 7.985560 1.772934
vertex -0.394957 7.985560 1.880635
endloop
endfacet
facet normal -0.084638 0.956549 0.279016
outer loop
vertex -0.225552 8.565768 1.028977
vertex -0.127596 8.718081 0.536519
vertex -0.225552 8.718081 0.506804
endloop
endfacet
facet normal -0.084638 0.956550 0.279012
outer loop
vertex -0.225552 8.718081 0.506804
vertex -0.417700 8.565768 0.970690
vertex -0.225552 8.565768 1.028977
endloop
endfacet
facet normal -0.277897 0.289003 0.916106
outer loop
vertex -0.537865 6.615110 2.599080
vertex -0.508150 7.117217 2.449695
vertex -0.972036 7.117217 2.308977
endloop
endfacet
facet normal -0.277898 0.289001 0.916106
outer loop
vertex -0.972036 7.117217 2.308977
vertex -1.030324 6.615110 2.449694
vertex -0.537865 6.615110 2.599080
endloop
endfacet
facet normal -0.224829 0.632562 0.741159
outer loop
vertex -0.459896 7.579961 2.207105
vertex -0.394957 7.985560 1.880635
vertex -0.750000 7.985560 1.772934
endloop
endfacet
facet normal -0.224829 0.632562 0.741160
outer loop
vertex -0.750000 7.985560 1.772934
vertex -0.877383 7.579961 2.080462
vertex -0.459896 7.579961 2.207105
endloop
endfacet
facet normal -0.137352 0.880971 0.452796
outer loop
vertex -0.315829 8.318426 1.482830
vertex -0.225552 8.565768 1.028977
vertex -0.417700 8.565768 0.970690
endloop
endfacet
facet normal -0.137354 0.880972 0.452793
outer loop
vertex -0.417700 8.565768 0.970690
vertex -0.594784 8.318426 1.398210
vertex -0.315829 8.318426 1.482830
endloop
endfacet
facet normal -0.469150 0.097551 0.877714
outer loop
vertex -1.050005 6.092937 2.497209
vertex -1.030324 6.615110 2.449694
vertex -1.484176 6.615110 2.207104
endloop
endfacet
facet normal -0.469149 0.097551 0.877715
outer loop
vertex -1.484176 6.615110 2.207104
vertex -1.512749 6.092937 2.249867
vertex -1.050005 6.092937 2.497209
endloop
endfacet
facet normal -0.416179 0.469629 0.778616
outer loop
vertex -0.972036 7.117217 2.308977
vertex -0.877383 7.579961 2.080462
vertex -1.262140 7.579961 1.874804
endloop
endfacet
facet normal -0.416179 0.469631 0.778616
outer loop
vertex -1.262140 7.579961 1.874804
vertex -1.399556 7.117217 2.080463
vertex -0.972036 7.117217 2.308977
endloop
endfacet
facet normal -0.299914 0.771506 0.561098
outer loop
vertex -0.750000 7.985560 1.772934
vertex -0.594784 8.318426 1.398210
vertex -0.851871 8.318426 1.260794
endloop
endfacet
facet normal -0.299913 0.771506 0.561099
outer loop
vertex -0.851871 8.318426 1.260794
vertex -1.077210 7.985560 1.598037
vertex -0.750000 7.985560 1.772934
endloop
endfacet
facet normal -0.137445 0.956549 0.257142
outer loop
vertex -0.417700 8.565768 0.970690
vertex -0.225552 8.718081 0.506804
vertex -0.315829 8.718081 0.458550
endloop
endfacet
facet normal -0.137445 0.956550 0.257141
outer loop
vertex -0.315829 8.718081 0.458550
vertex -0.594784 8.565768 0.876036
vertex -0.417700 8.565768 0.970690
endloop
endfacet
facet normal -0.451281 0.289002 0.844289
outer loop
vertex -1.030324 6.615110 2.449694
vertex -0.972036 7.117217 2.308977
vertex -1.399556 7.117217 2.080463
endloop
endfacet
facet normal -0.451282 0.289002 0.844288
outer loop
vertex -1.399556 7.117217 2.080463
vertex -1.484176 6.615110 2.207104
vertex -1.030324 6.615110 2.449694
endloop
endfacet
facet normal -0.365102 0.632562 0.683056
outer loop
vertex -0.877383 7.579961 2.080462
vertex -0.750000 7.985560 1.772934
vertex -1.077210 7.985560 1.598037
endloop
endfacet
facet normal -0.365102 0.632561 0.683057
outer loop
vertex -1.077210 7.985560 1.598037
vertex -1.262140 7.579961 1.874804
vertex -0.877383 7.579961 2.080462
endloop
endfacet
facet normal -0.223050 0.880972 0.417296
outer loop
vertex -0.594784 8.318426 1.398210
vertex -0.417700 8.565768 0.970690
vertex -0.594784 8.565768 0.876036
endloop
endfacet
facet normal -0.223050 0.880973 0.417295
outer loop
vertex -0.594784 8.565768 0.876036
vertex -0.851871 8.318426 1.260794
vertex -0.594784 8.318426 1.398210
endloop
endfacet
facet normal -0.631368 0.097551 0.769323
outer loop
vertex -1.512749 6.092937 2.249867
vertex -1.484176 6.615110 2.207104
vertex -1.881981 6.615110 1.880634
endloop
endfacet
facet normal -0.631368 0.097551 0.769323
outer loop
vertex -1.881981 6.615110 1.880634
vertex -1.918348 6.092937 1.917001
vertex -1.512749 6.092937 2.249867
endloop
endfacet
facet normal -0.560083 0.469630 0.682462
outer loop
vertex -1.399556 7.117217 2.080463
vertex -1.262140 7.579961 1.874804
vertex -1.599383 7.579961 1.598036
endloop
endfacet
facet normal -0.560083 0.469630 0.682462
outer loop
vertex -1.599383 7.579961 1.598036
vertex -1.774280 7.117217 1.772934
vertex -1.399556 7.117217 2.080463
endloop
endfacet
facet normal -0.403616 0.771506 0.491805
outer loop
vertex -1.077210 7.985560 1.598037
vertex -0.851871 8.318426 1.260794
vertex -1.077210 8.318426 1.075863
endloop
endfacet
facet normal -0.403615 0.771507 0.491805
outer loop
vertex -1.077210 8.318426 1.075863
vertex -1.364012 7.985560 1.362665
vertex -1.077210 7.985560 1.598037
endloop
endfacet
facet normal -0.184970 0.956549 0.225390
outer loop
vertex -0.594784 8.565768 0.876036
vertex -0.315829 8.718081 0.458550
vertex -0.394957 8.718081 0.393611
endloop
endfacet
facet normal -0.184970 0.956550 0.225385
outer loop
vertex -0.394957 8.718081 0.393611
vertex -0.750000 8.565768 0.748654
vertex -0.594784 8.565768 0.876036
endloop
endfacet
facet normal -0.607324 0.289002 0.740024
outer loop
vertex -1.484176 6.615110 2.207104
vertex -1.399556 7.117217 2.080463
vertex -1.774280 7.117217 1.772934
endloop
endfacet
facet normal -0.607323 0.289001 0.740025
outer loop
vertex -1.774280 7.117217 1.772934
vertex -1.881981 6.615110 1.880634
vertex -1.484176 6.615110 2.207104
endloop
endfacet
facet normal -0.491344 0.632562 0.598704
outer loop
vertex -1.262140 7.579961 1.874804
vertex -1.077210 7.985560 1.598037
vertex -1.364012 7.985560 1.362665
endloop
endfacet
facet normal -0.491344 0.632561 0.598705
outer loop
vertex -1.364012 7.985560 1.362665
vertex -1.599383 7.579961 1.598036
vertex -1.262140 7.579961 1.874804
endloop
endfacet
facet normal -0.300174 0.880971 0.365767
outer loop
vertex -0.851871 8.318426 1.260794
vertex -0.594784 8.565768 0.876036
vertex -0.750000 8.565768 0.748654
endloop
endfacet
facet normal -0.300175 0.880972 0.365763
outer loop
vertex -0.750000 8.565768 0.748654
vertex -1.077210 8.318426 1.075863
vertex -0.851871 8.318426 1.260794
endloop
endfacet
facet normal -0.769323 0.097551 0.631369
outer loop
vertex -1.918348 6.092937 1.917001
vertex -1.881981 6.615110 1.880634
vertex -2.208451 6.615110 1.482829
endloop
endfacet
facet normal -0.769323 0.097551 0.631368
outer loop
vertex -2.208451 6.615110 1.482829
vertex -2.251214 6.092937 1.511402
vertex -1.918348 6.092937 1.917001
endloop
endfacet
facet normal -0.682464 0.469630 0.560081
outer loop
vertex -1.774280 7.117217 1.772934
vertex -1.599383 7.579961 1.598036
vertex -1.876151 7.579961 1.260793
endloop
endfacet
facet normal -0.682463 0.469630 0.560083
outer loop
vertex -1.876151 7.579961 1.260793
vertex -2.081809 7.117217 1.398210
vertex -1.774280 7.117217 1.772934
endloop
endfacet
facet normal -0.491806 0.771506 0.403616
outer loop
vertex -1.364012 7.985560 1.362665
vertex -1.077210 8.318426 1.075863
vertex -1.262140 8.318426 0.850525
endloop
endfacet
facet normal -0.491806 0.771506 0.403615
outer loop
vertex -1.262140 8.318426 0.850525
vertex -1.599383 7.985560 1.075863
vertex -1.364012 7.985560 1.362665
endloop
endfacet
facet normal -0.225387 0.956550 0.184966
outer loop
vertex -0.750000 8.565768 0.748654
vertex -0.394957 8.718081 0.393611
vertex -0.459896 8.718081 0.314483
endloop
endfacet
facet normal -0.225387 0.956549 0.184971
outer loop
vertex -0.459896 8.718081 0.314483
vertex -0.877382 8.565768 0.593438
vertex -0.750000 8.565768 0.748654
endloop
endfacet
facet normal -0.740025 0.289002 0.607322
outer loop
vertex -1.881981 6.615110 1.880634
vertex -1.774280 7.117217 1.772934
vertex -2.081809 7.117217 1.398210
endloop
endfacet
facet normal -0.740025 0.289002 0.607322
outer loop
vertex -2.081809 7.117217 1.398210
vertex -2.208451 6.615110 1.482829
vertex -1.881981 6.615110 1.880634
endloop
endfacet
facet normal -0.598705 0.632561 0.491343
outer loop
vertex -1.599383 7.579961 1.598036
vertex -1.364012 7.985560 1.362665
vertex -1.599383 7.985560 1.075863
endloop
endfacet
facet normal -0.598704 0.632561 0.491344
outer loop
vertex -1.599383 7.985560 1.075863
vertex -1.876151 7.579961 1.260793
vertex -1.599383 7.579961 1.598036
endloop
endfacet
facet normal -0.365764 0.880972 0.300177
outer loop
vertex -1.077210 8.318426 1.075863
vertex -0.750000 8.565768 0.748654
vertex -0.877382 8.565768 0.593438
endloop
endfacet
facet normal -0.365764 0.880973 0.300173
outer loop
vertex -0.877382 8.565768 0.593438
vertex -1.262140 8.318426 0.850525
vertex -1.077210 8.318426 1.075863
endloop
endfacet
facet normal -0.877715 0.097550 0.469148
outer loop
vertex -2.251214 6.092937 1.511402
vertex -2.208451 6.615110 1.482829
vertex -2.451040 6.615110 1.028976
endloop
endfacet
facet normal -0.877715 0.097552 0.469147
outer loop
vertex -2.451040 6.615110 1.028976
vertex -2.498555 6.092937 1.048658
vertex -2.251214 6.092937 1.511402
endloop
endfacet
facet normal -0.778616 0.469630 0.416179
outer loop
vertex -2.081809 7.117217 1.398210
vertex -1.876151 7.579961 1.260793
vertex -2.081808 7.579961 0.876035
endloop
endfacet
facet normal -0.778616 0.469630 0.416179
outer loop
vertex -2.081808 7.579961 0.876035
vertex -2.310323 7.117217 0.970690
vertex -2.081809 7.117217 1.398210
endloop
endfacet
facet normal -0.561098 0.771506 0.299913
outer loop
vertex -1.599383 7.985560 1.075863
vertex -1.262140 8.318426 0.850525
vertex -1.399556 8.318426 0.593438
endloop
endfacet
facet normal -0.561098 0.771506 0.299912
outer loop
vertex -1.399556 8.318426 0.593438
vertex -1.774281 7.985560 0.748654
vertex -1.599383 7.985560 1.075863
endloop
endfacet
facet normal -0.257142 0.956550 0.137442
outer loop
vertex -0.877382 8.565768 0.593438
vertex -0.459896 8.718081 0.314483
vertex -0.508150 8.718081 0.224206
endloop
endfacet
facet normal -0.257142 0.956550 0.137441
outer loop
vertex -0.508150 8.718081 0.224206
vertex -0.972036 8.565768 0.416353
vertex -0.877382 8.565768 0.593438
endloop
endfacet
facet normal -0.844288 0.289002 0.451282
outer loop
vertex -2.208451 6.615110 1.482829
vertex -2.081809 7.117217 1.398210
vertex -2.310323 7.117217 0.970690
endloop
endfacet
facet normal -0.844289 0.289002 0.451281
outer loop
vertex -2.310323 7.117217 0.970690
vertex -2.451040 6.615110 1.028976
vertex -2.208451 6.615110 1.482829
endloop
endfacet
facet normal -0.683057 0.632561 0.365101
outer loop
vertex -1.876151 7.579961 1.260793
vertex -1.599383 7.985560 1.075863
vertex -1.774281 7.985560 0.748654
endloop
endfacet
facet normal -0.683057 0.632561 0.365102
outer loop
vertex -1.774281 7.985560 0.748654
vertex -2.081808 7.579961 0.876035
vertex -1.876151 7.579961 1.260793
endloop
endfacet
facet normal -0.417296 0.880972 0.223051
outer loop
vertex -1.262140 8.318426 0.850525
vertex -0.877382 8.565768 0.593438
vertex -0.972036 8.565768 0.416353
endloop
endfacet
facet normal -0.417298 0.880972 0.223049
outer loop
vertex -0.972036 8.565768 0.416353
vertex -1.399556 8.318426 0.593438
vertex -1.262140 8.318426 0.850525
endloop
endfacet
facet normal -0.952376 0.097550 0.288900
outer loop
vertex -2.498555 6.092937 1.048658
vertex -2.451040 6.615110 1.028976
vertex -2.600426 6.615110 0.536518
endloop
endfacet
facet normal -0.952377 0.097551 0.288899
outer loop
vertex -2.600426 6.615110 0.536518
vertex -2.650867 6.092937 0.546551
vertex -2.498555 6.092937 1.048658
endloop
endfacet
facet normal -0.844848 0.469630 0.256281
outer loop
vertex -2.310323 7.117217 0.970690
vertex -2.081808 7.579961 0.876035
vertex -2.208451 7.579961 0.458549
endloop
endfacet
facet normal -0.844848 0.469631 0.256280
outer loop
vertex -2.208451 7.579961 0.458549
vertex -2.451041 7.117217 0.506804
vertex -2.310323 7.117217 0.970690
endloop
endfacet
facet normal -0.608826 0.771506 0.184687
outer loop
vertex -1.774281 7.985560 0.748654
vertex -1.399556 8.318426 0.593438
vertex -1.484176 8.318426 0.314482
endloop
endfacet
facet normal -0.608827 0.771506 0.184685
outer loop
vertex -1.484176 8.318426 0.314482
vertex -1.881981 7.985560 0.393611
vertex -1.774281 7.985560 0.748654
endloop
endfacet
facet normal -0.279015 0.956549 0.084643
outer loop
vertex -0.972036 8.565768 0.416353
vertex -0.508150 8.718081 0.224206
vertex -0.537865 8.718081 0.126249
endloop
endfacet
facet normal -0.279015 0.956550 0.084637
outer loop
vertex -0.537865 8.718081 0.126249
vertex -1.030323 8.565768 0.224205
vertex -0.972036 8.565768 0.416353
endloop
endfacet
facet normal -0.916106 0.289001 0.277898
outer loop
vertex -2.451040 6.615110 1.028976
vertex -2.310323 7.117217 0.970690
vertex -2.451041 7.117217 0.506804
endloop
endfacet
facet normal -0.916106 0.289002 0.277898
outer loop
vertex -2.451041 7.117217 0.506804
vertex -2.600426 6.615110 0.536518
vertex -2.451040 6.615110 1.028976
endloop
endfacet
facet normal -0.741161 0.632561 0.224828
outer loop
vertex -2.081808 7.579961 0.876035
vertex -1.774281 7.985560 0.748654
vertex -1.881981 7.985560 0.393611
endloop
endfacet
facet normal -0.741161 0.632561 0.224829
outer loop
vertex -1.881981 7.985560 0.393611
vertex -2.208451 7.579961 0.458549
vertex -2.081808 7.579961 0.876035
endloop
endfacet
facet normal -0.452794 0.880972 0.137351
outer loop
vertex -1.399556 8.318426 0.593438
vertex -0.972036 8.565768 0.416353
vertex -1.030323 8.565768 0.224205
endloop
endfacet
facet normal -0.452794 0.880972 0.137356
outer loop
vertex -1.030323 8.565768 0.224205
vertex -1.484176 8.318426 0.314482
vertex -1.399556 8.318426 0.593438
endloop
endfacet
facet normal -0.098013 0.995138 -0.009652
outer loop
vertex -0.547899 8.718081 0.024378
vertex -0.025725 8.769510 0.024379
vertex -0.537866 8.718081 -0.077493
endloop
endfacet
facet normal -0.094246 0.995138 -0.028599
outer loop
vertex -0.537866 8.718081 -0.077493
vertex -0.025725 8.769510 0.024379
vertex -0.508151 8.718081 -0.175449
endloop
endfacet
facet normal -0.086858 0.995139 -0.046422
outer loop
vertex -0.508151 8.718081 -0.175449
vertex -0.025725 8.769510 0.024379
vertex -0.459897 8.718081 -0.265726
endloop
endfacet
facet normal -0.076132 0.995139 -0.062470
outer loop
vertex -0.459897 8.718081 -0.265726
vertex -0.025725 8.769510 0.024379
vertex -0.394958 8.718081 -0.344855
endloop
endfacet
facet normal -0.062479 0.995138 -0.076136
outer loop
vertex -0.394958 8.718081 -0.344855
vertex -0.025725 8.769510 0.024379
vertex -0.315829 8.718081 -0.409794
endloop
endfacet
facet normal -0.046426 0.995138 -0.086858
outer loop
vertex -0.315829 8.718081 -0.409794
vertex -0.025725 8.769510 0.024379
vertex -0.225552 8.718081 -0.458048
endloop
endfacet
facet normal -0.028589 0.995138 -0.094247
outer loop
vertex -0.225552 8.718081 -0.458048
vertex -0.025725 8.769510 0.024379
vertex -0.127596 8.718081 -0.487763
endloop
endfacet
facet normal -0.009653 0.995138 -0.098014
outer loop
vertex -0.127596 8.718081 -0.487763
vertex -0.025725 8.769510 0.024379
vertex -0.025724 8.718081 -0.497796
endloop
endfacet
facet normal 0.009653 0.995138 -0.098013
outer loop
vertex -0.025724 8.718081 -0.497796
vertex -0.025725 8.769510 0.024379
vertex 0.076147 8.718081 -0.487763
endloop
endfacet
facet normal 0.028589 0.995138 -0.094244
outer loop
vertex 0.076147 8.718081 -0.487763
vertex -0.025725 8.769510 0.024379
vertex 0.174103 8.718081 -0.458048
endloop
endfacet
facet normal 0.046426 0.995138 -0.086858
outer loop
vertex 0.174103 8.718081 -0.458048
vertex -0.025725 8.769510 0.024379
vertex 0.264380 8.718081 -0.409794
endloop
endfacet
facet normal 0.062479 0.995139 -0.076127
outer loop
vertex 0.264380 8.718081 -0.409794
vertex -0.025725 8.769510 0.024379
vertex 0.343509 8.718081 -0.344854
endloop
endfacet
facet normal 0.076131 0.995138 -0.062479
outer loop
vertex 0.343509 8.718081 -0.344854
vertex -0.025725 8.769510 0.024379
vertex 0.408448 8.718081 -0.265726
endloop
endfacet
facet normal 0.086858 0.995138 -0.046440
outer loop
vertex 0.408448 8.718081 -0.265726
vertex -0.025725 8.769510 0.024379
vertex 0.456702 8.718081 -0.175449
endloop
endfacet
facet normal 0.094246 0.995139 -0.028581
outer loop
vertex 0.456702 8.718081 -0.175449
vertex -0.025725 8.769510 0.024379
vertex 0.486416 8.718081 -0.077493
endloop
endfacet
facet normal 0.098013 0.995138 -0.009670
outer loop
vertex 0.486416 8.718081 -0.077493
vertex -0.025725 8.769510 0.024379
vertex 0.496450 8.718081 0.024378
endloop
endfacet
facet normal 0.098013 0.995138 0.009652
outer loop
vertex 0.496450 8.718081 0.024378
vertex -0.025725 8.769510 0.024379
vertex 0.486416 8.718081 0.126250
endloop
endfacet
facet normal 0.094246 0.995138 0.028599
outer loop
vertex 0.486416 8.718081 0.126250
vertex -0.025725 8.769510 0.024379
vertex 0.456701 8.718081 0.224206
endloop
endfacet
facet normal 0.086858 0.995139 0.046422
outer loop
vertex 0.456701 8.718081 0.224206
vertex -0.025725 8.769510 0.024379
vertex 0.408447 8.718081 0.314483
endloop
endfacet
facet normal 0.076131 0.995139 0.062470
outer loop
vertex 0.408447 8.718081 0.314483
vertex -0.025725 8.769510 0.024379
vertex 0.343508 8.718081 0.393611
endloop
endfacet
facet normal 0.062479 0.995138 0.076136
outer loop
vertex 0.343508 8.718081 0.393611
vertex -0.025725 8.769510 0.024379
vertex 0.264380 8.718081 0.458550
endloop
endfacet
facet normal 0.046426 0.995138 0.086863
outer loop
vertex 0.264380 8.718081 0.458550
vertex -0.025725 8.769510 0.024379
vertex 0.174103 8.718081 0.506804
endloop
endfacet
facet normal 0.028589 0.995139 0.094245
outer loop
vertex 0.174103 8.718081 0.506804
vertex -0.025725 8.769510 0.024379
vertex 0.076147 8.718081 0.536519
endloop
endfacet
facet normal 0.009653 0.995138 0.098012
outer loop
vertex 0.076147 8.718081 0.536519
vertex -0.025725 8.769510 0.024379
vertex -0.025725 8.718081 0.546552
endloop
endfacet
facet normal -0.009653 0.995138 0.098014
outer loop
vertex -0.025725 8.718081 0.546552
vertex -0.025725 8.769510 0.024379
vertex -0.127596 8.718081 0.536519
endloop
endfacet
facet normal -0.028589 0.995139 0.094240
outer loop
vertex -0.127596 8.718081 0.536519
vertex -0.025725 8.769510 0.024379
vertex -0.225552 8.718081 0.506804
endloop
endfacet
facet normal -0.046426 0.995138 0.086859
outer loop
vertex -0.225552 8.718081 0.506804
vertex -0.025725 8.769510 0.024379
vertex -0.315829 8.718081 0.458550
endloop
endfacet
facet normal -0.062480 0.995139 0.076127
outer loop
vertex -0.315829 8.718081 0.458550
vertex -0.025725 8.769510 0.024379
vertex -0.394957 8.718081 0.393611
endloop
endfacet
facet normal -0.076132 0.995138 0.062479
outer loop
vertex -0.394957 8.718081 0.393611
vertex -0.025725 8.769510 0.024379
vertex -0.459896 8.718081 0.314483
endloop
endfacet
facet normal -0.086858 0.995139 0.046422
outer loop
vertex -0.459896 8.718081 0.314483
vertex -0.025725 8.769510 0.024379
vertex -0.508150 8.718081 0.224206
endloop
endfacet
facet normal -0.094246 0.995139 0.028581
outer loop
vertex -0.508150 8.718081 0.224206
vertex -0.025725 8.769510 0.024379
vertex -0.537865 8.718081 0.126249
endloop
endfacet
facet normal -0.990438 0.097551 0.097554
outer loop
vertex -2.650867 6.092937 0.546551
vertex -2.600426 6.615110 0.536518
vertex -2.650869 6.615110 0.024378
endloop
endfacet
facet normal -0.990438 0.097549 0.097554
outer loop
vertex -2.650869 6.615110 0.024378
vertex -2.702299 6.092937 0.024378
vertex -2.650867 6.092937 0.546551
endloop
endfacet
facet normal -0.878612 0.469630 0.086541
outer loop
vertex -2.451041 7.117217 0.506804
vertex -2.208451 7.579961 0.458549
vertex -2.251215 7.579961 0.024378
endloop
endfacet
facet normal -0.878612 0.469629 0.086538
outer loop
vertex -2.251215 7.579961 0.024378
vertex -2.498557 7.117217 0.024378
vertex -2.451041 7.117217 0.506804
endloop
endfacet
facet normal -0.633158 0.771506 0.062361
outer loop
vertex -1.881981 7.985560 0.393611
vertex -1.484176 8.318426 0.314482
vertex -1.512750 8.318426 0.024378
endloop
endfacet
facet normal -0.633158 0.771506 0.062364
outer loop
vertex -1.512750 8.318426 0.024378
vertex -1.918349 7.985560 0.024378
vertex -1.881981 7.985560 0.393611
endloop
endfacet
facet normal -0.290166 0.956550 0.028582
outer loop
vertex -0.547899 8.718081 0.024378
vertex -1.050006 8.565768 0.024378
vertex -1.030323 8.565768 0.224205
endloop
endfacet
facet normal -0.290166 0.956550 0.028578
outer loop
vertex -1.030323 8.565768 0.224205
vertex -0.537865 8.718081 0.126249
vertex -0.547899 8.718081 0.024378
endloop
endfacet
facet normal -0.952719 0.289001 0.093837
outer loop
vertex -2.600426 6.615110 0.536518
vertex -2.451041 7.117217 0.506804
vertex -2.498557 7.117217 0.024378
endloop
endfacet
facet normal -0.952718 0.289003 0.093839
outer loop
vertex -2.498557 7.117217 0.024378
vertex -2.650869 6.615110 0.024378
vertex -2.600426 6.615110 0.536518
endloop
endfacet
facet normal -0.770781 0.632562 0.075916
outer loop
vertex -2.208451 7.579961 0.458549
vertex -1.881981 7.985560 0.393611
vertex -1.918349 7.985560 0.024378
endloop
endfacet
facet normal -0.770779 0.632562 0.075921
outer loop
vertex -1.918349 7.985560 0.024378
vertex -2.251215 7.579961 0.024378
vertex -2.208451 7.579961 0.458549
endloop
endfacet
facet normal -0.470889 0.880972 0.046377
outer loop
vertex -1.484176 8.318426 0.314482
vertex -1.030323 8.565768 0.224205
vertex -1.050006 8.565768 0.024378
endloop
endfacet
facet normal -0.470890 0.880972 0.046382
outer loop
vertex -1.050006 8.565768 0.024378
vertex -1.512750 8.318426 0.024378
vertex -1.484176 8.318426 0.314482
endloop
endfacet
facet normal -0.098013 0.995138 0.009670
outer loop
vertex -0.537865 8.718081 0.126249
vertex -0.025725 8.769510 0.024379
vertex -0.547899 8.718081 0.024378
endloop
endfacet
endsolid Exported from Blender-2.74 (sub 0)
