solid Exported from Blender-2.74 (sub 0)
facet normal -0.463893 0.799914 -0.380710
outer loop
vertex -15.170345 82.123932 -15.170388
vertex -17.838453 82.123932 -11.919310
vertex -12.003008 87.363815 -8.020183
endloop
endfacet
facet normal -0.463894 0.799914 -0.380710
outer loop
vertex -12.003008 87.363815 -8.020183
vertex -10.207711 87.363815 -10.207746
vertex -15.170345 82.123932 -15.170388
endloop
endfacet
facet normal -0.380708 0.799915 -0.463894
outer loop
vertex -11.919258 82.123932 -17.838486
vertex -15.170345 82.123932 -15.170388
vertex -10.207711 87.363815 -10.207746
endloop
endfacet
facet normal -0.380708 0.799915 -0.463894
outer loop
vertex -10.207711 87.363815 -10.207746
vertex -8.020142 87.363815 -12.003034
vertex -11.919258 82.123932 -17.838486
endloop
endfacet
facet normal -0.773008 0.000001 -0.634396
outer loop
vertex -17.838453 82.123932 -11.919310
vertex -15.170345 82.123932 -15.170388
vertex -15.170378 65.501556 -15.170360
endloop
endfacet
facet normal -0.773011 -0.000001 -0.634392
outer loop
vertex -15.170378 65.501556 -15.170360
vertex -17.838472 65.501556 -11.919269
vertex -17.838453 82.123932 -11.919310
endloop
endfacet
facet normal -0.555572 0.000002 0.831469
outer loop
vertex -17.838472 65.501556 -11.919269
vertex -12.003022 70.741432 -8.020147
vertex -12.003008 87.363815 -8.020183
endloop
endfacet
facet normal -0.555572 0.000003 0.831468
outer loop
vertex -12.003008 87.363815 -8.020183
vertex -17.838453 82.123932 -11.919310
vertex -17.838472 65.501556 -11.919269
endloop
endfacet
facet normal 0.773011 -0.000000 0.634392
outer loop
vertex -12.003022 70.741432 -8.020147
vertex -10.207733 70.741432 -10.207721
vertex -10.207711 87.363815 -10.207746
endloop
endfacet
facet normal 0.773009 0.000001 0.634395
outer loop
vertex -10.207711 87.363815 -10.207746
vertex -12.003008 87.363815 -8.020183
vertex -12.003022 70.741432 -8.020147
endloop
endfacet
facet normal 0.831471 -0.000003 -0.555568
outer loop
vertex -8.020167 70.741432 -12.003012
vertex -11.919292 65.501556 -17.838461
vertex -11.919258 82.123932 -17.838486
endloop
endfacet
facet normal 0.831471 -0.000002 -0.555568
outer loop
vertex -11.919258 82.123932 -17.838486
vertex -8.020142 87.363815 -12.003034
vertex -8.020167 70.741432 -12.003012
endloop
endfacet
facet normal -0.634393 0.000000 -0.773010
outer loop
vertex -15.170345 82.123932 -15.170388
vertex -11.919258 82.123932 -17.838486
vertex -11.919292 65.501556 -17.838461
endloop
endfacet
facet normal -0.634394 -0.000000 -0.773010
outer loop
vertex -11.919292 65.501556 -17.838461
vertex -15.170378 65.501556 -15.170360
vertex -15.170345 82.123932 -15.170388
endloop
endfacet
facet normal 0.634394 -0.000000 0.773010
outer loop
vertex -10.207733 70.741432 -10.207721
vertex -8.020167 70.741432 -12.003012
vertex -8.020142 87.363815 -12.003034
endloop
endfacet
facet normal 0.634393 0.000000 0.773011
outer loop
vertex -8.020142 87.363815 -12.003034
vertex -10.207711 87.363815 -10.207746
vertex -10.207733 70.741432 -10.207721
endloop
endfacet
facet normal 0.471395 0.000000 -0.881922
outer loop
vertex 8.210115 60.863197 -19.821058
vertex 8.210115 65.501556 -19.821058
vertex 11.919258 65.501556 -17.838486
endloop
endfacet
facet normal 0.471397 0.000000 -0.881921
outer loop
vertex 11.919258 65.501556 -17.838486
vertex 11.919258 60.863197 -17.838486
vertex 8.210115 60.863197 -19.821058
endloop
endfacet
facet normal 0.290283 0.000000 -0.956941
outer loop
vertex 4.185463 60.863197 -21.041918
vertex 4.185463 65.501556 -21.041918
vertex 8.210115 65.501556 -19.821058
endloop
endfacet
facet normal 0.290283 0.000000 -0.956941
outer loop
vertex 8.210115 65.501556 -19.821058
vertex 8.210115 60.863197 -19.821058
vertex 4.185463 60.863197 -21.041918
endloop
endfacet
facet normal 0.282891 0.799914 -0.529254
outer loop
vertex 8.210115 65.501556 -19.821058
vertex 5.524362 70.741432 -13.337051
vertex 8.020142 70.741432 -12.003034
endloop
endfacet
facet normal 0.282891 0.799916 -0.529252
outer loop
vertex 8.020142 70.741432 -12.003034
vertex 11.919258 65.501556 -17.838486
vertex 8.210115 65.501556 -19.821058
endloop
endfacet
facet normal 0.634393 0.000000 -0.773011
outer loop
vertex 15.170378 60.863197 -15.170360
vertex 11.919258 60.863197 -17.838486
vertex 11.919258 65.501556 -17.838486
endloop
endfacet
facet normal 0.634394 0.000000 -0.773010
outer loop
vertex 11.919258 65.501556 -17.838486
vertex 15.170378 65.501556 -15.170360
vertex 15.170378 60.863197 -15.170360
endloop
endfacet
facet normal 0.098015 0.000000 -0.995185
outer loop
vertex 4.185463 60.863197 -21.041918
vertex 0.000000 60.863197 -21.454140
vertex 0.000000 65.501556 -21.454140
endloop
endfacet
facet normal 0.098015 0.000000 -0.995185
outer loop
vertex 0.000000 65.501556 -21.454140
vertex 4.185463 65.501556 -21.041918
vertex 4.185463 60.863197 -21.041918
endloop
endfacet
facet normal 0.174204 0.799915 -0.574273
outer loop
vertex 4.185463 65.501556 -21.041918
vertex 2.816283 70.741432 -14.158536
vertex 5.524362 70.741432 -13.337051
endloop
endfacet
facet normal 0.174203 0.799916 -0.574272
outer loop
vertex 5.524362 70.741432 -13.337051
vertex 8.210115 65.501556 -19.821058
vertex 4.185463 65.501556 -21.041918
endloop
endfacet
facet normal -0.265892 0.825739 0.497451
outer loop
vertex 8.020142 70.741432 -12.003034
vertex 5.524362 70.741432 -13.337051
vertex 2.826311 65.948578 -6.823308
endloop
endfacet
facet normal -0.265893 0.825738 0.497450
outer loop
vertex 2.826311 65.948578 -6.823308
vertex 4.103167 65.948578 -6.140812
vertex 8.020142 70.741432 -12.003034
endloop
endfacet
facet normal 0.773011 0.000000 -0.634392
outer loop
vertex 17.838472 60.863197 -11.919269
vertex 15.170378 60.863197 -15.170360
vertex 15.170378 65.501556 -15.170360
endloop
endfacet
facet normal 0.773010 0.000000 -0.634393
outer loop
vertex 15.170378 65.501556 -15.170360
vertex 17.838472 65.501556 -11.919269
vertex 17.838472 60.863197 -11.919269
endloop
endfacet
facet normal -0.098018 0.000000 -0.995185
outer loop
vertex -4.185503 60.863197 -21.041901
vertex -4.185503 65.501556 -21.041901
vertex 0.000000 65.501556 -21.454140
endloop
endfacet
facet normal -0.098017 0.000000 -0.995185
outer loop
vertex 0.000000 65.501556 -21.454140
vertex 0.000000 60.863197 -21.454140
vertex -4.185503 60.863197 -21.041901
endloop
endfacet
facet normal -0.163735 0.825739 0.539764
outer loop
vertex 5.524362 70.741432 -13.337051
vertex 2.816283 70.741432 -14.158536
vertex 1.440841 65.948578 -7.243585
endloop
endfacet
facet normal -0.163734 0.825740 0.539764
outer loop
vertex 1.440841 65.948578 -7.243585
vertex 2.826311 65.948578 -6.823308
vertex 5.524362 70.741432 -13.337051
endloop
endfacet
facet normal -0.357831 0.825740 0.436018
outer loop
vertex 10.207733 70.741432 -10.207724
vertex 8.020142 70.741432 -12.003034
vertex 4.103167 65.948578 -6.140812
endloop
endfacet
facet normal -0.357831 0.825740 0.436017
outer loop
vertex 4.103167 65.948578 -6.140812
vertex 5.222339 65.948578 -5.222330
vertex 10.207733 70.741432 -10.207724
endloop
endfacet
facet normal 0.000000 1.000000 0.000075
outer loop
vertex 1.440841 65.948578 -7.243585
vertex 4.103167 65.948578 -6.140812
vertex 2.826311 65.948578 -6.823308
endloop
endfacet
facet normal 0.000000 1.000000 0.000037
outer loop
vertex 6.140821 65.948578 -4.103154
vertex 5.222339 65.948578 -5.222330
vertex 4.103167 65.948578 -6.140812
endloop
endfacet
facet normal 0.000000 1.000000 -0.000019
outer loop
vertex 7.243590 65.948578 -1.440827
vertex 6.823314 65.948578 -2.826297
vertex 6.140821 65.948578 -4.103154
endloop
endfacet
facet normal 0.000000 1.000000 0.000000
outer loop
vertex 7.243588 65.948578 1.440854
vertex 7.385500 65.948578 0.000000
vertex 7.243590 65.948578 -1.440827
endloop
endfacet
facet normal 0.000000 1.000000 -0.000009
outer loop
vertex 6.140813 65.948578 4.103180
vertex 6.823308 65.948578 2.826324
vertex 7.243588 65.948578 1.440854
endloop
endfacet
facet normal 0.000000 1.000000 -0.000019
outer loop
vertex 4.103154 65.948578 6.140832
vertex 5.222329 65.948578 5.222351
vertex 6.140813 65.948578 4.103180
endloop
endfacet
facet normal 0.000000 1.000000 0.000000
outer loop
vertex 1.440826 65.948578 7.243601
vertex 2.826297 65.948578 6.823325
vertex 4.103154 65.948578 6.140832
endloop
endfacet
facet normal 0.000000 1.000000 0.000000
outer loop
vertex -1.440842 65.948578 7.243599
vertex 0.000000 65.948578 7.385509
vertex 1.440826 65.948578 7.243601
endloop
endfacet
facet normal 0.000000 1.000000 -0.000037
outer loop
vertex -4.103168 65.948578 6.140826
vertex -2.826313 65.948578 6.823321
vertex -1.440842 65.948578 7.243599
endloop
endfacet
facet normal 0.000000 1.000000 0.000000
outer loop
vertex -6.140824 65.948578 4.103172
vertex -5.222343 65.948578 5.222344
vertex -4.103168 65.948578 6.140826
endloop
endfacet
facet normal 0.000000 1.000000 -0.000019
outer loop
vertex -7.243588 65.948578 1.440854
vertex -6.823318 65.948578 2.826316
vertex -6.140824 65.948578 4.103172
endloop
endfacet
facet normal 0.000000 1.000000 0.000000
outer loop
vertex -7.243596 65.948578 -1.440833
vertex -7.385505 65.948578 0.000000
vertex -7.243588 65.948578 1.440854
endloop
endfacet
facet normal 0.000000 1.000000 0.000000
outer loop
vertex -6.140824 65.948578 -4.103158
vertex -6.823314 65.948578 -2.826297
vertex -7.243596 65.948578 -1.440833
endloop
endfacet
facet normal 0.000000 1.000000 0.000000
outer loop
vertex -4.103167 65.948578 -6.140812
vertex -5.222343 65.948578 -5.222332
vertex -6.140824 65.948578 -4.103158
endloop
endfacet
facet normal 0.000000 1.000000 0.000037
outer loop
vertex -1.440841 65.948578 -7.243585
vertex -2.826310 65.948578 -6.823307
vertex -4.103167 65.948578 -6.140812
endloop
endfacet
facet normal 0.000000 1.000000 0.000000
outer loop
vertex 1.440841 65.948578 -7.243585
vertex 0.000000 65.948578 -7.385495
vertex -1.440841 65.948578 -7.243585
endloop
endfacet
facet normal 0.000000 1.000000 0.000000
outer loop
vertex 1.440841 65.948578 -7.243585
vertex 6.140821 65.948578 -4.103154
vertex 4.103167 65.948578 -6.140812
endloop
endfacet
facet normal 0.000000 1.000000 0.000005
outer loop
vertex 7.243588 65.948578 1.440854
vertex 7.243590 65.948578 -1.440827
vertex 6.140821 65.948578 -4.103154
endloop
endfacet
facet normal 0.000000 1.000000 0.000005
outer loop
vertex 4.103154 65.948578 6.140832
vertex 6.140813 65.948578 4.103180
vertex 7.243588 65.948578 1.440854
endloop
endfacet
facet normal 0.000000 1.000000 0.000010
outer loop
vertex -1.440842 65.948578 7.243599
vertex 1.440826 65.948578 7.243601
vertex 4.103154 65.948578 6.140832
endloop
endfacet
facet normal 0.000000 1.000000 0.000000
outer loop
vertex -6.140824 65.948578 4.103172
vertex -4.103168 65.948578 6.140826
vertex -1.440842 65.948578 7.243599
endloop
endfacet
facet normal 0.000000 1.000000 0.000000
outer loop
vertex -7.243596 65.948578 -1.440833
vertex -7.243588 65.948578 1.440854
vertex -6.140824 65.948578 4.103172
endloop
endfacet
facet normal 0.000000 1.000000 0.000000
outer loop
vertex -4.103167 65.948578 -6.140812
vertex -6.140824 65.948578 -4.103158
vertex -7.243596 65.948578 -1.440833
endloop
endfacet
facet normal 0.000000 1.000000 -0.000010
outer loop
vertex 1.440841 65.948578 -7.243585
vertex -1.440841 65.948578 -7.243585
vertex -4.103167 65.948578 -6.140812
endloop
endfacet
facet normal 0.000000 1.000000 -0.000001
outer loop
vertex 1.440841 65.948578 -7.243585
vertex 7.243588 65.948578 1.440854
vertex 6.140821 65.948578 -4.103154
endloop
endfacet
facet normal 0.000000 1.000000 0.000000
outer loop
vertex -1.440842 65.948578 7.243599
vertex 4.103154 65.948578 6.140832
vertex 7.243588 65.948578 1.440854
endloop
endfacet
facet normal 0.000000 1.000000 0.000003
outer loop
vertex -7.243596 65.948578 -1.440833
vertex -6.140824 65.948578 4.103172
vertex -1.440842 65.948578 7.243599
endloop
endfacet
facet normal 0.000000 1.000000 0.000001
outer loop
vertex 1.440841 65.948578 -7.243585
vertex -4.103167 65.948578 -6.140812
vertex -7.243596 65.948578 -1.440833
endloop
endfacet
facet normal 0.000000 1.000000 -0.000001
outer loop
vertex 1.440841 65.948578 -7.243585
vertex -1.440842 65.948578 7.243599
vertex 7.243588 65.948578 1.440854
endloop
endfacet
facet normal 0.000000 1.000000 -0.000001
outer loop
vertex 1.440841 65.948578 -7.243585
vertex -7.243596 65.948578 -1.440833
vertex -1.440842 65.948578 7.243599
endloop
endfacet
facet normal 0.881922 0.000000 -0.471396
outer loop
vertex 19.821047 60.863197 -8.210127
vertex 17.838472 60.863197 -11.919269
vertex 17.838472 65.501556 -11.919269
endloop
endfacet
facet normal 0.881922 0.000000 -0.471396
outer loop
vertex 17.838472 65.501556 -11.919269
vertex 19.821047 65.501556 -8.210127
vertex 19.821047 60.863197 -8.210127
endloop
endfacet
facet normal -0.290284 0.000000 -0.956941
outer loop
vertex -8.210155 60.863197 -19.821037
vertex -8.210155 65.501556 -19.821037
vertex -4.185503 65.501556 -21.041901
endloop
endfacet
facet normal -0.290285 0.000000 -0.956940
outer loop
vertex -4.185503 65.501556 -21.041901
vertex -4.185503 60.863197 -21.041901
vertex -8.210155 60.863197 -19.821037
endloop
endfacet
facet normal -0.055284 0.825739 0.561336
outer loop
vertex 2.816283 70.741432 -14.158536
vertex 0.000000 70.741432 -14.435903
vertex 0.000000 65.948578 -7.385495
endloop
endfacet
facet normal -0.055286 0.825739 0.561336
outer loop
vertex 0.000000 65.948578 -7.385495
vertex 1.440841 65.948578 -7.243585
vertex 2.816283 70.741432 -14.158536
endloop
endfacet
facet normal -0.436019 0.825739 0.357832
outer loop
vertex 12.003022 70.741432 -8.020147
vertex 10.207733 70.741432 -10.207724
vertex 5.222339 65.948578 -5.222330
endloop
endfacet
facet normal -0.436019 0.825740 0.357827
outer loop
vertex 5.222339 65.948578 -5.222330
vertex 6.140821 65.948578 -4.103154
vertex 12.003022 70.741432 -8.020147
endloop
endfacet
facet normal 0.055287 0.825739 0.561336
outer loop
vertex -2.816310 70.741432 -14.158521
vertex -1.440841 65.948578 -7.243585
vertex 0.000000 65.948578 -7.385495
endloop
endfacet
facet normal 0.055286 0.825739 0.561336
outer loop
vertex 0.000000 65.948578 -7.385495
vertex 0.000000 70.741432 -14.435903
vertex -2.816310 70.741432 -14.158521
endloop
endfacet
facet normal 0.163736 0.825741 0.539761
outer loop
vertex -5.524388 70.741432 -13.337035
vertex -2.826310 65.948578 -6.823307
vertex -1.440841 65.948578 -7.243585
endloop
endfacet
facet normal 0.163735 0.825739 0.539765
outer loop
vertex -1.440841 65.948578 -7.243585
vertex -2.816310 70.741432 -14.158521
vertex -5.524388 70.741432 -13.337035
endloop
endfacet
facet normal 0.265893 0.825740 0.497447
outer loop
vertex -8.020167 70.741432 -12.003012
vertex -4.103167 65.948578 -6.140812
vertex -2.826310 65.948578 -6.823307
endloop
endfacet
facet normal 0.265892 0.825739 0.497451
outer loop
vertex -2.826310 65.948578 -6.823307
vertex -5.524388 70.741432 -13.337035
vertex -8.020167 70.741432 -12.003012
endloop
endfacet
facet normal 0.357830 0.825738 0.436020
outer loop
vertex -8.020167 70.741432 -12.003012
vertex -10.207733 70.741432 -10.207721
vertex -5.222343 65.948578 -5.222332
endloop
endfacet
facet normal 0.357829 0.825739 0.436021
outer loop
vertex -5.222343 65.948578 -5.222332
vertex -4.103167 65.948578 -6.140812
vertex -8.020167 70.741432 -12.003012
endloop
endfacet
facet normal 0.436019 0.825739 0.357830
outer loop
vertex -10.207733 70.741432 -10.207721
vertex -12.003022 70.741432 -8.020147
vertex -6.140824 65.948578 -4.103158
endloop
endfacet
facet normal 0.436019 0.825738 0.357832
outer loop
vertex -6.140824 65.948578 -4.103158
vertex -5.222343 65.948578 -5.222332
vertex -10.207733 70.741432 -10.207721
endloop
endfacet
facet normal 0.497450 0.825739 0.265893
outer loop
vertex -12.003022 70.741432 -8.020147
vertex -13.337043 70.741432 -5.524367
vertex -6.823314 65.948578 -2.826297
endloop
endfacet
facet normal 0.497451 0.825740 0.265889
outer loop
vertex -6.823314 65.948578 -2.826297
vertex -6.140824 65.948578 -4.103158
vertex -12.003022 70.741432 -8.020147
endloop
endfacet
facet normal 0.539765 0.825739 0.163736
outer loop
vertex -13.337043 70.741432 -5.524367
vertex -14.158525 70.741432 -2.816289
vertex -7.243596 65.948578 -1.440833
endloop
endfacet
facet normal 0.539763 0.825740 0.163737
outer loop
vertex -7.243596 65.948578 -1.440833
vertex -6.823314 65.948578 -2.826297
vertex -13.337043 70.741432 -5.524367
endloop
endfacet
facet normal 0.561336 0.825739 0.055288
outer loop
vertex -14.158525 70.741432 -2.816289
vertex -14.435911 70.741432 0.000000
vertex -7.385505 65.948578 0.000000
endloop
endfacet
facet normal 0.561337 0.825739 0.055289
outer loop
vertex -7.385505 65.948578 0.000000
vertex -7.243596 65.948578 -1.440833
vertex -14.158525 70.741432 -2.816289
endloop
endfacet
facet normal 0.561336 0.825739 -0.055290
outer loop
vertex -14.435911 70.741432 0.000000
vertex -14.158524 70.741432 2.816326
vertex -7.243588 65.948578 1.440854
endloop
endfacet
facet normal 0.561336 0.825739 -0.055283
outer loop
vertex -7.243588 65.948578 1.440854
vertex -7.385505 65.948578 0.000000
vertex -14.435911 70.741432 0.000000
endloop
endfacet
facet normal 0.539764 0.825739 -0.163735
outer loop
vertex -14.158524 70.741432 2.816326
vertex -13.337032 70.741432 5.524403
vertex -6.823318 65.948578 2.826316
endloop
endfacet
facet normal 0.539765 0.825739 -0.163733
outer loop
vertex -6.823318 65.948578 2.826316
vertex -7.243588 65.948578 1.440854
vertex -14.158524 70.741432 2.816326
endloop
endfacet
facet normal 0.497450 0.825739 -0.265890
outer loop
vertex -13.337032 70.741432 5.524403
vertex -12.003024 70.741432 8.020166
vertex -6.140824 65.948578 4.103172
endloop
endfacet
facet normal 0.497449 0.825739 -0.265894
outer loop
vertex -6.140824 65.948578 4.103172
vertex -6.823318 65.948578 2.826316
vertex -13.337032 70.741432 5.524403
endloop
endfacet
facet normal 0.436018 0.825738 -0.357833
outer loop
vertex -12.003024 70.741432 8.020166
vertex -10.207733 70.741432 10.207733
vertex -5.222343 65.948578 5.222344
endloop
endfacet
facet normal 0.436018 0.825739 -0.357832
outer loop
vertex -5.222343 65.948578 5.222344
vertex -6.140824 65.948578 4.103172
vertex -12.003024 70.741432 8.020166
endloop
endfacet
facet normal 0.357831 0.825739 -0.436018
outer loop
vertex -10.207733 70.741432 10.207733
vertex -8.020164 70.741432 12.003023
vertex -4.103168 65.948578 6.140826
endloop
endfacet
facet normal 0.357831 0.825740 -0.436017
outer loop
vertex -4.103168 65.948578 6.140826
vertex -5.222343 65.948578 5.222344
vertex -10.207733 70.741432 10.207733
endloop
endfacet
facet normal 0.265893 0.825739 -0.497450
outer loop
vertex -8.020164 70.741432 12.003023
vertex -5.524385 70.741432 13.337045
vertex -2.826313 65.948578 6.823321
endloop
endfacet
facet normal 0.265893 0.825740 -0.497447
outer loop
vertex -2.826313 65.948578 6.823321
vertex -4.103168 65.948578 6.140826
vertex -8.020164 70.741432 12.003023
endloop
endfacet
facet normal 0.163736 0.825738 -0.539765
outer loop
vertex -5.524385 70.741432 13.337045
vertex -2.816307 70.741432 14.158531
vertex -1.440842 65.948578 7.243599
endloop
endfacet
facet normal 0.163736 0.825739 -0.539764
outer loop
vertex -1.440842 65.948578 7.243599
vertex -2.826313 65.948578 6.823321
vertex -5.524385 70.741432 13.337045
endloop
endfacet
facet normal 0.055287 0.825739 -0.561337
outer loop
vertex -2.816307 70.741432 14.158531
vertex 0.000000 70.741432 14.435913
vertex 0.000000 65.948578 7.385509
endloop
endfacet
facet normal 0.055286 0.825739 -0.561336
outer loop
vertex 0.000000 65.948578 7.385509
vertex -1.440842 65.948578 7.243599
vertex -2.816307 70.741432 14.158531
endloop
endfacet
facet normal -0.055286 0.825738 -0.561337
outer loop
vertex 0.000000 70.741432 14.435913
vertex 2.816283 70.741432 14.158536
vertex 1.440826 65.948578 7.243601
endloop
endfacet
facet normal -0.055287 0.825740 -0.561335
outer loop
vertex 1.440826 65.948578 7.243601
vertex 0.000000 65.948578 7.385509
vertex 0.000000 70.741432 14.435913
endloop
endfacet
facet normal -0.163735 0.825739 -0.539765
outer loop
vertex 2.816283 70.741432 14.158536
vertex 5.524362 70.741432 13.337051
vertex 2.826297 65.948578 6.823325
endloop
endfacet
facet normal -0.163736 0.825740 -0.539763
outer loop
vertex 2.826297 65.948578 6.823325
vertex 1.440826 65.948578 7.243601
vertex 2.816283 70.741432 14.158536
endloop
endfacet
facet normal -0.265891 0.825739 -0.497450
outer loop
vertex 5.524362 70.741432 13.337051
vertex 8.020142 70.741432 12.003034
vertex 4.103154 65.948578 6.140832
endloop
endfacet
facet normal -0.265893 0.825739 -0.497449
outer loop
vertex 4.103154 65.948578 6.140832
vertex 2.826297 65.948578 6.823325
vertex 5.524362 70.741432 13.337051
endloop
endfacet
facet normal -0.357830 0.825740 -0.436018
outer loop
vertex 8.020142 70.741432 12.003034
vertex 10.207711 70.741432 10.207746
vertex 5.222329 65.948578 5.222351
endloop
endfacet
facet normal -0.357831 0.825738 -0.436021
outer loop
vertex 5.222329 65.948578 5.222351
vertex 4.103154 65.948578 6.140832
vertex 8.020142 70.741432 12.003034
endloop
endfacet
facet normal -0.436017 0.825739 -0.357833
outer loop
vertex 10.207711 70.741432 10.207746
vertex 12.003008 70.741432 8.020183
vertex 6.140813 65.948578 4.103180
endloop
endfacet
facet normal -0.436017 0.825739 -0.357832
outer loop
vertex 6.140813 65.948578 4.103180
vertex 5.222329 65.948578 5.222351
vertex 10.207711 70.741432 10.207746
endloop
endfacet
facet normal -0.497450 0.825740 -0.265891
outer loop
vertex 12.003008 70.741432 8.020183
vertex 13.337032 70.741432 5.524403
vertex 6.823308 65.948578 2.826324
endloop
endfacet
facet normal -0.497449 0.825739 -0.265894
outer loop
vertex 6.823308 65.948578 2.826324
vertex 6.140813 65.948578 4.103180
vertex 12.003008 70.741432 8.020183
endloop
endfacet
facet normal -0.539764 0.825739 -0.163735
outer loop
vertex 13.337032 70.741432 5.524403
vertex 14.158524 70.741432 2.816326
vertex 7.243588 65.948578 1.440854
endloop
endfacet
facet normal -0.539764 0.825738 -0.163742
outer loop
vertex 7.243588 65.948578 1.440854
vertex 6.823308 65.948578 2.826324
vertex 13.337032 70.741432 5.524403
endloop
endfacet
facet normal -0.561336 0.825739 -0.055287
outer loop
vertex 14.158524 70.741432 2.816326
vertex 14.435907 70.741432 0.000000
vertex 7.385500 65.948578 0.000000
endloop
endfacet
facet normal -0.561336 0.825739 -0.055288
outer loop
vertex 7.385500 65.948578 0.000000
vertex 7.243588 65.948578 1.440854
vertex 14.158524 70.741432 2.816326
endloop
endfacet
facet normal -0.561336 0.825739 0.055288
outer loop
vertex 14.435907 70.741432 0.000000
vertex 14.158525 70.741432 -2.816289
vertex 7.243590 65.948578 -1.440827
endloop
endfacet
facet normal -0.561336 0.825739 0.055289
outer loop
vertex 7.243590 65.948578 -1.440827
vertex 7.385500 65.948578 0.000000
vertex 14.435907 70.741432 0.000000
endloop
endfacet
facet normal -0.539764 0.825739 0.163735
outer loop
vertex 14.158525 70.741432 -2.816289
vertex 13.337043 70.741432 -5.524367
vertex 6.823314 65.948578 -2.826297
endloop
endfacet
facet normal -0.539765 0.825740 0.163732
outer loop
vertex 6.823314 65.948578 -2.826297
vertex 7.243590 65.948578 -1.440827
vertex 14.158525 70.741432 -2.816289
endloop
endfacet
facet normal -0.497450 0.825739 0.265891
outer loop
vertex 13.337043 70.741432 -5.524367
vertex 12.003022 70.741432 -8.020147
vertex 6.140821 65.948578 -4.103154
endloop
endfacet
facet normal -0.497449 0.825739 0.265894
outer loop
vertex 6.140821 65.948578 -4.103154
vertex 6.823314 65.948578 -2.826297
vertex 13.337043 70.741432 -5.524367
endloop
endfacet
facet normal 0.956941 0.000000 -0.290284
outer loop
vertex 21.041908 60.863197 -4.185475
vertex 19.821047 60.863197 -8.210127
vertex 19.821047 65.501556 -8.210127
endloop
endfacet
facet normal 0.956941 0.000000 -0.290284
outer loop
vertex 19.821047 65.501556 -8.210127
vertex 21.041908 65.501556 -4.185475
vertex 21.041908 60.863197 -4.185475
endloop
endfacet
facet normal 0.529252 0.799915 -0.282892
outer loop
vertex 19.821047 65.501556 -8.210127
vertex 17.838472 65.501556 -11.919269
vertex 12.003022 70.741432 -8.020147
endloop
endfacet
facet normal 0.529253 0.799915 -0.282892
outer loop
vertex 12.003022 70.741432 -8.020147
vertex 13.337043 70.741432 -5.524367
vertex 19.821047 65.501556 -8.210127
endloop
endfacet
facet normal -0.471398 0.000000 -0.881921
outer loop
vertex -11.919292 60.863197 -17.838461
vertex -11.919292 65.501556 -17.838461
vertex -8.210155 65.501556 -19.821037
endloop
endfacet
facet normal -0.471397 0.000000 -0.881921
outer loop
vertex -8.210155 65.501556 -19.821037
vertex -8.210155 60.863197 -19.821037
vertex -11.919292 60.863197 -17.838461
endloop
endfacet
facet normal -0.174203 0.799915 -0.574273
outer loop
vertex -8.210155 65.501556 -19.821037
vertex -5.524388 70.741432 -13.337035
vertex -2.816310 70.741432 -14.158521
endloop
endfacet
facet normal -0.174204 0.799916 -0.574272
outer loop
vertex -2.816310 70.741432 -14.158521
vertex -4.185503 65.501556 -21.041901
vertex -8.210155 65.501556 -19.821037
endloop
endfacet
facet normal -0.282891 0.799915 -0.529253
outer loop
vertex -11.919292 65.501556 -17.838461
vertex -8.020167 70.741432 -12.003012
vertex -5.524388 70.741432 -13.337035
endloop
endfacet
facet normal -0.282892 0.799915 -0.529252
outer loop
vertex -5.524388 70.741432 -13.337035
vertex -8.210155 65.501556 -19.821037
vertex -11.919292 65.501556 -17.838461
endloop
endfacet
facet normal -0.529253 0.799915 -0.282890
outer loop
vertex -19.821047 65.501556 -8.210127
vertex -13.337043 70.741432 -5.524367
vertex -12.003022 70.741432 -8.020147
endloop
endfacet
facet normal -0.529253 0.799915 -0.282892
outer loop
vertex -12.003022 70.741432 -8.020147
vertex -17.838472 65.501556 -11.919269
vertex -19.821047 65.501556 -8.210127
endloop
endfacet
facet normal -0.574273 0.799915 -0.174202
outer loop
vertex -21.041908 65.501556 -4.185475
vertex -14.158525 70.741432 -2.816289
vertex -13.337043 70.741432 -5.524367
endloop
endfacet
facet normal -0.574273 0.799915 -0.174205
outer loop
vertex -13.337043 70.741432 -5.524367
vertex -19.821047 65.501556 -8.210127
vertex -21.041908 65.501556 -4.185475
endloop
endfacet
facet normal -0.574272 0.799915 0.174205
outer loop
vertex -19.821033 65.501556 8.210171
vertex -13.337032 70.741432 5.524403
vertex -14.158524 70.741432 2.816326
endloop
endfacet
facet normal -0.574273 0.799915 0.174204
outer loop
vertex -14.158524 70.741432 2.816326
vertex -21.041903 65.501556 4.185521
vertex -19.821033 65.501556 8.210171
endloop
endfacet
facet normal -0.529253 0.799915 0.282892
outer loop
vertex -19.821033 65.501556 8.210171
vertex -17.838453 65.501556 11.919310
vertex -12.003024 70.741432 8.020166
endloop
endfacet
facet normal -0.529253 0.799915 0.282891
outer loop
vertex -12.003024 70.741432 8.020166
vertex -13.337032 70.741432 5.524403
vertex -19.821033 65.501556 8.210171
endloop
endfacet
facet normal -0.282892 0.799916 0.529251
outer loop
vertex -11.919286 65.501556 17.838467
vertex -8.210155 65.501556 19.821037
vertex -5.524385 70.741432 13.337045
endloop
endfacet
facet normal -0.282891 0.799914 0.529255
outer loop
vertex -5.524385 70.741432 13.337045
vertex -8.020164 70.741432 12.003023
vertex -11.919286 65.501556 17.838467
endloop
endfacet
facet normal -0.174204 0.799915 0.574273
outer loop
vertex -8.210155 65.501556 19.821037
vertex -4.185503 65.501556 21.041901
vertex -2.816307 70.741432 14.158531
endloop
endfacet
facet normal -0.174204 0.799914 0.574274
outer loop
vertex -2.816307 70.741432 14.158531
vertex -5.524385 70.741432 13.337045
vertex -8.210155 65.501556 19.821037
endloop
endfacet
facet normal 0.174203 0.799916 0.574272
outer loop
vertex 4.185463 65.501556 21.041918
vertex 8.210115 65.501556 19.821058
vertex 5.524362 70.741432 13.337051
endloop
endfacet
facet normal 0.174204 0.799915 0.574273
outer loop
vertex 5.524362 70.741432 13.337051
vertex 2.816283 70.741432 14.158536
vertex 4.185463 65.501556 21.041918
endloop
endfacet
facet normal 0.282891 0.799916 0.529252
outer loop
vertex 8.210115 65.501556 19.821058
vertex 11.919258 65.501556 17.838486
vertex 8.020142 70.741432 12.003034
endloop
endfacet
facet normal 0.282891 0.799914 0.529254
outer loop
vertex 8.020142 70.741432 12.003034
vertex 5.524362 70.741432 13.337051
vertex 8.210115 65.501556 19.821058
endloop
endfacet
facet normal 0.529252 0.799915 0.282892
outer loop
vertex 17.838453 65.501556 11.919310
vertex 19.821033 65.501556 8.210171
vertex 13.337032 70.741432 5.524403
endloop
endfacet
facet normal 0.529252 0.799915 0.282891
outer loop
vertex 13.337032 70.741432 5.524403
vertex 12.003008 70.741432 8.020183
vertex 17.838453 65.501556 11.919310
endloop
endfacet
facet normal 0.574273 0.799915 0.174203
outer loop
vertex 19.821033 65.501556 8.210171
vertex 21.041903 65.501556 4.185521
vertex 14.158524 70.741432 2.816326
endloop
endfacet
facet normal 0.574272 0.799915 0.174204
outer loop
vertex 14.158524 70.741432 2.816326
vertex 13.337032 70.741432 5.524403
vertex 19.821033 65.501556 8.210171
endloop
endfacet
facet normal 0.574273 0.799915 -0.174205
outer loop
vertex 21.041908 65.501556 -4.185475
vertex 19.821047 65.501556 -8.210127
vertex 13.337043 70.741432 -5.524367
endloop
endfacet
facet normal 0.574273 0.799915 -0.174202
outer loop
vertex 13.337043 70.741432 -5.524367
vertex 14.158525 70.741432 -2.816289
vertex 21.041908 65.501556 -4.185475
endloop
endfacet
facet normal 0.995185 0.000000 -0.098017
outer loop
vertex 21.454142 60.863197 0.000000
vertex 21.041908 60.863197 -4.185475
vertex 21.041908 65.501556 -4.185475
endloop
endfacet
facet normal 0.995185 0.000000 -0.098017
outer loop
vertex 21.041908 65.501556 -4.185475
vertex 21.454142 65.501556 0.000000
vertex 21.454142 60.863197 0.000000
endloop
endfacet
facet normal -0.634394 0.000000 -0.773010
outer loop
vertex -15.170378 60.863197 -15.170360
vertex -15.170378 65.501556 -15.170360
vertex -11.919292 65.501556 -17.838461
endloop
endfacet
facet normal -0.634394 0.000000 -0.773010
outer loop
vertex -11.919292 65.501556 -17.838461
vertex -11.919292 60.863197 -17.838461
vertex -15.170378 60.863197 -15.170360
endloop
endfacet
facet normal -0.881922 0.000000 -0.471396
outer loop
vertex -19.821047 60.863197 -8.210127
vertex -19.821047 65.501556 -8.210127
vertex -17.838472 65.501556 -11.919269
endloop
endfacet
facet normal -0.881922 0.000000 -0.471396
outer loop
vertex -17.838472 65.501556 -11.919269
vertex -17.838472 60.863197 -11.919269
vertex -19.821047 60.863197 -8.210127
endloop
endfacet
facet normal -0.956941 0.000000 -0.290284
outer loop
vertex -21.041908 60.863197 -4.185475
vertex -21.041908 65.501556 -4.185475
vertex -19.821047 65.501556 -8.210127
endloop
endfacet
facet normal -0.956941 0.000000 -0.290284
outer loop
vertex -19.821047 65.501556 -8.210127
vertex -19.821047 60.863197 -8.210127
vertex -21.041908 60.863197 -4.185475
endloop
endfacet
facet normal -0.956940 0.000000 0.290286
outer loop
vertex -19.821033 60.863197 8.210171
vertex -19.821033 65.501556 8.210171
vertex -21.041903 65.501556 4.185521
endloop
endfacet
facet normal -0.956940 0.000000 0.290286
outer loop
vertex -21.041903 65.501556 4.185521
vertex -21.041903 60.863197 4.185521
vertex -19.821033 60.863197 8.210171
endloop
endfacet
facet normal -0.881921 0.000000 0.471398
outer loop
vertex -17.838453 60.863197 11.919310
vertex -17.838453 65.501556 11.919310
vertex -19.821033 65.501556 8.210171
endloop
endfacet
facet normal -0.881921 0.000000 0.471398
outer loop
vertex -19.821033 65.501556 8.210171
vertex -19.821033 60.863197 8.210171
vertex -17.838453 60.863197 11.919310
endloop
endfacet
facet normal -0.471397 0.000000 0.881921
outer loop
vertex -11.919286 60.863197 17.838467
vertex -8.210155 60.863197 19.821037
vertex -8.210155 65.501556 19.821037
endloop
endfacet
facet normal -0.471397 0.000000 0.881921
outer loop
vertex -8.210155 65.501556 19.821037
vertex -11.919286 65.501556 17.838467
vertex -11.919286 60.863197 17.838467
endloop
endfacet
facet normal -0.290286 0.000002 0.956940
outer loop
vertex -8.210155 60.863197 19.821037
vertex -4.185496 60.863197 21.041910
vertex -4.185503 65.501556 21.041901
endloop
endfacet
facet normal -0.290284 0.000000 0.956941
outer loop
vertex -4.185503 65.501556 21.041901
vertex -8.210155 65.501556 19.821037
vertex -8.210155 60.863197 19.821037
endloop
endfacet
facet normal 0.290283 0.000000 0.956941
outer loop
vertex 4.185463 60.863197 21.041918
vertex 8.210115 60.863197 19.821058
vertex 8.210115 65.501556 19.821058
endloop
endfacet
facet normal 0.290283 0.000000 0.956941
outer loop
vertex 8.210115 65.501556 19.821058
vertex 4.185463 65.501556 21.041918
vertex 4.185463 60.863197 21.041918
endloop
endfacet
facet normal 0.471397 0.000000 0.881921
outer loop
vertex 8.210115 60.863197 19.821058
vertex 11.919258 60.863197 17.838486
vertex 11.919258 65.501556 17.838486
endloop
endfacet
facet normal 0.471395 0.000000 0.881922
outer loop
vertex 11.919258 65.501556 17.838486
vertex 8.210115 65.501556 19.821058
vertex 8.210115 60.863197 19.821058
endloop
endfacet
facet normal 0.881921 0.000000 0.471398
outer loop
vertex 17.838453 60.863197 11.919310
vertex 19.821033 60.863197 8.210171
vertex 19.821033 65.501556 8.210171
endloop
endfacet
facet normal 0.881921 0.000000 0.471398
outer loop
vertex 19.821033 65.501556 8.210171
vertex 17.838453 65.501556 11.919310
vertex 17.838453 60.863197 11.919310
endloop
endfacet
facet normal 0.956940 0.000000 0.290286
outer loop
vertex 19.821033 60.863197 8.210171
vertex 21.041903 60.863197 4.185521
vertex 21.041903 65.501556 4.185521
endloop
endfacet
facet normal 0.956940 0.000000 0.290286
outer loop
vertex 21.041903 65.501556 4.185521
vertex 19.821033 65.501556 8.210171
vertex 19.821033 60.863197 8.210171
endloop
endfacet
facet normal 0.995185 0.000000 0.098017
outer loop
vertex 21.041903 60.863197 4.185521
vertex 21.454142 60.863197 0.000000
vertex 21.454142 65.501556 0.000000
endloop
endfacet
facet normal 0.995185 0.000000 0.098017
outer loop
vertex 21.454142 65.501556 0.000000
vertex 21.041903 65.501556 4.185521
vertex 21.041903 60.863197 4.185521
endloop
endfacet
facet normal -0.773010 0.000000 -0.634393
outer loop
vertex -17.838472 60.863197 -11.919269
vertex -17.838472 65.501556 -11.919269
vertex -15.170378 65.501556 -15.170360
endloop
endfacet
facet normal -0.773011 0.000000 -0.634392
outer loop
vertex -15.170378 65.501556 -15.170360
vertex -15.170378 60.863197 -15.170360
vertex -17.838472 60.863197 -11.919269
endloop
endfacet
facet normal -0.995185 0.000000 -0.098017
outer loop
vertex -21.041908 60.863197 -4.185475
vertex -21.454142 60.863197 0.000000
vertex -21.454142 65.501556 0.000000
endloop
endfacet
facet normal -0.995185 0.000000 -0.098017
outer loop
vertex -21.454142 65.501556 0.000000
vertex -21.041908 65.501556 -4.185475
vertex -21.041908 60.863197 -4.185475
endloop
endfacet
facet normal -0.995185 0.000000 0.098017
outer loop
vertex -21.454142 60.863197 0.000000
vertex -21.041903 60.863197 4.185521
vertex -21.041903 65.501556 4.185521
endloop
endfacet
facet normal -0.995185 0.000000 0.098017
outer loop
vertex -21.041903 65.501556 4.185521
vertex -21.454142 65.501556 0.000000
vertex -21.454142 60.863197 0.000000
endloop
endfacet
facet normal -0.773010 -0.000000 0.634394
outer loop
vertex -17.838453 60.863197 11.919310
vertex -15.170372 60.863197 15.170366
vertex -15.170372 65.501556 15.170370
endloop
endfacet
facet normal -0.773010 0.000000 0.634394
outer loop
vertex -15.170372 65.501556 15.170370
vertex -17.838453 65.501556 11.919310
vertex -17.838453 60.863197 11.919310
endloop
endfacet
facet normal -0.634393 0.000000 0.773011
outer loop
vertex -15.170372 60.863197 15.170366
vertex -11.919286 60.863197 17.838467
vertex -11.919286 65.501556 17.838467
endloop
endfacet
facet normal -0.634394 -0.000000 0.773010
outer loop
vertex -11.919286 65.501556 17.838467
vertex -15.170372 65.501556 15.170370
vertex -15.170372 60.863197 15.170366
endloop
endfacet
facet normal -0.098016 0.000000 0.995185
outer loop
vertex -4.185496 60.863197 21.041910
vertex 0.000000 60.863197 21.454144
vertex 0.000000 65.501556 21.454144
endloop
endfacet
facet normal -0.098020 0.000002 0.995184
outer loop
vertex 0.000000 65.501556 21.454144
vertex -4.185503 65.501556 21.041901
vertex -4.185496 60.863197 21.041910
endloop
endfacet
facet normal 0.098016 0.000000 0.995185
outer loop
vertex 0.000000 60.863197 21.454144
vertex 4.185463 60.863197 21.041918
vertex 4.185463 65.501556 21.041918
endloop
endfacet
facet normal 0.098016 0.000000 0.995185
outer loop
vertex 4.185463 65.501556 21.041918
vertex 0.000000 65.501556 21.454144
vertex 0.000000 60.863197 21.454144
endloop
endfacet
facet normal 0.634393 0.000000 0.773011
outer loop
vertex 11.919258 60.863197 17.838486
vertex 15.170345 60.863197 15.170388
vertex 15.170345 65.501556 15.170388
endloop
endfacet
facet normal 0.634394 0.000000 0.773010
outer loop
vertex 15.170345 65.501556 15.170388
vertex 11.919258 65.501556 17.838486
vertex 11.919258 60.863197 17.838486
endloop
endfacet
facet normal 0.773009 0.000000 0.634396
outer loop
vertex 15.170345 60.863197 15.170388
vertex 17.838453 60.863197 11.919310
vertex 17.838453 65.501556 11.919310
endloop
endfacet
facet normal 0.773008 0.000000 0.634396
outer loop
vertex 17.838453 65.501556 11.919310
vertex 15.170345 65.501556 15.170388
vertex 15.170345 60.863197 15.170388
endloop
endfacet
facet normal -0.831470 0.000000 -0.555570
outer loop
vertex 8.020142 70.741432 -12.003034
vertex 8.020142 87.363815 -12.003034
vertex 11.919258 82.123932 -17.838486
endloop
endfacet
facet normal -0.831470 0.000000 -0.555570
outer loop
vertex 11.919258 82.123932 -17.838486
vertex 11.919258 65.501556 -17.838486
vertex 8.020142 70.741432 -12.003034
endloop
endfacet
facet normal -0.634393 0.000000 0.773011
outer loop
vertex 10.207733 70.741432 -10.207724
vertex 10.207711 87.363815 -10.207746
vertex 8.020142 87.363815 -12.003034
endloop
endfacet
facet normal -0.634393 0.000000 0.773011
outer loop
vertex 8.020142 87.363815 -12.003034
vertex 8.020142 70.741432 -12.003034
vertex 10.207733 70.741432 -10.207724
endloop
endfacet
facet normal 0.380707 0.799915 -0.463895
outer loop
vertex 11.919258 82.123932 -17.838486
vertex 8.020142 87.363815 -12.003034
vertex 10.207711 87.363815 -10.207746
endloop
endfacet
facet normal 0.380708 0.799915 -0.463894
outer loop
vertex 10.207711 87.363815 -10.207746
vertex 15.170345 82.123932 -15.170388
vertex 11.919258 82.123932 -17.838486
endloop
endfacet
facet normal 0.634393 0.000000 -0.773010
outer loop
vertex 11.919258 65.501556 -17.838486
vertex 11.919258 82.123932 -17.838486
vertex 15.170345 82.123932 -15.170388
endloop
endfacet
facet normal 0.634393 -0.000000 -0.773011
outer loop
vertex 15.170345 82.123932 -15.170388
vertex 15.170378 65.501556 -15.170360
vertex 11.919258 65.501556 -17.838486
endloop
endfacet
facet normal -0.773009 0.000001 0.634395
outer loop
vertex 12.003022 70.741432 -8.020147
vertex 12.003008 87.363815 -8.020183
vertex 10.207711 87.363815 -10.207746
endloop
endfacet
facet normal -0.773012 -0.000000 0.634392
outer loop
vertex 10.207711 87.363815 -10.207746
vertex 10.207733 70.741432 -10.207724
vertex 12.003022 70.741432 -8.020147
endloop
endfacet
facet normal 0.463894 0.799914 -0.380710
outer loop
vertex 15.170345 82.123932 -15.170388
vertex 10.207711 87.363815 -10.207746
vertex 12.003008 87.363815 -8.020183
endloop
endfacet
facet normal 0.463893 0.799915 -0.380709
outer loop
vertex 12.003008 87.363815 -8.020183
vertex 17.838453 82.123932 -11.919310
vertex 15.170345 82.123932 -15.170388
endloop
endfacet
facet normal 0.773008 0.000001 -0.634396
outer loop
vertex 15.170378 65.501556 -15.170360
vertex 15.170345 82.123932 -15.170388
vertex 17.838453 82.123932 -11.919310
endloop
endfacet
facet normal 0.773012 -0.000001 -0.634392
outer loop
vertex 17.838453 82.123932 -11.919310
vertex 17.838472 65.501556 -11.919269
vertex 15.170378 65.501556 -15.170360
endloop
endfacet
facet normal 0.555573 0.000003 0.831468
outer loop
vertex 17.838472 65.501556 -11.919269
vertex 17.838453 82.123932 -11.919310
vertex 12.003008 87.363815 -8.020183
endloop
endfacet
facet normal 0.555571 0.000002 0.831469
outer loop
vertex 12.003008 87.363815 -8.020183
vertex 12.003022 70.741432 -8.020147
vertex 17.838472 65.501556 -11.919269
endloop
endfacet
facet normal 0.980785 0.000000 0.195089
outer loop
vertex 4.185463 65.501556 -21.041918
vertex 4.185463 72.357178 -21.041918
vertex 2.816283 77.597046 -14.158536
endloop
endfacet
facet normal 0.980785 0.000000 0.195089
outer loop
vertex 2.816283 77.597046 -14.158536
vertex 2.816283 70.741432 -14.158536
vertex 4.185463 65.501556 -21.041918
endloop
endfacet
facet normal 0.098014 -0.000001 -0.995185
outer loop
vertex 4.185463 65.501556 -21.041918
vertex 0.000000 65.501556 -21.454140
vertex 0.000000 72.357178 -21.454144
endloop
endfacet
facet normal 0.098016 0.000000 -0.995185
outer loop
vertex 0.000000 72.357178 -21.454144
vertex 4.185463 72.357178 -21.041918
vertex 4.185463 65.501556 -21.041918
endloop
endfacet
facet normal 0.058821 0.799915 -0.597224
outer loop
vertex 0.000000 72.357178 -21.454144
vertex 0.000000 77.597046 -14.435913
vertex 2.816283 77.597046 -14.158536
endloop
endfacet
facet normal 0.058820 0.799916 -0.597222
outer loop
vertex 2.816283 77.597046 -14.158536
vertex 4.185463 72.357178 -21.041918
vertex 0.000000 72.357178 -21.454144
endloop
endfacet
facet normal -0.098013 0.000000 0.995185
outer loop
vertex 0.000000 70.741432 -14.435903
vertex 2.816283 70.741432 -14.158536
vertex 2.816283 77.597046 -14.158536
endloop
endfacet
facet normal -0.098016 0.000002 0.995185
outer loop
vertex 2.816283 77.597046 -14.158536
vertex 0.000000 77.597046 -14.435913
vertex 0.000000 70.741432 -14.435903
endloop
endfacet
facet normal -0.098018 -0.000001 -0.995185
outer loop
vertex 0.000000 65.501556 -21.454140
vertex -4.185503 65.501556 -21.041901
vertex -4.185496 72.357178 -21.041910
endloop
endfacet
facet normal -0.098016 -0.000001 -0.995185
outer loop
vertex -4.185496 72.357178 -21.041910
vertex 0.000000 72.357178 -21.454144
vertex 0.000000 65.501556 -21.454140
endloop
endfacet
facet normal -0.058821 0.799915 -0.597224
outer loop
vertex -4.185496 72.357178 -21.041910
vertex -2.816307 77.597046 -14.158531
vertex 0.000000 77.597046 -14.435913
endloop
endfacet
facet normal -0.058821 0.799916 -0.597222
outer loop
vertex 0.000000 77.597046 -14.435913
vertex 0.000000 72.357178 -21.454144
vertex -4.185496 72.357178 -21.041910
endloop
endfacet
facet normal 0.098017 0.000002 0.995185
outer loop
vertex -2.816310 70.741432 -14.158521
vertex 0.000000 70.741432 -14.435903
vertex 0.000000 77.597046 -14.435913
endloop
endfacet
facet normal 0.098016 0.000001 0.995185
outer loop
vertex 0.000000 77.597046 -14.435913
vertex -2.816307 77.597046 -14.158531
vertex -2.816310 70.741432 -14.158521
endloop
endfacet
facet normal -0.980785 0.000001 0.195090
outer loop
vertex -4.185503 65.501556 -21.041901
vertex -2.816310 70.741432 -14.158521
vertex -2.816307 77.597046 -14.158531
endloop
endfacet
facet normal -0.980785 0.000001 0.195090
outer loop
vertex -2.816307 77.597046 -14.158531
vertex -4.185496 72.357178 -21.041910
vertex -4.185503 65.501556 -21.041901
endloop
endfacet
facet normal -0.058821 0.799915 -0.597224
outer loop
vertex -4.185503 65.501556 -21.041901
vertex -2.816310 70.741432 -14.158521
vertex 0.000000 70.741432 -14.435903
endloop
endfacet
facet normal -0.058822 0.799915 -0.597223
outer loop
vertex 0.000000 70.741432 -14.435903
vertex 0.000000 65.501556 -21.454140
vertex -4.185503 65.501556 -21.041901
endloop
endfacet
facet normal 0.058819 0.799915 -0.597224
outer loop
vertex 0.000000 65.501556 -21.454140
vertex 0.000000 70.741432 -14.435903
vertex 2.816283 70.741432 -14.158536
endloop
endfacet
facet normal 0.058819 0.799915 -0.597224
outer loop
vertex 2.816283 70.741432 -14.158536
vertex 4.185463 65.501556 -21.041918
vertex 0.000000 65.501556 -21.454140
endloop
endfacet
facet normal -0.380708 0.799914 -0.463895
outer loop
vertex -15.170378 65.501556 -15.170360
vertex -10.207733 70.741432 -10.207721
vertex -8.020167 70.741432 -12.003012
endloop
endfacet
facet normal -0.380709 0.799916 -0.463892
outer loop
vertex -8.020167 70.741432 -12.003012
vertex -11.919292 65.501556 -17.838461
vertex -15.170378 65.501556 -15.170360
endloop
endfacet
facet normal -0.463894 0.799915 -0.380708
outer loop
vertex -17.838472 65.501556 -11.919269
vertex -12.003022 70.741432 -8.020147
vertex -10.207733 70.741432 -10.207721
endloop
endfacet
facet normal -0.463894 0.799915 -0.380706
outer loop
vertex -10.207733 70.741432 -10.207721
vertex -15.170378 65.501556 -15.170360
vertex -17.838472 65.501556 -11.919269
endloop
endfacet
facet normal -0.463894 0.799914 0.380710
outer loop
vertex -15.170345 82.123932 15.170388
vertex -10.207711 87.363815 10.207746
vertex -12.003008 87.363815 8.020183
endloop
endfacet
facet normal -0.463893 0.799915 0.380709
outer loop
vertex -12.003008 87.363815 8.020183
vertex -17.838453 82.123932 11.919310
vertex -15.170345 82.123932 15.170388
endloop
endfacet
facet normal -0.773008 0.000001 0.634396
outer loop
vertex -15.170372 65.501556 15.170370
vertex -15.170345 82.123932 15.170388
vertex -17.838453 82.123932 11.919310
endloop
endfacet
facet normal -0.773010 0.000000 0.634394
outer loop
vertex -17.838453 82.123932 11.919310
vertex -17.838453 65.501556 11.919310
vertex -15.170372 65.501556 15.170370
endloop
endfacet
facet normal -0.380707 0.799915 0.463895
outer loop
vertex -11.919258 82.123932 17.838486
vertex -8.020142 87.363815 12.003034
vertex -10.207711 87.363815 10.207746
endloop
endfacet
facet normal -0.380708 0.799915 0.463894
outer loop
vertex -10.207711 87.363815 10.207746
vertex -15.170345 82.123932 15.170388
vertex -11.919258 82.123932 17.838486
endloop
endfacet
facet normal 0.773009 -0.000000 -0.634395
outer loop
vertex -12.003024 70.741432 8.020166
vertex -12.003008 87.363815 8.020183
vertex -10.207711 87.363815 10.207746
endloop
endfacet
facet normal 0.773010 -0.000001 -0.634394
outer loop
vertex -10.207711 87.363815 10.207746
vertex -10.207733 70.741432 10.207733
vertex -12.003024 70.741432 8.020166
endloop
endfacet
facet normal -0.555571 0.000000 -0.831469
outer loop
vertex -17.838453 65.501556 11.919310
vertex -17.838453 82.123932 11.919310
vertex -12.003008 87.363815 8.020183
endloop
endfacet
facet normal -0.555574 0.000001 -0.831467
outer loop
vertex -12.003008 87.363815 8.020183
vertex -12.003024 70.741432 8.020166
vertex -17.838453 65.501556 11.919310
endloop
endfacet
facet normal -0.634393 0.000000 0.773010
outer loop
vertex -11.919286 65.501556 17.838467
vertex -11.919258 82.123932 17.838486
vertex -15.170345 82.123932 15.170388
endloop
endfacet
facet normal -0.634393 0.000000 0.773011
outer loop
vertex -15.170345 82.123932 15.170388
vertex -15.170372 65.501556 15.170370
vertex -11.919286 65.501556 17.838467
endloop
endfacet
facet normal 0.831470 -0.000001 0.555569
outer loop
vertex -8.020164 70.741432 12.003023
vertex -8.020142 87.363815 12.003034
vertex -11.919258 82.123932 17.838486
endloop
endfacet
facet normal 0.831470 -0.000002 0.555569
outer loop
vertex -11.919258 82.123932 17.838486
vertex -11.919286 65.501556 17.838467
vertex -8.020164 70.741432 12.003023
endloop
endfacet
facet normal 0.634393 -0.000000 -0.773011
outer loop
vertex -10.207733 70.741432 10.207733
vertex -10.207711 87.363815 10.207746
vertex -8.020142 87.363815 12.003034
endloop
endfacet
facet normal 0.634394 -0.000000 -0.773010
outer loop
vertex -8.020142 87.363815 12.003034
vertex -8.020164 70.741432 12.003023
vertex -10.207733 70.741432 10.207733
endloop
endfacet
facet normal 0.597223 0.799916 0.058822
outer loop
vertex 21.454142 72.168190 0.000000
vertex 14.435911 77.408051 0.000000
vertex 14.158528 77.408051 2.816311
endloop
endfacet
facet normal 0.597223 0.799916 0.058820
outer loop
vertex 14.158528 77.408051 2.816311
vertex 21.041908 72.168190 4.185499
vertex 21.454142 72.168190 0.000000
endloop
endfacet
facet normal 0.995185 0.000000 0.098017
outer loop
vertex 21.041903 65.501556 4.185521
vertex 21.454142 65.501556 0.000000
vertex 21.454142 72.168190 0.000000
endloop
endfacet
facet normal 0.995185 -0.000000 0.098017
outer loop
vertex 21.454142 72.168190 0.000000
vertex 21.041908 72.168190 4.185499
vertex 21.041903 65.501556 4.185521
endloop
endfacet
facet normal 0.597223 0.799916 -0.058824
outer loop
vertex 21.454142 72.168190 0.000000
vertex 21.041908 72.168190 -4.185499
vertex 14.158530 77.408051 -2.816300
endloop
endfacet
facet normal 0.597223 0.799916 -0.058818
outer loop
vertex 14.158530 77.408051 -2.816300
vertex 14.435911 77.408051 0.000000
vertex 21.454142 72.168190 0.000000
endloop
endfacet
facet normal -0.995185 0.000001 -0.098017
outer loop
vertex 14.435907 70.741432 0.000000
vertex 14.158524 70.741432 2.816326
vertex 14.158528 77.408051 2.816311
endloop
endfacet
facet normal -0.995185 0.000000 -0.098017
outer loop
vertex 14.158528 77.408051 2.816311
vertex 14.435911 77.408051 0.000000
vertex 14.435907 70.741432 0.000000
endloop
endfacet
facet normal -0.195088 0.000003 0.980786
outer loop
vertex 14.158524 70.741432 2.816326
vertex 21.041903 65.501556 4.185521
vertex 21.041908 72.168190 4.185499
endloop
endfacet
facet normal -0.195088 0.000002 0.980786
outer loop
vertex 21.041908 72.168190 4.185499
vertex 14.158528 77.408051 2.816311
vertex 14.158524 70.741432 2.816326
endloop
endfacet
facet normal 0.995185 -0.000000 -0.098017
outer loop
vertex 21.454142 65.501556 0.000000
vertex 21.041908 65.501556 -4.185475
vertex 21.041908 72.168190 -4.185499
endloop
endfacet
facet normal 0.995185 0.000000 -0.098017
outer loop
vertex 21.041908 72.168190 -4.185499
vertex 21.454142 72.168190 0.000000
vertex 21.454142 65.501556 0.000000
endloop
endfacet
facet normal -0.195090 -0.000001 -0.980785
outer loop
vertex 21.041908 65.501556 -4.185475
vertex 14.158525 70.741432 -2.816289
vertex 14.158530 77.408051 -2.816300
endloop
endfacet
facet normal -0.195095 -0.000004 -0.980784
outer loop
vertex 14.158530 77.408051 -2.816300
vertex 21.041908 72.168190 -4.185499
vertex 21.041908 65.501556 -4.185475
endloop
endfacet
facet normal -0.995185 0.000001 0.098018
outer loop
vertex 14.158525 70.741432 -2.816289
vertex 14.435907 70.741432 0.000000
vertex 14.435911 77.408051 0.000000
endloop
endfacet
facet normal -0.995185 0.000000 0.098017
outer loop
vertex 14.435911 77.408051 0.000000
vertex 14.158530 77.408051 -2.816300
vertex 14.158525 70.741432 -2.816289
endloop
endfacet
facet normal -0.831470 0.000000 0.555570
outer loop
vertex 8.020142 70.741432 12.003034
vertex 11.919258 65.501556 17.838486
vertex 11.919258 82.123932 17.838486
endloop
endfacet
facet normal -0.831470 0.000000 0.555570
outer loop
vertex 11.919258 82.123932 17.838486
vertex 8.020142 87.363815 12.003034
vertex 8.020142 70.741432 12.003034
endloop
endfacet
facet normal -0.634392 0.000000 -0.773011
outer loop
vertex 10.207711 70.741432 10.207746
vertex 8.020142 70.741432 12.003034
vertex 8.020142 87.363815 12.003034
endloop
endfacet
facet normal -0.634392 0.000000 -0.773011
outer loop
vertex 8.020142 87.363815 12.003034
vertex 10.207711 87.363815 10.207746
vertex 10.207711 70.741432 10.207746
endloop
endfacet
facet normal 0.634393 0.000000 0.773011
outer loop
vertex 11.919258 65.501556 17.838486
vertex 15.170345 65.501556 15.170388
vertex 15.170345 82.123932 15.170388
endloop
endfacet
facet normal 0.634393 0.000000 0.773010
outer loop
vertex 15.170345 82.123932 15.170388
vertex 11.919258 82.123932 17.838486
vertex 11.919258 65.501556 17.838486
endloop
endfacet
facet normal 0.380708 0.799915 0.463894
outer loop
vertex 11.919258 82.123932 17.838486
vertex 15.170345 82.123932 15.170388
vertex 10.207711 87.363815 10.207746
endloop
endfacet
facet normal 0.380708 0.799915 0.463894
outer loop
vertex 10.207711 87.363815 10.207746
vertex 8.020142 87.363815 12.003034
vertex 11.919258 82.123932 17.838486
endloop
endfacet
facet normal -0.773009 0.000000 -0.634395
outer loop
vertex 12.003008 70.741432 8.020183
vertex 10.207711 70.741432 10.207746
vertex 10.207711 87.363815 10.207746
endloop
endfacet
facet normal -0.773009 0.000000 -0.634395
outer loop
vertex 10.207711 87.363815 10.207746
vertex 12.003008 87.363815 8.020183
vertex 12.003008 70.741432 8.020183
endloop
endfacet
facet normal 0.773009 0.000000 0.634396
outer loop
vertex 15.170345 65.501556 15.170388
vertex 17.838453 65.501556 11.919310
vertex 17.838453 82.123932 11.919310
endloop
endfacet
facet normal 0.773008 0.000000 0.634396
outer loop
vertex 17.838453 82.123932 11.919310
vertex 15.170345 82.123932 15.170388
vertex 15.170345 65.501556 15.170388
endloop
endfacet
facet normal 0.463893 0.799914 0.380710
outer loop
vertex 15.170345 82.123932 15.170388
vertex 17.838453 82.123932 11.919310
vertex 12.003008 87.363815 8.020183
endloop
endfacet
facet normal 0.463894 0.799914 0.380710
outer loop
vertex 12.003008 87.363815 8.020183
vertex 10.207711 87.363815 10.207746
vertex 15.170345 82.123932 15.170388
endloop
endfacet
facet normal 0.555571 0.000000 -0.831469
outer loop
vertex 17.838453 65.501556 11.919310
vertex 12.003008 70.741432 8.020183
vertex 12.003008 87.363815 8.020183
endloop
endfacet
facet normal 0.555571 0.000000 -0.831469
outer loop
vertex 12.003008 87.363815 8.020183
vertex 17.838453 82.123932 11.919310
vertex 17.838453 65.501556 11.919310
endloop
endfacet
facet normal -0.380708 0.799915 0.463894
outer loop
vertex -15.170372 65.501556 15.170370
vertex -11.919286 65.501556 17.838467
vertex -8.020164 70.741432 12.003023
endloop
endfacet
facet normal -0.380708 0.799915 0.463894
outer loop
vertex -8.020164 70.741432 12.003023
vertex -10.207733 70.741432 10.207733
vertex -15.170372 65.501556 15.170370
endloop
endfacet
facet normal -0.463894 0.799915 0.380708
outer loop
vertex -17.838453 65.501556 11.919310
vertex -15.170372 65.501556 15.170370
vertex -10.207733 70.741432 10.207733
endloop
endfacet
facet normal -0.463894 0.799915 0.380708
outer loop
vertex -10.207733 70.741432 10.207733
vertex -12.003024 70.741432 8.020166
vertex -17.838453 65.501556 11.919310
endloop
endfacet
facet normal 0.980785 0.000000 -0.195089
outer loop
vertex 4.185463 65.501556 21.041918
vertex 2.816283 70.741432 14.158536
vertex 2.816283 77.597046 14.158536
endloop
endfacet
facet normal 0.980785 0.000000 -0.195089
outer loop
vertex 2.816283 77.597046 14.158536
vertex 4.185463 72.357178 21.041918
vertex 4.185463 65.501556 21.041918
endloop
endfacet
facet normal 0.098016 0.000000 0.995185
outer loop
vertex 0.000000 65.501556 21.454144
vertex 4.185463 65.501556 21.041918
vertex 4.185463 72.357178 21.041918
endloop
endfacet
facet normal 0.098015 0.000000 0.995185
outer loop
vertex 4.185463 72.357178 21.041918
vertex 0.000000 72.357178 21.454144
vertex 0.000000 65.501556 21.454144
endloop
endfacet
facet normal -0.098017 0.000000 -0.995185
outer loop
vertex 2.816283 70.741432 14.158536
vertex 0.000000 70.741432 14.435913
vertex 0.000000 77.597046 14.435913
endloop
endfacet
facet normal -0.098016 0.000000 -0.995185
outer loop
vertex 0.000000 77.597046 14.435913
vertex 2.816283 77.597046 14.158536
vertex 2.816283 70.741432 14.158536
endloop
endfacet
facet normal 0.058820 0.799916 0.597223
outer loop
vertex 0.000000 72.357178 21.454144
vertex 4.185463 72.357178 21.041918
vertex 2.816283 77.597046 14.158536
endloop
endfacet
facet normal 0.058821 0.799915 0.597224
outer loop
vertex 2.816283 77.597046 14.158536
vertex 0.000000 77.597046 14.435913
vertex 0.000000 72.357178 21.454144
endloop
endfacet
facet normal -0.098016 0.000000 0.995185
outer loop
vertex 0.000000 65.501556 21.454144
vertex 0.000000 72.357178 21.454144
vertex -4.185496 72.357178 21.041910
endloop
endfacet
facet normal -0.098020 -0.000001 0.995185
outer loop
vertex -4.185496 72.357178 21.041910
vertex -4.185503 65.501556 21.041901
vertex 0.000000 65.501556 21.454144
endloop
endfacet
facet normal 0.098017 0.000000 -0.995185
outer loop
vertex 0.000000 70.741432 14.435913
vertex -2.816307 70.741432 14.158531
vertex -2.816307 77.597046 14.158531
endloop
endfacet
facet normal 0.098016 0.000000 -0.995185
outer loop
vertex -2.816307 77.597046 14.158531
vertex 0.000000 77.597046 14.435913
vertex 0.000000 70.741432 14.435913
endloop
endfacet
facet normal -0.058821 0.799916 0.597222
outer loop
vertex -4.185496 72.357178 21.041910
vertex 0.000000 72.357178 21.454144
vertex 0.000000 77.597046 14.435913
endloop
endfacet
facet normal -0.058821 0.799915 0.597224
outer loop
vertex 0.000000 77.597046 14.435913
vertex -2.816307 77.597046 14.158531
vertex -4.185496 72.357178 21.041910
endloop
endfacet
facet normal -0.980785 0.000001 -0.195090
outer loop
vertex -4.185503 65.501556 21.041901
vertex -4.185496 72.357178 21.041910
vertex -2.816307 77.597046 14.158531
endloop
endfacet
facet normal -0.980785 0.000000 -0.195092
outer loop
vertex -2.816307 77.597046 14.158531
vertex -2.816307 70.741432 14.158531
vertex -4.185503 65.501556 21.041901
endloop
endfacet
facet normal -0.597223 0.799916 0.058821
outer loop
vertex -21.454142 72.168190 0.000000
vertex -21.041908 72.168190 4.185499
vertex -14.158528 77.408051 2.816311
endloop
endfacet
facet normal -0.597223 0.799916 0.058823
outer loop
vertex -14.158528 77.408051 2.816311
vertex -14.435911 77.408051 0.000000
vertex -21.454142 72.168190 0.000000
endloop
endfacet
facet normal -0.597223 0.799916 -0.058821
outer loop
vertex -21.041912 72.168190 -4.185491
vertex -21.454142 72.168190 0.000000
vertex -14.435911 77.408051 0.000000
endloop
endfacet
facet normal -0.597223 0.799916 -0.058818
outer loop
vertex -14.435911 77.408051 0.000000
vertex -14.158530 77.408051 -2.816300
vertex -21.041912 72.168190 -4.185491
endloop
endfacet
facet normal -0.995185 0.000000 0.098017
outer loop
vertex -21.041903 65.501556 4.185521
vertex -21.041908 72.168190 4.185499
vertex -21.454142 72.168190 0.000000
endloop
endfacet
facet normal -0.995185 0.000000 0.098017
outer loop
vertex -21.454142 72.168190 0.000000
vertex -21.454142 65.501556 0.000000
vertex -21.041903 65.501556 4.185521
endloop
endfacet
facet normal 0.195088 0.000002 0.980786
outer loop
vertex -14.158524 70.741432 2.816326
vertex -14.158528 77.408051 2.816311
vertex -21.041908 72.168190 4.185499
endloop
endfacet
facet normal 0.195088 0.000003 0.980786
outer loop
vertex -21.041908 72.168190 4.185499
vertex -21.041903 65.501556 4.185521
vertex -14.158524 70.741432 2.816326
endloop
endfacet
facet normal 0.995185 0.000000 -0.098017
outer loop
vertex -14.435911 70.741432 0.000000
vertex -14.435911 77.408051 0.000000
vertex -14.158528 77.408051 2.816311
endloop
endfacet
facet normal 0.995185 0.000000 -0.098018
outer loop
vertex -14.158528 77.408051 2.816311
vertex -14.158524 70.741432 2.816326
vertex -14.435911 70.741432 0.000000
endloop
endfacet
facet normal 0.195092 -0.000002 -0.980785
outer loop
vertex -21.041908 65.501556 -4.185475
vertex -21.041912 72.168190 -4.185491
vertex -14.158530 77.408051 -2.816300
endloop
endfacet
facet normal 0.195090 -0.000001 -0.980785
outer loop
vertex -14.158530 77.408051 -2.816300
vertex -14.158525 70.741432 -2.816289
vertex -21.041908 65.501556 -4.185475
endloop
endfacet
facet normal -0.995185 0.000000 -0.098016
outer loop
vertex -21.454142 65.501556 0.000000
vertex -21.454142 72.168190 0.000000
vertex -21.041912 72.168190 -4.185491
endloop
endfacet
facet normal -0.995185 -0.000001 -0.098017
outer loop
vertex -21.041912 72.168190 -4.185491
vertex -21.041908 65.501556 -4.185475
vertex -21.454142 65.501556 0.000000
endloop
endfacet
facet normal 0.995185 0.000000 0.098017
outer loop
vertex -14.158525 70.741432 -2.816289
vertex -14.158530 77.408051 -2.816300
vertex -14.435911 77.408051 0.000000
endloop
endfacet
facet normal 0.995184 0.000000 0.098019
outer loop
vertex -14.435911 77.408051 0.000000
vertex -14.435911 70.741432 0.000000
vertex -14.158525 70.741432 -2.816289
endloop
endfacet
facet normal -0.058822 0.799915 0.597224
outer loop
vertex -4.185503 65.501556 21.041901
vertex 0.000000 65.501556 21.454144
vertex 0.000000 70.741432 14.435913
endloop
endfacet
facet normal -0.058821 0.799914 0.597224
outer loop
vertex 0.000000 70.741432 14.435913
vertex -2.816307 70.741432 14.158531
vertex -4.185503 65.501556 21.041901
endloop
endfacet
facet normal 0.058820 0.799915 0.597224
outer loop
vertex 0.000000 65.501556 21.454144
vertex 4.185463 65.501556 21.041918
vertex 2.816283 70.741432 14.158536
endloop
endfacet
facet normal 0.058821 0.799914 0.597224
outer loop
vertex 2.816283 70.741432 14.158536
vertex 0.000000 70.741432 14.435913
vertex 0.000000 65.501556 21.454144
endloop
endfacet
facet normal 0.380708 0.799915 -0.463894
outer loop
vertex 15.170378 65.501556 -15.170360
vertex 11.919258 65.501556 -17.838486
vertex 8.020142 70.741432 -12.003034
endloop
endfacet
facet normal 0.380708 0.799915 -0.463894
outer loop
vertex 8.020142 70.741432 -12.003034
vertex 10.207733 70.741432 -10.207724
vertex 15.170378 65.501556 -15.170360
endloop
endfacet
facet normal 0.463895 0.799915 -0.380707
outer loop
vertex 17.838472 65.501556 -11.919269
vertex 15.170378 65.501556 -15.170360
vertex 10.207733 70.741432 -10.207724
endloop
endfacet
facet normal 0.463894 0.799915 -0.380707
outer loop
vertex 10.207733 70.741432 -10.207724
vertex 12.003022 70.741432 -8.020147
vertex 17.838472 65.501556 -11.919269
endloop
endfacet
facet normal -0.597224 0.799915 0.058822
outer loop
vertex -21.454142 65.501556 0.000000
vertex -21.041903 65.501556 4.185521
vertex -14.158524 70.741432 2.816326
endloop
endfacet
facet normal -0.597224 0.799915 0.058823
outer loop
vertex -14.158524 70.741432 2.816326
vertex -14.435911 70.741432 0.000000
vertex -21.454142 65.501556 0.000000
endloop
endfacet
facet normal -0.597224 0.799915 -0.058821
outer loop
vertex -21.041908 65.501556 -4.185475
vertex -21.454142 65.501556 0.000000
vertex -14.435911 70.741432 0.000000
endloop
endfacet
facet normal -0.597223 0.799915 -0.058823
outer loop
vertex -14.435911 70.741432 0.000000
vertex -14.158525 70.741432 -2.816289
vertex -21.041908 65.501556 -4.185475
endloop
endfacet
facet normal 0.380708 0.799914 0.463895
outer loop
vertex 11.919258 65.501556 17.838486
vertex 15.170345 65.501556 15.170388
vertex 10.207711 70.741432 10.207746
endloop
endfacet
facet normal 0.380707 0.799915 0.463894
outer loop
vertex 10.207711 70.741432 10.207746
vertex 8.020142 70.741432 12.003034
vertex 11.919258 65.501556 17.838486
endloop
endfacet
facet normal 0.463893 0.799916 0.380707
outer loop
vertex 15.170345 65.501556 15.170388
vertex 17.838453 65.501556 11.919310
vertex 12.003008 70.741432 8.020183
endloop
endfacet
facet normal 0.463893 0.799915 0.380708
outer loop
vertex 12.003008 70.741432 8.020183
vertex 10.207711 70.741432 10.207746
vertex 15.170345 65.501556 15.170388
endloop
endfacet
facet normal 0.597224 0.799915 0.058823
outer loop
vertex 21.454142 65.501556 0.000000
vertex 14.435907 70.741432 0.000000
vertex 14.158524 70.741432 2.816326
endloop
endfacet
facet normal 0.597224 0.799915 0.058821
outer loop
vertex 14.158524 70.741432 2.816326
vertex 21.041903 65.501556 4.185521
vertex 21.454142 65.501556 0.000000
endloop
endfacet
facet normal 0.597224 0.799915 -0.058820
outer loop
vertex 21.041908 65.501556 -4.185475
vertex 14.158525 70.741432 -2.816289
vertex 14.435907 70.741432 0.000000
endloop
endfacet
facet normal 0.597224 0.799915 -0.058822
outer loop
vertex 14.435907 70.741432 0.000000
vertex 21.454142 65.501556 0.000000
vertex 21.041908 65.501556 -4.185475
endloop
endfacet
endsolid Exported from Blender-2.74 (sub 0)
