solid Exported from Blender-2.74 (sub 0)
facet normal -0.956941 0.000000 -0.290284
outer loop
vertex -10.552940 30.389326 -2.099095
vertex -10.552940 44.169666 -2.099095
vertex -9.940655 44.169666 -4.117539
endloop
endfacet
facet normal -0.956941 0.000000 -0.290284
outer loop
vertex -9.940655 44.169666 -4.117539
vertex -9.940655 30.389326 -4.117539
vertex -10.552940 30.389326 -2.099095
endloop
endfacet
facet normal -0.746075 0.261682 -0.612286
outer loop
vertex -13.152977 11.819279 -8.788522
vertex -8.946354 30.389326 -5.977748
vertex -7.608250 30.389326 -7.608236
endloop
endfacet
facet normal -0.746074 0.261682 -0.612287
outer loop
vertex -7.608250 30.389326 -7.608236
vertex -11.185688 11.819279 -11.185673
vertex -13.152977 11.819279 -8.788522
endloop
endfacet
facet normal -0.454971 0.261682 -0.851190
outer loop
vertex -8.788540 11.819279 -13.152963
vertex -5.977764 30.389326 -8.946342
vertex -4.117557 30.389326 -9.940645
endloop
endfacet
facet normal -0.454971 0.261682 -0.851190
outer loop
vertex -4.117557 30.389326 -9.940645
vertex -6.053653 11.819279 -14.614792
vertex -8.788540 11.819279 -13.152963
endloop
endfacet
facet normal -0.094601 0.261682 -0.960507
outer loop
vertex -3.086128 11.819279 -15.514982
vertex -2.099113 30.389326 -10.552933
vertex 0.000000 30.389326 -10.759677
endloop
endfacet
facet normal -0.094602 0.261682 -0.960506
outer loop
vertex 0.000000 30.389326 -10.759677
vertex 0.000000 11.819279 -15.818939
vertex -3.086128 11.819279 -15.514982
endloop
endfacet
facet normal -0.923594 0.261682 0.280171
outer loop
vertex -14.614790 11.819279 6.053669
vertex -9.940646 30.389326 4.117570
vertex -10.552938 30.389326 2.099127
endloop
endfacet
facet normal -0.923594 0.261682 0.280171
outer loop
vertex -10.552938 30.389326 2.099127
vertex -15.514984 11.819279 3.086143
vertex -14.614790 11.819279 6.053669
endloop
endfacet
facet normal -0.851190 0.261682 -0.454970
outer loop
vertex -14.614802 11.819279 -6.053632
vertex -9.940655 30.389326 -4.117539
vertex -8.946354 30.389326 -5.977748
endloop
endfacet
facet normal -0.851190 0.261682 -0.454970
outer loop
vertex -8.946354 30.389326 -5.977748
vertex -13.152977 11.819279 -8.788522
vertex -14.614802 11.819279 -6.053632
endloop
endfacet
facet normal -0.612288 0.261682 -0.746074
outer loop
vertex -11.185688 11.819279 -11.185673
vertex -7.608250 30.389326 -7.608236
vertex -5.977764 30.389326 -8.946342
endloop
endfacet
facet normal -0.612287 0.261682 -0.746074
outer loop
vertex -5.977764 30.389326 -8.946342
vertex -8.788540 11.819279 -13.152963
vertex -11.185688 11.819279 -11.185673
endloop
endfacet
facet normal -0.280169 0.261682 -0.923595
outer loop
vertex -6.053653 11.819279 -14.614792
vertex -4.117557 30.389326 -9.940645
vertex -2.099113 30.389326 -10.552933
endloop
endfacet
facet normal -0.280170 0.261682 -0.923595
outer loop
vertex -2.099113 30.389326 -10.552933
vertex -3.086128 11.819279 -15.514982
vertex -6.053653 11.819279 -14.614792
endloop
endfacet
facet normal -0.923595 0.261682 -0.280168
outer loop
vertex -15.514988 11.819279 -3.086105
vertex -10.552940 30.389326 -2.099095
vertex -9.940655 30.389326 -4.117539
endloop
endfacet
facet normal -0.923595 0.261682 -0.280168
outer loop
vertex -9.940655 30.389326 -4.117539
vertex -14.614802 11.819279 -6.053632
vertex -15.514988 11.819279 -3.086105
endloop
endfacet
facet normal -0.773011 0.000000 -0.634392
outer loop
vertex -8.946354 30.389326 -5.977748
vertex -8.946354 44.169666 -5.977748
vertex -7.608250 44.169666 -7.608236
endloop
endfacet
facet normal -0.773011 0.000000 -0.634393
outer loop
vertex -7.608250 44.169666 -7.608236
vertex -7.608250 30.389326 -7.608236
vertex -8.946354 30.389326 -5.977748
endloop
endfacet
facet normal -0.471398 0.000000 -0.881921
outer loop
vertex -5.977764 30.389326 -8.946342
vertex -5.977764 44.169666 -8.946342
vertex -4.117557 44.169666 -9.940645
endloop
endfacet
facet normal -0.471398 0.000000 -0.881921
outer loop
vertex -4.117557 44.169666 -9.940645
vertex -4.117557 30.389326 -9.940645
vertex -5.977764 30.389326 -8.946342
endloop
endfacet
facet normal -0.098018 0.000000 -0.995185
outer loop
vertex -2.099113 30.389326 -10.552933
vertex -2.099113 44.169666 -10.552933
vertex 0.000000 44.169666 -10.759677
endloop
endfacet
facet normal -0.098016 0.000000 -0.995185
outer loop
vertex 0.000000 44.169666 -10.759677
vertex 0.000000 30.389326 -10.759677
vertex -2.099113 30.389326 -10.552933
endloop
endfacet
facet normal -0.956940 0.000000 0.290287
outer loop
vertex -9.940646 30.389326 4.117570
vertex -9.940646 44.169666 4.117570
vertex -10.552938 44.169666 2.099127
endloop
endfacet
facet normal -0.956940 0.000000 0.290286
outer loop
vertex -10.552938 44.169666 2.099127
vertex -10.552938 30.389326 2.099127
vertex -9.940646 30.389326 4.117570
endloop
endfacet
facet normal -0.881921 0.000000 -0.471396
outer loop
vertex -9.940655 30.389326 -4.117539
vertex -9.940655 44.169666 -4.117539
vertex -8.946354 44.169666 -5.977748
endloop
endfacet
facet normal -0.881922 0.000000 -0.471396
outer loop
vertex -8.946354 44.169666 -5.977748
vertex -8.946354 30.389326 -5.977748
vertex -9.940655 30.389326 -4.117539
endloop
endfacet
facet normal -0.634393 0.000000 -0.773011
outer loop
vertex -7.608250 30.389326 -7.608236
vertex -7.608250 44.169666 -7.608236
vertex -5.977764 44.169666 -8.946342
endloop
endfacet
facet normal -0.634394 0.000000 -0.773010
outer loop
vertex -5.977764 44.169666 -8.946342
vertex -5.977764 30.389326 -8.946342
vertex -7.608250 30.389326 -7.608236
endloop
endfacet
facet normal -0.290284 0.000000 -0.956940
outer loop
vertex -4.117557 30.389326 -9.940645
vertex -4.117557 44.169666 -9.940645
vertex -2.099113 44.169666 -10.552933
endloop
endfacet
facet normal -0.290284 0.000000 -0.956940
outer loop
vertex -2.099113 44.169666 -10.552933
vertex -2.099113 30.389326 -10.552933
vertex -4.117557 30.389326 -9.940645
endloop
endfacet
facet normal -0.806900 -0.537587 -0.244770
outer loop
vertex -10.552940 44.169666 -2.099095
vertex -21.041906 60.863197 -4.185475
vertex -19.821047 60.863197 -8.210126
endloop
endfacet
facet normal -0.806901 -0.537587 -0.244768
outer loop
vertex -19.821047 60.863197 -8.210126
vertex -9.940655 44.169666 -4.117539
vertex -10.552940 44.169666 -2.099095
endloop
endfacet
facet normal -0.651809 -0.537588 -0.534925
outer loop
vertex -8.946354 44.169666 -5.977748
vertex -17.838472 60.863197 -11.919268
vertex -15.170376 60.863197 -15.170360
endloop
endfacet
facet normal -0.651809 -0.537587 -0.534925
outer loop
vertex -15.170376 60.863197 -15.170360
vertex -7.608250 44.169666 -7.608236
vertex -8.946354 44.169666 -5.977748
endloop
endfacet
facet normal -0.397486 -0.537588 -0.743643
outer loop
vertex -5.977764 44.169666 -8.946342
vertex -11.919291 60.863197 -17.838459
vertex -8.210155 60.863197 -19.821037
endloop
endfacet
facet normal -0.397486 -0.537588 -0.743643
outer loop
vertex -8.210155 60.863197 -19.821037
vertex -4.117557 44.169666 -9.940645
vertex -5.977764 44.169666 -8.946342
endloop
endfacet
facet normal -0.082649 -0.537587 -0.839148
outer loop
vertex -2.099113 44.169666 -10.552933
vertex -4.185503 60.863197 -21.041901
vertex 0.000000 60.863197 -21.454138
endloop
endfacet
facet normal -0.082649 -0.537587 -0.839148
outer loop
vertex 0.000000 60.863197 -21.454138
vertex 0.000000 44.169666 -10.759677
vertex -2.099113 44.169666 -10.552933
endloop
endfacet
facet normal -0.806899 -0.537587 0.244772
outer loop
vertex -9.940646 44.169666 4.117570
vertex -19.821032 60.863197 8.210171
vertex -21.041903 60.863197 4.185520
endloop
endfacet
facet normal -0.806899 -0.537587 0.244774
outer loop
vertex -21.041903 60.863197 4.185520
vertex -10.552938 44.169666 2.099127
vertex -9.940646 44.169666 4.117570
endloop
endfacet
facet normal -0.743643 -0.537587 -0.397486
outer loop
vertex -9.940655 44.169666 -4.117539
vertex -19.821047 60.863197 -8.210126
vertex -17.838472 60.863197 -11.919268
endloop
endfacet
facet normal -0.743644 -0.537587 -0.397485
outer loop
vertex -17.838472 60.863197 -11.919268
vertex -8.946354 44.169666 -5.977748
vertex -9.940655 44.169666 -4.117539
endloop
endfacet
facet normal -0.534926 -0.537587 -0.651808
outer loop
vertex -7.608250 44.169666 -7.608236
vertex -15.170376 60.863197 -15.170360
vertex -11.919291 60.863197 -17.838459
endloop
endfacet
facet normal -0.534926 -0.537587 -0.651809
outer loop
vertex -11.919291 60.863197 -17.838459
vertex -5.977764 44.169666 -8.946342
vertex -7.608250 44.169666 -7.608236
endloop
endfacet
facet normal -0.244770 -0.537588 -0.806900
outer loop
vertex -4.117557 44.169666 -9.940645
vertex -8.210155 60.863197 -19.821037
vertex -4.185503 60.863197 -21.041901
endloop
endfacet
facet normal -0.244770 -0.537587 -0.806900
outer loop
vertex -4.185503 60.863197 -21.041901
vertex -2.099113 44.169666 -10.552933
vertex -4.117557 44.169666 -9.940645
endloop
endfacet
facet normal -0.743643 -0.537588 0.397486
outer loop
vertex -8.946342 44.169666 5.977778
vertex -17.838451 60.863197 11.919309
vertex -19.821032 60.863197 8.210171
endloop
endfacet
facet normal -0.743643 -0.537587 0.397486
outer loop
vertex -19.821032 60.863197 8.210171
vertex -9.940646 44.169666 4.117570
vertex -8.946342 44.169666 5.977778
endloop
endfacet
facet normal 0.094601 0.261682 0.960507
outer loop
vertex 0.000000 11.819279 15.818948
vertex 3.086097 11.819279 15.514997
vertex 2.099093 30.389326 10.552950
endloop
endfacet
facet normal 0.094600 0.261682 0.960507
outer loop
vertex 2.099093 30.389326 10.552950
vertex 0.000000 30.389326 10.759691
vertex 0.000000 11.819279 15.818948
endloop
endfacet
facet normal 0.956941 0.000000 -0.290284
outer loop
vertex 10.552940 30.389326 -2.099095
vertex 9.940655 30.389326 -4.117539
vertex 9.940655 44.169666 -4.117539
endloop
endfacet
facet normal 0.956941 0.000000 -0.290284
outer loop
vertex 9.940655 44.169666 -4.117539
vertex 10.552940 44.169666 -2.099095
vertex 10.552940 30.389326 -2.099095
endloop
endfacet
facet normal 0.454969 0.261682 0.851191
outer loop
vertex 6.053625 11.819279 14.614813
vertex 8.788515 11.819279 13.152988
vertex 5.977746 30.389326 8.946365
endloop
endfacet
facet normal 0.454969 0.261682 0.851191
outer loop
vertex 5.977746 30.389326 8.946365
vertex 4.117537 30.389326 9.940664
vertex 6.053625 11.819279 14.614813
endloop
endfacet
facet normal 0.746073 0.261682 0.612288
outer loop
vertex 11.185666 11.819279 11.185701
vertex 13.152960 11.819279 8.788555
vertex 8.946342 30.389326 5.977778
endloop
endfacet
facet normal 0.746073 0.261682 0.612289
outer loop
vertex 8.946342 30.389326 5.977778
vertex 7.608234 30.389326 7.608261
vertex 11.185666 11.819279 11.185701
endloop
endfacet
facet normal 0.923594 0.261682 0.280171
outer loop
vertex 14.614790 11.819279 6.053669
vertex 15.514984 11.819279 3.086143
vertex 10.552938 30.389326 2.099127
endloop
endfacet
facet normal 0.923594 0.261682 0.280171
outer loop
vertex 10.552938 30.389326 2.099127
vertex 9.940646 30.389326 4.117570
vertex 14.614790 11.819279 6.053669
endloop
endfacet
facet normal -0.612287 0.261682 0.746074
outer loop
vertex -11.185686 11.819279 11.185687
vertex -8.788537 11.819279 13.152976
vertex -5.977762 30.389326 8.946357
endloop
endfacet
facet normal -0.612287 0.261682 0.746074
outer loop
vertex -5.977762 30.389326 8.946357
vertex -7.608248 30.389326 7.608252
vertex -11.185686 11.819279 11.185687
endloop
endfacet
facet normal 0.960507 0.261682 -0.094602
outer loop
vertex 15.818943 11.819279 0.000000
vertex 15.514988 11.819279 -3.086105
vertex 10.552940 30.389326 -2.099095
endloop
endfacet
facet normal 0.960507 0.261682 -0.094602
outer loop
vertex 10.552940 30.389326 -2.099095
vertex 10.759685 30.389326 0.000000
vertex 15.818943 11.819279 0.000000
endloop
endfacet
facet normal -0.280170 0.261682 0.923595
outer loop
vertex -6.053651 11.819279 14.614802
vertex -3.086125 11.819279 15.514992
vertex -2.099112 30.389326 10.552947
endloop
endfacet
facet normal -0.280169 0.261682 0.923595
outer loop
vertex -2.099112 30.389326 10.552947
vertex -4.117555 30.389326 9.940659
vertex -6.053651 11.819279 14.614802
endloop
endfacet
facet normal 0.851190 0.261682 -0.454970
outer loop
vertex 14.614802 11.819279 -6.053632
vertex 13.152977 11.819279 -8.788522
vertex 8.946354 30.389326 -5.977748
endloop
endfacet
facet normal 0.851190 0.261682 -0.454970
outer loop
vertex 8.946354 30.389326 -5.977748
vertex 9.940655 30.389326 -4.117539
vertex 14.614802 11.819279 -6.053632
endloop
endfacet
facet normal 0.280168 0.261682 0.923595
outer loop
vertex 3.086097 11.819279 15.514997
vertex 6.053625 11.819279 14.614813
vertex 4.117537 30.389326 9.940664
endloop
endfacet
facet normal 0.280168 0.261682 0.923595
outer loop
vertex 4.117537 30.389326 9.940664
vertex 2.099093 30.389326 10.552950
vertex 3.086097 11.819279 15.514997
endloop
endfacet
facet normal 0.612287 0.261682 0.746075
outer loop
vertex 8.788515 11.819279 13.152988
vertex 11.185666 11.819279 11.185701
vertex 7.608234 30.389326 7.608261
endloop
endfacet
facet normal 0.612287 0.261682 0.746075
outer loop
vertex 7.608234 30.389326 7.608261
vertex 5.977746 30.389326 8.946365
vertex 8.788515 11.819279 13.152988
endloop
endfacet
facet normal 0.851189 0.261682 0.454971
outer loop
vertex 13.152960 11.819279 8.788555
vertex 14.614790 11.819279 6.053669
vertex 9.940646 30.389326 4.117570
endloop
endfacet
facet normal 0.851189 0.261682 0.454971
outer loop
vertex 9.940646 30.389326 4.117570
vertex 8.946342 30.389326 5.977778
vertex 13.152960 11.819279 8.788555
endloop
endfacet
facet normal -0.746074 0.261682 0.612287
outer loop
vertex -13.152975 11.819279 8.788539
vertex -11.185686 11.819279 11.185687
vertex -7.608248 30.389326 7.608252
endloop
endfacet
facet normal -0.746074 0.261682 0.612288
outer loop
vertex -7.608248 30.389326 7.608252
vertex -8.946354 30.389326 5.977767
vertex -13.152975 11.819279 8.788539
endloop
endfacet
facet normal 0.960507 0.261682 0.094602
outer loop
vertex 15.514984 11.819279 3.086143
vertex 15.818943 11.819279 0.000000
vertex 10.759685 30.389326 0.000000
endloop
endfacet
facet normal 0.960507 0.261682 0.094602
outer loop
vertex 10.759685 30.389326 0.000000
vertex 10.552938 30.389326 2.099127
vertex 15.514984 11.819279 3.086143
endloop
endfacet
facet normal -0.454970 0.261682 0.851190
outer loop
vertex -8.788537 11.819279 13.152976
vertex -6.053651 11.819279 14.614802
vertex -4.117555 30.389326 9.940659
endloop
endfacet
facet normal -0.454971 0.261682 0.851190
outer loop
vertex -4.117555 30.389326 9.940659
vertex -5.977762 30.389326 8.946357
vertex -8.788537 11.819279 13.152976
endloop
endfacet
facet normal 0.923595 0.261682 -0.280168
outer loop
vertex 15.514988 11.819279 -3.086105
vertex 14.614802 11.819279 -6.053632
vertex 9.940655 30.389326 -4.117539
endloop
endfacet
facet normal 0.923595 0.261682 -0.280168
outer loop
vertex 9.940655 30.389326 -4.117539
vertex 10.552940 30.389326 -2.099095
vertex 15.514988 11.819279 -3.086105
endloop
endfacet
facet normal -0.094601 0.261682 0.960507
outer loop
vertex -3.086125 11.819279 15.514992
vertex 0.000000 11.819279 15.818948
vertex 0.000000 30.389326 10.759691
endloop
endfacet
facet normal -0.094601 0.261682 0.960507
outer loop
vertex 0.000000 30.389326 10.759691
vertex -2.099112 30.389326 10.552947
vertex -3.086125 11.819279 15.514992
endloop
endfacet
facet normal -0.098017 0.000000 0.995185
outer loop
vertex -2.099112 30.389326 10.552947
vertex 0.000000 30.389326 10.759691
vertex 0.000000 44.169666 10.759691
endloop
endfacet
facet normal -0.098017 0.000000 0.995185
outer loop
vertex 0.000000 44.169666 10.759691
vertex -2.099112 44.169666 10.552947
vertex -2.099112 30.389326 10.552947
endloop
endfacet
facet normal 0.098017 0.000000 0.995185
outer loop
vertex 0.000000 30.389326 10.759691
vertex 2.099093 30.389326 10.552950
vertex 2.099093 44.169666 10.552950
endloop
endfacet
facet normal 0.098017 0.000000 0.995185
outer loop
vertex 2.099093 44.169666 10.552950
vertex 0.000000 44.169666 10.759691
vertex 0.000000 30.389326 10.759691
endloop
endfacet
facet normal 0.471395 0.000000 0.881922
outer loop
vertex 4.117537 30.389326 9.940664
vertex 5.977746 30.389326 8.946365
vertex 5.977746 44.169666 8.946365
endloop
endfacet
facet normal 0.471395 0.000000 0.881922
outer loop
vertex 5.977746 44.169666 8.946365
vertex 4.117537 44.169666 9.940664
vertex 4.117537 30.389326 9.940664
endloop
endfacet
facet normal 0.773009 0.000000 0.634395
outer loop
vertex 7.608234 30.389326 7.608261
vertex 8.946342 30.389326 5.977778
vertex 8.946342 44.169666 5.977778
endloop
endfacet
facet normal 0.773010 0.000000 0.634394
outer loop
vertex 8.946342 44.169666 5.977778
vertex 7.608234 44.169666 7.608261
vertex 7.608234 30.389326 7.608261
endloop
endfacet
facet normal 0.956940 0.000000 0.290286
outer loop
vertex 9.940646 30.389326 4.117570
vertex 10.552938 30.389326 2.099127
vertex 10.552938 44.169666 2.099127
endloop
endfacet
facet normal 0.956940 0.000000 0.290287
outer loop
vertex 10.552938 44.169666 2.099127
vertex 9.940646 44.169666 4.117570
vertex 9.940646 30.389326 4.117570
endloop
endfacet
facet normal -0.634393 0.000000 0.773010
outer loop
vertex -7.608248 30.389326 7.608252
vertex -5.977762 30.389326 8.946357
vertex -5.977762 44.169666 8.946357
endloop
endfacet
facet normal -0.634393 0.000000 0.773011
outer loop
vertex -5.977762 44.169666 8.946357
vertex -7.608248 44.169666 7.608252
vertex -7.608248 30.389326 7.608252
endloop
endfacet
facet normal 0.995185 0.000000 -0.098018
outer loop
vertex 10.759685 30.389326 0.000000
vertex 10.552940 30.389326 -2.099095
vertex 10.552940 44.169666 -2.099095
endloop
endfacet
facet normal 0.995185 0.000000 -0.098018
outer loop
vertex 10.552940 44.169666 -2.099095
vertex 10.759685 44.169666 0.000000
vertex 10.759685 30.389326 0.000000
endloop
endfacet
facet normal -0.290284 0.000000 0.956940
outer loop
vertex -4.117555 30.389326 9.940659
vertex -2.099112 30.389326 10.552947
vertex -2.099112 44.169666 10.552947
endloop
endfacet
facet normal -0.290285 0.000000 0.956940
outer loop
vertex -2.099112 44.169666 10.552947
vertex -4.117555 44.169666 9.940659
vertex -4.117555 30.389326 9.940659
endloop
endfacet
facet normal 0.881922 0.000000 -0.471396
outer loop
vertex 9.940655 30.389326 -4.117539
vertex 8.946354 30.389326 -5.977748
vertex 8.946354 44.169666 -5.977748
endloop
endfacet
facet normal 0.881921 0.000000 -0.471396
outer loop
vertex 8.946354 44.169666 -5.977748
vertex 9.940655 44.169666 -4.117539
vertex 9.940655 30.389326 -4.117539
endloop
endfacet
facet normal 0.290283 0.000000 0.956941
outer loop
vertex 2.099093 30.389326 10.552950
vertex 4.117537 30.389326 9.940664
vertex 4.117537 44.169666 9.940664
endloop
endfacet
facet normal 0.290283 0.000000 0.956941
outer loop
vertex 4.117537 44.169666 9.940664
vertex 2.099093 44.169666 10.552950
vertex 2.099093 30.389326 10.552950
endloop
endfacet
facet normal 0.634393 0.000000 0.773011
outer loop
vertex 5.977746 30.389326 8.946365
vertex 7.608234 30.389326 7.608261
vertex 7.608234 44.169666 7.608261
endloop
endfacet
facet normal 0.634393 0.000000 0.773011
outer loop
vertex 7.608234 44.169666 7.608261
vertex 5.977746 44.169666 8.946365
vertex 5.977746 30.389326 8.946365
endloop
endfacet
facet normal 0.881921 0.000000 0.471397
outer loop
vertex 8.946342 30.389326 5.977778
vertex 9.940646 30.389326 4.117570
vertex 9.940646 44.169666 4.117570
endloop
endfacet
facet normal 0.881921 0.000000 0.471398
outer loop
vertex 9.940646 44.169666 4.117570
vertex 8.946342 44.169666 5.977778
vertex 8.946342 30.389326 5.977778
endloop
endfacet
facet normal 0.995185 0.000000 0.098017
outer loop
vertex 10.552938 30.389326 2.099127
vertex 10.759685 30.389326 0.000000
vertex 10.759685 44.169666 0.000000
endloop
endfacet
facet normal 0.995185 0.000000 0.098017
outer loop
vertex 10.759685 44.169666 0.000000
vertex 10.552938 44.169666 2.099127
vertex 10.552938 30.389326 2.099127
endloop
endfacet
facet normal -0.471397 0.000000 0.881921
outer loop
vertex -5.977762 30.389326 8.946357
vertex -4.117555 30.389326 9.940659
vertex -4.117555 44.169666 9.940659
endloop
endfacet
facet normal -0.471397 0.000000 0.881921
outer loop
vertex -4.117555 44.169666 9.940659
vertex -5.977762 44.169666 8.946357
vertex -5.977762 30.389326 8.946357
endloop
endfacet
facet normal 0.806900 -0.537587 -0.244769
outer loop
vertex 10.552940 44.169666 -2.099095
vertex 9.940655 44.169666 -4.117539
vertex 19.821047 60.863197 -8.210126
endloop
endfacet
facet normal 0.806900 -0.537587 -0.244770
outer loop
vertex 19.821047 60.863197 -8.210126
vertex 21.041906 60.863197 -4.185475
vertex 10.552940 44.169666 -2.099095
endloop
endfacet
facet normal -0.082649 -0.537587 0.839148
outer loop
vertex -2.099112 44.169666 10.552947
vertex 0.000000 44.169666 10.759691
vertex 0.000000 60.863197 21.454144
endloop
endfacet
facet normal -0.082649 -0.537587 0.839148
outer loop
vertex 0.000000 60.863197 21.454144
vertex -4.185496 60.863197 21.041908
vertex -2.099112 44.169666 10.552947
endloop
endfacet
facet normal 0.082648 -0.537587 0.839148
outer loop
vertex 0.000000 44.169666 10.759691
vertex 2.099093 44.169666 10.552950
vertex 4.185462 60.863197 21.041916
endloop
endfacet
facet normal 0.082649 -0.537587 0.839148
outer loop
vertex 4.185462 60.863197 21.041916
vertex 0.000000 60.863197 21.454144
vertex 0.000000 44.169666 10.759691
endloop
endfacet
facet normal 0.397485 -0.537586 0.743644
outer loop
vertex 4.117537 44.169666 9.940664
vertex 5.977746 44.169666 8.946365
vertex 11.919257 60.863197 17.838484
endloop
endfacet
facet normal 0.397485 -0.537587 0.743644
outer loop
vertex 11.919257 60.863197 17.838484
vertex 8.210115 60.863197 19.821056
vertex 4.117537 44.169666 9.940664
endloop
endfacet
facet normal 0.651807 -0.537587 0.534927
outer loop
vertex 7.608234 44.169666 7.608261
vertex 8.946342 44.169666 5.977778
vertex 17.838451 60.863197 11.919309
endloop
endfacet
facet normal 0.651807 -0.537587 0.534927
outer loop
vertex 17.838451 60.863197 11.919309
vertex 15.170345 60.863197 15.170388
vertex 7.608234 44.169666 7.608261
endloop
endfacet
facet normal 0.806899 -0.537587 0.244775
outer loop
vertex 9.940646 44.169666 4.117570
vertex 10.552938 44.169666 2.099127
vertex 21.041903 60.863197 4.185520
endloop
endfacet
facet normal 0.806899 -0.537587 0.244772
outer loop
vertex 21.041903 60.863197 4.185520
vertex 19.821032 60.863197 8.210171
vertex 9.940646 44.169666 4.117570
endloop
endfacet
facet normal -0.534926 -0.537587 0.651809
outer loop
vertex -7.608248 44.169666 7.608252
vertex -5.977762 44.169666 8.946357
vertex -11.919285 60.863197 17.838467
endloop
endfacet
facet normal -0.534926 -0.537587 0.651809
outer loop
vertex -11.919285 60.863197 17.838467
vertex -15.170372 60.863197 15.170370
vertex -7.608248 44.169666 7.608252
endloop
endfacet
facet normal 0.743644 -0.537587 -0.397485
outer loop
vertex 9.940655 44.169666 -4.117539
vertex 8.946354 44.169666 -5.977748
vertex 17.838472 60.863197 -11.919268
endloop
endfacet
facet normal 0.743643 -0.537587 -0.397485
outer loop
vertex 17.838472 60.863197 -11.919268
vertex 19.821047 60.863197 -8.210126
vertex 9.940655 44.169666 -4.117539
endloop
endfacet
facet normal 0.244769 -0.537587 0.806900
outer loop
vertex 2.099093 44.169666 10.552950
vertex 4.117537 44.169666 9.940664
vertex 8.210115 60.863197 19.821056
endloop
endfacet
facet normal 0.244769 -0.537587 0.806900
outer loop
vertex 8.210115 60.863197 19.821056
vertex 4.185462 60.863197 21.041916
vertex 2.099093 44.169666 10.552950
endloop
endfacet
facet normal 0.534925 -0.537587 0.651809
outer loop
vertex 5.977746 44.169666 8.946365
vertex 7.608234 44.169666 7.608261
vertex 15.170345 60.863197 15.170388
endloop
endfacet
facet normal 0.534925 -0.537587 0.651809
outer loop
vertex 15.170345 60.863197 15.170388
vertex 11.919257 60.863197 17.838484
vertex 5.977746 44.169666 8.946365
endloop
endfacet
facet normal 0.743643 -0.537588 0.397485
outer loop
vertex 8.946342 44.169666 5.977778
vertex 9.940646 44.169666 4.117570
vertex 19.821032 60.863197 8.210171
endloop
endfacet
facet normal 0.743643 -0.537588 0.397486
outer loop
vertex 19.821032 60.863197 8.210171
vertex 17.838451 60.863197 11.919309
vertex 8.946342 44.169666 5.977778
endloop
endfacet
facet normal 0.612287 0.261682 -0.746074
outer loop
vertex 11.185688 11.819279 -11.185673
vertex 8.788540 11.819279 -13.152963
vertex 5.977764 30.389326 -8.946342
endloop
endfacet
facet normal 0.612287 0.261682 -0.746074
outer loop
vertex 5.977764 30.389326 -8.946342
vertex 7.608248 30.389326 -7.608240
vertex 11.185688 11.819279 -11.185673
endloop
endfacet
facet normal -0.960506 0.261682 0.094603
outer loop
vertex -15.818947 11.819279 0.000000
vertex -15.514984 11.819279 3.086143
vertex -10.552938 30.389326 2.099127
endloop
endfacet
facet normal -0.960506 0.261682 0.094602
outer loop
vertex -10.552938 30.389326 2.099127
vertex -10.759686 30.389326 0.000000
vertex -15.818947 11.819279 0.000000
endloop
endfacet
facet normal 0.280168 0.261682 -0.923595
outer loop
vertex 6.053625 11.819279 -14.614813
vertex 3.086097 11.819279 -15.514997
vertex 2.099093 30.389326 -10.552950
endloop
endfacet
facet normal 0.280173 0.261683 -0.923593
outer loop
vertex 2.099093 30.389326 -10.552950
vertex 4.117552 30.389326 -9.940647
vertex 6.053625 11.819279 -14.614813
endloop
endfacet
facet normal -0.851191 0.261682 0.454969
outer loop
vertex -14.614790 11.819279 6.053669
vertex -13.152975 11.819279 8.788539
vertex -8.946354 30.389326 5.977767
endloop
endfacet
facet normal -0.851190 0.261682 0.454970
outer loop
vertex -8.946354 30.389326 5.977767
vertex -9.940646 30.389326 4.117570
vertex -14.614790 11.819279 6.053669
endloop
endfacet
facet normal 0.746075 0.261682 -0.612287
outer loop
vertex 13.152977 11.819279 -8.788522
vertex 11.185688 11.819279 -11.185673
vertex 7.608248 30.389326 -7.608240
endloop
endfacet
facet normal 0.746075 0.261682 -0.612286
outer loop
vertex 7.608248 30.389326 -7.608240
vertex 8.946354 30.389326 -5.977748
vertex 13.152977 11.819279 -8.788522
endloop
endfacet
facet normal -0.960506 0.261682 -0.094603
outer loop
vertex -15.514988 11.819279 -3.086105
vertex -15.818947 11.819279 0.000000
vertex -10.759686 30.389326 0.000000
endloop
endfacet
facet normal -0.960506 0.261682 -0.094603
outer loop
vertex -10.759686 30.389326 0.000000
vertex -10.552940 30.389326 -2.099095
vertex -15.514988 11.819279 -3.086105
endloop
endfacet
facet normal 0.454973 0.261682 -0.851189
outer loop
vertex 8.788540 11.819279 -13.152963
vertex 6.053625 11.819279 -14.614813
vertex 4.117552 30.389326 -9.940647
endloop
endfacet
facet normal 0.454970 0.261682 -0.851190
outer loop
vertex 4.117552 30.389326 -9.940647
vertex 5.977764 30.389326 -8.946342
vertex 8.788540 11.819279 -13.152963
endloop
endfacet
facet normal 0.094599 0.261683 -0.960507
outer loop
vertex 3.086097 11.819279 -15.514997
vertex 0.000000 11.819279 -15.818939
vertex 0.000000 30.389326 -10.759677
endloop
endfacet
facet normal 0.094595 0.261682 -0.960507
outer loop
vertex 0.000000 30.389326 -10.759677
vertex 2.099093 30.389326 -10.552950
vertex 3.086097 11.819279 -15.514997
endloop
endfacet
facet normal -0.839148 -0.537587 -0.082649
outer loop
vertex -10.552940 44.169666 -2.099095
vertex -10.759686 44.169666 0.000000
vertex -21.454142 60.863197 0.000000
endloop
endfacet
facet normal -0.839148 -0.537587 -0.082650
outer loop
vertex -21.454142 60.863197 0.000000
vertex -21.041906 60.863197 -4.185475
vertex -10.552940 44.169666 -2.099095
endloop
endfacet
facet normal 0.098010 0.000000 -0.995185
outer loop
vertex 2.099093 30.389326 -10.552950
vertex 0.000000 30.389326 -10.759677
vertex 0.000000 44.169666 -10.759677
endloop
endfacet
facet normal 0.098015 0.000001 -0.995185
outer loop
vertex 0.000000 44.169666 -10.759677
vertex 2.099109 44.169666 -10.552934
vertex 2.099093 30.389326 -10.552950
endloop
endfacet
facet normal -0.773010 0.000000 0.634394
outer loop
vertex -8.946354 30.389326 5.977767
vertex -7.608248 30.389326 7.608252
vertex -7.608248 44.169666 7.608252
endloop
endfacet
facet normal -0.773011 0.000000 0.634393
outer loop
vertex -7.608248 44.169666 7.608252
vertex -8.946342 44.169666 5.977778
vertex -8.946354 30.389326 5.977767
endloop
endfacet
facet normal 0.634393 0.000000 -0.773011
outer loop
vertex 7.608248 30.389326 -7.608240
vertex 5.977764 30.389326 -8.946342
vertex 5.977764 44.169666 -8.946342
endloop
endfacet
facet normal 0.634393 0.000000 -0.773011
outer loop
vertex 5.977764 44.169666 -8.946342
vertex 7.608250 44.169666 -7.608236
vertex 7.608248 30.389326 -7.608240
endloop
endfacet
facet normal -0.995185 0.000000 0.098018
outer loop
vertex -10.759686 30.389326 0.000000
vertex -10.552938 30.389326 2.099127
vertex -10.552938 44.169666 2.099127
endloop
endfacet
facet normal -0.995185 0.000000 0.098018
outer loop
vertex -10.552938 44.169666 2.099127
vertex -10.759686 44.169666 0.000000
vertex -10.759686 30.389326 0.000000
endloop
endfacet
facet normal 0.290290 0.000001 -0.956939
outer loop
vertex 4.117552 30.389326 -9.940647
vertex 2.099093 30.389326 -10.552950
vertex 2.099109 44.169666 -10.552934
endloop
endfacet
facet normal 0.290283 0.000000 -0.956941
outer loop
vertex 2.099109 44.169666 -10.552934
vertex 4.117552 44.169666 -9.940647
vertex 4.117552 30.389326 -9.940647
endloop
endfacet
facet normal -0.881922 0.000000 0.471396
outer loop
vertex -9.940646 30.389326 4.117570
vertex -8.946354 30.389326 5.977767
vertex -8.946342 44.169666 5.977778
endloop
endfacet
facet normal -0.881921 0.000000 0.471398
outer loop
vertex -8.946342 44.169666 5.977778
vertex -9.940646 44.169666 4.117570
vertex -9.940646 30.389326 4.117570
endloop
endfacet
facet normal 0.773011 0.000000 -0.634392
outer loop
vertex 8.946354 30.389326 -5.977748
vertex 7.608248 30.389326 -7.608240
vertex 7.608250 44.169666 -7.608236
endloop
endfacet
facet normal 0.773011 0.000000 -0.634392
outer loop
vertex 7.608250 44.169666 -7.608236
vertex 8.946354 44.169666 -5.977748
vertex 8.946354 30.389326 -5.977748
endloop
endfacet
facet normal -0.995185 0.000000 -0.098018
outer loop
vertex -10.552940 30.389326 -2.099095
vertex -10.759686 30.389326 0.000000
vertex -10.759686 44.169666 0.000000
endloop
endfacet
facet normal -0.995185 0.000000 -0.098018
outer loop
vertex -10.759686 44.169666 0.000000
vertex -10.552940 44.169666 -2.099095
vertex -10.552940 30.389326 -2.099095
endloop
endfacet
facet normal 0.471398 0.000000 -0.881921
outer loop
vertex 5.977764 30.389326 -8.946342
vertex 4.117552 30.389326 -9.940647
vertex 4.117552 44.169666 -9.940647
endloop
endfacet
facet normal 0.471397 0.000000 -0.881921
outer loop
vertex 4.117552 44.169666 -9.940647
vertex 5.977764 44.169666 -8.946342
vertex 5.977764 30.389326 -8.946342
endloop
endfacet
facet normal 0.397486 -0.537588 -0.743643
outer loop
vertex 5.977764 44.169666 -8.946342
vertex 4.117552 44.169666 -9.940647
vertex 8.210115 60.863197 -19.821056
endloop
endfacet
facet normal 0.397485 -0.537588 -0.743643
outer loop
vertex 8.210115 60.863197 -19.821056
vertex 11.919257 60.863197 -17.838484
vertex 5.977764 44.169666 -8.946342
endloop
endfacet
facet normal 0.082649 -0.537587 -0.839148
outer loop
vertex 2.099109 44.169666 -10.552934
vertex 0.000000 44.169666 -10.759677
vertex 0.000000 60.863197 -21.454138
endloop
endfacet
facet normal 0.082647 -0.537588 -0.839148
outer loop
vertex 0.000000 60.863197 -21.454138
vertex 4.185462 60.863197 -21.041916
vertex 2.099109 44.169666 -10.552934
endloop
endfacet
facet normal -0.651809 -0.537587 0.534925
outer loop
vertex -8.946342 44.169666 5.977778
vertex -7.608248 44.169666 7.608252
vertex -15.170372 60.863197 15.170370
endloop
endfacet
facet normal -0.651809 -0.537587 0.534926
outer loop
vertex -15.170372 60.863197 15.170370
vertex -17.838451 60.863197 11.919309
vertex -8.946342 44.169666 5.977778
endloop
endfacet
facet normal -0.397486 -0.537587 0.743643
outer loop
vertex -8.210155 60.863197 19.821037
vertex -11.919285 60.863197 17.838467
vertex -5.977762 44.169666 8.946357
endloop
endfacet
facet normal -0.397485 -0.537587 0.743643
outer loop
vertex -5.977762 44.169666 8.946357
vertex -4.117555 44.169666 9.940659
vertex -8.210155 60.863197 19.821037
endloop
endfacet
facet normal 0.839148 -0.537587 -0.082649
outer loop
vertex 10.759685 44.169666 0.000000
vertex 10.552940 44.169666 -2.099095
vertex 21.041906 60.863197 -4.185475
endloop
endfacet
facet normal 0.839148 -0.537587 -0.082648
outer loop
vertex 21.041906 60.863197 -4.185475
vertex 21.454142 60.863197 0.000000
vertex 10.759685 44.169666 0.000000
endloop
endfacet
facet normal 0.534925 -0.537587 -0.651809
outer loop
vertex 7.608250 44.169666 -7.608236
vertex 5.977764 44.169666 -8.946342
vertex 11.919257 60.863197 -17.838484
endloop
endfacet
facet normal 0.534925 -0.537588 -0.651809
outer loop
vertex 11.919257 60.863197 -17.838484
vertex 15.170345 60.863197 -15.170388
vertex 7.608250 44.169666 -7.608236
endloop
endfacet
facet normal -0.839148 -0.537587 0.082648
outer loop
vertex -10.759686 44.169666 0.000000
vertex -10.552938 44.169666 2.099127
vertex -21.041903 60.863197 4.185520
endloop
endfacet
facet normal -0.839148 -0.537587 0.082649
outer loop
vertex -21.041903 60.863197 4.185520
vertex -21.454142 60.863197 0.000000
vertex -10.759686 44.169666 0.000000
endloop
endfacet
facet normal 0.244769 -0.537587 -0.806900
outer loop
vertex 4.117552 44.169666 -9.940647
vertex 2.099109 44.169666 -10.552934
vertex 4.185462 60.863197 -21.041916
endloop
endfacet
facet normal 0.244769 -0.537588 -0.806900
outer loop
vertex 4.185462 60.863197 -21.041916
vertex 8.210115 60.863197 -19.821056
vertex 4.117552 44.169666 -9.940647
endloop
endfacet
facet normal 0.839148 -0.537587 0.082648
outer loop
vertex 10.552938 44.169666 2.099127
vertex 10.759685 44.169666 0.000000
vertex 21.454142 60.863197 0.000000
endloop
endfacet
facet normal 0.839148 -0.537587 0.082649
outer loop
vertex 21.454142 60.863197 0.000000
vertex 21.041903 60.863197 4.185520
vertex 10.552938 44.169666 2.099127
endloop
endfacet
facet normal -0.244771 -0.537587 0.806900
outer loop
vertex -4.185496 60.863197 21.041908
vertex -8.210155 60.863197 19.821037
vertex -4.117555 44.169666 9.940659
endloop
endfacet
facet normal -0.244771 -0.537587 0.806900
outer loop
vertex -4.117555 44.169666 9.940659
vertex -2.099112 44.169666 10.552947
vertex -4.185496 60.863197 21.041908
endloop
endfacet
facet normal 0.651809 -0.537587 -0.534926
outer loop
vertex 8.946354 44.169666 -5.977748
vertex 7.608250 44.169666 -7.608236
vertex 15.170345 60.863197 -15.170388
endloop
endfacet
facet normal 0.651809 -0.537588 -0.534925
outer loop
vertex 15.170345 60.863197 -15.170388
vertex 17.838472 60.863197 -11.919268
vertex 8.946354 44.169666 -5.977748
endloop
endfacet
endsolid Exported from Blender-2.74 (sub 0)
