solid Exported from Blender-2.74 (sub 0)
facet normal 0.098016 0.000000 -0.995185
outer loop
vertex 1.600000 0.000000 -2.000000
vertex 1.600000 0.300000 -2.000000
vertex 1.678036 0.300000 -1.992314
endloop
endfacet
facet normal 0.098016 0.000000 -0.995185
outer loop
vertex 1.678036 0.300000 -1.992314
vertex 1.678036 0.000000 -1.992314
vertex 1.600000 0.000000 -2.000000
endloop
endfacet
facet normal 0.290288 0.000000 -0.956939
outer loop
vertex 1.678036 0.000000 -1.992314
vertex 1.678036 0.300000 -1.992314
vertex 1.753073 0.300000 -1.969552
endloop
endfacet
facet normal 0.290284 0.000000 -0.956941
outer loop
vertex 1.753073 0.300000 -1.969552
vertex 1.753073 0.000000 -1.969552
vertex 1.678036 0.000000 -1.992314
endloop
endfacet
facet normal 0.471398 0.000000 -0.881921
outer loop
vertex 1.753073 0.000000 -1.969552
vertex 1.753073 0.300000 -1.969552
vertex 1.822228 0.300000 -1.932588
endloop
endfacet
facet normal 0.471394 0.000000 -0.881923
outer loop
vertex 1.822228 0.300000 -1.932588
vertex 1.822228 0.000000 -1.932588
vertex 1.753073 0.000000 -1.969552
endloop
endfacet
facet normal 0.634394 0.000000 -0.773010
outer loop
vertex 1.822228 0.000000 -1.932588
vertex 1.822228 0.300000 -1.932588
vertex 1.882843 0.300000 -1.882843
endloop
endfacet
facet normal 0.634394 0.000000 -0.773010
outer loop
vertex 1.882843 0.300000 -1.882843
vertex 1.882843 0.000000 -1.882843
vertex 1.822228 0.000000 -1.932588
endloop
endfacet
facet normal 0.773009 0.000000 -0.634395
outer loop
vertex 1.882843 0.000000 -1.882843
vertex 1.882843 0.300000 -1.882843
vertex 1.932588 0.300000 -1.822228
endloop
endfacet
facet normal 0.773011 0.000000 -0.634392
outer loop
vertex 1.932588 0.300000 -1.822228
vertex 1.932588 0.000000 -1.822228
vertex 1.882843 0.000000 -1.882843
endloop
endfacet
facet normal 0.881921 0.000000 -0.471398
outer loop
vertex 1.932588 0.000000 -1.822228
vertex 1.932588 0.300000 -1.822228
vertex 1.969552 0.300000 -1.753073
endloop
endfacet
facet normal 0.881922 0.000000 -0.471396
outer loop
vertex 1.969552 0.300000 -1.753073
vertex 1.969552 0.000000 -1.753073
vertex 1.932588 0.000000 -1.822228
endloop
endfacet
facet normal 0.956940 0.000000 -0.290285
outer loop
vertex 1.969552 0.000000 -1.753073
vertex 1.969552 0.300000 -1.753073
vertex 1.992314 0.300000 -1.678036
endloop
endfacet
facet normal 0.956941 0.000000 -0.290284
outer loop
vertex 1.992314 0.300000 -1.678036
vertex 1.992314 0.000000 -1.678036
vertex 1.969552 0.000000 -1.753073
endloop
endfacet
facet normal 0.995185 0.000000 -0.098017
outer loop
vertex 1.992314 0.000000 -1.678036
vertex 1.992314 0.300000 -1.678036
vertex 2.000000 0.300000 -1.600000
endloop
endfacet
facet normal 0.995185 0.000000 -0.098017
outer loop
vertex 2.000000 0.300000 -1.600000
vertex 2.000000 0.000000 -1.600000
vertex 1.992314 0.000000 -1.678036
endloop
endfacet
facet normal 0.995185 0.000000 0.098017
outer loop
vertex 2.000000 0.000000 -1.600000
vertex 2.000000 0.300000 -1.600000
vertex 1.992314 0.300000 -1.521964
endloop
endfacet
facet normal 0.995185 0.000000 0.098017
outer loop
vertex 1.992314 0.300000 -1.521964
vertex 1.992314 0.000000 -1.521964
vertex 2.000000 0.000000 -1.600000
endloop
endfacet
facet normal 0.956940 0.000000 0.290285
outer loop
vertex 1.992314 0.000000 -1.521964
vertex 1.992314 0.300000 -1.521964
vertex 1.969552 0.300000 -1.446927
endloop
endfacet
facet normal 0.956940 0.000000 0.290285
outer loop
vertex 1.969552 0.300000 -1.446927
vertex 1.969552 0.000000 -1.446927
vertex 1.992314 0.000000 -1.521964
endloop
endfacet
facet normal 0.881921 0.000000 0.471397
outer loop
vertex 1.969552 0.000000 -1.446927
vertex 1.969552 0.300000 -1.446927
vertex 1.932588 0.300000 -1.377772
endloop
endfacet
facet normal 0.881922 0.000000 0.471396
outer loop
vertex 1.932588 0.300000 -1.377772
vertex 1.932588 0.000000 -1.377772
vertex 1.969552 0.000000 -1.446927
endloop
endfacet
facet normal 0.773011 0.000000 0.634392
outer loop
vertex 1.932588 0.000000 -1.377772
vertex 1.932588 0.300000 -1.377772
vertex 1.882843 0.300000 -1.317157
endloop
endfacet
facet normal 0.773010 0.000000 0.634393
outer loop
vertex 1.882843 0.300000 -1.317157
vertex 1.882843 0.000000 -1.317157
vertex 1.932588 0.000000 -1.377772
endloop
endfacet
facet normal 0.634392 0.000000 0.773012
outer loop
vertex 1.882843 0.000000 -1.317157
vertex 1.882843 0.300000 -1.317157
vertex 1.822228 0.300000 -1.267412
endloop
endfacet
facet normal 0.634394 0.000000 0.773010
outer loop
vertex 1.822228 0.300000 -1.267412
vertex 1.822228 0.000000 -1.267412
vertex 1.882843 0.000000 -1.317157
endloop
endfacet
facet normal 0.471395 0.000000 0.881922
outer loop
vertex 1.822228 0.000000 -1.267412
vertex 1.822228 0.300000 -1.267412
vertex 1.753073 0.300000 -1.230448
endloop
endfacet
facet normal 0.471399 0.000000 0.881920
outer loop
vertex 1.753073 0.300000 -1.230448
vertex 1.753073 0.000000 -1.230448
vertex 1.822228 0.000000 -1.267412
endloop
endfacet
facet normal 0.290281 0.000000 0.956941
outer loop
vertex 1.753073 0.000000 -1.230448
vertex 1.753073 0.300000 -1.230448
vertex 1.678036 0.300000 -1.207686
endloop
endfacet
facet normal 0.290286 0.000000 0.956940
outer loop
vertex 1.678036 0.300000 -1.207686
vertex 1.678036 0.000000 -1.207686
vertex 1.753073 0.000000 -1.230448
endloop
endfacet
facet normal 0.098016 0.000000 0.995185
outer loop
vertex 1.678036 0.000000 -1.207686
vertex 1.678036 0.300000 -1.207686
vertex 1.600000 0.300000 -1.200000
endloop
endfacet
facet normal 0.098019 0.000000 0.995185
outer loop
vertex 1.600000 0.300000 -1.200000
vertex 1.600000 0.000000 -1.200000
vertex 1.678036 0.000000 -1.207686
endloop
endfacet
facet normal -0.098019 0.000000 0.995185
outer loop
vertex 1.600000 0.000000 -1.200000
vertex 1.600000 0.300000 -1.200000
vertex 1.521964 0.300000 -1.207686
endloop
endfacet
facet normal -0.098016 0.000000 0.995185
outer loop
vertex 1.521964 0.300000 -1.207686
vertex 1.521964 0.000000 -1.207686
vertex 1.600000 0.000000 -1.200000
endloop
endfacet
facet normal -0.290286 0.000000 0.956940
outer loop
vertex 1.521964 0.000000 -1.207686
vertex 1.521964 0.300000 -1.207686
vertex 1.446926 0.300000 -1.230448
endloop
endfacet
facet normal -0.290284 0.000000 0.956941
outer loop
vertex 1.446926 0.300000 -1.230448
vertex 1.446926 0.000000 -1.230448
vertex 1.521964 0.000000 -1.207686
endloop
endfacet
facet normal -0.471397 0.000000 0.881921
outer loop
vertex 1.446926 0.000000 -1.230448
vertex 1.446926 0.300000 -1.230448
vertex 1.377772 0.300000 -1.267412
endloop
endfacet
facet normal -0.471399 0.000000 0.881920
outer loop
vertex 1.377772 0.300000 -1.267412
vertex 1.377772 0.000000 -1.267412
vertex 1.446926 0.000000 -1.230448
endloop
endfacet
facet normal -0.634394 0.000000 0.773010
outer loop
vertex 1.377772 0.000000 -1.267412
vertex 1.377772 0.300000 -1.267412
vertex 1.317157 0.300000 -1.317158
endloop
endfacet
facet normal -0.634393 0.000000 0.773011
outer loop
vertex 1.317157 0.300000 -1.317158
vertex 1.317157 0.000000 -1.317158
vertex 1.377772 0.000000 -1.267412
endloop
endfacet
facet normal -0.773010 0.000000 0.634394
outer loop
vertex 1.317157 0.000000 -1.317158
vertex 1.317157 0.300000 -1.317158
vertex 1.267412 0.300000 -1.377772
endloop
endfacet
facet normal -0.773012 0.000000 0.634392
outer loop
vertex 1.267412 0.300000 -1.377772
vertex 1.267412 0.000000 -1.377772
vertex 1.317157 0.000000 -1.317158
endloop
endfacet
facet normal -0.881921 0.000000 0.471397
outer loop
vertex 1.267412 0.000000 -1.377772
vertex 1.267412 0.300000 -1.377772
vertex 1.230448 0.300000 -1.446927
endloop
endfacet
facet normal -0.881921 0.000000 0.471397
outer loop
vertex 1.230448 0.300000 -1.446927
vertex 1.230448 0.000000 -1.446927
vertex 1.267412 0.000000 -1.377772
endloop
endfacet
facet normal -0.956941 0.000000 0.290283
outer loop
vertex 1.230448 0.000000 -1.446927
vertex 1.230448 0.300000 -1.446927
vertex 1.207686 0.300000 -1.521964
endloop
endfacet
facet normal -0.956941 0.000000 0.290283
outer loop
vertex 1.207686 0.300000 -1.521964
vertex 1.207686 0.000000 -1.521964
vertex 1.230448 0.000000 -1.446927
endloop
endfacet
facet normal -0.995185 0.000000 0.098016
outer loop
vertex 1.207686 0.000000 -1.521964
vertex 1.207686 0.300000 -1.521964
vertex 1.200000 0.300000 -1.600000
endloop
endfacet
facet normal -0.995185 0.000000 0.098015
outer loop
vertex 1.200000 0.300000 -1.600000
vertex 1.200000 0.000000 -1.600000
vertex 1.207686 0.000000 -1.521964
endloop
endfacet
facet normal -0.995185 0.000000 -0.098017
outer loop
vertex 1.200000 0.000000 -1.600000
vertex 1.200000 0.300000 -1.600000
vertex 1.207686 0.300000 -1.678037
endloop
endfacet
facet normal -0.995185 0.000000 -0.098017
outer loop
vertex 1.207686 0.300000 -1.678037
vertex 1.207686 0.000000 -1.678037
vertex 1.200000 0.000000 -1.600000
endloop
endfacet
facet normal -0.956940 0.000000 -0.290287
outer loop
vertex 1.207686 0.000000 -1.678037
vertex 1.207686 0.300000 -1.678037
vertex 1.230448 0.300000 -1.753074
endloop
endfacet
facet normal -0.956940 0.000000 -0.290285
outer loop
vertex 1.230448 0.300000 -1.753074
vertex 1.230448 0.000000 -1.753074
vertex 1.207686 0.000000 -1.678037
endloop
endfacet
facet normal -0.881920 0.000000 -0.471399
outer loop
vertex 1.230448 0.000000 -1.753074
vertex 1.230448 0.300000 -1.753074
vertex 1.267412 0.300000 -1.822229
endloop
endfacet
facet normal -0.881921 0.000000 -0.471397
outer loop
vertex 1.267412 0.300000 -1.822229
vertex 1.267412 0.000000 -1.822229
vertex 1.230448 0.000000 -1.753074
endloop
endfacet
facet normal -0.773011 0.000000 -0.634393
outer loop
vertex 1.267412 0.000000 -1.822229
vertex 1.267412 0.300000 -1.822229
vertex 1.317158 0.300000 -1.882843
endloop
endfacet
facet normal -0.773009 0.000000 -0.634395
outer loop
vertex 1.317158 0.300000 -1.882843
vertex 1.317158 0.000000 -1.882843
vertex 1.267412 0.000000 -1.822229
endloop
endfacet
facet normal -0.634394 0.000000 -0.773010
outer loop
vertex 1.317158 0.000000 -1.882843
vertex 1.317158 0.300000 -1.882843
vertex 1.377772 0.300000 -1.932588
endloop
endfacet
facet normal -0.634391 0.000000 -0.773013
outer loop
vertex 1.377772 0.300000 -1.932588
vertex 1.377772 0.000000 -1.932588
vertex 1.317158 0.000000 -1.882843
endloop
endfacet
facet normal -0.471397 0.000000 -0.881921
outer loop
vertex 1.377772 0.000000 -1.932588
vertex 1.377772 0.300000 -1.932588
vertex 1.446927 0.300000 -1.969552
endloop
endfacet
facet normal -0.471393 0.000000 -0.881923
outer loop
vertex 1.446927 0.300000 -1.969552
vertex 1.446927 0.000000 -1.969552
vertex 1.377772 0.000000 -1.932588
endloop
endfacet
facet normal 0.000000 1.000000 0.000000
outer loop
vertex 1.678036 0.300000 -1.992314
vertex 1.822228 0.300000 -1.932588
vertex 1.753073 0.300000 -1.969552
endloop
endfacet
facet normal 0.000000 1.000000 0.000000
outer loop
vertex 1.932588 0.300000 -1.822228
vertex 1.882843 0.300000 -1.882843
vertex 1.822228 0.300000 -1.932588
endloop
endfacet
facet normal 0.000000 1.000000 0.000002
outer loop
vertex 1.992314 0.300000 -1.678036
vertex 1.969552 0.300000 -1.753073
vertex 1.932588 0.300000 -1.822228
endloop
endfacet
facet normal 0.000000 1.000000 0.000000
outer loop
vertex 1.992314 0.300000 -1.521964
vertex 2.000000 0.300000 -1.600000
vertex 1.992314 0.300000 -1.678036
endloop
endfacet
facet normal 0.000000 1.000000 -0.000002
outer loop
vertex 1.932588 0.300000 -1.377772
vertex 1.969552 0.300000 -1.446927
vertex 1.992314 0.300000 -1.521964
endloop
endfacet
facet normal 0.000000 1.000000 -0.000002
outer loop
vertex 1.822228 0.300000 -1.267412
vertex 1.882843 0.300000 -1.317157
vertex 1.932588 0.300000 -1.377772
endloop
endfacet
facet normal 0.000000 1.000000 -0.000003
outer loop
vertex 1.678036 0.300000 -1.207686
vertex 1.753073 0.300000 -1.230448
vertex 1.822228 0.300000 -1.267412
endloop
endfacet
facet normal 0.000000 1.000000 0.000000
outer loop
vertex 1.521964 0.300000 -1.207686
vertex 1.600000 0.300000 -1.200000
vertex 1.678036 0.300000 -1.207686
endloop
endfacet
facet normal 0.000000 1.000000 -0.000003
outer loop
vertex 1.377772 0.300000 -1.267412
vertex 1.446926 0.300000 -1.230448
vertex 1.521964 0.300000 -1.207686
endloop
endfacet
facet normal 0.000000 1.000000 -0.000003
outer loop
vertex 1.267412 0.300000 -1.377772
vertex 1.317157 0.300000 -1.317158
vertex 1.377772 0.300000 -1.267412
endloop
endfacet
facet normal 0.000000 1.000000 -0.000002
outer loop
vertex 1.207686 0.300000 -1.521964
vertex 1.230448 0.300000 -1.446927
vertex 1.267412 0.300000 -1.377772
endloop
endfacet
facet normal 0.000000 1.000000 0.000000
outer loop
vertex 1.207686 0.300000 -1.678037
vertex 1.200000 0.300000 -1.600000
vertex 1.207686 0.300000 -1.521964
endloop
endfacet
facet normal 0.000000 1.000000 -0.000001
outer loop
vertex 1.267412 0.300000 -1.822229
vertex 1.230448 0.300000 -1.753074
vertex 1.207686 0.300000 -1.678037
endloop
endfacet
facet normal 0.000000 1.000000 0.000000
outer loop
vertex 1.377772 0.300000 -1.932588
vertex 1.317158 0.300000 -1.882843
vertex 1.267412 0.300000 -1.822229
endloop
endfacet
facet normal 0.000000 1.000000 -0.000003
outer loop
vertex 1.521965 0.300000 -1.992314
vertex 1.446927 0.300000 -1.969552
vertex 1.377772 0.300000 -1.932588
endloop
endfacet
facet normal 0.000000 1.000000 -0.000003
outer loop
vertex 1.678036 0.300000 -1.992314
vertex 1.600000 0.300000 -2.000000
vertex 1.521965 0.300000 -1.992314
endloop
endfacet
facet normal 0.000000 1.000000 -0.000001
outer loop
vertex 1.678036 0.300000 -1.992314
vertex 1.932588 0.300000 -1.822228
vertex 1.822228 0.300000 -1.932588
endloop
endfacet
facet normal 0.000000 1.000000 0.000000
outer loop
vertex 1.992314 0.300000 -1.521964
vertex 1.992314 0.300000 -1.678036
vertex 1.932588 0.300000 -1.822228
endloop
endfacet
facet normal 0.000000 1.000000 0.000001
outer loop
vertex 1.822228 0.300000 -1.267412
vertex 1.932588 0.300000 -1.377772
vertex 1.992314 0.300000 -1.521964
endloop
endfacet
facet normal 0.000000 1.000000 0.000000
outer loop
vertex 1.521964 0.300000 -1.207686
vertex 1.678036 0.300000 -1.207686
vertex 1.822228 0.300000 -1.267412
endloop
endfacet
facet normal 0.000000 1.000000 0.000000
outer loop
vertex 1.267412 0.300000 -1.377772
vertex 1.377772 0.300000 -1.267412
vertex 1.521964 0.300000 -1.207686
endloop
endfacet
facet normal 0.000000 1.000000 0.000000
outer loop
vertex 1.207686 0.300000 -1.678037
vertex 1.207686 0.300000 -1.521964
vertex 1.267412 0.300000 -1.377772
endloop
endfacet
facet normal 0.000000 1.000000 0.000000
outer loop
vertex 1.377772 0.300000 -1.932588
vertex 1.267412 0.300000 -1.822229
vertex 1.207686 0.300000 -1.678037
endloop
endfacet
facet normal 0.000000 1.000000 0.000001
outer loop
vertex 1.678036 0.300000 -1.992314
vertex 1.521965 0.300000 -1.992314
vertex 1.377772 0.300000 -1.932588
endloop
endfacet
facet normal 0.000000 1.000000 0.000000
outer loop
vertex 1.678036 0.300000 -1.992314
vertex 1.992314 0.300000 -1.521964
vertex 1.932588 0.300000 -1.822228
endloop
endfacet
facet normal 0.000000 1.000000 -0.000000
outer loop
vertex 1.521964 0.300000 -1.207686
vertex 1.822228 0.300000 -1.267412
vertex 1.992314 0.300000 -1.521964
endloop
endfacet
facet normal 0.000000 1.000000 0.000000
outer loop
vertex 1.207686 0.300000 -1.678037
vertex 1.267412 0.300000 -1.377772
vertex 1.521964 0.300000 -1.207686
endloop
endfacet
facet normal 0.000000 1.000000 -0.000000
outer loop
vertex 1.678036 0.300000 -1.992314
vertex 1.377772 0.300000 -1.932588
vertex 1.207686 0.300000 -1.678037
endloop
endfacet
facet normal 0.000000 1.000000 0.000000
outer loop
vertex 1.678036 0.300000 -1.992314
vertex 1.521964 0.300000 -1.207686
vertex 1.992314 0.300000 -1.521964
endloop
endfacet
facet normal 0.000000 1.000000 0.000000
outer loop
vertex 1.678036 0.300000 -1.992314
vertex 1.207686 0.300000 -1.678037
vertex 1.521964 0.300000 -1.207686
endloop
endfacet
facet normal -0.098017 0.000000 -0.995185
outer loop
vertex 1.600000 0.300000 -2.000000
vertex 1.600000 0.000000 -2.000000
vertex 1.521965 0.000000 -1.992314
endloop
endfacet
facet normal -0.098017 0.000000 -0.995185
outer loop
vertex 1.521965 0.000000 -1.992314
vertex 1.521965 0.300000 -1.992314
vertex 1.600000 0.300000 -2.000000
endloop
endfacet
facet normal -0.290288 0.000000 -0.956939
outer loop
vertex 1.446927 0.000000 -1.969552
vertex 1.446927 0.300000 -1.969552
vertex 1.521965 0.300000 -1.992314
endloop
endfacet
facet normal -0.290279 0.000000 -0.956942
outer loop
vertex 1.521965 0.300000 -1.992314
vertex 1.521965 0.000000 -1.992314
vertex 1.446927 0.000000 -1.969552
endloop
endfacet
facet normal 0.000000 0.000000 0.000000
outer loop
vertex 1.446927 0.000000 -1.969552
vertex 1.521965 0.000000 -1.992314
vertex 1.521965 0.000000 -1.992314
endloop
endfacet
facet normal 0.000000 0.000000 0.000000
outer loop
vertex 1.521965 0.000000 -1.992314
vertex 1.446927 0.000000 -1.969552
vertex 1.446927 0.000000 -1.969552
endloop
endfacet
facet normal 0.000000 0.000000 0.000000
outer loop
vertex 1.317158 0.000000 -1.882843
vertex 1.377772 0.000000 -1.932588
vertex 1.377772 0.000000 -1.932588
endloop
endfacet
facet normal 0.000000 0.000000 0.000000
outer loop
vertex 1.377772 0.000000 -1.932588
vertex 1.317158 0.000000 -1.882843
vertex 1.317158 0.000000 -1.882843
endloop
endfacet
facet normal 0.000000 0.000000 0.000000
outer loop
vertex 1.377772 0.000000 -1.267412
vertex 1.317157 0.000000 -1.317158
vertex 1.317157 0.000000 -1.317158
endloop
endfacet
facet normal 0.000000 0.000000 0.000000
outer loop
vertex 1.317157 0.000000 -1.317158
vertex 1.377772 0.000000 -1.267412
vertex 1.377772 0.000000 -1.267412
endloop
endfacet
facet normal 0.000000 0.000000 0.000000
outer loop
vertex 2.000000 0.000000 -1.600000
vertex 1.992314 0.000000 -1.521964
vertex 1.992314 0.000000 -1.521964
endloop
endfacet
facet normal 0.000000 0.000000 0.000000
outer loop
vertex 1.992314 0.000000 -1.521964
vertex 2.000000 0.000000 -1.600000
vertex 2.000000 0.000000 -1.600000
endloop
endfacet
facet normal 0.000000 0.000000 0.000000
outer loop
vertex 1.230448 0.000000 -1.446927
vertex 1.207686 0.000000 -1.521964
vertex 1.207686 0.000000 -1.521964
endloop
endfacet
facet normal 0.000000 0.000000 0.000000
outer loop
vertex 1.207686 0.000000 -1.521964
vertex 1.230448 0.000000 -1.446927
vertex 1.230448 0.000000 -1.446927
endloop
endfacet
facet normal 0.000000 0.000000 0.000000
outer loop
vertex 1.932588 0.000000 -1.377772
vertex 1.882843 0.000000 -1.317157
vertex 1.882843 0.000000 -1.317157
endloop
endfacet
facet normal 0.000000 0.000000 0.000000
outer loop
vertex 1.882843 0.000000 -1.317157
vertex 1.932588 0.000000 -1.377772
vertex 1.932588 0.000000 -1.377772
endloop
endfacet
facet normal 0.000000 0.000000 0.000000
outer loop
vertex 1.207686 0.000000 -1.678037
vertex 1.230448 0.000000 -1.753074
vertex 1.230448 0.000000 -1.753074
endloop
endfacet
facet normal 0.000000 0.000000 0.000000
outer loop
vertex 1.230448 0.000000 -1.753074
vertex 1.207686 0.000000 -1.678037
vertex 1.207686 0.000000 -1.678037
endloop
endfacet
facet normal 0.000000 0.000000 0.000000
outer loop
vertex 1.822228 0.000000 -1.932588
vertex 1.882843 0.000000 -1.882843
vertex 1.882843 0.000000 -1.882843
endloop
endfacet
facet normal 0.000000 0.000000 0.000000
outer loop
vertex 1.882843 0.000000 -1.882843
vertex 1.822228 0.000000 -1.932588
vertex 1.822228 0.000000 -1.932588
endloop
endfacet
facet normal 0.000000 0.000000 0.000000
outer loop
vertex 1.753073 0.000000 -1.230448
vertex 1.678036 0.000000 -1.207686
vertex 1.678036 0.000000 -1.207686
endloop
endfacet
facet normal 0.000000 0.000000 0.000000
outer loop
vertex 1.678036 0.000000 -1.207686
vertex 1.753073 0.000000 -1.230448
vertex 1.753073 0.000000 -1.230448
endloop
endfacet
facet normal 0.000000 0.000000 0.000000
outer loop
vertex 1.317158 0.000000 -1.882843
vertex 1.377772 0.000000 -1.932588
vertex 1.377772 0.000000 -1.932588
endloop
endfacet
facet normal 0.000000 0.000000 0.000000
outer loop
vertex 1.377772 0.000000 -1.932588
vertex 1.317158 0.000000 -1.882843
vertex 1.317158 0.000000 -1.882843
endloop
endfacet
facet normal 0.000000 0.000000 0.000000
outer loop
vertex 1.521964 0.000000 -1.207686
vertex 1.446926 0.000000 -1.230448
vertex 1.446926 0.000000 -1.230448
endloop
endfacet
facet normal 0.000000 0.000000 0.000000
outer loop
vertex 1.446926 0.000000 -1.230448
vertex 1.521964 0.000000 -1.207686
vertex 1.521964 0.000000 -1.207686
endloop
endfacet
facet normal 0.000000 0.000000 0.000000
outer loop
vertex 1.969552 0.000000 -1.753073
vertex 1.992314 0.000000 -1.678036
vertex 1.992314 0.000000 -1.678036
endloop
endfacet
facet normal 0.000000 0.000000 0.000000
outer loop
vertex 1.992314 0.000000 -1.678036
vertex 1.969552 0.000000 -1.753073
vertex 1.969552 0.000000 -1.753073
endloop
endfacet
facet normal 0.000000 0.000000 0.000000
outer loop
vertex 1.521965 0.000000 -1.992314
vertex 1.600000 0.000000 -2.000000
vertex 1.600000 0.000000 -2.000000
endloop
endfacet
facet normal 0.000000 0.000000 0.000000
outer loop
vertex 1.600000 0.000000 -2.000000
vertex 1.521965 0.000000 -1.992314
vertex 1.521965 0.000000 -1.992314
endloop
endfacet
facet normal 0.000000 0.000000 0.000000
outer loop
vertex 1.317157 0.000000 -1.317158
vertex 1.267412 0.000000 -1.377772
vertex 1.267412 0.000000 -1.377772
endloop
endfacet
facet normal 0.000000 0.000000 0.000000
outer loop
vertex 1.267412 0.000000 -1.377772
vertex 1.317157 0.000000 -1.317158
vertex 1.317157 0.000000 -1.317158
endloop
endfacet
facet normal 0.000000 0.000000 0.000000
outer loop
vertex 1.992314 0.000000 -1.521964
vertex 1.969552 0.000000 -1.446927
vertex 1.969552 0.000000 -1.446927
endloop
endfacet
facet normal 0.000000 0.000000 0.000000
outer loop
vertex 1.969552 0.000000 -1.446927
vertex 1.992314 0.000000 -1.521964
vertex 1.992314 0.000000 -1.521964
endloop
endfacet
facet normal 0.000000 0.000000 0.000000
outer loop
vertex 1.207686 0.000000 -1.521964
vertex 1.200000 0.000000 -1.600000
vertex 1.200000 0.000000 -1.600000
endloop
endfacet
facet normal 0.000000 0.000000 0.000000
outer loop
vertex 1.200000 0.000000 -1.600000
vertex 1.207686 0.000000 -1.521964
vertex 1.207686 0.000000 -1.521964
endloop
endfacet
facet normal 0.000000 0.000000 0.000000
outer loop
vertex 1.678036 0.000000 -1.992314
vertex 1.753073 0.000000 -1.969552
vertex 1.753073 0.000000 -1.969552
endloop
endfacet
facet normal 0.000000 0.000000 0.000000
outer loop
vertex 1.753073 0.000000 -1.969552
vertex 1.678036 0.000000 -1.992314
vertex 1.678036 0.000000 -1.992314
endloop
endfacet
facet normal 0.000000 0.000000 0.000000
outer loop
vertex 1.882843 0.000000 -1.317157
vertex 1.822228 0.000000 -1.267412
vertex 1.822228 0.000000 -1.267412
endloop
endfacet
facet normal 0.000000 0.000000 0.000000
outer loop
vertex 1.822228 0.000000 -1.267412
vertex 1.882843 0.000000 -1.317157
vertex 1.882843 0.000000 -1.317157
endloop
endfacet
facet normal 0.000000 0.000000 0.000000
outer loop
vertex 1.230448 0.000000 -1.753074
vertex 1.267412 0.000000 -1.822229
vertex 1.267412 0.000000 -1.822229
endloop
endfacet
facet normal 0.000000 0.000000 0.000000
outer loop
vertex 1.267412 0.000000 -1.822229
vertex 1.230448 0.000000 -1.753074
vertex 1.230448 0.000000 -1.753074
endloop
endfacet
facet normal 0.000000 0.000000 0.000000
outer loop
vertex 1.882843 0.000000 -1.882843
vertex 1.932588 0.000000 -1.822228
vertex 1.932588 0.000000 -1.822228
endloop
endfacet
facet normal 0.000000 0.000000 0.000000
outer loop
vertex 1.932588 0.000000 -1.822228
vertex 1.882843 0.000000 -1.882843
vertex 1.882843 0.000000 -1.882843
endloop
endfacet
facet normal 0.000000 0.000000 0.000000
outer loop
vertex 1.678036 0.000000 -1.207686
vertex 1.600000 0.000000 -1.200000
vertex 1.600000 0.000000 -1.200000
endloop
endfacet
facet normal 0.000000 0.000000 0.000000
outer loop
vertex 1.600000 0.000000 -1.200000
vertex 1.678036 0.000000 -1.207686
vertex 1.678036 0.000000 -1.207686
endloop
endfacet
facet normal 0.000000 0.000000 0.000000
outer loop
vertex 1.377772 0.000000 -1.932588
vertex 1.446927 0.000000 -1.969552
vertex 1.446927 0.000000 -1.969552
endloop
endfacet
facet normal 0.000000 0.000000 0.000000
outer loop
vertex 1.446927 0.000000 -1.969552
vertex 1.377772 0.000000 -1.932588
vertex 1.377772 0.000000 -1.932588
endloop
endfacet
facet normal 0.000000 0.000000 0.000000
outer loop
vertex 1.446926 0.000000 -1.230448
vertex 1.377772 0.000000 -1.267412
vertex 1.377772 0.000000 -1.267412
endloop
endfacet
facet normal 0.000000 0.000000 0.000000
outer loop
vertex 1.377772 0.000000 -1.267412
vertex 1.446926 0.000000 -1.230448
vertex 1.446926 0.000000 -1.230448
endloop
endfacet
facet normal 0.000000 0.000000 0.000000
outer loop
vertex 1.600000 0.000000 -2.000000
vertex 1.678036 0.000000 -1.992314
vertex 1.678036 0.000000 -1.992314
endloop
endfacet
facet normal 0.000000 0.000000 0.000000
outer loop
vertex 1.678036 0.000000 -1.992314
vertex 1.600000 0.000000 -2.000000
vertex 1.600000 0.000000 -2.000000
endloop
endfacet
facet normal 0.000000 0.000000 0.000000
outer loop
vertex 1.992314 0.000000 -1.678036
vertex 2.000000 0.000000 -1.600000
vertex 2.000000 0.000000 -1.600000
endloop
endfacet
facet normal 0.000000 0.000000 0.000000
outer loop
vertex 2.000000 0.000000 -1.600000
vertex 1.992314 0.000000 -1.678036
vertex 1.992314 0.000000 -1.678036
endloop
endfacet
facet normal 0.000000 0.000000 0.000000
outer loop
vertex 1.267412 0.000000 -1.377772
vertex 1.230448 0.000000 -1.446927
vertex 1.230448 0.000000 -1.446927
endloop
endfacet
facet normal 0.000000 0.000000 0.000000
outer loop
vertex 1.230448 0.000000 -1.446927
vertex 1.267412 0.000000 -1.377772
vertex 1.267412 0.000000 -1.377772
endloop
endfacet
facet normal 0.000000 0.000000 0.000000
outer loop
vertex 1.969552 0.000000 -1.446927
vertex 1.932588 0.000000 -1.377772
vertex 1.932588 0.000000 -1.377772
endloop
endfacet
facet normal 0.000000 0.000000 0.000000
outer loop
vertex 1.932588 0.000000 -1.377772
vertex 1.969552 0.000000 -1.446927
vertex 1.969552 0.000000 -1.446927
endloop
endfacet
facet normal 0.000000 0.000000 0.000000
outer loop
vertex 1.200000 0.000000 -1.600000
vertex 1.207686 0.000000 -1.678037
vertex 1.207686 0.000000 -1.678037
endloop
endfacet
facet normal 0.000000 0.000000 0.000000
outer loop
vertex 1.207686 0.000000 -1.678037
vertex 1.200000 0.000000 -1.600000
vertex 1.200000 0.000000 -1.600000
endloop
endfacet
facet normal 0.000000 0.000000 0.000000
outer loop
vertex 1.753073 0.000000 -1.969552
vertex 1.822228 0.000000 -1.932588
vertex 1.822228 0.000000 -1.932588
endloop
endfacet
facet normal 0.000000 0.000000 0.000000
outer loop
vertex 1.822228 0.000000 -1.932588
vertex 1.753073 0.000000 -1.969552
vertex 1.753073 0.000000 -1.969552
endloop
endfacet
facet normal 0.000000 0.000000 0.000000
outer loop
vertex 1.822228 0.000000 -1.267412
vertex 1.753073 0.000000 -1.230448
vertex 1.753073 0.000000 -1.230448
endloop
endfacet
facet normal 0.000000 0.000000 0.000000
outer loop
vertex 1.753073 0.000000 -1.230448
vertex 1.822228 0.000000 -1.267412
vertex 1.822228 0.000000 -1.267412
endloop
endfacet
facet normal 0.000000 0.000000 0.000000
outer loop
vertex 1.267412 0.000000 -1.822229
vertex 1.317158 0.000000 -1.882843
vertex 1.317158 0.000000 -1.882843
endloop
endfacet
facet normal 0.000000 0.000000 0.000000
outer loop
vertex 1.317158 0.000000 -1.882843
vertex 1.267412 0.000000 -1.822229
vertex 1.267412 0.000000 -1.822229
endloop
endfacet
facet normal 0.000000 0.000000 0.000000
outer loop
vertex 1.600000 0.000000 -1.200000
vertex 1.521964 0.000000 -1.207686
vertex 1.521964 0.000000 -1.207686
endloop
endfacet
facet normal 0.000000 0.000000 0.000000
outer loop
vertex 1.521964 0.000000 -1.207686
vertex 1.600000 0.000000 -1.200000
vertex 1.600000 0.000000 -1.200000
endloop
endfacet
facet normal 0.000000 0.000000 0.000000
outer loop
vertex 1.932588 0.000000 -1.822228
vertex 1.969552 0.000000 -1.753073
vertex 1.969552 0.000000 -1.753073
endloop
endfacet
facet normal 0.000000 0.000000 0.000000
outer loop
vertex 1.969552 0.000000 -1.753073
vertex 1.932588 0.000000 -1.822228
vertex 1.932588 0.000000 -1.822228
endloop
endfacet
facet normal 0.000000 0.000000 0.000000
outer loop
vertex 1.446927 0.000000 -1.969552
vertex 1.521965 0.000000 -1.992314
vertex 1.521965 0.000000 -1.992314
endloop
endfacet
facet normal 0.000000 0.000000 0.000000
outer loop
vertex 1.521965 0.000000 -1.992314
vertex 1.446927 0.000000 -1.969552
vertex 1.446927 0.000000 -1.969552
endloop
endfacet
facet normal 0.000000 0.000000 0.000000
outer loop
vertex 1.521964 0.000000 -1.207686
vertex 1.446926 0.000000 -1.230448
vertex 1.446926 0.000000 -1.230448
endloop
endfacet
facet normal 0.000000 0.000000 0.000000
outer loop
vertex 1.446926 0.000000 -1.230448
vertex 1.521964 0.000000 -1.207686
vertex 1.521964 0.000000 -1.207686
endloop
endfacet
facet normal 0.000000 0.000000 0.000000
outer loop
vertex 1.969552 0.000000 -1.753073
vertex 1.992314 0.000000 -1.678036
vertex 1.992314 0.000000 -1.678036
endloop
endfacet
facet normal 0.000000 0.000000 0.000000
outer loop
vertex 1.992314 0.000000 -1.678036
vertex 1.969552 0.000000 -1.753073
vertex 1.969552 0.000000 -1.753073
endloop
endfacet
facet normal 0.000000 0.000000 0.000000
outer loop
vertex 1.230448 0.000000 -1.753074
vertex 1.267412 0.000000 -1.822229
vertex 1.267412 0.000000 -1.822229
endloop
endfacet
facet normal 0.000000 0.000000 0.000000
outer loop
vertex 1.267412 0.000000 -1.822229
vertex 1.230448 0.000000 -1.753074
vertex 1.230448 0.000000 -1.753074
endloop
endfacet
facet normal 0.000000 0.000000 0.000000
outer loop
vertex 1.882843 0.000000 -1.882843
vertex 1.932588 0.000000 -1.822228
vertex 1.932588 0.000000 -1.822228
endloop
endfacet
facet normal 0.000000 0.000000 0.000000
outer loop
vertex 1.932588 0.000000 -1.822228
vertex 1.882843 0.000000 -1.882843
vertex 1.882843 0.000000 -1.882843
endloop
endfacet
facet normal 0.000000 0.000000 0.000000
outer loop
vertex 1.678036 0.000000 -1.207686
vertex 1.600000 0.000000 -1.200000
vertex 1.600000 0.000000 -1.200000
endloop
endfacet
facet normal 0.000000 0.000000 0.000000
outer loop
vertex 1.600000 0.000000 -1.200000
vertex 1.678036 0.000000 -1.207686
vertex 1.678036 0.000000 -1.207686
endloop
endfacet
facet normal 0.000000 0.000000 0.000000
outer loop
vertex 1.200000 0.000000 -1.600000
vertex 1.207686 0.000000 -1.678037
vertex 1.207686 0.000000 -1.678037
endloop
endfacet
facet normal 0.000000 0.000000 0.000000
outer loop
vertex 1.207686 0.000000 -1.678037
vertex 1.200000 0.000000 -1.600000
vertex 1.200000 0.000000 -1.600000
endloop
endfacet
facet normal 0.000000 0.000000 0.000000
outer loop
vertex 1.753073 0.000000 -1.969552
vertex 1.822228 0.000000 -1.932588
vertex 1.822228 0.000000 -1.932588
endloop
endfacet
facet normal 0.000000 0.000000 0.000000
outer loop
vertex 1.822228 0.000000 -1.932588
vertex 1.753073 0.000000 -1.969552
vertex 1.753073 0.000000 -1.969552
endloop
endfacet
facet normal 0.000000 0.000000 0.000000
outer loop
vertex 1.822228 0.000000 -1.267412
vertex 1.753073 0.000000 -1.230448
vertex 1.753073 0.000000 -1.230448
endloop
endfacet
facet normal 0.000000 0.000000 0.000000
outer loop
vertex 1.753073 0.000000 -1.230448
vertex 1.822228 0.000000 -1.267412
vertex 1.822228 0.000000 -1.267412
endloop
endfacet
facet normal 0.000000 0.000000 0.000000
outer loop
vertex 1.230448 0.000000 -1.446927
vertex 1.207686 0.000000 -1.521964
vertex 1.207686 0.000000 -1.521964
endloop
endfacet
facet normal 0.000000 0.000000 0.000000
outer loop
vertex 1.207686 0.000000 -1.521964
vertex 1.230448 0.000000 -1.446927
vertex 1.230448 0.000000 -1.446927
endloop
endfacet
facet normal 0.000000 0.000000 0.000000
outer loop
vertex 1.600000 0.000000 -2.000000
vertex 1.678036 0.000000 -1.992314
vertex 1.678036 0.000000 -1.992314
endloop
endfacet
facet normal 0.000000 0.000000 0.000000
outer loop
vertex 1.678036 0.000000 -1.992314
vertex 1.600000 0.000000 -2.000000
vertex 1.600000 0.000000 -2.000000
endloop
endfacet
facet normal 0.000000 0.000000 0.000000
outer loop
vertex 1.932588 0.000000 -1.377772
vertex 1.882843 0.000000 -1.317157
vertex 1.882843 0.000000 -1.317157
endloop
endfacet
facet normal 0.000000 0.000000 0.000000
outer loop
vertex 1.882843 0.000000 -1.317157
vertex 1.932588 0.000000 -1.377772
vertex 1.932588 0.000000 -1.377772
endloop
endfacet
facet normal 0.000000 0.000000 0.000000
outer loop
vertex 1.521965 0.000000 -1.992314
vertex 1.600000 0.000000 -2.000000
vertex 1.600000 0.000000 -2.000000
endloop
endfacet
facet normal 0.000000 0.000000 0.000000
outer loop
vertex 1.600000 0.000000 -2.000000
vertex 1.521965 0.000000 -1.992314
vertex 1.521965 0.000000 -1.992314
endloop
endfacet
facet normal 0.000000 0.000000 0.000000
outer loop
vertex 1.317157 0.000000 -1.317158
vertex 1.267412 0.000000 -1.377772
vertex 1.267412 0.000000 -1.377772
endloop
endfacet
facet normal 0.000000 0.000000 0.000000
outer loop
vertex 1.267412 0.000000 -1.377772
vertex 1.317157 0.000000 -1.317158
vertex 1.317157 0.000000 -1.317158
endloop
endfacet
facet normal 0.000000 0.000000 0.000000
outer loop
vertex 1.992314 0.000000 -1.521964
vertex 1.969552 0.000000 -1.446927
vertex 1.969552 0.000000 -1.446927
endloop
endfacet
facet normal 0.000000 0.000000 0.000000
outer loop
vertex 1.969552 0.000000 -1.446927
vertex 1.992314 0.000000 -1.521964
vertex 1.992314 0.000000 -1.521964
endloop
endfacet
facet normal 0.000000 0.000000 0.000000
outer loop
vertex 1.377772 0.000000 -1.932588
vertex 1.446927 0.000000 -1.969552
vertex 1.446927 0.000000 -1.969552
endloop
endfacet
facet normal 0.000000 0.000000 0.000000
outer loop
vertex 1.446927 0.000000 -1.969552
vertex 1.377772 0.000000 -1.932588
vertex 1.377772 0.000000 -1.932588
endloop
endfacet
facet normal 0.000000 0.000000 0.000000
outer loop
vertex 1.446926 0.000000 -1.230448
vertex 1.377772 0.000000 -1.267412
vertex 1.377772 0.000000 -1.267412
endloop
endfacet
facet normal 0.000000 0.000000 0.000000
outer loop
vertex 1.377772 0.000000 -1.267412
vertex 1.446926 0.000000 -1.230448
vertex 1.446926 0.000000 -1.230448
endloop
endfacet
facet normal 0.000000 0.000000 0.000000
outer loop
vertex 1.992314 0.000000 -1.678036
vertex 2.000000 0.000000 -1.600000
vertex 2.000000 0.000000 -1.600000
endloop
endfacet
facet normal 0.000000 0.000000 0.000000
outer loop
vertex 2.000000 0.000000 -1.600000
vertex 1.992314 0.000000 -1.678036
vertex 1.992314 0.000000 -1.678036
endloop
endfacet
facet normal 0.000000 0.000000 0.000000
outer loop
vertex 1.267412 0.000000 -1.822229
vertex 1.317158 0.000000 -1.882843
vertex 1.317158 0.000000 -1.882843
endloop
endfacet
facet normal 0.000000 0.000000 0.000000
outer loop
vertex 1.317158 0.000000 -1.882843
vertex 1.267412 0.000000 -1.822229
vertex 1.267412 0.000000 -1.822229
endloop
endfacet
facet normal 0.000000 0.000000 0.000000
outer loop
vertex 1.600000 0.000000 -1.200000
vertex 1.521964 0.000000 -1.207686
vertex 1.521964 0.000000 -1.207686
endloop
endfacet
facet normal 0.000000 0.000000 0.000000
outer loop
vertex 1.521964 0.000000 -1.207686
vertex 1.600000 0.000000 -1.200000
vertex 1.600000 0.000000 -1.200000
endloop
endfacet
facet normal 0.000000 0.000000 0.000000
outer loop
vertex 1.932588 0.000000 -1.822228
vertex 1.969552 0.000000 -1.753073
vertex 1.969552 0.000000 -1.753073
endloop
endfacet
facet normal 0.000000 0.000000 0.000000
outer loop
vertex 1.969552 0.000000 -1.753073
vertex 1.932588 0.000000 -1.822228
vertex 1.932588 0.000000 -1.822228
endloop
endfacet
facet normal 0.000000 0.000000 0.000000
outer loop
vertex 1.207686 0.000000 -1.678037
vertex 1.230448 0.000000 -1.753074
vertex 1.230448 0.000000 -1.753074
endloop
endfacet
facet normal 0.000000 0.000000 0.000000
outer loop
vertex 1.230448 0.000000 -1.753074
vertex 1.207686 0.000000 -1.678037
vertex 1.207686 0.000000 -1.678037
endloop
endfacet
facet normal 0.000000 0.000000 0.000000
outer loop
vertex 1.822228 0.000000 -1.932588
vertex 1.882843 0.000000 -1.882843
vertex 1.882843 0.000000 -1.882843
endloop
endfacet
facet normal 0.000000 0.000000 0.000000
outer loop
vertex 1.882843 0.000000 -1.882843
vertex 1.822228 0.000000 -1.932588
vertex 1.822228 0.000000 -1.932588
endloop
endfacet
facet normal 0.000000 0.000000 0.000000
outer loop
vertex 1.753073 0.000000 -1.230448
vertex 1.678036 0.000000 -1.207686
vertex 1.678036 0.000000 -1.207686
endloop
endfacet
facet normal 0.000000 0.000000 0.000000
outer loop
vertex 1.678036 0.000000 -1.207686
vertex 1.753073 0.000000 -1.230448
vertex 1.753073 0.000000 -1.230448
endloop
endfacet
facet normal 0.000000 0.000000 0.000000
outer loop
vertex 1.207686 0.000000 -1.521964
vertex 1.200000 0.000000 -1.600000
vertex 1.200000 0.000000 -1.600000
endloop
endfacet
facet normal 0.000000 0.000000 0.000000
outer loop
vertex 1.200000 0.000000 -1.600000
vertex 1.207686 0.000000 -1.521964
vertex 1.207686 0.000000 -1.521964
endloop
endfacet
facet normal 0.000000 0.000000 0.000000
outer loop
vertex 1.678036 0.000000 -1.992314
vertex 1.753073 0.000000 -1.969552
vertex 1.753073 0.000000 -1.969552
endloop
endfacet
facet normal 0.000000 0.000000 0.000000
outer loop
vertex 1.753073 0.000000 -1.969552
vertex 1.678036 0.000000 -1.992314
vertex 1.678036 0.000000 -1.992314
endloop
endfacet
facet normal 0.000000 0.000000 0.000000
outer loop
vertex 1.882843 0.000000 -1.317157
vertex 1.822228 0.000000 -1.267412
vertex 1.822228 0.000000 -1.267412
endloop
endfacet
facet normal 0.000000 0.000000 0.000000
outer loop
vertex 1.822228 0.000000 -1.267412
vertex 1.882843 0.000000 -1.317157
vertex 1.882843 0.000000 -1.317157
endloop
endfacet
facet normal 0.000000 0.000000 0.000000
outer loop
vertex 1.267412 0.000000 -1.377772
vertex 1.230448 0.000000 -1.446927
vertex 1.230448 0.000000 -1.446927
endloop
endfacet
facet normal 0.000000 0.000000 0.000000
outer loop
vertex 1.230448 0.000000 -1.446927
vertex 1.267412 0.000000 -1.377772
vertex 1.267412 0.000000 -1.377772
endloop
endfacet
facet normal 0.000000 0.000000 0.000000
outer loop
vertex 1.969552 0.000000 -1.446927
vertex 1.932588 0.000000 -1.377772
vertex 1.932588 0.000000 -1.377772
endloop
endfacet
facet normal 0.000000 0.000000 0.000000
outer loop
vertex 1.932588 0.000000 -1.377772
vertex 1.969552 0.000000 -1.446927
vertex 1.969552 0.000000 -1.446927
endloop
endfacet
facet normal 0.000000 0.000000 0.000000
outer loop
vertex 1.446927 0.000000 -1.969552
vertex 1.521965 0.000000 -1.992314
vertex 1.521965 0.000000 -1.992314
endloop
endfacet
facet normal 0.000000 0.000000 0.000000
outer loop
vertex 1.521965 0.000000 -1.992314
vertex 1.446927 0.000000 -1.969552
vertex 1.446927 0.000000 -1.969552
endloop
endfacet
facet normal 0.000000 0.000000 0.000000
outer loop
vertex 1.377772 0.000000 -1.267412
vertex 1.317157 0.000000 -1.317158
vertex 1.317157 0.000000 -1.317158
endloop
endfacet
facet normal 0.000000 0.000000 0.000000
outer loop
vertex 1.317157 0.000000 -1.317158
vertex 1.377772 0.000000 -1.267412
vertex 1.377772 0.000000 -1.267412
endloop
endfacet
facet normal 0.000000 0.000000 0.000000
outer loop
vertex 2.000000 0.000000 -1.600000
vertex 1.992314 0.000000 -1.521964
vertex 1.992314 0.000000 -1.521964
endloop
endfacet
facet normal 0.000000 0.000000 0.000000
outer loop
vertex 1.992314 0.000000 -1.521964
vertex 2.000000 0.000000 -1.600000
vertex 2.000000 0.000000 -1.600000
endloop
endfacet
facet normal 0.956941 0.000000 -0.290283
outer loop
vertex 1.230448 0.000000 -1.446927
vertex 1.207686 0.000000 -1.521964
vertex 1.207686 0.180000 -1.521964
endloop
endfacet
facet normal 0.956941 0.000000 -0.290283
outer loop
vertex 1.207686 0.180000 -1.521964
vertex 1.230448 0.180000 -1.446927
vertex 1.230448 0.000000 -1.446927
endloop
endfacet
facet normal 0.000000 0.000000 0.000000
outer loop
vertex 1.377772 0.000000 -1.267412
vertex 1.317157 0.000000 -1.317158
vertex 1.317157 0.000000 -1.317158
endloop
endfacet
facet normal 0.000000 0.000000 0.000000
outer loop
vertex 1.317157 0.000000 -1.317158
vertex 1.377772 0.000000 -1.267412
vertex 1.377772 0.000000 -1.267412
endloop
endfacet
facet normal 0.000000 0.000000 0.000000
outer loop
vertex 2.000000 0.000000 -1.600000
vertex 1.992314 0.000000 -1.521964
vertex 1.992314 0.000000 -1.521964
endloop
endfacet
facet normal 0.000000 0.000000 0.000000
outer loop
vertex 1.992314 0.000000 -1.521964
vertex 2.000000 0.000000 -1.600000
vertex 2.000000 0.000000 -1.600000
endloop
endfacet
facet normal 0.000000 0.000000 0.000000
outer loop
vertex 1.317158 0.000000 -1.882843
vertex 1.377772 0.000000 -1.932588
vertex 1.377772 0.000000 -1.932588
endloop
endfacet
facet normal 0.000000 0.000000 0.000000
outer loop
vertex 1.377772 0.000000 -1.932588
vertex 1.317158 0.000000 -1.882843
vertex 1.317158 0.000000 -1.882843
endloop
endfacet
facet normal 0.000000 0.000000 0.000000
outer loop
vertex 1.521964 0.000000 -1.207686
vertex 1.446926 0.000000 -1.230448
vertex 1.446926 0.000000 -1.230448
endloop
endfacet
facet normal 0.000000 0.000000 0.000000
outer loop
vertex 1.446926 0.000000 -1.230448
vertex 1.521964 0.000000 -1.207686
vertex 1.521964 0.000000 -1.207686
endloop
endfacet
facet normal 0.000000 0.000000 0.000000
outer loop
vertex 1.969552 0.000000 -1.753073
vertex 1.992314 0.000000 -1.678036
vertex 1.992314 0.000000 -1.678036
endloop
endfacet
facet normal 0.000000 0.000000 0.000000
outer loop
vertex 1.992314 0.000000 -1.678036
vertex 1.969552 0.000000 -1.753073
vertex 1.969552 0.000000 -1.753073
endloop
endfacet
facet normal 0.000000 0.000000 0.000000
outer loop
vertex 1.230448 0.000000 -1.753074
vertex 1.267412 0.000000 -1.822229
vertex 1.267412 0.000000 -1.822229
endloop
endfacet
facet normal 0.000000 0.000000 0.000000
outer loop
vertex 1.267412 0.000000 -1.822229
vertex 1.230448 0.000000 -1.753074
vertex 1.230448 0.000000 -1.753074
endloop
endfacet
facet normal 0.000000 0.000000 0.000000
outer loop
vertex 1.882843 0.000000 -1.882843
vertex 1.932588 0.000000 -1.822228
vertex 1.932588 0.000000 -1.822228
endloop
endfacet
facet normal 0.000000 0.000000 0.000000
outer loop
vertex 1.932588 0.000000 -1.822228
vertex 1.882843 0.000000 -1.882843
vertex 1.882843 0.000000 -1.882843
endloop
endfacet
facet normal 0.000000 0.000000 0.000000
outer loop
vertex 1.678036 0.000000 -1.207686
vertex 1.600000 0.000000 -1.200000
vertex 1.600000 0.000000 -1.200000
endloop
endfacet
facet normal 0.000000 0.000000 0.000000
outer loop
vertex 1.600000 0.000000 -1.200000
vertex 1.678036 0.000000 -1.207686
vertex 1.678036 0.000000 -1.207686
endloop
endfacet
facet normal 0.000000 0.000000 0.000000
outer loop
vertex 1.200000 0.000000 -1.600000
vertex 1.207686 0.000000 -1.678037
vertex 1.207686 0.000000 -1.678037
endloop
endfacet
facet normal 0.000000 0.000000 0.000000
outer loop
vertex 1.207686 0.000000 -1.678037
vertex 1.200000 0.000000 -1.600000
vertex 1.200000 0.000000 -1.600000
endloop
endfacet
facet normal 0.000000 0.000000 0.000000
outer loop
vertex 1.753073 0.000000 -1.969552
vertex 1.822228 0.000000 -1.932588
vertex 1.822228 0.000000 -1.932588
endloop
endfacet
facet normal 0.000000 0.000000 0.000000
outer loop
vertex 1.822228 0.000000 -1.932588
vertex 1.753073 0.000000 -1.969552
vertex 1.753073 0.000000 -1.969552
endloop
endfacet
facet normal 0.000000 0.000000 0.000000
outer loop
vertex 1.822228 0.000000 -1.267412
vertex 1.753073 0.000000 -1.230448
vertex 1.753073 0.000000 -1.230448
endloop
endfacet
facet normal 0.000000 0.000000 0.000000
outer loop
vertex 1.753073 0.000000 -1.230448
vertex 1.822228 0.000000 -1.267412
vertex 1.822228 0.000000 -1.267412
endloop
endfacet
facet normal 0.000000 0.000000 0.000000
outer loop
vertex 1.230448 0.000000 -1.446927
vertex 1.207686 0.000000 -1.521964
vertex 1.207686 0.000000 -1.521964
endloop
endfacet
facet normal 0.000000 0.000000 0.000000
outer loop
vertex 1.207686 0.000000 -1.521964
vertex 1.230448 0.000000 -1.446927
vertex 1.230448 0.000000 -1.446927
endloop
endfacet
facet normal 0.000000 0.000000 0.000000
outer loop
vertex 1.600000 0.000000 -2.000000
vertex 1.678036 0.000000 -1.992314
vertex 1.678036 0.000000 -1.992314
endloop
endfacet
facet normal 0.000000 0.000000 0.000000
outer loop
vertex 1.678036 0.000000 -1.992314
vertex 1.600000 0.000000 -2.000000
vertex 1.600000 0.000000 -2.000000
endloop
endfacet
facet normal 0.000000 0.000000 0.000000
outer loop
vertex 1.932588 0.000000 -1.377772
vertex 1.882843 0.000000 -1.317157
vertex 1.882843 0.000000 -1.317157
endloop
endfacet
facet normal 0.000000 0.000000 0.000000
outer loop
vertex 1.882843 0.000000 -1.317157
vertex 1.932588 0.000000 -1.377772
vertex 1.932588 0.000000 -1.377772
endloop
endfacet
facet normal 0.000000 0.000000 0.000000
outer loop
vertex 1.521965 0.000000 -1.992314
vertex 1.600000 0.000000 -2.000000
vertex 1.600000 0.000000 -2.000000
endloop
endfacet
facet normal 0.000000 0.000000 0.000000
outer loop
vertex 1.600000 0.000000 -2.000000
vertex 1.521965 0.000000 -1.992314
vertex 1.521965 0.000000 -1.992314
endloop
endfacet
facet normal 0.000000 0.000000 0.000000
outer loop
vertex 1.317157 0.000000 -1.317158
vertex 1.267412 0.000000 -1.377772
vertex 1.267412 0.000000 -1.377772
endloop
endfacet
facet normal 0.000000 0.000000 0.000000
outer loop
vertex 1.267412 0.000000 -1.377772
vertex 1.317157 0.000000 -1.317158
vertex 1.317157 0.000000 -1.317158
endloop
endfacet
facet normal 0.000000 0.000000 0.000000
outer loop
vertex 1.992314 0.000000 -1.521964
vertex 1.969552 0.000000 -1.446927
vertex 1.969552 0.000000 -1.446927
endloop
endfacet
facet normal 0.000000 0.000000 0.000000
outer loop
vertex 1.969552 0.000000 -1.446927
vertex 1.992314 0.000000 -1.521964
vertex 1.992314 0.000000 -1.521964
endloop
endfacet
facet normal 0.000000 0.000000 0.000000
outer loop
vertex 1.377772 0.000000 -1.932588
vertex 1.446927 0.000000 -1.969552
vertex 1.446927 0.000000 -1.969552
endloop
endfacet
facet normal 0.000000 0.000000 0.000000
outer loop
vertex 1.446927 0.000000 -1.969552
vertex 1.377772 0.000000 -1.932588
vertex 1.377772 0.000000 -1.932588
endloop
endfacet
facet normal 0.000000 0.000000 0.000000
outer loop
vertex 1.446926 0.000000 -1.230448
vertex 1.377772 0.000000 -1.267412
vertex 1.377772 0.000000 -1.267412
endloop
endfacet
facet normal 0.000000 0.000000 0.000000
outer loop
vertex 1.377772 0.000000 -1.267412
vertex 1.446926 0.000000 -1.230448
vertex 1.446926 0.000000 -1.230448
endloop
endfacet
facet normal 0.000000 0.000000 0.000000
outer loop
vertex 1.992314 0.000000 -1.678036
vertex 2.000000 0.000000 -1.600000
vertex 2.000000 0.000000 -1.600000
endloop
endfacet
facet normal 0.000000 0.000000 0.000000
outer loop
vertex 2.000000 0.000000 -1.600000
vertex 1.992314 0.000000 -1.678036
vertex 1.992314 0.000000 -1.678036
endloop
endfacet
facet normal 0.000000 0.000000 0.000000
outer loop
vertex 1.267412 0.000000 -1.822229
vertex 1.317158 0.000000 -1.882843
vertex 1.317158 0.000000 -1.882843
endloop
endfacet
facet normal 0.000000 0.000000 0.000000
outer loop
vertex 1.317158 0.000000 -1.882843
vertex 1.267412 0.000000 -1.822229
vertex 1.267412 0.000000 -1.822229
endloop
endfacet
facet normal 0.000000 0.000000 0.000000
outer loop
vertex 1.600000 0.000000 -1.200000
vertex 1.521964 0.000000 -1.207686
vertex 1.521964 0.000000 -1.207686
endloop
endfacet
facet normal 0.000000 0.000000 0.000000
outer loop
vertex 1.521964 0.000000 -1.207686
vertex 1.600000 0.000000 -1.200000
vertex 1.600000 0.000000 -1.200000
endloop
endfacet
facet normal 0.000000 0.000000 0.000000
outer loop
vertex 1.932588 0.000000 -1.822228
vertex 1.969552 0.000000 -1.753073
vertex 1.969552 0.000000 -1.753073
endloop
endfacet
facet normal 0.000000 0.000000 0.000000
outer loop
vertex 1.969552 0.000000 -1.753073
vertex 1.932588 0.000000 -1.822228
vertex 1.932588 0.000000 -1.822228
endloop
endfacet
facet normal 0.000000 0.000000 0.000000
outer loop
vertex 1.207686 0.000000 -1.678037
vertex 1.230448 0.000000 -1.753074
vertex 1.230448 0.000000 -1.753074
endloop
endfacet
facet normal 0.000000 0.000000 0.000000
outer loop
vertex 1.230448 0.000000 -1.753074
vertex 1.207686 0.000000 -1.678037
vertex 1.207686 0.000000 -1.678037
endloop
endfacet
facet normal 0.000000 0.000000 0.000000
outer loop
vertex 1.822228 0.000000 -1.932588
vertex 1.882843 0.000000 -1.882843
vertex 1.882843 0.000000 -1.882843
endloop
endfacet
facet normal 0.000000 0.000000 0.000000
outer loop
vertex 1.882843 0.000000 -1.882843
vertex 1.822228 0.000000 -1.932588
vertex 1.822228 0.000000 -1.932588
endloop
endfacet
facet normal 0.000000 0.000000 0.000000
outer loop
vertex 1.753073 0.000000 -1.230448
vertex 1.678036 0.000000 -1.207686
vertex 1.678036 0.000000 -1.207686
endloop
endfacet
facet normal 0.000000 0.000000 0.000000
outer loop
vertex 1.678036 0.000000 -1.207686
vertex 1.753073 0.000000 -1.230448
vertex 1.753073 0.000000 -1.230448
endloop
endfacet
facet normal 0.000000 0.000000 0.000000
outer loop
vertex 1.207686 0.000000 -1.521964
vertex 1.200000 0.000000 -1.600000
vertex 1.200000 0.000000 -1.600000
endloop
endfacet
facet normal 0.000000 0.000000 0.000000
outer loop
vertex 1.200000 0.000000 -1.600000
vertex 1.207686 0.000000 -1.521964
vertex 1.207686 0.000000 -1.521964
endloop
endfacet
facet normal 0.000000 0.000000 0.000000
outer loop
vertex 1.678036 0.000000 -1.992314
vertex 1.753073 0.000000 -1.969552
vertex 1.753073 0.000000 -1.969552
endloop
endfacet
facet normal 0.000000 0.000000 0.000000
outer loop
vertex 1.753073 0.000000 -1.969552
vertex 1.678036 0.000000 -1.992314
vertex 1.678036 0.000000 -1.992314
endloop
endfacet
facet normal 0.000000 0.000000 0.000000
outer loop
vertex 1.882843 0.000000 -1.317157
vertex 1.822228 0.000000 -1.267412
vertex 1.822228 0.000000 -1.267412
endloop
endfacet
facet normal 0.000000 0.000000 0.000000
outer loop
vertex 1.822228 0.000000 -1.267412
vertex 1.882843 0.000000 -1.317157
vertex 1.882843 0.000000 -1.317157
endloop
endfacet
facet normal 0.000000 0.000000 0.000000
outer loop
vertex 1.267412 0.000000 -1.377772
vertex 1.230448 0.000000 -1.446927
vertex 1.230448 0.000000 -1.446927
endloop
endfacet
facet normal 0.000000 0.000000 0.000000
outer loop
vertex 1.230448 0.000000 -1.446927
vertex 1.267412 0.000000 -1.377772
vertex 1.267412 0.000000 -1.377772
endloop
endfacet
facet normal 0.000000 0.000000 0.000000
outer loop
vertex 1.969552 0.000000 -1.446927
vertex 1.932588 0.000000 -1.377772
vertex 1.932588 0.000000 -1.377772
endloop
endfacet
facet normal 0.000000 0.000000 0.000000
outer loop
vertex 1.932588 0.000000 -1.377772
vertex 1.969552 0.000000 -1.446927
vertex 1.969552 0.000000 -1.446927
endloop
endfacet
facet normal 0.098018 0.000000 -0.995185
outer loop
vertex 1.600000 0.000000 -1.860000
vertex 1.600000 0.180000 -1.860000
vertex 1.650723 0.180000 -1.855004
endloop
endfacet
facet normal 0.098012 0.000000 -0.995185
outer loop
vertex 1.650723 0.180000 -1.855004
vertex 1.650723 0.000000 -1.855004
vertex 1.600000 0.000000 -1.860000
endloop
endfacet
facet normal 0.290285 0.000000 -0.956940
outer loop
vertex 1.650723 0.000000 -1.855004
vertex 1.650723 0.180000 -1.855004
vertex 1.699498 0.180000 -1.840209
endloop
endfacet
facet normal 0.290285 0.000000 -0.956940
outer loop
vertex 1.699498 0.180000 -1.840209
vertex 1.699498 0.000000 -1.840209
vertex 1.650723 0.000000 -1.855004
endloop
endfacet
facet normal 0.471397 0.000000 -0.881921
outer loop
vertex 1.699498 0.000000 -1.840209
vertex 1.699498 0.180000 -1.840209
vertex 1.744448 0.180000 -1.816182
endloop
endfacet
facet normal 0.471397 0.000000 -0.881921
outer loop
vertex 1.744448 0.180000 -1.816182
vertex 1.744448 0.000000 -1.816182
vertex 1.699498 0.000000 -1.840209
endloop
endfacet
facet normal 0.634392 0.000000 -0.773012
outer loop
vertex 1.744448 0.000000 -1.816182
vertex 1.744448 0.180000 -1.816182
vertex 1.783848 0.180000 -1.783848
endloop
endfacet
facet normal 0.634395 0.000000 -0.773009
outer loop
vertex 1.783848 0.180000 -1.783848
vertex 1.783848 0.000000 -1.783848
vertex 1.744448 0.000000 -1.816182
endloop
endfacet
facet normal 0.773009 0.000000 -0.634395
outer loop
vertex 1.783848 0.000000 -1.783848
vertex 1.783848 0.180000 -1.783848
vertex 1.816182 0.180000 -1.744448
endloop
endfacet
facet normal 0.773012 0.000000 -0.634392
outer loop
vertex 1.816182 0.180000 -1.744448
vertex 1.816182 0.000000 -1.744448
vertex 1.783848 0.000000 -1.783848
endloop
endfacet
facet normal 0.881922 0.000000 -0.471396
outer loop
vertex 1.816182 0.000000 -1.744448
vertex 1.816182 0.180000 -1.744448
vertex 1.840209 0.180000 -1.699498
endloop
endfacet
facet normal 0.881922 0.000000 -0.471396
outer loop
vertex 1.840209 0.180000 -1.699498
vertex 1.840209 0.000000 -1.699498
vertex 1.816182 0.000000 -1.744448
endloop
endfacet
facet normal 0.956940 0.000000 -0.290286
outer loop
vertex 1.840209 0.000000 -1.699498
vertex 1.840209 0.180000 -1.699498
vertex 1.855004 0.180000 -1.650723
endloop
endfacet
facet normal 0.956941 0.000000 -0.290284
outer loop
vertex 1.855004 0.180000 -1.650723
vertex 1.855004 0.000000 -1.650723
vertex 1.840209 0.000000 -1.699498
endloop
endfacet
facet normal 0.995185 0.000000 -0.098017
outer loop
vertex 1.855004 0.000000 -1.650723
vertex 1.855004 0.180000 -1.650723
vertex 1.860000 0.180000 -1.600000
endloop
endfacet
facet normal 0.995185 0.000000 -0.098018
outer loop
vertex 1.860000 0.180000 -1.600000
vertex 1.860000 0.000000 -1.600000
vertex 1.855004 0.000000 -1.650723
endloop
endfacet
facet normal 0.995185 0.000000 0.098018
outer loop
vertex 1.860000 0.000000 -1.600000
vertex 1.860000 0.180000 -1.600000
vertex 1.855004 0.180000 -1.549277
endloop
endfacet
facet normal 0.995185 0.000000 0.098017
outer loop
vertex 1.855004 0.180000 -1.549277
vertex 1.855004 0.000000 -1.549277
vertex 1.860000 0.000000 -1.600000
endloop
endfacet
facet normal 0.956941 0.000000 0.290284
outer loop
vertex 1.855004 0.000000 -1.549277
vertex 1.855004 0.180000 -1.549277
vertex 1.840209 0.180000 -1.500502
endloop
endfacet
facet normal 0.956940 0.000000 0.290286
outer loop
vertex 1.840209 0.180000 -1.500502
vertex 1.840209 0.000000 -1.500502
vertex 1.855004 0.000000 -1.549277
endloop
endfacet
facet normal 0.881922 0.000000 0.471396
outer loop
vertex 1.840209 0.000000 -1.500502
vertex 1.840209 0.180000 -1.500502
vertex 1.816182 0.180000 -1.455552
endloop
endfacet
facet normal 0.881922 0.000000 0.471396
outer loop
vertex 1.816182 0.180000 -1.455552
vertex 1.816182 0.000000 -1.455552
vertex 1.840209 0.000000 -1.500502
endloop
endfacet
facet normal 0.773012 0.000000 0.634392
outer loop
vertex 1.816182 0.000000 -1.455552
vertex 1.816182 0.180000 -1.455552
vertex 1.783848 0.180000 -1.416152
endloop
endfacet
facet normal 0.773012 0.000000 0.634392
outer loop
vertex 1.783848 0.180000 -1.416152
vertex 1.783848 0.000000 -1.416152
vertex 1.816182 0.000000 -1.455552
endloop
endfacet
facet normal 0.634392 0.000000 0.773012
outer loop
vertex 1.783848 0.000000 -1.416152
vertex 1.783848 0.180000 -1.416152
vertex 1.744448 0.180000 -1.383818
endloop
endfacet
facet normal 0.634394 0.000000 0.773010
outer loop
vertex 1.744448 0.180000 -1.383818
vertex 1.744448 0.000000 -1.383818
vertex 1.783848 0.000000 -1.416152
endloop
endfacet
facet normal 0.471397 0.000000 0.881921
outer loop
vertex 1.744448 0.000000 -1.383818
vertex 1.744448 0.180000 -1.383818
vertex 1.699498 0.180000 -1.359791
endloop
endfacet
facet normal 0.471397 0.000000 0.881921
outer loop
vertex 1.699498 0.180000 -1.359791
vertex 1.699498 0.000000 -1.359791
vertex 1.744448 0.000000 -1.383818
endloop
endfacet
facet normal 0.290279 0.000000 0.956942
outer loop
vertex 1.699498 0.000000 -1.359791
vertex 1.699498 0.180000 -1.359791
vertex 1.650723 0.180000 -1.344996
endloop
endfacet
facet normal 0.290285 0.000000 0.956940
outer loop
vertex 1.650723 0.180000 -1.344996
vertex 1.650723 0.000000 -1.344996
vertex 1.699498 0.000000 -1.359791
endloop
endfacet
facet normal 0.098018 0.000000 0.995185
outer loop
vertex 1.650723 0.000000 -1.344996
vertex 1.650723 0.180000 -1.344996
vertex 1.600000 0.180000 -1.340000
endloop
endfacet
facet normal 0.098018 0.000000 0.995185
outer loop
vertex 1.600000 0.180000 -1.340000
vertex 1.600000 0.000000 -1.340000
vertex 1.650723 0.000000 -1.344996
endloop
endfacet
facet normal -0.098018 0.000000 0.995185
outer loop
vertex 1.600000 0.000000 -1.340000
vertex 1.600000 0.180000 -1.340000
vertex 1.549276 0.180000 -1.344996
endloop
endfacet
facet normal -0.098018 0.000000 0.995185
outer loop
vertex 1.549276 0.180000 -1.344996
vertex 1.549276 0.000000 -1.344996
vertex 1.600000 0.000000 -1.340000
endloop
endfacet
facet normal -0.290285 0.000000 0.956940
outer loop
vertex 1.549276 0.000000 -1.344996
vertex 1.549276 0.180000 -1.344996
vertex 1.500502 0.180000 -1.359791
endloop
endfacet
facet normal -0.290285 0.000000 0.956940
outer loop
vertex 1.500502 0.180000 -1.359791
vertex 1.500502 0.000000 -1.359791
vertex 1.549276 0.000000 -1.344996
endloop
endfacet
facet normal -0.471397 0.000000 0.881921
outer loop
vertex 1.500502 0.000000 -1.359791
vertex 1.500502 0.180000 -1.359791
vertex 1.455552 0.180000 -1.383818
endloop
endfacet
facet normal -0.471397 0.000000 0.881921
outer loop
vertex 1.455552 0.180000 -1.383818
vertex 1.455552 0.000000 -1.383818
vertex 1.500502 0.000000 -1.359791
endloop
endfacet
facet normal -0.634394 0.000000 0.773010
outer loop
vertex 1.455552 0.000000 -1.383818
vertex 1.455552 0.180000 -1.383818
vertex 1.416152 0.180000 -1.416152
endloop
endfacet
facet normal -0.634392 0.000000 0.773012
outer loop
vertex 1.416152 0.180000 -1.416152
vertex 1.416152 0.000000 -1.416152
vertex 1.455552 0.000000 -1.383818
endloop
endfacet
facet normal -0.773009 0.000000 0.634395
outer loop
vertex 1.416152 0.000000 -1.416152
vertex 1.416152 0.180000 -1.416152
vertex 1.383818 0.180000 -1.455552
endloop
endfacet
facet normal -0.773012 0.000000 0.634392
outer loop
vertex 1.383818 0.180000 -1.455552
vertex 1.383818 0.000000 -1.455552
vertex 1.416152 0.000000 -1.416152
endloop
endfacet
facet normal -0.881923 0.000000 0.471393
outer loop
vertex 1.383818 0.000000 -1.455552
vertex 1.383818 0.180000 -1.455552
vertex 1.359791 0.180000 -1.500503
endloop
endfacet
facet normal -0.881923 0.000000 0.471393
outer loop
vertex 1.359791 0.180000 -1.500503
vertex 1.359791 0.000000 -1.500503
vertex 1.383818 0.000000 -1.455552
endloop
endfacet
facet normal -0.956941 0.000000 0.290284
outer loop
vertex 1.359791 0.000000 -1.500503
vertex 1.359791 0.180000 -1.500503
vertex 1.344996 0.180000 -1.549277
endloop
endfacet
facet normal -0.956940 0.000000 0.290286
outer loop
vertex 1.344996 0.180000 -1.549277
vertex 1.344996 0.000000 -1.549277
vertex 1.359791 0.000000 -1.500503
endloop
endfacet
facet normal -0.995185 0.000000 0.098017
outer loop
vertex 1.344996 0.000000 -1.549277
vertex 1.344996 0.180000 -1.549277
vertex 1.340000 0.180000 -1.600000
endloop
endfacet
facet normal -0.995185 0.000000 0.098017
outer loop
vertex 1.340000 0.180000 -1.600000
vertex 1.340000 0.000000 -1.600000
vertex 1.344996 0.000000 -1.549277
endloop
endfacet
facet normal -0.995185 0.000000 -0.098019
outer loop
vertex 1.340000 0.000000 -1.600000
vertex 1.340000 0.180000 -1.600000
vertex 1.344996 0.180000 -1.650724
endloop
endfacet
facet normal -0.995185 0.000000 -0.098019
outer loop
vertex 1.344996 0.180000 -1.650724
vertex 1.344996 0.000000 -1.650724
vertex 1.340000 0.000000 -1.600000
endloop
endfacet
facet normal -0.956940 0.000000 -0.290286
outer loop
vertex 1.344996 0.000000 -1.650724
vertex 1.344996 0.180000 -1.650724
vertex 1.359792 0.180000 -1.699498
endloop
endfacet
facet normal -0.956940 0.000000 -0.290286
outer loop
vertex 1.359792 0.180000 -1.699498
vertex 1.359792 0.000000 -1.699498
vertex 1.344996 0.000000 -1.650724
endloop
endfacet
facet normal -0.881921 0.000000 -0.471398
outer loop
vertex 1.359792 0.000000 -1.699498
vertex 1.359792 0.180000 -1.699498
vertex 1.383818 0.180000 -1.744449
endloop
endfacet
facet normal -0.881922 0.000000 -0.471395
outer loop
vertex 1.383818 0.180000 -1.744449
vertex 1.383818 0.000000 -1.744449
vertex 1.359792 0.000000 -1.699498
endloop
endfacet
facet normal -0.773009 0.000000 -0.634395
outer loop
vertex 1.383818 0.000000 -1.744449
vertex 1.383818 0.180000 -1.744449
vertex 1.416152 0.180000 -1.783848
endloop
endfacet
facet normal -0.773012 0.000000 -0.634392
outer loop
vertex 1.416152 0.180000 -1.783848
vertex 1.416152 0.000000 -1.783848
vertex 1.383818 0.000000 -1.744449
endloop
endfacet
facet normal -0.634390 0.000000 -0.773013
outer loop
vertex 1.416152 0.000000 -1.783848
vertex 1.416152 0.180000 -1.783848
vertex 1.455552 0.180000 -1.816182
endloop
endfacet
facet normal -0.634394 0.000000 -0.773010
outer loop
vertex 1.455552 0.180000 -1.816182
vertex 1.455552 0.000000 -1.816182
vertex 1.416152 0.000000 -1.783848
endloop
endfacet
facet normal -0.471392 0.000000 -0.881924
outer loop
vertex 1.455552 0.000000 -1.816182
vertex 1.455552 0.180000 -1.816182
vertex 1.500503 0.180000 -1.840209
endloop
endfacet
facet normal -0.471397 0.000000 -0.881921
outer loop
vertex 1.500503 0.180000 -1.840209
vertex 1.500503 0.000000 -1.840209
vertex 1.455552 0.000000 -1.816182
endloop
endfacet
facet normal 0.000000 1.000000 0.000000
outer loop
vertex 1.650723 0.180000 -1.855004
vertex 1.744448 0.180000 -1.816182
vertex 1.699498 0.180000 -1.840209
endloop
endfacet
facet normal 0.000000 1.000000 0.000002
outer loop
vertex 1.816182 0.180000 -1.744448
vertex 1.783848 0.180000 -1.783848
vertex 1.744448 0.180000 -1.816182
endloop
endfacet
facet normal 0.000000 1.000000 0.000000
outer loop
vertex 1.855004 0.180000 -1.650723
vertex 1.840209 0.180000 -1.699498
vertex 1.816182 0.180000 -1.744448
endloop
endfacet
facet normal 0.000000 1.000000 0.000000
outer loop
vertex 1.855004 0.180000 -1.549277
vertex 1.860000 0.180000 -1.600000
vertex 1.855004 0.180000 -1.650723
endloop
endfacet
facet normal 0.000000 1.000000 0.000001
outer loop
vertex 1.816182 0.180000 -1.455552
vertex 1.840209 0.180000 -1.500502
vertex 1.855004 0.180000 -1.549277
endloop
endfacet
facet normal 0.000000 1.000000 -0.000002
outer loop
vertex 1.744448 0.180000 -1.383818
vertex 1.783848 0.180000 -1.416152
vertex 1.816182 0.180000 -1.455552
endloop
endfacet
facet normal 0.000000 1.000000 0.000000
outer loop
vertex 1.650723 0.180000 -1.344996
vertex 1.699498 0.180000 -1.359791
vertex 1.744448 0.180000 -1.383818
endloop
endfacet
facet normal 0.000000 1.000000 0.000004
outer loop
vertex 1.549276 0.180000 -1.344996
vertex 1.600000 0.180000 -1.340000
vertex 1.650723 0.180000 -1.344996
endloop
endfacet
facet normal 0.000000 1.000000 0.000000
outer loop
vertex 1.455552 0.180000 -1.383818
vertex 1.500502 0.180000 -1.359791
vertex 1.549276 0.180000 -1.344996
endloop
endfacet
facet normal 0.000000 1.000000 -0.000002
outer loop
vertex 1.383818 0.180000 -1.455552
vertex 1.416152 0.180000 -1.416152
vertex 1.455552 0.180000 -1.383818
endloop
endfacet
facet normal 0.000000 1.000000 0.000000
outer loop
vertex 1.344996 0.180000 -1.549277
vertex 1.359791 0.180000 -1.500503
vertex 1.383818 0.180000 -1.455552
endloop
endfacet
facet normal 0.000000 1.000000 -0.000000
outer loop
vertex 1.344996 0.180000 -1.650724
vertex 1.340000 0.180000 -1.600000
vertex 1.344996 0.180000 -1.549277
endloop
endfacet
facet normal 0.000000 1.000000 -0.000001
outer loop
vertex 1.383818 0.180000 -1.744449
vertex 1.359792 0.180000 -1.699498
vertex 1.344996 0.180000 -1.650724
endloop
endfacet
facet normal 0.000000 1.000000 0.000002
outer loop
vertex 1.455552 0.180000 -1.816182
vertex 1.416152 0.180000 -1.783848
vertex 1.383818 0.180000 -1.744449
endloop
endfacet
facet normal 0.000000 1.000000 0.000000
outer loop
vertex 1.549277 0.180000 -1.855004
vertex 1.500503 0.180000 -1.840209
vertex 1.455552 0.180000 -1.816182
endloop
endfacet
facet normal 0.000000 1.000000 -0.000004
outer loop
vertex 1.650723 0.180000 -1.855004
vertex 1.600000 0.180000 -1.860000
vertex 1.549277 0.180000 -1.855004
endloop
endfacet
facet normal 0.000000 1.000000 -0.000000
outer loop
vertex 1.650723 0.180000 -1.855004
vertex 1.816182 0.180000 -1.744448
vertex 1.744448 0.180000 -1.816182
endloop
endfacet
facet normal 0.000000 1.000000 0.000000
outer loop
vertex 1.855004 0.180000 -1.549277
vertex 1.855004 0.180000 -1.650723
vertex 1.816182 0.180000 -1.744448
endloop
endfacet
facet normal 0.000000 1.000000 0.000000
outer loop
vertex 1.744448 0.180000 -1.383818
vertex 1.816182 0.180000 -1.455552
vertex 1.855004 0.180000 -1.549277
endloop
endfacet
facet normal 0.000000 1.000000 0.000001
outer loop
vertex 1.549276 0.180000 -1.344996
vertex 1.650723 0.180000 -1.344996
vertex 1.744448 0.180000 -1.383818
endloop
endfacet
facet normal 0.000000 1.000000 0.000000
outer loop
vertex 1.383818 0.180000 -1.455552
vertex 1.455552 0.180000 -1.383818
vertex 1.549276 0.180000 -1.344996
endloop
endfacet
facet normal 0.000000 1.000000 -0.000000
outer loop
vertex 1.344996 0.180000 -1.650724
vertex 1.344996 0.180000 -1.549277
vertex 1.383818 0.180000 -1.455552
endloop
endfacet
facet normal 0.000000 1.000000 -0.000000
outer loop
vertex 1.455552 0.180000 -1.816182
vertex 1.383818 0.180000 -1.744449
vertex 1.344996 0.180000 -1.650724
endloop
endfacet
facet normal 0.000000 1.000000 -0.000001
outer loop
vertex 1.650723 0.180000 -1.855004
vertex 1.549277 0.180000 -1.855004
vertex 1.455552 0.180000 -1.816182
endloop
endfacet
facet normal 0.000000 1.000000 0.000000
outer loop
vertex 1.650723 0.180000 -1.855004
vertex 1.855004 0.180000 -1.549277
vertex 1.816182 0.180000 -1.744448
endloop
endfacet
facet normal 0.000000 1.000000 -0.000000
outer loop
vertex 1.549276 0.180000 -1.344996
vertex 1.744448 0.180000 -1.383818
vertex 1.855004 0.180000 -1.549277
endloop
endfacet
facet normal 0.000000 1.000000 -0.000000
outer loop
vertex 1.344996 0.180000 -1.650724
vertex 1.383818 0.180000 -1.455552
vertex 1.549276 0.180000 -1.344996
endloop
endfacet
facet normal 0.000000 1.000000 0.000000
outer loop
vertex 1.650723 0.180000 -1.855004
vertex 1.455552 0.180000 -1.816182
vertex 1.344996 0.180000 -1.650724
endloop
endfacet
facet normal 0.000000 1.000000 0.000000
outer loop
vertex 1.650723 0.180000 -1.855004
vertex 1.549276 0.180000 -1.344996
vertex 1.855004 0.180000 -1.549277
endloop
endfacet
facet normal 0.000000 1.000000 0.000000
outer loop
vertex 1.650723 0.180000 -1.855004
vertex 1.344996 0.180000 -1.650724
vertex 1.549276 0.180000 -1.344996
endloop
endfacet
facet normal -0.098019 0.000000 -0.995185
outer loop
vertex 1.549277 0.000000 -1.855004
vertex 1.549277 0.180000 -1.855004
vertex 1.600000 0.180000 -1.860000
endloop
endfacet
facet normal -0.098012 0.000000 -0.995185
outer loop
vertex 1.600000 0.180000 -1.860000
vertex 1.600000 0.000000 -1.860000
vertex 1.549277 0.000000 -1.855004
endloop
endfacet
facet normal -0.290285 0.000000 -0.956940
outer loop
vertex 1.500503 0.000000 -1.840209
vertex 1.500503 0.180000 -1.840209
vertex 1.549277 0.180000 -1.855004
endloop
endfacet
facet normal -0.290279 0.000000 -0.956942
outer loop
vertex 1.549277 0.180000 -1.855004
vertex 1.549277 0.000000 -1.855004
vertex 1.500503 0.000000 -1.840209
endloop
endfacet
facet normal 0.000000 1.000000 0.000000
outer loop
vertex 1.600000 0.000000 -2.000000
vertex 1.753073 0.000000 -1.969552
vertex 1.678036 0.000000 -1.992314
endloop
endfacet
facet normal 0.000000 1.000000 0.000000
outer loop
vertex 1.882843 0.000000 -1.882843
vertex 1.822228 0.000000 -1.932588
vertex 1.753073 0.000000 -1.969552
endloop
endfacet
facet normal 0.000000 1.000000 0.000000
outer loop
vertex 1.969552 0.000000 -1.753073
vertex 1.932588 0.000000 -1.822228
vertex 1.882843 0.000000 -1.882843
endloop
endfacet
facet normal 0.000000 1.000000 0.000000
outer loop
vertex 2.000000 0.000000 -1.600000
vertex 1.992314 0.000000 -1.678036
vertex 1.969552 0.000000 -1.753073
endloop
endfacet
facet normal 0.000000 1.000000 0.000000
outer loop
vertex 1.855004 0.000000 -1.650723
vertex 1.860000 0.000000 -1.600000
vertex 2.000000 0.000000 -1.600000
endloop
endfacet
facet normal 0.000000 1.000000 0.000000
outer loop
vertex 1.992314 0.000000 -1.521964
vertex 1.855004 0.000000 -1.549277
vertex 1.840209 0.000000 -1.500502
endloop
endfacet
facet normal 0.000000 1.000000 0.000000
outer loop
vertex 1.840209 0.000000 -1.699498
vertex 1.855004 0.000000 -1.650723
vertex 2.000000 0.000000 -1.600000
endloop
endfacet
facet normal 0.000000 1.000000 0.000000
outer loop
vertex 1.992314 0.000000 -1.521964
vertex 1.840209 0.000000 -1.500502
vertex 1.816182 0.000000 -1.455552
endloop
endfacet
facet normal 0.000000 1.000000 0.000000
outer loop
vertex 1.816182 0.000000 -1.744448
vertex 1.840209 0.000000 -1.699498
vertex 2.000000 0.000000 -1.600000
endloop
endfacet
facet normal 0.000000 1.000000 0.000000
outer loop
vertex 1.992314 0.000000 -1.521964
vertex 1.816182 0.000000 -1.455552
vertex 1.783848 0.000000 -1.416152
endloop
endfacet
facet normal 0.000000 1.000000 0.000000
outer loop
vertex 1.783848 0.000000 -1.783848
vertex 1.816182 0.000000 -1.744448
vertex 2.000000 0.000000 -1.600000
endloop
endfacet
facet normal 0.000000 1.000000 0.000000
outer loop
vertex 1.992314 0.000000 -1.521964
vertex 1.783848 0.000000 -1.416152
vertex 1.744448 0.000000 -1.383818
endloop
endfacet
facet normal 0.000000 1.000000 0.000000
outer loop
vertex 1.783848 0.000000 -1.783848
vertex 2.000000 0.000000 -1.600000
vertex 1.969552 0.000000 -1.753073
endloop
endfacet
facet normal 0.000000 1.000000 0.000000
outer loop
vertex 1.969552 0.000000 -1.446927
vertex 1.992314 0.000000 -1.521964
vertex 1.744448 0.000000 -1.383818
endloop
endfacet
facet normal 0.000000 1.000000 0.000000
outer loop
vertex 1.744448 0.000000 -1.816182
vertex 1.783848 0.000000 -1.783848
vertex 1.969552 0.000000 -1.753073
endloop
endfacet
facet normal 0.000000 1.000000 0.000000
outer loop
vertex 1.969552 0.000000 -1.446927
vertex 1.744448 0.000000 -1.383818
vertex 1.699498 0.000000 -1.359791
endloop
endfacet
facet normal 0.000000 1.000000 0.000000
outer loop
vertex 1.699498 0.000000 -1.840209
vertex 1.744448 0.000000 -1.816182
vertex 1.969552 0.000000 -1.753073
endloop
endfacet
facet normal 0.000000 1.000000 0.000000
outer loop
vertex 1.932588 0.000000 -1.377772
vertex 1.969552 0.000000 -1.446927
vertex 1.699498 0.000000 -1.359791
endloop
endfacet
facet normal 0.000000 1.000000 0.000000
outer loop
vertex 1.699498 0.000000 -1.840209
vertex 1.969552 0.000000 -1.753073
vertex 1.882843 0.000000 -1.882843
endloop
endfacet
facet normal 0.000000 1.000000 0.000000
outer loop
vertex 1.932588 0.000000 -1.377772
vertex 1.699498 0.000000 -1.359791
vertex 1.650723 0.000000 -1.344996
endloop
endfacet
facet normal 0.000000 1.000000 0.000000
outer loop
vertex 1.650723 0.000000 -1.855004
vertex 1.699498 0.000000 -1.840209
vertex 1.882843 0.000000 -1.882843
endloop
endfacet
facet normal 0.000000 1.000000 0.000000
outer loop
vertex 1.882843 0.000000 -1.317157
vertex 1.932588 0.000000 -1.377772
vertex 1.650723 0.000000 -1.344996
endloop
endfacet
facet normal 0.000000 1.000000 0.000000
outer loop
vertex 1.600000 0.000000 -1.860000
vertex 1.650723 0.000000 -1.855004
vertex 1.882843 0.000000 -1.882843
endloop
endfacet
facet normal 0.000000 1.000000 0.000000
outer loop
vertex 1.882843 0.000000 -1.317157
vertex 1.650723 0.000000 -1.344996
vertex 1.600000 0.000000 -1.340000
endloop
endfacet
facet normal 0.000000 1.000000 0.000000
outer loop
vertex 1.600000 0.000000 -1.860000
vertex 1.882843 0.000000 -1.882843
vertex 1.753073 0.000000 -1.969552
endloop
endfacet
facet normal 0.000000 1.000000 0.000000
outer loop
vertex 1.822228 0.000000 -1.267412
vertex 1.882843 0.000000 -1.317157
vertex 1.600000 0.000000 -1.340000
endloop
endfacet
facet normal 0.000000 1.000000 0.000000
outer loop
vertex 1.549277 0.000000 -1.855004
vertex 1.600000 0.000000 -1.860000
vertex 1.753073 0.000000 -1.969552
endloop
endfacet
facet normal 0.000000 1.000000 0.000000
outer loop
vertex 1.822228 0.000000 -1.267412
vertex 1.600000 0.000000 -1.340000
vertex 1.549276 0.000000 -1.344996
endloop
endfacet
facet normal 0.000000 1.000000 0.000000
outer loop
vertex 1.500503 0.000000 -1.840209
vertex 1.549277 0.000000 -1.855004
vertex 1.753073 0.000000 -1.969552
endloop
endfacet
facet normal 0.000000 1.000000 0.000000
outer loop
vertex 1.753073 0.000000 -1.230448
vertex 1.822228 0.000000 -1.267412
vertex 1.549276 0.000000 -1.344996
endloop
endfacet
facet normal 0.000000 1.000000 0.000000
outer loop
vertex 1.600000 0.000000 -2.000000
vertex 1.500503 0.000000 -1.840209
vertex 1.753073 0.000000 -1.969552
endloop
endfacet
facet normal 0.000000 1.000000 0.000000
outer loop
vertex 1.753073 0.000000 -1.230448
vertex 1.549276 0.000000 -1.344996
vertex 1.500502 0.000000 -1.359791
endloop
endfacet
facet normal 0.000000 1.000000 0.000000
outer loop
vertex 1.600000 0.000000 -2.000000
vertex 1.455552 0.000000 -1.816182
vertex 1.500503 0.000000 -1.840209
endloop
endfacet
facet normal 0.000000 1.000000 0.000000
outer loop
vertex 1.678036 0.000000 -1.207686
vertex 1.753073 0.000000 -1.230448
vertex 1.500502 0.000000 -1.359791
endloop
endfacet
facet normal 0.000000 1.000000 0.000000
outer loop
vertex 1.600000 0.000000 -2.000000
vertex 1.416152 0.000000 -1.783848
vertex 1.455552 0.000000 -1.816182
endloop
endfacet
facet normal 0.000000 1.000000 0.000000
outer loop
vertex 1.678036 0.000000 -1.207686
vertex 1.500502 0.000000 -1.359791
vertex 1.455552 0.000000 -1.383818
endloop
endfacet
facet normal 0.000000 1.000000 0.000000
outer loop
vertex 1.600000 0.000000 -2.000000
vertex 1.521965 0.000000 -1.992314
vertex 1.416152 0.000000 -1.783848
endloop
endfacet
facet normal 0.000000 1.000000 0.000000
outer loop
vertex 1.600000 0.000000 -1.200000
vertex 1.678036 0.000000 -1.207686
vertex 1.455552 0.000000 -1.383818
endloop
endfacet
facet normal 0.000000 1.000000 0.000000
outer loop
vertex 1.521965 0.000000 -1.992314
vertex 1.383818 0.000000 -1.744449
vertex 1.416152 0.000000 -1.783848
endloop
endfacet
facet normal 0.000000 1.000000 0.000000
outer loop
vertex 1.600000 0.000000 -1.200000
vertex 1.455552 0.000000 -1.383818
vertex 1.416152 0.000000 -1.416152
endloop
endfacet
facet normal 0.000000 1.000000 0.000000
outer loop
vertex 1.521965 0.000000 -1.992314
vertex 1.446927 0.000000 -1.969552
vertex 1.383818 0.000000 -1.744449
endloop
endfacet
facet normal 0.000000 1.000000 0.000000
outer loop
vertex 1.521964 0.000000 -1.207686
vertex 1.600000 0.000000 -1.200000
vertex 1.416152 0.000000 -1.416152
endloop
endfacet
facet normal 0.000000 1.000000 0.000000
outer loop
vertex 1.446927 0.000000 -1.969552
vertex 1.359792 0.000000 -1.699498
vertex 1.383818 0.000000 -1.744449
endloop
endfacet
facet normal 0.000000 1.000000 0.000000
outer loop
vertex 1.521964 0.000000 -1.207686
vertex 1.416152 0.000000 -1.416152
vertex 1.383818 0.000000 -1.455552
endloop
endfacet
facet normal 0.000000 1.000000 0.000000
outer loop
vertex 1.446927 0.000000 -1.969552
vertex 1.377772 0.000000 -1.932588
vertex 1.359792 0.000000 -1.699498
endloop
endfacet
facet normal 0.000000 1.000000 0.000000
outer loop
vertex 1.446926 0.000000 -1.230448
vertex 1.521964 0.000000 -1.207686
vertex 1.383818 0.000000 -1.455552
endloop
endfacet
facet normal 0.000000 1.000000 0.000000
outer loop
vertex 1.377772 0.000000 -1.932588
vertex 1.344996 0.000000 -1.650724
vertex 1.359792 0.000000 -1.699498
endloop
endfacet
facet normal 0.000000 1.000000 0.000000
outer loop
vertex 1.446926 0.000000 -1.230448
vertex 1.383818 0.000000 -1.455552
vertex 1.359791 0.000000 -1.500503
endloop
endfacet
facet normal 0.000000 1.000000 0.000000
outer loop
vertex 1.377772 0.000000 -1.932588
vertex 1.317158 0.000000 -1.882843
vertex 1.344996 0.000000 -1.650724
endloop
endfacet
facet normal 0.000000 1.000000 0.000000
outer loop
vertex 1.377772 0.000000 -1.267412
vertex 1.446926 0.000000 -1.230448
vertex 1.359791 0.000000 -1.500503
endloop
endfacet
facet normal 0.000000 1.000000 0.000000
outer loop
vertex 1.317158 0.000000 -1.882843
vertex 1.340000 0.000000 -1.600000
vertex 1.344996 0.000000 -1.650724
endloop
endfacet
facet normal 0.000000 1.000000 0.000000
outer loop
vertex 1.377772 0.000000 -1.267412
vertex 1.359791 0.000000 -1.500503
vertex 1.344996 0.000000 -1.549277
endloop
endfacet
facet normal 0.000000 1.000000 0.000000
outer loop
vertex 1.317158 0.000000 -1.882843
vertex 1.267412 0.000000 -1.822229
vertex 1.340000 0.000000 -1.600000
endloop
endfacet
facet normal 0.000000 1.000000 0.000000
outer loop
vertex 1.317157 0.000000 -1.317158
vertex 1.377772 0.000000 -1.267412
vertex 1.344996 0.000000 -1.549277
endloop
endfacet
facet normal 0.000000 1.000000 0.000000
outer loop
vertex 1.267412 0.000000 -1.822229
vertex 1.344996 0.000000 -1.549277
vertex 1.340000 0.000000 -1.600000
endloop
endfacet
facet normal 0.000000 1.000000 0.000000
outer loop
vertex 1.267412 0.000000 -1.822229
vertex 1.230448 0.000000 -1.753074
vertex 1.207686 0.000000 -1.678037
endloop
endfacet
facet normal 0.000000 1.000000 0.000000
outer loop
vertex 1.207686 0.000000 -1.678037
vertex 1.200000 0.000000 -1.600000
vertex 1.207686 0.000000 -1.521964
endloop
endfacet
facet normal 0.000000 1.000000 0.000000
outer loop
vertex 1.207686 0.000000 -1.521964
vertex 1.230448 0.000000 -1.446927
vertex 1.267412 0.000000 -1.377772
endloop
endfacet
facet normal 0.000000 1.000000 0.000000
outer loop
vertex 1.267412 0.000000 -1.377772
vertex 1.317157 0.000000 -1.317158
vertex 1.344996 0.000000 -1.549277
endloop
endfacet
facet normal 0.000000 1.000000 0.000000
outer loop
vertex 1.267412 0.000000 -1.822229
vertex 1.207686 0.000000 -1.678037
vertex 1.344996 0.000000 -1.549277
endloop
endfacet
facet normal 0.000000 1.000000 0.000000
outer loop
vertex 1.207686 0.000000 -1.678037
vertex 1.207686 0.000000 -1.521964
vertex 1.267412 0.000000 -1.377772
endloop
endfacet
facet normal 0.000000 1.000000 0.000000
outer loop
vertex 1.207686 0.000000 -1.678037
vertex 1.267412 0.000000 -1.377772
vertex 1.344996 0.000000 -1.549277
endloop
endfacet
facet normal 0.000000 -1.000000 0.000000
outer loop
vertex 1.600000 0.180000 -2.000000
vertex 1.446927 0.180000 -1.969552
vertex 1.521965 0.180000 -1.992314
endloop
endfacet
facet normal 0.000000 -1.000000 0.000000
outer loop
vertex 1.317158 0.180000 -1.882843
vertex 1.377772 0.180000 -1.932588
vertex 1.446927 0.180000 -1.969552
endloop
endfacet
facet normal 0.000000 -1.000000 0.000000
outer loop
vertex 1.230448 0.180000 -1.753074
vertex 1.267412 0.180000 -1.822229
vertex 1.317158 0.180000 -1.882843
endloop
endfacet
facet normal 0.000000 -1.000000 0.000000
outer loop
vertex 1.200000 0.180000 -1.600000
vertex 1.207686 0.180000 -1.678037
vertex 1.230448 0.180000 -1.753074
endloop
endfacet
facet normal 0.000000 -1.000000 -0.000000
outer loop
vertex 1.230448 0.180000 -1.446927
vertex 1.207686 0.180000 -1.521964
vertex 1.200000 0.180000 -1.600000
endloop
endfacet
facet normal 0.000000 -1.000000 -0.000001
outer loop
vertex 1.317157 0.180000 -1.317158
vertex 1.267412 0.180000 -1.377772
vertex 1.230448 0.180000 -1.446927
endloop
endfacet
facet normal 0.000000 -1.000000 0.000000
outer loop
vertex 1.446926 0.180000 -1.230448
vertex 1.377772 0.180000 -1.267412
vertex 1.317157 0.180000 -1.317158
endloop
endfacet
facet normal 0.000000 -1.000000 0.000002
outer loop
vertex 1.600000 0.180000 -1.200000
vertex 1.521964 0.180000 -1.207686
vertex 1.446926 0.180000 -1.230448
endloop
endfacet
facet normal 0.000000 -1.000000 0.000002
outer loop
vertex 1.753073 0.180000 -1.230448
vertex 1.678036 0.180000 -1.207686
vertex 1.600000 0.180000 -1.200000
endloop
endfacet
facet normal 0.000000 -1.000000 -0.000002
outer loop
vertex 1.882843 0.180000 -1.317157
vertex 1.822228 0.180000 -1.267412
vertex 1.753073 0.180000 -1.230448
endloop
endfacet
facet normal 0.000000 -1.000000 -0.000002
outer loop
vertex 1.969552 0.180000 -1.446927
vertex 1.932588 0.180000 -1.377772
vertex 1.882843 0.180000 -1.317157
endloop
endfacet
facet normal 0.000000 -1.000000 0.000000
outer loop
vertex 2.000000 0.180000 -1.600000
vertex 1.992314 0.180000 -1.521964
vertex 1.969552 0.180000 -1.446927
endloop
endfacet
facet normal 0.000000 -1.000000 0.000000
outer loop
vertex 1.969552 0.180000 -1.753073
vertex 1.992314 0.180000 -1.678036
vertex 2.000000 0.180000 -1.600000
endloop
endfacet
facet normal 0.000000 -1.000000 0.000001
outer loop
vertex 1.882843 0.180000 -1.882843
vertex 1.932588 0.180000 -1.822228
vertex 1.969552 0.180000 -1.753073
endloop
endfacet
facet normal 0.000000 -1.000000 0.000000
outer loop
vertex 1.753073 0.180000 -1.969552
vertex 1.822228 0.180000 -1.932588
vertex 1.882843 0.180000 -1.882843
endloop
endfacet
facet normal 0.000000 -1.000000 -0.000002
outer loop
vertex 1.600000 0.180000 -2.000000
vertex 1.678036 0.180000 -1.992314
vertex 1.753073 0.180000 -1.969552
endloop
endfacet
facet normal 0.000000 -1.000000 -0.000000
outer loop
vertex 1.600000 0.180000 -2.000000
vertex 1.317158 0.180000 -1.882843
vertex 1.446927 0.180000 -1.969552
endloop
endfacet
facet normal 0.000000 -1.000000 0.000000
outer loop
vertex 1.200000 0.180000 -1.600000
vertex 1.230448 0.180000 -1.753074
vertex 1.317158 0.180000 -1.882843
endloop
endfacet
facet normal 0.000000 -1.000000 -0.000000
outer loop
vertex 1.317157 0.180000 -1.317158
vertex 1.230448 0.180000 -1.446927
vertex 1.200000 0.180000 -1.600000
endloop
endfacet
facet normal 0.000000 -1.000000 -0.000000
outer loop
vertex 1.600000 0.180000 -1.200000
vertex 1.446926 0.180000 -1.230448
vertex 1.317157 0.180000 -1.317158
endloop
endfacet
facet normal 0.000000 -1.000000 0.000000
outer loop
vertex 1.882843 0.180000 -1.317157
vertex 1.753073 0.180000 -1.230448
vertex 1.600000 0.180000 -1.200000
endloop
endfacet
facet normal 0.000000 -1.000000 0.000000
outer loop
vertex 2.000000 0.180000 -1.600000
vertex 1.969552 0.180000 -1.446927
vertex 1.882843 0.180000 -1.317157
endloop
endfacet
facet normal 0.000000 -1.000000 -0.000000
outer loop
vertex 1.882843 0.180000 -1.882843
vertex 1.969552 0.180000 -1.753073
vertex 2.000000 0.180000 -1.600000
endloop
endfacet
facet normal 0.000000 -1.000000 0.000000
outer loop
vertex 1.600000 0.180000 -2.000000
vertex 1.753073 0.180000 -1.969552
vertex 1.882843 0.180000 -1.882843
endloop
endfacet
facet normal 0.000000 -1.000000 -0.000000
outer loop
vertex 1.600000 0.180000 -2.000000
vertex 1.200000 0.180000 -1.600000
vertex 1.317158 0.180000 -1.882843
endloop
endfacet
facet normal 0.000000 -1.000000 -0.000000
outer loop
vertex 1.600000 0.180000 -1.200000
vertex 1.317157 0.180000 -1.317158
vertex 1.200000 0.180000 -1.600000
endloop
endfacet
facet normal 0.000000 -1.000000 0.000000
outer loop
vertex 2.000000 0.180000 -1.600000
vertex 1.882843 0.180000 -1.317157
vertex 1.600000 0.180000 -1.200000
endloop
endfacet
facet normal 0.000000 -1.000000 -0.000000
outer loop
vertex 1.600000 0.180000 -2.000000
vertex 1.882843 0.180000 -1.882843
vertex 2.000000 0.180000 -1.600000
endloop
endfacet
facet normal 0.000000 -1.000000 0.000000
outer loop
vertex 1.600000 0.180000 -2.000000
vertex 1.600000 0.180000 -1.200000
vertex 1.200000 0.180000 -1.600000
endloop
endfacet
facet normal 0.000000 -1.000000 0.000000
outer loop
vertex 1.600000 0.180000 -2.000000
vertex 2.000000 0.180000 -1.600000
vertex 1.600000 0.180000 -1.200000
endloop
endfacet
facet normal -0.098015 0.000000 0.995185
outer loop
vertex 1.600000 0.000000 -2.000000
vertex 1.678036 0.000000 -1.992314
vertex 1.678036 0.180000 -1.992314
endloop
endfacet
facet normal -0.098019 0.000000 0.995185
outer loop
vertex 1.678036 0.180000 -1.992314
vertex 1.600000 0.180000 -2.000000
vertex 1.600000 0.000000 -2.000000
endloop
endfacet
facet normal -0.773011 0.000000 -0.634393
outer loop
vertex 1.932588 0.000000 -1.377772
vertex 1.882843 0.000000 -1.317157
vertex 1.882843 0.180000 -1.317157
endloop
endfacet
facet normal -0.773012 0.000000 -0.634392
outer loop
vertex 1.882843 0.180000 -1.317157
vertex 1.932588 0.180000 -1.377772
vertex 1.932588 0.000000 -1.377772
endloop
endfacet
facet normal 0.098015 0.000000 0.995185
outer loop
vertex 1.521965 0.000000 -1.992314
vertex 1.600000 0.000000 -2.000000
vertex 1.600000 0.180000 -2.000000
endloop
endfacet
facet normal 0.098020 0.000000 0.995185
outer loop
vertex 1.600000 0.180000 -2.000000
vertex 1.521965 0.180000 -1.992314
vertex 1.521965 0.000000 -1.992314
endloop
endfacet
facet normal 0.773011 0.000000 -0.634393
outer loop
vertex 1.317157 0.000000 -1.317158
vertex 1.267412 0.000000 -1.377772
vertex 1.267412 0.180000 -1.377772
endloop
endfacet
facet normal 0.773010 0.000000 -0.634394
outer loop
vertex 1.267412 0.180000 -1.377772
vertex 1.317157 0.180000 -1.317158
vertex 1.317157 0.000000 -1.317158
endloop
endfacet
facet normal -0.956940 0.000000 -0.290285
outer loop
vertex 1.992314 0.000000 -1.521964
vertex 1.969552 0.000000 -1.446927
vertex 1.969552 0.180000 -1.446927
endloop
endfacet
facet normal -0.956940 0.000000 -0.290285
outer loop
vertex 1.969552 0.180000 -1.446927
vertex 1.992314 0.180000 -1.521964
vertex 1.992314 0.000000 -1.521964
endloop
endfacet
facet normal 0.471395 0.000000 0.881922
outer loop
vertex 1.377772 0.000000 -1.932588
vertex 1.446927 0.000000 -1.969552
vertex 1.446927 0.180000 -1.969552
endloop
endfacet
facet normal 0.471395 0.000000 0.881922
outer loop
vertex 1.446927 0.180000 -1.969552
vertex 1.377772 0.180000 -1.932588
vertex 1.377772 0.000000 -1.932588
endloop
endfacet
facet normal 0.471398 0.000000 -0.881920
outer loop
vertex 1.446926 0.000000 -1.230448
vertex 1.377772 0.000000 -1.267412
vertex 1.377772 0.180000 -1.267412
endloop
endfacet
facet normal 0.471397 0.000000 -0.881921
outer loop
vertex 1.377772 0.180000 -1.267412
vertex 1.446926 0.180000 -1.230448
vertex 1.446926 0.000000 -1.230448
endloop
endfacet
facet normal -0.995185 0.000000 0.098017
outer loop
vertex 1.992314 0.000000 -1.678036
vertex 2.000000 0.000000 -1.600000
vertex 2.000000 0.180000 -1.600000
endloop
endfacet
facet normal -0.995185 0.000000 0.098017
outer loop
vertex 2.000000 0.180000 -1.600000
vertex 1.992314 0.180000 -1.678036
vertex 1.992314 0.000000 -1.678036
endloop
endfacet
facet normal 0.773010 0.000000 0.634394
outer loop
vertex 1.267412 0.000000 -1.822229
vertex 1.317158 0.000000 -1.882843
vertex 1.317158 0.180000 -1.882843
endloop
endfacet
facet normal 0.773010 0.000000 0.634394
outer loop
vertex 1.317158 0.180000 -1.882843
vertex 1.267412 0.180000 -1.822229
vertex 1.267412 0.000000 -1.822229
endloop
endfacet
facet normal 0.098017 0.000000 -0.995185
outer loop
vertex 1.600000 0.000000 -1.200000
vertex 1.521964 0.000000 -1.207686
vertex 1.521964 0.180000 -1.207686
endloop
endfacet
facet normal 0.098017 0.000000 -0.995185
outer loop
vertex 1.521964 0.180000 -1.207686
vertex 1.600000 0.180000 -1.200000
vertex 1.600000 0.000000 -1.200000
endloop
endfacet
facet normal -0.881921 0.000000 0.471397
outer loop
vertex 1.932588 0.000000 -1.822228
vertex 1.969552 0.000000 -1.753073
vertex 1.969552 0.180000 -1.753073
endloop
endfacet
facet normal -0.881921 0.000000 0.471397
outer loop
vertex 1.969552 0.180000 -1.753073
vertex 1.932588 0.180000 -1.822228
vertex 1.932588 0.000000 -1.822228
endloop
endfacet
facet normal 0.956940 0.000000 0.290286
outer loop
vertex 1.207686 0.000000 -1.678037
vertex 1.230448 0.000000 -1.753074
vertex 1.230448 0.180000 -1.753074
endloop
endfacet
facet normal 0.956940 0.000000 0.290286
outer loop
vertex 1.230448 0.180000 -1.753074
vertex 1.207686 0.180000 -1.678037
vertex 1.207686 0.000000 -1.678037
endloop
endfacet
facet normal -0.634392 0.000000 0.773011
outer loop
vertex 1.822228 0.000000 -1.932588
vertex 1.882843 0.000000 -1.882843
vertex 1.882843 0.180000 -1.882843
endloop
endfacet
facet normal -0.634392 0.000000 0.773011
outer loop
vertex 1.882843 0.180000 -1.882843
vertex 1.822228 0.180000 -1.932588
vertex 1.822228 0.000000 -1.932588
endloop
endfacet
facet normal -0.290285 0.000000 -0.956940
outer loop
vertex 1.753073 0.000000 -1.230448
vertex 1.678036 0.000000 -1.207686
vertex 1.678036 0.180000 -1.207686
endloop
endfacet
facet normal -0.290281 0.000000 -0.956941
outer loop
vertex 1.678036 0.180000 -1.207686
vertex 1.753073 0.180000 -1.230448
vertex 1.753073 0.000000 -1.230448
endloop
endfacet
facet normal 0.995185 0.000000 -0.098016
outer loop
vertex 1.207686 0.000000 -1.521964
vertex 1.200000 0.000000 -1.600000
vertex 1.200000 0.180000 -1.600000
endloop
endfacet
facet normal 0.995185 0.000000 -0.098016
outer loop
vertex 1.200000 0.180000 -1.600000
vertex 1.207686 0.180000 -1.521964
vertex 1.207686 0.000000 -1.521964
endloop
endfacet
facet normal -0.290285 0.000000 0.956940
outer loop
vertex 1.678036 0.000000 -1.992314
vertex 1.753073 0.000000 -1.969552
vertex 1.753073 0.180000 -1.969552
endloop
endfacet
facet normal -0.290285 0.000000 0.956940
outer loop
vertex 1.753073 0.180000 -1.969552
vertex 1.678036 0.180000 -1.992314
vertex 1.678036 0.000000 -1.992314
endloop
endfacet
facet normal -0.634392 0.000000 -0.773011
outer loop
vertex 1.882843 0.000000 -1.317157
vertex 1.822228 0.000000 -1.267412
vertex 1.822228 0.180000 -1.267412
endloop
endfacet
facet normal -0.634392 0.000000 -0.773011
outer loop
vertex 1.822228 0.180000 -1.267412
vertex 1.882843 0.180000 -1.317157
vertex 1.882843 0.000000 -1.317157
endloop
endfacet
facet normal 0.881922 0.000000 -0.471395
outer loop
vertex 1.267412 0.000000 -1.377772
vertex 1.230448 0.000000 -1.446927
vertex 1.230448 0.180000 -1.446927
endloop
endfacet
facet normal 0.881921 0.000000 -0.471397
outer loop
vertex 1.230448 0.180000 -1.446927
vertex 1.267412 0.180000 -1.377772
vertex 1.267412 0.000000 -1.377772
endloop
endfacet
facet normal -0.881922 0.000000 -0.471396
outer loop
vertex 1.969552 0.000000 -1.446927
vertex 1.932588 0.000000 -1.377772
vertex 1.932588 0.180000 -1.377772
endloop
endfacet
facet normal -0.881921 0.000000 -0.471397
outer loop
vertex 1.932588 0.180000 -1.377772
vertex 1.969552 0.180000 -1.446927
vertex 1.969552 0.000000 -1.446927
endloop
endfacet
facet normal 0.290281 0.000000 0.956941
outer loop
vertex 1.446927 0.000000 -1.969552
vertex 1.521965 0.000000 -1.992314
vertex 1.521965 0.180000 -1.992314
endloop
endfacet
facet normal 0.290285 0.000000 0.956940
outer loop
vertex 1.521965 0.180000 -1.992314
vertex 1.446927 0.180000 -1.969552
vertex 1.446927 0.000000 -1.969552
endloop
endfacet
facet normal 0.634393 0.000000 -0.773011
outer loop
vertex 1.377772 0.000000 -1.267412
vertex 1.317157 0.000000 -1.317158
vertex 1.317157 0.180000 -1.317158
endloop
endfacet
facet normal 0.634395 0.000000 -0.773009
outer loop
vertex 1.317157 0.180000 -1.317158
vertex 1.377772 0.180000 -1.267412
vertex 1.377772 0.000000 -1.267412
endloop
endfacet
facet normal -0.995185 0.000000 -0.098017
outer loop
vertex 2.000000 0.000000 -1.600000
vertex 1.992314 0.000000 -1.521964
vertex 1.992314 0.180000 -1.521964
endloop
endfacet
facet normal -0.995185 0.000000 -0.098017
outer loop
vertex 1.992314 0.180000 -1.521964
vertex 2.000000 0.180000 -1.600000
vertex 2.000000 0.000000 -1.600000
endloop
endfacet
facet normal 0.634392 0.000000 0.773011
outer loop
vertex 1.317158 0.000000 -1.882843
vertex 1.377772 0.000000 -1.932588
vertex 1.377772 0.180000 -1.932588
endloop
endfacet
facet normal 0.634392 0.000000 0.773011
outer loop
vertex 1.377772 0.180000 -1.932588
vertex 1.317158 0.180000 -1.882843
vertex 1.317158 0.000000 -1.882843
endloop
endfacet
facet normal 0.290283 0.000000 -0.956941
outer loop
vertex 1.521964 0.000000 -1.207686
vertex 1.446926 0.000000 -1.230448
vertex 1.446926 0.180000 -1.230448
endloop
endfacet
facet normal 0.290285 0.000000 -0.956940
outer loop
vertex 1.446926 0.180000 -1.230448
vertex 1.521964 0.180000 -1.207686
vertex 1.521964 0.000000 -1.207686
endloop
endfacet
facet normal -0.956940 0.000000 0.290285
outer loop
vertex 1.969552 0.000000 -1.753073
vertex 1.992314 0.000000 -1.678036
vertex 1.992314 0.180000 -1.678036
endloop
endfacet
facet normal -0.956940 0.000000 0.290285
outer loop
vertex 1.992314 0.180000 -1.678036
vertex 1.969552 0.180000 -1.753073
vertex 1.969552 0.000000 -1.753073
endloop
endfacet
facet normal 0.881920 0.000000 0.471398
outer loop
vertex 1.230448 0.000000 -1.753074
vertex 1.267412 0.000000 -1.822229
vertex 1.267412 0.180000 -1.822229
endloop
endfacet
facet normal 0.881920 0.000000 0.471398
outer loop
vertex 1.267412 0.180000 -1.822229
vertex 1.230448 0.180000 -1.753074
vertex 1.230448 0.000000 -1.753074
endloop
endfacet
facet normal -0.773011 0.000000 0.634393
outer loop
vertex 1.882843 0.000000 -1.882843
vertex 1.932588 0.000000 -1.822228
vertex 1.932588 0.180000 -1.822228
endloop
endfacet
facet normal -0.773011 0.000000 0.634393
outer loop
vertex 1.932588 0.180000 -1.822228
vertex 1.882843 0.180000 -1.882843
vertex 1.882843 0.000000 -1.882843
endloop
endfacet
facet normal -0.098017 0.000000 -0.995185
outer loop
vertex 1.678036 0.000000 -1.207686
vertex 1.600000 0.000000 -1.200000
vertex 1.600000 0.180000 -1.200000
endloop
endfacet
facet normal -0.098017 0.000000 -0.995185
outer loop
vertex 1.600000 0.180000 -1.200000
vertex 1.678036 0.180000 -1.207686
vertex 1.678036 0.000000 -1.207686
endloop
endfacet
facet normal 0.995185 0.000000 0.098017
outer loop
vertex 1.200000 0.000000 -1.600000
vertex 1.207686 0.000000 -1.678037
vertex 1.207686 0.180000 -1.678037
endloop
endfacet
facet normal 0.995185 0.000000 0.098017
outer loop
vertex 1.207686 0.180000 -1.678037
vertex 1.200000 0.180000 -1.600000
vertex 1.200000 0.000000 -1.600000
endloop
endfacet
facet normal -0.471399 0.000000 0.881920
outer loop
vertex 1.753073 0.000000 -1.969552
vertex 1.822228 0.000000 -1.932588
vertex 1.822228 0.180000 -1.932588
endloop
endfacet
facet normal -0.471396 0.000000 0.881922
outer loop
vertex 1.822228 0.180000 -1.932588
vertex 1.753073 0.180000 -1.969552
vertex 1.753073 0.000000 -1.969552
endloop
endfacet
facet normal -0.471398 0.000000 -0.881920
outer loop
vertex 1.822228 0.000000 -1.267412
vertex 1.753073 0.000000 -1.230448
vertex 1.753073 0.180000 -1.230448
endloop
endfacet
facet normal -0.471397 0.000000 -0.881921
outer loop
vertex 1.753073 0.180000 -1.230448
vertex 1.822228 0.180000 -1.267412
vertex 1.822228 0.000000 -1.267412
endloop
endfacet
facet normal 0.000000 1.000000 0.000000
outer loop
vertex 2.000000 0.000000 -1.600000
vertex 1.860000 0.000000 -1.600000
vertex 1.855004 0.000000 -1.549277
endloop
endfacet
facet normal 0.000000 1.000000 0.000000
outer loop
vertex 1.855004 0.000000 -1.549277
vertex 1.992314 0.000000 -1.521964
vertex 2.000000 0.000000 -1.600000
endloop
endfacet
endsolid Exported from Blender-2.74 (sub 0)
