solid Exported from Blender-2.74 (sub 0)
facet normal 0.098016 0.000000 -0.995185
outer loop
vertex 2.400000 0.000000 -1.200000
vertex 2.400000 0.300000 -1.200000
vertex 2.478036 0.300000 -1.192314
endloop
endfacet
facet normal 0.098016 0.000000 -0.995185
outer loop
vertex 2.478036 0.300000 -1.192314
vertex 2.478036 0.000000 -1.192314
vertex 2.400000 0.000000 -1.200000
endloop
endfacet
facet normal 0.290286 0.000000 -0.956940
outer loop
vertex 2.478036 0.000000 -1.192314
vertex 2.478036 0.300000 -1.192314
vertex 2.553073 0.300000 -1.169552
endloop
endfacet
facet normal 0.290284 0.000000 -0.956941
outer loop
vertex 2.553073 0.300000 -1.169552
vertex 2.553073 0.000000 -1.169552
vertex 2.478036 0.000000 -1.192314
endloop
endfacet
facet normal 0.471397 0.000000 -0.881921
outer loop
vertex 2.553073 0.000000 -1.169552
vertex 2.553073 0.300000 -1.169552
vertex 2.622228 0.300000 -1.132588
endloop
endfacet
facet normal 0.471395 0.000000 -0.881922
outer loop
vertex 2.622228 0.300000 -1.132588
vertex 2.622228 0.000000 -1.132588
vertex 2.553073 0.000000 -1.169552
endloop
endfacet
facet normal 0.634394 0.000000 -0.773010
outer loop
vertex 2.622228 0.000000 -1.132588
vertex 2.622228 0.300000 -1.132588
vertex 2.682843 0.300000 -1.082843
endloop
endfacet
facet normal 0.634394 0.000000 -0.773010
outer loop
vertex 2.682843 0.300000 -1.082843
vertex 2.682843 0.000000 -1.082843
vertex 2.622228 0.000000 -1.132588
endloop
endfacet
facet normal 0.773009 0.000000 -0.634395
outer loop
vertex 2.682843 0.000000 -1.082843
vertex 2.682843 0.300000 -1.082843
vertex 2.732588 0.300000 -1.022228
endloop
endfacet
facet normal 0.773009 0.000000 -0.634395
outer loop
vertex 2.732588 0.300000 -1.022228
vertex 2.732588 0.000000 -1.022228
vertex 2.682843 0.000000 -1.082843
endloop
endfacet
facet normal 0.881922 0.000000 -0.471396
outer loop
vertex 2.732588 0.000000 -1.022228
vertex 2.732588 0.300000 -1.022228
vertex 2.769552 0.300000 -0.953073
endloop
endfacet
facet normal 0.881921 0.000000 -0.471397
outer loop
vertex 2.769552 0.300000 -0.953073
vertex 2.769552 0.000000 -0.953073
vertex 2.732588 0.000000 -1.022228
endloop
endfacet
facet normal 0.956940 0.000000 -0.290285
outer loop
vertex 2.769552 0.000000 -0.953073
vertex 2.769552 0.300000 -0.953073
vertex 2.792314 0.300000 -0.878036
endloop
endfacet
facet normal 0.956940 0.000000 -0.290285
outer loop
vertex 2.792314 0.300000 -0.878036
vertex 2.792314 0.000000 -0.878036
vertex 2.769552 0.000000 -0.953073
endloop
endfacet
facet normal 0.995185 0.000000 -0.098017
outer loop
vertex 2.792314 0.000000 -0.878036
vertex 2.792314 0.300000 -0.878036
vertex 2.800000 0.300000 -0.800000
endloop
endfacet
facet normal 0.995185 0.000000 -0.098017
outer loop
vertex 2.800000 0.300000 -0.800000
vertex 2.800000 0.000000 -0.800000
vertex 2.792314 0.000000 -0.878036
endloop
endfacet
facet normal 0.995185 0.000000 0.098017
outer loop
vertex 2.800000 0.000000 -0.800000
vertex 2.800000 0.300000 -0.800000
vertex 2.792314 0.300000 -0.721964
endloop
endfacet
facet normal 0.995185 0.000000 0.098017
outer loop
vertex 2.792314 0.300000 -0.721964
vertex 2.792314 0.000000 -0.721964
vertex 2.800000 0.000000 -0.800000
endloop
endfacet
facet normal 0.956940 0.000000 0.290285
outer loop
vertex 2.792314 0.000000 -0.721964
vertex 2.792314 0.300000 -0.721964
vertex 2.769552 0.300000 -0.646927
endloop
endfacet
facet normal 0.956940 0.000000 0.290285
outer loop
vertex 2.769552 0.300000 -0.646927
vertex 2.769552 0.000000 -0.646927
vertex 2.792314 0.000000 -0.721964
endloop
endfacet
facet normal 0.881922 0.000000 0.471396
outer loop
vertex 2.769552 0.000000 -0.646927
vertex 2.769552 0.300000 -0.646927
vertex 2.732588 0.300000 -0.577772
endloop
endfacet
facet normal 0.881922 0.000000 0.471396
outer loop
vertex 2.732588 0.300000 -0.577772
vertex 2.732588 0.000000 -0.577772
vertex 2.769552 0.000000 -0.646927
endloop
endfacet
facet normal 0.773009 0.000000 0.634395
outer loop
vertex 2.732588 0.000000 -0.577772
vertex 2.732588 0.300000 -0.577772
vertex 2.682843 0.300000 -0.517157
endloop
endfacet
facet normal 0.773009 0.000000 0.634395
outer loop
vertex 2.682843 0.300000 -0.517157
vertex 2.682843 0.000000 -0.517157
vertex 2.732588 0.000000 -0.577772
endloop
endfacet
facet normal 0.634394 0.000000 0.773010
outer loop
vertex 2.682843 0.000000 -0.517157
vertex 2.682843 0.300000 -0.517157
vertex 2.622228 0.300000 -0.467412
endloop
endfacet
facet normal 0.634394 0.000000 0.773010
outer loop
vertex 2.622228 0.300000 -0.467412
vertex 2.622228 0.000000 -0.467412
vertex 2.682843 0.000000 -0.517157
endloop
endfacet
facet normal 0.471397 0.000000 0.881921
outer loop
vertex 2.622228 0.000000 -0.467412
vertex 2.622228 0.300000 -0.467412
vertex 2.553073 0.300000 -0.430448
endloop
endfacet
facet normal 0.471397 0.000000 0.881921
outer loop
vertex 2.553073 0.300000 -0.430448
vertex 2.553073 0.000000 -0.430448
vertex 2.622228 0.000000 -0.467412
endloop
endfacet
facet normal 0.290284 0.000000 0.956941
outer loop
vertex 2.553073 0.000000 -0.430448
vertex 2.553073 0.300000 -0.430448
vertex 2.478036 0.300000 -0.407686
endloop
endfacet
facet normal 0.290285 0.000000 0.956940
outer loop
vertex 2.478036 0.300000 -0.407686
vertex 2.478036 0.000000 -0.407686
vertex 2.553073 0.000000 -0.430448
endloop
endfacet
facet normal 0.098017 0.000000 0.995185
outer loop
vertex 2.478036 0.000000 -0.407686
vertex 2.478036 0.300000 -0.407686
vertex 2.400000 0.300000 -0.400000
endloop
endfacet
facet normal 0.098017 0.000000 0.995185
outer loop
vertex 2.400000 0.300000 -0.400000
vertex 2.400000 0.000000 -0.400000
vertex 2.478036 0.000000 -0.407686
endloop
endfacet
facet normal -0.098018 0.000000 0.995185
outer loop
vertex 2.400000 0.000000 -0.400000
vertex 2.400000 0.300000 -0.400000
vertex 2.321964 0.300000 -0.407686
endloop
endfacet
facet normal -0.098018 0.000000 0.995185
outer loop
vertex 2.321964 0.300000 -0.407686
vertex 2.321964 0.000000 -0.407686
vertex 2.400000 0.000000 -0.400000
endloop
endfacet
facet normal -0.290284 0.000000 0.956940
outer loop
vertex 2.321964 0.000000 -0.407686
vertex 2.321964 0.300000 -0.407686
vertex 2.246927 0.300000 -0.430448
endloop
endfacet
facet normal -0.290286 0.000000 0.956940
outer loop
vertex 2.246927 0.300000 -0.430448
vertex 2.246927 0.000000 -0.430448
vertex 2.321964 0.000000 -0.407686
endloop
endfacet
facet normal -0.471396 0.000000 0.881922
outer loop
vertex 2.246927 0.000000 -0.430448
vertex 2.246927 0.300000 -0.430448
vertex 2.177772 0.300000 -0.467412
endloop
endfacet
facet normal -0.471398 0.000000 0.881921
outer loop
vertex 2.177772 0.300000 -0.467412
vertex 2.177772 0.000000 -0.467412
vertex 2.246927 0.000000 -0.430448
endloop
endfacet
facet normal -0.634394 0.000000 0.773010
outer loop
vertex 2.177772 0.000000 -0.467412
vertex 2.177772 0.300000 -0.467412
vertex 2.117157 0.300000 -0.517157
endloop
endfacet
facet normal -0.634394 0.000000 0.773010
outer loop
vertex 2.117157 0.300000 -0.517157
vertex 2.117157 0.000000 -0.517157
vertex 2.177772 0.000000 -0.467412
endloop
endfacet
facet normal -0.773011 0.000000 0.634393
outer loop
vertex 2.117157 0.000000 -0.517157
vertex 2.117157 0.300000 -0.517157
vertex 2.067412 0.300000 -0.577772
endloop
endfacet
facet normal -0.773011 0.000000 0.634392
outer loop
vertex 2.067412 0.300000 -0.577772
vertex 2.067412 0.000000 -0.577772
vertex 2.117157 0.000000 -0.517157
endloop
endfacet
facet normal -0.881921 0.000000 0.471397
outer loop
vertex 2.067412 0.000000 -0.577772
vertex 2.067412 0.300000 -0.577772
vertex 2.030448 0.300000 -0.646927
endloop
endfacet
facet normal -0.881922 0.000000 0.471396
outer loop
vertex 2.030448 0.300000 -0.646927
vertex 2.030448 0.000000 -0.646927
vertex 2.067412 0.000000 -0.577772
endloop
endfacet
facet normal -0.956941 0.000000 0.290284
outer loop
vertex 2.030448 0.000000 -0.646927
vertex 2.030448 0.300000 -0.646927
vertex 2.007686 0.300000 -0.721964
endloop
endfacet
facet normal -0.956940 0.000000 0.290285
outer loop
vertex 2.007686 0.300000 -0.721964
vertex 2.007686 0.000000 -0.721964
vertex 2.030448 0.000000 -0.646927
endloop
endfacet
facet normal -0.995185 0.000000 0.098017
outer loop
vertex 2.007686 0.000000 -0.721964
vertex 2.007686 0.300000 -0.721964
vertex 2.000000 0.300000 -0.800000
endloop
endfacet
facet normal -0.995185 0.000000 0.098017
outer loop
vertex 2.000000 0.300000 -0.800000
vertex 2.000000 0.000000 -0.800000
vertex 2.007686 0.000000 -0.721964
endloop
endfacet
facet normal -0.995184 0.000000 -0.098020
outer loop
vertex 2.000000 0.000000 -0.800000
vertex 2.000000 0.300000 -0.800000
vertex 2.007686 0.300000 -0.878037
endloop
endfacet
facet normal -0.995184 0.000000 -0.098020
outer loop
vertex 2.007686 0.300000 -0.878037
vertex 2.007686 0.000000 -0.878037
vertex 2.000000 0.000000 -0.800000
endloop
endfacet
facet normal -0.956940 0.000000 -0.290285
outer loop
vertex 2.007686 0.000000 -0.878037
vertex 2.007686 0.300000 -0.878037
vertex 2.030448 0.300000 -0.953074
endloop
endfacet
facet normal -0.956940 0.000000 -0.290285
outer loop
vertex 2.030448 0.300000 -0.953074
vertex 2.030448 0.000000 -0.953074
vertex 2.007686 0.000000 -0.878037
endloop
endfacet
facet normal -0.881920 0.000000 -0.471399
outer loop
vertex 2.030448 0.000000 -0.953074
vertex 2.030448 0.300000 -0.953074
vertex 2.067413 0.300000 -1.022228
endloop
endfacet
facet normal -0.881920 0.000000 -0.471399
outer loop
vertex 2.067413 0.300000 -1.022228
vertex 2.067413 0.000000 -1.022228
vertex 2.030448 0.000000 -0.953074
endloop
endfacet
facet normal -0.773010 0.000000 -0.634393
outer loop
vertex 2.067413 0.000000 -1.022228
vertex 2.067413 0.300000 -1.022228
vertex 2.117158 0.300000 -1.082843
endloop
endfacet
facet normal -0.773011 0.000000 -0.634392
outer loop
vertex 2.117158 0.300000 -1.082843
vertex 2.117158 0.000000 -1.082843
vertex 2.067413 0.000000 -1.022228
endloop
endfacet
facet normal -0.634391 0.000000 -0.773012
outer loop
vertex 2.117158 0.000000 -1.082843
vertex 2.117158 0.300000 -1.082843
vertex 2.177773 0.300000 -1.132588
endloop
endfacet
facet normal -0.634391 0.000000 -0.773012
outer loop
vertex 2.177773 0.300000 -1.132588
vertex 2.177773 0.000000 -1.132588
vertex 2.117158 0.000000 -1.082843
endloop
endfacet
facet normal -0.471397 0.000000 -0.881921
outer loop
vertex 2.177773 0.000000 -1.132588
vertex 2.177773 0.300000 -1.132588
vertex 2.246927 0.300000 -1.169552
endloop
endfacet
facet normal -0.471395 0.000000 -0.881922
outer loop
vertex 2.246927 0.300000 -1.169552
vertex 2.246927 0.000000 -1.169552
vertex 2.177773 0.000000 -1.132588
endloop
endfacet
facet normal 0.000000 1.000000 0.000003
outer loop
vertex 2.478036 0.300000 -1.192314
vertex 2.622228 0.300000 -1.132588
vertex 2.553073 0.300000 -1.169552
endloop
endfacet
facet normal 0.000000 1.000000 0.000000
outer loop
vertex 2.732588 0.300000 -1.022228
vertex 2.682843 0.300000 -1.082843
vertex 2.622228 0.300000 -1.132588
endloop
endfacet
facet normal 0.000000 1.000000 0.000002
outer loop
vertex 2.792314 0.300000 -0.878036
vertex 2.769552 0.300000 -0.953073
vertex 2.732588 0.300000 -1.022228
endloop
endfacet
facet normal 0.000000 1.000000 0.000000
outer loop
vertex 2.792314 0.300000 -0.721964
vertex 2.800000 0.300000 -0.800000
vertex 2.792314 0.300000 -0.878036
endloop
endfacet
facet normal 0.000000 1.000000 -0.000002
outer loop
vertex 2.732588 0.300000 -0.577772
vertex 2.769552 0.300000 -0.646927
vertex 2.792314 0.300000 -0.721964
endloop
endfacet
facet normal 0.000000 1.000000 0.000000
outer loop
vertex 2.622228 0.300000 -0.467412
vertex 2.682843 0.300000 -0.517157
vertex 2.732588 0.300000 -0.577772
endloop
endfacet
facet normal 0.000000 1.000000 -0.000003
outer loop
vertex 2.478036 0.300000 -0.407686
vertex 2.553073 0.300000 -0.430448
vertex 2.622228 0.300000 -0.467412
endloop
endfacet
facet normal 0.000000 1.000000 -0.000003
outer loop
vertex 2.321964 0.300000 -0.407686
vertex 2.400000 0.300000 -0.400000
vertex 2.478036 0.300000 -0.407686
endloop
endfacet
facet normal 0.000000 1.000000 -0.000003
outer loop
vertex 2.177772 0.300000 -0.467412
vertex 2.246927 0.300000 -0.430448
vertex 2.321964 0.300000 -0.407686
endloop
endfacet
facet normal 0.000000 1.000000 0.000003
outer loop
vertex 2.067412 0.300000 -0.577772
vertex 2.117157 0.300000 -0.517157
vertex 2.177772 0.300000 -0.467412
endloop
endfacet
facet normal 0.000000 1.000000 -0.000002
outer loop
vertex 2.007686 0.300000 -0.721964
vertex 2.030448 0.300000 -0.646927
vertex 2.067412 0.300000 -0.577772
endloop
endfacet
facet normal 0.000000 1.000000 0.000000
outer loop
vertex 2.007686 0.300000 -0.878037
vertex 2.000000 0.300000 -0.800000
vertex 2.007686 0.300000 -0.721964
endloop
endfacet
facet normal 0.000000 1.000000 0.000000
outer loop
vertex 2.067413 0.300000 -1.022228
vertex 2.030448 0.300000 -0.953074
vertex 2.007686 0.300000 -0.878037
endloop
endfacet
facet normal 0.000000 1.000000 -0.000002
outer loop
vertex 2.177773 0.300000 -1.132588
vertex 2.117158 0.300000 -1.082843
vertex 2.067413 0.300000 -1.022228
endloop
endfacet
facet normal 0.000000 1.000000 0.000003
outer loop
vertex 2.321965 0.300000 -1.192314
vertex 2.246927 0.300000 -1.169552
vertex 2.177773 0.300000 -1.132588
endloop
endfacet
facet normal 0.000000 1.000000 -0.000003
outer loop
vertex 2.478036 0.300000 -1.192314
vertex 2.400000 0.300000 -1.200000
vertex 2.321965 0.300000 -1.192314
endloop
endfacet
facet normal 0.000000 1.000000 0.000000
outer loop
vertex 2.478036 0.300000 -1.192314
vertex 2.732588 0.300000 -1.022228
vertex 2.622228 0.300000 -1.132588
endloop
endfacet
facet normal 0.000000 1.000000 0.000000
outer loop
vertex 2.792314 0.300000 -0.721964
vertex 2.792314 0.300000 -0.878036
vertex 2.732588 0.300000 -1.022228
endloop
endfacet
facet normal 0.000000 1.000000 0.000000
outer loop
vertex 2.622228 0.300000 -0.467412
vertex 2.732588 0.300000 -0.577772
vertex 2.792314 0.300000 -0.721964
endloop
endfacet
facet normal 0.000000 1.000000 0.000000
outer loop
vertex 2.321964 0.300000 -0.407686
vertex 2.478036 0.300000 -0.407686
vertex 2.622228 0.300000 -0.467412
endloop
endfacet
facet normal 0.000000 1.000000 0.000001
outer loop
vertex 2.067412 0.300000 -0.577772
vertex 2.177772 0.300000 -0.467412
vertex 2.321964 0.300000 -0.407686
endloop
endfacet
facet normal 0.000000 1.000000 0.000000
outer loop
vertex 2.007686 0.300000 -0.878037
vertex 2.007686 0.300000 -0.721964
vertex 2.067412 0.300000 -0.577772
endloop
endfacet
facet normal 0.000000 1.000000 0.000000
outer loop
vertex 2.177773 0.300000 -1.132588
vertex 2.067413 0.300000 -1.022228
vertex 2.007686 0.300000 -0.878037
endloop
endfacet
facet normal 0.000000 1.000000 -0.000001
outer loop
vertex 2.478036 0.300000 -1.192314
vertex 2.321965 0.300000 -1.192314
vertex 2.177773 0.300000 -1.132588
endloop
endfacet
facet normal 0.000000 1.000000 0.000000
outer loop
vertex 2.478036 0.300000 -1.192314
vertex 2.792314 0.300000 -0.721964
vertex 2.732588 0.300000 -1.022228
endloop
endfacet
facet normal 0.000000 1.000000 0.000000
outer loop
vertex 2.321964 0.300000 -0.407686
vertex 2.622228 0.300000 -0.467412
vertex 2.792314 0.300000 -0.721964
endloop
endfacet
facet normal 0.000000 1.000000 0.000000
outer loop
vertex 2.007686 0.300000 -0.878037
vertex 2.067412 0.300000 -0.577772
vertex 2.321964 0.300000 -0.407686
endloop
endfacet
facet normal 0.000000 1.000000 0.000000
outer loop
vertex 2.478036 0.300000 -1.192314
vertex 2.177773 0.300000 -1.132588
vertex 2.007686 0.300000 -0.878037
endloop
endfacet
facet normal 0.000000 1.000000 -0.000000
outer loop
vertex 2.478036 0.300000 -1.192314
vertex 2.321964 0.300000 -0.407686
vertex 2.792314 0.300000 -0.721964
endloop
endfacet
facet normal 0.000000 1.000000 0.000000
outer loop
vertex 2.478036 0.300000 -1.192314
vertex 2.007686 0.300000 -0.878037
vertex 2.321964 0.300000 -0.407686
endloop
endfacet
facet normal -0.098014 0.000000 -0.995185
outer loop
vertex 2.400000 0.300000 -1.200000
vertex 2.400000 0.000000 -1.200000
vertex 2.321965 0.000000 -1.192314
endloop
endfacet
facet normal -0.098017 0.000000 -0.995185
outer loop
vertex 2.321965 0.000000 -1.192314
vertex 2.321965 0.300000 -1.192314
vertex 2.400000 0.300000 -1.200000
endloop
endfacet
facet normal -0.290286 0.000000 -0.956940
outer loop
vertex 2.246927 0.000000 -1.169552
vertex 2.246927 0.300000 -1.169552
vertex 2.321965 0.300000 -1.192314
endloop
endfacet
facet normal -0.290281 0.000000 -0.956941
outer loop
vertex 2.321965 0.300000 -1.192314
vertex 2.321965 0.000000 -1.192314
vertex 2.246927 0.000000 -1.169552
endloop
endfacet
facet normal 0.000000 0.000000 0.000000
outer loop
vertex 2.246927 0.000000 -1.169552
vertex 2.321965 0.000000 -1.192314
vertex 2.321965 0.000000 -1.192314
endloop
endfacet
facet normal 0.000000 0.000000 0.000000
outer loop
vertex 2.321965 0.000000 -1.192314
vertex 2.246927 0.000000 -1.169552
vertex 2.246927 0.000000 -1.169552
endloop
endfacet
facet normal 0.000000 0.000000 0.000000
outer loop
vertex 2.117158 0.000000 -1.082843
vertex 2.177773 0.000000 -1.132588
vertex 2.177773 0.000000 -1.132588
endloop
endfacet
facet normal 0.000000 0.000000 0.000000
outer loop
vertex 2.177773 0.000000 -1.132588
vertex 2.117158 0.000000 -1.082843
vertex 2.117158 0.000000 -1.082843
endloop
endfacet
facet normal 0.000000 0.000000 0.000000
outer loop
vertex 2.177772 0.000000 -0.467412
vertex 2.117157 0.000000 -0.517157
vertex 2.117157 0.000000 -0.517157
endloop
endfacet
facet normal 0.000000 0.000000 0.000000
outer loop
vertex 2.117157 0.000000 -0.517157
vertex 2.177772 0.000000 -0.467412
vertex 2.177772 0.000000 -0.467412
endloop
endfacet
facet normal 0.000000 0.000000 0.000000
outer loop
vertex 2.800000 0.000000 -0.800000
vertex 2.792314 0.000000 -0.721964
vertex 2.792314 0.000000 -0.721964
endloop
endfacet
facet normal 0.000000 0.000000 0.000000
outer loop
vertex 2.792314 0.000000 -0.721964
vertex 2.800000 0.000000 -0.800000
vertex 2.800000 0.000000 -0.800000
endloop
endfacet
facet normal 0.000000 0.000000 0.000000
outer loop
vertex 2.030448 0.000000 -0.646927
vertex 2.007686 0.000000 -0.721964
vertex 2.007686 0.000000 -0.721964
endloop
endfacet
facet normal 0.000000 0.000000 0.000000
outer loop
vertex 2.007686 0.000000 -0.721964
vertex 2.030448 0.000000 -0.646927
vertex 2.030448 0.000000 -0.646927
endloop
endfacet
facet normal 0.000000 0.000000 0.000000
outer loop
vertex 2.732588 0.000000 -0.577772
vertex 2.682843 0.000000 -0.517157
vertex 2.682843 0.000000 -0.517157
endloop
endfacet
facet normal 0.000000 0.000000 0.000000
outer loop
vertex 2.682843 0.000000 -0.517157
vertex 2.732588 0.000000 -0.577772
vertex 2.732588 0.000000 -0.577772
endloop
endfacet
facet normal 0.000000 0.000000 0.000000
outer loop
vertex 2.007686 0.000000 -0.878037
vertex 2.030448 0.000000 -0.953074
vertex 2.030448 0.000000 -0.953074
endloop
endfacet
facet normal 0.000000 0.000000 0.000000
outer loop
vertex 2.030448 0.000000 -0.953074
vertex 2.007686 0.000000 -0.878037
vertex 2.007686 0.000000 -0.878037
endloop
endfacet
facet normal 0.000000 0.000000 0.000000
outer loop
vertex 2.622228 0.000000 -1.132588
vertex 2.682843 0.000000 -1.082843
vertex 2.682843 0.000000 -1.082843
endloop
endfacet
facet normal 0.000000 0.000000 0.000000
outer loop
vertex 2.682843 0.000000 -1.082843
vertex 2.622228 0.000000 -1.132588
vertex 2.622228 0.000000 -1.132588
endloop
endfacet
facet normal 0.000000 0.000000 0.000000
outer loop
vertex 2.553073 0.000000 -0.430448
vertex 2.478036 0.000000 -0.407686
vertex 2.478036 0.000000 -0.407686
endloop
endfacet
facet normal 0.000000 0.000000 0.000000
outer loop
vertex 2.478036 0.000000 -0.407686
vertex 2.553073 0.000000 -0.430448
vertex 2.553073 0.000000 -0.430448
endloop
endfacet
facet normal 0.000000 0.000000 0.000000
outer loop
vertex 2.117158 0.000000 -1.082843
vertex 2.177773 0.000000 -1.132588
vertex 2.177773 0.000000 -1.132588
endloop
endfacet
facet normal 0.000000 0.000000 0.000000
outer loop
vertex 2.177773 0.000000 -1.132588
vertex 2.117158 0.000000 -1.082843
vertex 2.117158 0.000000 -1.082843
endloop
endfacet
facet normal 0.000000 0.000000 0.000000
outer loop
vertex 2.321964 0.000000 -0.407686
vertex 2.246927 0.000000 -0.430448
vertex 2.246927 0.000000 -0.430448
endloop
endfacet
facet normal 0.000000 0.000000 0.000000
outer loop
vertex 2.246927 0.000000 -0.430448
vertex 2.321964 0.000000 -0.407686
vertex 2.321964 0.000000 -0.407686
endloop
endfacet
facet normal 0.000000 0.000000 0.000000
outer loop
vertex 2.769552 0.000000 -0.953073
vertex 2.792314 0.000000 -0.878036
vertex 2.792314 0.000000 -0.878036
endloop
endfacet
facet normal 0.000000 0.000000 0.000000
outer loop
vertex 2.792314 0.000000 -0.878036
vertex 2.769552 0.000000 -0.953073
vertex 2.769552 0.000000 -0.953073
endloop
endfacet
facet normal 0.000000 0.000000 0.000000
outer loop
vertex 2.321965 0.000000 -1.192314
vertex 2.400000 0.000000 -1.200000
vertex 2.400000 0.000000 -1.200000
endloop
endfacet
facet normal 0.000000 0.000000 0.000000
outer loop
vertex 2.400000 0.000000 -1.200000
vertex 2.321965 0.000000 -1.192314
vertex 2.321965 0.000000 -1.192314
endloop
endfacet
facet normal 0.000000 0.000000 0.000000
outer loop
vertex 2.117157 0.000000 -0.517157
vertex 2.067412 0.000000 -0.577772
vertex 2.067412 0.000000 -0.577772
endloop
endfacet
facet normal 0.000000 0.000000 0.000000
outer loop
vertex 2.067412 0.000000 -0.577772
vertex 2.117157 0.000000 -0.517157
vertex 2.117157 0.000000 -0.517157
endloop
endfacet
facet normal 0.000000 0.000000 0.000000
outer loop
vertex 2.792314 0.000000 -0.721964
vertex 2.769552 0.000000 -0.646927
vertex 2.769552 0.000000 -0.646927
endloop
endfacet
facet normal 0.000000 0.000000 0.000000
outer loop
vertex 2.769552 0.000000 -0.646927
vertex 2.792314 0.000000 -0.721964
vertex 2.792314 0.000000 -0.721964
endloop
endfacet
facet normal 0.000000 0.000000 0.000000
outer loop
vertex 2.007686 0.000000 -0.721964
vertex 2.000000 0.000000 -0.800000
vertex 2.000000 0.000000 -0.800000
endloop
endfacet
facet normal 0.000000 0.000000 0.000000
outer loop
vertex 2.000000 0.000000 -0.800000
vertex 2.007686 0.000000 -0.721964
vertex 2.007686 0.000000 -0.721964
endloop
endfacet
facet normal 0.000000 0.000000 0.000000
outer loop
vertex 2.478036 0.000000 -1.192314
vertex 2.553073 0.000000 -1.169552
vertex 2.553073 0.000000 -1.169552
endloop
endfacet
facet normal 0.000000 0.000000 0.000000
outer loop
vertex 2.553073 0.000000 -1.169552
vertex 2.478036 0.000000 -1.192314
vertex 2.478036 0.000000 -1.192314
endloop
endfacet
facet normal 0.000000 0.000000 0.000000
outer loop
vertex 2.682843 0.000000 -0.517157
vertex 2.622228 0.000000 -0.467412
vertex 2.622228 0.000000 -0.467412
endloop
endfacet
facet normal 0.000000 0.000000 0.000000
outer loop
vertex 2.622228 0.000000 -0.467412
vertex 2.682843 0.000000 -0.517157
vertex 2.682843 0.000000 -0.517157
endloop
endfacet
facet normal 0.000000 0.000000 0.000000
outer loop
vertex 2.030448 0.000000 -0.953074
vertex 2.067413 0.000000 -1.022228
vertex 2.067413 0.000000 -1.022228
endloop
endfacet
facet normal 0.000000 0.000000 0.000000
outer loop
vertex 2.067413 0.000000 -1.022228
vertex 2.030448 0.000000 -0.953074
vertex 2.030448 0.000000 -0.953074
endloop
endfacet
facet normal 0.000000 0.000000 0.000000
outer loop
vertex 2.682843 0.000000 -1.082843
vertex 2.732588 0.000000 -1.022228
vertex 2.732588 0.000000 -1.022228
endloop
endfacet
facet normal 0.000000 0.000000 0.000000
outer loop
vertex 2.732588 0.000000 -1.022228
vertex 2.682843 0.000000 -1.082843
vertex 2.682843 0.000000 -1.082843
endloop
endfacet
facet normal 0.000000 0.000000 0.000000
outer loop
vertex 2.478036 0.000000 -0.407686
vertex 2.400000 0.000000 -0.400000
vertex 2.400000 0.000000 -0.400000
endloop
endfacet
facet normal 0.000000 0.000000 0.000000
outer loop
vertex 2.400000 0.000000 -0.400000
vertex 2.478036 0.000000 -0.407686
vertex 2.478036 0.000000 -0.407686
endloop
endfacet
facet normal 0.000000 0.000000 0.000000
outer loop
vertex 2.177773 0.000000 -1.132588
vertex 2.246927 0.000000 -1.169552
vertex 2.246927 0.000000 -1.169552
endloop
endfacet
facet normal 0.000000 0.000000 0.000000
outer loop
vertex 2.246927 0.000000 -1.169552
vertex 2.177773 0.000000 -1.132588
vertex 2.177773 0.000000 -1.132588
endloop
endfacet
facet normal 0.000000 0.000000 0.000000
outer loop
vertex 2.246927 0.000000 -0.430448
vertex 2.177772 0.000000 -0.467412
vertex 2.177772 0.000000 -0.467412
endloop
endfacet
facet normal 0.000000 0.000000 0.000000
outer loop
vertex 2.177772 0.000000 -0.467412
vertex 2.246927 0.000000 -0.430448
vertex 2.246927 0.000000 -0.430448
endloop
endfacet
facet normal 0.000000 0.000000 0.000000
outer loop
vertex 2.400000 0.000000 -1.200000
vertex 2.478036 0.000000 -1.192314
vertex 2.478036 0.000000 -1.192314
endloop
endfacet
facet normal 0.000000 0.000000 0.000000
outer loop
vertex 2.478036 0.000000 -1.192314
vertex 2.400000 0.000000 -1.200000
vertex 2.400000 0.000000 -1.200000
endloop
endfacet
facet normal 0.000000 0.000000 0.000000
outer loop
vertex 2.792314 0.000000 -0.878036
vertex 2.800000 0.000000 -0.800000
vertex 2.800000 0.000000 -0.800000
endloop
endfacet
facet normal 0.000000 0.000000 0.000000
outer loop
vertex 2.800000 0.000000 -0.800000
vertex 2.792314 0.000000 -0.878036
vertex 2.792314 0.000000 -0.878036
endloop
endfacet
facet normal 0.000000 0.000000 0.000000
outer loop
vertex 2.067412 0.000000 -0.577772
vertex 2.030448 0.000000 -0.646927
vertex 2.030448 0.000000 -0.646927
endloop
endfacet
facet normal 0.000000 0.000000 0.000000
outer loop
vertex 2.030448 0.000000 -0.646927
vertex 2.067412 0.000000 -0.577772
vertex 2.067412 0.000000 -0.577772
endloop
endfacet
facet normal 0.000000 0.000000 0.000000
outer loop
vertex 2.769552 0.000000 -0.646927
vertex 2.732588 0.000000 -0.577772
vertex 2.732588 0.000000 -0.577772
endloop
endfacet
facet normal 0.000000 0.000000 0.000000
outer loop
vertex 2.732588 0.000000 -0.577772
vertex 2.769552 0.000000 -0.646927
vertex 2.769552 0.000000 -0.646927
endloop
endfacet
facet normal 0.000000 0.000000 0.000000
outer loop
vertex 2.000000 0.000000 -0.800000
vertex 2.007686 0.000000 -0.878037
vertex 2.007686 0.000000 -0.878037
endloop
endfacet
facet normal 0.000000 0.000000 0.000000
outer loop
vertex 2.007686 0.000000 -0.878037
vertex 2.000000 0.000000 -0.800000
vertex 2.000000 0.000000 -0.800000
endloop
endfacet
facet normal 0.000000 0.000000 0.000000
outer loop
vertex 2.553073 0.000000 -1.169552
vertex 2.622228 0.000000 -1.132588
vertex 2.622228 0.000000 -1.132588
endloop
endfacet
facet normal 0.000000 0.000000 0.000000
outer loop
vertex 2.622228 0.000000 -1.132588
vertex 2.553073 0.000000 -1.169552
vertex 2.553073 0.000000 -1.169552
endloop
endfacet
facet normal 0.000000 0.000000 0.000000
outer loop
vertex 2.622228 0.000000 -0.467412
vertex 2.553073 0.000000 -0.430448
vertex 2.553073 0.000000 -0.430448
endloop
endfacet
facet normal 0.000000 0.000000 0.000000
outer loop
vertex 2.553073 0.000000 -0.430448
vertex 2.622228 0.000000 -0.467412
vertex 2.622228 0.000000 -0.467412
endloop
endfacet
facet normal 0.000000 0.000000 0.000000
outer loop
vertex 2.067413 0.000000 -1.022228
vertex 2.117158 0.000000 -1.082843
vertex 2.117158 0.000000 -1.082843
endloop
endfacet
facet normal 0.000000 0.000000 0.000000
outer loop
vertex 2.117158 0.000000 -1.082843
vertex 2.067413 0.000000 -1.022228
vertex 2.067413 0.000000 -1.022228
endloop
endfacet
facet normal 0.000000 0.000000 0.000000
outer loop
vertex 2.400000 0.000000 -0.400000
vertex 2.321964 0.000000 -0.407686
vertex 2.321964 0.000000 -0.407686
endloop
endfacet
facet normal 0.000000 0.000000 0.000000
outer loop
vertex 2.321964 0.000000 -0.407686
vertex 2.400000 0.000000 -0.400000
vertex 2.400000 0.000000 -0.400000
endloop
endfacet
facet normal 0.000000 0.000000 0.000000
outer loop
vertex 2.732588 0.000000 -1.022228
vertex 2.769552 0.000000 -0.953073
vertex 2.769552 0.000000 -0.953073
endloop
endfacet
facet normal 0.000000 0.000000 0.000000
outer loop
vertex 2.769552 0.000000 -0.953073
vertex 2.732588 0.000000 -1.022228
vertex 2.732588 0.000000 -1.022228
endloop
endfacet
facet normal 0.000000 0.000000 0.000000
outer loop
vertex 2.246927 0.000000 -1.169552
vertex 2.321965 0.000000 -1.192314
vertex 2.321965 0.000000 -1.192314
endloop
endfacet
facet normal 0.000000 0.000000 0.000000
outer loop
vertex 2.321965 0.000000 -1.192314
vertex 2.246927 0.000000 -1.169552
vertex 2.246927 0.000000 -1.169552
endloop
endfacet
facet normal 0.000000 0.000000 0.000000
outer loop
vertex 2.321964 0.000000 -0.407686
vertex 2.246927 0.000000 -0.430448
vertex 2.246927 0.000000 -0.430448
endloop
endfacet
facet normal 0.000000 0.000000 0.000000
outer loop
vertex 2.246927 0.000000 -0.430448
vertex 2.321964 0.000000 -0.407686
vertex 2.321964 0.000000 -0.407686
endloop
endfacet
facet normal 0.000000 0.000000 0.000000
outer loop
vertex 2.769552 0.000000 -0.953073
vertex 2.792314 0.000000 -0.878036
vertex 2.792314 0.000000 -0.878036
endloop
endfacet
facet normal 0.000000 0.000000 0.000000
outer loop
vertex 2.792314 0.000000 -0.878036
vertex 2.769552 0.000000 -0.953073
vertex 2.769552 0.000000 -0.953073
endloop
endfacet
facet normal 0.000000 0.000000 0.000000
outer loop
vertex 2.030448 0.000000 -0.953074
vertex 2.067413 0.000000 -1.022228
vertex 2.067413 0.000000 -1.022228
endloop
endfacet
facet normal 0.000000 0.000000 0.000000
outer loop
vertex 2.067413 0.000000 -1.022228
vertex 2.030448 0.000000 -0.953074
vertex 2.030448 0.000000 -0.953074
endloop
endfacet
facet normal 0.000000 0.000000 0.000000
outer loop
vertex 2.682843 0.000000 -1.082843
vertex 2.732588 0.000000 -1.022228
vertex 2.732588 0.000000 -1.022228
endloop
endfacet
facet normal 0.000000 0.000000 0.000000
outer loop
vertex 2.732588 0.000000 -1.022228
vertex 2.682843 0.000000 -1.082843
vertex 2.682843 0.000000 -1.082843
endloop
endfacet
facet normal 0.000000 0.000000 0.000000
outer loop
vertex 2.478036 0.000000 -0.407686
vertex 2.400000 0.000000 -0.400000
vertex 2.400000 0.000000 -0.400000
endloop
endfacet
facet normal 0.000000 0.000000 0.000000
outer loop
vertex 2.400000 0.000000 -0.400000
vertex 2.478036 0.000000 -0.407686
vertex 2.478036 0.000000 -0.407686
endloop
endfacet
facet normal 0.000000 0.000000 0.000000
outer loop
vertex 2.000000 0.000000 -0.800000
vertex 2.007686 0.000000 -0.878037
vertex 2.007686 0.000000 -0.878037
endloop
endfacet
facet normal 0.000000 0.000000 0.000000
outer loop
vertex 2.007686 0.000000 -0.878037
vertex 2.000000 0.000000 -0.800000
vertex 2.000000 0.000000 -0.800000
endloop
endfacet
facet normal 0.000000 0.000000 0.000000
outer loop
vertex 2.553073 0.000000 -1.169552
vertex 2.622228 0.000000 -1.132588
vertex 2.622228 0.000000 -1.132588
endloop
endfacet
facet normal 0.000000 0.000000 0.000000
outer loop
vertex 2.622228 0.000000 -1.132588
vertex 2.553073 0.000000 -1.169552
vertex 2.553073 0.000000 -1.169552
endloop
endfacet
facet normal 0.000000 0.000000 0.000000
outer loop
vertex 2.622228 0.000000 -0.467412
vertex 2.553073 0.000000 -0.430448
vertex 2.553073 0.000000 -0.430448
endloop
endfacet
facet normal 0.000000 0.000000 0.000000
outer loop
vertex 2.553073 0.000000 -0.430448
vertex 2.622228 0.000000 -0.467412
vertex 2.622228 0.000000 -0.467412
endloop
endfacet
facet normal 0.000000 0.000000 0.000000
outer loop
vertex 2.030448 0.000000 -0.646927
vertex 2.007686 0.000000 -0.721964
vertex 2.007686 0.000000 -0.721964
endloop
endfacet
facet normal 0.000000 0.000000 0.000000
outer loop
vertex 2.007686 0.000000 -0.721964
vertex 2.030448 0.000000 -0.646927
vertex 2.030448 0.000000 -0.646927
endloop
endfacet
facet normal 0.000000 0.000000 0.000000
outer loop
vertex 2.400000 0.000000 -1.200000
vertex 2.478036 0.000000 -1.192314
vertex 2.478036 0.000000 -1.192314
endloop
endfacet
facet normal 0.000000 0.000000 0.000000
outer loop
vertex 2.478036 0.000000 -1.192314
vertex 2.400000 0.000000 -1.200000
vertex 2.400000 0.000000 -1.200000
endloop
endfacet
facet normal 0.000000 0.000000 0.000000
outer loop
vertex 2.732588 0.000000 -0.577772
vertex 2.682843 0.000000 -0.517157
vertex 2.682843 0.000000 -0.517157
endloop
endfacet
facet normal 0.000000 0.000000 0.000000
outer loop
vertex 2.682843 0.000000 -0.517157
vertex 2.732588 0.000000 -0.577772
vertex 2.732588 0.000000 -0.577772
endloop
endfacet
facet normal 0.000000 0.000000 0.000000
outer loop
vertex 2.321965 0.000000 -1.192314
vertex 2.400000 0.000000 -1.200000
vertex 2.400000 0.000000 -1.200000
endloop
endfacet
facet normal 0.000000 0.000000 0.000000
outer loop
vertex 2.400000 0.000000 -1.200000
vertex 2.321965 0.000000 -1.192314
vertex 2.321965 0.000000 -1.192314
endloop
endfacet
facet normal 0.000000 0.000000 0.000000
outer loop
vertex 2.117157 0.000000 -0.517157
vertex 2.067412 0.000000 -0.577772
vertex 2.067412 0.000000 -0.577772
endloop
endfacet
facet normal 0.000000 0.000000 0.000000
outer loop
vertex 2.067412 0.000000 -0.577772
vertex 2.117157 0.000000 -0.517157
vertex 2.117157 0.000000 -0.517157
endloop
endfacet
facet normal 0.000000 0.000000 0.000000
outer loop
vertex 2.792314 0.000000 -0.721964
vertex 2.769552 0.000000 -0.646927
vertex 2.769552 0.000000 -0.646927
endloop
endfacet
facet normal 0.000000 0.000000 0.000000
outer loop
vertex 2.769552 0.000000 -0.646927
vertex 2.792314 0.000000 -0.721964
vertex 2.792314 0.000000 -0.721964
endloop
endfacet
facet normal 0.000000 0.000000 0.000000
outer loop
vertex 2.177773 0.000000 -1.132588
vertex 2.246927 0.000000 -1.169552
vertex 2.246927 0.000000 -1.169552
endloop
endfacet
facet normal 0.000000 0.000000 0.000000
outer loop
vertex 2.246927 0.000000 -1.169552
vertex 2.177773 0.000000 -1.132588
vertex 2.177773 0.000000 -1.132588
endloop
endfacet
facet normal 0.000000 0.000000 0.000000
outer loop
vertex 2.246927 0.000000 -0.430448
vertex 2.177772 0.000000 -0.467412
vertex 2.177772 0.000000 -0.467412
endloop
endfacet
facet normal 0.000000 0.000000 0.000000
outer loop
vertex 2.177772 0.000000 -0.467412
vertex 2.246927 0.000000 -0.430448
vertex 2.246927 0.000000 -0.430448
endloop
endfacet
facet normal 0.000000 0.000000 0.000000
outer loop
vertex 2.792314 0.000000 -0.878036
vertex 2.800000 0.000000 -0.800000
vertex 2.800000 0.000000 -0.800000
endloop
endfacet
facet normal 0.000000 0.000000 0.000000
outer loop
vertex 2.800000 0.000000 -0.800000
vertex 2.792314 0.000000 -0.878036
vertex 2.792314 0.000000 -0.878036
endloop
endfacet
facet normal 0.000000 0.000000 0.000000
outer loop
vertex 2.067413 0.000000 -1.022228
vertex 2.117158 0.000000 -1.082843
vertex 2.117158 0.000000 -1.082843
endloop
endfacet
facet normal 0.000000 0.000000 0.000000
outer loop
vertex 2.117158 0.000000 -1.082843
vertex 2.067413 0.000000 -1.022228
vertex 2.067413 0.000000 -1.022228
endloop
endfacet
facet normal 0.000000 0.000000 0.000000
outer loop
vertex 2.400000 0.000000 -0.400000
vertex 2.321964 0.000000 -0.407686
vertex 2.321964 0.000000 -0.407686
endloop
endfacet
facet normal 0.000000 0.000000 0.000000
outer loop
vertex 2.321964 0.000000 -0.407686
vertex 2.400000 0.000000 -0.400000
vertex 2.400000 0.000000 -0.400000
endloop
endfacet
facet normal 0.000000 0.000000 0.000000
outer loop
vertex 2.732588 0.000000 -1.022228
vertex 2.769552 0.000000 -0.953073
vertex 2.769552 0.000000 -0.953073
endloop
endfacet
facet normal 0.000000 0.000000 0.000000
outer loop
vertex 2.769552 0.000000 -0.953073
vertex 2.732588 0.000000 -1.022228
vertex 2.732588 0.000000 -1.022228
endloop
endfacet
facet normal 0.000000 0.000000 0.000000
outer loop
vertex 2.007686 0.000000 -0.878037
vertex 2.030448 0.000000 -0.953074
vertex 2.030448 0.000000 -0.953074
endloop
endfacet
facet normal 0.000000 0.000000 0.000000
outer loop
vertex 2.030448 0.000000 -0.953074
vertex 2.007686 0.000000 -0.878037
vertex 2.007686 0.000000 -0.878037
endloop
endfacet
facet normal 0.000000 0.000000 0.000000
outer loop
vertex 2.622228 0.000000 -1.132588
vertex 2.682843 0.000000 -1.082843
vertex 2.682843 0.000000 -1.082843
endloop
endfacet
facet normal 0.000000 0.000000 0.000000
outer loop
vertex 2.682843 0.000000 -1.082843
vertex 2.622228 0.000000 -1.132588
vertex 2.622228 0.000000 -1.132588
endloop
endfacet
facet normal 0.000000 0.000000 0.000000
outer loop
vertex 2.553073 0.000000 -0.430448
vertex 2.478036 0.000000 -0.407686
vertex 2.478036 0.000000 -0.407686
endloop
endfacet
facet normal 0.000000 0.000000 0.000000
outer loop
vertex 2.478036 0.000000 -0.407686
vertex 2.553073 0.000000 -0.430448
vertex 2.553073 0.000000 -0.430448
endloop
endfacet
facet normal 0.000000 0.000000 0.000000
outer loop
vertex 2.007686 0.000000 -0.721964
vertex 2.000000 0.000000 -0.800000
vertex 2.000000 0.000000 -0.800000
endloop
endfacet
facet normal 0.000000 0.000000 0.000000
outer loop
vertex 2.000000 0.000000 -0.800000
vertex 2.007686 0.000000 -0.721964
vertex 2.007686 0.000000 -0.721964
endloop
endfacet
facet normal 0.000000 0.000000 0.000000
outer loop
vertex 2.478036 0.000000 -1.192314
vertex 2.553073 0.000000 -1.169552
vertex 2.553073 0.000000 -1.169552
endloop
endfacet
facet normal 0.000000 0.000000 0.000000
outer loop
vertex 2.553073 0.000000 -1.169552
vertex 2.478036 0.000000 -1.192314
vertex 2.478036 0.000000 -1.192314
endloop
endfacet
facet normal 0.000000 0.000000 0.000000
outer loop
vertex 2.682843 0.000000 -0.517157
vertex 2.622228 0.000000 -0.467412
vertex 2.622228 0.000000 -0.467412
endloop
endfacet
facet normal 0.000000 0.000000 0.000000
outer loop
vertex 2.622228 0.000000 -0.467412
vertex 2.682843 0.000000 -0.517157
vertex 2.682843 0.000000 -0.517157
endloop
endfacet
facet normal 0.000000 0.000000 0.000000
outer loop
vertex 2.067412 0.000000 -0.577772
vertex 2.030448 0.000000 -0.646927
vertex 2.030448 0.000000 -0.646927
endloop
endfacet
facet normal 0.000000 0.000000 0.000000
outer loop
vertex 2.030448 0.000000 -0.646927
vertex 2.067412 0.000000 -0.577772
vertex 2.067412 0.000000 -0.577772
endloop
endfacet
facet normal 0.000000 0.000000 0.000000
outer loop
vertex 2.769552 0.000000 -0.646927
vertex 2.732588 0.000000 -0.577772
vertex 2.732588 0.000000 -0.577772
endloop
endfacet
facet normal 0.000000 0.000000 0.000000
outer loop
vertex 2.732588 0.000000 -0.577772
vertex 2.769552 0.000000 -0.646927
vertex 2.769552 0.000000 -0.646927
endloop
endfacet
facet normal 0.000000 0.000000 0.000000
outer loop
vertex 2.246927 0.000000 -1.169552
vertex 2.321965 0.000000 -1.192314
vertex 2.321965 0.000000 -1.192314
endloop
endfacet
facet normal 0.000000 0.000000 0.000000
outer loop
vertex 2.321965 0.000000 -1.192314
vertex 2.246927 0.000000 -1.169552
vertex 2.246927 0.000000 -1.169552
endloop
endfacet
facet normal 0.000000 0.000000 0.000000
outer loop
vertex 2.177772 0.000000 -0.467412
vertex 2.117157 0.000000 -0.517157
vertex 2.117157 0.000000 -0.517157
endloop
endfacet
facet normal 0.000000 0.000000 0.000000
outer loop
vertex 2.117157 0.000000 -0.517157
vertex 2.177772 0.000000 -0.467412
vertex 2.177772 0.000000 -0.467412
endloop
endfacet
facet normal 0.000000 0.000000 0.000000
outer loop
vertex 2.800000 0.000000 -0.800000
vertex 2.792314 0.000000 -0.721964
vertex 2.792314 0.000000 -0.721964
endloop
endfacet
facet normal 0.000000 0.000000 0.000000
outer loop
vertex 2.792314 0.000000 -0.721964
vertex 2.800000 0.000000 -0.800000
vertex 2.800000 0.000000 -0.800000
endloop
endfacet
facet normal 0.956940 0.000000 -0.290285
outer loop
vertex 2.030448 0.000000 -0.646927
vertex 2.007686 0.000000 -0.721964
vertex 2.007686 0.180000 -0.721964
endloop
endfacet
facet normal 0.956940 0.000000 -0.290284
outer loop
vertex 2.007686 0.180000 -0.721964
vertex 2.030448 0.180000 -0.646927
vertex 2.030448 0.000000 -0.646927
endloop
endfacet
facet normal 0.000000 0.000000 0.000000
outer loop
vertex 2.177772 0.000000 -0.467412
vertex 2.117157 0.000000 -0.517157
vertex 2.117157 0.000000 -0.517157
endloop
endfacet
facet normal 0.000000 0.000000 0.000000
outer loop
vertex 2.117157 0.000000 -0.517157
vertex 2.177772 0.000000 -0.467412
vertex 2.177772 0.000000 -0.467412
endloop
endfacet
facet normal 0.000000 0.000000 0.000000
outer loop
vertex 2.800000 0.000000 -0.800000
vertex 2.792314 0.000000 -0.721964
vertex 2.792314 0.000000 -0.721964
endloop
endfacet
facet normal 0.000000 0.000000 0.000000
outer loop
vertex 2.792314 0.000000 -0.721964
vertex 2.800000 0.000000 -0.800000
vertex 2.800000 0.000000 -0.800000
endloop
endfacet
facet normal 0.000000 0.000000 0.000000
outer loop
vertex 2.117158 0.000000 -1.082843
vertex 2.177773 0.000000 -1.132588
vertex 2.177773 0.000000 -1.132588
endloop
endfacet
facet normal 0.000000 0.000000 0.000000
outer loop
vertex 2.177773 0.000000 -1.132588
vertex 2.117158 0.000000 -1.082843
vertex 2.117158 0.000000 -1.082843
endloop
endfacet
facet normal 0.000000 0.000000 0.000000
outer loop
vertex 2.321964 0.000000 -0.407686
vertex 2.246927 0.000000 -0.430448
vertex 2.246927 0.000000 -0.430448
endloop
endfacet
facet normal 0.000000 0.000000 0.000000
outer loop
vertex 2.246927 0.000000 -0.430448
vertex 2.321964 0.000000 -0.407686
vertex 2.321964 0.000000 -0.407686
endloop
endfacet
facet normal 0.000000 0.000000 0.000000
outer loop
vertex 2.769552 0.000000 -0.953073
vertex 2.792314 0.000000 -0.878036
vertex 2.792314 0.000000 -0.878036
endloop
endfacet
facet normal 0.000000 0.000000 0.000000
outer loop
vertex 2.792314 0.000000 -0.878036
vertex 2.769552 0.000000 -0.953073
vertex 2.769552 0.000000 -0.953073
endloop
endfacet
facet normal 0.000000 0.000000 0.000000
outer loop
vertex 2.030448 0.000000 -0.953074
vertex 2.067413 0.000000 -1.022228
vertex 2.067413 0.000000 -1.022228
endloop
endfacet
facet normal 0.000000 0.000000 0.000000
outer loop
vertex 2.067413 0.000000 -1.022228
vertex 2.030448 0.000000 -0.953074
vertex 2.030448 0.000000 -0.953074
endloop
endfacet
facet normal 0.000000 0.000000 0.000000
outer loop
vertex 2.682843 0.000000 -1.082843
vertex 2.732588 0.000000 -1.022228
vertex 2.732588 0.000000 -1.022228
endloop
endfacet
facet normal 0.000000 0.000000 0.000000
outer loop
vertex 2.732588 0.000000 -1.022228
vertex 2.682843 0.000000 -1.082843
vertex 2.682843 0.000000 -1.082843
endloop
endfacet
facet normal 0.000000 0.000000 0.000000
outer loop
vertex 2.478036 0.000000 -0.407686
vertex 2.400000 0.000000 -0.400000
vertex 2.400000 0.000000 -0.400000
endloop
endfacet
facet normal 0.000000 0.000000 0.000000
outer loop
vertex 2.400000 0.000000 -0.400000
vertex 2.478036 0.000000 -0.407686
vertex 2.478036 0.000000 -0.407686
endloop
endfacet
facet normal 0.000000 0.000000 0.000000
outer loop
vertex 2.000000 0.000000 -0.800000
vertex 2.007686 0.000000 -0.878037
vertex 2.007686 0.000000 -0.878037
endloop
endfacet
facet normal 0.000000 0.000000 0.000000
outer loop
vertex 2.007686 0.000000 -0.878037
vertex 2.000000 0.000000 -0.800000
vertex 2.000000 0.000000 -0.800000
endloop
endfacet
facet normal 0.000000 0.000000 0.000000
outer loop
vertex 2.553073 0.000000 -1.169552
vertex 2.622228 0.000000 -1.132588
vertex 2.622228 0.000000 -1.132588
endloop
endfacet
facet normal 0.000000 0.000000 0.000000
outer loop
vertex 2.622228 0.000000 -1.132588
vertex 2.553073 0.000000 -1.169552
vertex 2.553073 0.000000 -1.169552
endloop
endfacet
facet normal 0.000000 0.000000 0.000000
outer loop
vertex 2.622228 0.000000 -0.467412
vertex 2.553073 0.000000 -0.430448
vertex 2.553073 0.000000 -0.430448
endloop
endfacet
facet normal 0.000000 0.000000 0.000000
outer loop
vertex 2.553073 0.000000 -0.430448
vertex 2.622228 0.000000 -0.467412
vertex 2.622228 0.000000 -0.467412
endloop
endfacet
facet normal 0.000000 0.000000 0.000000
outer loop
vertex 2.030448 0.000000 -0.646927
vertex 2.007686 0.000000 -0.721964
vertex 2.007686 0.000000 -0.721964
endloop
endfacet
facet normal 0.000000 0.000000 0.000000
outer loop
vertex 2.007686 0.000000 -0.721964
vertex 2.030448 0.000000 -0.646927
vertex 2.030448 0.000000 -0.646927
endloop
endfacet
facet normal 0.000000 0.000000 0.000000
outer loop
vertex 2.400000 0.000000 -1.200000
vertex 2.478036 0.000000 -1.192314
vertex 2.478036 0.000000 -1.192314
endloop
endfacet
facet normal 0.000000 0.000000 0.000000
outer loop
vertex 2.478036 0.000000 -1.192314
vertex 2.400000 0.000000 -1.200000
vertex 2.400000 0.000000 -1.200000
endloop
endfacet
facet normal 0.000000 0.000000 0.000000
outer loop
vertex 2.732588 0.000000 -0.577772
vertex 2.682843 0.000000 -0.517157
vertex 2.682843 0.000000 -0.517157
endloop
endfacet
facet normal 0.000000 0.000000 0.000000
outer loop
vertex 2.682843 0.000000 -0.517157
vertex 2.732588 0.000000 -0.577772
vertex 2.732588 0.000000 -0.577772
endloop
endfacet
facet normal 0.000000 0.000000 0.000000
outer loop
vertex 2.321965 0.000000 -1.192314
vertex 2.400000 0.000000 -1.200000
vertex 2.400000 0.000000 -1.200000
endloop
endfacet
facet normal 0.000000 0.000000 0.000000
outer loop
vertex 2.400000 0.000000 -1.200000
vertex 2.321965 0.000000 -1.192314
vertex 2.321965 0.000000 -1.192314
endloop
endfacet
facet normal 0.000000 0.000000 0.000000
outer loop
vertex 2.117157 0.000000 -0.517157
vertex 2.067412 0.000000 -0.577772
vertex 2.067412 0.000000 -0.577772
endloop
endfacet
facet normal 0.000000 0.000000 0.000000
outer loop
vertex 2.067412 0.000000 -0.577772
vertex 2.117157 0.000000 -0.517157
vertex 2.117157 0.000000 -0.517157
endloop
endfacet
facet normal 0.000000 0.000000 0.000000
outer loop
vertex 2.792314 0.000000 -0.721964
vertex 2.769552 0.000000 -0.646927
vertex 2.769552 0.000000 -0.646927
endloop
endfacet
facet normal 0.000000 0.000000 0.000000
outer loop
vertex 2.769552 0.000000 -0.646927
vertex 2.792314 0.000000 -0.721964
vertex 2.792314 0.000000 -0.721964
endloop
endfacet
facet normal 0.000000 0.000000 0.000000
outer loop
vertex 2.177773 0.000000 -1.132588
vertex 2.246927 0.000000 -1.169552
vertex 2.246927 0.000000 -1.169552
endloop
endfacet
facet normal 0.000000 0.000000 0.000000
outer loop
vertex 2.246927 0.000000 -1.169552
vertex 2.177773 0.000000 -1.132588
vertex 2.177773 0.000000 -1.132588
endloop
endfacet
facet normal 0.000000 0.000000 0.000000
outer loop
vertex 2.246927 0.000000 -0.430448
vertex 2.177772 0.000000 -0.467412
vertex 2.177772 0.000000 -0.467412
endloop
endfacet
facet normal 0.000000 0.000000 0.000000
outer loop
vertex 2.177772 0.000000 -0.467412
vertex 2.246927 0.000000 -0.430448
vertex 2.246927 0.000000 -0.430448
endloop
endfacet
facet normal 0.000000 0.000000 0.000000
outer loop
vertex 2.792314 0.000000 -0.878036
vertex 2.800000 0.000000 -0.800000
vertex 2.800000 0.000000 -0.800000
endloop
endfacet
facet normal 0.000000 0.000000 0.000000
outer loop
vertex 2.800000 0.000000 -0.800000
vertex 2.792314 0.000000 -0.878036
vertex 2.792314 0.000000 -0.878036
endloop
endfacet
facet normal 0.000000 0.000000 0.000000
outer loop
vertex 2.067413 0.000000 -1.022228
vertex 2.117158 0.000000 -1.082843
vertex 2.117158 0.000000 -1.082843
endloop
endfacet
facet normal 0.000000 0.000000 0.000000
outer loop
vertex 2.117158 0.000000 -1.082843
vertex 2.067413 0.000000 -1.022228
vertex 2.067413 0.000000 -1.022228
endloop
endfacet
facet normal 0.000000 0.000000 0.000000
outer loop
vertex 2.400000 0.000000 -0.400000
vertex 2.321964 0.000000 -0.407686
vertex 2.321964 0.000000 -0.407686
endloop
endfacet
facet normal 0.000000 0.000000 0.000000
outer loop
vertex 2.321964 0.000000 -0.407686
vertex 2.400000 0.000000 -0.400000
vertex 2.400000 0.000000 -0.400000
endloop
endfacet
facet normal 0.000000 0.000000 0.000000
outer loop
vertex 2.732588 0.000000 -1.022228
vertex 2.769552 0.000000 -0.953073
vertex 2.769552 0.000000 -0.953073
endloop
endfacet
facet normal 0.000000 0.000000 0.000000
outer loop
vertex 2.769552 0.000000 -0.953073
vertex 2.732588 0.000000 -1.022228
vertex 2.732588 0.000000 -1.022228
endloop
endfacet
facet normal 0.000000 0.000000 0.000000
outer loop
vertex 2.007686 0.000000 -0.878037
vertex 2.030448 0.000000 -0.953074
vertex 2.030448 0.000000 -0.953074
endloop
endfacet
facet normal 0.000000 0.000000 0.000000
outer loop
vertex 2.030448 0.000000 -0.953074
vertex 2.007686 0.000000 -0.878037
vertex 2.007686 0.000000 -0.878037
endloop
endfacet
facet normal 0.000000 0.000000 0.000000
outer loop
vertex 2.622228 0.000000 -1.132588
vertex 2.682843 0.000000 -1.082843
vertex 2.682843 0.000000 -1.082843
endloop
endfacet
facet normal 0.000000 0.000000 0.000000
outer loop
vertex 2.682843 0.000000 -1.082843
vertex 2.622228 0.000000 -1.132588
vertex 2.622228 0.000000 -1.132588
endloop
endfacet
facet normal 0.000000 0.000000 0.000000
outer loop
vertex 2.553073 0.000000 -0.430448
vertex 2.478036 0.000000 -0.407686
vertex 2.478036 0.000000 -0.407686
endloop
endfacet
facet normal 0.000000 0.000000 0.000000
outer loop
vertex 2.478036 0.000000 -0.407686
vertex 2.553073 0.000000 -0.430448
vertex 2.553073 0.000000 -0.430448
endloop
endfacet
facet normal 0.000000 0.000000 0.000000
outer loop
vertex 2.007686 0.000000 -0.721964
vertex 2.000000 0.000000 -0.800000
vertex 2.000000 0.000000 -0.800000
endloop
endfacet
facet normal 0.000000 0.000000 0.000000
outer loop
vertex 2.000000 0.000000 -0.800000
vertex 2.007686 0.000000 -0.721964
vertex 2.007686 0.000000 -0.721964
endloop
endfacet
facet normal 0.000000 0.000000 0.000000
outer loop
vertex 2.478036 0.000000 -1.192314
vertex 2.553073 0.000000 -1.169552
vertex 2.553073 0.000000 -1.169552
endloop
endfacet
facet normal 0.000000 0.000000 0.000000
outer loop
vertex 2.553073 0.000000 -1.169552
vertex 2.478036 0.000000 -1.192314
vertex 2.478036 0.000000 -1.192314
endloop
endfacet
facet normal 0.000000 0.000000 0.000000
outer loop
vertex 2.682843 0.000000 -0.517157
vertex 2.622228 0.000000 -0.467412
vertex 2.622228 0.000000 -0.467412
endloop
endfacet
facet normal 0.000000 0.000000 0.000000
outer loop
vertex 2.622228 0.000000 -0.467412
vertex 2.682843 0.000000 -0.517157
vertex 2.682843 0.000000 -0.517157
endloop
endfacet
facet normal 0.000000 0.000000 0.000000
outer loop
vertex 2.067412 0.000000 -0.577772
vertex 2.030448 0.000000 -0.646927
vertex 2.030448 0.000000 -0.646927
endloop
endfacet
facet normal 0.000000 0.000000 0.000000
outer loop
vertex 2.030448 0.000000 -0.646927
vertex 2.067412 0.000000 -0.577772
vertex 2.067412 0.000000 -0.577772
endloop
endfacet
facet normal 0.000000 0.000000 0.000000
outer loop
vertex 2.769552 0.000000 -0.646927
vertex 2.732588 0.000000 -0.577772
vertex 2.732588 0.000000 -0.577772
endloop
endfacet
facet normal 0.000000 0.000000 0.000000
outer loop
vertex 2.732588 0.000000 -0.577772
vertex 2.769552 0.000000 -0.646927
vertex 2.769552 0.000000 -0.646927
endloop
endfacet
facet normal 0.098018 0.000000 -0.995185
outer loop
vertex 2.400000 0.000000 -1.060000
vertex 2.400000 0.180000 -1.060000
vertex 2.450724 0.180000 -1.055004
endloop
endfacet
facet normal 0.098014 0.000000 -0.995185
outer loop
vertex 2.450724 0.180000 -1.055004
vertex 2.450724 0.000000 -1.055004
vertex 2.400000 0.000000 -1.060000
endloop
endfacet
facet normal 0.290282 0.000000 -0.956941
outer loop
vertex 2.450724 0.000000 -1.055004
vertex 2.450724 0.180000 -1.055004
vertex 2.499498 0.180000 -1.040209
endloop
endfacet
facet normal 0.290285 0.000000 -0.956940
outer loop
vertex 2.499498 0.180000 -1.040209
vertex 2.499498 0.000000 -1.040209
vertex 2.450724 0.000000 -1.055004
endloop
endfacet
facet normal 0.471398 0.000000 -0.881920
outer loop
vertex 2.499498 0.000000 -1.040209
vertex 2.499498 0.180000 -1.040209
vertex 2.544448 0.180000 -1.016182
endloop
endfacet
facet normal 0.471398 0.000000 -0.881920
outer loop
vertex 2.544448 0.180000 -1.016182
vertex 2.544448 0.000000 -1.016182
vertex 2.499498 0.000000 -1.040209
endloop
endfacet
facet normal 0.634395 0.000000 -0.773009
outer loop
vertex 2.544448 0.000000 -1.016182
vertex 2.544448 0.180000 -1.016182
vertex 2.583848 0.180000 -0.983848
endloop
endfacet
facet normal 0.634395 0.000000 -0.773009
outer loop
vertex 2.583848 0.180000 -0.983848
vertex 2.583848 0.000000 -0.983848
vertex 2.544448 0.000000 -1.016182
endloop
endfacet
facet normal 0.773010 0.000000 -0.634393
outer loop
vertex 2.583848 0.000000 -0.983848
vertex 2.583848 0.180000 -0.983848
vertex 2.616182 0.180000 -0.944448
endloop
endfacet
facet normal 0.773010 0.000000 -0.634393
outer loop
vertex 2.616182 0.180000 -0.944448
vertex 2.616182 0.000000 -0.944448
vertex 2.583848 0.000000 -0.983848
endloop
endfacet
facet normal 0.881921 0.000000 -0.471398
outer loop
vertex 2.616182 0.000000 -0.944448
vertex 2.616182 0.180000 -0.944448
vertex 2.640209 0.180000 -0.899498
endloop
endfacet
facet normal 0.881921 0.000000 -0.471398
outer loop
vertex 2.640209 0.180000 -0.899498
vertex 2.640209 0.000000 -0.899498
vertex 2.616182 0.000000 -0.944448
endloop
endfacet
facet normal 0.956940 0.000000 -0.290286
outer loop
vertex 2.640209 0.000000 -0.899498
vertex 2.640209 0.180000 -0.899498
vertex 2.655004 0.180000 -0.850724
endloop
endfacet
facet normal 0.956940 0.000000 -0.290285
outer loop
vertex 2.655004 0.180000 -0.850724
vertex 2.655004 0.000000 -0.850724
vertex 2.640209 0.000000 -0.899498
endloop
endfacet
facet normal 0.995185 0.000000 -0.098017
outer loop
vertex 2.655004 0.000000 -0.850724
vertex 2.655004 0.180000 -0.850724
vertex 2.660000 0.180000 -0.800000
endloop
endfacet
facet normal 0.995185 0.000000 -0.098017
outer loop
vertex 2.660000 0.180000 -0.800000
vertex 2.660000 0.000000 -0.800000
vertex 2.655004 0.000000 -0.850724
endloop
endfacet
facet normal 0.995185 0.000000 0.098017
outer loop
vertex 2.660000 0.000000 -0.800000
vertex 2.660000 0.180000 -0.800000
vertex 2.655004 0.180000 -0.749277
endloop
endfacet
facet normal 0.995185 0.000000 0.098017
outer loop
vertex 2.655004 0.180000 -0.749277
vertex 2.655004 0.000000 -0.749277
vertex 2.660000 0.000000 -0.800000
endloop
endfacet
facet normal 0.956940 0.000000 0.290287
outer loop
vertex 2.655004 0.000000 -0.749277
vertex 2.655004 0.180000 -0.749277
vertex 2.640209 0.180000 -0.700502
endloop
endfacet
facet normal 0.956940 0.000000 0.290285
outer loop
vertex 2.640209 0.180000 -0.700502
vertex 2.640209 0.000000 -0.700502
vertex 2.655004 0.000000 -0.749277
endloop
endfacet
facet normal 0.881921 0.000000 0.471397
outer loop
vertex 2.640209 0.000000 -0.700502
vertex 2.640209 0.180000 -0.700502
vertex 2.616182 0.180000 -0.655552
endloop
endfacet
facet normal 0.881921 0.000000 0.471397
outer loop
vertex 2.616182 0.180000 -0.655552
vertex 2.616182 0.000000 -0.655552
vertex 2.640209 0.000000 -0.700502
endloop
endfacet
facet normal 0.773011 0.000000 0.634392
outer loop
vertex 2.616182 0.000000 -0.655552
vertex 2.616182 0.180000 -0.655552
vertex 2.583848 0.180000 -0.616152
endloop
endfacet
facet normal 0.773010 0.000000 0.634393
outer loop
vertex 2.583848 0.180000 -0.616152
vertex 2.583848 0.000000 -0.616152
vertex 2.616182 0.000000 -0.655552
endloop
endfacet
facet normal 0.634394 0.000000 0.773010
outer loop
vertex 2.583848 0.000000 -0.616152
vertex 2.583848 0.180000 -0.616152
vertex 2.544448 0.180000 -0.583818
endloop
endfacet
facet normal 0.634396 0.000000 0.773009
outer loop
vertex 2.544448 0.180000 -0.583818
vertex 2.544448 0.000000 -0.583818
vertex 2.583848 0.000000 -0.616152
endloop
endfacet
facet normal 0.471395 0.000000 0.881922
outer loop
vertex 2.544448 0.000000 -0.583818
vertex 2.544448 0.180000 -0.583818
vertex 2.499498 0.180000 -0.559791
endloop
endfacet
facet normal 0.471396 0.000000 0.881922
outer loop
vertex 2.499498 0.180000 -0.559791
vertex 2.499498 0.000000 -0.559791
vertex 2.544448 0.000000 -0.583818
endloop
endfacet
facet normal 0.290285 0.000000 0.956940
outer loop
vertex 2.499498 0.000000 -0.559791
vertex 2.499498 0.180000 -0.559791
vertex 2.450723 0.180000 -0.544996
endloop
endfacet
facet normal 0.290284 0.000000 0.956941
outer loop
vertex 2.450723 0.180000 -0.544996
vertex 2.450723 0.000000 -0.544996
vertex 2.499498 0.000000 -0.559791
endloop
endfacet
facet normal 0.098017 0.000000 0.995185
outer loop
vertex 2.450723 0.000000 -0.544996
vertex 2.450723 0.180000 -0.544996
vertex 2.400000 0.180000 -0.540000
endloop
endfacet
facet normal 0.098018 0.000000 0.995185
outer loop
vertex 2.400000 0.180000 -0.540000
vertex 2.400000 0.000000 -0.540000
vertex 2.450723 0.000000 -0.544996
endloop
endfacet
facet normal -0.098019 0.000000 0.995185
outer loop
vertex 2.400000 0.000000 -0.540000
vertex 2.400000 0.180000 -0.540000
vertex 2.349277 0.180000 -0.544996
endloop
endfacet
facet normal -0.098018 0.000000 0.995185
outer loop
vertex 2.349277 0.180000 -0.544996
vertex 2.349277 0.000000 -0.544996
vertex 2.400000 0.000000 -0.540000
endloop
endfacet
facet normal -0.290285 0.000000 0.956940
outer loop
vertex 2.349277 0.000000 -0.544996
vertex 2.349277 0.180000 -0.544996
vertex 2.300502 0.180000 -0.559791
endloop
endfacet
facet normal -0.290284 0.000000 0.956941
outer loop
vertex 2.300502 0.180000 -0.559791
vertex 2.300502 0.000000 -0.559791
vertex 2.349277 0.000000 -0.544996
endloop
endfacet
facet normal -0.471398 0.000000 0.881920
outer loop
vertex 2.300502 0.000000 -0.559791
vertex 2.300502 0.180000 -0.559791
vertex 2.255552 0.180000 -0.583818
endloop
endfacet
facet normal -0.471398 0.000000 0.881920
outer loop
vertex 2.255552 0.180000 -0.583818
vertex 2.255552 0.000000 -0.583818
vertex 2.300502 0.000000 -0.559791
endloop
endfacet
facet normal -0.634391 0.000000 0.773012
outer loop
vertex 2.255552 0.000000 -0.583818
vertex 2.255552 0.180000 -0.583818
vertex 2.216152 0.180000 -0.616152
endloop
endfacet
facet normal -0.634392 0.000000 0.773011
outer loop
vertex 2.216152 0.180000 -0.616152
vertex 2.216152 0.000000 -0.616152
vertex 2.255552 0.000000 -0.583818
endloop
endfacet
facet normal -0.773010 0.000000 0.634393
outer loop
vertex 2.216152 0.000000 -0.616152
vertex 2.216152 0.180000 -0.616152
vertex 2.183818 0.180000 -0.655552
endloop
endfacet
facet normal -0.773011 0.000000 0.634392
outer loop
vertex 2.183818 0.180000 -0.655552
vertex 2.183818 0.000000 -0.655552
vertex 2.216152 0.000000 -0.616152
endloop
endfacet
facet normal -0.881921 0.000000 0.471397
outer loop
vertex 2.183818 0.000000 -0.655552
vertex 2.183818 0.180000 -0.655552
vertex 2.159791 0.180000 -0.700503
endloop
endfacet
facet normal -0.881921 0.000000 0.471398
outer loop
vertex 2.159791 0.180000 -0.700503
vertex 2.159791 0.000000 -0.700503
vertex 2.183818 0.000000 -0.655552
endloop
endfacet
facet normal -0.956942 0.000000 0.290281
outer loop
vertex 2.159791 0.000000 -0.700503
vertex 2.159791 0.180000 -0.700503
vertex 2.144996 0.180000 -0.749277
endloop
endfacet
facet normal -0.956942 0.000000 0.290281
outer loop
vertex 2.144996 0.180000 -0.749277
vertex 2.144996 0.000000 -0.749277
vertex 2.159791 0.000000 -0.700503
endloop
endfacet
facet normal -0.995185 0.000000 0.098017
outer loop
vertex 2.144996 0.000000 -0.749277
vertex 2.144996 0.180000 -0.749277
vertex 2.140000 0.180000 -0.800000
endloop
endfacet
facet normal -0.995185 0.000000 0.098017
outer loop
vertex 2.140000 0.180000 -0.800000
vertex 2.140000 0.000000 -0.800000
vertex 2.144996 0.000000 -0.749277
endloop
endfacet
facet normal -0.995185 0.000000 -0.098017
outer loop
vertex 2.140000 0.000000 -0.800000
vertex 2.140000 0.180000 -0.800000
vertex 2.144996 0.180000 -0.850724
endloop
endfacet
facet normal -0.995185 0.000000 -0.098017
outer loop
vertex 2.144996 0.180000 -0.850724
vertex 2.144996 0.000000 -0.850724
vertex 2.140000 0.000000 -0.800000
endloop
endfacet
facet normal -0.956940 0.000000 -0.290285
outer loop
vertex 2.144996 0.000000 -0.850724
vertex 2.144996 0.180000 -0.850724
vertex 2.159791 0.180000 -0.899498
endloop
endfacet
facet normal -0.956940 0.000000 -0.290286
outer loop
vertex 2.159791 0.180000 -0.899498
vertex 2.159791 0.000000 -0.899498
vertex 2.144996 0.000000 -0.850724
endloop
endfacet
facet normal -0.881921 0.000000 -0.471398
outer loop
vertex 2.159791 0.000000 -0.899498
vertex 2.159791 0.180000 -0.899498
vertex 2.183818 0.180000 -0.944449
endloop
endfacet
facet normal -0.881921 0.000000 -0.471397
outer loop
vertex 2.183818 0.180000 -0.944449
vertex 2.183818 0.000000 -0.944449
vertex 2.159791 0.000000 -0.899498
endloop
endfacet
facet normal -0.773008 0.000000 -0.634396
outer loop
vertex 2.183818 0.000000 -0.944449
vertex 2.183818 0.180000 -0.944449
vertex 2.216153 0.180000 -0.983848
endloop
endfacet
facet normal -0.773007 0.000000 -0.634398
outer loop
vertex 2.216153 0.180000 -0.983848
vertex 2.216153 0.000000 -0.983848
vertex 2.183818 0.000000 -0.944449
endloop
endfacet
facet normal -0.634395 0.000000 -0.773009
outer loop
vertex 2.216153 0.000000 -0.983848
vertex 2.216153 0.180000 -0.983848
vertex 2.255552 0.180000 -1.016182
endloop
endfacet
facet normal -0.634395 0.000000 -0.773009
outer loop
vertex 2.255552 0.180000 -1.016182
vertex 2.255552 0.000000 -1.016182
vertex 2.216153 0.000000 -0.983848
endloop
endfacet
facet normal -0.471396 0.000000 -0.881922
outer loop
vertex 2.255552 0.000000 -1.016182
vertex 2.255552 0.180000 -1.016182
vertex 2.300503 0.180000 -1.040209
endloop
endfacet
facet normal -0.471391 0.000000 -0.881924
outer loop
vertex 2.300503 0.180000 -1.040209
vertex 2.300503 0.000000 -1.040209
vertex 2.255552 0.000000 -1.016182
endloop
endfacet
facet normal 0.000000 1.000000 -0.000004
outer loop
vertex 2.450724 0.180000 -1.055004
vertex 2.544448 0.180000 -1.016182
vertex 2.499498 0.180000 -1.040209
endloop
endfacet
facet normal 0.000000 1.000000 0.000002
outer loop
vertex 2.616182 0.180000 -0.944448
vertex 2.583848 0.180000 -0.983848
vertex 2.544448 0.180000 -1.016182
endloop
endfacet
facet normal 0.000000 1.000000 0.000000
outer loop
vertex 2.655004 0.180000 -0.850724
vertex 2.640209 0.180000 -0.899498
vertex 2.616182 0.180000 -0.944448
endloop
endfacet
facet normal 0.000000 1.000000 0.000000
outer loop
vertex 2.655004 0.180000 -0.749277
vertex 2.660000 0.180000 -0.800000
vertex 2.655004 0.180000 -0.850724
endloop
endfacet
facet normal 0.000000 1.000000 0.000001
outer loop
vertex 2.616182 0.180000 -0.655552
vertex 2.640209 0.180000 -0.700502
vertex 2.655004 0.180000 -0.749277
endloop
endfacet
facet normal 0.000000 1.000000 -0.000002
outer loop
vertex 2.544448 0.180000 -0.583818
vertex 2.583848 0.180000 -0.616152
vertex 2.616182 0.180000 -0.655552
endloop
endfacet
facet normal 0.000000 1.000000 0.000004
outer loop
vertex 2.450723 0.180000 -0.544996
vertex 2.499498 0.180000 -0.559791
vertex 2.544448 0.180000 -0.583818
endloop
endfacet
facet normal 0.000000 1.000000 0.000000
outer loop
vertex 2.349277 0.180000 -0.544996
vertex 2.400000 0.180000 -0.540000
vertex 2.450723 0.180000 -0.544996
endloop
endfacet
facet normal 0.000000 1.000000 0.000004
outer loop
vertex 2.255552 0.180000 -0.583818
vertex 2.300502 0.180000 -0.559791
vertex 2.349277 0.180000 -0.544996
endloop
endfacet
facet normal 0.000000 1.000000 -0.000002
outer loop
vertex 2.183818 0.180000 -0.655552
vertex 2.216152 0.180000 -0.616152
vertex 2.255552 0.180000 -0.583818
endloop
endfacet
facet normal 0.000000 1.000000 0.000002
outer loop
vertex 2.144996 0.180000 -0.749277
vertex 2.159791 0.180000 -0.700503
vertex 2.183818 0.180000 -0.655552
endloop
endfacet
facet normal 0.000000 1.000000 0.000000
outer loop
vertex 2.144996 0.180000 -0.850724
vertex 2.140000 0.180000 -0.800000
vertex 2.144996 0.180000 -0.749277
endloop
endfacet
facet normal 0.000000 1.000000 -0.000001
outer loop
vertex 2.183818 0.180000 -0.944449
vertex 2.159791 0.180000 -0.899498
vertex 2.144996 0.180000 -0.850724
endloop
endfacet
facet normal 0.000000 1.000000 0.000002
outer loop
vertex 2.255552 0.180000 -1.016182
vertex 2.216153 0.180000 -0.983848
vertex 2.183818 0.180000 -0.944449
endloop
endfacet
facet normal 0.000000 1.000000 -0.000004
outer loop
vertex 2.349277 0.180000 -1.055004
vertex 2.300503 0.180000 -1.040209
vertex 2.255552 0.180000 -1.016182
endloop
endfacet
facet normal 0.000000 1.000000 0.000000
outer loop
vertex 2.450724 0.180000 -1.055004
vertex 2.400000 0.180000 -1.060000
vertex 2.349277 0.180000 -1.055004
endloop
endfacet
facet normal 0.000000 1.000000 0.000000
outer loop
vertex 2.450724 0.180000 -1.055004
vertex 2.616182 0.180000 -0.944448
vertex 2.544448 0.180000 -1.016182
endloop
endfacet
facet normal 0.000000 1.000000 0.000000
outer loop
vertex 2.655004 0.180000 -0.749277
vertex 2.655004 0.180000 -0.850724
vertex 2.616182 0.180000 -0.944448
endloop
endfacet
facet normal 0.000000 1.000000 0.000000
outer loop
vertex 2.544448 0.180000 -0.583818
vertex 2.616182 0.180000 -0.655552
vertex 2.655004 0.180000 -0.749277
endloop
endfacet
facet normal 0.000000 1.000000 0.000001
outer loop
vertex 2.349277 0.180000 -0.544996
vertex 2.450723 0.180000 -0.544996
vertex 2.544448 0.180000 -0.583818
endloop
endfacet
facet normal 0.000000 1.000000 0.000000
outer loop
vertex 2.183818 0.180000 -0.655552
vertex 2.255552 0.180000 -0.583818
vertex 2.349277 0.180000 -0.544996
endloop
endfacet
facet normal 0.000000 1.000000 0.000000
outer loop
vertex 2.144996 0.180000 -0.850724
vertex 2.144996 0.180000 -0.749277
vertex 2.183818 0.180000 -0.655552
endloop
endfacet
facet normal 0.000000 1.000000 -0.000000
outer loop
vertex 2.255552 0.180000 -1.016182
vertex 2.183818 0.180000 -0.944449
vertex 2.144996 0.180000 -0.850724
endloop
endfacet
facet normal 0.000000 1.000000 0.000000
outer loop
vertex 2.450724 0.180000 -1.055004
vertex 2.349277 0.180000 -1.055004
vertex 2.255552 0.180000 -1.016182
endloop
endfacet
facet normal 0.000000 1.000000 0.000000
outer loop
vertex 2.450724 0.180000 -1.055004
vertex 2.655004 0.180000 -0.749277
vertex 2.616182 0.180000 -0.944448
endloop
endfacet
facet normal 0.000000 1.000000 -0.000000
outer loop
vertex 2.349277 0.180000 -0.544996
vertex 2.544448 0.180000 -0.583818
vertex 2.655004 0.180000 -0.749277
endloop
endfacet
facet normal 0.000000 1.000000 0.000000
outer loop
vertex 2.144996 0.180000 -0.850724
vertex 2.183818 0.180000 -0.655552
vertex 2.349277 0.180000 -0.544996
endloop
endfacet
facet normal 0.000000 1.000000 0.000000
outer loop
vertex 2.450724 0.180000 -1.055004
vertex 2.255552 0.180000 -1.016182
vertex 2.144996 0.180000 -0.850724
endloop
endfacet
facet normal 0.000000 1.000000 0.000000
outer loop
vertex 2.450724 0.180000 -1.055004
vertex 2.349277 0.180000 -0.544996
vertex 2.655004 0.180000 -0.749277
endloop
endfacet
facet normal 0.000000 1.000000 0.000000
outer loop
vertex 2.450724 0.180000 -1.055004
vertex 2.144996 0.180000 -0.850724
vertex 2.349277 0.180000 -0.544996
endloop
endfacet
facet normal -0.098012 0.000000 -0.995185
outer loop
vertex 2.349277 0.000000 -1.055004
vertex 2.349277 0.180000 -1.055004
vertex 2.400000 0.180000 -1.060000
endloop
endfacet
facet normal -0.098019 0.000000 -0.995185
outer loop
vertex 2.400000 0.180000 -1.060000
vertex 2.400000 0.000000 -1.060000
vertex 2.349277 0.000000 -1.055004
endloop
endfacet
facet normal -0.290282 0.000000 -0.956941
outer loop
vertex 2.300503 0.000000 -1.040209
vertex 2.300503 0.180000 -1.040209
vertex 2.349277 0.180000 -1.055004
endloop
endfacet
facet normal -0.290285 0.000000 -0.956940
outer loop
vertex 2.349277 0.180000 -1.055004
vertex 2.349277 0.000000 -1.055004
vertex 2.300503 0.000000 -1.040209
endloop
endfacet
facet normal 0.000000 1.000000 0.000000
outer loop
vertex 2.400000 0.000000 -1.200000
vertex 2.553073 0.000000 -1.169552
vertex 2.478036 0.000000 -1.192314
endloop
endfacet
facet normal 0.000000 1.000000 0.000000
outer loop
vertex 2.682843 0.000000 -1.082843
vertex 2.622228 0.000000 -1.132588
vertex 2.553073 0.000000 -1.169552
endloop
endfacet
facet normal 0.000000 1.000000 0.000000
outer loop
vertex 2.769552 0.000000 -0.953073
vertex 2.732588 0.000000 -1.022228
vertex 2.682843 0.000000 -1.082843
endloop
endfacet
facet normal 0.000000 1.000000 0.000000
outer loop
vertex 2.800000 0.000000 -0.800000
vertex 2.792314 0.000000 -0.878036
vertex 2.769552 0.000000 -0.953073
endloop
endfacet
facet normal 0.000000 1.000000 0.000000
outer loop
vertex 2.655004 0.000000 -0.850724
vertex 2.660000 0.000000 -0.800000
vertex 2.800000 0.000000 -0.800000
endloop
endfacet
facet normal 0.000000 1.000000 0.000000
outer loop
vertex 2.792314 0.000000 -0.721964
vertex 2.655004 0.000000 -0.749277
vertex 2.640209 0.000000 -0.700502
endloop
endfacet
facet normal 0.000000 1.000000 0.000000
outer loop
vertex 2.640209 0.000000 -0.899498
vertex 2.655004 0.000000 -0.850724
vertex 2.800000 0.000000 -0.800000
endloop
endfacet
facet normal 0.000000 1.000000 0.000000
outer loop
vertex 2.792314 0.000000 -0.721964
vertex 2.640209 0.000000 -0.700502
vertex 2.616182 0.000000 -0.655552
endloop
endfacet
facet normal 0.000000 1.000000 0.000000
outer loop
vertex 2.616182 0.000000 -0.944448
vertex 2.640209 0.000000 -0.899498
vertex 2.800000 0.000000 -0.800000
endloop
endfacet
facet normal 0.000000 1.000000 0.000000
outer loop
vertex 2.792314 0.000000 -0.721964
vertex 2.616182 0.000000 -0.655552
vertex 2.583848 0.000000 -0.616152
endloop
endfacet
facet normal 0.000000 1.000000 0.000000
outer loop
vertex 2.583848 0.000000 -0.983848
vertex 2.616182 0.000000 -0.944448
vertex 2.800000 0.000000 -0.800000
endloop
endfacet
facet normal 0.000000 1.000000 0.000000
outer loop
vertex 2.792314 0.000000 -0.721964
vertex 2.583848 0.000000 -0.616152
vertex 2.544448 0.000000 -0.583818
endloop
endfacet
facet normal 0.000000 1.000000 0.000000
outer loop
vertex 2.583848 0.000000 -0.983848
vertex 2.800000 0.000000 -0.800000
vertex 2.769552 0.000000 -0.953073
endloop
endfacet
facet normal 0.000000 1.000000 0.000000
outer loop
vertex 2.769552 0.000000 -0.646927
vertex 2.792314 0.000000 -0.721964
vertex 2.544448 0.000000 -0.583818
endloop
endfacet
facet normal 0.000000 1.000000 0.000000
outer loop
vertex 2.544448 0.000000 -1.016182
vertex 2.583848 0.000000 -0.983848
vertex 2.769552 0.000000 -0.953073
endloop
endfacet
facet normal 0.000000 1.000000 0.000000
outer loop
vertex 2.769552 0.000000 -0.646927
vertex 2.544448 0.000000 -0.583818
vertex 2.499498 0.000000 -0.559791
endloop
endfacet
facet normal 0.000000 1.000000 0.000000
outer loop
vertex 2.499498 0.000000 -1.040209
vertex 2.544448 0.000000 -1.016182
vertex 2.769552 0.000000 -0.953073
endloop
endfacet
facet normal 0.000000 1.000000 0.000000
outer loop
vertex 2.732588 0.000000 -0.577772
vertex 2.769552 0.000000 -0.646927
vertex 2.499498 0.000000 -0.559791
endloop
endfacet
facet normal 0.000000 1.000000 0.000000
outer loop
vertex 2.499498 0.000000 -1.040209
vertex 2.769552 0.000000 -0.953073
vertex 2.682843 0.000000 -1.082843
endloop
endfacet
facet normal 0.000000 1.000000 0.000000
outer loop
vertex 2.732588 0.000000 -0.577772
vertex 2.499498 0.000000 -0.559791
vertex 2.450723 0.000000 -0.544996
endloop
endfacet
facet normal 0.000000 1.000000 0.000000
outer loop
vertex 2.450724 0.000000 -1.055004
vertex 2.499498 0.000000 -1.040209
vertex 2.682843 0.000000 -1.082843
endloop
endfacet
facet normal 0.000000 1.000000 0.000000
outer loop
vertex 2.682843 0.000000 -0.517157
vertex 2.732588 0.000000 -0.577772
vertex 2.450723 0.000000 -0.544996
endloop
endfacet
facet normal 0.000000 1.000000 0.000000
outer loop
vertex 2.400000 0.000000 -1.060000
vertex 2.450724 0.000000 -1.055004
vertex 2.682843 0.000000 -1.082843
endloop
endfacet
facet normal 0.000000 1.000000 0.000000
outer loop
vertex 2.682843 0.000000 -0.517157
vertex 2.450723 0.000000 -0.544996
vertex 2.400000 0.000000 -0.540000
endloop
endfacet
facet normal 0.000000 1.000000 0.000000
outer loop
vertex 2.400000 0.000000 -1.060000
vertex 2.682843 0.000000 -1.082843
vertex 2.553073 0.000000 -1.169552
endloop
endfacet
facet normal 0.000000 1.000000 0.000000
outer loop
vertex 2.622228 0.000000 -0.467412
vertex 2.682843 0.000000 -0.517157
vertex 2.400000 0.000000 -0.540000
endloop
endfacet
facet normal 0.000000 1.000000 0.000000
outer loop
vertex 2.349277 0.000000 -1.055004
vertex 2.400000 0.000000 -1.060000
vertex 2.553073 0.000000 -1.169552
endloop
endfacet
facet normal 0.000000 1.000000 0.000000
outer loop
vertex 2.622228 0.000000 -0.467412
vertex 2.400000 0.000000 -0.540000
vertex 2.349277 0.000000 -0.544996
endloop
endfacet
facet normal 0.000000 1.000000 0.000000
outer loop
vertex 2.300503 0.000000 -1.040209
vertex 2.349277 0.000000 -1.055004
vertex 2.553073 0.000000 -1.169552
endloop
endfacet
facet normal 0.000000 1.000000 0.000000
outer loop
vertex 2.553073 0.000000 -0.430448
vertex 2.622228 0.000000 -0.467412
vertex 2.349277 0.000000 -0.544996
endloop
endfacet
facet normal 0.000000 1.000000 0.000000
outer loop
vertex 2.400000 0.000000 -1.200000
vertex 2.300503 0.000000 -1.040209
vertex 2.553073 0.000000 -1.169552
endloop
endfacet
facet normal 0.000000 1.000000 0.000000
outer loop
vertex 2.553073 0.000000 -0.430448
vertex 2.349277 0.000000 -0.544996
vertex 2.300502 0.000000 -0.559791
endloop
endfacet
facet normal 0.000000 1.000000 0.000000
outer loop
vertex 2.400000 0.000000 -1.200000
vertex 2.255552 0.000000 -1.016182
vertex 2.300503 0.000000 -1.040209
endloop
endfacet
facet normal 0.000000 1.000000 0.000000
outer loop
vertex 2.478036 0.000000 -0.407686
vertex 2.553073 0.000000 -0.430448
vertex 2.300502 0.000000 -0.559791
endloop
endfacet
facet normal 0.000000 1.000000 0.000000
outer loop
vertex 2.400000 0.000000 -1.200000
vertex 2.216153 0.000000 -0.983848
vertex 2.255552 0.000000 -1.016182
endloop
endfacet
facet normal 0.000000 1.000000 0.000000
outer loop
vertex 2.478036 0.000000 -0.407686
vertex 2.300502 0.000000 -0.559791
vertex 2.255552 0.000000 -0.583818
endloop
endfacet
facet normal 0.000000 1.000000 0.000000
outer loop
vertex 2.400000 0.000000 -1.200000
vertex 2.321965 0.000000 -1.192314
vertex 2.216153 0.000000 -0.983848
endloop
endfacet
facet normal 0.000000 1.000000 0.000000
outer loop
vertex 2.400000 0.000000 -0.400000
vertex 2.478036 0.000000 -0.407686
vertex 2.255552 0.000000 -0.583818
endloop
endfacet
facet normal 0.000000 1.000000 0.000000
outer loop
vertex 2.321965 0.000000 -1.192314
vertex 2.183818 0.000000 -0.944449
vertex 2.216153 0.000000 -0.983848
endloop
endfacet
facet normal 0.000000 1.000000 0.000000
outer loop
vertex 2.400000 0.000000 -0.400000
vertex 2.255552 0.000000 -0.583818
vertex 2.216152 0.000000 -0.616152
endloop
endfacet
facet normal 0.000000 1.000000 0.000000
outer loop
vertex 2.321965 0.000000 -1.192314
vertex 2.246927 0.000000 -1.169552
vertex 2.183818 0.000000 -0.944449
endloop
endfacet
facet normal 0.000000 1.000000 0.000000
outer loop
vertex 2.321964 0.000000 -0.407686
vertex 2.400000 0.000000 -0.400000
vertex 2.216152 0.000000 -0.616152
endloop
endfacet
facet normal 0.000000 1.000000 0.000000
outer loop
vertex 2.246927 0.000000 -1.169552
vertex 2.159791 0.000000 -0.899498
vertex 2.183818 0.000000 -0.944449
endloop
endfacet
facet normal 0.000000 1.000000 0.000000
outer loop
vertex 2.321964 0.000000 -0.407686
vertex 2.216152 0.000000 -0.616152
vertex 2.183818 0.000000 -0.655552
endloop
endfacet
facet normal 0.000000 1.000000 0.000000
outer loop
vertex 2.246927 0.000000 -1.169552
vertex 2.177773 0.000000 -1.132588
vertex 2.159791 0.000000 -0.899498
endloop
endfacet
facet normal 0.000000 1.000000 0.000000
outer loop
vertex 2.246927 0.000000 -0.430448
vertex 2.321964 0.000000 -0.407686
vertex 2.183818 0.000000 -0.655552
endloop
endfacet
facet normal 0.000000 1.000000 0.000000
outer loop
vertex 2.177773 0.000000 -1.132588
vertex 2.144996 0.000000 -0.850724
vertex 2.159791 0.000000 -0.899498
endloop
endfacet
facet normal 0.000000 1.000000 0.000000
outer loop
vertex 2.246927 0.000000 -0.430448
vertex 2.183818 0.000000 -0.655552
vertex 2.159791 0.000000 -0.700503
endloop
endfacet
facet normal 0.000000 1.000000 0.000000
outer loop
vertex 2.177773 0.000000 -1.132588
vertex 2.117158 0.000000 -1.082843
vertex 2.144996 0.000000 -0.850724
endloop
endfacet
facet normal 0.000000 1.000000 0.000000
outer loop
vertex 2.177772 0.000000 -0.467412
vertex 2.246927 0.000000 -0.430448
vertex 2.159791 0.000000 -0.700503
endloop
endfacet
facet normal 0.000000 1.000000 0.000000
outer loop
vertex 2.117158 0.000000 -1.082843
vertex 2.140000 0.000000 -0.800000
vertex 2.144996 0.000000 -0.850724
endloop
endfacet
facet normal 0.000000 1.000000 0.000000
outer loop
vertex 2.177772 0.000000 -0.467412
vertex 2.159791 0.000000 -0.700503
vertex 2.144996 0.000000 -0.749277
endloop
endfacet
facet normal 0.000000 1.000000 0.000000
outer loop
vertex 2.117158 0.000000 -1.082843
vertex 2.067413 0.000000 -1.022228
vertex 2.140000 0.000000 -0.800000
endloop
endfacet
facet normal 0.000000 1.000000 0.000000
outer loop
vertex 2.117157 0.000000 -0.517157
vertex 2.177772 0.000000 -0.467412
vertex 2.144996 0.000000 -0.749277
endloop
endfacet
facet normal 0.000000 1.000000 0.000000
outer loop
vertex 2.067413 0.000000 -1.022228
vertex 2.144996 0.000000 -0.749277
vertex 2.140000 0.000000 -0.800000
endloop
endfacet
facet normal 0.000000 1.000000 0.000000
outer loop
vertex 2.067413 0.000000 -1.022228
vertex 2.030448 0.000000 -0.953074
vertex 2.007686 0.000000 -0.878037
endloop
endfacet
facet normal 0.000000 1.000000 0.000000
outer loop
vertex 2.007686 0.000000 -0.878037
vertex 2.000000 0.000000 -0.800000
vertex 2.007686 0.000000 -0.721964
endloop
endfacet
facet normal 0.000000 1.000000 0.000000
outer loop
vertex 2.007686 0.000000 -0.721964
vertex 2.030448 0.000000 -0.646927
vertex 2.067412 0.000000 -0.577772
endloop
endfacet
facet normal 0.000000 1.000000 0.000000
outer loop
vertex 2.067412 0.000000 -0.577772
vertex 2.117157 0.000000 -0.517157
vertex 2.144996 0.000000 -0.749277
endloop
endfacet
facet normal 0.000000 1.000000 0.000000
outer loop
vertex 2.067413 0.000000 -1.022228
vertex 2.007686 0.000000 -0.878037
vertex 2.144996 0.000000 -0.749277
endloop
endfacet
facet normal 0.000000 1.000000 0.000000
outer loop
vertex 2.007686 0.000000 -0.878037
vertex 2.007686 0.000000 -0.721964
vertex 2.067412 0.000000 -0.577772
endloop
endfacet
facet normal 0.000000 1.000000 0.000000
outer loop
vertex 2.007686 0.000000 -0.878037
vertex 2.067412 0.000000 -0.577772
vertex 2.144996 0.000000 -0.749277
endloop
endfacet
facet normal 0.000000 -1.000000 0.000000
outer loop
vertex 2.400000 0.180000 -1.200000
vertex 2.246927 0.180000 -1.169552
vertex 2.321965 0.180000 -1.192314
endloop
endfacet
facet normal 0.000000 -1.000000 0.000000
outer loop
vertex 2.117158 0.180000 -1.082843
vertex 2.177773 0.180000 -1.132588
vertex 2.246927 0.180000 -1.169552
endloop
endfacet
facet normal 0.000000 -1.000000 0.000000
outer loop
vertex 2.030448 0.180000 -0.953074
vertex 2.067413 0.180000 -1.022228
vertex 2.117158 0.180000 -1.082843
endloop
endfacet
facet normal 0.000000 -1.000000 0.000000
outer loop
vertex 2.000000 0.180000 -0.800000
vertex 2.007686 0.180000 -0.878037
vertex 2.030448 0.180000 -0.953074
endloop
endfacet
facet normal 0.000000 -1.000000 -0.000000
outer loop
vertex 2.030448 0.180000 -0.646927
vertex 2.007686 0.180000 -0.721964
vertex 2.000000 0.180000 -0.800000
endloop
endfacet
facet normal 0.000000 -1.000000 -0.000001
outer loop
vertex 2.117157 0.180000 -0.517157
vertex 2.067412 0.180000 -0.577772
vertex 2.030448 0.180000 -0.646927
endloop
endfacet
facet normal 0.000000 -1.000000 0.000000
outer loop
vertex 2.246927 0.180000 -0.430448
vertex 2.177772 0.180000 -0.467412
vertex 2.117157 0.180000 -0.517157
endloop
endfacet
facet normal 0.000000 -1.000000 0.000000
outer loop
vertex 2.400000 0.180000 -0.400000
vertex 2.321964 0.180000 -0.407686
vertex 2.246927 0.180000 -0.430448
endloop
endfacet
facet normal 0.000000 -1.000000 0.000000
outer loop
vertex 2.553073 0.180000 -0.430448
vertex 2.478036 0.180000 -0.407686
vertex 2.400000 0.180000 -0.400000
endloop
endfacet
facet normal 0.000000 -1.000000 0.000000
outer loop
vertex 2.682843 0.180000 -0.517157
vertex 2.622228 0.180000 -0.467412
vertex 2.553073 0.180000 -0.430448
endloop
endfacet
facet normal 0.000000 -1.000000 -0.000002
outer loop
vertex 2.769552 0.180000 -0.646927
vertex 2.732588 0.180000 -0.577772
vertex 2.682843 0.180000 -0.517157
endloop
endfacet
facet normal 0.000000 -1.000000 0.000000
outer loop
vertex 2.800000 0.180000 -0.800000
vertex 2.792314 0.180000 -0.721964
vertex 2.769552 0.180000 -0.646927
endloop
endfacet
facet normal 0.000000 -1.000000 0.000000
outer loop
vertex 2.769552 0.180000 -0.953073
vertex 2.792314 0.180000 -0.878036
vertex 2.800000 0.180000 -0.800000
endloop
endfacet
facet normal 0.000000 -1.000000 0.000001
outer loop
vertex 2.682843 0.180000 -1.082843
vertex 2.732588 0.180000 -1.022228
vertex 2.769552 0.180000 -0.953073
endloop
endfacet
facet normal 0.000000 -1.000000 0.000000
outer loop
vertex 2.553073 0.180000 -1.169552
vertex 2.622228 0.180000 -1.132588
vertex 2.682843 0.180000 -1.082843
endloop
endfacet
facet normal 0.000000 -1.000000 0.000000
outer loop
vertex 2.400000 0.180000 -1.200000
vertex 2.478036 0.180000 -1.192314
vertex 2.553073 0.180000 -1.169552
endloop
endfacet
facet normal 0.000000 -1.000000 -0.000000
outer loop
vertex 2.400000 0.180000 -1.200000
vertex 2.117158 0.180000 -1.082843
vertex 2.246927 0.180000 -1.169552
endloop
endfacet
facet normal 0.000000 -1.000000 0.000000
outer loop
vertex 2.000000 0.180000 -0.800000
vertex 2.030448 0.180000 -0.953074
vertex 2.117158 0.180000 -1.082843
endloop
endfacet
facet normal 0.000000 -1.000000 0.000000
outer loop
vertex 2.117157 0.180000 -0.517157
vertex 2.030448 0.180000 -0.646927
vertex 2.000000 0.180000 -0.800000
endloop
endfacet
facet normal 0.000000 -1.000000 0.000000
outer loop
vertex 2.400000 0.180000 -0.400000
vertex 2.246927 0.180000 -0.430448
vertex 2.117157 0.180000 -0.517157
endloop
endfacet
facet normal 0.000000 -1.000000 0.000000
outer loop
vertex 2.682843 0.180000 -0.517157
vertex 2.553073 0.180000 -0.430448
vertex 2.400000 0.180000 -0.400000
endloop
endfacet
facet normal 0.000000 -1.000000 0.000000
outer loop
vertex 2.800000 0.180000 -0.800000
vertex 2.769552 0.180000 -0.646927
vertex 2.682843 0.180000 -0.517157
endloop
endfacet
facet normal 0.000000 -1.000000 -0.000000
outer loop
vertex 2.682843 0.180000 -1.082843
vertex 2.769552 0.180000 -0.953073
vertex 2.800000 0.180000 -0.800000
endloop
endfacet
facet normal 0.000000 -1.000000 0.000000
outer loop
vertex 2.400000 0.180000 -1.200000
vertex 2.553073 0.180000 -1.169552
vertex 2.682843 0.180000 -1.082843
endloop
endfacet
facet normal 0.000000 -1.000000 0.000000
outer loop
vertex 2.400000 0.180000 -1.200000
vertex 2.000000 0.180000 -0.800000
vertex 2.117158 0.180000 -1.082843
endloop
endfacet
facet normal 0.000000 -1.000000 -0.000000
outer loop
vertex 2.400000 0.180000 -0.400000
vertex 2.117157 0.180000 -0.517157
vertex 2.000000 0.180000 -0.800000
endloop
endfacet
facet normal 0.000000 -1.000000 -0.000000
outer loop
vertex 2.800000 0.180000 -0.800000
vertex 2.682843 0.180000 -0.517157
vertex 2.400000 0.180000 -0.400000
endloop
endfacet
facet normal 0.000000 -1.000000 -0.000000
outer loop
vertex 2.400000 0.180000 -1.200000
vertex 2.682843 0.180000 -1.082843
vertex 2.800000 0.180000 -0.800000
endloop
endfacet
facet normal 0.000000 -1.000000 0.000000
outer loop
vertex 2.400000 0.180000 -1.200000
vertex 2.400000 0.180000 -0.400000
vertex 2.000000 0.180000 -0.800000
endloop
endfacet
facet normal 0.000000 -1.000000 0.000000
outer loop
vertex 2.400000 0.180000 -1.200000
vertex 2.800000 0.180000 -0.800000
vertex 2.400000 0.180000 -0.400000
endloop
endfacet
facet normal -0.098017 0.000000 0.995185
outer loop
vertex 2.400000 0.000000 -1.200000
vertex 2.478036 0.000000 -1.192314
vertex 2.478036 0.180000 -1.192314
endloop
endfacet
facet normal -0.098019 0.000000 0.995185
outer loop
vertex 2.478036 0.180000 -1.192314
vertex 2.400000 0.180000 -1.200000
vertex 2.400000 0.000000 -1.200000
endloop
endfacet
facet normal -0.773009 0.000000 -0.634395
outer loop
vertex 2.732588 0.000000 -0.577772
vertex 2.682843 0.000000 -0.517157
vertex 2.682843 0.180000 -0.517157
endloop
endfacet
facet normal -0.773009 0.000000 -0.634395
outer loop
vertex 2.682843 0.180000 -0.517157
vertex 2.732588 0.180000 -0.577772
vertex 2.732588 0.000000 -0.577772
endloop
endfacet
facet normal 0.098015 0.000000 0.995185
outer loop
vertex 2.321965 0.000000 -1.192314
vertex 2.400000 0.000000 -1.200000
vertex 2.400000 0.180000 -1.200000
endloop
endfacet
facet normal 0.098019 0.000000 0.995184
outer loop
vertex 2.400000 0.180000 -1.200000
vertex 2.321965 0.180000 -1.192314
vertex 2.321965 0.000000 -1.192314
endloop
endfacet
facet normal 0.773011 0.000000 -0.634392
outer loop
vertex 2.117157 0.000000 -0.517157
vertex 2.067412 0.000000 -0.577772
vertex 2.067412 0.180000 -0.577772
endloop
endfacet
facet normal 0.773011 0.000000 -0.634392
outer loop
vertex 2.067412 0.180000 -0.577772
vertex 2.117157 0.180000 -0.517157
vertex 2.117157 0.000000 -0.517157
endloop
endfacet
facet normal -0.956940 0.000000 -0.290285
outer loop
vertex 2.792314 0.000000 -0.721964
vertex 2.769552 0.000000 -0.646927
vertex 2.769552 0.180000 -0.646927
endloop
endfacet
facet normal -0.956940 0.000000 -0.290285
outer loop
vertex 2.769552 0.180000 -0.646927
vertex 2.792314 0.180000 -0.721964
vertex 2.792314 0.000000 -0.721964
endloop
endfacet
facet normal 0.471397 0.000000 0.881921
outer loop
vertex 2.177773 0.000000 -1.132588
vertex 2.246927 0.000000 -1.169552
vertex 2.246927 0.180000 -1.169552
endloop
endfacet
facet normal 0.471397 0.000000 0.881921
outer loop
vertex 2.246927 0.180000 -1.169552
vertex 2.177773 0.180000 -1.132588
vertex 2.177773 0.000000 -1.132588
endloop
endfacet
facet normal 0.471397 0.000000 -0.881921
outer loop
vertex 2.246927 0.000000 -0.430448
vertex 2.177772 0.000000 -0.467412
vertex 2.177772 0.180000 -0.467412
endloop
endfacet
facet normal 0.471398 0.000000 -0.881921
outer loop
vertex 2.177772 0.180000 -0.467412
vertex 2.246927 0.180000 -0.430448
vertex 2.246927 0.000000 -0.430448
endloop
endfacet
facet normal -0.995185 0.000000 0.098017
outer loop
vertex 2.792314 0.000000 -0.878036
vertex 2.800000 0.000000 -0.800000
vertex 2.800000 0.180000 -0.800000
endloop
endfacet
facet normal -0.995185 0.000000 0.098017
outer loop
vertex 2.800000 0.180000 -0.800000
vertex 2.792314 0.180000 -0.878036
vertex 2.792314 0.000000 -0.878036
endloop
endfacet
facet normal 0.773011 0.000000 0.634393
outer loop
vertex 2.067413 0.000000 -1.022228
vertex 2.117158 0.000000 -1.082843
vertex 2.117158 0.180000 -1.082843
endloop
endfacet
facet normal 0.773011 0.000000 0.634393
outer loop
vertex 2.117158 0.180000 -1.082843
vertex 2.067413 0.180000 -1.022228
vertex 2.067413 0.000000 -1.022228
endloop
endfacet
facet normal 0.098018 0.000000 -0.995185
outer loop
vertex 2.400000 0.000000 -0.400000
vertex 2.321964 0.000000 -0.407686
vertex 2.321964 0.180000 -0.407686
endloop
endfacet
facet normal 0.098018 0.000000 -0.995185
outer loop
vertex 2.321964 0.180000 -0.407686
vertex 2.400000 0.180000 -0.400000
vertex 2.400000 0.000000 -0.400000
endloop
endfacet
facet normal -0.881922 0.000000 0.471396
outer loop
vertex 2.732588 0.000000 -1.022228
vertex 2.769552 0.000000 -0.953073
vertex 2.769552 0.180000 -0.953073
endloop
endfacet
facet normal -0.881922 0.000000 0.471396
outer loop
vertex 2.769552 0.180000 -0.953073
vertex 2.732588 0.180000 -1.022228
vertex 2.732588 0.000000 -1.022228
endloop
endfacet
facet normal 0.956940 0.000000 0.290285
outer loop
vertex 2.007686 0.000000 -0.878037
vertex 2.030448 0.000000 -0.953074
vertex 2.030448 0.180000 -0.953074
endloop
endfacet
facet normal 0.956940 0.000000 0.290285
outer loop
vertex 2.030448 0.180000 -0.953074
vertex 2.007686 0.180000 -0.878037
vertex 2.007686 0.000000 -0.878037
endloop
endfacet
facet normal -0.634395 0.000000 0.773009
outer loop
vertex 2.622228 0.000000 -1.132588
vertex 2.682843 0.000000 -1.082843
vertex 2.682843 0.180000 -1.082843
endloop
endfacet
facet normal -0.634393 0.000000 0.773011
outer loop
vertex 2.682843 0.180000 -1.082843
vertex 2.622228 0.180000 -1.132588
vertex 2.622228 0.000000 -1.132588
endloop
endfacet
facet normal -0.290284 0.000000 -0.956940
outer loop
vertex 2.553073 0.000000 -0.430448
vertex 2.478036 0.000000 -0.407686
vertex 2.478036 0.180000 -0.407686
endloop
endfacet
facet normal -0.290284 0.000000 -0.956940
outer loop
vertex 2.478036 0.180000 -0.407686
vertex 2.553073 0.180000 -0.430448
vertex 2.553073 0.000000 -0.430448
endloop
endfacet
facet normal 0.995185 0.000000 -0.098017
outer loop
vertex 2.007686 0.000000 -0.721964
vertex 2.000000 0.000000 -0.800000
vertex 2.000000 0.180000 -0.800000
endloop
endfacet
facet normal 0.995185 0.000000 -0.098017
outer loop
vertex 2.000000 0.180000 -0.800000
vertex 2.007686 0.180000 -0.721964
vertex 2.007686 0.000000 -0.721964
endloop
endfacet
facet normal -0.290283 0.000000 0.956941
outer loop
vertex 2.478036 0.000000 -1.192314
vertex 2.553073 0.000000 -1.169552
vertex 2.553073 0.180000 -1.169552
endloop
endfacet
facet normal -0.290285 0.000000 0.956940
outer loop
vertex 2.553073 0.180000 -1.169552
vertex 2.478036 0.180000 -1.192314
vertex 2.478036 0.000000 -1.192314
endloop
endfacet
facet normal -0.634393 0.000000 -0.773010
outer loop
vertex 2.682843 0.000000 -0.517157
vertex 2.622228 0.000000 -0.467412
vertex 2.622228 0.180000 -0.467412
endloop
endfacet
facet normal -0.634394 0.000000 -0.773010
outer loop
vertex 2.622228 0.180000 -0.467412
vertex 2.682843 0.180000 -0.517157
vertex 2.682843 0.000000 -0.517157
endloop
endfacet
facet normal 0.881922 0.000000 -0.471396
outer loop
vertex 2.067412 0.000000 -0.577772
vertex 2.030448 0.000000 -0.646927
vertex 2.030448 0.180000 -0.646927
endloop
endfacet
facet normal 0.881921 0.000000 -0.471396
outer loop
vertex 2.030448 0.180000 -0.646927
vertex 2.067412 0.180000 -0.577772
vertex 2.067412 0.000000 -0.577772
endloop
endfacet
facet normal -0.881921 0.000000 -0.471396
outer loop
vertex 2.769552 0.000000 -0.646927
vertex 2.732588 0.000000 -0.577772
vertex 2.732588 0.180000 -0.577772
endloop
endfacet
facet normal -0.881922 0.000000 -0.471396
outer loop
vertex 2.732588 0.180000 -0.577772
vertex 2.769552 0.180000 -0.646927
vertex 2.769552 0.000000 -0.646927
endloop
endfacet
facet normal 0.290281 0.000000 0.956941
outer loop
vertex 2.246927 0.000000 -1.169552
vertex 2.321965 0.000000 -1.192314
vertex 2.321965 0.180000 -1.192314
endloop
endfacet
facet normal 0.290283 0.000000 0.956941
outer loop
vertex 2.321965 0.180000 -1.192314
vertex 2.246927 0.180000 -1.169552
vertex 2.246927 0.000000 -1.169552
endloop
endfacet
facet normal 0.634393 0.000000 -0.773010
outer loop
vertex 2.177772 0.000000 -0.467412
vertex 2.117157 0.000000 -0.517157
vertex 2.117157 0.180000 -0.517157
endloop
endfacet
facet normal 0.634394 0.000000 -0.773010
outer loop
vertex 2.117157 0.180000 -0.517157
vertex 2.177772 0.180000 -0.467412
vertex 2.177772 0.000000 -0.467412
endloop
endfacet
facet normal -0.995185 0.000000 -0.098017
outer loop
vertex 2.800000 0.000000 -0.800000
vertex 2.792314 0.000000 -0.721964
vertex 2.792314 0.180000 -0.721964
endloop
endfacet
facet normal -0.995185 0.000000 -0.098017
outer loop
vertex 2.792314 0.180000 -0.721964
vertex 2.800000 0.180000 -0.800000
vertex 2.800000 0.000000 -0.800000
endloop
endfacet
facet normal 0.634391 0.000000 0.773012
outer loop
vertex 2.117158 0.000000 -1.082843
vertex 2.177773 0.000000 -1.132588
vertex 2.177773 0.180000 -1.132588
endloop
endfacet
facet normal 0.634391 0.000000 0.773012
outer loop
vertex 2.177773 0.180000 -1.132588
vertex 2.117158 0.180000 -1.082843
vertex 2.117158 0.000000 -1.082843
endloop
endfacet
facet normal 0.290285 0.000000 -0.956940
outer loop
vertex 2.321964 0.000000 -0.407686
vertex 2.246927 0.000000 -0.430448
vertex 2.246927 0.180000 -0.430448
endloop
endfacet
facet normal 0.290284 0.000000 -0.956940
outer loop
vertex 2.246927 0.180000 -0.430448
vertex 2.321964 0.180000 -0.407686
vertex 2.321964 0.000000 -0.407686
endloop
endfacet
facet normal -0.956940 0.000000 0.290285
outer loop
vertex 2.769552 0.000000 -0.953073
vertex 2.792314 0.000000 -0.878036
vertex 2.792314 0.180000 -0.878036
endloop
endfacet
facet normal -0.956940 0.000000 0.290285
outer loop
vertex 2.792314 0.180000 -0.878036
vertex 2.769552 0.180000 -0.953073
vertex 2.769552 0.000000 -0.953073
endloop
endfacet
facet normal 0.881920 0.000000 0.471398
outer loop
vertex 2.030448 0.000000 -0.953074
vertex 2.067413 0.000000 -1.022228
vertex 2.067413 0.180000 -1.022228
endloop
endfacet
facet normal 0.881919 0.000000 0.471400
outer loop
vertex 2.067413 0.180000 -1.022228
vertex 2.030448 0.180000 -0.953074
vertex 2.030448 0.000000 -0.953074
endloop
endfacet
facet normal -0.773009 0.000000 0.634395
outer loop
vertex 2.682843 0.000000 -1.082843
vertex 2.732588 0.000000 -1.022228
vertex 2.732588 0.180000 -1.022228
endloop
endfacet
facet normal -0.773008 0.000000 0.634396
outer loop
vertex 2.732588 0.180000 -1.022228
vertex 2.682843 0.180000 -1.082843
vertex 2.682843 0.000000 -1.082843
endloop
endfacet
facet normal -0.098016 0.000000 -0.995185
outer loop
vertex 2.478036 0.000000 -0.407686
vertex 2.400000 0.000000 -0.400000
vertex 2.400000 0.180000 -0.400000
endloop
endfacet
facet normal -0.098018 0.000000 -0.995185
outer loop
vertex 2.400000 0.180000 -0.400000
vertex 2.478036 0.180000 -0.407686
vertex 2.478036 0.000000 -0.407686
endloop
endfacet
facet normal 0.995184 0.000000 0.098020
outer loop
vertex 2.000000 0.000000 -0.800000
vertex 2.007686 0.000000 -0.878037
vertex 2.007686 0.180000 -0.878037
endloop
endfacet
facet normal 0.995184 0.000000 0.098020
outer loop
vertex 2.007686 0.180000 -0.878037
vertex 2.000000 0.180000 -0.800000
vertex 2.000000 0.000000 -0.800000
endloop
endfacet
facet normal -0.471397 0.000000 0.881921
outer loop
vertex 2.553073 0.000000 -1.169552
vertex 2.622228 0.000000 -1.132588
vertex 2.622228 0.180000 -1.132588
endloop
endfacet
facet normal -0.471397 0.000000 0.881921
outer loop
vertex 2.622228 0.180000 -1.132588
vertex 2.553073 0.180000 -1.169552
vertex 2.553073 0.000000 -1.169552
endloop
endfacet
facet normal -0.471397 0.000000 -0.881921
outer loop
vertex 2.622228 0.000000 -0.467412
vertex 2.553073 0.000000 -0.430448
vertex 2.553073 0.180000 -0.430448
endloop
endfacet
facet normal -0.471397 0.000000 -0.881921
outer loop
vertex 2.553073 0.180000 -0.430448
vertex 2.622228 0.180000 -0.467412
vertex 2.622228 0.000000 -0.467412
endloop
endfacet
facet normal 0.000000 1.000000 0.000000
outer loop
vertex 2.800000 0.000000 -0.800000
vertex 2.660000 0.000000 -0.800000
vertex 2.655004 0.000000 -0.749277
endloop
endfacet
facet normal 0.000000 1.000000 0.000000
outer loop
vertex 2.655004 0.000000 -0.749277
vertex 2.792314 0.000000 -0.721964
vertex 2.800000 0.000000 -0.800000
endloop
endfacet
endsolid Exported from Blender-2.74 (sub 0)
