solid Exported from Blender-2.74 (sub 0)
facet normal 0.098016 0.000000 -0.995185
outer loop
vertex 2.400000 0.000000 -2.000000
vertex 2.400000 0.300000 -2.000000
vertex 2.478036 0.300000 -1.992314
endloop
endfacet
facet normal 0.098016 0.000000 -0.995185
outer loop
vertex 2.478036 0.300000 -1.992314
vertex 2.478036 0.000000 -1.992314
vertex 2.400000 0.000000 -2.000000
endloop
endfacet
facet normal 0.290288 0.000000 -0.956939
outer loop
vertex 2.478036 0.000000 -1.992314
vertex 2.478036 0.300000 -1.992314
vertex 2.553073 0.300000 -1.969552
endloop
endfacet
facet normal 0.290284 0.000000 -0.956941
outer loop
vertex 2.553073 0.300000 -1.969552
vertex 2.553073 0.000000 -1.969552
vertex 2.478036 0.000000 -1.992314
endloop
endfacet
facet normal 0.471397 0.000000 -0.881921
outer loop
vertex 2.553073 0.000000 -1.969552
vertex 2.553073 0.300000 -1.969552
vertex 2.622228 0.300000 -1.932588
endloop
endfacet
facet normal 0.471393 0.000000 -0.881923
outer loop
vertex 2.622228 0.300000 -1.932588
vertex 2.622228 0.000000 -1.932588
vertex 2.553073 0.000000 -1.969552
endloop
endfacet
facet normal 0.634394 0.000000 -0.773010
outer loop
vertex 2.622228 0.000000 -1.932588
vertex 2.622228 0.300000 -1.932588
vertex 2.682843 0.300000 -1.882843
endloop
endfacet
facet normal 0.634394 0.000000 -0.773010
outer loop
vertex 2.682843 0.300000 -1.882843
vertex 2.682843 0.000000 -1.882843
vertex 2.622228 0.000000 -1.932588
endloop
endfacet
facet normal 0.773008 0.000000 -0.634396
outer loop
vertex 2.682843 0.000000 -1.882843
vertex 2.682843 0.300000 -1.882843
vertex 2.732588 0.300000 -1.822228
endloop
endfacet
facet normal 0.773010 0.000000 -0.634394
outer loop
vertex 2.732588 0.300000 -1.822228
vertex 2.732588 0.000000 -1.822228
vertex 2.682843 0.000000 -1.882843
endloop
endfacet
facet normal 0.881921 0.000000 -0.471398
outer loop
vertex 2.732588 0.000000 -1.822228
vertex 2.732588 0.300000 -1.822228
vertex 2.769552 0.300000 -1.753073
endloop
endfacet
facet normal 0.881922 0.000000 -0.471396
outer loop
vertex 2.769552 0.300000 -1.753073
vertex 2.769552 0.000000 -1.753073
vertex 2.732588 0.000000 -1.822228
endloop
endfacet
facet normal 0.956940 0.000000 -0.290285
outer loop
vertex 2.769552 0.000000 -1.753073
vertex 2.769552 0.300000 -1.753073
vertex 2.792314 0.300000 -1.678036
endloop
endfacet
facet normal 0.956941 0.000000 -0.290284
outer loop
vertex 2.792314 0.300000 -1.678036
vertex 2.792314 0.000000 -1.678036
vertex 2.769552 0.000000 -1.753073
endloop
endfacet
facet normal 0.995185 0.000000 -0.098017
outer loop
vertex 2.792314 0.000000 -1.678036
vertex 2.792314 0.300000 -1.678036
vertex 2.800000 0.300000 -1.600000
endloop
endfacet
facet normal 0.995185 0.000000 -0.098017
outer loop
vertex 2.800000 0.300000 -1.600000
vertex 2.800000 0.000000 -1.600000
vertex 2.792314 0.000000 -1.678036
endloop
endfacet
facet normal 0.995185 0.000000 0.098017
outer loop
vertex 2.800000 0.000000 -1.600000
vertex 2.800000 0.300000 -1.600000
vertex 2.792314 0.300000 -1.521964
endloop
endfacet
facet normal 0.995185 0.000000 0.098017
outer loop
vertex 2.792314 0.300000 -1.521964
vertex 2.792314 0.000000 -1.521964
vertex 2.800000 0.000000 -1.600000
endloop
endfacet
facet normal 0.956940 0.000000 0.290285
outer loop
vertex 2.792314 0.000000 -1.521964
vertex 2.792314 0.300000 -1.521964
vertex 2.769552 0.300000 -1.446927
endloop
endfacet
facet normal 0.956940 0.000000 0.290285
outer loop
vertex 2.769552 0.300000 -1.446927
vertex 2.769552 0.000000 -1.446927
vertex 2.792314 0.000000 -1.521964
endloop
endfacet
facet normal 0.881921 0.000000 0.471397
outer loop
vertex 2.769552 0.000000 -1.446927
vertex 2.769552 0.300000 -1.446927
vertex 2.732588 0.300000 -1.377772
endloop
endfacet
facet normal 0.881922 0.000000 0.471396
outer loop
vertex 2.732588 0.300000 -1.377772
vertex 2.732588 0.000000 -1.377772
vertex 2.769552 0.000000 -1.446927
endloop
endfacet
facet normal 0.773010 0.000000 0.634394
outer loop
vertex 2.732588 0.000000 -1.377772
vertex 2.732588 0.300000 -1.377772
vertex 2.682843 0.300000 -1.317157
endloop
endfacet
facet normal 0.773009 0.000000 0.634395
outer loop
vertex 2.682843 0.300000 -1.317157
vertex 2.682843 0.000000 -1.317157
vertex 2.732588 0.000000 -1.377772
endloop
endfacet
facet normal 0.634393 0.000000 0.773011
outer loop
vertex 2.682843 0.000000 -1.317157
vertex 2.682843 0.300000 -1.317157
vertex 2.622228 0.300000 -1.267412
endloop
endfacet
facet normal 0.634394 0.000000 0.773010
outer loop
vertex 2.622228 0.300000 -1.267412
vertex 2.622228 0.000000 -1.267412
vertex 2.682843 0.000000 -1.317157
endloop
endfacet
facet normal 0.471395 0.000000 0.881922
outer loop
vertex 2.622228 0.000000 -1.267412
vertex 2.622228 0.300000 -1.267412
vertex 2.553073 0.300000 -1.230448
endloop
endfacet
facet normal 0.471399 0.000000 0.881920
outer loop
vertex 2.553073 0.300000 -1.230448
vertex 2.553073 0.000000 -1.230448
vertex 2.622228 0.000000 -1.267412
endloop
endfacet
facet normal 0.290281 0.000000 0.956941
outer loop
vertex 2.553073 0.000000 -1.230448
vertex 2.553073 0.300000 -1.230448
vertex 2.478036 0.300000 -1.207686
endloop
endfacet
facet normal 0.290286 0.000000 0.956940
outer loop
vertex 2.478036 0.300000 -1.207686
vertex 2.478036 0.000000 -1.207686
vertex 2.553073 0.000000 -1.230448
endloop
endfacet
facet normal 0.098016 0.000000 0.995185
outer loop
vertex 2.478036 0.000000 -1.207686
vertex 2.478036 0.300000 -1.207686
vertex 2.400000 0.300000 -1.200000
endloop
endfacet
facet normal 0.098019 0.000000 0.995185
outer loop
vertex 2.400000 0.300000 -1.200000
vertex 2.400000 0.000000 -1.200000
vertex 2.478036 0.000000 -1.207686
endloop
endfacet
facet normal -0.098019 0.000000 0.995185
outer loop
vertex 2.400000 0.000000 -1.200000
vertex 2.400000 0.300000 -1.200000
vertex 2.321964 0.300000 -1.207686
endloop
endfacet
facet normal -0.098016 0.000000 0.995185
outer loop
vertex 2.321964 0.300000 -1.207686
vertex 2.321964 0.000000 -1.207686
vertex 2.400000 0.000000 -1.200000
endloop
endfacet
facet normal -0.290286 0.000000 0.956940
outer loop
vertex 2.321964 0.000000 -1.207686
vertex 2.321964 0.300000 -1.207686
vertex 2.246927 0.300000 -1.230448
endloop
endfacet
facet normal -0.290284 0.000000 0.956941
outer loop
vertex 2.246927 0.300000 -1.230448
vertex 2.246927 0.000000 -1.230448
vertex 2.321964 0.000000 -1.207686
endloop
endfacet
facet normal -0.471397 0.000000 0.881921
outer loop
vertex 2.246927 0.000000 -1.230448
vertex 2.246927 0.300000 -1.230448
vertex 2.177772 0.300000 -1.267412
endloop
endfacet
facet normal -0.471399 0.000000 0.881920
outer loop
vertex 2.177772 0.300000 -1.267412
vertex 2.177772 0.000000 -1.267412
vertex 2.246927 0.000000 -1.230448
endloop
endfacet
facet normal -0.634394 0.000000 0.773010
outer loop
vertex 2.177772 0.000000 -1.267412
vertex 2.177772 0.300000 -1.267412
vertex 2.117157 0.300000 -1.317158
endloop
endfacet
facet normal -0.634393 0.000000 0.773011
outer loop
vertex 2.117157 0.300000 -1.317158
vertex 2.117157 0.000000 -1.317158
vertex 2.177772 0.000000 -1.267412
endloop
endfacet
facet normal -0.773010 0.000000 0.634393
outer loop
vertex 2.117157 0.000000 -1.317158
vertex 2.117157 0.300000 -1.317158
vertex 2.067412 0.300000 -1.377772
endloop
endfacet
facet normal -0.773012 0.000000 0.634391
outer loop
vertex 2.067412 0.300000 -1.377772
vertex 2.067412 0.000000 -1.377772
vertex 2.117157 0.000000 -1.317158
endloop
endfacet
facet normal -0.881921 0.000000 0.471397
outer loop
vertex 2.067412 0.000000 -1.377772
vertex 2.067412 0.300000 -1.377772
vertex 2.030448 0.300000 -1.446927
endloop
endfacet
facet normal -0.881921 0.000000 0.471397
outer loop
vertex 2.030448 0.300000 -1.446927
vertex 2.030448 0.000000 -1.446927
vertex 2.067412 0.000000 -1.377772
endloop
endfacet
facet normal -0.956940 0.000000 0.290285
outer loop
vertex 2.030448 0.000000 -1.446927
vertex 2.030448 0.300000 -1.446927
vertex 2.007686 0.300000 -1.521964
endloop
endfacet
facet normal -0.956940 0.000000 0.290285
outer loop
vertex 2.007686 0.300000 -1.521964
vertex 2.007686 0.000000 -1.521964
vertex 2.030448 0.000000 -1.446927
endloop
endfacet
facet normal -0.995185 0.000000 0.098017
outer loop
vertex 2.007686 0.000000 -1.521964
vertex 2.007686 0.300000 -1.521964
vertex 2.000000 0.300000 -1.600000
endloop
endfacet
facet normal -0.995185 0.000000 0.098017
outer loop
vertex 2.000000 0.300000 -1.600000
vertex 2.000000 0.000000 -1.600000
vertex 2.007686 0.000000 -1.521964
endloop
endfacet
facet normal -0.995184 0.000000 -0.098020
outer loop
vertex 2.000000 0.000000 -1.600000
vertex 2.000000 0.300000 -1.600000
vertex 2.007686 0.300000 -1.678037
endloop
endfacet
facet normal -0.995184 0.000000 -0.098020
outer loop
vertex 2.007686 0.300000 -1.678037
vertex 2.007686 0.000000 -1.678037
vertex 2.000000 0.000000 -1.600000
endloop
endfacet
facet normal -0.956940 0.000000 -0.290285
outer loop
vertex 2.007686 0.000000 -1.678037
vertex 2.007686 0.300000 -1.678037
vertex 2.030448 0.300000 -1.753074
endloop
endfacet
facet normal -0.956941 0.000000 -0.290284
outer loop
vertex 2.030448 0.300000 -1.753074
vertex 2.030448 0.000000 -1.753074
vertex 2.007686 0.000000 -1.678037
endloop
endfacet
facet normal -0.881920 0.000000 -0.471400
outer loop
vertex 2.030448 0.000000 -1.753074
vertex 2.030448 0.300000 -1.753074
vertex 2.067413 0.300000 -1.822229
endloop
endfacet
facet normal -0.881921 0.000000 -0.471398
outer loop
vertex 2.067413 0.300000 -1.822229
vertex 2.067413 0.000000 -1.822229
vertex 2.030448 0.000000 -1.753074
endloop
endfacet
facet normal -0.773011 0.000000 -0.634392
outer loop
vertex 2.067413 0.000000 -1.822229
vertex 2.067413 0.300000 -1.822229
vertex 2.117158 0.300000 -1.882843
endloop
endfacet
facet normal -0.773009 0.000000 -0.634395
outer loop
vertex 2.117158 0.300000 -1.882843
vertex 2.117158 0.000000 -1.882843
vertex 2.067413 0.000000 -1.822229
endloop
endfacet
facet normal -0.634393 0.000000 -0.773011
outer loop
vertex 2.117158 0.000000 -1.882843
vertex 2.117158 0.300000 -1.882843
vertex 2.177773 0.300000 -1.932588
endloop
endfacet
facet normal -0.634390 0.000000 -0.773013
outer loop
vertex 2.177773 0.300000 -1.932588
vertex 2.177773 0.000000 -1.932588
vertex 2.117158 0.000000 -1.882843
endloop
endfacet
facet normal -0.471397 0.000000 -0.881921
outer loop
vertex 2.177773 0.000000 -1.932588
vertex 2.177773 0.300000 -1.932588
vertex 2.246927 0.300000 -1.969552
endloop
endfacet
facet normal -0.471393 0.000000 -0.881923
outer loop
vertex 2.246927 0.300000 -1.969552
vertex 2.246927 0.000000 -1.969552
vertex 2.177773 0.000000 -1.932588
endloop
endfacet
facet normal 0.000000 1.000000 0.000003
outer loop
vertex 2.478036 0.300000 -1.992314
vertex 2.622228 0.300000 -1.932588
vertex 2.553073 0.300000 -1.969552
endloop
endfacet
facet normal 0.000000 1.000000 0.000000
outer loop
vertex 2.732588 0.300000 -1.822228
vertex 2.682843 0.300000 -1.882843
vertex 2.622228 0.300000 -1.932588
endloop
endfacet
facet normal 0.000000 1.000000 0.000002
outer loop
vertex 2.792314 0.300000 -1.678036
vertex 2.769552 0.300000 -1.753073
vertex 2.732588 0.300000 -1.822228
endloop
endfacet
facet normal 0.000000 1.000000 0.000000
outer loop
vertex 2.792314 0.300000 -1.521964
vertex 2.800000 0.300000 -1.600000
vertex 2.792314 0.300000 -1.678036
endloop
endfacet
facet normal 0.000000 1.000000 -0.000002
outer loop
vertex 2.732588 0.300000 -1.377772
vertex 2.769552 0.300000 -1.446927
vertex 2.792314 0.300000 -1.521964
endloop
endfacet
facet normal 0.000000 1.000000 0.000000
outer loop
vertex 2.622228 0.300000 -1.267412
vertex 2.682843 0.300000 -1.317157
vertex 2.732588 0.300000 -1.377772
endloop
endfacet
facet normal 0.000000 1.000000 -0.000003
outer loop
vertex 2.478036 0.300000 -1.207686
vertex 2.553073 0.300000 -1.230448
vertex 2.622228 0.300000 -1.267412
endloop
endfacet
facet normal 0.000000 1.000000 -0.000003
outer loop
vertex 2.321964 0.300000 -1.207686
vertex 2.400000 0.300000 -1.200000
vertex 2.478036 0.300000 -1.207686
endloop
endfacet
facet normal 0.000000 1.000000 -0.000003
outer loop
vertex 2.177772 0.300000 -1.267412
vertex 2.246927 0.300000 -1.230448
vertex 2.321964 0.300000 -1.207686
endloop
endfacet
facet normal 0.000000 1.000000 0.000003
outer loop
vertex 2.067412 0.300000 -1.377772
vertex 2.117157 0.300000 -1.317158
vertex 2.177772 0.300000 -1.267412
endloop
endfacet
facet normal 0.000000 1.000000 -0.000002
outer loop
vertex 2.007686 0.300000 -1.521964
vertex 2.030448 0.300000 -1.446927
vertex 2.067412 0.300000 -1.377772
endloop
endfacet
facet normal 0.000000 1.000000 0.000000
outer loop
vertex 2.007686 0.300000 -1.678037
vertex 2.000000 0.300000 -1.600000
vertex 2.007686 0.300000 -1.521964
endloop
endfacet
facet normal 0.000000 1.000000 0.000000
outer loop
vertex 2.067413 0.300000 -1.822229
vertex 2.030448 0.300000 -1.753074
vertex 2.007686 0.300000 -1.678037
endloop
endfacet
facet normal 0.000000 1.000000 -0.000002
outer loop
vertex 2.177773 0.300000 -1.932588
vertex 2.117158 0.300000 -1.882843
vertex 2.067413 0.300000 -1.822229
endloop
endfacet
facet normal 0.000000 1.000000 0.000003
outer loop
vertex 2.321965 0.300000 -1.992314
vertex 2.246927 0.300000 -1.969552
vertex 2.177773 0.300000 -1.932588
endloop
endfacet
facet normal 0.000000 1.000000 -0.000003
outer loop
vertex 2.478036 0.300000 -1.992314
vertex 2.400000 0.300000 -2.000000
vertex 2.321965 0.300000 -1.992314
endloop
endfacet
facet normal 0.000000 1.000000 0.000000
outer loop
vertex 2.478036 0.300000 -1.992314
vertex 2.732588 0.300000 -1.822228
vertex 2.622228 0.300000 -1.932588
endloop
endfacet
facet normal 0.000000 1.000000 0.000000
outer loop
vertex 2.792314 0.300000 -1.521964
vertex 2.792314 0.300000 -1.678036
vertex 2.732588 0.300000 -1.822228
endloop
endfacet
facet normal 0.000000 1.000000 0.000000
outer loop
vertex 2.622228 0.300000 -1.267412
vertex 2.732588 0.300000 -1.377772
vertex 2.792314 0.300000 -1.521964
endloop
endfacet
facet normal 0.000000 1.000000 0.000000
outer loop
vertex 2.321964 0.300000 -1.207686
vertex 2.478036 0.300000 -1.207686
vertex 2.622228 0.300000 -1.267412
endloop
endfacet
facet normal 0.000000 1.000000 0.000001
outer loop
vertex 2.067412 0.300000 -1.377772
vertex 2.177772 0.300000 -1.267412
vertex 2.321964 0.300000 -1.207686
endloop
endfacet
facet normal 0.000000 1.000000 0.000000
outer loop
vertex 2.007686 0.300000 -1.678037
vertex 2.007686 0.300000 -1.521964
vertex 2.067412 0.300000 -1.377772
endloop
endfacet
facet normal 0.000000 1.000000 0.000000
outer loop
vertex 2.177773 0.300000 -1.932588
vertex 2.067413 0.300000 -1.822229
vertex 2.007686 0.300000 -1.678037
endloop
endfacet
facet normal 0.000000 1.000000 -0.000001
outer loop
vertex 2.478036 0.300000 -1.992314
vertex 2.321965 0.300000 -1.992314
vertex 2.177773 0.300000 -1.932588
endloop
endfacet
facet normal 0.000000 1.000000 0.000000
outer loop
vertex 2.478036 0.300000 -1.992314
vertex 2.792314 0.300000 -1.521964
vertex 2.732588 0.300000 -1.822228
endloop
endfacet
facet normal 0.000000 1.000000 0.000000
outer loop
vertex 2.321964 0.300000 -1.207686
vertex 2.622228 0.300000 -1.267412
vertex 2.792314 0.300000 -1.521964
endloop
endfacet
facet normal 0.000000 1.000000 0.000000
outer loop
vertex 2.007686 0.300000 -1.678037
vertex 2.067412 0.300000 -1.377772
vertex 2.321964 0.300000 -1.207686
endloop
endfacet
facet normal 0.000000 1.000000 0.000000
outer loop
vertex 2.478036 0.300000 -1.992314
vertex 2.177773 0.300000 -1.932588
vertex 2.007686 0.300000 -1.678037
endloop
endfacet
facet normal 0.000000 1.000000 -0.000000
outer loop
vertex 2.478036 0.300000 -1.992314
vertex 2.321964 0.300000 -1.207686
vertex 2.792314 0.300000 -1.521964
endloop
endfacet
facet normal 0.000000 1.000000 0.000000
outer loop
vertex 2.478036 0.300000 -1.992314
vertex 2.007686 0.300000 -1.678037
vertex 2.321964 0.300000 -1.207686
endloop
endfacet
facet normal -0.098017 0.000000 -0.995185
outer loop
vertex 2.400000 0.300000 -2.000000
vertex 2.400000 0.000000 -2.000000
vertex 2.321965 0.000000 -1.992314
endloop
endfacet
facet normal -0.098017 0.000000 -0.995185
outer loop
vertex 2.321965 0.000000 -1.992314
vertex 2.321965 0.300000 -1.992314
vertex 2.400000 0.300000 -2.000000
endloop
endfacet
facet normal -0.290288 0.000000 -0.956939
outer loop
vertex 2.246927 0.000000 -1.969552
vertex 2.246927 0.300000 -1.969552
vertex 2.321965 0.300000 -1.992314
endloop
endfacet
facet normal -0.290279 0.000000 -0.956942
outer loop
vertex 2.321965 0.300000 -1.992314
vertex 2.321965 0.000000 -1.992314
vertex 2.246927 0.000000 -1.969552
endloop
endfacet
facet normal 0.000000 0.000000 0.000000
outer loop
vertex 2.246927 0.000000 -1.969552
vertex 2.321965 0.000000 -1.992314
vertex 2.321965 0.000000 -1.992314
endloop
endfacet
facet normal 0.000000 0.000000 0.000000
outer loop
vertex 2.321965 0.000000 -1.992314
vertex 2.246927 0.000000 -1.969552
vertex 2.246927 0.000000 -1.969552
endloop
endfacet
facet normal 0.000000 0.000000 0.000000
outer loop
vertex 2.117158 0.000000 -1.882843
vertex 2.177773 0.000000 -1.932588
vertex 2.177773 0.000000 -1.932588
endloop
endfacet
facet normal 0.000000 0.000000 0.000000
outer loop
vertex 2.177773 0.000000 -1.932588
vertex 2.117158 0.000000 -1.882843
vertex 2.117158 0.000000 -1.882843
endloop
endfacet
facet normal 0.000000 0.000000 0.000000
outer loop
vertex 2.177772 0.000000 -1.267412
vertex 2.117157 0.000000 -1.317158
vertex 2.117157 0.000000 -1.317158
endloop
endfacet
facet normal 0.000000 0.000000 0.000000
outer loop
vertex 2.117157 0.000000 -1.317158
vertex 2.177772 0.000000 -1.267412
vertex 2.177772 0.000000 -1.267412
endloop
endfacet
facet normal 0.000000 0.000000 0.000000
outer loop
vertex 2.800000 0.000000 -1.600000
vertex 2.792314 0.000000 -1.521964
vertex 2.792314 0.000000 -1.521964
endloop
endfacet
facet normal 0.000000 0.000000 0.000000
outer loop
vertex 2.792314 0.000000 -1.521964
vertex 2.800000 0.000000 -1.600000
vertex 2.800000 0.000000 -1.600000
endloop
endfacet
facet normal 0.000000 0.000000 0.000000
outer loop
vertex 2.030448 0.000000 -1.446927
vertex 2.007686 0.000000 -1.521964
vertex 2.007686 0.000000 -1.521964
endloop
endfacet
facet normal 0.000000 0.000000 0.000000
outer loop
vertex 2.007686 0.000000 -1.521964
vertex 2.030448 0.000000 -1.446927
vertex 2.030448 0.000000 -1.446927
endloop
endfacet
facet normal 0.000000 0.000000 0.000000
outer loop
vertex 2.732588 0.000000 -1.377772
vertex 2.682843 0.000000 -1.317157
vertex 2.682843 0.000000 -1.317157
endloop
endfacet
facet normal 0.000000 0.000000 0.000000
outer loop
vertex 2.682843 0.000000 -1.317157
vertex 2.732588 0.000000 -1.377772
vertex 2.732588 0.000000 -1.377772
endloop
endfacet
facet normal 0.000000 0.000000 0.000000
outer loop
vertex 2.007686 0.000000 -1.678037
vertex 2.030448 0.000000 -1.753074
vertex 2.030448 0.000000 -1.753074
endloop
endfacet
facet normal 0.000000 0.000000 0.000000
outer loop
vertex 2.030448 0.000000 -1.753074
vertex 2.007686 0.000000 -1.678037
vertex 2.007686 0.000000 -1.678037
endloop
endfacet
facet normal 0.000000 0.000000 0.000000
outer loop
vertex 2.622228 0.000000 -1.932588
vertex 2.682843 0.000000 -1.882843
vertex 2.682843 0.000000 -1.882843
endloop
endfacet
facet normal 0.000000 0.000000 0.000000
outer loop
vertex 2.682843 0.000000 -1.882843
vertex 2.622228 0.000000 -1.932588
vertex 2.622228 0.000000 -1.932588
endloop
endfacet
facet normal 0.000000 0.000000 0.000000
outer loop
vertex 2.553073 0.000000 -1.230448
vertex 2.478036 0.000000 -1.207686
vertex 2.478036 0.000000 -1.207686
endloop
endfacet
facet normal 0.000000 0.000000 0.000000
outer loop
vertex 2.478036 0.000000 -1.207686
vertex 2.553073 0.000000 -1.230448
vertex 2.553073 0.000000 -1.230448
endloop
endfacet
facet normal 0.000000 0.000000 0.000000
outer loop
vertex 2.117158 0.000000 -1.882843
vertex 2.177773 0.000000 -1.932588
vertex 2.177773 0.000000 -1.932588
endloop
endfacet
facet normal 0.000000 0.000000 0.000000
outer loop
vertex 2.177773 0.000000 -1.932588
vertex 2.117158 0.000000 -1.882843
vertex 2.117158 0.000000 -1.882843
endloop
endfacet
facet normal 0.000000 0.000000 0.000000
outer loop
vertex 2.321964 0.000000 -1.207686
vertex 2.246927 0.000000 -1.230448
vertex 2.246927 0.000000 -1.230448
endloop
endfacet
facet normal 0.000000 0.000000 0.000000
outer loop
vertex 2.246927 0.000000 -1.230448
vertex 2.321964 0.000000 -1.207686
vertex 2.321964 0.000000 -1.207686
endloop
endfacet
facet normal 0.000000 0.000000 0.000000
outer loop
vertex 2.769552 0.000000 -1.753073
vertex 2.792314 0.000000 -1.678036
vertex 2.792314 0.000000 -1.678036
endloop
endfacet
facet normal 0.000000 0.000000 0.000000
outer loop
vertex 2.792314 0.000000 -1.678036
vertex 2.769552 0.000000 -1.753073
vertex 2.769552 0.000000 -1.753073
endloop
endfacet
facet normal 0.000000 0.000000 0.000000
outer loop
vertex 2.321965 0.000000 -1.992314
vertex 2.400000 0.000000 -2.000000
vertex 2.400000 0.000000 -2.000000
endloop
endfacet
facet normal 0.000000 0.000000 0.000000
outer loop
vertex 2.400000 0.000000 -2.000000
vertex 2.321965 0.000000 -1.992314
vertex 2.321965 0.000000 -1.992314
endloop
endfacet
facet normal 0.000000 0.000000 0.000000
outer loop
vertex 2.117157 0.000000 -1.317158
vertex 2.067412 0.000000 -1.377772
vertex 2.067412 0.000000 -1.377772
endloop
endfacet
facet normal 0.000000 0.000000 0.000000
outer loop
vertex 2.067412 0.000000 -1.377772
vertex 2.117157 0.000000 -1.317158
vertex 2.117157 0.000000 -1.317158
endloop
endfacet
facet normal 0.000000 0.000000 0.000000
outer loop
vertex 2.792314 0.000000 -1.521964
vertex 2.769552 0.000000 -1.446927
vertex 2.769552 0.000000 -1.446927
endloop
endfacet
facet normal 0.000000 0.000000 0.000000
outer loop
vertex 2.769552 0.000000 -1.446927
vertex 2.792314 0.000000 -1.521964
vertex 2.792314 0.000000 -1.521964
endloop
endfacet
facet normal 0.000000 0.000000 0.000000
outer loop
vertex 2.007686 0.000000 -1.521964
vertex 2.000000 0.000000 -1.600000
vertex 2.000000 0.000000 -1.600000
endloop
endfacet
facet normal 0.000000 0.000000 0.000000
outer loop
vertex 2.000000 0.000000 -1.600000
vertex 2.007686 0.000000 -1.521964
vertex 2.007686 0.000000 -1.521964
endloop
endfacet
facet normal 0.000000 0.000000 0.000000
outer loop
vertex 2.478036 0.000000 -1.992314
vertex 2.553073 0.000000 -1.969552
vertex 2.553073 0.000000 -1.969552
endloop
endfacet
facet normal 0.000000 0.000000 0.000000
outer loop
vertex 2.553073 0.000000 -1.969552
vertex 2.478036 0.000000 -1.992314
vertex 2.478036 0.000000 -1.992314
endloop
endfacet
facet normal 0.000000 0.000000 0.000000
outer loop
vertex 2.682843 0.000000 -1.317157
vertex 2.622228 0.000000 -1.267412
vertex 2.622228 0.000000 -1.267412
endloop
endfacet
facet normal 0.000000 0.000000 0.000000
outer loop
vertex 2.622228 0.000000 -1.267412
vertex 2.682843 0.000000 -1.317157
vertex 2.682843 0.000000 -1.317157
endloop
endfacet
facet normal 0.000000 0.000000 0.000000
outer loop
vertex 2.030448 0.000000 -1.753074
vertex 2.067413 0.000000 -1.822229
vertex 2.067413 0.000000 -1.822229
endloop
endfacet
facet normal 0.000000 0.000000 0.000000
outer loop
vertex 2.067413 0.000000 -1.822229
vertex 2.030448 0.000000 -1.753074
vertex 2.030448 0.000000 -1.753074
endloop
endfacet
facet normal 0.000000 0.000000 0.000000
outer loop
vertex 2.682843 0.000000 -1.882843
vertex 2.732588 0.000000 -1.822228
vertex 2.732588 0.000000 -1.822228
endloop
endfacet
facet normal 0.000000 0.000000 0.000000
outer loop
vertex 2.732588 0.000000 -1.822228
vertex 2.682843 0.000000 -1.882843
vertex 2.682843 0.000000 -1.882843
endloop
endfacet
facet normal 0.000000 0.000000 0.000000
outer loop
vertex 2.478036 0.000000 -1.207686
vertex 2.400000 0.000000 -1.200000
vertex 2.400000 0.000000 -1.200000
endloop
endfacet
facet normal 0.000000 0.000000 0.000000
outer loop
vertex 2.400000 0.000000 -1.200000
vertex 2.478036 0.000000 -1.207686
vertex 2.478036 0.000000 -1.207686
endloop
endfacet
facet normal 0.000000 0.000000 0.000000
outer loop
vertex 2.177773 0.000000 -1.932588
vertex 2.246927 0.000000 -1.969552
vertex 2.246927 0.000000 -1.969552
endloop
endfacet
facet normal 0.000000 0.000000 0.000000
outer loop
vertex 2.246927 0.000000 -1.969552
vertex 2.177773 0.000000 -1.932588
vertex 2.177773 0.000000 -1.932588
endloop
endfacet
facet normal 0.000000 0.000000 0.000000
outer loop
vertex 2.246927 0.000000 -1.230448
vertex 2.177772 0.000000 -1.267412
vertex 2.177772 0.000000 -1.267412
endloop
endfacet
facet normal 0.000000 0.000000 0.000000
outer loop
vertex 2.177772 0.000000 -1.267412
vertex 2.246927 0.000000 -1.230448
vertex 2.246927 0.000000 -1.230448
endloop
endfacet
facet normal 0.000000 0.000000 0.000000
outer loop
vertex 2.400000 0.000000 -2.000000
vertex 2.478036 0.000000 -1.992314
vertex 2.478036 0.000000 -1.992314
endloop
endfacet
facet normal 0.000000 0.000000 0.000000
outer loop
vertex 2.478036 0.000000 -1.992314
vertex 2.400000 0.000000 -2.000000
vertex 2.400000 0.000000 -2.000000
endloop
endfacet
facet normal 0.000000 0.000000 0.000000
outer loop
vertex 2.792314 0.000000 -1.678036
vertex 2.800000 0.000000 -1.600000
vertex 2.800000 0.000000 -1.600000
endloop
endfacet
facet normal 0.000000 0.000000 0.000000
outer loop
vertex 2.800000 0.000000 -1.600000
vertex 2.792314 0.000000 -1.678036
vertex 2.792314 0.000000 -1.678036
endloop
endfacet
facet normal 0.000000 0.000000 0.000000
outer loop
vertex 2.067412 0.000000 -1.377772
vertex 2.030448 0.000000 -1.446927
vertex 2.030448 0.000000 -1.446927
endloop
endfacet
facet normal 0.000000 0.000000 0.000000
outer loop
vertex 2.030448 0.000000 -1.446927
vertex 2.067412 0.000000 -1.377772
vertex 2.067412 0.000000 -1.377772
endloop
endfacet
facet normal 0.000000 0.000000 0.000000
outer loop
vertex 2.769552 0.000000 -1.446927
vertex 2.732588 0.000000 -1.377772
vertex 2.732588 0.000000 -1.377772
endloop
endfacet
facet normal 0.000000 0.000000 0.000000
outer loop
vertex 2.732588 0.000000 -1.377772
vertex 2.769552 0.000000 -1.446927
vertex 2.769552 0.000000 -1.446927
endloop
endfacet
facet normal 0.000000 0.000000 0.000000
outer loop
vertex 2.000000 0.000000 -1.600000
vertex 2.007686 0.000000 -1.678037
vertex 2.007686 0.000000 -1.678037
endloop
endfacet
facet normal 0.000000 0.000000 0.000000
outer loop
vertex 2.007686 0.000000 -1.678037
vertex 2.000000 0.000000 -1.600000
vertex 2.000000 0.000000 -1.600000
endloop
endfacet
facet normal 0.000000 0.000000 0.000000
outer loop
vertex 2.553073 0.000000 -1.969552
vertex 2.622228 0.000000 -1.932588
vertex 2.622228 0.000000 -1.932588
endloop
endfacet
facet normal 0.000000 0.000000 0.000000
outer loop
vertex 2.622228 0.000000 -1.932588
vertex 2.553073 0.000000 -1.969552
vertex 2.553073 0.000000 -1.969552
endloop
endfacet
facet normal 0.000000 0.000000 0.000000
outer loop
vertex 2.622228 0.000000 -1.267412
vertex 2.553073 0.000000 -1.230448
vertex 2.553073 0.000000 -1.230448
endloop
endfacet
facet normal 0.000000 0.000000 0.000000
outer loop
vertex 2.553073 0.000000 -1.230448
vertex 2.622228 0.000000 -1.267412
vertex 2.622228 0.000000 -1.267412
endloop
endfacet
facet normal 0.000000 0.000000 0.000000
outer loop
vertex 2.067413 0.000000 -1.822229
vertex 2.117158 0.000000 -1.882843
vertex 2.117158 0.000000 -1.882843
endloop
endfacet
facet normal 0.000000 0.000000 0.000000
outer loop
vertex 2.117158 0.000000 -1.882843
vertex 2.067413 0.000000 -1.822229
vertex 2.067413 0.000000 -1.822229
endloop
endfacet
facet normal 0.000000 0.000000 0.000000
outer loop
vertex 2.400000 0.000000 -1.200000
vertex 2.321964 0.000000 -1.207686
vertex 2.321964 0.000000 -1.207686
endloop
endfacet
facet normal 0.000000 0.000000 0.000000
outer loop
vertex 2.321964 0.000000 -1.207686
vertex 2.400000 0.000000 -1.200000
vertex 2.400000 0.000000 -1.200000
endloop
endfacet
facet normal 0.000000 0.000000 0.000000
outer loop
vertex 2.732588 0.000000 -1.822228
vertex 2.769552 0.000000 -1.753073
vertex 2.769552 0.000000 -1.753073
endloop
endfacet
facet normal 0.000000 0.000000 0.000000
outer loop
vertex 2.769552 0.000000 -1.753073
vertex 2.732588 0.000000 -1.822228
vertex 2.732588 0.000000 -1.822228
endloop
endfacet
facet normal 0.000000 0.000000 0.000000
outer loop
vertex 2.246927 0.000000 -1.969552
vertex 2.321965 0.000000 -1.992314
vertex 2.321965 0.000000 -1.992314
endloop
endfacet
facet normal 0.000000 0.000000 0.000000
outer loop
vertex 2.321965 0.000000 -1.992314
vertex 2.246927 0.000000 -1.969552
vertex 2.246927 0.000000 -1.969552
endloop
endfacet
facet normal 0.000000 0.000000 0.000000
outer loop
vertex 2.321964 0.000000 -1.207686
vertex 2.246927 0.000000 -1.230448
vertex 2.246927 0.000000 -1.230448
endloop
endfacet
facet normal 0.000000 0.000000 0.000000
outer loop
vertex 2.246927 0.000000 -1.230448
vertex 2.321964 0.000000 -1.207686
vertex 2.321964 0.000000 -1.207686
endloop
endfacet
facet normal 0.000000 0.000000 0.000000
outer loop
vertex 2.769552 0.000000 -1.753073
vertex 2.792314 0.000000 -1.678036
vertex 2.792314 0.000000 -1.678036
endloop
endfacet
facet normal 0.000000 0.000000 0.000000
outer loop
vertex 2.792314 0.000000 -1.678036
vertex 2.769552 0.000000 -1.753073
vertex 2.769552 0.000000 -1.753073
endloop
endfacet
facet normal 0.000000 0.000000 0.000000
outer loop
vertex 2.030448 0.000000 -1.753074
vertex 2.067413 0.000000 -1.822229
vertex 2.067413 0.000000 -1.822229
endloop
endfacet
facet normal 0.000000 0.000000 0.000000
outer loop
vertex 2.067413 0.000000 -1.822229
vertex 2.030448 0.000000 -1.753074
vertex 2.030448 0.000000 -1.753074
endloop
endfacet
facet normal 0.000000 0.000000 0.000000
outer loop
vertex 2.682843 0.000000 -1.882843
vertex 2.732588 0.000000 -1.822228
vertex 2.732588 0.000000 -1.822228
endloop
endfacet
facet normal 0.000000 0.000000 0.000000
outer loop
vertex 2.732588 0.000000 -1.822228
vertex 2.682843 0.000000 -1.882843
vertex 2.682843 0.000000 -1.882843
endloop
endfacet
facet normal 0.000000 0.000000 0.000000
outer loop
vertex 2.478036 0.000000 -1.207686
vertex 2.400000 0.000000 -1.200000
vertex 2.400000 0.000000 -1.200000
endloop
endfacet
facet normal 0.000000 0.000000 0.000000
outer loop
vertex 2.400000 0.000000 -1.200000
vertex 2.478036 0.000000 -1.207686
vertex 2.478036 0.000000 -1.207686
endloop
endfacet
facet normal 0.000000 0.000000 0.000000
outer loop
vertex 2.000000 0.000000 -1.600000
vertex 2.007686 0.000000 -1.678037
vertex 2.007686 0.000000 -1.678037
endloop
endfacet
facet normal 0.000000 0.000000 0.000000
outer loop
vertex 2.007686 0.000000 -1.678037
vertex 2.000000 0.000000 -1.600000
vertex 2.000000 0.000000 -1.600000
endloop
endfacet
facet normal 0.000000 0.000000 0.000000
outer loop
vertex 2.553073 0.000000 -1.969552
vertex 2.622228 0.000000 -1.932588
vertex 2.622228 0.000000 -1.932588
endloop
endfacet
facet normal 0.000000 0.000000 0.000000
outer loop
vertex 2.622228 0.000000 -1.932588
vertex 2.553073 0.000000 -1.969552
vertex 2.553073 0.000000 -1.969552
endloop
endfacet
facet normal 0.000000 0.000000 0.000000
outer loop
vertex 2.622228 0.000000 -1.267412
vertex 2.553073 0.000000 -1.230448
vertex 2.553073 0.000000 -1.230448
endloop
endfacet
facet normal 0.000000 0.000000 0.000000
outer loop
vertex 2.553073 0.000000 -1.230448
vertex 2.622228 0.000000 -1.267412
vertex 2.622228 0.000000 -1.267412
endloop
endfacet
facet normal 0.000000 0.000000 0.000000
outer loop
vertex 2.030448 0.000000 -1.446927
vertex 2.007686 0.000000 -1.521964
vertex 2.007686 0.000000 -1.521964
endloop
endfacet
facet normal 0.000000 0.000000 0.000000
outer loop
vertex 2.007686 0.000000 -1.521964
vertex 2.030448 0.000000 -1.446927
vertex 2.030448 0.000000 -1.446927
endloop
endfacet
facet normal 0.000000 0.000000 0.000000
outer loop
vertex 2.400000 0.000000 -2.000000
vertex 2.478036 0.000000 -1.992314
vertex 2.478036 0.000000 -1.992314
endloop
endfacet
facet normal 0.000000 0.000000 0.000000
outer loop
vertex 2.478036 0.000000 -1.992314
vertex 2.400000 0.000000 -2.000000
vertex 2.400000 0.000000 -2.000000
endloop
endfacet
facet normal 0.000000 0.000000 0.000000
outer loop
vertex 2.732588 0.000000 -1.377772
vertex 2.682843 0.000000 -1.317157
vertex 2.682843 0.000000 -1.317157
endloop
endfacet
facet normal 0.000000 0.000000 0.000000
outer loop
vertex 2.682843 0.000000 -1.317157
vertex 2.732588 0.000000 -1.377772
vertex 2.732588 0.000000 -1.377772
endloop
endfacet
facet normal 0.000000 0.000000 0.000000
outer loop
vertex 2.321965 0.000000 -1.992314
vertex 2.400000 0.000000 -2.000000
vertex 2.400000 0.000000 -2.000000
endloop
endfacet
facet normal 0.000000 0.000000 0.000000
outer loop
vertex 2.400000 0.000000 -2.000000
vertex 2.321965 0.000000 -1.992314
vertex 2.321965 0.000000 -1.992314
endloop
endfacet
facet normal 0.000000 0.000000 0.000000
outer loop
vertex 2.117157 0.000000 -1.317158
vertex 2.067412 0.000000 -1.377772
vertex 2.067412 0.000000 -1.377772
endloop
endfacet
facet normal 0.000000 0.000000 0.000000
outer loop
vertex 2.067412 0.000000 -1.377772
vertex 2.117157 0.000000 -1.317158
vertex 2.117157 0.000000 -1.317158
endloop
endfacet
facet normal 0.000000 0.000000 0.000000
outer loop
vertex 2.792314 0.000000 -1.521964
vertex 2.769552 0.000000 -1.446927
vertex 2.769552 0.000000 -1.446927
endloop
endfacet
facet normal 0.000000 0.000000 0.000000
outer loop
vertex 2.769552 0.000000 -1.446927
vertex 2.792314 0.000000 -1.521964
vertex 2.792314 0.000000 -1.521964
endloop
endfacet
facet normal 0.000000 0.000000 0.000000
outer loop
vertex 2.177773 0.000000 -1.932588
vertex 2.246927 0.000000 -1.969552
vertex 2.246927 0.000000 -1.969552
endloop
endfacet
facet normal 0.000000 0.000000 0.000000
outer loop
vertex 2.246927 0.000000 -1.969552
vertex 2.177773 0.000000 -1.932588
vertex 2.177773 0.000000 -1.932588
endloop
endfacet
facet normal 0.000000 0.000000 0.000000
outer loop
vertex 2.246927 0.000000 -1.230448
vertex 2.177772 0.000000 -1.267412
vertex 2.177772 0.000000 -1.267412
endloop
endfacet
facet normal 0.000000 0.000000 0.000000
outer loop
vertex 2.177772 0.000000 -1.267412
vertex 2.246927 0.000000 -1.230448
vertex 2.246927 0.000000 -1.230448
endloop
endfacet
facet normal 0.000000 0.000000 0.000000
outer loop
vertex 2.792314 0.000000 -1.678036
vertex 2.800000 0.000000 -1.600000
vertex 2.800000 0.000000 -1.600000
endloop
endfacet
facet normal 0.000000 0.000000 0.000000
outer loop
vertex 2.800000 0.000000 -1.600000
vertex 2.792314 0.000000 -1.678036
vertex 2.792314 0.000000 -1.678036
endloop
endfacet
facet normal 0.000000 0.000000 0.000000
outer loop
vertex 2.067413 0.000000 -1.822229
vertex 2.117158 0.000000 -1.882843
vertex 2.117158 0.000000 -1.882843
endloop
endfacet
facet normal 0.000000 0.000000 0.000000
outer loop
vertex 2.117158 0.000000 -1.882843
vertex 2.067413 0.000000 -1.822229
vertex 2.067413 0.000000 -1.822229
endloop
endfacet
facet normal 0.000000 0.000000 0.000000
outer loop
vertex 2.400000 0.000000 -1.200000
vertex 2.321964 0.000000 -1.207686
vertex 2.321964 0.000000 -1.207686
endloop
endfacet
facet normal 0.000000 0.000000 0.000000
outer loop
vertex 2.321964 0.000000 -1.207686
vertex 2.400000 0.000000 -1.200000
vertex 2.400000 0.000000 -1.200000
endloop
endfacet
facet normal 0.000000 0.000000 0.000000
outer loop
vertex 2.732588 0.000000 -1.822228
vertex 2.769552 0.000000 -1.753073
vertex 2.769552 0.000000 -1.753073
endloop
endfacet
facet normal 0.000000 0.000000 0.000000
outer loop
vertex 2.769552 0.000000 -1.753073
vertex 2.732588 0.000000 -1.822228
vertex 2.732588 0.000000 -1.822228
endloop
endfacet
facet normal 0.000000 0.000000 0.000000
outer loop
vertex 2.007686 0.000000 -1.678037
vertex 2.030448 0.000000 -1.753074
vertex 2.030448 0.000000 -1.753074
endloop
endfacet
facet normal 0.000000 0.000000 0.000000
outer loop
vertex 2.030448 0.000000 -1.753074
vertex 2.007686 0.000000 -1.678037
vertex 2.007686 0.000000 -1.678037
endloop
endfacet
facet normal 0.000000 0.000000 0.000000
outer loop
vertex 2.622228 0.000000 -1.932588
vertex 2.682843 0.000000 -1.882843
vertex 2.682843 0.000000 -1.882843
endloop
endfacet
facet normal 0.000000 0.000000 0.000000
outer loop
vertex 2.682843 0.000000 -1.882843
vertex 2.622228 0.000000 -1.932588
vertex 2.622228 0.000000 -1.932588
endloop
endfacet
facet normal 0.000000 0.000000 0.000000
outer loop
vertex 2.553073 0.000000 -1.230448
vertex 2.478036 0.000000 -1.207686
vertex 2.478036 0.000000 -1.207686
endloop
endfacet
facet normal 0.000000 0.000000 0.000000
outer loop
vertex 2.478036 0.000000 -1.207686
vertex 2.553073 0.000000 -1.230448
vertex 2.553073 0.000000 -1.230448
endloop
endfacet
facet normal 0.000000 0.000000 0.000000
outer loop
vertex 2.007686 0.000000 -1.521964
vertex 2.000000 0.000000 -1.600000
vertex 2.000000 0.000000 -1.600000
endloop
endfacet
facet normal 0.000000 0.000000 0.000000
outer loop
vertex 2.000000 0.000000 -1.600000
vertex 2.007686 0.000000 -1.521964
vertex 2.007686 0.000000 -1.521964
endloop
endfacet
facet normal 0.000000 0.000000 0.000000
outer loop
vertex 2.478036 0.000000 -1.992314
vertex 2.553073 0.000000 -1.969552
vertex 2.553073 0.000000 -1.969552
endloop
endfacet
facet normal 0.000000 0.000000 0.000000
outer loop
vertex 2.553073 0.000000 -1.969552
vertex 2.478036 0.000000 -1.992314
vertex 2.478036 0.000000 -1.992314
endloop
endfacet
facet normal 0.000000 0.000000 0.000000
outer loop
vertex 2.682843 0.000000 -1.317157
vertex 2.622228 0.000000 -1.267412
vertex 2.622228 0.000000 -1.267412
endloop
endfacet
facet normal 0.000000 0.000000 0.000000
outer loop
vertex 2.622228 0.000000 -1.267412
vertex 2.682843 0.000000 -1.317157
vertex 2.682843 0.000000 -1.317157
endloop
endfacet
facet normal 0.000000 0.000000 0.000000
outer loop
vertex 2.067412 0.000000 -1.377772
vertex 2.030448 0.000000 -1.446927
vertex 2.030448 0.000000 -1.446927
endloop
endfacet
facet normal 0.000000 0.000000 0.000000
outer loop
vertex 2.030448 0.000000 -1.446927
vertex 2.067412 0.000000 -1.377772
vertex 2.067412 0.000000 -1.377772
endloop
endfacet
facet normal 0.000000 0.000000 0.000000
outer loop
vertex 2.769552 0.000000 -1.446927
vertex 2.732588 0.000000 -1.377772
vertex 2.732588 0.000000 -1.377772
endloop
endfacet
facet normal 0.000000 0.000000 0.000000
outer loop
vertex 2.732588 0.000000 -1.377772
vertex 2.769552 0.000000 -1.446927
vertex 2.769552 0.000000 -1.446927
endloop
endfacet
facet normal 0.000000 0.000000 0.000000
outer loop
vertex 2.246927 0.000000 -1.969552
vertex 2.321965 0.000000 -1.992314
vertex 2.321965 0.000000 -1.992314
endloop
endfacet
facet normal 0.000000 0.000000 0.000000
outer loop
vertex 2.321965 0.000000 -1.992314
vertex 2.246927 0.000000 -1.969552
vertex 2.246927 0.000000 -1.969552
endloop
endfacet
facet normal 0.000000 0.000000 0.000000
outer loop
vertex 2.177772 0.000000 -1.267412
vertex 2.117157 0.000000 -1.317158
vertex 2.117157 0.000000 -1.317158
endloop
endfacet
facet normal 0.000000 0.000000 0.000000
outer loop
vertex 2.117157 0.000000 -1.317158
vertex 2.177772 0.000000 -1.267412
vertex 2.177772 0.000000 -1.267412
endloop
endfacet
facet normal 0.000000 0.000000 0.000000
outer loop
vertex 2.800000 0.000000 -1.600000
vertex 2.792314 0.000000 -1.521964
vertex 2.792314 0.000000 -1.521964
endloop
endfacet
facet normal 0.000000 0.000000 0.000000
outer loop
vertex 2.792314 0.000000 -1.521964
vertex 2.800000 0.000000 -1.600000
vertex 2.800000 0.000000 -1.600000
endloop
endfacet
facet normal 0.956940 0.000000 -0.290285
outer loop
vertex 2.030448 0.000000 -1.446927
vertex 2.007686 0.000000 -1.521964
vertex 2.007686 0.180000 -1.521964
endloop
endfacet
facet normal 0.956940 0.000000 -0.290285
outer loop
vertex 2.007686 0.180000 -1.521964
vertex 2.030448 0.180000 -1.446927
vertex 2.030448 0.000000 -1.446927
endloop
endfacet
facet normal 0.000000 0.000000 0.000000
outer loop
vertex 2.177772 0.000000 -1.267412
vertex 2.117157 0.000000 -1.317158
vertex 2.117157 0.000000 -1.317158
endloop
endfacet
facet normal 0.000000 0.000000 0.000000
outer loop
vertex 2.117157 0.000000 -1.317158
vertex 2.177772 0.000000 -1.267412
vertex 2.177772 0.000000 -1.267412
endloop
endfacet
facet normal 0.000000 0.000000 0.000000
outer loop
vertex 2.800000 0.000000 -1.600000
vertex 2.792314 0.000000 -1.521964
vertex 2.792314 0.000000 -1.521964
endloop
endfacet
facet normal 0.000000 0.000000 0.000000
outer loop
vertex 2.792314 0.000000 -1.521964
vertex 2.800000 0.000000 -1.600000
vertex 2.800000 0.000000 -1.600000
endloop
endfacet
facet normal 0.000000 0.000000 0.000000
outer loop
vertex 2.117158 0.000000 -1.882843
vertex 2.177773 0.000000 -1.932588
vertex 2.177773 0.000000 -1.932588
endloop
endfacet
facet normal 0.000000 0.000000 0.000000
outer loop
vertex 2.177773 0.000000 -1.932588
vertex 2.117158 0.000000 -1.882843
vertex 2.117158 0.000000 -1.882843
endloop
endfacet
facet normal 0.000000 0.000000 0.000000
outer loop
vertex 2.321964 0.000000 -1.207686
vertex 2.246927 0.000000 -1.230448
vertex 2.246927 0.000000 -1.230448
endloop
endfacet
facet normal 0.000000 0.000000 0.000000
outer loop
vertex 2.246927 0.000000 -1.230448
vertex 2.321964 0.000000 -1.207686
vertex 2.321964 0.000000 -1.207686
endloop
endfacet
facet normal 0.000000 0.000000 0.000000
outer loop
vertex 2.769552 0.000000 -1.753073
vertex 2.792314 0.000000 -1.678036
vertex 2.792314 0.000000 -1.678036
endloop
endfacet
facet normal 0.000000 0.000000 0.000000
outer loop
vertex 2.792314 0.000000 -1.678036
vertex 2.769552 0.000000 -1.753073
vertex 2.769552 0.000000 -1.753073
endloop
endfacet
facet normal 0.000000 0.000000 0.000000
outer loop
vertex 2.030448 0.000000 -1.753074
vertex 2.067413 0.000000 -1.822229
vertex 2.067413 0.000000 -1.822229
endloop
endfacet
facet normal 0.000000 0.000000 0.000000
outer loop
vertex 2.067413 0.000000 -1.822229
vertex 2.030448 0.000000 -1.753074
vertex 2.030448 0.000000 -1.753074
endloop
endfacet
facet normal 0.000000 0.000000 0.000000
outer loop
vertex 2.682843 0.000000 -1.882843
vertex 2.732588 0.000000 -1.822228
vertex 2.732588 0.000000 -1.822228
endloop
endfacet
facet normal 0.000000 0.000000 0.000000
outer loop
vertex 2.732588 0.000000 -1.822228
vertex 2.682843 0.000000 -1.882843
vertex 2.682843 0.000000 -1.882843
endloop
endfacet
facet normal 0.000000 0.000000 0.000000
outer loop
vertex 2.478036 0.000000 -1.207686
vertex 2.400000 0.000000 -1.200000
vertex 2.400000 0.000000 -1.200000
endloop
endfacet
facet normal 0.000000 0.000000 0.000000
outer loop
vertex 2.400000 0.000000 -1.200000
vertex 2.478036 0.000000 -1.207686
vertex 2.478036 0.000000 -1.207686
endloop
endfacet
facet normal 0.000000 0.000000 0.000000
outer loop
vertex 2.000000 0.000000 -1.600000
vertex 2.007686 0.000000 -1.678037
vertex 2.007686 0.000000 -1.678037
endloop
endfacet
facet normal 0.000000 0.000000 0.000000
outer loop
vertex 2.007686 0.000000 -1.678037
vertex 2.000000 0.000000 -1.600000
vertex 2.000000 0.000000 -1.600000
endloop
endfacet
facet normal 0.000000 0.000000 0.000000
outer loop
vertex 2.553073 0.000000 -1.969552
vertex 2.622228 0.000000 -1.932588
vertex 2.622228 0.000000 -1.932588
endloop
endfacet
facet normal 0.000000 0.000000 0.000000
outer loop
vertex 2.622228 0.000000 -1.932588
vertex 2.553073 0.000000 -1.969552
vertex 2.553073 0.000000 -1.969552
endloop
endfacet
facet normal 0.000000 0.000000 0.000000
outer loop
vertex 2.622228 0.000000 -1.267412
vertex 2.553073 0.000000 -1.230448
vertex 2.553073 0.000000 -1.230448
endloop
endfacet
facet normal 0.000000 0.000000 0.000000
outer loop
vertex 2.553073 0.000000 -1.230448
vertex 2.622228 0.000000 -1.267412
vertex 2.622228 0.000000 -1.267412
endloop
endfacet
facet normal 0.000000 0.000000 0.000000
outer loop
vertex 2.030448 0.000000 -1.446927
vertex 2.007686 0.000000 -1.521964
vertex 2.007686 0.000000 -1.521964
endloop
endfacet
facet normal 0.000000 0.000000 0.000000
outer loop
vertex 2.007686 0.000000 -1.521964
vertex 2.030448 0.000000 -1.446927
vertex 2.030448 0.000000 -1.446927
endloop
endfacet
facet normal 0.000000 0.000000 0.000000
outer loop
vertex 2.400000 0.000000 -2.000000
vertex 2.478036 0.000000 -1.992314
vertex 2.478036 0.000000 -1.992314
endloop
endfacet
facet normal 0.000000 0.000000 0.000000
outer loop
vertex 2.478036 0.000000 -1.992314
vertex 2.400000 0.000000 -2.000000
vertex 2.400000 0.000000 -2.000000
endloop
endfacet
facet normal 0.000000 0.000000 0.000000
outer loop
vertex 2.732588 0.000000 -1.377772
vertex 2.682843 0.000000 -1.317157
vertex 2.682843 0.000000 -1.317157
endloop
endfacet
facet normal 0.000000 0.000000 0.000000
outer loop
vertex 2.682843 0.000000 -1.317157
vertex 2.732588 0.000000 -1.377772
vertex 2.732588 0.000000 -1.377772
endloop
endfacet
facet normal 0.000000 0.000000 0.000000
outer loop
vertex 2.321965 0.000000 -1.992314
vertex 2.400000 0.000000 -2.000000
vertex 2.400000 0.000000 -2.000000
endloop
endfacet
facet normal 0.000000 0.000000 0.000000
outer loop
vertex 2.400000 0.000000 -2.000000
vertex 2.321965 0.000000 -1.992314
vertex 2.321965 0.000000 -1.992314
endloop
endfacet
facet normal 0.000000 0.000000 0.000000
outer loop
vertex 2.117157 0.000000 -1.317158
vertex 2.067412 0.000000 -1.377772
vertex 2.067412 0.000000 -1.377772
endloop
endfacet
facet normal 0.000000 0.000000 0.000000
outer loop
vertex 2.067412 0.000000 -1.377772
vertex 2.117157 0.000000 -1.317158
vertex 2.117157 0.000000 -1.317158
endloop
endfacet
facet normal 0.000000 0.000000 0.000000
outer loop
vertex 2.792314 0.000000 -1.521964
vertex 2.769552 0.000000 -1.446927
vertex 2.769552 0.000000 -1.446927
endloop
endfacet
facet normal 0.000000 0.000000 0.000000
outer loop
vertex 2.769552 0.000000 -1.446927
vertex 2.792314 0.000000 -1.521964
vertex 2.792314 0.000000 -1.521964
endloop
endfacet
facet normal 0.000000 0.000000 0.000000
outer loop
vertex 2.177773 0.000000 -1.932588
vertex 2.246927 0.000000 -1.969552
vertex 2.246927 0.000000 -1.969552
endloop
endfacet
facet normal 0.000000 0.000000 0.000000
outer loop
vertex 2.246927 0.000000 -1.969552
vertex 2.177773 0.000000 -1.932588
vertex 2.177773 0.000000 -1.932588
endloop
endfacet
facet normal 0.000000 0.000000 0.000000
outer loop
vertex 2.246927 0.000000 -1.230448
vertex 2.177772 0.000000 -1.267412
vertex 2.177772 0.000000 -1.267412
endloop
endfacet
facet normal 0.000000 0.000000 0.000000
outer loop
vertex 2.177772 0.000000 -1.267412
vertex 2.246927 0.000000 -1.230448
vertex 2.246927 0.000000 -1.230448
endloop
endfacet
facet normal 0.000000 0.000000 0.000000
outer loop
vertex 2.792314 0.000000 -1.678036
vertex 2.800000 0.000000 -1.600000
vertex 2.800000 0.000000 -1.600000
endloop
endfacet
facet normal 0.000000 0.000000 0.000000
outer loop
vertex 2.800000 0.000000 -1.600000
vertex 2.792314 0.000000 -1.678036
vertex 2.792314 0.000000 -1.678036
endloop
endfacet
facet normal 0.000000 0.000000 0.000000
outer loop
vertex 2.067413 0.000000 -1.822229
vertex 2.117158 0.000000 -1.882843
vertex 2.117158 0.000000 -1.882843
endloop
endfacet
facet normal 0.000000 0.000000 0.000000
outer loop
vertex 2.117158 0.000000 -1.882843
vertex 2.067413 0.000000 -1.822229
vertex 2.067413 0.000000 -1.822229
endloop
endfacet
facet normal 0.000000 0.000000 0.000000
outer loop
vertex 2.400000 0.000000 -1.200000
vertex 2.321964 0.000000 -1.207686
vertex 2.321964 0.000000 -1.207686
endloop
endfacet
facet normal 0.000000 0.000000 0.000000
outer loop
vertex 2.321964 0.000000 -1.207686
vertex 2.400000 0.000000 -1.200000
vertex 2.400000 0.000000 -1.200000
endloop
endfacet
facet normal 0.000000 0.000000 0.000000
outer loop
vertex 2.732588 0.000000 -1.822228
vertex 2.769552 0.000000 -1.753073
vertex 2.769552 0.000000 -1.753073
endloop
endfacet
facet normal 0.000000 0.000000 0.000000
outer loop
vertex 2.769552 0.000000 -1.753073
vertex 2.732588 0.000000 -1.822228
vertex 2.732588 0.000000 -1.822228
endloop
endfacet
facet normal 0.000000 0.000000 0.000000
outer loop
vertex 2.007686 0.000000 -1.678037
vertex 2.030448 0.000000 -1.753074
vertex 2.030448 0.000000 -1.753074
endloop
endfacet
facet normal 0.000000 0.000000 0.000000
outer loop
vertex 2.030448 0.000000 -1.753074
vertex 2.007686 0.000000 -1.678037
vertex 2.007686 0.000000 -1.678037
endloop
endfacet
facet normal 0.000000 0.000000 0.000000
outer loop
vertex 2.622228 0.000000 -1.932588
vertex 2.682843 0.000000 -1.882843
vertex 2.682843 0.000000 -1.882843
endloop
endfacet
facet normal 0.000000 0.000000 0.000000
outer loop
vertex 2.682843 0.000000 -1.882843
vertex 2.622228 0.000000 -1.932588
vertex 2.622228 0.000000 -1.932588
endloop
endfacet
facet normal 0.000000 0.000000 0.000000
outer loop
vertex 2.553073 0.000000 -1.230448
vertex 2.478036 0.000000 -1.207686
vertex 2.478036 0.000000 -1.207686
endloop
endfacet
facet normal 0.000000 0.000000 0.000000
outer loop
vertex 2.478036 0.000000 -1.207686
vertex 2.553073 0.000000 -1.230448
vertex 2.553073 0.000000 -1.230448
endloop
endfacet
facet normal 0.000000 0.000000 0.000000
outer loop
vertex 2.007686 0.000000 -1.521964
vertex 2.000000 0.000000 -1.600000
vertex 2.000000 0.000000 -1.600000
endloop
endfacet
facet normal 0.000000 0.000000 0.000000
outer loop
vertex 2.000000 0.000000 -1.600000
vertex 2.007686 0.000000 -1.521964
vertex 2.007686 0.000000 -1.521964
endloop
endfacet
facet normal 0.000000 0.000000 0.000000
outer loop
vertex 2.478036 0.000000 -1.992314
vertex 2.553073 0.000000 -1.969552
vertex 2.553073 0.000000 -1.969552
endloop
endfacet
facet normal 0.000000 0.000000 0.000000
outer loop
vertex 2.553073 0.000000 -1.969552
vertex 2.478036 0.000000 -1.992314
vertex 2.478036 0.000000 -1.992314
endloop
endfacet
facet normal 0.000000 0.000000 0.000000
outer loop
vertex 2.682843 0.000000 -1.317157
vertex 2.622228 0.000000 -1.267412
vertex 2.622228 0.000000 -1.267412
endloop
endfacet
facet normal 0.000000 0.000000 0.000000
outer loop
vertex 2.622228 0.000000 -1.267412
vertex 2.682843 0.000000 -1.317157
vertex 2.682843 0.000000 -1.317157
endloop
endfacet
facet normal 0.000000 0.000000 0.000000
outer loop
vertex 2.067412 0.000000 -1.377772
vertex 2.030448 0.000000 -1.446927
vertex 2.030448 0.000000 -1.446927
endloop
endfacet
facet normal 0.000000 0.000000 0.000000
outer loop
vertex 2.030448 0.000000 -1.446927
vertex 2.067412 0.000000 -1.377772
vertex 2.067412 0.000000 -1.377772
endloop
endfacet
facet normal 0.000000 0.000000 0.000000
outer loop
vertex 2.769552 0.000000 -1.446927
vertex 2.732588 0.000000 -1.377772
vertex 2.732588 0.000000 -1.377772
endloop
endfacet
facet normal 0.000000 0.000000 0.000000
outer loop
vertex 2.732588 0.000000 -1.377772
vertex 2.769552 0.000000 -1.446927
vertex 2.769552 0.000000 -1.446927
endloop
endfacet
facet normal 0.098018 0.000000 -0.995185
outer loop
vertex 2.400000 0.000000 -1.860000
vertex 2.400000 0.180000 -1.860000
vertex 2.450724 0.180000 -1.855004
endloop
endfacet
facet normal 0.098011 0.000000 -0.995185
outer loop
vertex 2.450724 0.180000 -1.855004
vertex 2.450724 0.000000 -1.855004
vertex 2.400000 0.000000 -1.860000
endloop
endfacet
facet normal 0.290285 0.000000 -0.956940
outer loop
vertex 2.450724 0.000000 -1.855004
vertex 2.450724 0.180000 -1.855004
vertex 2.499498 0.180000 -1.840209
endloop
endfacet
facet normal 0.290285 0.000000 -0.956940
outer loop
vertex 2.499498 0.180000 -1.840209
vertex 2.499498 0.000000 -1.840209
vertex 2.450724 0.000000 -1.855004
endloop
endfacet
facet normal 0.471398 0.000000 -0.881920
outer loop
vertex 2.499498 0.000000 -1.840209
vertex 2.499498 0.180000 -1.840209
vertex 2.544448 0.180000 -1.816182
endloop
endfacet
facet normal 0.471398 0.000000 -0.881920
outer loop
vertex 2.544448 0.180000 -1.816182
vertex 2.544448 0.000000 -1.816182
vertex 2.499498 0.000000 -1.840209
endloop
endfacet
facet normal 0.634393 0.000000 -0.773011
outer loop
vertex 2.544448 0.000000 -1.816182
vertex 2.544448 0.180000 -1.816182
vertex 2.583848 0.180000 -1.783848
endloop
endfacet
facet normal 0.634397 0.000000 -0.773008
outer loop
vertex 2.583848 0.180000 -1.783848
vertex 2.583848 0.000000 -1.783848
vertex 2.544448 0.000000 -1.816182
endloop
endfacet
facet normal 0.773009 0.000000 -0.634395
outer loop
vertex 2.583848 0.000000 -1.783848
vertex 2.583848 0.180000 -1.783848
vertex 2.616182 0.180000 -1.744448
endloop
endfacet
facet normal 0.773012 0.000000 -0.634392
outer loop
vertex 2.616182 0.180000 -1.744448
vertex 2.616182 0.000000 -1.744448
vertex 2.583848 0.000000 -1.783848
endloop
endfacet
facet normal 0.881921 0.000000 -0.471398
outer loop
vertex 2.616182 0.000000 -1.744448
vertex 2.616182 0.180000 -1.744448
vertex 2.640209 0.180000 -1.699498
endloop
endfacet
facet normal 0.881921 0.000000 -0.471398
outer loop
vertex 2.640209 0.180000 -1.699498
vertex 2.640209 0.000000 -1.699498
vertex 2.616182 0.000000 -1.744448
endloop
endfacet
facet normal 0.956940 0.000000 -0.290286
outer loop
vertex 2.640209 0.000000 -1.699498
vertex 2.640209 0.180000 -1.699498
vertex 2.655004 0.180000 -1.650723
endloop
endfacet
facet normal 0.956941 0.000000 -0.290284
outer loop
vertex 2.655004 0.180000 -1.650723
vertex 2.655004 0.000000 -1.650723
vertex 2.640209 0.000000 -1.699498
endloop
endfacet
facet normal 0.995185 0.000000 -0.098017
outer loop
vertex 2.655004 0.000000 -1.650723
vertex 2.655004 0.180000 -1.650723
vertex 2.660000 0.180000 -1.600000
endloop
endfacet
facet normal 0.995185 0.000000 -0.098018
outer loop
vertex 2.660000 0.180000 -1.600000
vertex 2.660000 0.000000 -1.600000
vertex 2.655004 0.000000 -1.650723
endloop
endfacet
facet normal 0.995185 0.000000 0.098018
outer loop
vertex 2.660000 0.000000 -1.600000
vertex 2.660000 0.180000 -1.600000
vertex 2.655004 0.180000 -1.549277
endloop
endfacet
facet normal 0.995185 0.000000 0.098017
outer loop
vertex 2.655004 0.180000 -1.549277
vertex 2.655004 0.000000 -1.549277
vertex 2.660000 0.000000 -1.600000
endloop
endfacet
facet normal 0.956941 0.000000 0.290284
outer loop
vertex 2.655004 0.000000 -1.549277
vertex 2.655004 0.180000 -1.549277
vertex 2.640209 0.180000 -1.500502
endloop
endfacet
facet normal 0.956940 0.000000 0.290286
outer loop
vertex 2.640209 0.180000 -1.500502
vertex 2.640209 0.000000 -1.500502
vertex 2.655004 0.000000 -1.549277
endloop
endfacet
facet normal 0.881921 0.000000 0.471398
outer loop
vertex 2.640209 0.000000 -1.500502
vertex 2.640209 0.180000 -1.500502
vertex 2.616182 0.180000 -1.455552
endloop
endfacet
facet normal 0.881921 0.000000 0.471398
outer loop
vertex 2.616182 0.180000 -1.455552
vertex 2.616182 0.000000 -1.455552
vertex 2.640209 0.000000 -1.500502
endloop
endfacet
facet normal 0.773012 0.000000 0.634392
outer loop
vertex 2.616182 0.000000 -1.455552
vertex 2.616182 0.180000 -1.455552
vertex 2.583848 0.180000 -1.416152
endloop
endfacet
facet normal 0.773012 0.000000 0.634392
outer loop
vertex 2.583848 0.180000 -1.416152
vertex 2.583848 0.000000 -1.416152
vertex 2.616182 0.000000 -1.455552
endloop
endfacet
facet normal 0.634393 0.000000 0.773011
outer loop
vertex 2.583848 0.000000 -1.416152
vertex 2.583848 0.180000 -1.416152
vertex 2.544448 0.180000 -1.383818
endloop
endfacet
facet normal 0.634395 0.000000 0.773009
outer loop
vertex 2.544448 0.180000 -1.383818
vertex 2.544448 0.000000 -1.383818
vertex 2.583848 0.000000 -1.416152
endloop
endfacet
facet normal 0.471396 0.000000 0.881922
outer loop
vertex 2.544448 0.000000 -1.383818
vertex 2.544448 0.180000 -1.383818
vertex 2.499498 0.180000 -1.359791
endloop
endfacet
facet normal 0.471396 0.000000 0.881922
outer loop
vertex 2.499498 0.180000 -1.359791
vertex 2.499498 0.000000 -1.359791
vertex 2.544448 0.000000 -1.383818
endloop
endfacet
facet normal 0.290279 0.000000 0.956942
outer loop
vertex 2.499498 0.000000 -1.359791
vertex 2.499498 0.180000 -1.359791
vertex 2.450723 0.180000 -1.344996
endloop
endfacet
facet normal 0.290285 0.000000 0.956940
outer loop
vertex 2.450723 0.180000 -1.344996
vertex 2.450723 0.000000 -1.344996
vertex 2.499498 0.000000 -1.359791
endloop
endfacet
facet normal 0.098018 0.000000 0.995185
outer loop
vertex 2.450723 0.000000 -1.344996
vertex 2.450723 0.180000 -1.344996
vertex 2.400000 0.180000 -1.340000
endloop
endfacet
facet normal 0.098018 0.000000 0.995185
outer loop
vertex 2.400000 0.180000 -1.340000
vertex 2.400000 0.000000 -1.340000
vertex 2.450723 0.000000 -1.344996
endloop
endfacet
facet normal -0.098018 0.000000 0.995185
outer loop
vertex 2.400000 0.000000 -1.340000
vertex 2.400000 0.180000 -1.340000
vertex 2.349277 0.180000 -1.344996
endloop
endfacet
facet normal -0.098018 0.000000 0.995185
outer loop
vertex 2.349277 0.180000 -1.344996
vertex 2.349277 0.000000 -1.344996
vertex 2.400000 0.000000 -1.340000
endloop
endfacet
facet normal -0.290285 0.000000 0.956940
outer loop
vertex 2.349277 0.000000 -1.344996
vertex 2.349277 0.180000 -1.344996
vertex 2.300502 0.180000 -1.359791
endloop
endfacet
facet normal -0.290285 0.000000 0.956940
outer loop
vertex 2.300502 0.180000 -1.359791
vertex 2.300502 0.000000 -1.359791
vertex 2.349277 0.000000 -1.344996
endloop
endfacet
facet normal -0.471398 0.000000 0.881920
outer loop
vertex 2.300502 0.000000 -1.359791
vertex 2.300502 0.180000 -1.359791
vertex 2.255552 0.180000 -1.383818
endloop
endfacet
facet normal -0.471398 0.000000 0.881920
outer loop
vertex 2.255552 0.180000 -1.383818
vertex 2.255552 0.000000 -1.383818
vertex 2.300502 0.000000 -1.359791
endloop
endfacet
facet normal -0.634392 0.000000 0.773011
outer loop
vertex 2.255552 0.000000 -1.383818
vertex 2.255552 0.180000 -1.383818
vertex 2.216152 0.180000 -1.416152
endloop
endfacet
facet normal -0.634390 0.000000 0.773013
outer loop
vertex 2.216152 0.180000 -1.416152
vertex 2.216152 0.000000 -1.416152
vertex 2.255552 0.000000 -1.383818
endloop
endfacet
facet normal -0.773009 0.000000 0.634395
outer loop
vertex 2.216152 0.000000 -1.416152
vertex 2.216152 0.180000 -1.416152
vertex 2.183818 0.180000 -1.455552
endloop
endfacet
facet normal -0.773012 0.000000 0.634392
outer loop
vertex 2.183818 0.180000 -1.455552
vertex 2.183818 0.000000 -1.455552
vertex 2.216152 0.000000 -1.416152
endloop
endfacet
facet normal -0.881922 0.000000 0.471395
outer loop
vertex 2.183818 0.000000 -1.455552
vertex 2.183818 0.180000 -1.455552
vertex 2.159791 0.180000 -1.500503
endloop
endfacet
facet normal -0.881922 0.000000 0.471395
outer loop
vertex 2.159791 0.180000 -1.500503
vertex 2.159791 0.000000 -1.500503
vertex 2.183818 0.000000 -1.455552
endloop
endfacet
facet normal -0.956941 0.000000 0.290282
outer loop
vertex 2.159791 0.000000 -1.500503
vertex 2.159791 0.180000 -1.500503
vertex 2.144996 0.180000 -1.549277
endloop
endfacet
facet normal -0.956941 0.000000 0.290283
outer loop
vertex 2.144996 0.180000 -1.549277
vertex 2.144996 0.000000 -1.549277
vertex 2.159791 0.000000 -1.500503
endloop
endfacet
facet normal -0.995185 0.000000 0.098017
outer loop
vertex 2.144996 0.000000 -1.549277
vertex 2.144996 0.180000 -1.549277
vertex 2.140000 0.180000 -1.600000
endloop
endfacet
facet normal -0.995185 0.000000 0.098017
outer loop
vertex 2.140000 0.180000 -1.600000
vertex 2.140000 0.000000 -1.600000
vertex 2.144996 0.000000 -1.549277
endloop
endfacet
facet normal -0.995185 0.000000 -0.098017
outer loop
vertex 2.140000 0.000000 -1.600000
vertex 2.140000 0.180000 -1.600000
vertex 2.144996 0.180000 -1.650724
endloop
endfacet
facet normal -0.995185 0.000000 -0.098017
outer loop
vertex 2.144996 0.180000 -1.650724
vertex 2.144996 0.000000 -1.650724
vertex 2.140000 0.000000 -1.600000
endloop
endfacet
facet normal -0.956940 0.000000 -0.290286
outer loop
vertex 2.144996 0.000000 -1.650724
vertex 2.144996 0.180000 -1.650724
vertex 2.159791 0.180000 -1.699498
endloop
endfacet
facet normal -0.956940 0.000000 -0.290286
outer loop
vertex 2.159791 0.180000 -1.699498
vertex 2.159791 0.000000 -1.699498
vertex 2.144996 0.000000 -1.650724
endloop
endfacet
facet normal -0.881921 0.000000 -0.471398
outer loop
vertex 2.159791 0.000000 -1.699498
vertex 2.159791 0.180000 -1.699498
vertex 2.183818 0.180000 -1.744449
endloop
endfacet
facet normal -0.881922 0.000000 -0.471395
outer loop
vertex 2.183818 0.180000 -1.744449
vertex 2.183818 0.000000 -1.744449
vertex 2.159791 0.000000 -1.699498
endloop
endfacet
facet normal -0.773007 0.000000 -0.634398
outer loop
vertex 2.183818 0.000000 -1.744449
vertex 2.183818 0.180000 -1.744449
vertex 2.216153 0.180000 -1.783848
endloop
endfacet
facet normal -0.773009 0.000000 -0.634394
outer loop
vertex 2.216153 0.180000 -1.783848
vertex 2.216153 0.000000 -1.783848
vertex 2.183818 0.000000 -1.744449
endloop
endfacet
facet normal -0.634393 0.000000 -0.773011
outer loop
vertex 2.216153 0.000000 -1.783848
vertex 2.216153 0.180000 -1.783848
vertex 2.255552 0.180000 -1.816182
endloop
endfacet
facet normal -0.634397 0.000000 -0.773008
outer loop
vertex 2.255552 0.180000 -1.816182
vertex 2.255552 0.000000 -1.816182
vertex 2.216153 0.000000 -1.783848
endloop
endfacet
facet normal -0.471391 0.000000 -0.881924
outer loop
vertex 2.255552 0.000000 -1.816182
vertex 2.255552 0.180000 -1.816182
vertex 2.300503 0.180000 -1.840209
endloop
endfacet
facet normal -0.471396 0.000000 -0.881922
outer loop
vertex 2.300503 0.180000 -1.840209
vertex 2.300503 0.000000 -1.840209
vertex 2.255552 0.000000 -1.816182
endloop
endfacet
facet normal 0.000000 1.000000 -0.000004
outer loop
vertex 2.450724 0.180000 -1.855004
vertex 2.544448 0.180000 -1.816182
vertex 2.499498 0.180000 -1.840209
endloop
endfacet
facet normal 0.000000 1.000000 0.000002
outer loop
vertex 2.616182 0.180000 -1.744448
vertex 2.583848 0.180000 -1.783848
vertex 2.544448 0.180000 -1.816182
endloop
endfacet
facet normal 0.000000 1.000000 0.000000
outer loop
vertex 2.655004 0.180000 -1.650723
vertex 2.640209 0.180000 -1.699498
vertex 2.616182 0.180000 -1.744448
endloop
endfacet
facet normal 0.000000 1.000000 0.000000
outer loop
vertex 2.655004 0.180000 -1.549277
vertex 2.660000 0.180000 -1.600000
vertex 2.655004 0.180000 -1.650723
endloop
endfacet
facet normal 0.000000 1.000000 0.000001
outer loop
vertex 2.616182 0.180000 -1.455552
vertex 2.640209 0.180000 -1.500502
vertex 2.655004 0.180000 -1.549277
endloop
endfacet
facet normal 0.000000 1.000000 -0.000002
outer loop
vertex 2.544448 0.180000 -1.383818
vertex 2.583848 0.180000 -1.416152
vertex 2.616182 0.180000 -1.455552
endloop
endfacet
facet normal 0.000000 1.000000 0.000004
outer loop
vertex 2.450723 0.180000 -1.344996
vertex 2.499498 0.180000 -1.359791
vertex 2.544448 0.180000 -1.383818
endloop
endfacet
facet normal 0.000000 1.000000 0.000000
outer loop
vertex 2.349277 0.180000 -1.344996
vertex 2.400000 0.180000 -1.340000
vertex 2.450723 0.180000 -1.344996
endloop
endfacet
facet normal 0.000000 1.000000 0.000004
outer loop
vertex 2.255552 0.180000 -1.383818
vertex 2.300502 0.180000 -1.359791
vertex 2.349277 0.180000 -1.344996
endloop
endfacet
facet normal 0.000000 1.000000 -0.000002
outer loop
vertex 2.183818 0.180000 -1.455552
vertex 2.216152 0.180000 -1.416152
vertex 2.255552 0.180000 -1.383818
endloop
endfacet
facet normal 0.000000 1.000000 0.000002
outer loop
vertex 2.144996 0.180000 -1.549277
vertex 2.159791 0.180000 -1.500503
vertex 2.183818 0.180000 -1.455552
endloop
endfacet
facet normal 0.000000 1.000000 0.000000
outer loop
vertex 2.144996 0.180000 -1.650724
vertex 2.140000 0.180000 -1.600000
vertex 2.144996 0.180000 -1.549277
endloop
endfacet
facet normal 0.000000 1.000000 -0.000001
outer loop
vertex 2.183818 0.180000 -1.744449
vertex 2.159791 0.180000 -1.699498
vertex 2.144996 0.180000 -1.650724
endloop
endfacet
facet normal 0.000000 1.000000 0.000002
outer loop
vertex 2.255552 0.180000 -1.816182
vertex 2.216153 0.180000 -1.783848
vertex 2.183818 0.180000 -1.744449
endloop
endfacet
facet normal 0.000000 1.000000 -0.000004
outer loop
vertex 2.349277 0.180000 -1.855004
vertex 2.300503 0.180000 -1.840209
vertex 2.255552 0.180000 -1.816182
endloop
endfacet
facet normal 0.000000 1.000000 0.000000
outer loop
vertex 2.450724 0.180000 -1.855004
vertex 2.400000 0.180000 -1.860000
vertex 2.349277 0.180000 -1.855004
endloop
endfacet
facet normal 0.000000 1.000000 0.000000
outer loop
vertex 2.450724 0.180000 -1.855004
vertex 2.616182 0.180000 -1.744448
vertex 2.544448 0.180000 -1.816182
endloop
endfacet
facet normal 0.000000 1.000000 0.000000
outer loop
vertex 2.655004 0.180000 -1.549277
vertex 2.655004 0.180000 -1.650723
vertex 2.616182 0.180000 -1.744448
endloop
endfacet
facet normal 0.000000 1.000000 0.000000
outer loop
vertex 2.544448 0.180000 -1.383818
vertex 2.616182 0.180000 -1.455552
vertex 2.655004 0.180000 -1.549277
endloop
endfacet
facet normal 0.000000 1.000000 0.000001
outer loop
vertex 2.349277 0.180000 -1.344996
vertex 2.450723 0.180000 -1.344996
vertex 2.544448 0.180000 -1.383818
endloop
endfacet
facet normal 0.000000 1.000000 0.000000
outer loop
vertex 2.183818 0.180000 -1.455552
vertex 2.255552 0.180000 -1.383818
vertex 2.349277 0.180000 -1.344996
endloop
endfacet
facet normal 0.000000 1.000000 0.000000
outer loop
vertex 2.144996 0.180000 -1.650724
vertex 2.144996 0.180000 -1.549277
vertex 2.183818 0.180000 -1.455552
endloop
endfacet
facet normal 0.000000 1.000000 -0.000000
outer loop
vertex 2.255552 0.180000 -1.816182
vertex 2.183818 0.180000 -1.744449
vertex 2.144996 0.180000 -1.650724
endloop
endfacet
facet normal 0.000000 1.000000 0.000000
outer loop
vertex 2.450724 0.180000 -1.855004
vertex 2.349277 0.180000 -1.855004
vertex 2.255552 0.180000 -1.816182
endloop
endfacet
facet normal 0.000000 1.000000 0.000000
outer loop
vertex 2.450724 0.180000 -1.855004
vertex 2.655004 0.180000 -1.549277
vertex 2.616182 0.180000 -1.744448
endloop
endfacet
facet normal 0.000000 1.000000 -0.000000
outer loop
vertex 2.349277 0.180000 -1.344996
vertex 2.544448 0.180000 -1.383818
vertex 2.655004 0.180000 -1.549277
endloop
endfacet
facet normal 0.000000 1.000000 0.000000
outer loop
vertex 2.144996 0.180000 -1.650724
vertex 2.183818 0.180000 -1.455552
vertex 2.349277 0.180000 -1.344996
endloop
endfacet
facet normal 0.000000 1.000000 0.000000
outer loop
vertex 2.450724 0.180000 -1.855004
vertex 2.255552 0.180000 -1.816182
vertex 2.144996 0.180000 -1.650724
endloop
endfacet
facet normal 0.000000 1.000000 0.000000
outer loop
vertex 2.450724 0.180000 -1.855004
vertex 2.349277 0.180000 -1.344996
vertex 2.655004 0.180000 -1.549277
endloop
endfacet
facet normal 0.000000 1.000000 0.000000
outer loop
vertex 2.450724 0.180000 -1.855004
vertex 2.144996 0.180000 -1.650724
vertex 2.349277 0.180000 -1.344996
endloop
endfacet
facet normal -0.098019 0.000000 -0.995185
outer loop
vertex 2.349277 0.000000 -1.855004
vertex 2.349277 0.180000 -1.855004
vertex 2.400000 0.180000 -1.860000
endloop
endfacet
facet normal -0.098012 0.000000 -0.995185
outer loop
vertex 2.400000 0.180000 -1.860000
vertex 2.400000 0.000000 -1.860000
vertex 2.349277 0.000000 -1.855004
endloop
endfacet
facet normal -0.290285 0.000000 -0.956940
outer loop
vertex 2.300503 0.000000 -1.840209
vertex 2.300503 0.180000 -1.840209
vertex 2.349277 0.180000 -1.855004
endloop
endfacet
facet normal -0.290279 0.000000 -0.956942
outer loop
vertex 2.349277 0.180000 -1.855004
vertex 2.349277 0.000000 -1.855004
vertex 2.300503 0.000000 -1.840209
endloop
endfacet
facet normal 0.000000 1.000000 0.000000
outer loop
vertex 2.400000 0.000000 -2.000000
vertex 2.553073 0.000000 -1.969552
vertex 2.478036 0.000000 -1.992314
endloop
endfacet
facet normal 0.000000 1.000000 0.000000
outer loop
vertex 2.682843 0.000000 -1.882843
vertex 2.622228 0.000000 -1.932588
vertex 2.553073 0.000000 -1.969552
endloop
endfacet
facet normal 0.000000 1.000000 0.000000
outer loop
vertex 2.769552 0.000000 -1.753073
vertex 2.732588 0.000000 -1.822228
vertex 2.682843 0.000000 -1.882843
endloop
endfacet
facet normal 0.000000 1.000000 0.000000
outer loop
vertex 2.800000 0.000000 -1.600000
vertex 2.792314 0.000000 -1.678036
vertex 2.769552 0.000000 -1.753073
endloop
endfacet
facet normal 0.000000 1.000000 0.000000
outer loop
vertex 2.655004 0.000000 -1.650723
vertex 2.660000 0.000000 -1.600000
vertex 2.800000 0.000000 -1.600000
endloop
endfacet
facet normal 0.000000 1.000000 0.000000
outer loop
vertex 2.792314 0.000000 -1.521964
vertex 2.655004 0.000000 -1.549277
vertex 2.640209 0.000000 -1.500502
endloop
endfacet
facet normal 0.000000 1.000000 0.000000
outer loop
vertex 2.640209 0.000000 -1.699498
vertex 2.655004 0.000000 -1.650723
vertex 2.800000 0.000000 -1.600000
endloop
endfacet
facet normal 0.000000 1.000000 0.000000
outer loop
vertex 2.792314 0.000000 -1.521964
vertex 2.640209 0.000000 -1.500502
vertex 2.616182 0.000000 -1.455552
endloop
endfacet
facet normal 0.000000 1.000000 0.000000
outer loop
vertex 2.616182 0.000000 -1.744448
vertex 2.640209 0.000000 -1.699498
vertex 2.800000 0.000000 -1.600000
endloop
endfacet
facet normal 0.000000 1.000000 0.000000
outer loop
vertex 2.792314 0.000000 -1.521964
vertex 2.616182 0.000000 -1.455552
vertex 2.583848 0.000000 -1.416152
endloop
endfacet
facet normal 0.000000 1.000000 0.000000
outer loop
vertex 2.583848 0.000000 -1.783848
vertex 2.616182 0.000000 -1.744448
vertex 2.800000 0.000000 -1.600000
endloop
endfacet
facet normal 0.000000 1.000000 0.000000
outer loop
vertex 2.792314 0.000000 -1.521964
vertex 2.583848 0.000000 -1.416152
vertex 2.544448 0.000000 -1.383818
endloop
endfacet
facet normal 0.000000 1.000000 0.000000
outer loop
vertex 2.583848 0.000000 -1.783848
vertex 2.800000 0.000000 -1.600000
vertex 2.769552 0.000000 -1.753073
endloop
endfacet
facet normal 0.000000 1.000000 0.000000
outer loop
vertex 2.769552 0.000000 -1.446927
vertex 2.792314 0.000000 -1.521964
vertex 2.544448 0.000000 -1.383818
endloop
endfacet
facet normal 0.000000 1.000000 0.000000
outer loop
vertex 2.544448 0.000000 -1.816182
vertex 2.583848 0.000000 -1.783848
vertex 2.769552 0.000000 -1.753073
endloop
endfacet
facet normal 0.000000 1.000000 0.000000
outer loop
vertex 2.769552 0.000000 -1.446927
vertex 2.544448 0.000000 -1.383818
vertex 2.499498 0.000000 -1.359791
endloop
endfacet
facet normal 0.000000 1.000000 0.000000
outer loop
vertex 2.499498 0.000000 -1.840209
vertex 2.544448 0.000000 -1.816182
vertex 2.769552 0.000000 -1.753073
endloop
endfacet
facet normal 0.000000 1.000000 0.000000
outer loop
vertex 2.732588 0.000000 -1.377772
vertex 2.769552 0.000000 -1.446927
vertex 2.499498 0.000000 -1.359791
endloop
endfacet
facet normal 0.000000 1.000000 0.000000
outer loop
vertex 2.499498 0.000000 -1.840209
vertex 2.769552 0.000000 -1.753073
vertex 2.682843 0.000000 -1.882843
endloop
endfacet
facet normal 0.000000 1.000000 0.000000
outer loop
vertex 2.732588 0.000000 -1.377772
vertex 2.499498 0.000000 -1.359791
vertex 2.450723 0.000000 -1.344996
endloop
endfacet
facet normal 0.000000 1.000000 0.000000
outer loop
vertex 2.450724 0.000000 -1.855004
vertex 2.499498 0.000000 -1.840209
vertex 2.682843 0.000000 -1.882843
endloop
endfacet
facet normal 0.000000 1.000000 0.000000
outer loop
vertex 2.682843 0.000000 -1.317157
vertex 2.732588 0.000000 -1.377772
vertex 2.450723 0.000000 -1.344996
endloop
endfacet
facet normal 0.000000 1.000000 0.000000
outer loop
vertex 2.400000 0.000000 -1.860000
vertex 2.450724 0.000000 -1.855004
vertex 2.682843 0.000000 -1.882843
endloop
endfacet
facet normal 0.000000 1.000000 0.000000
outer loop
vertex 2.682843 0.000000 -1.317157
vertex 2.450723 0.000000 -1.344996
vertex 2.400000 0.000000 -1.340000
endloop
endfacet
facet normal 0.000000 1.000000 0.000000
outer loop
vertex 2.400000 0.000000 -1.860000
vertex 2.682843 0.000000 -1.882843
vertex 2.553073 0.000000 -1.969552
endloop
endfacet
facet normal 0.000000 1.000000 0.000000
outer loop
vertex 2.622228 0.000000 -1.267412
vertex 2.682843 0.000000 -1.317157
vertex 2.400000 0.000000 -1.340000
endloop
endfacet
facet normal 0.000000 1.000000 0.000000
outer loop
vertex 2.349277 0.000000 -1.855004
vertex 2.400000 0.000000 -1.860000
vertex 2.553073 0.000000 -1.969552
endloop
endfacet
facet normal 0.000000 1.000000 0.000000
outer loop
vertex 2.622228 0.000000 -1.267412
vertex 2.400000 0.000000 -1.340000
vertex 2.349277 0.000000 -1.344996
endloop
endfacet
facet normal 0.000000 1.000000 0.000000
outer loop
vertex 2.300503 0.000000 -1.840209
vertex 2.349277 0.000000 -1.855004
vertex 2.553073 0.000000 -1.969552
endloop
endfacet
facet normal 0.000000 1.000000 0.000000
outer loop
vertex 2.553073 0.000000 -1.230448
vertex 2.622228 0.000000 -1.267412
vertex 2.349277 0.000000 -1.344996
endloop
endfacet
facet normal 0.000000 1.000000 0.000000
outer loop
vertex 2.400000 0.000000 -2.000000
vertex 2.300503 0.000000 -1.840209
vertex 2.553073 0.000000 -1.969552
endloop
endfacet
facet normal 0.000000 1.000000 0.000000
outer loop
vertex 2.553073 0.000000 -1.230448
vertex 2.349277 0.000000 -1.344996
vertex 2.300502 0.000000 -1.359791
endloop
endfacet
facet normal 0.000000 1.000000 0.000000
outer loop
vertex 2.400000 0.000000 -2.000000
vertex 2.255552 0.000000 -1.816182
vertex 2.300503 0.000000 -1.840209
endloop
endfacet
facet normal 0.000000 1.000000 0.000000
outer loop
vertex 2.478036 0.000000 -1.207686
vertex 2.553073 0.000000 -1.230448
vertex 2.300502 0.000000 -1.359791
endloop
endfacet
facet normal 0.000000 1.000000 0.000000
outer loop
vertex 2.400000 0.000000 -2.000000
vertex 2.216153 0.000000 -1.783848
vertex 2.255552 0.000000 -1.816182
endloop
endfacet
facet normal 0.000000 1.000000 0.000000
outer loop
vertex 2.478036 0.000000 -1.207686
vertex 2.300502 0.000000 -1.359791
vertex 2.255552 0.000000 -1.383818
endloop
endfacet
facet normal 0.000000 1.000000 0.000000
outer loop
vertex 2.400000 0.000000 -2.000000
vertex 2.321965 0.000000 -1.992314
vertex 2.216153 0.000000 -1.783848
endloop
endfacet
facet normal 0.000000 1.000000 0.000000
outer loop
vertex 2.400000 0.000000 -1.200000
vertex 2.478036 0.000000 -1.207686
vertex 2.255552 0.000000 -1.383818
endloop
endfacet
facet normal 0.000000 1.000000 0.000000
outer loop
vertex 2.321965 0.000000 -1.992314
vertex 2.183818 0.000000 -1.744449
vertex 2.216153 0.000000 -1.783848
endloop
endfacet
facet normal 0.000000 1.000000 0.000000
outer loop
vertex 2.400000 0.000000 -1.200000
vertex 2.255552 0.000000 -1.383818
vertex 2.216152 0.000000 -1.416152
endloop
endfacet
facet normal 0.000000 1.000000 0.000000
outer loop
vertex 2.321965 0.000000 -1.992314
vertex 2.246927 0.000000 -1.969552
vertex 2.183818 0.000000 -1.744449
endloop
endfacet
facet normal 0.000000 1.000000 0.000000
outer loop
vertex 2.321964 0.000000 -1.207686
vertex 2.400000 0.000000 -1.200000
vertex 2.216152 0.000000 -1.416152
endloop
endfacet
facet normal 0.000000 1.000000 0.000000
outer loop
vertex 2.246927 0.000000 -1.969552
vertex 2.159791 0.000000 -1.699498
vertex 2.183818 0.000000 -1.744449
endloop
endfacet
facet normal 0.000000 1.000000 0.000000
outer loop
vertex 2.321964 0.000000 -1.207686
vertex 2.216152 0.000000 -1.416152
vertex 2.183818 0.000000 -1.455552
endloop
endfacet
facet normal 0.000000 1.000000 0.000000
outer loop
vertex 2.246927 0.000000 -1.969552
vertex 2.177773 0.000000 -1.932588
vertex 2.159791 0.000000 -1.699498
endloop
endfacet
facet normal 0.000000 1.000000 0.000000
outer loop
vertex 2.246927 0.000000 -1.230448
vertex 2.321964 0.000000 -1.207686
vertex 2.183818 0.000000 -1.455552
endloop
endfacet
facet normal 0.000000 1.000000 0.000000
outer loop
vertex 2.177773 0.000000 -1.932588
vertex 2.144996 0.000000 -1.650724
vertex 2.159791 0.000000 -1.699498
endloop
endfacet
facet normal 0.000000 1.000000 0.000000
outer loop
vertex 2.246927 0.000000 -1.230448
vertex 2.183818 0.000000 -1.455552
vertex 2.159791 0.000000 -1.500503
endloop
endfacet
facet normal 0.000000 1.000000 0.000000
outer loop
vertex 2.177773 0.000000 -1.932588
vertex 2.117158 0.000000 -1.882843
vertex 2.144996 0.000000 -1.650724
endloop
endfacet
facet normal 0.000000 1.000000 0.000000
outer loop
vertex 2.177772 0.000000 -1.267412
vertex 2.246927 0.000000 -1.230448
vertex 2.159791 0.000000 -1.500503
endloop
endfacet
facet normal 0.000000 1.000000 0.000000
outer loop
vertex 2.117158 0.000000 -1.882843
vertex 2.140000 0.000000 -1.600000
vertex 2.144996 0.000000 -1.650724
endloop
endfacet
facet normal 0.000000 1.000000 0.000000
outer loop
vertex 2.177772 0.000000 -1.267412
vertex 2.159791 0.000000 -1.500503
vertex 2.144996 0.000000 -1.549277
endloop
endfacet
facet normal 0.000000 1.000000 0.000000
outer loop
vertex 2.117158 0.000000 -1.882843
vertex 2.067413 0.000000 -1.822229
vertex 2.140000 0.000000 -1.600000
endloop
endfacet
facet normal 0.000000 1.000000 0.000000
outer loop
vertex 2.117157 0.000000 -1.317158
vertex 2.177772 0.000000 -1.267412
vertex 2.144996 0.000000 -1.549277
endloop
endfacet
facet normal 0.000000 1.000000 0.000000
outer loop
vertex 2.067413 0.000000 -1.822229
vertex 2.144996 0.000000 -1.549277
vertex 2.140000 0.000000 -1.600000
endloop
endfacet
facet normal 0.000000 1.000000 0.000000
outer loop
vertex 2.067413 0.000000 -1.822229
vertex 2.030448 0.000000 -1.753074
vertex 2.007686 0.000000 -1.678037
endloop
endfacet
facet normal 0.000000 1.000000 0.000000
outer loop
vertex 2.007686 0.000000 -1.678037
vertex 2.000000 0.000000 -1.600000
vertex 2.007686 0.000000 -1.521964
endloop
endfacet
facet normal 0.000000 1.000000 0.000000
outer loop
vertex 2.007686 0.000000 -1.521964
vertex 2.030448 0.000000 -1.446927
vertex 2.067412 0.000000 -1.377772
endloop
endfacet
facet normal 0.000000 1.000000 0.000000
outer loop
vertex 2.067412 0.000000 -1.377772
vertex 2.117157 0.000000 -1.317158
vertex 2.144996 0.000000 -1.549277
endloop
endfacet
facet normal 0.000000 1.000000 0.000000
outer loop
vertex 2.067413 0.000000 -1.822229
vertex 2.007686 0.000000 -1.678037
vertex 2.144996 0.000000 -1.549277
endloop
endfacet
facet normal 0.000000 1.000000 0.000000
outer loop
vertex 2.007686 0.000000 -1.678037
vertex 2.007686 0.000000 -1.521964
vertex 2.067412 0.000000 -1.377772
endloop
endfacet
facet normal 0.000000 1.000000 0.000000
outer loop
vertex 2.007686 0.000000 -1.678037
vertex 2.067412 0.000000 -1.377772
vertex 2.144996 0.000000 -1.549277
endloop
endfacet
facet normal 0.000000 -1.000000 0.000000
outer loop
vertex 2.400000 0.180000 -2.000000
vertex 2.246927 0.180000 -1.969552
vertex 2.321965 0.180000 -1.992314
endloop
endfacet
facet normal 0.000000 -1.000000 0.000000
outer loop
vertex 2.117158 0.180000 -1.882843
vertex 2.177773 0.180000 -1.932588
vertex 2.246927 0.180000 -1.969552
endloop
endfacet
facet normal 0.000000 -1.000000 0.000000
outer loop
vertex 2.030448 0.180000 -1.753074
vertex 2.067413 0.180000 -1.822229
vertex 2.117158 0.180000 -1.882843
endloop
endfacet
facet normal 0.000000 -1.000000 0.000000
outer loop
vertex 2.000000 0.180000 -1.600000
vertex 2.007686 0.180000 -1.678037
vertex 2.030448 0.180000 -1.753074
endloop
endfacet
facet normal 0.000000 -1.000000 -0.000000
outer loop
vertex 2.030448 0.180000 -1.446927
vertex 2.007686 0.180000 -1.521964
vertex 2.000000 0.180000 -1.600000
endloop
endfacet
facet normal 0.000000 -1.000000 -0.000001
outer loop
vertex 2.117157 0.180000 -1.317158
vertex 2.067412 0.180000 -1.377772
vertex 2.030448 0.180000 -1.446927
endloop
endfacet
facet normal 0.000000 -1.000000 0.000000
outer loop
vertex 2.246927 0.180000 -1.230448
vertex 2.177772 0.180000 -1.267412
vertex 2.117157 0.180000 -1.317158
endloop
endfacet
facet normal 0.000000 -1.000000 0.000000
outer loop
vertex 2.400000 0.180000 -1.200000
vertex 2.321964 0.180000 -1.207686
vertex 2.246927 0.180000 -1.230448
endloop
endfacet
facet normal 0.000000 -1.000000 0.000000
outer loop
vertex 2.553073 0.180000 -1.230448
vertex 2.478036 0.180000 -1.207686
vertex 2.400000 0.180000 -1.200000
endloop
endfacet
facet normal 0.000000 -1.000000 0.000000
outer loop
vertex 2.682843 0.180000 -1.317157
vertex 2.622228 0.180000 -1.267412
vertex 2.553073 0.180000 -1.230448
endloop
endfacet
facet normal 0.000000 -1.000000 -0.000002
outer loop
vertex 2.769552 0.180000 -1.446927
vertex 2.732588 0.180000 -1.377772
vertex 2.682843 0.180000 -1.317157
endloop
endfacet
facet normal 0.000000 -1.000000 0.000000
outer loop
vertex 2.800000 0.180000 -1.600000
vertex 2.792314 0.180000 -1.521964
vertex 2.769552 0.180000 -1.446927
endloop
endfacet
facet normal 0.000000 -1.000000 0.000000
outer loop
vertex 2.769552 0.180000 -1.753073
vertex 2.792314 0.180000 -1.678036
vertex 2.800000 0.180000 -1.600000
endloop
endfacet
facet normal 0.000000 -1.000000 0.000001
outer loop
vertex 2.682843 0.180000 -1.882843
vertex 2.732588 0.180000 -1.822228
vertex 2.769552 0.180000 -1.753073
endloop
endfacet
facet normal 0.000000 -1.000000 0.000000
outer loop
vertex 2.553073 0.180000 -1.969552
vertex 2.622228 0.180000 -1.932588
vertex 2.682843 0.180000 -1.882843
endloop
endfacet
facet normal 0.000000 -1.000000 0.000000
outer loop
vertex 2.400000 0.180000 -2.000000
vertex 2.478036 0.180000 -1.992314
vertex 2.553073 0.180000 -1.969552
endloop
endfacet
facet normal 0.000000 -1.000000 -0.000000
outer loop
vertex 2.400000 0.180000 -2.000000
vertex 2.117158 0.180000 -1.882843
vertex 2.246927 0.180000 -1.969552
endloop
endfacet
facet normal 0.000000 -1.000000 0.000000
outer loop
vertex 2.000000 0.180000 -1.600000
vertex 2.030448 0.180000 -1.753074
vertex 2.117158 0.180000 -1.882843
endloop
endfacet
facet normal 0.000000 -1.000000 0.000000
outer loop
vertex 2.117157 0.180000 -1.317158
vertex 2.030448 0.180000 -1.446927
vertex 2.000000 0.180000 -1.600000
endloop
endfacet
facet normal 0.000000 -1.000000 0.000000
outer loop
vertex 2.400000 0.180000 -1.200000
vertex 2.246927 0.180000 -1.230448
vertex 2.117157 0.180000 -1.317158
endloop
endfacet
facet normal 0.000000 -1.000000 0.000000
outer loop
vertex 2.682843 0.180000 -1.317157
vertex 2.553073 0.180000 -1.230448
vertex 2.400000 0.180000 -1.200000
endloop
endfacet
facet normal 0.000000 -1.000000 0.000000
outer loop
vertex 2.800000 0.180000 -1.600000
vertex 2.769552 0.180000 -1.446927
vertex 2.682843 0.180000 -1.317157
endloop
endfacet
facet normal 0.000000 -1.000000 -0.000000
outer loop
vertex 2.682843 0.180000 -1.882843
vertex 2.769552 0.180000 -1.753073
vertex 2.800000 0.180000 -1.600000
endloop
endfacet
facet normal 0.000000 -1.000000 0.000000
outer loop
vertex 2.400000 0.180000 -2.000000
vertex 2.553073 0.180000 -1.969552
vertex 2.682843 0.180000 -1.882843
endloop
endfacet
facet normal 0.000000 -1.000000 0.000000
outer loop
vertex 2.400000 0.180000 -2.000000
vertex 2.000000 0.180000 -1.600000
vertex 2.117158 0.180000 -1.882843
endloop
endfacet
facet normal 0.000000 -1.000000 -0.000000
outer loop
vertex 2.400000 0.180000 -1.200000
vertex 2.117157 0.180000 -1.317158
vertex 2.000000 0.180000 -1.600000
endloop
endfacet
facet normal 0.000000 -1.000000 -0.000000
outer loop
vertex 2.800000 0.180000 -1.600000
vertex 2.682843 0.180000 -1.317157
vertex 2.400000 0.180000 -1.200000
endloop
endfacet
facet normal 0.000000 -1.000000 -0.000000
outer loop
vertex 2.400000 0.180000 -2.000000
vertex 2.682843 0.180000 -1.882843
vertex 2.800000 0.180000 -1.600000
endloop
endfacet
facet normal 0.000000 -1.000000 0.000000
outer loop
vertex 2.400000 0.180000 -2.000000
vertex 2.400000 0.180000 -1.200000
vertex 2.000000 0.180000 -1.600000
endloop
endfacet
facet normal 0.000000 -1.000000 0.000000
outer loop
vertex 2.400000 0.180000 -2.000000
vertex 2.800000 0.180000 -1.600000
vertex 2.400000 0.180000 -1.200000
endloop
endfacet
facet normal -0.098015 0.000000 0.995185
outer loop
vertex 2.400000 0.000000 -2.000000
vertex 2.478036 0.000000 -1.992314
vertex 2.478036 0.180000 -1.992314
endloop
endfacet
facet normal -0.098019 0.000000 0.995185
outer loop
vertex 2.478036 0.180000 -1.992314
vertex 2.400000 0.180000 -2.000000
vertex 2.400000 0.000000 -2.000000
endloop
endfacet
facet normal -0.773009 0.000000 -0.634395
outer loop
vertex 2.732588 0.000000 -1.377772
vertex 2.682843 0.000000 -1.317157
vertex 2.682843 0.180000 -1.317157
endloop
endfacet
facet normal -0.773010 0.000000 -0.634394
outer loop
vertex 2.682843 0.180000 -1.317157
vertex 2.732588 0.180000 -1.377772
vertex 2.732588 0.000000 -1.377772
endloop
endfacet
facet normal 0.098015 0.000000 0.995185
outer loop
vertex 2.321965 0.000000 -1.992314
vertex 2.400000 0.000000 -2.000000
vertex 2.400000 0.180000 -2.000000
endloop
endfacet
facet normal 0.098019 0.000000 0.995184
outer loop
vertex 2.400000 0.180000 -2.000000
vertex 2.321965 0.180000 -1.992314
vertex 2.321965 0.000000 -1.992314
endloop
endfacet
facet normal 0.773012 0.000000 -0.634392
outer loop
vertex 2.117157 0.000000 -1.317158
vertex 2.067412 0.000000 -1.377772
vertex 2.067412 0.180000 -1.377772
endloop
endfacet
facet normal 0.773011 0.000000 -0.634393
outer loop
vertex 2.067412 0.180000 -1.377772
vertex 2.117157 0.180000 -1.317158
vertex 2.117157 0.000000 -1.317158
endloop
endfacet
facet normal -0.956940 0.000000 -0.290285
outer loop
vertex 2.792314 0.000000 -1.521964
vertex 2.769552 0.000000 -1.446927
vertex 2.769552 0.180000 -1.446927
endloop
endfacet
facet normal -0.956940 0.000000 -0.290285
outer loop
vertex 2.769552 0.180000 -1.446927
vertex 2.792314 0.180000 -1.521964
vertex 2.792314 0.000000 -1.521964
endloop
endfacet
facet normal 0.471395 0.000000 0.881922
outer loop
vertex 2.177773 0.000000 -1.932588
vertex 2.246927 0.000000 -1.969552
vertex 2.246927 0.180000 -1.969552
endloop
endfacet
facet normal 0.471395 0.000000 0.881922
outer loop
vertex 2.246927 0.180000 -1.969552
vertex 2.177773 0.180000 -1.932588
vertex 2.177773 0.000000 -1.932588
endloop
endfacet
facet normal 0.471398 0.000000 -0.881920
outer loop
vertex 2.246927 0.000000 -1.230448
vertex 2.177772 0.000000 -1.267412
vertex 2.177772 0.180000 -1.267412
endloop
endfacet
facet normal 0.471397 0.000000 -0.881921
outer loop
vertex 2.177772 0.180000 -1.267412
vertex 2.246927 0.180000 -1.230448
vertex 2.246927 0.000000 -1.230448
endloop
endfacet
facet normal -0.995185 0.000000 0.098017
outer loop
vertex 2.792314 0.000000 -1.678036
vertex 2.800000 0.000000 -1.600000
vertex 2.800000 0.180000 -1.600000
endloop
endfacet
facet normal -0.995185 0.000000 0.098017
outer loop
vertex 2.800000 0.180000 -1.600000
vertex 2.792314 0.180000 -1.678036
vertex 2.792314 0.000000 -1.678036
endloop
endfacet
facet normal 0.773011 0.000000 0.634393
outer loop
vertex 2.067413 0.000000 -1.822229
vertex 2.117158 0.000000 -1.882843
vertex 2.117158 0.180000 -1.882843
endloop
endfacet
facet normal 0.773011 0.000000 0.634393
outer loop
vertex 2.117158 0.180000 -1.882843
vertex 2.067413 0.180000 -1.822229
vertex 2.067413 0.000000 -1.822229
endloop
endfacet
facet normal 0.098017 0.000000 -0.995185
outer loop
vertex 2.400000 0.000000 -1.200000
vertex 2.321964 0.000000 -1.207686
vertex 2.321964 0.180000 -1.207686
endloop
endfacet
facet normal 0.098017 0.000000 -0.995185
outer loop
vertex 2.321964 0.180000 -1.207686
vertex 2.400000 0.180000 -1.200000
vertex 2.400000 0.000000 -1.200000
endloop
endfacet
facet normal -0.881921 0.000000 0.471397
outer loop
vertex 2.732588 0.000000 -1.822228
vertex 2.769552 0.000000 -1.753073
vertex 2.769552 0.180000 -1.753073
endloop
endfacet
facet normal -0.881921 0.000000 0.471397
outer loop
vertex 2.769552 0.180000 -1.753073
vertex 2.732588 0.180000 -1.822228
vertex 2.732588 0.000000 -1.822228
endloop
endfacet
facet normal 0.956940 0.000000 0.290285
outer loop
vertex 2.007686 0.000000 -1.678037
vertex 2.030448 0.000000 -1.753074
vertex 2.030448 0.180000 -1.753074
endloop
endfacet
facet normal 0.956940 0.000000 0.290285
outer loop
vertex 2.030448 0.180000 -1.753074
vertex 2.007686 0.180000 -1.678037
vertex 2.007686 0.000000 -1.678037
endloop
endfacet
facet normal -0.634393 0.000000 0.773011
outer loop
vertex 2.622228 0.000000 -1.932588
vertex 2.682843 0.000000 -1.882843
vertex 2.682843 0.180000 -1.882843
endloop
endfacet
facet normal -0.634393 0.000000 0.773011
outer loop
vertex 2.682843 0.180000 -1.882843
vertex 2.622228 0.180000 -1.932588
vertex 2.622228 0.000000 -1.932588
endloop
endfacet
facet normal -0.290285 0.000000 -0.956940
outer loop
vertex 2.553073 0.000000 -1.230448
vertex 2.478036 0.000000 -1.207686
vertex 2.478036 0.180000 -1.207686
endloop
endfacet
facet normal -0.290281 0.000000 -0.956941
outer loop
vertex 2.478036 0.180000 -1.207686
vertex 2.553073 0.180000 -1.230448
vertex 2.553073 0.000000 -1.230448
endloop
endfacet
facet normal 0.995185 0.000000 -0.098017
outer loop
vertex 2.007686 0.000000 -1.521964
vertex 2.000000 0.000000 -1.600000
vertex 2.000000 0.180000 -1.600000
endloop
endfacet
facet normal 0.995185 0.000000 -0.098017
outer loop
vertex 2.000000 0.180000 -1.600000
vertex 2.007686 0.180000 -1.521964
vertex 2.007686 0.000000 -1.521964
endloop
endfacet
facet normal -0.290285 0.000000 0.956940
outer loop
vertex 2.478036 0.000000 -1.992314
vertex 2.553073 0.000000 -1.969552
vertex 2.553073 0.180000 -1.969552
endloop
endfacet
facet normal -0.290285 0.000000 0.956940
outer loop
vertex 2.553073 0.180000 -1.969552
vertex 2.478036 0.180000 -1.992314
vertex 2.478036 0.000000 -1.992314
endloop
endfacet
facet normal -0.634393 0.000000 -0.773011
outer loop
vertex 2.682843 0.000000 -1.317157
vertex 2.622228 0.000000 -1.267412
vertex 2.622228 0.180000 -1.267412
endloop
endfacet
facet normal -0.634393 0.000000 -0.773011
outer loop
vertex 2.622228 0.180000 -1.267412
vertex 2.682843 0.180000 -1.317157
vertex 2.682843 0.000000 -1.317157
endloop
endfacet
facet normal 0.881922 0.000000 -0.471395
outer loop
vertex 2.067412 0.000000 -1.377772
vertex 2.030448 0.000000 -1.446927
vertex 2.030448 0.180000 -1.446927
endloop
endfacet
facet normal 0.881921 0.000000 -0.471397
outer loop
vertex 2.030448 0.180000 -1.446927
vertex 2.067412 0.180000 -1.377772
vertex 2.067412 0.000000 -1.377772
endloop
endfacet
facet normal -0.881922 0.000000 -0.471396
outer loop
vertex 2.769552 0.000000 -1.446927
vertex 2.732588 0.000000 -1.377772
vertex 2.732588 0.180000 -1.377772
endloop
endfacet
facet normal -0.881921 0.000000 -0.471397
outer loop
vertex 2.732588 0.180000 -1.377772
vertex 2.769552 0.180000 -1.446927
vertex 2.769552 0.000000 -1.446927
endloop
endfacet
facet normal 0.290281 0.000000 0.956941
outer loop
vertex 2.246927 0.000000 -1.969552
vertex 2.321965 0.000000 -1.992314
vertex 2.321965 0.180000 -1.992314
endloop
endfacet
facet normal 0.290285 0.000000 0.956940
outer loop
vertex 2.321965 0.180000 -1.992314
vertex 2.246927 0.180000 -1.969552
vertex 2.246927 0.000000 -1.969552
endloop
endfacet
facet normal 0.634393 0.000000 -0.773011
outer loop
vertex 2.177772 0.000000 -1.267412
vertex 2.117157 0.000000 -1.317158
vertex 2.117157 0.180000 -1.317158
endloop
endfacet
facet normal 0.634395 0.000000 -0.773009
outer loop
vertex 2.117157 0.180000 -1.317158
vertex 2.177772 0.180000 -1.267412
vertex 2.177772 0.000000 -1.267412
endloop
endfacet
facet normal -0.995185 0.000000 -0.098017
outer loop
vertex 2.800000 0.000000 -1.600000
vertex 2.792314 0.000000 -1.521964
vertex 2.792314 0.180000 -1.521964
endloop
endfacet
facet normal -0.995185 0.000000 -0.098017
outer loop
vertex 2.792314 0.180000 -1.521964
vertex 2.800000 0.180000 -1.600000
vertex 2.800000 0.000000 -1.600000
endloop
endfacet
facet normal 0.634391 0.000000 0.773012
outer loop
vertex 2.117158 0.000000 -1.882843
vertex 2.177773 0.000000 -1.932588
vertex 2.177773 0.180000 -1.932588
endloop
endfacet
facet normal 0.634391 0.000000 0.773012
outer loop
vertex 2.177773 0.180000 -1.932588
vertex 2.117158 0.180000 -1.882843
vertex 2.117158 0.000000 -1.882843
endloop
endfacet
facet normal 0.290283 0.000000 -0.956941
outer loop
vertex 2.321964 0.000000 -1.207686
vertex 2.246927 0.000000 -1.230448
vertex 2.246927 0.180000 -1.230448
endloop
endfacet
facet normal 0.290285 0.000000 -0.956940
outer loop
vertex 2.246927 0.180000 -1.230448
vertex 2.321964 0.180000 -1.207686
vertex 2.321964 0.000000 -1.207686
endloop
endfacet
facet normal -0.956940 0.000000 0.290285
outer loop
vertex 2.769552 0.000000 -1.753073
vertex 2.792314 0.000000 -1.678036
vertex 2.792314 0.180000 -1.678036
endloop
endfacet
facet normal -0.956940 0.000000 0.290285
outer loop
vertex 2.792314 0.180000 -1.678036
vertex 2.769552 0.180000 -1.753073
vertex 2.769552 0.000000 -1.753073
endloop
endfacet
facet normal 0.881920 0.000000 0.471399
outer loop
vertex 2.030448 0.000000 -1.753074
vertex 2.067413 0.000000 -1.822229
vertex 2.067413 0.180000 -1.822229
endloop
endfacet
facet normal 0.881920 0.000000 0.471399
outer loop
vertex 2.067413 0.180000 -1.822229
vertex 2.030448 0.180000 -1.753074
vertex 2.030448 0.000000 -1.753074
endloop
endfacet
facet normal -0.773009 0.000000 0.634395
outer loop
vertex 2.682843 0.000000 -1.882843
vertex 2.732588 0.000000 -1.822228
vertex 2.732588 0.180000 -1.822228
endloop
endfacet
facet normal -0.773009 0.000000 0.634395
outer loop
vertex 2.732588 0.180000 -1.822228
vertex 2.682843 0.180000 -1.882843
vertex 2.682843 0.000000 -1.882843
endloop
endfacet
facet normal -0.098016 0.000000 -0.995185
outer loop
vertex 2.478036 0.000000 -1.207686
vertex 2.400000 0.000000 -1.200000
vertex 2.400000 0.180000 -1.200000
endloop
endfacet
facet normal -0.098016 0.000000 -0.995185
outer loop
vertex 2.400000 0.180000 -1.200000
vertex 2.478036 0.180000 -1.207686
vertex 2.478036 0.000000 -1.207686
endloop
endfacet
facet normal 0.995184 0.000000 0.098020
outer loop
vertex 2.000000 0.000000 -1.600000
vertex 2.007686 0.000000 -1.678037
vertex 2.007686 0.180000 -1.678037
endloop
endfacet
facet normal 0.995184 0.000000 0.098020
outer loop
vertex 2.007686 0.180000 -1.678037
vertex 2.000000 0.180000 -1.600000
vertex 2.000000 0.000000 -1.600000
endloop
endfacet
facet normal -0.471398 0.000000 0.881920
outer loop
vertex 2.553073 0.000000 -1.969552
vertex 2.622228 0.000000 -1.932588
vertex 2.622228 0.180000 -1.932588
endloop
endfacet
facet normal -0.471395 0.000000 0.881922
outer loop
vertex 2.622228 0.180000 -1.932588
vertex 2.553073 0.180000 -1.969552
vertex 2.553073 0.000000 -1.969552
endloop
endfacet
facet normal -0.471398 0.000000 -0.881920
outer loop
vertex 2.622228 0.000000 -1.267412
vertex 2.553073 0.000000 -1.230448
vertex 2.553073 0.180000 -1.230448
endloop
endfacet
facet normal -0.471397 0.000000 -0.881921
outer loop
vertex 2.553073 0.180000 -1.230448
vertex 2.622228 0.180000 -1.267412
vertex 2.622228 0.000000 -1.267412
endloop
endfacet
facet normal 0.000000 1.000000 0.000000
outer loop
vertex 2.800000 0.000000 -1.600000
vertex 2.660000 0.000000 -1.600000
vertex 2.655004 0.000000 -1.549277
endloop
endfacet
facet normal 0.000000 1.000000 0.000000
outer loop
vertex 2.655004 0.000000 -1.549277
vertex 2.792314 0.000000 -1.521964
vertex 2.800000 0.000000 -1.600000
endloop
endfacet
endsolid Exported from Blender-2.74 (sub 0)
