solid Exported from Blender-2.74 (sub 0)
facet normal 0.098016 0.000000 -0.995185
outer loop
vertex 1.600000 0.000000 -2.800000
vertex 1.600000 0.300000 -2.800000
vertex 1.678036 0.300000 -2.792314
endloop
endfacet
facet normal 0.098016 0.000000 -0.995185
outer loop
vertex 1.678036 0.300000 -2.792314
vertex 1.678036 0.000000 -2.792314
vertex 1.600000 0.000000 -2.800000
endloop
endfacet
facet normal 0.290288 0.000000 -0.956939
outer loop
vertex 1.678036 0.000000 -2.792314
vertex 1.678036 0.300000 -2.792314
vertex 1.753073 0.300000 -2.769552
endloop
endfacet
facet normal 0.290284 0.000000 -0.956941
outer loop
vertex 1.753073 0.300000 -2.769552
vertex 1.753073 0.000000 -2.769552
vertex 1.678036 0.000000 -2.792314
endloop
endfacet
facet normal 0.471398 0.000000 -0.881921
outer loop
vertex 1.753073 0.000000 -2.769552
vertex 1.753073 0.300000 -2.769552
vertex 1.822228 0.300000 -2.732588
endloop
endfacet
facet normal 0.471402 0.000000 -0.881919
outer loop
vertex 1.822228 0.300000 -2.732588
vertex 1.822228 0.000000 -2.732588
vertex 1.753073 0.000000 -2.769552
endloop
endfacet
facet normal 0.634391 0.000000 -0.773013
outer loop
vertex 1.822228 0.000000 -2.732588
vertex 1.822228 0.300000 -2.732588
vertex 1.882843 0.300000 -2.682843
endloop
endfacet
facet normal 0.634394 0.000000 -0.773010
outer loop
vertex 1.882843 0.300000 -2.682843
vertex 1.882843 0.000000 -2.682843
vertex 1.822228 0.000000 -2.732588
endloop
endfacet
facet normal 0.773009 0.000000 -0.634395
outer loop
vertex 1.882843 0.000000 -2.682843
vertex 1.882843 0.300000 -2.682843
vertex 1.932588 0.300000 -2.622228
endloop
endfacet
facet normal 0.773011 0.000000 -0.634392
outer loop
vertex 1.932588 0.300000 -2.622228
vertex 1.932588 0.000000 -2.622228
vertex 1.882843 0.000000 -2.682843
endloop
endfacet
facet normal 0.881922 0.000000 -0.471396
outer loop
vertex 1.932588 0.000000 -2.622228
vertex 1.932588 0.300000 -2.622228
vertex 1.969552 0.300000 -2.553073
endloop
endfacet
facet normal 0.881921 0.000000 -0.471398
outer loop
vertex 1.969552 0.300000 -2.553073
vertex 1.969552 0.000000 -2.553073
vertex 1.932588 0.000000 -2.622228
endloop
endfacet
facet normal 0.956940 0.000000 -0.290285
outer loop
vertex 1.969552 0.000000 -2.553073
vertex 1.969552 0.300000 -2.553073
vertex 1.992314 0.300000 -2.478036
endloop
endfacet
facet normal 0.956941 0.000000 -0.290284
outer loop
vertex 1.992314 0.300000 -2.478036
vertex 1.992314 0.000000 -2.478036
vertex 1.969552 0.000000 -2.553073
endloop
endfacet
facet normal 0.995185 0.000000 -0.098017
outer loop
vertex 1.992314 0.000000 -2.478036
vertex 1.992314 0.300000 -2.478036
vertex 2.000000 0.300000 -2.400000
endloop
endfacet
facet normal 0.995185 0.000000 -0.098017
outer loop
vertex 2.000000 0.300000 -2.400000
vertex 2.000000 0.000000 -2.400000
vertex 1.992314 0.000000 -2.478036
endloop
endfacet
facet normal 0.995185 0.000000 0.098017
outer loop
vertex 2.000000 0.000000 -2.400000
vertex 2.000000 0.300000 -2.400000
vertex 1.992314 0.300000 -2.321964
endloop
endfacet
facet normal 0.995185 0.000000 0.098017
outer loop
vertex 1.992314 0.300000 -2.321964
vertex 1.992314 0.000000 -2.321964
vertex 2.000000 0.000000 -2.400000
endloop
endfacet
facet normal 0.956941 0.000000 0.290284
outer loop
vertex 1.992314 0.000000 -2.321964
vertex 1.992314 0.300000 -2.321964
vertex 1.969552 0.300000 -2.246927
endloop
endfacet
facet normal 0.956940 0.000000 0.290285
outer loop
vertex 1.969552 0.300000 -2.246927
vertex 1.969552 0.000000 -2.246927
vertex 1.992314 0.000000 -2.321964
endloop
endfacet
facet normal 0.881921 0.000000 0.471398
outer loop
vertex 1.969552 0.000000 -2.246927
vertex 1.969552 0.300000 -2.246927
vertex 1.932588 0.300000 -2.177772
endloop
endfacet
facet normal 0.881922 0.000000 0.471396
outer loop
vertex 1.932588 0.300000 -2.177772
vertex 1.932588 0.000000 -2.177772
vertex 1.969552 0.000000 -2.246927
endloop
endfacet
facet normal 0.773011 0.000000 0.634392
outer loop
vertex 1.932588 0.000000 -2.177772
vertex 1.932588 0.300000 -2.177772
vertex 1.882843 0.300000 -2.117157
endloop
endfacet
facet normal 0.773009 0.000000 0.634395
outer loop
vertex 1.882843 0.300000 -2.117157
vertex 1.882843 0.000000 -2.117157
vertex 1.932588 0.000000 -2.177772
endloop
endfacet
facet normal 0.634397 0.000000 0.773008
outer loop
vertex 1.882843 0.000000 -2.117157
vertex 1.882843 0.300000 -2.117157
vertex 1.822228 0.300000 -2.067412
endloop
endfacet
facet normal 0.634394 0.000000 0.773010
outer loop
vertex 1.822228 0.300000 -2.067412
vertex 1.822228 0.000000 -2.067412
vertex 1.882843 0.000000 -2.117157
endloop
endfacet
facet normal 0.471393 0.000000 0.881923
outer loop
vertex 1.822228 0.000000 -2.067412
vertex 1.822228 0.300000 -2.067412
vertex 1.753073 0.300000 -2.030448
endloop
endfacet
facet normal 0.471397 0.000000 0.881921
outer loop
vertex 1.753073 0.300000 -2.030448
vertex 1.753073 0.000000 -2.030448
vertex 1.822228 0.000000 -2.067412
endloop
endfacet
facet normal 0.290284 0.000000 0.956941
outer loop
vertex 1.753073 0.000000 -2.030448
vertex 1.753073 0.300000 -2.030448
vertex 1.678036 0.300000 -2.007686
endloop
endfacet
facet normal 0.290288 0.000000 0.956939
outer loop
vertex 1.678036 0.300000 -2.007686
vertex 1.678036 0.000000 -2.007686
vertex 1.753073 0.000000 -2.030448
endloop
endfacet
facet normal 0.098016 0.000000 0.995185
outer loop
vertex 1.678036 0.000000 -2.007686
vertex 1.678036 0.300000 -2.007686
vertex 1.600000 0.300000 -2.000000
endloop
endfacet
facet normal 0.098016 0.000000 0.995185
outer loop
vertex 1.600000 0.300000 -2.000000
vertex 1.600000 0.000000 -2.000000
vertex 1.678036 0.000000 -2.007686
endloop
endfacet
facet normal -0.098021 0.000000 0.995184
outer loop
vertex 1.600000 0.000000 -2.000000
vertex 1.600000 0.300000 -2.000000
vertex 1.521964 0.300000 -2.007686
endloop
endfacet
facet normal -0.098021 0.000000 0.995184
outer loop
vertex 1.521964 0.300000 -2.007686
vertex 1.521964 0.000000 -2.007686
vertex 1.600000 0.000000 -2.000000
endloop
endfacet
facet normal -0.290284 0.000000 0.956941
outer loop
vertex 1.521964 0.000000 -2.007686
vertex 1.521964 0.300000 -2.007686
vertex 1.446926 0.300000 -2.030448
endloop
endfacet
facet normal -0.290284 0.000000 0.956941
outer loop
vertex 1.446926 0.300000 -2.030448
vertex 1.446926 0.000000 -2.030448
vertex 1.521964 0.000000 -2.007686
endloop
endfacet
facet normal -0.471397 0.000000 0.881921
outer loop
vertex 1.446926 0.000000 -2.030448
vertex 1.446926 0.300000 -2.030448
vertex 1.377772 0.300000 -2.067412
endloop
endfacet
facet normal -0.471397 0.000000 0.881921
outer loop
vertex 1.377772 0.300000 -2.067412
vertex 1.377772 0.000000 -2.067412
vertex 1.446926 0.000000 -2.030448
endloop
endfacet
facet normal -0.634391 0.000000 0.773012
outer loop
vertex 1.377772 0.000000 -2.067412
vertex 1.377772 0.300000 -2.067412
vertex 1.317157 0.300000 -2.117157
endloop
endfacet
facet normal -0.634394 0.000000 0.773010
outer loop
vertex 1.317157 0.300000 -2.117157
vertex 1.317157 0.000000 -2.117157
vertex 1.377772 0.000000 -2.067412
endloop
endfacet
facet normal -0.773009 0.000000 0.634395
outer loop
vertex 1.317157 0.000000 -2.117157
vertex 1.317157 0.300000 -2.117157
vertex 1.267412 0.300000 -2.177772
endloop
endfacet
facet normal -0.773013 0.000000 0.634391
outer loop
vertex 1.267412 0.300000 -2.177772
vertex 1.267412 0.000000 -2.177772
vertex 1.317157 0.000000 -2.117157
endloop
endfacet
facet normal -0.881922 0.000000 0.471396
outer loop
vertex 1.267412 0.000000 -2.177772
vertex 1.267412 0.300000 -2.177772
vertex 1.230448 0.300000 -2.246927
endloop
endfacet
facet normal -0.881921 0.000000 0.471398
outer loop
vertex 1.230448 0.300000 -2.246927
vertex 1.230448 0.000000 -2.246927
vertex 1.267412 0.000000 -2.177772
endloop
endfacet
facet normal -0.956941 0.000000 0.290282
outer loop
vertex 1.230448 0.000000 -2.246927
vertex 1.230448 0.300000 -2.246927
vertex 1.207686 0.300000 -2.321964
endloop
endfacet
facet normal -0.956941 0.000000 0.290284
outer loop
vertex 1.207686 0.300000 -2.321964
vertex 1.207686 0.000000 -2.321964
vertex 1.230448 0.000000 -2.246927
endloop
endfacet
facet normal -0.995185 0.000000 0.098015
outer loop
vertex 1.207686 0.000000 -2.321964
vertex 1.207686 0.300000 -2.321964
vertex 1.200000 0.300000 -2.400001
endloop
endfacet
facet normal -0.995185 0.000000 0.098015
outer loop
vertex 1.200000 0.300000 -2.400001
vertex 1.200000 0.000000 -2.400001
vertex 1.207686 0.000000 -2.321964
endloop
endfacet
facet normal -0.995185 0.000000 -0.098017
outer loop
vertex 1.200000 0.000000 -2.400001
vertex 1.200000 0.300000 -2.400001
vertex 1.207686 0.300000 -2.478037
endloop
endfacet
facet normal -0.995185 0.000000 -0.098018
outer loop
vertex 1.207686 0.300000 -2.478037
vertex 1.207686 0.000000 -2.478037
vertex 1.200000 0.000000 -2.400001
endloop
endfacet
facet normal -0.956940 0.000000 -0.290285
outer loop
vertex 1.207686 0.000000 -2.478037
vertex 1.207686 0.300000 -2.478037
vertex 1.230448 0.300000 -2.553074
endloop
endfacet
facet normal -0.956940 0.000000 -0.290287
outer loop
vertex 1.230448 0.300000 -2.553074
vertex 1.230448 0.000000 -2.553074
vertex 1.207686 0.000000 -2.478037
endloop
endfacet
facet normal -0.881921 0.000000 -0.471397
outer loop
vertex 1.230448 0.000000 -2.553074
vertex 1.230448 0.300000 -2.553074
vertex 1.267412 0.300000 -2.622229
endloop
endfacet
facet normal -0.881920 0.000000 -0.471399
outer loop
vertex 1.267412 0.300000 -2.622229
vertex 1.267412 0.000000 -2.622229
vertex 1.230448 0.000000 -2.553074
endloop
endfacet
facet normal -0.773011 0.000000 -0.634393
outer loop
vertex 1.267412 0.000000 -2.622229
vertex 1.267412 0.300000 -2.622229
vertex 1.317158 0.300000 -2.682843
endloop
endfacet
facet normal -0.773011 0.000000 -0.634393
outer loop
vertex 1.317158 0.300000 -2.682843
vertex 1.317158 0.000000 -2.682843
vertex 1.267412 0.000000 -2.622229
endloop
endfacet
facet normal -0.634391 0.000000 -0.773013
outer loop
vertex 1.317158 0.000000 -2.682843
vertex 1.317158 0.300000 -2.682843
vertex 1.377772 0.300000 -2.732588
endloop
endfacet
facet normal -0.634394 0.000000 -0.773010
outer loop
vertex 1.377772 0.300000 -2.732588
vertex 1.377772 0.000000 -2.732588
vertex 1.317158 0.000000 -2.682843
endloop
endfacet
facet normal -0.471397 0.000000 -0.881921
outer loop
vertex 1.377772 0.000000 -2.732588
vertex 1.377772 0.300000 -2.732588
vertex 1.446927 0.300000 -2.769552
endloop
endfacet
facet normal -0.471393 0.000000 -0.881923
outer loop
vertex 1.446927 0.300000 -2.769552
vertex 1.446927 0.000000 -2.769552
vertex 1.377772 0.000000 -2.732588
endloop
endfacet
facet normal 0.000000 1.000000 0.000000
outer loop
vertex 1.678036 0.300000 -2.792314
vertex 1.822228 0.300000 -2.732588
vertex 1.753073 0.300000 -2.769552
endloop
endfacet
facet normal 0.000000 1.000000 0.000000
outer loop
vertex 1.932588 0.300000 -2.622228
vertex 1.882843 0.300000 -2.682843
vertex 1.822228 0.300000 -2.732588
endloop
endfacet
facet normal 0.000000 1.000000 0.000002
outer loop
vertex 1.992314 0.300000 -2.478036
vertex 1.969552 0.300000 -2.553073
vertex 1.932588 0.300000 -2.622228
endloop
endfacet
facet normal 0.000000 1.000000 0.000000
outer loop
vertex 1.992314 0.300000 -2.321964
vertex 2.000000 0.300000 -2.400000
vertex 1.992314 0.300000 -2.478036
endloop
endfacet
facet normal 0.000000 1.000000 -0.000002
outer loop
vertex 1.932588 0.300000 -2.177772
vertex 1.969552 0.300000 -2.246927
vertex 1.992314 0.300000 -2.321964
endloop
endfacet
facet normal 0.000000 1.000000 -0.000002
outer loop
vertex 1.822228 0.300000 -2.067412
vertex 1.882843 0.300000 -2.117157
vertex 1.932588 0.300000 -2.177772
endloop
endfacet
facet normal 0.000000 1.000000 -0.000003
outer loop
vertex 1.678036 0.300000 -2.007686
vertex 1.753073 0.300000 -2.030448
vertex 1.822228 0.300000 -2.067412
endloop
endfacet
facet normal 0.000000 1.000000 0.000000
outer loop
vertex 1.521964 0.300000 -2.007686
vertex 1.600000 0.300000 -2.000000
vertex 1.678036 0.300000 -2.007686
endloop
endfacet
facet normal 0.000000 1.000000 -0.000003
outer loop
vertex 1.377772 0.300000 -2.067412
vertex 1.446926 0.300000 -2.030448
vertex 1.521964 0.300000 -2.007686
endloop
endfacet
facet normal 0.000000 1.000000 -0.000003
outer loop
vertex 1.267412 0.300000 -2.177772
vertex 1.317157 0.300000 -2.117157
vertex 1.377772 0.300000 -2.067412
endloop
endfacet
facet normal 0.000000 1.000000 -0.000002
outer loop
vertex 1.207686 0.300000 -2.321964
vertex 1.230448 0.300000 -2.246927
vertex 1.267412 0.300000 -2.177772
endloop
endfacet
facet normal 0.000000 1.000000 0.000000
outer loop
vertex 1.207686 0.300000 -2.478037
vertex 1.200000 0.300000 -2.400001
vertex 1.207686 0.300000 -2.321964
endloop
endfacet
facet normal 0.000000 1.000000 -0.000001
outer loop
vertex 1.267412 0.300000 -2.622229
vertex 1.230448 0.300000 -2.553074
vertex 1.207686 0.300000 -2.478037
endloop
endfacet
facet normal 0.000000 1.000000 0.000000
outer loop
vertex 1.377772 0.300000 -2.732588
vertex 1.317158 0.300000 -2.682843
vertex 1.267412 0.300000 -2.622229
endloop
endfacet
facet normal 0.000000 1.000000 -0.000003
outer loop
vertex 1.521965 0.300000 -2.792314
vertex 1.446927 0.300000 -2.769552
vertex 1.377772 0.300000 -2.732588
endloop
endfacet
facet normal 0.000000 1.000000 -0.000003
outer loop
vertex 1.678036 0.300000 -2.792314
vertex 1.600000 0.300000 -2.800000
vertex 1.521965 0.300000 -2.792314
endloop
endfacet
facet normal 0.000000 1.000000 -0.000001
outer loop
vertex 1.678036 0.300000 -2.792314
vertex 1.932588 0.300000 -2.622228
vertex 1.822228 0.300000 -2.732588
endloop
endfacet
facet normal 0.000000 1.000000 0.000000
outer loop
vertex 1.992314 0.300000 -2.321964
vertex 1.992314 0.300000 -2.478036
vertex 1.932588 0.300000 -2.622228
endloop
endfacet
facet normal 0.000000 1.000000 0.000001
outer loop
vertex 1.822228 0.300000 -2.067412
vertex 1.932588 0.300000 -2.177772
vertex 1.992314 0.300000 -2.321964
endloop
endfacet
facet normal 0.000000 1.000000 0.000000
outer loop
vertex 1.521964 0.300000 -2.007686
vertex 1.678036 0.300000 -2.007686
vertex 1.822228 0.300000 -2.067412
endloop
endfacet
facet normal 0.000000 1.000000 0.000000
outer loop
vertex 1.267412 0.300000 -2.177772
vertex 1.377772 0.300000 -2.067412
vertex 1.521964 0.300000 -2.007686
endloop
endfacet
facet normal 0.000000 1.000000 0.000000
outer loop
vertex 1.207686 0.300000 -2.478037
vertex 1.207686 0.300000 -2.321964
vertex 1.267412 0.300000 -2.177772
endloop
endfacet
facet normal 0.000000 1.000000 0.000000
outer loop
vertex 1.377772 0.300000 -2.732588
vertex 1.267412 0.300000 -2.622229
vertex 1.207686 0.300000 -2.478037
endloop
endfacet
facet normal 0.000000 1.000000 0.000001
outer loop
vertex 1.678036 0.300000 -2.792314
vertex 1.521965 0.300000 -2.792314
vertex 1.377772 0.300000 -2.732588
endloop
endfacet
facet normal 0.000000 1.000000 0.000000
outer loop
vertex 1.678036 0.300000 -2.792314
vertex 1.992314 0.300000 -2.321964
vertex 1.932588 0.300000 -2.622228
endloop
endfacet
facet normal 0.000000 1.000000 -0.000000
outer loop
vertex 1.521964 0.300000 -2.007686
vertex 1.822228 0.300000 -2.067412
vertex 1.992314 0.300000 -2.321964
endloop
endfacet
facet normal 0.000000 1.000000 0.000000
outer loop
vertex 1.207686 0.300000 -2.478037
vertex 1.267412 0.300000 -2.177772
vertex 1.521964 0.300000 -2.007686
endloop
endfacet
facet normal 0.000000 1.000000 -0.000000
outer loop
vertex 1.678036 0.300000 -2.792314
vertex 1.377772 0.300000 -2.732588
vertex 1.207686 0.300000 -2.478037
endloop
endfacet
facet normal 0.000000 1.000000 0.000000
outer loop
vertex 1.678036 0.300000 -2.792314
vertex 1.521964 0.300000 -2.007686
vertex 1.992314 0.300000 -2.321964
endloop
endfacet
facet normal 0.000000 1.000000 0.000000
outer loop
vertex 1.678036 0.300000 -2.792314
vertex 1.207686 0.300000 -2.478037
vertex 1.521964 0.300000 -2.007686
endloop
endfacet
facet normal -0.098017 0.000000 -0.995185
outer loop
vertex 1.600000 0.300000 -2.800000
vertex 1.600000 0.000000 -2.800000
vertex 1.521965 0.000000 -2.792314
endloop
endfacet
facet normal -0.098017 0.000000 -0.995185
outer loop
vertex 1.521965 0.000000 -2.792314
vertex 1.521965 0.300000 -2.792314
vertex 1.600000 0.300000 -2.800000
endloop
endfacet
facet normal -0.290288 0.000000 -0.956939
outer loop
vertex 1.446927 0.000000 -2.769552
vertex 1.446927 0.300000 -2.769552
vertex 1.521965 0.300000 -2.792314
endloop
endfacet
facet normal -0.290279 0.000000 -0.956942
outer loop
vertex 1.521965 0.300000 -2.792314
vertex 1.521965 0.000000 -2.792314
vertex 1.446927 0.000000 -2.769552
endloop
endfacet
facet normal 0.000000 0.000000 0.000000
outer loop
vertex 1.446927 0.000000 -2.769552
vertex 1.521965 0.000000 -2.792314
vertex 1.521965 0.000000 -2.792314
endloop
endfacet
facet normal 0.000000 0.000000 0.000000
outer loop
vertex 1.521965 0.000000 -2.792314
vertex 1.446927 0.000000 -2.769552
vertex 1.446927 0.000000 -2.769552
endloop
endfacet
facet normal 0.000000 0.000000 0.000000
outer loop
vertex 1.317158 0.000000 -2.682843
vertex 1.377772 0.000000 -2.732588
vertex 1.377772 0.000000 -2.732588
endloop
endfacet
facet normal 0.000000 0.000000 0.000000
outer loop
vertex 1.377772 0.000000 -2.732588
vertex 1.317158 0.000000 -2.682843
vertex 1.317158 0.000000 -2.682843
endloop
endfacet
facet normal 0.000000 0.000000 0.000000
outer loop
vertex 1.377772 0.000000 -2.067412
vertex 1.317157 0.000000 -2.117157
vertex 1.317157 0.000000 -2.117157
endloop
endfacet
facet normal 0.000000 0.000000 0.000000
outer loop
vertex 1.317157 0.000000 -2.117157
vertex 1.377772 0.000000 -2.067412
vertex 1.377772 0.000000 -2.067412
endloop
endfacet
facet normal 0.000000 0.000000 0.000000
outer loop
vertex 2.000000 0.000000 -2.400000
vertex 1.992314 0.000000 -2.321964
vertex 1.992314 0.000000 -2.321964
endloop
endfacet
facet normal 0.000000 0.000000 0.000000
outer loop
vertex 1.992314 0.000000 -2.321964
vertex 2.000000 0.000000 -2.400000
vertex 2.000000 0.000000 -2.400000
endloop
endfacet
facet normal 0.000000 0.000000 0.000000
outer loop
vertex 1.230448 0.000000 -2.246927
vertex 1.207686 0.000000 -2.321964
vertex 1.207686 0.000000 -2.321964
endloop
endfacet
facet normal 0.000000 0.000000 0.000000
outer loop
vertex 1.207686 0.000000 -2.321964
vertex 1.230448 0.000000 -2.246927
vertex 1.230448 0.000000 -2.246927
endloop
endfacet
facet normal 0.000000 0.000000 0.000000
outer loop
vertex 1.932588 0.000000 -2.177772
vertex 1.882843 0.000000 -2.117157
vertex 1.882843 0.000000 -2.117157
endloop
endfacet
facet normal 0.000000 0.000000 0.000000
outer loop
vertex 1.882843 0.000000 -2.117157
vertex 1.932588 0.000000 -2.177772
vertex 1.932588 0.000000 -2.177772
endloop
endfacet
facet normal 0.000000 0.000000 0.000000
outer loop
vertex 1.207686 0.000000 -2.478037
vertex 1.230448 0.000000 -2.553074
vertex 1.230448 0.000000 -2.553074
endloop
endfacet
facet normal 0.000000 0.000000 0.000000
outer loop
vertex 1.230448 0.000000 -2.553074
vertex 1.207686 0.000000 -2.478037
vertex 1.207686 0.000000 -2.478037
endloop
endfacet
facet normal 0.000000 0.000000 0.000000
outer loop
vertex 1.822228 0.000000 -2.732588
vertex 1.882843 0.000000 -2.682843
vertex 1.882843 0.000000 -2.682843
endloop
endfacet
facet normal 0.000000 0.000000 0.000000
outer loop
vertex 1.882843 0.000000 -2.682843
vertex 1.822228 0.000000 -2.732588
vertex 1.822228 0.000000 -2.732588
endloop
endfacet
facet normal 0.000000 0.000000 0.000000
outer loop
vertex 1.753073 0.000000 -2.030448
vertex 1.678036 0.000000 -2.007686
vertex 1.678036 0.000000 -2.007686
endloop
endfacet
facet normal 0.000000 0.000000 0.000000
outer loop
vertex 1.678036 0.000000 -2.007686
vertex 1.753073 0.000000 -2.030448
vertex 1.753073 0.000000 -2.030448
endloop
endfacet
facet normal 0.000000 0.000000 0.000000
outer loop
vertex 1.317158 0.000000 -2.682843
vertex 1.377772 0.000000 -2.732588
vertex 1.377772 0.000000 -2.732588
endloop
endfacet
facet normal 0.000000 0.000000 0.000000
outer loop
vertex 1.377772 0.000000 -2.732588
vertex 1.317158 0.000000 -2.682843
vertex 1.317158 0.000000 -2.682843
endloop
endfacet
facet normal 0.000000 0.000000 0.000000
outer loop
vertex 1.521964 0.000000 -2.007686
vertex 1.446926 0.000000 -2.030448
vertex 1.446926 0.000000 -2.030448
endloop
endfacet
facet normal 0.000000 0.000000 0.000000
outer loop
vertex 1.446926 0.000000 -2.030448
vertex 1.521964 0.000000 -2.007686
vertex 1.521964 0.000000 -2.007686
endloop
endfacet
facet normal 0.000000 0.000000 0.000000
outer loop
vertex 1.969552 0.000000 -2.553073
vertex 1.992314 0.000000 -2.478036
vertex 1.992314 0.000000 -2.478036
endloop
endfacet
facet normal 0.000000 0.000000 0.000000
outer loop
vertex 1.992314 0.000000 -2.478036
vertex 1.969552 0.000000 -2.553073
vertex 1.969552 0.000000 -2.553073
endloop
endfacet
facet normal 0.000000 0.000000 0.000000
outer loop
vertex 1.521965 0.000000 -2.792314
vertex 1.600000 0.000000 -2.800000
vertex 1.600000 0.000000 -2.800000
endloop
endfacet
facet normal 0.000000 0.000000 0.000000
outer loop
vertex 1.600000 0.000000 -2.800000
vertex 1.521965 0.000000 -2.792314
vertex 1.521965 0.000000 -2.792314
endloop
endfacet
facet normal 0.000000 0.000000 0.000000
outer loop
vertex 1.317157 0.000000 -2.117157
vertex 1.267412 0.000000 -2.177772
vertex 1.267412 0.000000 -2.177772
endloop
endfacet
facet normal 0.000000 0.000000 0.000000
outer loop
vertex 1.267412 0.000000 -2.177772
vertex 1.317157 0.000000 -2.117157
vertex 1.317157 0.000000 -2.117157
endloop
endfacet
facet normal 0.000000 0.000000 0.000000
outer loop
vertex 1.992314 0.000000 -2.321964
vertex 1.969552 0.000000 -2.246927
vertex 1.969552 0.000000 -2.246927
endloop
endfacet
facet normal 0.000000 0.000000 0.000000
outer loop
vertex 1.969552 0.000000 -2.246927
vertex 1.992314 0.000000 -2.321964
vertex 1.992314 0.000000 -2.321964
endloop
endfacet
facet normal 0.000000 0.000000 0.000000
outer loop
vertex 1.207686 0.000000 -2.321964
vertex 1.200000 0.000000 -2.400001
vertex 1.200000 0.000000 -2.400001
endloop
endfacet
facet normal 0.000000 0.000000 0.000000
outer loop
vertex 1.200000 0.000000 -2.400001
vertex 1.207686 0.000000 -2.321964
vertex 1.207686 0.000000 -2.321964
endloop
endfacet
facet normal 0.000000 0.000000 0.000000
outer loop
vertex 1.678036 0.000000 -2.792314
vertex 1.753073 0.000000 -2.769552
vertex 1.753073 0.000000 -2.769552
endloop
endfacet
facet normal 0.000000 0.000000 0.000000
outer loop
vertex 1.753073 0.000000 -2.769552
vertex 1.678036 0.000000 -2.792314
vertex 1.678036 0.000000 -2.792314
endloop
endfacet
facet normal 0.000000 0.000000 0.000000
outer loop
vertex 1.882843 0.000000 -2.117157
vertex 1.822228 0.000000 -2.067412
vertex 1.822228 0.000000 -2.067412
endloop
endfacet
facet normal 0.000000 0.000000 0.000000
outer loop
vertex 1.822228 0.000000 -2.067412
vertex 1.882843 0.000000 -2.117157
vertex 1.882843 0.000000 -2.117157
endloop
endfacet
facet normal 0.000000 0.000000 0.000000
outer loop
vertex 1.230448 0.000000 -2.553074
vertex 1.267412 0.000000 -2.622229
vertex 1.267412 0.000000 -2.622229
endloop
endfacet
facet normal 0.000000 0.000000 0.000000
outer loop
vertex 1.267412 0.000000 -2.622229
vertex 1.230448 0.000000 -2.553074
vertex 1.230448 0.000000 -2.553074
endloop
endfacet
facet normal 0.000000 0.000000 0.000000
outer loop
vertex 1.882843 0.000000 -2.682843
vertex 1.932588 0.000000 -2.622228
vertex 1.932588 0.000000 -2.622228
endloop
endfacet
facet normal 0.000000 0.000000 0.000000
outer loop
vertex 1.932588 0.000000 -2.622228
vertex 1.882843 0.000000 -2.682843
vertex 1.882843 0.000000 -2.682843
endloop
endfacet
facet normal 0.000000 0.000000 0.000000
outer loop
vertex 1.678036 0.000000 -2.007686
vertex 1.600000 0.000000 -2.000000
vertex 1.600000 0.000000 -2.000000
endloop
endfacet
facet normal 0.000000 0.000000 0.000000
outer loop
vertex 1.600000 0.000000 -2.000000
vertex 1.678036 0.000000 -2.007686
vertex 1.678036 0.000000 -2.007686
endloop
endfacet
facet normal 0.000000 0.000000 0.000000
outer loop
vertex 1.377772 0.000000 -2.732588
vertex 1.446927 0.000000 -2.769552
vertex 1.446927 0.000000 -2.769552
endloop
endfacet
facet normal 0.000000 0.000000 0.000000
outer loop
vertex 1.446927 0.000000 -2.769552
vertex 1.377772 0.000000 -2.732588
vertex 1.377772 0.000000 -2.732588
endloop
endfacet
facet normal 0.000000 0.000000 0.000000
outer loop
vertex 1.446926 0.000000 -2.030448
vertex 1.377772 0.000000 -2.067412
vertex 1.377772 0.000000 -2.067412
endloop
endfacet
facet normal 0.000000 0.000000 0.000000
outer loop
vertex 1.377772 0.000000 -2.067412
vertex 1.446926 0.000000 -2.030448
vertex 1.446926 0.000000 -2.030448
endloop
endfacet
facet normal 0.000000 0.000000 0.000000
outer loop
vertex 1.600000 0.000000 -2.800000
vertex 1.678036 0.000000 -2.792314
vertex 1.678036 0.000000 -2.792314
endloop
endfacet
facet normal 0.000000 0.000000 0.000000
outer loop
vertex 1.678036 0.000000 -2.792314
vertex 1.600000 0.000000 -2.800000
vertex 1.600000 0.000000 -2.800000
endloop
endfacet
facet normal 0.000000 0.000000 0.000000
outer loop
vertex 1.992314 0.000000 -2.478036
vertex 2.000000 0.000000 -2.400000
vertex 2.000000 0.000000 -2.400000
endloop
endfacet
facet normal 0.000000 0.000000 0.000000
outer loop
vertex 2.000000 0.000000 -2.400000
vertex 1.992314 0.000000 -2.478036
vertex 1.992314 0.000000 -2.478036
endloop
endfacet
facet normal 0.000000 0.000000 0.000000
outer loop
vertex 1.267412 0.000000 -2.177772
vertex 1.230448 0.000000 -2.246927
vertex 1.230448 0.000000 -2.246927
endloop
endfacet
facet normal 0.000000 0.000000 0.000000
outer loop
vertex 1.230448 0.000000 -2.246927
vertex 1.267412 0.000000 -2.177772
vertex 1.267412 0.000000 -2.177772
endloop
endfacet
facet normal 0.000000 0.000000 0.000000
outer loop
vertex 1.969552 0.000000 -2.246927
vertex 1.932588 0.000000 -2.177772
vertex 1.932588 0.000000 -2.177772
endloop
endfacet
facet normal 0.000000 0.000000 0.000000
outer loop
vertex 1.932588 0.000000 -2.177772
vertex 1.969552 0.000000 -2.246927
vertex 1.969552 0.000000 -2.246927
endloop
endfacet
facet normal 0.000000 0.000000 0.000000
outer loop
vertex 1.200000 0.000000 -2.400001
vertex 1.207686 0.000000 -2.478037
vertex 1.207686 0.000000 -2.478037
endloop
endfacet
facet normal 0.000000 0.000000 0.000000
outer loop
vertex 1.207686 0.000000 -2.478037
vertex 1.200000 0.000000 -2.400001
vertex 1.200000 0.000000 -2.400001
endloop
endfacet
facet normal 0.000000 0.000000 0.000000
outer loop
vertex 1.753073 0.000000 -2.769552
vertex 1.822228 0.000000 -2.732588
vertex 1.822228 0.000000 -2.732588
endloop
endfacet
facet normal 0.000000 0.000000 0.000000
outer loop
vertex 1.822228 0.000000 -2.732588
vertex 1.753073 0.000000 -2.769552
vertex 1.753073 0.000000 -2.769552
endloop
endfacet
facet normal 0.000000 0.000000 0.000000
outer loop
vertex 1.822228 0.000000 -2.067412
vertex 1.753073 0.000000 -2.030448
vertex 1.753073 0.000000 -2.030448
endloop
endfacet
facet normal 0.000000 0.000000 0.000000
outer loop
vertex 1.753073 0.000000 -2.030448
vertex 1.822228 0.000000 -2.067412
vertex 1.822228 0.000000 -2.067412
endloop
endfacet
facet normal 0.000000 0.000000 0.000000
outer loop
vertex 1.267412 0.000000 -2.622229
vertex 1.317158 0.000000 -2.682843
vertex 1.317158 0.000000 -2.682843
endloop
endfacet
facet normal 0.000000 0.000000 0.000000
outer loop
vertex 1.317158 0.000000 -2.682843
vertex 1.267412 0.000000 -2.622229
vertex 1.267412 0.000000 -2.622229
endloop
endfacet
facet normal 0.000000 0.000000 0.000000
outer loop
vertex 1.600000 0.000000 -2.000000
vertex 1.521964 0.000000 -2.007686
vertex 1.521964 0.000000 -2.007686
endloop
endfacet
facet normal 0.000000 0.000000 0.000000
outer loop
vertex 1.521964 0.000000 -2.007686
vertex 1.600000 0.000000 -2.000000
vertex 1.600000 0.000000 -2.000000
endloop
endfacet
facet normal 0.000000 0.000000 0.000000
outer loop
vertex 1.932588 0.000000 -2.622228
vertex 1.969552 0.000000 -2.553073
vertex 1.969552 0.000000 -2.553073
endloop
endfacet
facet normal 0.000000 0.000000 0.000000
outer loop
vertex 1.969552 0.000000 -2.553073
vertex 1.932588 0.000000 -2.622228
vertex 1.932588 0.000000 -2.622228
endloop
endfacet
facet normal 0.000000 0.000000 0.000000
outer loop
vertex 1.446927 0.000000 -2.769552
vertex 1.521965 0.000000 -2.792314
vertex 1.521965 0.000000 -2.792314
endloop
endfacet
facet normal 0.000000 0.000000 0.000000
outer loop
vertex 1.521965 0.000000 -2.792314
vertex 1.446927 0.000000 -2.769552
vertex 1.446927 0.000000 -2.769552
endloop
endfacet
facet normal 0.000000 0.000000 0.000000
outer loop
vertex 1.521964 0.000000 -2.007686
vertex 1.446926 0.000000 -2.030448
vertex 1.446926 0.000000 -2.030448
endloop
endfacet
facet normal 0.000000 0.000000 0.000000
outer loop
vertex 1.446926 0.000000 -2.030448
vertex 1.521964 0.000000 -2.007686
vertex 1.521964 0.000000 -2.007686
endloop
endfacet
facet normal 0.000000 0.000000 0.000000
outer loop
vertex 1.969552 0.000000 -2.553073
vertex 1.992314 0.000000 -2.478036
vertex 1.992314 0.000000 -2.478036
endloop
endfacet
facet normal 0.000000 0.000000 0.000000
outer loop
vertex 1.992314 0.000000 -2.478036
vertex 1.969552 0.000000 -2.553073
vertex 1.969552 0.000000 -2.553073
endloop
endfacet
facet normal 0.000000 0.000000 0.000000
outer loop
vertex 1.230448 0.000000 -2.553074
vertex 1.267412 0.000000 -2.622229
vertex 1.267412 0.000000 -2.622229
endloop
endfacet
facet normal 0.000000 0.000000 0.000000
outer loop
vertex 1.267412 0.000000 -2.622229
vertex 1.230448 0.000000 -2.553074
vertex 1.230448 0.000000 -2.553074
endloop
endfacet
facet normal 0.000000 0.000000 0.000000
outer loop
vertex 1.882843 0.000000 -2.682843
vertex 1.932588 0.000000 -2.622228
vertex 1.932588 0.000000 -2.622228
endloop
endfacet
facet normal 0.000000 0.000000 0.000000
outer loop
vertex 1.932588 0.000000 -2.622228
vertex 1.882843 0.000000 -2.682843
vertex 1.882843 0.000000 -2.682843
endloop
endfacet
facet normal 0.000000 0.000000 0.000000
outer loop
vertex 1.678036 0.000000 -2.007686
vertex 1.600000 0.000000 -2.000000
vertex 1.600000 0.000000 -2.000000
endloop
endfacet
facet normal 0.000000 0.000000 0.000000
outer loop
vertex 1.600000 0.000000 -2.000000
vertex 1.678036 0.000000 -2.007686
vertex 1.678036 0.000000 -2.007686
endloop
endfacet
facet normal 0.000000 0.000000 0.000000
outer loop
vertex 1.200000 0.000000 -2.400001
vertex 1.207686 0.000000 -2.478037
vertex 1.207686 0.000000 -2.478037
endloop
endfacet
facet normal 0.000000 0.000000 0.000000
outer loop
vertex 1.207686 0.000000 -2.478037
vertex 1.200000 0.000000 -2.400001
vertex 1.200000 0.000000 -2.400001
endloop
endfacet
facet normal 0.000000 0.000000 0.000000
outer loop
vertex 1.753073 0.000000 -2.769552
vertex 1.822228 0.000000 -2.732588
vertex 1.822228 0.000000 -2.732588
endloop
endfacet
facet normal 0.000000 0.000000 0.000000
outer loop
vertex 1.822228 0.000000 -2.732588
vertex 1.753073 0.000000 -2.769552
vertex 1.753073 0.000000 -2.769552
endloop
endfacet
facet normal 0.000000 0.000000 0.000000
outer loop
vertex 1.822228 0.000000 -2.067412
vertex 1.753073 0.000000 -2.030448
vertex 1.753073 0.000000 -2.030448
endloop
endfacet
facet normal 0.000000 0.000000 0.000000
outer loop
vertex 1.753073 0.000000 -2.030448
vertex 1.822228 0.000000 -2.067412
vertex 1.822228 0.000000 -2.067412
endloop
endfacet
facet normal 0.000000 0.000000 0.000000
outer loop
vertex 1.230448 0.000000 -2.246927
vertex 1.207686 0.000000 -2.321964
vertex 1.207686 0.000000 -2.321964
endloop
endfacet
facet normal 0.000000 0.000000 0.000000
outer loop
vertex 1.207686 0.000000 -2.321964
vertex 1.230448 0.000000 -2.246927
vertex 1.230448 0.000000 -2.246927
endloop
endfacet
facet normal 0.000000 0.000000 0.000000
outer loop
vertex 1.600000 0.000000 -2.800000
vertex 1.678036 0.000000 -2.792314
vertex 1.678036 0.000000 -2.792314
endloop
endfacet
facet normal 0.000000 0.000000 0.000000
outer loop
vertex 1.678036 0.000000 -2.792314
vertex 1.600000 0.000000 -2.800000
vertex 1.600000 0.000000 -2.800000
endloop
endfacet
facet normal 0.000000 0.000000 0.000000
outer loop
vertex 1.932588 0.000000 -2.177772
vertex 1.882843 0.000000 -2.117157
vertex 1.882843 0.000000 -2.117157
endloop
endfacet
facet normal 0.000000 0.000000 0.000000
outer loop
vertex 1.882843 0.000000 -2.117157
vertex 1.932588 0.000000 -2.177772
vertex 1.932588 0.000000 -2.177772
endloop
endfacet
facet normal 0.000000 0.000000 0.000000
outer loop
vertex 1.521965 0.000000 -2.792314
vertex 1.600000 0.000000 -2.800000
vertex 1.600000 0.000000 -2.800000
endloop
endfacet
facet normal 0.000000 0.000000 0.000000
outer loop
vertex 1.600000 0.000000 -2.800000
vertex 1.521965 0.000000 -2.792314
vertex 1.521965 0.000000 -2.792314
endloop
endfacet
facet normal 0.000000 0.000000 0.000000
outer loop
vertex 1.317157 0.000000 -2.117157
vertex 1.267412 0.000000 -2.177772
vertex 1.267412 0.000000 -2.177772
endloop
endfacet
facet normal 0.000000 0.000000 0.000000
outer loop
vertex 1.267412 0.000000 -2.177772
vertex 1.317157 0.000000 -2.117157
vertex 1.317157 0.000000 -2.117157
endloop
endfacet
facet normal 0.000000 0.000000 0.000000
outer loop
vertex 1.992314 0.000000 -2.321964
vertex 1.969552 0.000000 -2.246927
vertex 1.969552 0.000000 -2.246927
endloop
endfacet
facet normal 0.000000 0.000000 0.000000
outer loop
vertex 1.969552 0.000000 -2.246927
vertex 1.992314 0.000000 -2.321964
vertex 1.992314 0.000000 -2.321964
endloop
endfacet
facet normal 0.000000 0.000000 0.000000
outer loop
vertex 1.377772 0.000000 -2.732588
vertex 1.446927 0.000000 -2.769552
vertex 1.446927 0.000000 -2.769552
endloop
endfacet
facet normal 0.000000 0.000000 0.000000
outer loop
vertex 1.446927 0.000000 -2.769552
vertex 1.377772 0.000000 -2.732588
vertex 1.377772 0.000000 -2.732588
endloop
endfacet
facet normal 0.000000 0.000000 0.000000
outer loop
vertex 1.446926 0.000000 -2.030448
vertex 1.377772 0.000000 -2.067412
vertex 1.377772 0.000000 -2.067412
endloop
endfacet
facet normal 0.000000 0.000000 0.000000
outer loop
vertex 1.377772 0.000000 -2.067412
vertex 1.446926 0.000000 -2.030448
vertex 1.446926 0.000000 -2.030448
endloop
endfacet
facet normal 0.000000 0.000000 0.000000
outer loop
vertex 1.992314 0.000000 -2.478036
vertex 2.000000 0.000000 -2.400000
vertex 2.000000 0.000000 -2.400000
endloop
endfacet
facet normal 0.000000 0.000000 0.000000
outer loop
vertex 2.000000 0.000000 -2.400000
vertex 1.992314 0.000000 -2.478036
vertex 1.992314 0.000000 -2.478036
endloop
endfacet
facet normal 0.000000 0.000000 0.000000
outer loop
vertex 1.267412 0.000000 -2.622229
vertex 1.317158 0.000000 -2.682843
vertex 1.317158 0.000000 -2.682843
endloop
endfacet
facet normal 0.000000 0.000000 0.000000
outer loop
vertex 1.317158 0.000000 -2.682843
vertex 1.267412 0.000000 -2.622229
vertex 1.267412 0.000000 -2.622229
endloop
endfacet
facet normal 0.000000 0.000000 0.000000
outer loop
vertex 1.600000 0.000000 -2.000000
vertex 1.521964 0.000000 -2.007686
vertex 1.521964 0.000000 -2.007686
endloop
endfacet
facet normal 0.000000 0.000000 0.000000
outer loop
vertex 1.521964 0.000000 -2.007686
vertex 1.600000 0.000000 -2.000000
vertex 1.600000 0.000000 -2.000000
endloop
endfacet
facet normal 0.000000 0.000000 0.000000
outer loop
vertex 1.932588 0.000000 -2.622228
vertex 1.969552 0.000000 -2.553073
vertex 1.969552 0.000000 -2.553073
endloop
endfacet
facet normal 0.000000 0.000000 0.000000
outer loop
vertex 1.969552 0.000000 -2.553073
vertex 1.932588 0.000000 -2.622228
vertex 1.932588 0.000000 -2.622228
endloop
endfacet
facet normal 0.000000 0.000000 0.000000
outer loop
vertex 1.207686 0.000000 -2.478037
vertex 1.230448 0.000000 -2.553074
vertex 1.230448 0.000000 -2.553074
endloop
endfacet
facet normal 0.000000 0.000000 0.000000
outer loop
vertex 1.230448 0.000000 -2.553074
vertex 1.207686 0.000000 -2.478037
vertex 1.207686 0.000000 -2.478037
endloop
endfacet
facet normal 0.000000 0.000000 0.000000
outer loop
vertex 1.822228 0.000000 -2.732588
vertex 1.882843 0.000000 -2.682843
vertex 1.882843 0.000000 -2.682843
endloop
endfacet
facet normal 0.000000 0.000000 0.000000
outer loop
vertex 1.882843 0.000000 -2.682843
vertex 1.822228 0.000000 -2.732588
vertex 1.822228 0.000000 -2.732588
endloop
endfacet
facet normal 0.000000 0.000000 0.000000
outer loop
vertex 1.753073 0.000000 -2.030448
vertex 1.678036 0.000000 -2.007686
vertex 1.678036 0.000000 -2.007686
endloop
endfacet
facet normal 0.000000 0.000000 0.000000
outer loop
vertex 1.678036 0.000000 -2.007686
vertex 1.753073 0.000000 -2.030448
vertex 1.753073 0.000000 -2.030448
endloop
endfacet
facet normal 0.000000 0.000000 0.000000
outer loop
vertex 1.207686 0.000000 -2.321964
vertex 1.200000 0.000000 -2.400001
vertex 1.200000 0.000000 -2.400001
endloop
endfacet
facet normal 0.000000 0.000000 0.000000
outer loop
vertex 1.200000 0.000000 -2.400001
vertex 1.207686 0.000000 -2.321964
vertex 1.207686 0.000000 -2.321964
endloop
endfacet
facet normal 0.000000 0.000000 0.000000
outer loop
vertex 1.678036 0.000000 -2.792314
vertex 1.753073 0.000000 -2.769552
vertex 1.753073 0.000000 -2.769552
endloop
endfacet
facet normal 0.000000 0.000000 0.000000
outer loop
vertex 1.753073 0.000000 -2.769552
vertex 1.678036 0.000000 -2.792314
vertex 1.678036 0.000000 -2.792314
endloop
endfacet
facet normal 0.000000 0.000000 0.000000
outer loop
vertex 1.882843 0.000000 -2.117157
vertex 1.822228 0.000000 -2.067412
vertex 1.822228 0.000000 -2.067412
endloop
endfacet
facet normal 0.000000 0.000000 0.000000
outer loop
vertex 1.822228 0.000000 -2.067412
vertex 1.882843 0.000000 -2.117157
vertex 1.882843 0.000000 -2.117157
endloop
endfacet
facet normal 0.000000 0.000000 0.000000
outer loop
vertex 1.267412 0.000000 -2.177772
vertex 1.230448 0.000000 -2.246927
vertex 1.230448 0.000000 -2.246927
endloop
endfacet
facet normal 0.000000 0.000000 0.000000
outer loop
vertex 1.230448 0.000000 -2.246927
vertex 1.267412 0.000000 -2.177772
vertex 1.267412 0.000000 -2.177772
endloop
endfacet
facet normal 0.000000 0.000000 0.000000
outer loop
vertex 1.969552 0.000000 -2.246927
vertex 1.932588 0.000000 -2.177772
vertex 1.932588 0.000000 -2.177772
endloop
endfacet
facet normal 0.000000 0.000000 0.000000
outer loop
vertex 1.932588 0.000000 -2.177772
vertex 1.969552 0.000000 -2.246927
vertex 1.969552 0.000000 -2.246927
endloop
endfacet
facet normal 0.000000 0.000000 0.000000
outer loop
vertex 1.446927 0.000000 -2.769552
vertex 1.521965 0.000000 -2.792314
vertex 1.521965 0.000000 -2.792314
endloop
endfacet
facet normal 0.000000 0.000000 0.000000
outer loop
vertex 1.521965 0.000000 -2.792314
vertex 1.446927 0.000000 -2.769552
vertex 1.446927 0.000000 -2.769552
endloop
endfacet
facet normal 0.000000 0.000000 0.000000
outer loop
vertex 1.377772 0.000000 -2.067412
vertex 1.317157 0.000000 -2.117157
vertex 1.317157 0.000000 -2.117157
endloop
endfacet
facet normal 0.000000 0.000000 0.000000
outer loop
vertex 1.317157 0.000000 -2.117157
vertex 1.377772 0.000000 -2.067412
vertex 1.377772 0.000000 -2.067412
endloop
endfacet
facet normal 0.000000 0.000000 0.000000
outer loop
vertex 2.000000 0.000000 -2.400000
vertex 1.992314 0.000000 -2.321964
vertex 1.992314 0.000000 -2.321964
endloop
endfacet
facet normal 0.000000 0.000000 0.000000
outer loop
vertex 1.992314 0.000000 -2.321964
vertex 2.000000 0.000000 -2.400000
vertex 2.000000 0.000000 -2.400000
endloop
endfacet
facet normal 0.956940 0.000000 -0.290284
outer loop
vertex 1.230448 0.000000 -2.246927
vertex 1.207686 0.000000 -2.321964
vertex 1.207686 0.180000 -2.321964
endloop
endfacet
facet normal 0.956941 0.000000 -0.290282
outer loop
vertex 1.207686 0.180000 -2.321964
vertex 1.230448 0.180000 -2.246927
vertex 1.230448 0.000000 -2.246927
endloop
endfacet
facet normal 0.000000 0.000000 0.000000
outer loop
vertex 1.377772 0.000000 -2.067412
vertex 1.317157 0.000000 -2.117157
vertex 1.317157 0.000000 -2.117157
endloop
endfacet
facet normal 0.000000 0.000000 0.000000
outer loop
vertex 1.317157 0.000000 -2.117157
vertex 1.377772 0.000000 -2.067412
vertex 1.377772 0.000000 -2.067412
endloop
endfacet
facet normal 0.000000 0.000000 0.000000
outer loop
vertex 2.000000 0.000000 -2.400000
vertex 1.992314 0.000000 -2.321964
vertex 1.992314 0.000000 -2.321964
endloop
endfacet
facet normal 0.000000 0.000000 0.000000
outer loop
vertex 1.992314 0.000000 -2.321964
vertex 2.000000 0.000000 -2.400000
vertex 2.000000 0.000000 -2.400000
endloop
endfacet
facet normal 0.000000 0.000000 0.000000
outer loop
vertex 1.317158 0.000000 -2.682843
vertex 1.377772 0.000000 -2.732588
vertex 1.377772 0.000000 -2.732588
endloop
endfacet
facet normal 0.000000 0.000000 0.000000
outer loop
vertex 1.377772 0.000000 -2.732588
vertex 1.317158 0.000000 -2.682843
vertex 1.317158 0.000000 -2.682843
endloop
endfacet
facet normal 0.000000 0.000000 0.000000
outer loop
vertex 1.521964 0.000000 -2.007686
vertex 1.446926 0.000000 -2.030448
vertex 1.446926 0.000000 -2.030448
endloop
endfacet
facet normal 0.000000 0.000000 0.000000
outer loop
vertex 1.446926 0.000000 -2.030448
vertex 1.521964 0.000000 -2.007686
vertex 1.521964 0.000000 -2.007686
endloop
endfacet
facet normal 0.000000 0.000000 0.000000
outer loop
vertex 1.969552 0.000000 -2.553073
vertex 1.992314 0.000000 -2.478036
vertex 1.992314 0.000000 -2.478036
endloop
endfacet
facet normal 0.000000 0.000000 0.000000
outer loop
vertex 1.992314 0.000000 -2.478036
vertex 1.969552 0.000000 -2.553073
vertex 1.969552 0.000000 -2.553073
endloop
endfacet
facet normal 0.000000 0.000000 0.000000
outer loop
vertex 1.230448 0.000000 -2.553074
vertex 1.267412 0.000000 -2.622229
vertex 1.267412 0.000000 -2.622229
endloop
endfacet
facet normal 0.000000 0.000000 0.000000
outer loop
vertex 1.267412 0.000000 -2.622229
vertex 1.230448 0.000000 -2.553074
vertex 1.230448 0.000000 -2.553074
endloop
endfacet
facet normal 0.000000 0.000000 0.000000
outer loop
vertex 1.882843 0.000000 -2.682843
vertex 1.932588 0.000000 -2.622228
vertex 1.932588 0.000000 -2.622228
endloop
endfacet
facet normal 0.000000 0.000000 0.000000
outer loop
vertex 1.932588 0.000000 -2.622228
vertex 1.882843 0.000000 -2.682843
vertex 1.882843 0.000000 -2.682843
endloop
endfacet
facet normal 0.000000 0.000000 0.000000
outer loop
vertex 1.678036 0.000000 -2.007686
vertex 1.600000 0.000000 -2.000000
vertex 1.600000 0.000000 -2.000000
endloop
endfacet
facet normal 0.000000 0.000000 0.000000
outer loop
vertex 1.600000 0.000000 -2.000000
vertex 1.678036 0.000000 -2.007686
vertex 1.678036 0.000000 -2.007686
endloop
endfacet
facet normal 0.000000 0.000000 0.000000
outer loop
vertex 1.200000 0.000000 -2.400001
vertex 1.207686 0.000000 -2.478037
vertex 1.207686 0.000000 -2.478037
endloop
endfacet
facet normal 0.000000 0.000000 0.000000
outer loop
vertex 1.207686 0.000000 -2.478037
vertex 1.200000 0.000000 -2.400001
vertex 1.200000 0.000000 -2.400001
endloop
endfacet
facet normal 0.000000 0.000000 0.000000
outer loop
vertex 1.753073 0.000000 -2.769552
vertex 1.822228 0.000000 -2.732588
vertex 1.822228 0.000000 -2.732588
endloop
endfacet
facet normal 0.000000 0.000000 0.000000
outer loop
vertex 1.822228 0.000000 -2.732588
vertex 1.753073 0.000000 -2.769552
vertex 1.753073 0.000000 -2.769552
endloop
endfacet
facet normal 0.000000 0.000000 0.000000
outer loop
vertex 1.822228 0.000000 -2.067412
vertex 1.753073 0.000000 -2.030448
vertex 1.753073 0.000000 -2.030448
endloop
endfacet
facet normal 0.000000 0.000000 0.000000
outer loop
vertex 1.753073 0.000000 -2.030448
vertex 1.822228 0.000000 -2.067412
vertex 1.822228 0.000000 -2.067412
endloop
endfacet
facet normal 0.000000 0.000000 0.000000
outer loop
vertex 1.230448 0.000000 -2.246927
vertex 1.207686 0.000000 -2.321964
vertex 1.207686 0.000000 -2.321964
endloop
endfacet
facet normal 0.000000 0.000000 0.000000
outer loop
vertex 1.207686 0.000000 -2.321964
vertex 1.230448 0.000000 -2.246927
vertex 1.230448 0.000000 -2.246927
endloop
endfacet
facet normal 0.000000 0.000000 0.000000
outer loop
vertex 1.600000 0.000000 -2.800000
vertex 1.678036 0.000000 -2.792314
vertex 1.678036 0.000000 -2.792314
endloop
endfacet
facet normal 0.000000 0.000000 0.000000
outer loop
vertex 1.678036 0.000000 -2.792314
vertex 1.600000 0.000000 -2.800000
vertex 1.600000 0.000000 -2.800000
endloop
endfacet
facet normal 0.000000 0.000000 0.000000
outer loop
vertex 1.932588 0.000000 -2.177772
vertex 1.882843 0.000000 -2.117157
vertex 1.882843 0.000000 -2.117157
endloop
endfacet
facet normal 0.000000 0.000000 0.000000
outer loop
vertex 1.882843 0.000000 -2.117157
vertex 1.932588 0.000000 -2.177772
vertex 1.932588 0.000000 -2.177772
endloop
endfacet
facet normal 0.000000 0.000000 0.000000
outer loop
vertex 1.521965 0.000000 -2.792314
vertex 1.600000 0.000000 -2.800000
vertex 1.600000 0.000000 -2.800000
endloop
endfacet
facet normal 0.000000 0.000000 0.000000
outer loop
vertex 1.600000 0.000000 -2.800000
vertex 1.521965 0.000000 -2.792314
vertex 1.521965 0.000000 -2.792314
endloop
endfacet
facet normal 0.000000 0.000000 0.000000
outer loop
vertex 1.317157 0.000000 -2.117157
vertex 1.267412 0.000000 -2.177772
vertex 1.267412 0.000000 -2.177772
endloop
endfacet
facet normal 0.000000 0.000000 0.000000
outer loop
vertex 1.267412 0.000000 -2.177772
vertex 1.317157 0.000000 -2.117157
vertex 1.317157 0.000000 -2.117157
endloop
endfacet
facet normal 0.000000 0.000000 0.000000
outer loop
vertex 1.992314 0.000000 -2.321964
vertex 1.969552 0.000000 -2.246927
vertex 1.969552 0.000000 -2.246927
endloop
endfacet
facet normal 0.000000 0.000000 0.000000
outer loop
vertex 1.969552 0.000000 -2.246927
vertex 1.992314 0.000000 -2.321964
vertex 1.992314 0.000000 -2.321964
endloop
endfacet
facet normal 0.000000 0.000000 0.000000
outer loop
vertex 1.377772 0.000000 -2.732588
vertex 1.446927 0.000000 -2.769552
vertex 1.446927 0.000000 -2.769552
endloop
endfacet
facet normal 0.000000 0.000000 0.000000
outer loop
vertex 1.446927 0.000000 -2.769552
vertex 1.377772 0.000000 -2.732588
vertex 1.377772 0.000000 -2.732588
endloop
endfacet
facet normal 0.000000 0.000000 0.000000
outer loop
vertex 1.446926 0.000000 -2.030448
vertex 1.377772 0.000000 -2.067412
vertex 1.377772 0.000000 -2.067412
endloop
endfacet
facet normal 0.000000 0.000000 0.000000
outer loop
vertex 1.377772 0.000000 -2.067412
vertex 1.446926 0.000000 -2.030448
vertex 1.446926 0.000000 -2.030448
endloop
endfacet
facet normal 0.000000 0.000000 0.000000
outer loop
vertex 1.992314 0.000000 -2.478036
vertex 2.000000 0.000000 -2.400000
vertex 2.000000 0.000000 -2.400000
endloop
endfacet
facet normal 0.000000 0.000000 0.000000
outer loop
vertex 2.000000 0.000000 -2.400000
vertex 1.992314 0.000000 -2.478036
vertex 1.992314 0.000000 -2.478036
endloop
endfacet
facet normal 0.000000 0.000000 0.000000
outer loop
vertex 1.267412 0.000000 -2.622229
vertex 1.317158 0.000000 -2.682843
vertex 1.317158 0.000000 -2.682843
endloop
endfacet
facet normal 0.000000 0.000000 0.000000
outer loop
vertex 1.317158 0.000000 -2.682843
vertex 1.267412 0.000000 -2.622229
vertex 1.267412 0.000000 -2.622229
endloop
endfacet
facet normal 0.000000 0.000000 0.000000
outer loop
vertex 1.600000 0.000000 -2.000000
vertex 1.521964 0.000000 -2.007686
vertex 1.521964 0.000000 -2.007686
endloop
endfacet
facet normal 0.000000 0.000000 0.000000
outer loop
vertex 1.521964 0.000000 -2.007686
vertex 1.600000 0.000000 -2.000000
vertex 1.600000 0.000000 -2.000000
endloop
endfacet
facet normal 0.000000 0.000000 0.000000
outer loop
vertex 1.932588 0.000000 -2.622228
vertex 1.969552 0.000000 -2.553073
vertex 1.969552 0.000000 -2.553073
endloop
endfacet
facet normal 0.000000 0.000000 0.000000
outer loop
vertex 1.969552 0.000000 -2.553073
vertex 1.932588 0.000000 -2.622228
vertex 1.932588 0.000000 -2.622228
endloop
endfacet
facet normal 0.000000 0.000000 0.000000
outer loop
vertex 1.207686 0.000000 -2.478037
vertex 1.230448 0.000000 -2.553074
vertex 1.230448 0.000000 -2.553074
endloop
endfacet
facet normal 0.000000 0.000000 0.000000
outer loop
vertex 1.230448 0.000000 -2.553074
vertex 1.207686 0.000000 -2.478037
vertex 1.207686 0.000000 -2.478037
endloop
endfacet
facet normal 0.000000 0.000000 0.000000
outer loop
vertex 1.822228 0.000000 -2.732588
vertex 1.882843 0.000000 -2.682843
vertex 1.882843 0.000000 -2.682843
endloop
endfacet
facet normal 0.000000 0.000000 0.000000
outer loop
vertex 1.882843 0.000000 -2.682843
vertex 1.822228 0.000000 -2.732588
vertex 1.822228 0.000000 -2.732588
endloop
endfacet
facet normal 0.000000 0.000000 0.000000
outer loop
vertex 1.753073 0.000000 -2.030448
vertex 1.678036 0.000000 -2.007686
vertex 1.678036 0.000000 -2.007686
endloop
endfacet
facet normal 0.000000 0.000000 0.000000
outer loop
vertex 1.678036 0.000000 -2.007686
vertex 1.753073 0.000000 -2.030448
vertex 1.753073 0.000000 -2.030448
endloop
endfacet
facet normal 0.000000 0.000000 0.000000
outer loop
vertex 1.207686 0.000000 -2.321964
vertex 1.200000 0.000000 -2.400001
vertex 1.200000 0.000000 -2.400001
endloop
endfacet
facet normal 0.000000 0.000000 0.000000
outer loop
vertex 1.200000 0.000000 -2.400001
vertex 1.207686 0.000000 -2.321964
vertex 1.207686 0.000000 -2.321964
endloop
endfacet
facet normal 0.000000 0.000000 0.000000
outer loop
vertex 1.678036 0.000000 -2.792314
vertex 1.753073 0.000000 -2.769552
vertex 1.753073 0.000000 -2.769552
endloop
endfacet
facet normal 0.000000 0.000000 0.000000
outer loop
vertex 1.753073 0.000000 -2.769552
vertex 1.678036 0.000000 -2.792314
vertex 1.678036 0.000000 -2.792314
endloop
endfacet
facet normal 0.000000 0.000000 0.000000
outer loop
vertex 1.882843 0.000000 -2.117157
vertex 1.822228 0.000000 -2.067412
vertex 1.822228 0.000000 -2.067412
endloop
endfacet
facet normal 0.000000 0.000000 0.000000
outer loop
vertex 1.822228 0.000000 -2.067412
vertex 1.882843 0.000000 -2.117157
vertex 1.882843 0.000000 -2.117157
endloop
endfacet
facet normal 0.000000 0.000000 0.000000
outer loop
vertex 1.267412 0.000000 -2.177772
vertex 1.230448 0.000000 -2.246927
vertex 1.230448 0.000000 -2.246927
endloop
endfacet
facet normal 0.000000 0.000000 0.000000
outer loop
vertex 1.230448 0.000000 -2.246927
vertex 1.267412 0.000000 -2.177772
vertex 1.267412 0.000000 -2.177772
endloop
endfacet
facet normal 0.000000 0.000000 0.000000
outer loop
vertex 1.969552 0.000000 -2.246927
vertex 1.932588 0.000000 -2.177772
vertex 1.932588 0.000000 -2.177772
endloop
endfacet
facet normal 0.000000 0.000000 0.000000
outer loop
vertex 1.932588 0.000000 -2.177772
vertex 1.969552 0.000000 -2.246927
vertex 1.969552 0.000000 -2.246927
endloop
endfacet
facet normal 0.098018 0.000000 -0.995185
outer loop
vertex 1.600000 0.000000 -2.660000
vertex 1.600000 0.180000 -2.660000
vertex 1.650723 0.180000 -2.655004
endloop
endfacet
facet normal 0.098018 0.000000 -0.995185
outer loop
vertex 1.650723 0.180000 -2.655004
vertex 1.650723 0.000000 -2.655004
vertex 1.600000 0.000000 -2.660000
endloop
endfacet
facet normal 0.290285 0.000000 -0.956940
outer loop
vertex 1.650723 0.000000 -2.655004
vertex 1.650723 0.180000 -2.655004
vertex 1.699498 0.180000 -2.640209
endloop
endfacet
facet normal 0.290285 0.000000 -0.956940
outer loop
vertex 1.699498 0.180000 -2.640209
vertex 1.699498 0.000000 -2.640209
vertex 1.650723 0.000000 -2.655004
endloop
endfacet
facet normal 0.471397 0.000000 -0.881921
outer loop
vertex 1.699498 0.000000 -2.640209
vertex 1.699498 0.180000 -2.640209
vertex 1.744448 0.180000 -2.616182
endloop
endfacet
facet normal 0.471397 0.000000 -0.881921
outer loop
vertex 1.744448 0.180000 -2.616182
vertex 1.744448 0.000000 -2.616182
vertex 1.699498 0.000000 -2.640209
endloop
endfacet
facet normal 0.634392 0.000000 -0.773012
outer loop
vertex 1.744448 0.000000 -2.616182
vertex 1.744448 0.180000 -2.616182
vertex 1.783848 0.180000 -2.583848
endloop
endfacet
facet normal 0.634392 0.000000 -0.773012
outer loop
vertex 1.783848 0.180000 -2.583848
vertex 1.783848 0.000000 -2.583848
vertex 1.744448 0.000000 -2.616182
endloop
endfacet
facet normal 0.773012 0.000000 -0.634392
outer loop
vertex 1.783848 0.000000 -2.583848
vertex 1.783848 0.180000 -2.583848
vertex 1.816182 0.180000 -2.544448
endloop
endfacet
facet normal 0.773009 0.000000 -0.634395
outer loop
vertex 1.816182 0.180000 -2.544448
vertex 1.816182 0.000000 -2.544448
vertex 1.783848 0.000000 -2.583848
endloop
endfacet
facet normal 0.881922 0.000000 -0.471396
outer loop
vertex 1.816182 0.000000 -2.544448
vertex 1.816182 0.180000 -2.544448
vertex 1.840209 0.180000 -2.499498
endloop
endfacet
facet normal 0.881922 0.000000 -0.471396
outer loop
vertex 1.840209 0.180000 -2.499498
vertex 1.840209 0.000000 -2.499498
vertex 1.816182 0.000000 -2.544448
endloop
endfacet
facet normal 0.956940 0.000000 -0.290286
outer loop
vertex 1.840209 0.000000 -2.499498
vertex 1.840209 0.180000 -2.499498
vertex 1.855004 0.180000 -2.450724
endloop
endfacet
facet normal 0.956940 0.000000 -0.290286
outer loop
vertex 1.855004 0.180000 -2.450724
vertex 1.855004 0.000000 -2.450724
vertex 1.840209 0.000000 -2.499498
endloop
endfacet
facet normal 0.995185 0.000000 -0.098017
outer loop
vertex 1.855004 0.000000 -2.450724
vertex 1.855004 0.180000 -2.450724
vertex 1.860000 0.180000 -2.400000
endloop
endfacet
facet normal 0.995185 0.000000 -0.098017
outer loop
vertex 1.860000 0.180000 -2.400000
vertex 1.860000 0.000000 -2.400000
vertex 1.855004 0.000000 -2.450724
endloop
endfacet
facet normal 0.995185 0.000000 0.098017
outer loop
vertex 1.860000 0.000000 -2.400000
vertex 1.860000 0.180000 -2.400000
vertex 1.855004 0.180000 -2.349277
endloop
endfacet
facet normal 0.995185 0.000000 0.098017
outer loop
vertex 1.855004 0.180000 -2.349277
vertex 1.855004 0.000000 -2.349277
vertex 1.860000 0.000000 -2.400000
endloop
endfacet
facet normal 0.956939 0.000000 0.290288
outer loop
vertex 1.855004 0.000000 -2.349277
vertex 1.855004 0.180000 -2.349277
vertex 1.840209 0.180000 -2.300503
endloop
endfacet
facet normal 0.956940 0.000000 0.290286
outer loop
vertex 1.840209 0.180000 -2.300503
vertex 1.840209 0.000000 -2.300503
vertex 1.855004 0.000000 -2.349277
endloop
endfacet
facet normal 0.881924 0.000000 0.471391
outer loop
vertex 1.840209 0.000000 -2.300503
vertex 1.840209 0.180000 -2.300503
vertex 1.816182 0.180000 -2.255552
endloop
endfacet
facet normal 0.881922 0.000000 0.471396
outer loop
vertex 1.816182 0.180000 -2.255552
vertex 1.816182 0.000000 -2.255552
vertex 1.840209 0.000000 -2.300503
endloop
endfacet
facet normal 0.773007 0.000000 0.634398
outer loop
vertex 1.816182 0.000000 -2.255552
vertex 1.816182 0.180000 -2.255552
vertex 1.783848 0.180000 -2.216152
endloop
endfacet
facet normal 0.773012 0.000000 0.634392
outer loop
vertex 1.783848 0.180000 -2.216152
vertex 1.783848 0.000000 -2.216152
vertex 1.816182 0.000000 -2.255552
endloop
endfacet
facet normal 0.634392 0.000000 0.773012
outer loop
vertex 1.783848 0.000000 -2.216152
vertex 1.783848 0.180000 -2.216152
vertex 1.744448 0.180000 -2.183818
endloop
endfacet
facet normal 0.634395 0.000000 0.773009
outer loop
vertex 1.744448 0.180000 -2.183818
vertex 1.744448 0.000000 -2.183818
vertex 1.783848 0.000000 -2.216152
endloop
endfacet
facet normal 0.471392 0.000000 0.881924
outer loop
vertex 1.744448 0.000000 -2.183818
vertex 1.744448 0.180000 -2.183818
vertex 1.699498 0.180000 -2.159791
endloop
endfacet
facet normal 0.471402 0.000000 0.881918
outer loop
vertex 1.699498 0.180000 -2.159791
vertex 1.699498 0.000000 -2.159791
vertex 1.744448 0.000000 -2.183818
endloop
endfacet
facet normal 0.290279 0.000000 0.956942
outer loop
vertex 1.699498 0.000000 -2.159791
vertex 1.699498 0.180000 -2.159791
vertex 1.650723 0.180000 -2.144996
endloop
endfacet
facet normal 0.290291 0.000000 0.956938
outer loop
vertex 1.650723 0.180000 -2.144996
vertex 1.650723 0.000000 -2.144996
vertex 1.699498 0.000000 -2.159791
endloop
endfacet
facet normal 0.098018 0.000000 0.995185
outer loop
vertex 1.650723 0.000000 -2.144996
vertex 1.650723 0.180000 -2.144996
vertex 1.600000 0.180000 -2.140000
endloop
endfacet
facet normal 0.098018 0.000000 0.995185
outer loop
vertex 1.600000 0.180000 -2.140000
vertex 1.600000 0.000000 -2.140000
vertex 1.650723 0.000000 -2.144996
endloop
endfacet
facet normal -0.098018 0.000000 0.995185
outer loop
vertex 1.600000 0.000000 -2.140000
vertex 1.600000 0.180000 -2.140000
vertex 1.549276 0.180000 -2.144996
endloop
endfacet
facet normal -0.098018 0.000000 0.995185
outer loop
vertex 1.549276 0.180000 -2.144996
vertex 1.549276 0.000000 -2.144996
vertex 1.600000 0.000000 -2.140000
endloop
endfacet
facet normal -0.290291 0.000000 0.956938
outer loop
vertex 1.549276 0.000000 -2.144996
vertex 1.549276 0.180000 -2.144996
vertex 1.500502 0.180000 -2.159791
endloop
endfacet
facet normal -0.290279 0.000000 0.956942
outer loop
vertex 1.500502 0.180000 -2.159791
vertex 1.500502 0.000000 -2.159791
vertex 1.549276 0.000000 -2.144996
endloop
endfacet
facet normal -0.471402 0.000000 0.881918
outer loop
vertex 1.500502 0.000000 -2.159791
vertex 1.500502 0.180000 -2.159791
vertex 1.455552 0.180000 -2.183818
endloop
endfacet
facet normal -0.471392 0.000000 0.881924
outer loop
vertex 1.455552 0.180000 -2.183818
vertex 1.455552 0.000000 -2.183818
vertex 1.500502 0.000000 -2.159791
endloop
endfacet
facet normal -0.634395 0.000000 0.773009
outer loop
vertex 1.455552 0.000000 -2.183818
vertex 1.455552 0.180000 -2.183818
vertex 1.416152 0.180000 -2.216152
endloop
endfacet
facet normal -0.634392 0.000000 0.773012
outer loop
vertex 1.416152 0.180000 -2.216152
vertex 1.416152 0.000000 -2.216152
vertex 1.455552 0.000000 -2.183818
endloop
endfacet
facet normal -0.773012 0.000000 0.634392
outer loop
vertex 1.416152 0.000000 -2.216152
vertex 1.416152 0.180000 -2.216152
vertex 1.383818 0.180000 -2.255552
endloop
endfacet
facet normal -0.773012 0.000000 0.634392
outer loop
vertex 1.383818 0.180000 -2.255552
vertex 1.383818 0.000000 -2.255552
vertex 1.416152 0.000000 -2.216152
endloop
endfacet
facet normal -0.881922 0.000000 0.471396
outer loop
vertex 1.383818 0.000000 -2.255552
vertex 1.383818 0.180000 -2.255552
vertex 1.359791 0.180000 -2.300503
endloop
endfacet
facet normal -0.881922 0.000000 0.471396
outer loop
vertex 1.359791 0.180000 -2.300503
vertex 1.359791 0.000000 -2.300503
vertex 1.383818 0.000000 -2.255552
endloop
endfacet
facet normal -0.956941 0.000000 0.290284
outer loop
vertex 1.359791 0.000000 -2.300503
vertex 1.359791 0.180000 -2.300503
vertex 1.344996 0.180000 -2.349277
endloop
endfacet
facet normal -0.956941 0.000000 0.290284
outer loop
vertex 1.344996 0.180000 -2.349277
vertex 1.344996 0.000000 -2.349277
vertex 1.359791 0.000000 -2.300503
endloop
endfacet
facet normal -0.995185 0.000000 0.098017
outer loop
vertex 1.344996 0.000000 -2.349277
vertex 1.344996 0.180000 -2.349277
vertex 1.340000 0.180000 -2.400000
endloop
endfacet
facet normal -0.995185 0.000000 0.098017
outer loop
vertex 1.340000 0.180000 -2.400000
vertex 1.340000 0.000000 -2.400000
vertex 1.344996 0.000000 -2.349277
endloop
endfacet
facet normal -0.995185 0.000000 -0.098019
outer loop
vertex 1.340000 0.000000 -2.400000
vertex 1.340000 0.180000 -2.400000
vertex 1.344996 0.180000 -2.450724
endloop
endfacet
facet normal -0.995185 0.000000 -0.098019
outer loop
vertex 1.344996 0.180000 -2.450724
vertex 1.344996 0.000000 -2.450724
vertex 1.340000 0.000000 -2.400000
endloop
endfacet
facet normal -0.956941 0.000000 -0.290284
outer loop
vertex 1.344996 0.000000 -2.450724
vertex 1.344996 0.180000 -2.450724
vertex 1.359792 0.180000 -2.499498
endloop
endfacet
facet normal -0.956940 0.000000 -0.290286
outer loop
vertex 1.359792 0.180000 -2.499498
vertex 1.359792 0.000000 -2.499498
vertex 1.344996 0.000000 -2.450724
endloop
endfacet
facet normal -0.881921 0.000000 -0.471398
outer loop
vertex 1.359792 0.000000 -2.499498
vertex 1.359792 0.180000 -2.499498
vertex 1.383818 0.180000 -2.544449
endloop
endfacet
facet normal -0.881921 0.000000 -0.471398
outer loop
vertex 1.383818 0.180000 -2.544449
vertex 1.383818 0.000000 -2.544449
vertex 1.359792 0.000000 -2.499498
endloop
endfacet
facet normal -0.773012 0.000000 -0.634392
outer loop
vertex 1.383818 0.000000 -2.544449
vertex 1.383818 0.180000 -2.544449
vertex 1.416152 0.180000 -2.583848
endloop
endfacet
facet normal -0.773007 0.000000 -0.634398
outer loop
vertex 1.416152 0.180000 -2.583848
vertex 1.416152 0.000000 -2.583848
vertex 1.383818 0.000000 -2.544449
endloop
endfacet
facet normal -0.634390 0.000000 -0.773013
outer loop
vertex 1.416152 0.000000 -2.583848
vertex 1.416152 0.180000 -2.583848
vertex 1.455552 0.180000 -2.616182
endloop
endfacet
facet normal -0.634394 0.000000 -0.773010
outer loop
vertex 1.455552 0.180000 -2.616182
vertex 1.455552 0.000000 -2.616182
vertex 1.416152 0.000000 -2.583848
endloop
endfacet
facet normal -0.471402 0.000000 -0.881918
outer loop
vertex 1.455552 0.000000 -2.616182
vertex 1.455552 0.180000 -2.616182
vertex 1.500503 0.180000 -2.640209
endloop
endfacet
facet normal -0.471392 0.000000 -0.881924
outer loop
vertex 1.500503 0.180000 -2.640209
vertex 1.500503 0.000000 -2.640209
vertex 1.455552 0.000000 -2.616182
endloop
endfacet
facet normal 0.000000 1.000000 0.000000
outer loop
vertex 1.650723 0.180000 -2.655004
vertex 1.744448 0.180000 -2.616182
vertex 1.699498 0.180000 -2.640209
endloop
endfacet
facet normal 0.000000 1.000000 0.000002
outer loop
vertex 1.816182 0.180000 -2.544448
vertex 1.783848 0.180000 -2.583848
vertex 1.744448 0.180000 -2.616182
endloop
endfacet
facet normal 0.000000 1.000000 0.000000
outer loop
vertex 1.855004 0.180000 -2.450724
vertex 1.840209 0.180000 -2.499498
vertex 1.816182 0.180000 -2.544448
endloop
endfacet
facet normal 0.000000 1.000000 0.000000
outer loop
vertex 1.855004 0.180000 -2.349277
vertex 1.860000 0.180000 -2.400000
vertex 1.855004 0.180000 -2.450724
endloop
endfacet
facet normal 0.000000 1.000000 0.000001
outer loop
vertex 1.816182 0.180000 -2.255552
vertex 1.840209 0.180000 -2.300503
vertex 1.855004 0.180000 -2.349277
endloop
endfacet
facet normal 0.000000 1.000000 -0.000002
outer loop
vertex 1.744448 0.180000 -2.183818
vertex 1.783848 0.180000 -2.216152
vertex 1.816182 0.180000 -2.255552
endloop
endfacet
facet normal 0.000000 1.000000 0.000000
outer loop
vertex 1.650723 0.180000 -2.144996
vertex 1.699498 0.180000 -2.159791
vertex 1.744448 0.180000 -2.183818
endloop
endfacet
facet normal 0.000000 1.000000 0.000004
outer loop
vertex 1.549276 0.180000 -2.144996
vertex 1.600000 0.180000 -2.140000
vertex 1.650723 0.180000 -2.144996
endloop
endfacet
facet normal 0.000000 1.000000 0.000000
outer loop
vertex 1.455552 0.180000 -2.183818
vertex 1.500502 0.180000 -2.159791
vertex 1.549276 0.180000 -2.144996
endloop
endfacet
facet normal 0.000000 1.000000 -0.000002
outer loop
vertex 1.383818 0.180000 -2.255552
vertex 1.416152 0.180000 -2.216152
vertex 1.455552 0.180000 -2.183818
endloop
endfacet
facet normal 0.000000 1.000000 0.000000
outer loop
vertex 1.344996 0.180000 -2.349277
vertex 1.359791 0.180000 -2.300503
vertex 1.383818 0.180000 -2.255552
endloop
endfacet
facet normal 0.000000 1.000000 -0.000000
outer loop
vertex 1.344996 0.180000 -2.450724
vertex 1.340000 0.180000 -2.400000
vertex 1.344996 0.180000 -2.349277
endloop
endfacet
facet normal 0.000000 1.000000 -0.000001
outer loop
vertex 1.383818 0.180000 -2.544449
vertex 1.359792 0.180000 -2.499498
vertex 1.344996 0.180000 -2.450724
endloop
endfacet
facet normal 0.000000 1.000000 0.000002
outer loop
vertex 1.455552 0.180000 -2.616182
vertex 1.416152 0.180000 -2.583848
vertex 1.383818 0.180000 -2.544449
endloop
endfacet
facet normal 0.000000 1.000000 0.000000
outer loop
vertex 1.549277 0.180000 -2.655004
vertex 1.500503 0.180000 -2.640209
vertex 1.455552 0.180000 -2.616182
endloop
endfacet
facet normal 0.000000 1.000000 -0.000004
outer loop
vertex 1.650723 0.180000 -2.655004
vertex 1.600000 0.180000 -2.660000
vertex 1.549277 0.180000 -2.655004
endloop
endfacet
facet normal 0.000000 1.000000 -0.000000
outer loop
vertex 1.650723 0.180000 -2.655004
vertex 1.816182 0.180000 -2.544448
vertex 1.744448 0.180000 -2.616182
endloop
endfacet
facet normal 0.000000 1.000000 0.000000
outer loop
vertex 1.855004 0.180000 -2.349277
vertex 1.855004 0.180000 -2.450724
vertex 1.816182 0.180000 -2.544448
endloop
endfacet
facet normal 0.000000 1.000000 0.000000
outer loop
vertex 1.744448 0.180000 -2.183818
vertex 1.816182 0.180000 -2.255552
vertex 1.855004 0.180000 -2.349277
endloop
endfacet
facet normal 0.000000 1.000000 0.000001
outer loop
vertex 1.549276 0.180000 -2.144996
vertex 1.650723 0.180000 -2.144996
vertex 1.744448 0.180000 -2.183818
endloop
endfacet
facet normal 0.000000 1.000000 0.000000
outer loop
vertex 1.383818 0.180000 -2.255552
vertex 1.455552 0.180000 -2.183818
vertex 1.549276 0.180000 -2.144996
endloop
endfacet
facet normal 0.000000 1.000000 -0.000000
outer loop
vertex 1.344996 0.180000 -2.450724
vertex 1.344996 0.180000 -2.349277
vertex 1.383818 0.180000 -2.255552
endloop
endfacet
facet normal 0.000000 1.000000 -0.000000
outer loop
vertex 1.455552 0.180000 -2.616182
vertex 1.383818 0.180000 -2.544449
vertex 1.344996 0.180000 -2.450724
endloop
endfacet
facet normal 0.000000 1.000000 -0.000001
outer loop
vertex 1.650723 0.180000 -2.655004
vertex 1.549277 0.180000 -2.655004
vertex 1.455552 0.180000 -2.616182
endloop
endfacet
facet normal 0.000000 1.000000 0.000000
outer loop
vertex 1.650723 0.180000 -2.655004
vertex 1.855004 0.180000 -2.349277
vertex 1.816182 0.180000 -2.544448
endloop
endfacet
facet normal 0.000000 1.000000 -0.000000
outer loop
vertex 1.549276 0.180000 -2.144996
vertex 1.744448 0.180000 -2.183818
vertex 1.855004 0.180000 -2.349277
endloop
endfacet
facet normal 0.000000 1.000000 -0.000000
outer loop
vertex 1.344996 0.180000 -2.450724
vertex 1.383818 0.180000 -2.255552
vertex 1.549276 0.180000 -2.144996
endloop
endfacet
facet normal 0.000000 1.000000 0.000000
outer loop
vertex 1.650723 0.180000 -2.655004
vertex 1.455552 0.180000 -2.616182
vertex 1.344996 0.180000 -2.450724
endloop
endfacet
facet normal 0.000000 1.000000 0.000000
outer loop
vertex 1.650723 0.180000 -2.655004
vertex 1.549276 0.180000 -2.144996
vertex 1.855004 0.180000 -2.349277
endloop
endfacet
facet normal 0.000000 1.000000 0.000000
outer loop
vertex 1.650723 0.180000 -2.655004
vertex 1.344996 0.180000 -2.450724
vertex 1.549276 0.180000 -2.144996
endloop
endfacet
facet normal -0.098019 0.000000 -0.995185
outer loop
vertex 1.549277 0.000000 -2.655004
vertex 1.549277 0.180000 -2.655004
vertex 1.600000 0.180000 -2.660000
endloop
endfacet
facet normal -0.098019 0.000000 -0.995185
outer loop
vertex 1.600000 0.180000 -2.660000
vertex 1.600000 0.000000 -2.660000
vertex 1.549277 0.000000 -2.655004
endloop
endfacet
facet normal -0.290279 0.000000 -0.956942
outer loop
vertex 1.500503 0.000000 -2.640209
vertex 1.500503 0.180000 -2.640209
vertex 1.549277 0.180000 -2.655004
endloop
endfacet
facet normal -0.290279 0.000000 -0.956942
outer loop
vertex 1.549277 0.180000 -2.655004
vertex 1.549277 0.000000 -2.655004
vertex 1.500503 0.000000 -2.640209
endloop
endfacet
facet normal 0.000000 1.000000 0.000000
outer loop
vertex 1.600000 0.000000 -2.800000
vertex 1.753073 0.000000 -2.769552
vertex 1.678036 0.000000 -2.792314
endloop
endfacet
facet normal 0.000000 1.000000 0.000000
outer loop
vertex 1.882843 0.000000 -2.682843
vertex 1.822228 0.000000 -2.732588
vertex 1.753073 0.000000 -2.769552
endloop
endfacet
facet normal 0.000000 1.000000 0.000000
outer loop
vertex 1.969552 0.000000 -2.553073
vertex 1.932588 0.000000 -2.622228
vertex 1.882843 0.000000 -2.682843
endloop
endfacet
facet normal 0.000000 1.000000 0.000000
outer loop
vertex 2.000000 0.000000 -2.400000
vertex 1.992314 0.000000 -2.478036
vertex 1.969552 0.000000 -2.553073
endloop
endfacet
facet normal 0.000000 1.000000 0.000000
outer loop
vertex 1.855004 0.000000 -2.450724
vertex 1.860000 0.000000 -2.400000
vertex 2.000000 0.000000 -2.400000
endloop
endfacet
facet normal 0.000000 1.000000 0.000000
outer loop
vertex 1.992314 0.000000 -2.321964
vertex 1.855004 0.000000 -2.349277
vertex 1.840209 0.000000 -2.300503
endloop
endfacet
facet normal 0.000000 1.000000 0.000000
outer loop
vertex 1.840209 0.000000 -2.499498
vertex 1.855004 0.000000 -2.450724
vertex 2.000000 0.000000 -2.400000
endloop
endfacet
facet normal 0.000000 1.000000 0.000000
outer loop
vertex 1.992314 0.000000 -2.321964
vertex 1.840209 0.000000 -2.300503
vertex 1.816182 0.000000 -2.255552
endloop
endfacet
facet normal 0.000000 1.000000 0.000000
outer loop
vertex 1.816182 0.000000 -2.544448
vertex 1.840209 0.000000 -2.499498
vertex 2.000000 0.000000 -2.400000
endloop
endfacet
facet normal 0.000000 1.000000 0.000000
outer loop
vertex 1.992314 0.000000 -2.321964
vertex 1.816182 0.000000 -2.255552
vertex 1.783848 0.000000 -2.216152
endloop
endfacet
facet normal 0.000000 1.000000 0.000000
outer loop
vertex 1.783848 0.000000 -2.583848
vertex 1.816182 0.000000 -2.544448
vertex 2.000000 0.000000 -2.400000
endloop
endfacet
facet normal 0.000000 1.000000 0.000000
outer loop
vertex 1.992314 0.000000 -2.321964
vertex 1.783848 0.000000 -2.216152
vertex 1.744448 0.000000 -2.183818
endloop
endfacet
facet normal 0.000000 1.000000 0.000000
outer loop
vertex 1.783848 0.000000 -2.583848
vertex 2.000000 0.000000 -2.400000
vertex 1.969552 0.000000 -2.553073
endloop
endfacet
facet normal 0.000000 1.000000 0.000000
outer loop
vertex 1.969552 0.000000 -2.246927
vertex 1.992314 0.000000 -2.321964
vertex 1.744448 0.000000 -2.183818
endloop
endfacet
facet normal 0.000000 1.000000 0.000000
outer loop
vertex 1.744448 0.000000 -2.616182
vertex 1.783848 0.000000 -2.583848
vertex 1.969552 0.000000 -2.553073
endloop
endfacet
facet normal 0.000000 1.000000 0.000000
outer loop
vertex 1.969552 0.000000 -2.246927
vertex 1.744448 0.000000 -2.183818
vertex 1.699498 0.000000 -2.159791
endloop
endfacet
facet normal 0.000000 1.000000 0.000000
outer loop
vertex 1.699498 0.000000 -2.640209
vertex 1.744448 0.000000 -2.616182
vertex 1.969552 0.000000 -2.553073
endloop
endfacet
facet normal 0.000000 1.000000 0.000000
outer loop
vertex 1.932588 0.000000 -2.177772
vertex 1.969552 0.000000 -2.246927
vertex 1.699498 0.000000 -2.159791
endloop
endfacet
facet normal 0.000000 1.000000 0.000000
outer loop
vertex 1.699498 0.000000 -2.640209
vertex 1.969552 0.000000 -2.553073
vertex 1.882843 0.000000 -2.682843
endloop
endfacet
facet normal 0.000000 1.000000 0.000000
outer loop
vertex 1.932588 0.000000 -2.177772
vertex 1.699498 0.000000 -2.159791
vertex 1.650723 0.000000 -2.144996
endloop
endfacet
facet normal 0.000000 1.000000 0.000000
outer loop
vertex 1.650723 0.000000 -2.655004
vertex 1.699498 0.000000 -2.640209
vertex 1.882843 0.000000 -2.682843
endloop
endfacet
facet normal 0.000000 1.000000 0.000000
outer loop
vertex 1.882843 0.000000 -2.117157
vertex 1.932588 0.000000 -2.177772
vertex 1.650723 0.000000 -2.144996
endloop
endfacet
facet normal 0.000000 1.000000 0.000000
outer loop
vertex 1.600000 0.000000 -2.660000
vertex 1.650723 0.000000 -2.655004
vertex 1.882843 0.000000 -2.682843
endloop
endfacet
facet normal 0.000000 1.000000 0.000000
outer loop
vertex 1.882843 0.000000 -2.117157
vertex 1.650723 0.000000 -2.144996
vertex 1.600000 0.000000 -2.140000
endloop
endfacet
facet normal 0.000000 1.000000 0.000000
outer loop
vertex 1.600000 0.000000 -2.660000
vertex 1.882843 0.000000 -2.682843
vertex 1.753073 0.000000 -2.769552
endloop
endfacet
facet normal 0.000000 1.000000 0.000000
outer loop
vertex 1.822228 0.000000 -2.067412
vertex 1.882843 0.000000 -2.117157
vertex 1.600000 0.000000 -2.140000
endloop
endfacet
facet normal 0.000000 1.000000 0.000000
outer loop
vertex 1.549277 0.000000 -2.655004
vertex 1.600000 0.000000 -2.660000
vertex 1.753073 0.000000 -2.769552
endloop
endfacet
facet normal 0.000000 1.000000 0.000000
outer loop
vertex 1.822228 0.000000 -2.067412
vertex 1.600000 0.000000 -2.140000
vertex 1.549276 0.000000 -2.144996
endloop
endfacet
facet normal 0.000000 1.000000 0.000000
outer loop
vertex 1.500503 0.000000 -2.640209
vertex 1.549277 0.000000 -2.655004
vertex 1.753073 0.000000 -2.769552
endloop
endfacet
facet normal 0.000000 1.000000 0.000000
outer loop
vertex 1.753073 0.000000 -2.030448
vertex 1.822228 0.000000 -2.067412
vertex 1.549276 0.000000 -2.144996
endloop
endfacet
facet normal 0.000000 1.000000 0.000000
outer loop
vertex 1.600000 0.000000 -2.800000
vertex 1.500503 0.000000 -2.640209
vertex 1.753073 0.000000 -2.769552
endloop
endfacet
facet normal 0.000000 1.000000 0.000000
outer loop
vertex 1.753073 0.000000 -2.030448
vertex 1.549276 0.000000 -2.144996
vertex 1.500502 0.000000 -2.159791
endloop
endfacet
facet normal 0.000000 1.000000 0.000000
outer loop
vertex 1.600000 0.000000 -2.800000
vertex 1.455552 0.000000 -2.616182
vertex 1.500503 0.000000 -2.640209
endloop
endfacet
facet normal 0.000000 1.000000 0.000000
outer loop
vertex 1.678036 0.000000 -2.007686
vertex 1.753073 0.000000 -2.030448
vertex 1.500502 0.000000 -2.159791
endloop
endfacet
facet normal 0.000000 1.000000 0.000000
outer loop
vertex 1.600000 0.000000 -2.800000
vertex 1.416152 0.000000 -2.583848
vertex 1.455552 0.000000 -2.616182
endloop
endfacet
facet normal 0.000000 1.000000 0.000000
outer loop
vertex 1.678036 0.000000 -2.007686
vertex 1.500502 0.000000 -2.159791
vertex 1.455552 0.000000 -2.183818
endloop
endfacet
facet normal 0.000000 1.000000 0.000000
outer loop
vertex 1.600000 0.000000 -2.800000
vertex 1.521965 0.000000 -2.792314
vertex 1.416152 0.000000 -2.583848
endloop
endfacet
facet normal 0.000000 1.000000 0.000000
outer loop
vertex 1.600000 0.000000 -2.000000
vertex 1.678036 0.000000 -2.007686
vertex 1.455552 0.000000 -2.183818
endloop
endfacet
facet normal 0.000000 1.000000 0.000000
outer loop
vertex 1.521965 0.000000 -2.792314
vertex 1.383818 0.000000 -2.544449
vertex 1.416152 0.000000 -2.583848
endloop
endfacet
facet normal 0.000000 1.000000 0.000000
outer loop
vertex 1.600000 0.000000 -2.000000
vertex 1.455552 0.000000 -2.183818
vertex 1.416152 0.000000 -2.216152
endloop
endfacet
facet normal 0.000000 1.000000 0.000000
outer loop
vertex 1.521965 0.000000 -2.792314
vertex 1.446927 0.000000 -2.769552
vertex 1.383818 0.000000 -2.544449
endloop
endfacet
facet normal 0.000000 1.000000 0.000000
outer loop
vertex 1.521964 0.000000 -2.007686
vertex 1.600000 0.000000 -2.000000
vertex 1.416152 0.000000 -2.216152
endloop
endfacet
facet normal 0.000000 1.000000 0.000000
outer loop
vertex 1.446927 0.000000 -2.769552
vertex 1.359792 0.000000 -2.499498
vertex 1.383818 0.000000 -2.544449
endloop
endfacet
facet normal 0.000000 1.000000 0.000000
outer loop
vertex 1.521964 0.000000 -2.007686
vertex 1.416152 0.000000 -2.216152
vertex 1.383818 0.000000 -2.255552
endloop
endfacet
facet normal 0.000000 1.000000 0.000000
outer loop
vertex 1.446927 0.000000 -2.769552
vertex 1.377772 0.000000 -2.732588
vertex 1.359792 0.000000 -2.499498
endloop
endfacet
facet normal 0.000000 1.000000 0.000000
outer loop
vertex 1.446926 0.000000 -2.030448
vertex 1.521964 0.000000 -2.007686
vertex 1.383818 0.000000 -2.255552
endloop
endfacet
facet normal 0.000000 1.000000 0.000000
outer loop
vertex 1.377772 0.000000 -2.732588
vertex 1.344996 0.000000 -2.450724
vertex 1.359792 0.000000 -2.499498
endloop
endfacet
facet normal 0.000000 1.000000 0.000000
outer loop
vertex 1.446926 0.000000 -2.030448
vertex 1.383818 0.000000 -2.255552
vertex 1.359791 0.000000 -2.300503
endloop
endfacet
facet normal 0.000000 1.000000 0.000000
outer loop
vertex 1.377772 0.000000 -2.732588
vertex 1.317158 0.000000 -2.682843
vertex 1.344996 0.000000 -2.450724
endloop
endfacet
facet normal 0.000000 1.000000 0.000000
outer loop
vertex 1.377772 0.000000 -2.067412
vertex 1.446926 0.000000 -2.030448
vertex 1.359791 0.000000 -2.300503
endloop
endfacet
facet normal 0.000000 1.000000 0.000000
outer loop
vertex 1.317158 0.000000 -2.682843
vertex 1.340000 0.000000 -2.400000
vertex 1.344996 0.000000 -2.450724
endloop
endfacet
facet normal 0.000000 1.000000 0.000000
outer loop
vertex 1.377772 0.000000 -2.067412
vertex 1.359791 0.000000 -2.300503
vertex 1.344996 0.000000 -2.349277
endloop
endfacet
facet normal 0.000000 1.000000 0.000000
outer loop
vertex 1.317158 0.000000 -2.682843
vertex 1.267412 0.000000 -2.622229
vertex 1.340000 0.000000 -2.400000
endloop
endfacet
facet normal 0.000000 1.000000 0.000000
outer loop
vertex 1.317157 0.000000 -2.117157
vertex 1.377772 0.000000 -2.067412
vertex 1.344996 0.000000 -2.349277
endloop
endfacet
facet normal 0.000000 1.000000 0.000000
outer loop
vertex 1.267412 0.000000 -2.622229
vertex 1.344996 0.000000 -2.349277
vertex 1.340000 0.000000 -2.400000
endloop
endfacet
facet normal 0.000000 1.000000 0.000000
outer loop
vertex 1.267412 0.000000 -2.622229
vertex 1.230448 0.000000 -2.553074
vertex 1.207686 0.000000 -2.478037
endloop
endfacet
facet normal 0.000000 1.000000 0.000000
outer loop
vertex 1.207686 0.000000 -2.478037
vertex 1.200000 0.000000 -2.400001
vertex 1.207686 0.000000 -2.321964
endloop
endfacet
facet normal 0.000000 1.000000 0.000000
outer loop
vertex 1.207686 0.000000 -2.321964
vertex 1.230448 0.000000 -2.246927
vertex 1.267412 0.000000 -2.177772
endloop
endfacet
facet normal 0.000000 1.000000 0.000000
outer loop
vertex 1.267412 0.000000 -2.177772
vertex 1.317157 0.000000 -2.117157
vertex 1.344996 0.000000 -2.349277
endloop
endfacet
facet normal 0.000000 1.000000 0.000000
outer loop
vertex 1.267412 0.000000 -2.622229
vertex 1.207686 0.000000 -2.478037
vertex 1.344996 0.000000 -2.349277
endloop
endfacet
facet normal 0.000000 1.000000 0.000000
outer loop
vertex 1.207686 0.000000 -2.478037
vertex 1.207686 0.000000 -2.321964
vertex 1.267412 0.000000 -2.177772
endloop
endfacet
facet normal 0.000000 1.000000 0.000000
outer loop
vertex 1.207686 0.000000 -2.478037
vertex 1.267412 0.000000 -2.177772
vertex 1.344996 0.000000 -2.349277
endloop
endfacet
facet normal 0.000000 -1.000000 0.000000
outer loop
vertex 1.600000 0.180000 -2.800000
vertex 1.446927 0.180000 -2.769552
vertex 1.521965 0.180000 -2.792314
endloop
endfacet
facet normal 0.000000 -1.000000 0.000000
outer loop
vertex 1.317158 0.180000 -2.682843
vertex 1.377772 0.180000 -2.732588
vertex 1.446927 0.180000 -2.769552
endloop
endfacet
facet normal 0.000000 -1.000000 0.000000
outer loop
vertex 1.230448 0.180000 -2.553074
vertex 1.267412 0.180000 -2.622229
vertex 1.317158 0.180000 -2.682843
endloop
endfacet
facet normal 0.000000 -1.000000 0.000000
outer loop
vertex 1.200000 0.180000 -2.400001
vertex 1.207686 0.180000 -2.478037
vertex 1.230448 0.180000 -2.553074
endloop
endfacet
facet normal 0.000000 -1.000000 -0.000000
outer loop
vertex 1.230448 0.180000 -2.246927
vertex 1.207686 0.180000 -2.321964
vertex 1.200000 0.180000 -2.400001
endloop
endfacet
facet normal 0.000000 -1.000000 -0.000001
outer loop
vertex 1.317157 0.180000 -2.117157
vertex 1.267412 0.180000 -2.177772
vertex 1.230448 0.180000 -2.246927
endloop
endfacet
facet normal 0.000000 -1.000000 0.000000
outer loop
vertex 1.446926 0.180000 -2.030448
vertex 1.377772 0.180000 -2.067412
vertex 1.317157 0.180000 -2.117157
endloop
endfacet
facet normal 0.000000 -1.000000 0.000002
outer loop
vertex 1.600000 0.180000 -2.000000
vertex 1.521964 0.180000 -2.007686
vertex 1.446926 0.180000 -2.030448
endloop
endfacet
facet normal 0.000000 -1.000000 0.000002
outer loop
vertex 1.753073 0.180000 -2.030448
vertex 1.678036 0.180000 -2.007686
vertex 1.600000 0.180000 -2.000000
endloop
endfacet
facet normal 0.000000 -1.000000 -0.000002
outer loop
vertex 1.882843 0.180000 -2.117157
vertex 1.822228 0.180000 -2.067412
vertex 1.753073 0.180000 -2.030448
endloop
endfacet
facet normal 0.000000 -1.000000 -0.000002
outer loop
vertex 1.969552 0.180000 -2.246927
vertex 1.932588 0.180000 -2.177772
vertex 1.882843 0.180000 -2.117157
endloop
endfacet
facet normal 0.000000 -1.000000 0.000000
outer loop
vertex 2.000000 0.180000 -2.400000
vertex 1.992314 0.180000 -2.321964
vertex 1.969552 0.180000 -2.246927
endloop
endfacet
facet normal 0.000000 -1.000000 0.000000
outer loop
vertex 1.969552 0.180000 -2.553073
vertex 1.992314 0.180000 -2.478036
vertex 2.000000 0.180000 -2.400000
endloop
endfacet
facet normal 0.000000 -1.000000 0.000001
outer loop
vertex 1.882843 0.180000 -2.682843
vertex 1.932588 0.180000 -2.622228
vertex 1.969552 0.180000 -2.553073
endloop
endfacet
facet normal 0.000000 -1.000000 0.000000
outer loop
vertex 1.753073 0.180000 -2.769552
vertex 1.822228 0.180000 -2.732588
vertex 1.882843 0.180000 -2.682843
endloop
endfacet
facet normal 0.000000 -1.000000 -0.000002
outer loop
vertex 1.600000 0.180000 -2.800000
vertex 1.678036 0.180000 -2.792314
vertex 1.753073 0.180000 -2.769552
endloop
endfacet
facet normal 0.000000 -1.000000 -0.000000
outer loop
vertex 1.600000 0.180000 -2.800000
vertex 1.317158 0.180000 -2.682843
vertex 1.446927 0.180000 -2.769552
endloop
endfacet
facet normal 0.000000 -1.000000 0.000000
outer loop
vertex 1.200000 0.180000 -2.400001
vertex 1.230448 0.180000 -2.553074
vertex 1.317158 0.180000 -2.682843
endloop
endfacet
facet normal 0.000000 -1.000000 -0.000000
outer loop
vertex 1.317157 0.180000 -2.117157
vertex 1.230448 0.180000 -2.246927
vertex 1.200000 0.180000 -2.400001
endloop
endfacet
facet normal 0.000000 -1.000000 -0.000000
outer loop
vertex 1.600000 0.180000 -2.000000
vertex 1.446926 0.180000 -2.030448
vertex 1.317157 0.180000 -2.117157
endloop
endfacet
facet normal 0.000000 -1.000000 0.000000
outer loop
vertex 1.882843 0.180000 -2.117157
vertex 1.753073 0.180000 -2.030448
vertex 1.600000 0.180000 -2.000000
endloop
endfacet
facet normal 0.000000 -1.000000 0.000000
outer loop
vertex 2.000000 0.180000 -2.400000
vertex 1.969552 0.180000 -2.246927
vertex 1.882843 0.180000 -2.117157
endloop
endfacet
facet normal 0.000000 -1.000000 -0.000000
outer loop
vertex 1.882843 0.180000 -2.682843
vertex 1.969552 0.180000 -2.553073
vertex 2.000000 0.180000 -2.400000
endloop
endfacet
facet normal 0.000000 -1.000000 0.000000
outer loop
vertex 1.600000 0.180000 -2.800000
vertex 1.753073 0.180000 -2.769552
vertex 1.882843 0.180000 -2.682843
endloop
endfacet
facet normal 0.000000 -1.000000 -0.000000
outer loop
vertex 1.600000 0.180000 -2.800000
vertex 1.200000 0.180000 -2.400001
vertex 1.317158 0.180000 -2.682843
endloop
endfacet
facet normal 0.000000 -1.000000 -0.000000
outer loop
vertex 1.600000 0.180000 -2.000000
vertex 1.317157 0.180000 -2.117157
vertex 1.200000 0.180000 -2.400001
endloop
endfacet
facet normal 0.000000 -1.000000 0.000000
outer loop
vertex 2.000000 0.180000 -2.400000
vertex 1.882843 0.180000 -2.117157
vertex 1.600000 0.180000 -2.000000
endloop
endfacet
facet normal 0.000000 -1.000000 -0.000000
outer loop
vertex 1.600000 0.180000 -2.800000
vertex 1.882843 0.180000 -2.682843
vertex 2.000000 0.180000 -2.400000
endloop
endfacet
facet normal 0.000000 -1.000000 0.000000
outer loop
vertex 1.600000 0.180000 -2.800000
vertex 1.600000 0.180000 -2.000000
vertex 1.200000 0.180000 -2.400001
endloop
endfacet
facet normal 0.000000 -1.000000 0.000000
outer loop
vertex 1.600000 0.180000 -2.800000
vertex 2.000000 0.180000 -2.400000
vertex 1.600000 0.180000 -2.000000
endloop
endfacet
facet normal -0.098023 0.000000 0.995184
outer loop
vertex 1.600000 0.000000 -2.800000
vertex 1.678036 0.000000 -2.792314
vertex 1.678036 0.180000 -2.792314
endloop
endfacet
facet normal -0.098015 0.000000 0.995185
outer loop
vertex 1.678036 0.180000 -2.792314
vertex 1.600000 0.180000 -2.800000
vertex 1.600000 0.000000 -2.800000
endloop
endfacet
facet normal -0.773011 0.000000 -0.634393
outer loop
vertex 1.932588 0.000000 -2.177772
vertex 1.882843 0.000000 -2.117157
vertex 1.882843 0.180000 -2.117157
endloop
endfacet
facet normal -0.773011 0.000000 -0.634393
outer loop
vertex 1.882843 0.180000 -2.117157
vertex 1.932588 0.180000 -2.177772
vertex 1.932588 0.000000 -2.177772
endloop
endfacet
facet normal 0.098015 0.000000 0.995185
outer loop
vertex 1.521965 0.000000 -2.792314
vertex 1.600000 0.000000 -2.800000
vertex 1.600000 0.180000 -2.800000
endloop
endfacet
facet normal 0.098024 0.000000 0.995184
outer loop
vertex 1.600000 0.180000 -2.800000
vertex 1.521965 0.180000 -2.792314
vertex 1.521965 0.000000 -2.792314
endloop
endfacet
facet normal 0.773013 0.000000 -0.634390
outer loop
vertex 1.317157 0.000000 -2.117157
vertex 1.267412 0.000000 -2.177772
vertex 1.267412 0.180000 -2.177772
endloop
endfacet
facet normal 0.773010 0.000000 -0.634394
outer loop
vertex 1.267412 0.180000 -2.177772
vertex 1.317157 0.180000 -2.117157
vertex 1.317157 0.000000 -2.117157
endloop
endfacet
facet normal -0.956940 0.000000 -0.290286
outer loop
vertex 1.992314 0.000000 -2.321964
vertex 1.969552 0.000000 -2.246927
vertex 1.969552 0.180000 -2.246927
endloop
endfacet
facet normal -0.956941 0.000000 -0.290283
outer loop
vertex 1.969552 0.180000 -2.246927
vertex 1.992314 0.180000 -2.321964
vertex 1.992314 0.000000 -2.321964
endloop
endfacet
facet normal 0.471398 0.000000 0.881921
outer loop
vertex 1.377772 0.000000 -2.732588
vertex 1.446927 0.000000 -2.769552
vertex 1.446927 0.180000 -2.769552
endloop
endfacet
facet normal 0.471395 0.000000 0.881922
outer loop
vertex 1.446927 0.180000 -2.769552
vertex 1.377772 0.180000 -2.732588
vertex 1.377772 0.000000 -2.732588
endloop
endfacet
facet normal 0.471395 0.000000 -0.881922
outer loop
vertex 1.446926 0.000000 -2.030448
vertex 1.377772 0.000000 -2.067412
vertex 1.377772 0.180000 -2.067412
endloop
endfacet
facet normal 0.471398 0.000000 -0.881920
outer loop
vertex 1.377772 0.180000 -2.067412
vertex 1.446926 0.180000 -2.030448
vertex 1.446926 0.000000 -2.030448
endloop
endfacet
facet normal -0.995185 0.000000 0.098017
outer loop
vertex 1.992314 0.000000 -2.478036
vertex 2.000000 0.000000 -2.400000
vertex 2.000000 0.180000 -2.400000
endloop
endfacet
facet normal -0.995185 0.000000 0.098017
outer loop
vertex 2.000000 0.180000 -2.400000
vertex 1.992314 0.180000 -2.478036
vertex 1.992314 0.000000 -2.478036
endloop
endfacet
facet normal 0.773010 0.000000 0.634394
outer loop
vertex 1.267412 0.000000 -2.622229
vertex 1.317158 0.000000 -2.682843
vertex 1.317158 0.180000 -2.682843
endloop
endfacet
facet normal 0.773010 0.000000 0.634394
outer loop
vertex 1.317158 0.180000 -2.682843
vertex 1.267412 0.180000 -2.622229
vertex 1.267412 0.000000 -2.622229
endloop
endfacet
facet normal 0.098023 0.000000 -0.995184
outer loop
vertex 1.600000 0.000000 -2.000000
vertex 1.521964 0.000000 -2.007686
vertex 1.521964 0.180000 -2.007686
endloop
endfacet
facet normal 0.098019 0.000000 -0.995185
outer loop
vertex 1.521964 0.180000 -2.007686
vertex 1.600000 0.180000 -2.000000
vertex 1.600000 0.000000 -2.000000
endloop
endfacet
facet normal -0.881922 0.000000 0.471395
outer loop
vertex 1.932588 0.000000 -2.622228
vertex 1.969552 0.000000 -2.553073
vertex 1.969552 0.180000 -2.553073
endloop
endfacet
facet normal -0.881921 0.000000 0.471397
outer loop
vertex 1.969552 0.180000 -2.553073
vertex 1.932588 0.180000 -2.622228
vertex 1.932588 0.000000 -2.622228
endloop
endfacet
facet normal 0.956940 0.000000 0.290287
outer loop
vertex 1.207686 0.000000 -2.478037
vertex 1.230448 0.000000 -2.553074
vertex 1.230448 0.180000 -2.553074
endloop
endfacet
facet normal 0.956940 0.000000 0.290286
outer loop
vertex 1.230448 0.180000 -2.553074
vertex 1.207686 0.180000 -2.478037
vertex 1.207686 0.000000 -2.478037
endloop
endfacet
facet normal -0.634392 0.000000 0.773011
outer loop
vertex 1.822228 0.000000 -2.732588
vertex 1.882843 0.000000 -2.682843
vertex 1.882843 0.180000 -2.682843
endloop
endfacet
facet normal -0.634392 0.000000 0.773011
outer loop
vertex 1.882843 0.180000 -2.682843
vertex 1.822228 0.180000 -2.732588
vertex 1.822228 0.000000 -2.732588
endloop
endfacet
facet normal -0.290285 0.000000 -0.956940
outer loop
vertex 1.753073 0.000000 -2.030448
vertex 1.678036 0.000000 -2.007686
vertex 1.678036 0.180000 -2.007686
endloop
endfacet
facet normal -0.290285 0.000000 -0.956940
outer loop
vertex 1.678036 0.180000 -2.007686
vertex 1.753073 0.180000 -2.030448
vertex 1.753073 0.000000 -2.030448
endloop
endfacet
facet normal 0.995185 0.000000 -0.098016
outer loop
vertex 1.207686 0.000000 -2.321964
vertex 1.200000 0.000000 -2.400001
vertex 1.200000 0.180000 -2.400001
endloop
endfacet
facet normal 0.995185 0.000000 -0.098015
outer loop
vertex 1.200000 0.180000 -2.400001
vertex 1.207686 0.180000 -2.321964
vertex 1.207686 0.000000 -2.321964
endloop
endfacet
facet normal -0.290289 0.000000 0.956939
outer loop
vertex 1.678036 0.000000 -2.792314
vertex 1.753073 0.000000 -2.769552
vertex 1.753073 0.180000 -2.769552
endloop
endfacet
facet normal -0.290278 0.000000 0.956942
outer loop
vertex 1.753073 0.180000 -2.769552
vertex 1.678036 0.180000 -2.792314
vertex 1.678036 0.000000 -2.792314
endloop
endfacet
facet normal -0.634392 0.000000 -0.773011
outer loop
vertex 1.882843 0.000000 -2.117157
vertex 1.822228 0.000000 -2.067412
vertex 1.822228 0.180000 -2.067412
endloop
endfacet
facet normal -0.634395 0.000000 -0.773009
outer loop
vertex 1.822228 0.180000 -2.067412
vertex 1.882843 0.180000 -2.117157
vertex 1.882843 0.000000 -2.117157
endloop
endfacet
facet normal 0.881921 0.000000 -0.471397
outer loop
vertex 1.267412 0.000000 -2.177772
vertex 1.230448 0.000000 -2.246927
vertex 1.230448 0.180000 -2.246927
endloop
endfacet
facet normal 0.881921 0.000000 -0.471397
outer loop
vertex 1.230448 0.180000 -2.246927
vertex 1.267412 0.180000 -2.177772
vertex 1.267412 0.000000 -2.177772
endloop
endfacet
facet normal -0.881921 0.000000 -0.471397
outer loop
vertex 1.969552 0.000000 -2.246927
vertex 1.932588 0.000000 -2.177772
vertex 1.932588 0.180000 -2.177772
endloop
endfacet
facet normal -0.881922 0.000000 -0.471395
outer loop
vertex 1.932588 0.180000 -2.177772
vertex 1.969552 0.180000 -2.246927
vertex 1.969552 0.000000 -2.246927
endloop
endfacet
facet normal 0.290277 0.000000 0.956943
outer loop
vertex 1.446927 0.000000 -2.769552
vertex 1.521965 0.000000 -2.792314
vertex 1.521965 0.180000 -2.792314
endloop
endfacet
facet normal 0.290281 0.000000 0.956941
outer loop
vertex 1.521965 0.180000 -2.792314
vertex 1.446927 0.180000 -2.769552
vertex 1.446927 0.000000 -2.769552
endloop
endfacet
facet normal 0.634393 0.000000 -0.773011
outer loop
vertex 1.377772 0.000000 -2.067412
vertex 1.317157 0.000000 -2.117157
vertex 1.317157 0.180000 -2.117157
endloop
endfacet
facet normal 0.634393 0.000000 -0.773011
outer loop
vertex 1.317157 0.180000 -2.117157
vertex 1.377772 0.180000 -2.067412
vertex 1.377772 0.000000 -2.067412
endloop
endfacet
facet normal -0.995185 0.000000 -0.098018
outer loop
vertex 2.000000 0.000000 -2.400000
vertex 1.992314 0.000000 -2.321964
vertex 1.992314 0.180000 -2.321964
endloop
endfacet
facet normal -0.995185 0.000000 -0.098017
outer loop
vertex 1.992314 0.180000 -2.321964
vertex 2.000000 0.180000 -2.400000
vertex 2.000000 0.000000 -2.400000
endloop
endfacet
facet normal 0.634392 0.000000 0.773011
outer loop
vertex 1.317158 0.000000 -2.682843
vertex 1.377772 0.000000 -2.732588
vertex 1.377772 0.180000 -2.732588
endloop
endfacet
facet normal 0.634392 0.000000 0.773011
outer loop
vertex 1.377772 0.180000 -2.732588
vertex 1.317158 0.180000 -2.682843
vertex 1.317158 0.000000 -2.682843
endloop
endfacet
facet normal 0.290281 0.000000 -0.956941
outer loop
vertex 1.521964 0.000000 -2.007686
vertex 1.446926 0.000000 -2.030448
vertex 1.446926 0.180000 -2.030448
endloop
endfacet
facet normal 0.290285 0.000000 -0.956940
outer loop
vertex 1.446926 0.180000 -2.030448
vertex 1.521964 0.180000 -2.007686
vertex 1.521964 0.000000 -2.007686
endloop
endfacet
facet normal -0.956940 0.000000 0.290285
outer loop
vertex 1.969552 0.000000 -2.553073
vertex 1.992314 0.000000 -2.478036
vertex 1.992314 0.180000 -2.478036
endloop
endfacet
facet normal -0.956940 0.000000 0.290286
outer loop
vertex 1.992314 0.180000 -2.478036
vertex 1.969552 0.180000 -2.553073
vertex 1.969552 0.000000 -2.553073
endloop
endfacet
facet normal 0.881920 0.000000 0.471398
outer loop
vertex 1.230448 0.000000 -2.553074
vertex 1.267412 0.000000 -2.622229
vertex 1.267412 0.180000 -2.622229
endloop
endfacet
facet normal 0.881921 0.000000 0.471396
outer loop
vertex 1.267412 0.180000 -2.622229
vertex 1.230448 0.180000 -2.553074
vertex 1.230448 0.000000 -2.553074
endloop
endfacet
facet normal -0.773011 0.000000 0.634393
outer loop
vertex 1.882843 0.000000 -2.682843
vertex 1.932588 0.000000 -2.622228
vertex 1.932588 0.180000 -2.622228
endloop
endfacet
facet normal -0.773011 0.000000 0.634393
outer loop
vertex 1.932588 0.180000 -2.622228
vertex 1.882843 0.180000 -2.682843
vertex 1.882843 0.000000 -2.682843
endloop
endfacet
facet normal -0.098015 0.000000 -0.995185
outer loop
vertex 1.678036 0.000000 -2.007686
vertex 1.600000 0.000000 -2.000000
vertex 1.600000 0.180000 -2.000000
endloop
endfacet
facet normal -0.098019 0.000000 -0.995185
outer loop
vertex 1.600000 0.180000 -2.000000
vertex 1.678036 0.180000 -2.007686
vertex 1.678036 0.000000 -2.007686
endloop
endfacet
facet normal 0.995185 0.000000 0.098017
outer loop
vertex 1.200000 0.000000 -2.400001
vertex 1.207686 0.000000 -2.478037
vertex 1.207686 0.180000 -2.478037
endloop
endfacet
facet normal 0.995185 0.000000 0.098017
outer loop
vertex 1.207686 0.180000 -2.478037
vertex 1.200000 0.180000 -2.400001
vertex 1.200000 0.000000 -2.400001
endloop
endfacet
facet normal -0.471402 0.000000 0.881918
outer loop
vertex 1.753073 0.000000 -2.769552
vertex 1.822228 0.000000 -2.732588
vertex 1.822228 0.180000 -2.732588
endloop
endfacet
facet normal -0.471396 0.000000 0.881922
outer loop
vertex 1.822228 0.180000 -2.732588
vertex 1.753073 0.180000 -2.769552
vertex 1.753073 0.000000 -2.769552
endloop
endfacet
facet normal -0.471395 0.000000 -0.881922
outer loop
vertex 1.822228 0.000000 -2.067412
vertex 1.753073 0.000000 -2.030448
vertex 1.753073 0.180000 -2.030448
endloop
endfacet
facet normal -0.471398 0.000000 -0.881920
outer loop
vertex 1.753073 0.180000 -2.030448
vertex 1.822228 0.180000 -2.067412
vertex 1.822228 0.000000 -2.067412
endloop
endfacet
facet normal 0.000000 1.000000 0.000000
outer loop
vertex 2.000000 0.000000 -2.400000
vertex 1.860000 0.000000 -2.400000
vertex 1.855004 0.000000 -2.349277
endloop
endfacet
facet normal 0.000000 1.000000 0.000000
outer loop
vertex 1.855004 0.000000 -2.349277
vertex 1.992314 0.000000 -2.321964
vertex 2.000000 0.000000 -2.400000
endloop
endfacet
endsolid Exported from Blender-2.74 (sub 0)
