solid Exported from Blender-2.74 (sub 0)
facet normal 0.098016 0.000000 -0.995185
outer loop
vertex 1.600000 0.000000 -1.200000
vertex 1.600000 0.300000 -1.200000
vertex 1.678036 0.300000 -1.192314
endloop
endfacet
facet normal 0.098016 0.000000 -0.995185
outer loop
vertex 1.678036 0.300000 -1.192314
vertex 1.678036 0.000000 -1.192314
vertex 1.600000 0.000000 -1.200000
endloop
endfacet
facet normal 0.290286 0.000000 -0.956940
outer loop
vertex 1.678036 0.000000 -1.192314
vertex 1.678036 0.300000 -1.192314
vertex 1.753073 0.300000 -1.169552
endloop
endfacet
facet normal 0.290284 0.000000 -0.956941
outer loop
vertex 1.753073 0.300000 -1.169552
vertex 1.753073 0.000000 -1.169552
vertex 1.678036 0.000000 -1.192314
endloop
endfacet
facet normal 0.471398 0.000000 -0.881921
outer loop
vertex 1.753073 0.000000 -1.169552
vertex 1.753073 0.300000 -1.169552
vertex 1.822228 0.300000 -1.132588
endloop
endfacet
facet normal 0.471396 0.000000 -0.881922
outer loop
vertex 1.822228 0.300000 -1.132588
vertex 1.822228 0.000000 -1.132588
vertex 1.753073 0.000000 -1.169552
endloop
endfacet
facet normal 0.634394 0.000000 -0.773010
outer loop
vertex 1.822228 0.000000 -1.132588
vertex 1.822228 0.300000 -1.132588
vertex 1.882843 0.300000 -1.082843
endloop
endfacet
facet normal 0.634394 0.000000 -0.773010
outer loop
vertex 1.882843 0.300000 -1.082843
vertex 1.882843 0.000000 -1.082843
vertex 1.822228 0.000000 -1.132588
endloop
endfacet
facet normal 0.773010 0.000000 -0.634393
outer loop
vertex 1.882843 0.000000 -1.082843
vertex 1.882843 0.300000 -1.082843
vertex 1.932588 0.300000 -1.022228
endloop
endfacet
facet normal 0.773010 0.000000 -0.634393
outer loop
vertex 1.932588 0.300000 -1.022228
vertex 1.932588 0.000000 -1.022228
vertex 1.882843 0.000000 -1.082843
endloop
endfacet
facet normal 0.881922 0.000000 -0.471396
outer loop
vertex 1.932588 0.000000 -1.022228
vertex 1.932588 0.300000 -1.022228
vertex 1.969552 0.300000 -0.953073
endloop
endfacet
facet normal 0.881921 0.000000 -0.471397
outer loop
vertex 1.969552 0.300000 -0.953073
vertex 1.969552 0.000000 -0.953073
vertex 1.932588 0.000000 -1.022228
endloop
endfacet
facet normal 0.956940 0.000000 -0.290285
outer loop
vertex 1.969552 0.000000 -0.953073
vertex 1.969552 0.300000 -0.953073
vertex 1.992314 0.300000 -0.878036
endloop
endfacet
facet normal 0.956940 0.000000 -0.290285
outer loop
vertex 1.992314 0.300000 -0.878036
vertex 1.992314 0.000000 -0.878036
vertex 1.969552 0.000000 -0.953073
endloop
endfacet
facet normal 0.995185 0.000000 -0.098017
outer loop
vertex 1.992314 0.000000 -0.878036
vertex 1.992314 0.300000 -0.878036
vertex 2.000000 0.300000 -0.800000
endloop
endfacet
facet normal 0.995185 0.000000 -0.098017
outer loop
vertex 2.000000 0.300000 -0.800000
vertex 2.000000 0.000000 -0.800000
vertex 1.992314 0.000000 -0.878036
endloop
endfacet
facet normal 0.995185 0.000000 0.098017
outer loop
vertex 2.000000 0.000000 -0.800000
vertex 2.000000 0.300000 -0.800000
vertex 1.992314 0.300000 -0.721964
endloop
endfacet
facet normal 0.995185 0.000000 0.098017
outer loop
vertex 1.992314 0.300000 -0.721964
vertex 1.992314 0.000000 -0.721964
vertex 2.000000 0.000000 -0.800000
endloop
endfacet
facet normal 0.956940 0.000000 0.290285
outer loop
vertex 1.992314 0.000000 -0.721964
vertex 1.992314 0.300000 -0.721964
vertex 1.969552 0.300000 -0.646927
endloop
endfacet
facet normal 0.956940 0.000000 0.290285
outer loop
vertex 1.969552 0.300000 -0.646927
vertex 1.969552 0.000000 -0.646927
vertex 1.992314 0.000000 -0.721964
endloop
endfacet
facet normal 0.881922 0.000000 0.471396
outer loop
vertex 1.969552 0.000000 -0.646927
vertex 1.969552 0.300000 -0.646927
vertex 1.932588 0.300000 -0.577772
endloop
endfacet
facet normal 0.881922 0.000000 0.471396
outer loop
vertex 1.932588 0.300000 -0.577772
vertex 1.932588 0.000000 -0.577772
vertex 1.969552 0.000000 -0.646927
endloop
endfacet
facet normal 0.773010 0.000000 0.634393
outer loop
vertex 1.932588 0.000000 -0.577772
vertex 1.932588 0.300000 -0.577772
vertex 1.882843 0.300000 -0.517157
endloop
endfacet
facet normal 0.773011 0.000000 0.634393
outer loop
vertex 1.882843 0.300000 -0.517157
vertex 1.882843 0.000000 -0.517157
vertex 1.932588 0.000000 -0.577772
endloop
endfacet
facet normal 0.634393 0.000000 0.773011
outer loop
vertex 1.882843 0.000000 -0.517157
vertex 1.882843 0.300000 -0.517157
vertex 1.822228 0.300000 -0.467412
endloop
endfacet
facet normal 0.634393 0.000000 0.773011
outer loop
vertex 1.822228 0.300000 -0.467412
vertex 1.822228 0.000000 -0.467412
vertex 1.882843 0.000000 -0.517157
endloop
endfacet
facet normal 0.471397 0.000000 0.881921
outer loop
vertex 1.822228 0.000000 -0.467412
vertex 1.822228 0.300000 -0.467412
vertex 1.753073 0.300000 -0.430448
endloop
endfacet
facet normal 0.471397 0.000000 0.881921
outer loop
vertex 1.753073 0.300000 -0.430448
vertex 1.753073 0.000000 -0.430448
vertex 1.822228 0.000000 -0.467412
endloop
endfacet
facet normal 0.290284 0.000000 0.956941
outer loop
vertex 1.753073 0.000000 -0.430448
vertex 1.753073 0.300000 -0.430448
vertex 1.678036 0.300000 -0.407686
endloop
endfacet
facet normal 0.290285 0.000000 0.956940
outer loop
vertex 1.678036 0.300000 -0.407686
vertex 1.678036 0.000000 -0.407686
vertex 1.753073 0.000000 -0.430448
endloop
endfacet
facet normal 0.098017 0.000000 0.995185
outer loop
vertex 1.678036 0.000000 -0.407686
vertex 1.678036 0.300000 -0.407686
vertex 1.600000 0.300000 -0.400000
endloop
endfacet
facet normal 0.098017 0.000000 0.995185
outer loop
vertex 1.600000 0.300000 -0.400000
vertex 1.600000 0.000000 -0.400000
vertex 1.678036 0.000000 -0.407686
endloop
endfacet
facet normal -0.098018 0.000000 0.995185
outer loop
vertex 1.600000 0.000000 -0.400000
vertex 1.600000 0.300000 -0.400000
vertex 1.521964 0.300000 -0.407686
endloop
endfacet
facet normal -0.098017 0.000000 0.995185
outer loop
vertex 1.521964 0.300000 -0.407686
vertex 1.521964 0.000000 -0.407686
vertex 1.600000 0.000000 -0.400000
endloop
endfacet
facet normal -0.290284 0.000000 0.956940
outer loop
vertex 1.521964 0.000000 -0.407686
vertex 1.521964 0.300000 -0.407686
vertex 1.446926 0.300000 -0.430448
endloop
endfacet
facet normal -0.290286 0.000000 0.956940
outer loop
vertex 1.446926 0.300000 -0.430448
vertex 1.446926 0.000000 -0.430448
vertex 1.521964 0.000000 -0.407686
endloop
endfacet
facet normal -0.471396 0.000000 0.881922
outer loop
vertex 1.446926 0.000000 -0.430448
vertex 1.446926 0.300000 -0.430448
vertex 1.377772 0.300000 -0.467412
endloop
endfacet
facet normal -0.471398 0.000000 0.881921
outer loop
vertex 1.377772 0.300000 -0.467412
vertex 1.377772 0.000000 -0.467412
vertex 1.446926 0.000000 -0.430448
endloop
endfacet
facet normal -0.634394 0.000000 0.773010
outer loop
vertex 1.377772 0.000000 -0.467412
vertex 1.377772 0.300000 -0.467412
vertex 1.317157 0.300000 -0.517157
endloop
endfacet
facet normal -0.634394 0.000000 0.773010
outer loop
vertex 1.317157 0.300000 -0.517157
vertex 1.317157 0.000000 -0.517157
vertex 1.377772 0.000000 -0.467412
endloop
endfacet
facet normal -0.773010 0.000000 0.634394
outer loop
vertex 1.317157 0.000000 -0.517157
vertex 1.317157 0.300000 -0.517157
vertex 1.267412 0.300000 -0.577772
endloop
endfacet
facet normal -0.773011 0.000000 0.634393
outer loop
vertex 1.267412 0.300000 -0.577772
vertex 1.267412 0.000000 -0.577772
vertex 1.317157 0.000000 -0.517157
endloop
endfacet
facet normal -0.881921 0.000000 0.471397
outer loop
vertex 1.267412 0.000000 -0.577772
vertex 1.267412 0.300000 -0.577772
vertex 1.230448 0.300000 -0.646927
endloop
endfacet
facet normal -0.881922 0.000000 0.471396
outer loop
vertex 1.230448 0.300000 -0.646927
vertex 1.230448 0.000000 -0.646927
vertex 1.267412 0.000000 -0.577772
endloop
endfacet
facet normal -0.956941 0.000000 0.290283
outer loop
vertex 1.230448 0.000000 -0.646927
vertex 1.230448 0.300000 -0.646927
vertex 1.207686 0.300000 -0.721964
endloop
endfacet
facet normal -0.956941 0.000000 0.290283
outer loop
vertex 1.207686 0.300000 -0.721964
vertex 1.207686 0.000000 -0.721964
vertex 1.230448 0.000000 -0.646927
endloop
endfacet
facet normal -0.995185 0.000000 0.098016
outer loop
vertex 1.207686 0.000000 -0.721964
vertex 1.207686 0.300000 -0.721964
vertex 1.200000 0.300000 -0.800000
endloop
endfacet
facet normal -0.995185 0.000000 0.098016
outer loop
vertex 1.200000 0.300000 -0.800000
vertex 1.200000 0.000000 -0.800000
vertex 1.207686 0.000000 -0.721964
endloop
endfacet
facet normal -0.995185 0.000000 -0.098017
outer loop
vertex 1.200000 0.000000 -0.800000
vertex 1.200000 0.300000 -0.800000
vertex 1.207686 0.300000 -0.878037
endloop
endfacet
facet normal -0.995185 0.000000 -0.098017
outer loop
vertex 1.207686 0.300000 -0.878037
vertex 1.207686 0.000000 -0.878037
vertex 1.200000 0.000000 -0.800000
endloop
endfacet
facet normal -0.956940 0.000000 -0.290286
outer loop
vertex 1.207686 0.000000 -0.878037
vertex 1.207686 0.300000 -0.878037
vertex 1.230448 0.300000 -0.953074
endloop
endfacet
facet normal -0.956940 0.000000 -0.290287
outer loop
vertex 1.230448 0.300000 -0.953074
vertex 1.230448 0.000000 -0.953074
vertex 1.207686 0.000000 -0.878037
endloop
endfacet
facet normal -0.881921 0.000000 -0.471398
outer loop
vertex 1.230448 0.000000 -0.953074
vertex 1.230448 0.300000 -0.953074
vertex 1.267412 0.300000 -1.022228
endloop
endfacet
facet normal -0.881921 0.000000 -0.471398
outer loop
vertex 1.267412 0.300000 -1.022228
vertex 1.267412 0.000000 -1.022228
vertex 1.230448 0.000000 -0.953074
endloop
endfacet
facet normal -0.773010 0.000000 -0.634394
outer loop
vertex 1.267412 0.000000 -1.022228
vertex 1.267412 0.300000 -1.022228
vertex 1.317158 0.300000 -1.082843
endloop
endfacet
facet normal -0.773011 0.000000 -0.634393
outer loop
vertex 1.317158 0.300000 -1.082843
vertex 1.317158 0.000000 -1.082843
vertex 1.267412 0.000000 -1.022228
endloop
endfacet
facet normal -0.634392 0.000000 -0.773012
outer loop
vertex 1.317158 0.000000 -1.082843
vertex 1.317158 0.300000 -1.082843
vertex 1.377772 0.300000 -1.132588
endloop
endfacet
facet normal -0.634392 0.000000 -0.773012
outer loop
vertex 1.377772 0.300000 -1.132588
vertex 1.377772 0.000000 -1.132588
vertex 1.317158 0.000000 -1.082843
endloop
endfacet
facet normal -0.471397 0.000000 -0.881921
outer loop
vertex 1.377772 0.000000 -1.132588
vertex 1.377772 0.300000 -1.132588
vertex 1.446927 0.300000 -1.169552
endloop
endfacet
facet normal -0.471395 0.000000 -0.881922
outer loop
vertex 1.446927 0.300000 -1.169552
vertex 1.446927 0.000000 -1.169552
vertex 1.377772 0.000000 -1.132588
endloop
endfacet
facet normal 0.000000 1.000000 0.000000
outer loop
vertex 1.678036 0.300000 -1.192314
vertex 1.822228 0.300000 -1.132588
vertex 1.753073 0.300000 -1.169552
endloop
endfacet
facet normal 0.000000 1.000000 0.000000
outer loop
vertex 1.932588 0.300000 -1.022228
vertex 1.882843 0.300000 -1.082843
vertex 1.822228 0.300000 -1.132588
endloop
endfacet
facet normal 0.000000 1.000000 0.000002
outer loop
vertex 1.992314 0.300000 -0.878036
vertex 1.969552 0.300000 -0.953073
vertex 1.932588 0.300000 -1.022228
endloop
endfacet
facet normal 0.000000 1.000000 0.000000
outer loop
vertex 1.992314 0.300000 -0.721964
vertex 2.000000 0.300000 -0.800000
vertex 1.992314 0.300000 -0.878036
endloop
endfacet
facet normal 0.000000 1.000000 -0.000002
outer loop
vertex 1.932588 0.300000 -0.577772
vertex 1.969552 0.300000 -0.646927
vertex 1.992314 0.300000 -0.721964
endloop
endfacet
facet normal 0.000000 1.000000 -0.000002
outer loop
vertex 1.822228 0.300000 -0.467412
vertex 1.882843 0.300000 -0.517157
vertex 1.932588 0.300000 -0.577772
endloop
endfacet
facet normal 0.000000 1.000000 -0.000003
outer loop
vertex 1.678036 0.300000 -0.407686
vertex 1.753073 0.300000 -0.430448
vertex 1.822228 0.300000 -0.467412
endloop
endfacet
facet normal 0.000000 1.000000 0.000000
outer loop
vertex 1.521964 0.300000 -0.407686
vertex 1.600000 0.300000 -0.400000
vertex 1.678036 0.300000 -0.407686
endloop
endfacet
facet normal 0.000000 1.000000 -0.000003
outer loop
vertex 1.377772 0.300000 -0.467412
vertex 1.446926 0.300000 -0.430448
vertex 1.521964 0.300000 -0.407686
endloop
endfacet
facet normal 0.000000 1.000000 -0.000003
outer loop
vertex 1.267412 0.300000 -0.577772
vertex 1.317157 0.300000 -0.517157
vertex 1.377772 0.300000 -0.467412
endloop
endfacet
facet normal 0.000000 1.000000 -0.000002
outer loop
vertex 1.207686 0.300000 -0.721964
vertex 1.230448 0.300000 -0.646927
vertex 1.267412 0.300000 -0.577772
endloop
endfacet
facet normal 0.000000 1.000000 0.000000
outer loop
vertex 1.207686 0.300000 -0.878037
vertex 1.200000 0.300000 -0.800000
vertex 1.207686 0.300000 -0.721964
endloop
endfacet
facet normal 0.000000 1.000000 -0.000001
outer loop
vertex 1.267412 0.300000 -1.022228
vertex 1.230448 0.300000 -0.953074
vertex 1.207686 0.300000 -0.878037
endloop
endfacet
facet normal 0.000000 1.000000 0.000000
outer loop
vertex 1.377772 0.300000 -1.132588
vertex 1.317158 0.300000 -1.082843
vertex 1.267412 0.300000 -1.022228
endloop
endfacet
facet normal 0.000000 1.000000 -0.000003
outer loop
vertex 1.521965 0.300000 -1.192314
vertex 1.446927 0.300000 -1.169552
vertex 1.377772 0.300000 -1.132588
endloop
endfacet
facet normal 0.000000 1.000000 -0.000003
outer loop
vertex 1.678036 0.300000 -1.192314
vertex 1.600000 0.300000 -1.200000
vertex 1.521965 0.300000 -1.192314
endloop
endfacet
facet normal 0.000000 1.000000 -0.000001
outer loop
vertex 1.678036 0.300000 -1.192314
vertex 1.932588 0.300000 -1.022228
vertex 1.822228 0.300000 -1.132588
endloop
endfacet
facet normal 0.000000 1.000000 0.000000
outer loop
vertex 1.992314 0.300000 -0.721964
vertex 1.992314 0.300000 -0.878036
vertex 1.932588 0.300000 -1.022228
endloop
endfacet
facet normal 0.000000 1.000000 0.000001
outer loop
vertex 1.822228 0.300000 -0.467412
vertex 1.932588 0.300000 -0.577772
vertex 1.992314 0.300000 -0.721964
endloop
endfacet
facet normal 0.000000 1.000000 0.000000
outer loop
vertex 1.521964 0.300000 -0.407686
vertex 1.678036 0.300000 -0.407686
vertex 1.822228 0.300000 -0.467412
endloop
endfacet
facet normal 0.000000 1.000000 0.000000
outer loop
vertex 1.267412 0.300000 -0.577772
vertex 1.377772 0.300000 -0.467412
vertex 1.521964 0.300000 -0.407686
endloop
endfacet
facet normal 0.000000 1.000000 0.000000
outer loop
vertex 1.207686 0.300000 -0.878037
vertex 1.207686 0.300000 -0.721964
vertex 1.267412 0.300000 -0.577772
endloop
endfacet
facet normal 0.000000 1.000000 0.000000
outer loop
vertex 1.377772 0.300000 -1.132588
vertex 1.267412 0.300000 -1.022228
vertex 1.207686 0.300000 -0.878037
endloop
endfacet
facet normal 0.000000 1.000000 0.000001
outer loop
vertex 1.678036 0.300000 -1.192314
vertex 1.521965 0.300000 -1.192314
vertex 1.377772 0.300000 -1.132588
endloop
endfacet
facet normal 0.000000 1.000000 0.000000
outer loop
vertex 1.678036 0.300000 -1.192314
vertex 1.992314 0.300000 -0.721964
vertex 1.932588 0.300000 -1.022228
endloop
endfacet
facet normal 0.000000 1.000000 -0.000000
outer loop
vertex 1.521964 0.300000 -0.407686
vertex 1.822228 0.300000 -0.467412
vertex 1.992314 0.300000 -0.721964
endloop
endfacet
facet normal 0.000000 1.000000 0.000000
outer loop
vertex 1.207686 0.300000 -0.878037
vertex 1.267412 0.300000 -0.577772
vertex 1.521964 0.300000 -0.407686
endloop
endfacet
facet normal 0.000000 1.000000 -0.000000
outer loop
vertex 1.678036 0.300000 -1.192314
vertex 1.377772 0.300000 -1.132588
vertex 1.207686 0.300000 -0.878037
endloop
endfacet
facet normal 0.000000 1.000000 0.000000
outer loop
vertex 1.678036 0.300000 -1.192314
vertex 1.521964 0.300000 -0.407686
vertex 1.992314 0.300000 -0.721964
endloop
endfacet
facet normal 0.000000 1.000000 0.000000
outer loop
vertex 1.678036 0.300000 -1.192314
vertex 1.207686 0.300000 -0.878037
vertex 1.521964 0.300000 -0.407686
endloop
endfacet
facet normal -0.098015 0.000000 -0.995185
outer loop
vertex 1.600000 0.300000 -1.200000
vertex 1.600000 0.000000 -1.200000
vertex 1.521965 0.000000 -1.192314
endloop
endfacet
facet normal -0.098017 0.000000 -0.995185
outer loop
vertex 1.521965 0.000000 -1.192314
vertex 1.521965 0.300000 -1.192314
vertex 1.600000 0.300000 -1.200000
endloop
endfacet
facet normal -0.290286 0.000000 -0.956940
outer loop
vertex 1.446927 0.000000 -1.169552
vertex 1.446927 0.300000 -1.169552
vertex 1.521965 0.300000 -1.192314
endloop
endfacet
facet normal -0.290281 0.000000 -0.956941
outer loop
vertex 1.521965 0.300000 -1.192314
vertex 1.521965 0.000000 -1.192314
vertex 1.446927 0.000000 -1.169552
endloop
endfacet
facet normal 0.000000 0.000000 0.000000
outer loop
vertex 1.446927 0.000000 -1.169552
vertex 1.521965 0.000000 -1.192314
vertex 1.521965 0.000000 -1.192314
endloop
endfacet
facet normal 0.000000 0.000000 0.000000
outer loop
vertex 1.521965 0.000000 -1.192314
vertex 1.446927 0.000000 -1.169552
vertex 1.446927 0.000000 -1.169552
endloop
endfacet
facet normal 0.000000 0.000000 0.000000
outer loop
vertex 1.317158 0.000000 -1.082843
vertex 1.377772 0.000000 -1.132588
vertex 1.377772 0.000000 -1.132588
endloop
endfacet
facet normal 0.000000 0.000000 0.000000
outer loop
vertex 1.377772 0.000000 -1.132588
vertex 1.317158 0.000000 -1.082843
vertex 1.317158 0.000000 -1.082843
endloop
endfacet
facet normal 0.000000 0.000000 0.000000
outer loop
vertex 1.377772 0.000000 -0.467412
vertex 1.317157 0.000000 -0.517157
vertex 1.317157 0.000000 -0.517157
endloop
endfacet
facet normal 0.000000 0.000000 0.000000
outer loop
vertex 1.317157 0.000000 -0.517157
vertex 1.377772 0.000000 -0.467412
vertex 1.377772 0.000000 -0.467412
endloop
endfacet
facet normal 0.000000 0.000000 0.000000
outer loop
vertex 2.000000 0.000000 -0.800000
vertex 1.992314 0.000000 -0.721964
vertex 1.992314 0.000000 -0.721964
endloop
endfacet
facet normal 0.000000 0.000000 0.000000
outer loop
vertex 1.992314 0.000000 -0.721964
vertex 2.000000 0.000000 -0.800000
vertex 2.000000 0.000000 -0.800000
endloop
endfacet
facet normal 0.000000 0.000000 0.000000
outer loop
vertex 1.230448 0.000000 -0.646927
vertex 1.207686 0.000000 -0.721964
vertex 1.207686 0.000000 -0.721964
endloop
endfacet
facet normal 0.000000 0.000000 0.000000
outer loop
vertex 1.207686 0.000000 -0.721964
vertex 1.230448 0.000000 -0.646927
vertex 1.230448 0.000000 -0.646927
endloop
endfacet
facet normal 0.000000 0.000000 0.000000
outer loop
vertex 1.932588 0.000000 -0.577772
vertex 1.882843 0.000000 -0.517157
vertex 1.882843 0.000000 -0.517157
endloop
endfacet
facet normal 0.000000 0.000000 0.000000
outer loop
vertex 1.882843 0.000000 -0.517157
vertex 1.932588 0.000000 -0.577772
vertex 1.932588 0.000000 -0.577772
endloop
endfacet
facet normal 0.000000 0.000000 0.000000
outer loop
vertex 1.207686 0.000000 -0.878037
vertex 1.230448 0.000000 -0.953074
vertex 1.230448 0.000000 -0.953074
endloop
endfacet
facet normal 0.000000 0.000000 0.000000
outer loop
vertex 1.230448 0.000000 -0.953074
vertex 1.207686 0.000000 -0.878037
vertex 1.207686 0.000000 -0.878037
endloop
endfacet
facet normal 0.000000 0.000000 0.000000
outer loop
vertex 1.822228 0.000000 -1.132588
vertex 1.882843 0.000000 -1.082843
vertex 1.882843 0.000000 -1.082843
endloop
endfacet
facet normal 0.000000 0.000000 0.000000
outer loop
vertex 1.882843 0.000000 -1.082843
vertex 1.822228 0.000000 -1.132588
vertex 1.822228 0.000000 -1.132588
endloop
endfacet
facet normal 0.000000 0.000000 0.000000
outer loop
vertex 1.753073 0.000000 -0.430448
vertex 1.678036 0.000000 -0.407686
vertex 1.678036 0.000000 -0.407686
endloop
endfacet
facet normal 0.000000 0.000000 0.000000
outer loop
vertex 1.678036 0.000000 -0.407686
vertex 1.753073 0.000000 -0.430448
vertex 1.753073 0.000000 -0.430448
endloop
endfacet
facet normal 0.000000 0.000000 0.000000
outer loop
vertex 1.317158 0.000000 -1.082843
vertex 1.377772 0.000000 -1.132588
vertex 1.377772 0.000000 -1.132588
endloop
endfacet
facet normal 0.000000 0.000000 0.000000
outer loop
vertex 1.377772 0.000000 -1.132588
vertex 1.317158 0.000000 -1.082843
vertex 1.317158 0.000000 -1.082843
endloop
endfacet
facet normal 0.000000 0.000000 0.000000
outer loop
vertex 1.521964 0.000000 -0.407686
vertex 1.446926 0.000000 -0.430448
vertex 1.446926 0.000000 -0.430448
endloop
endfacet
facet normal 0.000000 0.000000 0.000000
outer loop
vertex 1.446926 0.000000 -0.430448
vertex 1.521964 0.000000 -0.407686
vertex 1.521964 0.000000 -0.407686
endloop
endfacet
facet normal 0.000000 0.000000 0.000000
outer loop
vertex 1.969552 0.000000 -0.953073
vertex 1.992314 0.000000 -0.878036
vertex 1.992314 0.000000 -0.878036
endloop
endfacet
facet normal 0.000000 0.000000 0.000000
outer loop
vertex 1.992314 0.000000 -0.878036
vertex 1.969552 0.000000 -0.953073
vertex 1.969552 0.000000 -0.953073
endloop
endfacet
facet normal 0.000000 0.000000 0.000000
outer loop
vertex 1.521965 0.000000 -1.192314
vertex 1.600000 0.000000 -1.200000
vertex 1.600000 0.000000 -1.200000
endloop
endfacet
facet normal 0.000000 0.000000 0.000000
outer loop
vertex 1.600000 0.000000 -1.200000
vertex 1.521965 0.000000 -1.192314
vertex 1.521965 0.000000 -1.192314
endloop
endfacet
facet normal 0.000000 0.000000 0.000000
outer loop
vertex 1.317157 0.000000 -0.517157
vertex 1.267412 0.000000 -0.577772
vertex 1.267412 0.000000 -0.577772
endloop
endfacet
facet normal 0.000000 0.000000 0.000000
outer loop
vertex 1.267412 0.000000 -0.577772
vertex 1.317157 0.000000 -0.517157
vertex 1.317157 0.000000 -0.517157
endloop
endfacet
facet normal 0.000000 0.000000 0.000000
outer loop
vertex 1.992314 0.000000 -0.721964
vertex 1.969552 0.000000 -0.646927
vertex 1.969552 0.000000 -0.646927
endloop
endfacet
facet normal 0.000000 0.000000 0.000000
outer loop
vertex 1.969552 0.000000 -0.646927
vertex 1.992314 0.000000 -0.721964
vertex 1.992314 0.000000 -0.721964
endloop
endfacet
facet normal 0.000000 0.000000 0.000000
outer loop
vertex 1.207686 0.000000 -0.721964
vertex 1.200000 0.000000 -0.800000
vertex 1.200000 0.000000 -0.800000
endloop
endfacet
facet normal 0.000000 0.000000 0.000000
outer loop
vertex 1.200000 0.000000 -0.800000
vertex 1.207686 0.000000 -0.721964
vertex 1.207686 0.000000 -0.721964
endloop
endfacet
facet normal 0.000000 0.000000 0.000000
outer loop
vertex 1.678036 0.000000 -1.192314
vertex 1.753073 0.000000 -1.169552
vertex 1.753073 0.000000 -1.169552
endloop
endfacet
facet normal 0.000000 0.000000 0.000000
outer loop
vertex 1.753073 0.000000 -1.169552
vertex 1.678036 0.000000 -1.192314
vertex 1.678036 0.000000 -1.192314
endloop
endfacet
facet normal 0.000000 0.000000 0.000000
outer loop
vertex 1.882843 0.000000 -0.517157
vertex 1.822228 0.000000 -0.467412
vertex 1.822228 0.000000 -0.467412
endloop
endfacet
facet normal 0.000000 0.000000 0.000000
outer loop
vertex 1.822228 0.000000 -0.467412
vertex 1.882843 0.000000 -0.517157
vertex 1.882843 0.000000 -0.517157
endloop
endfacet
facet normal 0.000000 0.000000 0.000000
outer loop
vertex 1.230448 0.000000 -0.953074
vertex 1.267412 0.000000 -1.022228
vertex 1.267412 0.000000 -1.022228
endloop
endfacet
facet normal 0.000000 0.000000 0.000000
outer loop
vertex 1.267412 0.000000 -1.022228
vertex 1.230448 0.000000 -0.953074
vertex 1.230448 0.000000 -0.953074
endloop
endfacet
facet normal 0.000000 0.000000 0.000000
outer loop
vertex 1.882843 0.000000 -1.082843
vertex 1.932588 0.000000 -1.022228
vertex 1.932588 0.000000 -1.022228
endloop
endfacet
facet normal 0.000000 0.000000 0.000000
outer loop
vertex 1.932588 0.000000 -1.022228
vertex 1.882843 0.000000 -1.082843
vertex 1.882843 0.000000 -1.082843
endloop
endfacet
facet normal 0.000000 0.000000 0.000000
outer loop
vertex 1.678036 0.000000 -0.407686
vertex 1.600000 0.000000 -0.400000
vertex 1.600000 0.000000 -0.400000
endloop
endfacet
facet normal 0.000000 0.000000 0.000000
outer loop
vertex 1.600000 0.000000 -0.400000
vertex 1.678036 0.000000 -0.407686
vertex 1.678036 0.000000 -0.407686
endloop
endfacet
facet normal 0.000000 0.000000 0.000000
outer loop
vertex 1.377772 0.000000 -1.132588
vertex 1.446927 0.000000 -1.169552
vertex 1.446927 0.000000 -1.169552
endloop
endfacet
facet normal 0.000000 0.000000 0.000000
outer loop
vertex 1.446927 0.000000 -1.169552
vertex 1.377772 0.000000 -1.132588
vertex 1.377772 0.000000 -1.132588
endloop
endfacet
facet normal 0.000000 0.000000 0.000000
outer loop
vertex 1.446926 0.000000 -0.430448
vertex 1.377772 0.000000 -0.467412
vertex 1.377772 0.000000 -0.467412
endloop
endfacet
facet normal 0.000000 0.000000 0.000000
outer loop
vertex 1.377772 0.000000 -0.467412
vertex 1.446926 0.000000 -0.430448
vertex 1.446926 0.000000 -0.430448
endloop
endfacet
facet normal 0.000000 0.000000 0.000000
outer loop
vertex 1.600000 0.000000 -1.200000
vertex 1.678036 0.000000 -1.192314
vertex 1.678036 0.000000 -1.192314
endloop
endfacet
facet normal 0.000000 0.000000 0.000000
outer loop
vertex 1.678036 0.000000 -1.192314
vertex 1.600000 0.000000 -1.200000
vertex 1.600000 0.000000 -1.200000
endloop
endfacet
facet normal 0.000000 0.000000 0.000000
outer loop
vertex 1.992314 0.000000 -0.878036
vertex 2.000000 0.000000 -0.800000
vertex 2.000000 0.000000 -0.800000
endloop
endfacet
facet normal 0.000000 0.000000 0.000000
outer loop
vertex 2.000000 0.000000 -0.800000
vertex 1.992314 0.000000 -0.878036
vertex 1.992314 0.000000 -0.878036
endloop
endfacet
facet normal 0.000000 0.000000 0.000000
outer loop
vertex 1.267412 0.000000 -0.577772
vertex 1.230448 0.000000 -0.646927
vertex 1.230448 0.000000 -0.646927
endloop
endfacet
facet normal 0.000000 0.000000 0.000000
outer loop
vertex 1.230448 0.000000 -0.646927
vertex 1.267412 0.000000 -0.577772
vertex 1.267412 0.000000 -0.577772
endloop
endfacet
facet normal 0.000000 0.000000 0.000000
outer loop
vertex 1.969552 0.000000 -0.646927
vertex 1.932588 0.000000 -0.577772
vertex 1.932588 0.000000 -0.577772
endloop
endfacet
facet normal 0.000000 0.000000 0.000000
outer loop
vertex 1.932588 0.000000 -0.577772
vertex 1.969552 0.000000 -0.646927
vertex 1.969552 0.000000 -0.646927
endloop
endfacet
facet normal 0.000000 0.000000 0.000000
outer loop
vertex 1.200000 0.000000 -0.800000
vertex 1.207686 0.000000 -0.878037
vertex 1.207686 0.000000 -0.878037
endloop
endfacet
facet normal 0.000000 0.000000 0.000000
outer loop
vertex 1.207686 0.000000 -0.878037
vertex 1.200000 0.000000 -0.800000
vertex 1.200000 0.000000 -0.800000
endloop
endfacet
facet normal 0.000000 0.000000 0.000000
outer loop
vertex 1.753073 0.000000 -1.169552
vertex 1.822228 0.000000 -1.132588
vertex 1.822228 0.000000 -1.132588
endloop
endfacet
facet normal 0.000000 0.000000 0.000000
outer loop
vertex 1.822228 0.000000 -1.132588
vertex 1.753073 0.000000 -1.169552
vertex 1.753073 0.000000 -1.169552
endloop
endfacet
facet normal 0.000000 0.000000 0.000000
outer loop
vertex 1.822228 0.000000 -0.467412
vertex 1.753073 0.000000 -0.430448
vertex 1.753073 0.000000 -0.430448
endloop
endfacet
facet normal 0.000000 0.000000 0.000000
outer loop
vertex 1.753073 0.000000 -0.430448
vertex 1.822228 0.000000 -0.467412
vertex 1.822228 0.000000 -0.467412
endloop
endfacet
facet normal 0.000000 0.000000 0.000000
outer loop
vertex 1.267412 0.000000 -1.022228
vertex 1.317158 0.000000 -1.082843
vertex 1.317158 0.000000 -1.082843
endloop
endfacet
facet normal 0.000000 0.000000 0.000000
outer loop
vertex 1.317158 0.000000 -1.082843
vertex 1.267412 0.000000 -1.022228
vertex 1.267412 0.000000 -1.022228
endloop
endfacet
facet normal 0.000000 0.000000 0.000000
outer loop
vertex 1.600000 0.000000 -0.400000
vertex 1.521964 0.000000 -0.407686
vertex 1.521964 0.000000 -0.407686
endloop
endfacet
facet normal 0.000000 0.000000 0.000000
outer loop
vertex 1.521964 0.000000 -0.407686
vertex 1.600000 0.000000 -0.400000
vertex 1.600000 0.000000 -0.400000
endloop
endfacet
facet normal 0.000000 0.000000 0.000000
outer loop
vertex 1.932588 0.000000 -1.022228
vertex 1.969552 0.000000 -0.953073
vertex 1.969552 0.000000 -0.953073
endloop
endfacet
facet normal 0.000000 0.000000 0.000000
outer loop
vertex 1.969552 0.000000 -0.953073
vertex 1.932588 0.000000 -1.022228
vertex 1.932588 0.000000 -1.022228
endloop
endfacet
facet normal 0.000000 0.000000 0.000000
outer loop
vertex 1.446927 0.000000 -1.169552
vertex 1.521965 0.000000 -1.192314
vertex 1.521965 0.000000 -1.192314
endloop
endfacet
facet normal 0.000000 0.000000 0.000000
outer loop
vertex 1.521965 0.000000 -1.192314
vertex 1.446927 0.000000 -1.169552
vertex 1.446927 0.000000 -1.169552
endloop
endfacet
facet normal 0.000000 0.000000 0.000000
outer loop
vertex 1.521964 0.000000 -0.407686
vertex 1.446926 0.000000 -0.430448
vertex 1.446926 0.000000 -0.430448
endloop
endfacet
facet normal 0.000000 0.000000 0.000000
outer loop
vertex 1.446926 0.000000 -0.430448
vertex 1.521964 0.000000 -0.407686
vertex 1.521964 0.000000 -0.407686
endloop
endfacet
facet normal 0.000000 0.000000 0.000000
outer loop
vertex 1.969552 0.000000 -0.953073
vertex 1.992314 0.000000 -0.878036
vertex 1.992314 0.000000 -0.878036
endloop
endfacet
facet normal 0.000000 0.000000 0.000000
outer loop
vertex 1.992314 0.000000 -0.878036
vertex 1.969552 0.000000 -0.953073
vertex 1.969552 0.000000 -0.953073
endloop
endfacet
facet normal 0.000000 0.000000 0.000000
outer loop
vertex 1.230448 0.000000 -0.953074
vertex 1.267412 0.000000 -1.022228
vertex 1.267412 0.000000 -1.022228
endloop
endfacet
facet normal 0.000000 0.000000 0.000000
outer loop
vertex 1.267412 0.000000 -1.022228
vertex 1.230448 0.000000 -0.953074
vertex 1.230448 0.000000 -0.953074
endloop
endfacet
facet normal 0.000000 0.000000 0.000000
outer loop
vertex 1.882843 0.000000 -1.082843
vertex 1.932588 0.000000 -1.022228
vertex 1.932588 0.000000 -1.022228
endloop
endfacet
facet normal 0.000000 0.000000 0.000000
outer loop
vertex 1.932588 0.000000 -1.022228
vertex 1.882843 0.000000 -1.082843
vertex 1.882843 0.000000 -1.082843
endloop
endfacet
facet normal 0.000000 0.000000 0.000000
outer loop
vertex 1.678036 0.000000 -0.407686
vertex 1.600000 0.000000 -0.400000
vertex 1.600000 0.000000 -0.400000
endloop
endfacet
facet normal 0.000000 0.000000 0.000000
outer loop
vertex 1.600000 0.000000 -0.400000
vertex 1.678036 0.000000 -0.407686
vertex 1.678036 0.000000 -0.407686
endloop
endfacet
facet normal 0.000000 0.000000 0.000000
outer loop
vertex 1.200000 0.000000 -0.800000
vertex 1.207686 0.000000 -0.878037
vertex 1.207686 0.000000 -0.878037
endloop
endfacet
facet normal 0.000000 0.000000 0.000000
outer loop
vertex 1.207686 0.000000 -0.878037
vertex 1.200000 0.000000 -0.800000
vertex 1.200000 0.000000 -0.800000
endloop
endfacet
facet normal 0.000000 0.000000 0.000000
outer loop
vertex 1.753073 0.000000 -1.169552
vertex 1.822228 0.000000 -1.132588
vertex 1.822228 0.000000 -1.132588
endloop
endfacet
facet normal 0.000000 0.000000 0.000000
outer loop
vertex 1.822228 0.000000 -1.132588
vertex 1.753073 0.000000 -1.169552
vertex 1.753073 0.000000 -1.169552
endloop
endfacet
facet normal 0.000000 0.000000 0.000000
outer loop
vertex 1.822228 0.000000 -0.467412
vertex 1.753073 0.000000 -0.430448
vertex 1.753073 0.000000 -0.430448
endloop
endfacet
facet normal 0.000000 0.000000 0.000000
outer loop
vertex 1.753073 0.000000 -0.430448
vertex 1.822228 0.000000 -0.467412
vertex 1.822228 0.000000 -0.467412
endloop
endfacet
facet normal 0.000000 0.000000 0.000000
outer loop
vertex 1.230448 0.000000 -0.646927
vertex 1.207686 0.000000 -0.721964
vertex 1.207686 0.000000 -0.721964
endloop
endfacet
facet normal 0.000000 0.000000 0.000000
outer loop
vertex 1.207686 0.000000 -0.721964
vertex 1.230448 0.000000 -0.646927
vertex 1.230448 0.000000 -0.646927
endloop
endfacet
facet normal 0.000000 0.000000 0.000000
outer loop
vertex 1.600000 0.000000 -1.200000
vertex 1.678036 0.000000 -1.192314
vertex 1.678036 0.000000 -1.192314
endloop
endfacet
facet normal 0.000000 0.000000 0.000000
outer loop
vertex 1.678036 0.000000 -1.192314
vertex 1.600000 0.000000 -1.200000
vertex 1.600000 0.000000 -1.200000
endloop
endfacet
facet normal 0.000000 0.000000 0.000000
outer loop
vertex 1.932588 0.000000 -0.577772
vertex 1.882843 0.000000 -0.517157
vertex 1.882843 0.000000 -0.517157
endloop
endfacet
facet normal 0.000000 0.000000 0.000000
outer loop
vertex 1.882843 0.000000 -0.517157
vertex 1.932588 0.000000 -0.577772
vertex 1.932588 0.000000 -0.577772
endloop
endfacet
facet normal 0.000000 0.000000 0.000000
outer loop
vertex 1.521965 0.000000 -1.192314
vertex 1.600000 0.000000 -1.200000
vertex 1.600000 0.000000 -1.200000
endloop
endfacet
facet normal 0.000000 0.000000 0.000000
outer loop
vertex 1.600000 0.000000 -1.200000
vertex 1.521965 0.000000 -1.192314
vertex 1.521965 0.000000 -1.192314
endloop
endfacet
facet normal 0.000000 0.000000 0.000000
outer loop
vertex 1.317157 0.000000 -0.517157
vertex 1.267412 0.000000 -0.577772
vertex 1.267412 0.000000 -0.577772
endloop
endfacet
facet normal 0.000000 0.000000 0.000000
outer loop
vertex 1.267412 0.000000 -0.577772
vertex 1.317157 0.000000 -0.517157
vertex 1.317157 0.000000 -0.517157
endloop
endfacet
facet normal 0.000000 0.000000 0.000000
outer loop
vertex 1.992314 0.000000 -0.721964
vertex 1.969552 0.000000 -0.646927
vertex 1.969552 0.000000 -0.646927
endloop
endfacet
facet normal 0.000000 0.000000 0.000000
outer loop
vertex 1.969552 0.000000 -0.646927
vertex 1.992314 0.000000 -0.721964
vertex 1.992314 0.000000 -0.721964
endloop
endfacet
facet normal 0.000000 0.000000 0.000000
outer loop
vertex 1.377772 0.000000 -1.132588
vertex 1.446927 0.000000 -1.169552
vertex 1.446927 0.000000 -1.169552
endloop
endfacet
facet normal 0.000000 0.000000 0.000000
outer loop
vertex 1.446927 0.000000 -1.169552
vertex 1.377772 0.000000 -1.132588
vertex 1.377772 0.000000 -1.132588
endloop
endfacet
facet normal 0.000000 0.000000 0.000000
outer loop
vertex 1.446926 0.000000 -0.430448
vertex 1.377772 0.000000 -0.467412
vertex 1.377772 0.000000 -0.467412
endloop
endfacet
facet normal 0.000000 0.000000 0.000000
outer loop
vertex 1.377772 0.000000 -0.467412
vertex 1.446926 0.000000 -0.430448
vertex 1.446926 0.000000 -0.430448
endloop
endfacet
facet normal 0.000000 0.000000 0.000000
outer loop
vertex 1.992314 0.000000 -0.878036
vertex 2.000000 0.000000 -0.800000
vertex 2.000000 0.000000 -0.800000
endloop
endfacet
facet normal 0.000000 0.000000 0.000000
outer loop
vertex 2.000000 0.000000 -0.800000
vertex 1.992314 0.000000 -0.878036
vertex 1.992314 0.000000 -0.878036
endloop
endfacet
facet normal 0.000000 0.000000 0.000000
outer loop
vertex 1.267412 0.000000 -1.022228
vertex 1.317158 0.000000 -1.082843
vertex 1.317158 0.000000 -1.082843
endloop
endfacet
facet normal 0.000000 0.000000 0.000000
outer loop
vertex 1.317158 0.000000 -1.082843
vertex 1.267412 0.000000 -1.022228
vertex 1.267412 0.000000 -1.022228
endloop
endfacet
facet normal 0.000000 0.000000 0.000000
outer loop
vertex 1.600000 0.000000 -0.400000
vertex 1.521964 0.000000 -0.407686
vertex 1.521964 0.000000 -0.407686
endloop
endfacet
facet normal 0.000000 0.000000 0.000000
outer loop
vertex 1.521964 0.000000 -0.407686
vertex 1.600000 0.000000 -0.400000
vertex 1.600000 0.000000 -0.400000
endloop
endfacet
facet normal 0.000000 0.000000 0.000000
outer loop
vertex 1.932588 0.000000 -1.022228
vertex 1.969552 0.000000 -0.953073
vertex 1.969552 0.000000 -0.953073
endloop
endfacet
facet normal 0.000000 0.000000 0.000000
outer loop
vertex 1.969552 0.000000 -0.953073
vertex 1.932588 0.000000 -1.022228
vertex 1.932588 0.000000 -1.022228
endloop
endfacet
facet normal 0.000000 0.000000 0.000000
outer loop
vertex 1.207686 0.000000 -0.878037
vertex 1.230448 0.000000 -0.953074
vertex 1.230448 0.000000 -0.953074
endloop
endfacet
facet normal 0.000000 0.000000 0.000000
outer loop
vertex 1.230448 0.000000 -0.953074
vertex 1.207686 0.000000 -0.878037
vertex 1.207686 0.000000 -0.878037
endloop
endfacet
facet normal 0.000000 0.000000 0.000000
outer loop
vertex 1.822228 0.000000 -1.132588
vertex 1.882843 0.000000 -1.082843
vertex 1.882843 0.000000 -1.082843
endloop
endfacet
facet normal 0.000000 0.000000 0.000000
outer loop
vertex 1.882843 0.000000 -1.082843
vertex 1.822228 0.000000 -1.132588
vertex 1.822228 0.000000 -1.132588
endloop
endfacet
facet normal 0.000000 0.000000 0.000000
outer loop
vertex 1.753073 0.000000 -0.430448
vertex 1.678036 0.000000 -0.407686
vertex 1.678036 0.000000 -0.407686
endloop
endfacet
facet normal 0.000000 0.000000 0.000000
outer loop
vertex 1.678036 0.000000 -0.407686
vertex 1.753073 0.000000 -0.430448
vertex 1.753073 0.000000 -0.430448
endloop
endfacet
facet normal 0.000000 0.000000 0.000000
outer loop
vertex 1.207686 0.000000 -0.721964
vertex 1.200000 0.000000 -0.800000
vertex 1.200000 0.000000 -0.800000
endloop
endfacet
facet normal 0.000000 0.000000 0.000000
outer loop
vertex 1.200000 0.000000 -0.800000
vertex 1.207686 0.000000 -0.721964
vertex 1.207686 0.000000 -0.721964
endloop
endfacet
facet normal 0.000000 0.000000 0.000000
outer loop
vertex 1.678036 0.000000 -1.192314
vertex 1.753073 0.000000 -1.169552
vertex 1.753073 0.000000 -1.169552
endloop
endfacet
facet normal 0.000000 0.000000 0.000000
outer loop
vertex 1.753073 0.000000 -1.169552
vertex 1.678036 0.000000 -1.192314
vertex 1.678036 0.000000 -1.192314
endloop
endfacet
facet normal 0.000000 0.000000 0.000000
outer loop
vertex 1.882843 0.000000 -0.517157
vertex 1.822228 0.000000 -0.467412
vertex 1.822228 0.000000 -0.467412
endloop
endfacet
facet normal 0.000000 0.000000 0.000000
outer loop
vertex 1.822228 0.000000 -0.467412
vertex 1.882843 0.000000 -0.517157
vertex 1.882843 0.000000 -0.517157
endloop
endfacet
facet normal 0.000000 0.000000 0.000000
outer loop
vertex 1.267412 0.000000 -0.577772
vertex 1.230448 0.000000 -0.646927
vertex 1.230448 0.000000 -0.646927
endloop
endfacet
facet normal 0.000000 0.000000 0.000000
outer loop
vertex 1.230448 0.000000 -0.646927
vertex 1.267412 0.000000 -0.577772
vertex 1.267412 0.000000 -0.577772
endloop
endfacet
facet normal 0.000000 0.000000 0.000000
outer loop
vertex 1.969552 0.000000 -0.646927
vertex 1.932588 0.000000 -0.577772
vertex 1.932588 0.000000 -0.577772
endloop
endfacet
facet normal 0.000000 0.000000 0.000000
outer loop
vertex 1.932588 0.000000 -0.577772
vertex 1.969552 0.000000 -0.646927
vertex 1.969552 0.000000 -0.646927
endloop
endfacet
facet normal 0.000000 0.000000 0.000000
outer loop
vertex 1.446927 0.000000 -1.169552
vertex 1.521965 0.000000 -1.192314
vertex 1.521965 0.000000 -1.192314
endloop
endfacet
facet normal 0.000000 0.000000 0.000000
outer loop
vertex 1.521965 0.000000 -1.192314
vertex 1.446927 0.000000 -1.169552
vertex 1.446927 0.000000 -1.169552
endloop
endfacet
facet normal 0.000000 0.000000 0.000000
outer loop
vertex 1.377772 0.000000 -0.467412
vertex 1.317157 0.000000 -0.517157
vertex 1.317157 0.000000 -0.517157
endloop
endfacet
facet normal 0.000000 0.000000 0.000000
outer loop
vertex 1.317157 0.000000 -0.517157
vertex 1.377772 0.000000 -0.467412
vertex 1.377772 0.000000 -0.467412
endloop
endfacet
facet normal 0.000000 0.000000 0.000000
outer loop
vertex 2.000000 0.000000 -0.800000
vertex 1.992314 0.000000 -0.721964
vertex 1.992314 0.000000 -0.721964
endloop
endfacet
facet normal 0.000000 0.000000 0.000000
outer loop
vertex 1.992314 0.000000 -0.721964
vertex 2.000000 0.000000 -0.800000
vertex 2.000000 0.000000 -0.800000
endloop
endfacet
facet normal 0.956941 0.000000 -0.290283
outer loop
vertex 1.230448 0.000000 -0.646927
vertex 1.207686 0.000000 -0.721964
vertex 1.207686 0.180000 -0.721964
endloop
endfacet
facet normal 0.956941 0.000000 -0.290283
outer loop
vertex 1.207686 0.180000 -0.721964
vertex 1.230448 0.180000 -0.646927
vertex 1.230448 0.000000 -0.646927
endloop
endfacet
facet normal 0.000000 0.000000 0.000000
outer loop
vertex 1.377772 0.000000 -0.467412
vertex 1.317157 0.000000 -0.517157
vertex 1.317157 0.000000 -0.517157
endloop
endfacet
facet normal 0.000000 0.000000 0.000000
outer loop
vertex 1.317157 0.000000 -0.517157
vertex 1.377772 0.000000 -0.467412
vertex 1.377772 0.000000 -0.467412
endloop
endfacet
facet normal 0.000000 0.000000 0.000000
outer loop
vertex 2.000000 0.000000 -0.800000
vertex 1.992314 0.000000 -0.721964
vertex 1.992314 0.000000 -0.721964
endloop
endfacet
facet normal 0.000000 0.000000 0.000000
outer loop
vertex 1.992314 0.000000 -0.721964
vertex 2.000000 0.000000 -0.800000
vertex 2.000000 0.000000 -0.800000
endloop
endfacet
facet normal 0.000000 0.000000 0.000000
outer loop
vertex 1.317158 0.000000 -1.082843
vertex 1.377772 0.000000 -1.132588
vertex 1.377772 0.000000 -1.132588
endloop
endfacet
facet normal 0.000000 0.000000 0.000000
outer loop
vertex 1.377772 0.000000 -1.132588
vertex 1.317158 0.000000 -1.082843
vertex 1.317158 0.000000 -1.082843
endloop
endfacet
facet normal 0.000000 0.000000 0.000000
outer loop
vertex 1.521964 0.000000 -0.407686
vertex 1.446926 0.000000 -0.430448
vertex 1.446926 0.000000 -0.430448
endloop
endfacet
facet normal 0.000000 0.000000 0.000000
outer loop
vertex 1.446926 0.000000 -0.430448
vertex 1.521964 0.000000 -0.407686
vertex 1.521964 0.000000 -0.407686
endloop
endfacet
facet normal 0.000000 0.000000 0.000000
outer loop
vertex 1.969552 0.000000 -0.953073
vertex 1.992314 0.000000 -0.878036
vertex 1.992314 0.000000 -0.878036
endloop
endfacet
facet normal 0.000000 0.000000 0.000000
outer loop
vertex 1.992314 0.000000 -0.878036
vertex 1.969552 0.000000 -0.953073
vertex 1.969552 0.000000 -0.953073
endloop
endfacet
facet normal 0.000000 0.000000 0.000000
outer loop
vertex 1.230448 0.000000 -0.953074
vertex 1.267412 0.000000 -1.022228
vertex 1.267412 0.000000 -1.022228
endloop
endfacet
facet normal 0.000000 0.000000 0.000000
outer loop
vertex 1.267412 0.000000 -1.022228
vertex 1.230448 0.000000 -0.953074
vertex 1.230448 0.000000 -0.953074
endloop
endfacet
facet normal 0.000000 0.000000 0.000000
outer loop
vertex 1.882843 0.000000 -1.082843
vertex 1.932588 0.000000 -1.022228
vertex 1.932588 0.000000 -1.022228
endloop
endfacet
facet normal 0.000000 0.000000 0.000000
outer loop
vertex 1.932588 0.000000 -1.022228
vertex 1.882843 0.000000 -1.082843
vertex 1.882843 0.000000 -1.082843
endloop
endfacet
facet normal 0.000000 0.000000 0.000000
outer loop
vertex 1.678036 0.000000 -0.407686
vertex 1.600000 0.000000 -0.400000
vertex 1.600000 0.000000 -0.400000
endloop
endfacet
facet normal 0.000000 0.000000 0.000000
outer loop
vertex 1.600000 0.000000 -0.400000
vertex 1.678036 0.000000 -0.407686
vertex 1.678036 0.000000 -0.407686
endloop
endfacet
facet normal 0.000000 0.000000 0.000000
outer loop
vertex 1.200000 0.000000 -0.800000
vertex 1.207686 0.000000 -0.878037
vertex 1.207686 0.000000 -0.878037
endloop
endfacet
facet normal 0.000000 0.000000 0.000000
outer loop
vertex 1.207686 0.000000 -0.878037
vertex 1.200000 0.000000 -0.800000
vertex 1.200000 0.000000 -0.800000
endloop
endfacet
facet normal 0.000000 0.000000 0.000000
outer loop
vertex 1.753073 0.000000 -1.169552
vertex 1.822228 0.000000 -1.132588
vertex 1.822228 0.000000 -1.132588
endloop
endfacet
facet normal 0.000000 0.000000 0.000000
outer loop
vertex 1.822228 0.000000 -1.132588
vertex 1.753073 0.000000 -1.169552
vertex 1.753073 0.000000 -1.169552
endloop
endfacet
facet normal 0.000000 0.000000 0.000000
outer loop
vertex 1.822228 0.000000 -0.467412
vertex 1.753073 0.000000 -0.430448
vertex 1.753073 0.000000 -0.430448
endloop
endfacet
facet normal 0.000000 0.000000 0.000000
outer loop
vertex 1.753073 0.000000 -0.430448
vertex 1.822228 0.000000 -0.467412
vertex 1.822228 0.000000 -0.467412
endloop
endfacet
facet normal 0.000000 0.000000 0.000000
outer loop
vertex 1.230448 0.000000 -0.646927
vertex 1.207686 0.000000 -0.721964
vertex 1.207686 0.000000 -0.721964
endloop
endfacet
facet normal 0.000000 0.000000 0.000000
outer loop
vertex 1.207686 0.000000 -0.721964
vertex 1.230448 0.000000 -0.646927
vertex 1.230448 0.000000 -0.646927
endloop
endfacet
facet normal 0.000000 0.000000 0.000000
outer loop
vertex 1.600000 0.000000 -1.200000
vertex 1.678036 0.000000 -1.192314
vertex 1.678036 0.000000 -1.192314
endloop
endfacet
facet normal 0.000000 0.000000 0.000000
outer loop
vertex 1.678036 0.000000 -1.192314
vertex 1.600000 0.000000 -1.200000
vertex 1.600000 0.000000 -1.200000
endloop
endfacet
facet normal 0.000000 0.000000 0.000000
outer loop
vertex 1.932588 0.000000 -0.577772
vertex 1.882843 0.000000 -0.517157
vertex 1.882843 0.000000 -0.517157
endloop
endfacet
facet normal 0.000000 0.000000 0.000000
outer loop
vertex 1.882843 0.000000 -0.517157
vertex 1.932588 0.000000 -0.577772
vertex 1.932588 0.000000 -0.577772
endloop
endfacet
facet normal 0.000000 0.000000 0.000000
outer loop
vertex 1.521965 0.000000 -1.192314
vertex 1.600000 0.000000 -1.200000
vertex 1.600000 0.000000 -1.200000
endloop
endfacet
facet normal 0.000000 0.000000 0.000000
outer loop
vertex 1.600000 0.000000 -1.200000
vertex 1.521965 0.000000 -1.192314
vertex 1.521965 0.000000 -1.192314
endloop
endfacet
facet normal 0.000000 0.000000 0.000000
outer loop
vertex 1.317157 0.000000 -0.517157
vertex 1.267412 0.000000 -0.577772
vertex 1.267412 0.000000 -0.577772
endloop
endfacet
facet normal 0.000000 0.000000 0.000000
outer loop
vertex 1.267412 0.000000 -0.577772
vertex 1.317157 0.000000 -0.517157
vertex 1.317157 0.000000 -0.517157
endloop
endfacet
facet normal 0.000000 0.000000 0.000000
outer loop
vertex 1.992314 0.000000 -0.721964
vertex 1.969552 0.000000 -0.646927
vertex 1.969552 0.000000 -0.646927
endloop
endfacet
facet normal 0.000000 0.000000 0.000000
outer loop
vertex 1.969552 0.000000 -0.646927
vertex 1.992314 0.000000 -0.721964
vertex 1.992314 0.000000 -0.721964
endloop
endfacet
facet normal 0.000000 0.000000 0.000000
outer loop
vertex 1.377772 0.000000 -1.132588
vertex 1.446927 0.000000 -1.169552
vertex 1.446927 0.000000 -1.169552
endloop
endfacet
facet normal 0.000000 0.000000 0.000000
outer loop
vertex 1.446927 0.000000 -1.169552
vertex 1.377772 0.000000 -1.132588
vertex 1.377772 0.000000 -1.132588
endloop
endfacet
facet normal 0.000000 0.000000 0.000000
outer loop
vertex 1.446926 0.000000 -0.430448
vertex 1.377772 0.000000 -0.467412
vertex 1.377772 0.000000 -0.467412
endloop
endfacet
facet normal 0.000000 0.000000 0.000000
outer loop
vertex 1.377772 0.000000 -0.467412
vertex 1.446926 0.000000 -0.430448
vertex 1.446926 0.000000 -0.430448
endloop
endfacet
facet normal 0.000000 0.000000 0.000000
outer loop
vertex 1.992314 0.000000 -0.878036
vertex 2.000000 0.000000 -0.800000
vertex 2.000000 0.000000 -0.800000
endloop
endfacet
facet normal 0.000000 0.000000 0.000000
outer loop
vertex 2.000000 0.000000 -0.800000
vertex 1.992314 0.000000 -0.878036
vertex 1.992314 0.000000 -0.878036
endloop
endfacet
facet normal 0.000000 0.000000 0.000000
outer loop
vertex 1.267412 0.000000 -1.022228
vertex 1.317158 0.000000 -1.082843
vertex 1.317158 0.000000 -1.082843
endloop
endfacet
facet normal 0.000000 0.000000 0.000000
outer loop
vertex 1.317158 0.000000 -1.082843
vertex 1.267412 0.000000 -1.022228
vertex 1.267412 0.000000 -1.022228
endloop
endfacet
facet normal 0.000000 0.000000 0.000000
outer loop
vertex 1.600000 0.000000 -0.400000
vertex 1.521964 0.000000 -0.407686
vertex 1.521964 0.000000 -0.407686
endloop
endfacet
facet normal 0.000000 0.000000 0.000000
outer loop
vertex 1.521964 0.000000 -0.407686
vertex 1.600000 0.000000 -0.400000
vertex 1.600000 0.000000 -0.400000
endloop
endfacet
facet normal 0.000000 0.000000 0.000000
outer loop
vertex 1.932588 0.000000 -1.022228
vertex 1.969552 0.000000 -0.953073
vertex 1.969552 0.000000 -0.953073
endloop
endfacet
facet normal 0.000000 0.000000 0.000000
outer loop
vertex 1.969552 0.000000 -0.953073
vertex 1.932588 0.000000 -1.022228
vertex 1.932588 0.000000 -1.022228
endloop
endfacet
facet normal 0.000000 0.000000 0.000000
outer loop
vertex 1.207686 0.000000 -0.878037
vertex 1.230448 0.000000 -0.953074
vertex 1.230448 0.000000 -0.953074
endloop
endfacet
facet normal 0.000000 0.000000 0.000000
outer loop
vertex 1.230448 0.000000 -0.953074
vertex 1.207686 0.000000 -0.878037
vertex 1.207686 0.000000 -0.878037
endloop
endfacet
facet normal 0.000000 0.000000 0.000000
outer loop
vertex 1.822228 0.000000 -1.132588
vertex 1.882843 0.000000 -1.082843
vertex 1.882843 0.000000 -1.082843
endloop
endfacet
facet normal 0.000000 0.000000 0.000000
outer loop
vertex 1.882843 0.000000 -1.082843
vertex 1.822228 0.000000 -1.132588
vertex 1.822228 0.000000 -1.132588
endloop
endfacet
facet normal 0.000000 0.000000 0.000000
outer loop
vertex 1.753073 0.000000 -0.430448
vertex 1.678036 0.000000 -0.407686
vertex 1.678036 0.000000 -0.407686
endloop
endfacet
facet normal 0.000000 0.000000 0.000000
outer loop
vertex 1.678036 0.000000 -0.407686
vertex 1.753073 0.000000 -0.430448
vertex 1.753073 0.000000 -0.430448
endloop
endfacet
facet normal 0.000000 0.000000 0.000000
outer loop
vertex 1.207686 0.000000 -0.721964
vertex 1.200000 0.000000 -0.800000
vertex 1.200000 0.000000 -0.800000
endloop
endfacet
facet normal 0.000000 0.000000 0.000000
outer loop
vertex 1.200000 0.000000 -0.800000
vertex 1.207686 0.000000 -0.721964
vertex 1.207686 0.000000 -0.721964
endloop
endfacet
facet normal 0.000000 0.000000 0.000000
outer loop
vertex 1.678036 0.000000 -1.192314
vertex 1.753073 0.000000 -1.169552
vertex 1.753073 0.000000 -1.169552
endloop
endfacet
facet normal 0.000000 0.000000 0.000000
outer loop
vertex 1.753073 0.000000 -1.169552
vertex 1.678036 0.000000 -1.192314
vertex 1.678036 0.000000 -1.192314
endloop
endfacet
facet normal 0.000000 0.000000 0.000000
outer loop
vertex 1.882843 0.000000 -0.517157
vertex 1.822228 0.000000 -0.467412
vertex 1.822228 0.000000 -0.467412
endloop
endfacet
facet normal 0.000000 0.000000 0.000000
outer loop
vertex 1.822228 0.000000 -0.467412
vertex 1.882843 0.000000 -0.517157
vertex 1.882843 0.000000 -0.517157
endloop
endfacet
facet normal 0.000000 0.000000 0.000000
outer loop
vertex 1.267412 0.000000 -0.577772
vertex 1.230448 0.000000 -0.646927
vertex 1.230448 0.000000 -0.646927
endloop
endfacet
facet normal 0.000000 0.000000 0.000000
outer loop
vertex 1.230448 0.000000 -0.646927
vertex 1.267412 0.000000 -0.577772
vertex 1.267412 0.000000 -0.577772
endloop
endfacet
facet normal 0.000000 0.000000 0.000000
outer loop
vertex 1.969552 0.000000 -0.646927
vertex 1.932588 0.000000 -0.577772
vertex 1.932588 0.000000 -0.577772
endloop
endfacet
facet normal 0.000000 0.000000 0.000000
outer loop
vertex 1.932588 0.000000 -0.577772
vertex 1.969552 0.000000 -0.646927
vertex 1.969552 0.000000 -0.646927
endloop
endfacet
facet normal 0.098018 0.000000 -0.995185
outer loop
vertex 1.600000 0.000000 -1.060000
vertex 1.600000 0.180000 -1.060000
vertex 1.650723 0.180000 -1.055004
endloop
endfacet
facet normal 0.098015 0.000000 -0.995185
outer loop
vertex 1.650723 0.180000 -1.055004
vertex 1.650723 0.000000 -1.055004
vertex 1.600000 0.000000 -1.060000
endloop
endfacet
facet normal 0.290282 0.000000 -0.956941
outer loop
vertex 1.650723 0.000000 -1.055004
vertex 1.650723 0.180000 -1.055004
vertex 1.699498 0.180000 -1.040209
endloop
endfacet
facet normal 0.290285 0.000000 -0.956940
outer loop
vertex 1.699498 0.180000 -1.040209
vertex 1.699498 0.000000 -1.040209
vertex 1.650723 0.000000 -1.055004
endloop
endfacet
facet normal 0.471397 0.000000 -0.881921
outer loop
vertex 1.699498 0.000000 -1.040209
vertex 1.699498 0.180000 -1.040209
vertex 1.744448 0.180000 -1.016182
endloop
endfacet
facet normal 0.471397 0.000000 -0.881921
outer loop
vertex 1.744448 0.180000 -1.016182
vertex 1.744448 0.000000 -1.016182
vertex 1.699498 0.000000 -1.040209
endloop
endfacet
facet normal 0.634394 0.000000 -0.773010
outer loop
vertex 1.744448 0.000000 -1.016182
vertex 1.744448 0.180000 -1.016182
vertex 1.783848 0.180000 -0.983848
endloop
endfacet
facet normal 0.634394 0.000000 -0.773010
outer loop
vertex 1.783848 0.180000 -0.983848
vertex 1.783848 0.000000 -0.983848
vertex 1.744448 0.000000 -1.016182
endloop
endfacet
facet normal 0.773010 0.000000 -0.634393
outer loop
vertex 1.783848 0.000000 -0.983848
vertex 1.783848 0.180000 -0.983848
vertex 1.816182 0.180000 -0.944448
endloop
endfacet
facet normal 0.773010 0.000000 -0.634393
outer loop
vertex 1.816182 0.180000 -0.944448
vertex 1.816182 0.000000 -0.944448
vertex 1.783848 0.000000 -0.983848
endloop
endfacet
facet normal 0.881922 0.000000 -0.471396
outer loop
vertex 1.816182 0.000000 -0.944448
vertex 1.816182 0.180000 -0.944448
vertex 1.840209 0.180000 -0.899498
endloop
endfacet
facet normal 0.881922 0.000000 -0.471396
outer loop
vertex 1.840209 0.180000 -0.899498
vertex 1.840209 0.000000 -0.899498
vertex 1.816182 0.000000 -0.944448
endloop
endfacet
facet normal 0.956940 0.000000 -0.290286
outer loop
vertex 1.840209 0.000000 -0.899498
vertex 1.840209 0.180000 -0.899498
vertex 1.855004 0.180000 -0.850724
endloop
endfacet
facet normal 0.956940 0.000000 -0.290285
outer loop
vertex 1.855004 0.180000 -0.850724
vertex 1.855004 0.000000 -0.850724
vertex 1.840209 0.000000 -0.899498
endloop
endfacet
facet normal 0.995185 0.000000 -0.098017
outer loop
vertex 1.855004 0.000000 -0.850724
vertex 1.855004 0.180000 -0.850724
vertex 1.860000 0.180000 -0.800000
endloop
endfacet
facet normal 0.995185 0.000000 -0.098017
outer loop
vertex 1.860000 0.180000 -0.800000
vertex 1.860000 0.000000 -0.800000
vertex 1.855004 0.000000 -0.850724
endloop
endfacet
facet normal 0.995185 0.000000 0.098017
outer loop
vertex 1.860000 0.000000 -0.800000
vertex 1.860000 0.180000 -0.800000
vertex 1.855004 0.180000 -0.749277
endloop
endfacet
facet normal 0.995185 0.000000 0.098017
outer loop
vertex 1.855004 0.180000 -0.749277
vertex 1.855004 0.000000 -0.749277
vertex 1.860000 0.000000 -0.800000
endloop
endfacet
facet normal 0.956940 0.000000 0.290287
outer loop
vertex 1.855004 0.000000 -0.749277
vertex 1.855004 0.180000 -0.749277
vertex 1.840209 0.180000 -0.700502
endloop
endfacet
facet normal 0.956940 0.000000 0.290285
outer loop
vertex 1.840209 0.180000 -0.700502
vertex 1.840209 0.000000 -0.700502
vertex 1.855004 0.000000 -0.749277
endloop
endfacet
facet normal 0.881922 0.000000 0.471395
outer loop
vertex 1.840209 0.000000 -0.700502
vertex 1.840209 0.180000 -0.700502
vertex 1.816182 0.180000 -0.655552
endloop
endfacet
facet normal 0.881922 0.000000 0.471395
outer loop
vertex 1.816182 0.180000 -0.655552
vertex 1.816182 0.000000 -0.655552
vertex 1.840209 0.000000 -0.700502
endloop
endfacet
facet normal 0.773011 0.000000 0.634392
outer loop
vertex 1.816182 0.000000 -0.655552
vertex 1.816182 0.180000 -0.655552
vertex 1.783848 0.180000 -0.616152
endloop
endfacet
facet normal 0.773010 0.000000 0.634393
outer loop
vertex 1.783848 0.180000 -0.616152
vertex 1.783848 0.000000 -0.616152
vertex 1.816182 0.000000 -0.655552
endloop
endfacet
facet normal 0.634393 0.000000 0.773011
outer loop
vertex 1.783848 0.000000 -0.616152
vertex 1.783848 0.180000 -0.616152
vertex 1.744448 0.180000 -0.583818
endloop
endfacet
facet normal 0.634395 0.000000 0.773009
outer loop
vertex 1.744448 0.180000 -0.583818
vertex 1.744448 0.000000 -0.583818
vertex 1.783848 0.000000 -0.616152
endloop
endfacet
facet normal 0.471396 0.000000 0.881922
outer loop
vertex 1.744448 0.000000 -0.583818
vertex 1.744448 0.180000 -0.583818
vertex 1.699498 0.180000 -0.559791
endloop
endfacet
facet normal 0.471397 0.000000 0.881921
outer loop
vertex 1.699498 0.180000 -0.559791
vertex 1.699498 0.000000 -0.559791
vertex 1.744448 0.000000 -0.583818
endloop
endfacet
facet normal 0.290285 0.000000 0.956940
outer loop
vertex 1.699498 0.000000 -0.559791
vertex 1.699498 0.180000 -0.559791
vertex 1.650723 0.180000 -0.544996
endloop
endfacet
facet normal 0.290284 0.000000 0.956941
outer loop
vertex 1.650723 0.180000 -0.544996
vertex 1.650723 0.000000 -0.544996
vertex 1.699498 0.000000 -0.559791
endloop
endfacet
facet normal 0.098016 0.000000 0.995185
outer loop
vertex 1.650723 0.000000 -0.544996
vertex 1.650723 0.180000 -0.544996
vertex 1.600000 0.180000 -0.540000
endloop
endfacet
facet normal 0.098018 0.000000 0.995185
outer loop
vertex 1.600000 0.180000 -0.540000
vertex 1.600000 0.000000 -0.540000
vertex 1.650723 0.000000 -0.544996
endloop
endfacet
facet normal -0.098020 0.000000 0.995184
outer loop
vertex 1.600000 0.000000 -0.540000
vertex 1.600000 0.180000 -0.540000
vertex 1.549276 0.180000 -0.544996
endloop
endfacet
facet normal -0.098018 0.000000 0.995185
outer loop
vertex 1.549276 0.180000 -0.544996
vertex 1.549276 0.000000 -0.544996
vertex 1.600000 0.000000 -0.540000
endloop
endfacet
facet normal -0.290285 0.000000 0.956940
outer loop
vertex 1.549276 0.000000 -0.544996
vertex 1.549276 0.180000 -0.544996
vertex 1.500502 0.180000 -0.559791
endloop
endfacet
facet normal -0.290284 0.000000 0.956941
outer loop
vertex 1.500502 0.180000 -0.559791
vertex 1.500502 0.000000 -0.559791
vertex 1.549276 0.000000 -0.544996
endloop
endfacet
facet normal -0.471397 0.000000 0.881921
outer loop
vertex 1.500502 0.000000 -0.559791
vertex 1.500502 0.180000 -0.559791
vertex 1.455552 0.180000 -0.583818
endloop
endfacet
facet normal -0.471397 0.000000 0.881921
outer loop
vertex 1.455552 0.180000 -0.583818
vertex 1.455552 0.000000 -0.583818
vertex 1.500502 0.000000 -0.559791
endloop
endfacet
facet normal -0.634393 0.000000 0.773011
outer loop
vertex 1.455552 0.000000 -0.583818
vertex 1.455552 0.180000 -0.583818
vertex 1.416152 0.180000 -0.616152
endloop
endfacet
facet normal -0.634394 0.000000 0.773010
outer loop
vertex 1.416152 0.180000 -0.616152
vertex 1.416152 0.000000 -0.616152
vertex 1.455552 0.000000 -0.583818
endloop
endfacet
facet normal -0.773010 0.000000 0.634393
outer loop
vertex 1.416152 0.000000 -0.616152
vertex 1.416152 0.180000 -0.616152
vertex 1.383818 0.180000 -0.655552
endloop
endfacet
facet normal -0.773011 0.000000 0.634392
outer loop
vertex 1.383818 0.180000 -0.655552
vertex 1.383818 0.000000 -0.655552
vertex 1.416152 0.000000 -0.616152
endloop
endfacet
facet normal -0.881922 0.000000 0.471395
outer loop
vertex 1.383818 0.000000 -0.655552
vertex 1.383818 0.180000 -0.655552
vertex 1.359791 0.180000 -0.700503
endloop
endfacet
facet normal -0.881922 0.000000 0.471396
outer loop
vertex 1.359791 0.180000 -0.700503
vertex 1.359791 0.000000 -0.700503
vertex 1.383818 0.000000 -0.655552
endloop
endfacet
facet normal -0.956941 0.000000 0.290283
outer loop
vertex 1.359791 0.000000 -0.700503
vertex 1.359791 0.180000 -0.700503
vertex 1.344996 0.180000 -0.749277
endloop
endfacet
facet normal -0.956941 0.000000 0.290283
outer loop
vertex 1.344996 0.180000 -0.749277
vertex 1.344996 0.000000 -0.749277
vertex 1.359791 0.000000 -0.700503
endloop
endfacet
facet normal -0.995185 0.000000 0.098017
outer loop
vertex 1.344996 0.000000 -0.749277
vertex 1.344996 0.180000 -0.749277
vertex 1.340000 0.180000 -0.800000
endloop
endfacet
facet normal -0.995185 0.000000 0.098017
outer loop
vertex 1.340000 0.180000 -0.800000
vertex 1.340000 0.000000 -0.800000
vertex 1.344996 0.000000 -0.749277
endloop
endfacet
facet normal -0.995184 0.000000 -0.098020
outer loop
vertex 1.340000 0.000000 -0.800000
vertex 1.340000 0.180000 -0.800000
vertex 1.344996 0.180000 -0.850724
endloop
endfacet
facet normal -0.995185 0.000000 -0.098019
outer loop
vertex 1.344996 0.180000 -0.850724
vertex 1.344996 0.000000 -0.850724
vertex 1.340000 0.000000 -0.800000
endloop
endfacet
facet normal -0.956940 0.000000 -0.290285
outer loop
vertex 1.344996 0.000000 -0.850724
vertex 1.344996 0.180000 -0.850724
vertex 1.359792 0.180000 -0.899498
endloop
endfacet
facet normal -0.956940 0.000000 -0.290286
outer loop
vertex 1.359792 0.180000 -0.899498
vertex 1.359792 0.000000 -0.899498
vertex 1.344996 0.000000 -0.850724
endloop
endfacet
facet normal -0.881921 0.000000 -0.471398
outer loop
vertex 1.359792 0.000000 -0.899498
vertex 1.359792 0.180000 -0.899498
vertex 1.383818 0.180000 -0.944449
endloop
endfacet
facet normal -0.881921 0.000000 -0.471397
outer loop
vertex 1.383818 0.180000 -0.944449
vertex 1.383818 0.000000 -0.944449
vertex 1.359792 0.000000 -0.899498
endloop
endfacet
facet normal -0.773010 0.000000 -0.634393
outer loop
vertex 1.383818 0.000000 -0.944449
vertex 1.383818 0.180000 -0.944449
vertex 1.416152 0.180000 -0.983848
endloop
endfacet
facet normal -0.773009 0.000000 -0.634395
outer loop
vertex 1.416152 0.180000 -0.983848
vertex 1.416152 0.000000 -0.983848
vertex 1.383818 0.000000 -0.944449
endloop
endfacet
facet normal -0.634392 0.000000 -0.773011
outer loop
vertex 1.416152 0.000000 -0.983848
vertex 1.416152 0.180000 -0.983848
vertex 1.455552 0.180000 -1.016182
endloop
endfacet
facet normal -0.634392 0.000000 -0.773011
outer loop
vertex 1.455552 0.180000 -1.016182
vertex 1.455552 0.000000 -1.016182
vertex 1.416152 0.000000 -0.983848
endloop
endfacet
facet normal -0.471397 0.000000 -0.881921
outer loop
vertex 1.455552 0.000000 -1.016182
vertex 1.455552 0.180000 -1.016182
vertex 1.500503 0.180000 -1.040209
endloop
endfacet
facet normal -0.471392 0.000000 -0.881924
outer loop
vertex 1.500503 0.180000 -1.040209
vertex 1.500503 0.000000 -1.040209
vertex 1.455552 0.000000 -1.016182
endloop
endfacet
facet normal 0.000000 1.000000 0.000000
outer loop
vertex 1.650723 0.180000 -1.055004
vertex 1.744448 0.180000 -1.016182
vertex 1.699498 0.180000 -1.040209
endloop
endfacet
facet normal 0.000000 1.000000 0.000002
outer loop
vertex 1.816182 0.180000 -0.944448
vertex 1.783848 0.180000 -0.983848
vertex 1.744448 0.180000 -1.016182
endloop
endfacet
facet normal 0.000000 1.000000 0.000000
outer loop
vertex 1.855004 0.180000 -0.850724
vertex 1.840209 0.180000 -0.899498
vertex 1.816182 0.180000 -0.944448
endloop
endfacet
facet normal 0.000000 1.000000 0.000000
outer loop
vertex 1.855004 0.180000 -0.749277
vertex 1.860000 0.180000 -0.800000
vertex 1.855004 0.180000 -0.850724
endloop
endfacet
facet normal 0.000000 1.000000 0.000001
outer loop
vertex 1.816182 0.180000 -0.655552
vertex 1.840209 0.180000 -0.700502
vertex 1.855004 0.180000 -0.749277
endloop
endfacet
facet normal 0.000000 1.000000 -0.000002
outer loop
vertex 1.744448 0.180000 -0.583818
vertex 1.783848 0.180000 -0.616152
vertex 1.816182 0.180000 -0.655552
endloop
endfacet
facet normal 0.000000 1.000000 0.000000
outer loop
vertex 1.650723 0.180000 -0.544996
vertex 1.699498 0.180000 -0.559791
vertex 1.744448 0.180000 -0.583818
endloop
endfacet
facet normal 0.000000 1.000000 0.000004
outer loop
vertex 1.549276 0.180000 -0.544996
vertex 1.600000 0.180000 -0.540000
vertex 1.650723 0.180000 -0.544996
endloop
endfacet
facet normal 0.000000 1.000000 0.000000
outer loop
vertex 1.455552 0.180000 -0.583818
vertex 1.500502 0.180000 -0.559791
vertex 1.549276 0.180000 -0.544996
endloop
endfacet
facet normal 0.000000 1.000000 -0.000002
outer loop
vertex 1.383818 0.180000 -0.655552
vertex 1.416152 0.180000 -0.616152
vertex 1.455552 0.180000 -0.583818
endloop
endfacet
facet normal 0.000000 1.000000 0.000000
outer loop
vertex 1.344996 0.180000 -0.749277
vertex 1.359791 0.180000 -0.700503
vertex 1.383818 0.180000 -0.655552
endloop
endfacet
facet normal 0.000000 1.000000 -0.000000
outer loop
vertex 1.344996 0.180000 -0.850724
vertex 1.340000 0.180000 -0.800000
vertex 1.344996 0.180000 -0.749277
endloop
endfacet
facet normal 0.000000 1.000000 -0.000001
outer loop
vertex 1.383818 0.180000 -0.944449
vertex 1.359792 0.180000 -0.899498
vertex 1.344996 0.180000 -0.850724
endloop
endfacet
facet normal 0.000000 1.000000 0.000002
outer loop
vertex 1.455552 0.180000 -1.016182
vertex 1.416152 0.180000 -0.983848
vertex 1.383818 0.180000 -0.944449
endloop
endfacet
facet normal 0.000000 1.000000 0.000000
outer loop
vertex 1.549277 0.180000 -1.055004
vertex 1.500503 0.180000 -1.040209
vertex 1.455552 0.180000 -1.016182
endloop
endfacet
facet normal 0.000000 1.000000 -0.000004
outer loop
vertex 1.650723 0.180000 -1.055004
vertex 1.600000 0.180000 -1.060000
vertex 1.549277 0.180000 -1.055004
endloop
endfacet
facet normal 0.000000 1.000000 -0.000000
outer loop
vertex 1.650723 0.180000 -1.055004
vertex 1.816182 0.180000 -0.944448
vertex 1.744448 0.180000 -1.016182
endloop
endfacet
facet normal 0.000000 1.000000 0.000000
outer loop
vertex 1.855004 0.180000 -0.749277
vertex 1.855004 0.180000 -0.850724
vertex 1.816182 0.180000 -0.944448
endloop
endfacet
facet normal 0.000000 1.000000 0.000000
outer loop
vertex 1.744448 0.180000 -0.583818
vertex 1.816182 0.180000 -0.655552
vertex 1.855004 0.180000 -0.749277
endloop
endfacet
facet normal 0.000000 1.000000 0.000001
outer loop
vertex 1.549276 0.180000 -0.544996
vertex 1.650723 0.180000 -0.544996
vertex 1.744448 0.180000 -0.583818
endloop
endfacet
facet normal 0.000000 1.000000 0.000000
outer loop
vertex 1.383818 0.180000 -0.655552
vertex 1.455552 0.180000 -0.583818
vertex 1.549276 0.180000 -0.544996
endloop
endfacet
facet normal 0.000000 1.000000 -0.000000
outer loop
vertex 1.344996 0.180000 -0.850724
vertex 1.344996 0.180000 -0.749277
vertex 1.383818 0.180000 -0.655552
endloop
endfacet
facet normal 0.000000 1.000000 -0.000000
outer loop
vertex 1.455552 0.180000 -1.016182
vertex 1.383818 0.180000 -0.944449
vertex 1.344996 0.180000 -0.850724
endloop
endfacet
facet normal 0.000000 1.000000 -0.000001
outer loop
vertex 1.650723 0.180000 -1.055004
vertex 1.549277 0.180000 -1.055004
vertex 1.455552 0.180000 -1.016182
endloop
endfacet
facet normal 0.000000 1.000000 0.000000
outer loop
vertex 1.650723 0.180000 -1.055004
vertex 1.855004 0.180000 -0.749277
vertex 1.816182 0.180000 -0.944448
endloop
endfacet
facet normal 0.000000 1.000000 -0.000000
outer loop
vertex 1.549276 0.180000 -0.544996
vertex 1.744448 0.180000 -0.583818
vertex 1.855004 0.180000 -0.749277
endloop
endfacet
facet normal 0.000000 1.000000 -0.000000
outer loop
vertex 1.344996 0.180000 -0.850724
vertex 1.383818 0.180000 -0.655552
vertex 1.549276 0.180000 -0.544996
endloop
endfacet
facet normal 0.000000 1.000000 0.000000
outer loop
vertex 1.650723 0.180000 -1.055004
vertex 1.455552 0.180000 -1.016182
vertex 1.344996 0.180000 -0.850724
endloop
endfacet
facet normal 0.000000 1.000000 0.000000
outer loop
vertex 1.650723 0.180000 -1.055004
vertex 1.549276 0.180000 -0.544996
vertex 1.855004 0.180000 -0.749277
endloop
endfacet
facet normal 0.000000 1.000000 0.000000
outer loop
vertex 1.650723 0.180000 -1.055004
vertex 1.344996 0.180000 -0.850724
vertex 1.549276 0.180000 -0.544996
endloop
endfacet
facet normal -0.098012 0.000000 -0.995185
outer loop
vertex 1.549277 0.000000 -1.055004
vertex 1.549277 0.180000 -1.055004
vertex 1.600000 0.180000 -1.060000
endloop
endfacet
facet normal -0.098019 0.000000 -0.995185
outer loop
vertex 1.600000 0.180000 -1.060000
vertex 1.600000 0.000000 -1.060000
vertex 1.549277 0.000000 -1.055004
endloop
endfacet
facet normal -0.290282 0.000000 -0.956941
outer loop
vertex 1.500503 0.000000 -1.040209
vertex 1.500503 0.180000 -1.040209
vertex 1.549277 0.180000 -1.055004
endloop
endfacet
facet normal -0.290285 0.000000 -0.956940
outer loop
vertex 1.549277 0.180000 -1.055004
vertex 1.549277 0.000000 -1.055004
vertex 1.500503 0.000000 -1.040209
endloop
endfacet
facet normal 0.000000 1.000000 0.000000
outer loop
vertex 1.600000 0.000000 -1.200000
vertex 1.753073 0.000000 -1.169552
vertex 1.678036 0.000000 -1.192314
endloop
endfacet
facet normal 0.000000 1.000000 0.000000
outer loop
vertex 1.882843 0.000000 -1.082843
vertex 1.822228 0.000000 -1.132588
vertex 1.753073 0.000000 -1.169552
endloop
endfacet
facet normal 0.000000 1.000000 0.000000
outer loop
vertex 1.969552 0.000000 -0.953073
vertex 1.932588 0.000000 -1.022228
vertex 1.882843 0.000000 -1.082843
endloop
endfacet
facet normal 0.000000 1.000000 0.000000
outer loop
vertex 2.000000 0.000000 -0.800000
vertex 1.992314 0.000000 -0.878036
vertex 1.969552 0.000000 -0.953073
endloop
endfacet
facet normal 0.000000 1.000000 0.000000
outer loop
vertex 1.855004 0.000000 -0.850724
vertex 1.860000 0.000000 -0.800000
vertex 2.000000 0.000000 -0.800000
endloop
endfacet
facet normal 0.000000 1.000000 0.000000
outer loop
vertex 1.992314 0.000000 -0.721964
vertex 1.855004 0.000000 -0.749277
vertex 1.840209 0.000000 -0.700502
endloop
endfacet
facet normal 0.000000 1.000000 0.000000
outer loop
vertex 1.840209 0.000000 -0.899498
vertex 1.855004 0.000000 -0.850724
vertex 2.000000 0.000000 -0.800000
endloop
endfacet
facet normal 0.000000 1.000000 0.000000
outer loop
vertex 1.992314 0.000000 -0.721964
vertex 1.840209 0.000000 -0.700502
vertex 1.816182 0.000000 -0.655552
endloop
endfacet
facet normal 0.000000 1.000000 0.000000
outer loop
vertex 1.816182 0.000000 -0.944448
vertex 1.840209 0.000000 -0.899498
vertex 2.000000 0.000000 -0.800000
endloop
endfacet
facet normal 0.000000 1.000000 0.000000
outer loop
vertex 1.992314 0.000000 -0.721964
vertex 1.816182 0.000000 -0.655552
vertex 1.783848 0.000000 -0.616152
endloop
endfacet
facet normal 0.000000 1.000000 0.000000
outer loop
vertex 1.783848 0.000000 -0.983848
vertex 1.816182 0.000000 -0.944448
vertex 2.000000 0.000000 -0.800000
endloop
endfacet
facet normal 0.000000 1.000000 0.000000
outer loop
vertex 1.992314 0.000000 -0.721964
vertex 1.783848 0.000000 -0.616152
vertex 1.744448 0.000000 -0.583818
endloop
endfacet
facet normal 0.000000 1.000000 0.000000
outer loop
vertex 1.783848 0.000000 -0.983848
vertex 2.000000 0.000000 -0.800000
vertex 1.969552 0.000000 -0.953073
endloop
endfacet
facet normal 0.000000 1.000000 0.000000
outer loop
vertex 1.969552 0.000000 -0.646927
vertex 1.992314 0.000000 -0.721964
vertex 1.744448 0.000000 -0.583818
endloop
endfacet
facet normal 0.000000 1.000000 0.000000
outer loop
vertex 1.744448 0.000000 -1.016182
vertex 1.783848 0.000000 -0.983848
vertex 1.969552 0.000000 -0.953073
endloop
endfacet
facet normal 0.000000 1.000000 0.000000
outer loop
vertex 1.969552 0.000000 -0.646927
vertex 1.744448 0.000000 -0.583818
vertex 1.699498 0.000000 -0.559791
endloop
endfacet
facet normal 0.000000 1.000000 0.000000
outer loop
vertex 1.699498 0.000000 -1.040209
vertex 1.744448 0.000000 -1.016182
vertex 1.969552 0.000000 -0.953073
endloop
endfacet
facet normal 0.000000 1.000000 0.000000
outer loop
vertex 1.932588 0.000000 -0.577772
vertex 1.969552 0.000000 -0.646927
vertex 1.699498 0.000000 -0.559791
endloop
endfacet
facet normal 0.000000 1.000000 0.000000
outer loop
vertex 1.699498 0.000000 -1.040209
vertex 1.969552 0.000000 -0.953073
vertex 1.882843 0.000000 -1.082843
endloop
endfacet
facet normal 0.000000 1.000000 0.000000
outer loop
vertex 1.932588 0.000000 -0.577772
vertex 1.699498 0.000000 -0.559791
vertex 1.650723 0.000000 -0.544996
endloop
endfacet
facet normal 0.000000 1.000000 0.000000
outer loop
vertex 1.650723 0.000000 -1.055004
vertex 1.699498 0.000000 -1.040209
vertex 1.882843 0.000000 -1.082843
endloop
endfacet
facet normal 0.000000 1.000000 0.000000
outer loop
vertex 1.882843 0.000000 -0.517157
vertex 1.932588 0.000000 -0.577772
vertex 1.650723 0.000000 -0.544996
endloop
endfacet
facet normal 0.000000 1.000000 0.000000
outer loop
vertex 1.600000 0.000000 -1.060000
vertex 1.650723 0.000000 -1.055004
vertex 1.882843 0.000000 -1.082843
endloop
endfacet
facet normal 0.000000 1.000000 0.000000
outer loop
vertex 1.882843 0.000000 -0.517157
vertex 1.650723 0.000000 -0.544996
vertex 1.600000 0.000000 -0.540000
endloop
endfacet
facet normal 0.000000 1.000000 0.000000
outer loop
vertex 1.600000 0.000000 -1.060000
vertex 1.882843 0.000000 -1.082843
vertex 1.753073 0.000000 -1.169552
endloop
endfacet
facet normal 0.000000 1.000000 0.000000
outer loop
vertex 1.822228 0.000000 -0.467412
vertex 1.882843 0.000000 -0.517157
vertex 1.600000 0.000000 -0.540000
endloop
endfacet
facet normal 0.000000 1.000000 0.000000
outer loop
vertex 1.549277 0.000000 -1.055004
vertex 1.600000 0.000000 -1.060000
vertex 1.753073 0.000000 -1.169552
endloop
endfacet
facet normal 0.000000 1.000000 0.000000
outer loop
vertex 1.822228 0.000000 -0.467412
vertex 1.600000 0.000000 -0.540000
vertex 1.549276 0.000000 -0.544996
endloop
endfacet
facet normal 0.000000 1.000000 0.000000
outer loop
vertex 1.500503 0.000000 -1.040209
vertex 1.549277 0.000000 -1.055004
vertex 1.753073 0.000000 -1.169552
endloop
endfacet
facet normal 0.000000 1.000000 0.000000
outer loop
vertex 1.753073 0.000000 -0.430448
vertex 1.822228 0.000000 -0.467412
vertex 1.549276 0.000000 -0.544996
endloop
endfacet
facet normal 0.000000 1.000000 0.000000
outer loop
vertex 1.600000 0.000000 -1.200000
vertex 1.500503 0.000000 -1.040209
vertex 1.753073 0.000000 -1.169552
endloop
endfacet
facet normal 0.000000 1.000000 0.000000
outer loop
vertex 1.753073 0.000000 -0.430448
vertex 1.549276 0.000000 -0.544996
vertex 1.500502 0.000000 -0.559791
endloop
endfacet
facet normal 0.000000 1.000000 0.000000
outer loop
vertex 1.600000 0.000000 -1.200000
vertex 1.455552 0.000000 -1.016182
vertex 1.500503 0.000000 -1.040209
endloop
endfacet
facet normal 0.000000 1.000000 0.000000
outer loop
vertex 1.678036 0.000000 -0.407686
vertex 1.753073 0.000000 -0.430448
vertex 1.500502 0.000000 -0.559791
endloop
endfacet
facet normal 0.000000 1.000000 0.000000
outer loop
vertex 1.600000 0.000000 -1.200000
vertex 1.416152 0.000000 -0.983848
vertex 1.455552 0.000000 -1.016182
endloop
endfacet
facet normal 0.000000 1.000000 0.000000
outer loop
vertex 1.678036 0.000000 -0.407686
vertex 1.500502 0.000000 -0.559791
vertex 1.455552 0.000000 -0.583818
endloop
endfacet
facet normal 0.000000 1.000000 0.000000
outer loop
vertex 1.600000 0.000000 -1.200000
vertex 1.521965 0.000000 -1.192314
vertex 1.416152 0.000000 -0.983848
endloop
endfacet
facet normal 0.000000 1.000000 0.000000
outer loop
vertex 1.600000 0.000000 -0.400000
vertex 1.678036 0.000000 -0.407686
vertex 1.455552 0.000000 -0.583818
endloop
endfacet
facet normal 0.000000 1.000000 0.000000
outer loop
vertex 1.521965 0.000000 -1.192314
vertex 1.383818 0.000000 -0.944449
vertex 1.416152 0.000000 -0.983848
endloop
endfacet
facet normal 0.000000 1.000000 0.000000
outer loop
vertex 1.600000 0.000000 -0.400000
vertex 1.455552 0.000000 -0.583818
vertex 1.416152 0.000000 -0.616152
endloop
endfacet
facet normal 0.000000 1.000000 0.000000
outer loop
vertex 1.521965 0.000000 -1.192314
vertex 1.446927 0.000000 -1.169552
vertex 1.383818 0.000000 -0.944449
endloop
endfacet
facet normal 0.000000 1.000000 0.000000
outer loop
vertex 1.521964 0.000000 -0.407686
vertex 1.600000 0.000000 -0.400000
vertex 1.416152 0.000000 -0.616152
endloop
endfacet
facet normal 0.000000 1.000000 0.000000
outer loop
vertex 1.446927 0.000000 -1.169552
vertex 1.359792 0.000000 -0.899498
vertex 1.383818 0.000000 -0.944449
endloop
endfacet
facet normal 0.000000 1.000000 0.000000
outer loop
vertex 1.521964 0.000000 -0.407686
vertex 1.416152 0.000000 -0.616152
vertex 1.383818 0.000000 -0.655552
endloop
endfacet
facet normal 0.000000 1.000000 0.000000
outer loop
vertex 1.446927 0.000000 -1.169552
vertex 1.377772 0.000000 -1.132588
vertex 1.359792 0.000000 -0.899498
endloop
endfacet
facet normal 0.000000 1.000000 0.000000
outer loop
vertex 1.446926 0.000000 -0.430448
vertex 1.521964 0.000000 -0.407686
vertex 1.383818 0.000000 -0.655552
endloop
endfacet
facet normal 0.000000 1.000000 0.000000
outer loop
vertex 1.377772 0.000000 -1.132588
vertex 1.344996 0.000000 -0.850724
vertex 1.359792 0.000000 -0.899498
endloop
endfacet
facet normal 0.000000 1.000000 0.000000
outer loop
vertex 1.446926 0.000000 -0.430448
vertex 1.383818 0.000000 -0.655552
vertex 1.359791 0.000000 -0.700503
endloop
endfacet
facet normal 0.000000 1.000000 0.000000
outer loop
vertex 1.377772 0.000000 -1.132588
vertex 1.317158 0.000000 -1.082843
vertex 1.344996 0.000000 -0.850724
endloop
endfacet
facet normal 0.000000 1.000000 0.000000
outer loop
vertex 1.377772 0.000000 -0.467412
vertex 1.446926 0.000000 -0.430448
vertex 1.359791 0.000000 -0.700503
endloop
endfacet
facet normal 0.000000 1.000000 0.000000
outer loop
vertex 1.317158 0.000000 -1.082843
vertex 1.340000 0.000000 -0.800000
vertex 1.344996 0.000000 -0.850724
endloop
endfacet
facet normal 0.000000 1.000000 0.000000
outer loop
vertex 1.377772 0.000000 -0.467412
vertex 1.359791 0.000000 -0.700503
vertex 1.344996 0.000000 -0.749277
endloop
endfacet
facet normal 0.000000 1.000000 0.000000
outer loop
vertex 1.317158 0.000000 -1.082843
vertex 1.267412 0.000000 -1.022228
vertex 1.340000 0.000000 -0.800000
endloop
endfacet
facet normal 0.000000 1.000000 0.000000
outer loop
vertex 1.317157 0.000000 -0.517157
vertex 1.377772 0.000000 -0.467412
vertex 1.344996 0.000000 -0.749277
endloop
endfacet
facet normal 0.000000 1.000000 0.000000
outer loop
vertex 1.267412 0.000000 -1.022228
vertex 1.344996 0.000000 -0.749277
vertex 1.340000 0.000000 -0.800000
endloop
endfacet
facet normal 0.000000 1.000000 0.000000
outer loop
vertex 1.267412 0.000000 -1.022228
vertex 1.230448 0.000000 -0.953074
vertex 1.207686 0.000000 -0.878037
endloop
endfacet
facet normal 0.000000 1.000000 0.000000
outer loop
vertex 1.207686 0.000000 -0.878037
vertex 1.200000 0.000000 -0.800000
vertex 1.207686 0.000000 -0.721964
endloop
endfacet
facet normal 0.000000 1.000000 0.000000
outer loop
vertex 1.207686 0.000000 -0.721964
vertex 1.230448 0.000000 -0.646927
vertex 1.267412 0.000000 -0.577772
endloop
endfacet
facet normal 0.000000 1.000000 0.000000
outer loop
vertex 1.267412 0.000000 -0.577772
vertex 1.317157 0.000000 -0.517157
vertex 1.344996 0.000000 -0.749277
endloop
endfacet
facet normal 0.000000 1.000000 0.000000
outer loop
vertex 1.267412 0.000000 -1.022228
vertex 1.207686 0.000000 -0.878037
vertex 1.344996 0.000000 -0.749277
endloop
endfacet
facet normal 0.000000 1.000000 0.000000
outer loop
vertex 1.207686 0.000000 -0.878037
vertex 1.207686 0.000000 -0.721964
vertex 1.267412 0.000000 -0.577772
endloop
endfacet
facet normal 0.000000 1.000000 0.000000
outer loop
vertex 1.207686 0.000000 -0.878037
vertex 1.267412 0.000000 -0.577772
vertex 1.344996 0.000000 -0.749277
endloop
endfacet
facet normal 0.000000 -1.000000 0.000000
outer loop
vertex 1.600000 0.180000 -1.200000
vertex 1.446927 0.180000 -1.169552
vertex 1.521965 0.180000 -1.192314
endloop
endfacet
facet normal 0.000000 -1.000000 0.000000
outer loop
vertex 1.317158 0.180000 -1.082843
vertex 1.377772 0.180000 -1.132588
vertex 1.446927 0.180000 -1.169552
endloop
endfacet
facet normal 0.000000 -1.000000 0.000000
outer loop
vertex 1.230448 0.180000 -0.953074
vertex 1.267412 0.180000 -1.022228
vertex 1.317158 0.180000 -1.082843
endloop
endfacet
facet normal 0.000000 -1.000000 0.000000
outer loop
vertex 1.200000 0.180000 -0.800000
vertex 1.207686 0.180000 -0.878037
vertex 1.230448 0.180000 -0.953074
endloop
endfacet
facet normal 0.000000 -1.000000 -0.000000
outer loop
vertex 1.230448 0.180000 -0.646927
vertex 1.207686 0.180000 -0.721964
vertex 1.200000 0.180000 -0.800000
endloop
endfacet
facet normal 0.000000 -1.000000 -0.000001
outer loop
vertex 1.317157 0.180000 -0.517157
vertex 1.267412 0.180000 -0.577772
vertex 1.230448 0.180000 -0.646927
endloop
endfacet
facet normal 0.000000 -1.000000 0.000000
outer loop
vertex 1.446926 0.180000 -0.430448
vertex 1.377772 0.180000 -0.467412
vertex 1.317157 0.180000 -0.517157
endloop
endfacet
facet normal 0.000000 -1.000000 0.000002
outer loop
vertex 1.600000 0.180000 -0.400000
vertex 1.521964 0.180000 -0.407686
vertex 1.446926 0.180000 -0.430448
endloop
endfacet
facet normal 0.000000 -1.000000 0.000002
outer loop
vertex 1.753073 0.180000 -0.430448
vertex 1.678036 0.180000 -0.407686
vertex 1.600000 0.180000 -0.400000
endloop
endfacet
facet normal 0.000000 -1.000000 -0.000002
outer loop
vertex 1.882843 0.180000 -0.517157
vertex 1.822228 0.180000 -0.467412
vertex 1.753073 0.180000 -0.430448
endloop
endfacet
facet normal 0.000000 -1.000000 -0.000002
outer loop
vertex 1.969552 0.180000 -0.646927
vertex 1.932588 0.180000 -0.577772
vertex 1.882843 0.180000 -0.517157
endloop
endfacet
facet normal 0.000000 -1.000000 0.000000
outer loop
vertex 2.000000 0.180000 -0.800000
vertex 1.992314 0.180000 -0.721964
vertex 1.969552 0.180000 -0.646927
endloop
endfacet
facet normal 0.000000 -1.000000 0.000000
outer loop
vertex 1.969552 0.180000 -0.953073
vertex 1.992314 0.180000 -0.878036
vertex 2.000000 0.180000 -0.800000
endloop
endfacet
facet normal 0.000000 -1.000000 0.000001
outer loop
vertex 1.882843 0.180000 -1.082843
vertex 1.932588 0.180000 -1.022228
vertex 1.969552 0.180000 -0.953073
endloop
endfacet
facet normal 0.000000 -1.000000 0.000000
outer loop
vertex 1.753073 0.180000 -1.169552
vertex 1.822228 0.180000 -1.132588
vertex 1.882843 0.180000 -1.082843
endloop
endfacet
facet normal 0.000000 -1.000000 -0.000002
outer loop
vertex 1.600000 0.180000 -1.200000
vertex 1.678036 0.180000 -1.192314
vertex 1.753073 0.180000 -1.169552
endloop
endfacet
facet normal 0.000000 -1.000000 -0.000000
outer loop
vertex 1.600000 0.180000 -1.200000
vertex 1.317158 0.180000 -1.082843
vertex 1.446927 0.180000 -1.169552
endloop
endfacet
facet normal 0.000000 -1.000000 0.000000
outer loop
vertex 1.200000 0.180000 -0.800000
vertex 1.230448 0.180000 -0.953074
vertex 1.317158 0.180000 -1.082843
endloop
endfacet
facet normal 0.000000 -1.000000 -0.000000
outer loop
vertex 1.317157 0.180000 -0.517157
vertex 1.230448 0.180000 -0.646927
vertex 1.200000 0.180000 -0.800000
endloop
endfacet
facet normal 0.000000 -1.000000 -0.000000
outer loop
vertex 1.600000 0.180000 -0.400000
vertex 1.446926 0.180000 -0.430448
vertex 1.317157 0.180000 -0.517157
endloop
endfacet
facet normal 0.000000 -1.000000 0.000000
outer loop
vertex 1.882843 0.180000 -0.517157
vertex 1.753073 0.180000 -0.430448
vertex 1.600000 0.180000 -0.400000
endloop
endfacet
facet normal 0.000000 -1.000000 0.000000
outer loop
vertex 2.000000 0.180000 -0.800000
vertex 1.969552 0.180000 -0.646927
vertex 1.882843 0.180000 -0.517157
endloop
endfacet
facet normal 0.000000 -1.000000 -0.000000
outer loop
vertex 1.882843 0.180000 -1.082843
vertex 1.969552 0.180000 -0.953073
vertex 2.000000 0.180000 -0.800000
endloop
endfacet
facet normal 0.000000 -1.000000 0.000000
outer loop
vertex 1.600000 0.180000 -1.200000
vertex 1.753073 0.180000 -1.169552
vertex 1.882843 0.180000 -1.082843
endloop
endfacet
facet normal 0.000000 -1.000000 -0.000000
outer loop
vertex 1.600000 0.180000 -1.200000
vertex 1.200000 0.180000 -0.800000
vertex 1.317158 0.180000 -1.082843
endloop
endfacet
facet normal 0.000000 -1.000000 -0.000000
outer loop
vertex 1.600000 0.180000 -0.400000
vertex 1.317157 0.180000 -0.517157
vertex 1.200000 0.180000 -0.800000
endloop
endfacet
facet normal 0.000000 -1.000000 0.000000
outer loop
vertex 2.000000 0.180000 -0.800000
vertex 1.882843 0.180000 -0.517157
vertex 1.600000 0.180000 -0.400000
endloop
endfacet
facet normal 0.000000 -1.000000 -0.000000
outer loop
vertex 1.600000 0.180000 -1.200000
vertex 1.882843 0.180000 -1.082843
vertex 2.000000 0.180000 -0.800000
endloop
endfacet
facet normal 0.000000 -1.000000 0.000000
outer loop
vertex 1.600000 0.180000 -1.200000
vertex 1.600000 0.180000 -0.400000
vertex 1.200000 0.180000 -0.800000
endloop
endfacet
facet normal 0.000000 -1.000000 0.000000
outer loop
vertex 1.600000 0.180000 -1.200000
vertex 2.000000 0.180000 -0.800000
vertex 1.600000 0.180000 -0.400000
endloop
endfacet
facet normal -0.098017 0.000000 0.995185
outer loop
vertex 1.600000 0.000000 -1.200000
vertex 1.678036 0.000000 -1.192314
vertex 1.678036 0.180000 -1.192314
endloop
endfacet
facet normal -0.098019 0.000000 0.995185
outer loop
vertex 1.678036 0.180000 -1.192314
vertex 1.600000 0.180000 -1.200000
vertex 1.600000 0.000000 -1.200000
endloop
endfacet
facet normal -0.773011 0.000000 -0.634393
outer loop
vertex 1.932588 0.000000 -0.577772
vertex 1.882843 0.000000 -0.517157
vertex 1.882843 0.180000 -0.517157
endloop
endfacet
facet normal -0.773010 0.000000 -0.634393
outer loop
vertex 1.882843 0.180000 -0.517157
vertex 1.932588 0.180000 -0.577772
vertex 1.932588 0.000000 -0.577772
endloop
endfacet
facet normal 0.098015 0.000000 0.995185
outer loop
vertex 1.521965 0.000000 -1.192314
vertex 1.600000 0.000000 -1.200000
vertex 1.600000 0.180000 -1.200000
endloop
endfacet
facet normal 0.098020 0.000000 0.995185
outer loop
vertex 1.600000 0.180000 -1.200000
vertex 1.521965 0.180000 -1.192314
vertex 1.521965 0.000000 -1.192314
endloop
endfacet
facet normal 0.773010 0.000000 -0.634393
outer loop
vertex 1.317157 0.000000 -0.517157
vertex 1.267412 0.000000 -0.577772
vertex 1.267412 0.180000 -0.577772
endloop
endfacet
facet normal 0.773010 0.000000 -0.634393
outer loop
vertex 1.267412 0.180000 -0.577772
vertex 1.317157 0.180000 -0.517157
vertex 1.317157 0.000000 -0.517157
endloop
endfacet
facet normal -0.956940 0.000000 -0.290285
outer loop
vertex 1.992314 0.000000 -0.721964
vertex 1.969552 0.000000 -0.646927
vertex 1.969552 0.180000 -0.646927
endloop
endfacet
facet normal -0.956940 0.000000 -0.290285
outer loop
vertex 1.969552 0.180000 -0.646927
vertex 1.992314 0.180000 -0.721964
vertex 1.992314 0.000000 -0.721964
endloop
endfacet
facet normal 0.471396 0.000000 0.881922
outer loop
vertex 1.377772 0.000000 -1.132588
vertex 1.446927 0.000000 -1.169552
vertex 1.446927 0.180000 -1.169552
endloop
endfacet
facet normal 0.471396 0.000000 0.881922
outer loop
vertex 1.446927 0.180000 -1.169552
vertex 1.377772 0.180000 -1.132588
vertex 1.377772 0.000000 -1.132588
endloop
endfacet
facet normal 0.471397 0.000000 -0.881921
outer loop
vertex 1.446926 0.000000 -0.430448
vertex 1.377772 0.000000 -0.467412
vertex 1.377772 0.180000 -0.467412
endloop
endfacet
facet normal 0.471398 0.000000 -0.881921
outer loop
vertex 1.377772 0.180000 -0.467412
vertex 1.446926 0.180000 -0.430448
vertex 1.446926 0.000000 -0.430448
endloop
endfacet
facet normal -0.995185 0.000000 0.098017
outer loop
vertex 1.992314 0.000000 -0.878036
vertex 2.000000 0.000000 -0.800000
vertex 2.000000 0.180000 -0.800000
endloop
endfacet
facet normal -0.995185 0.000000 0.098017
outer loop
vertex 2.000000 0.180000 -0.800000
vertex 1.992314 0.180000 -0.878036
vertex 1.992314 0.000000 -0.878036
endloop
endfacet
facet normal 0.773010 0.000000 0.634394
outer loop
vertex 1.267412 0.000000 -1.022228
vertex 1.317158 0.000000 -1.082843
vertex 1.317158 0.180000 -1.082843
endloop
endfacet
facet normal 0.773010 0.000000 0.634394
outer loop
vertex 1.317158 0.180000 -1.082843
vertex 1.267412 0.180000 -1.022228
vertex 1.267412 0.000000 -1.022228
endloop
endfacet
facet normal 0.098018 0.000000 -0.995185
outer loop
vertex 1.600000 0.000000 -0.400000
vertex 1.521964 0.000000 -0.407686
vertex 1.521964 0.180000 -0.407686
endloop
endfacet
facet normal 0.098018 0.000000 -0.995185
outer loop
vertex 1.521964 0.180000 -0.407686
vertex 1.600000 0.180000 -0.400000
vertex 1.600000 0.000000 -0.400000
endloop
endfacet
facet normal -0.881922 0.000000 0.471396
outer loop
vertex 1.932588 0.000000 -1.022228
vertex 1.969552 0.000000 -0.953073
vertex 1.969552 0.180000 -0.953073
endloop
endfacet
facet normal -0.881922 0.000000 0.471396
outer loop
vertex 1.969552 0.180000 -0.953073
vertex 1.932588 0.180000 -1.022228
vertex 1.932588 0.000000 -1.022228
endloop
endfacet
facet normal 0.956940 0.000000 0.290286
outer loop
vertex 1.207686 0.000000 -0.878037
vertex 1.230448 0.000000 -0.953074
vertex 1.230448 0.180000 -0.953074
endloop
endfacet
facet normal 0.956940 0.000000 0.290286
outer loop
vertex 1.230448 0.180000 -0.953074
vertex 1.207686 0.180000 -0.878037
vertex 1.207686 0.000000 -0.878037
endloop
endfacet
facet normal -0.634395 0.000000 0.773009
outer loop
vertex 1.822228 0.000000 -1.132588
vertex 1.882843 0.000000 -1.082843
vertex 1.882843 0.180000 -1.082843
endloop
endfacet
facet normal -0.634392 0.000000 0.773011
outer loop
vertex 1.882843 0.180000 -1.082843
vertex 1.822228 0.180000 -1.132588
vertex 1.822228 0.000000 -1.132588
endloop
endfacet
facet normal -0.290284 0.000000 -0.956940
outer loop
vertex 1.753073 0.000000 -0.430448
vertex 1.678036 0.000000 -0.407686
vertex 1.678036 0.180000 -0.407686
endloop
endfacet
facet normal -0.290284 0.000000 -0.956940
outer loop
vertex 1.678036 0.180000 -0.407686
vertex 1.753073 0.180000 -0.430448
vertex 1.753073 0.000000 -0.430448
endloop
endfacet
facet normal 0.995185 0.000000 -0.098016
outer loop
vertex 1.207686 0.000000 -0.721964
vertex 1.200000 0.000000 -0.800000
vertex 1.200000 0.180000 -0.800000
endloop
endfacet
facet normal 0.995185 0.000000 -0.098016
outer loop
vertex 1.200000 0.180000 -0.800000
vertex 1.207686 0.180000 -0.721964
vertex 1.207686 0.000000 -0.721964
endloop
endfacet
facet normal -0.290283 0.000000 0.956941
outer loop
vertex 1.678036 0.000000 -1.192314
vertex 1.753073 0.000000 -1.169552
vertex 1.753073 0.180000 -1.169552
endloop
endfacet
facet normal -0.290285 0.000000 0.956940
outer loop
vertex 1.753073 0.180000 -1.169552
vertex 1.678036 0.180000 -1.192314
vertex 1.678036 0.000000 -1.192314
endloop
endfacet
facet normal -0.634393 0.000000 -0.773011
outer loop
vertex 1.882843 0.000000 -0.517157
vertex 1.822228 0.000000 -0.467412
vertex 1.822228 0.180000 -0.467412
endloop
endfacet
facet normal -0.634393 0.000000 -0.773010
outer loop
vertex 1.822228 0.180000 -0.467412
vertex 1.882843 0.180000 -0.517157
vertex 1.882843 0.000000 -0.517157
endloop
endfacet
facet normal 0.881922 0.000000 -0.471396
outer loop
vertex 1.267412 0.000000 -0.577772
vertex 1.230448 0.000000 -0.646927
vertex 1.230448 0.180000 -0.646927
endloop
endfacet
facet normal 0.881921 0.000000 -0.471396
outer loop
vertex 1.230448 0.180000 -0.646927
vertex 1.267412 0.180000 -0.577772
vertex 1.267412 0.000000 -0.577772
endloop
endfacet
facet normal -0.881921 0.000000 -0.471396
outer loop
vertex 1.969552 0.000000 -0.646927
vertex 1.932588 0.000000 -0.577772
vertex 1.932588 0.180000 -0.577772
endloop
endfacet
facet normal -0.881922 0.000000 -0.471396
outer loop
vertex 1.932588 0.180000 -0.577772
vertex 1.969552 0.180000 -0.646927
vertex 1.969552 0.000000 -0.646927
endloop
endfacet
facet normal 0.290281 0.000000 0.956941
outer loop
vertex 1.446927 0.000000 -1.169552
vertex 1.521965 0.000000 -1.192314
vertex 1.521965 0.180000 -1.192314
endloop
endfacet
facet normal 0.290283 0.000000 0.956941
outer loop
vertex 1.521965 0.180000 -1.192314
vertex 1.446927 0.180000 -1.169552
vertex 1.446927 0.000000 -1.169552
endloop
endfacet
facet normal 0.634393 0.000000 -0.773010
outer loop
vertex 1.377772 0.000000 -0.467412
vertex 1.317157 0.000000 -0.517157
vertex 1.317157 0.180000 -0.517157
endloop
endfacet
facet normal 0.634394 0.000000 -0.773010
outer loop
vertex 1.317157 0.180000 -0.517157
vertex 1.377772 0.180000 -0.467412
vertex 1.377772 0.000000 -0.467412
endloop
endfacet
facet normal -0.995185 0.000000 -0.098017
outer loop
vertex 2.000000 0.000000 -0.800000
vertex 1.992314 0.000000 -0.721964
vertex 1.992314 0.180000 -0.721964
endloop
endfacet
facet normal -0.995185 0.000000 -0.098017
outer loop
vertex 1.992314 0.180000 -0.721964
vertex 2.000000 0.180000 -0.800000
vertex 2.000000 0.000000 -0.800000
endloop
endfacet
facet normal 0.634392 0.000000 0.773011
outer loop
vertex 1.317158 0.000000 -1.082843
vertex 1.377772 0.000000 -1.132588
vertex 1.377772 0.180000 -1.132588
endloop
endfacet
facet normal 0.634392 0.000000 0.773011
outer loop
vertex 1.377772 0.180000 -1.132588
vertex 1.317158 0.180000 -1.082843
vertex 1.317158 0.000000 -1.082843
endloop
endfacet
facet normal 0.290285 0.000000 -0.956940
outer loop
vertex 1.521964 0.000000 -0.407686
vertex 1.446926 0.000000 -0.430448
vertex 1.446926 0.180000 -0.430448
endloop
endfacet
facet normal 0.290284 0.000000 -0.956940
outer loop
vertex 1.446926 0.180000 -0.430448
vertex 1.521964 0.180000 -0.407686
vertex 1.521964 0.000000 -0.407686
endloop
endfacet
facet normal -0.956940 0.000000 0.290285
outer loop
vertex 1.969552 0.000000 -0.953073
vertex 1.992314 0.000000 -0.878036
vertex 1.992314 0.180000 -0.878036
endloop
endfacet
facet normal -0.956940 0.000000 0.290285
outer loop
vertex 1.992314 0.180000 -0.878036
vertex 1.969552 0.180000 -0.953073
vertex 1.969552 0.000000 -0.953073
endloop
endfacet
facet normal 0.881921 0.000000 0.471397
outer loop
vertex 1.230448 0.000000 -0.953074
vertex 1.267412 0.000000 -1.022228
vertex 1.267412 0.180000 -1.022228
endloop
endfacet
facet normal 0.881920 0.000000 0.471399
outer loop
vertex 1.267412 0.180000 -1.022228
vertex 1.230448 0.180000 -0.953074
vertex 1.230448 0.000000 -0.953074
endloop
endfacet
facet normal -0.773011 0.000000 0.634393
outer loop
vertex 1.882843 0.000000 -1.082843
vertex 1.932588 0.000000 -1.022228
vertex 1.932588 0.180000 -1.022228
endloop
endfacet
facet normal -0.773010 0.000000 0.634394
outer loop
vertex 1.932588 0.180000 -1.022228
vertex 1.882843 0.180000 -1.082843
vertex 1.882843 0.000000 -1.082843
endloop
endfacet
facet normal -0.098017 0.000000 -0.995185
outer loop
vertex 1.678036 0.000000 -0.407686
vertex 1.600000 0.000000 -0.400000
vertex 1.600000 0.180000 -0.400000
endloop
endfacet
facet normal -0.098018 0.000000 -0.995185
outer loop
vertex 1.600000 0.180000 -0.400000
vertex 1.678036 0.180000 -0.407686
vertex 1.678036 0.000000 -0.407686
endloop
endfacet
facet normal 0.995185 0.000000 0.098017
outer loop
vertex 1.200000 0.000000 -0.800000
vertex 1.207686 0.000000 -0.878037
vertex 1.207686 0.180000 -0.878037
endloop
endfacet
facet normal 0.995185 0.000000 0.098017
outer loop
vertex 1.207686 0.180000 -0.878037
vertex 1.200000 0.180000 -0.800000
vertex 1.200000 0.000000 -0.800000
endloop
endfacet
facet normal -0.471397 0.000000 0.881921
outer loop
vertex 1.753073 0.000000 -1.169552
vertex 1.822228 0.000000 -1.132588
vertex 1.822228 0.180000 -1.132588
endloop
endfacet
facet normal -0.471397 0.000000 0.881921
outer loop
vertex 1.822228 0.180000 -1.132588
vertex 1.753073 0.180000 -1.169552
vertex 1.753073 0.000000 -1.169552
endloop
endfacet
facet normal -0.471397 0.000000 -0.881921
outer loop
vertex 1.822228 0.000000 -0.467412
vertex 1.753073 0.000000 -0.430448
vertex 1.753073 0.180000 -0.430448
endloop
endfacet
facet normal -0.471397 0.000000 -0.881921
outer loop
vertex 1.753073 0.180000 -0.430448
vertex 1.822228 0.180000 -0.467412
vertex 1.822228 0.000000 -0.467412
endloop
endfacet
facet normal 0.000000 1.000000 0.000000
outer loop
vertex 2.000000 0.000000 -0.800000
vertex 1.860000 0.000000 -0.800000
vertex 1.855004 0.000000 -0.749277
endloop
endfacet
facet normal 0.000000 1.000000 0.000000
outer loop
vertex 1.855004 0.000000 -0.749277
vertex 1.992314 0.000000 -0.721964
vertex 2.000000 0.000000 -0.800000
endloop
endfacet
endsolid Exported from Blender-2.74 (sub 0)
