solid Exported from Blender-2.74 (sub 0)
facet normal 0.098017 0.000000 -0.995185
outer loop
vertex 0.800000 0.000000 -0.400000
vertex 0.800000 0.300000 -0.400000
vertex 0.878036 0.300000 -0.392314
endloop
endfacet
facet normal 0.098018 0.000000 -0.995185
outer loop
vertex 0.878036 0.300000 -0.392314
vertex 0.878036 0.000000 -0.392314
vertex 0.800000 0.000000 -0.400000
endloop
endfacet
facet normal 0.290285 0.000000 -0.956940
outer loop
vertex 0.878036 0.000000 -0.392314
vertex 0.878036 0.300000 -0.392314
vertex 0.953073 0.300000 -0.369552
endloop
endfacet
facet normal 0.290284 0.000000 -0.956940
outer loop
vertex 0.953073 0.300000 -0.369552
vertex 0.953073 0.000000 -0.369552
vertex 0.878036 0.000000 -0.392314
endloop
endfacet
facet normal 0.471397 0.000000 -0.881921
outer loop
vertex 0.953073 0.000000 -0.369552
vertex 0.953073 0.300000 -0.369552
vertex 1.022228 0.300000 -0.332588
endloop
endfacet
facet normal 0.471396 0.000000 -0.881922
outer loop
vertex 1.022228 0.300000 -0.332588
vertex 1.022228 0.000000 -0.332588
vertex 0.953073 0.000000 -0.369552
endloop
endfacet
facet normal 0.634393 0.000000 -0.773011
outer loop
vertex 1.022228 0.000000 -0.332588
vertex 1.022228 0.300000 -0.332588
vertex 1.082843 0.300000 -0.282843
endloop
endfacet
facet normal 0.634394 0.000000 -0.773010
outer loop
vertex 1.082843 0.300000 -0.282843
vertex 1.082843 0.000000 -0.282843
vertex 1.022228 0.000000 -0.332588
endloop
endfacet
facet normal 0.773010 0.000000 -0.634394
outer loop
vertex 1.082843 0.000000 -0.282843
vertex 1.082843 0.300000 -0.282843
vertex 1.132588 0.300000 -0.222228
endloop
endfacet
facet normal 0.773010 0.000000 -0.634394
outer loop
vertex 1.132588 0.300000 -0.222228
vertex 1.132588 0.000000 -0.222228
vertex 1.082843 0.000000 -0.282843
endloop
endfacet
facet normal 0.881921 0.000000 -0.471396
outer loop
vertex 1.132588 0.000000 -0.222228
vertex 1.132588 0.300000 -0.222228
vertex 1.169552 0.300000 -0.153073
endloop
endfacet
facet normal 0.881921 0.000000 -0.471396
outer loop
vertex 1.169552 0.300000 -0.153073
vertex 1.169552 0.000000 -0.153073
vertex 1.132588 0.000000 -0.222228
endloop
endfacet
facet normal 0.956940 0.000000 -0.290285
outer loop
vertex 1.169552 0.000000 -0.153073
vertex 1.169552 0.300000 -0.153073
vertex 1.192314 0.300000 -0.078036
endloop
endfacet
facet normal 0.956940 0.000000 -0.290285
outer loop
vertex 1.192314 0.300000 -0.078036
vertex 1.192314 0.000000 -0.078036
vertex 1.169552 0.000000 -0.153073
endloop
endfacet
facet normal 0.995185 0.000000 -0.098017
outer loop
vertex 1.192314 0.000000 -0.078036
vertex 1.192314 0.300000 -0.078036
vertex 1.200000 0.300000 -0.000000
endloop
endfacet
facet normal 0.995185 0.000000 -0.098017
outer loop
vertex 1.200000 0.300000 -0.000000
vertex 1.200000 0.000000 -0.000000
vertex 1.192314 0.000000 -0.078036
endloop
endfacet
facet normal 0.995185 0.000000 0.098017
outer loop
vertex 1.200000 0.000000 -0.000000
vertex 1.200000 0.300000 -0.000000
vertex 1.192314 0.300000 0.078036
endloop
endfacet
facet normal 0.995185 0.000000 0.098017
outer loop
vertex 1.192314 0.300000 0.078036
vertex 1.192314 0.000000 0.078036
vertex 1.200000 0.000000 -0.000000
endloop
endfacet
facet normal 0.956940 0.000000 0.290285
outer loop
vertex 1.192314 0.000000 0.078036
vertex 1.192314 0.300000 0.078036
vertex 1.169552 0.300000 0.153073
endloop
endfacet
facet normal 0.956940 0.000000 0.290285
outer loop
vertex 1.169552 0.300000 0.153073
vertex 1.169552 0.000000 0.153073
vertex 1.192314 0.000000 0.078036
endloop
endfacet
facet normal 0.881922 0.000000 0.471396
outer loop
vertex 1.169552 0.000000 0.153073
vertex 1.169552 0.300000 0.153073
vertex 1.132588 0.300000 0.222228
endloop
endfacet
facet normal 0.881922 0.000000 0.471396
outer loop
vertex 1.132588 0.300000 0.222228
vertex 1.132588 0.000000 0.222228
vertex 1.169552 0.000000 0.153073
endloop
endfacet
facet normal 0.773010 0.000000 0.634394
outer loop
vertex 1.132588 0.000000 0.222228
vertex 1.132588 0.300000 0.222228
vertex 1.082843 0.300000 0.282843
endloop
endfacet
facet normal 0.773010 0.000000 0.634394
outer loop
vertex 1.082843 0.300000 0.282843
vertex 1.082843 0.000000 0.282843
vertex 1.132588 0.000000 0.222228
endloop
endfacet
facet normal 0.634394 0.000000 0.773010
outer loop
vertex 1.082843 0.000000 0.282843
vertex 1.082843 0.300000 0.282843
vertex 1.022228 0.300000 0.332588
endloop
endfacet
facet normal 0.634394 0.000000 0.773010
outer loop
vertex 1.022228 0.300000 0.332588
vertex 1.022228 0.000000 0.332588
vertex 1.082843 0.000000 0.282843
endloop
endfacet
facet normal 0.471397 0.000000 0.881921
outer loop
vertex 1.022228 0.000000 0.332588
vertex 1.022228 0.300000 0.332588
vertex 0.953073 0.300000 0.369552
endloop
endfacet
facet normal 0.471396 0.000000 0.881921
outer loop
vertex 0.953073 0.300000 0.369552
vertex 0.953073 0.000000 0.369552
vertex 1.022228 0.000000 0.332588
endloop
endfacet
facet normal 0.290284 0.000000 0.956940
outer loop
vertex 0.953073 0.000000 0.369552
vertex 0.953073 0.300000 0.369552
vertex 0.878036 0.300000 0.392314
endloop
endfacet
facet normal 0.290284 0.000000 0.956940
outer loop
vertex 0.878036 0.300000 0.392314
vertex 0.878036 0.000000 0.392314
vertex 0.953073 0.000000 0.369552
endloop
endfacet
facet normal 0.098018 0.000000 0.995185
outer loop
vertex 0.878036 0.000000 0.392314
vertex 0.878036 0.300000 0.392314
vertex 0.800000 0.300000 0.400000
endloop
endfacet
facet normal 0.098016 0.000000 0.995185
outer loop
vertex 0.800000 0.300000 0.400000
vertex 0.800000 0.000000 0.400000
vertex 0.878036 0.000000 0.392314
endloop
endfacet
facet normal -0.098018 0.000000 0.995185
outer loop
vertex 0.800000 0.000000 0.400000
vertex 0.800000 0.300000 0.400000
vertex 0.721964 0.300000 0.392314
endloop
endfacet
facet normal -0.098017 0.000000 0.995185
outer loop
vertex 0.721964 0.300000 0.392314
vertex 0.721964 0.000000 0.392314
vertex 0.800000 0.000000 0.400000
endloop
endfacet
facet normal -0.290285 0.000000 0.956940
outer loop
vertex 0.721964 0.000000 0.392314
vertex 0.721964 0.300000 0.392314
vertex 0.646926 0.300000 0.369552
endloop
endfacet
facet normal -0.290285 0.000000 0.956940
outer loop
vertex 0.646926 0.300000 0.369552
vertex 0.646926 0.000000 0.369552
vertex 0.721964 0.000000 0.392314
endloop
endfacet
facet normal -0.471397 0.000000 0.881921
outer loop
vertex 0.646926 0.000000 0.369552
vertex 0.646926 0.300000 0.369552
vertex 0.577772 0.300000 0.332588
endloop
endfacet
facet normal -0.471398 0.000000 0.881921
outer loop
vertex 0.577772 0.300000 0.332588
vertex 0.577772 0.000000 0.332588
vertex 0.646926 0.000000 0.369552
endloop
endfacet
facet normal -0.634394 0.000000 0.773010
outer loop
vertex 0.577772 0.000000 0.332588
vertex 0.577772 0.300000 0.332588
vertex 0.517157 0.300000 0.282843
endloop
endfacet
facet normal -0.634393 0.000000 0.773010
outer loop
vertex 0.517157 0.300000 0.282843
vertex 0.517157 0.000000 0.282843
vertex 0.577772 0.000000 0.332588
endloop
endfacet
facet normal -0.773011 0.000000 0.634392
outer loop
vertex 0.517157 0.000000 0.282843
vertex 0.517157 0.300000 0.282843
vertex 0.467412 0.300000 0.222228
endloop
endfacet
facet normal -0.773011 0.000000 0.634393
outer loop
vertex 0.467412 0.300000 0.222228
vertex 0.467412 0.000000 0.222228
vertex 0.517157 0.000000 0.282843
endloop
endfacet
facet normal -0.881922 0.000000 0.471396
outer loop
vertex 0.467412 0.000000 0.222228
vertex 0.467412 0.300000 0.222228
vertex 0.430448 0.300000 0.153073
endloop
endfacet
facet normal -0.881922 0.000000 0.471396
outer loop
vertex 0.430448 0.300000 0.153073
vertex 0.430448 0.000000 0.153073
vertex 0.467412 0.000000 0.222228
endloop
endfacet
facet normal -0.956941 0.000000 0.290284
outer loop
vertex 0.430448 0.000000 0.153073
vertex 0.430448 0.300000 0.153073
vertex 0.407686 0.300000 0.078036
endloop
endfacet
facet normal -0.956941 0.000000 0.290284
outer loop
vertex 0.407686 0.300000 0.078036
vertex 0.407686 0.000000 0.078036
vertex 0.430448 0.000000 0.153073
endloop
endfacet
facet normal -0.995185 0.000000 0.098016
outer loop
vertex 0.407686 0.000000 0.078036
vertex 0.407686 0.300000 0.078036
vertex 0.400000 0.300000 -0.000000
endloop
endfacet
facet normal -0.995185 0.000000 0.098016
outer loop
vertex 0.400000 0.300000 -0.000000
vertex 0.400000 0.000000 -0.000000
vertex 0.407686 0.000000 0.078036
endloop
endfacet
facet normal -0.995185 0.000000 -0.098018
outer loop
vertex 0.400000 0.000000 -0.000000
vertex 0.400000 0.300000 -0.000000
vertex 0.407686 0.300000 -0.078037
endloop
endfacet
facet normal -0.995185 0.000000 -0.098018
outer loop
vertex 0.407686 0.300000 -0.078037
vertex 0.407686 0.000000 -0.078037
vertex 0.400000 0.000000 -0.000000
endloop
endfacet
facet normal -0.956940 0.000000 -0.290286
outer loop
vertex 0.407686 0.000000 -0.078037
vertex 0.407686 0.300000 -0.078037
vertex 0.430448 0.300000 -0.153074
endloop
endfacet
facet normal -0.956940 0.000000 -0.290286
outer loop
vertex 0.430448 0.300000 -0.153074
vertex 0.430448 0.000000 -0.153074
vertex 0.407686 0.000000 -0.078037
endloop
endfacet
facet normal -0.881921 0.000000 -0.471398
outer loop
vertex 0.430448 0.000000 -0.153074
vertex 0.430448 0.300000 -0.153074
vertex 0.467412 0.300000 -0.222229
endloop
endfacet
facet normal -0.881921 0.000000 -0.471398
outer loop
vertex 0.467412 0.300000 -0.222229
vertex 0.467412 0.000000 -0.222229
vertex 0.430448 0.000000 -0.153074
endloop
endfacet
facet normal -0.773009 0.000000 -0.634395
outer loop
vertex 0.467412 0.000000 -0.222229
vertex 0.467412 0.300000 -0.222229
vertex 0.517158 0.300000 -0.282843
endloop
endfacet
facet normal -0.773010 0.000000 -0.634394
outer loop
vertex 0.517158 0.300000 -0.282843
vertex 0.517158 0.000000 -0.282843
vertex 0.467412 0.000000 -0.222229
endloop
endfacet
facet normal -0.634392 0.000000 -0.773011
outer loop
vertex 0.517158 0.000000 -0.282843
vertex 0.517158 0.300000 -0.282843
vertex 0.577772 0.300000 -0.332588
endloop
endfacet
facet normal -0.634392 0.000000 -0.773011
outer loop
vertex 0.577772 0.300000 -0.332588
vertex 0.577772 0.000000 -0.332588
vertex 0.517158 0.000000 -0.282843
endloop
endfacet
facet normal -0.471395 0.000000 -0.881922
outer loop
vertex 0.577772 0.000000 -0.332588
vertex 0.577772 0.300000 -0.332588
vertex 0.646927 0.300000 -0.369552
endloop
endfacet
facet normal -0.471395 0.000000 -0.881922
outer loop
vertex 0.646927 0.300000 -0.369552
vertex 0.646927 0.000000 -0.369552
vertex 0.577772 0.000000 -0.332588
endloop
endfacet
facet normal 0.000000 1.000000 0.000003
outer loop
vertex 0.878036 0.300000 -0.392314
vertex 1.022228 0.300000 -0.332588
vertex 0.953073 0.300000 -0.369552
endloop
endfacet
facet normal 0.000000 1.000000 0.000003
outer loop
vertex 1.132588 0.300000 -0.222228
vertex 1.082843 0.300000 -0.282843
vertex 1.022228 0.300000 -0.332588
endloop
endfacet
facet normal 0.000000 1.000000 0.000002
outer loop
vertex 1.192314 0.300000 -0.078036
vertex 1.169552 0.300000 -0.153073
vertex 1.132588 0.300000 -0.222228
endloop
endfacet
facet normal 0.000000 1.000000 0.000000
outer loop
vertex 1.192314 0.300000 0.078036
vertex 1.200000 0.300000 -0.000000
vertex 1.192314 0.300000 -0.078036
endloop
endfacet
facet normal 0.000000 1.000000 -0.000002
outer loop
vertex 1.132588 0.300000 0.222228
vertex 1.169552 0.300000 0.153073
vertex 1.192314 0.300000 0.078036
endloop
endfacet
facet normal 0.000000 1.000000 -0.000003
outer loop
vertex 1.022228 0.300000 0.332588
vertex 1.082843 0.300000 0.282843
vertex 1.132588 0.300000 0.222228
endloop
endfacet
facet normal 0.000000 1.000000 0.000000
outer loop
vertex 0.878036 0.300000 0.392314
vertex 0.953073 0.300000 0.369552
vertex 1.022228 0.300000 0.332588
endloop
endfacet
facet normal 0.000000 1.000000 0.000003
outer loop
vertex 0.721964 0.300000 0.392314
vertex 0.800000 0.300000 0.400000
vertex 0.878036 0.300000 0.392314
endloop
endfacet
facet normal 0.000000 1.000000 -0.000003
outer loop
vertex 0.577772 0.300000 0.332588
vertex 0.646926 0.300000 0.369552
vertex 0.721964 0.300000 0.392314
endloop
endfacet
facet normal 0.000000 1.000000 0.000006
outer loop
vertex 0.467412 0.300000 0.222228
vertex 0.517157 0.300000 0.282843
vertex 0.577772 0.300000 0.332588
endloop
endfacet
facet normal 0.000000 1.000000 0.000000
outer loop
vertex 0.407686 0.300000 0.078036
vertex 0.430448 0.300000 0.153073
vertex 0.467412 0.300000 0.222228
endloop
endfacet
facet normal 0.000000 1.000000 0.000000
outer loop
vertex 0.407686 0.300000 -0.078037
vertex 0.400000 0.300000 -0.000000
vertex 0.407686 0.300000 0.078036
endloop
endfacet
facet normal 0.000000 1.000000 -0.000001
outer loop
vertex 0.467412 0.300000 -0.222229
vertex 0.430448 0.300000 -0.153074
vertex 0.407686 0.300000 -0.078037
endloop
endfacet
facet normal 0.000000 1.000000 0.000002
outer loop
vertex 0.577772 0.300000 -0.332588
vertex 0.517158 0.300000 -0.282843
vertex 0.467412 0.300000 -0.222229
endloop
endfacet
facet normal 0.000000 1.000000 0.000000
outer loop
vertex 0.721964 0.300000 -0.392314
vertex 0.646927 0.300000 -0.369552
vertex 0.577772 0.300000 -0.332588
endloop
endfacet
facet normal 0.000000 1.000000 0.000000
outer loop
vertex 0.878036 0.300000 -0.392314
vertex 0.800000 0.300000 -0.400000
vertex 0.721964 0.300000 -0.392314
endloop
endfacet
facet normal 0.000000 1.000000 0.000000
outer loop
vertex 0.878036 0.300000 -0.392314
vertex 1.132588 0.300000 -0.222228
vertex 1.022228 0.300000 -0.332588
endloop
endfacet
facet normal 0.000000 1.000000 0.000000
outer loop
vertex 1.192314 0.300000 0.078036
vertex 1.192314 0.300000 -0.078036
vertex 1.132588 0.300000 -0.222228
endloop
endfacet
facet normal 0.000000 1.000000 0.000001
outer loop
vertex 1.022228 0.300000 0.332588
vertex 1.132588 0.300000 0.222228
vertex 1.192314 0.300000 0.078036
endloop
endfacet
facet normal 0.000000 1.000000 0.000000
outer loop
vertex 0.721964 0.300000 0.392314
vertex 0.878036 0.300000 0.392314
vertex 1.022228 0.300000 0.332588
endloop
endfacet
facet normal 0.000000 1.000000 0.000000
outer loop
vertex 0.467412 0.300000 0.222228
vertex 0.577772 0.300000 0.332588
vertex 0.721964 0.300000 0.392314
endloop
endfacet
facet normal 0.000000 1.000000 0.000000
outer loop
vertex 0.407686 0.300000 -0.078037
vertex 0.407686 0.300000 0.078036
vertex 0.467412 0.300000 0.222228
endloop
endfacet
facet normal 0.000000 1.000000 -0.000000
outer loop
vertex 0.577772 0.300000 -0.332588
vertex 0.467412 0.300000 -0.222229
vertex 0.407686 0.300000 -0.078037
endloop
endfacet
facet normal 0.000000 1.000000 0.000001
outer loop
vertex 0.878036 0.300000 -0.392314
vertex 0.721964 0.300000 -0.392314
vertex 0.577772 0.300000 -0.332588
endloop
endfacet
facet normal 0.000000 1.000000 -0.000000
outer loop
vertex 0.878036 0.300000 -0.392314
vertex 1.192314 0.300000 0.078036
vertex 1.132588 0.300000 -0.222228
endloop
endfacet
facet normal 0.000000 1.000000 0.000000
outer loop
vertex 0.721964 0.300000 0.392314
vertex 1.022228 0.300000 0.332588
vertex 1.192314 0.300000 0.078036
endloop
endfacet
facet normal 0.000000 1.000000 0.000000
outer loop
vertex 0.407686 0.300000 -0.078037
vertex 0.467412 0.300000 0.222228
vertex 0.721964 0.300000 0.392314
endloop
endfacet
facet normal 0.000000 1.000000 0.000000
outer loop
vertex 0.878036 0.300000 -0.392314
vertex 0.577772 0.300000 -0.332588
vertex 0.407686 0.300000 -0.078037
endloop
endfacet
facet normal 0.000000 1.000000 0.000000
outer loop
vertex 0.878036 0.300000 -0.392314
vertex 0.721964 0.300000 0.392314
vertex 1.192314 0.300000 0.078036
endloop
endfacet
facet normal 0.000000 1.000000 0.000000
outer loop
vertex 0.878036 0.300000 -0.392314
vertex 0.407686 0.300000 -0.078037
vertex 0.721964 0.300000 0.392314
endloop
endfacet
facet normal -0.098016 0.000000 -0.995185
outer loop
vertex 0.800000 0.300000 -0.400000
vertex 0.800000 0.000000 -0.400000
vertex 0.721964 0.000000 -0.392314
endloop
endfacet
facet normal -0.098016 0.000000 -0.995185
outer loop
vertex 0.721964 0.000000 -0.392314
vertex 0.721964 0.300000 -0.392314
vertex 0.800000 0.300000 -0.400000
endloop
endfacet
facet normal -0.290284 0.000000 -0.956941
outer loop
vertex 0.646927 0.000000 -0.369552
vertex 0.646927 0.300000 -0.369552
vertex 0.721964 0.300000 -0.392314
endloop
endfacet
facet normal -0.290283 0.000000 -0.956941
outer loop
vertex 0.721964 0.300000 -0.392314
vertex 0.721964 0.000000 -0.392314
vertex 0.646927 0.000000 -0.369552
endloop
endfacet
facet normal 0.000000 0.000000 0.000000
outer loop
vertex 0.646927 0.000000 -0.369552
vertex 0.721964 0.000000 -0.392314
vertex 0.721964 0.000000 -0.392314
endloop
endfacet
facet normal 0.000000 0.000000 0.000000
outer loop
vertex 0.721964 0.000000 -0.392314
vertex 0.646927 0.000000 -0.369552
vertex 0.646927 0.000000 -0.369552
endloop
endfacet
facet normal 0.000000 0.000000 0.000000
outer loop
vertex 0.517158 0.000000 -0.282843
vertex 0.577772 0.000000 -0.332588
vertex 0.577772 0.000000 -0.332588
endloop
endfacet
facet normal 0.000000 0.000000 0.000000
outer loop
vertex 0.577772 0.000000 -0.332588
vertex 0.517158 0.000000 -0.282843
vertex 0.517158 0.000000 -0.282843
endloop
endfacet
facet normal 0.000000 0.000000 0.000000
outer loop
vertex 0.577772 0.000000 0.332588
vertex 0.517157 0.000000 0.282843
vertex 0.517157 0.000000 0.282843
endloop
endfacet
facet normal 0.000000 0.000000 0.000000
outer loop
vertex 0.517157 0.000000 0.282843
vertex 0.577772 0.000000 0.332588
vertex 0.577772 0.000000 0.332588
endloop
endfacet
facet normal 0.000000 0.000000 0.000000
outer loop
vertex 1.200000 0.000000 -0.000000
vertex 1.192314 0.000000 0.078036
vertex 1.192314 0.000000 0.078036
endloop
endfacet
facet normal 0.000000 0.000000 0.000000
outer loop
vertex 1.192314 0.000000 0.078036
vertex 1.200000 0.000000 -0.000000
vertex 1.200000 0.000000 -0.000000
endloop
endfacet
facet normal 0.000000 0.000000 0.000000
outer loop
vertex 0.430448 0.000000 0.153073
vertex 0.407686 0.000000 0.078036
vertex 0.407686 0.000000 0.078036
endloop
endfacet
facet normal 0.000000 0.000000 0.000000
outer loop
vertex 0.407686 0.000000 0.078036
vertex 0.430448 0.000000 0.153073
vertex 0.430448 0.000000 0.153073
endloop
endfacet
facet normal 0.000000 0.000000 0.000000
outer loop
vertex 1.132588 0.000000 0.222228
vertex 1.082843 0.000000 0.282843
vertex 1.082843 0.000000 0.282843
endloop
endfacet
facet normal 0.000000 0.000000 0.000000
outer loop
vertex 1.082843 0.000000 0.282843
vertex 1.132588 0.000000 0.222228
vertex 1.132588 0.000000 0.222228
endloop
endfacet
facet normal 0.000000 0.000000 0.000000
outer loop
vertex 0.407686 0.000000 -0.078037
vertex 0.430448 0.000000 -0.153074
vertex 0.430448 0.000000 -0.153074
endloop
endfacet
facet normal 0.000000 0.000000 0.000000
outer loop
vertex 0.430448 0.000000 -0.153074
vertex 0.407686 0.000000 -0.078037
vertex 0.407686 0.000000 -0.078037
endloop
endfacet
facet normal 0.000000 0.000000 0.000000
outer loop
vertex 1.022228 0.000000 -0.332588
vertex 1.082843 0.000000 -0.282843
vertex 1.082843 0.000000 -0.282843
endloop
endfacet
facet normal 0.000000 0.000000 0.000000
outer loop
vertex 1.082843 0.000000 -0.282843
vertex 1.022228 0.000000 -0.332588
vertex 1.022228 0.000000 -0.332588
endloop
endfacet
facet normal 0.000000 0.000000 0.000000
outer loop
vertex 0.953073 0.000000 0.369552
vertex 0.878036 0.000000 0.392314
vertex 0.878036 0.000000 0.392314
endloop
endfacet
facet normal 0.000000 0.000000 0.000000
outer loop
vertex 0.878036 0.000000 0.392314
vertex 0.953073 0.000000 0.369552
vertex 0.953073 0.000000 0.369552
endloop
endfacet
facet normal 0.000000 0.000000 0.000000
outer loop
vertex 0.517158 0.000000 -0.282843
vertex 0.577772 0.000000 -0.332588
vertex 0.577772 0.000000 -0.332588
endloop
endfacet
facet normal 0.000000 0.000000 0.000000
outer loop
vertex 0.577772 0.000000 -0.332588
vertex 0.517158 0.000000 -0.282843
vertex 0.517158 0.000000 -0.282843
endloop
endfacet
facet normal 0.000000 0.000000 0.000000
outer loop
vertex 0.721964 0.000000 0.392314
vertex 0.646926 0.000000 0.369552
vertex 0.646926 0.000000 0.369552
endloop
endfacet
facet normal 0.000000 0.000000 0.000000
outer loop
vertex 0.646926 0.000000 0.369552
vertex 0.721964 0.000000 0.392314
vertex 0.721964 0.000000 0.392314
endloop
endfacet
facet normal 0.000000 0.000000 0.000000
outer loop
vertex 1.169552 0.000000 -0.153073
vertex 1.192314 0.000000 -0.078036
vertex 1.192314 0.000000 -0.078036
endloop
endfacet
facet normal 0.000000 0.000000 0.000000
outer loop
vertex 1.192314 0.000000 -0.078036
vertex 1.169552 0.000000 -0.153073
vertex 1.169552 0.000000 -0.153073
endloop
endfacet
facet normal 0.000000 0.000000 0.000000
outer loop
vertex 0.721964 0.000000 -0.392314
vertex 0.800000 0.000000 -0.400000
vertex 0.800000 0.000000 -0.400000
endloop
endfacet
facet normal 0.000000 0.000000 0.000000
outer loop
vertex 0.800000 0.000000 -0.400000
vertex 0.721964 0.000000 -0.392314
vertex 0.721964 0.000000 -0.392314
endloop
endfacet
facet normal 0.000000 0.000000 0.000000
outer loop
vertex 0.517157 0.000000 0.282843
vertex 0.467412 0.000000 0.222228
vertex 0.467412 0.000000 0.222228
endloop
endfacet
facet normal 0.000000 0.000000 0.000000
outer loop
vertex 0.467412 0.000000 0.222228
vertex 0.517157 0.000000 0.282843
vertex 0.517157 0.000000 0.282843
endloop
endfacet
facet normal 0.000000 0.000000 0.000000
outer loop
vertex 1.192314 0.000000 0.078036
vertex 1.169552 0.000000 0.153073
vertex 1.169552 0.000000 0.153073
endloop
endfacet
facet normal 0.000000 0.000000 0.000000
outer loop
vertex 1.169552 0.000000 0.153073
vertex 1.192314 0.000000 0.078036
vertex 1.192314 0.000000 0.078036
endloop
endfacet
facet normal 0.000000 0.000000 0.000000
outer loop
vertex 0.407686 0.000000 0.078036
vertex 0.400000 0.000000 -0.000000
vertex 0.400000 0.000000 -0.000000
endloop
endfacet
facet normal 0.000000 0.000000 0.000000
outer loop
vertex 0.400000 0.000000 -0.000000
vertex 0.407686 0.000000 0.078036
vertex 0.407686 0.000000 0.078036
endloop
endfacet
facet normal 0.000000 0.000000 0.000000
outer loop
vertex 0.878036 0.000000 -0.392314
vertex 0.953073 0.000000 -0.369552
vertex 0.953073 0.000000 -0.369552
endloop
endfacet
facet normal 0.000000 0.000000 0.000000
outer loop
vertex 0.953073 0.000000 -0.369552
vertex 0.878036 0.000000 -0.392314
vertex 0.878036 0.000000 -0.392314
endloop
endfacet
facet normal 0.000000 0.000000 0.000000
outer loop
vertex 1.082843 0.000000 0.282843
vertex 1.022228 0.000000 0.332588
vertex 1.022228 0.000000 0.332588
endloop
endfacet
facet normal 0.000000 0.000000 0.000000
outer loop
vertex 1.022228 0.000000 0.332588
vertex 1.082843 0.000000 0.282843
vertex 1.082843 0.000000 0.282843
endloop
endfacet
facet normal 0.000000 0.000000 0.000000
outer loop
vertex 0.430448 0.000000 -0.153074
vertex 0.467412 0.000000 -0.222229
vertex 0.467412 0.000000 -0.222229
endloop
endfacet
facet normal 0.000000 0.000000 0.000000
outer loop
vertex 0.467412 0.000000 -0.222229
vertex 0.430448 0.000000 -0.153074
vertex 0.430448 0.000000 -0.153074
endloop
endfacet
facet normal 0.000000 0.000000 0.000000
outer loop
vertex 1.082843 0.000000 -0.282843
vertex 1.132588 0.000000 -0.222228
vertex 1.132588 0.000000 -0.222228
endloop
endfacet
facet normal 0.000000 0.000000 0.000000
outer loop
vertex 1.132588 0.000000 -0.222228
vertex 1.082843 0.000000 -0.282843
vertex 1.082843 0.000000 -0.282843
endloop
endfacet
facet normal 0.000000 0.000000 0.000000
outer loop
vertex 0.878036 0.000000 0.392314
vertex 0.800000 0.000000 0.400000
vertex 0.800000 0.000000 0.400000
endloop
endfacet
facet normal 0.000000 0.000000 0.000000
outer loop
vertex 0.800000 0.000000 0.400000
vertex 0.878036 0.000000 0.392314
vertex 0.878036 0.000000 0.392314
endloop
endfacet
facet normal 0.000000 0.000000 0.000000
outer loop
vertex 0.577772 0.000000 -0.332588
vertex 0.646927 0.000000 -0.369552
vertex 0.646927 0.000000 -0.369552
endloop
endfacet
facet normal 0.000000 0.000000 0.000000
outer loop
vertex 0.646927 0.000000 -0.369552
vertex 0.577772 0.000000 -0.332588
vertex 0.577772 0.000000 -0.332588
endloop
endfacet
facet normal 0.000000 0.000000 0.000000
outer loop
vertex 0.646926 0.000000 0.369552
vertex 0.577772 0.000000 0.332588
vertex 0.577772 0.000000 0.332588
endloop
endfacet
facet normal 0.000000 0.000000 0.000000
outer loop
vertex 0.577772 0.000000 0.332588
vertex 0.646926 0.000000 0.369552
vertex 0.646926 0.000000 0.369552
endloop
endfacet
facet normal 0.000000 0.000000 0.000000
outer loop
vertex 0.800000 0.000000 -0.400000
vertex 0.878036 0.000000 -0.392314
vertex 0.878036 0.000000 -0.392314
endloop
endfacet
facet normal 0.000000 0.000000 0.000000
outer loop
vertex 0.878036 0.000000 -0.392314
vertex 0.800000 0.000000 -0.400000
vertex 0.800000 0.000000 -0.400000
endloop
endfacet
facet normal 0.000000 0.000000 0.000000
outer loop
vertex 1.192314 0.000000 -0.078036
vertex 1.200000 0.000000 -0.000000
vertex 1.200000 0.000000 -0.000000
endloop
endfacet
facet normal 0.000000 0.000000 0.000000
outer loop
vertex 1.200000 0.000000 -0.000000
vertex 1.192314 0.000000 -0.078036
vertex 1.192314 0.000000 -0.078036
endloop
endfacet
facet normal 0.000000 0.000000 0.000000
outer loop
vertex 0.467412 0.000000 0.222228
vertex 0.430448 0.000000 0.153073
vertex 0.430448 0.000000 0.153073
endloop
endfacet
facet normal 0.000000 0.000000 0.000000
outer loop
vertex 0.430448 0.000000 0.153073
vertex 0.467412 0.000000 0.222228
vertex 0.467412 0.000000 0.222228
endloop
endfacet
facet normal 0.000000 0.000000 0.000000
outer loop
vertex 1.169552 0.000000 0.153073
vertex 1.132588 0.000000 0.222228
vertex 1.132588 0.000000 0.222228
endloop
endfacet
facet normal 0.000000 0.000000 0.000000
outer loop
vertex 1.132588 0.000000 0.222228
vertex 1.169552 0.000000 0.153073
vertex 1.169552 0.000000 0.153073
endloop
endfacet
facet normal 0.000000 0.000000 0.000000
outer loop
vertex 0.400000 0.000000 -0.000000
vertex 0.407686 0.000000 -0.078037
vertex 0.407686 0.000000 -0.078037
endloop
endfacet
facet normal 0.000000 0.000000 0.000000
outer loop
vertex 0.407686 0.000000 -0.078037
vertex 0.400000 0.000000 -0.000000
vertex 0.400000 0.000000 -0.000000
endloop
endfacet
facet normal 0.000000 0.000000 0.000000
outer loop
vertex 0.953073 0.000000 -0.369552
vertex 1.022228 0.000000 -0.332588
vertex 1.022228 0.000000 -0.332588
endloop
endfacet
facet normal 0.000000 0.000000 0.000000
outer loop
vertex 1.022228 0.000000 -0.332588
vertex 0.953073 0.000000 -0.369552
vertex 0.953073 0.000000 -0.369552
endloop
endfacet
facet normal 0.000000 0.000000 0.000000
outer loop
vertex 1.022228 0.000000 0.332588
vertex 0.953073 0.000000 0.369552
vertex 0.953073 0.000000 0.369552
endloop
endfacet
facet normal 0.000000 0.000000 0.000000
outer loop
vertex 0.953073 0.000000 0.369552
vertex 1.022228 0.000000 0.332588
vertex 1.022228 0.000000 0.332588
endloop
endfacet
facet normal 0.000000 0.000000 0.000000
outer loop
vertex 0.467412 0.000000 -0.222229
vertex 0.517158 0.000000 -0.282843
vertex 0.517158 0.000000 -0.282843
endloop
endfacet
facet normal 0.000000 0.000000 0.000000
outer loop
vertex 0.517158 0.000000 -0.282843
vertex 0.467412 0.000000 -0.222229
vertex 0.467412 0.000000 -0.222229
endloop
endfacet
facet normal 0.000000 0.000000 0.000000
outer loop
vertex 0.800000 0.000000 0.400000
vertex 0.721964 0.000000 0.392314
vertex 0.721964 0.000000 0.392314
endloop
endfacet
facet normal 0.000000 0.000000 0.000000
outer loop
vertex 0.721964 0.000000 0.392314
vertex 0.800000 0.000000 0.400000
vertex 0.800000 0.000000 0.400000
endloop
endfacet
facet normal 0.000000 0.000000 0.000000
outer loop
vertex 1.132588 0.000000 -0.222228
vertex 1.169552 0.000000 -0.153073
vertex 1.169552 0.000000 -0.153073
endloop
endfacet
facet normal 0.000000 0.000000 0.000000
outer loop
vertex 1.169552 0.000000 -0.153073
vertex 1.132588 0.000000 -0.222228
vertex 1.132588 0.000000 -0.222228
endloop
endfacet
facet normal 0.000000 0.000000 0.000000
outer loop
vertex 0.646927 0.000000 -0.369552
vertex 0.721964 0.000000 -0.392314
vertex 0.721964 0.000000 -0.392314
endloop
endfacet
facet normal 0.000000 0.000000 0.000000
outer loop
vertex 0.721964 0.000000 -0.392314
vertex 0.646927 0.000000 -0.369552
vertex 0.646927 0.000000 -0.369552
endloop
endfacet
facet normal 0.000000 0.000000 0.000000
outer loop
vertex 0.721964 0.000000 0.392314
vertex 0.646926 0.000000 0.369552
vertex 0.646926 0.000000 0.369552
endloop
endfacet
facet normal 0.000000 0.000000 0.000000
outer loop
vertex 0.646926 0.000000 0.369552
vertex 0.721964 0.000000 0.392314
vertex 0.721964 0.000000 0.392314
endloop
endfacet
facet normal 0.000000 0.000000 0.000000
outer loop
vertex 1.169552 0.000000 -0.153073
vertex 1.192314 0.000000 -0.078036
vertex 1.192314 0.000000 -0.078036
endloop
endfacet
facet normal 0.000000 0.000000 0.000000
outer loop
vertex 1.192314 0.000000 -0.078036
vertex 1.169552 0.000000 -0.153073
vertex 1.169552 0.000000 -0.153073
endloop
endfacet
facet normal 0.000000 0.000000 0.000000
outer loop
vertex 0.430448 0.000000 -0.153074
vertex 0.467412 0.000000 -0.222229
vertex 0.467412 0.000000 -0.222229
endloop
endfacet
facet normal 0.000000 0.000000 0.000000
outer loop
vertex 0.467412 0.000000 -0.222229
vertex 0.430448 0.000000 -0.153074
vertex 0.430448 0.000000 -0.153074
endloop
endfacet
facet normal 0.000000 0.000000 0.000000
outer loop
vertex 1.082843 0.000000 -0.282843
vertex 1.132588 0.000000 -0.222228
vertex 1.132588 0.000000 -0.222228
endloop
endfacet
facet normal 0.000000 0.000000 0.000000
outer loop
vertex 1.132588 0.000000 -0.222228
vertex 1.082843 0.000000 -0.282843
vertex 1.082843 0.000000 -0.282843
endloop
endfacet
facet normal 0.000000 0.000000 0.000000
outer loop
vertex 0.878036 0.000000 0.392314
vertex 0.800000 0.000000 0.400000
vertex 0.800000 0.000000 0.400000
endloop
endfacet
facet normal 0.000000 0.000000 0.000000
outer loop
vertex 0.800000 0.000000 0.400000
vertex 0.878036 0.000000 0.392314
vertex 0.878036 0.000000 0.392314
endloop
endfacet
facet normal 0.000000 0.000000 0.000000
outer loop
vertex 0.400000 0.000000 -0.000000
vertex 0.407686 0.000000 -0.078037
vertex 0.407686 0.000000 -0.078037
endloop
endfacet
facet normal 0.000000 0.000000 0.000000
outer loop
vertex 0.407686 0.000000 -0.078037
vertex 0.400000 0.000000 -0.000000
vertex 0.400000 0.000000 -0.000000
endloop
endfacet
facet normal 0.000000 0.000000 0.000000
outer loop
vertex 0.953073 0.000000 -0.369552
vertex 1.022228 0.000000 -0.332588
vertex 1.022228 0.000000 -0.332588
endloop
endfacet
facet normal 0.000000 0.000000 0.000000
outer loop
vertex 1.022228 0.000000 -0.332588
vertex 0.953073 0.000000 -0.369552
vertex 0.953073 0.000000 -0.369552
endloop
endfacet
facet normal 0.000000 0.000000 0.000000
outer loop
vertex 1.022228 0.000000 0.332588
vertex 0.953073 0.000000 0.369552
vertex 0.953073 0.000000 0.369552
endloop
endfacet
facet normal 0.000000 0.000000 0.000000
outer loop
vertex 0.953073 0.000000 0.369552
vertex 1.022228 0.000000 0.332588
vertex 1.022228 0.000000 0.332588
endloop
endfacet
facet normal 0.000000 0.000000 0.000000
outer loop
vertex 0.430448 0.000000 0.153073
vertex 0.407686 0.000000 0.078036
vertex 0.407686 0.000000 0.078036
endloop
endfacet
facet normal 0.000000 0.000000 0.000000
outer loop
vertex 0.407686 0.000000 0.078036
vertex 0.430448 0.000000 0.153073
vertex 0.430448 0.000000 0.153073
endloop
endfacet
facet normal 0.000000 0.000000 0.000000
outer loop
vertex 0.800000 0.000000 -0.400000
vertex 0.878036 0.000000 -0.392314
vertex 0.878036 0.000000 -0.392314
endloop
endfacet
facet normal 0.000000 0.000000 0.000000
outer loop
vertex 0.878036 0.000000 -0.392314
vertex 0.800000 0.000000 -0.400000
vertex 0.800000 0.000000 -0.400000
endloop
endfacet
facet normal 0.000000 0.000000 0.000000
outer loop
vertex 1.132588 0.000000 0.222228
vertex 1.082843 0.000000 0.282843
vertex 1.082843 0.000000 0.282843
endloop
endfacet
facet normal 0.000000 0.000000 0.000000
outer loop
vertex 1.082843 0.000000 0.282843
vertex 1.132588 0.000000 0.222228
vertex 1.132588 0.000000 0.222228
endloop
endfacet
facet normal 0.000000 0.000000 0.000000
outer loop
vertex 0.721964 0.000000 -0.392314
vertex 0.800000 0.000000 -0.400000
vertex 0.800000 0.000000 -0.400000
endloop
endfacet
facet normal 0.000000 0.000000 0.000000
outer loop
vertex 0.800000 0.000000 -0.400000
vertex 0.721964 0.000000 -0.392314
vertex 0.721964 0.000000 -0.392314
endloop
endfacet
facet normal 0.000000 0.000000 0.000000
outer loop
vertex 0.517157 0.000000 0.282843
vertex 0.467412 0.000000 0.222228
vertex 0.467412 0.000000 0.222228
endloop
endfacet
facet normal 0.000000 0.000000 0.000000
outer loop
vertex 0.467412 0.000000 0.222228
vertex 0.517157 0.000000 0.282843
vertex 0.517157 0.000000 0.282843
endloop
endfacet
facet normal 0.000000 0.000000 0.000000
outer loop
vertex 1.192314 0.000000 0.078036
vertex 1.169552 0.000000 0.153073
vertex 1.169552 0.000000 0.153073
endloop
endfacet
facet normal 0.000000 0.000000 0.000000
outer loop
vertex 1.169552 0.000000 0.153073
vertex 1.192314 0.000000 0.078036
vertex 1.192314 0.000000 0.078036
endloop
endfacet
facet normal 0.000000 0.000000 0.000000
outer loop
vertex 0.577772 0.000000 -0.332588
vertex 0.646927 0.000000 -0.369552
vertex 0.646927 0.000000 -0.369552
endloop
endfacet
facet normal 0.000000 0.000000 0.000000
outer loop
vertex 0.646927 0.000000 -0.369552
vertex 0.577772 0.000000 -0.332588
vertex 0.577772 0.000000 -0.332588
endloop
endfacet
facet normal 0.000000 0.000000 0.000000
outer loop
vertex 0.646926 0.000000 0.369552
vertex 0.577772 0.000000 0.332588
vertex 0.577772 0.000000 0.332588
endloop
endfacet
facet normal 0.000000 0.000000 0.000000
outer loop
vertex 0.577772 0.000000 0.332588
vertex 0.646926 0.000000 0.369552
vertex 0.646926 0.000000 0.369552
endloop
endfacet
facet normal 0.000000 0.000000 0.000000
outer loop
vertex 1.192314 0.000000 -0.078036
vertex 1.200000 0.000000 -0.000000
vertex 1.200000 0.000000 -0.000000
endloop
endfacet
facet normal 0.000000 0.000000 0.000000
outer loop
vertex 1.200000 0.000000 -0.000000
vertex 1.192314 0.000000 -0.078036
vertex 1.192314 0.000000 -0.078036
endloop
endfacet
facet normal 0.000000 0.000000 0.000000
outer loop
vertex 0.467412 0.000000 -0.222229
vertex 0.517158 0.000000 -0.282843
vertex 0.517158 0.000000 -0.282843
endloop
endfacet
facet normal 0.000000 0.000000 0.000000
outer loop
vertex 0.517158 0.000000 -0.282843
vertex 0.467412 0.000000 -0.222229
vertex 0.467412 0.000000 -0.222229
endloop
endfacet
facet normal 0.000000 0.000000 0.000000
outer loop
vertex 0.800000 0.000000 0.400000
vertex 0.721964 0.000000 0.392314
vertex 0.721964 0.000000 0.392314
endloop
endfacet
facet normal 0.000000 0.000000 0.000000
outer loop
vertex 0.721964 0.000000 0.392314
vertex 0.800000 0.000000 0.400000
vertex 0.800000 0.000000 0.400000
endloop
endfacet
facet normal 0.000000 0.000000 0.000000
outer loop
vertex 1.132588 0.000000 -0.222228
vertex 1.169552 0.000000 -0.153073
vertex 1.169552 0.000000 -0.153073
endloop
endfacet
facet normal 0.000000 0.000000 0.000000
outer loop
vertex 1.169552 0.000000 -0.153073
vertex 1.132588 0.000000 -0.222228
vertex 1.132588 0.000000 -0.222228
endloop
endfacet
facet normal 0.000000 0.000000 0.000000
outer loop
vertex 0.407686 0.000000 -0.078037
vertex 0.430448 0.000000 -0.153074
vertex 0.430448 0.000000 -0.153074
endloop
endfacet
facet normal 0.000000 0.000000 0.000000
outer loop
vertex 0.430448 0.000000 -0.153074
vertex 0.407686 0.000000 -0.078037
vertex 0.407686 0.000000 -0.078037
endloop
endfacet
facet normal 0.000000 0.000000 0.000000
outer loop
vertex 1.022228 0.000000 -0.332588
vertex 1.082843 0.000000 -0.282843
vertex 1.082843 0.000000 -0.282843
endloop
endfacet
facet normal 0.000000 0.000000 0.000000
outer loop
vertex 1.082843 0.000000 -0.282843
vertex 1.022228 0.000000 -0.332588
vertex 1.022228 0.000000 -0.332588
endloop
endfacet
facet normal 0.000000 0.000000 0.000000
outer loop
vertex 0.953073 0.000000 0.369552
vertex 0.878036 0.000000 0.392314
vertex 0.878036 0.000000 0.392314
endloop
endfacet
facet normal 0.000000 0.000000 0.000000
outer loop
vertex 0.878036 0.000000 0.392314
vertex 0.953073 0.000000 0.369552
vertex 0.953073 0.000000 0.369552
endloop
endfacet
facet normal 0.000000 0.000000 0.000000
outer loop
vertex 0.407686 0.000000 0.078036
vertex 0.400000 0.000000 -0.000000
vertex 0.400000 0.000000 -0.000000
endloop
endfacet
facet normal 0.000000 0.000000 0.000000
outer loop
vertex 0.400000 0.000000 -0.000000
vertex 0.407686 0.000000 0.078036
vertex 0.407686 0.000000 0.078036
endloop
endfacet
facet normal 0.000000 0.000000 0.000000
outer loop
vertex 0.878036 0.000000 -0.392314
vertex 0.953073 0.000000 -0.369552
vertex 0.953073 0.000000 -0.369552
endloop
endfacet
facet normal 0.000000 0.000000 0.000000
outer loop
vertex 0.953073 0.000000 -0.369552
vertex 0.878036 0.000000 -0.392314
vertex 0.878036 0.000000 -0.392314
endloop
endfacet
facet normal 0.000000 0.000000 0.000000
outer loop
vertex 1.082843 0.000000 0.282843
vertex 1.022228 0.000000 0.332588
vertex 1.022228 0.000000 0.332588
endloop
endfacet
facet normal 0.000000 0.000000 0.000000
outer loop
vertex 1.022228 0.000000 0.332588
vertex 1.082843 0.000000 0.282843
vertex 1.082843 0.000000 0.282843
endloop
endfacet
facet normal 0.000000 0.000000 0.000000
outer loop
vertex 0.467412 0.000000 0.222228
vertex 0.430448 0.000000 0.153073
vertex 0.430448 0.000000 0.153073
endloop
endfacet
facet normal 0.000000 0.000000 0.000000
outer loop
vertex 0.430448 0.000000 0.153073
vertex 0.467412 0.000000 0.222228
vertex 0.467412 0.000000 0.222228
endloop
endfacet
facet normal 0.000000 0.000000 0.000000
outer loop
vertex 1.169552 0.000000 0.153073
vertex 1.132588 0.000000 0.222228
vertex 1.132588 0.000000 0.222228
endloop
endfacet
facet normal 0.000000 0.000000 0.000000
outer loop
vertex 1.132588 0.000000 0.222228
vertex 1.169552 0.000000 0.153073
vertex 1.169552 0.000000 0.153073
endloop
endfacet
facet normal 0.000000 0.000000 0.000000
outer loop
vertex 0.646927 0.000000 -0.369552
vertex 0.721964 0.000000 -0.392314
vertex 0.721964 0.000000 -0.392314
endloop
endfacet
facet normal 0.000000 0.000000 0.000000
outer loop
vertex 0.721964 0.000000 -0.392314
vertex 0.646927 0.000000 -0.369552
vertex 0.646927 0.000000 -0.369552
endloop
endfacet
facet normal 0.000000 0.000000 0.000000
outer loop
vertex 0.577772 0.000000 0.332588
vertex 0.517157 0.000000 0.282843
vertex 0.517157 0.000000 0.282843
endloop
endfacet
facet normal 0.000000 0.000000 0.000000
outer loop
vertex 0.517157 0.000000 0.282843
vertex 0.577772 0.000000 0.332588
vertex 0.577772 0.000000 0.332588
endloop
endfacet
facet normal 0.000000 0.000000 0.000000
outer loop
vertex 1.200000 0.000000 -0.000000
vertex 1.192314 0.000000 0.078036
vertex 1.192314 0.000000 0.078036
endloop
endfacet
facet normal 0.000000 0.000000 0.000000
outer loop
vertex 1.192314 0.000000 0.078036
vertex 1.200000 0.000000 -0.000000
vertex 1.200000 0.000000 -0.000000
endloop
endfacet
facet normal 0.956941 0.000000 -0.290283
outer loop
vertex 0.430448 0.000000 0.153073
vertex 0.407686 0.000000 0.078036
vertex 0.407686 0.180000 0.078036
endloop
endfacet
facet normal 0.956941 0.000000 -0.290283
outer loop
vertex 0.407686 0.180000 0.078036
vertex 0.430448 0.180000 0.153073
vertex 0.430448 0.000000 0.153073
endloop
endfacet
facet normal 0.000000 0.000000 0.000000
outer loop
vertex 0.577772 0.000000 0.332588
vertex 0.517157 0.000000 0.282843
vertex 0.517157 0.000000 0.282843
endloop
endfacet
facet normal 0.000000 0.000000 0.000000
outer loop
vertex 0.517157 0.000000 0.282843
vertex 0.577772 0.000000 0.332588
vertex 0.577772 0.000000 0.332588
endloop
endfacet
facet normal 0.000000 0.000000 0.000000
outer loop
vertex 1.200000 0.000000 -0.000000
vertex 1.192314 0.000000 0.078036
vertex 1.192314 0.000000 0.078036
endloop
endfacet
facet normal 0.000000 0.000000 0.000000
outer loop
vertex 1.192314 0.000000 0.078036
vertex 1.200000 0.000000 -0.000000
vertex 1.200000 0.000000 -0.000000
endloop
endfacet
facet normal 0.000000 0.000000 0.000000
outer loop
vertex 0.517158 0.000000 -0.282843
vertex 0.577772 0.000000 -0.332588
vertex 0.577772 0.000000 -0.332588
endloop
endfacet
facet normal 0.000000 0.000000 0.000000
outer loop
vertex 0.577772 0.000000 -0.332588
vertex 0.517158 0.000000 -0.282843
vertex 0.517158 0.000000 -0.282843
endloop
endfacet
facet normal 0.000000 0.000000 0.000000
outer loop
vertex 0.721964 0.000000 0.392314
vertex 0.646926 0.000000 0.369552
vertex 0.646926 0.000000 0.369552
endloop
endfacet
facet normal 0.000000 0.000000 0.000000
outer loop
vertex 0.646926 0.000000 0.369552
vertex 0.721964 0.000000 0.392314
vertex 0.721964 0.000000 0.392314
endloop
endfacet
facet normal 0.000000 0.000000 0.000000
outer loop
vertex 1.169552 0.000000 -0.153073
vertex 1.192314 0.000000 -0.078036
vertex 1.192314 0.000000 -0.078036
endloop
endfacet
facet normal 0.000000 0.000000 0.000000
outer loop
vertex 1.192314 0.000000 -0.078036
vertex 1.169552 0.000000 -0.153073
vertex 1.169552 0.000000 -0.153073
endloop
endfacet
facet normal 0.000000 0.000000 0.000000
outer loop
vertex 0.430448 0.000000 -0.153074
vertex 0.467412 0.000000 -0.222229
vertex 0.467412 0.000000 -0.222229
endloop
endfacet
facet normal 0.000000 0.000000 0.000000
outer loop
vertex 0.467412 0.000000 -0.222229
vertex 0.430448 0.000000 -0.153074
vertex 0.430448 0.000000 -0.153074
endloop
endfacet
facet normal 0.000000 0.000000 0.000000
outer loop
vertex 1.082843 0.000000 -0.282843
vertex 1.132588 0.000000 -0.222228
vertex 1.132588 0.000000 -0.222228
endloop
endfacet
facet normal 0.000000 0.000000 0.000000
outer loop
vertex 1.132588 0.000000 -0.222228
vertex 1.082843 0.000000 -0.282843
vertex 1.082843 0.000000 -0.282843
endloop
endfacet
facet normal 0.000000 0.000000 0.000000
outer loop
vertex 0.878036 0.000000 0.392314
vertex 0.800000 0.000000 0.400000
vertex 0.800000 0.000000 0.400000
endloop
endfacet
facet normal 0.000000 0.000000 0.000000
outer loop
vertex 0.800000 0.000000 0.400000
vertex 0.878036 0.000000 0.392314
vertex 0.878036 0.000000 0.392314
endloop
endfacet
facet normal 0.000000 0.000000 0.000000
outer loop
vertex 0.400000 0.000000 -0.000000
vertex 0.407686 0.000000 -0.078037
vertex 0.407686 0.000000 -0.078037
endloop
endfacet
facet normal 0.000000 0.000000 0.000000
outer loop
vertex 0.407686 0.000000 -0.078037
vertex 0.400000 0.000000 -0.000000
vertex 0.400000 0.000000 -0.000000
endloop
endfacet
facet normal 0.000000 0.000000 0.000000
outer loop
vertex 0.953073 0.000000 -0.369552
vertex 1.022228 0.000000 -0.332588
vertex 1.022228 0.000000 -0.332588
endloop
endfacet
facet normal 0.000000 0.000000 0.000000
outer loop
vertex 1.022228 0.000000 -0.332588
vertex 0.953073 0.000000 -0.369552
vertex 0.953073 0.000000 -0.369552
endloop
endfacet
facet normal 0.000000 0.000000 0.000000
outer loop
vertex 1.022228 0.000000 0.332588
vertex 0.953073 0.000000 0.369552
vertex 0.953073 0.000000 0.369552
endloop
endfacet
facet normal 0.000000 0.000000 0.000000
outer loop
vertex 0.953073 0.000000 0.369552
vertex 1.022228 0.000000 0.332588
vertex 1.022228 0.000000 0.332588
endloop
endfacet
facet normal 0.000000 0.000000 0.000000
outer loop
vertex 0.430448 0.000000 0.153073
vertex 0.407686 0.000000 0.078036
vertex 0.407686 0.000000 0.078036
endloop
endfacet
facet normal 0.000000 0.000000 0.000000
outer loop
vertex 0.407686 0.000000 0.078036
vertex 0.430448 0.000000 0.153073
vertex 0.430448 0.000000 0.153073
endloop
endfacet
facet normal 0.000000 0.000000 0.000000
outer loop
vertex 0.800000 0.000000 -0.400000
vertex 0.878036 0.000000 -0.392314
vertex 0.878036 0.000000 -0.392314
endloop
endfacet
facet normal 0.000000 0.000000 0.000000
outer loop
vertex 0.878036 0.000000 -0.392314
vertex 0.800000 0.000000 -0.400000
vertex 0.800000 0.000000 -0.400000
endloop
endfacet
facet normal 0.000000 0.000000 0.000000
outer loop
vertex 1.132588 0.000000 0.222228
vertex 1.082843 0.000000 0.282843
vertex 1.082843 0.000000 0.282843
endloop
endfacet
facet normal 0.000000 0.000000 0.000000
outer loop
vertex 1.082843 0.000000 0.282843
vertex 1.132588 0.000000 0.222228
vertex 1.132588 0.000000 0.222228
endloop
endfacet
facet normal 0.000000 0.000000 0.000000
outer loop
vertex 0.721964 0.000000 -0.392314
vertex 0.800000 0.000000 -0.400000
vertex 0.800000 0.000000 -0.400000
endloop
endfacet
facet normal 0.000000 0.000000 0.000000
outer loop
vertex 0.800000 0.000000 -0.400000
vertex 0.721964 0.000000 -0.392314
vertex 0.721964 0.000000 -0.392314
endloop
endfacet
facet normal 0.000000 0.000000 0.000000
outer loop
vertex 0.517157 0.000000 0.282843
vertex 0.467412 0.000000 0.222228
vertex 0.467412 0.000000 0.222228
endloop
endfacet
facet normal 0.000000 0.000000 0.000000
outer loop
vertex 0.467412 0.000000 0.222228
vertex 0.517157 0.000000 0.282843
vertex 0.517157 0.000000 0.282843
endloop
endfacet
facet normal 0.000000 0.000000 0.000000
outer loop
vertex 1.192314 0.000000 0.078036
vertex 1.169552 0.000000 0.153073
vertex 1.169552 0.000000 0.153073
endloop
endfacet
facet normal 0.000000 0.000000 0.000000
outer loop
vertex 1.169552 0.000000 0.153073
vertex 1.192314 0.000000 0.078036
vertex 1.192314 0.000000 0.078036
endloop
endfacet
facet normal 0.000000 0.000000 0.000000
outer loop
vertex 0.577772 0.000000 -0.332588
vertex 0.646927 0.000000 -0.369552
vertex 0.646927 0.000000 -0.369552
endloop
endfacet
facet normal 0.000000 0.000000 0.000000
outer loop
vertex 0.646927 0.000000 -0.369552
vertex 0.577772 0.000000 -0.332588
vertex 0.577772 0.000000 -0.332588
endloop
endfacet
facet normal 0.000000 0.000000 0.000000
outer loop
vertex 0.646926 0.000000 0.369552
vertex 0.577772 0.000000 0.332588
vertex 0.577772 0.000000 0.332588
endloop
endfacet
facet normal 0.000000 0.000000 0.000000
outer loop
vertex 0.577772 0.000000 0.332588
vertex 0.646926 0.000000 0.369552
vertex 0.646926 0.000000 0.369552
endloop
endfacet
facet normal 0.000000 0.000000 0.000000
outer loop
vertex 1.192314 0.000000 -0.078036
vertex 1.200000 0.000000 -0.000000
vertex 1.200000 0.000000 -0.000000
endloop
endfacet
facet normal 0.000000 0.000000 0.000000
outer loop
vertex 1.200000 0.000000 -0.000000
vertex 1.192314 0.000000 -0.078036
vertex 1.192314 0.000000 -0.078036
endloop
endfacet
facet normal 0.000000 0.000000 0.000000
outer loop
vertex 0.467412 0.000000 -0.222229
vertex 0.517158 0.000000 -0.282843
vertex 0.517158 0.000000 -0.282843
endloop
endfacet
facet normal 0.000000 0.000000 0.000000
outer loop
vertex 0.517158 0.000000 -0.282843
vertex 0.467412 0.000000 -0.222229
vertex 0.467412 0.000000 -0.222229
endloop
endfacet
facet normal 0.000000 0.000000 0.000000
outer loop
vertex 0.800000 0.000000 0.400000
vertex 0.721964 0.000000 0.392314
vertex 0.721964 0.000000 0.392314
endloop
endfacet
facet normal 0.000000 0.000000 0.000000
outer loop
vertex 0.721964 0.000000 0.392314
vertex 0.800000 0.000000 0.400000
vertex 0.800000 0.000000 0.400000
endloop
endfacet
facet normal 0.000000 0.000000 0.000000
outer loop
vertex 1.132588 0.000000 -0.222228
vertex 1.169552 0.000000 -0.153073
vertex 1.169552 0.000000 -0.153073
endloop
endfacet
facet normal 0.000000 0.000000 0.000000
outer loop
vertex 1.169552 0.000000 -0.153073
vertex 1.132588 0.000000 -0.222228
vertex 1.132588 0.000000 -0.222228
endloop
endfacet
facet normal 0.000000 0.000000 0.000000
outer loop
vertex 0.407686 0.000000 -0.078037
vertex 0.430448 0.000000 -0.153074
vertex 0.430448 0.000000 -0.153074
endloop
endfacet
facet normal 0.000000 0.000000 0.000000
outer loop
vertex 0.430448 0.000000 -0.153074
vertex 0.407686 0.000000 -0.078037
vertex 0.407686 0.000000 -0.078037
endloop
endfacet
facet normal 0.000000 0.000000 0.000000
outer loop
vertex 1.022228 0.000000 -0.332588
vertex 1.082843 0.000000 -0.282843
vertex 1.082843 0.000000 -0.282843
endloop
endfacet
facet normal 0.000000 0.000000 0.000000
outer loop
vertex 1.082843 0.000000 -0.282843
vertex 1.022228 0.000000 -0.332588
vertex 1.022228 0.000000 -0.332588
endloop
endfacet
facet normal 0.000000 0.000000 0.000000
outer loop
vertex 0.953073 0.000000 0.369552
vertex 0.878036 0.000000 0.392314
vertex 0.878036 0.000000 0.392314
endloop
endfacet
facet normal 0.000000 0.000000 0.000000
outer loop
vertex 0.878036 0.000000 0.392314
vertex 0.953073 0.000000 0.369552
vertex 0.953073 0.000000 0.369552
endloop
endfacet
facet normal 0.000000 0.000000 0.000000
outer loop
vertex 0.407686 0.000000 0.078036
vertex 0.400000 0.000000 -0.000000
vertex 0.400000 0.000000 -0.000000
endloop
endfacet
facet normal 0.000000 0.000000 0.000000
outer loop
vertex 0.400000 0.000000 -0.000000
vertex 0.407686 0.000000 0.078036
vertex 0.407686 0.000000 0.078036
endloop
endfacet
facet normal 0.000000 0.000000 0.000000
outer loop
vertex 0.878036 0.000000 -0.392314
vertex 0.953073 0.000000 -0.369552
vertex 0.953073 0.000000 -0.369552
endloop
endfacet
facet normal 0.000000 0.000000 0.000000
outer loop
vertex 0.953073 0.000000 -0.369552
vertex 0.878036 0.000000 -0.392314
vertex 0.878036 0.000000 -0.392314
endloop
endfacet
facet normal 0.000000 0.000000 0.000000
outer loop
vertex 1.082843 0.000000 0.282843
vertex 1.022228 0.000000 0.332588
vertex 1.022228 0.000000 0.332588
endloop
endfacet
facet normal 0.000000 0.000000 0.000000
outer loop
vertex 1.022228 0.000000 0.332588
vertex 1.082843 0.000000 0.282843
vertex 1.082843 0.000000 0.282843
endloop
endfacet
facet normal 0.000000 0.000000 0.000000
outer loop
vertex 0.467412 0.000000 0.222228
vertex 0.430448 0.000000 0.153073
vertex 0.430448 0.000000 0.153073
endloop
endfacet
facet normal 0.000000 0.000000 0.000000
outer loop
vertex 0.430448 0.000000 0.153073
vertex 0.467412 0.000000 0.222228
vertex 0.467412 0.000000 0.222228
endloop
endfacet
facet normal 0.000000 0.000000 0.000000
outer loop
vertex 1.169552 0.000000 0.153073
vertex 1.132588 0.000000 0.222228
vertex 1.132588 0.000000 0.222228
endloop
endfacet
facet normal 0.000000 0.000000 0.000000
outer loop
vertex 1.132588 0.000000 0.222228
vertex 1.169552 0.000000 0.153073
vertex 1.169552 0.000000 0.153073
endloop
endfacet
facet normal 0.098017 0.000000 -0.995185
outer loop
vertex 0.800000 0.000000 -0.260000
vertex 0.800000 0.180000 -0.260000
vertex 0.850724 0.180000 -0.255004
endloop
endfacet
facet normal 0.098017 0.000000 -0.995185
outer loop
vertex 0.850724 0.180000 -0.255004
vertex 0.850724 0.000000 -0.255004
vertex 0.800000 0.000000 -0.260000
endloop
endfacet
facet normal 0.290285 0.000000 -0.956940
outer loop
vertex 0.850724 0.000000 -0.255004
vertex 0.850724 0.180000 -0.255004
vertex 0.899498 0.180000 -0.240209
endloop
endfacet
facet normal 0.290285 0.000000 -0.956940
outer loop
vertex 0.899498 0.180000 -0.240209
vertex 0.899498 0.000000 -0.240209
vertex 0.850724 0.000000 -0.255004
endloop
endfacet
facet normal 0.471397 0.000000 -0.881921
outer loop
vertex 0.899498 0.000000 -0.240209
vertex 0.899498 0.180000 -0.240209
vertex 0.944448 0.180000 -0.216182
endloop
endfacet
facet normal 0.471396 0.000000 -0.881922
outer loop
vertex 0.944448 0.180000 -0.216182
vertex 0.944448 0.000000 -0.216182
vertex 0.899498 0.000000 -0.240209
endloop
endfacet
facet normal 0.634394 0.000000 -0.773010
outer loop
vertex 0.944448 0.000000 -0.216182
vertex 0.944448 0.180000 -0.216182
vertex 0.983848 0.180000 -0.183848
endloop
endfacet
facet normal 0.634394 0.000000 -0.773010
outer loop
vertex 0.983848 0.180000 -0.183848
vertex 0.983848 0.000000 -0.183848
vertex 0.944448 0.000000 -0.216182
endloop
endfacet
facet normal 0.773010 0.000000 -0.634393
outer loop
vertex 0.983848 0.000000 -0.183848
vertex 0.983848 0.180000 -0.183848
vertex 1.016182 0.180000 -0.144448
endloop
endfacet
facet normal 0.773011 0.000000 -0.634393
outer loop
vertex 1.016182 0.180000 -0.144448
vertex 1.016182 0.000000 -0.144448
vertex 0.983848 0.000000 -0.183848
endloop
endfacet
facet normal 0.881921 0.000000 -0.471398
outer loop
vertex 1.016182 0.000000 -0.144448
vertex 1.016182 0.180000 -0.144448
vertex 1.040209 0.180000 -0.099498
endloop
endfacet
facet normal 0.881921 0.000000 -0.471398
outer loop
vertex 1.040209 0.180000 -0.099498
vertex 1.040209 0.000000 -0.099498
vertex 1.016182 0.000000 -0.144448
endloop
endfacet
facet normal 0.956941 0.000000 -0.290284
outer loop
vertex 1.040209 0.000000 -0.099498
vertex 1.040209 0.180000 -0.099498
vertex 1.055004 0.180000 -0.050723
endloop
endfacet
facet normal 0.956941 0.000000 -0.290283
outer loop
vertex 1.055004 0.180000 -0.050723
vertex 1.055004 0.000000 -0.050723
vertex 1.040209 0.000000 -0.099498
endloop
endfacet
facet normal 0.995185 0.000000 -0.098017
outer loop
vertex 1.055004 0.000000 -0.050723
vertex 1.055004 0.180000 -0.050723
vertex 1.060000 0.180000 -0.000000
endloop
endfacet
facet normal 0.995185 0.000000 -0.098017
outer loop
vertex 1.060000 0.180000 -0.000000
vertex 1.060000 0.000000 -0.000000
vertex 1.055004 0.000000 -0.050723
endloop
endfacet
facet normal 0.995185 0.000000 0.098017
outer loop
vertex 1.060000 0.000000 -0.000000
vertex 1.060000 0.180000 -0.000000
vertex 1.055004 0.180000 0.050723
endloop
endfacet
facet normal 0.995185 0.000000 0.098017
outer loop
vertex 1.055004 0.180000 0.050723
vertex 1.055004 0.000000 0.050723
vertex 1.060000 0.000000 -0.000000
endloop
endfacet
facet normal 0.956941 0.000000 0.290284
outer loop
vertex 1.055004 0.000000 0.050723
vertex 1.055004 0.180000 0.050723
vertex 1.040209 0.180000 0.099498
endloop
endfacet
facet normal 0.956941 0.000000 0.290283
outer loop
vertex 1.040209 0.180000 0.099498
vertex 1.040209 0.000000 0.099498
vertex 1.055004 0.000000 0.050723
endloop
endfacet
facet normal 0.881921 0.000000 0.471397
outer loop
vertex 1.040209 0.000000 0.099498
vertex 1.040209 0.180000 0.099498
vertex 1.016182 0.180000 0.144448
endloop
endfacet
facet normal 0.881921 0.000000 0.471397
outer loop
vertex 1.016182 0.180000 0.144448
vertex 1.016182 0.000000 0.144448
vertex 1.040209 0.000000 0.099498
endloop
endfacet
facet normal 0.773011 0.000000 0.634393
outer loop
vertex 1.016182 0.000000 0.144448
vertex 1.016182 0.180000 0.144448
vertex 0.983848 0.180000 0.183848
endloop
endfacet
facet normal 0.773010 0.000000 0.634393
outer loop
vertex 0.983848 0.180000 0.183848
vertex 0.983848 0.000000 0.183848
vertex 1.016182 0.000000 0.144448
endloop
endfacet
facet normal 0.634394 0.000000 0.773010
outer loop
vertex 0.983848 0.000000 0.183848
vertex 0.983848 0.180000 0.183848
vertex 0.944448 0.180000 0.216182
endloop
endfacet
facet normal 0.634394 0.000000 0.773010
outer loop
vertex 0.944448 0.180000 0.216182
vertex 0.944448 0.000000 0.216182
vertex 0.983848 0.000000 0.183848
endloop
endfacet
facet normal 0.471397 0.000000 0.881921
outer loop
vertex 0.944448 0.000000 0.216182
vertex 0.944448 0.180000 0.216182
vertex 0.899498 0.180000 0.240209
endloop
endfacet
facet normal 0.471397 0.000000 0.881921
outer loop
vertex 0.899498 0.180000 0.240209
vertex 0.899498 0.000000 0.240209
vertex 0.944448 0.000000 0.216182
endloop
endfacet
facet normal 0.290284 0.000000 0.956941
outer loop
vertex 0.899498 0.000000 0.240209
vertex 0.899498 0.180000 0.240209
vertex 0.850723 0.180000 0.255004
endloop
endfacet
facet normal 0.290285 0.000000 0.956940
outer loop
vertex 0.850723 0.180000 0.255004
vertex 0.850723 0.000000 0.255004
vertex 0.899498 0.000000 0.240209
endloop
endfacet
facet normal 0.098017 0.000000 0.995185
outer loop
vertex 0.850723 0.000000 0.255004
vertex 0.850723 0.180000 0.255004
vertex 0.800000 0.180000 0.260000
endloop
endfacet
facet normal 0.098017 0.000000 0.995185
outer loop
vertex 0.800000 0.180000 0.260000
vertex 0.800000 0.000000 0.260000
vertex 0.850723 0.000000 0.255004
endloop
endfacet
facet normal -0.098017 0.000000 0.995185
outer loop
vertex 0.800000 0.000000 0.260000
vertex 0.800000 0.180000 0.260000
vertex 0.749276 0.180000 0.255004
endloop
endfacet
facet normal -0.098018 0.000000 0.995185
outer loop
vertex 0.749276 0.180000 0.255004
vertex 0.749276 0.000000 0.255004
vertex 0.800000 0.000000 0.260000
endloop
endfacet
facet normal -0.290285 0.000000 0.956940
outer loop
vertex 0.749276 0.000000 0.255004
vertex 0.749276 0.180000 0.255004
vertex 0.700502 0.180000 0.240209
endloop
endfacet
facet normal -0.290285 0.000000 0.956940
outer loop
vertex 0.700502 0.180000 0.240209
vertex 0.700502 0.000000 0.240209
vertex 0.749276 0.000000 0.255004
endloop
endfacet
facet normal -0.471397 0.000000 0.881921
outer loop
vertex 0.700502 0.000000 0.240209
vertex 0.700502 0.180000 0.240209
vertex 0.655552 0.180000 0.216182
endloop
endfacet
facet normal -0.471397 0.000000 0.881921
outer loop
vertex 0.655552 0.180000 0.216182
vertex 0.655552 0.000000 0.216182
vertex 0.700502 0.000000 0.240209
endloop
endfacet
facet normal -0.634394 0.000000 0.773010
outer loop
vertex 0.655552 0.000000 0.216182
vertex 0.655552 0.180000 0.216182
vertex 0.616152 0.180000 0.183848
endloop
endfacet
facet normal -0.634394 0.000000 0.773010
outer loop
vertex 0.616152 0.180000 0.183848
vertex 0.616152 0.000000 0.183848
vertex 0.655552 0.000000 0.216182
endloop
endfacet
facet normal -0.773011 0.000000 0.634393
outer loop
vertex 0.616152 0.000000 0.183848
vertex 0.616152 0.180000 0.183848
vertex 0.583818 0.180000 0.144448
endloop
endfacet
facet normal -0.773011 0.000000 0.634393
outer loop
vertex 0.583818 0.180000 0.144448
vertex 0.583818 0.000000 0.144448
vertex 0.616152 0.000000 0.183848
endloop
endfacet
facet normal -0.881922 0.000000 0.471396
outer loop
vertex 0.583818 0.000000 0.144448
vertex 0.583818 0.180000 0.144448
vertex 0.559791 0.180000 0.099497
endloop
endfacet
facet normal -0.881921 0.000000 0.471396
outer loop
vertex 0.559791 0.180000 0.099497
vertex 0.559791 0.000000 0.099497
vertex 0.583818 0.000000 0.144448
endloop
endfacet
facet normal -0.956940 0.000000 0.290284
outer loop
vertex 0.559791 0.000000 0.099497
vertex 0.559791 0.180000 0.099497
vertex 0.544996 0.180000 0.050723
endloop
endfacet
facet normal -0.956940 0.000000 0.290284
outer loop
vertex 0.544996 0.180000 0.050723
vertex 0.544996 0.000000 0.050723
vertex 0.559791 0.000000 0.099497
endloop
endfacet
facet normal -0.995185 0.000000 0.098016
outer loop
vertex 0.544996 0.000000 0.050723
vertex 0.544996 0.180000 0.050723
vertex 0.540000 0.180000 -0.000000
endloop
endfacet
facet normal -0.995185 0.000000 0.098016
outer loop
vertex 0.540000 0.180000 -0.000000
vertex 0.540000 0.000000 -0.000000
vertex 0.544996 0.000000 0.050723
endloop
endfacet
facet normal -0.995185 0.000000 -0.098018
outer loop
vertex 0.540000 0.000000 -0.000000
vertex 0.540000 0.180000 -0.000000
vertex 0.544996 0.180000 -0.050724
endloop
endfacet
facet normal -0.995185 0.000000 -0.098018
outer loop
vertex 0.544996 0.180000 -0.050724
vertex 0.544996 0.000000 -0.050724
vertex 0.540000 0.000000 -0.000000
endloop
endfacet
facet normal -0.956940 0.000000 -0.290286
outer loop
vertex 0.544996 0.000000 -0.050724
vertex 0.544996 0.180000 -0.050724
vertex 0.559791 0.180000 -0.099498
endloop
endfacet
facet normal -0.956940 0.000000 -0.290286
outer loop
vertex 0.559791 0.180000 -0.099498
vertex 0.559791 0.000000 -0.099498
vertex 0.544996 0.000000 -0.050724
endloop
endfacet
facet normal -0.881921 0.000000 -0.471398
outer loop
vertex 0.559791 0.000000 -0.099498
vertex 0.559791 0.180000 -0.099498
vertex 0.583818 0.180000 -0.144449
endloop
endfacet
facet normal -0.881921 0.000000 -0.471398
outer loop
vertex 0.583818 0.180000 -0.144449
vertex 0.583818 0.000000 -0.144449
vertex 0.559791 0.000000 -0.099498
endloop
endfacet
facet normal -0.773009 0.000000 -0.634395
outer loop
vertex 0.583818 0.000000 -0.144449
vertex 0.583818 0.180000 -0.144449
vertex 0.616153 0.180000 -0.183848
endloop
endfacet
facet normal -0.773009 0.000000 -0.634395
outer loop
vertex 0.616153 0.180000 -0.183848
vertex 0.616153 0.000000 -0.183848
vertex 0.583818 0.000000 -0.144449
endloop
endfacet
facet normal -0.634393 0.000000 -0.773011
outer loop
vertex 0.616153 0.000000 -0.183848
vertex 0.616153 0.180000 -0.183848
vertex 0.655552 0.180000 -0.216182
endloop
endfacet
facet normal -0.634393 0.000000 -0.773011
outer loop
vertex 0.655552 0.180000 -0.216182
vertex 0.655552 0.000000 -0.216182
vertex 0.616153 0.000000 -0.183848
endloop
endfacet
facet normal -0.471395 0.000000 -0.881922
outer loop
vertex 0.655552 0.000000 -0.216182
vertex 0.655552 0.180000 -0.216182
vertex 0.700503 0.180000 -0.240209
endloop
endfacet
facet normal -0.471395 0.000000 -0.881922
outer loop
vertex 0.700503 0.180000 -0.240209
vertex 0.700503 0.000000 -0.240209
vertex 0.655552 0.000000 -0.216182
endloop
endfacet
facet normal 0.000000 1.000000 -0.000004
outer loop
vertex 0.850724 0.180000 -0.255004
vertex 0.944448 0.180000 -0.216182
vertex 0.899498 0.180000 -0.240209
endloop
endfacet
facet normal 0.000000 1.000000 0.000000
outer loop
vertex 1.016182 0.180000 -0.144448
vertex 0.983848 0.180000 -0.183848
vertex 0.944448 0.180000 -0.216182
endloop
endfacet
facet normal 0.000000 1.000000 0.000000
outer loop
vertex 1.055004 0.180000 -0.050723
vertex 1.040209 0.180000 -0.099498
vertex 1.016182 0.180000 -0.144448
endloop
endfacet
facet normal 0.000000 1.000000 0.000000
outer loop
vertex 1.055004 0.180000 0.050723
vertex 1.060000 0.180000 -0.000000
vertex 1.055004 0.180000 -0.050723
endloop
endfacet
facet normal 0.000000 1.000000 0.000001
outer loop
vertex 1.016182 0.180000 0.144448
vertex 1.040209 0.180000 0.099498
vertex 1.055004 0.180000 0.050723
endloop
endfacet
facet normal 0.000000 1.000000 -0.000002
outer loop
vertex 0.944448 0.180000 0.216182
vertex 0.983848 0.180000 0.183848
vertex 1.016182 0.180000 0.144448
endloop
endfacet
facet normal 0.000000 1.000000 0.000004
outer loop
vertex 0.850723 0.180000 0.255004
vertex 0.899498 0.180000 0.240209
vertex 0.944448 0.180000 0.216182
endloop
endfacet
facet normal 0.000000 1.000000 0.000004
outer loop
vertex 0.749276 0.180000 0.255004
vertex 0.800000 0.180000 0.260000
vertex 0.850723 0.180000 0.255004
endloop
endfacet
facet normal 0.000000 1.000000 0.000004
outer loop
vertex 0.655552 0.180000 0.216182
vertex 0.700502 0.180000 0.240209
vertex 0.749276 0.180000 0.255004
endloop
endfacet
facet normal 0.000000 1.000000 0.000000
outer loop
vertex 0.583818 0.180000 0.144448
vertex 0.616152 0.180000 0.183848
vertex 0.655552 0.180000 0.216182
endloop
endfacet
facet normal 0.000000 1.000000 0.000002
outer loop
vertex 0.544996 0.180000 0.050723
vertex 0.559791 0.180000 0.099497
vertex 0.583818 0.180000 0.144448
endloop
endfacet
facet normal 0.000000 1.000000 0.000000
outer loop
vertex 0.544996 0.180000 -0.050724
vertex 0.540000 0.180000 -0.000000
vertex 0.544996 0.180000 0.050723
endloop
endfacet
facet normal 0.000000 1.000000 -0.000001
outer loop
vertex 0.583818 0.180000 -0.144449
vertex 0.559791 0.180000 -0.099498
vertex 0.544996 0.180000 -0.050724
endloop
endfacet
facet normal 0.000000 1.000000 0.000002
outer loop
vertex 0.655552 0.180000 -0.216182
vertex 0.616153 0.180000 -0.183848
vertex 0.583818 0.180000 -0.144449
endloop
endfacet
facet normal 0.000000 1.000000 0.000000
outer loop
vertex 0.749277 0.180000 -0.255004
vertex 0.700503 0.180000 -0.240209
vertex 0.655552 0.180000 -0.216182
endloop
endfacet
facet normal 0.000000 1.000000 -0.000004
outer loop
vertex 0.850724 0.180000 -0.255004
vertex 0.800000 0.180000 -0.260000
vertex 0.749277 0.180000 -0.255004
endloop
endfacet
facet normal 0.000000 1.000000 0.000001
outer loop
vertex 0.850724 0.180000 -0.255004
vertex 1.016182 0.180000 -0.144448
vertex 0.944448 0.180000 -0.216182
endloop
endfacet
facet normal 0.000000 1.000000 0.000000
outer loop
vertex 1.055004 0.180000 0.050723
vertex 1.055004 0.180000 -0.050723
vertex 1.016182 0.180000 -0.144448
endloop
endfacet
facet normal 0.000000 1.000000 0.000000
outer loop
vertex 0.944448 0.180000 0.216182
vertex 1.016182 0.180000 0.144448
vertex 1.055004 0.180000 0.050723
endloop
endfacet
facet normal 0.000000 1.000000 0.000000
outer loop
vertex 0.749276 0.180000 0.255004
vertex 0.850723 0.180000 0.255004
vertex 0.944448 0.180000 0.216182
endloop
endfacet
facet normal 0.000000 1.000000 -0.000001
outer loop
vertex 0.583818 0.180000 0.144448
vertex 0.655552 0.180000 0.216182
vertex 0.749276 0.180000 0.255004
endloop
endfacet
facet normal 0.000000 1.000000 0.000000
outer loop
vertex 0.544996 0.180000 -0.050724
vertex 0.544996 0.180000 0.050723
vertex 0.583818 0.180000 0.144448
endloop
endfacet
facet normal 0.000000 1.000000 -0.000000
outer loop
vertex 0.655552 0.180000 -0.216182
vertex 0.583818 0.180000 -0.144449
vertex 0.544996 0.180000 -0.050724
endloop
endfacet
facet normal 0.000000 1.000000 0.000001
outer loop
vertex 0.850724 0.180000 -0.255004
vertex 0.749277 0.180000 -0.255004
vertex 0.655552 0.180000 -0.216182
endloop
endfacet
facet normal 0.000000 1.000000 0.000000
outer loop
vertex 0.850724 0.180000 -0.255004
vertex 1.055004 0.180000 0.050723
vertex 1.016182 0.180000 -0.144448
endloop
endfacet
facet normal 0.000000 1.000000 -0.000000
outer loop
vertex 0.749276 0.180000 0.255004
vertex 0.944448 0.180000 0.216182
vertex 1.055004 0.180000 0.050723
endloop
endfacet
facet normal 0.000000 1.000000 0.000000
outer loop
vertex 0.544996 0.180000 -0.050724
vertex 0.583818 0.180000 0.144448
vertex 0.749276 0.180000 0.255004
endloop
endfacet
facet normal 0.000000 1.000000 -0.000000
outer loop
vertex 0.850724 0.180000 -0.255004
vertex 0.655552 0.180000 -0.216182
vertex 0.544996 0.180000 -0.050724
endloop
endfacet
facet normal 0.000000 1.000000 0.000000
outer loop
vertex 0.850724 0.180000 -0.255004
vertex 0.749276 0.180000 0.255004
vertex 1.055004 0.180000 0.050723
endloop
endfacet
facet normal 0.000000 1.000000 0.000000
outer loop
vertex 0.850724 0.180000 -0.255004
vertex 0.544996 0.180000 -0.050724
vertex 0.749276 0.180000 0.255004
endloop
endfacet
facet normal -0.098017 0.000000 -0.995185
outer loop
vertex 0.749277 0.000000 -0.255004
vertex 0.749277 0.180000 -0.255004
vertex 0.800000 0.180000 -0.260000
endloop
endfacet
facet normal -0.098016 0.000000 -0.995185
outer loop
vertex 0.800000 0.180000 -0.260000
vertex 0.800000 0.000000 -0.260000
vertex 0.749277 0.000000 -0.255004
endloop
endfacet
facet normal -0.290283 0.000000 -0.956941
outer loop
vertex 0.700503 0.000000 -0.240209
vertex 0.700503 0.180000 -0.240209
vertex 0.749277 0.180000 -0.255004
endloop
endfacet
facet normal -0.290283 0.000000 -0.956941
outer loop
vertex 0.749277 0.180000 -0.255004
vertex 0.749277 0.000000 -0.255004
vertex 0.700503 0.000000 -0.240209
endloop
endfacet
facet normal 0.000000 1.000000 0.000000
outer loop
vertex 0.800000 0.000000 -0.400000
vertex 0.953073 0.000000 -0.369552
vertex 0.878036 0.000000 -0.392314
endloop
endfacet
facet normal 0.000000 1.000000 0.000000
outer loop
vertex 1.082843 0.000000 -0.282843
vertex 1.022228 0.000000 -0.332588
vertex 0.953073 0.000000 -0.369552
endloop
endfacet
facet normal 0.000000 1.000000 0.000000
outer loop
vertex 1.169552 0.000000 -0.153073
vertex 1.132588 0.000000 -0.222228
vertex 1.082843 0.000000 -0.282843
endloop
endfacet
facet normal 0.000000 1.000000 0.000000
outer loop
vertex 1.200000 0.000000 -0.000000
vertex 1.192314 0.000000 -0.078036
vertex 1.169552 0.000000 -0.153073
endloop
endfacet
facet normal 0.000000 1.000000 0.000000
outer loop
vertex 1.055004 0.000000 -0.050723
vertex 1.060000 0.000000 -0.000000
vertex 1.200000 0.000000 -0.000000
endloop
endfacet
facet normal 0.000000 1.000000 0.000000
outer loop
vertex 1.192314 0.000000 0.078036
vertex 1.055004 0.000000 0.050723
vertex 1.040209 0.000000 0.099498
endloop
endfacet
facet normal 0.000000 1.000000 0.000000
outer loop
vertex 1.040209 0.000000 -0.099498
vertex 1.055004 0.000000 -0.050723
vertex 1.200000 0.000000 -0.000000
endloop
endfacet
facet normal 0.000000 1.000000 0.000000
outer loop
vertex 1.192314 0.000000 0.078036
vertex 1.040209 0.000000 0.099498
vertex 1.016182 0.000000 0.144448
endloop
endfacet
facet normal 0.000000 1.000000 0.000000
outer loop
vertex 1.016182 0.000000 -0.144448
vertex 1.040209 0.000000 -0.099498
vertex 1.200000 0.000000 -0.000000
endloop
endfacet
facet normal 0.000000 1.000000 0.000000
outer loop
vertex 1.192314 0.000000 0.078036
vertex 1.016182 0.000000 0.144448
vertex 0.983848 0.000000 0.183848
endloop
endfacet
facet normal 0.000000 1.000000 0.000000
outer loop
vertex 0.983848 0.000000 -0.183848
vertex 1.016182 0.000000 -0.144448
vertex 1.200000 0.000000 -0.000000
endloop
endfacet
facet normal 0.000000 1.000000 0.000000
outer loop
vertex 1.192314 0.000000 0.078036
vertex 0.983848 0.000000 0.183848
vertex 0.944448 0.000000 0.216182
endloop
endfacet
facet normal 0.000000 1.000000 0.000000
outer loop
vertex 0.983848 0.000000 -0.183848
vertex 1.200000 0.000000 -0.000000
vertex 1.169552 0.000000 -0.153073
endloop
endfacet
facet normal 0.000000 1.000000 0.000000
outer loop
vertex 1.169552 0.000000 0.153073
vertex 1.192314 0.000000 0.078036
vertex 0.944448 0.000000 0.216182
endloop
endfacet
facet normal 0.000000 1.000000 0.000000
outer loop
vertex 0.944448 0.000000 -0.216182
vertex 0.983848 0.000000 -0.183848
vertex 1.169552 0.000000 -0.153073
endloop
endfacet
facet normal 0.000000 1.000000 0.000000
outer loop
vertex 1.169552 0.000000 0.153073
vertex 0.944448 0.000000 0.216182
vertex 0.899498 0.000000 0.240209
endloop
endfacet
facet normal 0.000000 1.000000 0.000000
outer loop
vertex 0.899498 0.000000 -0.240209
vertex 0.944448 0.000000 -0.216182
vertex 1.169552 0.000000 -0.153073
endloop
endfacet
facet normal 0.000000 1.000000 0.000000
outer loop
vertex 1.132588 0.000000 0.222228
vertex 1.169552 0.000000 0.153073
vertex 0.899498 0.000000 0.240209
endloop
endfacet
facet normal 0.000000 1.000000 0.000000
outer loop
vertex 0.899498 0.000000 -0.240209
vertex 1.169552 0.000000 -0.153073
vertex 1.082843 0.000000 -0.282843
endloop
endfacet
facet normal 0.000000 1.000000 0.000000
outer loop
vertex 1.132588 0.000000 0.222228
vertex 0.899498 0.000000 0.240209
vertex 0.850723 0.000000 0.255004
endloop
endfacet
facet normal 0.000000 1.000000 0.000000
outer loop
vertex 0.850724 0.000000 -0.255004
vertex 0.899498 0.000000 -0.240209
vertex 1.082843 0.000000 -0.282843
endloop
endfacet
facet normal 0.000000 1.000000 0.000000
outer loop
vertex 1.082843 0.000000 0.282843
vertex 1.132588 0.000000 0.222228
vertex 0.850723 0.000000 0.255004
endloop
endfacet
facet normal 0.000000 1.000000 0.000000
outer loop
vertex 0.800000 0.000000 -0.260000
vertex 0.850724 0.000000 -0.255004
vertex 1.082843 0.000000 -0.282843
endloop
endfacet
facet normal 0.000000 1.000000 0.000000
outer loop
vertex 1.082843 0.000000 0.282843
vertex 0.850723 0.000000 0.255004
vertex 0.800000 0.000000 0.260000
endloop
endfacet
facet normal 0.000000 1.000000 0.000000
outer loop
vertex 0.800000 0.000000 -0.260000
vertex 1.082843 0.000000 -0.282843
vertex 0.953073 0.000000 -0.369552
endloop
endfacet
facet normal 0.000000 1.000000 0.000000
outer loop
vertex 1.022228 0.000000 0.332588
vertex 1.082843 0.000000 0.282843
vertex 0.800000 0.000000 0.260000
endloop
endfacet
facet normal 0.000000 1.000000 0.000000
outer loop
vertex 0.749277 0.000000 -0.255004
vertex 0.800000 0.000000 -0.260000
vertex 0.953073 0.000000 -0.369552
endloop
endfacet
facet normal 0.000000 1.000000 0.000000
outer loop
vertex 1.022228 0.000000 0.332588
vertex 0.800000 0.000000 0.260000
vertex 0.749276 0.000000 0.255004
endloop
endfacet
facet normal 0.000000 1.000000 0.000000
outer loop
vertex 0.700503 0.000000 -0.240209
vertex 0.749277 0.000000 -0.255004
vertex 0.953073 0.000000 -0.369552
endloop
endfacet
facet normal 0.000000 1.000000 0.000000
outer loop
vertex 0.953073 0.000000 0.369552
vertex 1.022228 0.000000 0.332588
vertex 0.749276 0.000000 0.255004
endloop
endfacet
facet normal 0.000000 1.000000 0.000000
outer loop
vertex 0.800000 0.000000 -0.400000
vertex 0.700503 0.000000 -0.240209
vertex 0.953073 0.000000 -0.369552
endloop
endfacet
facet normal 0.000000 1.000000 0.000000
outer loop
vertex 0.953073 0.000000 0.369552
vertex 0.749276 0.000000 0.255004
vertex 0.700502 0.000000 0.240209
endloop
endfacet
facet normal 0.000000 1.000000 0.000000
outer loop
vertex 0.800000 0.000000 -0.400000
vertex 0.655552 0.000000 -0.216182
vertex 0.700503 0.000000 -0.240209
endloop
endfacet
facet normal 0.000000 1.000000 0.000000
outer loop
vertex 0.878036 0.000000 0.392314
vertex 0.953073 0.000000 0.369552
vertex 0.700502 0.000000 0.240209
endloop
endfacet
facet normal 0.000000 1.000000 0.000000
outer loop
vertex 0.800000 0.000000 -0.400000
vertex 0.616153 0.000000 -0.183848
vertex 0.655552 0.000000 -0.216182
endloop
endfacet
facet normal 0.000000 1.000000 0.000000
outer loop
vertex 0.878036 0.000000 0.392314
vertex 0.700502 0.000000 0.240209
vertex 0.655552 0.000000 0.216182
endloop
endfacet
facet normal 0.000000 1.000000 0.000000
outer loop
vertex 0.800000 0.000000 -0.400000
vertex 0.721964 0.000000 -0.392314
vertex 0.616153 0.000000 -0.183848
endloop
endfacet
facet normal 0.000000 1.000000 0.000000
outer loop
vertex 0.800000 0.000000 0.400000
vertex 0.878036 0.000000 0.392314
vertex 0.655552 0.000000 0.216182
endloop
endfacet
facet normal 0.000000 1.000000 0.000000
outer loop
vertex 0.721964 0.000000 -0.392314
vertex 0.583818 0.000000 -0.144449
vertex 0.616153 0.000000 -0.183848
endloop
endfacet
facet normal 0.000000 1.000000 0.000000
outer loop
vertex 0.800000 0.000000 0.400000
vertex 0.655552 0.000000 0.216182
vertex 0.616152 0.000000 0.183848
endloop
endfacet
facet normal 0.000000 1.000000 0.000000
outer loop
vertex 0.721964 0.000000 -0.392314
vertex 0.646927 0.000000 -0.369552
vertex 0.583818 0.000000 -0.144449
endloop
endfacet
facet normal 0.000000 1.000000 0.000000
outer loop
vertex 0.721964 0.000000 0.392314
vertex 0.800000 0.000000 0.400000
vertex 0.616152 0.000000 0.183848
endloop
endfacet
facet normal 0.000000 1.000000 0.000000
outer loop
vertex 0.646927 0.000000 -0.369552
vertex 0.559791 0.000000 -0.099498
vertex 0.583818 0.000000 -0.144449
endloop
endfacet
facet normal 0.000000 1.000000 0.000000
outer loop
vertex 0.721964 0.000000 0.392314
vertex 0.616152 0.000000 0.183848
vertex 0.583818 0.000000 0.144448
endloop
endfacet
facet normal 0.000000 1.000000 0.000000
outer loop
vertex 0.646927 0.000000 -0.369552
vertex 0.577772 0.000000 -0.332588
vertex 0.559791 0.000000 -0.099498
endloop
endfacet
facet normal 0.000000 1.000000 0.000000
outer loop
vertex 0.646926 0.000000 0.369552
vertex 0.721964 0.000000 0.392314
vertex 0.583818 0.000000 0.144448
endloop
endfacet
facet normal 0.000000 1.000000 0.000000
outer loop
vertex 0.577772 0.000000 -0.332588
vertex 0.544996 0.000000 -0.050724
vertex 0.559791 0.000000 -0.099498
endloop
endfacet
facet normal 0.000000 1.000000 0.000000
outer loop
vertex 0.646926 0.000000 0.369552
vertex 0.583818 0.000000 0.144448
vertex 0.559791 0.000000 0.099497
endloop
endfacet
facet normal 0.000000 1.000000 0.000000
outer loop
vertex 0.577772 0.000000 -0.332588
vertex 0.517158 0.000000 -0.282843
vertex 0.544996 0.000000 -0.050724
endloop
endfacet
facet normal 0.000000 1.000000 0.000000
outer loop
vertex 0.577772 0.000000 0.332588
vertex 0.646926 0.000000 0.369552
vertex 0.559791 0.000000 0.099497
endloop
endfacet
facet normal 0.000000 1.000000 0.000000
outer loop
vertex 0.517158 0.000000 -0.282843
vertex 0.540000 0.000000 -0.000000
vertex 0.544996 0.000000 -0.050724
endloop
endfacet
facet normal 0.000000 1.000000 0.000000
outer loop
vertex 0.577772 0.000000 0.332588
vertex 0.559791 0.000000 0.099497
vertex 0.544996 0.000000 0.050723
endloop
endfacet
facet normal 0.000000 1.000000 0.000000
outer loop
vertex 0.517158 0.000000 -0.282843
vertex 0.467412 0.000000 -0.222229
vertex 0.540000 0.000000 -0.000000
endloop
endfacet
facet normal 0.000000 1.000000 0.000000
outer loop
vertex 0.517157 0.000000 0.282843
vertex 0.577772 0.000000 0.332588
vertex 0.544996 0.000000 0.050723
endloop
endfacet
facet normal 0.000000 1.000000 0.000000
outer loop
vertex 0.467412 0.000000 -0.222229
vertex 0.544996 0.000000 0.050723
vertex 0.540000 0.000000 -0.000000
endloop
endfacet
facet normal 0.000000 1.000000 0.000000
outer loop
vertex 0.467412 0.000000 -0.222229
vertex 0.430448 0.000000 -0.153074
vertex 0.407686 0.000000 -0.078037
endloop
endfacet
facet normal 0.000000 1.000000 0.000000
outer loop
vertex 0.407686 0.000000 -0.078037
vertex 0.400000 0.000000 -0.000000
vertex 0.407686 0.000000 0.078036
endloop
endfacet
facet normal 0.000000 1.000000 0.000000
outer loop
vertex 0.407686 0.000000 0.078036
vertex 0.430448 0.000000 0.153073
vertex 0.467412 0.000000 0.222228
endloop
endfacet
facet normal 0.000000 1.000000 0.000000
outer loop
vertex 0.467412 0.000000 0.222228
vertex 0.517157 0.000000 0.282843
vertex 0.544996 0.000000 0.050723
endloop
endfacet
facet normal 0.000000 1.000000 0.000000
outer loop
vertex 0.467412 0.000000 -0.222229
vertex 0.407686 0.000000 -0.078037
vertex 0.544996 0.000000 0.050723
endloop
endfacet
facet normal 0.000000 1.000000 0.000000
outer loop
vertex 0.407686 0.000000 -0.078037
vertex 0.407686 0.000000 0.078036
vertex 0.467412 0.000000 0.222228
endloop
endfacet
facet normal 0.000000 1.000000 0.000000
outer loop
vertex 0.407686 0.000000 -0.078037
vertex 0.467412 0.000000 0.222228
vertex 0.544996 0.000000 0.050723
endloop
endfacet
facet normal 0.000000 -1.000000 0.000002
outer loop
vertex 0.800000 0.180000 -0.400000
vertex 0.646927 0.180000 -0.369552
vertex 0.721964 0.180000 -0.392314
endloop
endfacet
facet normal 0.000000 -1.000000 0.000000
outer loop
vertex 0.517158 0.180000 -0.282843
vertex 0.577772 0.180000 -0.332588
vertex 0.646927 0.180000 -0.369552
endloop
endfacet
facet normal 0.000000 -1.000000 0.000000
outer loop
vertex 0.430448 0.180000 -0.153074
vertex 0.467412 0.180000 -0.222229
vertex 0.517158 0.180000 -0.282843
endloop
endfacet
facet normal 0.000000 -1.000000 0.000000
outer loop
vertex 0.400000 0.180000 -0.000000
vertex 0.407686 0.180000 -0.078037
vertex 0.430448 0.180000 -0.153074
endloop
endfacet
facet normal 0.000000 -1.000000 0.000001
outer loop
vertex 0.430448 0.180000 0.153073
vertex 0.407686 0.180000 0.078036
vertex 0.400000 0.180000 -0.000000
endloop
endfacet
facet normal 0.000000 -1.000000 -0.000001
outer loop
vertex 0.517157 0.180000 0.282843
vertex 0.467412 0.180000 0.222228
vertex 0.430448 0.180000 0.153073
endloop
endfacet
facet normal 0.000000 -1.000000 0.000000
outer loop
vertex 0.646926 0.180000 0.369552
vertex 0.577772 0.180000 0.332588
vertex 0.517157 0.180000 0.282843
endloop
endfacet
facet normal 0.000000 -1.000000 0.000002
outer loop
vertex 0.800000 0.180000 0.400000
vertex 0.721964 0.180000 0.392314
vertex 0.646926 0.180000 0.369552
endloop
endfacet
facet normal 0.000000 -1.000000 0.000000
outer loop
vertex 0.953073 0.180000 0.369552
vertex 0.878036 0.180000 0.392314
vertex 0.800000 0.180000 0.400000
endloop
endfacet
facet normal 0.000000 -1.000000 -0.000002
outer loop
vertex 1.082843 0.180000 0.282843
vertex 1.022228 0.180000 0.332588
vertex 0.953073 0.180000 0.369552
endloop
endfacet
facet normal 0.000000 -1.000000 0.000000
outer loop
vertex 1.169552 0.180000 0.153073
vertex 1.132588 0.180000 0.222228
vertex 1.082843 0.180000 0.282843
endloop
endfacet
facet normal 0.000000 -1.000000 0.000000
outer loop
vertex 1.200000 0.180000 -0.000000
vertex 1.192314 0.180000 0.078036
vertex 1.169552 0.180000 0.153073
endloop
endfacet
facet normal 0.000000 -1.000000 0.000000
outer loop
vertex 1.169552 0.180000 -0.153073
vertex 1.192314 0.180000 -0.078036
vertex 1.200000 0.180000 -0.000000
endloop
endfacet
facet normal 0.000000 -1.000000 0.000001
outer loop
vertex 1.082843 0.180000 -0.282843
vertex 1.132588 0.180000 -0.222228
vertex 1.169552 0.180000 -0.153073
endloop
endfacet
facet normal 0.000000 -1.000000 0.000000
outer loop
vertex 0.953073 0.180000 -0.369552
vertex 1.022228 0.180000 -0.332588
vertex 1.082843 0.180000 -0.282843
endloop
endfacet
facet normal 0.000000 -1.000000 0.000002
outer loop
vertex 0.800000 0.180000 -0.400000
vertex 0.878036 0.180000 -0.392314
vertex 0.953073 0.180000 -0.369552
endloop
endfacet
facet normal 0.000000 -1.000000 0.000000
outer loop
vertex 0.800000 0.180000 -0.400000
vertex 0.517158 0.180000 -0.282843
vertex 0.646927 0.180000 -0.369552
endloop
endfacet
facet normal 0.000000 -1.000000 -0.000000
outer loop
vertex 0.400000 0.180000 -0.000000
vertex 0.430448 0.180000 -0.153074
vertex 0.517158 0.180000 -0.282843
endloop
endfacet
facet normal 0.000000 -1.000000 -0.000000
outer loop
vertex 0.517157 0.180000 0.282843
vertex 0.430448 0.180000 0.153073
vertex 0.400000 0.180000 -0.000000
endloop
endfacet
facet normal 0.000000 -1.000000 -0.000000
outer loop
vertex 0.800000 0.180000 0.400000
vertex 0.646926 0.180000 0.369552
vertex 0.517157 0.180000 0.282843
endloop
endfacet
facet normal 0.000000 -1.000000 -0.000000
outer loop
vertex 1.082843 0.180000 0.282843
vertex 0.953073 0.180000 0.369552
vertex 0.800000 0.180000 0.400000
endloop
endfacet
facet normal 0.000000 -1.000000 -0.000000
outer loop
vertex 1.200000 0.180000 -0.000000
vertex 1.169552 0.180000 0.153073
vertex 1.082843 0.180000 0.282843
endloop
endfacet
facet normal 0.000000 -1.000000 0.000000
outer loop
vertex 1.082843 0.180000 -0.282843
vertex 1.169552 0.180000 -0.153073
vertex 1.200000 0.180000 -0.000000
endloop
endfacet
facet normal 0.000000 -1.000000 0.000000
outer loop
vertex 0.800000 0.180000 -0.400000
vertex 0.953073 0.180000 -0.369552
vertex 1.082843 0.180000 -0.282843
endloop
endfacet
facet normal 0.000000 -1.000000 -0.000000
outer loop
vertex 0.800000 0.180000 -0.400000
vertex 0.400000 0.180000 -0.000000
vertex 0.517158 0.180000 -0.282843
endloop
endfacet
facet normal 0.000000 -1.000000 0.000000
outer loop
vertex 0.800000 0.180000 0.400000
vertex 0.517157 0.180000 0.282843
vertex 0.400000 0.180000 -0.000000
endloop
endfacet
facet normal 0.000000 -1.000000 0.000000
outer loop
vertex 1.200000 0.180000 -0.000000
vertex 1.082843 0.180000 0.282843
vertex 0.800000 0.180000 0.400000
endloop
endfacet
facet normal 0.000000 -1.000000 0.000000
outer loop
vertex 0.800000 0.180000 -0.400000
vertex 1.082843 0.180000 -0.282843
vertex 1.200000 0.180000 -0.000000
endloop
endfacet
facet normal 0.000000 -1.000000 0.000000
outer loop
vertex 0.800000 0.180000 -0.400000
vertex 0.800000 0.180000 0.400000
vertex 0.400000 0.180000 -0.000000
endloop
endfacet
facet normal 0.000000 -1.000000 0.000000
outer loop
vertex 0.800000 0.180000 -0.400000
vertex 1.200000 0.180000 -0.000000
vertex 0.800000 0.180000 0.400000
endloop
endfacet
facet normal -0.098018 0.000000 0.995185
outer loop
vertex 0.800000 0.000000 -0.400000
vertex 0.878036 0.000000 -0.392314
vertex 0.878036 0.180000 -0.392314
endloop
endfacet
facet normal -0.098017 0.000000 0.995185
outer loop
vertex 0.878036 0.180000 -0.392314
vertex 0.800000 0.180000 -0.400000
vertex 0.800000 0.000000 -0.400000
endloop
endfacet
facet normal -0.773010 0.000000 -0.634394
outer loop
vertex 1.132588 0.000000 0.222228
vertex 1.082843 0.000000 0.282843
vertex 1.082843 0.180000 0.282843
endloop
endfacet
facet normal -0.773010 0.000000 -0.634394
outer loop
vertex 1.082843 0.180000 0.282843
vertex 1.132588 0.180000 0.222228
vertex 1.132588 0.000000 0.222228
endloop
endfacet
facet normal 0.098016 0.000000 0.995185
outer loop
vertex 0.721964 0.000000 -0.392314
vertex 0.800000 0.000000 -0.400000
vertex 0.800000 0.180000 -0.400000
endloop
endfacet
facet normal 0.098016 0.000000 0.995185
outer loop
vertex 0.800000 0.180000 -0.400000
vertex 0.721964 0.180000 -0.392314
vertex 0.721964 0.000000 -0.392314
endloop
endfacet
facet normal 0.773011 0.000000 -0.634393
outer loop
vertex 0.517157 0.000000 0.282843
vertex 0.467412 0.000000 0.222228
vertex 0.467412 0.180000 0.222228
endloop
endfacet
facet normal 0.773011 0.000000 -0.634392
outer loop
vertex 0.467412 0.180000 0.222228
vertex 0.517157 0.180000 0.282843
vertex 0.517157 0.000000 0.282843
endloop
endfacet
facet normal -0.956940 0.000000 -0.290285
outer loop
vertex 1.192314 0.000000 0.078036
vertex 1.169552 0.000000 0.153073
vertex 1.169552 0.180000 0.153073
endloop
endfacet
facet normal -0.956940 0.000000 -0.290285
outer loop
vertex 1.169552 0.180000 0.153073
vertex 1.192314 0.180000 0.078036
vertex 1.192314 0.000000 0.078036
endloop
endfacet
facet normal 0.471396 0.000000 0.881922
outer loop
vertex 0.577772 0.000000 -0.332588
vertex 0.646927 0.000000 -0.369552
vertex 0.646927 0.180000 -0.369552
endloop
endfacet
facet normal 0.471395 0.000000 0.881922
outer loop
vertex 0.646927 0.180000 -0.369552
vertex 0.577772 0.180000 -0.332588
vertex 0.577772 0.000000 -0.332588
endloop
endfacet
facet normal 0.471398 0.000000 -0.881921
outer loop
vertex 0.646926 0.000000 0.369552
vertex 0.577772 0.000000 0.332588
vertex 0.577772 0.180000 0.332588
endloop
endfacet
facet normal 0.471397 0.000000 -0.881921
outer loop
vertex 0.577772 0.180000 0.332588
vertex 0.646926 0.180000 0.369552
vertex 0.646926 0.000000 0.369552
endloop
endfacet
facet normal -0.995185 0.000000 0.098017
outer loop
vertex 1.192314 0.000000 -0.078036
vertex 1.200000 0.000000 -0.000000
vertex 1.200000 0.180000 -0.000000
endloop
endfacet
facet normal -0.995185 0.000000 0.098017
outer loop
vertex 1.200000 0.180000 -0.000000
vertex 1.192314 0.180000 -0.078036
vertex 1.192314 0.000000 -0.078036
endloop
endfacet
facet normal 0.773010 0.000000 0.634394
outer loop
vertex 0.467412 0.000000 -0.222229
vertex 0.517158 0.000000 -0.282843
vertex 0.517158 0.180000 -0.282843
endloop
endfacet
facet normal 0.773009 0.000000 0.634395
outer loop
vertex 0.517158 0.180000 -0.282843
vertex 0.467412 0.180000 -0.222229
vertex 0.467412 0.000000 -0.222229
endloop
endfacet
facet normal 0.098018 0.000000 -0.995185
outer loop
vertex 0.800000 0.000000 0.400000
vertex 0.721964 0.000000 0.392314
vertex 0.721964 0.180000 0.392314
endloop
endfacet
facet normal 0.098018 0.000000 -0.995185
outer loop
vertex 0.721964 0.180000 0.392314
vertex 0.800000 0.180000 0.400000
vertex 0.800000 0.000000 0.400000
endloop
endfacet
facet normal -0.881921 0.000000 0.471397
outer loop
vertex 1.132588 0.000000 -0.222228
vertex 1.169552 0.000000 -0.153073
vertex 1.169552 0.180000 -0.153073
endloop
endfacet
facet normal -0.881921 0.000000 0.471396
outer loop
vertex 1.169552 0.180000 -0.153073
vertex 1.132588 0.180000 -0.222228
vertex 1.132588 0.000000 -0.222228
endloop
endfacet
facet normal 0.956940 0.000000 0.290286
outer loop
vertex 0.407686 0.000000 -0.078037
vertex 0.430448 0.000000 -0.153074
vertex 0.430448 0.180000 -0.153074
endloop
endfacet
facet normal 0.956940 0.000000 0.290286
outer loop
vertex 0.430448 0.180000 -0.153074
vertex 0.407686 0.180000 -0.078037
vertex 0.407686 0.000000 -0.078037
endloop
endfacet
facet normal -0.634394 0.000000 0.773010
outer loop
vertex 1.022228 0.000000 -0.332588
vertex 1.082843 0.000000 -0.282843
vertex 1.082843 0.180000 -0.282843
endloop
endfacet
facet normal -0.634393 0.000000 0.773011
outer loop
vertex 1.082843 0.180000 -0.282843
vertex 1.022228 0.180000 -0.332588
vertex 1.022228 0.000000 -0.332588
endloop
endfacet
facet normal -0.290285 0.000000 -0.956940
outer loop
vertex 0.953073 0.000000 0.369552
vertex 0.878036 0.000000 0.392314
vertex 0.878036 0.180000 0.392314
endloop
endfacet
facet normal -0.290283 0.000000 -0.956941
outer loop
vertex 0.878036 0.180000 0.392314
vertex 0.953073 0.180000 0.369552
vertex 0.953073 0.000000 0.369552
endloop
endfacet
facet normal 0.995185 0.000000 -0.098016
outer loop
vertex 0.407686 0.000000 0.078036
vertex 0.400000 0.000000 -0.000000
vertex 0.400000 0.180000 -0.000000
endloop
endfacet
facet normal 0.995185 0.000000 -0.098016
outer loop
vertex 0.400000 0.180000 -0.000000
vertex 0.407686 0.180000 0.078036
vertex 0.407686 0.000000 0.078036
endloop
endfacet
facet normal -0.290285 0.000000 0.956940
outer loop
vertex 0.878036 0.000000 -0.392314
vertex 0.953073 0.000000 -0.369552
vertex 0.953073 0.180000 -0.369552
endloop
endfacet
facet normal -0.290284 0.000000 0.956940
outer loop
vertex 0.953073 0.180000 -0.369552
vertex 0.878036 0.180000 -0.392314
vertex 0.878036 0.000000 -0.392314
endloop
endfacet
facet normal -0.634393 0.000000 -0.773010
outer loop
vertex 1.082843 0.000000 0.282843
vertex 1.022228 0.000000 0.332588
vertex 1.022228 0.180000 0.332588
endloop
endfacet
facet normal -0.634394 0.000000 -0.773010
outer loop
vertex 1.022228 0.180000 0.332588
vertex 1.082843 0.180000 0.282843
vertex 1.082843 0.000000 0.282843
endloop
endfacet
facet normal 0.881922 0.000000 -0.471396
outer loop
vertex 0.467412 0.000000 0.222228
vertex 0.430448 0.000000 0.153073
vertex 0.430448 0.180000 0.153073
endloop
endfacet
facet normal 0.881921 0.000000 -0.471396
outer loop
vertex 0.430448 0.180000 0.153073
vertex 0.467412 0.180000 0.222228
vertex 0.467412 0.000000 0.222228
endloop
endfacet
facet normal -0.881921 0.000000 -0.471396
outer loop
vertex 1.169552 0.000000 0.153073
vertex 1.132588 0.000000 0.222228
vertex 1.132588 0.180000 0.222228
endloop
endfacet
facet normal -0.881922 0.000000 -0.471396
outer loop
vertex 1.132588 0.180000 0.222228
vertex 1.169552 0.180000 0.153073
vertex 1.169552 0.000000 0.153073
endloop
endfacet
facet normal 0.290283 0.000000 0.956941
outer loop
vertex 0.646927 0.000000 -0.369552
vertex 0.721964 0.000000 -0.392314
vertex 0.721964 0.180000 -0.392314
endloop
endfacet
facet normal 0.290283 0.000000 0.956941
outer loop
vertex 0.721964 0.180000 -0.392314
vertex 0.646927 0.180000 -0.369552
vertex 0.646927 0.000000 -0.369552
endloop
endfacet
facet normal 0.634393 0.000000 -0.773011
outer loop
vertex 0.577772 0.000000 0.332588
vertex 0.517157 0.000000 0.282843
vertex 0.517157 0.180000 0.282843
endloop
endfacet
facet normal 0.634394 0.000000 -0.773010
outer loop
vertex 0.517157 0.180000 0.282843
vertex 0.577772 0.180000 0.332588
vertex 0.577772 0.000000 0.332588
endloop
endfacet
facet normal -0.995185 0.000000 -0.098017
outer loop
vertex 1.200000 0.000000 -0.000000
vertex 1.192314 0.000000 0.078036
vertex 1.192314 0.180000 0.078036
endloop
endfacet
facet normal -0.995185 0.000000 -0.098017
outer loop
vertex 1.192314 0.180000 0.078036
vertex 1.200000 0.180000 -0.000000
vertex 1.200000 0.000000 -0.000000
endloop
endfacet
facet normal 0.634392 0.000000 0.773011
outer loop
vertex 0.517158 0.000000 -0.282843
vertex 0.577772 0.000000 -0.332588
vertex 0.577772 0.180000 -0.332588
endloop
endfacet
facet normal 0.634392 0.000000 0.773011
outer loop
vertex 0.577772 0.180000 -0.332588
vertex 0.517158 0.180000 -0.282843
vertex 0.517158 0.000000 -0.282843
endloop
endfacet
facet normal 0.290285 0.000000 -0.956940
outer loop
vertex 0.721964 0.000000 0.392314
vertex 0.646926 0.000000 0.369552
vertex 0.646926 0.180000 0.369552
endloop
endfacet
facet normal 0.290284 0.000000 -0.956940
outer loop
vertex 0.646926 0.180000 0.369552
vertex 0.721964 0.180000 0.392314
vertex 0.721964 0.000000 0.392314
endloop
endfacet
facet normal -0.956940 0.000000 0.290285
outer loop
vertex 1.169552 0.000000 -0.153073
vertex 1.192314 0.000000 -0.078036
vertex 1.192314 0.180000 -0.078036
endloop
endfacet
facet normal -0.956940 0.000000 0.290285
outer loop
vertex 1.192314 0.180000 -0.078036
vertex 1.169552 0.180000 -0.153073
vertex 1.169552 0.000000 -0.153073
endloop
endfacet
facet normal 0.881921 0.000000 0.471398
outer loop
vertex 0.430448 0.000000 -0.153074
vertex 0.467412 0.000000 -0.222229
vertex 0.467412 0.180000 -0.222229
endloop
endfacet
facet normal 0.881921 0.000000 0.471398
outer loop
vertex 0.467412 0.180000 -0.222229
vertex 0.430448 0.180000 -0.153074
vertex 0.430448 0.000000 -0.153074
endloop
endfacet
facet normal -0.773010 0.000000 0.634394
outer loop
vertex 1.082843 0.000000 -0.282843
vertex 1.132588 0.000000 -0.222228
vertex 1.132588 0.180000 -0.222228
endloop
endfacet
facet normal -0.773010 0.000000 0.634394
outer loop
vertex 1.132588 0.180000 -0.222228
vertex 1.082843 0.180000 -0.282843
vertex 1.082843 0.000000 -0.282843
endloop
endfacet
facet normal -0.098017 0.000000 -0.995185
outer loop
vertex 0.878036 0.000000 0.392314
vertex 0.800000 0.000000 0.400000
vertex 0.800000 0.180000 0.400000
endloop
endfacet
facet normal -0.098017 0.000000 -0.995185
outer loop
vertex 0.800000 0.180000 0.400000
vertex 0.878036 0.180000 0.392314
vertex 0.878036 0.000000 0.392314
endloop
endfacet
facet normal 0.995185 0.000000 0.098018
outer loop
vertex 0.400000 0.000000 -0.000000
vertex 0.407686 0.000000 -0.078037
vertex 0.407686 0.180000 -0.078037
endloop
endfacet
facet normal 0.995185 0.000000 0.098018
outer loop
vertex 0.407686 0.180000 -0.078037
vertex 0.400000 0.180000 -0.000000
vertex 0.400000 0.000000 -0.000000
endloop
endfacet
facet normal -0.471396 0.000000 0.881922
outer loop
vertex 0.953073 0.000000 -0.369552
vertex 1.022228 0.000000 -0.332588
vertex 1.022228 0.180000 -0.332588
endloop
endfacet
facet normal -0.471397 0.000000 0.881921
outer loop
vertex 1.022228 0.180000 -0.332588
vertex 0.953073 0.180000 -0.369552
vertex 0.953073 0.000000 -0.369552
endloop
endfacet
facet normal -0.471397 0.000000 -0.881921
outer loop
vertex 1.022228 0.000000 0.332588
vertex 0.953073 0.000000 0.369552
vertex 0.953073 0.180000 0.369552
endloop
endfacet
facet normal -0.471397 0.000000 -0.881921
outer loop
vertex 0.953073 0.180000 0.369552
vertex 1.022228 0.180000 0.332588
vertex 1.022228 0.000000 0.332588
endloop
endfacet
facet normal 0.000000 1.000000 0.000000
outer loop
vertex 1.200000 0.000000 -0.000000
vertex 1.060000 0.000000 -0.000000
vertex 1.055004 0.000000 0.050723
endloop
endfacet
facet normal 0.000000 1.000000 0.000000
outer loop
vertex 1.055004 0.000000 0.050723
vertex 1.192314 0.000000 0.078036
vertex 1.200000 0.000000 -0.000000
endloop
endfacet
endsolid Exported from Blender-2.74 (sub 0)
