solid Exported from Blender-2.74 (sub 0)
facet normal 0.002501 0.999987 -0.004343
outer loop
vertex 93.667236 36.323055 35.273872
vertex 90.516289 36.330814 35.246151
vertex 90.505051 36.336403 36.525635
endloop
endfacet
facet normal -0.008787 0.004369 0.999952
outer loop
vertex 91.715828 31.120834 36.559067
vertex 88.067398 33.969204 36.514557
vertex 86.387894 33.973343 36.499779
endloop
endfacet
facet normal -0.008785 0.004368 0.999952
outer loop
vertex 89.895164 33.964706 36.530636
vertex 93.655991 36.328644 36.553356
vertex 90.505051 36.336403 36.525635
endloop
endfacet
facet normal 0.002501 0.999987 -0.004344
outer loop
vertex 90.516289 36.330814 35.246151
vertex 87.620926 36.337944 35.220676
vertex 87.609680 36.343536 36.500160
endloop
endfacet
facet normal -0.008788 0.004368 0.999952
outer loop
vertex 78.923584 36.364925 36.423737
vertex 75.772644 36.372684 36.396011
vertex 79.521591 33.990250 36.439365
endloop
endfacet
facet normal -0.008791 0.004369 0.999952
outer loop
vertex 81.818947 36.357796 36.449211
vertex 78.923584 36.364925 36.423737
vertex 81.349358 33.985748 36.455448
endloop
endfacet
facet normal -0.008789 0.004368 0.999952
outer loop
vertex 84.714317 36.350666 36.474686
vertex 81.818947 36.357796 36.449211
vertex 83.028870 33.981613 36.470222
endloop
endfacet
facet normal -0.008788 0.004369 0.999952
outer loop
vertex 86.387894 33.973343 36.499779
vertex 87.609680 36.343536 36.500160
vertex 84.714317 36.350666 36.474686
endloop
endfacet
facet normal -0.008788 0.004369 0.999952
outer loop
vertex 88.067398 33.969204 36.514557
vertex 90.505051 36.336403 36.525635
vertex 87.609680 36.343536 36.500160
endloop
endfacet
facet normal 0.225819 0.003674 0.974162
outer loop
vertex 93.823441 31.120838 56.830708
vertex 93.827042 32.559692 56.824448
vertex 93.479767 32.560909 56.904934
endloop
endfacet
facet normal -0.008787 0.004366 0.999952
outer loop
vertex 93.476166 31.120838 56.911190
vertex 93.479767 32.560909 56.904934
vertex 88.774719 32.572498 56.863537
endloop
endfacet
facet normal 0.225791 0.003670 0.974169
outer loop
vertex 93.827042 32.559692 56.824448
vertex 93.835876 36.093307 56.809090
vertex 93.488602 36.094528 56.889572
endloop
endfacet
facet normal 0.886000 -0.000208 0.463684
outer loop
vertex 94.036705 31.120838 56.423214
vertex 94.040298 32.557384 56.416969
vertex 93.827042 32.559692 56.824448
endloop
endfacet
facet normal -0.008788 0.004368 0.999952
outer loop
vertex 88.771088 31.120834 56.869846
vertex 88.774719 32.572498 56.863537
vertex 84.549103 32.582901 56.826359
endloop
endfacet
facet normal -0.008788 0.004369 0.999952
outer loop
vertex 93.479767 32.560909 56.904934
vertex 93.488602 36.094528 56.889572
vertex 88.783554 36.106113 56.848175
endloop
endfacet
facet normal 0.215465 0.312941 0.925009
outer loop
vertex 93.488602 36.094528 56.889572
vertex 93.835876 36.093307 56.809090
vertex 93.744934 36.464149 56.704823
endloop
endfacet
facet normal 0.885999 -0.000197 0.463688
outer loop
vertex 94.040298 32.557384 56.416969
vertex 94.049133 36.091003 56.401608
vertex 93.835876 36.093307 56.809090
endloop
endfacet
facet normal 0.992472 -0.001942 0.122460
outer loop
vertex 94.657578 31.120836 51.391476
vertex 94.661102 32.533958 51.385334
vertex 94.040298 32.557384 56.416969
endloop
endfacet
facet normal -0.008789 0.004366 0.999952
outer loop
vertex 84.545448 31.120832 56.832710
vertex 84.549103 32.582901 56.826359
vertex 80.323502 32.593307 56.789177
endloop
endfacet
facet normal -0.008789 0.004369 0.999952
outer loop
vertex 88.774719 32.572498 56.863537
vertex 88.783554 36.106113 56.848175
vertex 84.557945 36.116516 56.810997
endloop
endfacet
facet normal -0.007802 0.270967 0.962557
outer loop
vertex 88.783554 36.106113 56.848175
vertex 93.488602 36.094528 56.889572
vertex 93.401131 36.465363 56.784470
endloop
endfacet
facet normal 0.002522 0.999987 -0.004339
outer loop
vertex 93.598686 36.463177 56.396023
vertex 93.401131 36.465363 56.784470
vertex 93.744934 36.464149 56.704823
endloop
endfacet
facet normal 0.837701 0.328145 0.436552
outer loop
vertex 93.744934 36.464149 56.704823
vertex 93.835876 36.093307 56.809090
vertex 94.049133 36.091003 56.401608
endloop
endfacet
facet normal 0.992471 -0.001956 0.122462
outer loop
vertex 94.661102 32.533958 51.385334
vertex 94.669945 36.067577 51.369972
vertex 94.049133 36.091003 56.401608
endloop
endfacet
facet normal 0.991506 -0.001911 0.130049
outer loop
vertex 95.275627 31.120836 46.679253
vertex 95.279114 32.511917 46.673203
vertex 94.661102 32.533958 51.385334
endloop
endfacet
facet normal -0.008788 0.004372 0.999952
outer loop
vertex 80.319817 31.120831 56.795582
vertex 80.323502 32.593307 56.789177
vertex 75.618446 32.604897 56.747787
endloop
endfacet
facet normal -0.008789 0.004369 0.999952
outer loop
vertex 84.549103 32.582901 56.826359
vertex 84.557945 36.116516 56.810997
vertex 80.332336 36.126923 56.773815
endloop
endfacet
facet normal -0.007800 0.270962 0.962558
outer loop
vertex 84.557945 36.116516 56.810997
vertex 88.783554 36.106113 56.848175
vertex 88.743126 36.476833 56.743488
endloop
endfacet
facet normal 0.002501 0.999988 -0.004332
outer loop
vertex 88.841232 36.474895 56.354160
vertex 88.743126 36.476833 56.743488
vertex 93.401131 36.465363 56.784470
endloop
endfacet
facet normal 0.002504 0.999987 -0.004345
outer loop
vertex 93.956047 36.461872 56.301357
vertex 94.570648 36.438679 51.320065
vertex 94.219498 36.439751 51.364388
endloop
endfacet
facet normal 0.955394 0.271336 0.116614
outer loop
vertex 93.956047 36.461872 56.301357
vertex 94.049133 36.091003 56.401608
vertex 94.669945 36.067577 51.369972
endloop
endfacet
facet normal 0.991506 -0.001912 0.130046
outer loop
vertex 95.279114 32.511917 46.673203
vertex 95.287949 36.045532 46.657841
vertex 94.669945 36.067577 51.369972
endloop
endfacet
facet normal 0.991507 -0.001904 0.130040
outer loop
vertex 95.893646 31.120836 41.967133
vertex 95.897072 32.489891 41.961182
vertex 95.279114 32.511917 46.673203
endloop
endfacet
facet normal -0.242909 0.004820 0.970037
outer loop
vertex 75.614738 31.120829 56.754238
vertex 75.618446 32.604897 56.747787
vertex 75.272644 32.605385 56.661201
endloop
endfacet
facet normal -0.008784 0.004369 0.999952
outer loop
vertex 80.323502 32.593307 56.789177
vertex 80.332336 36.126923 56.773815
vertex 75.627289 36.138512 56.732426
endloop
endfacet
facet normal -0.007802 0.270943 0.962564
outer loop
vertex 80.376427 36.497433 56.669880
vertex 80.332336 36.126923 56.773815
vertex 84.557945 36.116516 56.810997
endloop
endfacet
facet normal 0.002499 0.999988 -0.004319
outer loop
vertex 84.563202 36.485428 56.316528
vertex 84.559776 36.487129 56.706684
vertex 88.743126 36.476833 56.743488
endloop
endfacet
facet normal 0.002501 0.999987 -0.004348
outer loop
vertex 93.598686 36.463177 56.396023
vertex 94.219498 36.439751 51.364388
vertex 89.173767 36.452179 51.319988
endloop
endfacet
facet normal 0.002512 0.999987 -0.004348
outer loop
vertex 94.570648 36.438679 51.320065
vertex 95.182480 36.416855 46.655075
vertex 94.837502 36.417709 46.652256
endloop
endfacet
facet normal 0.954293 0.271991 0.123881
outer loop
vertex 94.570648 36.438679 51.320065
vertex 94.669945 36.067577 51.369972
vertex 95.287949 36.045532 46.657841
endloop
endfacet
facet normal 0.991507 -0.001915 0.130042
outer loop
vertex 95.897072 32.489891 41.961182
vertex 95.905914 36.023506 41.945816
vertex 95.287949 36.045532 46.657841
endloop
endfacet
facet normal 0.993022 -0.001968 0.117914
outer loop
vertex 96.516449 31.120834 36.722198
vertex 96.519806 32.465530 36.716347
vertex 95.897072 32.489891 41.961182
endloop
endfacet
facet normal -0.894000 0.004181 0.448048
outer loop
vertex 75.062866 31.120829 56.256485
vertex 75.268936 31.120829 56.667656
vertex 75.272644 32.605385 56.661201
endloop
endfacet
facet normal -0.242874 0.004825 0.970046
outer loop
vertex 75.618446 32.604897 56.747787
vertex 75.627289 36.138512 56.732426
vertex 75.281487 36.139000 56.645840
endloop
endfacet
facet normal -0.007797 0.270960 0.962559
outer loop
vertex 75.718414 36.508904 56.628899
vertex 75.627289 36.138512 56.732426
vertex 80.332336 36.126923 56.773815
endloop
endfacet
facet normal 0.002501 0.999988 -0.004322
outer loop
vertex 80.376427 36.497433 56.669880
vertex 84.559776 36.487129 56.706684
vertex 84.563202 36.485428 56.316528
endloop
endfacet
facet normal 0.002499 0.999987 -0.004347
outer loop
vertex 88.841232 36.474895 56.354160
vertex 89.173767 36.452179 51.319988
vertex 84.607468 36.463417 51.279808
endloop
endfacet
facet normal 0.002501 0.999987 -0.004348
outer loop
vertex 94.219498 36.439751 51.364388
vertex 94.837502 36.417709 46.652256
vertex 89.503487 36.430843 46.605324
endloop
endfacet
facet normal 0.002498 0.999987 -0.004347
outer loop
vertex 95.182480 36.416855 46.655075
vertex 95.794243 36.395046 41.990097
vertex 95.455536 36.395676 41.940231
endloop
endfacet
facet normal 0.954269 0.272076 0.123878
outer loop
vertex 95.287949 36.045532 46.657841
vertex 95.905914 36.023506 41.945816
vertex 95.794243 36.395046 41.990097
endloop
endfacet
facet normal 0.993022 -0.001972 0.117914
outer loop
vertex 96.519806 32.465530 36.716347
vertex 96.528648 35.999146 36.700989
vertex 95.905914 36.023506 41.945816
endloop
endfacet
facet normal 0.999959 -0.002458 0.008759
outer loop
vertex 96.516449 31.120834 36.722198
vertex 96.517242 31.120834 36.631615
vertex 96.519806 32.465530 36.716347
endloop
endfacet
facet normal -0.994470 0.002933 0.104979
outer loop
vertex 74.530632 31.120827 51.214611
vertex 75.062866 31.120829 56.256485
vertex 75.066574 32.604111 56.250038
endloop
endfacet
facet normal -0.894000 0.004184 0.448048
outer loop
vertex 75.066574 32.604111 56.250038
vertex 75.272644 32.605385 56.661201
vertex 75.281487 36.139000 56.645840
endloop
endfacet
facet normal -0.230203 0.313998 0.921092
outer loop
vertex 75.376068 36.509388 56.543205
vertex 75.281487 36.139000 56.645840
vertex 75.627289 36.138512 56.732426
endloop
endfacet
facet normal 0.002501 0.999987 -0.004328
outer loop
vertex 75.718414 36.508904 56.628899
vertex 80.376427 36.497433 56.669880
vertex 80.285179 36.495964 56.278885
endloop
endfacet
facet normal 0.002501 0.999987 -0.004348
outer loop
vertex 80.285179 36.495964 56.278885
vertex 84.563202 36.485428 56.316528
vertex 84.607468 36.463417 51.279808
endloop
endfacet
facet normal 0.002501 0.999987 -0.004349
outer loop
vertex 89.173767 36.452179 51.319988
vertex 89.503487 36.430843 46.605324
vertex 84.648911 36.442799 46.562607
endloop
endfacet
facet normal 0.002501 0.999987 -0.004348
outer loop
vertex 94.837502 36.417709 46.652256
vertex 95.455536 36.395676 41.940231
vertex 89.833221 36.409523 41.890770
endloop
endfacet
facet normal 0.002498 0.999987 -0.004349
outer loop
vertex 95.455536 36.395676 41.940231
vertex 95.794243 36.395046 41.990097
vertex 96.410767 36.370930 36.797844
endloop
endfacet
facet normal 0.955257 0.273689 0.112150
outer loop
vertex 95.905914 36.023506 41.945816
vertex 96.528648 35.999146 36.700989
vertex 96.410767 36.370930 36.797844
endloop
endfacet
facet normal 0.999958 -0.002459 0.008839
outer loop
vertex 96.525589 34.351654 36.587212
vertex 96.519806 32.465530 36.716347
vertex 96.520988 32.510921 36.595211
endloop
endfacet
facet normal 0.999956 -0.002459 0.009046
outer loop
vertex 96.517242 31.120834 36.631615
vertex 96.517517 31.120834 36.601257
vertex 96.520874 32.465000 36.595413
endloop
endfacet
facet normal -0.993638 0.002974 0.112581
outer loop
vertex 73.995583 31.120827 46.492249
vertex 74.530632 31.120827 51.214611
vertex 74.534286 32.583523 51.208252
endloop
endfacet
facet normal -0.994470 0.002947 0.104980
outer loop
vertex 74.534286 32.583523 51.208252
vertex 75.066574 32.604111 56.250038
vertex 75.075417 36.137726 56.234676
endloop
endfacet
facet normal -0.843613 0.332301 0.421775
outer loop
vertex 75.075417 36.137726 56.234676
vertex 75.281487 36.139000 56.645840
vertex 75.376068 36.509388 56.543205
endloop
endfacet
facet normal 0.002505 0.999987 -0.004371
outer loop
vertex 75.376068 36.509388 56.543205
vertex 75.718414 36.508904 56.628899
vertex 75.527718 36.507675 56.237034
endloop
endfacet
facet normal 0.002500 0.999987 -0.004347
outer loop
vertex 75.527718 36.507675 56.237034
vertex 80.285179 36.495964 56.278885
vertex 80.041168 36.474667 51.239639
endloop
endfacet
facet normal 0.002502 0.999987 -0.004347
outer loop
vertex 80.041168 36.474667 51.239639
vertex 84.607468 36.463417 51.279808
vertex 84.648911 36.442799 46.562607
endloop
endfacet
facet normal 0.002501 0.999987 -0.004346
outer loop
vertex 89.503487 36.430843 46.605324
vertex 89.833221 36.409523 41.890770
vertex 84.690369 36.422188 41.845520
endloop
endfacet
facet normal 0.002500 0.999987 -0.004348
outer loop
vertex 95.455536 36.395676 41.940231
vertex 96.078156 36.371319 36.695404
vertex 90.167625 36.385872 36.643402
endloop
endfacet
facet normal 0.002509 0.999988 -0.004337
outer loop
vertex 96.078156 36.371319 36.695404
vertex 96.410767 36.370930 36.797844
vertex 96.413651 36.369492 36.468845
endloop
endfacet
facet normal 0.953738 0.300557 0.007063
outer loop
vertex 96.410767 36.370930 36.797844
vertex 96.528648 35.999146 36.700989
vertex 96.427872 36.321819 36.577744
endloop
endfacet
facet normal -0.008777 0.004370 0.999952
outer loop
vertex 96.517517 31.120834 36.601257
vertex 96.724449 31.120836 36.603077
vertex 96.520874 32.465000 36.595413
endloop
endfacet
facet normal -0.993639 0.002987 0.112575
outer loop
vertex 73.460571 31.120825 41.770004
vertex 73.995583 31.120827 46.492249
vertex 73.999191 32.564323 46.485973
endloop
endfacet
facet normal -0.993638 0.002980 0.112580
outer loop
vertex 73.999191 32.564323 46.485973
vertex 74.534286 32.583523 51.208252
vertex 74.543129 36.117138 51.192890
endloop
endfacet
facet normal -0.955952 0.276034 0.099802
outer loop
vertex 75.172081 36.508125 56.136097
vertex 74.645111 36.487747 51.144753
vertex 74.543129 36.117138 51.192890
endloop
endfacet
facet normal 0.002499 0.999987 -0.004347
outer loop
vertex 75.172081 36.508125 56.136097
vertex 75.527718 36.507675 56.237034
vertex 74.995430 36.487091 51.195248
endloop
endfacet
facet normal 0.002501 0.999987 -0.004350
outer loop
vertex 74.995430 36.487091 51.195248
vertex 80.041168 36.474667 51.239639
vertex 79.794342 36.454754 46.519905
endloop
endfacet
facet normal 0.002501 0.999987 -0.004348
outer loop
vertex 79.794342 36.454754 46.519905
vertex 84.648911 36.442799 46.562607
vertex 84.690369 36.422188 41.845520
endloop
endfacet
facet normal 0.002501 0.999987 -0.004348
outer loop
vertex 89.833221 36.409523 41.890770
vertex 90.167625 36.385872 36.643402
vertex 84.736504 36.399246 36.595612
endloop
endfacet
facet normal 0.002500 0.999987 -0.004326
outer loop
vertex 90.167625 36.385872 36.643402
vertex 96.078156 36.371319 36.695404
vertex 95.966820 36.370594 36.464912
endloop
endfacet
facet normal 0.009136 0.262483 -0.964893
outer loop
vertex 95.981514 36.322392 36.451939
vertex 95.966820 36.370594 36.464912
vertex 96.413651 36.369492 36.468845
endloop
endfacet
facet normal -0.994940 0.002928 0.100424
outer loop
vertex 72.930153 31.120825 36.514931
vertex 73.460571 31.120825 41.770004
vertex 73.464127 32.545132 41.763809
endloop
endfacet
facet normal -0.993639 0.002977 0.112577
outer loop
vertex 73.464127 32.545132 41.763809
vertex 73.999191 32.564323 46.485973
vertex 74.008034 36.097939 46.470604
endloop
endfacet
facet normal -0.954976 0.276683 0.107088
outer loop
vertex 74.645111 36.487747 51.144753
vertex 74.115364 36.468735 46.469727
vertex 74.008034 36.097939 46.470604
endloop
endfacet
facet normal 0.002500 0.999987 -0.004348
outer loop
vertex 74.645111 36.487747 51.144753
vertex 74.995430 36.487091 51.195248
vertex 74.460335 36.467888 46.472961
endloop
endfacet
facet normal 0.002501 0.999987 -0.004347
outer loop
vertex 74.460335 36.467888 46.472961
vertex 79.794342 36.454754 46.519905
vertex 79.547523 36.434849 41.800270
endloop
endfacet
facet normal 0.002500 0.999987 -0.004349
outer loop
vertex 79.547523 36.434849 41.800270
vertex 84.690369 36.422188 41.845520
vertex 84.736504 36.399246 36.595612
endloop
endfacet
facet normal 0.002501 0.999987 -0.004356
outer loop
vertex 84.736504 36.399246 36.595612
vertex 90.167625 36.385872 36.643402
vertex 90.115326 36.385002 36.413429
endloop
endfacet
facet normal 0.009135 0.262447 -0.964903
outer loop
vertex 90.115326 36.385002 36.413429
vertex 95.966820 36.370594 36.464912
vertex 93.657059 36.328114 36.431488
endloop
endfacet
facet normal -0.008791 0.004348 0.999952
outer loop
vertex 96.427872 36.321819 36.577744
vertex 96.476509 36.167458 36.578842
vertex 96.806931 36.320885 36.581078
endloop
endfacet
facet normal -0.999958 0.002467 -0.008800
outer loop
vertex 72.930984 31.120825 36.420433
vertex 72.930153 31.120825 36.514931
vertex 72.933662 32.523613 36.508831
endloop
endfacet
facet normal -0.994941 0.002927 0.100423
outer loop
vertex 72.933662 32.523613 36.508831
vertex 73.464127 32.545132 41.763809
vertex 73.472969 36.078743 41.748451
endloop
endfacet
facet normal -0.954983 0.276660 0.107078
outer loop
vertex 74.008034 36.097939 46.470604
vertex 74.115364 36.468735 46.469727
vertex 73.585670 36.449738 41.794697
endloop
endfacet
facet normal 0.002496 0.999987 -0.004346
outer loop
vertex 74.115364 36.468735 46.469727
vertex 74.460335 36.467888 46.472961
vertex 73.925201 36.448696 41.750801
endloop
endfacet
facet normal 0.002501 0.999987 -0.004348
outer loop
vertex 73.925201 36.448696 41.750801
vertex 79.547523 36.434849 41.800270
vertex 79.305374 36.412621 36.547829
endloop
endfacet
facet normal 0.002501 0.999987 -0.004358
outer loop
vertex 79.361710 36.411484 36.318817
vertex 79.305374 36.412621 36.547829
vertex 84.736504 36.399246 36.595612
endloop
endfacet
facet normal 0.009134 0.262469 -0.964897
outer loop
vertex 90.115326 36.385002 36.413429
vertex 87.610756 36.343002 36.378292
vertex 84.738518 36.398243 36.366127
endloop
endfacet
facet normal -0.999958 0.002452 -0.008779
outer loop
vertex 72.930984 31.120825 36.420433
vertex 72.933662 32.523613 36.508831
vertex 72.934723 32.523087 36.387894
endloop
endfacet
facet normal -0.955710 0.278439 0.095341
outer loop
vertex 73.472969 36.078743 41.748451
vertex 73.585670 36.449738 41.794697
vertex 73.060493 36.428432 36.592400
endloop
endfacet
facet normal 0.002498 0.999987 -0.004349
outer loop
vertex 73.925201 36.448696 41.750801
vertex 73.394836 36.427177 36.495831
vertex 73.060493 36.428432 36.592400
endloop
endfacet
facet normal 0.002501 0.999987 -0.004342
outer loop
vertex 73.510216 36.425896 36.267334
vertex 73.394836 36.427177 36.495831
vertex 79.305374 36.412621 36.547829
endloop
endfacet
facet normal 0.009136 0.262524 -0.964882
outer loop
vertex 79.361710 36.411484 36.318817
vertex 84.738518 36.398243 36.366127
vertex 81.820023 36.357262 36.327343
endloop
endfacet
facet normal 0.002501 0.999987 -0.004349
outer loop
vertex 81.820023 36.357262 36.327343
vertex 84.715385 36.350132 36.352818
vertex 84.725555 36.345078 35.195202
endloop
endfacet
facet normal 0.002502 0.999987 -0.004347
outer loop
vertex 78.934830 36.359337 35.144253
vertex 79.354668 36.363335 36.305649
vertex 81.830193 36.352203 35.169727
endloop
endfacet
facet normal 0.002501 0.999987 -0.004341
outer loop
vertex 75.773712 36.372150 36.274147
vertex 78.924652 36.364391 36.301868
vertex 78.934830 36.359337 35.144253
endloop
endfacet
facet normal 0.002502 0.999987 -0.004345
outer loop
vertex 73.048088 36.378864 36.250164
vertex 73.495514 36.377762 36.254101
vertex 72.632935 36.374855 35.088806
endloop
endfacet
facet normal -0.008779 0.004369 0.999952
outer loop
vertex 72.679001 31.120825 36.391777
vertex 72.931213 31.120825 36.393990
vertex 72.934723 32.523087 36.387894
endloop
endfacet
facet normal -0.999958 0.002459 -0.008807
outer loop
vertex 72.933662 32.523613 36.508831
vertex 72.942497 36.057228 36.493469
vertex 72.939407 34.395325 36.379753
endloop
endfacet
facet normal -0.952217 0.305270 -0.009665
outer loop
vertex 72.942497 36.057228 36.493469
vertex 73.060493 36.428432 36.592400
vertex 73.047012 36.379395 36.372032
endloop
endfacet
facet normal 0.002501 0.999987 -0.004328
outer loop
vertex 73.063385 36.426998 36.263405
vertex 73.060493 36.428432 36.592400
vertex 73.394836 36.427177 36.495831
endloop
endfacet
facet normal 0.009134 0.262437 -0.964906
outer loop
vertex 75.773712 36.372150 36.274147
vertex 73.495514 36.377762 36.254101
vertex 73.510216 36.425896 36.267334
endloop
endfacet
facet normal -0.008788 0.004360 0.999952
outer loop
vertex 72.991577 36.206470 36.372299
vertex 73.047012 36.379395 36.372032
vertex 72.621696 36.380444 36.368290
endloop
endfacet
facet normal 0.009124 0.262477 -0.964895
outer loop
vertex 73.495514 36.377762 36.254101
vertex 73.048088 36.378864 36.250164
vertex 73.063385 36.426998 36.263405
endloop
endfacet
facet normal -0.008782 0.004369 0.999952
outer loop
vertex 72.616982 34.496651 36.376480
vertex 72.943558 36.056702 36.372532
vertex 72.621696 36.380444 36.368290
endloop
endfacet
facet normal -0.999958 0.002463 -0.008798
outer loop
vertex 72.818573 31.120823 25.989254
vertex 72.728600 31.120825 36.215828
vertex 72.786736 36.368320 31.077644
endloop
endfacet
facet normal 0.008981 0.088460 -0.996039
outer loop
vertex 96.691696 31.120834 26.204519
vertex 72.818573 31.120823 25.989254
vertex 72.820030 31.983677 26.065899
endloop
endfacet
facet normal 0.009136 0.271734 -0.962329
outer loop
vertex 72.820007 33.001717 26.353359
vertex 96.693024 32.942928 26.563400
vertex 96.693047 31.924887 26.275936
endloop
endfacet
facet normal 0.008970 0.447481 -0.894249
outer loop
vertex 72.818192 33.940845 26.823280
vertex 96.691200 33.882057 27.033323
vertex 96.693024 32.942928 26.563400
endloop
endfacet
facet normal 0.008474 0.609941 -0.792401
outer loop
vertex 72.814636 34.764973 27.457600
vertex 96.687653 34.706181 27.667641
vertex 96.691200 33.882057 27.033323
endloop
endfacet
facet normal 0.007646 0.752629 -0.658401
outer loop
vertex 72.809494 35.442421 28.231941
vertex 96.682503 35.383636 28.441986
vertex 96.687653 34.706181 27.667641
endloop
endfacet
facet normal 0.006499 0.868562 -0.495539
outer loop
vertex 72.802948 35.947166 29.116549
vertex 96.675964 35.888374 29.326588
vertex 96.682503 35.383636 28.441986
endloop
endfacet
facet normal 0.005064 0.950932 -0.309359
outer loop
vertex 72.795265 36.259800 30.077423
vertex 96.668289 36.201012 30.287464
vertex 96.675964 35.888374 29.326588
endloop
endfacet
facet normal 0.003397 0.994163 -0.107833
outer loop
vertex 72.786736 36.368320 31.077644
vertex 96.659744 36.309532 31.287682
vertex 96.668289 36.201012 30.287464
endloop
endfacet
facet normal 0.001578 0.995067 0.099190
outer loop
vertex 96.650696 36.209755 32.288811
vertex 96.659744 36.309532 31.287682
vertex 72.786736 36.368320 31.077644
endloop
endfacet
facet normal -0.000301 0.953598 0.301083
outer loop
vertex 96.641472 35.905529 33.252365
vertex 96.650696 36.209755 32.288811
vertex 72.777679 36.268547 32.078770
endloop
endfacet
facet normal -0.002144 0.872860 0.487966
outer loop
vertex 96.632423 35.408535 34.141331
vertex 96.641472 35.905529 33.252365
vertex 72.768456 35.964317 33.042324
endloop
endfacet
facet normal -0.003868 0.758355 0.651831
outer loop
vertex 96.623901 34.737877 34.921532
vertex 96.632423 35.408535 34.141331
vertex 72.759407 35.467323 33.931290
endloop
endfacet
facet normal -0.005406 0.616845 0.787066
outer loop
vertex 96.616249 33.919327 35.562996
vertex 96.623901 34.737877 34.921532
vertex 72.750893 34.796669 34.711491
endloop
endfacet
facet normal 0.999958 -0.002459 0.008797
outer loop
vertex 96.601822 31.120834 36.420135
vertex 96.691696 31.120834 26.204519
vertex 96.659744 36.309532 31.287682
endloop
endfacet
facet normal 0.000001 -1.000000 -0.000001
outer loop
vertex 72.619797 31.120823 35.111649
vertex 96.805183 31.120836 35.324181
vertex 91.715828 31.120834 36.559067
endloop
endfacet
facet normal 0.002501 0.999987 -0.004340
outer loop
vertex 96.818176 36.315296 35.301598
vertex 93.667236 36.323055 35.273872
vertex 93.655991 36.328644 36.553356
endloop
endfacet
facet normal 0.999958 -0.002462 0.008800
outer loop
vertex 96.813461 34.431503 35.309784
vertex 96.818176 36.315296 35.301598
vertex 96.806931 36.320885 36.581078
endloop
endfacet
facet normal -0.008788 0.004367 0.999952
outer loop
vertex 91.722931 33.960201 36.546715
vertex 96.806931 36.320885 36.581078
vertex 93.655991 36.328644 36.553356
endloop
endfacet
facet normal 0.008787 -0.004369 -0.999952
outer loop
vertex 72.619797 31.120823 35.111649
vertex 75.783882 36.367092 35.116531
vertex 78.934830 36.359337 35.144253
endloop
endfacet
facet normal 0.999958 -0.002463 0.008794
outer loop
vertex 96.808754 32.547714 35.317974
vertex 96.813461 34.431503 35.309784
vertex 96.802223 34.437092 36.589264
endloop
endfacet
facet normal -0.008787 0.004367 0.999952
outer loop
vertex 96.802223 34.437092 36.589264
vertex 96.806931 36.320885 36.581078
vertex 91.722931 33.960201 36.546715
endloop
endfacet
facet normal 0.999958 -0.002474 0.008794
outer loop
vertex 96.805183 31.120836 35.324181
vertex 96.808754 32.547714 35.317974
vertex 96.797516 32.553303 36.597458
endloop
endfacet
facet normal 0.002502 0.999987 -0.004347
outer loop
vertex 87.620926 36.337944 35.220676
vertex 84.725555 36.345078 35.195202
vertex 84.714317 36.350666 36.474686
endloop
endfacet
facet normal 0.002499 0.999987 -0.004352
outer loop
vertex 84.725555 36.345078 35.195202
vertex 81.830193 36.352203 35.169727
vertex 81.818947 36.357796 36.449211
endloop
endfacet
facet normal 0.002502 0.999987 -0.004350
outer loop
vertex 81.830193 36.352203 35.169727
vertex 78.934830 36.359337 35.144253
vertex 78.923584 36.364925 36.423737
endloop
endfacet
facet normal 0.002499 0.999987 -0.004357
outer loop
vertex 78.934830 36.359337 35.144253
vertex 75.783882 36.367092 35.116531
vertex 75.772644 36.372684 36.396011
endloop
endfacet
facet normal 0.002502 0.999987 -0.004347
outer loop
vertex 75.783882 36.367092 35.116531
vertex 72.632935 36.374855 35.088806
vertex 72.621696 36.380444 36.368290
endloop
endfacet
facet normal -0.999958 0.002463 -0.008794
outer loop
vertex 72.621696 36.380444 36.368290
vertex 72.632935 36.374855 35.088806
vertex 72.628227 34.491058 35.096996
endloop
endfacet
facet normal -0.999958 0.002457 -0.008800
outer loop
vertex 72.616982 34.496651 36.376480
vertex 72.628227 34.491058 35.096996
vertex 72.623520 32.607269 35.105186
endloop
endfacet
facet normal -0.999958 0.002465 -0.008801
outer loop
vertex 72.619797 31.120823 35.111649
vertex 72.608536 31.120823 36.391159
vertex 72.612274 32.612858 36.384666
endloop
endfacet
facet normal -0.008787 0.004372 0.999952
outer loop
vertex 96.797516 32.553303 36.597458
vertex 96.802223 34.437092 36.589264
vertex 91.720200 32.867474 36.551468
endloop
endfacet
facet normal -0.008784 0.004371 0.999952
outer loop
vertex 77.686646 31.120827 36.435780
vertex 77.688362 31.809292 36.432785
vertex 72.612274 32.612858 36.384666
endloop
endfacet
facet normal -0.008789 0.004367 0.999952
outer loop
vertex 72.616982 34.496651 36.376480
vertex 72.612274 32.612858 36.384666
vertex 77.688362 31.809292 36.432785
endloop
endfacet
facet normal -0.008788 0.004369 0.999952
outer loop
vertex 72.621696 36.380444 36.368290
vertex 72.616982 34.496651 36.376480
vertex 77.691093 32.902023 36.428032
endloop
endfacet
facet normal -0.008786 0.004371 0.999952
outer loop
vertex 75.772644 36.372684 36.396011
vertex 72.621696 36.380444 36.368290
vertex 77.693832 33.994751 36.423286
endloop
endfacet
facet normal -0.008787 0.004368 0.999952
outer loop
vertex 96.793930 31.120836 36.603683
vertex 96.797516 32.553303 36.597458
vertex 91.717461 31.774746 36.556221
endloop
endfacet
facet normal 0.000000 -1.000000 0.000000
outer loop
vertex 72.930153 31.120825 36.514931
vertex 96.516449 31.120834 36.722198
vertex 95.893646 31.120836 41.967133
endloop
endfacet
facet normal -0.008806 0.004368 0.999952
outer loop
vertex 96.525589 34.351654 36.587212
vertex 96.520988 32.510921 36.595211
vertex 96.797516 32.553303 36.597458
endloop
endfacet
facet normal -0.008787 0.004367 0.999952
outer loop
vertex 96.802223 34.437092 36.589264
vertex 96.806931 36.320885 36.581078
vertex 96.529709 35.998619 36.580051
endloop
endfacet
facet normal -0.009634 0.004416 0.999944
outer loop
vertex 96.520988 32.510921 36.595211
vertex 96.520874 32.465000 36.595413
vertex 96.724449 31.120836 36.603077
endloop
endfacet
facet normal 0.002501 0.999987 -0.004346
outer loop
vertex 96.818176 36.315296 35.301598
vertex 93.667236 36.323055 35.273872
vertex 95.981514 36.322392 36.451939
endloop
endfacet
facet normal 0.002501 0.999987 -0.004347
outer loop
vertex 90.506119 36.335873 36.403767
vertex 93.657059 36.328114 36.431488
vertex 93.667236 36.323055 35.273872
endloop
endfacet
facet normal 0.002501 0.999987 -0.004341
outer loop
vertex 87.620926 36.337944 35.220676
vertex 90.122368 36.336815 36.400391
vertex 90.516289 36.330814 35.246151
endloop
endfacet
facet normal 0.002502 0.999987 -0.004343
outer loop
vertex 84.725555 36.345078 35.195202
vertex 84.738510 36.350075 36.353020
vertex 87.620926 36.337944 35.220676
endloop
endfacet
facet normal -0.008789 0.004370 0.999952
outer loop
vertex 72.934814 32.561798 36.387726
vertex 72.939407 34.395325 36.379753
vertex 72.616982 34.496651 36.376480
endloop
endfacet
facet normal -0.008198 0.004353 0.999957
outer loop
vertex 72.679001 31.120825 36.391777
vertex 72.934723 32.523087 36.387894
vertex 72.934814 32.561798 36.387726
endloop
endfacet
facet normal -0.000001 1.000000 0.000001
outer loop
vertex 72.619797 31.120823 35.111649
vertex 96.601822 31.120834 36.420135
vertex 96.805183 31.120836 35.324181
endloop
endfacet
facet normal 0.002501 0.999987 -0.004348
outer loop
vertex 93.655991 36.328644 36.553356
vertex 93.667236 36.323055 35.273872
vertex 90.505051 36.336403 36.525635
endloop
endfacet
facet normal -0.008794 0.004371 0.999952
outer loop
vertex 79.521591 33.990250 36.439365
vertex 77.688362 31.809292 36.432785
vertex 77.686646 31.120827 36.435780
endloop
endfacet
facet normal -0.008789 0.004365 0.999952
outer loop
vertex 79.521591 33.990250 36.439365
vertex 77.693832 33.994751 36.423286
vertex 77.691093 32.902023 36.428032
endloop
endfacet
facet normal -0.008784 0.004371 0.999952
outer loop
vertex 77.686646 31.120827 36.435780
vertex 84.708374 33.977478 36.485001
vertex 83.028870 33.981613 36.470222
endloop
endfacet
facet normal -0.008782 0.004371 0.999952
outer loop
vertex 77.688362 31.809292 36.432785
vertex 79.521591 33.990250 36.439365
vertex 77.691093 32.902023 36.428032
endloop
endfacet
facet normal -0.008789 0.004370 0.999952
outer loop
vertex 91.715828 31.120834 36.559067
vertex 86.387894 33.973343 36.499779
vertex 84.708374 33.977478 36.485001
endloop
endfacet
facet normal -0.008790 0.004370 0.999952
outer loop
vertex 77.686646 31.120827 36.435780
vertex 81.349358 33.985748 36.455448
vertex 79.521591 33.990250 36.439365
endloop
endfacet
facet normal -0.008788 0.004370 0.999952
outer loop
vertex 84.708374 33.977478 36.485001
vertex 77.686646 31.120827 36.435780
vertex 91.715828 31.120834 36.559067
endloop
endfacet
facet normal -0.008782 0.004372 0.999952
outer loop
vertex 89.895164 33.964706 36.530636
vertex 91.720200 32.867474 36.551468
vertex 91.722931 33.960201 36.546715
endloop
endfacet
facet normal -0.008777 0.004374 0.999952
outer loop
vertex 89.895164 33.964706 36.530636
vertex 91.715828 31.120834 36.559067
vertex 91.717461 31.774746 36.556221
endloop
endfacet
facet normal -0.008787 0.004367 0.999952
outer loop
vertex 77.686646 31.120827 36.435780
vertex 83.028870 33.981613 36.470222
vertex 81.349358 33.985748 36.455448
endloop
endfacet
facet normal -0.008788 0.004372 0.999952
outer loop
vertex 91.715828 31.120834 36.559067
vertex 89.895164 33.964706 36.530636
vertex 88.067398 33.969204 36.514557
endloop
endfacet
facet normal -0.008789 0.004371 0.999952
outer loop
vertex 89.895164 33.964706 36.530636
vertex 91.717461 31.774746 36.556221
vertex 91.720200 32.867474 36.551468
endloop
endfacet
facet normal -0.008787 0.004368 0.999952
outer loop
vertex 88.067398 33.969204 36.514557
vertex 89.895164 33.964706 36.530636
vertex 90.505051 36.336403 36.525635
endloop
endfacet
facet normal 0.002502 0.999987 -0.004345
outer loop
vertex 90.505051 36.336403 36.525635
vertex 90.516289 36.330814 35.246151
vertex 87.609680 36.343536 36.500160
endloop
endfacet
facet normal -0.008787 0.004368 0.999952
outer loop
vertex 81.349358 33.985748 36.455448
vertex 78.923584 36.364925 36.423737
vertex 79.521591 33.990250 36.439365
endloop
endfacet
facet normal -0.008782 0.004368 0.999952
outer loop
vertex 83.028870 33.981613 36.470222
vertex 81.818947 36.357796 36.449211
vertex 81.349358 33.985748 36.455448
endloop
endfacet
facet normal -0.008785 0.004368 0.999952
outer loop
vertex 84.708374 33.977478 36.485001
vertex 84.714317 36.350666 36.474686
vertex 83.028870 33.981613 36.470222
endloop
endfacet
facet normal -0.008789 0.004368 0.999952
outer loop
vertex 84.708374 33.977478 36.485001
vertex 86.387894 33.973343 36.499779
vertex 84.714317 36.350666 36.474686
endloop
endfacet
facet normal -0.008785 0.004369 0.999952
outer loop
vertex 86.387894 33.973343 36.499779
vertex 88.067398 33.969204 36.514557
vertex 87.609680 36.343536 36.500160
endloop
endfacet
facet normal 0.225750 0.003667 0.974178
outer loop
vertex 93.476166 31.120838 56.911190
vertex 93.823441 31.120838 56.830708
vertex 93.479767 32.560909 56.904934
endloop
endfacet
facet normal -0.008784 0.004368 0.999952
outer loop
vertex 88.771088 31.120834 56.869846
vertex 93.476166 31.120838 56.911190
vertex 88.774719 32.572498 56.863537
endloop
endfacet
facet normal 0.225813 0.003670 0.974164
outer loop
vertex 93.479767 32.560909 56.904934
vertex 93.827042 32.559692 56.824448
vertex 93.488602 36.094528 56.889572
endloop
endfacet
facet normal 0.885990 -0.000196 0.463704
outer loop
vertex 93.823441 31.120838 56.830708
vertex 94.036705 31.120838 56.423214
vertex 93.827042 32.559692 56.824448
endloop
endfacet
facet normal -0.008787 0.004366 0.999952
outer loop
vertex 84.545448 31.120832 56.832710
vertex 88.771088 31.120834 56.869846
vertex 84.549103 32.582901 56.826359
endloop
endfacet
facet normal -0.008786 0.004369 0.999952
outer loop
vertex 88.774719 32.572498 56.863537
vertex 93.479767 32.560909 56.904934
vertex 88.783554 36.106113 56.848175
endloop
endfacet
facet normal 0.215395 0.312982 0.925012
outer loop
vertex 93.401131 36.465363 56.784470
vertex 93.488602 36.094528 56.889572
vertex 93.744934 36.464149 56.704823
endloop
endfacet
facet normal 0.885996 -0.000197 0.463692
outer loop
vertex 93.827042 32.559692 56.824448
vertex 94.040298 32.557384 56.416969
vertex 93.835876 36.093307 56.809090
endloop
endfacet
facet normal 0.992471 -0.001961 0.122462
outer loop
vertex 94.036705 31.120838 56.423214
vertex 94.657578 31.120836 51.391476
vertex 94.040298 32.557384 56.416969
endloop
endfacet
facet normal -0.008784 0.004372 0.999952
outer loop
vertex 80.319817 31.120831 56.795582
vertex 84.545448 31.120832 56.832710
vertex 80.323502 32.593307 56.789177
endloop
endfacet
facet normal -0.008786 0.004369 0.999952
outer loop
vertex 84.549103 32.582901 56.826359
vertex 88.774719 32.572498 56.863537
vertex 84.557945 36.116516 56.810997
endloop
endfacet
facet normal -0.007802 0.270960 0.962559
outer loop
vertex 88.743126 36.476833 56.743488
vertex 88.783554 36.106113 56.848175
vertex 93.401131 36.465363 56.784470
endloop
endfacet
facet normal 0.002502 0.999987 -0.004338
outer loop
vertex 93.956047 36.461872 56.301357
vertex 93.598686 36.463177 56.396023
vertex 93.744934 36.464149 56.704823
endloop
endfacet
facet normal 0.837705 0.328237 0.436476
outer loop
vertex 93.956047 36.461872 56.301357
vertex 93.744934 36.464149 56.704823
vertex 94.049133 36.091003 56.401608
endloop
endfacet
facet normal 0.992472 -0.001949 0.122460
outer loop
vertex 94.040298 32.557384 56.416969
vertex 94.661102 32.533958 51.385334
vertex 94.049133 36.091003 56.401608
endloop
endfacet
facet normal 0.991506 -0.001918 0.130045
outer loop
vertex 94.657578 31.120836 51.391476
vertex 95.275627 31.120836 46.679253
vertex 94.661102 32.533958 51.385334
endloop
endfacet
facet normal -0.008784 0.004368 0.999952
outer loop
vertex 75.614738 31.120829 56.754238
vertex 80.319817 31.120831 56.795582
vertex 75.618446 32.604897 56.747787
endloop
endfacet
facet normal -0.008788 0.004369 0.999952
outer loop
vertex 80.323502 32.593307 56.789177
vertex 84.549103 32.582901 56.826359
vertex 80.332336 36.126923 56.773815
endloop
endfacet
facet normal -0.007801 0.270967 0.962557
outer loop
vertex 84.559776 36.487129 56.706684
vertex 84.557945 36.116516 56.810997
vertex 88.743126 36.476833 56.743488
endloop
endfacet
facet normal 0.002502 0.999987 -0.004373
outer loop
vertex 93.598686 36.463177 56.396023
vertex 88.841232 36.474895 56.354160
vertex 93.401131 36.465363 56.784470
endloop
endfacet
facet normal 0.002499 0.999987 -0.004348
outer loop
vertex 93.598686 36.463177 56.396023
vertex 93.956047 36.461872 56.301357
vertex 94.219498 36.439751 51.364388
endloop
endfacet
facet normal 0.955402 0.271307 0.116616
outer loop
vertex 94.570648 36.438679 51.320065
vertex 93.956047 36.461872 56.301357
vertex 94.669945 36.067577 51.369972
endloop
endfacet
facet normal 0.991506 -0.001919 0.130048
outer loop
vertex 94.661102 32.533958 51.385334
vertex 95.279114 32.511917 46.673203
vertex 94.669945 36.067577 51.369972
endloop
endfacet
facet normal 0.991507 -0.001911 0.130041
outer loop
vertex 95.275627 31.120836 46.679253
vertex 95.893646 31.120836 41.967133
vertex 95.279114 32.511917 46.673203
endloop
endfacet
facet normal -0.242860 0.004828 0.970049
outer loop
vertex 75.268936 31.120829 56.667656
vertex 75.614738 31.120829 56.754238
vertex 75.272644 32.605385 56.661201
endloop
endfacet
facet normal -0.008786 0.004369 0.999952
outer loop
vertex 75.618446 32.604897 56.747787
vertex 80.323502 32.593307 56.789177
vertex 75.627289 36.138512 56.732426
endloop
endfacet
facet normal -0.007801 0.270967 0.962557
outer loop
vertex 84.559776 36.487129 56.706684
vertex 80.376427 36.497433 56.669880
vertex 84.557945 36.116516 56.810997
endloop
endfacet
facet normal 0.002500 0.999987 -0.004351
outer loop
vertex 88.841232 36.474895 56.354160
vertex 84.563202 36.485428 56.316528
vertex 88.743126 36.476833 56.743488
endloop
endfacet
facet normal 0.002501 0.999987 -0.004346
outer loop
vertex 88.841232 36.474895 56.354160
vertex 93.598686 36.463177 56.396023
vertex 89.173767 36.452179 51.319988
endloop
endfacet
facet normal 0.002504 0.999987 -0.004349
outer loop
vertex 94.219498 36.439751 51.364388
vertex 94.570648 36.438679 51.320065
vertex 94.837502 36.417709 46.652256
endloop
endfacet
facet normal 0.954294 0.271982 0.123889
outer loop
vertex 95.182480 36.416855 46.655075
vertex 94.570648 36.438679 51.320065
vertex 95.287949 36.045532 46.657841
endloop
endfacet
facet normal 0.991507 -0.001919 0.130040
outer loop
vertex 95.279114 32.511917 46.673203
vertex 95.897072 32.489891 41.961182
vertex 95.287949 36.045532 46.657841
endloop
endfacet
facet normal 0.993022 -0.001967 0.117915
outer loop
vertex 95.893646 31.120836 41.967133
vertex 96.516449 31.120834 36.722198
vertex 95.897072 32.489891 41.961182
endloop
endfacet
facet normal -0.893999 0.004177 0.448051
outer loop
vertex 75.066574 32.604111 56.250038
vertex 75.062866 31.120829 56.256485
vertex 75.272644 32.605385 56.661201
endloop
endfacet
facet normal -0.242895 0.004826 0.970041
outer loop
vertex 75.272644 32.605385 56.661201
vertex 75.618446 32.604897 56.747787
vertex 75.281487 36.139000 56.645840
endloop
endfacet
facet normal -0.007802 0.270950 0.962562
outer loop
vertex 80.376427 36.497433 56.669880
vertex 75.718414 36.508904 56.628899
vertex 80.332336 36.126923 56.773815
endloop
endfacet
facet normal 0.002501 0.999987 -0.004333
outer loop
vertex 80.285179 36.495964 56.278885
vertex 80.376427 36.497433 56.669880
vertex 84.563202 36.485428 56.316528
endloop
endfacet
facet normal 0.002500 0.999987 -0.004351
outer loop
vertex 84.563202 36.485428 56.316528
vertex 88.841232 36.474895 56.354160
vertex 84.607468 36.463417 51.279808
endloop
endfacet
facet normal 0.002501 0.999987 -0.004351
outer loop
vertex 89.173767 36.452179 51.319988
vertex 94.219498 36.439751 51.364388
vertex 89.503487 36.430843 46.605324
endloop
endfacet
facet normal 0.002513 0.999987 -0.004346
outer loop
vertex 94.837502 36.417709 46.652256
vertex 95.182480 36.416855 46.655075
vertex 95.455536 36.395676 41.940231
endloop
endfacet
facet normal 0.954296 0.271983 0.123874
outer loop
vertex 95.182480 36.416855 46.655075
vertex 95.287949 36.045532 46.657841
vertex 95.794243 36.395046 41.990097
endloop
endfacet
facet normal 0.993022 -0.001975 0.117914
outer loop
vertex 95.897072 32.489891 41.961182
vertex 96.519806 32.465530 36.716347
vertex 95.905914 36.023506 41.945816
endloop
endfacet
facet normal -0.994470 0.002947 0.104980
outer loop
vertex 74.534286 32.583523 51.208252
vertex 74.530632 31.120827 51.214611
vertex 75.066574 32.604111 56.250038
endloop
endfacet
facet normal -0.893999 0.004185 0.448049
outer loop
vertex 75.075417 36.137726 56.234676
vertex 75.066574 32.604111 56.250038
vertex 75.281487 36.139000 56.645840
endloop
endfacet
facet normal -0.230133 0.314065 0.921087
outer loop
vertex 75.718414 36.508904 56.628899
vertex 75.376068 36.509388 56.543205
vertex 75.627289 36.138512 56.732426
endloop
endfacet
facet normal 0.002500 0.999987 -0.004340
outer loop
vertex 75.527718 36.507675 56.237034
vertex 75.718414 36.508904 56.628899
vertex 80.285179 36.495964 56.278885
endloop
endfacet
facet normal 0.002502 0.999987 -0.004349
outer loop
vertex 80.041168 36.474667 51.239639
vertex 80.285179 36.495964 56.278885
vertex 84.607468 36.463417 51.279808
endloop
endfacet
facet normal 0.002499 0.999987 -0.004349
outer loop
vertex 84.607468 36.463417 51.279808
vertex 89.173767 36.452179 51.319988
vertex 84.648911 36.442799 46.562607
endloop
endfacet
facet normal 0.002501 0.999987 -0.004348
outer loop
vertex 89.503487 36.430843 46.605324
vertex 94.837502 36.417709 46.652256
vertex 89.833221 36.409523 41.890770
endloop
endfacet
facet normal 0.002508 0.999987 -0.004346
outer loop
vertex 96.078156 36.371319 36.695404
vertex 95.455536 36.395676 41.940231
vertex 96.410767 36.370930 36.797844
endloop
endfacet
facet normal 0.955254 0.273700 0.112155
outer loop
vertex 95.794243 36.395046 41.990097
vertex 95.905914 36.023506 41.945816
vertex 96.410767 36.370930 36.797844
endloop
endfacet
facet normal 0.999958 -0.002461 0.008779
outer loop
vertex 96.525589 34.351654 36.587212
vertex 96.529709 35.998619 36.580051
vertex 96.528648 35.999146 36.700989
endloop
endfacet
facet normal 0.999958 -0.002597 0.008845
outer loop
vertex 96.519806 32.465530 36.716347
vertex 96.520874 32.465000 36.595413
vertex 96.520988 32.510921 36.595211
endloop
endfacet
facet normal 0.999958 -0.002464 0.008791
outer loop
vertex 96.519806 32.465530 36.716347
vertex 96.525589 34.351654 36.587212
vertex 96.528648 35.999146 36.700989
endloop
endfacet
facet normal 0.999958 -0.002458 0.008843
outer loop
vertex 96.519806 32.465530 36.716347
vertex 96.517242 31.120834 36.631615
vertex 96.520874 32.465000 36.595413
endloop
endfacet
facet normal -0.993638 0.002963 0.112579
outer loop
vertex 73.999191 32.564323 46.485973
vertex 73.995583 31.120827 46.492249
vertex 74.534286 32.583523 51.208252
endloop
endfacet
facet normal -0.994470 0.002944 0.104979
outer loop
vertex 74.543129 36.117138 51.192890
vertex 74.534286 32.583523 51.208252
vertex 75.075417 36.137726 56.234676
endloop
endfacet
facet normal -0.843614 0.332418 0.421679
outer loop
vertex 75.172081 36.508125 56.136097
vertex 75.075417 36.137726 56.234676
vertex 75.376068 36.509388 56.543205
endloop
endfacet
facet normal 0.002502 0.999987 -0.004362
outer loop
vertex 75.172081 36.508125 56.136097
vertex 75.376068 36.509388 56.543205
vertex 75.527718 36.507675 56.237034
endloop
endfacet
facet normal 0.002501 0.999987 -0.004348
outer loop
vertex 74.995430 36.487091 51.195248
vertex 75.527718 36.507675 56.237034
vertex 80.041168 36.474667 51.239639
endloop
endfacet
facet normal 0.002501 0.999987 -0.004349
outer loop
vertex 79.794342 36.454754 46.519905
vertex 80.041168 36.474667 51.239639
vertex 84.648911 36.442799 46.562607
endloop
endfacet
facet normal 0.002501 0.999987 -0.004348
outer loop
vertex 84.648911 36.442799 46.562607
vertex 89.503487 36.430843 46.605324
vertex 84.690369 36.422188 41.845520
endloop
endfacet
facet normal 0.002501 0.999987 -0.004347
outer loop
vertex 89.833221 36.409523 41.890770
vertex 95.455536 36.395676 41.940231
vertex 90.167625 36.385872 36.643402
endloop
endfacet
facet normal 0.002505 0.999987 -0.004371
outer loop
vertex 95.966820 36.370594 36.464912
vertex 96.078156 36.371319 36.695404
vertex 96.413651 36.369492 36.468845
endloop
endfacet
facet normal 0.953713 0.300635 0.007049
outer loop
vertex 96.427872 36.321819 36.577744
vertex 96.413651 36.369492 36.468845
vertex 96.410767 36.370930 36.797844
endloop
endfacet
facet normal 0.953727 0.300591 0.007016
outer loop
vertex 96.528648 35.999146 36.700989
vertex 96.476509 36.167458 36.578842
vertex 96.427872 36.321819 36.577744
endloop
endfacet
facet normal 0.953747 0.300528 0.007053
outer loop
vertex 96.427872 36.321819 36.577744
vertex 96.428940 36.321285 36.455875
vertex 96.413651 36.369492 36.468845
endloop
endfacet
facet normal 0.953734 0.300568 0.007059
outer loop
vertex 96.476509 36.167458 36.578842
vertex 96.528648 35.999146 36.700989
vertex 96.529709 35.998619 36.580051
endloop
endfacet
facet normal -0.993639 0.002967 0.112576
outer loop
vertex 73.464127 32.545132 41.763809
vertex 73.460571 31.120825 41.770004
vertex 73.999191 32.564323 46.485973
endloop
endfacet
facet normal -0.993638 0.002973 0.112580
outer loop
vertex 74.008034 36.097939 46.470604
vertex 73.999191 32.564323 46.485973
vertex 74.543129 36.117138 51.192890
endloop
endfacet
facet normal -0.955957 0.276020 0.099796
outer loop
vertex 75.075417 36.137726 56.234676
vertex 75.172081 36.508125 56.136097
vertex 74.543129 36.117138 51.192890
endloop
endfacet
facet normal 0.002500 0.999987 -0.004347
outer loop
vertex 74.645111 36.487747 51.144753
vertex 75.172081 36.508125 56.136097
vertex 74.995430 36.487091 51.195248
endloop
endfacet
facet normal 0.002501 0.999987 -0.004351
outer loop
vertex 74.460335 36.467888 46.472961
vertex 74.995430 36.487091 51.195248
vertex 79.794342 36.454754 46.519905
endloop
endfacet
facet normal 0.002500 0.999987 -0.004347
outer loop
vertex 79.547523 36.434849 41.800270
vertex 79.794342 36.454754 46.519905
vertex 84.690369 36.422188 41.845520
endloop
endfacet
facet normal 0.002501 0.999987 -0.004348
outer loop
vertex 84.690369 36.422188 41.845520
vertex 89.833221 36.409523 41.890770
vertex 84.736504 36.399246 36.595612
endloop
endfacet
facet normal 0.002501 0.999987 -0.004340
outer loop
vertex 90.115326 36.385002 36.413429
vertex 90.167625 36.385872 36.643402
vertex 95.966820 36.370594 36.464912
endloop
endfacet
facet normal 0.009138 0.262528 -0.964881
outer loop
vertex 96.428940 36.321285 36.455875
vertex 95.981514 36.322392 36.451939
vertex 96.413651 36.369492 36.468845
endloop
endfacet
facet normal -0.994941 0.002924 0.100422
outer loop
vertex 72.933662 32.523613 36.508831
vertex 72.930153 31.120825 36.514931
vertex 73.464127 32.545132 41.763809
endloop
endfacet
facet normal -0.993639 0.002973 0.112577
outer loop
vertex 73.472969 36.078743 41.748451
vertex 73.464127 32.545132 41.763809
vertex 74.008034 36.097939 46.470604
endloop
endfacet
facet normal -0.954976 0.276682 0.107087
outer loop
vertex 74.543129 36.117138 51.192890
vertex 74.645111 36.487747 51.144753
vertex 74.008034 36.097939 46.470604
endloop
endfacet
facet normal 0.002496 0.999987 -0.004351
outer loop
vertex 74.115364 36.468735 46.469727
vertex 74.645111 36.487747 51.144753
vertex 74.460335 36.467888 46.472961
endloop
endfacet
facet normal 0.002501 0.999987 -0.004349
outer loop
vertex 73.925201 36.448696 41.750801
vertex 74.460335 36.467888 46.472961
vertex 79.547523 36.434849 41.800270
endloop
endfacet
facet normal 0.002501 0.999987 -0.004346
outer loop
vertex 79.305374 36.412621 36.547829
vertex 79.547523 36.434849 41.800270
vertex 84.736504 36.399246 36.595612
endloop
endfacet
facet normal 0.002501 0.999988 -0.004328
outer loop
vertex 84.738518 36.398243 36.366127
vertex 84.736504 36.399246 36.595612
vertex 90.115326 36.385002 36.413429
endloop
endfacet
facet normal 0.009134 0.262408 -0.964914
outer loop
vertex 90.506119 36.335873 36.403767
vertex 90.122368 36.336815 36.400391
vertex 90.115326 36.385002 36.413429
endloop
endfacet
facet normal 0.009138 0.262506 -0.964887
outer loop
vertex 95.966820 36.370594 36.464912
vertex 95.981514 36.322392 36.451939
vertex 93.657059 36.328114 36.431488
endloop
endfacet
facet normal 0.009135 0.262432 -0.964907
outer loop
vertex 93.657059 36.328114 36.431488
vertex 90.506119 36.335873 36.403767
vertex 90.115326 36.385002 36.413429
endloop
endfacet
facet normal -0.994940 0.002924 0.100424
outer loop
vertex 72.942497 36.057228 36.493469
vertex 72.933662 32.523613 36.508831
vertex 73.472969 36.078743 41.748451
endloop
endfacet
facet normal -0.954957 0.276749 0.107080
outer loop
vertex 73.472969 36.078743 41.748451
vertex 74.008034 36.097939 46.470604
vertex 73.585670 36.449738 41.794697
endloop
endfacet
facet normal 0.002505 0.999987 -0.004345
outer loop
vertex 73.585670 36.449738 41.794697
vertex 74.115364 36.468735 46.469727
vertex 73.925201 36.448696 41.750801
endloop
endfacet
facet normal 0.002501 0.999987 -0.004347
outer loop
vertex 73.394836 36.427177 36.495831
vertex 73.925201 36.448696 41.750801
vertex 79.305374 36.412621 36.547829
endloop
endfacet
facet normal 0.002501 0.999987 -0.004377
outer loop
vertex 84.738518 36.398243 36.366127
vertex 79.361710 36.411484 36.318817
vertex 84.736504 36.399246 36.595612
endloop
endfacet
facet normal 0.009137 0.262447 -0.964903
outer loop
vertex 87.610756 36.343002 36.378292
vertex 90.115326 36.385002 36.413429
vertex 90.122368 36.336815 36.400391
endloop
endfacet
facet normal 0.009134 0.262575 -0.964868
outer loop
vertex 87.610756 36.343002 36.378292
vertex 84.738510 36.350075 36.353020
vertex 84.738518 36.398243 36.366127
endloop
endfacet
facet normal -0.999960 0.002469 -0.008656
outer loop
vertex 72.931213 31.120825 36.393990
vertex 72.930984 31.120825 36.420433
vertex 72.934723 32.523087 36.387894
endloop
endfacet
facet normal -0.955719 0.278409 0.095335
outer loop
vertex 72.942497 36.057228 36.493469
vertex 73.472969 36.078743 41.748451
vertex 73.060493 36.428432 36.592400
endloop
endfacet
facet normal 0.002505 0.999987 -0.004349
outer loop
vertex 73.585670 36.449738 41.794697
vertex 73.925201 36.448696 41.750801
vertex 73.060493 36.428432 36.592400
endloop
endfacet
facet normal 0.002501 0.999987 -0.004340
outer loop
vertex 79.361710 36.411484 36.318817
vertex 73.510216 36.425896 36.267334
vertex 79.305374 36.412621 36.547829
endloop
endfacet
facet normal 0.009138 0.262536 -0.964879
outer loop
vertex 81.820023 36.357262 36.327343
vertex 79.354668 36.363335 36.305649
vertex 79.361710 36.411484 36.318817
endloop
endfacet
facet normal 0.009138 0.262555 -0.964874
outer loop
vertex 84.738518 36.398243 36.366127
vertex 84.715385 36.350132 36.352818
vertex 81.820023 36.357262 36.327343
endloop
endfacet
facet normal 0.009088 0.262518 -0.964884
outer loop
vertex 84.715385 36.350132 36.352818
vertex 84.738518 36.398243 36.366127
vertex 84.738510 36.350075 36.353020
endloop
endfacet
facet normal 0.002499 0.999987 -0.004347
outer loop
vertex 81.830193 36.352203 35.169727
vertex 81.820023 36.357262 36.327343
vertex 84.725555 36.345078 35.195202
endloop
endfacet
facet normal 0.002496 0.999987 -0.004338
outer loop
vertex 79.354668 36.363335 36.305649
vertex 78.934830 36.359337 35.144253
vertex 78.924652 36.364391 36.301868
endloop
endfacet
facet normal 0.002502 0.999987 -0.004346
outer loop
vertex 79.354668 36.363335 36.305649
vertex 81.820023 36.357262 36.327343
vertex 81.830193 36.352203 35.169727
endloop
endfacet
facet normal 0.002499 0.999987 -0.004354
outer loop
vertex 75.783882 36.367092 35.116531
vertex 75.773712 36.372150 36.274147
vertex 78.934830 36.359337 35.144253
endloop
endfacet
facet normal 0.002505 0.999987 -0.004379
outer loop
vertex 73.048088 36.378864 36.250164
vertex 72.621696 36.380444 36.368290
vertex 73.047012 36.379395 36.372032
endloop
endfacet
facet normal 0.002502 0.999987 -0.004350
outer loop
vertex 73.495514 36.377762 36.254101
vertex 75.783882 36.367092 35.116531
vertex 72.632935 36.374855 35.088806
endloop
endfacet
facet normal 0.002500 0.999987 -0.004346
outer loop
vertex 72.632935 36.374855 35.088806
vertex 72.621696 36.380444 36.368290
vertex 73.048088 36.378864 36.250164
endloop
endfacet
facet normal 0.002501 0.999988 -0.004337
outer loop
vertex 73.495514 36.377762 36.254101
vertex 75.773712 36.372150 36.274147
vertex 75.783882 36.367092 35.116531
endloop
endfacet
facet normal -0.999959 0.002475 -0.008735
outer loop
vertex 72.933662 32.523613 36.508831
vertex 72.939407 34.395325 36.379753
vertex 72.934814 32.561798 36.387726
endloop
endfacet
facet normal -0.999959 0.002444 -0.008779
outer loop
vertex 72.934814 32.561798 36.387726
vertex 72.934723 32.523087 36.387894
vertex 72.933662 32.523613 36.508831
endloop
endfacet
facet normal -0.999958 0.002459 -0.008779
outer loop
vertex 72.939407 34.395325 36.379753
vertex 72.942497 36.057228 36.493469
vertex 72.943558 36.056702 36.372532
endloop
endfacet
facet normal -0.952201 0.305317 -0.009704
outer loop
vertex 72.991577 36.206470 36.372299
vertex 72.943558 36.056702 36.372532
vertex 72.942497 36.057228 36.493469
endloop
endfacet
facet normal -0.952198 0.305326 -0.009755
outer loop
vertex 73.063385 36.426998 36.263405
vertex 73.048088 36.378864 36.250164
vertex 73.047012 36.379395 36.372032
endloop
endfacet
facet normal -0.952218 0.305262 -0.009738
outer loop
vertex 73.047012 36.379395 36.372032
vertex 72.991577 36.206470 36.372299
vertex 72.942497 36.057228 36.493469
endloop
endfacet
facet normal -0.952284 0.305059 -0.009696
outer loop
vertex 73.060493 36.428432 36.592400
vertex 73.063385 36.426998 36.263405
vertex 73.047012 36.379395 36.372032
endloop
endfacet
facet normal 0.002505 0.999987 -0.004371
outer loop
vertex 73.510216 36.425896 36.267334
vertex 73.063385 36.426998 36.263405
vertex 73.394836 36.427177 36.495831
endloop
endfacet
facet normal 0.009134 0.262510 -0.964886
outer loop
vertex 79.361710 36.411484 36.318817
vertex 79.354668 36.363335 36.305649
vertex 78.924652 36.364391 36.301868
endloop
endfacet
facet normal 0.009135 0.262426 -0.964909
outer loop
vertex 75.773712 36.372150 36.274147
vertex 73.510216 36.425896 36.267334
vertex 79.361710 36.411484 36.318817
endloop
endfacet
facet normal 0.009134 0.262504 -0.964888
outer loop
vertex 79.361710 36.411484 36.318817
vertex 78.924652 36.364391 36.301868
vertex 75.773712 36.372150 36.274147
endloop
endfacet
facet normal 0.009151 0.262546 -0.964876
outer loop
vertex 73.510216 36.425896 36.267334
vertex 73.495514 36.377762 36.254101
vertex 73.063385 36.426998 36.263405
endloop
endfacet
facet normal -0.008801 0.004368 0.999952
outer loop
vertex 72.943558 36.056702 36.372532
vertex 72.616982 34.496651 36.376480
vertex 72.939407 34.395325 36.379753
endloop
endfacet
facet normal -0.008766 0.004372 0.999952
outer loop
vertex 72.943558 36.056702 36.372532
vertex 72.991577 36.206470 36.372299
vertex 72.621696 36.380444 36.368290
endloop
endfacet
facet normal -0.999958 0.002491 -0.008842
outer loop
vertex 72.820007 33.001717 26.353359
vertex 72.820030 31.983677 26.065899
vertex 72.818573 31.120823 25.989254
endloop
endfacet
facet normal -0.999958 0.002449 -0.008787
outer loop
vertex 72.818573 31.120823 25.989254
vertex 72.818192 33.940845 26.823280
vertex 72.820007 33.001717 26.353359
endloop
endfacet
facet normal -0.999958 0.002464 -0.008796
outer loop
vertex 72.818573 31.120823 25.989254
vertex 72.809494 35.442421 28.231941
vertex 72.814636 34.764973 27.457600
endloop
endfacet
facet normal -0.999958 0.002476 -0.008797
outer loop
vertex 72.818573 31.120823 25.989254
vertex 72.795265 36.259800 30.077423
vertex 72.802948 35.947166 29.116549
endloop
endfacet
facet normal -0.999958 0.002462 -0.008800
outer loop
vertex 72.728600 31.120825 36.215828
vertex 72.777679 36.268547 32.078770
vertex 72.786736 36.368320 31.077644
endloop
endfacet
facet normal -0.999958 0.002461 -0.008802
outer loop
vertex 72.728600 31.120825 36.215828
vertex 72.759407 35.467323 33.931290
vertex 72.768456 35.964317 33.042324
endloop
endfacet
facet normal -0.999958 0.002458 -0.008795
outer loop
vertex 72.728600 31.120825 36.215828
vertex 72.743233 33.978119 35.352955
vertex 72.750893 34.796669 34.711491
endloop
endfacet
facet normal -0.999958 0.002453 -0.008808
outer loop
vertex 72.728600 31.120825 36.215828
vertex 72.731613 32.027641 36.127327
vertex 72.736725 33.043129 35.831024
endloop
endfacet
facet normal -0.999958 0.002473 -0.008794
outer loop
vertex 72.768456 35.964317 33.042324
vertex 72.777679 36.268547 32.078770
vertex 72.728600 31.120825 36.215828
endloop
endfacet
facet normal -0.999958 0.002473 -0.008817
outer loop
vertex 72.818573 31.120823 25.989254
vertex 72.814636 34.764973 27.457600
vertex 72.818192 33.940845 26.823280
endloop
endfacet
facet normal -0.999958 0.002446 -0.008794
outer loop
vertex 72.818573 31.120823 25.989254
vertex 72.786736 36.368320 31.077644
vertex 72.795265 36.259800 30.077423
endloop
endfacet
facet normal -0.999958 0.002466 -0.008793
outer loop
vertex 72.728600 31.120825 36.215828
vertex 72.750893 34.796669 34.711491
vertex 72.759407 35.467323 33.931290
endloop
endfacet
facet normal -0.999958 0.002469 -0.008786
outer loop
vertex 72.743233 33.978119 35.352955
vertex 72.728600 31.120825 36.215828
vertex 72.736725 33.043129 35.831024
endloop
endfacet
facet normal -0.999958 0.002467 -0.008809
outer loop
vertex 72.818573 31.120823 25.989254
vertex 72.802948 35.947166 29.116549
vertex 72.809494 35.442421 28.231941
endloop
endfacet
facet normal 0.008981 0.088454 -0.996040
outer loop
vertex 96.693047 31.924887 26.275936
vertex 96.691696 31.120834 26.204519
vertex 72.820030 31.983677 26.065899
endloop
endfacet
facet normal 0.009136 0.271730 -0.962330
outer loop
vertex 72.820030 31.983677 26.065899
vertex 72.820007 33.001717 26.353359
vertex 96.693047 31.924887 26.275936
endloop
endfacet
facet normal 0.008970 0.447480 -0.894249
outer loop
vertex 72.820007 33.001717 26.353359
vertex 72.818192 33.940845 26.823280
vertex 96.693024 32.942928 26.563400
endloop
endfacet
facet normal 0.008474 0.609938 -0.792404
outer loop
vertex 72.818192 33.940845 26.823280
vertex 72.814636 34.764973 27.457600
vertex 96.691200 33.882057 27.033323
endloop
endfacet
facet normal 0.007646 0.752625 -0.658405
outer loop
vertex 72.814636 34.764973 27.457600
vertex 72.809494 35.442421 28.231941
vertex 96.687653 34.706181 27.667641
endloop
endfacet
facet normal 0.006499 0.868560 -0.495542
outer loop
vertex 72.809494 35.442421 28.231941
vertex 72.802948 35.947166 29.116549
vertex 96.682503 35.383636 28.441986
endloop
endfacet
facet normal 0.005064 0.950931 -0.309361
outer loop
vertex 72.802948 35.947166 29.116549
vertex 72.795265 36.259800 30.077423
vertex 96.675964 35.888374 29.326588
endloop
endfacet
facet normal 0.003397 0.994163 -0.107834
outer loop
vertex 72.795265 36.259800 30.077423
vertex 72.786736 36.368320 31.077644
vertex 96.668289 36.201012 30.287464
endloop
endfacet
facet normal 0.001578 0.995067 0.099190
outer loop
vertex 72.777679 36.268547 32.078770
vertex 96.650696 36.209755 32.288811
vertex 72.786736 36.368320 31.077644
endloop
endfacet
facet normal -0.000301 0.953598 0.301083
outer loop
vertex 72.768456 35.964317 33.042324
vertex 96.641472 35.905529 33.252365
vertex 72.777679 36.268547 32.078770
endloop
endfacet
facet normal -0.002144 0.872858 0.487970
outer loop
vertex 72.759407 35.467323 33.931290
vertex 96.632423 35.408535 34.141331
vertex 72.768456 35.964317 33.042324
endloop
endfacet
facet normal -0.003867 0.758352 0.651834
outer loop
vertex 72.750893 34.796669 34.711491
vertex 96.623901 34.737877 34.921532
vertex 72.759407 35.467323 33.931290
endloop
endfacet
facet normal -0.005406 0.616842 0.787068
outer loop
vertex 72.743233 33.978119 35.352955
vertex 96.616249 33.919327 35.562996
vertex 72.750893 34.796669 34.711491
endloop
endfacet
facet normal 0.999958 -0.002446 0.008872
outer loop
vertex 96.609741 32.984341 36.041065
vertex 96.604630 31.968853 36.337372
vertex 96.601822 31.120834 36.420135
endloop
endfacet
facet normal 0.999958 -0.002432 0.008804
outer loop
vertex 96.601822 31.120834 36.420135
vertex 96.616249 33.919327 35.562996
vertex 96.609741 32.984341 36.041065
endloop
endfacet
facet normal 0.999958 -0.002444 0.008815
outer loop
vertex 96.601822 31.120834 36.420135
vertex 96.632423 35.408535 34.141331
vertex 96.623901 34.737877 34.921532
endloop
endfacet
facet normal 0.999958 -0.002452 0.008794
outer loop
vertex 96.601822 31.120834 36.420135
vertex 96.650696 36.209755 32.288811
vertex 96.641472 35.905529 33.252365
endloop
endfacet
facet normal 0.999958 -0.002477 0.008811
outer loop
vertex 96.691696 31.120834 26.204519
vertex 96.668289 36.201012 30.287464
vertex 96.659744 36.309532 31.287682
endloop
endfacet
facet normal 0.999958 -0.002449 0.008794
outer loop
vertex 96.691696 31.120834 26.204519
vertex 96.682503 35.383636 28.441986
vertex 96.675964 35.888374 29.326588
endloop
endfacet
facet normal 0.999958 -0.002463 0.008785
outer loop
vertex 96.691696 31.120834 26.204519
vertex 96.691200 33.882057 27.033323
vertex 96.687653 34.706181 27.667641
endloop
endfacet
facet normal 0.999958 -0.002480 0.008793
outer loop
vertex 96.691696 31.120834 26.204519
vertex 96.693047 31.924887 26.275936
vertex 96.693024 32.942928 26.563400
endloop
endfacet
facet normal 0.999958 -0.002472 0.008786
outer loop
vertex 96.675964 35.888374 29.326588
vertex 96.668289 36.201012 30.287464
vertex 96.691696 31.120834 26.204519
endloop
endfacet
facet normal 0.999958 -0.002463 0.008784
outer loop
vertex 96.601822 31.120834 36.420135
vertex 96.623901 34.737877 34.921532
vertex 96.616249 33.919327 35.562996
endloop
endfacet
facet normal 0.999958 -0.002470 0.008792
outer loop
vertex 96.601822 31.120834 36.420135
vertex 96.659744 36.309532 31.287682
vertex 96.650696 36.209755 32.288811
endloop
endfacet
facet normal 0.999958 -0.002462 0.008808
outer loop
vertex 96.691696 31.120834 26.204519
vertex 96.687653 34.706181 27.667641
vertex 96.682503 35.383636 28.441986
endloop
endfacet
facet normal 0.999958 -0.002424 0.008800
outer loop
vertex 96.691200 33.882057 27.033323
vertex 96.691696 31.120834 26.204519
vertex 96.693024 32.942928 26.563400
endloop
endfacet
facet normal 0.999958 -0.002483 0.008804
outer loop
vertex 96.601822 31.120834 36.420135
vertex 96.641472 35.905529 33.252365
vertex 96.632423 35.408535 34.141331
endloop
endfacet
facet normal 0.000001 -1.000000 0.000003
outer loop
vertex 72.619797 31.120823 35.111649
vertex 91.715828 31.120834 36.559067
vertex 77.686646 31.120827 36.435780
endloop
endfacet
facet normal 0.000001 -1.000000 -0.000001
outer loop
vertex 77.686646 31.120827 36.435780
vertex 72.608536 31.120823 36.391159
vertex 72.619797 31.120823 35.111649
endloop
endfacet
facet normal 0.000000 -1.000000 -0.000002
outer loop
vertex 91.715828 31.120834 36.559067
vertex 96.805183 31.120836 35.324181
vertex 96.793930 31.120836 36.603683
endloop
endfacet
facet normal 0.002501 0.999987 -0.004352
outer loop
vertex 96.806931 36.320885 36.581078
vertex 96.818176 36.315296 35.301598
vertex 93.655991 36.328644 36.553356
endloop
endfacet
facet normal 0.999958 -0.002456 0.008794
outer loop
vertex 96.802223 34.437092 36.589264
vertex 96.813461 34.431503 35.309784
vertex 96.806931 36.320885 36.581078
endloop
endfacet
facet normal -0.008783 0.004367 0.999952
outer loop
vertex 89.895164 33.964706 36.530636
vertex 91.722931 33.960201 36.546715
vertex 93.655991 36.328644 36.553356
endloop
endfacet
facet normal 0.008776 -0.004371 -0.999952
outer loop
vertex 93.667236 36.323055 35.273872
vertex 96.808754 32.547714 35.317974
vertex 96.805183 31.120836 35.324181
endloop
endfacet
facet normal 0.008789 -0.004368 -0.999952
outer loop
vertex 93.667236 36.323055 35.273872
vertex 96.818176 36.315296 35.301598
vertex 96.813461 34.431503 35.309784
endloop
endfacet
facet normal 0.008788 -0.004370 -0.999952
outer loop
vertex 96.805183 31.120836 35.324181
vertex 90.516289 36.330814 35.246151
vertex 93.667236 36.323055 35.273872
endloop
endfacet
facet normal 0.008789 -0.004370 -0.999952
outer loop
vertex 96.805183 31.120836 35.324181
vertex 84.725555 36.345078 35.195202
vertex 87.620926 36.337944 35.220676
endloop
endfacet
facet normal 0.008786 -0.004369 -0.999952
outer loop
vertex 72.619797 31.120823 35.111649
vertex 78.934830 36.359337 35.144253
vertex 81.830193 36.352203 35.169727
endloop
endfacet
facet normal 0.008789 -0.004369 -0.999952
outer loop
vertex 72.628227 34.491058 35.096996
vertex 72.632935 36.374855 35.088806
vertex 75.783882 36.367092 35.116531
endloop
endfacet
facet normal 0.008786 -0.004369 -0.999952
outer loop
vertex 75.783882 36.367092 35.116531
vertex 72.623520 32.607269 35.105186
vertex 72.628227 34.491058 35.096996
endloop
endfacet
facet normal 0.008787 -0.004369 -0.999952
outer loop
vertex 84.725555 36.345078 35.195202
vertex 96.805183 31.120836 35.324181
vertex 72.619797 31.120823 35.111649
endloop
endfacet
facet normal 0.008791 -0.004370 -0.999952
outer loop
vertex 96.808754 32.547714 35.317974
vertex 93.667236 36.323055 35.273872
vertex 96.813461 34.431503 35.309784
endloop
endfacet
facet normal 0.008789 -0.004369 -0.999952
outer loop
vertex 72.619797 31.120823 35.111649
vertex 81.830193 36.352203 35.169727
vertex 84.725555 36.345078 35.195202
endloop
endfacet
facet normal 0.008789 -0.004369 -0.999952
outer loop
vertex 72.619797 31.120823 35.111649
vertex 72.623520 32.607269 35.105186
vertex 75.783882 36.367092 35.116531
endloop
endfacet
facet normal 0.008786 -0.004369 -0.999952
outer loop
vertex 87.620926 36.337944 35.220676
vertex 90.516289 36.330814 35.246151
vertex 96.805183 31.120836 35.324181
endloop
endfacet
facet normal 0.999958 -0.002462 0.008794
outer loop
vertex 96.797516 32.553303 36.597458
vertex 96.808754 32.547714 35.317974
vertex 96.802223 34.437092 36.589264
endloop
endfacet
facet normal -0.008787 0.004371 0.999952
outer loop
vertex 91.720200 32.867474 36.551468
vertex 96.802223 34.437092 36.589264
vertex 91.722931 33.960201 36.546715
endloop
endfacet
facet normal 0.999958 -0.002448 0.008795
outer loop
vertex 96.793930 31.120836 36.603683
vertex 96.805183 31.120836 35.324181
vertex 96.797516 32.553303 36.597458
endloop
endfacet
facet normal 0.002501 0.999987 -0.004345
outer loop
vertex 87.609680 36.343536 36.500160
vertex 87.620926 36.337944 35.220676
vertex 84.714317 36.350666 36.474686
endloop
endfacet
facet normal 0.002501 0.999987 -0.004345
outer loop
vertex 84.714317 36.350666 36.474686
vertex 84.725555 36.345078 35.195202
vertex 81.818947 36.357796 36.449211
endloop
endfacet
facet normal 0.002501 0.999987 -0.004341
outer loop
vertex 81.818947 36.357796 36.449211
vertex 81.830193 36.352203 35.169727
vertex 78.923584 36.364925 36.423737
endloop
endfacet
facet normal 0.002501 0.999987 -0.004341
outer loop
vertex 78.923584 36.364925 36.423737
vertex 78.934830 36.359337 35.144253
vertex 75.772644 36.372684 36.396011
endloop
endfacet
facet normal 0.002501 0.999987 -0.004348
outer loop
vertex 75.772644 36.372684 36.396011
vertex 75.783882 36.367092 35.116531
vertex 72.621696 36.380444 36.368290
endloop
endfacet
facet normal -0.999958 0.002462 -0.008800
outer loop
vertex 72.616982 34.496651 36.376480
vertex 72.621696 36.380444 36.368290
vertex 72.628227 34.491058 35.096996
endloop
endfacet
facet normal -0.999958 0.002463 -0.008800
outer loop
vertex 72.612274 32.612858 36.384666
vertex 72.616982 34.496651 36.376480
vertex 72.623520 32.607269 35.105186
endloop
endfacet
facet normal -0.999958 0.002463 -0.008800
outer loop
vertex 72.623520 32.607269 35.105186
vertex 72.619797 31.120823 35.111649
vertex 72.612274 32.612858 36.384666
endloop
endfacet
facet normal -0.008787 0.004371 0.999952
outer loop
vertex 91.717461 31.774746 36.556221
vertex 96.797516 32.553303 36.597458
vertex 91.720200 32.867474 36.551468
endloop
endfacet
facet normal -0.008786 0.004373 0.999952
outer loop
vertex 72.608536 31.120823 36.391159
vertex 77.686646 31.120827 36.435780
vertex 72.612274 32.612858 36.384666
endloop
endfacet
facet normal -0.008785 0.004372 0.999952
outer loop
vertex 77.691093 32.902023 36.428032
vertex 72.616982 34.496651 36.376480
vertex 77.688362 31.809292 36.432785
endloop
endfacet
facet normal -0.008788 0.004364 0.999952
outer loop
vertex 77.693832 33.994751 36.423286
vertex 72.621696 36.380444 36.368290
vertex 77.691093 32.902023 36.428032
endloop
endfacet
facet normal -0.008783 0.004371 0.999952
outer loop
vertex 79.521591 33.990250 36.439365
vertex 75.772644 36.372684 36.396011
vertex 77.693832 33.994751 36.423286
endloop
endfacet
facet normal -0.008785 0.004373 0.999952
outer loop
vertex 91.715828 31.120834 36.559067
vertex 96.793930 31.120836 36.603683
vertex 91.717461 31.774746 36.556221
endloop
endfacet
facet normal 0.000027 -1.000000 0.000000
outer loop
vertex 72.619797 31.120823 35.111649
vertex 72.679001 31.120825 36.391777
vertex 72.608536 31.120823 36.391159
endloop
endfacet
facet normal 0.000000 -1.000000 -0.000001
outer loop
vertex 96.517242 31.120834 36.631615
vertex 72.930153 31.120825 36.514931
vertex 72.930984 31.120825 36.420433
endloop
endfacet
facet normal -0.000000 -1.000000 0.000004
outer loop
vertex 72.931213 31.120825 36.393990
vertex 72.679001 31.120825 36.391777
vertex 72.619797 31.120823 35.111649
endloop
endfacet
facet normal 0.000000 -1.000000 -0.000138
outer loop
vertex 96.517517 31.120834 36.601257
vertex 72.930984 31.120825 36.420433
vertex 72.931213 31.120825 36.393990
endloop
endfacet
facet normal 0.000000 -1.000000 0.000001
outer loop
vertex 95.275627 31.120836 46.679253
vertex 73.995583 31.120827 46.492249
vertex 73.460571 31.120825 41.770004
endloop
endfacet
facet normal 0.000000 -1.000000 0.000001
outer loop
vertex 80.319817 31.120831 56.795582
vertex 75.062866 31.120829 56.256485
vertex 74.530632 31.120827 51.214611
endloop
endfacet
facet normal 0.000000 -1.000000 -0.000031
outer loop
vertex 75.062866 31.120829 56.256485
vertex 75.614738 31.120829 56.754238
vertex 75.268936 31.120829 56.667656
endloop
endfacet
facet normal 0.000000 -1.000000 -0.000001
outer loop
vertex 94.657578 31.120836 51.391476
vertex 88.771088 31.120834 56.869846
vertex 84.545448 31.120832 56.832710
endloop
endfacet
facet normal 0.000000 -1.000000 0.000000
outer loop
vertex 75.062866 31.120829 56.256485
vertex 80.319817 31.120831 56.795582
vertex 75.614738 31.120829 56.754238
endloop
endfacet
facet normal 0.000001 -1.000000 -0.000000
outer loop
vertex 84.545448 31.120832 56.832710
vertex 74.530632 31.120827 51.214611
vertex 73.995583 31.120827 46.492249
endloop
endfacet
facet normal 0.000001 -1.000000 0.000000
outer loop
vertex 72.931213 31.120825 36.393990
vertex 72.619797 31.120823 35.111649
vertex 96.805183 31.120836 35.324181
endloop
endfacet
facet normal 0.000000 -1.000000 0.000000
outer loop
vertex 96.517517 31.120834 36.601257
vertex 96.517242 31.120834 36.631615
vertex 72.930984 31.120825 36.420433
endloop
endfacet
facet normal 0.000000 -1.000000 -0.000001
outer loop
vertex 74.530632 31.120827 51.214611
vertex 84.545448 31.120832 56.832710
vertex 80.319817 31.120831 56.795582
endloop
endfacet
facet normal 0.000000 -1.000000 0.000000
outer loop
vertex 94.036705 31.120838 56.423214
vertex 93.823441 31.120838 56.830708
vertex 93.476166 31.120838 56.911190
endloop
endfacet
facet normal 0.000000 -1.000000 -0.000000
outer loop
vertex 84.545448 31.120832 56.832710
vertex 95.275627 31.120836 46.679253
vertex 94.657578 31.120836 51.391476
endloop
endfacet
facet normal 0.000001 -1.000000 -0.000007
outer loop
vertex 88.771088 31.120834 56.869846
vertex 94.036705 31.120838 56.423214
vertex 93.476166 31.120838 56.911190
endloop
endfacet
facet normal 0.000000 -1.000000 0.000000
outer loop
vertex 95.275627 31.120836 46.679253
vertex 84.545448 31.120832 56.832710
vertex 73.995583 31.120827 46.492249
endloop
endfacet
facet normal 0.000000 -1.000000 0.000003
outer loop
vertex 96.724449 31.120836 36.603077
vertex 96.805183 31.120836 35.324181
vertex 96.793930 31.120836 36.603683
endloop
endfacet
facet normal 0.000009 -1.000000 0.000004
outer loop
vertex 96.805183 31.120836 35.324181
vertex 96.724449 31.120836 36.603077
vertex 96.517517 31.120834 36.601257
endloop
endfacet
facet normal 0.000000 -1.000000 0.000033
outer loop
vertex 72.930153 31.120825 36.514931
vertex 96.517242 31.120834 36.631615
vertex 96.516449 31.120834 36.722198
endloop
endfacet
facet normal 0.000001 -1.000000 -0.000000
outer loop
vertex 73.460571 31.120825 41.770004
vertex 95.893646 31.120836 41.967133
vertex 95.275627 31.120836 46.679253
endloop
endfacet
facet normal 0.000001 -1.000000 0.000001
outer loop
vertex 94.657578 31.120836 51.391476
vertex 94.036705 31.120838 56.423214
vertex 88.771088 31.120834 56.869846
endloop
endfacet
facet normal 0.000000 -1.000000 0.000002
outer loop
vertex 72.931213 31.120825 36.393990
vertex 96.805183 31.120836 35.324181
vertex 96.517517 31.120834 36.601257
endloop
endfacet
facet normal 0.000001 -1.000000 0.000000
outer loop
vertex 73.460571 31.120825 41.770004
vertex 72.930153 31.120825 36.514931
vertex 95.893646 31.120836 41.967133
endloop
endfacet
facet normal -0.008791 0.004371 0.999952
outer loop
vertex 96.802223 34.437092 36.589264
vertex 96.525589 34.351654 36.587212
vertex 96.797516 32.553303 36.597458
endloop
endfacet
facet normal -0.008828 0.004389 0.999951
outer loop
vertex 96.806931 36.320885 36.581078
vertex 96.476509 36.167458 36.578842
vertex 96.529709 35.998619 36.580051
endloop
endfacet
facet normal -0.008743 0.004369 0.999952
outer loop
vertex 96.529709 35.998619 36.580051
vertex 96.525589 34.351654 36.587212
vertex 96.802223 34.437092 36.589264
endloop
endfacet
facet normal -0.008768 0.004371 0.999952
outer loop
vertex 96.724449 31.120836 36.603077
vertex 96.797516 32.553303 36.597458
vertex 96.520988 32.510921 36.595211
endloop
endfacet
facet normal -0.008815 0.004367 0.999952
outer loop
vertex 96.797516 32.553303 36.597458
vertex 96.724449 31.120836 36.603077
vertex 96.793930 31.120836 36.603683
endloop
endfacet
facet normal 0.002504 0.999987 -0.004376
outer loop
vertex 96.428940 36.321285 36.455875
vertex 96.427872 36.321819 36.577744
vertex 96.806931 36.320885 36.581078
endloop
endfacet
facet normal 0.002500 0.999987 -0.004349
outer loop
vertex 93.667236 36.323055 35.273872
vertex 93.657059 36.328114 36.431488
vertex 95.981514 36.322392 36.451939
endloop
endfacet
facet normal 0.002499 0.999987 -0.004345
outer loop
vertex 96.428940 36.321285 36.455875
vertex 96.806931 36.320885 36.581078
vertex 96.818176 36.315296 35.301598
endloop
endfacet
facet normal 0.002511 0.999987 -0.004345
outer loop
vertex 96.818176 36.315296 35.301598
vertex 95.981514 36.322392 36.451939
vertex 96.428940 36.321285 36.455875
endloop
endfacet
facet normal 0.002501 0.999987 -0.004350
outer loop
vertex 90.516289 36.330814 35.246151
vertex 90.506119 36.335873 36.403767
vertex 93.667236 36.323055 35.273872
endloop
endfacet
facet normal 0.002502 0.999987 -0.004351
outer loop
vertex 90.122368 36.336815 36.400391
vertex 87.620926 36.337944 35.220676
vertex 87.610756 36.343002 36.378292
endloop
endfacet
facet normal 0.002494 0.999988 -0.004340
outer loop
vertex 90.122368 36.336815 36.400391
vertex 90.506119 36.335873 36.403767
vertex 90.516289 36.330814 35.246151
endloop
endfacet
facet normal 0.002512 0.999987 -0.004352
outer loop
vertex 84.738510 36.350075 36.353020
vertex 84.725555 36.345078 35.195202
vertex 84.715385 36.350132 36.352818
endloop
endfacet
facet normal 0.002501 0.999987 -0.004349
outer loop
vertex 84.738510 36.350075 36.353020
vertex 87.610756 36.343002 36.378292
vertex 87.620926 36.337944 35.220676
endloop
endfacet
facet normal -0.008786 0.004367 0.999952
outer loop
vertex 72.612274 32.612858 36.384666
vertex 72.934814 32.561798 36.387726
vertex 72.616982 34.496651 36.376480
endloop
endfacet
facet normal -0.008722 0.004374 0.999952
outer loop
vertex 72.612274 32.612858 36.384666
vertex 72.608536 31.120823 36.391159
vertex 72.679001 31.120825 36.391777
endloop
endfacet
facet normal -0.008801 0.004372 0.999952
outer loop
vertex 72.679001 31.120825 36.391777
vertex 72.934814 32.561798 36.387726
vertex 72.612274 32.612858 36.384666
endloop
endfacet
facet normal 0.000000 -1.000000 0.000000
outer loop
vertex 72.818573 31.120823 25.989254
vertex 96.691696 31.120834 26.204519
vertex 96.601822 31.120834 36.420135
endloop
endfacet
facet normal 0.000000 -1.000000 0.000000
outer loop
vertex 72.728600 31.120825 36.215828
vertex 72.818573 31.120823 25.989254
vertex 96.601822 31.120834 36.420135
endloop
endfacet
facet normal -0.000000 1.000000 -0.000004
outer loop
vertex 96.601822 31.120834 36.420135
vertex 72.619797 31.120823 35.111649
vertex 72.728600 31.120825 36.215828
endloop
endfacet
endsolid Exported from Blender-2.74 (sub 0)
