solid Exported from Blender-2.74 (sub 0)
facet normal 0.000000 -1.000000 0.000000
outer loop
vertex 96.706726 31.120831 9.100971
vertex 96.504456 31.120834 32.091347
vertex 86.393578 31.120827 9.010343
endloop
endfacet
facet normal 0.999958 -0.002460 0.008798
outer loop
vertex 96.706726 31.120831 9.100971
vertex 96.718864 35.973106 9.079876
vertex 96.516838 36.073555 32.069813
endloop
endfacet
facet normal -0.008788 0.004370 0.999952
outer loop
vertex 96.504456 31.120834 32.091347
vertex 96.516838 36.073555 32.069813
vertex 86.203751 36.098953 31.979074
endloop
endfacet
facet normal 0.002501 0.999987 -0.004347
outer loop
vertex 86.203751 36.098953 31.979074
vertex 96.516838 36.073555 32.069813
vertex 96.718864 35.973106 9.079876
endloop
endfacet
facet normal 0.999958 -0.002460 0.008798
outer loop
vertex 96.719360 31.120831 7.664907
vertex 96.731483 35.966831 7.643840
vertex 96.718864 35.973106 9.079876
endloop
endfacet
facet normal -0.999958 0.002459 -0.008798
outer loop
vertex 86.393578 31.120827 9.010343
vertex 86.191299 31.120831 32.000717
vertex 86.203751 36.098953 31.979074
endloop
endfacet
facet normal 0.002501 0.999987 -0.004350
outer loop
vertex 86.405777 35.998505 8.989139
vertex 96.718864 35.973106 9.079876
vertex 96.731483 35.966831 7.643840
endloop
endfacet
facet normal 0.008787 -0.004369 -0.999952
outer loop
vertex 96.719360 31.120831 7.664907
vertex 86.406212 31.120827 7.574281
vertex 86.418396 35.992226 7.553102
endloop
endfacet
facet normal -0.999958 0.002462 -0.008798
outer loop
vertex 86.406212 31.120827 7.574281
vertex 86.393578 31.120827 9.010343
vertex 86.405777 35.998505 8.989139
endloop
endfacet
facet normal 0.000000 -1.000000 0.000000
outer loop
vertex 96.706726 31.120831 9.100971
vertex 86.406212 31.120827 7.574281
vertex 96.719360 31.120831 7.664907
endloop
endfacet
facet normal 0.000000 -1.000000 0.000000
outer loop
vertex 96.504456 31.120834 32.091347
vertex 86.191299 31.120831 32.000717
vertex 86.393578 31.120827 9.010343
endloop
endfacet
facet normal 0.000000 -1.000000 0.000000
outer loop
vertex 86.393578 31.120827 9.010343
vertex 86.406212 31.120827 7.574281
vertex 96.706726 31.120831 9.100971
endloop
endfacet
facet normal 0.999958 -0.002466 0.008798
outer loop
vertex 96.504456 31.120834 32.091347
vertex 96.706726 31.120831 9.100971
vertex 96.516838 36.073555 32.069813
endloop
endfacet
facet normal -0.008787 0.004369 0.999952
outer loop
vertex 86.191299 31.120831 32.000717
vertex 96.504456 31.120834 32.091347
vertex 86.203751 36.098953 31.979074
endloop
endfacet
facet normal 0.002501 0.999987 -0.004347
outer loop
vertex 86.405777 35.998505 8.989139
vertex 86.203751 36.098953 31.979074
vertex 96.718864 35.973106 9.079876
endloop
endfacet
facet normal 0.999958 -0.002466 0.008797
outer loop
vertex 96.706726 31.120831 9.100971
vertex 96.719360 31.120831 7.664907
vertex 96.718864 35.973106 9.079876
endloop
endfacet
facet normal -0.999958 0.002469 -0.008798
outer loop
vertex 86.405777 35.998505 8.989139
vertex 86.393578 31.120827 9.010343
vertex 86.203751 36.098953 31.979074
endloop
endfacet
facet normal 0.002501 0.999987 -0.004347
outer loop
vertex 86.418396 35.992226 7.553102
vertex 86.405777 35.998505 8.989139
vertex 96.731483 35.966831 7.643840
endloop
endfacet
facet normal 0.008787 -0.004369 -0.999952
outer loop
vertex 96.731483 35.966831 7.643840
vertex 96.719360 31.120831 7.664907
vertex 86.418396 35.992226 7.553102
endloop
endfacet
facet normal -0.999958 0.002462 -0.008798
outer loop
vertex 86.418396 35.992226 7.553102
vertex 86.406212 31.120827 7.574281
vertex 86.405777 35.998505 8.989139
endloop
endfacet
endsolid Exported from Blender-2.74 (sub 0)
