solid Exported from Blender-2.74 (sub 0)
facet normal 0.000001 -1.000000 -0.000000
outer loop
vertex 83.477623 31.120825 8.984719
vertex 73.164474 31.120819 8.894092
vertex 73.177109 31.120819 7.458028
endloop
endfacet
facet normal -0.999958 0.002462 -0.008798
outer loop
vertex 73.164474 31.120819 8.894092
vertex 72.962196 31.120823 31.884468
vertex 72.974731 36.131523 31.862682
endloop
endfacet
facet normal -0.999958 0.002465 -0.008797
outer loop
vertex 73.177109 31.120819 7.458028
vertex 73.164474 31.120819 8.894092
vertex 73.176758 36.031075 8.872746
endloop
endfacet
facet normal 0.002501 0.999987 -0.004347
outer loop
vertex 83.489838 36.005680 8.963483
vertex 73.176758 36.031075 8.872746
vertex 72.974731 36.131523 31.862682
endloop
endfacet
facet normal -0.008787 0.004370 0.999952
outer loop
vertex 83.275345 31.120829 31.975094
vertex 83.287819 36.106125 31.953419
vertex 72.974731 36.131523 31.862682
endloop
endfacet
facet normal 0.008787 -0.004369 -0.999952
outer loop
vertex 83.490257 31.120825 7.548656
vertex 73.177109 31.120819 7.458028
vertex 73.189377 36.024799 7.436708
endloop
endfacet
facet normal 0.002501 0.999987 -0.004349
outer loop
vertex 83.502464 35.999405 7.527447
vertex 73.189377 36.024799 7.436708
vertex 73.176758 36.031075 8.872746
endloop
endfacet
facet normal 0.999958 -0.002459 0.008798
outer loop
vertex 83.477623 31.120825 8.984719
vertex 83.489838 36.005680 8.963483
vertex 83.287819 36.106125 31.953419
endloop
endfacet
facet normal 0.999958 -0.002465 0.008803
outer loop
vertex 83.490257 31.120825 7.548656
vertex 83.502464 35.999405 7.527447
vertex 83.489838 36.005680 8.963483
endloop
endfacet
facet normal 0.000001 -1.000000 -0.000000
outer loop
vertex 73.164474 31.120819 8.894092
vertex 83.477623 31.120825 8.984719
vertex 83.275345 31.120829 31.975094
endloop
endfacet
facet normal 0.000001 -1.000000 0.000000
outer loop
vertex 83.477623 31.120825 8.984719
vertex 73.177109 31.120819 7.458028
vertex 83.490257 31.120825 7.548656
endloop
endfacet
facet normal 0.000001 -1.000000 0.000000
outer loop
vertex 83.275345 31.120829 31.975094
vertex 72.962196 31.120823 31.884468
vertex 73.164474 31.120819 8.894092
endloop
endfacet
facet normal -0.999958 0.002463 -0.008798
outer loop
vertex 73.176758 36.031075 8.872746
vertex 73.164474 31.120819 8.894092
vertex 72.974731 36.131523 31.862682
endloop
endfacet
facet normal -0.999958 0.002463 -0.008798
outer loop
vertex 73.189377 36.024799 7.436708
vertex 73.177109 31.120819 7.458028
vertex 73.176758 36.031075 8.872746
endloop
endfacet
facet normal 0.002501 0.999987 -0.004347
outer loop
vertex 83.287819 36.106125 31.953419
vertex 83.489838 36.005680 8.963483
vertex 72.974731 36.131523 31.862682
endloop
endfacet
facet normal -0.008787 0.004370 0.999952
outer loop
vertex 72.962196 31.120823 31.884468
vertex 83.275345 31.120829 31.975094
vertex 72.974731 36.131523 31.862682
endloop
endfacet
facet normal 0.008787 -0.004369 -0.999952
outer loop
vertex 83.502464 35.999405 7.527447
vertex 83.490257 31.120825 7.548656
vertex 73.189377 36.024799 7.436708
endloop
endfacet
facet normal 0.002501 0.999987 -0.004352
outer loop
vertex 83.489838 36.005680 8.963483
vertex 83.502464 35.999405 7.527447
vertex 73.176758 36.031075 8.872746
endloop
endfacet
facet normal 0.999958 -0.002467 0.008798
outer loop
vertex 83.275345 31.120829 31.975094
vertex 83.477623 31.120825 8.984719
vertex 83.287819 36.106125 31.953419
endloop
endfacet
facet normal 0.999958 -0.002464 0.008797
outer loop
vertex 83.477623 31.120825 8.984719
vertex 83.490257 31.120825 7.548656
vertex 83.489838 36.005680 8.963483
endloop
endfacet
endsolid Exported from Blender-2.74 (sub 0)
