solid Exported from Blender-2.74 (sub 0)
facet normal 0.000000 1.000000 -0.000004
outer loop
vertex 4.090897 64.804016 69.555252
vertex -6.222256 64.804016 69.645882
vertex -6.209621 64.804016 71.081940
endloop
endfacet
facet normal 0.999958 0.002462 -0.008798
outer loop
vertex -6.424530 64.804008 46.655506
vertex -6.429478 66.782394 46.646904
vertex -6.227455 66.882851 69.636848
endloop
endfacet
facet normal 0.008788 0.004370 0.999952
outer loop
vertex 3.883608 66.807800 46.556168
vertex -6.429478 66.782394 46.646904
vertex -6.424530 64.804008 46.655506
endloop
endfacet
facet normal 0.002502 -0.999987 0.004348
outer loop
vertex -6.429478 66.782394 46.646904
vertex 3.883608 66.807800 46.556168
vertex 4.085632 66.908249 69.546112
endloop
endfacet
facet normal 0.999958 0.002463 -0.008798
outer loop
vertex -6.222256 64.804016 69.645882
vertex -6.227455 66.882851 69.636848
vertex -6.214836 66.889122 71.072876
endloop
endfacet
facet normal -0.999958 -0.002463 0.008798
outer loop
vertex 4.085632 66.908249 69.546112
vertex 3.883608 66.807800 46.556168
vertex 3.888620 64.804008 46.564880
endloop
endfacet
facet normal -0.002501 0.999987 -0.004320
outer loop
vertex 4.085632 66.908249 69.546112
vertex 4.080818 66.905853 68.998199
vertex -6.232269 66.880455 69.088936
endloop
endfacet
facet normal -0.008785 -0.004369 -0.999952
outer loop
vertex -6.209621 64.804016 71.081940
vertex -6.214836 66.889122 71.072876
vertex 4.098253 66.914528 70.982140
endloop
endfacet
facet normal -0.999958 -0.002463 0.008799
outer loop
vertex 4.098253 66.914528 70.982140
vertex 4.085632 66.908249 69.546112
vertex 4.090897 64.804016 69.555252
endloop
endfacet
facet normal 0.002501 -0.999987 0.004350
outer loop
vertex -6.235683 70.172050 69.622543
vertex -1.857965 70.185478 70.192902
vertex -1.856047 70.186432 70.411285
endloop
endfacet
facet normal 0.002501 -0.999987 0.004335
outer loop
vertex 4.090025 70.203728 70.967842
vertex -6.223061 70.178329 71.058578
vertex -1.856047 70.186432 70.411285
endloop
endfacet
facet normal 0.002505 -0.999987 0.004353
outer loop
vertex -1.857965 70.185478 70.192902
vertex -0.289612 70.189346 70.179108
vertex -0.287691 70.190300 70.397484
endloop
endfacet
facet normal 0.002505 -0.999987 0.004410
outer loop
vertex -1.856047 70.186432 70.411285
vertex -1.857965 70.185478 70.192902
vertex -0.287691 70.190300 70.397484
endloop
endfacet
facet normal 0.002504 -0.999987 0.004410
outer loop
vertex -0.287691 70.190300 70.397484
vertex 4.090025 70.203728 70.967842
vertex -1.856047 70.186432 70.411285
endloop
endfacet
facet normal 0.002500 -0.999987 0.004345
outer loop
vertex -6.223061 70.178329 71.058578
vertex -6.235683 70.172050 69.622543
vertex -1.856047 70.186432 70.411285
endloop
endfacet
facet normal 0.002501 -0.999987 0.004348
outer loop
vertex -6.227455 66.882851 69.636848
vertex -6.429478 66.782394 46.646904
vertex 4.085632 66.908249 69.546112
endloop
endfacet
facet normal 0.999958 0.002463 -0.008800
outer loop
vertex -6.227455 66.882851 69.636848
vertex -6.235683 70.172050 69.622543
vertex -6.223061 70.178329 71.058578
endloop
endfacet
facet normal 0.999958 0.002463 -0.008797
outer loop
vertex -6.235683 70.172050 69.622543
vertex -6.227455 66.882851 69.636848
vertex -6.232269 66.880455 69.088936
endloop
endfacet
facet normal -0.999958 -0.002463 0.008800
outer loop
vertex 4.077406 70.197449 69.531807
vertex 4.072590 70.195061 68.983902
vertex 4.080818 66.905853 68.998199
endloop
endfacet
facet normal -0.008788 -0.004369 -0.999952
outer loop
vertex -6.214836 66.889122 71.072876
vertex -6.223061 70.178329 71.058578
vertex 4.090025 70.203728 70.967842
endloop
endfacet
facet normal -0.999958 -0.002463 0.008799
outer loop
vertex 4.085632 66.908249 69.546112
vertex 4.098253 66.914528 70.982140
vertex 4.090025 70.203728 70.967842
endloop
endfacet
facet normal 0.002501 -0.999987 0.004379
outer loop
vertex 4.077406 70.197449 69.531807
vertex -6.235683 70.172050 69.622543
vertex -6.240498 70.169655 69.074638
endloop
endfacet
facet normal 0.008788 0.004369 0.999952
outer loop
vertex -6.232269 66.880455 69.088936
vertex 4.080818 66.905853 68.998199
vertex 4.072590 70.195061 68.983902
endloop
endfacet
facet normal 0.002501 -0.999987 0.004335
outer loop
vertex -6.235683 70.172050 69.622543
vertex 4.077406 70.197449 69.531807
vertex -0.289612 70.189346 70.179108
endloop
endfacet
facet normal 0.002501 -0.999987 0.004383
outer loop
vertex 4.090025 70.203728 70.967842
vertex -0.287691 70.190300 70.397484
vertex -0.289612 70.189346 70.179108
endloop
endfacet
facet normal 0.002502 -0.999988 0.004320
outer loop
vertex 4.072590 70.195061 68.983902
vertex 4.077406 70.197449 69.531807
vertex -6.240498 70.169655 69.074638
endloop
endfacet
facet normal 0.002504 -0.999987 0.004346
outer loop
vertex -1.857965 70.185478 70.192902
vertex -6.235683 70.172050 69.622543
vertex -0.289612 70.189346 70.179108
endloop
endfacet
facet normal 0.002500 -0.999987 0.004335
outer loop
vertex 4.077406 70.197449 69.531807
vertex 4.090025 70.203728 70.967842
vertex -0.289612 70.189346 70.179108
endloop
endfacet
facet normal -0.000000 1.000000 0.000000
outer loop
vertex -6.222256 64.804016 69.645882
vertex 4.090897 64.804016 69.555252
vertex 3.888620 64.804008 46.564880
endloop
endfacet
facet normal 0.000000 1.000000 0.000000
outer loop
vertex 4.090897 64.804016 69.555252
vertex -6.209621 64.804016 71.081940
vertex 4.103531 64.804016 70.991318
endloop
endfacet
facet normal -0.000000 1.000000 -0.000001
outer loop
vertex 3.888620 64.804008 46.564880
vertex -6.424530 64.804008 46.655506
vertex -6.222256 64.804016 69.645882
endloop
endfacet
facet normal 0.999958 0.002463 -0.008798
outer loop
vertex -6.222256 64.804016 69.645882
vertex -6.424530 64.804008 46.655506
vertex -6.227455 66.882851 69.636848
endloop
endfacet
facet normal 0.008786 0.004370 0.999952
outer loop
vertex 3.888620 64.804008 46.564880
vertex 3.883608 66.807800 46.556168
vertex -6.424530 64.804008 46.655506
endloop
endfacet
facet normal 0.999958 0.002462 -0.008797
outer loop
vertex -6.209621 64.804016 71.081940
vertex -6.222256 64.804016 69.645882
vertex -6.214836 66.889122 71.072876
endloop
endfacet
facet normal -0.999958 -0.002463 0.008798
outer loop
vertex 4.090897 64.804016 69.555252
vertex 4.085632 66.908249 69.546112
vertex 3.888620 64.804008 46.564880
endloop
endfacet
facet normal -0.002501 0.999987 -0.004385
outer loop
vertex -6.227455 66.882851 69.636848
vertex 4.085632 66.908249 69.546112
vertex -6.232269 66.880455 69.088936
endloop
endfacet
facet normal -0.008789 -0.004371 -0.999952
outer loop
vertex 4.103531 64.804016 70.991318
vertex -6.209621 64.804016 71.081940
vertex 4.098253 66.914528 70.982140
endloop
endfacet
facet normal -0.999958 -0.002462 0.008797
outer loop
vertex 4.103531 64.804016 70.991318
vertex 4.098253 66.914528 70.982140
vertex 4.090897 64.804016 69.555252
endloop
endfacet
facet normal 0.999958 0.002462 -0.008798
outer loop
vertex -6.214836 66.889122 71.072876
vertex -6.227455 66.882851 69.636848
vertex -6.223061 70.178329 71.058578
endloop
endfacet
facet normal 0.999958 0.002463 -0.008797
outer loop
vertex -6.240498 70.169655 69.074638
vertex -6.235683 70.172050 69.622543
vertex -6.232269 66.880455 69.088936
endloop
endfacet
facet normal -0.999958 -0.002463 0.008797
outer loop
vertex 4.085632 66.908249 69.546112
vertex 4.077406 70.197449 69.531807
vertex 4.080818 66.905853 68.998199
endloop
endfacet
facet normal -0.008786 -0.004369 -0.999952
outer loop
vertex 4.098253 66.914528 70.982140
vertex -6.214836 66.889122 71.072876
vertex 4.090025 70.203728 70.967842
endloop
endfacet
facet normal -0.999958 -0.002463 0.008798
outer loop
vertex 4.077406 70.197449 69.531807
vertex 4.085632 66.908249 69.546112
vertex 4.090025 70.203728 70.967842
endloop
endfacet
facet normal 0.008786 0.004369 0.999952
outer loop
vertex -6.240498 70.169655 69.074638
vertex -6.232269 66.880455 69.088936
vertex 4.072590 70.195061 68.983902
endloop
endfacet
endsolid Exported from Blender-2.74 (sub 0)
