solid Exported from Blender-2.74 (sub 0)
facet normal 0.008982 -0.088477 0.996038
outer loop
vertex 17.304539 65.057785 52.357994
vertex -6.568478 64.998985 52.568039
vertex -6.568153 64.804008 52.550716
endloop
endfacet
facet normal 0.008981 -0.088459 0.996039
outer loop
vertex -6.568153 64.804008 52.550716
vertex 17.304966 64.804008 52.335453
vertex 17.304539 65.057785 52.357994
endloop
endfacet
facet normal -0.003867 -0.758356 -0.651829
outer loop
vertex 17.281750 68.883781 50.839005
vertex -6.591263 68.824982 51.049042
vertex 17.273233 69.554443 50.058800
endloop
endfacet
facet normal -0.002143 -0.872850 -0.487983
outer loop
vertex 17.273233 69.554443 50.058800
vertex -6.599777 69.495644 50.268841
vertex 17.264189 70.051437 49.169838
endloop
endfacet
facet normal -0.000300 -0.953596 -0.301090
outer loop
vertex 17.264189 70.051437 49.169838
vertex -6.608826 69.992638 49.379875
vertex 17.254961 70.355659 48.206276
endloop
endfacet
facet normal 0.001578 -0.995069 -0.099171
outer loop
vertex 17.254961 70.355659 48.206276
vertex -6.618053 70.296860 48.416321
vertex 17.245907 70.455429 47.205162
endloop
endfacet
facet normal 0.003397 -0.994165 0.107819
outer loop
vertex -6.627106 70.396629 47.415199
vertex -6.635639 70.288116 46.414978
vertex 17.245907 70.455429 47.205162
endloop
endfacet
facet normal 0.005064 -0.950931 0.309363
outer loop
vertex -6.635639 70.288116 46.414978
vertex -6.643326 69.975479 45.454109
vertex 17.237373 70.346909 46.204937
endloop
endfacet
facet normal 0.006499 -0.868554 0.495553
outer loop
vertex -6.643326 69.975479 45.454109
vertex -6.649864 69.470734 44.569500
vertex 17.229691 70.034279 45.244064
endloop
endfacet
facet normal 0.007646 -0.752625 0.658405
outer loop
vertex -6.649864 69.470734 44.569500
vertex -6.655006 68.793282 43.795158
vertex 17.223152 69.529533 44.359459
endloop
endfacet
facet normal 0.002502 -0.999988 0.004251
outer loop
vertex -5.959404 70.819977 42.115334
vertex -6.352619 70.819008 42.118797
vertex -6.020203 70.819305 41.994919
endloop
endfacet
facet normal 0.002502 -0.999987 0.004349
outer loop
vertex 2.415195 70.875366 43.321106
vertex 2.403950 70.869781 42.041626
vertex 5.310560 70.882500 43.295631
endloop
endfacet
facet normal 0.002494 -0.999987 0.004345
outer loop
vertex -5.829376 70.796738 36.696053
vertex -5.489838 70.797775 36.739944
vertex -6.354553 70.818047 41.898350
endloop
endfacet
facet normal 0.002498 -0.999988 0.004217
outer loop
vertex -0.461420 70.833519 42.066963
vertex -0.109667 70.833862 41.942917
vertex -0.079983 70.834457 42.063606
endloop
endfacet
facet normal 0.002501 -0.999988 0.004266
outer loop
vertex -0.109667 70.833862 41.942917
vertex -0.461420 70.833519 42.066963
vertex -3.596079 70.825798 42.094543
endloop
endfacet
facet normal 0.002501 -0.999987 0.004364
outer loop
vertex -3.596079 70.825798 42.094543
vertex -5.959404 70.819977 42.115334
vertex -6.020203 70.819305 41.994919
endloop
endfacet
facet normal 0.002501 -0.999987 0.004352
outer loop
vertex 11.101292 70.896767 43.244682
vertex 11.090048 70.891174 41.965202
vertex 14.252236 70.904526 43.216961
endloop
endfacet
facet normal 0.002496 -0.999988 0.004343
outer loop
vertex -4.954712 70.778587 32.017780
vertex -5.489838 70.797775 36.739944
vertex -5.299683 70.777740 32.021023
endloop
endfacet
facet normal 0.002501 -0.999987 0.004348
outer loop
vertex 0.132479 70.811623 36.690475
vertex -0.109667 70.833862 41.942917
vertex -5.489838 70.797775 36.739944
endloop
endfacet
facet normal 0.002675 -0.999987 0.004304
outer loop
vertex 5.299391 70.847702 42.016277
vertex 5.321455 70.847237 41.895134
vertex 5.322519 70.847763 42.016075
endloop
endfacet
facet normal 0.002498 -0.999988 0.004292
outer loop
vertex 5.321455 70.847237 41.895134
vertex 5.299391 70.847702 42.016277
vertex 2.418985 70.840614 42.041618
endloop
endfacet
facet normal 0.002502 -0.999987 0.004443
outer loop
vertex 2.418985 70.840614 42.041618
vertex -0.079983 70.834457 42.063606
vertex -0.109667 70.833862 41.942917
endloop
endfacet
facet normal 0.002500 -0.999987 0.004345
outer loop
vertex -4.419615 70.759384 27.295504
vertex -4.954712 70.778587 32.017780
vertex -4.769932 70.758728 27.346001
endloop
endfacet
facet normal 0.002503 -0.999987 0.004347
outer loop
vertex 0.379295 70.791733 31.970848
vertex 0.132479 70.811623 36.690475
vertex -4.954712 70.778587 32.017780
endloop
endfacet
facet normal 0.002502 -0.999987 0.004344
outer loop
vertex 5.275322 70.824295 36.645229
vertex 5.321455 70.847237 41.895134
vertex 0.132479 70.811623 36.690475
endloop
endfacet
facet normal 0.002500 -0.999987 0.004381
outer loop
vertex 8.179794 70.854797 41.990932
vertex 5.322519 70.847763 42.016075
vertex 5.321455 70.847237 41.895134
endloop
endfacet
facet normal 0.002502 -0.999987 0.004401
outer loop
vertex 8.179794 70.854797 41.990932
vertex 10.752579 70.860611 41.847351
vertex 10.725018 70.861069 41.968540
endloop
endfacet
facet normal 0.002521 -0.999987 0.004348
outer loop
vertex -3.887327 70.738800 22.253717
vertex -4.419615 70.759384 27.295504
vertex -4.242964 70.738342 22.354654
endloop
endfacet
facet normal 0.002503 -0.999987 0.004349
outer loop
vertex 0.626123 70.771820 27.251106
vertex 0.379295 70.791733 31.970848
vertex -4.419615 70.759384 27.295504
endloop
endfacet
facet normal 0.002501 -0.999987 0.004344
outer loop
vertex 5.233871 70.803688 31.928139
vertex 5.275322 70.824295 36.645229
vertex 0.379295 70.791733 31.970848
endloop
endfacet
facet normal 0.002501 -0.999987 0.004351
outer loop
vertex 5.275322 70.824295 36.645229
vertex 10.418175 70.836960 36.599979
vertex 5.321455 70.847237 41.895134
endloop
endfacet
facet normal 0.002501 -0.999987 0.004347
outer loop
vertex 10.752579 70.860611 41.847351
vertex 14.194862 70.869614 41.938015
vertex 11.060198 70.861893 41.965591
endloop
endfacet
facet normal 0.002496 -0.999988 0.004317
outer loop
vertex 11.060198 70.861893 41.965591
vertex 10.725018 70.861069 41.968540
vertex 10.752579 70.860611 41.847351
endloop
endfacet
facet normal 0.002502 -0.999988 0.004329
outer loop
vertex 14.194862 70.869614 41.938015
vertex 16.663115 70.875168 41.795349
vertex 16.604439 70.875549 41.916813
endloop
endfacet
facet normal 0.002517 -0.999987 0.004331
outer loop
vertex -4.242964 70.738342 22.354654
vertex -4.038975 70.737091 21.947542
vertex -3.887327 70.738800 22.253717
endloop
endfacet
facet normal 0.002501 -0.999987 0.004348
outer loop
vertex 0.870132 70.750519 22.211861
vertex 0.626123 70.771820 27.251106
vertex -3.887327 70.738800 22.253717
endloop
endfacet
facet normal 0.002499 -0.999987 0.004352
outer loop
vertex 5.192417 70.783058 27.210938
vertex 5.233871 70.803688 31.928139
vertex 0.626123 70.771820 27.251106
endloop
endfacet
facet normal 0.002501 -0.999987 0.004349
outer loop
vertex 5.233871 70.803688 31.928139
vertex 10.088444 70.815643 31.885426
vertex 5.275322 70.824295 36.645229
endloop
endfacet
facet normal 0.002503 -0.999987 0.004346
outer loop
vertex 10.418175 70.836960 36.599979
vertex 16.040483 70.850815 36.550514
vertex 10.752579 70.860611 41.847351
endloop
endfacet
facet normal 0.002522 -0.999987 0.004331
outer loop
vertex 16.604439 70.875549 41.916813
vertex 16.663115 70.875168 41.795349
vertex 16.997652 70.876526 41.913353
endloop
endfacet
facet normal 0.002502 -0.999988 0.004307
outer loop
vertex -3.887327 70.738800 22.253717
vertex -3.696627 70.737572 21.861849
vertex 0.870132 70.750519 22.211861
endloop
endfacet
facet normal 0.002499 -0.999987 0.004345
outer loop
vertex 5.148157 70.761047 22.174223
vertex 5.192417 70.783058 27.210938
vertex 0.870132 70.750519 22.211861
endloop
endfacet
facet normal 0.002503 -0.999987 0.004352
outer loop
vertex 5.192417 70.783058 27.210938
vertex 9.758722 70.794312 27.170763
vertex 5.233871 70.803688 31.928139
endloop
endfacet
facet normal 0.002501 -0.999987 0.004347
outer loop
vertex 10.088444 70.815643 31.885426
vertex 15.422452 70.828781 31.838491
vertex 10.418175 70.836960 36.599979
endloop
endfacet
facet normal 0.002487 -0.999987 0.004357
outer loop
vertex 16.379192 70.851440 36.500648
vertex 16.995714 70.875557 41.692909
vertex 16.040483 70.850815 36.550514
endloop
endfacet
facet normal 0.002499 -0.999988 0.004315
outer loop
vertex 0.870132 70.750519 22.211861
vertex 0.961376 70.749046 21.820869
vertex 5.148157 70.761047 22.174223
endloop
endfacet
facet normal 0.002503 -0.999987 0.004351
outer loop
vertex 5.148157 70.761047 22.174223
vertex 9.426182 70.771591 22.136581
vertex 5.192417 70.783058 27.210938
endloop
endfacet
facet normal 0.002500 -0.999987 0.004351
outer loop
vertex 9.758722 70.794312 27.170763
vertex 14.804450 70.806732 27.126366
vertex 10.088444 70.815643 31.885426
endloop
endfacet
facet normal 0.002490 -0.999987 0.004349
outer loop
vertex 15.422452 70.828781 31.838491
vertex 15.767426 70.829628 31.835670
vertex 16.040483 70.850815 36.550514
endloop
endfacet
facet normal 0.002502 -0.999987 0.004375
outer loop
vertex 5.144728 70.759346 21.784065
vertex 9.328081 70.769653 21.747257
vertex 5.148157 70.761047 22.174223
endloop
endfacet
facet normal 0.002501 -0.999987 0.004350
outer loop
vertex 9.426182 70.771591 22.136581
vertex 14.183642 70.783310 22.094723
vertex 9.758722 70.794312 27.170763
endloop
endfacet
facet normal 0.002514 -0.999987 0.004348
outer loop
vertex 14.804450 70.806732 27.126366
vertex 15.155602 70.807808 27.170687
vertex 15.422452 70.828781 31.838491
endloop
endfacet
facet normal 0.002502 -0.999987 0.004366
outer loop
vertex 9.328081 70.769653 21.747257
vertex 13.986085 70.781128 21.706278
vertex 9.426182 70.771591 22.136581
endloop
endfacet
facet normal 0.002499 -0.999987 0.004349
outer loop
vertex 14.183642 70.783310 22.094723
vertex 14.540998 70.784615 22.189388
vertex 14.804450 70.806732 27.126366
endloop
endfacet
facet normal 0.002499 -0.999987 0.004362
outer loop
vertex 14.540998 70.784615 22.189388
vertex 14.183642 70.783310 22.094723
vertex 14.329886 70.782333 21.785929
endloop
endfacet
facet normal 0.008789 0.004369 0.999952
outer loop
vertex -1.703831 66.300987 42.097687
vertex -6.783878 67.079544 42.138924
vertex -6.779167 65.195755 42.147114
endloop
endfacet
facet normal 0.002501 -0.999987 0.004349
outer loop
vertex 14.240993 70.898933 41.937477
vertex 17.391937 70.906693 41.909756
vertex 17.403181 70.912285 43.189240
endloop
endfacet
facet normal 0.008788 0.004375 0.999952
outer loop
vertex -1.701097 65.208267 42.102436
vertex -6.779167 65.195755 42.147114
vertex -6.778187 64.804008 42.148819
endloop
endfacet
facet normal 0.002499 -0.999987 0.004339
outer loop
vertex 14.183642 70.783310 22.094723
vertex 13.986085 70.781128 21.706278
vertex 14.329886 70.782333 21.785929
endloop
endfacet
facet normal 0.002515 -0.999987 0.004342
outer loop
vertex 14.540998 70.784615 22.189388
vertex 15.155602 70.807808 27.170687
vertex 14.804450 70.806732 27.126366
endloop
endfacet
facet normal 0.002501 -0.999988 0.004340
outer loop
vertex 13.986085 70.781128 21.706278
vertex 14.183642 70.783310 22.094723
vertex 9.426182 70.771591 22.136581
endloop
endfacet
facet normal -0.212624 -0.322857 0.922255
outer loop
vertex 14.075361 70.431145 21.604311
vertex 14.422631 70.432358 21.684795
vertex 14.329886 70.782333 21.785929
endloop
endfacet
facet normal -0.830403 -0.346309 0.436465
outer loop
vertex 14.635890 70.434669 22.092274
vertex 14.540998 70.784615 22.189388
vertex 14.329886 70.782333 21.785929
endloop
endfacet
facet normal -0.949550 -0.290359 0.118514
outer loop
vertex 15.256701 70.458099 27.123917
vertex 15.155602 70.807808 27.170687
vertex 14.540998 70.784615 22.189388
endloop
endfacet
facet normal 0.002490 -0.999987 0.004354
outer loop
vertex 15.155602 70.807808 27.170687
vertex 15.767426 70.829628 31.835670
vertex 15.422452 70.828781 31.838491
endloop
endfacet
facet normal 0.002500 -0.999987 0.004344
outer loop
vertex 14.183642 70.783310 22.094723
vertex 14.804450 70.806732 27.126366
vertex 9.758722 70.794312 27.170763
endloop
endfacet
facet normal 0.002503 -0.999988 0.004315
outer loop
vertex 9.328081 70.769653 21.747257
vertex 9.426182 70.771591 22.136581
vertex 5.148157 70.761047 22.174223
endloop
endfacet
facet normal 0.009137 -0.277563 0.960664
outer loop
vertex 9.370317 70.419556 21.645712
vertex 14.075361 70.431145 21.604311
vertex 13.986085 70.781128 21.706278
endloop
endfacet
facet normal -0.225792 0.003671 0.974169
outer loop
vertex 14.084199 66.897530 21.619675
vertex 14.431470 66.898750 21.700159
vertex 14.422631 70.432358 21.684795
endloop
endfacet
facet normal -0.885994 -0.000200 0.463696
outer loop
vertex 14.431470 66.898750 21.700159
vertex 14.644729 66.901054 22.107637
vertex 14.635890 70.434669 22.092274
endloop
endfacet
facet normal -0.992471 -0.001950 0.122462
outer loop
vertex 14.644729 66.901054 22.107637
vertex 15.265540 66.924484 27.139280
vertex 15.256701 70.458099 27.123917
endloop
endfacet
facet normal -0.948427 -0.290985 0.125752
outer loop
vertex 15.874702 70.480125 31.836044
vertex 15.767426 70.829628 31.835670
vertex 15.155602 70.807808 27.170687
endloop
endfacet
facet normal 0.002487 -0.999987 0.004351
outer loop
vertex 15.767426 70.829628 31.835670
vertex 16.379192 70.851440 36.500648
vertex 16.040483 70.850815 36.550514
endloop
endfacet
facet normal 0.002501 -0.999987 0.004351
outer loop
vertex 14.804450 70.806732 27.126366
vertex 15.422452 70.828781 31.838491
vertex 10.088444 70.815643 31.885426
endloop
endfacet
facet normal 0.002503 -0.999987 0.004344
outer loop
vertex 9.426182 70.771591 22.136581
vertex 9.758722 70.794312 27.170763
vertex 5.192417 70.783058 27.210938
endloop
endfacet
facet normal 0.002500 -0.999987 0.004350
outer loop
vertex 0.961376 70.749046 21.820869
vertex 5.144728 70.759346 21.784065
vertex 5.148157 70.761047 22.174223
endloop
endfacet
facet normal 0.009135 -0.277533 0.960673
outer loop
vertex 5.144701 70.409149 21.682886
vertex 9.370317 70.419556 21.645712
vertex 9.328081 70.769653 21.747257
endloop
endfacet
facet normal 0.008788 0.004370 0.999952
outer loop
vertex 9.379156 66.885941 21.661076
vertex 14.084199 66.897530 21.619675
vertex 14.075361 70.431145 21.604311
endloop
endfacet
facet normal -0.225794 0.003672 0.974168
outer loop
vertex 14.431470 66.898750 21.700159
vertex 14.084199 66.897530 21.619675
vertex 14.089435 64.804001 21.628780
endloop
endfacet
facet normal -0.885993 -0.000200 0.463698
outer loop
vertex 14.644729 66.901054 22.107637
vertex 14.431470 66.898750 21.700159
vertex 14.436709 64.804001 21.709265
endloop
endfacet
facet normal -0.992471 -0.001951 0.122461
outer loop
vertex 15.265540 66.924484 27.139280
vertex 14.644729 66.901054 22.107637
vertex 14.649974 64.804001 22.116756
endloop
endfacet
facet normal -0.991506 -0.001915 0.130046
outer loop
vertex 15.265540 66.924484 27.139280
vertex 15.883541 66.946526 31.851408
vertex 15.874702 70.480125 31.836044
endloop
endfacet
facet normal -0.948406 -0.291057 0.125742
outer loop
vertex 15.874702 70.480125 31.836044
vertex 16.492670 70.502167 36.548065
vertex 16.379192 70.851440 36.500648
endloop
endfacet
facet normal 0.002508 -0.999987 0.004342
outer loop
vertex 16.995714 70.875557 41.692909
vertex 16.663115 70.875168 41.795349
vertex 16.040483 70.850815 36.550514
endloop
endfacet
facet normal 0.002503 -0.999987 0.004349
outer loop
vertex 15.422452 70.828781 31.838491
vertex 16.040483 70.850815 36.550514
vertex 10.418175 70.836960 36.599979
endloop
endfacet
facet normal 0.002501 -0.999987 0.004349
outer loop
vertex 9.758722 70.794312 27.170763
vertex 10.088444 70.815643 31.885426
vertex 5.233871 70.803688 31.928139
endloop
endfacet
facet normal 0.002499 -0.999987 0.004349
outer loop
vertex 5.192417 70.783058 27.210938
vertex 0.626123 70.771820 27.251106
vertex 0.870132 70.750519 22.211861
endloop
endfacet
facet normal 0.002502 -0.999987 0.004400
outer loop
vertex -3.696627 70.737572 21.861849
vertex 0.961376 70.749046 21.820869
vertex 0.870132 70.750519 22.211861
endloop
endfacet
facet normal 0.009135 -0.277562 0.960664
outer loop
vertex 5.144701 70.409149 21.682886
vertex 5.144728 70.759346 21.784065
vertex 0.961376 70.749046 21.820869
endloop
endfacet
facet normal 0.008787 0.004370 0.999952
outer loop
vertex 5.153538 66.875534 21.698250
vertex 9.379156 66.885941 21.661076
vertex 9.370317 70.419556 21.645712
endloop
endfacet
facet normal 0.008787 0.004369 0.999952
outer loop
vertex 14.084199 66.897530 21.619675
vertex 9.379156 66.885941 21.661076
vertex 9.384363 64.804001 21.670126
endloop
endfacet
facet normal -0.991506 -0.001914 0.130046
outer loop
vertex 15.883541 66.946526 31.851408
vertex 15.265540 66.924484 27.139280
vertex 15.270844 64.804001 27.148499
endloop
endfacet
facet normal -0.991507 -0.001914 0.130042
outer loop
vertex 15.883541 66.946526 31.851408
vertex 16.501507 66.968552 36.563427
vertex 16.492670 70.502167 36.548065
endloop
endfacet
facet normal -0.949327 -0.292854 0.114079
outer loop
vertex 16.492670 70.502167 36.548065
vertex 17.115402 70.526527 41.792896
vertex 16.995714 70.875557 41.692909
endloop
endfacet
facet normal 0.002517 -0.999988 0.004304
outer loop
vertex 16.663115 70.875168 41.795349
vertex 16.995714 70.875557 41.692909
vertex 16.997652 70.876526 41.913353
endloop
endfacet
facet normal 0.002501 -0.999987 0.004347
outer loop
vertex 16.040483 70.850815 36.550514
vertex 16.663115 70.875168 41.795349
vertex 10.752579 70.860611 41.847351
endloop
endfacet
facet normal 0.002501 -0.999987 0.004345
outer loop
vertex 10.088444 70.815643 31.885426
vertex 10.418175 70.836960 36.599979
vertex 5.275322 70.824295 36.645229
endloop
endfacet
facet normal 0.002501 -0.999987 0.004354
outer loop
vertex 5.233871 70.803688 31.928139
vertex 0.379295 70.791733 31.970848
vertex 0.626123 70.771820 27.251106
endloop
endfacet
facet normal 0.002503 -0.999987 0.004347
outer loop
vertex 0.626123 70.771820 27.251106
vertex -4.419615 70.759384 27.295504
vertex -3.887327 70.738800 22.253717
endloop
endfacet
facet normal 0.002492 -0.999988 0.004323
outer loop
vertex -4.038975 70.737091 21.947542
vertex -3.696627 70.737572 21.861849
vertex -3.887327 70.738800 22.253717
endloop
endfacet
facet normal 0.009136 -0.277555 0.960666
outer loop
vertex 0.919098 70.398743 21.720066
vertex 0.961376 70.749046 21.820869
vertex -3.696627 70.737572 21.861849
endloop
endfacet
facet normal 0.008787 0.004370 0.999952
outer loop
vertex 0.927935 66.865128 21.735430
vertex 5.153538 66.875534 21.698250
vertex 5.144701 70.409149 21.682886
endloop
endfacet
facet normal 0.008786 0.004371 0.999952
outer loop
vertex 9.379156 66.885941 21.661076
vertex 5.153538 66.875534 21.698250
vertex 5.158720 64.804001 21.707260
endloop
endfacet
facet normal -0.991507 -0.001915 0.130042
outer loop
vertex 16.501507 66.968552 36.563427
vertex 15.883541 66.946526 31.851408
vertex 15.888900 64.804001 31.860723
endloop
endfacet
facet normal -0.993022 -0.001971 0.117914
outer loop
vertex 16.501507 66.968552 36.563427
vertex 17.124243 66.992912 41.808262
vertex 17.115402 70.526527 41.792896
endloop
endfacet
facet normal -0.946742 -0.321845 0.009759
outer loop
vertex 17.115402 70.526527 41.792896
vertex 17.043169 70.742645 41.913536
vertex 16.997652 70.876526 41.913353
endloop
endfacet
facet normal 0.002501 -0.999987 0.004397
outer loop
vertex 16.663115 70.875168 41.795349
vertex 14.194862 70.869614 41.938015
vertex 10.752579 70.860611 41.847351
endloop
endfacet
facet normal 0.002501 -0.999987 0.004347
outer loop
vertex 10.418175 70.836960 36.599979
vertex 10.752579 70.860611 41.847351
vertex 5.321455 70.847237 41.895134
endloop
endfacet
facet normal 0.002502 -0.999987 0.004347
outer loop
vertex 5.275322 70.824295 36.645229
vertex 0.132479 70.811623 36.690475
vertex 0.379295 70.791733 31.970848
endloop
endfacet
facet normal 0.002503 -0.999987 0.004350
outer loop
vertex 0.379295 70.791733 31.970848
vertex -4.954712 70.778587 32.017780
vertex -4.419615 70.759384 27.295504
endloop
endfacet
facet normal 0.002500 -0.999987 0.004346
outer loop
vertex -4.419615 70.759384 27.295504
vertex -4.769932 70.758728 27.346001
vertex -4.242964 70.738342 22.354654
endloop
endfacet
facet normal 0.839643 -0.342093 0.421868
outer loop
vertex -4.337826 70.387932 22.259211
vertex -4.131758 70.386658 21.848043
vertex -4.038975 70.737091 21.947542
endloop
endfacet
facet normal 0.230329 -0.321797 0.918366
outer loop
vertex -3.785955 70.387146 21.761461
vertex -3.696627 70.737572 21.861849
vertex -4.038975 70.737091 21.947542
endloop
endfacet
facet normal 0.008785 0.004370 0.999952
outer loop
vertex -3.777119 66.853539 21.776821
vertex 0.927935 66.865128 21.735430
vertex 0.919098 70.398743 21.720066
endloop
endfacet
facet normal 0.008788 0.004368 0.999952
outer loop
vertex 5.153538 66.875534 21.698250
vertex 0.927935 66.865128 21.735430
vertex 0.933092 64.804001 21.744389
endloop
endfacet
facet normal -0.993022 -0.001973 0.117913
outer loop
vertex 17.124243 66.992912 41.808262
vertex 16.501507 66.968552 36.563427
vertex 16.506924 64.804001 36.572838
endloop
endfacet
facet normal -0.999958 -0.002463 0.008811
outer loop
vertex 17.120447 68.936104 41.920753
vertex 17.116467 70.527054 41.913834
vertex 17.115402 70.526527 41.792896
endloop
endfacet
facet normal 0.002500 -0.999988 0.004228
outer loop
vertex 10.752579 70.860611 41.847351
vertex 8.179794 70.854797 41.990932
vertex 5.321455 70.847237 41.895134
endloop
endfacet
facet normal 0.002501 -0.999987 0.004347
outer loop
vertex 5.321455 70.847237 41.895134
vertex -0.109667 70.833862 41.942917
vertex 0.132479 70.811623 36.690475
endloop
endfacet
facet normal 0.002501 -0.999987 0.004348
outer loop
vertex 0.132479 70.811623 36.690475
vertex -5.489838 70.797775 36.739944
vertex -4.954712 70.778587 32.017780
endloop
endfacet
facet normal 0.002496 -0.999987 0.004357
outer loop
vertex -4.954712 70.778587 32.017780
vertex -5.299683 70.777740 32.021023
vertex -4.769932 70.758728 27.346001
endloop
endfacet
facet normal 0.952908 -0.285671 0.101774
outer loop
vertex -4.242964 70.738342 22.354654
vertex -4.769932 70.758728 27.346001
vertex -4.870113 70.408524 27.301001
endloop
endfacet
facet normal 0.894002 0.004184 0.448043
outer loop
vertex -4.337826 70.387932 22.259211
vertex -4.328987 66.854317 22.274570
vertex -4.122919 66.853050 21.863407
endloop
endfacet
facet normal 0.242885 0.004824 0.970043
outer loop
vertex -4.122919 66.853050 21.863407
vertex -3.777119 66.853539 21.776821
vertex -3.785955 70.387146 21.761461
endloop
endfacet
facet normal 0.008785 0.004371 0.999952
outer loop
vertex 0.927935 66.865128 21.735430
vertex -3.777119 66.853539 21.776821
vertex -3.771992 64.804001 21.785734
endloop
endfacet
facet normal -0.999958 -0.002464 0.008800
outer loop
vertex 17.129719 64.804008 41.817780
vertex 17.129656 65.254639 41.936760
vertex 17.124243 66.992912 41.808262
endloop
endfacet
facet normal 0.002501 -0.999987 0.004413
outer loop
vertex -0.109667 70.833862 41.942917
vertex 5.321455 70.847237 41.895134
vertex 2.418985 70.840614 42.041618
endloop
endfacet
facet normal 0.002501 -0.999987 0.004349
outer loop
vertex -0.109667 70.833862 41.942917
vertex -6.020203 70.819305 41.994919
vertex -5.489838 70.797775 36.739944
endloop
endfacet
facet normal 0.002494 -0.999987 0.004344
outer loop
vertex -5.489838 70.797775 36.739944
vertex -5.829376 70.796738 36.696053
vertex -5.299683 70.777740 32.021023
endloop
endfacet
facet normal 0.951918 -0.286294 0.109033
outer loop
vertex -4.769932 70.758728 27.346001
vertex -5.299683 70.777740 32.021023
vertex -5.405212 70.427711 32.023273
endloop
endfacet
facet normal 0.994470 0.002944 0.104979
outer loop
vertex -4.870113 70.408524 27.301001
vertex -4.861275 66.874908 27.316360
vertex -4.328987 66.854317 22.274570
endloop
endfacet
facet normal 0.894002 0.004184 0.448043
outer loop
vertex -4.117792 64.804001 21.872314
vertex -4.122919 66.853050 21.863407
vertex -4.328987 66.854317 22.274570
endloop
endfacet
facet normal 0.242884 0.004825 0.970043
outer loop
vertex -3.777119 66.853539 21.776821
vertex -4.122919 66.853050 21.863407
vertex -4.117792 64.804001 21.872314
endloop
endfacet
facet normal -0.999958 -0.002466 0.008796
outer loop
vertex 17.130783 64.804008 41.938717
vertex 17.129656 65.254639 41.936760
vertex 17.130516 64.804008 41.908363
endloop
endfacet
facet normal 0.002501 -0.999987 0.004397
outer loop
vertex -6.020203 70.819305 41.994919
vertex -0.109667 70.833862 41.942917
vertex -3.596079 70.825798 42.094543
endloop
endfacet
facet normal 0.002509 -0.999987 0.004356
outer loop
vertex -5.489838 70.797775 36.739944
vertex -6.020203 70.819305 41.994919
vertex -6.354553 70.818047 41.898350
endloop
endfacet
facet normal 0.951896 -0.286371 0.109024
outer loop
vertex -5.829376 70.796738 36.696053
vertex -5.940273 70.446915 36.745434
vertex -5.405212 70.427711 32.023273
endloop
endfacet
facet normal 0.993638 0.002975 0.112581
outer loop
vertex -5.405212 70.427711 32.023273
vertex -5.396374 66.894104 32.038639
vertex -4.861275 66.874908 27.316360
endloop
endfacet
facet normal 0.994470 0.002944 0.104979
outer loop
vertex -4.323858 64.804001 22.283487
vertex -4.328987 66.854317 22.274570
vertex -4.861275 66.874908 27.316360
endloop
endfacet
facet normal 0.008803 0.004365 0.999952
outer loop
vertex 17.337721 64.804008 41.936897
vertex 17.406073 65.255325 41.934326
vertex 17.129656 65.254639 41.936760
endloop
endfacet
facet normal 0.002503 -0.999987 0.004343
outer loop
vertex -6.793304 70.847122 42.122543
vertex -3.642359 70.854889 42.094822
vertex -3.631115 70.860474 43.374306
endloop
endfacet
facet normal 0.002502 -0.999987 0.004340
outer loop
vertex -0.491415 70.862648 42.067101
vertex 2.403950 70.869781 42.041626
vertex 2.415195 70.875366 43.321106
endloop
endfacet
facet normal 0.002499 -0.999987 0.004353
outer loop
vertex 2.403950 70.869781 42.041626
vertex 5.299316 70.876907 42.016151
vertex 5.310560 70.882500 43.295631
endloop
endfacet
facet normal 0.008790 0.004304 0.999952
outer loop
vertex 2.403950 70.869781 42.041626
vertex -0.491415 70.862648 42.067101
vertex -0.079983 70.834457 42.063606
endloop
endfacet
facet normal 0.008791 0.004269 0.999952
outer loop
vertex 5.299316 70.876907 42.016151
vertex 2.403950 70.869781 42.041626
vertex 2.418985 70.840614 42.041618
endloop
endfacet
facet normal 0.002512 -0.999988 0.004307
outer loop
vertex -6.352619 70.819008 42.118797
vertex -6.354553 70.818047 41.898350
vertex -6.020203 70.819305 41.994919
endloop
endfacet
facet normal 0.952615 -0.288184 0.097343
outer loop
vertex -6.354553 70.818047 41.898350
vertex -6.470745 70.468437 42.000416
vertex -5.940273 70.446915 36.745434
endloop
endfacet
facet normal 0.993639 0.002975 0.112576
outer loop
vertex -5.940273 70.446915 36.745434
vertex -5.931435 66.913300 36.760796
vertex -5.396374 66.894104 32.038639
endloop
endfacet
facet normal 0.993638 0.002975 0.112581
outer loop
vertex -4.856094 64.804001 27.325365
vertex -4.861275 66.874908 27.316360
vertex -5.396374 66.894104 32.038639
endloop
endfacet
facet normal 0.008637 0.004375 0.999953
outer loop
vertex 17.407202 64.804008 41.936291
vertex 17.406073 65.255325 41.934326
vertex 17.337721 64.804008 41.936897
endloop
endfacet
facet normal 0.008785 0.004372 0.999952
outer loop
vertex -6.793304 70.847122 42.122543
vertex -6.788593 68.963333 42.130737
vertex -6.469681 70.468964 42.121353
endloop
endfacet
facet normal 0.008780 0.004651 0.999951
outer loop
vertex -5.959404 70.819977 42.115334
vertex -6.793304 70.847122 42.122543
vertex -6.352619 70.819008 42.118797
endloop
endfacet
facet normal 0.008786 0.004406 0.999952
outer loop
vertex -0.491415 70.862648 42.067101
vertex -3.642359 70.854889 42.094822
vertex -3.596079 70.825798 42.094543
endloop
endfacet
facet normal 0.948341 -0.317176 -0.006999
outer loop
vertex -6.352619 70.819008 42.118797
vertex -6.403713 70.666222 42.119911
vertex -6.470745 70.468437 42.000416
endloop
endfacet
facet normal 0.994940 0.002925 0.100424
outer loop
vertex -6.470745 70.468437 42.000416
vertex -6.461906 66.934822 42.015778
vertex -5.931435 66.913300 36.760796
endloop
endfacet
facet normal 0.993639 0.002976 0.112576
outer loop
vertex -5.391144 64.804001 32.047726
vertex -5.396374 66.894104 32.038639
vertex -5.931435 66.913300 36.760796
endloop
endfacet
facet normal 0.999958 0.002462 -0.008783
outer loop
vertex -6.461082 67.030075 42.136303
vertex -6.461906 66.934822 42.015778
vertex -6.465668 68.863594 42.128334
endloop
endfacet
facet normal 0.994941 0.002923 0.100423
outer loop
vertex -5.926163 64.804001 36.769970
vertex -5.931435 66.913300 36.760796
vertex -6.461906 66.934822 42.015778
endloop
endfacet
facet normal 0.999960 0.002458 -0.008652
outer loop
vertex -6.455742 64.804008 42.119537
vertex -6.456493 65.196548 42.144276
vertex -6.455513 64.804008 42.145981
endloop
endfacet
facet normal 0.999958 0.002463 -0.008811
outer loop
vertex -6.461906 66.934822 42.015778
vertex -6.456493 65.196548 42.144276
vertex -6.456577 64.804008 42.025043
endloop
endfacet
facet normal 0.999958 0.002460 -0.008793
outer loop
vertex -6.658127 64.804008 42.324146
vertex -6.655006 68.793282 43.795158
vertex -6.649864 69.470734 44.569500
endloop
endfacet
facet normal 0.008474 -0.609944 0.792399
outer loop
vertex -6.658562 67.969162 43.160835
vertex 17.214455 68.027962 42.950794
vertex 17.218006 68.852081 43.585117
endloop
endfacet
facet normal 0.007646 -0.752624 0.658406
outer loop
vertex -6.655006 68.793282 43.795158
vertex 17.218006 68.852081 43.585117
vertex 17.223152 69.529533 44.359459
endloop
endfacet
facet normal 0.006499 -0.868564 0.495534
outer loop
vertex -6.649864 69.470734 44.569500
vertex 17.223152 69.529533 44.359459
vertex 17.229691 70.034279 45.244064
endloop
endfacet
facet normal 0.005064 -0.950933 0.309356
outer loop
vertex -6.643326 69.975479 45.454109
vertex 17.229691 70.034279 45.244064
vertex 17.237373 70.346909 46.204937
endloop
endfacet
facet normal 0.003397 -0.994164 0.107824
outer loop
vertex -6.635639 70.288116 46.414978
vertex 17.237373 70.346909 46.204937
vertex 17.245907 70.455429 47.205162
endloop
endfacet
facet normal 0.001578 -0.995069 -0.099170
outer loop
vertex -6.618053 70.296860 48.416321
vertex -6.627106 70.396629 47.415199
vertex 17.245907 70.455429 47.205162
endloop
endfacet
facet normal -0.000300 -0.953601 -0.301074
outer loop
vertex -6.608826 69.992638 49.379875
vertex -6.618053 70.296860 48.416321
vertex 17.254961 70.355659 48.206276
endloop
endfacet
facet normal -0.002143 -0.872868 -0.487951
outer loop
vertex -6.599777 69.495644 50.268841
vertex -6.608826 69.992638 49.379875
vertex 17.264189 70.051437 49.169838
endloop
endfacet
facet normal -0.003867 -0.758354 -0.651831
outer loop
vertex -6.591263 68.824982 51.049042
vertex -6.599777 69.495644 50.268841
vertex 17.273233 69.554443 50.058800
endloop
endfacet
facet normal -0.005406 -0.616847 -0.787064
outer loop
vertex -6.583607 68.006439 51.690506
vertex -6.591263 68.824982 51.049042
vertex 17.281750 68.883781 50.839005
endloop
endfacet
facet normal -0.006712 -0.455276 -0.890325
outer loop
vertex -6.577095 67.071449 52.168575
vertex -6.583607 68.006439 51.690506
vertex 17.289410 68.065239 51.480465
endloop
endfacet
facet normal -0.007756 -0.280133 -0.959930
outer loop
vertex -6.571987 66.055954 52.464882
vertex -6.577095 67.071449 52.168575
vertex 17.295919 67.130249 51.958534
endloop
endfacet
facet normal -0.008517 -0.097159 -0.995232
outer loop
vertex -6.568478 64.998985 52.568039
vertex -6.571987 66.055954 52.464882
vertex 17.301027 66.114761 52.254837
endloop
endfacet
facet normal -0.008982 0.088476 -0.996038
outer loop
vertex -6.568153 64.804008 52.550716
vertex -6.568478 64.998985 52.568039
vertex 17.304539 65.057785 52.357994
endloop
endfacet
facet normal -0.999958 -0.002463 0.008797
outer loop
vertex 17.304966 64.804008 52.335453
vertex 17.281750 68.883781 50.839005
vertex 17.273233 69.554443 50.058800
endloop
endfacet
facet normal 0.008785 0.004367 0.999952
outer loop
vertex 12.329101 64.804008 41.980911
vertex 6.984764 68.507858 42.011692
vertex 5.305252 68.503723 42.026466
endloop
endfacet
facet normal 0.008785 0.004371 0.999952
outer loop
vertex 12.319803 68.520996 41.964752
vertex 17.391937 70.906693 41.909756
vertex 14.240993 70.898933 41.937477
endloop
endfacet
facet normal 0.000000 -1.000000 -0.000001
outer loop
vertex -6.766930 64.804008 43.428322
vertex 17.418459 64.804008 43.215797
vertex 17.304966 64.804008 52.335453
endloop
endfacet
facet normal 0.000000 -1.000000 0.000004
outer loop
vertex 17.215088 64.804008 42.119843
vertex -6.766930 64.804008 43.428322
vertex -6.658127 64.804008 42.324146
endloop
endfacet
facet normal 0.000000 -1.000000 0.000005
outer loop
vertex -6.766930 64.804008 43.428322
vertex 17.215088 64.804008 42.119843
vertex 17.418459 64.804008 43.215797
endloop
endfacet
facet normal 0.002502 -0.999987 0.004341
outer loop
vertex 5.310560 70.882500 43.295631
vertex 5.299316 70.876907 42.016151
vertex 8.205925 70.889633 43.270157
endloop
endfacet
facet normal 0.002499 -0.999987 0.004357
outer loop
vertex -0.480169 70.868240 43.346581
vertex -0.491415 70.862648 42.067101
vertex 2.415195 70.875366 43.321106
endloop
endfacet
facet normal 0.002503 -0.999988 0.004337
outer loop
vertex -3.631115 70.860474 43.374306
vertex -3.642359 70.854889 42.094822
vertex -0.480169 70.868240 43.346581
endloop
endfacet
facet normal 0.002498 -0.999987 0.004352
outer loop
vertex -6.782059 70.852722 43.402023
vertex -6.793304 70.847122 42.122543
vertex -3.631115 70.860474 43.374306
endloop
endfacet
facet normal 0.002502 -0.999987 0.004357
outer loop
vertex 8.205925 70.889633 43.270157
vertex 8.194681 70.884041 41.990677
vertex 11.101292 70.896767 43.244682
endloop
endfacet
facet normal 0.002501 -0.999988 0.004337
outer loop
vertex 14.252236 70.904526 43.216961
vertex 14.240993 70.898933 41.937477
vertex 17.403181 70.912285 43.189240
endloop
endfacet
facet normal 0.000000 1.000000 0.000000
outer loop
vertex 17.418459 64.804008 43.215797
vertex 17.407202 64.804008 41.936291
vertex 12.329101 64.804008 41.980911
endloop
endfacet
facet normal 0.999958 0.002465 -0.008803
outer loop
vertex -6.783878 67.079544 42.138924
vertex -6.788593 68.963333 42.130737
vertex -6.777344 68.968925 43.410217
endloop
endfacet
facet normal 0.999958 0.002463 -0.008797
outer loop
vertex -6.779167 65.195755 42.147114
vertex -6.783878 67.079544 42.138924
vertex -6.772636 67.085129 43.418407
endloop
endfacet
facet normal 0.008787 0.004367 0.999952
outer loop
vertex -1.706564 67.393715 42.092934
vertex -6.788593 68.963333 42.130737
vertex -6.783878 67.079544 42.138924
endloop
endfacet
facet normal 0.999958 0.002463 -0.008800
outer loop
vertex -6.788593 68.963333 42.130737
vertex -6.793304 70.847122 42.122543
vertex -6.782059 70.852722 43.402023
endloop
endfacet
facet normal -0.008787 -0.004370 -0.999952
outer loop
vertex 17.418459 64.804008 43.215797
vertex 5.310560 70.882500 43.295631
vertex 8.205925 70.889633 43.270157
endloop
endfacet
facet normal 0.999958 0.002466 -0.008799
outer loop
vertex -6.778187 64.804008 42.148819
vertex -6.779167 65.195755 42.147114
vertex -6.767921 65.201347 43.426598
endloop
endfacet
facet normal 0.008789 0.004372 0.999952
outer loop
vertex -1.709297 68.486450 42.088184
vertex -6.793304 70.847122 42.122543
vertex -6.788593 68.963333 42.130737
endloop
endfacet
facet normal 0.002501 -0.999987 0.004353
outer loop
vertex -3.642359 70.854889 42.094822
vertex -0.491415 70.862648 42.067101
vertex -0.480169 70.868240 43.346581
endloop
endfacet
facet normal 0.002502 -0.999987 0.004343
outer loop
vertex 5.299316 70.876907 42.016151
vertex 8.194681 70.884041 41.990677
vertex 8.205925 70.889633 43.270157
endloop
endfacet
facet normal 0.002502 -0.999987 0.004357
outer loop
vertex 8.194681 70.884041 41.990677
vertex 11.090048 70.891174 41.965202
vertex 11.101292 70.896767 43.244682
endloop
endfacet
facet normal 0.002501 -0.999987 0.004358
outer loop
vertex 11.090048 70.891174 41.965202
vertex 14.240993 70.898933 41.937477
vertex 14.252236 70.904526 43.216961
endloop
endfacet
facet normal -0.999958 -0.002463 0.008800
outer loop
vertex 17.396646 69.022903 41.917946
vertex 17.407892 69.028488 43.197426
vertex 17.403181 70.912285 43.189240
endloop
endfacet
facet normal -0.999958 -0.002462 0.008797
outer loop
vertex 17.401361 67.139114 41.926140
vertex 17.412603 67.144699 43.205620
vertex 17.407892 69.028488 43.197426
endloop
endfacet
facet normal -0.999958 -0.002462 0.008797
outer loop
vertex 17.406073 65.255325 41.934326
vertex 17.417315 65.260910 43.213806
vertex 17.412603 67.144699 43.205620
endloop
endfacet
facet normal -0.999958 -0.002463 0.008797
outer loop
vertex 17.417315 65.260910 43.213806
vertex 17.406073 65.255325 41.934326
vertex 17.407202 64.804008 41.936291
endloop
endfacet
facet normal 0.008787 0.004368 0.999952
outer loop
vertex 17.406073 65.255325 41.934326
vertex 12.328004 65.242813 41.979004
vertex 12.329101 64.804008 41.980911
endloop
endfacet
facet normal 0.008787 0.004367 0.999952
outer loop
vertex 12.328004 65.242813 41.979004
vertex 17.406073 65.255325 41.934326
vertex 17.401361 67.139114 41.926140
endloop
endfacet
facet normal 0.008787 0.004372 0.999952
outer loop
vertex 12.325270 66.335541 41.974255
vertex 17.401361 67.139114 41.926140
vertex 17.396646 69.022903 41.917946
endloop
endfacet
facet normal 0.008789 0.004368 0.999952
outer loop
vertex 10.492039 68.516495 41.980831
vertex 14.240993 70.898933 41.937477
vertex 11.090048 70.891174 41.965202
endloop
endfacet
facet normal 0.008792 0.004369 0.999952
outer loop
vertex 8.664274 68.511993 41.996914
vertex 11.090048 70.891174 41.965202
vertex 8.194681 70.884041 41.990677
endloop
endfacet
facet normal 0.008792 0.004369 0.999952
outer loop
vertex 6.984764 68.507858 42.011692
vertex 8.194681 70.884041 41.990677
vertex 5.299316 70.876907 42.016151
endloop
endfacet
facet normal 0.008789 0.004368 0.999952
outer loop
vertex 3.625742 68.499588 42.041245
vertex 5.305252 68.503723 42.026466
vertex 5.299316 70.876907 42.016151
endloop
endfacet
facet normal 0.008789 0.004369 0.999952
outer loop
vertex 1.946230 68.495453 42.056023
vertex 3.625742 68.499588 42.041245
vertex 2.403950 70.869781 42.041626
endloop
endfacet
facet normal 0.008787 0.004368 0.999952
outer loop
vertex 0.118467 68.490952 42.072102
vertex 1.946230 68.495453 42.056023
vertex -0.491415 70.862648 42.067101
endloop
endfacet
facet normal 0.008790 0.004370 0.999952
outer loop
vertex -1.709297 68.486450 42.088184
vertex 0.118467 68.490952 42.072102
vertex -3.642359 70.854889 42.094822
endloop
endfacet
facet normal 0.000000 1.000000 0.000000
outer loop
vertex 17.130783 64.804008 41.938717
vertex 17.130516 64.804008 41.908363
vertex -6.455513 64.804008 42.145981
endloop
endfacet
facet normal 0.008809 0.004381 0.999952
outer loop
vertex 16.604439 70.875549 41.916813
vertex 16.997652 70.876526 41.913353
vertex 17.391937 70.906693 41.909756
endloop
endfacet
facet normal 0.008780 0.004371 0.999952
outer loop
vertex 17.116467 70.527054 41.913834
vertex 17.120447 68.936104 41.920753
vertex 17.396646 69.022903 41.917946
endloop
endfacet
facet normal 0.008793 0.004520 0.999951
outer loop
vertex 14.194862 70.869614 41.938015
vertex 14.240993 70.898933 41.937477
vertex 11.090048 70.891174 41.965202
endloop
endfacet
facet normal 0.008791 0.004372 0.999952
outer loop
vertex 17.125053 67.095367 41.928757
vertex 17.401361 67.139114 41.926140
vertex 17.396646 69.022903 41.917946
endloop
endfacet
facet normal 0.008791 0.004323 0.999952
outer loop
vertex 11.090048 70.891174 41.965202
vertex 8.194681 70.884041 41.990677
vertex 10.725018 70.861069 41.968540
endloop
endfacet
facet normal 0.008785 0.004378 0.999952
outer loop
vertex 8.194681 70.884041 41.990677
vertex 5.299316 70.876907 42.016151
vertex 5.322519 70.847763 42.016075
endloop
endfacet
facet normal 0.008793 0.004370 0.999952
outer loop
vertex 17.401361 67.139114 41.926140
vertex 17.125305 66.993439 41.929199
vertex 17.129656 65.254639 41.936760
endloop
endfacet
facet normal 0.008706 0.004375 0.999952
outer loop
vertex -6.707726 64.804008 42.148197
vertex -6.779167 65.195755 42.147114
vertex -6.778187 64.804008 42.148819
endloop
endfacet
facet normal 0.008811 0.004369 0.999952
outer loop
vertex -6.783878 67.079544 42.138924
vertex -6.779167 65.195755 42.147114
vertex -6.460842 66.935349 42.136715
endloop
endfacet
facet normal 0.008785 0.004367 0.999952
outer loop
vertex -6.465668 68.863594 42.128334
vertex -6.788593 68.963333 42.130737
vertex -6.783878 67.079544 42.138924
endloop
endfacet
facet normal 0.008807 0.004367 0.999952
outer loop
vertex -6.456493 65.196548 42.144276
vertex -6.779167 65.195755 42.147114
vertex -6.707726 64.804008 42.148197
endloop
endfacet
facet normal 0.000000 -1.000000 0.000000
outer loop
vertex 17.304966 64.804008 52.335453
vertex -6.568153 64.804008 52.550716
vertex -6.766930 64.804008 43.428322
endloop
endfacet
facet normal 0.008789 0.004369 0.999952
outer loop
vertex 12.322536 67.428268 41.969501
vertex 17.396646 69.022903 41.917946
vertex 17.391937 70.906693 41.909756
endloop
endfacet
facet normal 0.008787 0.004368 0.999952
outer loop
vertex -1.701097 65.208267 42.102436
vertex -1.703831 66.300987 42.097687
vertex -6.779167 65.195755 42.147114
endloop
endfacet
facet normal 0.008785 0.004372 0.999952
outer loop
vertex -1.700087 64.804008 42.104195
vertex -1.701097 65.208267 42.102436
vertex -6.778187 64.804008 42.148819
endloop
endfacet
facet normal -0.212528 -0.322896 0.922264
outer loop
vertex 13.986085 70.781128 21.706278
vertex 14.075361 70.431145 21.604311
vertex 14.329886 70.782333 21.785929
endloop
endfacet
facet normal -0.830388 -0.346211 0.436570
outer loop
vertex 14.422631 70.432358 21.684795
vertex 14.635890 70.434669 22.092274
vertex 14.329886 70.782333 21.785929
endloop
endfacet
facet normal -0.949549 -0.290369 0.118506
outer loop
vertex 14.635890 70.434669 22.092274
vertex 15.256701 70.458099 27.123917
vertex 14.540998 70.784615 22.189388
endloop
endfacet
facet normal 0.009135 -0.277542 0.960670
outer loop
vertex 9.328081 70.769653 21.747257
vertex 9.370317 70.419556 21.645712
vertex 13.986085 70.781128 21.706278
endloop
endfacet
facet normal -0.225805 0.003671 0.974166
outer loop
vertex 14.075361 70.431145 21.604311
vertex 14.084199 66.897530 21.619675
vertex 14.422631 70.432358 21.684795
endloop
endfacet
facet normal -0.885994 -0.000200 0.463696
outer loop
vertex 14.422631 70.432358 21.684795
vertex 14.431470 66.898750 21.700159
vertex 14.635890 70.434669 22.092274
endloop
endfacet
facet normal -0.992471 -0.001950 0.122461
outer loop
vertex 14.635890 70.434669 22.092274
vertex 14.644729 66.901054 22.107637
vertex 15.256701 70.458099 27.123917
endloop
endfacet
facet normal -0.948423 -0.291002 0.125742
outer loop
vertex 15.256701 70.458099 27.123917
vertex 15.874702 70.480125 31.836044
vertex 15.155602 70.807808 27.170687
endloop
endfacet
facet normal 0.009136 -0.277562 0.960664
outer loop
vertex 5.144728 70.759346 21.784065
vertex 5.144701 70.409149 21.682886
vertex 9.328081 70.769653 21.747257
endloop
endfacet
facet normal 0.008787 0.004370 0.999952
outer loop
vertex 9.370317 70.419556 21.645712
vertex 9.379156 66.885941 21.661076
vertex 14.075361 70.431145 21.604311
endloop
endfacet
facet normal -0.225772 0.003670 0.974173
outer loop
vertex 14.436709 64.804001 21.709265
vertex 14.431470 66.898750 21.700159
vertex 14.089435 64.804001 21.628780
endloop
endfacet
facet normal -0.885998 -0.000200 0.463690
outer loop
vertex 14.649974 64.804001 22.116756
vertex 14.644729 66.901054 22.107637
vertex 14.436709 64.804001 21.709265
endloop
endfacet
facet normal -0.992471 -0.001950 0.122461
outer loop
vertex 15.270844 64.804001 27.148499
vertex 15.265540 66.924484 27.139280
vertex 14.649974 64.804001 22.116756
endloop
endfacet
facet normal -0.991506 -0.001914 0.130047
outer loop
vertex 15.256701 70.458099 27.123917
vertex 15.265540 66.924484 27.139280
vertex 15.874702 70.480125 31.836044
endloop
endfacet
facet normal -0.948432 -0.290978 0.125731
outer loop
vertex 15.767426 70.829628 31.835670
vertex 15.874702 70.480125 31.836044
vertex 16.379192 70.851440 36.500648
endloop
endfacet
facet normal 0.009136 -0.277546 0.960669
outer loop
vertex 0.919098 70.398743 21.720066
vertex 5.144701 70.409149 21.682886
vertex 0.961376 70.749046 21.820869
endloop
endfacet
facet normal 0.008786 0.004370 0.999952
outer loop
vertex 5.144701 70.409149 21.682886
vertex 5.153538 66.875534 21.698250
vertex 9.370317 70.419556 21.645712
endloop
endfacet
facet normal 0.008787 0.004371 0.999952
outer loop
vertex 14.089435 64.804001 21.628780
vertex 14.084199 66.897530 21.619675
vertex 9.384363 64.804001 21.670126
endloop
endfacet
facet normal -0.991506 -0.001915 0.130046
outer loop
vertex 15.888900 64.804001 31.860723
vertex 15.883541 66.946526 31.851408
vertex 15.270844 64.804001 27.148499
endloop
endfacet
facet normal -0.991507 -0.001915 0.130042
outer loop
vertex 15.874702 70.480125 31.836044
vertex 15.883541 66.946526 31.851408
vertex 16.492670 70.502167 36.548065
endloop
endfacet
facet normal -0.949305 -0.292927 0.114079
outer loop
vertex 16.379192 70.851440 36.500648
vertex 16.492670 70.502167 36.548065
vertex 16.995714 70.875557 41.692909
endloop
endfacet
facet normal 0.009135 -0.277521 0.960676
outer loop
vertex -3.785955 70.387146 21.761461
vertex 0.919098 70.398743 21.720066
vertex -3.696627 70.737572 21.861849
endloop
endfacet
facet normal 0.008789 0.004370 0.999952
outer loop
vertex 0.919098 70.398743 21.720066
vertex 0.927935 66.865128 21.735430
vertex 5.144701 70.409149 21.682886
endloop
endfacet
facet normal 0.008788 0.004369 0.999952
outer loop
vertex 9.384363 64.804001 21.670126
vertex 9.379156 66.885941 21.661076
vertex 5.158720 64.804001 21.707260
endloop
endfacet
facet normal -0.991507 -0.001916 0.130043
outer loop
vertex 16.506924 64.804001 36.572838
vertex 16.501507 66.968552 36.563427
vertex 15.888900 64.804001 31.860723
endloop
endfacet
facet normal -0.993022 -0.001972 0.117913
outer loop
vertex 16.492670 70.502167 36.548065
vertex 16.501507 66.968552 36.563427
vertex 17.115402 70.526527 41.792896
endloop
endfacet
facet normal -0.946732 -0.321873 0.009772
outer loop
vertex 17.043169 70.742645 41.913536
vertex 17.115402 70.526527 41.792896
vertex 17.116467 70.527054 41.913834
endloop
endfacet
facet normal -0.946738 -0.321859 0.009730
outer loop
vertex 17.115402 70.526527 41.792896
vertex 16.997652 70.876526 41.913353
vertex 16.995714 70.875557 41.692909
endloop
endfacet
facet normal 0.839655 -0.342188 0.421766
outer loop
vertex -4.242964 70.738342 22.354654
vertex -4.337826 70.387932 22.259211
vertex -4.038975 70.737091 21.947542
endloop
endfacet
facet normal 0.230388 -0.321744 0.918369
outer loop
vertex -4.131758 70.386658 21.848043
vertex -3.785955 70.387146 21.761461
vertex -4.038975 70.737091 21.947542
endloop
endfacet
facet normal 0.008787 0.004369 0.999952
outer loop
vertex -3.785955 70.387146 21.761461
vertex -3.777119 66.853539 21.776821
vertex 0.919098 70.398743 21.720066
endloop
endfacet
facet normal 0.008786 0.004371 0.999952
outer loop
vertex 5.158720 64.804001 21.707260
vertex 5.153538 66.875534 21.698250
vertex 0.933092 64.804001 21.744389
endloop
endfacet
facet normal -0.993022 -0.001972 0.117913
outer loop
vertex 17.129719 64.804008 41.817780
vertex 17.124243 66.992912 41.808262
vertex 16.506924 64.804001 36.572838
endloop
endfacet
facet normal -0.999958 -0.002424 0.008795
outer loop
vertex 17.124243 66.992912 41.808262
vertex 17.125305 66.993439 41.929199
vertex 17.125053 67.095367 41.928757
endloop
endfacet
facet normal -0.999958 -0.002464 0.008813
outer loop
vertex 17.120447 68.936104 41.920753
vertex 17.115402 70.526527 41.792896
vertex 17.124243 66.992912 41.808262
endloop
endfacet
facet normal -0.999958 -0.002466 0.008822
outer loop
vertex 17.124243 66.992912 41.808262
vertex 17.125053 67.095367 41.928757
vertex 17.120447 68.936104 41.920753
endloop
endfacet
facet normal 0.952904 -0.285688 0.101768
outer loop
vertex -4.337826 70.387932 22.259211
vertex -4.242964 70.738342 22.354654
vertex -4.870113 70.408524 27.301001
endloop
endfacet
facet normal 0.894003 0.004184 0.448042
outer loop
vertex -4.131758 70.386658 21.848043
vertex -4.337826 70.387932 22.259211
vertex -4.122919 66.853050 21.863407
endloop
endfacet
facet normal 0.242873 0.004825 0.970046
outer loop
vertex -4.131758 70.386658 21.848043
vertex -4.122919 66.853050 21.863407
vertex -3.785955 70.387146 21.761461
endloop
endfacet
facet normal 0.008787 0.004368 0.999952
outer loop
vertex 0.933092 64.804001 21.744389
vertex 0.927935 66.865128 21.735430
vertex -3.771992 64.804001 21.785734
endloop
endfacet
facet normal -0.999958 -0.002453 0.008802
outer loop
vertex 17.129656 65.254639 41.936760
vertex 17.129719 64.804008 41.817780
vertex 17.130516 64.804008 41.908363
endloop
endfacet
facet normal -0.999958 -0.002462 0.008795
outer loop
vertex 17.129656 65.254639 41.936760
vertex 17.125305 66.993439 41.929199
vertex 17.124243 66.992912 41.808262
endloop
endfacet
facet normal 0.951912 -0.286318 0.109024
outer loop
vertex -4.870113 70.408524 27.301001
vertex -4.769932 70.758728 27.346001
vertex -5.405212 70.427711 32.023273
endloop
endfacet
facet normal 0.994470 0.002944 0.104979
outer loop
vertex -4.337826 70.387932 22.259211
vertex -4.870113 70.408524 27.301001
vertex -4.328987 66.854317 22.274570
endloop
endfacet
facet normal 0.894001 0.004185 0.448046
outer loop
vertex -4.323858 64.804001 22.283487
vertex -4.117792 64.804001 21.872314
vertex -4.328987 66.854317 22.274570
endloop
endfacet
facet normal 0.242880 0.004826 0.970044
outer loop
vertex -3.771992 64.804001 21.785734
vertex -3.777119 66.853539 21.776821
vertex -4.117792 64.804001 21.872314
endloop
endfacet
facet normal 0.951921 -0.286291 0.109016
outer loop
vertex -5.299683 70.777740 32.021023
vertex -5.829376 70.796738 36.696053
vertex -5.405212 70.427711 32.023273
endloop
endfacet
facet normal 0.993638 0.002975 0.112581
outer loop
vertex -4.870113 70.408524 27.301001
vertex -5.405212 70.427711 32.023273
vertex -4.861275 66.874908 27.316360
endloop
endfacet
facet normal 0.994470 0.002944 0.104979
outer loop
vertex -4.856094 64.804001 27.325365
vertex -4.323858 64.804001 22.283487
vertex -4.861275 66.874908 27.316360
endloop
endfacet
facet normal 0.008795 0.004365 0.999952
outer loop
vertex 17.130783 64.804008 41.938717
vertex 17.337721 64.804008 41.936897
vertex 17.129656 65.254639 41.936760
endloop
endfacet
facet normal 0.008774 0.004335 0.999952
outer loop
vertex -0.491415 70.862648 42.067101
vertex -0.461420 70.833519 42.066963
vertex -0.079983 70.834457 42.063606
endloop
endfacet
facet normal 0.008789 0.004269 0.999952
outer loop
vertex -0.079983 70.834457 42.063606
vertex 2.418985 70.840614 42.041618
vertex 2.403950 70.869781 42.041626
endloop
endfacet
facet normal 0.008790 0.004333 0.999952
outer loop
vertex 5.299391 70.847702 42.016277
vertex 5.299316 70.876907 42.016151
vertex 2.418985 70.840614 42.041618
endloop
endfacet
facet normal 0.952597 -0.288239 0.097348
outer loop
vertex -5.829376 70.796738 36.696053
vertex -6.354553 70.818047 41.898350
vertex -5.940273 70.446915 36.745434
endloop
endfacet
facet normal 0.993639 0.002975 0.112576
outer loop
vertex -5.405212 70.427711 32.023273
vertex -5.940273 70.446915 36.745434
vertex -5.396374 66.894104 32.038639
endloop
endfacet
facet normal 0.993638 0.002976 0.112581
outer loop
vertex -5.391144 64.804001 32.047726
vertex -4.856094 64.804001 27.325365
vertex -5.396374 66.894104 32.038639
endloop
endfacet
facet normal 0.008775 0.004372 0.999952
outer loop
vertex -6.469681 70.468964 42.121353
vertex -6.403713 70.666222 42.119911
vertex -6.793304 70.847122 42.122543
endloop
endfacet
facet normal 0.008807 0.004370 0.999952
outer loop
vertex -6.788593 68.963333 42.130737
vertex -6.465668 68.863594 42.128334
vertex -6.469681 70.468964 42.121353
endloop
endfacet
facet normal 0.008794 0.004407 0.999952
outer loop
vertex -5.959404 70.819977 42.115334
vertex -3.596079 70.825798 42.094543
vertex -3.642359 70.854889 42.094822
endloop
endfacet
facet normal 0.008778 0.004354 0.999952
outer loop
vertex -6.793304 70.847122 42.122543
vertex -6.403713 70.666222 42.119911
vertex -6.352619 70.819008 42.118797
endloop
endfacet
facet normal 0.008786 0.004339 0.999952
outer loop
vertex -6.793304 70.847122 42.122543
vertex -5.959404 70.819977 42.115334
vertex -3.642359 70.854889 42.094822
endloop
endfacet
facet normal 0.008789 0.004334 0.999952
outer loop
vertex -0.461420 70.833519 42.066963
vertex -0.491415 70.862648 42.067101
vertex -3.596079 70.825798 42.094543
endloop
endfacet
facet normal 0.948335 -0.317194 -0.006937
outer loop
vertex -6.470745 70.468437 42.000416
vertex -6.354553 70.818047 41.898350
vertex -6.352619 70.819008 42.118797
endloop
endfacet
facet normal 0.948335 -0.317196 -0.006932
outer loop
vertex -6.403713 70.666222 42.119911
vertex -6.469681 70.468964 42.121353
vertex -6.470745 70.468437 42.000416
endloop
endfacet
facet normal 0.994940 0.002925 0.100424
outer loop
vertex -5.940273 70.446915 36.745434
vertex -6.470745 70.468437 42.000416
vertex -5.931435 66.913300 36.760796
endloop
endfacet
facet normal 0.993639 0.002974 0.112576
outer loop
vertex -5.926163 64.804001 36.769970
vertex -5.391144 64.804001 32.047726
vertex -5.931435 66.913300 36.760796
endloop
endfacet
facet normal 0.999958 0.002499 -0.008810
outer loop
vertex -6.461906 66.934822 42.015778
vertex -6.461082 67.030075 42.136303
vertex -6.460842 66.935349 42.136715
endloop
endfacet
facet normal 0.999958 0.002462 -0.008811
outer loop
vertex -6.470745 70.468437 42.000416
vertex -6.469681 70.468964 42.121353
vertex -6.465668 68.863594 42.128334
endloop
endfacet
facet normal 0.999958 0.002463 -0.008790
outer loop
vertex -6.465668 68.863594 42.128334
vertex -6.461906 66.934822 42.015778
vertex -6.470745 70.468437 42.000416
endloop
endfacet
facet normal 0.994940 0.002924 0.100424
outer loop
vertex -6.456577 64.804008 42.025043
vertex -5.926163 64.804001 36.769970
vertex -6.461906 66.934822 42.015778
endloop
endfacet
facet normal 0.999958 0.002462 -0.008811
outer loop
vertex -6.456493 65.196548 42.144276
vertex -6.461906 66.934822 42.015778
vertex -6.460842 66.935349 42.136715
endloop
endfacet
facet normal 0.999958 0.002471 -0.008841
outer loop
vertex -6.456493 65.196548 42.144276
vertex -6.455742 64.804008 42.119537
vertex -6.456577 64.804008 42.025043
endloop
endfacet
facet normal 0.999958 0.002462 -0.008798
outer loop
vertex -6.627106 70.396629 47.415199
vertex -6.568153 64.804008 52.550716
vertex -6.658127 64.804008 42.324146
endloop
endfacet
facet normal 0.999958 0.002451 -0.008889
outer loop
vertex -6.568153 64.804008 52.550716
vertex -6.571987 66.055954 52.464882
vertex -6.568478 64.998985 52.568039
endloop
endfacet
facet normal 0.999958 0.002458 -0.008815
outer loop
vertex -6.571987 66.055954 52.464882
vertex -6.568153 64.804008 52.550716
vertex -6.577095 67.071449 52.168575
endloop
endfacet
facet normal 0.999958 0.002464 -0.008790
outer loop
vertex -6.583607 68.006439 51.690506
vertex -6.568153 64.804008 52.550716
vertex -6.591263 68.824982 51.049042
endloop
endfacet
facet normal 0.999958 0.002458 -0.008804
outer loop
vertex -6.599777 69.495644 50.268841
vertex -6.568153 64.804008 52.550716
vertex -6.608826 69.992638 49.379875
endloop
endfacet
facet normal 0.999958 0.002462 -0.008798
outer loop
vertex -6.658127 64.804008 42.324146
vertex -6.635639 70.288116 46.414978
vertex -6.627106 70.396629 47.415199
endloop
endfacet
facet normal 0.999958 0.002462 -0.008795
outer loop
vertex -6.658127 64.804008 42.324146
vertex -6.649864 69.470734 44.569500
vertex -6.643326 69.975479 45.454109
endloop
endfacet
facet normal 0.999958 0.002465 -0.008808
outer loop
vertex -6.658127 64.804008 42.324146
vertex -6.658562 67.969162 43.160835
vertex -6.655006 68.793282 43.795158
endloop
endfacet
facet normal 0.999959 0.002457 -0.008770
outer loop
vertex -6.658127 64.804008 42.324146
vertex -6.660400 66.011993 42.403450
vertex -6.660381 67.030029 42.690910
endloop
endfacet
facet normal 0.999959 0.002450 -0.008702
outer loop
vertex -6.660400 66.011993 42.403450
vertex -6.658127 64.804008 42.324146
vertex -6.658623 64.954163 42.309494
endloop
endfacet
facet normal 0.999958 0.002458 -0.008813
outer loop
vertex -6.568153 64.804008 52.550716
vertex -6.583607 68.006439 51.690506
vertex -6.577095 67.071449 52.168575
endloop
endfacet
facet normal 0.999958 0.002462 -0.008796
outer loop
vertex -6.591263 68.824982 51.049042
vertex -6.568153 64.804008 52.550716
vertex -6.599777 69.495644 50.268841
endloop
endfacet
facet normal 0.999958 0.002465 -0.008801
outer loop
vertex -6.658127 64.804008 42.324146
vertex -6.643326 69.975479 45.454109
vertex -6.635639 70.288116 46.414978
endloop
endfacet
facet normal 0.999958 0.002462 -0.008790
outer loop
vertex -6.658127 64.804008 42.324146
vertex -6.660381 67.030029 42.690910
vertex -6.658562 67.969162 43.160835
endloop
endfacet
facet normal 0.999958 0.002463 -0.008796
outer loop
vertex -6.627106 70.396629 47.415199
vertex -6.618053 70.296860 48.416321
vertex -6.568153 64.804008 52.550716
endloop
endfacet
facet normal 0.999958 0.002461 -0.008800
outer loop
vertex -6.608826 69.992638 49.379875
vertex -6.568153 64.804008 52.550716
vertex -6.618053 70.296860 48.416321
endloop
endfacet
facet normal 0.008474 -0.609948 0.792396
outer loop
vertex -6.655006 68.793282 43.795158
vertex -6.658562 67.969162 43.160835
vertex 17.218006 68.852081 43.585117
endloop
endfacet
facet normal -0.005405 -0.616845 -0.787066
outer loop
vertex 17.289410 68.065239 51.480465
vertex -6.583607 68.006439 51.690506
vertex 17.281750 68.883781 50.839005
endloop
endfacet
facet normal -0.006712 -0.455272 -0.890327
outer loop
vertex 17.295919 67.130249 51.958534
vertex -6.577095 67.071449 52.168575
vertex 17.289410 68.065239 51.480465
endloop
endfacet
facet normal -0.007756 -0.280133 -0.959930
outer loop
vertex 17.301027 66.114761 52.254837
vertex -6.571987 66.055954 52.464882
vertex 17.295919 67.130249 51.958534
endloop
endfacet
facet normal -0.008517 -0.097159 -0.995233
outer loop
vertex 17.304539 65.057785 52.357994
vertex -6.568478 64.998985 52.568039
vertex 17.301027 66.114761 52.254837
endloop
endfacet
facet normal -0.008981 0.088460 -0.996039
outer loop
vertex 17.304966 64.804008 52.335453
vertex -6.568153 64.804008 52.550716
vertex 17.304539 65.057785 52.357994
endloop
endfacet
facet normal -0.999958 -0.002464 0.008798
outer loop
vertex 17.245907 70.455429 47.205162
vertex 17.215088 64.804008 42.119843
vertex 17.304966 64.804008 52.335453
endloop
endfacet
facet normal -0.999958 -0.002465 0.008791
outer loop
vertex 17.215088 64.804008 42.119843
vertex 17.212612 66.070793 42.193409
vertex 17.214394 65.012962 42.099449
endloop
endfacet
facet normal -0.999958 -0.002473 0.008821
outer loop
vertex 17.212612 66.070793 42.193409
vertex 17.215088 64.804008 42.119843
vertex 17.212637 67.088829 42.480873
endloop
endfacet
facet normal -0.999958 -0.002465 0.008801
outer loop
vertex 17.214455 68.027962 42.950794
vertex 17.215088 64.804008 42.119843
vertex 17.218006 68.852081 43.585117
endloop
endfacet
facet normal -0.999958 -0.002461 0.008796
outer loop
vertex 17.223152 69.529533 44.359459
vertex 17.215088 64.804008 42.119843
vertex 17.229691 70.034279 45.244064
endloop
endfacet
facet normal -0.999958 -0.002460 0.008798
outer loop
vertex 17.304966 64.804008 52.335453
vertex 17.254961 70.355659 48.206276
vertex 17.245907 70.455429 47.205162
endloop
endfacet
facet normal -0.999958 -0.002462 0.008797
outer loop
vertex 17.304966 64.804008 52.335453
vertex 17.273233 69.554443 50.058800
vertex 17.264189 70.051437 49.169838
endloop
endfacet
facet normal -0.999958 -0.002463 0.008797
outer loop
vertex 17.304966 64.804008 52.335453
vertex 17.289410 68.065239 51.480465
vertex 17.281750 68.883781 50.839005
endloop
endfacet
facet normal -0.999958 -0.002461 0.008794
outer loop
vertex 17.304966 64.804008 52.335453
vertex 17.301027 66.114761 52.254837
vertex 17.295919 67.130249 51.958534
endloop
endfacet
facet normal -0.999958 -0.002464 0.008787
outer loop
vertex 17.301027 66.114761 52.254837
vertex 17.304966 64.804008 52.335453
vertex 17.304539 65.057785 52.357994
endloop
endfacet
facet normal -0.999958 -0.002459 0.008787
outer loop
vertex 17.215088 64.804008 42.119843
vertex 17.214455 68.027962 42.950794
vertex 17.212637 67.088829 42.480873
endloop
endfacet
facet normal -0.999958 -0.002465 0.008802
outer loop
vertex 17.218006 68.852081 43.585117
vertex 17.215088 64.804008 42.119843
vertex 17.223152 69.529533 44.359459
endloop
endfacet
facet normal -0.999958 -0.002467 0.008799
outer loop
vertex 17.304966 64.804008 52.335453
vertex 17.264189 70.051437 49.169838
vertex 17.254961 70.355659 48.206276
endloop
endfacet
facet normal -0.999958 -0.002465 0.008799
outer loop
vertex 17.304966 64.804008 52.335453
vertex 17.295919 67.130249 51.958534
vertex 17.289410 68.065239 51.480465
endloop
endfacet
facet normal -0.999958 -0.002462 0.008799
outer loop
vertex 17.245907 70.455429 47.205162
vertex 17.237373 70.346909 46.204937
vertex 17.215088 64.804008 42.119843
endloop
endfacet
facet normal -0.999958 -0.002465 0.008797
outer loop
vertex 17.229691 70.034279 45.244064
vertex 17.215088 64.804008 42.119843
vertex 17.237373 70.346909 46.204937
endloop
endfacet
facet normal 0.008787 0.004370 0.999952
outer loop
vertex 5.305252 68.503723 42.026466
vertex -1.700087 64.804008 42.104195
vertex 12.329101 64.804008 41.980911
endloop
endfacet
facet normal 0.008793 0.004368 0.999952
outer loop
vertex 0.118467 68.490952 42.072102
vertex -1.703831 66.300987 42.097687
vertex -1.701097 65.208267 42.102436
endloop
endfacet
facet normal 0.008793 0.004368 0.999952
outer loop
vertex 0.118467 68.490952 42.072102
vertex -1.709297 68.486450 42.088184
vertex -1.706564 67.393715 42.092934
endloop
endfacet
facet normal 0.008755 0.004372 0.999952
outer loop
vertex -1.701097 65.208267 42.102436
vertex -1.700087 64.804008 42.104195
vertex 0.118467 68.490952 42.072102
endloop
endfacet
facet normal 0.008785 0.004370 0.999952
outer loop
vertex 12.329101 64.804008 41.980911
vertex 8.664274 68.511993 41.996914
vertex 6.984764 68.507858 42.011692
endloop
endfacet
facet normal 0.008787 0.004371 0.999952
outer loop
vertex 0.118467 68.490952 42.072102
vertex -1.700087 64.804008 42.104195
vertex 1.946230 68.495453 42.056023
endloop
endfacet
facet normal 0.008789 0.004370 0.999952
outer loop
vertex 12.329101 64.804008 41.980911
vertex 10.492039 68.516495 41.980831
vertex 8.664274 68.511993 41.996914
endloop
endfacet
facet normal 0.008788 0.004369 0.999952
outer loop
vertex 1.946230 68.495453 42.056023
vertex -1.700087 64.804008 42.104195
vertex 3.625742 68.499588 42.041245
endloop
endfacet
facet normal 0.008789 0.004371 0.999952
outer loop
vertex 0.118467 68.490952 42.072102
vertex -1.706564 67.393715 42.092934
vertex -1.703831 66.300987 42.097687
endloop
endfacet
facet normal 0.008765 0.004368 0.999952
outer loop
vertex 10.492039 68.516495 41.980831
vertex 12.329101 64.804008 41.980911
vertex 12.328004 65.242813 41.979004
endloop
endfacet
facet normal 0.008785 0.004372 0.999952
outer loop
vertex 10.492039 68.516495 41.980831
vertex 12.325270 66.335541 41.974255
vertex 12.322536 67.428268 41.969501
endloop
endfacet
facet normal 0.008789 0.004368 0.999952
outer loop
vertex 12.322536 67.428268 41.969501
vertex 12.319803 68.520996 41.964752
vertex 10.492039 68.516495 41.980831
endloop
endfacet
facet normal 0.008789 0.004369 0.999952
outer loop
vertex -1.700087 64.804008 42.104195
vertex 5.305252 68.503723 42.026466
vertex 3.625742 68.499588 42.041245
endloop
endfacet
facet normal 0.008793 0.004368 0.999952
outer loop
vertex 10.492039 68.516495 41.980831
vertex 12.328004 65.242813 41.979004
vertex 12.325270 66.335541 41.974255
endloop
endfacet
facet normal 0.008783 0.004371 0.999952
outer loop
vertex 10.492039 68.516495 41.980831
vertex 12.319803 68.520996 41.964752
vertex 14.240993 70.898933 41.937477
endloop
endfacet
facet normal 0.000000 1.000000 0.000000
outer loop
vertex 12.329101 64.804008 41.980911
vertex -6.766930 64.804008 43.428322
vertex 17.418459 64.804008 43.215797
endloop
endfacet
facet normal 0.000000 1.000000 -0.000007
outer loop
vertex -6.766930 64.804008 43.428322
vertex 12.329101 64.804008 41.980911
vertex -1.700087 64.804008 42.104195
endloop
endfacet
facet normal 0.000000 1.000000 -0.000005
outer loop
vertex -1.700087 64.804008 42.104195
vertex -6.778187 64.804008 42.148819
vertex -6.766930 64.804008 43.428322
endloop
endfacet
facet normal 0.999958 0.002461 -0.008797
outer loop
vertex -6.772636 67.085129 43.418407
vertex -6.783878 67.079544 42.138924
vertex -6.777344 68.968925 43.410217
endloop
endfacet
facet normal 0.999958 0.002464 -0.008800
outer loop
vertex -6.767921 65.201347 43.426598
vertex -6.779167 65.195755 42.147114
vertex -6.772636 67.085129 43.418407
endloop
endfacet
facet normal 0.008786 0.004371 0.999952
outer loop
vertex -1.703831 66.300987 42.097687
vertex -1.706564 67.393715 42.092934
vertex -6.783878 67.079544 42.138924
endloop
endfacet
facet normal 0.999958 0.002464 -0.008803
outer loop
vertex -6.777344 68.968925 43.410217
vertex -6.788593 68.963333 42.130737
vertex -6.782059 70.852722 43.402023
endloop
endfacet
facet normal -0.008787 -0.004370 -0.999952
outer loop
vertex 5.310560 70.882500 43.295631
vertex 17.418459 64.804008 43.215797
vertex -6.766930 64.804008 43.428322
endloop
endfacet
facet normal -0.008789 -0.004367 -0.999952
outer loop
vertex 14.252236 70.904526 43.216961
vertex 17.412603 67.144699 43.205620
vertex 17.417315 65.260910 43.213806
endloop
endfacet
facet normal -0.008789 -0.004367 -0.999952
outer loop
vertex 14.252236 70.904526 43.216961
vertex 17.403181 70.912285 43.189240
vertex 17.407892 69.028488 43.197426
endloop
endfacet
facet normal -0.008775 -0.004380 -0.999952
outer loop
vertex 17.417315 65.260910 43.213806
vertex 17.418459 64.804008 43.215797
vertex 14.252236 70.904526 43.216961
endloop
endfacet
facet normal -0.008787 -0.004369 -0.999952
outer loop
vertex -6.766930 64.804008 43.428322
vertex -0.480169 70.868240 43.346581
vertex 2.415195 70.875366 43.321106
endloop
endfacet
facet normal -0.008787 -0.004370 -0.999952
outer loop
vertex 14.252236 70.904526 43.216961
vertex 17.418459 64.804008 43.215797
vertex 11.101292 70.896767 43.244682
endloop
endfacet
facet normal -0.008787 -0.004369 -0.999952
outer loop
vertex -6.766930 64.804008 43.428322
vertex 2.415195 70.875366 43.321106
vertex 5.310560 70.882500 43.295631
endloop
endfacet
facet normal -0.008784 -0.004371 -0.999952
outer loop
vertex -6.777344 68.968925 43.410217
vertex -6.782059 70.852722 43.402023
vertex -3.631115 70.860474 43.374306
endloop
endfacet
facet normal -0.008799 -0.004361 -0.999952
outer loop
vertex -3.631115 70.860474 43.374306
vertex -6.766930 64.804008 43.428322
vertex -6.767921 65.201347 43.426598
endloop
endfacet
facet normal -0.008794 -0.004369 -0.999952
outer loop
vertex -6.772636 67.085129 43.418407
vertex -6.777344 68.968925 43.410217
vertex -3.631115 70.860474 43.374306
endloop
endfacet
facet normal -0.008778 -0.004370 -0.999952
outer loop
vertex -3.631115 70.860474 43.374306
vertex -6.767921 65.201347 43.426598
vertex -6.772636 67.085129 43.418407
endloop
endfacet
facet normal -0.008786 -0.004371 -0.999952
outer loop
vertex 14.252236 70.904526 43.216961
vertex 17.407892 69.028488 43.197426
vertex 17.412603 67.144699 43.205620
endloop
endfacet
facet normal -0.008786 -0.004370 -0.999952
outer loop
vertex 11.101292 70.896767 43.244682
vertex 17.418459 64.804008 43.215797
vertex 8.205925 70.889633 43.270157
endloop
endfacet
facet normal -0.008787 -0.004368 -0.999952
outer loop
vertex -0.480169 70.868240 43.346581
vertex -6.766930 64.804008 43.428322
vertex -3.631115 70.860474 43.374306
endloop
endfacet
facet normal 0.999958 0.002461 -0.008798
outer loop
vertex -6.766930 64.804008 43.428322
vertex -6.778187 64.804008 42.148819
vertex -6.767921 65.201347 43.426598
endloop
endfacet
facet normal 0.008786 0.004368 0.999952
outer loop
vertex -1.706564 67.393715 42.092934
vertex -1.709297 68.486450 42.088184
vertex -6.788593 68.963333 42.130737
endloop
endfacet
facet normal -0.999958 -0.002461 0.008798
outer loop
vertex 17.391937 70.906693 41.909756
vertex 17.396646 69.022903 41.917946
vertex 17.403181 70.912285 43.189240
endloop
endfacet
facet normal -0.999958 -0.002464 0.008800
outer loop
vertex 17.396646 69.022903 41.917946
vertex 17.401361 67.139114 41.926140
vertex 17.407892 69.028488 43.197426
endloop
endfacet
facet normal -0.999958 -0.002464 0.008797
outer loop
vertex 17.401361 67.139114 41.926140
vertex 17.406073 65.255325 41.934326
vertex 17.412603 67.144699 43.205620
endloop
endfacet
facet normal -0.999958 -0.002466 0.008798
outer loop
vertex 17.418459 64.804008 43.215797
vertex 17.417315 65.260910 43.213806
vertex 17.407202 64.804008 41.936291
endloop
endfacet
facet normal 0.008786 0.004375 0.999952
outer loop
vertex 17.407202 64.804008 41.936291
vertex 17.406073 65.255325 41.934326
vertex 12.329101 64.804008 41.980911
endloop
endfacet
facet normal 0.008788 0.004368 0.999952
outer loop
vertex 12.325270 66.335541 41.974255
vertex 12.328004 65.242813 41.979004
vertex 17.401361 67.139114 41.926140
endloop
endfacet
facet normal 0.008788 0.004372 0.999952
outer loop
vertex 12.322536 67.428268 41.969501
vertex 12.325270 66.335541 41.974255
vertex 17.396646 69.022903 41.917946
endloop
endfacet
facet normal 0.008787 0.004368 0.999952
outer loop
vertex 8.664274 68.511993 41.996914
vertex 10.492039 68.516495 41.980831
vertex 11.090048 70.891174 41.965202
endloop
endfacet
facet normal 0.008782 0.004369 0.999952
outer loop
vertex 6.984764 68.507858 42.011692
vertex 8.664274 68.511993 41.996914
vertex 8.194681 70.884041 41.990677
endloop
endfacet
facet normal 0.008782 0.004368 0.999952
outer loop
vertex 5.305252 68.503723 42.026466
vertex 6.984764 68.507858 42.011692
vertex 5.299316 70.876907 42.016151
endloop
endfacet
facet normal 0.008789 0.004369 0.999952
outer loop
vertex 2.403950 70.869781 42.041626
vertex 3.625742 68.499588 42.041245
vertex 5.299316 70.876907 42.016151
endloop
endfacet
facet normal 0.008787 0.004369 0.999952
outer loop
vertex -0.491415 70.862648 42.067101
vertex 1.946230 68.495453 42.056023
vertex 2.403950 70.869781 42.041626
endloop
endfacet
facet normal 0.008784 0.004368 0.999952
outer loop
vertex -3.642359 70.854889 42.094822
vertex 0.118467 68.490952 42.072102
vertex -0.491415 70.862648 42.067101
endloop
endfacet
facet normal 0.008786 0.004369 0.999952
outer loop
vertex -6.793304 70.847122 42.122543
vertex -1.709297 68.486450 42.088184
vertex -3.642359 70.854889 42.094822
endloop
endfacet
facet normal 0.000000 1.000000 0.000011
outer loop
vertex -6.766930 64.804008 43.428322
vertex -6.707726 64.804008 42.148197
vertex -6.778187 64.804008 42.148819
endloop
endfacet
facet normal 0.000000 1.000000 -0.000199
outer loop
vertex 17.130516 64.804008 41.908363
vertex -6.455742 64.804008 42.119537
vertex -6.455513 64.804008 42.145981
endloop
endfacet
facet normal -0.000000 1.000000 0.000001
outer loop
vertex 16.506924 64.804001 36.572838
vertex -5.926163 64.804001 36.769970
vertex -6.456577 64.804008 42.025043
endloop
endfacet
facet normal 0.000000 1.000000 0.000000
outer loop
vertex 0.933092 64.804001 21.744389
vertex -4.323858 64.804001 22.283487
vertex -4.856094 64.804001 27.325365
endloop
endfacet
facet normal 0.000000 1.000000 -0.000000
outer loop
vertex 15.888900 64.804001 31.860723
vertex -5.391144 64.804001 32.047726
vertex -5.926163 64.804001 36.769970
endloop
endfacet
facet normal 0.000000 1.000000 0.000004
outer loop
vertex -6.455513 64.804008 42.145981
vertex -6.707726 64.804008 42.148197
vertex -6.766930 64.804008 43.428322
endloop
endfacet
facet normal 0.000000 1.000000 0.000054
outer loop
vertex 17.130516 64.804008 41.908363
vertex -6.456577 64.804008 42.025043
vertex -6.455742 64.804008 42.119537
endloop
endfacet
facet normal 0.000000 1.000000 -0.000015
outer loop
vertex -3.771992 64.804001 21.785734
vertex -4.117792 64.804001 21.872314
vertex -4.323858 64.804001 22.283487
endloop
endfacet
facet normal 0.000000 1.000000 0.000000
outer loop
vertex -4.323858 64.804001 22.283487
vertex 0.933092 64.804001 21.744389
vertex -3.771992 64.804001 21.785734
endloop
endfacet
facet normal 0.000000 1.000000 0.000003
outer loop
vertex 15.270844 64.804001 27.148499
vertex 9.384363 64.804001 21.670126
vertex 5.158720 64.804001 21.707260
endloop
endfacet
facet normal 0.000000 1.000000 0.000031
outer loop
vertex 14.649974 64.804001 22.116756
vertex 14.436709 64.804001 21.709265
vertex 14.089435 64.804001 21.628780
endloop
endfacet
facet normal 0.000000 1.000000 -0.000001
outer loop
vertex 5.158720 64.804001 21.707260
vertex 15.888900 64.804001 31.860723
vertex 15.270844 64.804001 27.148499
endloop
endfacet
facet normal 0.000000 1.000000 -0.000010
outer loop
vertex 9.384363 64.804001 21.670126
vertex 14.649974 64.804001 22.116756
vertex 14.089435 64.804001 21.628780
endloop
endfacet
facet normal 0.000000 1.000000 -0.000003
outer loop
vertex 5.158720 64.804001 21.707260
vertex 0.933092 64.804001 21.744389
vertex -4.856094 64.804001 27.325365
endloop
endfacet
facet normal 0.000000 1.000000 0.000000
outer loop
vertex 15.270844 64.804001 27.148499
vertex 14.649974 64.804001 22.116756
vertex 9.384363 64.804001 21.670126
endloop
endfacet
facet normal 0.000000 1.000000 0.000000
outer loop
vertex -5.926163 64.804001 36.769970
vertex 16.506924 64.804001 36.572838
vertex 15.888900 64.804001 31.860723
endloop
endfacet
facet normal 0.000000 1.000000 0.000029
outer loop
vertex -6.456577 64.804008 42.025043
vertex 17.130516 64.804008 41.908363
vertex 17.129719 64.804008 41.817780
endloop
endfacet
facet normal 0.000000 1.000000 0.000000
outer loop
vertex 17.418459 64.804008 43.215797
vertex 17.337721 64.804008 41.936897
vertex 17.130783 64.804008 41.938717
endloop
endfacet
facet normal 0.000000 1.000000 0.000000
outer loop
vertex 17.337721 64.804008 41.936897
vertex 17.418459 64.804008 43.215797
vertex 17.407202 64.804008 41.936291
endloop
endfacet
facet normal 0.000000 1.000000 0.000000
outer loop
vertex 15.888900 64.804001 31.860723
vertex 5.158720 64.804001 21.707260
vertex -5.391144 64.804001 32.047726
endloop
endfacet
facet normal 0.000000 1.000000 -0.000008
outer loop
vertex -6.455513 64.804008 42.145981
vertex -6.766930 64.804008 43.428322
vertex 17.418459 64.804008 43.215797
endloop
endfacet
facet normal -0.000000 1.000000 -0.000004
outer loop
vertex -6.456577 64.804008 42.025043
vertex 17.129719 64.804008 41.817780
vertex 16.506924 64.804001 36.572838
endloop
endfacet
facet normal 0.000000 1.000000 0.000006
outer loop
vertex -6.455513 64.804008 42.145981
vertex 17.418459 64.804008 43.215797
vertex 17.130783 64.804008 41.938717
endloop
endfacet
facet normal 0.000000 1.000000 0.000000
outer loop
vertex -5.391144 64.804001 32.047726
vertex 5.158720 64.804001 21.707260
vertex -4.856094 64.804001 27.325365
endloop
endfacet
facet normal 0.008789 0.004520 0.999951
outer loop
vertex 14.240993 70.898933 41.937477
vertex 14.194862 70.869614 41.938015
vertex 16.604439 70.875549 41.916813
endloop
endfacet
facet normal 0.008786 0.004356 0.999952
outer loop
vertex 16.997652 70.876526 41.913353
vertex 17.043169 70.742645 41.913536
vertex 17.391937 70.906693 41.909756
endloop
endfacet
facet normal 0.008781 0.004412 0.999952
outer loop
vertex 17.391937 70.906693 41.909756
vertex 14.240993 70.898933 41.937477
vertex 16.604439 70.875549 41.916813
endloop
endfacet
facet normal 0.008791 0.004369 0.999952
outer loop
vertex 17.116467 70.527054 41.913834
vertex 17.396646 69.022903 41.917946
vertex 17.391937 70.906693 41.909756
endloop
endfacet
facet normal 0.008769 0.004367 0.999952
outer loop
vertex 17.391937 70.906693 41.909756
vertex 17.043169 70.742645 41.913536
vertex 17.116467 70.527054 41.913834
endloop
endfacet
facet normal 0.008786 0.004331 0.999952
outer loop
vertex 11.060198 70.861893 41.965591
vertex 14.194862 70.869614 41.938015
vertex 11.090048 70.891174 41.965202
endloop
endfacet
facet normal 0.008786 0.004370 0.999952
outer loop
vertex 17.120447 68.936104 41.920753
vertex 17.125053 67.095367 41.928757
vertex 17.396646 69.022903 41.917946
endloop
endfacet
facet normal 0.008787 0.004265 0.999952
outer loop
vertex 8.194681 70.884041 41.990677
vertex 8.179794 70.854797 41.990932
vertex 10.725018 70.861069 41.968540
endloop
endfacet
facet normal 0.008816 0.004331 0.999952
outer loop
vertex 10.725018 70.861069 41.968540
vertex 11.060198 70.861893 41.965591
vertex 11.090048 70.891174 41.965202
endloop
endfacet
facet normal 0.008725 0.004333 0.999953
outer loop
vertex 5.299316 70.876907 42.016151
vertex 5.299391 70.847702 42.016277
vertex 5.322519 70.847763 42.016075
endloop
endfacet
facet normal 0.008783 0.004265 0.999952
outer loop
vertex 5.322519 70.847763 42.016075
vertex 8.179794 70.854797 41.990932
vertex 8.194681 70.884041 41.990677
endloop
endfacet
facet normal 0.008758 0.004363 0.999952
outer loop
vertex 17.125305 66.993439 41.929199
vertex 17.401361 67.139114 41.926140
vertex 17.125053 67.095367 41.928757
endloop
endfacet
facet normal 0.008785 0.004367 0.999952
outer loop
vertex 17.401361 67.139114 41.926140
vertex 17.129656 65.254639 41.936760
vertex 17.406073 65.255325 41.934326
endloop
endfacet
facet normal 0.008767 0.004371 0.999952
outer loop
vertex -6.460842 66.935349 42.136715
vertex -6.461082 67.030075 42.136303
vertex -6.783878 67.079544 42.138924
endloop
endfacet
facet normal 0.008784 0.004370 0.999952
outer loop
vertex -6.779167 65.195755 42.147114
vertex -6.456493 65.196548 42.144276
vertex -6.460842 66.935349 42.136715
endloop
endfacet
facet normal 0.008794 0.004368 0.999952
outer loop
vertex -6.461082 67.030075 42.136303
vertex -6.465668 68.863594 42.128334
vertex -6.783878 67.079544 42.138924
endloop
endfacet
facet normal 0.008785 0.004366 0.999952
outer loop
vertex -6.455513 64.804008 42.145981
vertex -6.456493 65.196548 42.144276
vertex -6.707726 64.804008 42.148197
endloop
endfacet
facet normal 0.008788 0.004368 0.999952
outer loop
vertex 12.319803 68.520996 41.964752
vertex 12.322536 67.428268 41.969501
vertex 17.391937 70.906693 41.909756
endloop
endfacet
endsolid Exported from Blender-2.74 (sub 0)
