solid Exported from Blender-2.74 (sub 0)
facet normal 0.003264 -0.604978 0.796235
outer loop
vertex -10.990650 71.760605 39.838203
vertex -11.097740 71.962746 39.992233
vertex -11.050179 71.447174 39.600300
endloop
endfacet
facet normal -0.844823 -0.427696 -0.321483
outer loop
vertex -8.238056 70.128769 42.729958
vertex -8.633194 70.624779 43.108459
vertex -8.644032 72.620491 40.481865
endloop
endfacet
facet normal -0.992271 0.096795 0.077643
outer loop
vertex -8.248901 72.124489 40.103367
vertex -8.278576 71.935417 39.959831
vertex -8.267731 69.939705 42.586426
endloop
endfacet
facet normal -0.832228 -0.443111 -0.333241
outer loop
vertex -8.278576 71.935417 39.959831
vertex -8.117184 71.742844 39.812843
vertex -8.106339 69.747131 42.439438
endloop
endfacet
facet normal -0.921508 -0.311048 -0.232533
outer loop
vertex -8.117184 71.742844 39.812843
vertex -8.010090 71.540710 39.658821
vertex -7.999249 69.544998 42.285412
endloop
endfacet
facet normal 0.003296 -0.604968 0.796243
outer loop
vertex -8.353706 70.654594 38.986958
vertex -8.401268 71.170166 39.378887
vertex -8.627167 71.065903 39.300602
endloop
endfacet
facet normal -0.982426 -0.150553 -0.110334
outer loop
vertex -8.010090 71.540710 39.658821
vertex -7.961414 71.336777 39.503666
vertex -7.950573 69.341064 42.130260
endloop
endfacet
facet normal -0.998906 0.035163 0.030842
outer loop
vertex -7.961414 71.336777 39.503666
vertex -7.973022 71.138878 39.353352
vertex -7.962181 69.143166 41.979942
endloop
endfacet
facet normal -0.955420 0.233174 0.181115
outer loop
vertex -7.973022 71.138878 39.353352
vertex -8.044472 70.954636 39.213654
vertex -8.033627 68.958916 41.840244
endloop
endfacet
facet normal 0.003277 -0.604995 0.796222
outer loop
vertex -8.173012 70.791107 39.089935
vertex -8.220573 71.306679 39.481869
vertex -8.401268 71.170166 39.378887
endloop
endfacet
facet normal -0.847281 0.421227 0.323548
outer loop
vertex -8.044472 70.954636 39.213654
vertex -8.173012 70.791107 39.089935
vertex -8.162167 68.795395 41.716530
endloop
endfacet
facet normal -0.687326 0.576974 0.441230
outer loop
vertex -8.173012 70.791107 39.089935
vertex -8.353706 70.654594 38.986958
vertex -8.342865 68.658875 41.613548
endloop
endfacet
facet normal -0.499865 0.688627 0.525289
outer loop
vertex -8.353706 70.654594 38.986958
vertex -8.579605 70.550331 38.908672
vertex -8.568768 68.554619 41.535263
endloop
endfacet
facet normal 0.003303 -0.604984 0.796231
outer loop
vertex -9.482693 70.979660 39.238605
vertex -9.790558 71.030106 39.278206
vertex -9.743000 70.514542 38.886276
endloop
endfacet
facet normal -0.307265 0.757105 0.576524
outer loop
vertex -8.579605 70.550331 38.908672
vertex -8.842037 70.482338 38.858089
vertex -8.831196 68.486626 41.484684
endloop
endfacet
facet normal -0.123181 0.789927 0.600701
outer loop
vertex -8.842037 70.482338 38.858089
vertex -9.130917 70.453217 38.837158
vertex -9.120075 68.457504 41.463749
endloop
endfacet
facet normal 0.047345 0.795438 0.604182
outer loop
vertex -9.120075 68.457504 41.463749
vertex -9.130917 70.453217 38.837158
vertex -9.435131 70.464088 38.846672
endloop
endfacet
facet normal 0.203935 0.779904 0.591743
outer loop
vertex -9.424290 68.468376 41.473267
vertex -9.435131 70.464088 38.846672
vertex -9.743000 70.514542 38.886276
endloop
endfacet
facet normal -0.003252 0.604997 -0.796221
outer loop
vertex -8.616325 69.070190 41.927197
vertex -8.390423 69.174446 42.005482
vertex -8.342865 68.658875 41.613548
endloop
endfacet
facet normal 0.348364 0.747050 0.566180
outer loop
vertex -9.732159 68.518829 41.512871
vertex -9.743000 70.514542 38.886276
vertex -10.042686 70.602631 38.954445
endloop
endfacet
facet normal 0.482746 0.698268 0.528562
outer loop
vertex -10.031849 68.606918 41.581039
vertex -10.042686 70.602631 38.954445
vertex -10.322678 70.724968 39.048553
endloop
endfacet
facet normal 0.608577 0.633014 0.478464
outer loop
vertex -10.311836 68.729256 41.675148
vertex -10.322678 70.724968 39.048553
vertex -10.572212 70.876862 39.164993
endloop
endfacet
facet normal 0.714801 -0.555405 -0.424953
outer loop
vertex -10.601521 72.800446 40.626682
vertex -10.590679 70.804733 43.253273
vertex -11.032375 70.444382 42.981293
endloop
endfacet
facet normal 0.725867 0.549122 0.414224
outer loop
vertex -10.561367 68.881149 41.791588
vertex -10.572212 70.876862 39.164993
vertex -10.781696 71.052467 39.299286
endloop
endfacet
facet normal 0.832219 0.443119 0.333253
outer loop
vertex -10.770855 69.056747 41.925880
vertex -10.781696 71.052467 39.299286
vertex -10.943092 71.245041 39.446274
endloop
endfacet
facet normal 0.921522 0.311023 0.232514
outer loop
vertex -10.932247 69.249329 42.072865
vertex -10.943092 71.245041 39.446274
vertex -11.050179 71.447174 39.600300
endloop
endfacet
facet normal 0.982424 0.150559 0.110342
outer loop
vertex -11.039337 69.451462 42.226894
vertex -11.050179 71.447174 39.600300
vertex -11.098858 71.651108 39.755451
endloop
endfacet
facet normal -0.003307 0.605005 -0.796214
outer loop
vertex -8.248901 72.124489 40.103367
vertex -8.644032 72.620491 40.481865
vertex -8.326134 72.450989 40.351765
endloop
endfacet
facet normal 0.998905 -0.035167 -0.030843
outer loop
vertex -11.088017 69.655396 42.382046
vertex -11.098858 71.651108 39.755451
vertex -11.087250 71.848999 39.905766
endloop
endfacet
facet normal 0.955413 -0.233193 -0.181126
outer loop
vertex -11.076405 69.853287 42.532360
vertex -11.087250 71.848999 39.905766
vertex -11.015797 72.033249 40.045464
endloop
endfacet
facet normal 0.847294 -0.421209 -0.323536
outer loop
vertex -11.004959 70.037537 42.672058
vertex -11.015797 72.033249 40.045464
vertex -10.887260 72.196777 40.169182
endloop
endfacet
facet normal 0.890937 0.363357 0.272403
outer loop
vertex -10.876419 70.201065 42.795776
vertex -10.887260 72.196777 40.169182
vertex -11.043217 72.440094 40.354702
endloop
endfacet
facet normal 0.003156 -0.604976 0.796238
outer loop
vertex -11.097740 71.962746 39.992233
vertex -11.146420 72.166679 40.147385
vertex -11.098858 71.651108 39.755451
endloop
endfacet
facet normal -0.068020 0.794254 0.603767
outer loop
vertex -8.633194 70.624779 43.108459
vertex -8.524776 70.630882 43.112648
vertex -8.535622 72.626595 40.486053
endloop
endfacet
facet normal -0.003286 0.605015 -0.796208
outer loop
vertex -9.471851 68.983948 41.865196
vertex -9.489742 69.177887 42.012634
vertex -9.185524 69.167015 42.003117
endloop
endfacet
facet normal 0.003326 -0.604975 0.796238
outer loop
vertex -8.315289 70.455276 42.978355
vertex -8.153896 70.262703 42.831375
vertex -8.171791 70.456650 42.978806
endloop
endfacet
facet normal -0.003364 0.604971 -0.796240
outer loop
vertex -11.063358 72.548828 40.437397
vertex -11.134808 72.364578 40.297699
vertex -11.152702 72.558517 40.445133
endloop
endfacet
facet normal 0.322614 -0.753019 -0.573482
outer loop
vertex -10.743286 70.853149 43.290691
vertex -10.754131 72.848862 40.664093
vertex -10.435371 72.936005 40.728989
endloop
endfacet
facet normal 0.003290 -0.604986 0.796229
outer loop
vertex -9.178474 70.968788 39.229088
vertex -8.889599 70.997910 39.250023
vertex -8.907490 71.191849 39.397453
endloop
endfacet
facet normal 0.003147 -0.605022 0.796202
outer loop
vertex -8.008976 71.852341 39.895599
vertex -8.026867 72.046288 40.043030
vertex -8.038475 71.848396 39.892719
endloop
endfacet
facet normal 0.003305 -0.605012 0.796210
outer loop
vertex -10.743286 70.853149 43.290691
vertex -10.424526 70.940292 43.355583
vertex -10.941868 70.910576 43.335144
endloop
endfacet
facet normal -0.003283 0.604949 -0.796257
outer loop
vertex -10.079407 69.122482 41.972969
vertex -10.097298 69.316429 42.120407
vertex -9.797611 69.228333 42.052235
endloop
endfacet
facet normal 0.003271 -0.604975 0.796238
outer loop
vertex -10.923977 70.716637 43.187714
vertex -10.941868 70.910576 43.335144
vertex -11.070408 70.747055 43.211426
endloop
endfacet
facet normal -0.003306 0.604968 -0.796243
outer loop
vertex -9.779716 69.034393 41.904804
vertex -9.797611 69.228333 42.052235
vertex -9.489742 69.177887 42.012634
endloop
endfacet
facet normal -0.003283 0.604965 -0.796245
outer loop
vertex -9.148808 70.647156 38.984589
vertex -9.196369 71.162727 39.376518
vertex -8.907490 71.191849 39.397453
endloop
endfacet
facet normal -0.003261 0.605003 -0.796217
outer loop
vertex -8.190903 70.985046 39.237366
vertex -8.371597 70.848534 39.134388
vertex -8.419155 71.364105 39.526321
endloop
endfacet
facet normal 0.955420 -0.233174 -0.181113
outer loop
vertex -8.051517 69.152863 41.987679
vertex -8.062363 71.148575 39.361084
vertex -7.990913 71.332825 39.500786
endloop
endfacet
facet normal -0.003323 0.604974 -0.796238
outer loop
vertex -10.894306 70.395004 42.943211
vertex -11.022846 70.231476 42.819496
vertex -11.070408 70.747055 43.211426
endloop
endfacet
facet normal 0.003292 -0.604988 0.796228
outer loop
vertex -10.905151 72.390717 40.316616
vertex -10.952713 72.906296 40.708549
vertex -11.081249 72.742767 40.584831
endloop
endfacet
facet normal 0.998906 -0.035157 -0.030835
outer loop
vertex -7.980068 69.337112 42.127377
vertex -7.990913 71.332825 39.500786
vertex -7.979309 71.530716 39.651100
endloop
endfacet
facet normal 0.003381 -0.604991 0.796225
outer loop
vertex -7.980068 69.337112 42.127377
vertex -8.027634 69.852676 42.519310
vertex -8.099079 69.668427 42.379608
endloop
endfacet
facet normal 0.003551 -0.604999 0.796218
outer loop
vertex -11.105907 69.849335 42.529480
vertex -11.057228 69.645401 42.374325
vertex -11.104790 70.160973 42.766258
endloop
endfacet
facet normal 0.982426 0.150550 0.110333
outer loop
vertex -7.968464 69.535004 42.277695
vertex -7.979309 71.530716 39.651100
vertex -8.027985 71.734650 39.806252
endloop
endfacet
facet normal -0.003252 0.604997 -0.796221
outer loop
vertex -8.371597 70.848534 39.134388
vertex -8.597496 70.744278 39.056103
vertex -8.645058 71.259842 39.448036
endloop
endfacet
facet normal -0.003330 0.604982 -0.796232
outer loop
vertex -7.990913 71.332825 39.500786
vertex -8.062363 71.148575 39.361084
vertex -8.109921 71.664146 39.753017
endloop
endfacet
facet normal 0.921525 0.311016 0.232510
outer loop
vertex -8.017139 69.738937 42.432842
vertex -8.027985 71.734650 39.806252
vertex -8.135071 71.936790 39.960281
endloop
endfacet
facet normal 0.003278 -0.604968 0.796243
outer loop
vertex -10.877064 72.575653 40.457012
vertex -10.435371 72.936005 40.728989
vertex -10.952713 72.906296 40.708549
endloop
endfacet
facet normal -0.003264 0.604983 -0.796231
outer loop
vertex -8.124229 69.941071 42.586876
vertex -8.171791 70.456650 42.978806
vertex -8.064697 70.254509 42.824776
endloop
endfacet
facet normal 0.832220 0.443117 0.333253
outer loop
vertex -8.124229 69.941071 42.586876
vertex -8.135071 71.936790 39.960281
vertex -8.296463 72.129364 40.107265
endloop
endfacet
facet normal -0.003353 0.604987 -0.796228
outer loop
vertex -11.094296 70.047234 42.679794
vertex -11.105907 69.849335 42.529480
vertex -11.153465 70.364914 42.921413
endloop
endfacet
facet normal 0.003206 -0.604979 0.796235
outer loop
vertex -11.105141 72.042946 40.053200
vertex -11.152702 72.558517 40.445133
vertex -11.164310 72.360626 40.294819
endloop
endfacet
facet normal 0.914487 0.323978 0.242387
outer loop
vertex -8.285622 70.133652 42.733856
vertex -8.296463 72.129364 40.107265
vertex -8.397537 72.311066 40.245743
endloop
endfacet
facet normal 0.844824 0.427696 0.321478
outer loop
vertex -8.386696 70.315353 42.872341
vertex -8.397537 72.311066 40.245743
vertex -8.792671 72.807076 40.624245
endloop
endfacet
facet normal 0.003281 -0.604989 0.796227
outer loop
vertex -10.950138 69.443268 42.220299
vertex -10.788746 69.250694 42.073315
vertex -10.836308 69.766266 42.465244
endloop
endfacet
facet normal -0.003354 0.604969 -0.796242
outer loop
vertex -8.017139 69.738937 42.432842
vertex -8.064697 70.254509 42.824776
vertex -8.016026 70.050575 42.669624
endloop
endfacet
facet normal -0.003197 0.604994 -0.796223
outer loop
vertex -11.068069 71.641113 39.747730
vertex -11.115631 72.156693 40.139664
vertex -11.008541 71.954552 39.985638
endloop
endfacet
facet normal -0.003281 0.604984 -0.796231
outer loop
vertex -8.062363 71.148575 39.361084
vertex -8.190903 70.985046 39.237366
vertex -8.238464 71.500626 39.629299
endloop
endfacet
facet normal 0.003354 -0.604992 0.796225
outer loop
vertex -8.027985 71.734650 39.806252
vertex -7.979309 71.530716 39.651100
vertex -8.026867 72.046288 40.043030
endloop
endfacet
facet normal 0.847284 -0.421221 -0.323546
outer loop
vertex -8.180058 68.989334 41.863960
vertex -8.190903 70.985046 39.237366
vertex -8.062363 71.148575 39.361084
endloop
endfacet
facet normal 0.003354 -0.604988 0.796228
outer loop
vertex -7.968464 69.535004 42.277695
vertex -8.016026 70.050575 42.669624
vertex -8.027634 69.852676 42.519310
endloop
endfacet
facet normal 0.003284 -0.604996 0.796222
outer loop
vertex -8.180058 68.989334 41.863960
vertex -8.227619 69.504906 42.255894
vertex -8.408318 69.368393 42.152916
endloop
endfacet
facet normal 0.687346 -0.576959 -0.441218
outer loop
vertex -8.360756 68.852821 41.760983
vertex -8.371597 70.848534 39.134388
vertex -8.190903 70.985046 39.237366
endloop
endfacet
facet normal -0.003197 0.604991 -0.796225
outer loop
vertex -11.022846 70.231476 42.819496
vertex -11.094296 70.047234 42.679794
vertex -11.141857 70.562805 43.071724
endloop
endfacet
facet normal 0.003286 -0.604989 0.796227
outer loop
vertex -8.586655 68.748566 41.682697
vertex -8.634216 69.264130 42.074631
vertex -8.896648 69.196136 42.024052
endloop
endfacet
facet normal 0.499859 -0.688632 -0.525288
outer loop
vertex -8.586655 68.748566 41.682697
vertex -8.597496 70.744278 39.056103
vertex -8.371597 70.848534 39.134388
endloop
endfacet
facet normal 0.003271 -0.604980 0.796234
outer loop
vertex -8.051517 69.152863 41.987679
vertex -8.099079 69.668427 42.379608
vertex -8.227619 69.504906 42.255894
endloop
endfacet
facet normal -0.003258 0.604994 -0.796224
outer loop
vertex -9.760895 70.708481 39.033710
vertex -9.808449 71.224052 39.425644
vertex -9.500580 71.173599 39.386040
endloop
endfacet
facet normal 0.307282 -0.757099 -0.576524
outer loop
vertex -8.849087 68.680565 41.632118
vertex -8.859932 70.676277 39.005524
vertex -8.597496 70.744278 39.056103
endloop
endfacet
facet normal -0.003311 0.604993 -0.796224
outer loop
vertex -8.597496 70.744278 39.056103
vertex -8.859932 70.676277 39.005524
vertex -8.907490 71.191849 39.397453
endloop
endfacet
facet normal -0.003311 0.604995 -0.796223
outer loop
vertex -10.340569 70.918907 39.195984
vertex -10.388130 71.434479 39.587921
vertex -10.108139 71.312141 39.493809
endloop
endfacet
facet normal 0.123164 -0.789931 -0.600700
outer loop
vertex -9.137966 68.651443 41.611183
vertex -9.148808 70.647156 38.984589
vertex -8.859932 70.676277 39.005524
endloop
endfacet
facet normal -0.003393 0.604993 -0.796223
outer loop
vertex -10.866222 70.579941 43.083607
vertex -10.894306 70.395004 42.943211
vertex -10.941868 70.910576 43.335144
endloop
endfacet
facet normal 0.003284 -0.604981 0.796233
outer loop
vertex -9.442181 68.662315 41.620701
vertex -9.137966 68.651443 41.611183
vertex -9.185524 69.167015 42.003117
endloop
endfacet
facet normal -0.047340 -0.795435 -0.604187
outer loop
vertex -9.137966 68.651443 41.611183
vertex -9.442181 68.662315 41.620701
vertex -9.453026 70.658035 38.994110
endloop
endfacet
facet normal -0.003297 0.604978 -0.796235
outer loop
vertex -9.453026 70.658035 38.994110
vertex -9.500580 71.173599 39.386040
vertex -9.196369 71.162727 39.376518
endloop
endfacet
facet normal 0.003253 -0.604992 0.796225
outer loop
vertex -10.049736 68.800858 41.728470
vertex -9.750050 68.712769 41.660301
vertex -9.797611 69.228333 42.052235
endloop
endfacet
facet normal -0.203937 -0.779908 -0.591737
outer loop
vertex -9.442181 68.662315 41.620701
vertex -9.750050 68.712769 41.660301
vertex -9.760895 70.708481 39.033710
endloop
endfacet
facet normal 0.003308 -0.604980 0.796234
outer loop
vertex -8.360756 68.852821 41.760983
vertex -8.408318 69.368393 42.152916
vertex -8.634216 69.264130 42.074631
endloop
endfacet
facet normal -0.003284 0.604984 -0.796231
outer loop
vertex -10.799587 71.246407 39.446716
vertex -10.847149 71.761978 39.838654
vertex -10.637665 71.586372 39.704361
endloop
endfacet
facet normal -0.348370 -0.747048 -0.566177
outer loop
vertex -9.750050 68.712769 41.660301
vertex -10.049736 68.800858 41.728470
vertex -10.060581 70.796570 39.101875
endloop
endfacet
facet normal -0.003296 0.604998 -0.796220
outer loop
vertex -10.060581 70.796570 39.101875
vertex -10.108139 71.312141 39.493809
vertex -9.808449 71.224052 39.425644
endloop
endfacet
facet normal -0.482772 -0.698261 -0.528547
outer loop
vertex -10.049736 68.800858 41.728470
vertex -10.329727 68.923195 41.822582
vertex -10.340569 70.918907 39.195984
endloop
endfacet
facet normal 0.003273 -0.604979 0.796235
outer loop
vertex -9.137966 68.651443 41.611183
vertex -8.849087 68.680565 41.632118
vertex -8.896648 69.196136 42.024052
endloop
endfacet
facet normal -0.608576 -0.633018 -0.478460
outer loop
vertex -10.329727 68.923195 41.822582
vertex -10.579262 69.075089 41.939022
vertex -10.590099 71.070801 39.312428
endloop
endfacet
facet normal -0.714795 0.555410 0.424956
outer loop
vertex -10.866222 70.579941 43.083607
vertex -10.424526 70.940292 43.355583
vertex -10.435371 72.936005 40.728989
endloop
endfacet
facet normal -0.725866 -0.549119 -0.414230
outer loop
vertex -10.579262 69.075089 41.939022
vertex -10.788746 69.250694 42.073315
vertex -10.799587 71.246407 39.446716
endloop
endfacet
facet normal -0.003289 0.604994 -0.796223
outer loop
vertex -10.590099 71.070801 39.312428
vertex -10.637665 71.586372 39.704361
vertex -10.388130 71.434479 39.587921
endloop
endfacet
facet normal -0.832224 -0.443114 -0.333247
outer loop
vertex -10.788746 69.250694 42.073315
vertex -10.950138 69.443268 42.220299
vertex -10.960979 71.438980 39.593704
endloop
endfacet
facet normal 0.003303 -0.604985 0.796230
outer loop
vertex -9.750050 68.712769 41.660301
vertex -9.442181 68.662315 41.620701
vertex -9.489742 69.177887 42.012634
endloop
endfacet
facet normal -0.921514 -0.311038 -0.232525
outer loop
vertex -10.950138 69.443268 42.220299
vertex -11.057228 69.645401 42.374325
vertex -11.068069 71.641113 39.747730
endloop
endfacet
facet normal 0.003311 -0.605004 0.796216
outer loop
vertex -10.329727 68.923195 41.822582
vertex -10.049736 68.800858 41.728470
vertex -10.097298 69.316429 42.120407
endloop
endfacet
facet normal -0.982424 -0.150557 -0.110339
outer loop
vertex -11.057228 69.645401 42.374325
vertex -11.105907 69.849335 42.529480
vertex -11.116749 71.845047 39.902885
endloop
endfacet
facet normal 0.003284 -0.604983 0.796232
outer loop
vertex -8.397537 72.311066 40.245743
vertex -8.296463 72.129364 40.107265
vertex -8.344025 72.644928 40.499195
endloop
endfacet
facet normal -0.998905 0.035177 0.030852
outer loop
vertex -11.105907 69.849335 42.529480
vertex -11.094296 70.047234 42.679794
vertex -11.105141 72.042946 40.053200
endloop
endfacet
facet normal -0.003302 0.604994 -0.796223
outer loop
vertex -10.960979 71.438980 39.593704
vertex -11.008541 71.954552 39.985638
vertex -10.847149 71.761978 39.838654
endloop
endfacet
facet normal -0.955417 0.233182 0.181119
outer loop
vertex -11.094296 70.047234 42.679794
vertex -11.022846 70.231476 42.819496
vertex -11.033691 72.227196 40.192902
endloop
endfacet
facet normal 0.003197 -0.605002 0.796217
outer loop
vertex -8.135071 71.936790 39.960281
vertex -8.027985 71.734650 39.806252
vertex -8.075539 72.250221 40.198185
endloop
endfacet
facet normal -0.847288 0.421217 0.323542
outer loop
vertex -11.022846 70.231476 42.819496
vertex -10.894306 70.395004 42.943211
vertex -10.905151 72.390717 40.316616
endloop
endfacet
facet normal 0.003292 -0.604981 0.796233
outer loop
vertex -10.788746 69.250694 42.073315
vertex -10.579262 69.075089 41.939022
vertex -10.626823 69.590660 42.330956
endloop
endfacet
facet normal -0.992760 0.093631 0.075243
outer loop
vertex -10.894306 70.395004 42.943211
vertex -10.866222 70.579941 43.083607
vertex -10.877064 72.575653 40.457012
endloop
endfacet
facet normal -0.003551 0.604952 -0.796254
outer loop
vertex -11.116749 71.845047 39.902885
vertex -11.164310 72.360626 40.294819
vertex -11.115631 72.156693 40.139664
endloop
endfacet
facet normal -0.003157 0.604973 -0.796240
outer loop
vertex -7.979309 71.530716 39.651100
vertex -7.990913 71.332825 39.500786
vertex -8.038475 71.848396 39.892719
endloop
endfacet
facet normal -0.003302 0.604986 -0.796229
outer loop
vertex -8.285622 70.133652 42.733856
vertex -8.333179 70.649216 43.125790
vertex -8.171791 70.456650 42.978806
endloop
endfacet
facet normal 0.003197 -0.604989 0.796227
outer loop
vertex -11.057228 69.645401 42.374325
vertex -10.950138 69.443268 42.220299
vertex -10.997696 69.958832 42.612232
endloop
endfacet
facet normal -0.003297 0.604985 -0.796230
outer loop
vertex -8.386696 70.315353 42.872341
vertex -8.781830 70.811356 43.250839
vertex -8.333179 70.649216 43.125790
endloop
endfacet
facet normal 0.003264 -0.604978 0.796236
outer loop
vertex -11.033691 72.227196 40.192902
vertex -11.081249 72.742767 40.584831
vertex -11.152702 72.558517 40.445133
endloop
endfacet
facet normal 0.003240 -0.604989 0.796227
outer loop
vertex -8.296463 72.129364 40.107265
vertex -8.135071 71.936790 39.960281
vertex -8.182632 72.452362 40.352211
endloop
endfacet
facet normal 0.003302 -0.604986 0.796229
outer loop
vertex -10.579262 69.075089 41.939022
vertex -10.329727 68.923195 41.822582
vertex -10.377289 69.438766 42.214516
endloop
endfacet
facet normal -0.348356 -0.747053 -0.566180
outer loop
vertex -9.760895 70.708481 39.033710
vertex -9.750050 68.712769 41.660301
vertex -10.060581 70.796570 39.101875
endloop
endfacet
facet normal -0.203907 -0.779908 -0.591747
outer loop
vertex -9.453026 70.658035 38.994110
vertex -9.442181 68.662315 41.620701
vertex -9.760895 70.708481 39.033710
endloop
endfacet
facet normal -0.047340 -0.795434 -0.604188
outer loop
vertex -9.148808 70.647156 38.984589
vertex -9.137966 68.651443 41.611183
vertex -9.453026 70.658035 38.994110
endloop
endfacet
facet normal 0.123164 -0.789926 -0.600706
outer loop
vertex -8.849087 68.680565 41.632118
vertex -9.137966 68.651443 41.611183
vertex -8.859932 70.676277 39.005524
endloop
endfacet
facet normal 0.307281 -0.757104 -0.576517
outer loop
vertex -8.586655 68.748566 41.682697
vertex -8.849087 68.680565 41.632118
vertex -8.597496 70.744278 39.056103
endloop
endfacet
facet normal 0.322600 -0.753024 -0.573484
outer loop
vertex -10.424526 70.940292 43.355583
vertex -10.743286 70.853149 43.290691
vertex -10.435371 72.936005 40.728989
endloop
endfacet
facet normal -0.003058 0.604969 -0.796243
outer loop
vertex -8.010090 71.540710 39.658821
vertex -8.057648 72.056282 40.050751
vertex -8.008976 71.852341 39.895599
endloop
endfacet
facet normal 0.003322 -0.604989 0.796227
outer loop
vertex -8.044472 70.954636 39.213654
vertex -8.092030 71.470200 39.605583
vertex -8.220573 71.306679 39.481869
endloop
endfacet
facet normal 0.003156 -0.604980 0.796234
outer loop
vertex -7.998131 69.856628 42.522194
vertex -8.046806 70.060562 42.677345
vertex -7.999249 69.544998 42.285412
endloop
endfacet
facet normal -0.003322 0.604978 -0.796236
outer loop
vertex -10.932247 69.249329 42.072865
vertex -10.979809 69.764893 42.464798
vertex -10.818413 69.572327 42.317810
endloop
endfacet
facet normal -0.003353 0.605019 -0.796204
outer loop
vertex -11.146420 72.166679 40.147385
vertex -11.134808 72.364578 40.297699
vertex -11.087250 71.848999 39.905766
endloop
endfacet
facet normal 0.003255 -0.604990 0.796226
outer loop
vertex -11.076405 69.853287 42.532360
vertex -11.123966 70.368858 42.924294
vertex -11.135574 70.170967 42.773979
endloop
endfacet
facet normal 0.003264 -0.604978 0.796235
outer loop
vertex -8.046806 70.060562 42.677345
vertex -8.153896 70.262703 42.831375
vertex -8.106339 69.747131 42.439438
endloop
endfacet
facet normal -0.003261 0.604989 -0.796227
outer loop
vertex -10.887260 72.196777 40.169182
vertex -10.934822 72.712349 40.561115
vertex -10.601521 72.800446 40.626682
endloop
endfacet
facet normal 0.003297 -0.604970 0.796241
outer loop
vertex -7.973022 71.138878 39.353352
vertex -8.020584 71.654449 39.745285
vertex -8.092030 71.470200 39.605583
endloop
endfacet
facet normal -0.003255 0.604992 -0.796225
outer loop
vertex -11.088017 69.655396 42.382046
vertex -11.135574 70.170967 42.773979
vertex -11.086903 69.967033 42.618828
endloop
endfacet
facet normal -0.003330 0.604967 -0.796243
outer loop
vertex -8.081188 69.474487 42.232178
vertex -8.009743 69.658737 42.371880
vertex -7.962181 69.143166 41.979942
endloop
endfacet
facet normal -0.003282 0.604998 -0.796220
outer loop
vertex -11.063358 72.548828 40.437397
vertex -10.934822 72.712349 40.561115
vertex -10.887260 72.196777 40.169182
endloop
endfacet
facet normal 0.003292 -0.604993 0.796224
outer loop
vertex -10.876419 70.201065 42.795776
vertex -10.923977 70.716637 43.187714
vertex -11.052521 70.553108 43.063995
endloop
endfacet
facet normal 0.003294 -0.604970 0.796241
outer loop
vertex -8.889599 70.997910 39.250023
vertex -9.178474 70.968788 39.229088
vertex -9.130917 70.453217 38.837158
endloop
endfacet
facet normal -0.003353 0.605015 -0.796207
outer loop
vertex -8.009743 69.658737 42.371880
vertex -7.998131 69.856628 42.522194
vertex -7.950573 69.341064 42.130260
endloop
endfacet
facet normal -0.003322 0.604989 -0.796227
outer loop
vertex -8.390423 69.174446 42.005482
vertex -8.209728 69.310966 42.108459
vertex -8.162167 68.795395 41.716530
endloop
endfacet
facet normal 0.003247 -0.604997 0.796221
outer loop
vertex -11.004959 70.037537 42.672058
vertex -11.052521 70.553108 43.063995
vertex -11.123966 70.368858 42.924294
endloop
endfacet
facet normal -0.003267 0.604988 -0.796228
outer loop
vertex -8.878754 69.002197 41.876614
vertex -8.616325 69.070190 41.927197
vertex -8.568768 68.554619 41.535263
endloop
endfacet
facet normal -0.003240 0.604981 -0.796233
outer loop
vertex -8.209728 69.310966 42.108459
vertex -8.081188 69.474487 42.232178
vertex -8.033627 68.958916 41.840244
endloop
endfacet
facet normal 0.003275 -0.604986 0.796229
outer loop
vertex -8.579605 70.550331 38.908672
vertex -8.627167 71.065903 39.300602
vertex -8.889599 70.997910 39.250023
endloop
endfacet
facet normal 0.003289 -0.604991 0.796226
outer loop
vertex -10.090248 71.118195 39.346375
vertex -10.370239 71.240540 39.440487
vertex -10.322678 70.724968 39.048553
endloop
endfacet
facet normal 0.003297 -0.605037 0.796191
outer loop
vertex -11.032375 70.444382 42.981293
vertex -10.590679 70.804733 43.253273
vertex -10.923977 70.716637 43.187714
endloop
endfacet
facet normal -0.003293 0.604979 -0.796234
outer loop
vertex -9.424290 68.468376 41.473267
vertex -9.471851 68.983948 41.865196
vertex -9.167633 68.973076 41.855682
endloop
endfacet
facet normal 0.003303 -0.604980 0.796234
outer loop
vertex -9.178474 70.968788 39.229088
vertex -9.482693 70.979660 39.238605
vertex -9.435131 70.464088 38.846672
endloop
endfacet
facet normal -0.003281 0.604982 -0.796232
outer loop
vertex -10.031849 68.606918 41.581039
vertex -10.079407 69.122482 41.972969
vertex -9.779716 69.034393 41.904804
endloop
endfacet
facet normal 0.003261 -0.604983 0.796232
outer loop
vertex -10.619774 71.392433 39.556927
vertex -10.829258 71.568039 39.691216
vertex -10.781696 71.052467 39.299286
endloop
endfacet
facet normal 0.003273 -0.604984 0.796231
outer loop
vertex -9.790558 71.030106 39.278206
vertex -10.090248 71.118195 39.346375
vertex -10.042686 70.602631 38.954445
endloop
endfacet
facet normal -0.003281 0.604977 -0.796236
outer loop
vertex -9.120075 68.457504 41.463749
vertex -9.167633 68.973076 41.855682
vertex -8.878754 69.002197 41.876614
endloop
endfacet
facet normal 0.003277 -0.604990 0.796226
outer loop
vertex -10.370239 71.240540 39.440487
vertex -10.619774 71.392433 39.556927
vertex -10.572212 70.876862 39.164993
endloop
endfacet
facet normal -0.003313 0.604996 -0.796222
outer loop
vertex -9.732159 68.518829 41.512871
vertex -9.779716 69.034393 41.904804
vertex -9.471851 68.983948 41.865196
endloop
endfacet
facet normal -0.003300 0.604994 -0.796224
outer loop
vertex -10.311836 68.729256 41.675148
vertex -10.359398 69.244827 42.067085
vertex -10.079407 69.122482 41.972969
endloop
endfacet
facet normal 0.003363 -0.604977 0.796236
outer loop
vertex -10.829258 71.568039 39.691216
vertex -10.990650 71.760605 39.838203
vertex -10.943092 71.245041 39.446274
endloop
endfacet
facet normal -0.003330 0.604983 -0.796231
outer loop
vertex -8.117184 71.742844 39.812843
vertex -8.164742 72.258415 40.204781
vertex -8.057648 72.056282 40.050751
endloop
endfacet
facet normal -0.003261 0.604970 -0.796241
outer loop
vertex -10.770855 69.056747 41.925880
vertex -10.818413 69.572327 42.317810
vertex -10.608932 69.396713 42.183521
endloop
endfacet
facet normal 0.003354 -0.605001 0.796218
outer loop
vertex -7.961414 71.336777 39.503666
vertex -8.008976 71.852341 39.895599
vertex -8.020584 71.654449 39.745285
endloop
endfacet
facet normal 0.003240 -0.604980 0.796234
outer loop
vertex -8.153896 70.262703 42.831375
vertex -8.315289 70.455276 42.978355
vertex -8.267731 69.939705 42.586426
endloop
endfacet
facet normal -0.003197 0.604984 -0.796232
outer loop
vertex -11.039337 69.451462 42.226894
vertex -11.086903 69.967033 42.618828
vertex -10.979809 69.764893 42.464798
endloop
endfacet
facet normal 0.003304 -0.604989 0.796227
outer loop
vertex -8.267731 69.939705 42.586426
vertex -8.315289 70.455276 42.978355
vertex -8.633194 70.624779 43.108459
endloop
endfacet
facet normal -0.003197 0.604988 -0.796229
outer loop
vertex -11.134808 72.364578 40.297699
vertex -11.063358 72.548828 40.437397
vertex -11.015797 72.033249 40.045464
endloop
endfacet
facet normal -0.003292 0.604974 -0.796238
outer loop
vertex -8.278576 71.935417 39.959831
vertex -8.326134 72.450989 40.351765
vertex -8.164742 72.258415 40.204781
endloop
endfacet
facet normal -0.003283 0.604992 -0.796225
outer loop
vertex -10.561367 68.881149 41.791588
vertex -10.608932 69.396713 42.183521
vertex -10.359398 69.244827 42.067085
endloop
endfacet
facet normal 0.003289 -0.604984 0.796231
outer loop
vertex -8.633194 70.624779 43.108459
vertex -8.315289 70.455276 42.978355
vertex -8.524776 70.630882 43.112648
endloop
endfacet
facet normal -0.003260 0.604951 -0.796256
outer loop
vertex -10.601521 72.800446 40.626682
vertex -10.934822 72.712349 40.561115
vertex -10.754131 72.848862 40.664093
endloop
endfacet
facet normal -0.003352 0.604950 -0.796257
outer loop
vertex -8.326134 72.450989 40.351765
vertex -8.644032 72.620491 40.481865
vertex -8.535622 72.626595 40.486053
endloop
endfacet
facet normal 0.003298 -0.604914 0.796284
outer loop
vertex -10.923977 70.716637 43.187714
vertex -10.590679 70.804733 43.253273
vertex -10.743286 70.853149 43.290691
endloop
endfacet
facet normal 0.372098 0.739799 0.560572
outer loop
vertex -10.590679 70.804733 43.253273
vertex -10.601521 72.800446 40.626682
vertex -10.754131 72.848862 40.664093
endloop
endfacet
facet normal -0.003146 0.604977 -0.796237
outer loop
vertex -7.998131 69.856628 42.522194
vertex -8.009743 69.658737 42.371880
vertex -8.027634 69.852676 42.519310
endloop
endfacet
facet normal -0.003292 0.605026 -0.796199
outer loop
vertex -10.608932 69.396713 42.183521
vertex -10.626823 69.590660 42.330956
vertex -10.377289 69.438766 42.214516
endloop
endfacet
facet normal -0.003276 0.604993 -0.796224
outer loop
vertex -8.164742 72.258415 40.204781
vertex -8.182632 72.452362 40.352211
vertex -8.075539 72.250221 40.198185
endloop
endfacet
facet normal 0.003232 -0.604958 0.796251
outer loop
vertex -11.052521 70.553108 43.063995
vertex -11.070408 70.747055 43.211426
vertex -11.141857 70.562805 43.071724
endloop
endfacet
facet normal -0.003299 0.604978 -0.796235
outer loop
vertex -10.934822 72.712349 40.561115
vertex -11.063358 72.548828 40.437397
vertex -11.081249 72.742767 40.584831
endloop
endfacet
facet normal 0.003409 -0.604931 0.796271
outer loop
vertex -8.046806 70.060562 42.677345
vertex -7.998131 69.856628 42.522194
vertex -8.016026 70.050575 42.669624
endloop
endfacet
facet normal 0.003276 -0.604989 0.796227
outer loop
vertex -8.153896 70.262703 42.831375
vertex -8.046806 70.060562 42.677345
vertex -8.064697 70.254509 42.824776
endloop
endfacet
facet normal 0.003267 -0.604986 0.796229
outer loop
vertex -9.790558 71.030106 39.278206
vertex -9.482693 70.979660 39.238605
vertex -9.500580 71.173599 39.386040
endloop
endfacet
facet normal 0.003281 -0.604980 0.796234
outer loop
vertex -8.524776 70.630882 43.112648
vertex -8.315289 70.455276 42.978355
vertex -8.333179 70.649216 43.125790
endloop
endfacet
facet normal 0.003276 -0.604980 0.796234
outer loop
vertex -10.090248 71.118195 39.346375
vertex -9.790558 71.030106 39.278206
vertex -9.808449 71.224052 39.425644
endloop
endfacet
facet normal 0.003146 -0.604946 0.796260
outer loop
vertex -11.123966 70.368858 42.924294
vertex -11.141857 70.562805 43.071724
vertex -11.153465 70.364914 42.921413
endloop
endfacet
facet normal -0.003292 0.605002 -0.796217
outer loop
vertex -8.390423 69.174446 42.005482
vertex -8.616325 69.070190 41.927197
vertex -8.634216 69.264130 42.074631
endloop
endfacet
facet normal -0.003271 0.605014 -0.796208
outer loop
vertex -8.326134 72.450989 40.351765
vertex -8.344025 72.644928 40.499195
vertex -8.182632 72.452362 40.352211
endloop
endfacet
facet normal -0.003270 0.604994 -0.796223
outer loop
vertex -9.167633 68.973076 41.855682
vertex -9.185524 69.167015 42.003117
vertex -8.896648 69.196136 42.024052
endloop
endfacet
facet normal 0.003306 -0.604972 0.796240
outer loop
vertex -9.482693 70.979660 39.238605
vertex -9.178474 70.968788 39.229088
vertex -9.196369 71.162727 39.376518
endloop
endfacet
facet normal -0.003271 0.604992 -0.796225
outer loop
vertex -10.979809 69.764893 42.464798
vertex -10.997696 69.958832 42.612232
vertex -10.836308 69.766266 42.465244
endloop
endfacet
facet normal -0.662419 -0.597801 -0.451481
outer loop
vertex -8.524776 70.630882 43.112648
vertex -8.781830 70.811356 43.250839
vertex -8.792671 72.807076 40.624245
endloop
endfacet
facet normal 0.003293 -0.604988 0.796228
outer loop
vertex -10.370239 71.240540 39.440487
vertex -10.090248 71.118195 39.346375
vertex -10.108139 71.312141 39.493809
endloop
endfacet
facet normal -0.003285 0.604926 -0.796275
outer loop
vertex -8.535622 72.626595 40.486053
vertex -8.792671 72.807076 40.624245
vertex -8.344025 72.644928 40.499195
endloop
endfacet
facet normal 0.003299 -0.605018 0.796205
outer loop
vertex -10.990650 71.760605 39.838203
vertex -10.829258 71.568039 39.691216
vertex -10.847149 71.761978 39.838654
endloop
endfacet
facet normal -0.003241 0.604989 -0.796227
outer loop
vertex -10.818413 69.572327 42.317810
vertex -10.836308 69.766266 42.465244
vertex -10.626823 69.590660 42.330956
endloop
endfacet
facet normal -0.003146 0.604957 -0.796252
outer loop
vertex -11.134808 72.364578 40.297699
vertex -11.146420 72.166679 40.147385
vertex -11.164310 72.360626 40.294819
endloop
endfacet
facet normal -0.003409 0.604977 -0.796235
outer loop
vertex -11.135574 70.170967 42.773979
vertex -11.153465 70.364914 42.921413
vertex -11.104790 70.160973 42.766258
endloop
endfacet
facet normal -0.003293 0.605010 -0.796211
outer loop
vertex -8.616325 69.070190 41.927197
vertex -8.878754 69.002197 41.876614
vertex -8.896648 69.196136 42.024052
endloop
endfacet
facet normal 0.003258 -0.604997 0.796221
outer loop
vertex -10.619774 71.392433 39.556927
vertex -10.370239 71.240540 39.440487
vertex -10.388130 71.434479 39.587921
endloop
endfacet
facet normal -0.003276 0.604985 -0.796230
outer loop
vertex -11.086903 69.967033 42.618828
vertex -11.104790 70.160973 42.766258
vertex -10.997696 69.958832 42.612232
endloop
endfacet
facet normal -0.003271 0.604985 -0.796230
outer loop
vertex -8.081188 69.474487 42.232178
vertex -8.209728 69.310966 42.108459
vertex -8.227619 69.504906 42.255894
endloop
endfacet
facet normal 0.003408 -0.604972 0.796240
outer loop
vertex -11.146420 72.166679 40.147385
vertex -11.097740 71.962746 39.992233
vertex -11.115631 72.156693 40.139664
endloop
endfacet
facet normal -0.003188 0.605000 -0.796219
outer loop
vertex -8.009743 69.658737 42.371880
vertex -8.081188 69.474487 42.232178
vertex -8.099079 69.668427 42.379608
endloop
endfacet
facet normal 0.003264 -0.604993 0.796224
outer loop
vertex -8.627167 71.065903 39.300602
vertex -8.645058 71.259842 39.448036
vertex -8.907490 71.191849 39.397453
endloop
endfacet
facet normal 0.003364 -0.604980 0.796233
outer loop
vertex -11.097740 71.962746 39.992233
vertex -10.990650 71.760605 39.838203
vertex -11.008541 71.954552 39.985638
endloop
endfacet
facet normal 0.003271 -0.604997 0.796221
outer loop
vertex -8.092030 71.470200 39.605583
vertex -8.109921 71.664146 39.753017
vertex -8.238464 71.500626 39.629299
endloop
endfacet
facet normal -0.003363 0.604989 -0.796227
outer loop
vertex -8.209728 69.310966 42.108459
vertex -8.390423 69.174446 42.005482
vertex -8.408318 69.368393 42.152916
endloop
endfacet
facet normal 0.003276 -0.605014 0.796208
outer loop
vertex -8.020584 71.654449 39.745285
vertex -8.038475 71.848396 39.892719
vertex -8.109921 71.664146 39.753017
endloop
endfacet
facet normal 0.003292 -0.604984 0.796231
outer loop
vertex -8.401268 71.170166 39.378887
vertex -8.419155 71.364105 39.526321
vertex -8.645058 71.259842 39.448036
endloop
endfacet
facet normal -0.003302 0.604996 -0.796222
outer loop
vertex -10.754131 72.848862 40.664093
vertex -10.934822 72.712349 40.561115
vertex -10.952713 72.906296 40.708549
endloop
endfacet
facet normal -0.003279 0.604981 -0.796233
outer loop
vertex -10.359398 69.244827 42.067085
vertex -10.377289 69.438766 42.214516
vertex -10.097298 69.316429 42.120407
endloop
endfacet
facet normal 0.003322 -0.604947 0.796259
outer loop
vertex -8.220573 71.306679 39.481869
vertex -8.238464 71.500626 39.629299
vertex -8.419155 71.364105 39.526321
endloop
endfacet
facet normal 0.003241 -0.604991 0.796226
outer loop
vertex -10.829258 71.568039 39.691216
vertex -10.619774 71.392433 39.556927
vertex -10.637665 71.586372 39.704361
endloop
endfacet
facet normal -0.003409 0.604999 -0.796219
outer loop
vertex -8.057648 72.056282 40.050751
vertex -8.075539 72.250221 40.198185
vertex -8.026867 72.046288 40.043030
endloop
endfacet
facet normal 0.003297 -0.604984 0.796231
outer loop
vertex -10.943092 71.245041 39.446274
vertex -10.990650 71.760605 39.838203
vertex -11.050179 71.447174 39.600300
endloop
endfacet
facet normal -0.844825 -0.427694 -0.321479
outer loop
vertex -8.248901 72.124489 40.103367
vertex -8.238056 70.128769 42.729958
vertex -8.644032 72.620491 40.481865
endloop
endfacet
facet normal -0.992271 0.096798 0.077642
outer loop
vertex -8.238056 70.128769 42.729958
vertex -8.248901 72.124489 40.103367
vertex -8.267731 69.939705 42.586426
endloop
endfacet
facet normal -0.832228 -0.443107 -0.333245
outer loop
vertex -8.267731 69.939705 42.586426
vertex -8.278576 71.935417 39.959831
vertex -8.106339 69.747131 42.439438
endloop
endfacet
facet normal -0.921516 -0.311033 -0.232522
outer loop
vertex -8.106339 69.747131 42.439438
vertex -8.117184 71.742844 39.812843
vertex -7.999249 69.544998 42.285412
endloop
endfacet
facet normal 0.003302 -0.604994 0.796223
outer loop
vertex -8.579605 70.550331 38.908672
vertex -8.353706 70.654594 38.986958
vertex -8.627167 71.065903 39.300602
endloop
endfacet
facet normal -0.982427 -0.150544 -0.110331
outer loop
vertex -7.999249 69.544998 42.285412
vertex -8.010090 71.540710 39.658821
vertex -7.950573 69.341064 42.130260
endloop
endfacet
facet normal -0.998905 0.035169 0.030843
outer loop
vertex -7.950573 69.341064 42.130260
vertex -7.961414 71.336777 39.503666
vertex -7.962181 69.143166 41.979942
endloop
endfacet
facet normal -0.955424 0.233165 0.181102
outer loop
vertex -7.962181 69.143166 41.979942
vertex -7.973022 71.138878 39.353352
vertex -8.033627 68.958916 41.840244
endloop
endfacet
facet normal 0.003261 -0.604991 0.796226
outer loop
vertex -8.353706 70.654594 38.986958
vertex -8.173012 70.791107 39.089935
vertex -8.401268 71.170166 39.378887
endloop
endfacet
facet normal -0.847272 0.421237 0.323559
outer loop
vertex -8.033627 68.958916 41.840244
vertex -8.044472 70.954636 39.213654
vertex -8.162167 68.795395 41.716530
endloop
endfacet
facet normal -0.687350 0.576956 0.441216
outer loop
vertex -8.162167 68.795395 41.716530
vertex -8.173012 70.791107 39.089935
vertex -8.342865 68.658875 41.613548
endloop
endfacet
facet normal -0.499858 0.688630 0.525291
outer loop
vertex -8.342865 68.658875 41.613548
vertex -8.353706 70.654594 38.986958
vertex -8.568768 68.554619 41.535263
endloop
endfacet
facet normal 0.003264 -0.604992 0.796225
outer loop
vertex -9.435131 70.464088 38.846672
vertex -9.482693 70.979660 39.238605
vertex -9.743000 70.514542 38.886276
endloop
endfacet
facet normal -0.307285 0.757100 0.576520
outer loop
vertex -8.568768 68.554619 41.535263
vertex -8.579605 70.550331 38.908672
vertex -8.831196 68.486626 41.484684
endloop
endfacet
facet normal -0.123164 0.789925 0.600707
outer loop
vertex -8.831196 68.486626 41.484684
vertex -8.842037 70.482338 38.858089
vertex -9.120075 68.457504 41.463749
endloop
endfacet
facet normal 0.047325 0.795436 0.604187
outer loop
vertex -9.424290 68.468376 41.473267
vertex -9.120075 68.457504 41.463749
vertex -9.435131 70.464088 38.846672
endloop
endfacet
facet normal 0.203936 0.779910 0.591735
outer loop
vertex -9.732159 68.518829 41.512871
vertex -9.424290 68.468376 41.473267
vertex -9.743000 70.514542 38.886276
endloop
endfacet
facet normal -0.003302 0.604990 -0.796226
outer loop
vertex -8.568768 68.554619 41.535263
vertex -8.616325 69.070190 41.927197
vertex -8.342865 68.658875 41.613548
endloop
endfacet
facet normal 0.348378 0.747046 0.566176
outer loop
vertex -10.031849 68.606918 41.581039
vertex -9.732159 68.518829 41.512871
vertex -10.042686 70.602631 38.954445
endloop
endfacet
facet normal 0.482755 0.698268 0.528554
outer loop
vertex -10.311836 68.729256 41.675148
vertex -10.031849 68.606918 41.581039
vertex -10.322678 70.724968 39.048553
endloop
endfacet
facet normal 0.608592 0.633008 0.478452
outer loop
vertex -10.561367 68.881149 41.791588
vertex -10.311836 68.729256 41.675148
vertex -10.572212 70.876862 39.164993
endloop
endfacet
facet normal 0.714791 -0.555413 -0.424959
outer loop
vertex -11.043217 72.440094 40.354702
vertex -10.601521 72.800446 40.626682
vertex -11.032375 70.444382 42.981293
endloop
endfacet
facet normal 0.725847 0.549132 0.414246
outer loop
vertex -10.770855 69.056747 41.925880
vertex -10.561367 68.881149 41.791588
vertex -10.781696 71.052467 39.299286
endloop
endfacet
facet normal 0.832227 0.443111 0.333243
outer loop
vertex -10.932247 69.249329 42.072865
vertex -10.770855 69.056747 41.925880
vertex -10.943092 71.245041 39.446274
endloop
endfacet
facet normal 0.921518 0.311028 0.232520
outer loop
vertex -11.039337 69.451462 42.226894
vertex -10.932247 69.249329 42.072865
vertex -11.050179 71.447174 39.600300
endloop
endfacet
facet normal 0.982424 0.150559 0.110341
outer loop
vertex -11.088017 69.655396 42.382046
vertex -11.039337 69.451462 42.226894
vertex -11.098858 71.651108 39.755451
endloop
endfacet
facet normal 0.003376 -0.604997 0.796221
outer loop
vertex -8.278576 71.935417 39.959831
vertex -8.248901 72.124489 40.103367
vertex -8.326134 72.450989 40.351765
endloop
endfacet
facet normal 0.998905 -0.035178 -0.030853
outer loop
vertex -11.076405 69.853287 42.532360
vertex -11.088017 69.655396 42.382046
vertex -11.087250 71.848999 39.905766
endloop
endfacet
facet normal 0.955423 -0.233169 -0.181105
outer loop
vertex -11.004959 70.037537 42.672058
vertex -11.076405 69.853287 42.532360
vertex -11.015797 72.033249 40.045464
endloop
endfacet
facet normal 0.847287 -0.421221 -0.323540
outer loop
vertex -10.876419 70.201065 42.795776
vertex -11.004959 70.037537 42.672058
vertex -10.887260 72.196777 40.169182
endloop
endfacet
facet normal 0.890937 0.363356 0.272404
outer loop
vertex -11.032375 70.444382 42.981293
vertex -10.876419 70.201065 42.795776
vertex -11.043217 72.440094 40.354702
endloop
endfacet
facet normal 0.003255 -0.605005 0.796215
outer loop
vertex -11.050179 71.447174 39.600300
vertex -11.097740 71.962746 39.992233
vertex -11.098858 71.651108 39.755451
endloop
endfacet
facet normal -0.068066 0.794256 0.603759
outer loop
vertex -8.644032 72.620491 40.481865
vertex -8.633194 70.624779 43.108459
vertex -8.535622 72.626595 40.486053
endloop
endfacet
facet normal -0.003306 0.604979 -0.796235
outer loop
vertex -9.167633 68.973076 41.855682
vertex -9.471851 68.983948 41.865196
vertex -9.185524 69.167015 42.003117
endloop
endfacet
facet normal 0.003263 -0.604985 0.796230
outer loop
vertex -8.333179 70.649216 43.125790
vertex -8.315289 70.455276 42.978355
vertex -8.171791 70.456650 42.978806
endloop
endfacet
facet normal -0.003342 0.605019 -0.796204
outer loop
vertex -11.081249 72.742767 40.584831
vertex -11.063358 72.548828 40.437397
vertex -11.152702 72.558517 40.445133
endloop
endfacet
facet normal 0.003277 -0.604989 0.796227
outer loop
vertex -9.196369 71.162727 39.376518
vertex -9.178474 70.968788 39.229088
vertex -8.907490 71.191849 39.397453
endloop
endfacet
facet normal 0.003077 -0.604951 0.796257
outer loop
vertex -8.020584 71.654449 39.745285
vertex -8.008976 71.852341 39.895599
vertex -8.038475 71.848396 39.892719
endloop
endfacet
facet normal 0.003272 -0.604988 0.796228
outer loop
vertex -10.923977 70.716637 43.187714
vertex -10.743286 70.853149 43.290691
vertex -10.941868 70.910576 43.335144
endloop
endfacet
facet normal -0.003277 0.604985 -0.796230
outer loop
vertex -9.779716 69.034393 41.904804
vertex -10.079407 69.122482 41.972969
vertex -9.797611 69.228333 42.052235
endloop
endfacet
facet normal 0.003271 -0.604981 0.796233
outer loop
vertex -11.052521 70.553108 43.063995
vertex -10.923977 70.716637 43.187714
vertex -11.070408 70.747055 43.211426
endloop
endfacet
facet normal -0.003293 0.605012 -0.796210
outer loop
vertex -9.471851 68.983948 41.865196
vertex -9.779716 69.034393 41.904804
vertex -9.489742 69.177887 42.012634
endloop
endfacet
facet normal -0.003294 0.604977 -0.796236
outer loop
vertex -8.859932 70.676277 39.005524
vertex -9.148808 70.647156 38.984589
vertex -8.907490 71.191849 39.397453
endloop
endfacet
facet normal -0.003307 0.604971 -0.796240
outer loop
vertex -8.238464 71.500626 39.629299
vertex -8.190903 70.985046 39.237366
vertex -8.419155 71.364105 39.526321
endloop
endfacet
facet normal 0.955417 -0.233182 -0.181119
outer loop
vertex -7.980068 69.337112 42.127377
vertex -8.051517 69.152863 41.987679
vertex -7.990913 71.332825 39.500786
endloop
endfacet
facet normal -0.003261 0.604986 -0.796229
outer loop
vertex -10.941868 70.910576 43.335144
vertex -10.894306 70.395004 42.943211
vertex -11.070408 70.747055 43.211426
endloop
endfacet
facet normal 0.003302 -0.604986 0.796229
outer loop
vertex -11.033691 72.227196 40.192902
vertex -10.905151 72.390717 40.316616
vertex -11.081249 72.742767 40.584831
endloop
endfacet
facet normal 0.998906 -0.035155 -0.030834
outer loop
vertex -7.968464 69.535004 42.277695
vertex -7.980068 69.337112 42.127377
vertex -7.979309 71.530716 39.651100
endloop
endfacet
facet normal 0.003330 -0.604983 0.796231
outer loop
vertex -8.051517 69.152863 41.987679
vertex -7.980068 69.337112 42.127377
vertex -8.099079 69.668427 42.379608
endloop
endfacet
facet normal 0.003354 -0.604982 0.796232
outer loop
vertex -11.153465 70.364914 42.921413
vertex -11.105907 69.849335 42.529480
vertex -11.104790 70.160973 42.766258
endloop
endfacet
facet normal 0.982426 0.150553 0.110334
outer loop
vertex -8.017139 69.738937 42.432842
vertex -7.968464 69.535004 42.277695
vertex -8.027985 71.734650 39.806252
endloop
endfacet
facet normal -0.003327 0.604966 -0.796245
outer loop
vertex -8.419155 71.364105 39.526321
vertex -8.371597 70.848534 39.134388
vertex -8.645058 71.259842 39.448036
endloop
endfacet
facet normal -0.003231 0.604978 -0.796235
outer loop
vertex -8.038475 71.848396 39.892719
vertex -7.990913 71.332825 39.500786
vertex -8.109921 71.664146 39.753017
endloop
endfacet
facet normal 0.921518 0.311028 0.232520
outer loop
vertex -8.124229 69.941071 42.586876
vertex -8.017139 69.738937 42.432842
vertex -8.135071 71.936790 39.960281
endloop
endfacet
facet normal 0.003327 -0.604975 0.796238
outer loop
vertex -10.905151 72.390717 40.316616
vertex -10.877064 72.575653 40.457012
vertex -10.952713 72.906296 40.708549
endloop
endfacet
facet normal -0.003364 0.604978 -0.796235
outer loop
vertex -8.017139 69.738937 42.432842
vertex -8.124229 69.941071 42.586876
vertex -8.064697 70.254509 42.824776
endloop
endfacet
facet normal 0.832233 0.443102 0.333239
outer loop
vertex -8.285622 70.133652 42.733856
vertex -8.124229 69.941071 42.586876
vertex -8.296463 72.129364 40.107265
endloop
endfacet
facet normal -0.003255 0.604964 -0.796246
outer loop
vertex -11.141857 70.562805 43.071724
vertex -11.094296 70.047234 42.679794
vertex -11.153465 70.364914 42.921413
endloop
endfacet
facet normal 0.003255 -0.604980 0.796234
outer loop
vertex -11.116749 71.845047 39.902885
vertex -11.105141 72.042946 40.053200
vertex -11.164310 72.360626 40.294819
endloop
endfacet
facet normal 0.914495 0.323964 0.242376
outer loop
vertex -8.386696 70.315353 42.872341
vertex -8.285622 70.133652 42.733856
vertex -8.397537 72.311066 40.245743
endloop
endfacet
facet normal 0.844824 0.427695 0.321481
outer loop
vertex -8.781830 70.811356 43.250839
vertex -8.386696 70.315353 42.872341
vertex -8.792671 72.807076 40.624245
endloop
endfacet
facet normal 0.003343 -0.604993 0.796224
outer loop
vertex -10.997696 69.958832 42.612232
vertex -10.950138 69.443268 42.220299
vertex -10.836308 69.766266 42.465244
endloop
endfacet
facet normal -0.003157 0.605004 -0.796216
outer loop
vertex -7.968464 69.535004 42.277695
vertex -8.017139 69.738937 42.432842
vertex -8.016026 70.050575 42.669624
endloop
endfacet
facet normal -0.003231 0.604984 -0.796231
outer loop
vertex -10.960979 71.438980 39.593704
vertex -11.068069 71.641113 39.747730
vertex -11.008541 71.954552 39.985638
endloop
endfacet
facet normal -0.003261 0.604996 -0.796222
outer loop
vertex -8.109921 71.664146 39.753017
vertex -8.062363 71.148575 39.361084
vertex -8.238464 71.500626 39.629299
endloop
endfacet
facet normal 0.003551 -0.604966 0.796243
outer loop
vertex -8.075539 72.250221 40.198185
vertex -8.027985 71.734650 39.806252
vertex -8.026867 72.046288 40.043030
endloop
endfacet
facet normal 0.847284 -0.421219 -0.323549
outer loop
vertex -8.051517 69.152863 41.987679
vertex -8.180058 68.989334 41.863960
vertex -8.062363 71.148575 39.361084
endloop
endfacet
facet normal 0.002959 -0.605012 0.796211
outer loop
vertex -7.980068 69.337112 42.127377
vertex -7.968464 69.535004 42.277695
vertex -8.027634 69.852676 42.519310
endloop
endfacet
facet normal 0.003292 -0.604993 0.796224
outer loop
vertex -8.360756 68.852821 41.760983
vertex -8.180058 68.989334 41.863960
vertex -8.408318 69.368393 42.152916
endloop
endfacet
facet normal 0.687332 -0.576972 -0.441224
outer loop
vertex -8.180058 68.989334 41.863960
vertex -8.360756 68.852821 41.760983
vertex -8.190903 70.985046 39.237366
endloop
endfacet
facet normal -0.003264 0.604978 -0.796235
outer loop
vertex -11.070408 70.747055 43.211426
vertex -11.022846 70.231476 42.819496
vertex -11.141857 70.562805 43.071724
endloop
endfacet
facet normal 0.003333 -0.605001 0.796217
outer loop
vertex -8.849087 68.680565 41.632118
vertex -8.586655 68.748566 41.682697
vertex -8.896648 69.196136 42.024052
endloop
endfacet
facet normal 0.499850 -0.688631 -0.525297
outer loop
vertex -8.360756 68.852821 41.760983
vertex -8.586655 68.748566 41.682697
vertex -8.371597 70.848534 39.134388
endloop
endfacet
facet normal 0.003302 -0.604976 0.796237
outer loop
vertex -8.180058 68.989334 41.863960
vertex -8.051517 69.152863 41.987679
vertex -8.227619 69.504906 42.255894
endloop
endfacet
facet normal -0.003303 0.604989 -0.796227
outer loop
vertex -9.453026 70.658035 38.994110
vertex -9.760895 70.708481 39.033710
vertex -9.500580 71.173599 39.386040
endloop
endfacet
facet normal -0.003267 0.604989 -0.796227
outer loop
vertex -8.645058 71.259842 39.448036
vertex -8.597496 70.744278 39.056103
vertex -8.907490 71.191849 39.397453
endloop
endfacet
facet normal -0.003245 0.604988 -0.796228
outer loop
vertex -10.060581 70.796570 39.101875
vertex -10.340569 70.918907 39.195984
vertex -10.108139 71.312141 39.493809
endloop
endfacet
facet normal -0.003286 0.605000 -0.796219
outer loop
vertex -10.424526 70.940292 43.355583
vertex -10.866222 70.579941 43.083607
vertex -10.941868 70.910576 43.335144
endloop
endfacet
facet normal 0.003264 -0.604982 0.796232
outer loop
vertex -9.489742 69.177887 42.012634
vertex -9.442181 68.662315 41.620701
vertex -9.185524 69.167015 42.003117
endloop
endfacet
facet normal -0.003284 0.604978 -0.796236
outer loop
vertex -9.148808 70.647156 38.984589
vertex -9.453026 70.658035 38.994110
vertex -9.196369 71.162727 39.376518
endloop
endfacet
facet normal 0.003293 -0.604975 0.796238
outer loop
vertex -10.097298 69.316429 42.120407
vertex -10.049736 68.800858 41.728470
vertex -9.797611 69.228333 42.052235
endloop
endfacet
facet normal 0.003252 -0.604998 0.796220
outer loop
vertex -8.586655 68.748566 41.682697
vertex -8.360756 68.852821 41.760983
vertex -8.634216 69.264130 42.074631
endloop
endfacet
facet normal -0.003261 0.604976 -0.796237
outer loop
vertex -10.590099 71.070801 39.312428
vertex -10.799587 71.246407 39.446716
vertex -10.637665 71.586372 39.704361
endloop
endfacet
facet normal -0.003294 0.604972 -0.796240
outer loop
vertex -9.760895 70.708481 39.033710
vertex -10.060581 70.796570 39.101875
vertex -9.808449 71.224052 39.425644
endloop
endfacet
facet normal -0.482752 -0.698267 -0.528558
outer loop
vertex -10.060581 70.796570 39.101875
vertex -10.049736 68.800858 41.728470
vertex -10.340569 70.918907 39.195984
endloop
endfacet
facet normal 0.003294 -0.604983 0.796231
outer loop
vertex -9.185524 69.167015 42.003117
vertex -9.137966 68.651443 41.611183
vertex -8.896648 69.196136 42.024052
endloop
endfacet
facet normal -0.608589 -0.633010 -0.478454
outer loop
vertex -10.340569 70.918907 39.195984
vertex -10.329727 68.923195 41.822582
vertex -10.590099 71.070801 39.312428
endloop
endfacet
facet normal -0.714794 0.555411 0.424957
outer loop
vertex -10.877064 72.575653 40.457012
vertex -10.866222 70.579941 43.083607
vertex -10.435371 72.936005 40.728989
endloop
endfacet
facet normal -0.725856 -0.549127 -0.414237
outer loop
vertex -10.590099 71.070801 39.312428
vertex -10.579262 69.075089 41.939022
vertex -10.799587 71.246407 39.446716
endloop
endfacet
facet normal -0.003289 0.604990 -0.796226
outer loop
vertex -10.340569 70.918907 39.195984
vertex -10.590099 71.070801 39.312428
vertex -10.388130 71.434479 39.587921
endloop
endfacet
facet normal -0.832222 -0.443116 -0.333249
outer loop
vertex -10.799587 71.246407 39.446716
vertex -10.788746 69.250694 42.073315
vertex -10.960979 71.438980 39.593704
endloop
endfacet
facet normal 0.003284 -0.605003 0.796217
outer loop
vertex -9.797611 69.228333 42.052235
vertex -9.750050 68.712769 41.660301
vertex -9.489742 69.177887 42.012634
endloop
endfacet
facet normal -0.921517 -0.311032 -0.232520
outer loop
vertex -10.960979 71.438980 39.593704
vertex -10.950138 69.443268 42.220299
vertex -11.068069 71.641113 39.747730
endloop
endfacet
facet normal 0.003245 -0.604993 0.796224
outer loop
vertex -10.377289 69.438766 42.214516
vertex -10.329727 68.923195 41.822582
vertex -10.097298 69.316429 42.120407
endloop
endfacet
facet normal -0.982424 -0.150559 -0.110341
outer loop
vertex -11.068069 71.641113 39.747730
vertex -11.057228 69.645401 42.374325
vertex -11.116749 71.845047 39.902885
endloop
endfacet
facet normal 0.003287 -0.604984 0.796231
outer loop
vertex -8.792671 72.807076 40.624245
vertex -8.397537 72.311066 40.245743
vertex -8.344025 72.644928 40.499195
endloop
endfacet
facet normal -0.998905 0.035169 0.030843
outer loop
vertex -11.116749 71.845047 39.902885
vertex -11.105907 69.849335 42.529480
vertex -11.105141 72.042946 40.053200
endloop
endfacet
facet normal -0.003281 0.604996 -0.796222
outer loop
vertex -10.799587 71.246407 39.446716
vertex -10.960979 71.438980 39.593704
vertex -10.847149 71.761978 39.838654
endloop
endfacet
facet normal -0.955420 0.233174 0.181114
outer loop
vertex -11.105141 72.042946 40.053200
vertex -11.094296 70.047234 42.679794
vertex -11.033691 72.227196 40.192902
endloop
endfacet
facet normal 0.003297 -0.604994 0.796223
outer loop
vertex -8.182632 72.452362 40.352211
vertex -8.135071 71.936790 39.960281
vertex -8.075539 72.250221 40.198185
endloop
endfacet
facet normal -0.847271 0.421237 0.323561
outer loop
vertex -11.033691 72.227196 40.192902
vertex -11.022846 70.231476 42.819496
vertex -10.905151 72.390717 40.316616
endloop
endfacet
facet normal 0.003277 -0.604976 0.796237
outer loop
vertex -10.836308 69.766266 42.465244
vertex -10.788746 69.250694 42.073315
vertex -10.626823 69.590660 42.330956
endloop
endfacet
facet normal -0.992757 0.093645 0.075253
outer loop
vertex -10.905151 72.390717 40.316616
vertex -10.894306 70.395004 42.943211
vertex -10.877064 72.575653 40.457012
endloop
endfacet
facet normal -0.003551 0.604974 -0.796237
outer loop
vertex -11.068069 71.641113 39.747730
vertex -11.116749 71.845047 39.902885
vertex -11.115631 72.156693 40.139664
endloop
endfacet
facet normal -0.003453 0.605012 -0.796209
outer loop
vertex -8.026867 72.046288 40.043030
vertex -7.979309 71.530716 39.651100
vertex -8.038475 71.848396 39.892719
endloop
endfacet
facet normal -0.003261 0.604983 -0.796232
outer loop
vertex -8.124229 69.941071 42.586876
vertex -8.285622 70.133652 42.733856
vertex -8.171791 70.456650 42.978806
endloop
endfacet
facet normal 0.003197 -0.604989 0.796228
outer loop
vertex -11.104790 70.160973 42.766258
vertex -11.057228 69.645401 42.374325
vertex -10.997696 69.958832 42.612232
endloop
endfacet
facet normal -0.003354 0.604980 -0.796234
outer loop
vertex -8.285622 70.133652 42.733856
vertex -8.386696 70.315353 42.872341
vertex -8.333179 70.649216 43.125790
endloop
endfacet
facet normal 0.003297 -0.604999 0.796219
outer loop
vertex -11.105141 72.042946 40.053200
vertex -11.033691 72.227196 40.192902
vertex -11.152702 72.558517 40.445133
endloop
endfacet
facet normal 0.003302 -0.604986 0.796229
outer loop
vertex -8.344025 72.644928 40.499195
vertex -8.296463 72.129364 40.107265
vertex -8.182632 72.452362 40.352211
endloop
endfacet
facet normal 0.003277 -0.604994 0.796223
outer loop
vertex -10.626823 69.590660 42.330956
vertex -10.579262 69.075089 41.939022
vertex -10.377289 69.438766 42.214516
endloop
endfacet
facet normal -0.003453 0.604990 -0.796226
outer loop
vertex -7.961414 71.336777 39.503666
vertex -8.010090 71.540710 39.658821
vertex -8.008976 71.852341 39.895599
endloop
endfacet
facet normal 0.003302 -0.604976 0.796237
outer loop
vertex -8.173012 70.791107 39.089935
vertex -8.044472 70.954636 39.213654
vertex -8.220573 71.306679 39.481869
endloop
endfacet
facet normal 0.003255 -0.604995 0.796223
outer loop
vertex -7.950573 69.341064 42.130260
vertex -7.998131 69.856628 42.522194
vertex -7.999249 69.544998 42.285412
endloop
endfacet
facet normal -0.003281 0.604983 -0.796232
outer loop
vertex -10.770855 69.056747 41.925880
vertex -10.932247 69.249329 42.072865
vertex -10.818413 69.572327 42.317810
endloop
endfacet
facet normal -0.003156 0.604980 -0.796234
outer loop
vertex -11.098858 71.651108 39.755451
vertex -11.146420 72.166679 40.147385
vertex -11.087250 71.848999 39.905766
endloop
endfacet
facet normal 0.003255 -0.604979 0.796234
outer loop
vertex -11.088017 69.655396 42.382046
vertex -11.076405 69.853287 42.532360
vertex -11.135574 70.170967 42.773979
endloop
endfacet
facet normal 0.003331 -0.604999 0.796219
outer loop
vertex -7.999249 69.544998 42.285412
vertex -8.046806 70.060562 42.677345
vertex -8.106339 69.747131 42.439438
endloop
endfacet
facet normal 0.003248 -0.604985 0.796230
outer loop
vertex -11.043217 72.440094 40.354702
vertex -10.887260 72.196777 40.169182
vertex -10.601521 72.800446 40.626682
endloop
endfacet
facet normal 0.003231 -0.604989 0.796227
outer loop
vertex -8.044472 70.954636 39.213654
vertex -7.973022 71.138878 39.353352
vertex -8.092030 71.470200 39.605583
endloop
endfacet
facet normal -0.003354 0.604995 -0.796222
outer loop
vertex -11.039337 69.451462 42.226894
vertex -11.088017 69.655396 42.382046
vertex -11.086903 69.967033 42.618828
endloop
endfacet
facet normal -0.003297 0.605010 -0.796211
outer loop
vertex -8.033627 68.958916 41.840244
vertex -8.081188 69.474487 42.232178
vertex -7.962181 69.143166 41.979942
endloop
endfacet
facet normal -0.003282 0.604970 -0.796242
outer loop
vertex -11.015797 72.033249 40.045464
vertex -11.063358 72.548828 40.437397
vertex -10.887260 72.196777 40.169182
endloop
endfacet
facet normal 0.003322 -0.604979 0.796234
outer loop
vertex -11.004959 70.037537 42.672058
vertex -10.876419 70.201065 42.795776
vertex -11.052521 70.553108 43.063995
endloop
endfacet
facet normal 0.003293 -0.604977 0.796236
outer loop
vertex -8.842037 70.482338 38.858089
vertex -8.889599 70.997910 39.250023
vertex -9.130917 70.453217 38.837158
endloop
endfacet
facet normal -0.003354 0.604995 -0.796222
outer loop
vertex -7.962181 69.143166 41.979942
vertex -8.009743 69.658737 42.371880
vertex -7.950573 69.341064 42.130260
endloop
endfacet
facet normal -0.003292 0.604979 -0.796235
outer loop
vertex -8.342865 68.658875 41.613548
vertex -8.390423 69.174446 42.005482
vertex -8.162167 68.795395 41.716530
endloop
endfacet
facet normal 0.003264 -0.604984 0.796231
outer loop
vertex -11.076405 69.853287 42.532360
vertex -11.004959 70.037537 42.672058
vertex -11.123966 70.368858 42.924294
endloop
endfacet
facet normal -0.003289 0.604970 -0.796241
outer loop
vertex -8.831196 68.486626 41.484684
vertex -8.878754 69.002197 41.876614
vertex -8.568768 68.554619 41.535263
endloop
endfacet
facet normal -0.003302 0.604973 -0.796239
outer loop
vertex -8.162167 68.795395 41.716530
vertex -8.209728 69.310966 42.108459
vertex -8.033627 68.958916 41.840244
endloop
endfacet
facet normal 0.003267 -0.604980 0.796234
outer loop
vertex -8.842037 70.482338 38.858089
vertex -8.579605 70.550331 38.908672
vertex -8.889599 70.997910 39.250023
endloop
endfacet
facet normal 0.003289 -0.604996 0.796221
outer loop
vertex -10.042686 70.602631 38.954445
vertex -10.090248 71.118195 39.346375
vertex -10.322678 70.724968 39.048553
endloop
endfacet
facet normal -0.003243 0.604996 -0.796222
outer loop
vertex -10.876419 70.201065 42.795776
vertex -11.032375 70.444382 42.981293
vertex -10.923977 70.716637 43.187714
endloop
endfacet
facet normal -0.003284 0.604989 -0.796227
outer loop
vertex -9.120075 68.457504 41.463749
vertex -9.424290 68.468376 41.473267
vertex -9.167633 68.973076 41.855682
endloop
endfacet
facet normal 0.003284 -0.604984 0.796231
outer loop
vertex -9.130917 70.453217 38.837158
vertex -9.178474 70.968788 39.229088
vertex -9.435131 70.464088 38.846672
endloop
endfacet
facet normal -0.003273 0.604996 -0.796222
outer loop
vertex -9.732159 68.518829 41.512871
vertex -10.031849 68.606918 41.581039
vertex -9.779716 69.034393 41.904804
endloop
endfacet
facet normal 0.003292 -0.604979 0.796235
outer loop
vertex -10.572212 70.876862 39.164993
vertex -10.619774 71.392433 39.556927
vertex -10.781696 71.052467 39.299286
endloop
endfacet
facet normal 0.003294 -0.604988 0.796228
outer loop
vertex -9.743000 70.514542 38.886276
vertex -9.790558 71.030106 39.278206
vertex -10.042686 70.602631 38.954445
endloop
endfacet
facet normal -0.003293 0.604973 -0.796239
outer loop
vertex -8.831196 68.486626 41.484684
vertex -9.120075 68.457504 41.463749
vertex -8.878754 69.002197 41.876614
endloop
endfacet
facet normal 0.003289 -0.604996 0.796222
outer loop
vertex -10.322678 70.724968 39.048553
vertex -10.370239 71.240540 39.440487
vertex -10.572212 70.876862 39.164993
endloop
endfacet
facet normal -0.003284 0.604978 -0.796236
outer loop
vertex -9.424290 68.468376 41.473267
vertex -9.732159 68.518829 41.512871
vertex -9.471851 68.983948 41.865196
endloop
endfacet
facet normal -0.003289 0.604989 -0.796227
outer loop
vertex -10.031849 68.606918 41.581039
vertex -10.311836 68.729256 41.675148
vertex -10.079407 69.122482 41.972969
endloop
endfacet
facet normal 0.003302 -0.604983 0.796232
outer loop
vertex -10.781696 71.052467 39.299286
vertex -10.829258 71.568039 39.691216
vertex -10.943092 71.245041 39.446274
endloop
endfacet
facet normal -0.003297 0.604989 -0.796227
outer loop
vertex -8.010090 71.540710 39.658821
vertex -8.117184 71.742844 39.812843
vertex -8.057648 72.056282 40.050751
endloop
endfacet
facet normal -0.003307 0.604993 -0.796224
outer loop
vertex -10.561367 68.881149 41.791588
vertex -10.770855 69.056747 41.925880
vertex -10.608932 69.396713 42.183521
endloop
endfacet
facet normal 0.003452 -0.604980 0.796233
outer loop
vertex -7.973022 71.138878 39.353352
vertex -7.961414 71.336777 39.503666
vertex -8.020584 71.654449 39.745285
endloop
endfacet
facet normal 0.003302 -0.604986 0.796229
outer loop
vertex -8.106339 69.747131 42.439438
vertex -8.153896 70.262703 42.831375
vertex -8.267731 69.939705 42.586426
endloop
endfacet
facet normal -0.003331 0.604991 -0.796225
outer loop
vertex -10.932247 69.249329 42.072865
vertex -11.039337 69.451462 42.226894
vertex -10.979809 69.764893 42.464798
endloop
endfacet
facet normal -0.003295 0.605007 -0.796214
outer loop
vertex -8.238056 70.128769 42.729958
vertex -8.267731 69.939705 42.586426
vertex -8.633194 70.624779 43.108459
endloop
endfacet
facet normal -0.003264 0.604967 -0.796244
outer loop
vertex -11.087250 71.848999 39.905766
vertex -11.134808 72.364578 40.297699
vertex -11.015797 72.033249 40.045464
endloop
endfacet
facet normal -0.003281 0.604988 -0.796228
outer loop
vertex -8.117184 71.742844 39.812843
vertex -8.278576 71.935417 39.959831
vertex -8.164742 72.258415 40.204781
endloop
endfacet
facet normal -0.003277 0.604994 -0.796223
outer loop
vertex -10.311836 68.729256 41.675148
vertex -10.561367 68.881149 41.791588
vertex -10.359398 69.244827 42.067085
endloop
endfacet
facet normal 0.372171 0.739777 0.560552
outer loop
vertex -10.743286 70.853149 43.290691
vertex -10.590679 70.804733 43.253273
vertex -10.754131 72.848862 40.664093
endloop
endfacet
facet normal -0.003146 0.604985 -0.796231
outer loop
vertex -8.016026 70.050575 42.669624
vertex -7.998131 69.856628 42.522194
vertex -8.027634 69.852676 42.519310
endloop
endfacet
facet normal -0.003308 0.604985 -0.796230
outer loop
vertex -10.359398 69.244827 42.067085
vertex -10.608932 69.396713 42.183521
vertex -10.377289 69.438766 42.214516
endloop
endfacet
facet normal -0.003306 0.604985 -0.796230
outer loop
vertex -8.057648 72.056282 40.050751
vertex -8.164742 72.258415 40.204781
vertex -8.075539 72.250221 40.198185
endloop
endfacet
facet normal 0.003232 -0.604979 0.796235
outer loop
vertex -11.123966 70.368858 42.924294
vertex -11.052521 70.553108 43.063995
vertex -11.141857 70.562805 43.071724
endloop
endfacet
facet normal -0.003278 0.604974 -0.796239
outer loop
vertex -10.952713 72.906296 40.708549
vertex -10.934822 72.712349 40.561115
vertex -11.081249 72.742767 40.584831
endloop
endfacet
facet normal 0.003598 -0.604941 0.796262
outer loop
vertex -8.064697 70.254509 42.824776
vertex -8.046806 70.060562 42.677345
vertex -8.016026 70.050575 42.669624
endloop
endfacet
facet normal 0.003259 -0.604998 0.796221
outer loop
vertex -8.171791 70.456650 42.978806
vertex -8.153896 70.262703 42.831375
vertex -8.064697 70.254509 42.824776
endloop
endfacet
facet normal 0.003293 -0.605016 0.796207
outer loop
vertex -9.808449 71.224052 39.425644
vertex -9.790558 71.030106 39.278206
vertex -9.500580 71.173599 39.386040
endloop
endfacet
facet normal 0.003254 -0.604999 0.796220
outer loop
vertex -8.781830 70.811356 43.250839
vertex -8.524776 70.630882 43.112648
vertex -8.333179 70.649216 43.125790
endloop
endfacet
facet normal 0.003277 -0.604997 0.796221
outer loop
vertex -10.108139 71.312141 39.493809
vertex -10.090248 71.118195 39.346375
vertex -9.808449 71.224052 39.425644
endloop
endfacet
facet normal 0.003122 -0.604986 0.796230
outer loop
vertex -11.135574 70.170967 42.773979
vertex -11.123966 70.368858 42.924294
vertex -11.153465 70.364914 42.921413
endloop
endfacet
facet normal -0.003266 0.604954 -0.796254
outer loop
vertex -8.408318 69.368393 42.152916
vertex -8.390423 69.174446 42.005482
vertex -8.634216 69.264130 42.074631
endloop
endfacet
facet normal -0.003346 0.604985 -0.796230
outer loop
vertex -8.164742 72.258415 40.204781
vertex -8.326134 72.450989 40.351765
vertex -8.182632 72.452362 40.352211
endloop
endfacet
facet normal -0.003277 0.605008 -0.796212
outer loop
vertex -8.878754 69.002197 41.876614
vertex -9.167633 68.973076 41.855682
vertex -8.896648 69.196136 42.024052
endloop
endfacet
facet normal 0.003306 -0.604995 0.796222
outer loop
vertex -9.500580 71.173599 39.386040
vertex -9.482693 70.979660 39.238605
vertex -9.196369 71.162727 39.376518
endloop
endfacet
facet normal -0.003306 0.604991 -0.796225
outer loop
vertex -10.818413 69.572327 42.317810
vertex -10.979809 69.764893 42.464798
vertex -10.836308 69.766266 42.465244
endloop
endfacet
facet normal -0.662433 -0.597792 -0.451474
outer loop
vertex -8.535622 72.626595 40.486053
vertex -8.524776 70.630882 43.112648
vertex -8.792671 72.807076 40.624245
endloop
endfacet
facet normal 0.003308 -0.604993 0.796224
outer loop
vertex -10.388130 71.434479 39.587921
vertex -10.370239 71.240540 39.440487
vertex -10.108139 71.312141 39.493809
endloop
endfacet
facet normal -0.003269 0.604973 -0.796239
outer loop
vertex -8.326134 72.450989 40.351765
vertex -8.535622 72.626595 40.486053
vertex -8.344025 72.644928 40.499195
endloop
endfacet
facet normal 0.003253 -0.604998 0.796221
outer loop
vertex -11.008541 71.954552 39.985638
vertex -10.990650 71.760605 39.838203
vertex -10.847149 71.761978 39.838654
endloop
endfacet
facet normal -0.003239 0.604968 -0.796243
outer loop
vertex -10.608932 69.396713 42.183521
vertex -10.818413 69.572327 42.317810
vertex -10.626823 69.590660 42.330956
endloop
endfacet
facet normal -0.003359 0.604970 -0.796241
outer loop
vertex -11.152702 72.558517 40.445133
vertex -11.134808 72.364578 40.297699
vertex -11.164310 72.360626 40.294819
endloop
endfacet
facet normal -0.003188 0.604979 -0.796235
outer loop
vertex -11.086903 69.967033 42.618828
vertex -11.135574 70.170967 42.773979
vertex -11.104790 70.160973 42.766258
endloop
endfacet
facet normal -0.003293 0.604992 -0.796225
outer loop
vertex -8.634216 69.264130 42.074631
vertex -8.616325 69.070190 41.927197
vertex -8.896648 69.196136 42.024052
endloop
endfacet
facet normal 0.003288 -0.605024 0.796200
outer loop
vertex -10.637665 71.586372 39.704361
vertex -10.619774 71.392433 39.556927
vertex -10.388130 71.434479 39.587921
endloop
endfacet
facet normal -0.003314 0.605004 -0.796215
outer loop
vertex -10.979809 69.764893 42.464798
vertex -11.086903 69.967033 42.618828
vertex -10.997696 69.958832 42.612232
endloop
endfacet
facet normal -0.003285 0.605000 -0.796219
outer loop
vertex -8.099079 69.668427 42.379608
vertex -8.081188 69.474487 42.232178
vertex -8.227619 69.504906 42.255894
endloop
endfacet
facet normal 0.003539 -0.604961 0.796247
outer loop
vertex -11.164310 72.360626 40.294819
vertex -11.146420 72.166679 40.147385
vertex -11.115631 72.156693 40.139664
endloop
endfacet
facet normal -0.003281 0.604983 -0.796232
outer loop
vertex -8.027634 69.852676 42.519310
vertex -8.009743 69.658737 42.371880
vertex -8.099079 69.668427 42.379608
endloop
endfacet
facet normal 0.003293 -0.604980 0.796234
outer loop
vertex -8.889599 70.997910 39.250023
vertex -8.627167 71.065903 39.300602
vertex -8.907490 71.191849 39.397453
endloop
endfacet
facet normal 0.003271 -0.605001 0.796218
outer loop
vertex -11.115631 72.156693 40.139664
vertex -11.097740 71.962746 39.992233
vertex -11.008541 71.954552 39.985638
endloop
endfacet
facet normal 0.003285 -0.604988 0.796227
outer loop
vertex -8.220573 71.306679 39.481869
vertex -8.092030 71.470200 39.605583
vertex -8.238464 71.500626 39.629299
endloop
endfacet
facet normal -0.003322 0.604990 -0.796226
outer loop
vertex -8.227619 69.504906 42.255894
vertex -8.209728 69.310966 42.108459
vertex -8.408318 69.368393 42.152916
endloop
endfacet
facet normal 0.003198 -0.604947 0.796260
outer loop
vertex -8.092030 71.470200 39.605583
vertex -8.020584 71.654449 39.745285
vertex -8.109921 71.664146 39.753017
endloop
endfacet
facet normal 0.003325 -0.605014 0.796208
outer loop
vertex -8.627167 71.065903 39.300602
vertex -8.401268 71.170166 39.378887
vertex -8.645058 71.259842 39.448036
endloop
endfacet
facet normal -0.003283 0.604917 -0.796282
outer loop
vertex -10.435371 72.936005 40.728989
vertex -10.754131 72.848862 40.664093
vertex -10.952713 72.906296 40.708549
endloop
endfacet
facet normal -0.003279 0.605030 -0.796196
outer loop
vertex -10.079407 69.122482 41.972969
vertex -10.359398 69.244827 42.067085
vertex -10.097298 69.316429 42.120407
endloop
endfacet
facet normal 0.003292 -0.605001 0.796218
outer loop
vertex -8.401268 71.170166 39.378887
vertex -8.220573 71.306679 39.481869
vertex -8.419155 71.364105 39.526321
endloop
endfacet
facet normal 0.003251 -0.605008 0.796213
outer loop
vertex -10.847149 71.761978 39.838654
vertex -10.829258 71.568039 39.691216
vertex -10.637665 71.586372 39.704361
endloop
endfacet
facet normal -0.003434 0.605012 -0.796209
outer loop
vertex -8.008976 71.852341 39.895599
vertex -8.057648 72.056282 40.050751
vertex -8.026867 72.046288 40.043030
endloop
endfacet
endsolid Exported from Blender-2.74 (sub 0)
