solid Exported from Blender-2.74 (sub 0)
facet normal 0.841134 -0.423541 -0.336313
outer loop
vertex 18.622084 70.016373 42.580299
vertex 18.576878 72.012001 39.954010
vertex 18.976162 72.509964 40.325520
endloop
endfacet
facet normal 0.992995 0.101687 0.060178
outer loop
vertex 18.650158 69.827438 42.436256
vertex 18.604954 71.823074 39.809967
vertex 18.576878 72.012001 39.954010
endloop
endfacet
facet normal -0.013612 0.604977 -0.796127
outer loop
vertex 21.412636 71.750488 39.706486
vertex 21.464542 72.266312 40.097542
vertex 21.474478 72.068466 39.947041
endloop
endfacet
facet normal 0.828411 -0.439017 -0.347849
outer loop
vertex 18.487156 69.634071 42.292130
vertex 18.441952 71.629700 39.665833
vertex 18.604954 71.823074 39.809967
endloop
endfacet
facet normal 0.918800 -0.306503 -0.248721
outer loop
vertex 18.378368 69.431404 42.139999
vertex 18.333162 71.427032 39.513710
vertex 18.441952 71.629700 39.665833
endloop
endfacet
facet normal 0.981065 -0.145702 -0.127603
outer loop
vertex 18.327974 69.227226 41.985718
vertex 18.282772 71.222855 39.359428
vertex 18.333162 71.427032 39.513710
endloop
endfacet
facet normal 0.999108 0.040092 0.013262
outer loop
vertex 18.337912 69.029381 41.835213
vertex 18.292707 71.025009 39.208923
vertex 18.282772 71.222855 39.359428
endloop
endfacet
facet normal 0.957297 0.237891 0.164288
outer loop
vertex 18.407795 68.845482 41.694271
vertex 18.362595 70.841110 39.067978
vertex 18.292707 71.025009 39.208923
endloop
endfacet
facet normal 0.013715 -0.604939 0.796154
outer loop
vertex 18.489740 70.678215 38.942017
vertex 18.669266 70.542587 38.835865
vertex 18.721172 71.058411 39.226921
endloop
endfacet
facet normal 0.850754 0.425412 0.308614
outer loop
vertex 18.534943 68.682587 41.568302
vertex 18.489740 70.678215 38.942017
vertex 18.362595 70.841110 39.067978
endloop
endfacet
facet normal 0.692162 0.580350 0.429074
outer loop
vertex 18.714470 68.546959 41.462154
vertex 18.669266 70.542587 38.835865
vertex 18.489740 70.678215 38.942017
endloop
endfacet
facet normal 0.505630 0.691100 0.516448
outer loop
vertex 18.939468 68.443810 41.379902
vertex 18.894264 70.439438 38.753613
vertex 18.669266 70.542587 38.835865
endloop
endfacet
facet normal 0.313661 0.758627 0.571054
outer loop
vertex 19.201302 68.377106 41.324707
vertex 19.156097 70.372734 38.698418
vertex 18.894264 70.439438 38.753613
endloop
endfacet
facet normal 0.129822 0.790551 0.598477
outer loop
vertex 19.489906 68.349411 41.298695
vertex 19.444700 70.345039 38.672401
vertex 19.156097 70.372734 38.698418
endloop
endfacet
facet normal -0.040612 0.795219 0.604961
outer loop
vertex 19.489906 68.349411 41.298695
vertex 19.794188 68.361778 41.302860
vertex 19.748981 70.357407 38.676567
endloop
endfacet
facet normal -0.197333 0.778918 0.595270
outer loop
vertex 19.794188 68.361778 41.302860
vertex 20.102451 68.413750 41.337040
vertex 20.057245 70.409378 38.710751
endloop
endfacet
facet normal -0.342018 0.745350 0.572257
outer loop
vertex 20.102451 68.413750 41.337040
vertex 20.402855 68.503311 41.399929
vertex 20.357651 70.498947 38.773640
endloop
endfacet
facet normal -0.476832 0.695891 0.536998
outer loop
vertex 20.402855 68.503311 41.399929
vertex 20.683849 68.627037 41.489105
vertex 20.638647 70.622665 38.862812
endloop
endfacet
facet normal -0.603169 0.630035 0.489124
outer loop
vertex 20.683849 68.627037 41.489105
vertex 20.934641 68.780159 41.601143
vertex 20.889439 70.775787 38.974850
endloop
endfacet
facet normal -0.719422 -0.558939 -0.412333
outer loop
vertex 21.418802 70.345749 42.782444
vertex 20.980192 70.703934 43.062172
vertex 20.934986 72.699570 40.435879
endloop
endfacet
facet normal -0.721147 0.545568 0.426969
outer loop
vertex 20.934641 68.780159 41.601143
vertex 21.145592 68.956802 41.731735
vertex 21.100386 70.952431 39.105442
endloop
endfacet
facet normal -0.828406 0.439024 0.347852
outer loop
vertex 21.145592 68.956802 41.731735
vertex 21.308592 69.150177 41.875862
vertex 21.263390 71.145798 39.249573
endloop
endfacet
facet normal -0.918797 0.306512 0.248720
outer loop
vertex 21.308592 69.150177 41.875862
vertex 21.417381 69.352844 42.027992
vertex 21.372175 71.348473 39.401703
endloop
endfacet
facet normal -0.981062 0.145718 0.127611
outer loop
vertex 21.417381 69.352844 42.027992
vertex 21.467777 69.557022 42.182278
vertex 21.422573 71.552650 39.555984
endloop
endfacet
facet normal 0.013754 -0.604938 0.796154
outer loop
vertex 18.576878 72.012001 39.954010
vertex 18.604954 71.823074 39.809967
vertex 18.656860 72.338890 40.201023
endloop
endfacet
facet normal -0.999108 -0.040088 -0.013273
outer loop
vertex 21.467777 69.557022 42.182278
vertex 21.457838 69.754860 42.332779
vertex 21.412636 71.750488 39.706486
endloop
endfacet
facet normal -0.957304 -0.237869 -0.164279
outer loop
vertex 21.457838 69.754860 42.332779
vertex 21.387951 69.938766 42.473724
vertex 21.342747 71.934387 39.847431
endloop
endfacet
facet normal -0.850762 -0.425400 -0.308609
outer loop
vertex 21.387951 69.938766 42.473724
vertex 21.260807 70.101654 42.599689
vertex 21.215601 72.097290 39.973396
endloop
endfacet
facet normal -0.887786 0.358972 0.288053
outer loop
vertex 21.260807 70.101654 42.599689
vertex 21.418802 70.345749 42.782444
vertex 21.373596 72.341377 40.156155
endloop
endfacet
facet normal 0.342014 -0.745356 -0.572251
outer loop
vertex 20.422382 68.697350 41.547035
vertex 20.121977 68.607780 41.484146
vertex 20.377178 70.692978 38.920742
endloop
endfacet
facet normal 0.197304 -0.778926 -0.595269
outer loop
vertex 20.121977 68.607780 41.484146
vertex 19.813713 68.555817 41.449959
vertex 20.076775 70.603409 38.857853
endloop
endfacet
facet normal 0.040627 -0.795221 -0.604957
outer loop
vertex 19.813713 68.555817 41.449959
vertex 19.509434 68.543442 41.445801
vertex 19.768507 70.551445 38.823673
endloop
endfacet
facet normal -0.129808 -0.790551 -0.598481
outer loop
vertex 19.220829 68.571136 41.471813
vertex 19.175625 70.566772 38.845520
vertex 19.509434 68.543442 41.445801
endloop
endfacet
facet normal -0.313668 -0.758626 -0.571051
outer loop
vertex 18.958996 68.637848 41.527008
vertex 18.913792 70.633469 38.900719
vertex 19.220829 68.571136 41.471813
endloop
endfacet
facet normal 0.074711 0.794593 0.602528
outer loop
vertex 18.867811 72.515533 40.331615
vertex 18.913017 70.519897 42.957905
vertex 19.021366 70.514328 42.951813
endloop
endfacet
facet normal -0.013697 0.604961 -0.796138
outer loop
vertex 19.272738 69.086960 41.862873
vertex 19.561340 69.059258 41.836857
vertex 19.541815 68.865219 41.689751
endloop
endfacet
facet normal 0.013708 -0.604956 0.796141
outer loop
vertex 19.800890 70.873230 39.067627
vertex 19.820415 71.067261 39.214729
vertex 19.516136 71.054886 39.210564
endloop
endfacet
facet normal -0.013636 0.605025 -0.796090
outer loop
vertex 21.488817 70.062691 42.566154
vertex 21.539213 70.266876 42.720436
vertex 21.519684 70.072838 42.573334
endloop
endfacet
facet normal 0.013698 -0.604948 0.796147
outer loop
vertex 20.941349 71.291611 39.365906
vertex 20.960875 71.485641 39.513012
vertex 20.710083 71.332520 39.400974
endloop
endfacet
facet normal -0.013712 0.604965 -0.796134
outer loop
vertex 18.459705 69.361298 42.085327
vertex 18.479233 69.555328 42.232430
vertex 18.606380 69.392441 42.106468
endloop
endfacet
facet normal 0.013812 -0.604988 0.796115
outer loop
vertex 21.424088 71.864288 39.792759
vertex 21.443613 72.058319 39.939865
vertex 21.334824 71.855652 39.787735
endloop
endfacet
facet normal 0.013680 -0.604982 0.796121
outer loop
vertex 18.434027 71.550964 39.606140
vertex 18.364143 71.734863 39.747086
vertex 18.344620 71.540833 39.599979
endloop
endfacet
facet normal -0.013700 0.604951 -0.796145
outer loop
vertex 19.227533 71.082588 39.236580
vertex 19.516136 71.054886 39.210564
vertex 19.464230 70.539070 38.819508
endloop
endfacet
facet normal -0.013693 0.604962 -0.796136
outer loop
vertex 18.509266 70.872253 39.089115
vertex 18.561174 71.388069 39.480171
vertex 18.740700 71.252441 39.374027
endloop
endfacet
facet normal -0.957299 -0.237882 -0.164286
outer loop
vertex 18.312233 71.219048 39.356026
vertex 18.382120 71.035149 39.215088
vertex 18.427322 69.039520 41.841373
endloop
endfacet
facet normal -0.013700 0.604943 -0.796151
outer loop
vertex 21.280331 70.295692 42.746796
vertex 21.332239 70.811508 43.137848
vertex 21.459389 70.648613 43.011883
endloop
endfacet
facet normal 0.013700 -0.604948 0.796147
outer loop
vertex 21.414183 72.644241 40.385593
vertex 21.287037 72.807137 40.511559
vertex 21.235126 72.291321 40.120499
endloop
endfacet
facet normal -0.999108 -0.040088 -0.013259
outer loop
vertex 18.302299 71.416885 39.506531
vertex 18.312233 71.219048 39.356026
vertex 18.357437 69.223419 41.982315
endloop
endfacet
facet normal 0.013722 -0.604962 0.796136
outer loop
vertex 18.479233 69.555328 42.232430
vertex 18.409348 69.739235 42.373375
vertex 18.357437 69.223419 41.982315
endloop
endfacet
facet normal 0.013612 -0.604959 0.796140
outer loop
vertex 21.487303 69.751053 42.329380
vertex 21.539213 70.266876 42.720436
vertex 21.488817 70.062691 42.566154
endloop
endfacet
facet normal -0.981065 0.145703 0.127600
outer loop
vertex 18.352690 71.621063 39.660812
vertex 18.302299 71.416885 39.506531
vertex 18.347504 69.421257 42.132820
endloop
endfacet
facet normal -0.013726 0.604965 -0.796133
outer loop
vertex 18.688791 70.736626 38.982967
vertex 18.740700 71.252441 39.374027
vertex 18.965700 71.149292 39.291771
endloop
endfacet
facet normal -0.013705 0.604986 -0.796118
outer loop
vertex 18.312233 71.219048 39.356026
vertex 18.364143 71.734863 39.747086
vertex 18.434027 71.550964 39.606140
endloop
endfacet
facet normal -0.918803 0.306500 0.248713
outer loop
vertex 18.461477 71.823738 39.812939
vertex 18.352690 71.621063 39.660812
vertex 18.397892 69.625435 42.287102
endloop
endfacet
facet normal 0.013697 -0.604954 0.796142
outer loop
vertex 21.287037 72.807137 40.511559
vertex 20.769993 72.834305 40.541103
vertex 21.208605 72.476120 40.261375
endloop
endfacet
facet normal -0.013655 0.604963 -0.796137
outer loop
vertex 18.449802 70.141251 42.678158
vertex 18.558590 70.343918 42.830288
vertex 18.506681 69.828110 42.439232
endloop
endfacet
facet normal -0.828408 0.439017 0.347858
outer loop
vertex 18.624479 72.017105 39.957069
vertex 18.461477 71.823738 39.812939
vertex 18.506681 69.828110 42.439232
endloop
endfacet
facet normal -0.013906 0.604989 -0.796112
outer loop
vertex 21.477364 69.948898 42.479881
vertex 21.529274 70.464714 42.870941
vertex 21.539213 70.266876 42.720436
endloop
endfacet
facet normal 0.013808 -0.604906 0.796177
outer loop
vertex 21.494007 72.262497 40.094147
vertex 21.484070 72.460342 40.244652
vertex 21.432159 71.944519 39.853592
endloop
endfacet
facet normal -0.911680 0.319446 0.258443
outer loop
vertex 18.727077 72.199318 40.093758
vertex 18.624479 72.017105 39.957069
vertex 18.669685 70.021477 42.583359
endloop
endfacet
facet normal -0.841131 0.423544 0.336316
outer loop
vertex 18.772285 70.203690 42.720055
vertex 19.171568 70.701645 43.091560
vertex 19.126362 72.697281 40.465271
endloop
endfacet
facet normal 0.013700 -0.604972 0.796129
outer loop
vertex 21.328121 69.344208 42.022968
vertex 21.380030 69.860023 42.414028
vertex 21.217028 69.666649 42.269894
endloop
endfacet
facet normal -0.013812 0.604994 -0.796111
outer loop
vertex 18.399414 69.937073 42.523880
vertex 18.449802 70.141251 42.678158
vertex 18.397892 69.625435 42.287102
endloop
endfacet
facet normal -0.013655 0.604980 -0.796124
outer loop
vertex 21.334824 71.855652 39.787735
vertex 21.443613 72.058319 39.939865
vertex 21.391703 71.542503 39.548805
endloop
endfacet
facet normal -0.013731 0.604959 -0.796138
outer loop
vertex 18.382120 71.035149 39.215088
vertex 18.434027 71.550964 39.606140
vertex 18.561174 71.388069 39.480171
endloop
endfacet
facet normal 0.013613 -0.604920 0.796170
outer loop
vertex 18.352690 71.621063 39.660812
vertex 18.404598 72.136887 40.051868
vertex 18.354208 71.932709 39.897587
endloop
endfacet
facet normal -0.850759 -0.425408 -0.308605
outer loop
vertex 18.382120 71.035149 39.215088
vertex 18.509266 70.872253 39.089115
vertex 18.554468 68.876617 41.715408
endloop
endfacet
facet normal 0.013810 -0.604977 0.796123
outer loop
vertex 18.409348 69.739235 42.373375
vertex 18.399414 69.937073 42.523880
vertex 18.347504 69.421257 42.132820
endloop
endfacet
facet normal 0.013715 -0.604947 0.796147
outer loop
vertex 18.785906 69.256813 42.000317
vertex 18.606380 69.392441 42.106468
vertex 18.554468 68.876617 41.715408
endloop
endfacet
facet normal -0.692155 -0.580357 -0.429077
outer loop
vertex 18.509266 70.872253 39.089115
vertex 18.688791 70.736626 38.982967
vertex 18.733997 68.740997 41.609261
endloop
endfacet
facet normal -0.013671 0.604944 -0.796151
outer loop
vertex 21.407478 70.132797 42.620827
vertex 21.459389 70.648613 43.011883
vertex 21.529274 70.464714 42.870941
endloop
endfacet
facet normal 0.013703 -0.604974 0.796127
outer loop
vertex 19.272738 69.086960 41.862873
vertex 19.010904 69.153656 41.918064
vertex 18.958996 68.637848 41.527008
endloop
endfacet
facet normal -0.505642 -0.691099 -0.516438
outer loop
vertex 18.688791 70.736626 38.982967
vertex 18.913792 70.633469 38.900719
vertex 18.958996 68.637848 41.527008
endloop
endfacet
facet normal 0.013700 -0.604964 0.796135
outer loop
vertex 18.606380 69.392441 42.106468
vertex 18.479233 69.555328 42.232430
vertex 18.427322 69.039520 41.841373
endloop
endfacet
facet normal -0.013698 0.604959 -0.796138
outer loop
vertex 19.820415 71.067261 39.214729
vertex 20.128681 71.119225 39.248913
vertex 20.076775 70.603409 38.857853
endloop
endfacet
facet normal -0.313622 -0.758635 -0.571064
outer loop
vertex 18.913792 70.633469 38.900719
vertex 19.175625 70.566772 38.845520
vertex 19.220829 68.571136 41.471813
endloop
endfacet
facet normal -0.013687 0.604965 -0.796134
outer loop
vertex 18.913792 70.633469 38.900719
vertex 18.965700 71.149292 39.291771
vertex 19.227533 71.082588 39.236580
endloop
endfacet
facet normal -0.013724 0.604943 -0.796151
outer loop
vertex 20.429085 71.208794 39.311798
vertex 20.710083 71.332520 39.400974
vertex 20.658173 70.816696 39.009914
endloop
endfacet
facet normal -0.129823 -0.790552 -0.598475
outer loop
vertex 19.175625 70.566772 38.845520
vertex 19.464230 70.539070 38.819508
vertex 19.509434 68.543442 41.445801
endloop
endfacet
facet normal -0.013717 0.604942 -0.796152
outer loop
vertex 21.253811 70.480484 42.887672
vertex 20.815199 70.838676 43.167393
vertex 21.332239 70.811508 43.137848
endloop
endfacet
facet normal 0.013711 -0.604973 0.796128
outer loop
vertex 19.813713 68.555817 41.449959
vertex 19.865622 69.071625 41.841019
vertex 19.561340 69.059258 41.836857
endloop
endfacet
facet normal 0.040618 -0.795218 -0.604962
outer loop
vertex 19.509434 68.543442 41.445801
vertex 19.464230 70.539070 38.819508
vertex 19.768507 70.551445 38.823673
endloop
endfacet
facet normal -0.013717 0.604946 -0.796149
outer loop
vertex 19.516136 71.054886 39.210564
vertex 19.820415 71.067261 39.214729
vertex 19.768507 70.551445 38.823673
endloop
endfacet
facet normal 0.013722 -0.604964 0.796135
outer loop
vertex 20.422382 68.697350 41.547035
vertex 20.474291 69.213165 41.938091
vertex 20.173885 69.123596 41.875202
endloop
endfacet
facet normal 0.197297 -0.778924 -0.595275
outer loop
vertex 19.813713 68.555817 41.449959
vertex 19.768507 70.551445 38.823673
vertex 20.076775 70.603409 38.857853
endloop
endfacet
facet normal 0.013658 -0.604962 0.796138
outer loop
vertex 19.010904 69.153656 41.918064
vertex 18.785906 69.256813 42.000317
vertex 18.733997 68.740997 41.609261
endloop
endfacet
facet normal -0.013686 0.604967 -0.796133
outer loop
vertex 20.960875 71.485641 39.513012
vertex 21.171822 71.662277 39.643604
vertex 21.119915 71.146469 39.252544
endloop
endfacet
facet normal 0.342054 -0.745338 -0.572251
outer loop
vertex 20.121977 68.607780 41.484146
vertex 20.076775 70.603409 38.857853
vertex 20.377178 70.692978 38.920742
endloop
endfacet
facet normal -0.013720 0.604955 -0.796142
outer loop
vertex 20.128681 71.119225 39.248913
vertex 20.429085 71.208794 39.311798
vertex 20.377178 70.692978 38.920742
endloop
endfacet
facet normal 0.476809 -0.695903 -0.537003
outer loop
vertex 20.422382 68.697350 41.547035
vertex 20.377178 70.692978 38.920742
vertex 20.658173 70.816696 39.009914
endloop
endfacet
facet normal 0.013691 -0.604955 0.796142
outer loop
vertex 19.509434 68.543442 41.445801
vertex 19.561340 69.059258 41.836857
vertex 19.272738 69.086960 41.862873
endloop
endfacet
facet normal 0.603196 -0.630017 -0.489114
outer loop
vertex 20.703377 68.821068 41.636208
vertex 20.658173 70.816696 39.009914
vertex 20.908962 70.969826 39.121956
endloop
endfacet
facet normal 0.719427 0.558935 0.412331
outer loop
vertex 20.769993 72.834305 40.541103
vertex 20.815199 70.838676 43.167393
vertex 21.253811 70.480484 42.887672
endloop
endfacet
facet normal 0.721150 -0.545565 -0.426969
outer loop
vertex 20.954170 68.974197 41.748245
vertex 20.908962 70.969826 39.121956
vertex 21.119915 71.146469 39.252544
endloop
endfacet
facet normal -0.013708 0.604949 -0.796146
outer loop
vertex 20.710083 71.332520 39.400974
vertex 20.960875 71.485641 39.513012
vertex 20.908962 70.969826 39.121956
endloop
endfacet
facet normal 0.828405 -0.439025 -0.347854
outer loop
vertex 21.165119 69.150833 41.878838
vertex 21.119915 71.146469 39.252544
vertex 21.282915 71.339836 39.396675
endloop
endfacet
facet normal 0.013713 -0.604962 0.796136
outer loop
vertex 20.121977 68.607780 41.484146
vertex 20.173885 69.123596 41.875202
vertex 19.865622 69.071625 41.841019
endloop
endfacet
facet normal 0.918805 -0.306498 -0.248711
outer loop
vertex 21.328121 69.344208 42.022968
vertex 21.282915 71.339836 39.396675
vertex 21.391703 71.542503 39.548805
endloop
endfacet
facet normal 0.013692 -0.604972 0.796129
outer loop
vertex 20.703377 68.821068 41.636208
vertex 20.755287 69.336884 42.027264
vertex 20.474291 69.213165 41.938091
endloop
endfacet
facet normal 0.981063 -0.145711 -0.127607
outer loop
vertex 21.436909 69.546875 42.175098
vertex 21.391703 71.542503 39.548805
vertex 21.442097 71.746689 39.703087
endloop
endfacet
facet normal 0.013710 -0.604972 0.796129
outer loop
vertex 18.727077 72.199318 40.093758
vertex 19.126362 72.697281 40.465271
vertex 18.676388 72.532921 40.348125
endloop
endfacet
facet normal 0.999108 0.040085 0.013268
outer loop
vertex 21.487303 69.751053 42.329380
vertex 21.442097 71.746689 39.703087
vertex 21.432159 71.944519 39.853592
endloop
endfacet
facet normal -0.013700 0.604956 -0.796141
outer loop
vertex 21.171822 71.662277 39.643604
vertex 21.334824 71.855652 39.787735
vertex 21.282915 71.339836 39.396675
endloop
endfacet
facet normal 0.957304 0.237872 0.164274
outer loop
vertex 21.477364 69.948898 42.479881
vertex 21.432159 71.944519 39.853592
vertex 21.362274 72.128426 39.994537
endloop
endfacet
facet normal 0.013688 -0.604954 0.796142
outer loop
vertex 18.461477 71.823738 39.812939
vertex 18.513386 72.339554 40.203999
vertex 18.404598 72.136887 40.051868
endloop
endfacet
facet normal 0.850753 0.425415 0.308614
outer loop
vertex 21.407478 70.132797 42.620827
vertex 21.362274 72.128426 39.994537
vertex 21.235126 72.291321 40.120499
endloop
endfacet
facet normal 0.013693 -0.604955 0.796142
outer loop
vertex 21.165119 69.150833 41.878838
vertex 21.217028 69.666649 42.269894
vertex 21.006081 69.490013 42.139301
endloop
endfacet
facet normal 0.993456 0.098527 0.057773
outer loop
vertex 21.280331 70.295692 42.746796
vertex 21.235126 72.291321 40.120499
vertex 21.208605 72.476120 40.261375
endloop
endfacet
facet normal -0.013612 0.604955 -0.796143
outer loop
vertex 21.443613 72.058319 39.939865
vertex 21.494007 72.262497 40.094147
vertex 21.442097 71.746689 39.703087
endloop
endfacet
facet normal -0.013514 0.604962 -0.796140
outer loop
vertex 18.302299 71.416885 39.506531
vertex 18.354208 71.932709 39.897587
vertex 18.364143 71.734863 39.747086
endloop
endfacet
facet normal -0.013700 0.604970 -0.796130
outer loop
vertex 18.558590 70.343918 42.830288
vertex 18.721594 70.537292 42.974419
vertex 18.669685 70.021477 42.583359
endloop
endfacet
facet normal 0.013688 -0.604946 0.796149
outer loop
vertex 21.436909 69.546875 42.175098
vertex 21.488817 70.062691 42.566154
vertex 21.380030 69.860023 42.414028
endloop
endfacet
facet normal -0.013705 0.604958 -0.796139
outer loop
vertex 18.721594 70.537292 42.974419
vertex 19.171568 70.701645 43.091560
vertex 18.772285 70.203690 42.720055
endloop
endfacet
facet normal 0.013655 -0.604959 0.796140
outer loop
vertex 21.484070 72.460342 40.244652
vertex 21.414183 72.644241 40.385593
vertex 21.362274 72.128426 39.994537
endloop
endfacet
facet normal 0.013752 -0.604965 0.796133
outer loop
vertex 18.624479 72.017105 39.957069
vertex 18.676388 72.532921 40.348125
vertex 18.513386 72.339554 40.203999
endloop
endfacet
facet normal 0.013726 -0.604944 0.796149
outer loop
vertex 20.954170 68.974197 41.748245
vertex 21.006081 69.490013 42.139301
vertex 20.755287 69.336884 42.027264
endloop
endfacet
facet normal -0.013614 0.604928 -0.796163
outer loop
vertex 18.333162 71.427032 39.513710
vertex 18.282772 71.222855 39.359428
vertex 18.334681 71.738670 39.750484
endloop
endfacet
facet normal 0.013659 -0.604952 0.796145
outer loop
vertex 18.362595 70.841110 39.067978
vertex 18.489740 70.678215 38.942017
vertex 18.541651 71.194031 39.333069
endloop
endfacet
facet normal 0.013788 -0.604962 0.796135
outer loop
vertex 21.372175 71.348473 39.401703
vertex 21.424088 71.864288 39.792759
vertex 21.315300 71.661621 39.640633
endloop
endfacet
facet normal 0.013712 -0.604947 0.796148
outer loop
vertex 18.378368 69.431404 42.139999
vertex 18.430275 69.947220 42.531055
vertex 18.379885 69.743042 42.376774
endloop
endfacet
facet normal -0.013700 0.604956 -0.796141
outer loop
vertex 21.308592 69.150177 41.875862
vertex 21.145592 68.956802 41.731735
vertex 21.197500 69.472618 42.122791
endloop
endfacet
facet normal 0.013611 -0.604920 0.796170
outer loop
vertex 21.457838 69.754860 42.332779
vertex 21.467777 69.557022 42.182278
vertex 21.519684 70.072838 42.573334
endloop
endfacet
facet normal 0.013655 -0.604965 0.796135
outer loop
vertex 18.487156 69.634071 42.292130
vertex 18.539064 70.149887 42.683182
vertex 18.430275 69.947220 42.531055
endloop
endfacet
facet normal 0.013677 -0.604944 0.796150
outer loop
vertex 21.215601 72.097290 39.973396
vertex 21.373596 72.341377 40.156155
vertex 20.934986 72.699570 40.435879
endloop
endfacet
facet normal 0.013722 -0.604944 0.796150
outer loop
vertex 18.292707 71.025009 39.208923
vertex 18.362595 70.841110 39.067978
vertex 18.414499 71.356926 39.459038
endloop
endfacet
facet normal 0.013708 -0.604965 0.796134
outer loop
vertex 18.669266 70.542587 38.835865
vertex 18.894264 70.439438 38.753613
vertex 18.946175 70.955254 39.144669
endloop
endfacet
facet normal -0.013414 0.604933 -0.796163
outer loop
vertex 21.467777 69.557022 42.182278
vertex 21.417381 69.352844 42.027992
vertex 21.469292 69.868660 42.419052
endloop
endfacet
facet normal -0.013689 0.604947 -0.796148
outer loop
vertex 18.337912 69.029381 41.835213
vertex 18.389822 69.545197 42.226269
vertex 18.459705 69.361298 42.085327
endloop
endfacet
facet normal -0.013700 0.604949 -0.796146
outer loop
vertex 21.215601 72.097290 39.973396
vertex 21.267511 72.613106 40.364452
vertex 21.394655 72.450211 40.238487
endloop
endfacet
facet normal 0.013742 -0.604955 0.796141
outer loop
vertex 21.260807 70.101654 42.599689
vertex 21.387951 69.938766 42.473724
vertex 21.439861 70.454575 42.864780
endloop
endfacet
facet normal 0.013713 -0.604952 0.796144
outer loop
vertex 19.444700 70.345039 38.672401
vertex 19.496609 70.860855 39.063461
vertex 19.208006 70.888550 39.089478
endloop
endfacet
facet normal -0.013611 0.604963 -0.796137
outer loop
vertex 18.327974 69.227226 41.985718
vertex 18.379885 69.743042 42.376774
vertex 18.389822 69.545197 42.226269
endloop
endfacet
facet normal -0.013731 0.604963 -0.796135
outer loop
vertex 18.534943 68.682587 41.568302
vertex 18.586855 69.198402 41.959358
vertex 18.766378 69.062775 41.853210
endloop
endfacet
facet normal 0.013655 -0.604980 0.796124
outer loop
vertex 21.387951 69.938766 42.473724
vertex 21.457838 69.754860 42.332779
vertex 21.509747 70.270676 42.723835
endloop
endfacet
facet normal -0.013684 0.604969 -0.796132
outer loop
vertex 18.939468 68.443810 41.379902
vertex 18.991375 68.959625 41.770962
vertex 19.253212 68.892921 41.715767
endloop
endfacet
facet normal -0.013731 0.604965 -0.796134
outer loop
vertex 18.407795 68.845482 41.694271
vertex 18.459705 69.361298 42.085327
vertex 18.586855 69.198402 41.959358
endloop
endfacet
facet normal 0.013698 -0.604953 0.796144
outer loop
vertex 20.057245 70.409378 38.710751
vertex 20.109154 70.925194 39.101807
vertex 19.800890 70.873230 39.067627
endloop
endfacet
facet normal 0.013703 -0.604955 0.796142
outer loop
vertex 18.894264 70.439438 38.753613
vertex 19.156097 70.372734 38.698418
vertex 19.208006 70.888550 39.089478
endloop
endfacet
facet normal 0.013719 -0.604966 0.796133
outer loop
vertex 20.638647 70.622665 38.862812
vertex 20.690557 71.138481 39.253868
vertex 20.409557 71.014755 39.164696
endloop
endfacet
facet normal -0.013723 0.604948 -0.796147
outer loop
vertex 21.418802 70.345749 42.782444
vertex 21.260807 70.101654 42.599689
vertex 21.312714 70.617477 42.990746
endloop
endfacet
facet normal -0.013698 0.604964 -0.796135
outer loop
vertex 19.794188 68.361778 41.302860
vertex 19.489906 68.349411 41.298695
vertex 19.541815 68.865219 41.689751
endloop
endfacet
facet normal 0.013703 -0.604963 0.796135
outer loop
vertex 19.748981 70.357407 38.676567
vertex 19.800890 70.873230 39.067627
vertex 19.496609 70.860855 39.063461
endloop
endfacet
facet normal -0.013699 0.604959 -0.796138
outer loop
vertex 20.402855 68.503311 41.399929
vertex 20.102451 68.413750 41.337040
vertex 20.154358 68.929565 41.728100
endloop
endfacet
facet normal -0.013714 0.604959 -0.796139
outer loop
vertex 18.714470 68.546959 41.462154
vertex 18.766378 69.062775 41.853210
vertex 18.991375 68.959625 41.770962
endloop
endfacet
facet normal 0.013648 -0.604968 0.796133
outer loop
vertex 21.100386 70.952431 39.105442
vertex 21.152294 71.468246 39.496498
vertex 20.941349 71.291611 39.365906
endloop
endfacet
facet normal 0.013680 -0.604969 0.796132
outer loop
vertex 20.357651 70.498947 38.773640
vertex 20.409557 71.014755 39.164696
vertex 20.109154 70.925194 39.101807
endloop
endfacet
facet normal -0.013699 0.604955 -0.796142
outer loop
vertex 19.489906 68.349411 41.298695
vertex 19.201302 68.377106 41.324707
vertex 19.253212 68.892921 41.715767
endloop
endfacet
facet normal 0.013695 -0.604971 0.796130
outer loop
vertex 20.889439 70.775787 38.974850
vertex 20.941349 71.291611 39.365906
vertex 20.690557 71.138481 39.253868
endloop
endfacet
facet normal -0.013717 0.604960 -0.796138
outer loop
vertex 20.102451 68.413750 41.337040
vertex 19.794188 68.361778 41.302860
vertex 19.846096 68.877594 41.693916
endloop
endfacet
facet normal -0.013725 0.604935 -0.796157
outer loop
vertex 20.683849 68.627037 41.489105
vertex 20.402855 68.503311 41.399929
vertex 20.454763 69.019135 41.790985
endloop
endfacet
facet normal 0.013679 -0.604952 0.796144
outer loop
vertex 21.263390 71.145798 39.249573
vertex 21.315300 71.661621 39.640633
vertex 21.152294 71.468246 39.496498
endloop
endfacet
facet normal -0.013788 0.604985 -0.796117
outer loop
vertex 18.441952 71.629700 39.665833
vertex 18.333162 71.427032 39.513710
vertex 18.385071 71.942848 39.904762
endloop
endfacet
facet normal -0.013685 0.604963 -0.796136
outer loop
vertex 21.145592 68.956802 41.731735
vertex 20.934641 68.780159 41.601143
vertex 20.986553 69.295975 41.992199
endloop
endfacet
facet normal 0.013614 -0.604901 0.796184
outer loop
vertex 21.422573 71.552650 39.555984
vertex 21.474478 72.068466 39.947041
vertex 21.424088 71.864288 39.792759
endloop
endfacet
facet normal 0.014005 -0.604979 0.796118
outer loop
vertex 18.282772 71.222855 39.359428
vertex 18.292707 71.025009 39.208923
vertex 18.344620 71.540833 39.599979
endloop
endfacet
facet normal 0.013700 -0.604956 0.796141
outer loop
vertex 18.650158 69.827438 42.436256
vertex 18.702065 70.343262 42.827316
vertex 18.539064 70.149887 42.683182
endloop
endfacet
facet normal -0.013722 0.604962 -0.796136
outer loop
vertex 21.417381 69.352844 42.027992
vertex 21.308592 69.150177 41.875862
vertex 21.360504 69.665985 42.266922
endloop
endfacet
facet normal -0.013688 0.604959 -0.796139
outer loop
vertex 18.650158 69.827438 42.436256
vertex 18.622084 70.016373 42.580299
vertex 19.021366 70.514328 42.951813
endloop
endfacet
facet normal -0.013738 0.604956 -0.796140
outer loop
vertex 21.342747 71.934387 39.847431
vertex 21.394655 72.450211 40.238487
vertex 21.464542 72.266312 40.097542
endloop
endfacet
facet normal -0.013700 0.604953 -0.796143
outer loop
vertex 18.604954 71.823074 39.809967
vertex 18.441952 71.629700 39.665833
vertex 18.493860 72.145515 40.056892
endloop
endfacet
facet normal -0.013683 0.604963 -0.796136
outer loop
vertex 20.934641 68.780159 41.601143
vertex 20.683849 68.627037 41.489105
vertex 20.735762 69.142853 41.880161
endloop
endfacet
facet normal 0.013644 -0.604968 0.796133
outer loop
vertex 19.021366 70.514328 42.951813
vertex 18.913017 70.519897 42.957905
vertex 18.702065 70.343262 42.827316
endloop
endfacet
facet normal -0.013708 0.604967 -0.796132
outer loop
vertex 20.934986 72.699570 40.435879
vertex 21.087988 72.748734 40.470604
vertex 21.267511 72.613106 40.364452
endloop
endfacet
facet normal -0.013691 0.604881 -0.796198
outer loop
vertex 18.656860 72.338890 40.201023
vertex 18.867811 72.515533 40.331615
vertex 18.976162 72.509964 40.325520
endloop
endfacet
facet normal 0.013721 -0.604943 0.796151
outer loop
vertex 21.312714 70.617477 42.990746
vertex 21.133190 70.753098 43.096893
vertex 20.980192 70.703934 43.062172
endloop
endfacet
facet normal -0.365833 0.737969 0.567069
outer loop
vertex 20.980192 70.703934 43.062172
vertex 21.133190 70.753098 43.096893
vertex 21.087988 72.748734 40.470604
endloop
endfacet
facet normal -0.013372 0.604956 -0.796147
outer loop
vertex 18.379885 69.743042 42.376774
vertex 18.399414 69.937073 42.523880
vertex 18.409348 69.739235 42.373375
endloop
endfacet
facet normal -0.013698 0.604930 -0.796161
outer loop
vertex 20.755287 69.336884 42.027264
vertex 21.006081 69.490013 42.139301
vertex 20.986553 69.295975 41.992199
endloop
endfacet
facet normal -0.013590 0.604965 -0.796136
outer loop
vertex 18.404598 72.136887 40.051868
vertex 18.513386 72.339554 40.203999
vertex 18.493860 72.145515 40.056892
endloop
endfacet
facet normal 0.013723 -0.604923 0.796165
outer loop
vertex 21.529274 70.464714 42.870941
vertex 21.459389 70.648613 43.011883
vertex 21.439861 70.454575 42.864780
endloop
endfacet
facet normal -0.013658 0.604957 -0.796141
outer loop
vertex 21.267511 72.613106 40.364452
vertex 21.287037 72.807137 40.511559
vertex 21.414183 72.644241 40.385593
endloop
endfacet
facet normal 0.013900 -0.604913 0.796170
outer loop
vertex 18.430275 69.947220 42.531055
vertex 18.449802 70.141251 42.678158
vertex 18.399414 69.937073 42.523880
endloop
endfacet
facet normal -0.013714 0.604975 -0.796127
outer loop
vertex 19.561340 69.059258 41.836857
vertex 19.865622 69.071625 41.841019
vertex 19.846096 68.877594 41.693916
endloop
endfacet
facet normal 0.013635 -0.604989 0.796117
outer loop
vertex 18.539064 70.149887 42.683182
vertex 18.558590 70.343918 42.830288
vertex 18.449802 70.141251 42.678158
endloop
endfacet
facet normal 0.013681 -0.604962 0.796137
outer loop
vertex 20.109154 70.925194 39.101807
vertex 20.128681 71.119225 39.248913
vertex 19.820415 71.067261 39.214729
endloop
endfacet
facet normal 0.013685 -0.604983 0.796121
outer loop
vertex 18.702065 70.343262 42.827316
vertex 18.721594 70.537292 42.974419
vertex 18.558590 70.343918 42.830288
endloop
endfacet
facet normal 0.013702 -0.604972 0.796129
outer loop
vertex 18.913017 70.519897 42.957905
vertex 19.171568 70.701645 43.091560
vertex 18.721594 70.537292 42.974419
endloop
endfacet
facet normal 0.013717 -0.604918 0.796169
outer loop
vertex 20.409557 71.014755 39.164696
vertex 20.429085 71.208794 39.311798
vertex 20.128681 71.119225 39.248913
endloop
endfacet
facet normal 0.013634 -0.604987 0.796118
outer loop
vertex 21.539213 70.266876 42.720436
vertex 21.529274 70.464714 42.870941
vertex 21.509747 70.270676 42.723835
endloop
endfacet
facet normal -0.013679 0.604975 -0.796127
outer loop
vertex 21.394655 72.450211 40.238487
vertex 21.414183 72.644241 40.385593
vertex 21.484070 72.460342 40.244652
endloop
endfacet
facet normal -0.013698 0.604948 -0.796147
outer loop
vertex 18.766378 69.062775 41.853210
vertex 18.785906 69.256813 42.000317
vertex 19.010904 69.153656 41.918064
endloop
endfacet
facet normal -0.013712 0.604964 -0.796135
outer loop
vertex 18.513386 72.339554 40.203999
vertex 18.676388 72.532921 40.348125
vertex 18.656860 72.338890 40.201023
endloop
endfacet
facet normal -0.013685 0.604964 -0.796135
outer loop
vertex 21.217028 69.666649 42.269894
vertex 21.380030 69.860023 42.414028
vertex 21.360504 69.665985 42.266922
endloop
endfacet
facet normal 0.657331 -0.594532 -0.463084
outer loop
vertex 19.126362 72.697281 40.465271
vertex 19.171568 70.701645 43.091560
vertex 18.913017 70.519897 42.957905
endloop
endfacet
facet normal 0.013696 -0.604930 0.796161
outer loop
vertex 20.690557 71.138481 39.253868
vertex 20.710083 71.332520 39.400974
vertex 20.429085 71.208794 39.311798
endloop
endfacet
facet normal -0.328958 -0.754618 -0.567749
outer loop
vertex 21.133190 70.753098 43.096893
vertex 20.815199 70.838676 43.167393
vertex 20.769993 72.834305 40.541103
endloop
endfacet
facet normal -0.013722 0.604997 -0.796110
outer loop
vertex 18.676388 72.532921 40.348125
vertex 19.126362 72.697281 40.465271
vertex 18.867811 72.515533 40.331615
endloop
endfacet
facet normal 0.013712 -0.604974 0.796127
outer loop
vertex 21.315300 71.661621 39.640633
vertex 21.334824 71.855652 39.787735
vertex 21.171822 71.662277 39.643604
endloop
endfacet
facet normal -0.013694 0.604973 -0.796128
outer loop
vertex 21.006081 69.490013 42.139301
vertex 21.217028 69.666649 42.269894
vertex 21.197500 69.472618 42.122791
endloop
endfacet
facet normal -0.013372 0.604948 -0.796153
outer loop
vertex 21.464542 72.266312 40.097542
vertex 21.484070 72.460342 40.244652
vertex 21.494007 72.262497 40.094147
endloop
endfacet
facet normal -0.013705 0.604970 -0.796130
outer loop
vertex 18.991375 68.959625 41.770962
vertex 19.010904 69.153656 41.918064
vertex 19.272738 69.086960 41.862873
endloop
endfacet
facet normal 0.013688 -0.604966 0.796133
outer loop
vertex 19.496609 70.860855 39.063461
vertex 19.516136 71.054886 39.210564
vertex 19.227533 71.082588 39.236580
endloop
endfacet
facet normal -0.013723 0.604936 -0.796156
outer loop
vertex 21.380030 69.860023 42.414028
vertex 21.488817 70.062691 42.566154
vertex 21.469292 69.868660 42.419052
endloop
endfacet
facet normal 0.013765 -0.605018 0.796093
outer loop
vertex 18.364143 71.734863 39.747086
vertex 18.354208 71.932709 39.897587
vertex 18.334681 71.738670 39.750484
endloop
endfacet
facet normal 0.013899 -0.604955 0.796138
outer loop
vertex 21.474478 72.068466 39.947041
vertex 21.494007 72.262497 40.094147
vertex 21.443613 72.058319 39.939865
endloop
endfacet
facet normal -0.013724 0.604968 -0.796132
outer loop
vertex 18.389822 69.545197 42.226269
vertex 18.409348 69.739235 42.373375
vertex 18.479233 69.555328 42.232430
endloop
endfacet
facet normal 0.013712 -0.604969 0.796131
outer loop
vertex 19.227533 71.082588 39.236580
vertex 18.965700 71.149292 39.291771
vertex 18.946175 70.955254 39.144669
endloop
endfacet
facet normal 0.013712 -0.604965 0.796134
outer loop
vertex 18.561174 71.388069 39.480171
vertex 18.434027 71.550964 39.606140
vertex 18.414499 71.356926 39.459038
endloop
endfacet
facet normal -0.013733 0.604965 -0.796134
outer loop
vertex 18.586855 69.198402 41.959358
vertex 18.606380 69.392441 42.106468
vertex 18.785906 69.256813 42.000317
endloop
endfacet
facet normal 0.013699 -0.604920 0.796169
outer loop
vertex 21.332239 70.811508 43.137848
vertex 20.815199 70.838676 43.167393
vertex 21.133190 70.753098 43.096893
endloop
endfacet
facet normal -0.013697 0.604958 -0.796139
outer loop
vertex 20.173885 69.123596 41.875202
vertex 20.474291 69.213165 41.938091
vertex 20.454763 69.019135 41.790985
endloop
endfacet
facet normal 0.013715 -0.604983 0.796120
outer loop
vertex 18.965700 71.149292 39.291771
vertex 18.740700 71.252441 39.374027
vertex 18.721172 71.058411 39.226921
endloop
endfacet
facet normal -0.013700 0.604961 -0.796137
outer loop
vertex 21.087988 72.748734 40.470604
vertex 20.769993 72.834305 40.541103
vertex 21.287037 72.807137 40.511559
endloop
endfacet
facet normal -0.013698 0.604986 -0.796118
outer loop
vertex 20.474291 69.213165 41.938091
vertex 20.755287 69.336884 42.027264
vertex 20.735762 69.142853 41.880161
endloop
endfacet
facet normal 0.013685 -0.604952 0.796144
outer loop
vertex 21.459389 70.648613 43.011883
vertex 21.332239 70.811508 43.137848
vertex 21.312714 70.617477 42.990746
endloop
endfacet
facet normal 0.013694 -0.604957 0.796140
outer loop
vertex 18.740700 71.252441 39.374027
vertex 18.561174 71.388069 39.480171
vertex 18.541651 71.194031 39.333069
endloop
endfacet
facet normal -0.013713 0.604951 -0.796144
outer loop
vertex 19.865622 69.071625 41.841019
vertex 20.173885 69.123596 41.875202
vertex 20.154358 68.929565 41.728100
endloop
endfacet
facet normal 0.013694 -0.604968 0.796132
outer loop
vertex 21.152294 71.468246 39.496498
vertex 21.171822 71.662277 39.643604
vertex 20.960875 71.485641 39.513012
endloop
endfacet
facet normal -0.013373 0.604954 -0.796148
outer loop
vertex 18.354208 71.932709 39.897587
vertex 18.404598 72.136887 40.051868
vertex 18.385071 71.942848 39.904762
endloop
endfacet
facet normal -0.328932 -0.754622 -0.567758
outer loop
vertex 21.087988 72.748734 40.470604
vertex 21.133190 70.753098 43.096893
vertex 20.769993 72.834305 40.541103
endloop
endfacet
facet normal 0.841131 -0.423544 -0.336316
outer loop
vertex 19.021366 70.514328 42.951813
vertex 18.622084 70.016373 42.580299
vertex 18.976162 72.509964 40.325520
endloop
endfacet
facet normal 0.992995 0.101691 0.060169
outer loop
vertex 18.622084 70.016373 42.580299
vertex 18.650158 69.827438 42.436256
vertex 18.576878 72.012001 39.954010
endloop
endfacet
facet normal -0.013712 0.604904 -0.796180
outer loop
vertex 21.422573 71.552650 39.555984
vertex 21.412636 71.750488 39.706486
vertex 21.474478 72.068466 39.947041
endloop
endfacet
facet normal 0.828400 -0.439029 -0.347861
outer loop
vertex 18.650158 69.827438 42.436256
vertex 18.487156 69.634071 42.292130
vertex 18.604954 71.823074 39.809967
endloop
endfacet
facet normal 0.918803 -0.306497 -0.248716
outer loop
vertex 18.487156 69.634071 42.292130
vertex 18.378368 69.431404 42.139999
vertex 18.441952 71.629700 39.665833
endloop
endfacet
facet normal 0.981062 -0.145714 -0.127610
outer loop
vertex 18.378368 69.431404 42.139999
vertex 18.327974 69.227226 41.985718
vertex 18.333162 71.427032 39.513710
endloop
endfacet
facet normal 0.999109 0.040076 0.013267
outer loop
vertex 18.327974 69.227226 41.985718
vertex 18.337912 69.029381 41.835213
vertex 18.282772 71.222855 39.359428
endloop
endfacet
facet normal 0.957300 0.237882 0.164282
outer loop
vertex 18.337912 69.029381 41.835213
vertex 18.407795 68.845482 41.694271
vertex 18.292707 71.025009 39.208923
endloop
endfacet
facet normal 0.013731 -0.604960 0.796138
outer loop
vertex 18.541651 71.194031 39.333069
vertex 18.489740 70.678215 38.942017
vertex 18.721172 71.058411 39.226921
endloop
endfacet
facet normal 0.850769 0.425394 0.308596
outer loop
vertex 18.407795 68.845482 41.694271
vertex 18.534943 68.682587 41.568302
vertex 18.362595 70.841110 39.067978
endloop
endfacet
facet normal 0.692135 0.580371 0.429091
outer loop
vertex 18.534943 68.682587 41.568302
vertex 18.714470 68.546959 41.462154
vertex 18.489740 70.678215 38.942017
endloop
endfacet
facet normal 0.505625 0.691108 0.516443
outer loop
vertex 18.714470 68.546959 41.462154
vertex 18.939468 68.443810 41.379902
vertex 18.669266 70.542587 38.835865
endloop
endfacet
facet normal 0.313638 0.758634 0.571057
outer loop
vertex 18.939468 68.443810 41.379902
vertex 19.201302 68.377106 41.324707
vertex 18.894264 70.439438 38.753613
endloop
endfacet
facet normal 0.129777 0.790556 0.598481
outer loop
vertex 19.201302 68.377106 41.324707
vertex 19.489906 68.349411 41.298695
vertex 19.156097 70.372734 38.698418
endloop
endfacet
facet normal -0.040612 0.795217 0.604963
outer loop
vertex 19.444700 70.345039 38.672401
vertex 19.489906 68.349411 41.298695
vertex 19.748981 70.357407 38.676567
endloop
endfacet
facet normal -0.197318 0.778924 0.595267
outer loop
vertex 19.748981 70.357407 38.676567
vertex 19.794188 68.361778 41.302860
vertex 20.057245 70.409378 38.710751
endloop
endfacet
facet normal -0.342041 0.745344 0.572251
outer loop
vertex 20.057245 70.409378 38.710751
vertex 20.102451 68.413750 41.337040
vertex 20.357651 70.498947 38.773640
endloop
endfacet
facet normal -0.476812 0.695904 0.536998
outer loop
vertex 20.357651 70.498947 38.773640
vertex 20.402855 68.503311 41.399929
vertex 20.638647 70.622665 38.862812
endloop
endfacet
facet normal -0.603185 0.630029 0.489113
outer loop
vertex 20.638647 70.622665 38.862812
vertex 20.683849 68.627037 41.489105
vertex 20.889439 70.775787 38.974850
endloop
endfacet
facet normal -0.719423 -0.558934 -0.412339
outer loop
vertex 21.373596 72.341377 40.156155
vertex 21.418802 70.345749 42.782444
vertex 20.934986 72.699570 40.435879
endloop
endfacet
facet normal -0.721163 0.545554 0.426960
outer loop
vertex 20.889439 70.775787 38.974850
vertex 20.934641 68.780159 41.601143
vertex 21.100386 70.952431 39.105442
endloop
endfacet
facet normal -0.828399 0.439028 0.347863
outer loop
vertex 21.100386 70.952431 39.105442
vertex 21.145592 68.956802 41.731735
vertex 21.263390 71.145798 39.249573
endloop
endfacet
facet normal -0.918812 0.306480 0.248704
outer loop
vertex 21.263390 71.145798 39.249573
vertex 21.308592 69.150177 41.875862
vertex 21.372175 71.348473 39.401703
endloop
endfacet
facet normal -0.981061 0.145714 0.127619
outer loop
vertex 21.372175 71.348473 39.401703
vertex 21.417381 69.352844 42.027992
vertex 21.422573 71.552650 39.555984
endloop
endfacet
facet normal -0.013697 0.604975 -0.796127
outer loop
vertex 18.976162 72.509964 40.325520
vertex 18.576878 72.012001 39.954010
vertex 18.656860 72.338890 40.201023
endloop
endfacet
facet normal -0.999108 -0.040088 -0.013268
outer loop
vertex 21.422573 71.552650 39.555984
vertex 21.467777 69.557022 42.182278
vertex 21.412636 71.750488 39.706486
endloop
endfacet
facet normal -0.957291 -0.237913 -0.164293
outer loop
vertex 21.412636 71.750488 39.706486
vertex 21.457838 69.754860 42.332779
vertex 21.342747 71.934387 39.847431
endloop
endfacet
facet normal -0.850768 -0.425394 -0.308600
outer loop
vertex 21.342747 71.934387 39.847431
vertex 21.387951 69.938766 42.473724
vertex 21.215601 72.097290 39.973396
endloop
endfacet
facet normal -0.887786 0.358972 0.288053
outer loop
vertex 21.215601 72.097290 39.973396
vertex 21.260807 70.101654 42.599689
vertex 21.373596 72.341377 40.156155
endloop
endfacet
facet normal 0.074747 0.794612 0.602498
outer loop
vertex 18.976162 72.509964 40.325520
vertex 18.867811 72.515533 40.331615
vertex 19.021366 70.514328 42.951813
endloop
endfacet
facet normal -0.013724 0.604981 -0.796122
outer loop
vertex 19.253212 68.892921 41.715767
vertex 19.272738 69.086960 41.862873
vertex 19.541815 68.865219 41.689751
endloop
endfacet
facet normal 0.013700 -0.604948 0.796147
outer loop
vertex 19.496609 70.860855 39.063461
vertex 19.800890 70.873230 39.067627
vertex 19.516136 71.054886 39.210564
endloop
endfacet
facet normal -0.013651 0.604980 -0.796124
outer loop
vertex 21.469292 69.868660 42.419052
vertex 21.488817 70.062691 42.566154
vertex 21.519684 70.072838 42.573334
endloop
endfacet
facet normal 0.013731 -0.604916 0.796171
outer loop
vertex 20.690557 71.138481 39.253868
vertex 20.941349 71.291611 39.365906
vertex 20.710083 71.332520 39.400974
endloop
endfacet
facet normal -0.013692 0.604983 -0.796121
outer loop
vertex 18.586855 69.198402 41.959358
vertex 18.459705 69.361298 42.085327
vertex 18.606380 69.392441 42.106468
endloop
endfacet
facet normal 0.013676 -0.604963 0.796136
outer loop
vertex 21.315300 71.661621 39.640633
vertex 21.424088 71.864288 39.792759
vertex 21.334824 71.855652 39.787735
endloop
endfacet
facet normal 0.013757 -0.604966 0.796133
outer loop
vertex 18.414499 71.356926 39.459038
vertex 18.434027 71.550964 39.606140
vertex 18.344620 71.540833 39.599979
endloop
endfacet
facet normal -0.013659 0.604956 -0.796142
outer loop
vertex 19.175625 70.566772 38.845520
vertex 19.227533 71.082588 39.236580
vertex 19.464230 70.539070 38.819508
endloop
endfacet
facet normal -0.013701 0.604965 -0.796134
outer loop
vertex 18.688791 70.736626 38.982967
vertex 18.509266 70.872253 39.089115
vertex 18.740700 71.252441 39.374027
endloop
endfacet
facet normal -0.957301 -0.237877 -0.164283
outer loop
vertex 18.357437 69.223419 41.982315
vertex 18.312233 71.219048 39.356026
vertex 18.427322 69.039520 41.841373
endloop
endfacet
facet normal -0.013741 0.604949 -0.796146
outer loop
vertex 21.407478 70.132797 42.620827
vertex 21.280331 70.295692 42.746796
vertex 21.459389 70.648613 43.011883
endloop
endfacet
facet normal 0.013679 -0.604962 0.796136
outer loop
vertex 21.362274 72.128426 39.994537
vertex 21.414183 72.644241 40.385593
vertex 21.235126 72.291321 40.120499
endloop
endfacet
facet normal -0.999109 -0.040068 -0.013259
outer loop
vertex 18.347504 69.421257 42.132820
vertex 18.302299 71.416885 39.506531
vertex 18.357437 69.223419 41.982315
endloop
endfacet
facet normal 0.013622 -0.604973 0.796129
outer loop
vertex 18.427322 69.039520 41.841373
vertex 18.479233 69.555328 42.232430
vertex 18.357437 69.223419 41.982315
endloop
endfacet
facet normal 0.013711 -0.604948 0.796147
outer loop
vertex 21.436909 69.546875 42.175098
vertex 21.487303 69.751053 42.329380
vertex 21.488817 70.062691 42.566154
endloop
endfacet
facet normal -0.981068 0.145688 0.127597
outer loop
vertex 18.397892 69.625435 42.287102
vertex 18.352690 71.621063 39.660812
vertex 18.347504 69.421257 42.132820
endloop
endfacet
facet normal -0.013657 0.604943 -0.796152
outer loop
vertex 18.913792 70.633469 38.900719
vertex 18.688791 70.736626 38.982967
vertex 18.965700 71.149292 39.291771
endloop
endfacet
facet normal -0.013655 0.604936 -0.796157
outer loop
vertex 18.382120 71.035149 39.215088
vertex 18.312233 71.219048 39.356026
vertex 18.434027 71.550964 39.606140
endloop
endfacet
facet normal -0.918801 0.306510 0.248711
outer loop
vertex 18.506681 69.828110 42.439232
vertex 18.461477 71.823738 39.812939
vertex 18.397892 69.625435 42.287102
endloop
endfacet
facet normal 0.013572 -0.604944 0.796152
outer loop
vertex 21.235126 72.291321 40.120499
vertex 21.287037 72.807137 40.511559
vertex 21.208605 72.476120 40.261375
endloop
endfacet
facet normal -0.013722 0.604952 -0.796144
outer loop
vertex 18.397892 69.625435 42.287102
vertex 18.449802 70.141251 42.678158
vertex 18.506681 69.828110 42.439232
endloop
endfacet
facet normal -0.828391 0.439041 0.347866
outer loop
vertex 18.669685 70.021477 42.583359
vertex 18.624479 72.017105 39.957069
vertex 18.506681 69.828110 42.439232
endloop
endfacet
facet normal -0.013414 0.604897 -0.796190
outer loop
vertex 21.487303 69.751053 42.329380
vertex 21.477364 69.948898 42.479881
vertex 21.539213 70.266876 42.720436
endloop
endfacet
facet normal 0.013711 -0.604943 0.796151
outer loop
vertex 21.442097 71.746689 39.703087
vertex 21.494007 72.262497 40.094147
vertex 21.432159 71.944519 39.853592
endloop
endfacet
facet normal -0.911674 0.319466 0.258441
outer loop
vertex 18.772285 70.203690 42.720055
vertex 18.727077 72.199318 40.093758
vertex 18.669685 70.021477 42.583359
endloop
endfacet
facet normal -0.841134 0.423539 0.336315
outer loop
vertex 18.727077 72.199318 40.093758
vertex 18.772285 70.203690 42.720055
vertex 19.126362 72.697281 40.465271
endloop
endfacet
facet normal 0.013700 -0.604951 0.796145
outer loop
vertex 21.165119 69.150833 41.878838
vertex 21.328121 69.344208 42.022968
vertex 21.217028 69.666649 42.269894
endloop
endfacet
facet normal -0.013713 0.604945 -0.796149
outer loop
vertex 18.347504 69.421257 42.132820
vertex 18.399414 69.937073 42.523880
vertex 18.397892 69.625435 42.287102
endloop
endfacet
facet normal -0.013721 0.604967 -0.796132
outer loop
vertex 21.282915 71.339836 39.396675
vertex 21.334824 71.855652 39.787735
vertex 21.391703 71.542503 39.548805
endloop
endfacet
facet normal -0.013721 0.604965 -0.796133
outer loop
vertex 18.509266 70.872253 39.089115
vertex 18.382120 71.035149 39.215088
vertex 18.561174 71.388069 39.480171
endloop
endfacet
facet normal 0.013514 -0.604939 0.796157
outer loop
vertex 18.302299 71.416885 39.506531
vertex 18.352690 71.621063 39.660812
vertex 18.354208 71.932709 39.897587
endloop
endfacet
facet normal -0.850759 -0.425408 -0.308604
outer loop
vertex 18.427322 69.039520 41.841373
vertex 18.382120 71.035149 39.215088
vertex 18.554468 68.876617 41.715408
endloop
endfacet
facet normal 0.013711 -0.604966 0.796133
outer loop
vertex 18.357437 69.223419 41.982315
vertex 18.409348 69.739235 42.373375
vertex 18.347504 69.421257 42.132820
endloop
endfacet
facet normal 0.013776 -0.604959 0.796137
outer loop
vertex 18.733997 68.740997 41.609261
vertex 18.785906 69.256813 42.000317
vertex 18.554468 68.876617 41.715408
endloop
endfacet
facet normal -0.692136 -0.580362 -0.429101
outer loop
vertex 18.554468 68.876617 41.715408
vertex 18.509266 70.872253 39.089115
vertex 18.733997 68.740997 41.609261
endloop
endfacet
facet normal -0.013688 0.604984 -0.796120
outer loop
vertex 21.477364 69.948898 42.479881
vertex 21.407478 70.132797 42.620827
vertex 21.529274 70.464714 42.870941
endloop
endfacet
facet normal 0.013703 -0.604945 0.796150
outer loop
vertex 19.220829 68.571136 41.471813
vertex 19.272738 69.086960 41.862873
vertex 18.958996 68.637848 41.527008
endloop
endfacet
facet normal -0.505615 -0.691110 -0.516450
outer loop
vertex 18.733997 68.740997 41.609261
vertex 18.688791 70.736626 38.982967
vertex 18.958996 68.637848 41.527008
endloop
endfacet
facet normal 0.013700 -0.604969 0.796131
outer loop
vertex 18.554468 68.876617 41.715408
vertex 18.606380 69.392441 42.106468
vertex 18.427322 69.039520 41.841373
endloop
endfacet
facet normal -0.013697 0.604952 -0.796144
outer loop
vertex 19.768507 70.551445 38.823673
vertex 19.820415 71.067261 39.214729
vertex 20.076775 70.603409 38.857853
endloop
endfacet
facet normal -0.013747 0.604951 -0.796144
outer loop
vertex 19.175625 70.566772 38.845520
vertex 18.913792 70.633469 38.900719
vertex 19.227533 71.082588 39.236580
endloop
endfacet
facet normal -0.013703 0.604969 -0.796131
outer loop
vertex 20.377178 70.692978 38.920742
vertex 20.429085 71.208794 39.311798
vertex 20.658173 70.816696 39.009914
endloop
endfacet
facet normal -0.013769 0.604969 -0.796130
outer loop
vertex 21.280331 70.295692 42.746796
vertex 21.253811 70.480484 42.887672
vertex 21.332239 70.811508 43.137848
endloop
endfacet
facet normal 0.013698 -0.604946 0.796149
outer loop
vertex 19.509434 68.543442 41.445801
vertex 19.813713 68.555817 41.449959
vertex 19.561340 69.059258 41.836857
endloop
endfacet
facet normal -0.013717 0.604965 -0.796134
outer loop
vertex 19.464230 70.539070 38.819508
vertex 19.516136 71.054886 39.210564
vertex 19.768507 70.551445 38.823673
endloop
endfacet
facet normal 0.013699 -0.604943 0.796151
outer loop
vertex 20.121977 68.607780 41.484146
vertex 20.422382 68.697350 41.547035
vertex 20.173885 69.123596 41.875202
endloop
endfacet
facet normal 0.013733 -0.604962 0.796136
outer loop
vertex 18.958996 68.637848 41.527008
vertex 19.010904 69.153656 41.918064
vertex 18.733997 68.740997 41.609261
endloop
endfacet
facet normal -0.013731 0.604962 -0.796136
outer loop
vertex 20.908962 70.969826 39.121956
vertex 20.960875 71.485641 39.513012
vertex 21.119915 71.146469 39.252544
endloop
endfacet
facet normal -0.013720 0.604965 -0.796134
outer loop
vertex 20.076775 70.603409 38.857853
vertex 20.128681 71.119225 39.248913
vertex 20.377178 70.692978 38.920742
endloop
endfacet
facet normal 0.476820 -0.695901 -0.536996
outer loop
vertex 20.703377 68.821068 41.636208
vertex 20.422382 68.697350 41.547035
vertex 20.658173 70.816696 39.009914
endloop
endfacet
facet normal 0.013720 -0.604956 0.796141
outer loop
vertex 19.220829 68.571136 41.471813
vertex 19.509434 68.543442 41.445801
vertex 19.272738 69.086960 41.862873
endloop
endfacet
facet normal 0.603192 -0.630020 -0.489115
outer loop
vertex 20.954170 68.974197 41.748245
vertex 20.703377 68.821068 41.636208
vertex 20.908962 70.969826 39.121956
endloop
endfacet
facet normal 0.719416 0.558944 0.412338
outer loop
vertex 21.208605 72.476120 40.261375
vertex 20.769993 72.834305 40.541103
vertex 21.253811 70.480484 42.887672
endloop
endfacet
facet normal 0.721139 -0.545570 -0.426980
outer loop
vertex 21.165119 69.150833 41.878838
vertex 20.954170 68.974197 41.748245
vertex 21.119915 71.146469 39.252544
endloop
endfacet
facet normal -0.013683 0.604967 -0.796133
outer loop
vertex 20.658173 70.816696 39.009914
vertex 20.710083 71.332520 39.400974
vertex 20.908962 70.969826 39.121956
endloop
endfacet
facet normal 0.828410 -0.439017 -0.347852
outer loop
vertex 21.328121 69.344208 42.022968
vertex 21.165119 69.150833 41.878838
vertex 21.282915 71.339836 39.396675
endloop
endfacet
facet normal 0.013698 -0.604965 0.796134
outer loop
vertex 19.813713 68.555817 41.449959
vertex 20.121977 68.607780 41.484146
vertex 19.865622 69.071625 41.841019
endloop
endfacet
facet normal 0.918806 -0.306492 -0.248715
outer loop
vertex 21.436909 69.546875 42.175098
vertex 21.328121 69.344208 42.022968
vertex 21.391703 71.542503 39.548805
endloop
endfacet
facet normal 0.013703 -0.604945 0.796150
outer loop
vertex 20.422382 68.697350 41.547035
vertex 20.703377 68.821068 41.636208
vertex 20.474291 69.213165 41.938091
endloop
endfacet
facet normal 0.981062 -0.145714 -0.127612
outer loop
vertex 21.487303 69.751053 42.329380
vertex 21.436909 69.546875 42.175098
vertex 21.442097 71.746689 39.703087
endloop
endfacet
facet normal 0.013696 -0.604984 0.796120
outer loop
vertex 18.624479 72.017105 39.957069
vertex 18.727077 72.199318 40.093758
vertex 18.676388 72.532921 40.348125
endloop
endfacet
facet normal 0.999108 0.040096 0.013271
outer loop
vertex 21.477364 69.948898 42.479881
vertex 21.487303 69.751053 42.329380
vertex 21.432159 71.944519 39.853592
endloop
endfacet
facet normal -0.013700 0.604977 -0.796125
outer loop
vertex 21.119915 71.146469 39.252544
vertex 21.171822 71.662277 39.643604
vertex 21.282915 71.339836 39.396675
endloop
endfacet
facet normal 0.957298 0.237891 0.164279
outer loop
vertex 21.407478 70.132797 42.620827
vertex 21.477364 69.948898 42.479881
vertex 21.362274 72.128426 39.994537
endloop
endfacet
facet normal 0.013688 -0.604957 0.796141
outer loop
vertex 18.352690 71.621063 39.660812
vertex 18.461477 71.823738 39.812939
vertex 18.404598 72.136887 40.051868
endloop
endfacet
facet normal 0.850762 0.425400 0.308609
outer loop
vertex 21.280331 70.295692 42.746796
vertex 21.407478 70.132797 42.620827
vertex 21.235126 72.291321 40.120499
endloop
endfacet
facet normal 0.013670 -0.604965 0.796135
outer loop
vertex 20.954170 68.974197 41.748245
vertex 21.165119 69.150833 41.878838
vertex 21.006081 69.490013 42.139301
endloop
endfacet
facet normal 0.993455 0.098535 0.057772
outer loop
vertex 21.253811 70.480484 42.887672
vertex 21.280331 70.295692 42.746796
vertex 21.208605 72.476120 40.261375
endloop
endfacet
facet normal -0.013809 0.604960 -0.796136
outer loop
vertex 21.391703 71.542503 39.548805
vertex 21.443613 72.058319 39.939865
vertex 21.442097 71.746689 39.703087
endloop
endfacet
facet normal -0.013909 0.604934 -0.796155
outer loop
vertex 18.312233 71.219048 39.356026
vertex 18.302299 71.416885 39.506531
vertex 18.364143 71.734863 39.747086
endloop
endfacet
facet normal -0.013700 0.604964 -0.796135
outer loop
vertex 18.506681 69.828110 42.439232
vertex 18.558590 70.343918 42.830288
vertex 18.669685 70.021477 42.583359
endloop
endfacet
facet normal 0.013688 -0.604973 0.796128
outer loop
vertex 21.328121 69.344208 42.022968
vertex 21.436909 69.546875 42.175098
vertex 21.380030 69.860023 42.414028
endloop
endfacet
facet normal -0.013695 0.604954 -0.796142
outer loop
vertex 18.669685 70.021477 42.583359
vertex 18.721594 70.537292 42.974419
vertex 18.772285 70.203690 42.720055
endloop
endfacet
facet normal 0.013654 -0.604941 0.796153
outer loop
vertex 21.432159 71.944519 39.853592
vertex 21.484070 72.460342 40.244652
vertex 21.362274 72.128426 39.994537
endloop
endfacet
facet normal 0.013679 -0.604962 0.796136
outer loop
vertex 18.461477 71.823738 39.812939
vertex 18.624479 72.017105 39.957069
vertex 18.513386 72.339554 40.203999
endloop
endfacet
facet normal 0.013695 -0.604943 0.796151
outer loop
vertex 20.703377 68.821068 41.636208
vertex 20.954170 68.974197 41.748245
vertex 20.755287 69.336884 42.027264
endloop
endfacet
facet normal -0.013613 0.604940 -0.796154
outer loop
vertex 18.385071 71.942848 39.904762
vertex 18.333162 71.427032 39.513710
vertex 18.334681 71.738670 39.750484
endloop
endfacet
facet normal 0.013720 -0.604969 0.796131
outer loop
vertex 18.414499 71.356926 39.459038
vertex 18.362595 70.841110 39.067978
vertex 18.541651 71.194031 39.333069
endloop
endfacet
facet normal 0.013755 -0.604962 0.796136
outer loop
vertex 21.263390 71.145798 39.249573
vertex 21.372175 71.348473 39.401703
vertex 21.315300 71.661621 39.640633
endloop
endfacet
facet normal 0.013611 -0.604971 0.796131
outer loop
vertex 18.327974 69.227226 41.985718
vertex 18.378368 69.431404 42.139999
vertex 18.379885 69.743042 42.376774
endloop
endfacet
facet normal -0.013700 0.604975 -0.796126
outer loop
vertex 21.360504 69.665985 42.266922
vertex 21.308592 69.150177 41.875862
vertex 21.197500 69.472618 42.122791
endloop
endfacet
facet normal 0.013710 -0.604950 0.796145
outer loop
vertex 21.509747 70.270676 42.723835
vertex 21.457838 69.754860 42.332779
vertex 21.519684 70.072838 42.573334
endloop
endfacet
facet normal 0.013655 -0.604947 0.796149
outer loop
vertex 18.378368 69.431404 42.139999
vertex 18.487156 69.634071 42.292130
vertex 18.430275 69.947220 42.531055
endloop
endfacet
facet normal -0.013700 0.604948 -0.796147
outer loop
vertex 21.267511 72.613106 40.364452
vertex 21.215601 72.097290 39.973396
vertex 20.934986 72.699570 40.435879
endloop
endfacet
facet normal 0.013589 -0.604932 0.796162
outer loop
vertex 18.344620 71.540833 39.599979
vertex 18.292707 71.025009 39.208923
vertex 18.414499 71.356926 39.459038
endloop
endfacet
facet normal 0.013707 -0.604943 0.796151
outer loop
vertex 18.721172 71.058411 39.226921
vertex 18.669266 70.542587 38.835865
vertex 18.946175 70.955254 39.144669
endloop
endfacet
facet normal -0.013612 0.604943 -0.796152
outer loop
vertex 21.519684 70.072838 42.573334
vertex 21.467777 69.557022 42.182278
vertex 21.469292 69.868660 42.419052
endloop
endfacet
facet normal -0.013655 0.604963 -0.796137
outer loop
vertex 18.407795 68.845482 41.694271
vertex 18.337912 69.029381 41.835213
vertex 18.459705 69.361298 42.085327
endloop
endfacet
facet normal -0.013680 0.604959 -0.796139
outer loop
vertex 21.342747 71.934387 39.847431
vertex 21.215601 72.097290 39.973396
vertex 21.394655 72.450211 40.238487
endloop
endfacet
facet normal 0.013680 -0.604943 0.796151
outer loop
vertex 21.312714 70.617477 42.990746
vertex 21.260807 70.101654 42.599689
vertex 21.439861 70.454575 42.864780
endloop
endfacet
facet normal 0.013720 -0.604969 0.796131
outer loop
vertex 19.156097 70.372734 38.698418
vertex 19.444700 70.345039 38.672401
vertex 19.208006 70.888550 39.089478
endloop
endfacet
facet normal -0.013709 0.604981 -0.796122
outer loop
vertex 18.337912 69.029381 41.835213
vertex 18.327974 69.227226 41.985718
vertex 18.389822 69.545197 42.226269
endloop
endfacet
facet normal -0.013670 0.604967 -0.796133
outer loop
vertex 18.714470 68.546959 41.462154
vertex 18.534943 68.682587 41.568302
vertex 18.766378 69.062775 41.853210
endloop
endfacet
facet normal 0.013722 -0.604962 0.796136
outer loop
vertex 21.439861 70.454575 42.864780
vertex 21.387951 69.938766 42.473724
vertex 21.509747 70.270676 42.723835
endloop
endfacet
facet normal -0.013725 0.604966 -0.796133
outer loop
vertex 19.201302 68.377106 41.324707
vertex 18.939468 68.443810 41.379902
vertex 19.253212 68.892921 41.715767
endloop
endfacet
facet normal -0.013680 0.604959 -0.796139
outer loop
vertex 18.534943 68.682587 41.568302
vertex 18.407795 68.845482 41.694271
vertex 18.586855 69.198402 41.959358
endloop
endfacet
facet normal 0.013698 -0.604946 0.796149
outer loop
vertex 19.748981 70.357407 38.676567
vertex 20.057245 70.409378 38.710751
vertex 19.800890 70.873230 39.067627
endloop
endfacet
facet normal 0.013703 -0.604948 0.796147
outer loop
vertex 18.946175 70.955254 39.144669
vertex 18.894264 70.439438 38.753613
vertex 19.208006 70.888550 39.089478
endloop
endfacet
facet normal 0.013692 -0.604969 0.796131
outer loop
vertex 20.357651 70.498947 38.773640
vertex 20.638647 70.622665 38.862812
vertex 20.409557 71.014755 39.164696
endloop
endfacet
facet normal 0.013729 -0.604946 0.796148
outer loop
vertex 20.980192 70.703934 43.062172
vertex 21.418802 70.345749 42.782444
vertex 21.312714 70.617477 42.990746
endloop
endfacet
facet normal -0.013698 0.604956 -0.796141
outer loop
vertex 19.846096 68.877594 41.693916
vertex 19.794188 68.361778 41.302860
vertex 19.541815 68.865219 41.689751
endloop
endfacet
facet normal 0.013698 -0.604971 0.796130
outer loop
vertex 19.444700 70.345039 38.672401
vertex 19.748981 70.357407 38.676567
vertex 19.496609 70.860855 39.063461
endloop
endfacet
facet normal -0.013699 0.604956 -0.796141
outer loop
vertex 20.454763 69.019135 41.790985
vertex 20.402855 68.503311 41.399929
vertex 20.154358 68.929565 41.728100
endloop
endfacet
facet normal -0.013708 0.604955 -0.796142
outer loop
vertex 18.939468 68.443810 41.379902
vertex 18.714470 68.546959 41.462154
vertex 18.991375 68.959625 41.770962
endloop
endfacet
facet normal 0.013716 -0.604940 0.796153
outer loop
vertex 20.889439 70.775787 38.974850
vertex 21.100386 70.952431 39.105442
vertex 20.941349 71.291611 39.365906
endloop
endfacet
facet normal 0.013740 -0.604965 0.796133
outer loop
vertex 20.057245 70.409378 38.710751
vertex 20.357651 70.498947 38.773640
vertex 20.109154 70.925194 39.101807
endloop
endfacet
facet normal -0.013700 0.604959 -0.796139
outer loop
vertex 19.541815 68.865219 41.689751
vertex 19.489906 68.349411 41.298695
vertex 19.253212 68.892921 41.715767
endloop
endfacet
facet normal 0.013720 -0.604958 0.796139
outer loop
vertex 20.638647 70.622665 38.862812
vertex 20.889439 70.775787 38.974850
vertex 20.690557 71.138481 39.253868
endloop
endfacet
facet normal -0.013737 0.604965 -0.796134
outer loop
vertex 20.154358 68.929565 41.728100
vertex 20.102451 68.413750 41.337040
vertex 19.846096 68.877594 41.693916
endloop
endfacet
facet normal -0.013703 0.604968 -0.796132
outer loop
vertex 20.735762 69.142853 41.880161
vertex 20.683849 68.627037 41.489105
vertex 20.454763 69.019135 41.790985
endloop
endfacet
facet normal 0.013720 -0.604957 0.796140
outer loop
vertex 21.100386 70.952431 39.105442
vertex 21.263390 71.145798 39.249573
vertex 21.152294 71.468246 39.496498
endloop
endfacet
facet normal -0.013721 0.604959 -0.796138
outer loop
vertex 18.493860 72.145515 40.056892
vertex 18.441952 71.629700 39.665833
vertex 18.385071 71.942848 39.904762
endloop
endfacet
facet normal -0.013747 0.604967 -0.796132
outer loop
vertex 21.197500 69.472618 42.122791
vertex 21.145592 68.956802 41.731735
vertex 20.986553 69.295975 41.992199
endloop
endfacet
facet normal 0.013512 -0.604918 0.796173
outer loop
vertex 21.372175 71.348473 39.401703
vertex 21.422573 71.552650 39.555984
vertex 21.424088 71.864288 39.792759
endloop
endfacet
facet normal 0.013710 -0.604974 0.796127
outer loop
vertex 18.334681 71.738670 39.750484
vertex 18.282772 71.222855 39.359428
vertex 18.344620 71.540833 39.599979
endloop
endfacet
facet normal 0.013700 -0.604951 0.796145
outer loop
vertex 18.487156 69.634071 42.292130
vertex 18.650158 69.827438 42.436256
vertex 18.539064 70.149887 42.683182
endloop
endfacet
facet normal -0.013788 0.604976 -0.796124
outer loop
vertex 21.469292 69.868660 42.419052
vertex 21.417381 69.352844 42.027992
vertex 21.360504 69.665985 42.266922
endloop
endfacet
facet normal 0.013682 -0.604950 0.796146
outer loop
vertex 18.702065 70.343262 42.827316
vertex 18.650158 69.827438 42.436256
vertex 19.021366 70.514328 42.951813
endloop
endfacet
facet normal -0.013754 0.604930 -0.796160
outer loop
vertex 21.412636 71.750488 39.706486
vertex 21.342747 71.934387 39.847431
vertex 21.464542 72.266312 40.097542
endloop
endfacet
facet normal -0.013721 0.604949 -0.796146
outer loop
vertex 18.656860 72.338890 40.201023
vertex 18.604954 71.823074 39.809967
vertex 18.493860 72.145515 40.056892
endloop
endfacet
facet normal -0.013720 0.604954 -0.796142
outer loop
vertex 20.986553 69.295975 41.992199
vertex 20.934641 68.780159 41.601143
vertex 20.735762 69.142853 41.880161
endloop
endfacet
facet normal -0.365815 0.737988 0.567056
outer loop
vertex 20.934986 72.699570 40.435879
vertex 20.980192 70.703934 43.062172
vertex 21.087988 72.748734 40.470604
endloop
endfacet
facet normal -0.013557 0.605035 -0.796083
outer loop
vertex 18.389822 69.545197 42.226269
vertex 18.379885 69.743042 42.376774
vertex 18.409348 69.739235 42.373375
endloop
endfacet
facet normal -0.013719 0.604943 -0.796151
outer loop
vertex 20.735762 69.142853 41.880161
vertex 20.755287 69.336884 42.027264
vertex 20.986553 69.295975 41.992199
endloop
endfacet
facet normal -0.013684 0.604930 -0.796161
outer loop
vertex 18.385071 71.942848 39.904762
vertex 18.404598 72.136887 40.051868
vertex 18.493860 72.145515 40.056892
endloop
endfacet
facet normal 0.013817 -0.604970 0.796128
outer loop
vertex 21.509747 70.270676 42.723835
vertex 21.529274 70.464714 42.870941
vertex 21.439861 70.454575 42.864780
endloop
endfacet
facet normal -0.013617 0.604969 -0.796132
outer loop
vertex 21.394655 72.450211 40.238487
vertex 21.267511 72.613106 40.364452
vertex 21.414183 72.644241 40.385593
endloop
endfacet
facet normal 0.013704 -0.604980 0.796122
outer loop
vertex 18.379885 69.743042 42.376774
vertex 18.430275 69.947220 42.531055
vertex 18.399414 69.937073 42.523880
endloop
endfacet
facet normal -0.013700 0.604936 -0.796157
outer loop
vertex 19.541815 68.865219 41.689751
vertex 19.561340 69.059258 41.836857
vertex 19.846096 68.877594 41.693916
endloop
endfacet
facet normal 0.013737 -0.604964 0.796134
outer loop
vertex 18.430275 69.947220 42.531055
vertex 18.539064 70.149887 42.683182
vertex 18.449802 70.141251 42.678158
endloop
endfacet
facet normal 0.013701 -0.604973 0.796128
outer loop
vertex 19.800890 70.873230 39.067627
vertex 20.109154 70.925194 39.101807
vertex 19.820415 71.067261 39.214729
endloop
endfacet
facet normal 0.013782 -0.604968 0.796130
outer loop
vertex 18.539064 70.149887 42.683182
vertex 18.702065 70.343262 42.827316
vertex 18.558590 70.343918 42.830288
endloop
endfacet
facet normal 0.013721 -0.604942 0.796152
outer loop
vertex 18.702065 70.343262 42.827316
vertex 18.913017 70.519897 42.957905
vertex 18.721594 70.537292 42.974419
endloop
endfacet
facet normal 0.013711 -0.604979 0.796123
outer loop
vertex 20.109154 70.925194 39.101807
vertex 20.409557 71.014755 39.164696
vertex 20.128681 71.119225 39.248913
endloop
endfacet
facet normal 0.013633 -0.604954 0.796143
outer loop
vertex 21.519684 70.072838 42.573334
vertex 21.539213 70.266876 42.720436
vertex 21.509747 70.270676 42.723835
endloop
endfacet
facet normal -0.013673 0.604952 -0.796145
outer loop
vertex 21.464542 72.266312 40.097542
vertex 21.394655 72.450211 40.238487
vertex 21.484070 72.460342 40.244652
endloop
endfacet
facet normal -0.013699 0.604978 -0.796125
outer loop
vertex 18.991375 68.959625 41.770962
vertex 18.766378 69.062775 41.853210
vertex 19.010904 69.153656 41.918064
endloop
endfacet
facet normal -0.013715 0.604968 -0.796132
outer loop
vertex 18.493860 72.145515 40.056892
vertex 18.513386 72.339554 40.203999
vertex 18.656860 72.338890 40.201023
endloop
endfacet
facet normal -0.013695 0.604975 -0.796126
outer loop
vertex 21.197500 69.472618 42.122791
vertex 21.217028 69.666649 42.269894
vertex 21.360504 69.665985 42.266922
endloop
endfacet
facet normal 0.657314 -0.594543 -0.463095
outer loop
vertex 18.867811 72.515533 40.331615
vertex 19.126362 72.697281 40.465271
vertex 18.913017 70.519897 42.957905
endloop
endfacet
facet normal 0.013704 -0.604947 0.796148
outer loop
vertex 20.409557 71.014755 39.164696
vertex 20.690557 71.138481 39.253868
vertex 20.429085 71.208794 39.311798
endloop
endfacet
facet normal -0.013734 0.604944 -0.796150
outer loop
vertex 18.656860 72.338890 40.201023
vertex 18.676388 72.532921 40.348125
vertex 18.867811 72.515533 40.331615
endloop
endfacet
facet normal 0.013724 -0.604989 0.796116
outer loop
vertex 21.152294 71.468246 39.496498
vertex 21.315300 71.661621 39.640633
vertex 21.171822 71.662277 39.643604
endloop
endfacet
facet normal -0.013700 0.604916 -0.796172
outer loop
vertex 20.986553 69.295975 41.992199
vertex 21.006081 69.490013 42.139301
vertex 21.197500 69.472618 42.122791
endloop
endfacet
facet normal -0.013667 0.604940 -0.796154
outer loop
vertex 21.474478 72.068466 39.947041
vertex 21.464542 72.266312 40.097542
vertex 21.494007 72.262497 40.094147
endloop
endfacet
facet normal -0.013696 0.604925 -0.796164
outer loop
vertex 19.253212 68.892921 41.715767
vertex 18.991375 68.959625 41.770962
vertex 19.272738 69.086960 41.862873
endloop
endfacet
facet normal 0.013724 -0.604946 0.796148
outer loop
vertex 19.208006 70.888550 39.089478
vertex 19.496609 70.860855 39.063461
vertex 19.227533 71.082588 39.236580
endloop
endfacet
facet normal -0.013742 0.604961 -0.796136
outer loop
vertex 21.360504 69.665985 42.266922
vertex 21.380030 69.860023 42.414028
vertex 21.469292 69.868660 42.419052
endloop
endfacet
facet normal 0.013725 -0.604985 0.796119
outer loop
vertex 18.344620 71.540833 39.599979
vertex 18.364143 71.734863 39.747086
vertex 18.334681 71.738670 39.750484
endloop
endfacet
facet normal 0.013718 -0.604990 0.796115
outer loop
vertex 21.424088 71.864288 39.792759
vertex 21.474478 72.068466 39.947041
vertex 21.443613 72.058319 39.939865
endloop
endfacet
facet normal -0.013687 0.604972 -0.796129
outer loop
vertex 18.459705 69.361298 42.085327
vertex 18.389822 69.545197 42.226269
vertex 18.479233 69.555328 42.232430
endloop
endfacet
facet normal 0.013697 -0.604970 0.796130
outer loop
vertex 19.208006 70.888550 39.089478
vertex 19.227533 71.082588 39.236580
vertex 18.946175 70.955254 39.144669
endloop
endfacet
facet normal 0.013732 -0.604940 0.796153
outer loop
vertex 18.541651 71.194031 39.333069
vertex 18.561174 71.388069 39.480171
vertex 18.414499 71.356926 39.459038
endloop
endfacet
facet normal -0.013693 0.604954 -0.796143
outer loop
vertex 18.766378 69.062775 41.853210
vertex 18.586855 69.198402 41.959358
vertex 18.785906 69.256813 42.000317
endloop
endfacet
facet normal 0.013704 -0.604956 0.796141
outer loop
vertex 21.312714 70.617477 42.990746
vertex 21.332239 70.811508 43.137848
vertex 21.133190 70.753098 43.096893
endloop
endfacet
facet normal -0.013725 0.604968 -0.796131
outer loop
vertex 20.154358 68.929565 41.728100
vertex 20.173885 69.123596 41.875202
vertex 20.454763 69.019135 41.790985
endloop
endfacet
facet normal 0.013691 -0.604972 0.796129
outer loop
vertex 18.946175 70.955254 39.144669
vertex 18.965700 71.149292 39.291771
vertex 18.721172 71.058411 39.226921
endloop
endfacet
facet normal -0.013704 0.604975 -0.796127
outer loop
vertex 21.267511 72.613106 40.364452
vertex 21.087988 72.748734 40.470604
vertex 21.287037 72.807137 40.511559
endloop
endfacet
facet normal -0.013726 0.604953 -0.796143
outer loop
vertex 20.454763 69.019135 41.790985
vertex 20.474291 69.213165 41.938091
vertex 20.735762 69.142853 41.880161
endloop
endfacet
facet normal 0.013678 -0.604941 0.796153
outer loop
vertex 21.439861 70.454575 42.864780
vertex 21.459389 70.648613 43.011883
vertex 21.312714 70.617477 42.990746
endloop
endfacet
facet normal 0.013694 -0.604965 0.796134
outer loop
vertex 18.721172 71.058411 39.226921
vertex 18.740700 71.252441 39.374027
vertex 18.541651 71.194031 39.333069
endloop
endfacet
facet normal -0.013714 0.604981 -0.796122
outer loop
vertex 19.846096 68.877594 41.693916
vertex 19.865622 69.071625 41.841019
vertex 20.154358 68.929565 41.728100
endloop
endfacet
facet normal 0.013726 -0.604970 0.796130
outer loop
vertex 20.941349 71.291611 39.365906
vertex 21.152294 71.468246 39.496498
vertex 20.960875 71.485641 39.513012
endloop
endfacet
facet normal -0.013850 0.604968 -0.796129
outer loop
vertex 18.334681 71.738670 39.750484
vertex 18.354208 71.932709 39.897587
vertex 18.385071 71.942848 39.904762
endloop
endfacet
endsolid Exported from Blender-2.74 (sub 0)
