solid Exported from Blender-2.74 (sub 0)
facet normal -0.089414 -0.567487 0.818513
outer loop
vertex -9.461369 66.761467 39.963535
vertex -9.452145 69.295670 41.721542
vertex -9.753242 69.311813 41.699844
endloop
endfacet
facet normal -0.282007 -0.546162 0.788783
outer loop
vertex -9.762474 66.777618 39.941837
vertex -9.753242 69.311813 41.699844
vertex -10.043289 69.361130 41.630291
endloop
endfacet
facet normal -0.463749 -0.503852 0.728745
outer loop
vertex -10.052513 66.826927 39.872280
vertex -10.043289 69.361130 41.630291
vertex -10.311123 69.441696 41.515549
endloop
endfacet
facet normal -0.627691 -0.442174 0.640692
outer loop
vertex -10.320351 66.907494 39.757538
vertex -10.311123 69.441696 41.515549
vertex -10.546463 69.550438 41.360031
endloop
endfacet
facet normal -0.767495 -0.363506 0.528028
outer loop
vertex -10.555687 67.016235 39.602024
vertex -10.546463 69.550438 41.360031
vertex -10.740257 69.683167 41.169716
endloop
endfacet
facet normal -0.877818 -0.270864 0.395055
outer loop
vertex -10.749481 67.148964 39.411709
vertex -10.740257 69.683167 41.169716
vertex -10.885059 69.834785 40.951916
endloop
endfacet
facet normal -0.954396 -0.167813 0.246915
outer loop
vertex -10.894283 67.300583 39.193909
vertex -10.885059 69.834785 40.951916
vertex -10.975307 69.999466 40.715004
endloop
endfacet
facet normal -0.994296 -0.058324 0.089292
outer loop
vertex -10.984535 67.465263 38.956993
vertex -10.975307 69.999466 40.715004
vertex -11.007538 70.170876 40.468075
endloop
endfacet
facet normal -0.995989 0.053420 -0.071777
outer loop
vertex -11.016766 67.636681 38.710068
vertex -11.007538 70.170876 40.468075
vertex -10.980503 70.342438 40.220631
endloop
endfacet
facet normal -0.959410 0.163097 -0.230070
outer loop
vertex -10.989727 67.808235 38.462624
vertex -10.980503 70.342438 40.220631
vertex -10.895248 70.507553 39.982170
endloop
endfacet
facet normal -0.885950 0.266521 -0.379551
outer loop
vertex -10.904472 67.973351 38.224163
vertex -10.895248 70.507553 39.982170
vertex -10.755047 70.659866 39.761864
endloop
endfacet
facet normal -0.778464 0.359690 -0.514410
outer loop
vertex -10.764275 68.125671 38.003853
vertex -10.755047 70.659866 39.761864
vertex -10.565289 70.793541 39.568169
endloop
endfacet
facet normal -0.641028 0.439050 -0.629539
outer loop
vertex -10.574512 68.259346 37.810165
vertex -10.565289 70.793541 39.568169
vertex -10.333260 70.903435 39.408546
endloop
endfacet
facet normal -0.479007 0.501518 -0.720439
outer loop
vertex -10.342487 68.369232 37.650536
vertex -10.333260 70.903435 39.408546
vertex -10.067886 70.985321 39.289108
endloop
endfacet
facet normal -0.298530 0.544734 -0.783674
outer loop
vertex -10.077110 68.451118 37.531105
vertex -10.067886 70.985321 39.289108
vertex -9.779358 71.036057 39.214462
endloop
endfacet
facet normal -0.106603 0.567004 -0.816788
outer loop
vertex -9.788582 68.501854 37.456459
vertex -9.779358 71.036057 39.214462
vertex -9.478767 71.053680 39.187469
endloop
endfacet
facet normal 0.089417 0.567486 -0.818514
outer loop
vertex -9.478767 71.053680 39.187469
vertex -9.177670 71.037537 39.209167
vertex -9.186893 68.503334 37.451160
endloop
endfacet
facet normal 0.281997 0.546165 -0.788785
outer loop
vertex -9.177670 71.037537 39.209167
vertex -8.887627 70.988228 39.278725
vertex -8.896854 68.454025 37.520718
endloop
endfacet
facet normal 0.463789 0.503839 -0.728729
outer loop
vertex -8.887627 70.988228 39.278725
vertex -8.619793 70.907654 39.393467
vertex -8.629017 68.373451 37.635460
endloop
endfacet
facet normal 0.627688 0.442171 -0.640697
outer loop
vertex -8.619793 70.907654 39.393467
vertex -8.384457 70.798912 39.548981
vertex -8.393681 68.264717 37.790977
endloop
endfacet
facet normal 0.767511 0.363496 -0.528013
outer loop
vertex -8.384457 70.798912 39.548981
vertex -8.190662 70.666183 39.739300
vertex -8.199886 68.131981 37.981293
endloop
endfacet
facet normal 0.877806 0.270872 -0.395077
outer loop
vertex -8.190662 70.666183 39.739300
vertex -8.045853 70.514565 39.957100
vertex -8.055084 67.980370 38.199093
endloop
endfacet
facet normal 0.954395 0.167816 -0.246916
outer loop
vertex -8.045853 70.514565 39.957100
vertex -7.955605 70.349884 40.194016
vertex -7.964828 67.815689 38.436008
endloop
endfacet
facet normal 0.994296 0.058325 -0.089296
outer loop
vertex -7.955605 70.349884 40.194016
vertex -7.923374 70.178474 40.440941
vertex -7.932602 67.644272 38.682934
endloop
endfacet
facet normal 0.995989 -0.053421 0.071777
outer loop
vertex -7.923374 70.178474 40.440941
vertex -7.950409 70.006912 40.688389
vertex -7.959637 67.472717 38.930382
endloop
endfacet
facet normal 0.959403 -0.163108 0.230090
outer loop
vertex -7.950409 70.006912 40.688389
vertex -8.035667 69.841805 40.926846
vertex -8.044891 67.307602 39.168842
endloop
endfacet
facet normal 0.885958 -0.266515 0.379537
outer loop
vertex -8.035667 69.841805 40.926846
vertex -8.175869 69.689484 41.147156
vertex -8.185093 67.155281 39.389149
endloop
endfacet
facet normal 0.778449 -0.359697 0.514427
outer loop
vertex -8.175869 69.689484 41.147156
vertex -8.365631 69.555809 41.340843
vertex -8.374855 67.021606 39.582840
endloop
endfacet
facet normal 0.641028 -0.439049 0.629539
outer loop
vertex -8.365631 69.555809 41.340843
vertex -8.597656 69.445923 41.500473
vertex -8.606880 66.911720 39.742466
endloop
endfacet
facet normal 0.478996 -0.501524 0.720442
outer loop
vertex -8.597656 69.445923 41.500473
vertex -8.863029 69.364029 41.619904
vertex -8.872257 66.829834 39.861900
endloop
endfacet
facet normal 0.106600 -0.566999 0.816792
outer loop
vertex -9.151558 69.313301 41.694550
vertex -9.452145 69.295670 41.721542
vertex -9.461369 66.761467 39.963535
endloop
endfacet
facet normal 0.298523 -0.544732 0.783678
outer loop
vertex -8.863029 69.364029 41.619904
vertex -9.151558 69.313301 41.694550
vertex -9.160782 66.779099 39.936543
endloop
endfacet
facet normal -0.003009 -0.821649 -0.569987
outer loop
vertex -9.461369 66.761467 39.963535
vertex -9.762474 66.777618 39.941837
vertex -9.487999 68.519485 37.429466
endloop
endfacet
facet normal -0.003009 -0.821645 -0.569992
outer loop
vertex -9.487999 68.519485 37.429466
vertex -9.186893 68.503334 37.451160
vertex -9.461369 66.761467 39.963535
endloop
endfacet
facet normal -0.003007 -0.821644 -0.569993
outer loop
vertex -10.574512 68.259346 37.810165
vertex -10.555687 67.016235 39.602024
vertex -10.749481 67.148964 39.411709
endloop
endfacet
facet normal -0.002986 -0.821649 -0.569986
outer loop
vertex -10.555687 67.016235 39.602024
vertex -10.574512 68.259346 37.810165
vertex -10.342487 68.369232 37.650536
endloop
endfacet
facet normal -0.003028 -0.821649 -0.569986
outer loop
vertex -8.374855 67.021606 39.582840
vertex -8.393681 68.264717 37.790977
vertex -8.199886 68.131981 37.981293
endloop
endfacet
facet normal -0.003018 -0.821645 -0.569991
outer loop
vertex -8.393681 68.264717 37.790977
vertex -8.374855 67.021606 39.582840
vertex -8.606880 66.911720 39.742466
endloop
endfacet
facet normal -0.002982 -0.821646 -0.569991
outer loop
vertex -10.077110 68.451118 37.531105
vertex -10.052513 66.826927 39.872280
vertex -10.320351 66.907494 39.757538
endloop
endfacet
facet normal -0.002928 -0.821639 -0.570000
outer loop
vertex -10.904472 67.973351 38.224163
vertex -10.894283 67.300583 39.193909
vertex -10.984535 67.465263 38.956993
endloop
endfacet
facet normal -0.003028 -0.821640 -0.569999
outer loop
vertex -10.894283 67.300583 39.193909
vertex -10.904472 67.973351 38.224163
vertex -10.764275 68.125671 38.003853
endloop
endfacet
facet normal -0.002974 -0.821648 -0.569987
outer loop
vertex -10.052513 66.826927 39.872280
vertex -10.077110 68.451118 37.531105
vertex -9.788582 68.501854 37.456459
endloop
endfacet
facet normal -0.002989 -0.821647 -0.569989
outer loop
vertex -8.872257 66.829834 39.861900
vertex -8.896854 68.454025 37.520718
vertex -8.629017 68.373451 37.635460
endloop
endfacet
facet normal -0.003011 -0.821655 -0.569978
outer loop
vertex -8.044891 67.307602 39.168842
vertex -8.055084 67.980370 38.199093
vertex -7.964828 67.815689 38.436008
endloop
endfacet
facet normal -0.002982 -0.821648 -0.569988
outer loop
vertex -8.055084 67.980370 38.199093
vertex -8.044891 67.307602 39.168842
vertex -8.185093 67.155281 39.389149
endloop
endfacet
facet normal -0.002992 -0.821651 -0.569984
outer loop
vertex -8.896854 68.454025 37.520718
vertex -8.872257 66.829834 39.861900
vertex -9.160782 66.779099 39.936543
endloop
endfacet
facet normal -0.002987 -0.821647 -0.569989
outer loop
vertex -9.788582 68.501854 37.456459
vertex -9.762474 66.777618 39.941837
vertex -10.052513 66.826927 39.872280
endloop
endfacet
facet normal -0.003014 -0.821647 -0.569989
outer loop
vertex -10.342487 68.369232 37.650536
vertex -10.320351 66.907494 39.757538
vertex -10.555687 67.016235 39.602024
endloop
endfacet
facet normal -0.003015 -0.821649 -0.569986
outer loop
vertex -10.764275 68.125671 38.003853
vertex -10.749481 67.148964 39.411709
vertex -10.894283 67.300583 39.193909
endloop
endfacet
facet normal -0.003048 -0.821657 -0.569975
outer loop
vertex -10.989727 67.808235 38.462624
vertex -10.984535 67.465263 38.956993
vertex -11.016766 67.636681 38.710068
endloop
endfacet
facet normal -0.003016 -0.821648 -0.569987
outer loop
vertex -10.984535 67.465263 38.956993
vertex -10.989727 67.808235 38.462624
vertex -10.904472 67.973351 38.224163
endloop
endfacet
facet normal -0.002957 -0.821646 -0.569990
outer loop
vertex -10.749481 67.148964 39.411709
vertex -10.764275 68.125671 38.003853
vertex -10.574512 68.259346 37.810165
endloop
endfacet
facet normal -0.002986 -0.821651 -0.569983
outer loop
vertex -10.320351 66.907494 39.757538
vertex -10.342487 68.369232 37.650536
vertex -10.077110 68.451118 37.531105
endloop
endfacet
facet normal -0.002979 -0.821649 -0.569986
outer loop
vertex -9.762474 66.777618 39.941837
vertex -9.788582 68.501854 37.456459
vertex -9.487999 68.519485 37.429466
endloop
endfacet
facet normal -0.002988 -0.821644 -0.569993
outer loop
vertex -9.160782 66.779099 39.936543
vertex -9.186893 68.503334 37.451160
vertex -8.896854 68.454025 37.520718
endloop
endfacet
facet normal -0.002958 -0.821649 -0.569986
outer loop
vertex -8.606880 66.911720 39.742466
vertex -8.629017 68.373451 37.635460
vertex -8.393681 68.264717 37.790977
endloop
endfacet
facet normal -0.002945 -0.821650 -0.569984
outer loop
vertex -8.185093 67.155281 39.389149
vertex -8.199886 68.131981 37.981293
vertex -8.055084 67.980370 38.199093
endloop
endfacet
facet normal -0.003316 -0.821646 -0.569988
outer loop
vertex -7.959637 67.472717 38.930382
vertex -7.964828 67.815689 38.436008
vertex -7.932602 67.644272 38.682934
endloop
endfacet
facet normal -0.002890 -0.821642 -0.569997
outer loop
vertex -7.964828 67.815689 38.436008
vertex -7.959637 67.472717 38.930382
vertex -8.044891 67.307602 39.168842
endloop
endfacet
facet normal -0.002992 -0.821643 -0.569994
outer loop
vertex -8.199886 68.131981 37.981293
vertex -8.185093 67.155281 39.389149
vertex -8.374855 67.021606 39.582840
endloop
endfacet
facet normal -0.002983 -0.821649 -0.569987
outer loop
vertex -8.629017 68.373451 37.635460
vertex -8.606880 66.911720 39.742466
vertex -8.872257 66.829834 39.861900
endloop
endfacet
facet normal -0.002992 -0.821647 -0.569989
outer loop
vertex -9.186893 68.503334 37.451160
vertex -9.160782 66.779099 39.936543
vertex -9.461369 66.761467 39.963535
endloop
endfacet
facet normal -0.089416 -0.567490 0.818511
outer loop
vertex -9.762474 66.777618 39.941837
vertex -9.461369 66.761467 39.963535
vertex -9.753242 69.311813 41.699844
endloop
endfacet
facet normal -0.282028 -0.546162 0.788776
outer loop
vertex -10.052513 66.826927 39.872280
vertex -9.762474 66.777618 39.941837
vertex -10.043289 69.361130 41.630291
endloop
endfacet
facet normal -0.463770 -0.503847 0.728736
outer loop
vertex -10.320351 66.907494 39.757538
vertex -10.052513 66.826927 39.872280
vertex -10.311123 69.441696 41.515549
endloop
endfacet
facet normal -0.627699 -0.442169 0.640687
outer loop
vertex -10.555687 67.016235 39.602024
vertex -10.320351 66.907494 39.757538
vertex -10.546463 69.550438 41.360031
endloop
endfacet
facet normal -0.767511 -0.363492 0.528016
outer loop
vertex -10.749481 67.148964 39.411709
vertex -10.555687 67.016235 39.602024
vertex -10.740257 69.683167 41.169716
endloop
endfacet
facet normal -0.877817 -0.270861 0.395060
outer loop
vertex -10.894283 67.300583 39.193909
vertex -10.749481 67.148964 39.411709
vertex -10.885059 69.834785 40.951916
endloop
endfacet
facet normal -0.954393 -0.167817 0.246925
outer loop
vertex -10.984535 67.465263 38.956993
vertex -10.894283 67.300583 39.193909
vertex -10.975307 69.999466 40.715004
endloop
endfacet
facet normal -0.994296 -0.058325 0.089297
outer loop
vertex -11.016766 67.636681 38.710068
vertex -10.984535 67.465263 38.956993
vertex -11.007538 70.170876 40.468075
endloop
endfacet
facet normal -0.995988 0.053425 -0.071794
outer loop
vertex -10.989727 67.808235 38.462624
vertex -11.016766 67.636681 38.710068
vertex -10.980503 70.342438 40.220631
endloop
endfacet
facet normal -0.959409 0.163095 -0.230074
outer loop
vertex -10.904472 67.973351 38.224163
vertex -10.989727 67.808235 38.462624
vertex -10.895248 70.507553 39.982170
endloop
endfacet
facet normal -0.885959 0.266518 -0.379533
outer loop
vertex -10.764275 68.125671 38.003853
vertex -10.904472 67.973351 38.224163
vertex -10.755047 70.659866 39.761864
endloop
endfacet
facet normal -0.778449 0.359699 -0.514426
outer loop
vertex -10.574512 68.259346 37.810165
vertex -10.764275 68.125671 38.003853
vertex -10.565289 70.793541 39.568169
endloop
endfacet
facet normal -0.641038 0.439048 -0.629529
outer loop
vertex -10.342487 68.369232 37.650536
vertex -10.574512 68.259346 37.810165
vertex -10.333260 70.903435 39.408546
endloop
endfacet
facet normal -0.478989 0.501523 -0.720447
outer loop
vertex -10.077110 68.451118 37.531105
vertex -10.342487 68.369232 37.650536
vertex -10.067886 70.985321 39.289108
endloop
endfacet
facet normal -0.298522 0.544731 -0.783679
outer loop
vertex -9.788582 68.501854 37.456459
vertex -10.077110 68.451118 37.531105
vertex -9.779358 71.036057 39.214462
endloop
endfacet
facet normal -0.106602 0.567002 -0.816789
outer loop
vertex -9.487999 68.519485 37.429466
vertex -9.788582 68.501854 37.456459
vertex -9.478767 71.053680 39.187469
endloop
endfacet
facet normal 0.089416 0.567490 -0.818511
outer loop
vertex -9.487999 68.519485 37.429466
vertex -9.478767 71.053680 39.187469
vertex -9.186893 68.503334 37.451160
endloop
endfacet
facet normal 0.282030 0.546159 -0.788777
outer loop
vertex -9.186893 68.503334 37.451160
vertex -9.177670 71.037537 39.209167
vertex -8.896854 68.454025 37.520718
endloop
endfacet
facet normal 0.463770 0.503847 -0.728736
outer loop
vertex -8.896854 68.454025 37.520718
vertex -8.887627 70.988228 39.278725
vertex -8.629017 68.373451 37.635460
endloop
endfacet
facet normal 0.627690 0.442174 -0.640692
outer loop
vertex -8.629017 68.373451 37.635460
vertex -8.619793 70.907654 39.393467
vertex -8.393681 68.264717 37.790977
endloop
endfacet
facet normal 0.767503 0.363500 -0.528021
outer loop
vertex -8.393681 68.264717 37.790977
vertex -8.384457 70.798912 39.548981
vertex -8.199886 68.131981 37.981293
endloop
endfacet
facet normal 0.877816 0.270864 -0.395060
outer loop
vertex -8.199886 68.131981 37.981293
vertex -8.190662 70.666183 39.739300
vertex -8.055084 67.980370 38.199093
endloop
endfacet
facet normal 0.954391 0.167821 -0.246927
outer loop
vertex -8.055084 67.980370 38.199093
vertex -8.045853 70.514565 39.957100
vertex -7.964828 67.815689 38.436008
endloop
endfacet
facet normal 0.994298 0.058317 -0.089280
outer loop
vertex -7.964828 67.815689 38.436008
vertex -7.955605 70.349884 40.194016
vertex -7.932602 67.644272 38.682934
endloop
endfacet
facet normal 0.995989 -0.053420 0.071778
outer loop
vertex -7.932602 67.644272 38.682934
vertex -7.923374 70.178474 40.440941
vertex -7.959637 67.472717 38.930382
endloop
endfacet
facet normal 0.959406 -0.163102 0.230080
outer loop
vertex -7.959637 67.472717 38.930382
vertex -7.950409 70.006912 40.688389
vertex -8.044891 67.307602 39.168842
endloop
endfacet
facet normal 0.885954 -0.266518 0.379543
outer loop
vertex -8.044891 67.307602 39.168842
vertex -8.035667 69.841805 40.926846
vertex -8.185093 67.155281 39.389149
endloop
endfacet
facet normal 0.778456 -0.359692 0.514420
outer loop
vertex -8.185093 67.155281 39.389149
vertex -8.175869 69.689484 41.147156
vertex -8.374855 67.021606 39.582840
endloop
endfacet
facet normal 0.641039 -0.439043 0.629531
outer loop
vertex -8.374855 67.021606 39.582840
vertex -8.365631 69.555809 41.340843
vertex -8.606880 66.911720 39.742466
endloop
endfacet
facet normal 0.478990 -0.501524 0.720445
outer loop
vertex -8.606880 66.911720 39.742466
vertex -8.597656 69.445923 41.500473
vertex -8.872257 66.829834 39.861900
endloop
endfacet
facet normal 0.106600 -0.567003 0.816789
outer loop
vertex -9.160782 66.779099 39.936543
vertex -9.151558 69.313301 41.694550
vertex -9.461369 66.761467 39.963535
endloop
endfacet
facet normal 0.298528 -0.544733 0.783676
outer loop
vertex -8.872257 66.829834 39.861900
vertex -8.863029 69.364029 41.619904
vertex -9.160782 66.779099 39.936543
endloop
endfacet
endsolid Exported from Blender-2.74 (sub 0)
