solid Exported from Blender-2.74 (sub 0)
facet normal 0.000000 1.000000 0.000000
outer loop
vertex 7.006849 64.804016 69.529633
vertex 7.019485 64.804016 70.965691
vertex 17.320000 64.804016 69.439003
endloop
endfacet
facet normal -0.999958 -0.002464 0.008798
outer loop
vertex 17.314655 66.940826 69.429710
vertex 17.112631 66.840378 46.439774
vertex 17.117725 64.804008 46.448624
endloop
endfacet
facet normal -0.999958 -0.002464 0.008798
outer loop
vertex 17.327274 66.947105 70.865753
vertex 17.314655 66.940826 69.429710
vertex 17.320000 64.804016 69.439003
endloop
endfacet
facet normal 0.002501 -0.999987 0.004348
outer loop
vertex 17.314655 66.940826 69.429710
vertex 7.001568 66.915428 69.520447
vertex 6.799543 66.814980 46.530514
endloop
endfacet
facet normal 0.008786 0.004370 0.999952
outer loop
vertex 17.112631 66.840378 46.439774
vertex 6.799543 66.814980 46.530514
vertex 6.804575 64.804008 46.539257
endloop
endfacet
facet normal -0.008786 -0.004367 -0.999952
outer loop
vertex 7.019485 64.804016 70.965691
vertex 7.014187 66.921700 70.956490
vertex 17.327274 66.947105 70.865753
endloop
endfacet
facet normal -0.999958 -0.002463 0.008798
outer loop
vertex 17.319046 70.236313 70.851448
vertex 17.306427 70.230034 69.415413
vertex 17.314655 66.940826 69.429710
endloop
endfacet
facet normal 0.999958 0.002464 -0.008798
outer loop
vertex 6.804575 64.804008 46.539257
vertex 6.799543 66.814980 46.530514
vertex 7.001568 66.915428 69.520447
endloop
endfacet
facet normal 0.999958 0.002463 -0.008798
outer loop
vertex 7.006849 64.804016 69.529633
vertex 7.001568 66.915428 69.520447
vertex 7.014187 66.921700 70.956490
endloop
endfacet
facet normal 0.002500 -0.999988 0.004329
outer loop
vertex 12.941331 70.222878 70.281097
vertex 11.372976 70.219017 70.294891
vertex 11.371058 70.218063 70.076508
endloop
endfacet
facet normal 0.002501 -0.999987 0.004359
outer loop
vertex 6.993340 70.204636 69.506149
vertex 11.371058 70.218063 70.076508
vertex 11.372976 70.219017 70.294891
endloop
endfacet
facet normal 0.002501 -0.999987 0.004354
outer loop
vertex 7.005960 70.210907 70.942184
vertex 6.993340 70.204636 69.506149
vertex 11.372976 70.219017 70.294891
endloop
endfacet
facet normal 0.002500 -0.999987 0.004366
outer loop
vertex 12.939411 70.221924 70.062714
vertex 12.941331 70.222878 70.281097
vertex 11.371058 70.218063 70.076508
endloop
endfacet
facet normal 0.002501 -0.999987 0.004347
outer loop
vertex 17.112631 66.840378 46.439774
vertex 17.314655 66.940826 69.429710
vertex 6.799543 66.814980 46.530514
endloop
endfacet
facet normal -0.002502 0.999988 -0.004320
outer loop
vertex 17.314655 66.940826 69.429710
vertex 17.309841 66.938438 68.881805
vertex 6.996754 66.913033 68.972542
endloop
endfacet
facet normal -0.008787 -0.004371 -0.999952
outer loop
vertex 7.014187 66.921700 70.956490
vertex 7.005960 70.210907 70.942184
vertex 17.319046 70.236313 70.851448
endloop
endfacet
facet normal -0.999958 -0.002464 0.008797
outer loop
vertex 17.306427 70.230034 69.415413
vertex 17.301613 70.227638 68.867500
vertex 17.309841 66.938438 68.881805
endloop
endfacet
facet normal 0.999958 0.002463 -0.008793
outer loop
vertex 6.996754 66.913033 68.972542
vertex 6.988527 70.202240 68.958237
vertex 6.993340 70.204636 69.506149
endloop
endfacet
facet normal 0.999958 0.002463 -0.008799
outer loop
vertex 7.001568 66.915428 69.520447
vertex 6.993340 70.204636 69.506149
vertex 7.005960 70.210907 70.942184
endloop
endfacet
facet normal 0.002501 -0.999987 0.004379
outer loop
vertex 6.988527 70.202240 68.958237
vertex 17.301613 70.227638 68.867500
vertex 17.306427 70.230034 69.415413
endloop
endfacet
facet normal 0.002503 -0.999987 0.004437
outer loop
vertex 17.319046 70.236313 70.851448
vertex 12.941331 70.222878 70.281097
vertex 12.939411 70.221924 70.062714
endloop
endfacet
facet normal 0.002500 -0.999987 0.004442
outer loop
vertex 17.306427 70.230034 69.415413
vertex 12.939411 70.221924 70.062714
vertex 11.371058 70.218063 70.076508
endloop
endfacet
facet normal 0.008788 0.004371 0.999952
outer loop
vertex 17.301613 70.227638 68.867500
vertex 6.988527 70.202240 68.958237
vertex 6.996754 66.913033 68.972542
endloop
endfacet
facet normal 0.002500 -0.999988 0.004282
outer loop
vertex 11.372976 70.219017 70.294891
vertex 12.941331 70.222878 70.281097
vertex 17.319046 70.236313 70.851448
endloop
endfacet
facet normal 0.002501 -0.999987 0.004320
outer loop
vertex 6.993340 70.204636 69.506149
vertex 6.988527 70.202240 68.958237
vertex 17.306427 70.230034 69.415413
endloop
endfacet
facet normal 0.002502 -0.999987 0.004345
outer loop
vertex 17.306427 70.230034 69.415413
vertex 17.319046 70.236313 70.851448
vertex 12.939411 70.221924 70.062714
endloop
endfacet
facet normal 0.002501 -0.999987 0.004345
outer loop
vertex 6.993340 70.204636 69.506149
vertex 17.306427 70.230034 69.415413
vertex 11.371058 70.218063 70.076508
endloop
endfacet
facet normal 0.002502 -0.999987 0.004345
outer loop
vertex 7.005960 70.210907 70.942184
vertex 11.372976 70.219017 70.294891
vertex 17.319046 70.236313 70.851448
endloop
endfacet
facet normal -0.000000 1.000000 -0.000001
outer loop
vertex 17.117725 64.804008 46.448624
vertex 6.804575 64.804008 46.539257
vertex 7.006849 64.804016 69.529633
endloop
endfacet
facet normal 0.000000 1.000000 0.000004
outer loop
vertex 7.019485 64.804016 70.965691
vertex 17.332634 64.804016 70.875061
vertex 17.320000 64.804016 69.439003
endloop
endfacet
facet normal -0.000000 1.000000 0.000001
outer loop
vertex 17.320000 64.804016 69.439003
vertex 17.117725 64.804008 46.448624
vertex 7.006849 64.804016 69.529633
endloop
endfacet
facet normal -0.999958 -0.002464 0.008798
outer loop
vertex 17.320000 64.804016 69.439003
vertex 17.314655 66.940826 69.429710
vertex 17.117725 64.804008 46.448624
endloop
endfacet
facet normal -0.999958 -0.002463 0.008798
outer loop
vertex 17.332634 64.804016 70.875061
vertex 17.327274 66.947105 70.865753
vertex 17.320000 64.804016 69.439003
endloop
endfacet
facet normal 0.008789 0.004368 0.999952
outer loop
vertex 17.117725 64.804008 46.448624
vertex 17.112631 66.840378 46.439774
vertex 6.804575 64.804008 46.539257
endloop
endfacet
facet normal -0.008788 -0.004365 -0.999952
outer loop
vertex 17.332634 64.804016 70.875061
vertex 7.019485 64.804016 70.965691
vertex 17.327274 66.947105 70.865753
endloop
endfacet
facet normal -0.999958 -0.002463 0.008798
outer loop
vertex 17.327274 66.947105 70.865753
vertex 17.319046 70.236313 70.851448
vertex 17.314655 66.940826 69.429710
endloop
endfacet
facet normal 0.999958 0.002462 -0.008798
outer loop
vertex 7.006849 64.804016 69.529633
vertex 6.804575 64.804008 46.539257
vertex 7.001568 66.915428 69.520447
endloop
endfacet
facet normal 0.999958 0.002464 -0.008799
outer loop
vertex 7.019485 64.804016 70.965691
vertex 7.006849 64.804016 69.529633
vertex 7.014187 66.921700 70.956490
endloop
endfacet
facet normal -0.002501 0.999987 -0.004385
outer loop
vertex 7.001568 66.915428 69.520447
vertex 17.314655 66.940826 69.429710
vertex 6.996754 66.913033 68.972542
endloop
endfacet
facet normal -0.008788 -0.004371 -0.999952
outer loop
vertex 17.327274 66.947105 70.865753
vertex 7.014187 66.921700 70.956490
vertex 17.319046 70.236313 70.851448
endloop
endfacet
facet normal -0.999958 -0.002463 0.008797
outer loop
vertex 17.314655 66.940826 69.429710
vertex 17.306427 70.230034 69.415413
vertex 17.309841 66.938438 68.881805
endloop
endfacet
facet normal 0.999958 0.002463 -0.008797
outer loop
vertex 7.001568 66.915428 69.520447
vertex 6.996754 66.913033 68.972542
vertex 6.993340 70.204636 69.506149
endloop
endfacet
facet normal 0.999958 0.002463 -0.008798
outer loop
vertex 7.014187 66.921700 70.956490
vertex 7.001568 66.915428 69.520447
vertex 7.005960 70.210907 70.942184
endloop
endfacet
facet normal 0.008787 0.004371 0.999952
outer loop
vertex 17.309841 66.938438 68.881805
vertex 17.301613 70.227638 68.867500
vertex 6.996754 66.913033 68.972542
endloop
endfacet
endsolid Exported from Blender-2.74 (sub 0)
