solid Exported from Blender-2.74 (sub 0)
facet normal 0.106599 -0.567002 0.816790
outer loop
vertex 19.813105 66.655006 39.792633
vertex 20.113693 66.672638 39.765644
vertex 20.122917 69.206841 41.523651
endloop
endfacet
facet normal 0.298539 -0.544737 0.783668
outer loop
vertex 20.113693 66.672638 39.765644
vertex 20.402220 66.723373 39.690994
vertex 20.411446 69.257576 41.449005
endloop
endfacet
facet normal 0.478992 -0.501526 0.720443
outer loop
vertex 20.402220 66.723373 39.690994
vertex 20.667595 66.805260 39.571560
vertex 20.676821 69.339462 41.329571
endloop
endfacet
facet normal 0.641039 -0.439049 0.629527
outer loop
vertex 20.667595 66.805260 39.571560
vertex 20.899620 66.915154 39.411934
vertex 20.908844 69.449356 41.169945
endloop
endfacet
facet normal 0.778457 -0.359698 0.514415
outer loop
vertex 20.899620 66.915154 39.411934
vertex 21.089378 67.048828 39.218243
vertex 21.098606 69.583023 40.976254
endloop
endfacet
facet normal 0.885947 -0.266527 0.379554
outer loop
vertex 21.089378 67.048828 39.218243
vertex 21.229582 67.201149 38.997940
vertex 21.238808 69.735344 40.755947
endloop
endfacet
facet normal 0.959407 -0.163106 0.230076
outer loop
vertex 21.229582 67.201149 38.997940
vertex 21.314837 67.366257 38.759476
vertex 21.324062 69.900459 40.517487
endloop
endfacet
facet normal 0.995988 -0.053423 0.071786
outer loop
vertex 21.314837 67.366257 38.759476
vertex 21.341873 67.537819 38.512032
vertex 21.351099 70.072021 40.270039
endloop
endfacet
facet normal 0.994296 0.058333 -0.089295
outer loop
vertex 21.341873 67.537819 38.512032
vertex 21.309643 67.709229 38.265106
vertex 21.318869 70.243431 40.023117
endloop
endfacet
facet normal 0.954396 0.167810 -0.246916
outer loop
vertex 21.309643 67.709229 38.265106
vertex 21.219393 67.873909 38.028194
vertex 21.228619 70.408112 39.786201
endloop
endfacet
facet normal 0.877817 0.270860 -0.395059
outer loop
vertex 21.219393 67.873909 38.028194
vertex 21.074587 68.025528 37.810390
vertex 21.083813 70.559723 39.568398
endloop
endfacet
facet normal 0.767509 0.363496 -0.528015
outer loop
vertex 21.074587 68.025528 37.810390
vertex 20.880793 68.158257 37.620075
vertex 20.890018 70.692459 39.378082
endloop
endfacet
facet normal 0.627698 0.442173 -0.640685
outer loop
vertex 20.880793 68.158257 37.620075
vertex 20.645454 68.266998 37.464558
vertex 20.654680 70.801193 39.222565
endloop
endfacet
facet normal 0.463772 0.503840 -0.728739
outer loop
vertex 20.645454 68.266998 37.464558
vertex 20.377619 68.347572 37.349819
vertex 20.386845 70.881767 39.107826
endloop
endfacet
facet normal 0.282042 0.546156 -0.788775
outer loop
vertex 20.377619 68.347572 37.349819
vertex 20.087578 68.396881 37.280262
vertex 20.096804 70.931076 39.038269
endloop
endfacet
facet normal 0.089417 0.567482 -0.818516
outer loop
vertex 20.087578 68.396881 37.280262
vertex 19.786478 68.413025 37.258564
vertex 19.795704 70.947227 39.016571
endloop
endfacet
facet normal -0.106607 0.567000 -0.816790
outer loop
vertex 19.485888 68.395393 37.285553
vertex 19.495113 70.929596 39.043564
vertex 19.795704 70.947227 39.016571
endloop
endfacet
facet normal -0.298540 0.544728 -0.783674
outer loop
vertex 19.197361 68.344666 37.360199
vertex 19.206589 70.878860 39.118210
vertex 19.495113 70.929596 39.043564
endloop
endfacet
facet normal -0.478996 0.501524 -0.720442
outer loop
vertex 18.931988 68.262779 37.479633
vertex 18.941212 70.796982 39.237644
vertex 19.206589 70.878860 39.118210
endloop
endfacet
facet normal -0.641026 0.439051 -0.629539
outer loop
vertex 18.699961 68.152885 37.639259
vertex 18.709187 70.687088 39.397270
vertex 18.941212 70.796982 39.237644
endloop
endfacet
facet normal -0.778466 0.359683 -0.514412
outer loop
vertex 18.510202 68.019211 37.832954
vertex 18.519428 70.553413 39.590961
vertex 18.709187 70.687088 39.397270
endloop
endfacet
facet normal -0.885955 0.266517 -0.379543
outer loop
vertex 18.369999 67.866890 38.053261
vertex 18.379227 70.401093 39.811268
vertex 18.519428 70.553413 39.590961
endloop
endfacet
facet normal -0.959404 0.163106 -0.230086
outer loop
vertex 18.284744 67.701775 38.291721
vertex 18.293968 70.235977 40.049728
vertex 18.379227 70.401093 39.811268
endloop
endfacet
facet normal -0.995989 0.053419 -0.071780
outer loop
vertex 18.257708 67.530220 38.539165
vertex 18.266933 70.064423 40.297176
vertex 18.293968 70.235977 40.049728
endloop
endfacet
facet normal -0.994296 -0.058329 0.089291
outer loop
vertex 18.289940 67.358810 38.786095
vertex 18.299164 69.893005 40.544102
vertex 18.266933 70.064423 40.297176
endloop
endfacet
facet normal -0.954394 -0.167815 0.246922
outer loop
vertex 18.380188 67.194130 39.023010
vertex 18.389416 69.728333 40.781017
vertex 18.299164 69.893005 40.544102
endloop
endfacet
facet normal -0.877820 -0.270856 0.395057
outer loop
vertex 18.524994 67.042511 39.240810
vertex 18.534220 69.576706 40.998817
vertex 18.389416 69.728333 40.781017
endloop
endfacet
facet normal -0.767496 -0.363502 0.528031
outer loop
vertex 18.718788 66.909775 39.431122
vertex 18.728014 69.443985 41.189133
vertex 18.534220 69.576706 40.998817
endloop
endfacet
facet normal -0.627710 -0.442159 0.640683
outer loop
vertex 18.954128 66.801041 39.586639
vertex 18.963354 69.335236 41.344650
vertex 18.728014 69.443985 41.189133
endloop
endfacet
facet normal -0.463754 -0.503846 0.728746
outer loop
vertex 19.221962 66.720467 39.701385
vertex 19.231188 69.254669 41.459389
vertex 18.963354 69.335236 41.344650
endloop
endfacet
facet normal -0.089413 -0.567485 0.818515
outer loop
vertex 19.813105 66.655006 39.792633
vertex 19.822329 69.189209 41.550644
vertex 19.521229 69.205360 41.528942
endloop
endfacet
facet normal -0.282011 -0.546155 0.788787
outer loop
vertex 19.512005 66.671158 39.770935
vertex 19.521229 69.205360 41.528942
vertex 19.231188 69.254669 41.459389
endloop
endfacet
facet normal -0.002993 -0.821644 -0.569993
outer loop
vertex 19.813105 66.655006 39.792633
vertex 19.512005 66.671158 39.770935
vertex 19.786478 68.413025 37.258564
endloop
endfacet
facet normal -0.002993 -0.821645 -0.569992
outer loop
vertex 19.786478 68.413025 37.258564
vertex 20.087578 68.396881 37.280262
vertex 19.813105 66.655006 39.792633
endloop
endfacet
facet normal -0.003016 -0.821645 -0.569992
outer loop
vertex 18.699961 68.152885 37.639259
vertex 18.718788 66.909775 39.431122
vertex 18.524994 67.042511 39.240810
endloop
endfacet
facet normal -0.002988 -0.821650 -0.569985
outer loop
vertex 18.718788 66.909775 39.431122
vertex 18.699961 68.152885 37.639259
vertex 18.931988 68.262779 37.479633
endloop
endfacet
facet normal -0.003014 -0.821648 -0.569988
outer loop
vertex 20.899620 66.915154 39.411934
vertex 20.880793 68.158257 37.620075
vertex 21.074587 68.025528 37.810390
endloop
endfacet
facet normal -0.002975 -0.821648 -0.569987
outer loop
vertex 20.880793 68.158257 37.620075
vertex 20.899620 66.915154 39.411934
vertex 20.667595 66.805260 39.571560
endloop
endfacet
facet normal -0.002981 -0.821648 -0.569987
outer loop
vertex 19.197361 68.344666 37.360199
vertex 19.221962 66.720467 39.701385
vertex 18.954128 66.801041 39.586639
endloop
endfacet
facet normal -0.003020 -0.821650 -0.569984
outer loop
vertex 18.369999 67.866890 38.053261
vertex 18.380188 67.194130 39.023010
vertex 18.289940 67.358810 38.786095
endloop
endfacet
facet normal -0.002960 -0.821646 -0.569990
outer loop
vertex 18.380188 67.194130 39.023010
vertex 18.369999 67.866890 38.053261
vertex 18.510202 68.019211 37.832954
endloop
endfacet
facet normal -0.003013 -0.821649 -0.569987
outer loop
vertex 19.221962 66.720467 39.701385
vertex 19.197361 68.344666 37.360199
vertex 19.485888 68.395393 37.285553
endloop
endfacet
facet normal -0.003016 -0.821655 -0.569977
outer loop
vertex 20.402220 66.723373 39.690994
vertex 20.377619 68.347572 37.349819
vertex 20.645454 68.266998 37.464558
endloop
endfacet
facet normal -0.003057 -0.821649 -0.569986
outer loop
vertex 21.229582 67.201149 38.997940
vertex 21.219393 67.873909 38.028194
vertex 21.309643 67.709229 38.265106
endloop
endfacet
facet normal -0.002943 -0.821654 -0.569979
outer loop
vertex 21.219393 67.873909 38.028194
vertex 21.229582 67.201149 38.997940
vertex 21.089378 67.048828 39.218243
endloop
endfacet
facet normal -0.002993 -0.821648 -0.569987
outer loop
vertex 20.377619 68.347572 37.349819
vertex 20.402220 66.723373 39.690994
vertex 20.113693 66.672638 39.765644
endloop
endfacet
facet normal -0.002995 -0.821653 -0.569981
outer loop
vertex 19.485888 68.395393 37.285553
vertex 19.512005 66.671158 39.770935
vertex 19.221962 66.720467 39.701385
endloop
endfacet
facet normal -0.002968 -0.821648 -0.569987
outer loop
vertex 18.931988 68.262779 37.479633
vertex 18.954128 66.801041 39.586639
vertex 18.718788 66.909775 39.431122
endloop
endfacet
facet normal -0.003015 -0.821642 -0.569996
outer loop
vertex 18.510202 68.019211 37.832954
vertex 18.524994 67.042511 39.240810
vertex 18.380188 67.194130 39.023010
endloop
endfacet
facet normal -0.002834 -0.821683 -0.569937
outer loop
vertex 18.284744 67.701775 38.291721
vertex 18.289940 67.358810 38.786095
vertex 18.257708 67.530220 38.539165
endloop
endfacet
facet normal -0.002944 -0.821657 -0.569975
outer loop
vertex 18.289940 67.358810 38.786095
vertex 18.284744 67.701775 38.291721
vertex 18.369999 67.866890 38.053261
endloop
endfacet
facet normal -0.003009 -0.821650 -0.569984
outer loop
vertex 18.524994 67.042511 39.240810
vertex 18.510202 68.019211 37.832954
vertex 18.699961 68.152885 37.639259
endloop
endfacet
facet normal -0.002989 -0.821645 -0.569992
outer loop
vertex 18.954128 66.801041 39.586639
vertex 18.931988 68.262779 37.479633
vertex 19.197361 68.344666 37.360199
endloop
endfacet
facet normal -0.002997 -0.821650 -0.569984
outer loop
vertex 19.512005 66.671158 39.770935
vertex 19.485888 68.395393 37.285553
vertex 19.786478 68.413025 37.258564
endloop
endfacet
facet normal -0.002980 -0.821645 -0.569992
outer loop
vertex 20.113693 66.672638 39.765644
vertex 20.087578 68.396881 37.280262
vertex 20.377619 68.347572 37.349819
endloop
endfacet
facet normal -0.002988 -0.821641 -0.569997
outer loop
vertex 20.667595 66.805260 39.571560
vertex 20.645454 68.266998 37.464558
vertex 20.880793 68.158257 37.620075
endloop
endfacet
facet normal -0.002991 -0.821647 -0.569989
outer loop
vertex 21.089378 67.048828 39.218243
vertex 21.074587 68.025528 37.810390
vertex 21.219393 67.873909 38.028194
endloop
endfacet
facet normal -0.002835 -0.821626 -0.570020
outer loop
vertex 21.314837 67.366257 38.759476
vertex 21.309643 67.709229 38.265106
vertex 21.341873 67.537819 38.512032
endloop
endfacet
facet normal -0.003070 -0.821672 -0.569953
outer loop
vertex 21.309643 67.709229 38.265106
vertex 21.314837 67.366257 38.759476
vertex 21.229582 67.201149 38.997940
endloop
endfacet
facet normal -0.002966 -0.821650 -0.569984
outer loop
vertex 21.074587 68.025528 37.810390
vertex 21.089378 67.048828 39.218243
vertex 20.899620 66.915154 39.411934
endloop
endfacet
facet normal -0.002979 -0.821643 -0.569994
outer loop
vertex 20.645454 68.266998 37.464558
vertex 20.667595 66.805260 39.571560
vertex 20.402220 66.723373 39.690994
endloop
endfacet
facet normal -0.002975 -0.821648 -0.569987
outer loop
vertex 20.087578 68.396881 37.280262
vertex 20.113693 66.672638 39.765644
vertex 19.813105 66.655006 39.792633
endloop
endfacet
facet normal 0.106600 -0.567005 0.816788
outer loop
vertex 19.822329 69.189209 41.550644
vertex 19.813105 66.655006 39.792633
vertex 20.122917 69.206841 41.523651
endloop
endfacet
facet normal 0.298522 -0.544727 0.783682
outer loop
vertex 20.122917 69.206841 41.523651
vertex 20.113693 66.672638 39.765644
vertex 20.411446 69.257576 41.449005
endloop
endfacet
facet normal 0.478994 -0.501520 0.720446
outer loop
vertex 20.411446 69.257576 41.449005
vertex 20.402220 66.723373 39.690994
vertex 20.676821 69.339462 41.329571
endloop
endfacet
facet normal 0.641042 -0.439043 0.629529
outer loop
vertex 20.676821 69.339462 41.329571
vertex 20.667595 66.805260 39.571560
vertex 20.908844 69.449356 41.169945
endloop
endfacet
facet normal 0.778450 -0.359695 0.514427
outer loop
vertex 20.908844 69.449356 41.169945
vertex 20.899620 66.915154 39.411934
vertex 21.098606 69.583023 40.976254
endloop
endfacet
facet normal 0.885956 -0.266517 0.379540
outer loop
vertex 21.098606 69.583023 40.976254
vertex 21.089378 67.048828 39.218243
vertex 21.238808 69.735344 40.755947
endloop
endfacet
facet normal 0.959409 -0.163095 0.230073
outer loop
vertex 21.238808 69.735344 40.755947
vertex 21.229582 67.201149 38.997940
vertex 21.324062 69.900459 40.517487
endloop
endfacet
facet normal 0.995989 -0.053421 0.071782
outer loop
vertex 21.324062 69.900459 40.517487
vertex 21.314837 67.366257 38.759476
vertex 21.351099 70.072021 40.270039
endloop
endfacet
facet normal 0.994296 0.058316 -0.089296
outer loop
vertex 21.351099 70.072021 40.270039
vertex 21.341873 67.537819 38.512032
vertex 21.318869 70.243431 40.023117
endloop
endfacet
facet normal 0.954396 0.167810 -0.246916
outer loop
vertex 21.318869 70.243431 40.023117
vertex 21.309643 67.709229 38.265106
vertex 21.228619 70.408112 39.786201
endloop
endfacet
facet normal 0.877813 0.270867 -0.395064
outer loop
vertex 21.228619 70.408112 39.786201
vertex 21.219393 67.873909 38.028194
vertex 21.083813 70.559723 39.568398
endloop
endfacet
facet normal 0.767494 0.363512 -0.528026
outer loop
vertex 21.083813 70.559723 39.568398
vertex 21.074587 68.025528 37.810390
vertex 20.890018 70.692459 39.378082
endloop
endfacet
facet normal 0.627684 0.442174 -0.640698
outer loop
vertex 20.890018 70.692459 39.378082
vertex 20.880793 68.158257 37.620075
vertex 20.654680 70.801193 39.222565
endloop
endfacet
facet normal 0.463749 0.503851 -0.728746
outer loop
vertex 20.654680 70.801193 39.222565
vertex 20.645454 68.266998 37.464558
vertex 20.386845 70.881767 39.107826
endloop
endfacet
facet normal 0.281999 0.546169 -0.788782
outer loop
vertex 20.386845 70.881767 39.107826
vertex 20.377619 68.347572 37.349819
vertex 20.096804 70.931076 39.038269
endloop
endfacet
facet normal 0.089417 0.567491 -0.818510
outer loop
vertex 20.096804 70.931076 39.038269
vertex 20.087578 68.396881 37.280262
vertex 19.795704 70.947227 39.016571
endloop
endfacet
facet normal -0.106599 0.567007 -0.816787
outer loop
vertex 19.786478 68.413025 37.258564
vertex 19.485888 68.395393 37.285553
vertex 19.795704 70.947227 39.016571
endloop
endfacet
facet normal -0.298523 0.544736 -0.783675
outer loop
vertex 19.485888 68.395393 37.285553
vertex 19.197361 68.344666 37.360199
vertex 19.495113 70.929596 39.043564
endloop
endfacet
facet normal -0.478986 0.501533 -0.720443
outer loop
vertex 19.197361 68.344666 37.360199
vertex 18.931988 68.262779 37.479633
vertex 19.206589 70.878860 39.118210
endloop
endfacet
facet normal -0.641049 0.439040 -0.629524
outer loop
vertex 18.931988 68.262779 37.479633
vertex 18.699961 68.152885 37.639259
vertex 18.941212 70.796982 39.237644
endloop
endfacet
facet normal -0.778467 0.359688 -0.514406
outer loop
vertex 18.699961 68.152885 37.639259
vertex 18.510202 68.019211 37.832954
vertex 18.709187 70.687088 39.397270
endloop
endfacet
facet normal -0.885950 0.266527 -0.379546
outer loop
vertex 18.510202 68.019211 37.832954
vertex 18.369999 67.866890 38.053261
vertex 18.519428 70.553413 39.590961
endloop
endfacet
facet normal -0.959407 0.163102 -0.230077
outer loop
vertex 18.369999 67.866890 38.053261
vertex 18.284744 67.701775 38.291721
vertex 18.379227 70.401093 39.811268
endloop
endfacet
facet normal -0.995988 0.053427 -0.071785
outer loop
vertex 18.284744 67.701775 38.291721
vertex 18.257708 67.530220 38.539165
vertex 18.293968 70.235977 40.049728
endloop
endfacet
facet normal -0.994296 -0.058327 0.089298
outer loop
vertex 18.257708 67.530220 38.539165
vertex 18.289940 67.358810 38.786095
vertex 18.266933 70.064423 40.297176
endloop
endfacet
facet normal -0.954396 -0.167812 0.246915
outer loop
vertex 18.289940 67.358810 38.786095
vertex 18.380188 67.194130 39.023010
vertex 18.299164 69.893005 40.544102
endloop
endfacet
facet normal -0.877810 -0.270867 0.395070
outer loop
vertex 18.380188 67.194130 39.023010
vertex 18.524994 67.042511 39.240810
vertex 18.389416 69.728333 40.781017
endloop
endfacet
facet normal -0.767510 -0.363500 0.528012
outer loop
vertex 18.524994 67.042511 39.240810
vertex 18.718788 66.909775 39.431122
vertex 18.534220 69.576706 40.998817
endloop
endfacet
facet normal -0.627678 -0.442186 0.640696
outer loop
vertex 18.718788 66.909775 39.431122
vertex 18.954128 66.801041 39.586639
vertex 18.728014 69.443985 41.189133
endloop
endfacet
facet normal -0.463773 -0.503854 0.728729
outer loop
vertex 18.954128 66.801041 39.586639
vertex 19.221962 66.720467 39.701385
vertex 18.963354 69.335236 41.344650
endloop
endfacet
facet normal -0.089433 -0.567495 0.818505
outer loop
vertex 19.512005 66.671158 39.770935
vertex 19.813105 66.655006 39.792633
vertex 19.521229 69.205360 41.528942
endloop
endfacet
facet normal -0.281995 -0.546169 0.788783
outer loop
vertex 19.221962 66.720467 39.701385
vertex 19.512005 66.671158 39.770935
vertex 19.231188 69.254669 41.459389
endloop
endfacet
endsolid Exported from Blender-2.74 (sub 0)
