solid Exported from Blender-2.74 (sub 0)
facet normal 0.000000 1.000000 -0.000165
outer loop
vertex 9.364576 64.804001 7.902666
vertex 8.778311 64.804001 7.616037
vertex 8.766369 64.804001 7.616364
endloop
endfacet
facet normal 0.056759 -0.847132 0.528342
outer loop
vertex 4.184990 70.467903 9.255302
vertex 7.307325 70.603889 9.137909
vertex 7.529053 71.321419 10.264566
endloop
endfacet
facet normal 0.345060 -0.774396 0.530325
outer loop
vertex 4.014246 71.189896 10.401474
vertex 0.840586 69.736206 10.343719
vertex 1.362377 69.190407 9.207237
endloop
endfacet
facet normal 0.056461 -0.638767 0.767326
outer loop
vertex 4.395416 69.593781 8.511295
vertex 7.058315 69.718109 8.418854
vertex 7.307325 70.603889 9.137909
endloop
endfacet
facet normal 0.039171 -0.998138 0.046755
outer loop
vertex 4.014246 71.189896 10.401474
vertex 7.529053 71.321419 10.264566
vertex 7.602165 71.385757 11.576704
endloop
endfacet
facet normal -0.282191 -0.783062 0.554240
outer loop
vertex 7.529053 71.321419 10.264566
vertex 7.307325 70.603889 9.137909
vertex 10.006952 69.499573 8.952177
endloop
endfacet
facet normal 0.414827 -0.907985 0.059011
outer loop
vertex 0.840586 69.736206 10.343719
vertex 4.014246 71.189896 10.401474
vertex 3.997383 71.267715 11.717508
endloop
endfacet
facet normal 0.255285 -0.592786 0.763829
outer loop
vertex 4.184990 70.467903 9.255302
vertex 1.362377 69.190407 9.207237
vertex 1.987143 68.515175 8.474403
endloop
endfacet
facet normal 0.040227 -0.179177 0.982994
outer loop
vertex 4.395416 69.593781 8.511295
vertex 4.664259 68.472748 8.295954
vertex 6.770918 68.573158 8.228045
endloop
endfacet
facet normal -0.186670 -0.587007 0.787767
outer loop
vertex 7.307325 70.603889 9.137909
vertex 7.058315 69.718109 8.418854
vertex 9.384626 68.785408 8.275093
endloop
endfacet
facet normal -0.591573 -0.554328 0.585459
outer loop
vertex 10.531532 70.072495 10.024694
vertex 10.006952 69.499573 8.952177
vertex 11.802800 67.398483 8.777407
endloop
endfacet
facet normal -0.378458 -0.923055 0.068833
outer loop
vertex 7.529053 71.321419 10.264566
vertex 10.531532 70.072495 10.024694
vertex 10.651911 70.117401 11.288562
endloop
endfacet
facet normal 0.615234 -0.569535 0.545084
outer loop
vertex 0.840586 69.736206 10.343719
vertex -1.206274 67.326393 10.136095
vertex -0.485035 67.060760 9.044485
endloop
endfacet
facet normal 0.757951 -0.649240 0.063230
outer loop
vertex -1.336266 67.298782 11.410844
vertex -1.206274 67.326393 10.136095
vertex 0.840586 69.736206 10.343719
endloop
endfacet
facet normal -0.003886 -0.163435 0.986546
outer loop
vertex 7.058315 69.718109 8.418854
vertex 6.770918 68.573158 8.228045
vertex 8.624573 67.851105 8.115728
endloop
endfacet
facet normal -0.408004 -0.415303 0.813054
outer loop
vertex 10.006952 69.499573 8.952177
vertex 9.384626 68.785408 8.275093
vertex 10.939737 66.991051 8.138927
endloop
endfacet
facet normal 0.028071 -0.999555 -0.010079
outer loop
vertex 7.665632 71.338837 14.879748
vertex 4.027452 71.235077 15.037188
vertex 3.997383 71.267715 11.717508
endloop
endfacet
facet normal 0.421905 -0.906550 -0.012736
outer loop
vertex 3.997383 71.267715 11.717508
vertex 4.027452 71.235077 15.037188
vertex 0.743357 69.707642 14.968011
endloop
endfacet
facet normal -0.775174 -0.190039 0.602487
outer loop
vertex 12.520631 67.715164 9.800875
vertex 11.802800 67.398483 8.777407
vertex 12.376749 64.804001 8.697504
endloop
endfacet
facet normal -0.756706 -0.647243 0.092046
outer loop
vertex 10.531532 70.072495 10.024694
vertex 12.520631 67.715164 9.800875
vertex 12.668382 67.716118 11.022166
endloop
endfacet
facet normal -0.384615 -0.923044 -0.007738
outer loop
vertex 7.602165 71.385757 11.576704
vertex 10.651911 70.117401 11.288562
vertex 10.720467 70.061882 14.503614
endloop
endfacet
facet normal 0.767745 -0.640659 -0.011062
outer loop
vertex 0.743366 69.764786 11.659057
vertex 0.743357 69.707642 14.968011
vertex -1.345701 67.209793 14.642990
endloop
endfacet
facet normal 0.443025 -0.443840 0.778932
outer loop
vertex 1.362377 69.190407 9.207237
vertex -0.485035 67.060760 9.044485
vertex 0.387245 66.709999 8.348505
endloop
endfacet
facet normal 0.062467 -0.173807 0.982796
outer loop
vertex 2.758499 67.628876 8.267847
vertex 4.664259 68.472748 8.295954
vertex 4.395416 69.593781 8.511295
endloop
endfacet
facet normal 0.035670 -0.135886 0.990082
outer loop
vertex 4.664259 68.472748 8.295954
vertex 4.831263 67.790894 8.196354
vertex 6.589952 67.871185 8.144012
endloop
endfacet
facet normal -0.053620 -0.125359 0.990662
outer loop
vertex 9.384626 68.785408 8.275093
vertex 8.624573 67.851105 8.115728
vertex 9.869373 66.444946 8.005169
endloop
endfacet
facet normal 0.011785 -0.121847 0.992479
outer loop
vertex 6.770918 68.573158 8.228045
vertex 6.589952 67.871185 8.144012
vertex 8.144419 67.273804 8.052214
endloop
endfacet
facet normal -0.542971 -0.145802 0.826997
outer loop
vertex 11.802800 67.398483 8.777407
vertex 10.939737 66.991051 8.138927
vertex 11.430295 64.804001 8.075422
endloop
endfacet
facet normal 0.421401 -0.906743 0.015456
outer loop
vertex 0.797794 69.786705 18.122795
vertex 0.743357 69.707642 14.968011
vertex 4.027452 71.235077 15.037188
endloop
endfacet
facet normal -0.970034 -0.215326 0.112555
outer loop
vertex 13.283586 64.804001 10.806958
vertex 12.520631 67.715164 9.800875
vertex 13.154331 64.804001 9.692999
endloop
endfacet
facet normal -0.969837 -0.213568 0.117495
outer loop
vertex 12.668382 67.716118 11.022166
vertex 12.520631 67.715164 9.800875
vertex 13.283586 64.804001 10.806958
endloop
endfacet
facet normal -0.767664 -0.640830 0.005300
outer loop
vertex 12.732901 67.648209 14.148815
vertex 10.720467 70.061882 14.503614
vertex 10.651911 70.117401 11.288562
endloop
endfacet
facet normal -0.383264 -0.923375 0.022062
outer loop
vertex 7.665632 71.338837 14.879748
vertex 10.720467 70.061882 14.503614
vertex 10.710091 70.139442 17.568611
endloop
endfacet
facet normal 0.970669 -0.221199 0.094190
outer loop
vertex -1.863052 64.804001 10.980785
vertex -1.206274 67.326393 10.136095
vertex -1.336266 67.298782 11.410844
endloop
endfacet
facet normal 0.788353 -0.220219 0.574459
outer loop
vertex -1.657503 64.804001 9.788374
vertex -0.485035 67.060760 9.044485
vertex -1.206274 67.326393 10.136095
endloop
endfacet
facet normal 0.090437 -0.150719 0.984431
outer loop
vertex 1.476048 66.215225 8.169228
vertex 2.758499 67.628876 8.267847
vertex 1.987143 68.515175 8.474403
endloop
endfacet
facet normal 0.044555 -0.133700 0.990020
outer loop
vertex 3.240919 67.091576 8.173485
vertex 4.831263 67.790894 8.196354
vertex 4.664259 68.472748 8.295954
endloop
endfacet
facet normal 0.008659 -0.128914 0.991618
outer loop
vertex 6.589952 67.871185 8.144012
vertex 6.559259 67.754341 8.129089
vertex 8.062937 67.177307 8.040934
endloop
endfacet
facet normal -0.017700 -0.094784 0.995340
outer loop
vertex 8.624573 67.851105 8.115728
vertex 8.144419 67.273804 8.052214
vertex 9.192230 66.104500 7.959497
endloop
endfacet
facet normal -0.098234 -0.050892 0.993861
outer loop
vertex 10.939737 66.991051 8.138927
vertex 9.869373 66.444946 8.005169
vertex 11.318704 64.804001 8.064394
endloop
endfacet
facet normal 0.029458 -0.999321 0.022121
outer loop
vertex 4.027452 71.235077 15.037188
vertex 7.665632 71.338837 14.879748
vertex 7.661682 71.408485 18.030710
endloop
endfacet
facet normal 0.418377 -0.905743 -0.067749
outer loop
vertex 4.054749 71.291840 18.240005
vertex 4.093674 71.222000 19.413788
vertex 0.915575 69.765205 19.263880
endloop
endfacet
facet normal 0.766597 -0.642087 0.007297
outer loop
vertex -1.283773 67.318420 17.695160
vertex -1.345701 67.209793 14.642990
vertex 0.743357 69.707642 14.968011
endloop
endfacet
facet normal -0.977698 -0.209716 0.011231
outer loop
vertex 13.324000 64.804001 13.718193
vertex 12.668382 67.716118 11.022166
vertex 13.291287 64.804001 10.870533
endloop
endfacet
facet normal -0.978482 -0.205734 0.015723
outer loop
vertex 12.732901 67.648209 14.148815
vertex 12.668382 67.716118 11.022166
vertex 13.324000 64.804001 13.718193
endloop
endfacet
facet normal -0.766719 -0.641758 0.016976
outer loop
vertex 10.720467 70.061882 14.503614
vertex 12.732901 67.648209 14.148815
vertex 12.724764 67.736870 17.133678
endloop
endfacet
facet normal -0.391760 -0.917858 -0.063719
outer loop
vertex 7.661682 71.408485 18.030710
vertex 10.710091 70.139442 17.568611
vertex 10.611473 70.102837 18.702318
endloop
endfacet
facet normal 0.970741 -0.222603 0.090058
outer loop
vertex -1.766279 64.804001 9.937645
vertex -1.206274 67.326393 10.136095
vertex -1.863052 64.804001 10.980785
endloop
endfacet
facet normal 0.977050 -0.212986 -0.003012
outer loop
vertex -1.336266 67.298782 11.410844
vertex -1.345701 67.209793 14.642990
vertex -1.879366 64.804001 11.649052
endloop
endfacet
facet normal 0.785429 -0.216985 0.579671
outer loop
vertex -1.001722 64.804001 8.899813
vertex -0.485035 67.060760 9.044485
vertex -1.657503 64.804001 9.788374
endloop
endfacet
facet normal 0.567718 -0.181458 0.802975
outer loop
vertex -0.856796 64.804001 8.797342
vertex 0.387245 66.709999 8.348505
vertex -0.485035 67.060760 9.044485
endloop
endfacet
facet normal 0.124908 -0.083359 0.988660
outer loop
vertex 0.169874 64.804001 8.215263
vertex 1.476048 66.215225 8.169228
vertex 0.387245 66.709999 8.348505
endloop
endfacet
facet normal 0.055411 -0.119424 0.991296
outer loop
vertex 2.758499 67.628876 8.267847
vertex 1.476048 66.215225 8.169228
vertex 2.161901 65.912582 8.094429
endloop
endfacet
facet normal 0.047905 -0.141142 0.988830
outer loop
vertex 3.322304 67.002480 8.156918
vertex 4.859364 67.677696 8.178835
vertex 4.831263 67.790894 8.196354
endloop
endfacet
facet normal 0.035442 -0.144248 0.988907
outer loop
vertex 4.831263 67.790894 8.196354
vertex 4.859364 67.677696 8.178835
vertex 6.559259 67.754341 8.129089
endloop
endfacet
facet normal -0.021512 -0.098138 0.994940
outer loop
vertex 8.144419 67.273804 8.052214
vertex 8.062937 67.177307 8.040934
vertex 9.077194 66.047501 7.951431
endloop
endfacet
facet normal -0.042941 -0.048460 0.997902
outer loop
vertex 9.869373 66.444946 8.005169
vertex 9.192230 66.104500 7.959497
vertex 9.492043 64.804001 7.909245
endloop
endfacet
facet normal -0.107528 -0.059152 0.992441
outer loop
vertex 11.318704 64.804001 8.064394
vertex 9.869373 66.444946 8.005169
vertex 10.242901 64.804001 7.947834
endloop
endfacet
facet normal 0.029471 -0.998387 -0.048532
outer loop
vertex 4.054749 71.291840 18.240005
vertex 7.661682 71.408485 18.030710
vertex 7.611355 71.351570 19.171045
endloop
endfacet
facet normal 0.767326 -0.634745 -0.091153
outer loop
vertex 0.797794 69.786705 18.122795
vertex 0.915575 69.765205 19.263880
vertex -1.133287 67.353317 18.811853
endloop
endfacet
facet normal -0.978813 -0.204727 0.003412
outer loop
vertex 13.327524 64.804001 14.071999
vertex 12.724764 67.736870 17.133678
vertex 12.732901 67.648209 14.148815
endloop
endfacet
facet normal -0.384210 -0.694915 -0.607846
outer loop
vertex 7.611355 71.351570 19.171045
vertex 10.611473 70.102837 18.702318
vertex 10.105503 69.535500 19.670732
endloop
endfacet
facet normal -0.770949 -0.631497 -0.082754
outer loop
vertex 10.710091 70.139442 17.568611
vertex 12.724764 67.736870 17.133678
vertex 12.598080 67.744820 18.253265
endloop
endfacet
facet normal 0.978148 -0.207777 -0.007392
outer loop
vertex -1.879366 64.804001 11.649052
vertex -1.345701 67.209793 14.642990
vertex -1.859316 64.804001 14.301828
endloop
endfacet
facet normal 0.977308 -0.211466 -0.012303
outer loop
vertex -1.838629 64.804001 16.837738
vertex -1.345701 67.209793 14.642990
vertex -1.283773 67.318420 17.695160
endloop
endfacet
facet normal 0.561870 -0.176413 0.808196
outer loop
vertex -0.061604 64.804001 8.244511
vertex 0.387245 66.709999 8.348505
vertex -0.856796 64.804001 8.797342
endloop
endfacet
facet normal 0.127067 -0.085371 0.988213
outer loop
vertex 1.132339 64.804001 8.091507
vertex 1.476048 66.215225 8.169228
vertex 0.169874 64.804001 8.215263
endloop
endfacet
facet normal 0.058937 -0.120392 0.990975
outer loop
vertex 3.240919 67.091576 8.173485
vertex 2.161901 65.912582 8.094429
vertex 2.278076 65.862274 8.081409
endloop
endfacet
facet normal 0.400043 -0.904843 -0.145684
outer loop
vertex 3.322304 67.002480 8.156918
vertex 3.321571 67.029381 7.987869
vertex 4.856081 67.704521 8.008249
endloop
endfacet
facet normal -0.361790 -0.924804 -0.117663
outer loop
vertex 8.062937 67.177307 8.040934
vertex 6.559259 67.754341 8.129089
vertex 6.554039 67.777771 7.960939
endloop
endfacet
facet normal -0.745171 -0.664586 -0.055191
outer loop
vertex 9.077194 66.047501 7.951431
vertex 8.062937 67.177307 8.040934
vertex 8.057520 67.197014 7.876900
endloop
endfacet
facet normal -0.045382 -0.049613 0.997737
outer loop
vertex 9.192230 66.104500 7.959497
vertex 9.077194 66.047501 7.951431
vertex 9.364576 64.804001 7.902666
endloop
endfacet
facet normal -0.052464 -0.046796 0.997526
outer loop
vertex 10.242901 64.804001 7.947834
vertex 9.869373 66.444946 8.005169
vertex 9.586393 64.804001 7.913305
endloop
endfacet
facet normal -0.052587 -0.050660 0.997331
outer loop
vertex 9.492043 64.804001 7.909245
vertex 9.192230 66.104500 7.959497
vertex 9.384455 64.804001 7.903572
endloop
endfacet
facet normal -0.012760 -0.793478 -0.608465
outer loop
vertex 4.093674 71.222000 19.413788
vertex 7.611355 71.351570 19.171045
vertex 7.408279 70.639336 20.104128
endloop
endfacet
facet normal 0.354639 -0.706327 -0.612644
outer loop
vertex 4.093674 71.222000 19.413788
vertex 4.282944 70.504578 20.350473
vertex 1.455278 69.223663 20.190418
endloop
endfacet
facet normal -0.977845 -0.209184 0.007872
outer loop
vertex 13.350074 64.804001 16.872772
vertex 12.724764 67.736870 17.133678
vertex 13.327524 64.804001 14.071999
endloop
endfacet
facet normal 0.978161 -0.207697 -0.007980
outer loop
vertex -1.859316 64.804001 14.301828
vertex -1.345701 67.209793 14.642990
vertex -1.838629 64.804001 16.837738
endloop
endfacet
facet normal 0.973442 -0.191673 -0.125192
outer loop
vertex -1.283773 67.318420 17.695160
vertex -1.133287 67.353317 18.811853
vertex -1.813644 64.804001 17.424744
endloop
endfacet
facet normal 0.076150 -0.073200 0.994406
outer loop
vertex 1.886776 64.804001 8.033894
vertex 2.161901 65.912582 8.094429
vertex 1.476048 66.215225 8.169228
endloop
endfacet
facet normal 0.038812 -0.989508 -0.139169
outer loop
vertex 4.856081 67.704521 8.008249
vertex 6.554039 67.777771 7.960939
vertex 6.559259 67.754341 8.129089
endloop
endfacet
facet normal -0.974213 -0.225477 0.008365
outer loop
vertex 9.364576 64.804001 7.902666
vertex 9.077194 66.047501 7.951431
vertex 9.072567 66.061607 7.792511
endloop
endfacet
facet normal -0.045722 -0.509914 -0.859009
outer loop
vertex 4.282944 70.504578 20.350473
vertex 7.408279 70.639336 20.104128
vertex 7.170069 69.755951 20.641195
endloop
endfacet
facet normal 0.646815 -0.431401 -0.628907
outer loop
vertex 0.915575 69.765205 19.263880
vertex 1.455278 69.223663 20.190418
vertex -0.394316 67.092682 19.749912
endloop
endfacet
facet normal -0.974140 -0.198014 -0.108818
outer loop
vertex 13.344549 64.804001 16.922222
vertex 12.598080 67.744820 18.253265
vertex 12.724764 67.736870 17.133678
endloop
endfacet
facet normal -0.661904 -0.442484 -0.605054
outer loop
vertex 11.898070 67.435677 19.245365
vertex 10.105503 69.535500 19.670732
vertex 10.611473 70.102837 18.702318
endloop
endfacet
facet normal -0.313404 -0.434222 -0.844529
outer loop
vertex 7.408279 70.639336 20.104128
vertex 10.105503 69.535500 19.670732
vertex 9.494219 68.824356 20.263226
endloop
endfacet
facet normal 0.973582 -0.197164 -0.115168
outer loop
vertex -1.813644 64.804001 17.424744
vertex -1.133287 67.353317 18.811853
vertex -1.700293 64.804001 18.382980
endloop
endfacet
facet normal 0.079412 -0.073887 0.994100
outer loop
vertex 2.014662 64.804001 8.023796
vertex 2.278076 65.862274 8.081409
vertex 2.161901 65.912582 8.094429
endloop
endfacet
facet normal 0.738961 -0.667833 -0.089082
outer loop
vertex 2.278076 65.862274 8.081409
vertex 2.278030 65.884079 7.917635
vertex 3.321571 67.029381 7.987869
endloop
endfacet
facet normal 0.416950 -0.900245 -0.125344
outer loop
vertex 3.321571 67.029381 7.987869
vertex 3.306568 67.388878 5.356047
vertex 4.813232 68.087555 5.349840
endloop
endfacet
facet normal 0.016180 -0.989613 -0.142846
outer loop
vertex 4.856081 67.704521 8.008249
vertex 4.813232 68.087555 5.349840
vertex 6.485847 68.118103 5.327665
endloop
endfacet
facet normal -0.363487 -0.925065 -0.110146
outer loop
vertex 8.057520 67.197014 7.876900
vertex 6.554039 67.777771 7.960939
vertex 6.485847 68.118103 5.327665
endloop
endfacet
facet normal -0.746426 -0.663799 -0.047106
outer loop
vertex 9.072567 66.061607 7.792511
vertex 8.057520 67.197014 7.876900
vertex 7.983150 67.463669 5.297956
endloop
endfacet
facet normal -0.974212 -0.225481 0.008320
outer loop
vertex 9.363251 64.804001 7.747040
vertex 9.072567 66.061607 7.792511
vertex 9.010639 66.236252 5.274574
endloop
endfacet
facet normal 0.249833 -0.438646 -0.863234
outer loop
vertex 4.282944 70.504578 20.350473
vertex 4.504871 69.630936 20.858643
vertex 2.091814 68.549759 20.709650
endloop
endfacet
facet normal -0.076212 -0.026199 -0.996747
outer loop
vertex 6.884295 68.609833 20.703548
vertex 4.776079 68.507477 20.867435
vertex 4.504871 69.630936 20.858643
endloop
endfacet
facet normal 0.774722 -0.066529 -0.628792
outer loop
vertex -1.133287 67.353317 18.811853
vertex -0.394316 67.092682 19.749912
vertex -1.598167 64.804001 18.508810
endloop
endfacet
facet normal 0.463676 -0.222755 -0.857546
outer loop
vertex 1.455278 69.223663 20.190418
vertex 2.091814 68.549759 20.709650
vertex 0.489618 66.745171 20.312096
endloop
endfacet
facet normal -0.974281 -0.203592 -0.096574
outer loop
vertex 13.235871 64.804001 18.018612
vertex 12.598080 67.744820 18.253265
vertex 13.344549 64.804001 16.922222
endloop
endfacet
facet normal -0.792137 -0.124112 -0.597591
outer loop
vertex 13.204474 64.804001 18.060234
vertex 11.898070 67.435677 19.245365
vertex 12.598080 67.744820 18.253265
endloop
endfacet
facet normal -0.499975 -0.258808 -0.826464
outer loop
vertex 11.046120 67.032692 19.885460
vertex 9.494219 68.824356 20.263226
vertex 10.105503 69.535500 19.670732
endloop
endfacet
facet normal 0.970297 -0.239764 -0.032185
outer loop
vertex 2.278030 65.884079 7.917635
vertex 2.278076 65.862274 8.081409
vertex 2.014662 64.804001 8.023796
endloop
endfacet
facet normal -0.974081 -0.226064 0.007889
outer loop
vertex 9.342966 64.804001 5.266041
vertex 9.010639 66.236252 5.274574
vertex 9.007715 66.243515 5.121782
endloop
endfacet
facet normal -0.164246 -0.009570 -0.986373
outer loop
vertex 7.170069 69.755951 20.641195
vertex 9.494219 68.824356 20.263226
vertex 8.736195 67.889618 20.398518
endloop
endfacet
facet normal 0.779671 -0.072842 -0.621938
outer loop
vertex -1.598167 64.804001 18.508810
vertex -0.394316 67.092682 19.749912
vertex -0.919893 64.804001 19.359097
endloop
endfacet
facet normal -0.793875 -0.126218 -0.594838
outer loop
vertex 12.477944 64.804001 19.029873
vertex 11.898070 67.435677 19.245365
vertex 13.204474 64.804001 18.060234
endloop
endfacet
facet normal -0.580782 -0.061504 -0.811732
outer loop
vertex 12.433009 64.804001 19.062021
vertex 11.046120 67.032692 19.885460
vertex 11.898070 67.435677 19.245365
endloop
endfacet
facet normal -0.197638 0.035362 -0.979637
outer loop
vertex 9.494219 68.824356 20.263226
vertex 11.046120 67.032692 19.885460
vertex 9.978415 66.486511 20.081150
endloop
endfacet
facet normal 0.970641 -0.239355 -0.023779
outer loop
vertex 2.010366 64.804001 7.863693
vertex 2.278030 65.884079 7.917635
vertex 2.013250 64.804001 7.981333
endloop
endfacet
facet normal 0.764589 -0.640769 -0.069419
outer loop
vertex 2.278030 65.884079 7.917635
vertex 2.271950 66.155022 5.349712
vertex 3.306568 67.388878 5.356047
endloop
endfacet
facet normal 0.419838 -0.903098 -0.090280
outer loop
vertex 3.306568 67.388878 5.356047
vertex 3.305511 67.404037 5.199520
vertex 4.811100 68.104706 5.192158
endloop
endfacet
facet normal 0.015688 -0.993989 -0.108347
outer loop
vertex 4.813232 68.087555 5.349840
vertex 4.811100 68.104706 5.192158
vertex 6.482487 68.133415 5.170780
endloop
endfacet
facet normal -0.402373 -0.911942 -0.080368
outer loop
vertex 6.485847 68.118103 5.327665
vertex 6.482487 68.133415 5.170780
vertex 7.979523 67.475327 5.143040
endloop
endfacet
facet normal -0.766725 -0.641260 -0.030305
outer loop
vertex 9.010639 66.236252 5.274574
vertex 7.983150 67.463669 5.297956
vertex 7.979523 67.475327 5.143040
endloop
endfacet
facet normal 0.011103 -0.002436 0.999935
outer loop
vertex 9.341755 64.804001 5.114567
vertex 9.007715 66.243515 5.121782
vertex 9.288834 64.804001 5.115154
endloop
endfacet
facet normal 0.059945 0.006659 -0.998179
outer loop
vertex 4.504871 69.630936 20.858643
vertex 4.776079 68.507477 20.867435
vertex 2.866596 67.662155 20.747122
endloop
endfacet
facet normal -0.074655 0.071295 -0.994658
outer loop
vertex 6.703304 67.907112 20.679752
vertex 4.943527 67.824615 20.805922
vertex 4.776079 68.507477 20.867435
endloop
endfacet
facet normal 0.541872 0.019041 -0.840245
outer loop
vertex -0.394316 67.092682 19.749912
vertex 0.489618 66.745171 20.312096
vertex -0.788967 64.804001 19.443531
endloop
endfacet
facet normal 0.150396 0.089717 -0.984547
outer loop
vertex 2.091814 68.549759 20.709650
vertex 2.866596 67.662155 20.747122
vertex 1.581882 66.250710 20.422253
endloop
endfacet
facet normal -0.574310 -0.055620 -0.816746
outer loop
vertex 11.544003 64.804001 19.687140
vertex 11.046120 67.032692 19.885460
vertex 12.433009 64.804001 19.062021
endloop
endfacet
facet normal 0.970591 -0.239155 -0.027531
outer loop
vertex 1.994934 64.804001 7.319595
vertex 2.271950 66.155022 5.349712
vertex 2.278030 65.884079 7.917635
endloop
endfacet
facet normal 0.012805 -0.002102 0.999916
outer loop
vertex 9.007715 66.243515 5.121782
vertex 8.955744 66.218063 5.122395
vertex 9.283998 64.804001 5.115217
endloop
endfacet
facet normal 0.021129 0.094838 -0.995269
outer loop
vertex 4.776079 68.507477 20.867435
vertex 4.943527 67.824615 20.805922
vertex 3.350292 67.124466 20.705379
endloop
endfacet
facet normal -0.137522 0.064990 -0.988364
outer loop
vertex 6.884295 68.609833 20.703548
vertex 8.736195 67.889618 20.398518
vertex 8.256357 67.312012 20.427301
endloop
endfacet
facet normal 0.549656 0.011717 -0.835309
outer loop
vertex -0.788967 64.804001 19.443531
vertex 0.489618 66.745171 20.312096
vertex 0.030361 64.804001 19.982666
endloop
endfacet
facet normal -0.200963 0.042197 -0.978689
outer loop
vertex 11.463104 64.804001 19.703747
vertex 9.978415 66.486511 20.081150
vertex 11.046120 67.032692 19.885460
endloop
endfacet
facet normal -0.160104 0.083994 -0.983520
outer loop
vertex 9.302069 66.145905 20.157486
vertex 8.256357 67.312012 20.427301
vertex 8.736195 67.889618 20.398518
endloop
endfacet
facet normal 0.973565 -0.227603 -0.019190
outer loop
vertex 1.955931 64.804001 5.340950
vertex 2.271950 66.155022 5.349712
vertex 1.994934 64.804001 7.319595
endloop
endfacet
facet normal 0.766381 -0.640338 -0.051254
outer loop
vertex 2.271950 66.155022 5.349712
vertex 2.271233 66.166512 5.195253
vertex 3.305511 67.404037 5.199520
endloop
endfacet
facet normal 0.008969 -0.008760 0.999921
outer loop
vertex 4.811100 68.104706 5.192158
vertex 3.305511 67.404037 5.199520
vertex 3.341837 67.360672 5.198814
endloop
endfacet
facet normal 0.012911 -0.007248 0.999890
outer loop
vertex 6.469439 68.078598 5.170551
vertex 6.482487 68.133415 5.170780
vertex 4.811100 68.104706 5.192158
endloop
endfacet
facet normal 0.015054 -0.007758 0.999857
outer loop
vertex 6.482487 68.133415 5.170780
vertex 6.469439 68.078598 5.170551
vertex 7.943346 67.430634 5.143333
endloop
endfacet
facet normal 0.014360 -0.005270 0.999883
outer loop
vertex 8.955744 66.218063 5.122395
vertex 9.007715 66.243515 5.121782
vertex 7.979523 67.475327 5.143040
endloop
endfacet
facet normal 0.011171 -0.002482 0.999935
outer loop
vertex 9.283998 64.804001 5.115217
vertex 8.955744 66.218063 5.122395
vertex 8.862816 64.804001 5.119923
endloop
endfacet
facet normal 0.080753 0.149154 -0.985511
outer loop
vertex 2.866596 67.662155 20.747122
vertex 3.350292 67.124466 20.705379
vertex 2.269215 65.948578 20.438831
endloop
endfacet
facet normal 0.012950 0.113242 -0.993483
outer loop
vertex 4.943527 67.824615 20.805922
vertex 4.971661 67.711235 20.793365
vertex 3.431856 67.035400 20.696251
endloop
endfacet
facet normal -0.074137 0.091569 -0.993035
outer loop
vertex 6.672562 67.790062 20.673647
vertex 4.971661 67.711235 20.793365
vertex 4.943527 67.824615 20.805922
endloop
endfacet
facet normal -0.127369 0.084995 -0.988207
outer loop
vertex 8.174923 67.215462 20.430584
vertex 6.672562 67.790062 20.673647
vertex 6.703304 67.907112 20.679752
endloop
endfacet
facet normal 0.157137 0.128986 -0.979117
outer loop
vertex 0.489618 66.745171 20.312096
vertex 1.581882 66.250710 20.422253
vertex 0.234465 64.804001 20.015425
endloop
endfacet
facet normal -0.171779 0.068850 -0.982727
outer loop
vertex 10.359896 64.804001 19.896589
vertex 9.978415 66.486511 20.081150
vertex 11.463104 64.804001 19.703747
endloop
endfacet
facet normal -0.153965 0.085111 -0.984404
outer loop
vertex 9.610308 64.804001 19.993256
vertex 9.302069 66.145905 20.157486
vertex 9.978415 66.486511 20.081150
endloop
endfacet
facet normal 0.973523 -0.227579 -0.021473
outer loop
vertex 1.955509 64.804001 5.321852
vertex 2.271233 66.166512 5.195253
vertex 2.271950 66.155022 5.349712
endloop
endfacet
facet normal 0.009069 -0.008906 0.999919
outer loop
vertex 4.824009 68.050491 5.191517
vertex 3.341837 67.360672 5.198814
vertex 3.632219 67.014961 5.193102
endloop
endfacet
facet normal 0.006179 -0.008610 0.999944
outer loop
vertex 3.305511 67.404037 5.199520
vertex 2.271233 66.166512 5.195253
vertex 2.323473 66.142189 5.194721
endloop
endfacet
facet normal 0.012874 -0.007800 0.999887
outer loop
vertex 6.365093 67.641335 5.168484
vertex 6.469439 68.078598 5.170551
vertex 4.824009 68.050491 5.191517
endloop
endfacet
facet normal 0.014171 -0.005435 0.999885
outer loop
vertex 8.539921 66.014946 5.127184
vertex 8.955744 66.218063 5.122395
vertex 7.943346 67.430634 5.143333
endloop
endfacet
facet normal 0.012782 -0.002589 0.999915
outer loop
vertex 8.955744 66.218063 5.122395
vertex 8.539921 66.014946 5.127184
vertex 8.821800 64.804001 5.120445
endloop
endfacet
facet normal 0.065769 0.161183 -0.984731
outer loop
vertex 3.350292 67.124466 20.705379
vertex 3.431856 67.035400 20.696251
vertex 2.385605 65.898598 20.440256
endloop
endfacet
facet normal 0.381880 -0.899419 0.212635
outer loop
vertex 4.971661 67.711235 20.793365
vertex 4.970881 67.739151 20.912815
vertex 3.433718 67.063660 20.816296
endloop
endfacet
facet normal -0.148838 0.094290 -0.984356
outer loop
vertex 8.256357 67.312012 20.427301
vertex 9.302069 66.145905 20.157486
vertex 9.187124 66.088951 20.169411
endloop
endfacet
facet normal 0.147011 0.138493 -0.979391
outer loop
vertex 0.234465 64.804001 20.015425
vertex 1.581882 66.250710 20.422253
vertex 1.227312 64.804001 20.164454
endloop
endfacet
facet normal -0.124479 0.080261 -0.988971
outer loop
vertex 9.686207 64.804001 19.981380
vertex 9.978415 66.486511 20.081150
vertex 10.359896 64.804001 19.896589
endloop
endfacet
facet normal -0.125214 0.092141 -0.987842
outer loop
vertex 9.499136 64.804001 20.007345
vertex 9.302069 66.145905 20.157486
vertex 9.610308 64.804001 19.993256
endloop
endfacet
facet normal 0.973721 -0.227155 -0.016380
outer loop
vertex 1.953260 64.804001 5.188204
vertex 2.271233 66.166512 5.195253
vertex 1.955509 64.804001 5.321852
endloop
endfacet
facet normal 0.009281 -0.008777 0.999918
outer loop
vertex 4.927422 67.617714 5.186373
vertex 3.632219 67.014961 5.193102
vertex 3.668495 66.971817 5.192387
endloop
endfacet
facet normal 0.006552 -0.008835 0.999939
outer loop
vertex 3.341837 67.360672 5.198814
vertex 2.323473 66.142189 5.194721
vertex 2.741238 65.948601 5.190273
endloop
endfacet
facet normal 0.012536 -0.009567 0.999876
outer loop
vertex 4.927422 67.617714 5.186373
vertex 4.940321 67.563843 5.185696
vertex 6.352055 67.586792 5.168217
endloop
endfacet
facet normal 0.015530 -0.006674 0.999857
outer loop
vertex 7.653887 67.074020 5.145449
vertex 7.943346 67.430634 5.143333
vertex 6.469439 68.078598 5.170551
endloop
endfacet
facet normal 0.013965 -0.005558 0.999887
outer loop
vertex 8.487932 65.989616 5.127769
vertex 8.539921 66.014946 5.127184
vertex 7.653887 67.074020 5.145449
endloop
endfacet
facet normal 0.012574 -0.002687 0.999917
outer loop
vertex 8.539921 66.014946 5.127184
vertex 8.487932 65.989616 5.127769
vertex 8.764025 64.804001 5.121113
endloop
endfacet
facet normal 0.091308 0.153738 -0.983884
outer loop
vertex 1.581882 66.250710 20.422253
vertex 2.269215 65.948578 20.438831
vertex 1.983057 64.804001 20.233429
endloop
endfacet
facet normal 0.058796 -0.972006 0.227479
outer loop
vertex 6.669790 67.814758 20.796808
vertex 4.970881 67.739151 20.912815
vertex 4.971661 67.711235 20.793365
endloop
endfacet
facet normal -0.328794 -0.927377 0.178509
outer loop
vertex 8.172104 67.236298 20.558758
vertex 6.669790 67.814758 20.796808
vertex 6.672562 67.790062 20.673647
endloop
endfacet
facet normal -0.731235 -0.675654 0.093745
outer loop
vertex 9.185055 66.104675 20.304049
vertex 8.172104 67.236298 20.558758
vertex 8.174923 67.215462 20.430584
endloop
endfacet
facet normal -0.146191 0.088766 -0.985266
outer loop
vertex 9.483044 64.804001 20.009735
vertex 9.187124 66.088951 20.169411
vertex 9.302069 66.145905 20.157486
endloop
endfacet
facet normal 0.007014 -0.006815 0.999952
outer loop
vertex 2.010994 64.804001 5.187792
vertex 2.323473 66.142189 5.194721
vertex 2.271233 66.166512 5.195253
endloop
endfacet
facet normal 0.014823 -0.006921 0.999866
outer loop
vertex 7.617710 67.029602 5.145678
vertex 7.653887 67.074020 5.145449
vertex 6.365093 67.641335 5.168484
endloop
endfacet
facet normal 0.766379 0.641642 0.030964
outer loop
vertex 7.617710 67.029602 5.145678
vertex 7.619251 67.024117 5.221062
vertex 8.489206 65.985947 5.202330
endloop
endfacet
facet normal 0.973915 0.226846 -0.005521
outer loop
vertex 8.487932 65.989616 5.127769
vertex 8.489206 65.985947 5.202330
vertex 8.764467 64.804001 5.195097
endloop
endfacet
facet normal 0.079391 0.156816 -0.984432
outer loop
vertex 2.269215 65.948578 20.438831
vertex 2.385605 65.898598 20.440256
vertex 2.012974 64.804001 20.235847
endloop
endfacet
facet normal 0.712684 -0.685209 0.150237
outer loop
vertex 3.431856 67.035400 20.696251
vertex 3.433718 67.063660 20.816296
vertex 2.388094 65.921570 20.567724
endloop
endfacet
facet normal 0.025632 -0.977363 0.210012
outer loop
vertex 6.640642 68.181053 22.765614
vertex 4.967415 68.149712 22.823978
vertex 4.970881 67.739151 20.912815
endloop
endfacet
facet normal 0.407749 -0.892576 0.192480
outer loop
vertex 4.970881 67.739151 20.912815
vertex 4.967415 68.149712 22.823978
vertex 3.459400 67.451424 22.780426
endloop
endfacet
facet normal -0.974127 -0.225715 0.011404
outer loop
vertex 9.484621 64.804001 20.149361
vertex 9.185055 66.104675 20.304049
vertex 9.187124 66.088951 20.169411
endloop
endfacet
facet normal 0.007437 -0.006927 0.999948
outer loop
vertex 2.472866 64.804001 5.184340
vertex 2.741238 65.948601 5.190273
vertex 2.323473 66.142189 5.194721
endloop
endfacet
facet normal -0.420083 0.903417 0.085834
outer loop
vertex 4.940321 67.563843 5.185696
vertex 3.668495 66.971817 5.192387
vertex 3.669146 66.964912 5.268394
endloop
endfacet
facet normal 0.007249 -0.008702 0.999936
outer loop
vertex 3.632219 67.014961 5.193102
vertex 2.741238 65.948601 5.190273
vertex 2.793438 65.924530 5.189686
endloop
endfacet
facet normal -0.014928 0.994827 0.100477
outer loop
vertex 6.352055 67.586792 5.168217
vertex 4.940321 67.563843 5.185696
vertex 4.941385 67.556137 5.262133
endloop
endfacet
facet normal 0.402921 0.912229 0.074110
outer loop
vertex 7.617710 67.029602 5.145678
vertex 6.352055 67.586792 5.168217
vertex 6.353481 67.579971 5.244307
endloop
endfacet
facet normal 0.973725 0.227668 -0.005138
outer loop
vertex 8.489206 65.985947 5.202330
vertex 8.540609 65.819656 7.575302
vertex 8.777895 64.804001 7.540022
endloop
endfacet
facet normal 0.084072 0.155200 -0.984299
outer loop
vertex 2.012974 64.804001 20.235847
vertex 2.385605 65.898598 20.440256
vertex 2.111141 64.804001 20.244228
endloop
endfacet
facet normal -0.382054 -0.909551 0.163562
outer loop
vertex 8.137396 67.529442 22.638248
vertex 6.640642 68.181053 22.765614
vertex 6.669790 67.814758 20.796808
endloop
endfacet
facet normal -0.760179 -0.644987 0.078236
outer loop
vertex 9.163443 66.305260 22.515505
vertex 8.137396 67.529442 22.638248
vertex 8.172104 67.236298 20.558758
endloop
endfacet
facet normal -0.974041 -0.226104 0.010988
outer loop
vertex 9.511120 64.804001 22.443678
vertex 9.163443 66.305260 22.515505
vertex 9.185055 66.104675 20.304049
endloop
endfacet
facet normal 0.008001 -0.007049 0.999943
outer loop
vertex 2.530579 64.804001 5.183891
vertex 2.793438 65.924530 5.189686
vertex 2.741238 65.948601 5.190273
endloop
endfacet
facet normal 0.746077 0.664142 0.047801
outer loop
vertex 7.619251 67.024117 5.221062
vertex 7.679338 66.782516 7.640139
vertex 8.540609 65.819656 7.575302
endloop
endfacet
facet normal 0.973719 0.227682 -0.005579
outer loop
vertex 8.777895 64.804001 7.540022
vertex 8.540609 65.819656 7.575302
vertex 8.778246 64.804001 7.600986
endloop
endfacet
facet normal 0.968559 -0.247457 0.025653
outer loop
vertex 2.385605 65.898598 20.440256
vertex 2.388094 65.921570 20.567724
vertex 2.110394 64.804001 20.272509
endloop
endfacet
facet normal 0.754576 -0.645593 0.117581
outer loop
vertex 3.433718 67.063660 20.816296
vertex 3.459400 67.451424 22.780426
vertex 2.423479 66.220428 22.669529
endloop
endfacet
facet normal -0.069046 0.036268 -0.996954
outer loop
vertex 9.473043 64.804001 22.446598
vertex 6.640642 68.181053 22.765614
vertex 8.137396 67.529442 22.638248
endloop
endfacet
facet normal -0.036033 0.066789 -0.997116
outer loop
vertex 4.967415 68.149712 22.823978
vertex 6.640642 68.181053 22.765614
vertex 4.951746 64.804001 22.600439
endloop
endfacet
facet normal -0.086062 0.027717 -0.995904
outer loop
vertex 9.494417 64.804001 22.445120
vertex 8.137396 67.529442 22.638248
vertex 9.163443 66.305260 22.515505
endloop
endfacet
facet normal -0.973330 0.228209 0.023442
outer loop
vertex 2.530840 64.804001 5.194695
vertex 2.794006 65.919228 5.264870
vertex 2.793438 65.924530 5.189686
endloop
endfacet
facet normal -0.418048 0.900826 0.117253
outer loop
vertex 4.941385 67.556137 5.262133
vertex 3.669146 66.964912 5.268394
vertex 3.690763 66.655327 7.723978
endloop
endfacet
facet normal -0.766454 0.640279 0.050910
outer loop
vertex 3.668495 66.971817 5.192387
vertex 2.793438 65.924530 5.189686
vertex 2.794006 65.919228 5.264870
endloop
endfacet
facet normal -0.015041 0.990938 0.133476
outer loop
vertex 6.353481 67.579971 5.244307
vertex 4.941385 67.556137 5.262133
vertex 4.980719 67.223213 7.738165
endloop
endfacet
facet normal 0.365265 0.924883 0.105706
outer loop
vertex 6.353481 67.579971 5.244307
vertex 6.409245 67.276833 7.703869
vertex 7.679338 66.782516 7.640139
endloop
endfacet
facet normal 0.973719 0.227715 -0.004252
outer loop
vertex 8.540609 65.819656 7.575302
vertex 8.542542 65.812836 7.652550
vertex 8.778311 64.804001 7.616037
endloop
endfacet
facet normal 0.969703 -0.244012 0.011544
outer loop
vertex 2.110394 64.804001 20.272509
vertex 2.388094 65.921570 20.567724
vertex 2.109161 64.804001 20.376019
endloop
endfacet
facet normal -0.063498 0.040938 -0.997142
outer loop
vertex 7.433027 64.804001 22.576508
vertex 6.640642 68.181053 22.765614
vertex 9.473043 64.804001 22.446598
endloop
endfacet
facet normal -0.973359 0.228482 0.019165
outer loop
vertex 2.532095 64.804001 5.258451
vertex 2.794006 65.919228 5.264870
vertex 2.530840 64.804001 5.194695
endloop
endfacet
facet normal 0.745232 0.664162 0.059321
outer loop
vertex 7.679338 66.782516 7.640139
vertex 7.681614 66.772873 7.719534
vertex 8.542542 65.812836 7.652550
endloop
endfacet
facet normal 0.027346 -0.029775 0.999182
outer loop
vertex 8.542542 65.812836 7.652550
vertex 8.488859 65.786392 7.653231
vertex 8.766369 64.804001 7.616364
endloop
endfacet
facet normal 0.969319 -0.245108 0.018534
outer loop
vertex 2.388094 65.921570 20.567724
vertex 2.423479 66.220428 22.669529
vertex 2.101984 64.804001 20.751532
endloop
endfacet
facet normal 0.030310 0.064349 -0.997467
outer loop
vertex 2.423479 66.220428 22.669529
vertex 3.459400 67.451424 22.780426
vertex 2.124067 64.804001 22.569054
endloop
endfacet
facet normal -0.009630 0.053655 -0.998513
outer loop
vertex 4.951746 64.804001 22.600439
vertex 6.640642 68.181053 22.765614
vertex 7.433027 64.804001 22.576508
endloop
endfacet
facet normal 0.043089 0.057899 -0.997392
outer loop
vertex 2.124067 64.804001 22.569054
vertex 3.459400 67.451424 22.780426
vertex 3.466938 64.804001 22.627068
endloop
endfacet
facet normal -0.973156 0.228384 0.028445
outer loop
vertex 2.544699 64.804001 5.689720
vertex 2.808207 65.679642 7.674330
vertex 2.794006 65.919228 5.264870
endloop
endfacet
facet normal -0.765202 0.640172 0.068162
outer loop
vertex 3.669146 66.964912 5.268394
vertex 2.794006 65.919228 5.264870
vertex 2.808207 65.679642 7.674330
endloop
endfacet
facet normal -0.400116 0.905293 0.142663
outer loop
vertex 4.980719 67.223213 7.738165
vertex 3.690763 66.655327 7.723978
vertex 3.691418 66.642822 7.805191
endloop
endfacet
facet normal -0.034116 0.986939 0.157439
outer loop
vertex 4.980719 67.223213 7.738165
vertex 4.982258 67.210182 7.820183
vertex 6.411417 67.265198 7.784998
endloop
endfacet
facet normal 0.364155 0.923217 0.122726
outer loop
vertex 6.409245 67.276833 7.703869
vertex 6.411417 67.265198 7.784998
vertex 7.681614 66.772873 7.719534
endloop
endfacet
facet normal 0.031597 -0.041263 0.998649
outer loop
vertex 7.681614 66.772873 7.719534
vertex 7.643797 66.728165 7.718884
vertex 8.488859 65.786392 7.653231
endloop
endfacet
facet normal 0.022437 -0.031161 0.999263
outer loop
vertex 8.766369 64.804001 7.616364
vertex 8.488859 65.786392 7.653231
vertex 8.718727 64.804001 7.617434
endloop
endfacet
facet normal 0.973402 -0.229027 0.005972
outer loop
vertex 2.101984 64.804001 20.751532
vertex 2.423479 66.220428 22.669529
vertex 2.090837 64.804001 22.568043
endloop
endfacet
facet normal -0.970345 0.240661 0.022656
outer loop
vertex 2.590139 64.804001 7.636005
vertex 2.808207 65.679642 7.674330
vertex 2.544699 64.804001 5.689720
endloop
endfacet
facet normal 0.034516 -0.043717 0.998448
outer loop
vertex 7.643797 66.728165 7.718884
vertex 7.681614 66.772873 7.719534
vertex 6.411417 67.265198 7.784998
endloop
endfacet
facet normal 0.023699 -0.074240 0.996959
outer loop
vertex 7.643797 66.728165 7.718884
vertex 3.729107 66.601227 7.802485
vertex 2.862726 65.646309 7.751970
endloop
endfacet
facet normal 0.014870 -0.032936 0.999347
outer loop
vertex 8.718727 64.804001 7.617434
vertex 8.488859 65.786392 7.653231
vertex 4.143581 64.804001 7.685509
endloop
endfacet
facet normal -0.970119 0.240057 0.035242
outer loop
vertex 2.590969 64.804001 7.658884
vertex 2.808647 65.669823 7.753349
vertex 2.808207 65.679642 7.674330
endloop
endfacet
facet normal -0.741008 0.665859 0.086826
outer loop
vertex 3.690763 66.655327 7.723978
vertex 2.808207 65.679642 7.674330
vertex 2.808647 65.669823 7.753349
endloop
endfacet
facet normal 0.013393 -0.056592 0.998308
outer loop
vertex 3.729107 66.601227 7.802485
vertex 4.995367 67.157791 7.817038
vertex 4.982258 67.210182 7.820183
endloop
endfacet
facet normal 0.026406 -0.053316 0.998228
outer loop
vertex 4.982258 67.210182 7.820183
vertex 4.995367 67.157791 7.817038
vertex 6.397366 67.211319 7.782806
endloop
endfacet
facet normal 0.027710 -0.089077 0.995639
outer loop
vertex 6.397366 67.211319 7.782806
vertex 4.995367 67.157791 7.817038
vertex 3.729107 66.601227 7.802485
endloop
endfacet
facet normal 0.018776 -0.050239 0.998561
outer loop
vertex 4.143581 64.804001 7.685509
vertex 8.488859 65.786392 7.653231
vertex 2.862726 65.646309 7.751970
endloop
endfacet
facet normal -0.970159 0.241026 0.026402
outer loop
vertex 2.592463 64.804001 7.713766
vertex 2.808647 65.669823 7.753349
vertex 2.590969 64.804001 7.658884
endloop
endfacet
facet normal 0.001676 -0.054706 0.998501
outer loop
vertex 3.691418 66.642822 7.805191
vertex 2.808647 65.669823 7.753349
vertex 2.862726 65.646309 7.751970
endloop
endfacet
facet normal 0.005109 -0.046840 0.998889
outer loop
vertex 2.652185 64.804001 7.713551
vertex 2.862726 65.646309 7.751970
vertex 2.808647 65.669823 7.753349
endloop
endfacet
facet normal 0.002946 -0.046400 0.998919
outer loop
vertex 2.634670 64.804001 7.713642
vertex 2.808647 65.669823 7.753349
vertex 2.592463 64.804001 7.713766
endloop
endfacet
facet normal -0.339058 -0.932320 0.125774
outer loop
vertex 8.172104 67.236298 20.558758
vertex 8.137396 67.529442 22.638248
vertex 6.669790 67.814758 20.796808
endloop
endfacet
facet normal 0.387030 -0.905555 0.173720
outer loop
vertex 3.433718 67.063660 20.816296
vertex 4.970881 67.739151 20.912815
vertex 3.459400 67.451424 22.780426
endloop
endfacet
facet normal 0.056201 -0.981426 0.183423
outer loop
vertex 6.669790 67.814758 20.796808
vertex 6.640642 68.181053 22.765614
vertex 4.970881 67.739151 20.912815
endloop
endfacet
facet normal -0.333065 -0.931812 0.144200
outer loop
vertex 8.174923 67.215462 20.430584
vertex 8.172104 67.236298 20.558758
vertex 6.672562 67.790062 20.673647
endloop
endfacet
facet normal 0.059252 -0.978491 0.197596
outer loop
vertex 6.672562 67.790062 20.673647
vertex 6.669790 67.814758 20.796808
vertex 4.971661 67.711235 20.793365
endloop
endfacet
facet normal 0.382341 -0.900729 0.206163
outer loop
vertex 3.431856 67.035400 20.696251
vertex 4.971661 67.711235 20.793365
vertex 3.433718 67.063660 20.816296
endloop
endfacet
facet normal -0.400774 -0.914246 -0.059452
outer loop
vertex 7.983150 67.463669 5.297956
vertex 6.485847 68.118103 5.327665
vertex 7.979523 67.475327 5.143040
endloop
endfacet
facet normal 0.016882 -0.995095 -0.097473
outer loop
vertex 6.485847 68.118103 5.327665
vertex 4.813232 68.087555 5.349840
vertex 6.482487 68.133415 5.170780
endloop
endfacet
facet normal 0.418067 -0.902459 -0.103863
outer loop
vertex 4.813232 68.087555 5.349840
vertex 3.306568 67.388878 5.356047
vertex 4.811100 68.104706 5.192158
endloop
endfacet
facet normal -0.400496 -0.912550 -0.082800
outer loop
vertex 7.983150 67.463669 5.297956
vertex 8.057520 67.197014 7.876900
vertex 6.485847 68.118103 5.327665
endloop
endfacet
facet normal 0.039149 -0.990861 -0.129077
outer loop
vertex 6.554039 67.777771 7.960939
vertex 4.856081 67.704521 8.008249
vertex 6.485847 68.118103 5.327665
endloop
endfacet
facet normal 0.400443 -0.906022 -0.137001
outer loop
vertex 4.856081 67.704521 8.008249
vertex 3.321571 67.029381 7.987869
vertex 4.813232 68.087555 5.349840
endloop
endfacet
facet normal 0.039935 -0.986954 -0.155974
outer loop
vertex 4.859364 67.677696 8.178835
vertex 4.856081 67.704521 8.008249
vertex 6.559259 67.754341 8.129089
endloop
endfacet
facet normal -0.013503 -0.795144 -0.606271
outer loop
vertex 4.282944 70.504578 20.350473
vertex 4.093674 71.222000 19.413788
vertex 7.408279 70.639336 20.104128
endloop
endfacet
facet normal -0.363370 -0.926336 -0.099313
outer loop
vertex 8.057520 67.197014 7.876900
vertex 8.062937 67.177307 8.040934
vertex 6.554039 67.777771 7.960939
endloop
endfacet
facet normal 0.399437 -0.904416 -0.149939
outer loop
vertex 4.859364 67.677696 8.178835
vertex 3.322304 67.002480 8.156918
vertex 4.856081 67.704521 8.008249
endloop
endfacet
facet normal 0.032576 -0.997641 -0.060429
outer loop
vertex 4.093674 71.222000 19.413788
vertex 4.054749 71.291840 18.240005
vertex 7.611355 71.351570 19.171045
endloop
endfacet
facet normal -0.391892 -0.917844 -0.063102
outer loop
vertex 7.611355 71.351570 19.171045
vertex 7.661682 71.408485 18.030710
vertex 10.611473 70.102837 18.702318
endloop
endfacet
facet normal 0.420525 -0.905264 -0.060473
outer loop
vertex 0.797794 69.786705 18.122795
vertex 4.054749 71.291840 18.240005
vertex 0.915575 69.765205 19.263880
endloop
endfacet
facet normal 0.033328 -0.999292 0.017430
outer loop
vertex 4.054749 71.291840 18.240005
vertex 4.027452 71.235077 15.037188
vertex 7.661682 71.408485 18.030710
endloop
endfacet
facet normal -0.381669 -0.924084 0.019950
outer loop
vertex 7.661682 71.408485 18.030710
vertex 7.665632 71.338837 14.879748
vertex 10.710091 70.139442 17.568611
endloop
endfacet
facet normal 0.419096 -0.907856 0.012519
outer loop
vertex 4.054749 71.291840 18.240005
vertex 0.797794 69.786705 18.122795
vertex 4.027452 71.235077 15.037188
endloop
endfacet
facet normal -0.386261 -0.922372 -0.005675
outer loop
vertex 7.665632 71.338837 14.879748
vertex 7.602165 71.385757 11.576704
vertex 10.720467 70.061882 14.503614
endloop
endfacet
facet normal 0.419486 -0.907626 -0.015674
outer loop
vertex 0.743366 69.764786 11.659057
vertex 3.997383 71.267715 11.717508
vertex 0.743357 69.707642 14.968011
endloop
endfacet
facet normal 0.032147 -0.999373 -0.014815
outer loop
vertex 7.602165 71.385757 11.576704
vertex 7.665632 71.338837 14.879748
vertex 3.997383 71.267715 11.717508
endloop
endfacet
facet normal -0.377808 -0.923504 0.066339
outer loop
vertex 7.602165 71.385757 11.576704
vertex 7.529053 71.321419 10.264566
vertex 10.651911 70.117401 11.288562
endloop
endfacet
facet normal 0.418019 -0.907028 0.050603
outer loop
vertex 0.743366 69.764786 11.659057
vertex 0.840586 69.736206 10.343719
vertex 3.997383 71.267715 11.717508
endloop
endfacet
facet normal -0.281124 -0.782532 0.555529
outer loop
vertex 10.531532 70.072495 10.024694
vertex 7.529053 71.321419 10.264566
vertex 10.006952 69.499573 8.952177
endloop
endfacet
facet normal 0.034990 -0.997619 0.059437
outer loop
vertex 3.997383 71.267715 11.717508
vertex 4.014246 71.189896 10.401474
vertex 7.602165 71.385757 11.576704
endloop
endfacet
facet normal 0.340237 -0.771953 0.536961
outer loop
vertex 4.184990 70.467903 9.255302
vertex 4.014246 71.189896 10.401474
vertex 1.362377 69.190407 9.207237
endloop
endfacet
facet normal 0.052435 -0.841418 0.537834
outer loop
vertex 4.014246 71.189896 10.401474
vertex 4.184990 70.467903 9.255302
vertex 7.529053 71.321419 10.264566
endloop
endfacet
facet normal 0.000000 1.000000 0.000031
outer loop
vertex -1.838629 64.804001 16.837738
vertex -1.833149 64.804001 17.273090
vertex -1.813644 64.804001 17.424744
endloop
endfacet
facet normal 0.000000 1.000000 0.000000
outer loop
vertex -1.813644 64.804001 17.424744
vertex -1.700293 64.804001 18.382980
vertex -1.598167 64.804001 18.508810
endloop
endfacet
facet normal 0.000000 1.000000 -0.000071
outer loop
vertex -1.598167 64.804001 18.508810
vertex -0.919893 64.804001 19.359097
vertex -0.788967 64.804001 19.443531
endloop
endfacet
facet normal 0.000000 1.000000 -0.000069
outer loop
vertex -0.788967 64.804001 19.443531
vertex 0.030361 64.804001 19.982666
vertex 0.234465 64.804001 20.015425
endloop
endfacet
facet normal 0.000000 1.000000 0.000000
outer loop
vertex -1.838629 64.804001 16.837738
vertex 1.227312 64.804001 20.164454
vertex 1.983057 64.804001 20.233429
endloop
endfacet
facet normal 0.000000 1.000000 -0.000008
outer loop
vertex 4.951746 64.804001 22.600439
vertex 2.110394 64.804001 20.272509
vertex 2.109161 64.804001 20.376019
endloop
endfacet
facet normal 0.000000 1.000000 0.000217
outer loop
vertex -1.838629 64.804001 16.837738
vertex 1.983057 64.804001 20.233429
vertex 2.012974 64.804001 20.235847
endloop
endfacet
facet normal 0.000000 1.000000 0.000006
outer loop
vertex 2.124067 64.804001 22.569054
vertex 2.101984 64.804001 20.751532
vertex 2.090837 64.804001 22.568043
endloop
endfacet
facet normal 0.000000 1.000000 -0.000054
outer loop
vertex -1.838629 64.804001 16.837738
vertex 2.012974 64.804001 20.235847
vertex 2.111141 64.804001 20.244228
endloop
endfacet
facet normal 0.000000 1.000000 0.000006
outer loop
vertex 2.124067 64.804001 22.569054
vertex 3.466938 64.804001 22.627068
vertex 2.101984 64.804001 20.751532
endloop
endfacet
facet normal 0.000000 1.000000 -0.000372
outer loop
vertex 2.111141 64.804001 20.244228
vertex 2.110394 64.804001 20.272509
vertex 4.951746 64.804001 22.600439
endloop
endfacet
facet normal 0.000000 1.000000 0.000000
outer loop
vertex 3.466938 64.804001 22.627068
vertex 4.951746 64.804001 22.600439
vertex 2.101984 64.804001 20.751532
endloop
endfacet
facet normal 0.000000 1.000000 0.000000
outer loop
vertex -1.813644 64.804001 17.424744
vertex 0.234465 64.804001 20.015425
vertex 1.227312 64.804001 20.164454
endloop
endfacet
facet normal 0.000000 1.000000 0.000011
outer loop
vertex -1.813644 64.804001 17.424744
vertex -1.598167 64.804001 18.508810
vertex -0.788967 64.804001 19.443531
endloop
endfacet
facet normal 0.000000 1.000000 -0.000008
outer loop
vertex 1.227312 64.804001 20.164454
vertex -1.838629 64.804001 16.837738
vertex -1.813644 64.804001 17.424744
endloop
endfacet
facet normal 0.000000 1.000000 -0.000001
outer loop
vertex 2.014662 64.804001 8.023796
vertex -1.879366 64.804001 11.649052
vertex -1.859316 64.804001 14.301828
endloop
endfacet
facet normal 0.000000 1.000000 -0.000010
outer loop
vertex -1.657503 64.804001 9.788374
vertex -1.766279 64.804001 9.937645
vertex -1.863052 64.804001 10.980785
endloop
endfacet
facet normal 0.000000 1.000000 0.000000
outer loop
vertex 2.014662 64.804001 8.023796
vertex 1.886776 64.804001 8.033894
vertex -1.879366 64.804001 11.649052
endloop
endfacet
facet normal 0.000000 1.000000 0.000000
outer loop
vertex 0.234465 64.804001 20.015425
vertex -1.813644 64.804001 17.424744
vertex -0.788967 64.804001 19.443531
endloop
endfacet
facet normal 0.000000 1.000000 0.000005
outer loop
vertex 4.951746 64.804001 22.600439
vertex 2.109161 64.804001 20.376019
vertex 2.101984 64.804001 20.751532
endloop
endfacet
facet normal 0.000000 1.000000 0.000003
outer loop
vertex -1.859316 64.804001 14.301828
vertex -1.838629 64.804001 16.837738
vertex 2.111141 64.804001 20.244228
endloop
endfacet
facet normal 0.000000 1.000000 0.000000
outer loop
vertex -1.879366 64.804001 11.649052
vertex 1.886776 64.804001 8.033894
vertex 1.132339 64.804001 8.091507
endloop
endfacet
facet normal 0.000000 1.000000 0.000000
outer loop
vertex -0.856796 64.804001 8.797342
vertex -1.001722 64.804001 8.899813
vertex -1.657503 64.804001 9.788374
endloop
endfacet
facet normal 0.000000 1.000000 -0.000073
outer loop
vertex 0.169874 64.804001 8.215263
vertex -0.061604 64.804001 8.244511
vertex -0.856796 64.804001 8.797342
endloop
endfacet
facet normal 0.000000 1.000000 -0.000018
outer loop
vertex -0.856796 64.804001 8.797342
vertex 1.132339 64.804001 8.091507
vertex 0.169874 64.804001 8.215263
endloop
endfacet
facet normal 0.000000 1.000000 -0.000147
outer loop
vertex 2.592463 64.804001 7.713766
vertex 2.013250 64.804001 7.981333
vertex 2.014662 64.804001 8.023796
endloop
endfacet
facet normal 0.000000 1.000000 -0.000061
outer loop
vertex -1.863052 64.804001 10.980785
vertex -1.880861 64.804001 11.164303
vertex 1.132339 64.804001 8.091507
endloop
endfacet
facet normal 0.000000 1.000000 0.000000
outer loop
vertex -1.863052 64.804001 10.980785
vertex -0.856796 64.804001 8.797342
vertex -1.657503 64.804001 9.788374
endloop
endfacet
facet normal 0.000000 1.000000 0.000000
outer loop
vertex 4.143581 64.804001 7.685509
vertex -1.859316 64.804001 14.301828
vertex 2.111141 64.804001 20.244228
endloop
endfacet
facet normal 0.000000 1.000000 0.000000
outer loop
vertex 9.483044 64.804001 20.009735
vertex 4.951746 64.804001 22.600439
vertex 7.433027 64.804001 22.576508
endloop
endfacet
facet normal 0.000000 1.000000 0.000000
outer loop
vertex 9.511120 64.804001 22.443678
vertex 9.473043 64.804001 22.446598
vertex 9.494417 64.804001 22.445120
endloop
endfacet
facet normal 0.000000 1.000000 0.000000
outer loop
vertex 9.473043 64.804001 22.446598
vertex 9.511120 64.804001 22.443678
vertex 9.484621 64.804001 20.149361
endloop
endfacet
facet normal 0.000000 1.000000 0.000000
outer loop
vertex 9.499136 64.804001 20.007345
vertex 9.610308 64.804001 19.993256
vertex 9.686207 64.804001 19.981380
endloop
endfacet
facet normal 0.000000 1.000000 -0.000093
outer loop
vertex 7.433027 64.804001 22.576508
vertex 9.484621 64.804001 20.149361
vertex 9.483044 64.804001 20.009735
endloop
endfacet
facet normal 0.000000 1.000000 0.000000
outer loop
vertex 12.433009 64.804001 19.062021
vertex 10.359896 64.804001 19.896589
vertex 11.463104 64.804001 19.703747
endloop
endfacet
facet normal 0.000000 1.000000 0.000006
outer loop
vertex 7.433027 64.804001 22.576508
vertex 9.473043 64.804001 22.446598
vertex 9.484621 64.804001 20.149361
endloop
endfacet
facet normal 0.000000 1.000000 0.000000
outer loop
vertex 13.344549 64.804001 16.922222
vertex 13.350074 64.804001 16.872772
vertex 10.359896 64.804001 19.896589
endloop
endfacet
facet normal 0.000000 1.000000 0.000000
outer loop
vertex 2.111141 64.804001 20.244228
vertex 4.951746 64.804001 22.600439
vertex 9.483044 64.804001 20.009735
endloop
endfacet
facet normal 0.000000 1.000000 0.000017
outer loop
vertex 10.359896 64.804001 19.896589
vertex 13.350074 64.804001 16.872772
vertex 9.686207 64.804001 19.981380
endloop
endfacet
facet normal 0.000000 1.000000 0.000000
outer loop
vertex 11.463104 64.804001 19.703747
vertex 11.544003 64.804001 19.687140
vertex 12.433009 64.804001 19.062021
endloop
endfacet
facet normal 0.000000 1.000000 0.000000
outer loop
vertex 12.433009 64.804001 19.062021
vertex 12.477944 64.804001 19.029873
vertex 13.204474 64.804001 18.060234
endloop
endfacet
facet normal 0.000000 1.000000 0.000032
outer loop
vertex 13.204474 64.804001 18.060234
vertex 13.235871 64.804001 18.018612
vertex 13.344549 64.804001 16.922222
endloop
endfacet
facet normal 0.000000 1.000000 0.000000
outer loop
vertex 9.483044 64.804001 20.009735
vertex 9.499136 64.804001 20.007345
vertex 13.327524 64.804001 14.071999
endloop
endfacet
facet normal 0.000000 1.000000 0.000005
outer loop
vertex 9.364576 64.804001 7.902666
vertex 13.326925 64.804001 13.900191
vertex 13.324000 64.804001 13.718193
endloop
endfacet
facet normal 0.000000 1.000000 -0.000032
outer loop
vertex 10.242901 64.804001 7.947834
vertex 13.291287 64.804001 10.870533
vertex 13.283586 64.804001 10.806958
endloop
endfacet
facet normal 0.000000 1.000000 0.000000
outer loop
vertex 13.283586 64.804001 10.806958
vertex 13.154331 64.804001 9.692999
vertex 12.376749 64.804001 8.697504
endloop
endfacet
facet normal 0.000000 1.000000 -0.000081
outer loop
vertex 12.376749 64.804001 8.697504
vertex 11.430295 64.804001 8.075422
vertex 11.318704 64.804001 8.064394
endloop
endfacet
facet normal 0.000000 1.000000 0.000000
outer loop
vertex 13.291287 64.804001 10.870533
vertex 10.242901 64.804001 7.947834
vertex 9.586393 64.804001 7.913305
endloop
endfacet
facet normal 0.000000 1.000000 0.000228
outer loop
vertex 13.291287 64.804001 10.870533
vertex 9.384455 64.804001 7.903572
vertex 9.364576 64.804001 7.902666
endloop
endfacet
facet normal 0.000000 1.000000 0.000051
outer loop
vertex 13.291287 64.804001 10.870533
vertex 9.586393 64.804001 7.913305
vertex 9.492043 64.804001 7.909245
endloop
endfacet
facet normal 0.000000 1.000000 -0.000027
outer loop
vertex 10.242901 64.804001 7.947834
vertex 12.376749 64.804001 8.697504
vertex 11.318704 64.804001 8.064394
endloop
endfacet
facet normal 0.000000 1.000000 -0.000001
outer loop
vertex 9.364576 64.804001 7.902666
vertex 13.324000 64.804001 13.718193
vertex 13.291287 64.804001 10.870533
endloop
endfacet
facet normal 0.000000 1.000000 0.000002
outer loop
vertex 13.327524 64.804001 14.071999
vertex 9.499136 64.804001 20.007345
vertex 9.686207 64.804001 19.981380
endloop
endfacet
facet normal 0.000000 1.000000 0.000000
outer loop
vertex 13.344549 64.804001 16.922222
vertex 12.433009 64.804001 19.062021
vertex 13.204474 64.804001 18.060234
endloop
endfacet
facet normal 0.000000 1.000000 0.000000
outer loop
vertex 9.686207 64.804001 19.981380
vertex 13.350074 64.804001 16.872772
vertex 13.327524 64.804001 14.071999
endloop
endfacet
facet normal 0.000000 1.000000 0.000004
outer loop
vertex 1.132339 64.804001 8.091507
vertex -0.856796 64.804001 8.797342
vertex -1.863052 64.804001 10.980785
endloop
endfacet
facet normal 0.000000 1.000000 0.000010
outer loop
vertex 2.590139 64.804001 7.636005
vertex 1.994934 64.804001 7.319595
vertex 2.010366 64.804001 7.863693
endloop
endfacet
facet normal 0.000000 1.000000 0.000000
outer loop
vertex -1.880861 64.804001 11.164303
vertex -1.879366 64.804001 11.649052
vertex 1.132339 64.804001 8.091507
endloop
endfacet
facet normal 0.000000 1.000000 0.000019
outer loop
vertex 2.592463 64.804001 7.713766
vertex 2.010366 64.804001 7.863693
vertex 2.013250 64.804001 7.981333
endloop
endfacet
facet normal 0.000000 1.000000 -0.000204
outer loop
vertex 2.010994 64.804001 5.187792
vertex 1.955509 64.804001 5.321852
vertex 1.955931 64.804001 5.340950
endloop
endfacet
facet normal 0.000000 1.000000 0.000000
outer loop
vertex 2.530840 64.804001 5.194695
vertex 2.530579 64.804001 5.183891
vertex 2.472866 64.804001 5.184340
endloop
endfacet
facet normal 0.000000 1.000000 -0.000019
outer loop
vertex 2.010994 64.804001 5.187792
vertex 1.953260 64.804001 5.188204
vertex 1.955509 64.804001 5.321852
endloop
endfacet
facet normal 0.000000 1.000000 0.000054
outer loop
vertex 1.955931 64.804001 5.340950
vertex 2.472866 64.804001 5.184340
vertex 2.010994 64.804001 5.187792
endloop
endfacet
facet normal 0.000000 1.000000 0.000013
outer loop
vertex 1.955931 64.804001 5.340950
vertex 2.544699 64.804001 5.689720
vertex 2.532095 64.804001 5.258451
endloop
endfacet
facet normal 0.000000 1.000000 0.000000
outer loop
vertex 2.532095 64.804001 5.258451
vertex 2.530840 64.804001 5.194695
vertex 2.472866 64.804001 5.184340
endloop
endfacet
facet normal 0.000000 1.000000 0.000000
outer loop
vertex 2.590139 64.804001 7.636005
vertex 2.544699 64.804001 5.689720
vertex 1.994934 64.804001 7.319595
endloop
endfacet
facet normal 0.000000 1.000000 0.000000
outer loop
vertex 4.143581 64.804001 7.685509
vertex 2.111141 64.804001 20.244228
vertex 9.483044 64.804001 20.009735
endloop
endfacet
facet normal 0.000000 1.000000 0.000000
outer loop
vertex 10.359896 64.804001 19.896589
vertex 12.433009 64.804001 19.062021
vertex 13.344549 64.804001 16.922222
endloop
endfacet
facet normal 0.000000 1.000000 0.000000
outer loop
vertex 10.242901 64.804001 7.947834
vertex 13.283586 64.804001 10.806958
vertex 12.376749 64.804001 8.697504
endloop
endfacet
facet normal 0.000000 1.000000 -0.000010
outer loop
vertex 13.291287 64.804001 10.870533
vertex 9.492043 64.804001 7.909245
vertex 9.384455 64.804001 7.903572
endloop
endfacet
facet normal 0.000000 1.000000 -0.000059
outer loop
vertex 9.342966 64.804001 5.266041
vertex 9.341755 64.804001 5.114567
vertex 9.288834 64.804001 5.115154
endloop
endfacet
facet normal 0.000000 1.000000 0.000000
outer loop
vertex 9.483044 64.804001 20.009735
vertex 13.326925 64.804001 13.900191
vertex 9.364576 64.804001 7.902666
endloop
endfacet
facet normal 0.000000 1.000000 0.000000
outer loop
vertex 9.283998 64.804001 5.115217
vertex 9.342966 64.804001 5.266041
vertex 9.288834 64.804001 5.115154
endloop
endfacet
facet normal 0.000000 1.000000 -0.000020
outer loop
vertex 9.483044 64.804001 20.009735
vertex 13.327524 64.804001 14.071999
vertex 13.326925 64.804001 13.900191
endloop
endfacet
facet normal 0.000000 1.000000 0.000001
outer loop
vertex 8.777895 64.804001 7.540022
vertex 9.363251 64.804001 7.747040
vertex 9.342966 64.804001 5.266041
endloop
endfacet
facet normal 0.000000 1.000000 0.000000
outer loop
vertex 8.764467 64.804001 5.195097
vertex 8.862816 64.804001 5.119923
vertex 8.821800 64.804001 5.120445
endloop
endfacet
facet normal 0.000000 1.000000 -0.000030
outer loop
vertex 8.862816 64.804001 5.119923
vertex 9.342966 64.804001 5.266041
vertex 9.283998 64.804001 5.115217
endloop
endfacet
facet normal 0.000000 1.000000 0.000000
outer loop
vertex 4.143581 64.804001 7.685509
vertex 9.483044 64.804001 20.009735
vertex 9.364576 64.804001 7.902666
endloop
endfacet
facet normal 0.000000 1.000000 -0.000160
outer loop
vertex 2.532095 64.804001 5.258451
vertex 2.472866 64.804001 5.184340
vertex 1.955931 64.804001 5.340950
endloop
endfacet
facet normal 0.000000 1.000000 -0.000074
outer loop
vertex 2.010366 64.804001 7.863693
vertex 2.590969 64.804001 7.658884
vertex 2.590139 64.804001 7.636005
endloop
endfacet
facet normal 0.000000 1.000000 -0.000007
outer loop
vertex 1.994934 64.804001 7.319595
vertex 2.544699 64.804001 5.689720
vertex 1.955931 64.804001 5.340950
endloop
endfacet
facet normal 0.000000 1.000000 0.000000
outer loop
vertex 8.764467 64.804001 5.195097
vertex 9.342966 64.804001 5.266041
vertex 8.862816 64.804001 5.119923
endloop
endfacet
facet normal 0.000000 1.000000 0.000000
outer loop
vertex 2.592463 64.804001 7.713766
vertex 2.590969 64.804001 7.658884
vertex 2.010366 64.804001 7.863693
endloop
endfacet
facet normal 0.000000 1.000000 0.000000
outer loop
vertex 8.764467 64.804001 5.195097
vertex 8.821800 64.804001 5.120445
vertex 8.764025 64.804001 5.121113
endloop
endfacet
facet normal 0.000000 1.000000 0.000003
outer loop
vertex 4.143581 64.804001 7.685509
vertex 2.014662 64.804001 8.023796
vertex -1.859316 64.804001 14.301828
endloop
endfacet
facet normal 0.000000 1.000000 0.000000
outer loop
vertex 2.014662 64.804001 8.023796
vertex 4.143581 64.804001 7.685509
vertex 2.652185 64.804001 7.713551
endloop
endfacet
facet normal 0.000000 1.000000 0.000586
outer loop
vertex 2.634670 64.804001 7.713642
vertex 2.592463 64.804001 7.713766
vertex 2.014662 64.804001 8.023796
endloop
endfacet
facet normal 0.000000 1.000000 0.000000
outer loop
vertex 8.778311 64.804001 7.616037
vertex 9.363251 64.804001 7.747040
vertex 8.778246 64.804001 7.600986
endloop
endfacet
facet normal 0.000000 1.000000 0.000000
outer loop
vertex 2.652185 64.804001 7.713551
vertex 2.634670 64.804001 7.713642
vertex 2.014662 64.804001 8.023796
endloop
endfacet
facet normal 0.000000 1.000000 0.000000
outer loop
vertex 8.777895 64.804001 7.540022
vertex 9.342966 64.804001 5.266041
vertex 8.764467 64.804001 5.195097
endloop
endfacet
facet normal 0.000000 1.000000 0.000000
outer loop
vertex 8.718727 64.804001 7.617434
vertex 4.143581 64.804001 7.685509
vertex 9.364576 64.804001 7.902666
endloop
endfacet
facet normal 0.000000 1.000000 0.000000
outer loop
vertex 8.778246 64.804001 7.600986
vertex 9.363251 64.804001 7.747040
vertex 8.777895 64.804001 7.540022
endloop
endfacet
facet normal 0.000000 1.000000 0.000000
outer loop
vertex 8.766369 64.804001 7.616364
vertex 8.718727 64.804001 7.617434
vertex 9.364576 64.804001 7.902666
endloop
endfacet
facet normal 0.000000 1.000000 -0.000084
outer loop
vertex 9.364576 64.804001 7.902666
vertex 9.363251 64.804001 7.747040
vertex 8.778311 64.804001 7.616037
endloop
endfacet
facet normal 0.056674 -0.639165 0.766979
outer loop
vertex 4.184990 70.467903 9.255302
vertex 4.395416 69.593781 8.511295
vertex 7.307325 70.603889 9.137909
endloop
endfacet
facet normal 0.252977 -0.591037 0.765949
outer loop
vertex 4.395416 69.593781 8.511295
vertex 4.184990 70.467903 9.255302
vertex 1.987143 68.515175 8.474403
endloop
endfacet
facet normal 0.042300 -0.174559 0.983738
outer loop
vertex 7.058315 69.718109 8.418854
vertex 4.395416 69.593781 8.511295
vertex 6.770918 68.573158 8.228045
endloop
endfacet
facet normal -0.185496 -0.586118 0.788706
outer loop
vertex 10.006952 69.499573 8.952177
vertex 7.307325 70.603889 9.137909
vertex 9.384626 68.785408 8.275093
endloop
endfacet
facet normal -0.591003 -0.554325 0.586037
outer loop
vertex 12.520631 67.715164 9.800875
vertex 10.531532 70.072495 10.024694
vertex 11.802800 67.398483 8.777407
endloop
endfacet
facet normal 0.608090 -0.569750 0.552821
outer loop
vertex 1.362377 69.190407 9.207237
vertex 0.840586 69.736206 10.343719
vertex -0.485035 67.060760 9.044485
endloop
endfacet
facet normal 0.759077 -0.647208 0.070171
outer loop
vertex 0.743366 69.764786 11.659057
vertex -1.336266 67.298782 11.410844
vertex 0.840586 69.736206 10.343719
endloop
endfacet
facet normal -0.004901 -0.164266 0.986404
outer loop
vertex 9.384626 68.785408 8.275093
vertex 7.058315 69.718109 8.418854
vertex 8.624573 67.851105 8.115728
endloop
endfacet
facet normal -0.406313 -0.414998 0.814055
outer loop
vertex 11.802800 67.398483 8.777407
vertex 10.006952 69.499573 8.952177
vertex 10.939737 66.991051 8.138927
endloop
endfacet
facet normal -0.773604 -0.190790 0.604265
outer loop
vertex 13.154331 64.804001 9.692999
vertex 12.520631 67.715164 9.800875
vertex 12.376749 64.804001 8.697504
endloop
endfacet
facet normal -0.757111 -0.646330 0.095082
outer loop
vertex 10.651911 70.117401 11.288562
vertex 10.531532 70.072495 10.024694
vertex 12.668382 67.716118 11.022166
endloop
endfacet
facet normal 0.765129 -0.643690 -0.015487
outer loop
vertex -1.336266 67.298782 11.410844
vertex 0.743366 69.764786 11.659057
vertex -1.345701 67.209793 14.642990
endloop
endfacet
facet normal 0.438387 -0.443073 0.781987
outer loop
vertex 1.987143 68.515175 8.474403
vertex 1.362377 69.190407 9.207237
vertex 0.387245 66.709999 8.348505
endloop
endfacet
facet normal 0.062974 -0.174215 0.982692
outer loop
vertex 1.987143 68.515175 8.474403
vertex 2.758499 67.628876 8.267847
vertex 4.395416 69.593781 8.511295
endloop
endfacet
facet normal 0.038068 -0.128447 0.990986
outer loop
vertex 6.770918 68.573158 8.228045
vertex 4.664259 68.472748 8.295954
vertex 6.589952 67.871185 8.144012
endloop
endfacet
facet normal -0.059219 -0.126464 0.990202
outer loop
vertex 10.939737 66.991051 8.138927
vertex 9.384626 68.785408 8.275093
vertex 9.869373 66.444946 8.005169
endloop
endfacet
facet normal 0.013297 -0.120272 0.992652
outer loop
vertex 8.624573 67.851105 8.115728
vertex 6.770918 68.573158 8.228045
vertex 8.144419 67.273804 8.052214
endloop
endfacet
facet normal -0.543396 -0.145671 0.826741
outer loop
vertex 12.376749 64.804001 8.697504
vertex 11.802800 67.398483 8.777407
vertex 11.430295 64.804001 8.075422
endloop
endfacet
facet normal -0.969837 -0.213564 0.117500
outer loop
vertex 13.291287 64.804001 10.870533
vertex 12.668382 67.716118 11.022166
vertex 13.283586 64.804001 10.806958
endloop
endfacet
facet normal -0.765699 -0.643196 0.001832
outer loop
vertex 12.668382 67.716118 11.022166
vertex 12.732901 67.648209 14.148815
vertex 10.651911 70.117401 11.288562
endloop
endfacet
facet normal 0.970668 -0.221199 0.094205
outer loop
vertex -1.880861 64.804001 11.164303
vertex -1.863052 64.804001 10.980785
vertex -1.336266 67.298782 11.410844
endloop
endfacet
facet normal 0.788336 -0.220219 0.574483
outer loop
vertex -1.766279 64.804001 9.937645
vertex -1.657503 64.804001 9.788374
vertex -1.206274 67.326393 10.136095
endloop
endfacet
facet normal 0.093278 -0.151304 0.984076
outer loop
vertex 0.387245 66.709999 8.348505
vertex 1.476048 66.215225 8.169228
vertex 1.987143 68.515175 8.474403
endloop
endfacet
facet normal 0.044640 -0.133787 0.990004
outer loop
vertex 2.758499 67.628876 8.267847
vertex 3.240919 67.091576 8.173485
vertex 4.664259 68.472748 8.295954
endloop
endfacet
facet normal 0.010587 -0.124916 0.992111
outer loop
vertex 8.144419 67.273804 8.052214
vertex 6.589952 67.871185 8.144012
vertex 8.062937 67.177307 8.040934
endloop
endfacet
facet normal -0.019226 -0.095273 0.995265
outer loop
vertex 9.869373 66.444946 8.005169
vertex 8.624573 67.851105 8.115728
vertex 9.192230 66.104500 7.959497
endloop
endfacet
facet normal -0.098210 -0.050890 0.993864
outer loop
vertex 11.430295 64.804001 8.075422
vertex 10.939737 66.991051 8.138927
vertex 11.318704 64.804001 8.064394
endloop
endfacet
facet normal 0.764194 -0.644980 0.002978
outer loop
vertex 0.797794 69.786705 18.122795
vertex -1.283773 67.318420 17.695160
vertex 0.743357 69.707642 14.968011
endloop
endfacet
facet normal -0.978482 -0.205731 0.015734
outer loop
vertex 13.326925 64.804001 13.900191
vertex 12.732901 67.648209 14.148815
vertex 13.324000 64.804001 13.718193
endloop
endfacet
facet normal -0.764957 -0.643935 0.013707
outer loop
vertex 10.710091 70.139442 17.568611
vertex 10.720467 70.061882 14.503614
vertex 12.724764 67.736870 17.133678
endloop
endfacet
facet normal 0.977051 -0.212986 -0.003014
outer loop
vertex -1.880861 64.804001 11.164303
vertex -1.336266 67.298782 11.410844
vertex -1.879366 64.804001 11.649052
endloop
endfacet
facet normal 0.567735 -0.181458 0.802963
outer loop
vertex -1.001722 64.804001 8.899813
vertex -0.856796 64.804001 8.797342
vertex -0.485035 67.060760 9.044485
endloop
endfacet
facet normal 0.124919 -0.083360 0.988659
outer loop
vertex -0.061604 64.804001 8.244511
vertex 0.169874 64.804001 8.215263
vertex 0.387245 66.709999 8.348505
endloop
endfacet
facet normal 0.059338 -0.120749 0.990908
outer loop
vertex 3.240919 67.091576 8.173485
vertex 2.758499 67.628876 8.267847
vertex 2.161901 65.912582 8.094429
endloop
endfacet
facet normal 0.047540 -0.140451 0.988946
outer loop
vertex 3.240919 67.091576 8.173485
vertex 3.322304 67.002480 8.156918
vertex 4.831263 67.790894 8.196354
endloop
endfacet
facet normal 0.035667 -0.135818 0.990092
outer loop
vertex 6.589952 67.871185 8.144012
vertex 4.831263 67.790894 8.196354
vertex 6.559259 67.754341 8.129089
endloop
endfacet
facet normal -0.021252 -0.097936 0.994966
outer loop
vertex 9.192230 66.104500 7.959497
vertex 8.144419 67.273804 8.052214
vertex 9.077194 66.047501 7.951431
endloop
endfacet
facet normal -0.042954 -0.048459 0.997901
outer loop
vertex 9.586393 64.804001 7.913305
vertex 9.869373 66.444946 8.005169
vertex 9.492043 64.804001 7.909245
endloop
endfacet
facet normal 0.768870 -0.633889 -0.083811
outer loop
vertex -1.283773 67.318420 17.695160
vertex 0.797794 69.786705 18.122795
vertex -1.133287 67.353317 18.811853
endloop
endfacet
facet normal -0.978812 -0.204731 0.003423
outer loop
vertex 13.326925 64.804001 13.900191
vertex 13.327524 64.804001 14.071999
vertex 12.732901 67.648209 14.148815
endloop
endfacet
facet normal -0.381808 -0.692714 -0.611858
outer loop
vertex 7.408279 70.639336 20.104128
vertex 7.611355 71.351570 19.171045
vertex 10.105503 69.535500 19.670732
endloop
endfacet
facet normal -0.769978 -0.632058 -0.087387
outer loop
vertex 10.611473 70.102837 18.702318
vertex 10.710091 70.139442 17.568611
vertex 12.598080 67.744820 18.253265
endloop
endfacet
facet normal 0.977308 -0.211467 -0.012302
outer loop
vertex -1.833149 64.804001 17.273090
vertex -1.838629 64.804001 16.837738
vertex -1.283773 67.318420 17.695160
endloop
endfacet
facet normal 0.064782 -0.124890 0.990054
outer loop
vertex 3.322304 67.002480 8.156918
vertex 3.240919 67.091576 8.173485
vertex 2.278076 65.862274 8.081409
endloop
endfacet
facet normal -0.746370 -0.664484 -0.037308
outer loop
vertex 9.072567 66.061607 7.792511
vertex 9.077194 66.047501 7.951431
vertex 8.057520 67.197014 7.876900
endloop
endfacet
facet normal -0.045495 -0.049632 0.997731
outer loop
vertex 9.384455 64.804001 7.903572
vertex 9.192230 66.104500 7.959497
vertex 9.364576 64.804001 7.902666
endloop
endfacet
facet normal 0.351899 -0.704246 -0.616607
outer loop
vertex 0.915575 69.765205 19.263880
vertex 4.093674 71.222000 19.413788
vertex 1.455278 69.223663 20.190418
endloop
endfacet
facet normal 0.973442 -0.191669 -0.125193
outer loop
vertex -1.833149 64.804001 17.273090
vertex -1.283773 67.318420 17.695160
vertex -1.813644 64.804001 17.424744
endloop
endfacet
facet normal 0.075939 -0.073261 0.994417
outer loop
vertex 1.132339 64.804001 8.091507
vertex 1.886776 64.804001 8.033894
vertex 1.476048 66.215225 8.169228
endloop
endfacet
facet normal -0.974213 -0.225480 0.008279
outer loop
vertex 9.363251 64.804001 7.747040
vertex 9.364576 64.804001 7.902666
vertex 9.072567 66.061607 7.792511
endloop
endfacet
facet normal -0.046062 -0.510980 -0.858357
outer loop
vertex 4.504871 69.630936 20.858643
vertex 4.282944 70.504578 20.350473
vertex 7.170069 69.755951 20.641195
endloop
endfacet
facet normal 0.646575 -0.431334 -0.629200
outer loop
vertex -1.133287 67.353317 18.811853
vertex 0.915575 69.765205 19.263880
vertex -0.394316 67.092682 19.749912
endloop
endfacet
facet normal -0.974137 -0.198015 -0.108847
outer loop
vertex 13.350074 64.804001 16.872772
vertex 13.344549 64.804001 16.922222
vertex 12.724764 67.736870 17.133678
endloop
endfacet
facet normal -0.661978 -0.442501 -0.604962
outer loop
vertex 12.598080 67.744820 18.253265
vertex 11.898070 67.435677 19.245365
vertex 10.611473 70.102837 18.702318
endloop
endfacet
facet normal -0.310614 -0.431241 -0.847084
outer loop
vertex 7.170069 69.755951 20.641195
vertex 7.408279 70.639336 20.104128
vertex 9.494219 68.824356 20.263226
endloop
endfacet
facet normal 0.078499 -0.073769 0.994181
outer loop
vertex 1.886776 64.804001 8.033894
vertex 2.014662 64.804001 8.023796
vertex 2.161901 65.912582 8.094429
endloop
endfacet
facet normal 0.736623 -0.667375 -0.109526
outer loop
vertex 3.322304 67.002480 8.156918
vertex 2.278076 65.862274 8.081409
vertex 3.321571 67.029381 7.987869
endloop
endfacet
facet normal -0.766782 -0.641396 -0.025630
outer loop
vertex 9.010639 66.236252 5.274574
vertex 9.072567 66.061607 7.792511
vertex 7.983150 67.463669 5.297956
endloop
endfacet
facet normal -0.974080 -0.226065 0.007964
outer loop
vertex 9.342966 64.804001 5.266041
vertex 9.363251 64.804001 7.747040
vertex 9.010639 66.236252 5.274574
endloop
endfacet
facet normal 0.246061 -0.434959 -0.866178
outer loop
vertex 1.455278 69.223663 20.190418
vertex 4.282944 70.504578 20.350473
vertex 2.091814 68.549759 20.709650
endloop
endfacet
facet normal -0.079671 -0.034334 -0.996230
outer loop
vertex 7.170069 69.755951 20.641195
vertex 6.884295 68.609833 20.703548
vertex 4.504871 69.630936 20.858643
endloop
endfacet
facet normal 0.774731 -0.066530 -0.628781
outer loop
vertex -1.700293 64.804001 18.382980
vertex -1.133287 67.353317 18.811853
vertex -1.598167 64.804001 18.508810
endloop
endfacet
facet normal 0.459882 -0.221395 -0.859937
outer loop
vertex -0.394316 67.092682 19.749912
vertex 1.455278 69.223663 20.190418
vertex 0.489618 66.745171 20.312096
endloop
endfacet
facet normal -0.792133 -0.124124 -0.597593
outer loop
vertex 13.235871 64.804001 18.018612
vertex 13.204474 64.804001 18.060234
vertex 12.598080 67.744820 18.253265
endloop
endfacet
facet normal -0.499109 -0.258537 -0.827072
outer loop
vertex 11.898070 67.435677 19.245365
vertex 11.046120 67.032692 19.885460
vertex 10.105503 69.535500 19.670732
endloop
endfacet
facet normal 0.970294 -0.239766 -0.032281
outer loop
vertex 2.013250 64.804001 7.981333
vertex 2.278030 65.884079 7.917635
vertex 2.014662 64.804001 8.023796
endloop
endfacet
facet normal -0.974079 -0.226074 0.007788
outer loop
vertex 9.341755 64.804001 5.114567
vertex 9.342966 64.804001 5.266041
vertex 9.007715 66.243515 5.121782
endloop
endfacet
facet normal -0.167050 -0.011984 -0.985876
outer loop
vertex 6.884295 68.609833 20.703548
vertex 7.170069 69.755951 20.641195
vertex 8.736195 67.889618 20.398518
endloop
endfacet
facet normal -0.580807 -0.061498 -0.811715
outer loop
vertex 12.477944 64.804001 19.029873
vertex 12.433009 64.804001 19.062021
vertex 11.898070 67.435677 19.245365
endloop
endfacet
facet normal -0.213512 0.031824 -0.976422
outer loop
vertex 8.736195 67.889618 20.398518
vertex 9.494219 68.824356 20.263226
vertex 9.978415 66.486511 20.081150
endloop
endfacet
facet normal 0.738718 -0.667236 -0.095353
outer loop
vertex 3.321571 67.029381 7.987869
vertex 2.278030 65.884079 7.917635
vertex 3.306568 67.388878 5.356047
endloop
endfacet
facet normal -0.767743 -0.640565 -0.015735
outer loop
vertex 9.007715 66.243515 5.121782
vertex 9.010639 66.236252 5.274574
vertex 7.979523 67.475327 5.143040
endloop
endfacet
facet normal 0.057886 0.008381 -0.998288
outer loop
vertex 2.091814 68.549759 20.709650
vertex 4.504871 69.630936 20.858643
vertex 2.866596 67.662155 20.747122
endloop
endfacet
facet normal -0.080008 0.054310 -0.995314
outer loop
vertex 6.884295 68.609833 20.703548
vertex 6.703304 67.907112 20.679752
vertex 4.776079 68.507477 20.867435
endloop
endfacet
facet normal 0.541872 0.019043 -0.840245
outer loop
vertex -0.919893 64.804001 19.359097
vertex -0.394316 67.092682 19.749912
vertex -0.788967 64.804001 19.443531
endloop
endfacet
facet normal 0.141037 0.091942 -0.985726
outer loop
vertex 0.489618 66.745171 20.312096
vertex 2.091814 68.549759 20.709650
vertex 1.581882 66.250710 20.422253
endloop
endfacet
facet normal 0.970591 -0.239156 -0.027533
outer loop
vertex 2.010366 64.804001 7.863693
vertex 1.994934 64.804001 7.319595
vertex 2.278030 65.884079 7.917635
endloop
endfacet
facet normal 0.013013 -0.002062 0.999913
outer loop
vertex 9.288834 64.804001 5.115154
vertex 9.007715 66.243515 5.121782
vertex 9.283998 64.804001 5.115217
endloop
endfacet
facet normal 0.020387 0.095600 -0.995211
outer loop
vertex 2.866596 67.662155 20.747122
vertex 4.776079 68.507477 20.867435
vertex 3.350292 67.124466 20.705379
endloop
endfacet
facet normal -0.134579 0.068137 -0.988557
outer loop
vertex 6.703304 67.907112 20.679752
vertex 6.884295 68.609833 20.703548
vertex 8.256357 67.312012 20.427301
endloop
endfacet
facet normal -0.200857 0.042208 -0.978711
outer loop
vertex 11.544003 64.804001 19.687140
vertex 11.463104 64.804001 19.703747
vertex 11.046120 67.032692 19.885460
endloop
endfacet
facet normal -0.154381 0.085956 -0.984265
outer loop
vertex 9.978415 66.486511 20.081150
vertex 9.302069 66.145905 20.157486
vertex 8.736195 67.889618 20.398518
endloop
endfacet
facet normal 0.764701 -0.640877 -0.067150
outer loop
vertex 3.306568 67.388878 5.356047
vertex 2.271950 66.155022 5.349712
vertex 3.305511 67.404037 5.199520
endloop
endfacet
facet normal 0.009386 -0.009587 0.999910
outer loop
vertex 4.824009 68.050491 5.191517
vertex 4.811100 68.104706 5.192158
vertex 3.341837 67.360672 5.198814
endloop
endfacet
facet normal 0.012887 -0.008749 0.999879
outer loop
vertex 4.824009 68.050491 5.191517
vertex 6.469439 68.078598 5.170551
vertex 4.811100 68.104706 5.192158
endloop
endfacet
facet normal 0.015796 -0.006216 0.999856
outer loop
vertex 7.979523 67.475327 5.143040
vertex 6.482487 68.133415 5.170780
vertex 7.943346 67.430634 5.143333
endloop
endfacet
facet normal 0.014500 -0.005163 0.999882
outer loop
vertex 7.943346 67.430634 5.143333
vertex 8.955744 66.218063 5.122395
vertex 7.979523 67.475327 5.143040
endloop
endfacet
facet normal 0.088170 0.146521 -0.985270
outer loop
vertex 1.581882 66.250710 20.422253
vertex 2.866596 67.662155 20.747122
vertex 2.269215 65.948578 20.438831
endloop
endfacet
facet normal 0.012816 0.113543 -0.993450
outer loop
vertex 3.350292 67.124466 20.705379
vertex 4.943527 67.824615 20.805922
vertex 3.431856 67.035400 20.696251
endloop
endfacet
facet normal -0.074667 0.071497 -0.994642
outer loop
vertex 6.703304 67.907112 20.679752
vertex 6.672562 67.790062 20.673647
vertex 4.943527 67.824615 20.805922
endloop
endfacet
facet normal -0.131157 0.077019 -0.988365
outer loop
vertex 8.256357 67.312012 20.427301
vertex 8.174923 67.215462 20.430584
vertex 6.703304 67.907112 20.679752
endloop
endfacet
facet normal 0.157151 0.128983 -0.979115
outer loop
vertex 0.030361 64.804001 19.982666
vertex 0.489618 66.745171 20.312096
vertex 0.234465 64.804001 20.015425
endloop
endfacet
facet normal -0.154024 0.085119 -0.984394
outer loop
vertex 9.686207 64.804001 19.981380
vertex 9.610308 64.804001 19.993256
vertex 9.978415 66.486511 20.081150
endloop
endfacet
facet normal 0.973522 -0.227583 -0.021446
outer loop
vertex 1.955931 64.804001 5.340950
vertex 1.955509 64.804001 5.321852
vertex 2.271950 66.155022 5.349712
endloop
endfacet
facet normal 0.009653 -0.009579 0.999908
outer loop
vertex 4.927422 67.617714 5.186373
vertex 4.824009 68.050491 5.191517
vertex 3.632219 67.014961 5.193102
endloop
endfacet
facet normal 0.007723 -0.009810 0.999922
outer loop
vertex 3.341837 67.360672 5.198814
vertex 3.305511 67.404037 5.199520
vertex 2.323473 66.142189 5.194721
endloop
endfacet
facet normal 0.012587 -0.008877 0.999881
outer loop
vertex 4.927422 67.617714 5.186373
vertex 6.365093 67.641335 5.168484
vertex 4.824009 68.050491 5.191517
endloop
endfacet
facet normal 0.014060 -0.005481 0.999886
outer loop
vertex 7.653887 67.074020 5.145449
vertex 8.539921 66.014946 5.127184
vertex 7.943346 67.430634 5.143333
endloop
endfacet
facet normal 0.012742 -0.002585 0.999916
outer loop
vertex 8.862816 64.804001 5.119923
vertex 8.955744 66.218063 5.122395
vertex 8.821800 64.804001 5.120445
endloop
endfacet
facet normal 0.077417 0.152174 -0.985317
outer loop
vertex 2.269215 65.948578 20.438831
vertex 3.350292 67.124466 20.705379
vertex 2.385605 65.898598 20.440256
endloop
endfacet
facet normal -0.150215 0.093231 -0.984248
outer loop
vertex 8.174923 67.215462 20.430584
vertex 8.256357 67.312012 20.427301
vertex 9.187124 66.088951 20.169411
endloop
endfacet
facet normal 0.009992 -0.010173 0.999898
outer loop
vertex 4.940321 67.563843 5.185696
vertex 4.927422 67.617714 5.186373
vertex 3.668495 66.971817 5.192387
endloop
endfacet
facet normal 0.008278 -0.009569 0.999920
outer loop
vertex 3.632219 67.014961 5.193102
vertex 3.341837 67.360672 5.198814
vertex 2.741238 65.948601 5.190273
endloop
endfacet
facet normal 0.012568 -0.007899 0.999890
outer loop
vertex 6.365093 67.641335 5.168484
vertex 4.927422 67.617714 5.186373
vertex 6.352055 67.586792 5.168217
endloop
endfacet
facet normal 0.014288 -0.008138 0.999865
outer loop
vertex 6.365093 67.641335 5.168484
vertex 7.653887 67.074020 5.145449
vertex 6.469439 68.078598 5.170551
endloop
endfacet
facet normal 0.013541 -0.005883 0.999891
outer loop
vertex 7.617710 67.029602 5.145678
vertex 8.487932 65.989616 5.127769
vertex 7.653887 67.074020 5.145449
endloop
endfacet
facet normal 0.011545 -0.002875 0.999929
outer loop
vertex 8.821800 64.804001 5.120445
vertex 8.539921 66.014946 5.127184
vertex 8.764025 64.804001 5.121113
endloop
endfacet
facet normal 0.089813 0.153348 -0.984082
outer loop
vertex 1.227312 64.804001 20.164454
vertex 1.581882 66.250710 20.422253
vertex 1.983057 64.804001 20.233429
endloop
endfacet
facet normal -0.734303 -0.675449 0.067576
outer loop
vertex 9.187124 66.088951 20.169411
vertex 9.185055 66.104675 20.304049
vertex 8.174923 67.215462 20.430584
endloop
endfacet
facet normal -0.146210 0.088749 -0.985265
outer loop
vertex 9.499136 64.804001 20.007345
vertex 9.483044 64.804001 20.009735
vertex 9.302069 66.145905 20.157486
endloop
endfacet
facet normal 0.007140 -0.006839 0.999951
outer loop
vertex 1.953260 64.804001 5.188204
vertex 2.010994 64.804001 5.187792
vertex 2.271233 66.166512 5.195253
endloop
endfacet
facet normal 0.014161 -0.008281 0.999865
outer loop
vertex 6.352055 67.586792 5.168217
vertex 7.617710 67.029602 5.145678
vertex 6.365093 67.641335 5.168484
endloop
endfacet
facet normal 0.766950 0.641439 0.018548
outer loop
vertex 8.487932 65.989616 5.127769
vertex 7.617710 67.029602 5.145678
vertex 8.489206 65.985947 5.202330
endloop
endfacet
facet normal 0.973918 0.226828 -0.005803
outer loop
vertex 8.764025 64.804001 5.121113
vertex 8.487932 65.989616 5.127769
vertex 8.764467 64.804001 5.195097
endloop
endfacet
facet normal 0.079513 0.156773 -0.984429
outer loop
vertex 1.983057 64.804001 20.233429
vertex 2.269215 65.948578 20.438831
vertex 2.012974 64.804001 20.235847
endloop
endfacet
facet normal 0.718951 -0.686352 0.109679
outer loop
vertex 2.385605 65.898598 20.440256
vertex 3.431856 67.035400 20.696251
vertex 2.388094 65.921570 20.567724
endloop
endfacet
facet normal -0.974133 -0.225706 0.010998
outer loop
vertex 9.483044 64.804001 20.009735
vertex 9.484621 64.804001 20.149361
vertex 9.187124 66.088951 20.169411
endloop
endfacet
facet normal 0.007474 -0.006923 0.999948
outer loop
vertex 2.010994 64.804001 5.187792
vertex 2.472866 64.804001 5.184340
vertex 2.323473 66.142189 5.194721
endloop
endfacet
facet normal -0.419060 0.902790 0.096744
outer loop
vertex 4.941385 67.556137 5.262133
vertex 4.940321 67.563843 5.185696
vertex 3.669146 66.964912 5.268394
endloop
endfacet
facet normal 0.008347 -0.009556 0.999919
outer loop
vertex 3.668495 66.971817 5.192387
vertex 3.632219 67.014961 5.193102
vertex 2.793438 65.924530 5.189686
endloop
endfacet
facet normal -0.015678 0.995863 0.089501
outer loop
vertex 6.353481 67.579971 5.244307
vertex 6.352055 67.586792 5.168217
vertex 4.941385 67.556137 5.262133
endloop
endfacet
facet normal 0.402296 0.913662 0.058129
outer loop
vertex 7.619251 67.024117 5.221062
vertex 7.617710 67.029602 5.145678
vertex 6.353481 67.579971 5.244307
endloop
endfacet
facet normal 0.973915 0.226846 -0.005578
outer loop
vertex 8.764467 64.804001 5.195097
vertex 8.489206 65.985947 5.202330
vertex 8.777895 64.804001 7.540022
endloop
endfacet
facet normal -0.737967 -0.672688 0.053803
outer loop
vertex 9.185055 66.104675 20.304049
vertex 9.163443 66.305260 22.515505
vertex 8.172104 67.236298 20.558758
endloop
endfacet
facet normal -0.974133 -0.225696 0.011251
outer loop
vertex 9.484621 64.804001 20.149361
vertex 9.511120 64.804001 22.443678
vertex 9.185055 66.104675 20.304049
endloop
endfacet
facet normal 0.007767 -0.007005 0.999945
outer loop
vertex 2.472866 64.804001 5.184340
vertex 2.530579 64.804001 5.183891
vertex 2.741238 65.948601 5.190273
endloop
endfacet
facet normal 0.766414 0.641720 0.028366
outer loop
vertex 8.489206 65.985947 5.202330
vertex 7.619251 67.024117 5.221062
vertex 8.540609 65.819656 7.575302
endloop
endfacet
facet normal 0.968556 -0.247469 0.025664
outer loop
vertex 2.111141 64.804001 20.244228
vertex 2.385605 65.898598 20.440256
vertex 2.110394 64.804001 20.272509
endloop
endfacet
facet normal 0.725639 -0.682821 0.084874
outer loop
vertex 2.388094 65.921570 20.567724
vertex 3.433718 67.063660 20.816296
vertex 2.423479 66.220428 22.669529
endloop
endfacet
facet normal -0.069066 0.036312 -0.996951
outer loop
vertex 9.494417 64.804001 22.445120
vertex 9.473043 64.804001 22.446598
vertex 8.137396 67.529442 22.638248
endloop
endfacet
facet normal -0.002059 0.066675 -0.997773
outer loop
vertex 4.951746 64.804001 22.600439
vertex 3.459400 67.451424 22.780426
vertex 4.967415 68.149712 22.823978
endloop
endfacet
facet normal -0.017899 0.057770 -0.998169
outer loop
vertex 3.459400 67.451424 22.780426
vertex 4.951746 64.804001 22.600439
vertex 3.466938 64.804001 22.627068
endloop
endfacet
facet normal -0.086060 0.027741 -0.995904
outer loop
vertex 9.511120 64.804001 22.443678
vertex 9.494417 64.804001 22.445120
vertex 9.163443 66.305260 22.515505
endloop
endfacet
facet normal -0.973329 0.228195 0.023616
outer loop
vertex 2.530579 64.804001 5.183891
vertex 2.530840 64.804001 5.194695
vertex 2.793438 65.924530 5.189686
endloop
endfacet
facet normal -0.400770 0.907145 0.128337
outer loop
vertex 4.980719 67.223213 7.738165
vertex 4.941385 67.556137 5.262133
vertex 3.690763 66.655327 7.723978
endloop
endfacet
facet normal -0.765367 0.640326 0.064780
outer loop
vertex 3.669146 66.964912 5.268394
vertex 3.668495 66.971817 5.192387
vertex 2.794006 65.919228 5.264870
endloop
endfacet
facet normal -0.034274 0.991812 0.123022
outer loop
vertex 6.409245 67.276833 7.703869
vertex 6.353481 67.579971 5.244307
vertex 4.980719 67.223213 7.738165
endloop
endfacet
facet normal 0.402005 0.912038 0.081108
outer loop
vertex 7.619251 67.024117 5.221062
vertex 6.353481 67.579971 5.244307
vertex 7.679338 66.782516 7.640139
endloop
endfacet
facet normal 0.973718 0.227719 -0.004252
outer loop
vertex 8.778246 64.804001 7.600986
vertex 8.540609 65.819656 7.575302
vertex 8.778311 64.804001 7.616037
endloop
endfacet
facet normal 0.746071 0.664663 0.040016
outer loop
vertex 8.540609 65.819656 7.575302
vertex 7.679338 66.782516 7.640139
vertex 8.542542 65.812836 7.652550
endloop
endfacet
facet normal 0.027289 -0.029786 0.999184
outer loop
vertex 8.778311 64.804001 7.616037
vertex 8.542542 65.812836 7.652550
vertex 8.766369 64.804001 7.616364
endloop
endfacet
facet normal 0.969319 -0.245109 0.018530
outer loop
vertex 2.109161 64.804001 20.376019
vertex 2.388094 65.921570 20.567724
vertex 2.101984 64.804001 20.751532
endloop
endfacet
facet normal 0.030395 0.064340 -0.997465
outer loop
vertex 2.090837 64.804001 22.568043
vertex 2.423479 66.220428 22.669529
vertex 2.124067 64.804001 22.569054
endloop
endfacet
facet normal -0.973156 0.228383 0.028435
outer loop
vertex 2.532095 64.804001 5.258451
vertex 2.544699 64.804001 5.689720
vertex 2.794006 65.919228 5.264870
endloop
endfacet
facet normal -0.740859 0.665544 0.090435
outer loop
vertex 3.690763 66.655327 7.723978
vertex 3.669146 66.964912 5.268394
vertex 2.808207 65.679642 7.674330
endloop
endfacet
facet normal -0.399214 0.904302 0.151219
outer loop
vertex 4.982258 67.210182 7.820183
vertex 4.980719 67.223213 7.738165
vertex 3.691418 66.642822 7.805191
endloop
endfacet
facet normal -0.033701 0.989181 0.142777
outer loop
vertex 6.409245 67.276833 7.703869
vertex 4.980719 67.223213 7.738165
vertex 6.411417 67.265198 7.784998
endloop
endfacet
facet normal 0.365246 0.925314 0.101925
outer loop
vertex 7.679338 66.782516 7.640139
vertex 6.409245 67.276833 7.703869
vertex 7.681614 66.772873 7.719534
endloop
endfacet
facet normal 0.032595 -0.040451 0.998650
outer loop
vertex 8.542542 65.812836 7.652550
vertex 7.681614 66.772873 7.719534
vertex 8.488859 65.786392 7.653231
endloop
endfacet
facet normal 0.032200 -0.049004 0.998279
outer loop
vertex 6.397366 67.211319 7.782806
vertex 7.643797 66.728165 7.718884
vertex 6.411417 67.265198 7.784998
endloop
endfacet
facet normal 0.018835 -0.052702 0.998433
outer loop
vertex 8.488859 65.786392 7.653231
vertex 7.643797 66.728165 7.718884
vertex 2.862726 65.646309 7.751970
endloop
endfacet
facet normal -0.970119 0.240052 0.035282
outer loop
vertex 2.590139 64.804001 7.636005
vertex 2.590969 64.804001 7.658884
vertex 2.808207 65.679642 7.674330
endloop
endfacet
facet normal -0.739125 0.664817 0.108226
outer loop
vertex 3.691418 66.642822 7.805191
vertex 3.690763 66.655327 7.723978
vertex 2.808647 65.669823 7.753349
endloop
endfacet
facet normal 0.012126 -0.053981 0.998468
outer loop
vertex 3.691418 66.642822 7.805191
vertex 3.729107 66.601227 7.802485
vertex 4.982258 67.210182 7.820183
endloop
endfacet
facet normal 0.026421 -0.047520 0.998521
outer loop
vertex 6.411417 67.265198 7.784998
vertex 4.982258 67.210182 7.820183
vertex 6.397366 67.211319 7.782806
endloop
endfacet
facet normal 0.023600 -0.071051 0.997194
outer loop
vertex 7.643797 66.728165 7.718884
vertex 6.397366 67.211319 7.782806
vertex 3.729107 66.601227 7.802485
endloop
endfacet
facet normal 0.018775 -0.050239 0.998561
outer loop
vertex 2.652185 64.804001 7.713551
vertex 4.143581 64.804001 7.685509
vertex 2.862726 65.646309 7.751970
endloop
endfacet
facet normal 0.006701 -0.058882 0.998242
outer loop
vertex 3.729107 66.601227 7.802485
vertex 3.691418 66.642822 7.805191
vertex 2.862726 65.646309 7.751970
endloop
endfacet
facet normal 0.005214 -0.046858 0.998888
outer loop
vertex 2.634670 64.804001 7.713642
vertex 2.652185 64.804001 7.713551
vertex 2.808647 65.669823 7.753349
endloop
endfacet
endsolid Exported from Blender-2.74 (sub 0)
