solid Exported from Blender-2.74 (sub 0)
facet normal 0.098017 0.000000 -0.995185
outer loop
vertex 1.651441 -0.746203 -3.157156
vertex 1.651441 29.253794 -3.157156
vertex 2.626893 29.253794 -3.061083
endloop
endfacet
facet normal 0.098016 0.000000 -0.995185
outer loop
vertex 2.626893 29.253794 -3.061083
vertex 2.626893 -0.746203 -3.061083
vertex 1.651441 -0.746203 -3.157156
endloop
endfacet
facet normal 0.000000 -1.000000 -0.000000
outer loop
vertex 4.164566 -0.746203 1.787083
vertex 6.555367 -0.746203 2.818295
vertex 6.270838 -0.746203 3.756258
endloop
endfacet
facet normal 0.000000 -1.000000 0.000000
outer loop
vertex 6.555367 -0.746203 0.867392
vertex 6.651441 -0.746203 1.842842
vertex 6.555367 -0.746203 2.818295
endloop
endfacet
facet normal 0.000000 -1.000000 0.000000
outer loop
vertex 5.808789 -0.746203 -0.935007
vertex 6.270838 -0.746203 -0.070574
vertex 6.555367 -0.746203 0.867392
endloop
endfacet
facet normal 0.000000 -1.000000 0.000001
outer loop
vertex 4.429292 -0.746203 -2.314505
vertex 5.186975 -0.746203 -1.692690
vertex 5.808789 -0.746203 -0.935007
endloop
endfacet
facet normal 0.000000 -1.000000 0.000000
outer loop
vertex 2.626893 -0.746203 -3.061083
vertex 3.564858 -0.746203 -2.776554
vertex 4.429292 -0.746203 -2.314505
endloop
endfacet
facet normal 0.000000 -1.000000 -0.000001
outer loop
vertex 0.675997 -0.746203 -3.061085
vertex 1.651441 -0.746203 -3.157156
vertex 2.626893 -0.746203 -3.061083
endloop
endfacet
facet normal 0.000000 -1.000000 0.000001
outer loop
vertex -1.126404 -0.746203 -2.314508
vertex -0.261969 -0.746203 -2.776558
vertex 0.675997 -0.746203 -3.061085
endloop
endfacet
facet normal 0.000000 -1.000000 0.000001
outer loop
vertex -2.505903 -0.746203 -0.935013
vertex -1.884088 -0.746203 -1.692696
vertex -1.126404 -0.746203 -2.314508
endloop
endfacet
facet normal 0.000000 -1.000000 -0.000000
outer loop
vertex -3.252484 -0.746203 0.867386
vertex -2.967954 -0.746203 -0.070580
vertex -2.505903 -0.746203 -0.935013
endloop
endfacet
facet normal 0.000000 -1.000000 0.000000
outer loop
vertex -0.635435 -0.746203 1.787081
vertex -3.348558 -0.746203 1.842838
vertex -3.252484 -0.746203 0.867386
endloop
endfacet
facet normal 0.000000 -1.000000 0.000000
outer loop
vertex 4.164566 -0.746203 1.787083
vertex 4.118450 -0.746203 1.318865
vertex 6.555367 -0.746203 2.818295
endloop
endfacet
facet normal 0.000000 -1.000000 0.000000
outer loop
vertex -0.589319 -0.746203 1.318863
vertex -0.635435 -0.746203 1.787081
vertex -3.252484 -0.746203 0.867386
endloop
endfacet
facet normal 0.000000 -1.000000 0.000000
outer loop
vertex 4.118450 -0.746203 1.318865
vertex 3.981876 -0.746203 0.868643
vertex 6.555367 -0.746203 2.818295
endloop
endfacet
facet normal 0.000000 -1.000000 0.000000
outer loop
vertex -0.452744 -0.746203 0.868639
vertex -0.589319 -0.746203 1.318863
vertex -3.252484 -0.746203 0.867386
endloop
endfacet
facet normal 0.000000 -1.000000 0.000000
outer loop
vertex 3.981876 -0.746203 0.868643
vertex 3.760093 -0.746203 0.453714
vertex 6.555367 -0.746203 2.818295
endloop
endfacet
facet normal 0.000000 -1.000000 0.000000
outer loop
vertex -0.230960 -0.746203 0.453711
vertex -0.452744 -0.746203 0.868639
vertex -3.252484 -0.746203 0.867386
endloop
endfacet
facet normal 0.000000 -1.000000 0.000000
outer loop
vertex 3.760093 -0.746203 0.453714
vertex 3.461622 -0.746203 0.090027
vertex 6.555367 -0.746203 2.818295
endloop
endfacet
facet normal 0.000000 -1.000000 0.000000
outer loop
vertex 0.067512 -0.746203 0.090023
vertex -0.230960 -0.746203 0.453711
vertex -3.252484 -0.746203 0.867386
endloop
endfacet
facet normal 0.000000 -1.000000 0.000000
outer loop
vertex 3.461622 -0.746203 0.090027
vertex 6.555367 -0.746203 0.867392
vertex 6.555367 -0.746203 2.818295
endloop
endfacet
facet normal 0.000000 -1.000000 0.000000
outer loop
vertex 0.431200 -0.746203 -0.208447
vertex 0.067512 -0.746203 0.090023
vertex -3.252484 -0.746203 0.867386
endloop
endfacet
facet normal 0.000000 -1.000000 0.000000
outer loop
vertex 3.461622 -0.746203 0.090027
vertex 3.097934 -0.746203 -0.208445
vertex 6.555367 -0.746203 0.867392
endloop
endfacet
facet normal 0.000000 -1.000000 0.000000
outer loop
vertex 0.846129 -0.746203 -0.430229
vertex 0.431200 -0.746203 -0.208447
vertex -3.252484 -0.746203 0.867386
endloop
endfacet
facet normal 0.000000 -1.000000 0.000000
outer loop
vertex 3.097934 -0.746203 -0.208445
vertex 2.683006 -0.746203 -0.430229
vertex 6.555367 -0.746203 0.867392
endloop
endfacet
facet normal 0.000000 -1.000000 0.000000
outer loop
vertex 0.846129 -0.746203 -0.430229
vertex -3.252484 -0.746203 0.867386
vertex -2.505903 -0.746203 -0.935013
endloop
endfacet
facet normal 0.000000 -1.000000 0.000000
outer loop
vertex 2.683006 -0.746203 -0.430229
vertex 5.808789 -0.746203 -0.935007
vertex 6.555367 -0.746203 0.867392
endloop
endfacet
facet normal 0.000000 -1.000000 0.000000
outer loop
vertex 1.296353 -0.746203 -0.566803
vertex 0.846129 -0.746203 -0.430229
vertex -2.505903 -0.746203 -0.935013
endloop
endfacet
facet normal 0.000000 -1.000000 0.000000
outer loop
vertex 2.683006 -0.746203 -0.430229
vertex 2.232782 -0.746203 -0.566803
vertex 5.808789 -0.746203 -0.935007
endloop
endfacet
facet normal 0.000000 -1.000000 0.000000
outer loop
vertex 1.764566 -0.746203 -0.612917
vertex 1.296353 -0.746203 -0.566803
vertex -2.505903 -0.746203 -0.935013
endloop
endfacet
facet normal 0.000000 -1.000000 0.000000
outer loop
vertex 2.232782 -0.746203 -0.566803
vertex 1.764566 -0.746203 -0.612917
vertex 5.808789 -0.746203 -0.935007
endloop
endfacet
facet normal 0.000000 -1.000000 0.000000
outer loop
vertex 2.626893 -0.746203 -3.061083
vertex 4.429292 -0.746203 -2.314505
vertex 5.808789 -0.746203 -0.935007
endloop
endfacet
facet normal 0.000000 -1.000000 0.000000
outer loop
vertex -1.126404 -0.746203 -2.314508
vertex 0.675997 -0.746203 -3.061085
vertex 2.626893 -0.746203 -3.061083
endloop
endfacet
facet normal 0.000000 -1.000000 0.000000
outer loop
vertex 1.764566 -0.746203 -0.612917
vertex -2.505903 -0.746203 -0.935013
vertex -1.126404 -0.746203 -2.314508
endloop
endfacet
facet normal 0.000000 -1.000000 0.000000
outer loop
vertex 1.764566 -0.746203 -0.612917
vertex 2.626893 -0.746203 -3.061083
vertex 5.808789 -0.746203 -0.935007
endloop
endfacet
facet normal 0.000000 -1.000000 0.000000
outer loop
vertex 1.764566 -0.746203 -0.612917
vertex -1.126404 -0.746203 -2.314508
vertex 2.626893 -0.746203 -3.061083
endloop
endfacet
facet normal 0.000000 -1.000000 -0.000000
outer loop
vertex -3.348558 -0.746203 1.842838
vertex -0.635435 -0.746203 1.787081
vertex -0.589320 -0.746203 2.255297
endloop
endfacet
facet normal 0.000000 -1.000000 0.000000
outer loop
vertex 4.118451 -0.746203 2.255299
vertex 4.164566 -0.746203 1.787083
vertex 6.270838 -0.746203 3.756258
endloop
endfacet
facet normal 0.000000 -1.000000 0.000000
outer loop
vertex -3.348558 -0.746203 1.842838
vertex -0.589320 -0.746203 2.255297
vertex -0.452746 -0.746203 2.705521
endloop
endfacet
facet normal 0.000000 -1.000000 0.000000
outer loop
vertex 3.981877 -0.746203 2.705523
vertex 4.118451 -0.746203 2.255299
vertex 6.270838 -0.746203 3.756258
endloop
endfacet
facet normal 0.000000 -1.000000 -0.000000
outer loop
vertex -3.348558 -0.746203 1.842838
vertex -0.452746 -0.746203 2.705521
vertex -0.230962 -0.746203 3.120449
endloop
endfacet
facet normal 0.000000 -1.000000 0.000000
outer loop
vertex 3.760093 -0.746203 3.120451
vertex 3.981877 -0.746203 2.705523
vertex 6.270838 -0.746203 3.756258
endloop
endfacet
facet normal 0.000000 -1.000000 0.000000
outer loop
vertex -3.348558 -0.746203 1.842838
vertex -0.230962 -0.746203 3.120449
vertex 0.067508 -0.746203 3.484138
endloop
endfacet
facet normal 0.000000 -1.000000 0.000000
outer loop
vertex 3.461622 -0.746203 3.484138
vertex 3.760093 -0.746203 3.120451
vertex 6.270838 -0.746203 3.756258
endloop
endfacet
facet normal 0.000000 -1.000000 -0.000000
outer loop
vertex -3.348558 -0.746203 1.842838
vertex 0.067508 -0.746203 3.484138
vertex 0.431196 -0.746203 3.782608
endloop
endfacet
facet normal 0.000000 -1.000000 0.000001
outer loop
vertex 3.097934 -0.746203 3.782610
vertex 3.461622 -0.746203 3.484138
vertex 6.270838 -0.746203 3.756258
endloop
endfacet
facet normal 0.000000 -1.000000 0.000009
outer loop
vertex -3.348558 -0.746203 1.842838
vertex 0.431196 -0.746203 3.782608
vertex 0.846124 -0.746203 4.004393
endloop
endfacet
facet normal 0.000000 -1.000000 0.000000
outer loop
vertex 2.683006 -0.746203 4.004393
vertex 3.097934 -0.746203 3.782610
vertex 6.270838 -0.746203 3.756258
endloop
endfacet
facet normal 0.000000 -1.000000 0.000000
outer loop
vertex -3.252486 -0.746203 2.818291
vertex -3.348558 -0.746203 1.842838
vertex 0.846124 -0.746203 4.004393
endloop
endfacet
facet normal 0.000000 -1.000000 0.000000
outer loop
vertex 2.232782 -0.746203 4.140966
vertex 2.683006 -0.746203 4.004393
vertex 6.270838 -0.746203 3.756258
endloop
endfacet
facet normal 0.000000 -1.000000 -0.000005
outer loop
vertex -3.252486 -0.746203 2.818291
vertex 0.846124 -0.746203 4.004393
vertex 1.296348 -0.746203 4.140966
endloop
endfacet
facet normal 0.000000 -1.000000 0.000078
outer loop
vertex 1.764565 -0.746203 4.187082
vertex 2.232782 -0.746203 4.140966
vertex 6.270838 -0.746203 3.756258
endloop
endfacet
facet normal 0.000000 -1.000000 -0.000000
outer loop
vertex -2.967958 -0.746203 3.756256
vertex -3.252486 -0.746203 2.818291
vertex 1.296348 -0.746203 4.140966
endloop
endfacet
facet normal 0.000000 -1.000000 -0.000000
outer loop
vertex 1.764565 -0.746203 4.187082
vertex 6.270838 -0.746203 3.756258
vertex 5.808789 -0.746203 4.620693
endloop
endfacet
facet normal 0.000000 -1.000000 0.000000
outer loop
vertex 1.764565 -0.746203 4.187082
vertex -2.967958 -0.746203 3.756256
vertex 1.296348 -0.746203 4.140966
endloop
endfacet
facet normal 0.000000 -1.000000 0.000000
outer loop
vertex -1.884095 -0.746203 5.378374
vertex -2.505908 -0.746203 4.620691
vertex -2.967958 -0.746203 3.756256
endloop
endfacet
facet normal 0.000000 -1.000000 -0.000001
outer loop
vertex -0.261978 -0.746203 6.462238
vertex -1.126412 -0.746203 6.000191
vertex -1.884095 -0.746203 5.378374
endloop
endfacet
facet normal 0.000000 -1.000000 -0.000001
outer loop
vertex 1.651439 -0.746203 6.842842
vertex 0.675987 -0.746203 6.746769
vertex -0.261978 -0.746203 6.462238
endloop
endfacet
facet normal 0.000000 -1.000000 0.000000
outer loop
vertex 3.564857 -0.746203 6.462242
vertex 2.626891 -0.746203 6.746769
vertex 1.651439 -0.746203 6.842842
endloop
endfacet
facet normal 0.000000 -1.000000 0.000000
outer loop
vertex 5.186975 -0.746203 5.378376
vertex 4.429292 -0.746203 6.000191
vertex 3.564857 -0.746203 6.462242
endloop
endfacet
facet normal 0.000000 -1.000000 0.000000
outer loop
vertex 1.764565 -0.746203 4.187082
vertex 5.808789 -0.746203 4.620693
vertex 5.186975 -0.746203 5.378376
endloop
endfacet
facet normal 0.000000 -1.000000 0.000000
outer loop
vertex 1.764565 -0.746203 4.187082
vertex -1.884095 -0.746203 5.378374
vertex -2.967958 -0.746203 3.756256
endloop
endfacet
facet normal 0.000000 -1.000000 0.000000
outer loop
vertex 1.651439 -0.746203 6.842842
vertex -0.261978 -0.746203 6.462238
vertex -1.884095 -0.746203 5.378374
endloop
endfacet
facet normal 0.000000 -1.000000 0.000000
outer loop
vertex 5.186975 -0.746203 5.378376
vertex 3.564857 -0.746203 6.462242
vertex 1.651439 -0.746203 6.842842
endloop
endfacet
facet normal 0.000000 -1.000000 0.000000
outer loop
vertex 1.764565 -0.746203 4.187082
vertex 5.186975 -0.746203 5.378376
vertex -1.884095 -0.746203 5.378374
endloop
endfacet
facet normal 0.000000 -1.000000 -0.000000
outer loop
vertex 5.186975 -0.746203 5.378376
vertex 1.651439 -0.746203 6.842842
vertex -1.884095 -0.746203 5.378374
endloop
endfacet
facet normal -0.098016 0.000000 -0.995185
outer loop
vertex 1.651441 29.253794 -3.157156
vertex 1.651441 -0.746203 -3.157156
vertex 0.675997 -0.746203 -3.061085
endloop
endfacet
facet normal -0.098016 0.000000 -0.995185
outer loop
vertex 0.675997 -0.746203 -3.061085
vertex 0.675997 29.253794 -3.061085
vertex 1.651441 29.253794 -3.157156
endloop
endfacet
facet normal 0.000000 1.000000 0.000000
outer loop
vertex 2.626893 29.253794 -3.061083
vertex 4.429292 29.253794 -2.314505
vertex 3.564858 29.253794 -2.776554
endloop
endfacet
facet normal 0.000000 1.000000 0.000000
outer loop
vertex 5.808789 29.253794 -0.935007
vertex 5.186975 29.253794 -1.692690
vertex 4.429292 29.253794 -2.314505
endloop
endfacet
facet normal 0.000000 1.000000 0.000010
outer loop
vertex 6.555367 29.253794 0.867392
vertex 6.270838 29.253794 -0.070574
vertex 5.808789 29.253794 -0.935007
endloop
endfacet
facet normal 0.000000 1.000000 0.000000
outer loop
vertex 6.555367 29.253794 2.818295
vertex 6.651441 29.253794 1.842842
vertex 6.555367 29.253794 0.867392
endloop
endfacet
facet normal 0.000000 1.000000 -0.000010
outer loop
vertex 5.808789 29.253794 4.620693
vertex 6.270838 29.253794 3.756258
vertex 6.555367 29.253794 2.818295
endloop
endfacet
facet normal 0.000000 1.000000 0.000000
outer loop
vertex 4.429292 29.253794 6.000191
vertex 5.186975 29.253794 5.378376
vertex 5.808789 29.253794 4.620693
endloop
endfacet
facet normal 0.000000 1.000000 -0.000020
outer loop
vertex 2.626891 29.253794 6.746769
vertex 3.564857 29.253794 6.462242
vertex 4.429292 29.253794 6.000191
endloop
endfacet
facet normal 0.000000 1.000000 0.000000
outer loop
vertex 0.675987 29.253794 6.746769
vertex 1.651439 29.253794 6.842842
vertex 2.626891 29.253794 6.746769
endloop
endfacet
facet normal 0.000000 1.000000 0.000020
outer loop
vertex -1.126412 29.253794 6.000191
vertex -0.261978 29.253794 6.462238
vertex 0.675987 29.253794 6.746769
endloop
endfacet
facet normal 0.000000 1.000000 0.000020
outer loop
vertex -2.505908 29.253794 4.620691
vertex -1.884095 29.253794 5.378374
vertex -1.126412 29.253794 6.000191
endloop
endfacet
facet normal 0.000000 1.000000 0.000000
outer loop
vertex -3.252486 29.253794 2.818291
vertex -2.967958 29.253794 3.756256
vertex -2.505908 29.253794 4.620691
endloop
endfacet
facet normal 0.000000 1.000000 0.000000
outer loop
vertex -3.252484 29.253794 0.867386
vertex -3.348558 29.253794 1.842838
vertex -3.252486 29.253794 2.818291
endloop
endfacet
facet normal 0.000000 1.000000 0.000000
outer loop
vertex -2.505903 29.253794 -0.935013
vertex -2.967954 29.253794 -0.070580
vertex -3.252484 29.253794 0.867386
endloop
endfacet
facet normal 0.000000 1.000000 0.000000
outer loop
vertex -1.126404 29.253794 -2.314508
vertex -1.884088 29.253794 -1.692696
vertex -2.505903 29.253794 -0.935013
endloop
endfacet
facet normal 0.000000 1.000000 -0.000020
outer loop
vertex 0.675997 29.253794 -3.061085
vertex -0.261969 29.253794 -2.776558
vertex -1.126404 29.253794 -2.314508
endloop
endfacet
facet normal 0.000000 1.000000 0.000020
outer loop
vertex 2.626893 29.253794 -3.061083
vertex 1.651441 29.253794 -3.157156
vertex 0.675997 29.253794 -3.061085
endloop
endfacet
facet normal 0.000000 1.000000 0.000000
outer loop
vertex 2.626893 29.253794 -3.061083
vertex 5.808789 29.253794 -0.935007
vertex 4.429292 29.253794 -2.314505
endloop
endfacet
facet normal 0.000000 1.000000 0.000000
outer loop
vertex 6.555367 29.253794 2.818295
vertex 6.555367 29.253794 0.867392
vertex 5.808789 29.253794 -0.935007
endloop
endfacet
facet normal 0.000000 1.000000 0.000000
outer loop
vertex 4.429292 29.253794 6.000191
vertex 5.808789 29.253794 4.620693
vertex 6.555367 29.253794 2.818295
endloop
endfacet
facet normal 0.000000 1.000000 0.000000
outer loop
vertex 0.675987 29.253794 6.746769
vertex 2.626891 29.253794 6.746769
vertex 4.429292 29.253794 6.000191
endloop
endfacet
facet normal 0.000000 1.000000 -0.000005
outer loop
vertex -2.505908 29.253794 4.620691
vertex -1.126412 29.253794 6.000191
vertex 0.675987 29.253794 6.746769
endloop
endfacet
facet normal 0.000000 1.000000 0.000000
outer loop
vertex -3.252484 29.253794 0.867386
vertex -3.252486 29.253794 2.818291
vertex -2.505908 29.253794 4.620691
endloop
endfacet
facet normal 0.000000 1.000000 -0.000003
outer loop
vertex -1.126404 29.253794 -2.314508
vertex -2.505903 29.253794 -0.935013
vertex -3.252484 29.253794 0.867386
endloop
endfacet
facet normal 0.000000 1.000000 0.000005
outer loop
vertex 2.626893 29.253794 -3.061083
vertex 0.675997 29.253794 -3.061085
vertex -1.126404 29.253794 -2.314508
endloop
endfacet
facet normal 0.000000 1.000000 -0.000001
outer loop
vertex 2.626893 29.253794 -3.061083
vertex 6.555367 29.253794 2.818295
vertex 5.808789 29.253794 -0.935007
endloop
endfacet
facet normal 0.000000 1.000000 0.000001
outer loop
vertex 0.675987 29.253794 6.746769
vertex 4.429292 29.253794 6.000191
vertex 6.555367 29.253794 2.818295
endloop
endfacet
facet normal 0.000000 1.000000 0.000000
outer loop
vertex -3.252484 29.253794 0.867386
vertex -2.505908 29.253794 4.620691
vertex 0.675987 29.253794 6.746769
endloop
endfacet
facet normal 0.000000 1.000000 0.000000
outer loop
vertex 2.626893 29.253794 -3.061083
vertex -1.126404 29.253794 -2.314508
vertex -3.252484 29.253794 0.867386
endloop
endfacet
facet normal 0.000000 1.000000 0.000000
outer loop
vertex 2.626893 29.253794 -3.061083
vertex 0.675987 29.253794 6.746769
vertex 6.555367 29.253794 2.818295
endloop
endfacet
facet normal 0.000000 1.000000 -0.000000
outer loop
vertex 2.626893 29.253794 -3.061083
vertex -3.252484 29.253794 0.867386
vertex 0.675987 29.253794 6.746769
endloop
endfacet
facet normal 0.290285 0.000000 -0.956940
outer loop
vertex 2.626893 -0.746203 -3.061083
vertex 2.626893 29.253794 -3.061083
vertex 3.564858 29.253794 -2.776554
endloop
endfacet
facet normal 0.290285 0.000000 -0.956940
outer loop
vertex 3.564858 29.253794 -2.776554
vertex 3.564858 -0.746203 -2.776554
vertex 2.626893 -0.746203 -3.061083
endloop
endfacet
facet normal 0.471397 0.000000 -0.881921
outer loop
vertex 3.564858 -0.746203 -2.776554
vertex 3.564858 29.253794 -2.776554
vertex 4.429292 29.253794 -2.314505
endloop
endfacet
facet normal 0.471397 0.000000 -0.881921
outer loop
vertex 4.429292 29.253794 -2.314505
vertex 4.429292 -0.746203 -2.314505
vertex 3.564858 -0.746203 -2.776554
endloop
endfacet
facet normal 0.634393 0.000000 -0.773010
outer loop
vertex 4.429292 -0.746203 -2.314505
vertex 4.429292 29.253794 -2.314505
vertex 5.186975 29.253794 -1.692690
endloop
endfacet
facet normal 0.634394 0.000000 -0.773010
outer loop
vertex 5.186975 29.253794 -1.692690
vertex 5.186975 -0.746203 -1.692690
vertex 4.429292 -0.746203 -2.314505
endloop
endfacet
facet normal 0.773010 0.000000 -0.634393
outer loop
vertex 5.186975 -0.746203 -1.692690
vertex 5.186975 29.253794 -1.692690
vertex 5.808789 29.253794 -0.935007
endloop
endfacet
facet normal 0.773010 0.000000 -0.634393
outer loop
vertex 5.808789 29.253794 -0.935007
vertex 5.808789 -0.746203 -0.935007
vertex 5.186975 -0.746203 -1.692690
endloop
endfacet
facet normal 0.881921 0.000000 -0.471397
outer loop
vertex 5.808789 -0.746203 -0.935007
vertex 5.808789 29.253794 -0.935007
vertex 6.270838 29.253794 -0.070574
endloop
endfacet
facet normal 0.881921 0.000000 -0.471397
outer loop
vertex 6.270838 29.253794 -0.070574
vertex 6.270838 -0.746203 -0.070574
vertex 5.808789 -0.746203 -0.935007
endloop
endfacet
facet normal 0.956940 0.000000 -0.290285
outer loop
vertex 6.270838 -0.746203 -0.070574
vertex 6.270838 29.253794 -0.070574
vertex 6.555367 29.253794 0.867392
endloop
endfacet
facet normal 0.956940 0.000000 -0.290285
outer loop
vertex 6.555367 29.253794 0.867392
vertex 6.555367 -0.746203 0.867392
vertex 6.270838 -0.746203 -0.070574
endloop
endfacet
facet normal 0.995185 0.000000 -0.098017
outer loop
vertex 6.555367 -0.746203 0.867392
vertex 6.555367 29.253794 0.867392
vertex 6.651441 29.253794 1.842842
endloop
endfacet
facet normal 0.995185 0.000000 -0.098017
outer loop
vertex 6.651441 29.253794 1.842842
vertex 6.651441 -0.746203 1.842842
vertex 6.555367 -0.746203 0.867392
endloop
endfacet
facet normal 0.995185 0.000000 0.098017
outer loop
vertex 6.651441 -0.746203 1.842842
vertex 6.651441 29.253794 1.842842
vertex 6.555367 29.253794 2.818295
endloop
endfacet
facet normal 0.995185 0.000000 0.098017
outer loop
vertex 6.555367 29.253794 2.818295
vertex 6.555367 -0.746203 2.818295
vertex 6.651441 -0.746203 1.842842
endloop
endfacet
facet normal 0.956940 0.000000 0.290285
outer loop
vertex 6.555367 -0.746203 2.818295
vertex 6.555367 29.253794 2.818295
vertex 6.270838 29.253794 3.756258
endloop
endfacet
facet normal 0.956940 0.000000 0.290285
outer loop
vertex 6.270838 29.253794 3.756258
vertex 6.270838 -0.746203 3.756258
vertex 6.555367 -0.746203 2.818295
endloop
endfacet
facet normal 0.881922 0.000000 0.471396
outer loop
vertex 6.270838 -0.746203 3.756258
vertex 6.270838 29.253794 3.756258
vertex 5.808789 29.253794 4.620693
endloop
endfacet
facet normal 0.881922 0.000000 0.471396
outer loop
vertex 5.808789 29.253794 4.620693
vertex 5.808789 -0.746203 4.620693
vertex 6.270838 -0.746203 3.756258
endloop
endfacet
facet normal 0.773011 0.000000 0.634393
outer loop
vertex 5.808789 -0.746203 4.620693
vertex 5.808789 29.253794 4.620693
vertex 5.186975 29.253794 5.378376
endloop
endfacet
facet normal 0.773010 0.000000 0.634394
outer loop
vertex 5.186975 29.253794 5.378376
vertex 5.186975 -0.746203 5.378376
vertex 5.808789 -0.746203 4.620693
endloop
endfacet
facet normal 0.634394 0.000000 0.773010
outer loop
vertex 5.186975 -0.746203 5.378376
vertex 5.186975 29.253794 5.378376
vertex 4.429292 29.253794 6.000191
endloop
endfacet
facet normal 0.634393 0.000000 0.773011
outer loop
vertex 4.429292 29.253794 6.000191
vertex 4.429292 -0.746203 6.000191
vertex 5.186975 -0.746203 5.378376
endloop
endfacet
facet normal 0.471398 0.000000 0.881921
outer loop
vertex 4.429292 -0.746203 6.000191
vertex 4.429292 29.253794 6.000191
vertex 3.564857 29.253794 6.462242
endloop
endfacet
facet normal 0.471398 0.000000 0.881921
outer loop
vertex 3.564857 29.253794 6.462242
vertex 3.564857 -0.746203 6.462242
vertex 4.429292 -0.746203 6.000191
endloop
endfacet
facet normal 0.290284 0.000000 0.956941
outer loop
vertex 3.564857 -0.746203 6.462242
vertex 3.564857 29.253794 6.462242
vertex 2.626891 29.253794 6.746769
endloop
endfacet
facet normal 0.290283 0.000000 0.956941
outer loop
vertex 2.626891 29.253794 6.746769
vertex 2.626891 -0.746203 6.746769
vertex 3.564857 -0.746203 6.462242
endloop
endfacet
facet normal 0.098017 0.000000 0.995185
outer loop
vertex 2.626891 -0.746203 6.746769
vertex 2.626891 29.253794 6.746769
vertex 1.651439 29.253794 6.842842
endloop
endfacet
facet normal 0.098016 0.000000 0.995185
outer loop
vertex 1.651439 29.253794 6.842842
vertex 1.651439 -0.746203 6.842842
vertex 2.626891 -0.746203 6.746769
endloop
endfacet
facet normal -0.098016 0.000000 0.995185
outer loop
vertex 1.651439 -0.746203 6.842842
vertex 1.651439 29.253794 6.842842
vertex 0.675987 29.253794 6.746769
endloop
endfacet
facet normal -0.098017 0.000000 0.995185
outer loop
vertex 0.675987 29.253794 6.746769
vertex 0.675987 -0.746203 6.746769
vertex 1.651439 -0.746203 6.842842
endloop
endfacet
facet normal -0.290286 0.000000 0.956940
outer loop
vertex 0.675987 -0.746203 6.746769
vertex 0.675987 29.253794 6.746769
vertex -0.261978 29.253794 6.462238
endloop
endfacet
facet normal -0.290286 0.000000 0.956940
outer loop
vertex -0.261978 29.253794 6.462238
vertex -0.261978 -0.746203 6.462238
vertex 0.675987 -0.746203 6.746769
endloop
endfacet
facet normal -0.471395 0.000000 0.881922
outer loop
vertex -0.261978 -0.746203 6.462238
vertex -0.261978 29.253794 6.462238
vertex -1.126412 29.253794 6.000191
endloop
endfacet
facet normal -0.471396 0.000000 0.881922
outer loop
vertex -1.126412 29.253794 6.000191
vertex -1.126412 -0.746203 6.000191
vertex -0.261978 -0.746203 6.462238
endloop
endfacet
facet normal -0.634395 0.000000 0.773009
outer loop
vertex -1.126412 -0.746203 6.000191
vertex -1.126412 29.253794 6.000191
vertex -1.884095 29.253794 5.378374
endloop
endfacet
facet normal -0.634395 0.000000 0.773009
outer loop
vertex -1.884095 29.253794 5.378374
vertex -1.884095 -0.746203 5.378374
vertex -1.126412 -0.746203 6.000191
endloop
endfacet
facet normal -0.773011 0.000000 0.634393
outer loop
vertex -1.884095 -0.746203 5.378374
vertex -1.884095 29.253794 5.378374
vertex -2.505908 29.253794 4.620691
endloop
endfacet
facet normal -0.773011 0.000000 0.634393
outer loop
vertex -2.505908 29.253794 4.620691
vertex -2.505908 -0.746203 4.620691
vertex -1.884095 -0.746203 5.378374
endloop
endfacet
facet normal -0.881922 0.000000 0.471396
outer loop
vertex -2.505908 -0.746203 4.620691
vertex -2.505908 29.253794 4.620691
vertex -2.967958 29.253794 3.756256
endloop
endfacet
facet normal -0.881922 0.000000 0.471396
outer loop
vertex -2.967958 29.253794 3.756256
vertex -2.967958 -0.746203 3.756256
vertex -2.505908 -0.746203 4.620691
endloop
endfacet
facet normal -0.956941 0.000000 0.290284
outer loop
vertex -2.967958 -0.746203 3.756256
vertex -2.967958 29.253794 3.756256
vertex -3.252486 29.253794 2.818291
endloop
endfacet
facet normal -0.956941 0.000000 0.290284
outer loop
vertex -3.252486 29.253794 2.818291
vertex -3.252486 -0.746203 2.818291
vertex -2.967958 -0.746203 3.756256
endloop
endfacet
facet normal -0.995185 0.000000 0.098016
outer loop
vertex -3.252486 -0.746203 2.818291
vertex -3.252486 29.253794 2.818291
vertex -3.348558 29.253794 1.842838
endloop
endfacet
facet normal -0.995185 0.000000 0.098016
outer loop
vertex -3.348558 29.253794 1.842838
vertex -3.348558 -0.746203 1.842838
vertex -3.252486 -0.746203 2.818291
endloop
endfacet
facet normal -0.995185 0.000000 -0.098018
outer loop
vertex -3.348558 -0.746203 1.842838
vertex -3.348558 29.253794 1.842838
vertex -3.252484 29.253794 0.867386
endloop
endfacet
facet normal -0.995185 0.000000 -0.098018
outer loop
vertex -3.252484 29.253794 0.867386
vertex -3.252484 -0.746203 0.867386
vertex -3.348558 -0.746203 1.842838
endloop
endfacet
facet normal -0.956940 0.000000 -0.290286
outer loop
vertex -3.252484 -0.746203 0.867386
vertex -3.252484 29.253794 0.867386
vertex -2.967954 29.253794 -0.070580
endloop
endfacet
facet normal -0.956940 0.000000 -0.290286
outer loop
vertex -2.967954 29.253794 -0.070580
vertex -2.967954 -0.746203 -0.070580
vertex -3.252484 -0.746203 0.867386
endloop
endfacet
facet normal -0.881921 0.000000 -0.471398
outer loop
vertex -2.967954 -0.746203 -0.070580
vertex -2.967954 29.253794 -0.070580
vertex -2.505903 29.253794 -0.935013
endloop
endfacet
facet normal -0.881921 0.000000 -0.471398
outer loop
vertex -2.505903 29.253794 -0.935013
vertex -2.505903 -0.746203 -0.935013
vertex -2.967954 -0.746203 -0.070580
endloop
endfacet
facet normal -0.773010 0.000000 -0.634394
outer loop
vertex -2.505903 -0.746203 -0.935013
vertex -2.505903 29.253794 -0.935013
vertex -1.884088 29.253794 -1.692696
endloop
endfacet
facet normal -0.773010 0.000000 -0.634394
outer loop
vertex -1.884088 29.253794 -1.692696
vertex -1.884088 -0.746203 -1.692696
vertex -2.505903 -0.746203 -0.935013
endloop
endfacet
facet normal -0.634392 0.000000 -0.773012
outer loop
vertex -1.884088 -0.746203 -1.692696
vertex -1.884088 29.253794 -1.692696
vertex -1.126404 29.253794 -2.314508
endloop
endfacet
facet normal -0.634392 0.000000 -0.773012
outer loop
vertex -1.126404 29.253794 -2.314508
vertex -1.126404 -0.746203 -2.314508
vertex -1.884088 -0.746203 -1.692696
endloop
endfacet
facet normal -0.471396 0.000000 -0.881922
outer loop
vertex -1.126404 -0.746203 -2.314508
vertex -1.126404 29.253794 -2.314508
vertex -0.261969 29.253794 -2.776558
endloop
endfacet
facet normal -0.471396 0.000000 -0.881921
outer loop
vertex -0.261969 29.253794 -2.776558
vertex -0.261969 -0.746203 -2.776558
vertex -1.126404 -0.746203 -2.314508
endloop
endfacet
facet normal -0.290282 0.000000 -0.956941
outer loop
vertex -0.261969 -0.746203 -2.776558
vertex -0.261969 29.253794 -2.776558
vertex 0.675997 29.253794 -3.061085
endloop
endfacet
facet normal -0.290282 0.000000 -0.956941
outer loop
vertex 0.675997 29.253794 -3.061085
vertex 0.675997 -0.746203 -3.061085
vertex -0.261969 -0.746203 -2.776558
endloop
endfacet
facet normal -0.098009 -0.010963 0.995125
outer loop
vertex 1.764566 -0.746203 -0.612917
vertex 2.232782 -0.746203 -0.566803
vertex 2.234843 1.122151 -0.546017
endloop
endfacet
facet normal -0.098012 -0.010962 0.995125
outer loop
vertex 2.234843 1.122151 -0.546017
vertex 1.766626 1.122151 -0.592133
vertex 1.764566 -0.746203 -0.612917
endloop
endfacet
facet normal 0.098009 -0.011178 0.995123
outer loop
vertex 1.296353 -0.746203 -0.566803
vertex 1.764566 -0.746203 -0.612917
vertex 1.766626 1.122151 -0.592133
endloop
endfacet
facet normal 0.098013 -0.011179 0.995122
outer loop
vertex 1.766626 1.122151 -0.592133
vertex 1.298413 1.122151 -0.546017
vertex 1.296353 -0.746203 -0.566803
endloop
endfacet
facet normal 0.000000 -1.000000 0.000000
outer loop
vertex 2.234843 1.122151 -0.546017
vertex 1.298413 1.122151 -0.546017
vertex 1.766626 1.122151 -0.592133
endloop
endfacet
facet normal 0.000000 -1.000000 0.000000
outer loop
vertex 0.433261 1.122151 -0.187660
vertex 0.848189 1.122151 -0.409445
vertex 1.298413 1.122151 -0.546017
endloop
endfacet
facet normal 0.000000 -1.000000 0.000001
outer loop
vertex -0.228899 1.122151 0.474497
vertex 0.069572 1.122151 0.110809
vertex 0.433261 1.122151 -0.187660
endloop
endfacet
facet normal 0.000000 -1.000000 -0.000001
outer loop
vertex -0.587258 1.122151 1.339649
vertex -0.450684 1.122151 0.889425
vertex -0.228899 1.122151 0.474497
endloop
endfacet
facet normal 0.000000 -1.000000 -0.000000
outer loop
vertex -0.587259 1.122151 2.276083
vertex -0.633374 1.122151 1.807865
vertex -0.587258 1.122151 1.339649
endloop
endfacet
facet normal 0.000000 -1.000000 -0.000001
outer loop
vertex -0.228901 1.122151 3.141235
vertex -0.450686 1.122151 2.726307
vertex -0.587259 1.122151 2.276083
endloop
endfacet
facet normal 0.000000 -1.000000 0.000000
outer loop
vertex 0.433257 1.122151 3.803394
vertex 0.069569 1.122151 3.504923
vertex -0.228901 1.122151 3.141235
endloop
endfacet
facet normal 0.000000 -1.000000 0.000000
outer loop
vertex 1.298409 1.122151 4.161753
vertex 0.848185 1.122151 4.025179
vertex 0.433257 1.122151 3.803394
endloop
endfacet
facet normal 0.000000 -1.000000 0.000000
outer loop
vertex 2.234843 1.122151 4.161753
vertex 1.766626 1.122151 4.207869
vertex 1.298409 1.122151 4.161753
endloop
endfacet
facet normal 0.000000 -1.000000 0.000000
outer loop
vertex 3.099995 1.122151 3.803394
vertex 2.685066 1.122151 4.025179
vertex 2.234843 1.122151 4.161753
endloop
endfacet
facet normal 0.000000 -1.000000 -0.000001
outer loop
vertex 3.762154 1.122151 3.141235
vertex 3.463683 1.122151 3.504925
vertex 3.099995 1.122151 3.803394
endloop
endfacet
facet normal 0.000000 -1.000000 0.000000
outer loop
vertex 4.120511 1.122151 2.276085
vertex 3.983937 1.122151 2.726307
vertex 3.762154 1.122151 3.141235
endloop
endfacet
facet normal 0.000000 -1.000000 0.000000
outer loop
vertex 4.120511 1.122151 1.339651
vertex 4.166626 1.122151 1.807867
vertex 4.120511 1.122151 2.276085
endloop
endfacet
facet normal 0.000000 -1.000000 0.000000
outer loop
vertex 3.762154 1.122151 0.474499
vertex 3.983937 1.122151 0.889427
vertex 4.120511 1.122151 1.339651
endloop
endfacet
facet normal 0.000000 -1.000000 0.000001
outer loop
vertex 3.099995 1.122151 -0.187660
vertex 3.463683 1.122151 0.110811
vertex 3.762154 1.122151 0.474499
endloop
endfacet
facet normal 0.000000 -1.000000 0.000000
outer loop
vertex 2.234843 1.122151 -0.546017
vertex 2.685067 1.122151 -0.409443
vertex 3.099995 1.122151 -0.187660
endloop
endfacet
facet normal 0.000000 -1.000000 0.000000
outer loop
vertex 2.234843 1.122151 -0.546017
vertex 0.433261 1.122151 -0.187660
vertex 1.298413 1.122151 -0.546017
endloop
endfacet
facet normal 0.000000 -1.000000 0.000000
outer loop
vertex -0.587258 1.122151 1.339649
vertex -0.228899 1.122151 0.474497
vertex 0.433261 1.122151 -0.187660
endloop
endfacet
facet normal 0.000000 -1.000000 0.000000
outer loop
vertex -0.228901 1.122151 3.141235
vertex -0.587259 1.122151 2.276083
vertex -0.587258 1.122151 1.339649
endloop
endfacet
facet normal 0.000000 -1.000000 0.000000
outer loop
vertex 1.298409 1.122151 4.161753
vertex 0.433257 1.122151 3.803394
vertex -0.228901 1.122151 3.141235
endloop
endfacet
facet normal 0.000000 -1.000000 0.000000
outer loop
vertex 3.099995 1.122151 3.803394
vertex 2.234843 1.122151 4.161753
vertex 1.298409 1.122151 4.161753
endloop
endfacet
facet normal 0.000000 -1.000000 0.000000
outer loop
vertex 4.120511 1.122151 2.276085
vertex 3.762154 1.122151 3.141235
vertex 3.099995 1.122151 3.803394
endloop
endfacet
facet normal 0.000000 -1.000000 0.000000
outer loop
vertex 3.762154 1.122151 0.474499
vertex 4.120511 1.122151 1.339651
vertex 4.120511 1.122151 2.276085
endloop
endfacet
facet normal 0.000000 -1.000000 -0.000000
outer loop
vertex 2.234843 1.122151 -0.546017
vertex 3.099995 1.122151 -0.187660
vertex 3.762154 1.122151 0.474499
endloop
endfacet
facet normal 0.000000 -1.000000 0.000000
outer loop
vertex 2.234843 1.122151 -0.546017
vertex -0.587258 1.122151 1.339649
vertex 0.433261 1.122151 -0.187660
endloop
endfacet
facet normal 0.000000 -1.000000 0.000000
outer loop
vertex 1.298409 1.122151 4.161753
vertex -0.228901 1.122151 3.141235
vertex -0.587258 1.122151 1.339649
endloop
endfacet
facet normal 0.000000 -1.000000 0.000000
outer loop
vertex 4.120511 1.122151 2.276085
vertex 3.099995 1.122151 3.803394
vertex 1.298409 1.122151 4.161753
endloop
endfacet
facet normal 0.000000 -1.000000 -0.000000
outer loop
vertex 2.234843 1.122151 -0.546017
vertex 3.762154 1.122151 0.474499
vertex 4.120511 1.122151 2.276085
endloop
endfacet
facet normal 0.000000 -1.000000 0.000000
outer loop
vertex 2.234843 1.122151 -0.546017
vertex 1.298409 1.122151 4.161753
vertex -0.587258 1.122151 1.339649
endloop
endfacet
facet normal 0.000000 -1.000000 0.000000
outer loop
vertex 2.234843 1.122151 -0.546017
vertex 4.120511 1.122151 2.276085
vertex 1.298409 1.122151 4.161753
endloop
endfacet
facet normal -0.290269 -0.010326 0.956889
outer loop
vertex 2.232782 -0.746203 -0.566803
vertex 2.683006 -0.746203 -0.430229
vertex 2.685067 1.122151 -0.409443
endloop
endfacet
facet normal -0.290269 -0.010326 0.956889
outer loop
vertex 2.685067 1.122151 -0.409443
vertex 2.234843 1.122151 -0.546017
vertex 2.232782 -0.746203 -0.566803
endloop
endfacet
facet normal 0.290267 -0.010966 0.956883
outer loop
vertex 0.846129 -0.746203 -0.430229
vertex 1.296353 -0.746203 -0.566803
vertex 1.298413 1.122151 -0.546017
endloop
endfacet
facet normal 0.290263 -0.010965 0.956884
outer loop
vertex 1.298413 1.122151 -0.546017
vertex 0.848189 1.122151 -0.409445
vertex 0.846129 -0.746203 -0.430229
endloop
endfacet
facet normal 0.471369 -0.010330 0.881875
outer loop
vertex 0.431200 -0.746203 -0.208447
vertex 0.846129 -0.746203 -0.430229
vertex 0.848189 1.122151 -0.409445
endloop
endfacet
facet normal 0.471372 -0.010331 0.881874
outer loop
vertex 0.848189 1.122151 -0.409445
vertex 0.433261 1.122151 -0.187660
vertex 0.431200 -0.746203 -0.208447
endloop
endfacet
facet normal 0.634364 -0.009299 0.772979
outer loop
vertex 0.067512 -0.746203 0.090023
vertex 0.431200 -0.746203 -0.208447
vertex 0.433261 1.122151 -0.187660
endloop
endfacet
facet normal 0.634364 -0.009299 0.772979
outer loop
vertex 0.433261 1.122151 -0.187660
vertex 0.069572 1.122151 0.110809
vertex 0.067512 -0.746203 0.090023
endloop
endfacet
facet normal 0.772986 -0.007910 0.634374
outer loop
vertex -0.230960 -0.746203 0.453711
vertex 0.067512 -0.746203 0.090023
vertex 0.069572 1.122151 0.110809
endloop
endfacet
facet normal 0.772986 -0.007910 0.634374
outer loop
vertex 0.069572 1.122151 0.110809
vertex -0.228899 1.122151 0.474497
vertex -0.230960 -0.746203 0.453711
endloop
endfacet
facet normal 0.881904 -0.006217 0.471389
outer loop
vertex -0.452744 -0.746203 0.868639
vertex -0.230960 -0.746203 0.453711
vertex -0.228899 1.122151 0.474497
endloop
endfacet
facet normal 0.881903 -0.006217 0.471389
outer loop
vertex -0.228899 1.122151 0.474497
vertex -0.450684 1.122151 0.889425
vertex -0.452744 -0.746203 0.868639
endloop
endfacet
facet normal 0.956931 -0.004285 0.290283
outer loop
vertex -0.589319 -0.746203 1.318863
vertex -0.452744 -0.746203 0.868639
vertex -0.450684 1.122151 0.889425
endloop
endfacet
facet normal 0.956931 -0.004285 0.290283
outer loop
vertex -0.450684 1.122151 0.889425
vertex -0.587258 1.122151 1.339649
vertex -0.589319 -0.746203 1.318863
endloop
endfacet
facet normal 0.995182 -0.002188 0.098018
outer loop
vertex -0.635435 -0.746203 1.787081
vertex -0.589319 -0.746203 1.318863
vertex -0.587258 1.122151 1.339649
endloop
endfacet
facet normal 0.995182 -0.002188 0.098018
outer loop
vertex -0.587258 1.122151 1.339649
vertex -0.633374 1.122151 1.807865
vertex -0.635435 -0.746203 1.787081
endloop
endfacet
facet normal 0.995185 -0.000007 -0.098016
outer loop
vertex -0.589320 -0.746203 2.255297
vertex -0.635435 -0.746203 1.787081
vertex -0.633374 1.122151 1.807865
endloop
endfacet
facet normal 0.995185 -0.000007 -0.098016
outer loop
vertex -0.633374 1.122151 1.807865
vertex -0.587259 1.122151 2.276083
vertex -0.589320 -0.746203 2.255297
endloop
endfacet
facet normal 0.956938 0.002174 -0.290283
outer loop
vertex -0.452746 -0.746203 2.705521
vertex -0.589320 -0.746203 2.255297
vertex -0.587259 1.122151 2.276083
endloop
endfacet
facet normal 0.956939 0.002174 -0.290283
outer loop
vertex -0.587259 1.122151 2.276083
vertex -0.450686 1.122151 2.726307
vertex -0.452746 -0.746203 2.705521
endloop
endfacet
facet normal 0.881913 0.004272 -0.471393
outer loop
vertex -0.230962 -0.746203 3.120449
vertex -0.452746 -0.746203 2.705521
vertex -0.450686 1.122151 2.726307
endloop
endfacet
facet normal 0.881913 0.004272 -0.471393
outer loop
vertex -0.450686 1.122151 2.726307
vertex -0.228901 1.122151 3.141235
vertex -0.230962 -0.746203 3.120449
endloop
endfacet
facet normal 0.772997 0.006205 -0.634379
outer loop
vertex 0.067508 -0.746203 3.484138
vertex -0.230962 -0.746203 3.120449
vertex -0.228901 1.122151 3.141235
endloop
endfacet
facet normal 0.772996 0.006204 -0.634381
outer loop
vertex -0.228901 1.122151 3.141235
vertex 0.069569 1.122151 3.504923
vertex 0.067508 -0.746203 3.484138
endloop
endfacet
facet normal 0.634372 0.007899 -0.772988
outer loop
vertex 0.431196 -0.746203 3.782608
vertex 0.067508 -0.746203 3.484138
vertex 0.069569 1.122151 3.504923
endloop
endfacet
facet normal 0.634374 0.007900 -0.772985
outer loop
vertex 0.069569 1.122151 3.504923
vertex 0.433257 1.122151 3.803394
vertex 0.431196 -0.746203 3.782608
endloop
endfacet
facet normal 0.471377 0.009291 -0.881883
outer loop
vertex 0.846124 -0.746203 4.004393
vertex 0.431196 -0.746203 3.782608
vertex 0.433257 1.122151 3.803394
endloop
endfacet
facet normal 0.471378 0.009291 -0.881882
outer loop
vertex 0.433257 1.122151 3.803394
vertex 0.848185 1.122151 4.025179
vertex 0.846124 -0.746203 4.004393
endloop
endfacet
facet normal 0.290269 0.010326 -0.956889
outer loop
vertex 1.296348 -0.746203 4.140966
vertex 0.846124 -0.746203 4.004393
vertex 0.848185 1.122151 4.025179
endloop
endfacet
facet normal 0.290269 0.010326 -0.956889
outer loop
vertex 0.848185 1.122151 4.025179
vertex 1.298409 1.122151 4.161753
vertex 1.296348 -0.746203 4.140966
endloop
endfacet
facet normal 0.098012 0.010963 -0.995125
outer loop
vertex 1.764565 -0.746203 4.187082
vertex 1.296348 -0.746203 4.140966
vertex 1.298409 1.122151 4.161753
endloop
endfacet
facet normal 0.098013 0.010963 -0.995125
outer loop
vertex 1.298409 1.122151 4.161753
vertex 1.766626 1.122151 4.207869
vertex 1.764565 -0.746203 4.187082
endloop
endfacet
facet normal -0.098013 0.011179 -0.995122
outer loop
vertex 2.232782 -0.746203 4.140966
vertex 1.764565 -0.746203 4.187082
vertex 1.766626 1.122151 4.207869
endloop
endfacet
facet normal -0.098012 0.011179 -0.995122
outer loop
vertex 1.766626 1.122151 4.207869
vertex 2.234843 1.122151 4.161753
vertex 2.232782 -0.746203 4.140966
endloop
endfacet
facet normal -0.290267 0.010966 -0.956883
outer loop
vertex 2.683006 -0.746203 4.004393
vertex 2.232782 -0.746203 4.140966
vertex 2.234843 1.122151 4.161753
endloop
endfacet
facet normal -0.290267 0.010966 -0.956883
outer loop
vertex 2.234843 1.122151 4.161753
vertex 2.685066 1.122151 4.025179
vertex 2.683006 -0.746203 4.004393
endloop
endfacet
facet normal -0.471369 0.010331 -0.881875
outer loop
vertex 3.097934 -0.746203 3.782610
vertex 2.683006 -0.746203 4.004393
vertex 2.685066 1.122151 4.025179
endloop
endfacet
facet normal -0.471373 0.010330 -0.881874
outer loop
vertex 2.685066 1.122151 4.025179
vertex 3.099995 1.122151 3.803394
vertex 3.097934 -0.746203 3.782610
endloop
endfacet
facet normal -0.634366 0.009299 -0.772977
outer loop
vertex 3.461622 -0.746203 3.484138
vertex 3.097934 -0.746203 3.782610
vertex 3.099995 1.122151 3.803394
endloop
endfacet
facet normal -0.634364 0.009300 -0.772978
outer loop
vertex 3.099995 1.122151 3.803394
vertex 3.463683 1.122151 3.504925
vertex 3.461622 -0.746203 3.484138
endloop
endfacet
facet normal -0.772986 0.007910 -0.634374
outer loop
vertex 3.760093 -0.746203 3.120451
vertex 3.461622 -0.746203 3.484138
vertex 3.463683 1.122151 3.504925
endloop
endfacet
facet normal -0.772988 0.007910 -0.634372
outer loop
vertex 3.463683 1.122151 3.504925
vertex 3.762154 1.122151 3.141235
vertex 3.760093 -0.746203 3.120451
endloop
endfacet
facet normal -0.881904 0.006217 -0.471388
outer loop
vertex 3.981877 -0.746203 2.705523
vertex 3.760093 -0.746203 3.120451
vertex 3.762154 1.122151 3.141235
endloop
endfacet
facet normal -0.881904 0.006216 -0.471387
outer loop
vertex 3.762154 1.122151 3.141235
vertex 3.983937 1.122151 2.726307
vertex 3.981877 -0.746203 2.705523
endloop
endfacet
facet normal -0.956932 0.004285 -0.290282
outer loop
vertex 4.118451 -0.746203 2.255299
vertex 3.981877 -0.746203 2.705523
vertex 3.983937 1.122151 2.726307
endloop
endfacet
facet normal -0.956931 0.004285 -0.290283
outer loop
vertex 3.983937 1.122151 2.726307
vertex 4.120511 1.122151 2.276085
vertex 4.118451 -0.746203 2.255299
endloop
endfacet
facet normal -0.995182 0.002188 -0.098016
outer loop
vertex 4.164566 -0.746203 1.787083
vertex 4.118451 -0.746203 2.255299
vertex 4.120511 1.122151 2.276085
endloop
endfacet
facet normal -0.995182 0.002189 -0.098017
outer loop
vertex 4.120511 1.122151 2.276085
vertex 4.166626 1.122151 1.807867
vertex 4.164566 -0.746203 1.787083
endloop
endfacet
facet normal -0.995185 0.000007 0.098017
outer loop
vertex 4.118450 -0.746203 1.318865
vertex 4.164566 -0.746203 1.787083
vertex 4.166626 1.122151 1.807867
endloop
endfacet
facet normal -0.995185 0.000008 0.098017
outer loop
vertex 4.166626 1.122151 1.807867
vertex 4.120511 1.122151 1.339651
vertex 4.118450 -0.746203 1.318865
endloop
endfacet
facet normal -0.956938 -0.002174 0.290285
outer loop
vertex 3.981876 -0.746203 0.868643
vertex 4.118450 -0.746203 1.318865
vertex 4.120511 1.122151 1.339651
endloop
endfacet
facet normal -0.956938 -0.002174 0.290284
outer loop
vertex 4.120511 1.122151 1.339651
vertex 3.983937 1.122151 0.889427
vertex 3.981876 -0.746203 0.868643
endloop
endfacet
facet normal -0.881913 -0.004271 0.471392
outer loop
vertex 3.760093 -0.746203 0.453714
vertex 3.981876 -0.746203 0.868643
vertex 3.983937 1.122151 0.889427
endloop
endfacet
facet normal -0.881914 -0.004271 0.471392
outer loop
vertex 3.983937 1.122151 0.889427
vertex 3.762154 1.122151 0.474499
vertex 3.760093 -0.746203 0.453714
endloop
endfacet
facet normal -0.772995 -0.006205 0.634381
outer loop
vertex 3.461622 -0.746203 0.090027
vertex 3.760093 -0.746203 0.453714
vertex 3.762154 1.122151 0.474499
endloop
endfacet
facet normal -0.772995 -0.006204 0.634381
outer loop
vertex 3.762154 1.122151 0.474499
vertex 3.463683 1.122151 0.110811
vertex 3.461622 -0.746203 0.090027
endloop
endfacet
facet normal -0.634374 -0.007899 0.772986
outer loop
vertex 3.097934 -0.746203 -0.208445
vertex 3.461622 -0.746203 0.090027
vertex 3.463683 1.122151 0.110811
endloop
endfacet
facet normal -0.634374 -0.007899 0.772986
outer loop
vertex 3.463683 1.122151 0.110811
vertex 3.099995 1.122151 -0.187660
vertex 3.097934 -0.746203 -0.208445
endloop
endfacet
facet normal -0.471378 -0.009290 0.881882
outer loop
vertex 2.683006 -0.746203 -0.430229
vertex 3.097934 -0.746203 -0.208445
vertex 3.099995 1.122151 -0.187660
endloop
endfacet
facet normal -0.471375 -0.009291 0.881884
outer loop
vertex 3.099995 1.122151 -0.187660
vertex 2.685067 1.122151 -0.409443
vertex 2.683006 -0.746203 -0.430229
endloop
endfacet
endsolid Exported from Blender-2.74 (sub 0)
