solid Exported from Blender-2.74 (sub 0)
facet normal 0.102381 -0.943523 0.315090
outer loop
vertex 13.362237 25.076706 6.020318
vertex 17.615463 26.570166 9.110432
vertex 11.737681 26.570164 11.020270
endloop
endfacet
facet normal 0.700224 -0.661699 0.268031
outer loop
vertex 20.598310 30.604511 11.277571
vertex 17.615463 26.570166 9.110432
vertex 21.868713 29.819347 6.020318
endloop
endfacet
facet normal -0.268034 -0.943523 0.194737
outer loop
vertex 13.362237 25.076706 6.020318
vertex 11.737681 26.570164 11.020270
vertex 8.104940 26.570190 6.020318
endloop
endfacet
facet normal -0.268034 -0.943523 -0.194737
outer loop
vertex 13.362237 25.076706 6.020318
vertex 8.104940 26.570190 6.020318
vertex 11.737681 26.570164 1.020366
endloop
endfacet
facet normal 0.102381 -0.943523 -0.315090
outer loop
vertex 13.362237 25.076706 6.020318
vertex 11.737681 26.570164 1.020366
vertex 17.615463 26.570166 2.930205
endloop
endfacet
facet normal 0.904990 -0.330384 0.268030
outer loop
vertex 20.598310 30.604511 11.277571
vertex 21.868713 29.819347 6.020318
vertex 22.872814 35.076706 9.110444
endloop
endfacet
facet normal 0.024747 -0.330386 0.943521
outer loop
vertex 10.598357 30.604507 14.526811
vertex 15.990925 29.819330 14.110433
vertex 13.362237 35.076706 16.020317
endloop
endfacet
facet normal -0.889697 -0.330385 0.315095
outer loop
vertex 4.417976 30.604549 6.020318
vertex 6.480345 29.819345 11.020287
vertex 3.851660 35.076706 9.110444
endloop
endfacet
facet normal -0.574602 -0.330387 -0.748783
outer loop
vertex 10.598357 30.604507 -2.486175
vertex 6.480345 29.819345 1.020350
vertex 7.484382 35.076706 -2.069848
endloop
endfacet
facet normal 0.534576 -0.330387 -0.777864
outer loop
vertex 20.598310 30.604511 0.763065
vertex 15.990925 29.819330 -2.069797
vertex 19.240091 35.076706 -2.069848
endloop
endfacet
facet normal 0.802609 -0.125628 0.583127
outer loop
vertex 20.598310 30.604511 11.277571
vertex 22.872814 35.076706 9.110444
vertex 19.240091 35.076706 14.110484
endloop
endfacet
facet normal -0.306569 -0.125629 0.943522
outer loop
vertex 10.598357 30.604507 14.526811
vertex 13.362237 35.076706 16.020317
vertex 7.484382 35.076706 14.110484
endloop
endfacet
facet normal -0.992077 -0.125628 0.000000
outer loop
vertex 4.417976 30.604549 6.020318
vertex 3.851660 35.076706 9.110444
vertex 3.851660 35.076706 2.930192
endloop
endfacet
facet normal -0.306569 -0.125628 -0.943522
outer loop
vertex 10.598357 30.604507 -2.486175
vertex 7.484382 35.076706 -2.069848
vertex 13.362237 35.076706 -3.979681
endloop
endfacet
facet normal 0.802609 -0.125628 -0.583127
outer loop
vertex 20.598310 30.604511 0.763065
vertex 19.240091 35.076706 -2.069848
vertex 22.872814 35.076706 2.930192
endloop
endfacet
facet normal 0.408946 0.661699 0.628425
outer loop
vertex 16.126118 39.548904 14.526811
vertex 20.244129 40.334068 11.020287
vertex 14.986793 43.583248 11.020270
endloop
endfacet
facet normal -0.471300 0.661699 0.583122
outer loop
vertex 6.126164 39.548901 11.277571
vertex 10.733549 40.334084 14.110433
vertex 9.109011 43.583244 9.110432
endloop
endfacet
facet normal -0.700224 0.661699 -0.268032
outer loop
vertex 6.126164 39.548901 0.763065
vertex 4.855760 40.334064 6.020318
vertex 9.109011 43.583244 2.930205
endloop
endfacet
facet normal 0.038530 0.661699 -0.748779
outer loop
vertex 16.126118 39.548904 -2.486175
vertex 10.733549 40.334084 -2.069797
vertex 14.986793 43.583248 1.020366
endloop
endfacet
facet normal 0.724042 0.661696 -0.194734
outer loop
vertex 22.306498 39.548862 6.020318
vertex 20.244129 40.334068 1.020350
vertex 18.619534 43.583221 6.020318
endloop
endfacet
facet normal 0.268034 0.943523 -0.194736
outer loop
vertex 18.619534 43.583221 6.020318
vertex 14.986793 43.583248 1.020366
vertex 13.362237 45.076706 6.020318
endloop
endfacet
facet normal 0.491119 0.794657 -0.356822
outer loop
vertex 18.619534 43.583221 6.020318
vertex 20.244129 40.334068 1.020350
vertex 14.986793 43.583248 1.020366
endloop
endfacet
facet normal 0.408946 0.661699 -0.628425
outer loop
vertex 20.244129 40.334068 1.020350
vertex 16.126118 39.548904 -2.486175
vertex 14.986793 43.583248 1.020366
endloop
endfacet
facet normal -0.102381 0.943523 -0.315091
outer loop
vertex 14.986793 43.583248 1.020366
vertex 9.109011 43.583244 2.930205
vertex 13.362237 45.076706 6.020318
endloop
endfacet
facet normal -0.187595 0.794658 -0.577344
outer loop
vertex 14.986793 43.583248 1.020366
vertex 10.733549 40.334084 -2.069797
vertex 9.109011 43.583244 2.930205
endloop
endfacet
facet normal -0.471300 0.661699 -0.583122
outer loop
vertex 10.733549 40.334084 -2.069797
vertex 6.126164 39.548901 0.763065
vertex 9.109011 43.583244 2.930205
endloop
endfacet
facet normal -0.331305 0.943524 0.000000
outer loop
vertex 9.109011 43.583244 2.930205
vertex 9.109011 43.583244 9.110432
vertex 13.362237 45.076706 6.020318
endloop
endfacet
facet normal -0.607060 0.794656 0.000000
outer loop
vertex 9.109011 43.583244 2.930205
vertex 4.855760 40.334064 6.020318
vertex 9.109011 43.583244 9.110432
endloop
endfacet
facet normal -0.700224 0.661699 0.268032
outer loop
vertex 4.855760 40.334064 6.020318
vertex 6.126164 39.548901 11.277571
vertex 9.109011 43.583244 9.110432
endloop
endfacet
facet normal -0.102381 0.943523 0.315092
outer loop
vertex 9.109011 43.583244 9.110432
vertex 14.986793 43.583248 11.020270
vertex 13.362237 45.076706 6.020318
endloop
endfacet
facet normal -0.187595 0.794658 0.577344
outer loop
vertex 9.109011 43.583244 9.110432
vertex 10.733549 40.334084 14.110433
vertex 14.986793 43.583248 11.020270
endloop
endfacet
facet normal 0.038531 0.661699 0.748778
outer loop
vertex 10.733549 40.334084 14.110433
vertex 16.126118 39.548904 14.526811
vertex 14.986793 43.583248 11.020270
endloop
endfacet
facet normal 0.268034 0.943523 0.194735
outer loop
vertex 14.986793 43.583248 11.020270
vertex 18.619534 43.583221 6.020318
vertex 13.362237 45.076706 6.020318
endloop
endfacet
facet normal 0.491119 0.794657 0.356822
outer loop
vertex 14.986793 43.583248 11.020270
vertex 20.244129 40.334068 11.020287
vertex 18.619534 43.583221 6.020318
endloop
endfacet
facet normal 0.724042 0.661696 0.194735
outer loop
vertex 20.244129 40.334068 11.020287
vertex 22.306498 39.548862 6.020318
vertex 18.619534 43.583221 6.020318
endloop
endfacet
facet normal 0.889697 0.330385 -0.315095
outer loop
vertex 22.872814 35.076706 2.930192
vertex 20.244129 40.334068 1.020350
vertex 22.306498 39.548862 6.020318
endloop
endfacet
facet normal 0.794655 0.187596 -0.577348
outer loop
vertex 22.872814 35.076706 2.930192
vertex 19.240091 35.076706 -2.069848
vertex 20.244129 40.334068 1.020350
endloop
endfacet
facet normal 0.574603 0.330387 -0.748783
outer loop
vertex 19.240091 35.076706 -2.069848
vertex 16.126118 39.548904 -2.486175
vertex 20.244129 40.334068 1.020350
endloop
endfacet
facet normal -0.024747 0.330386 -0.943521
outer loop
vertex 13.362237 35.076706 -3.979681
vertex 10.733549 40.334084 -2.069797
vertex 16.126118 39.548904 -2.486175
endloop
endfacet
facet normal -0.303531 0.187597 -0.934171
outer loop
vertex 13.362237 35.076706 -3.979681
vertex 7.484382 35.076706 -2.069848
vertex 10.733549 40.334084 -2.069797
endloop
endfacet
facet normal -0.534576 0.330387 -0.777864
outer loop
vertex 7.484382 35.076706 -2.069848
vertex 6.126164 39.548901 0.763065
vertex 10.733549 40.334084 -2.069797
endloop
endfacet
facet normal -0.904989 0.330385 -0.268031
outer loop
vertex 3.851660 35.076706 2.930192
vertex 4.855760 40.334064 6.020318
vertex 6.126164 39.548901 0.763065
endloop
endfacet
facet normal -0.982246 0.187599 0.000000
outer loop
vertex 3.851660 35.076706 2.930192
vertex 3.851660 35.076706 9.110444
vertex 4.855760 40.334064 6.020318
endloop
endfacet
facet normal -0.904989 0.330385 0.268031
outer loop
vertex 3.851660 35.076706 9.110444
vertex 6.126164 39.548901 11.277571
vertex 4.855760 40.334064 6.020318
endloop
endfacet
facet normal -0.534576 0.330387 0.777864
outer loop
vertex 7.484382 35.076706 14.110484
vertex 10.733549 40.334084 14.110433
vertex 6.126164 39.548901 11.277571
endloop
endfacet
facet normal -0.303531 0.187597 0.934171
outer loop
vertex 7.484382 35.076706 14.110484
vertex 13.362237 35.076706 16.020317
vertex 10.733549 40.334084 14.110433
endloop
endfacet
facet normal -0.024747 0.330386 0.943521
outer loop
vertex 13.362237 35.076706 16.020317
vertex 16.126118 39.548904 14.526811
vertex 10.733549 40.334084 14.110433
endloop
endfacet
facet normal 0.574603 0.330387 0.748783
outer loop
vertex 19.240091 35.076706 14.110484
vertex 20.244129 40.334068 11.020287
vertex 16.126118 39.548904 14.526811
endloop
endfacet
facet normal 0.794656 0.187595 0.577348
outer loop
vertex 19.240091 35.076706 14.110484
vertex 22.872814 35.076706 9.110444
vertex 20.244129 40.334068 11.020287
endloop
endfacet
facet normal 0.889697 0.330385 0.315095
outer loop
vertex 22.872814 35.076706 9.110444
vertex 22.306498 39.548862 6.020318
vertex 20.244129 40.334068 11.020287
endloop
endfacet
facet normal 0.306569 0.125628 -0.943521
outer loop
vertex 19.240091 35.076706 -2.069848
vertex 13.362237 35.076706 -3.979681
vertex 16.126118 39.548904 -2.486175
endloop
endfacet
facet normal 0.303531 -0.187598 -0.934171
outer loop
vertex 19.240091 35.076706 -2.069848
vertex 15.990925 29.819330 -2.069797
vertex 13.362237 35.076706 -3.979681
endloop
endfacet
facet normal 0.024747 -0.330386 -0.943521
outer loop
vertex 15.990925 29.819330 -2.069797
vertex 10.598357 30.604507 -2.486175
vertex 13.362237 35.076706 -3.979681
endloop
endfacet
facet normal -0.802609 0.125627 -0.583127
outer loop
vertex 7.484382 35.076706 -2.069848
vertex 3.851660 35.076706 2.930192
vertex 6.126164 39.548901 0.763065
endloop
endfacet
facet normal -0.794655 -0.187595 -0.577348
outer loop
vertex 7.484382 35.076706 -2.069848
vertex 6.480345 29.819345 1.020350
vertex 3.851660 35.076706 2.930192
endloop
endfacet
facet normal -0.889697 -0.330385 -0.315095
outer loop
vertex 6.480345 29.819345 1.020350
vertex 4.417976 30.604549 6.020318
vertex 3.851660 35.076706 2.930192
endloop
endfacet
facet normal -0.802609 0.125627 0.583127
outer loop
vertex 3.851660 35.076706 9.110444
vertex 7.484382 35.076706 14.110484
vertex 6.126164 39.548901 11.277571
endloop
endfacet
facet normal -0.794656 -0.187595 0.577348
outer loop
vertex 3.851660 35.076706 9.110444
vertex 6.480345 29.819345 11.020287
vertex 7.484382 35.076706 14.110484
endloop
endfacet
facet normal -0.574602 -0.330387 0.748783
outer loop
vertex 6.480345 29.819345 11.020287
vertex 10.598357 30.604507 14.526811
vertex 7.484382 35.076706 14.110484
endloop
endfacet
facet normal 0.306569 0.125628 0.943522
outer loop
vertex 13.362237 35.076706 16.020317
vertex 19.240091 35.076706 14.110484
vertex 16.126118 39.548904 14.526811
endloop
endfacet
facet normal 0.303531 -0.187598 0.934171
outer loop
vertex 13.362237 35.076706 16.020317
vertex 15.990925 29.819330 14.110433
vertex 19.240091 35.076706 14.110484
endloop
endfacet
facet normal 0.534576 -0.330387 0.777864
outer loop
vertex 15.990925 29.819330 14.110433
vertex 20.598310 30.604511 11.277571
vertex 19.240091 35.076706 14.110484
endloop
endfacet
facet normal 0.992077 0.125628 0.000000
outer loop
vertex 22.872814 35.076706 9.110444
vertex 22.872814 35.076706 2.930192
vertex 22.306498 39.548862 6.020318
endloop
endfacet
facet normal 0.982246 -0.187598 0.000000
outer loop
vertex 22.872814 35.076706 9.110444
vertex 21.868713 29.819347 6.020318
vertex 22.872814 35.076706 2.930192
endloop
endfacet
facet normal 0.904989 -0.330384 -0.268030
outer loop
vertex 21.868713 29.819347 6.020318
vertex 20.598310 30.604511 0.763065
vertex 22.872814 35.076706 2.930192
endloop
endfacet
facet normal 0.471299 -0.661699 -0.583123
outer loop
vertex 17.615463 26.570166 2.930205
vertex 15.990925 29.819330 -2.069797
vertex 20.598310 30.604511 0.763065
endloop
endfacet
facet normal 0.187594 -0.794657 -0.577346
outer loop
vertex 17.615463 26.570166 2.930205
vertex 11.737681 26.570164 1.020366
vertex 15.990925 29.819330 -2.069797
endloop
endfacet
facet normal -0.038530 -0.661700 -0.748778
outer loop
vertex 11.737681 26.570164 1.020366
vertex 10.598357 30.604507 -2.486175
vertex 15.990925 29.819330 -2.069797
endloop
endfacet
facet normal -0.408947 -0.661699 -0.628424
outer loop
vertex 11.737681 26.570164 1.020366
vertex 6.480345 29.819345 1.020350
vertex 10.598357 30.604507 -2.486175
endloop
endfacet
facet normal -0.491119 -0.794657 -0.356822
outer loop
vertex 11.737681 26.570164 1.020366
vertex 8.104940 26.570190 6.020318
vertex 6.480345 29.819345 1.020350
endloop
endfacet
facet normal -0.724042 -0.661695 -0.194736
outer loop
vertex 8.104940 26.570190 6.020318
vertex 4.417976 30.604549 6.020318
vertex 6.480345 29.819345 1.020350
endloop
endfacet
facet normal -0.724042 -0.661695 0.194736
outer loop
vertex 8.104940 26.570190 6.020318
vertex 6.480345 29.819345 11.020287
vertex 4.417976 30.604549 6.020318
endloop
endfacet
facet normal -0.491120 -0.794657 0.356822
outer loop
vertex 8.104940 26.570190 6.020318
vertex 11.737681 26.570164 11.020270
vertex 6.480345 29.819345 11.020287
endloop
endfacet
facet normal -0.408946 -0.661699 0.628424
outer loop
vertex 11.737681 26.570164 11.020270
vertex 10.598357 30.604507 14.526811
vertex 6.480345 29.819345 11.020287
endloop
endfacet
facet normal 0.700224 -0.661699 -0.268031
outer loop
vertex 21.868713 29.819347 6.020318
vertex 17.615463 26.570166 2.930205
vertex 20.598310 30.604511 0.763065
endloop
endfacet
facet normal 0.607061 -0.794656 0.000000
outer loop
vertex 21.868713 29.819347 6.020318
vertex 17.615463 26.570166 9.110432
vertex 17.615463 26.570166 2.930205
endloop
endfacet
facet normal 0.331305 -0.943524 0.000000
outer loop
vertex 17.615463 26.570166 9.110432
vertex 13.362237 25.076706 6.020318
vertex 17.615463 26.570166 2.930205
endloop
endfacet
facet normal -0.038530 -0.661700 0.748778
outer loop
vertex 11.737681 26.570164 11.020270
vertex 15.990925 29.819330 14.110433
vertex 10.598357 30.604507 14.526811
endloop
endfacet
facet normal 0.187594 -0.794657 0.577346
outer loop
vertex 11.737681 26.570164 11.020270
vertex 17.615463 26.570166 9.110432
vertex 15.990925 29.819330 14.110433
endloop
endfacet
facet normal 0.471299 -0.661699 0.583123
outer loop
vertex 17.615463 26.570166 9.110432
vertex 20.598310 30.604511 11.277571
vertex 15.990925 29.819330 14.110433
endloop
endfacet
endsolid Exported from Blender-2.74 (sub 0)
