solid Exported from Blender-2.74 (sub 0)
facet normal 0.102381 -0.943524 0.315089
outer loop
vertex -3.080301 29.002712 -1.875284
vertex 1.172925 30.496172 1.214829
vertex -4.704857 30.496170 3.124668
endloop
endfacet
facet normal 0.700224 -0.661699 0.268032
outer loop
vertex 4.155772 34.530518 3.381969
vertex 1.172925 30.496172 1.214829
vertex 5.426176 33.745354 -1.875284
endloop
endfacet
facet normal -0.268034 -0.943523 0.194737
outer loop
vertex -3.080301 29.002712 -1.875284
vertex -4.704857 30.496170 3.124668
vertex -8.337599 30.496197 -1.875284
endloop
endfacet
facet normal -0.268034 -0.943523 -0.194737
outer loop
vertex -3.080301 29.002712 -1.875284
vertex -8.337599 30.496197 -1.875284
vertex -4.704857 30.496170 -6.875237
endloop
endfacet
facet normal 0.102381 -0.943524 -0.315089
outer loop
vertex -3.080301 29.002712 -1.875284
vertex -4.704857 30.496170 -6.875237
vertex 1.172925 30.496172 -4.965398
endloop
endfacet
facet normal 0.904989 -0.330385 0.268032
outer loop
vertex 4.155772 34.530518 3.381969
vertex 5.426176 33.745354 -1.875284
vertex 6.430276 39.002712 1.214842
endloop
endfacet
facet normal 0.024747 -0.330386 0.943521
outer loop
vertex -5.844181 34.530514 6.631208
vertex -0.451613 33.745338 6.214830
vertex -3.080301 39.002712 8.124715
endloop
endfacet
facet normal -0.889697 -0.330385 0.315094
outer loop
vertex -12.024562 34.530556 -1.875284
vertex -9.962193 33.745350 3.124684
vertex -12.590878 39.002712 1.214842
endloop
endfacet
facet normal -0.574602 -0.330387 -0.748783
outer loop
vertex -5.844181 34.530514 -10.381777
vertex -9.962193 33.745350 -6.875253
vertex -8.958157 39.002712 -9.965450
endloop
endfacet
facet normal 0.534576 -0.330387 -0.777865
outer loop
vertex 4.155772 34.530518 -7.132538
vertex -0.451614 33.745338 -9.965399
vertex 2.797554 39.002712 -9.965450
endloop
endfacet
facet normal 0.802610 -0.125627 0.583126
outer loop
vertex 4.155772 34.530518 3.381969
vertex 6.430276 39.002712 1.214842
vertex 2.797554 39.002712 6.214882
endloop
endfacet
facet normal -0.306569 -0.125628 0.943522
outer loop
vertex -5.844181 34.530514 6.631208
vertex -3.080301 39.002712 8.124715
vertex -8.958157 39.002712 6.214882
endloop
endfacet
facet normal -0.992077 -0.125629 0.000000
outer loop
vertex -12.024562 34.530556 -1.875284
vertex -12.590878 39.002712 1.214842
vertex -12.590878 39.002712 -4.965411
endloop
endfacet
facet normal -0.306569 -0.125628 -0.943522
outer loop
vertex -5.844181 34.530514 -10.381777
vertex -8.958157 39.002712 -9.965450
vertex -3.080301 39.002712 -11.875283
endloop
endfacet
facet normal 0.802610 -0.125627 -0.583126
outer loop
vertex 4.155772 34.530518 -7.132538
vertex 2.797554 39.002712 -9.965450
vertex 6.430276 39.002712 -4.965411
endloop
endfacet
facet normal 0.408946 0.661699 0.628425
outer loop
vertex -0.316421 43.474911 6.631208
vertex 3.801591 44.260075 3.124684
vertex -1.455746 47.509254 3.124668
endloop
endfacet
facet normal -0.471299 0.661699 0.583123
outer loop
vertex -10.316374 43.474907 3.381969
vertex -5.708989 44.260086 6.214830
vertex -7.333528 47.509254 1.214829
endloop
endfacet
facet normal -0.700224 0.661699 -0.268032
outer loop
vertex -10.316374 43.474907 -7.132538
vertex -11.586779 44.260071 -1.875284
vertex -7.333528 47.509254 -4.965398
endloop
endfacet
facet normal 0.038530 0.661699 -0.748779
outer loop
vertex -0.316421 43.474911 -10.381777
vertex -5.708989 44.260086 -9.965399
vertex -1.455746 47.509254 -6.875237
endloop
endfacet
facet normal 0.724042 0.661695 -0.194736
outer loop
vertex 5.863959 43.474869 -1.875284
vertex 3.801591 44.260075 -6.875253
vertex 2.176996 47.509228 -1.875284
endloop
endfacet
facet normal 0.268034 0.943522 -0.194739
outer loop
vertex 2.176996 47.509228 -1.875284
vertex -1.455746 47.509254 -6.875237
vertex -3.080301 49.002712 -1.875284
endloop
endfacet
facet normal 0.491120 0.794658 -0.356819
outer loop
vertex 2.176996 47.509228 -1.875284
vertex 3.801591 44.260075 -6.875253
vertex -1.455746 47.509254 -6.875237
endloop
endfacet
facet normal 0.408946 0.661699 -0.628425
outer loop
vertex 3.801591 44.260075 -6.875253
vertex -0.316421 43.474911 -10.381777
vertex -1.455746 47.509254 -6.875237
endloop
endfacet
facet normal -0.102381 0.943524 -0.315089
outer loop
vertex -1.455746 47.509254 -6.875237
vertex -7.333528 47.509254 -4.965398
vertex -3.080301 49.002712 -1.875284
endloop
endfacet
facet normal -0.187594 0.794658 -0.577345
outer loop
vertex -1.455746 47.509254 -6.875237
vertex -5.708989 44.260086 -9.965399
vertex -7.333528 47.509254 -4.965398
endloop
endfacet
facet normal -0.471299 0.661699 -0.583123
outer loop
vertex -5.708989 44.260086 -9.965399
vertex -10.316374 43.474907 -7.132538
vertex -7.333528 47.509254 -4.965398
endloop
endfacet
facet normal -0.331304 0.943524 0.000000
outer loop
vertex -7.333528 47.509254 -4.965398
vertex -7.333528 47.509254 1.214829
vertex -3.080301 49.002712 -1.875284
endloop
endfacet
facet normal -0.607061 0.794656 0.000000
outer loop
vertex -7.333528 47.509254 -4.965398
vertex -11.586779 44.260071 -1.875284
vertex -7.333528 47.509254 1.214829
endloop
endfacet
facet normal -0.700224 0.661698 0.268033
outer loop
vertex -11.586779 44.260071 -1.875284
vertex -10.316374 43.474907 3.381969
vertex -7.333528 47.509254 1.214829
endloop
endfacet
facet normal -0.102381 0.943524 0.315089
outer loop
vertex -7.333528 47.509254 1.214829
vertex -1.455746 47.509254 3.124668
vertex -3.080301 49.002712 -1.875284
endloop
endfacet
facet normal -0.187594 0.794658 0.577345
outer loop
vertex -7.333528 47.509254 1.214829
vertex -5.708989 44.260086 6.214830
vertex -1.455746 47.509254 3.124668
endloop
endfacet
facet normal 0.038530 0.661699 0.748779
outer loop
vertex -5.708989 44.260086 6.214830
vertex -0.316421 43.474911 6.631208
vertex -1.455746 47.509254 3.124668
endloop
endfacet
facet normal 0.268034 0.943522 0.194739
outer loop
vertex -1.455746 47.509254 3.124668
vertex 2.176996 47.509228 -1.875284
vertex -3.080301 49.002712 -1.875284
endloop
endfacet
facet normal 0.491120 0.794658 0.356820
outer loop
vertex -1.455746 47.509254 3.124668
vertex 3.801591 44.260075 3.124684
vertex 2.176996 47.509228 -1.875284
endloop
endfacet
facet normal 0.724042 0.661695 0.194737
outer loop
vertex 3.801591 44.260075 3.124684
vertex 5.863959 43.474869 -1.875284
vertex 2.176996 47.509228 -1.875284
endloop
endfacet
facet normal 0.889697 0.330385 -0.315095
outer loop
vertex 6.430276 39.002712 -4.965411
vertex 3.801591 44.260075 -6.875253
vertex 5.863959 43.474869 -1.875284
endloop
endfacet
facet normal 0.794655 0.187595 -0.577348
outer loop
vertex 6.430276 39.002712 -4.965411
vertex 2.797554 39.002712 -9.965450
vertex 3.801591 44.260075 -6.875253
endloop
endfacet
facet normal 0.574602 0.330387 -0.748784
outer loop
vertex 2.797554 39.002712 -9.965450
vertex -0.316421 43.474911 -10.381777
vertex 3.801591 44.260075 -6.875253
endloop
endfacet
facet normal -0.024747 0.330387 -0.943521
outer loop
vertex -3.080301 39.002712 -11.875283
vertex -5.708989 44.260086 -9.965399
vertex -0.316421 43.474911 -10.381777
endloop
endfacet
facet normal -0.303531 0.187598 -0.934171
outer loop
vertex -3.080301 39.002712 -11.875283
vertex -8.958157 39.002712 -9.965450
vertex -5.708989 44.260086 -9.965399
endloop
endfacet
facet normal -0.534576 0.330387 -0.777865
outer loop
vertex -8.958157 39.002712 -9.965450
vertex -10.316374 43.474907 -7.132538
vertex -5.708989 44.260086 -9.965399
endloop
endfacet
facet normal -0.904989 0.330384 -0.268032
outer loop
vertex -12.590878 39.002712 -4.965411
vertex -11.586779 44.260071 -1.875284
vertex -10.316374 43.474907 -7.132538
endloop
endfacet
facet normal -0.982246 0.187599 0.000000
outer loop
vertex -12.590878 39.002712 -4.965411
vertex -12.590878 39.002712 1.214842
vertex -11.586779 44.260071 -1.875284
endloop
endfacet
facet normal -0.904989 0.330384 0.268032
outer loop
vertex -12.590878 39.002712 1.214842
vertex -10.316374 43.474907 3.381969
vertex -11.586779 44.260071 -1.875284
endloop
endfacet
facet normal -0.534576 0.330387 0.777864
outer loop
vertex -8.958157 39.002712 6.214882
vertex -5.708989 44.260086 6.214830
vertex -10.316374 43.474907 3.381969
endloop
endfacet
facet normal -0.303531 0.187598 0.934171
outer loop
vertex -8.958157 39.002712 6.214882
vertex -3.080301 39.002712 8.124715
vertex -5.708989 44.260086 6.214830
endloop
endfacet
facet normal -0.024747 0.330387 0.943521
outer loop
vertex -3.080301 39.002712 8.124715
vertex -0.316421 43.474911 6.631208
vertex -5.708989 44.260086 6.214830
endloop
endfacet
facet normal 0.574602 0.330387 0.748784
outer loop
vertex 2.797554 39.002712 6.214882
vertex 3.801591 44.260075 3.124684
vertex -0.316421 43.474911 6.631208
endloop
endfacet
facet normal 0.794655 0.187595 0.577348
outer loop
vertex 2.797554 39.002712 6.214882
vertex 6.430276 39.002712 1.214842
vertex 3.801591 44.260075 3.124684
endloop
endfacet
facet normal 0.889697 0.330385 0.315095
outer loop
vertex 6.430276 39.002712 1.214842
vertex 5.863959 43.474869 -1.875284
vertex 3.801591 44.260075 3.124684
endloop
endfacet
facet normal 0.306569 0.125628 -0.943522
outer loop
vertex 2.797554 39.002712 -9.965450
vertex -3.080301 39.002712 -11.875283
vertex -0.316421 43.474911 -10.381777
endloop
endfacet
facet normal 0.303531 -0.187598 -0.934171
outer loop
vertex 2.797554 39.002712 -9.965450
vertex -0.451614 33.745338 -9.965399
vertex -3.080301 39.002712 -11.875283
endloop
endfacet
facet normal 0.024747 -0.330386 -0.943521
outer loop
vertex -0.451614 33.745338 -9.965399
vertex -5.844181 34.530514 -10.381777
vertex -3.080301 39.002712 -11.875283
endloop
endfacet
facet normal -0.802609 0.125627 -0.583126
outer loop
vertex -8.958157 39.002712 -9.965450
vertex -12.590878 39.002712 -4.965411
vertex -10.316374 43.474907 -7.132538
endloop
endfacet
facet normal -0.794656 -0.187595 -0.577348
outer loop
vertex -8.958157 39.002712 -9.965450
vertex -9.962193 33.745350 -6.875253
vertex -12.590878 39.002712 -4.965411
endloop
endfacet
facet normal -0.889697 -0.330385 -0.315094
outer loop
vertex -9.962193 33.745350 -6.875253
vertex -12.024562 34.530556 -1.875284
vertex -12.590878 39.002712 -4.965411
endloop
endfacet
facet normal -0.802609 0.125627 0.583126
outer loop
vertex -12.590878 39.002712 1.214842
vertex -8.958157 39.002712 6.214882
vertex -10.316374 43.474907 3.381969
endloop
endfacet
facet normal -0.794656 -0.187595 0.577348
outer loop
vertex -12.590878 39.002712 1.214842
vertex -9.962193 33.745350 3.124684
vertex -8.958157 39.002712 6.214882
endloop
endfacet
facet normal -0.574602 -0.330387 0.748784
outer loop
vertex -9.962193 33.745350 3.124684
vertex -5.844181 34.530514 6.631208
vertex -8.958157 39.002712 6.214882
endloop
endfacet
facet normal 0.306569 0.125628 0.943522
outer loop
vertex -3.080301 39.002712 8.124715
vertex 2.797554 39.002712 6.214882
vertex -0.316421 43.474911 6.631208
endloop
endfacet
facet normal 0.303531 -0.187598 0.934171
outer loop
vertex -3.080301 39.002712 8.124715
vertex -0.451613 33.745338 6.214830
vertex 2.797554 39.002712 6.214882
endloop
endfacet
facet normal 0.534576 -0.330387 0.777865
outer loop
vertex -0.451613 33.745338 6.214830
vertex 4.155772 34.530518 3.381969
vertex 2.797554 39.002712 6.214882
endloop
endfacet
facet normal 0.992077 0.125629 0.000000
outer loop
vertex 6.430276 39.002712 1.214842
vertex 6.430276 39.002712 -4.965411
vertex 5.863959 43.474869 -1.875284
endloop
endfacet
facet normal 0.982246 -0.187599 0.000000
outer loop
vertex 6.430276 39.002712 1.214842
vertex 5.426176 33.745354 -1.875284
vertex 6.430276 39.002712 -4.965411
endloop
endfacet
facet normal 0.904989 -0.330385 -0.268032
outer loop
vertex 5.426176 33.745354 -1.875284
vertex 4.155772 34.530518 -7.132538
vertex 6.430276 39.002712 -4.965411
endloop
endfacet
facet normal 0.471299 -0.661698 -0.583124
outer loop
vertex 1.172925 30.496172 -4.965398
vertex -0.451614 33.745338 -9.965399
vertex 4.155772 34.530518 -7.132538
endloop
endfacet
facet normal 0.187594 -0.794657 -0.577346
outer loop
vertex 1.172925 30.496172 -4.965398
vertex -4.704857 30.496170 -6.875237
vertex -0.451614 33.745338 -9.965399
endloop
endfacet
facet normal -0.038530 -0.661700 -0.748778
outer loop
vertex -4.704857 30.496170 -6.875237
vertex -5.844181 34.530514 -10.381777
vertex -0.451614 33.745338 -9.965399
endloop
endfacet
facet normal -0.408946 -0.661698 -0.628425
outer loop
vertex -4.704857 30.496170 -6.875237
vertex -9.962193 33.745350 -6.875253
vertex -5.844181 34.530514 -10.381777
endloop
endfacet
facet normal -0.491119 -0.794658 -0.356821
outer loop
vertex -4.704857 30.496170 -6.875237
vertex -8.337599 30.496197 -1.875284
vertex -9.962193 33.745350 -6.875253
endloop
endfacet
facet normal -0.724042 -0.661695 -0.194737
outer loop
vertex -8.337599 30.496197 -1.875284
vertex -12.024562 34.530556 -1.875284
vertex -9.962193 33.745350 -6.875253
endloop
endfacet
facet normal -0.724042 -0.661695 0.194737
outer loop
vertex -8.337599 30.496197 -1.875284
vertex -9.962193 33.745350 3.124684
vertex -12.024562 34.530556 -1.875284
endloop
endfacet
facet normal -0.491119 -0.794658 0.356821
outer loop
vertex -8.337599 30.496197 -1.875284
vertex -4.704857 30.496170 3.124668
vertex -9.962193 33.745350 3.124684
endloop
endfacet
facet normal -0.408946 -0.661698 0.628425
outer loop
vertex -4.704857 30.496170 3.124668
vertex -5.844181 34.530514 6.631208
vertex -9.962193 33.745350 3.124684
endloop
endfacet
facet normal 0.700224 -0.661699 -0.268032
outer loop
vertex 5.426176 33.745354 -1.875284
vertex 1.172925 30.496172 -4.965398
vertex 4.155772 34.530518 -7.132538
endloop
endfacet
facet normal 0.607060 -0.794656 0.000000
outer loop
vertex 5.426176 33.745354 -1.875284
vertex 1.172925 30.496172 1.214829
vertex 1.172925 30.496172 -4.965398
endloop
endfacet
facet normal 0.331305 -0.943524 0.000000
outer loop
vertex 1.172925 30.496172 1.214829
vertex -3.080301 29.002712 -1.875284
vertex 1.172925 30.496172 -4.965398
endloop
endfacet
facet normal -0.038530 -0.661700 0.748778
outer loop
vertex -4.704857 30.496170 3.124668
vertex -0.451613 33.745338 6.214830
vertex -5.844181 34.530514 6.631208
endloop
endfacet
facet normal 0.187594 -0.794657 0.577346
outer loop
vertex -4.704857 30.496170 3.124668
vertex 1.172925 30.496172 1.214829
vertex -0.451613 33.745338 6.214830
endloop
endfacet
facet normal 0.471299 -0.661699 0.583122
outer loop
vertex 1.172925 30.496172 1.214829
vertex 4.155772 34.530518 3.381969
vertex -0.451613 33.745338 6.214830
endloop
endfacet
endsolid Exported from Blender-2.74 (sub 0)
