solid Exported from Blender-2.74 (sub 0)
facet normal 0.102381 -0.943524 0.315089
outer loop
vertex 8.502002 20.468994 -1.325588
vertex 12.755228 21.962454 1.764526
vertex 6.877446 21.962452 3.674365
endloop
endfacet
facet normal 0.700224 -0.661699 0.268032
outer loop
vertex 15.738075 25.996799 3.931666
vertex 12.755228 21.962454 1.764526
vertex 17.008480 25.211636 -1.325588
endloop
endfacet
facet normal -0.268034 -0.943523 0.194737
outer loop
vertex 8.502002 20.468994 -1.325588
vertex 6.877446 21.962452 3.674365
vertex 3.244705 21.962479 -1.325588
endloop
endfacet
facet normal -0.268034 -0.943523 -0.194737
outer loop
vertex 8.502002 20.468994 -1.325588
vertex 3.244705 21.962479 -1.325588
vertex 6.877446 21.962452 -6.325540
endloop
endfacet
facet normal 0.102381 -0.943524 -0.315090
outer loop
vertex 8.502002 20.468994 -1.325588
vertex 6.877446 21.962452 -6.325540
vertex 12.755228 21.962454 -4.415701
endloop
endfacet
facet normal 0.904989 -0.330384 0.268031
outer loop
vertex 15.738075 25.996799 3.931666
vertex 17.008480 25.211636 -1.325588
vertex 18.012579 30.468994 1.764539
endloop
endfacet
facet normal 0.024747 -0.330386 0.943521
outer loop
vertex 5.738122 25.996796 7.180905
vertex 11.130690 25.211618 6.764527
vertex 8.502002 30.468994 8.674412
endloop
endfacet
facet normal -0.889697 -0.330385 0.315094
outer loop
vertex -0.442259 25.996838 -1.325588
vertex 1.620110 25.211634 3.674381
vertex -1.008575 30.468994 1.764539
endloop
endfacet
facet normal -0.574602 -0.330388 -0.748783
outer loop
vertex 5.738122 25.996796 -9.832080
vertex 1.620110 25.211634 -6.325556
vertex 2.624147 30.468994 -9.415753
endloop
endfacet
facet normal 0.534576 -0.330386 -0.777865
outer loop
vertex 15.738075 25.996799 -6.582841
vertex 11.130690 25.211618 -9.415702
vertex 14.379856 30.468994 -9.415753
endloop
endfacet
facet normal 0.802609 -0.125627 0.583127
outer loop
vertex 15.738075 25.996799 3.931666
vertex 18.012579 30.468994 1.764539
vertex 14.379856 30.468994 6.764579
endloop
endfacet
facet normal -0.306569 -0.125628 0.943522
outer loop
vertex 5.738122 25.996796 7.180905
vertex 8.502002 30.468994 8.674412
vertex 2.624147 30.468994 6.764579
endloop
endfacet
facet normal -0.992077 -0.125628 0.000000
outer loop
vertex -0.442259 25.996838 -1.325588
vertex -1.008575 30.468994 1.764539
vertex -1.008575 30.468994 -4.415714
endloop
endfacet
facet normal -0.306569 -0.125628 -0.943522
outer loop
vertex 5.738122 25.996796 -9.832080
vertex 2.624147 30.468994 -9.415753
vertex 8.502002 30.468994 -11.325586
endloop
endfacet
facet normal 0.802609 -0.125627 -0.583127
outer loop
vertex 15.738075 25.996799 -6.582841
vertex 14.379856 30.468994 -9.415753
vertex 18.012579 30.468994 -4.415714
endloop
endfacet
facet normal 0.408947 0.661699 0.628424
outer loop
vertex 11.265882 34.941193 7.180905
vertex 15.383894 35.726357 3.674381
vertex 10.126557 38.975536 3.674365
endloop
endfacet
facet normal -0.471299 0.661699 0.583122
outer loop
vertex 1.265929 34.941189 3.931666
vertex 5.873314 35.726372 6.764527
vertex 4.248775 38.975533 1.764526
endloop
endfacet
facet normal -0.700224 0.661699 -0.268032
outer loop
vertex 1.265929 34.941189 -6.582841
vertex -0.004476 35.726353 -1.325588
vertex 4.248775 38.975533 -4.415701
endloop
endfacet
facet normal 0.038530 0.661700 -0.748778
outer loop
vertex 11.265882 34.941193 -9.832080
vertex 5.873314 35.726372 -9.415702
vertex 10.126557 38.975536 -6.325540
endloop
endfacet
facet normal 0.724042 0.661695 -0.194735
outer loop
vertex 17.446262 34.941151 -1.325588
vertex 15.383894 35.726357 -6.325556
vertex 13.759298 38.975510 -1.325588
endloop
endfacet
facet normal 0.268034 0.943523 -0.194737
outer loop
vertex 13.759298 38.975510 -1.325588
vertex 10.126557 38.975536 -6.325540
vertex 8.502002 40.468994 -1.325588
endloop
endfacet
facet normal 0.491119 0.794657 -0.356822
outer loop
vertex 13.759298 38.975510 -1.325588
vertex 15.383894 35.726357 -6.325556
vertex 10.126557 38.975536 -6.325540
endloop
endfacet
facet normal 0.408947 0.661699 -0.628424
outer loop
vertex 15.383894 35.726357 -6.325556
vertex 11.265882 34.941193 -9.832080
vertex 10.126557 38.975536 -6.325540
endloop
endfacet
facet normal -0.102381 0.943523 -0.315090
outer loop
vertex 10.126557 38.975536 -6.325540
vertex 4.248775 38.975533 -4.415701
vertex 8.502002 40.468994 -1.325588
endloop
endfacet
facet normal -0.187594 0.794658 -0.577345
outer loop
vertex 10.126557 38.975536 -6.325540
vertex 5.873314 35.726372 -9.415702
vertex 4.248775 38.975533 -4.415701
endloop
endfacet
facet normal -0.471299 0.661699 -0.583122
outer loop
vertex 5.873314 35.726372 -9.415702
vertex 1.265929 34.941189 -6.582841
vertex 4.248775 38.975533 -4.415701
endloop
endfacet
facet normal -0.331305 0.943524 0.000000
outer loop
vertex 4.248775 38.975533 -4.415701
vertex 4.248775 38.975533 1.764526
vertex 8.502002 40.468994 -1.325588
endloop
endfacet
facet normal -0.607060 0.794656 0.000000
outer loop
vertex 4.248775 38.975533 -4.415701
vertex -0.004476 35.726353 -1.325588
vertex 4.248775 38.975533 1.764526
endloop
endfacet
facet normal -0.700224 0.661699 0.268032
outer loop
vertex -0.004476 35.726353 -1.325588
vertex 1.265929 34.941189 3.931666
vertex 4.248775 38.975533 1.764526
endloop
endfacet
facet normal -0.102381 0.943523 0.315091
outer loop
vertex 4.248775 38.975533 1.764526
vertex 10.126557 38.975536 3.674365
vertex 8.502002 40.468994 -1.325588
endloop
endfacet
facet normal -0.187594 0.794658 0.577345
outer loop
vertex 4.248775 38.975533 1.764526
vertex 5.873314 35.726372 6.764527
vertex 10.126557 38.975536 3.674365
endloop
endfacet
facet normal 0.038530 0.661700 0.748778
outer loop
vertex 5.873314 35.726372 6.764527
vertex 11.265882 34.941193 7.180905
vertex 10.126557 38.975536 3.674365
endloop
endfacet
facet normal 0.268034 0.943523 0.194736
outer loop
vertex 10.126557 38.975536 3.674365
vertex 13.759298 38.975510 -1.325588
vertex 8.502002 40.468994 -1.325588
endloop
endfacet
facet normal 0.491119 0.794657 0.356822
outer loop
vertex 10.126557 38.975536 3.674365
vertex 15.383894 35.726357 3.674381
vertex 13.759298 38.975510 -1.325588
endloop
endfacet
facet normal 0.724043 0.661695 0.194735
outer loop
vertex 15.383894 35.726357 3.674381
vertex 17.446262 34.941151 -1.325588
vertex 13.759298 38.975510 -1.325588
endloop
endfacet
facet normal 0.889697 0.330385 -0.315095
outer loop
vertex 18.012579 30.468994 -4.415714
vertex 15.383894 35.726357 -6.325556
vertex 17.446262 34.941151 -1.325588
endloop
endfacet
facet normal 0.794655 0.187595 -0.577348
outer loop
vertex 18.012579 30.468994 -4.415714
vertex 14.379856 30.468994 -9.415753
vertex 15.383894 35.726357 -6.325556
endloop
endfacet
facet normal 0.574602 0.330387 -0.748784
outer loop
vertex 14.379856 30.468994 -9.415753
vertex 11.265882 34.941193 -9.832080
vertex 15.383894 35.726357 -6.325556
endloop
endfacet
facet normal -0.024747 0.330386 -0.943521
outer loop
vertex 8.502002 30.468994 -11.325586
vertex 5.873314 35.726372 -9.415702
vertex 11.265882 34.941193 -9.832080
endloop
endfacet
facet normal -0.303531 0.187598 -0.934171
outer loop
vertex 8.502002 30.468994 -11.325586
vertex 2.624147 30.468994 -9.415753
vertex 5.873314 35.726372 -9.415702
endloop
endfacet
facet normal -0.534576 0.330387 -0.777864
outer loop
vertex 2.624147 30.468994 -9.415753
vertex 1.265929 34.941189 -6.582841
vertex 5.873314 35.726372 -9.415702
endloop
endfacet
facet normal -0.904989 0.330385 -0.268031
outer loop
vertex -1.008575 30.468994 -4.415714
vertex -0.004476 35.726353 -1.325588
vertex 1.265929 34.941189 -6.582841
endloop
endfacet
facet normal -0.982246 0.187599 0.000000
outer loop
vertex -1.008575 30.468994 -4.415714
vertex -1.008575 30.468994 1.764539
vertex -0.004476 35.726353 -1.325588
endloop
endfacet
facet normal -0.904989 0.330385 0.268031
outer loop
vertex -1.008575 30.468994 1.764539
vertex 1.265929 34.941189 3.931666
vertex -0.004476 35.726353 -1.325588
endloop
endfacet
facet normal -0.534576 0.330387 0.777864
outer loop
vertex 2.624147 30.468994 6.764579
vertex 5.873314 35.726372 6.764527
vertex 1.265929 34.941189 3.931666
endloop
endfacet
facet normal -0.303531 0.187598 0.934171
outer loop
vertex 2.624147 30.468994 6.764579
vertex 8.502002 30.468994 8.674412
vertex 5.873314 35.726372 6.764527
endloop
endfacet
facet normal -0.024747 0.330386 0.943521
outer loop
vertex 8.502002 30.468994 8.674412
vertex 11.265882 34.941193 7.180905
vertex 5.873314 35.726372 6.764527
endloop
endfacet
facet normal 0.574602 0.330387 0.748784
outer loop
vertex 14.379856 30.468994 6.764579
vertex 15.383894 35.726357 3.674381
vertex 11.265882 34.941193 7.180905
endloop
endfacet
facet normal 0.794655 0.187595 0.577348
outer loop
vertex 14.379856 30.468994 6.764579
vertex 18.012579 30.468994 1.764539
vertex 15.383894 35.726357 3.674381
endloop
endfacet
facet normal 0.889697 0.330385 0.315095
outer loop
vertex 18.012579 30.468994 1.764539
vertex 17.446262 34.941151 -1.325588
vertex 15.383894 35.726357 3.674381
endloop
endfacet
facet normal 0.306569 0.125629 -0.943521
outer loop
vertex 14.379856 30.468994 -9.415753
vertex 8.502002 30.468994 -11.325586
vertex 11.265882 34.941193 -9.832080
endloop
endfacet
facet normal 0.303531 -0.187597 -0.934171
outer loop
vertex 14.379856 30.468994 -9.415753
vertex 11.130690 25.211618 -9.415702
vertex 8.502002 30.468994 -11.325586
endloop
endfacet
facet normal 0.024747 -0.330386 -0.943521
outer loop
vertex 11.130690 25.211618 -9.415702
vertex 5.738122 25.996796 -9.832080
vertex 8.502002 30.468994 -11.325586
endloop
endfacet
facet normal -0.802609 0.125627 -0.583127
outer loop
vertex 2.624147 30.468994 -9.415753
vertex -1.008575 30.468994 -4.415714
vertex 1.265929 34.941189 -6.582841
endloop
endfacet
facet normal -0.794655 -0.187595 -0.577348
outer loop
vertex 2.624147 30.468994 -9.415753
vertex 1.620110 25.211634 -6.325556
vertex -1.008575 30.468994 -4.415714
endloop
endfacet
facet normal -0.889697 -0.330385 -0.315094
outer loop
vertex 1.620110 25.211634 -6.325556
vertex -0.442259 25.996838 -1.325588
vertex -1.008575 30.468994 -4.415714
endloop
endfacet
facet normal -0.802609 0.125627 0.583127
outer loop
vertex -1.008575 30.468994 1.764539
vertex 2.624147 30.468994 6.764579
vertex 1.265929 34.941189 3.931666
endloop
endfacet
facet normal -0.794655 -0.187595 0.577348
outer loop
vertex -1.008575 30.468994 1.764539
vertex 1.620110 25.211634 3.674381
vertex 2.624147 30.468994 6.764579
endloop
endfacet
facet normal -0.574602 -0.330388 0.748783
outer loop
vertex 1.620110 25.211634 3.674381
vertex 5.738122 25.996796 7.180905
vertex 2.624147 30.468994 6.764579
endloop
endfacet
facet normal 0.306569 0.125629 0.943521
outer loop
vertex 8.502002 30.468994 8.674412
vertex 14.379856 30.468994 6.764579
vertex 11.265882 34.941193 7.180905
endloop
endfacet
facet normal 0.303531 -0.187598 0.934171
outer loop
vertex 8.502002 30.468994 8.674412
vertex 11.130690 25.211618 6.764527
vertex 14.379856 30.468994 6.764579
endloop
endfacet
facet normal 0.534576 -0.330387 0.777865
outer loop
vertex 11.130690 25.211618 6.764527
vertex 15.738075 25.996799 3.931666
vertex 14.379856 30.468994 6.764579
endloop
endfacet
facet normal 0.992077 0.125629 0.000000
outer loop
vertex 18.012579 30.468994 1.764539
vertex 18.012579 30.468994 -4.415714
vertex 17.446262 34.941151 -1.325588
endloop
endfacet
facet normal 0.982246 -0.187599 0.000000
outer loop
vertex 18.012579 30.468994 1.764539
vertex 17.008480 25.211636 -1.325588
vertex 18.012579 30.468994 -4.415714
endloop
endfacet
facet normal 0.904989 -0.330384 -0.268031
outer loop
vertex 17.008480 25.211636 -1.325588
vertex 15.738075 25.996799 -6.582841
vertex 18.012579 30.468994 -4.415714
endloop
endfacet
facet normal 0.471299 -0.661699 -0.583123
outer loop
vertex 12.755228 21.962454 -4.415701
vertex 11.130690 25.211618 -9.415702
vertex 15.738075 25.996799 -6.582841
endloop
endfacet
facet normal 0.187594 -0.794657 -0.577346
outer loop
vertex 12.755228 21.962454 -4.415701
vertex 6.877446 21.962452 -6.325540
vertex 11.130690 25.211618 -9.415702
endloop
endfacet
facet normal -0.038530 -0.661699 -0.748779
outer loop
vertex 6.877446 21.962452 -6.325540
vertex 5.738122 25.996796 -9.832080
vertex 11.130690 25.211618 -9.415702
endloop
endfacet
facet normal -0.408947 -0.661699 -0.628424
outer loop
vertex 6.877446 21.962452 -6.325540
vertex 1.620110 25.211634 -6.325556
vertex 5.738122 25.996796 -9.832080
endloop
endfacet
facet normal -0.491119 -0.794657 -0.356821
outer loop
vertex 6.877446 21.962452 -6.325540
vertex 3.244705 21.962479 -1.325588
vertex 1.620110 25.211634 -6.325556
endloop
endfacet
facet normal -0.724042 -0.661695 -0.194736
outer loop
vertex 3.244705 21.962479 -1.325588
vertex -0.442259 25.996838 -1.325588
vertex 1.620110 25.211634 -6.325556
endloop
endfacet
facet normal -0.724042 -0.661695 0.194736
outer loop
vertex 3.244705 21.962479 -1.325588
vertex 1.620110 25.211634 3.674381
vertex -0.442259 25.996838 -1.325588
endloop
endfacet
facet normal -0.491120 -0.794657 0.356821
outer loop
vertex 3.244705 21.962479 -1.325588
vertex 6.877446 21.962452 3.674365
vertex 1.620110 25.211634 3.674381
endloop
endfacet
facet normal -0.408947 -0.661699 0.628424
outer loop
vertex 6.877446 21.962452 3.674365
vertex 5.738122 25.996796 7.180905
vertex 1.620110 25.211634 3.674381
endloop
endfacet
facet normal 0.700224 -0.661699 -0.268032
outer loop
vertex 17.008480 25.211636 -1.325588
vertex 12.755228 21.962454 -4.415701
vertex 15.738075 25.996799 -6.582841
endloop
endfacet
facet normal 0.607060 -0.794656 0.000000
outer loop
vertex 17.008480 25.211636 -1.325588
vertex 12.755228 21.962454 1.764526
vertex 12.755228 21.962454 -4.415701
endloop
endfacet
facet normal 0.331305 -0.943524 0.000000
outer loop
vertex 12.755228 21.962454 1.764526
vertex 8.502002 20.468994 -1.325588
vertex 12.755228 21.962454 -4.415701
endloop
endfacet
facet normal -0.038530 -0.661699 0.748779
outer loop
vertex 6.877446 21.962452 3.674365
vertex 11.130690 25.211618 6.764527
vertex 5.738122 25.996796 7.180905
endloop
endfacet
facet normal 0.187594 -0.794657 0.577346
outer loop
vertex 6.877446 21.962452 3.674365
vertex 12.755228 21.962454 1.764526
vertex 11.130690 25.211618 6.764527
endloop
endfacet
facet normal 0.471299 -0.661699 0.583123
outer loop
vertex 12.755228 21.962454 1.764526
vertex 15.738075 25.996799 3.931666
vertex 11.130690 25.211618 6.764527
endloop
endfacet
endsolid Exported from Blender-2.74 (sub 0)
