solid Exported from Blender-2.74 (sub 0)
facet normal 0.102381 -0.943523 0.315090
outer loop
vertex -10.935957 39.363541 8.408990
vertex -6.682731 40.857002 11.499104
vertex -12.560513 40.856998 13.408942
endloop
endfacet
facet normal 0.700224 -0.661699 0.268032
outer loop
vertex -3.699884 44.891346 13.666243
vertex -6.682731 40.857002 11.499104
vertex -2.429480 44.106182 8.408990
endloop
endfacet
facet normal -0.268034 -0.943523 0.194736
outer loop
vertex -10.935957 39.363541 8.408990
vertex -12.560513 40.856998 13.408942
vertex -16.193254 40.857025 8.408990
endloop
endfacet
facet normal -0.268034 -0.943523 -0.194736
outer loop
vertex -10.935957 39.363541 8.408990
vertex -16.193254 40.857025 8.408990
vertex -12.560513 40.856998 3.409038
endloop
endfacet
facet normal 0.102381 -0.943523 -0.315090
outer loop
vertex -10.935957 39.363541 8.408990
vertex -12.560513 40.856998 3.409038
vertex -6.682731 40.857002 5.318876
endloop
endfacet
facet normal 0.904989 -0.330384 0.268031
outer loop
vertex -3.699884 44.891346 13.666243
vertex -2.429480 44.106182 8.408990
vertex -1.425380 49.363541 11.499116
endloop
endfacet
facet normal 0.024747 -0.330387 0.943521
outer loop
vertex -13.699837 44.891342 16.915482
vertex -8.307269 44.106163 16.499104
vertex -10.935957 49.363541 18.408989
endloop
endfacet
facet normal -0.889697 -0.330384 0.315095
outer loop
vertex -19.880219 44.891384 8.408990
vertex -17.817848 44.106178 13.408958
vertex -20.446533 49.363541 11.499116
endloop
endfacet
facet normal -0.574602 -0.330387 -0.748783
outer loop
vertex -13.699837 44.891342 -0.097503
vertex -17.817848 44.106178 3.409021
vertex -16.813812 49.363541 0.318824
endloop
endfacet
facet normal 0.534576 -0.330386 -0.777865
outer loop
vertex -3.699884 44.891346 3.151737
vertex -8.307269 44.106163 0.318875
vertex -5.058102 49.363541 0.318824
endloop
endfacet
facet normal 0.802609 -0.125627 0.583127
outer loop
vertex -3.699884 44.891346 13.666243
vertex -1.425380 49.363541 11.499116
vertex -5.058102 49.363541 16.499157
endloop
endfacet
facet normal -0.306569 -0.125629 0.943522
outer loop
vertex -13.699837 44.891342 16.915482
vertex -10.935957 49.363541 18.408989
vertex -16.813812 49.363541 16.499157
endloop
endfacet
facet normal -0.992077 -0.125628 0.000000
outer loop
vertex -19.880219 44.891384 8.408990
vertex -20.446533 49.363541 11.499116
vertex -20.446533 49.363541 5.318864
endloop
endfacet
facet normal -0.306569 -0.125628 -0.943522
outer loop
vertex -13.699837 44.891342 -0.097503
vertex -16.813812 49.363541 0.318824
vertex -10.935957 49.363541 -1.591009
endloop
endfacet
facet normal 0.802609 -0.125627 -0.583127
outer loop
vertex -3.699884 44.891346 3.151737
vertex -5.058102 49.363541 0.318824
vertex -1.425380 49.363541 5.318864
endloop
endfacet
facet normal 0.408946 0.661699 0.628424
outer loop
vertex -8.172077 53.835739 16.915482
vertex -4.054065 54.620903 13.408958
vertex -9.311401 57.870083 13.408942
endloop
endfacet
facet normal -0.471299 0.661699 0.583122
outer loop
vertex -18.172029 53.835735 13.666243
vertex -13.564645 54.620918 16.499104
vertex -15.189183 57.870079 11.499104
endloop
endfacet
facet normal -0.700224 0.661699 -0.268032
outer loop
vertex -18.172029 53.835735 3.151737
vertex -19.442434 54.620899 8.408990
vertex -15.189183 57.870079 5.318876
endloop
endfacet
facet normal 0.038530 0.661699 -0.748779
outer loop
vertex -8.172077 53.835739 -0.097503
vertex -13.564645 54.620918 0.318875
vertex -9.311401 57.870083 3.409038
endloop
endfacet
facet normal 0.724042 0.661696 -0.194736
outer loop
vertex -1.991696 53.835697 8.408990
vertex -4.054065 54.620903 3.409021
vertex -5.678660 57.870056 8.408990
endloop
endfacet
facet normal 0.268034 0.943523 -0.194736
outer loop
vertex -5.678660 57.870056 8.408990
vertex -9.311401 57.870083 3.409038
vertex -10.935957 59.363541 8.408990
endloop
endfacet
facet normal 0.491119 0.794657 -0.356822
outer loop
vertex -5.678660 57.870056 8.408990
vertex -4.054065 54.620903 3.409021
vertex -9.311401 57.870083 3.409038
endloop
endfacet
facet normal 0.408946 0.661699 -0.628425
outer loop
vertex -4.054065 54.620903 3.409021
vertex -8.172077 53.835739 -0.097503
vertex -9.311401 57.870083 3.409038
endloop
endfacet
facet normal -0.102381 0.943523 -0.315091
outer loop
vertex -9.311401 57.870083 3.409038
vertex -15.189183 57.870079 5.318876
vertex -10.935957 59.363541 8.408990
endloop
endfacet
facet normal -0.187594 0.794658 -0.577345
outer loop
vertex -9.311401 57.870083 3.409038
vertex -13.564645 54.620918 0.318875
vertex -15.189183 57.870079 5.318876
endloop
endfacet
facet normal -0.471300 0.661699 -0.583122
outer loop
vertex -13.564645 54.620918 0.318875
vertex -18.172029 53.835735 3.151737
vertex -15.189183 57.870079 5.318876
endloop
endfacet
facet normal -0.331305 0.943524 0.000000
outer loop
vertex -15.189183 57.870079 5.318876
vertex -15.189183 57.870079 11.499104
vertex -10.935957 59.363541 8.408990
endloop
endfacet
facet normal -0.607060 0.794656 0.000000
outer loop
vertex -15.189183 57.870079 5.318876
vertex -19.442434 54.620899 8.408990
vertex -15.189183 57.870079 11.499104
endloop
endfacet
facet normal -0.700224 0.661699 0.268033
outer loop
vertex -19.442434 54.620899 8.408990
vertex -18.172029 53.835735 13.666243
vertex -15.189183 57.870079 11.499104
endloop
endfacet
facet normal -0.102381 0.943523 0.315091
outer loop
vertex -15.189183 57.870079 11.499104
vertex -9.311401 57.870083 13.408942
vertex -10.935957 59.363541 8.408990
endloop
endfacet
facet normal -0.187595 0.794658 0.577345
outer loop
vertex -15.189183 57.870079 11.499104
vertex -13.564645 54.620918 16.499104
vertex -9.311401 57.870083 13.408942
endloop
endfacet
facet normal 0.038530 0.661699 0.748779
outer loop
vertex -13.564645 54.620918 16.499104
vertex -8.172077 53.835739 16.915482
vertex -9.311401 57.870083 13.408942
endloop
endfacet
facet normal 0.268034 0.943523 0.194736
outer loop
vertex -9.311401 57.870083 13.408942
vertex -5.678660 57.870056 8.408990
vertex -10.935957 59.363541 8.408990
endloop
endfacet
facet normal 0.491119 0.794657 0.356822
outer loop
vertex -9.311401 57.870083 13.408942
vertex -4.054065 54.620903 13.408958
vertex -5.678660 57.870056 8.408990
endloop
endfacet
facet normal 0.724042 0.661696 0.194736
outer loop
vertex -4.054065 54.620903 13.408958
vertex -1.991696 53.835697 8.408990
vertex -5.678660 57.870056 8.408990
endloop
endfacet
facet normal 0.889697 0.330385 -0.315095
outer loop
vertex -1.425380 49.363541 5.318864
vertex -4.054065 54.620903 3.409021
vertex -1.991696 53.835697 8.408990
endloop
endfacet
facet normal 0.794655 0.187595 -0.577348
outer loop
vertex -1.425380 49.363541 5.318864
vertex -5.058102 49.363541 0.318824
vertex -4.054065 54.620903 3.409021
endloop
endfacet
facet normal 0.574602 0.330387 -0.748783
outer loop
vertex -5.058102 49.363541 0.318824
vertex -8.172077 53.835739 -0.097503
vertex -4.054065 54.620903 3.409021
endloop
endfacet
facet normal -0.024747 0.330387 -0.943521
outer loop
vertex -10.935957 49.363541 -1.591009
vertex -13.564645 54.620918 0.318875
vertex -8.172077 53.835739 -0.097503
endloop
endfacet
facet normal -0.303531 0.187598 -0.934171
outer loop
vertex -10.935957 49.363541 -1.591009
vertex -16.813812 49.363541 0.318824
vertex -13.564645 54.620918 0.318875
endloop
endfacet
facet normal -0.534576 0.330387 -0.777864
outer loop
vertex -16.813812 49.363541 0.318824
vertex -18.172029 53.835735 3.151737
vertex -13.564645 54.620918 0.318875
endloop
endfacet
facet normal -0.904989 0.330384 -0.268031
outer loop
vertex -20.446533 49.363541 5.318864
vertex -19.442434 54.620899 8.408990
vertex -18.172029 53.835735 3.151737
endloop
endfacet
facet normal -0.982246 0.187599 0.000000
outer loop
vertex -20.446533 49.363541 5.318864
vertex -20.446533 49.363541 11.499116
vertex -19.442434 54.620899 8.408990
endloop
endfacet
facet normal -0.904989 0.330384 0.268031
outer loop
vertex -20.446533 49.363541 11.499116
vertex -18.172029 53.835735 13.666243
vertex -19.442434 54.620899 8.408990
endloop
endfacet
facet normal -0.534576 0.330387 0.777864
outer loop
vertex -16.813812 49.363541 16.499157
vertex -13.564645 54.620918 16.499104
vertex -18.172029 53.835735 13.666243
endloop
endfacet
facet normal -0.303531 0.187598 0.934171
outer loop
vertex -16.813812 49.363541 16.499157
vertex -10.935957 49.363541 18.408989
vertex -13.564645 54.620918 16.499104
endloop
endfacet
facet normal -0.024747 0.330387 0.943521
outer loop
vertex -10.935957 49.363541 18.408989
vertex -8.172077 53.835739 16.915482
vertex -13.564645 54.620918 16.499104
endloop
endfacet
facet normal 0.574602 0.330388 0.748783
outer loop
vertex -5.058102 49.363541 16.499157
vertex -4.054065 54.620903 13.408958
vertex -8.172077 53.835739 16.915482
endloop
endfacet
facet normal 0.794655 0.187595 0.577348
outer loop
vertex -5.058102 49.363541 16.499157
vertex -1.425380 49.363541 11.499116
vertex -4.054065 54.620903 13.408958
endloop
endfacet
facet normal 0.889697 0.330385 0.315095
outer loop
vertex -1.425380 49.363541 11.499116
vertex -1.991696 53.835697 8.408990
vertex -4.054065 54.620903 13.408958
endloop
endfacet
facet normal 0.306569 0.125628 -0.943522
outer loop
vertex -5.058102 49.363541 0.318824
vertex -10.935957 49.363541 -1.591009
vertex -8.172077 53.835739 -0.097503
endloop
endfacet
facet normal 0.303531 -0.187597 -0.934171
outer loop
vertex -5.058102 49.363541 0.318824
vertex -8.307269 44.106163 0.318875
vertex -10.935957 49.363541 -1.591009
endloop
endfacet
facet normal 0.024747 -0.330387 -0.943521
outer loop
vertex -8.307269 44.106163 0.318875
vertex -13.699837 44.891342 -0.097503
vertex -10.935957 49.363541 -1.591009
endloop
endfacet
facet normal -0.802609 0.125627 -0.583126
outer loop
vertex -16.813812 49.363541 0.318824
vertex -20.446533 49.363541 5.318864
vertex -18.172029 53.835735 3.151737
endloop
endfacet
facet normal -0.794655 -0.187595 -0.577348
outer loop
vertex -16.813812 49.363541 0.318824
vertex -17.817848 44.106178 3.409021
vertex -20.446533 49.363541 5.318864
endloop
endfacet
facet normal -0.889697 -0.330384 -0.315095
outer loop
vertex -17.817848 44.106178 3.409021
vertex -19.880219 44.891384 8.408990
vertex -20.446533 49.363541 5.318864
endloop
endfacet
facet normal -0.802609 0.125628 0.583126
outer loop
vertex -20.446533 49.363541 11.499116
vertex -16.813812 49.363541 16.499157
vertex -18.172029 53.835735 13.666243
endloop
endfacet
facet normal -0.794655 -0.187595 0.577348
outer loop
vertex -20.446533 49.363541 11.499116
vertex -17.817848 44.106178 13.408958
vertex -16.813812 49.363541 16.499157
endloop
endfacet
facet normal -0.574602 -0.330388 0.748783
outer loop
vertex -17.817848 44.106178 13.408958
vertex -13.699837 44.891342 16.915482
vertex -16.813812 49.363541 16.499157
endloop
endfacet
facet normal 0.306569 0.125629 0.943521
outer loop
vertex -10.935957 49.363541 18.408989
vertex -5.058102 49.363541 16.499157
vertex -8.172077 53.835739 16.915482
endloop
endfacet
facet normal 0.303531 -0.187598 0.934171
outer loop
vertex -10.935957 49.363541 18.408989
vertex -8.307269 44.106163 16.499104
vertex -5.058102 49.363541 16.499157
endloop
endfacet
facet normal 0.534576 -0.330387 0.777864
outer loop
vertex -8.307269 44.106163 16.499104
vertex -3.699884 44.891346 13.666243
vertex -5.058102 49.363541 16.499157
endloop
endfacet
facet normal 0.992077 0.125628 0.000000
outer loop
vertex -1.425380 49.363541 11.499116
vertex -1.425380 49.363541 5.318864
vertex -1.991696 53.835697 8.408990
endloop
endfacet
facet normal 0.982246 -0.187599 0.000000
outer loop
vertex -1.425380 49.363541 11.499116
vertex -2.429480 44.106182 8.408990
vertex -1.425380 49.363541 5.318864
endloop
endfacet
facet normal 0.904989 -0.330384 -0.268031
outer loop
vertex -2.429480 44.106182 8.408990
vertex -3.699884 44.891346 3.151737
vertex -1.425380 49.363541 5.318864
endloop
endfacet
facet normal 0.471300 -0.661699 -0.583122
outer loop
vertex -6.682731 40.857002 5.318876
vertex -8.307269 44.106163 0.318875
vertex -3.699884 44.891346 3.151737
endloop
endfacet
facet normal 0.187594 -0.794658 -0.577344
outer loop
vertex -6.682731 40.857002 5.318876
vertex -12.560513 40.856998 3.409038
vertex -8.307269 44.106163 0.318875
endloop
endfacet
facet normal -0.038530 -0.661699 -0.748779
outer loop
vertex -12.560513 40.856998 3.409038
vertex -13.699837 44.891342 -0.097503
vertex -8.307269 44.106163 0.318875
endloop
endfacet
facet normal -0.408946 -0.661699 -0.628424
outer loop
vertex -12.560513 40.856998 3.409038
vertex -17.817848 44.106178 3.409021
vertex -13.699837 44.891342 -0.097503
endloop
endfacet
facet normal -0.491119 -0.794657 -0.356822
outer loop
vertex -12.560513 40.856998 3.409038
vertex -16.193254 40.857025 8.408990
vertex -17.817848 44.106178 3.409021
endloop
endfacet
facet normal -0.724042 -0.661696 -0.194736
outer loop
vertex -16.193254 40.857025 8.408990
vertex -19.880219 44.891384 8.408990
vertex -17.817848 44.106178 3.409021
endloop
endfacet
facet normal -0.724042 -0.661696 0.194736
outer loop
vertex -16.193254 40.857025 8.408990
vertex -17.817848 44.106178 13.408958
vertex -19.880219 44.891384 8.408990
endloop
endfacet
facet normal -0.491120 -0.794657 0.356822
outer loop
vertex -16.193254 40.857025 8.408990
vertex -12.560513 40.856998 13.408942
vertex -17.817848 44.106178 13.408958
endloop
endfacet
facet normal -0.408946 -0.661699 0.628424
outer loop
vertex -12.560513 40.856998 13.408942
vertex -13.699837 44.891342 16.915482
vertex -17.817848 44.106178 13.408958
endloop
endfacet
facet normal 0.700224 -0.661699 -0.268032
outer loop
vertex -2.429480 44.106182 8.408990
vertex -6.682731 40.857002 5.318876
vertex -3.699884 44.891346 3.151737
endloop
endfacet
facet normal 0.607060 -0.794656 0.000000
outer loop
vertex -2.429480 44.106182 8.408990
vertex -6.682731 40.857002 11.499104
vertex -6.682731 40.857002 5.318876
endloop
endfacet
facet normal 0.331305 -0.943524 0.000000
outer loop
vertex -6.682731 40.857002 11.499104
vertex -10.935957 39.363541 8.408990
vertex -6.682731 40.857002 5.318876
endloop
endfacet
facet normal -0.038530 -0.661699 0.748779
outer loop
vertex -12.560513 40.856998 13.408942
vertex -8.307269 44.106163 16.499104
vertex -13.699837 44.891342 16.915482
endloop
endfacet
facet normal 0.187595 -0.794658 0.577345
outer loop
vertex -12.560513 40.856998 13.408942
vertex -6.682731 40.857002 11.499104
vertex -8.307269 44.106163 16.499104
endloop
endfacet
facet normal 0.471299 -0.661699 0.583122
outer loop
vertex -6.682731 40.857002 11.499104
vertex -3.699884 44.891346 13.666243
vertex -8.307269 44.106163 16.499104
endloop
endfacet
endsolid Exported from Blender-2.74 (sub 0)
