solid Exported from Blender-2.74 (sub 0)
facet normal 0.102381 -0.943524 0.315089
outer loop
vertex -15.122252 19.677971 -2.407831
vertex -10.869025 21.171431 0.682283
vertex -16.746807 21.171429 2.592122
endloop
endfacet
facet normal 0.700224 -0.661699 0.268031
outer loop
vertex -7.886178 25.205776 2.849422
vertex -10.869025 21.171431 0.682283
vertex -6.615774 24.420612 -2.407831
endloop
endfacet
facet normal -0.268034 -0.943523 0.194737
outer loop
vertex -15.122252 19.677971 -2.407831
vertex -16.746807 21.171429 2.592122
vertex -20.379549 21.171455 -2.407831
endloop
endfacet
facet normal -0.268034 -0.943523 -0.194737
outer loop
vertex -15.122252 19.677971 -2.407831
vertex -20.379549 21.171455 -2.407831
vertex -16.746807 21.171429 -7.407783
endloop
endfacet
facet normal 0.102381 -0.943524 -0.315089
outer loop
vertex -15.122252 19.677971 -2.407831
vertex -16.746807 21.171429 -7.407783
vertex -10.869025 21.171431 -5.497944
endloop
endfacet
facet normal 0.904989 -0.330385 0.268031
outer loop
vertex -7.886178 25.205776 2.849422
vertex -6.615774 24.420612 -2.407831
vertex -5.611674 29.677971 0.682296
endloop
endfacet
facet normal 0.024747 -0.330386 0.943521
outer loop
vertex -17.886131 25.205772 6.098662
vertex -12.493564 24.420595 5.682284
vertex -15.122252 29.677971 7.592168
endloop
endfacet
facet normal -0.889697 -0.330385 0.315095
outer loop
vertex -24.066513 25.205814 -2.407831
vertex -22.004143 24.420610 2.592138
vertex -24.632828 29.677971 0.682296
endloop
endfacet
facet normal -0.574602 -0.330388 -0.748783
outer loop
vertex -17.886131 25.205772 -10.914324
vertex -22.004143 24.420610 -7.407799
vertex -21.000107 29.677971 -10.497997
endloop
endfacet
facet normal 0.534576 -0.330387 -0.777865
outer loop
vertex -7.886178 25.205776 -7.665084
vertex -12.493564 24.420595 -10.497946
vertex -9.244396 29.677971 -10.497997
endloop
endfacet
facet normal 0.802609 -0.125627 0.583127
outer loop
vertex -7.886178 25.205776 2.849422
vertex -5.611674 29.677971 0.682296
vertex -9.244396 29.677971 5.682335
endloop
endfacet
facet normal -0.306569 -0.125628 0.943522
outer loop
vertex -17.886131 25.205772 6.098662
vertex -15.122252 29.677971 7.592168
vertex -21.000107 29.677971 5.682335
endloop
endfacet
facet normal -0.992077 -0.125628 0.000000
outer loop
vertex -24.066513 25.205814 -2.407831
vertex -24.632828 29.677971 0.682296
vertex -24.632828 29.677971 -5.497957
endloop
endfacet
facet normal -0.306569 -0.125628 -0.943522
outer loop
vertex -17.886131 25.205772 -10.914324
vertex -21.000107 29.677971 -10.497997
vertex -15.122252 29.677971 -12.407829
endloop
endfacet
facet normal 0.802609 -0.125627 -0.583127
outer loop
vertex -7.886178 25.205776 -7.665084
vertex -9.244396 29.677971 -10.497997
vertex -5.611674 29.677971 -5.497957
endloop
endfacet
facet normal 0.408947 0.661699 0.628424
outer loop
vertex -12.358372 34.150169 6.098662
vertex -8.240359 34.935333 2.592138
vertex -13.497696 38.184513 2.592122
endloop
endfacet
facet normal -0.471299 0.661699 0.583122
outer loop
vertex -22.358324 34.150166 2.849422
vertex -17.750938 34.935349 5.682284
vertex -19.375477 38.184509 0.682283
endloop
endfacet
facet normal -0.700223 0.661699 -0.268033
outer loop
vertex -22.358324 34.150166 -7.665084
vertex -23.628729 34.935329 -2.407831
vertex -19.375477 38.184509 -5.497944
endloop
endfacet
facet normal 0.038530 0.661699 -0.748779
outer loop
vertex -12.358372 34.150169 -10.914324
vertex -17.750938 34.935349 -10.497946
vertex -13.497696 38.184513 -7.407783
endloop
endfacet
facet normal 0.724042 0.661695 -0.194736
outer loop
vertex -6.177991 34.150127 -2.407831
vertex -8.240359 34.935333 -7.407799
vertex -9.864954 38.184486 -2.407831
endloop
endfacet
facet normal 0.268034 0.943523 -0.194735
outer loop
vertex -9.864954 38.184486 -2.407831
vertex -13.497696 38.184513 -7.407783
vertex -15.122252 39.677971 -2.407831
endloop
endfacet
facet normal 0.491119 0.794657 -0.356822
outer loop
vertex -9.864954 38.184486 -2.407831
vertex -8.240359 34.935333 -7.407799
vertex -13.497696 38.184513 -7.407783
endloop
endfacet
facet normal 0.408947 0.661699 -0.628424
outer loop
vertex -8.240359 34.935333 -7.407799
vertex -12.358372 34.150169 -10.914324
vertex -13.497696 38.184513 -7.407783
endloop
endfacet
facet normal -0.102381 0.943523 -0.315092
outer loop
vertex -13.497696 38.184513 -7.407783
vertex -19.375477 38.184509 -5.497944
vertex -15.122252 39.677971 -2.407831
endloop
endfacet
facet normal -0.187595 0.794658 -0.577345
outer loop
vertex -13.497696 38.184513 -7.407783
vertex -17.750938 34.935349 -10.497946
vertex -19.375477 38.184509 -5.497944
endloop
endfacet
facet normal -0.471300 0.661699 -0.583122
outer loop
vertex -17.750938 34.935349 -10.497946
vertex -22.358324 34.150166 -7.665084
vertex -19.375477 38.184509 -5.497944
endloop
endfacet
facet normal -0.331305 0.943524 0.000000
outer loop
vertex -19.375477 38.184509 -5.497944
vertex -19.375477 38.184509 0.682283
vertex -15.122252 39.677971 -2.407831
endloop
endfacet
facet normal -0.607060 0.794656 0.000000
outer loop
vertex -19.375477 38.184509 -5.497944
vertex -23.628729 34.935329 -2.407831
vertex -19.375477 38.184509 0.682283
endloop
endfacet
facet normal -0.700223 0.661699 0.268033
outer loop
vertex -23.628729 34.935329 -2.407831
vertex -22.358324 34.150166 2.849422
vertex -19.375477 38.184509 0.682283
endloop
endfacet
facet normal -0.102381 0.943523 0.315091
outer loop
vertex -19.375477 38.184509 0.682283
vertex -13.497696 38.184513 2.592122
vertex -15.122252 39.677971 -2.407831
endloop
endfacet
facet normal -0.187594 0.794658 0.577345
outer loop
vertex -19.375477 38.184509 0.682283
vertex -17.750938 34.935349 5.682284
vertex -13.497696 38.184513 2.592122
endloop
endfacet
facet normal 0.038530 0.661699 0.748779
outer loop
vertex -17.750938 34.935349 5.682284
vertex -12.358372 34.150169 6.098662
vertex -13.497696 38.184513 2.592122
endloop
endfacet
facet normal 0.268034 0.943523 0.194735
outer loop
vertex -13.497696 38.184513 2.592122
vertex -9.864954 38.184486 -2.407831
vertex -15.122252 39.677971 -2.407831
endloop
endfacet
facet normal 0.491119 0.794657 0.356822
outer loop
vertex -13.497696 38.184513 2.592122
vertex -8.240359 34.935333 2.592138
vertex -9.864954 38.184486 -2.407831
endloop
endfacet
facet normal 0.724042 0.661695 0.194736
outer loop
vertex -8.240359 34.935333 2.592138
vertex -6.177991 34.150127 -2.407831
vertex -9.864954 38.184486 -2.407831
endloop
endfacet
facet normal 0.889697 0.330385 -0.315095
outer loop
vertex -5.611674 29.677971 -5.497957
vertex -8.240359 34.935333 -7.407799
vertex -6.177991 34.150127 -2.407831
endloop
endfacet
facet normal 0.794656 0.187595 -0.577348
outer loop
vertex -5.611674 29.677971 -5.497957
vertex -9.244396 29.677971 -10.497997
vertex -8.240359 34.935333 -7.407799
endloop
endfacet
facet normal 0.574602 0.330388 -0.748783
outer loop
vertex -9.244396 29.677971 -10.497997
vertex -12.358372 34.150169 -10.914324
vertex -8.240359 34.935333 -7.407799
endloop
endfacet
facet normal -0.024747 0.330386 -0.943521
outer loop
vertex -15.122252 29.677971 -12.407829
vertex -17.750938 34.935349 -10.497946
vertex -12.358372 34.150169 -10.914324
endloop
endfacet
facet normal -0.303531 0.187598 -0.934171
outer loop
vertex -15.122252 29.677971 -12.407829
vertex -21.000107 29.677971 -10.497997
vertex -17.750938 34.935349 -10.497946
endloop
endfacet
facet normal -0.534576 0.330387 -0.777865
outer loop
vertex -21.000107 29.677971 -10.497997
vertex -22.358324 34.150166 -7.665084
vertex -17.750938 34.935349 -10.497946
endloop
endfacet
facet normal -0.904989 0.330384 -0.268031
outer loop
vertex -24.632828 29.677971 -5.497957
vertex -23.628729 34.935329 -2.407831
vertex -22.358324 34.150166 -7.665084
endloop
endfacet
facet normal -0.982246 0.187598 0.000000
outer loop
vertex -24.632828 29.677971 -5.497957
vertex -24.632828 29.677971 0.682296
vertex -23.628729 34.935329 -2.407831
endloop
endfacet
facet normal -0.904989 0.330384 0.268031
outer loop
vertex -24.632828 29.677971 0.682296
vertex -22.358324 34.150166 2.849422
vertex -23.628729 34.935329 -2.407831
endloop
endfacet
facet normal -0.534576 0.330386 0.777865
outer loop
vertex -21.000107 29.677971 5.682335
vertex -17.750938 34.935349 5.682284
vertex -22.358324 34.150166 2.849422
endloop
endfacet
facet normal -0.303531 0.187598 0.934171
outer loop
vertex -21.000107 29.677971 5.682335
vertex -15.122252 29.677971 7.592168
vertex -17.750938 34.935349 5.682284
endloop
endfacet
facet normal -0.024747 0.330386 0.943521
outer loop
vertex -15.122252 29.677971 7.592168
vertex -12.358372 34.150169 6.098662
vertex -17.750938 34.935349 5.682284
endloop
endfacet
facet normal 0.574602 0.330388 0.748783
outer loop
vertex -9.244396 29.677971 5.682335
vertex -8.240359 34.935333 2.592138
vertex -12.358372 34.150169 6.098662
endloop
endfacet
facet normal 0.794655 0.187595 0.577348
outer loop
vertex -9.244396 29.677971 5.682335
vertex -5.611674 29.677971 0.682296
vertex -8.240359 34.935333 2.592138
endloop
endfacet
facet normal 0.889697 0.330385 0.315095
outer loop
vertex -5.611674 29.677971 0.682296
vertex -6.177991 34.150127 -2.407831
vertex -8.240359 34.935333 2.592138
endloop
endfacet
facet normal 0.306569 0.125628 -0.943521
outer loop
vertex -9.244396 29.677971 -10.497997
vertex -15.122252 29.677971 -12.407829
vertex -12.358372 34.150169 -10.914324
endloop
endfacet
facet normal 0.303531 -0.187597 -0.934171
outer loop
vertex -9.244396 29.677971 -10.497997
vertex -12.493564 24.420595 -10.497946
vertex -15.122252 29.677971 -12.407829
endloop
endfacet
facet normal 0.024747 -0.330386 -0.943521
outer loop
vertex -12.493564 24.420595 -10.497946
vertex -17.886131 25.205772 -10.914324
vertex -15.122252 29.677971 -12.407829
endloop
endfacet
facet normal -0.802609 0.125627 -0.583127
outer loop
vertex -21.000107 29.677971 -10.497997
vertex -24.632828 29.677971 -5.497957
vertex -22.358324 34.150166 -7.665084
endloop
endfacet
facet normal -0.794656 -0.187596 -0.577348
outer loop
vertex -21.000107 29.677971 -10.497997
vertex -22.004143 24.420610 -7.407799
vertex -24.632828 29.677971 -5.497957
endloop
endfacet
facet normal -0.889697 -0.330385 -0.315095
outer loop
vertex -22.004143 24.420610 -7.407799
vertex -24.066513 25.205814 -2.407831
vertex -24.632828 29.677971 -5.497957
endloop
endfacet
facet normal -0.802609 0.125628 0.583127
outer loop
vertex -24.632828 29.677971 0.682296
vertex -21.000107 29.677971 5.682335
vertex -22.358324 34.150166 2.849422
endloop
endfacet
facet normal -0.794656 -0.187595 0.577348
outer loop
vertex -24.632828 29.677971 0.682296
vertex -22.004143 24.420610 2.592138
vertex -21.000107 29.677971 5.682335
endloop
endfacet
facet normal -0.574602 -0.330388 0.748783
outer loop
vertex -22.004143 24.420610 2.592138
vertex -17.886131 25.205772 6.098662
vertex -21.000107 29.677971 5.682335
endloop
endfacet
facet normal 0.306569 0.125629 0.943521
outer loop
vertex -15.122252 29.677971 7.592168
vertex -9.244396 29.677971 5.682335
vertex -12.358372 34.150169 6.098662
endloop
endfacet
facet normal 0.303531 -0.187597 0.934171
outer loop
vertex -15.122252 29.677971 7.592168
vertex -12.493564 24.420595 5.682284
vertex -9.244396 29.677971 5.682335
endloop
endfacet
facet normal 0.534576 -0.330386 0.777865
outer loop
vertex -12.493564 24.420595 5.682284
vertex -7.886178 25.205776 2.849422
vertex -9.244396 29.677971 5.682335
endloop
endfacet
facet normal 0.992077 0.125628 0.000000
outer loop
vertex -5.611674 29.677971 0.682296
vertex -5.611674 29.677971 -5.497957
vertex -6.177991 34.150127 -2.407831
endloop
endfacet
facet normal 0.982246 -0.187598 0.000000
outer loop
vertex -5.611674 29.677971 0.682296
vertex -6.615774 24.420612 -2.407831
vertex -5.611674 29.677971 -5.497957
endloop
endfacet
facet normal 0.904989 -0.330385 -0.268031
outer loop
vertex -6.615774 24.420612 -2.407831
vertex -7.886178 25.205776 -7.665084
vertex -5.611674 29.677971 -5.497957
endloop
endfacet
facet normal 0.471299 -0.661698 -0.583123
outer loop
vertex -10.869025 21.171431 -5.497944
vertex -12.493564 24.420595 -10.497946
vertex -7.886178 25.205776 -7.665084
endloop
endfacet
facet normal 0.187594 -0.794657 -0.577346
outer loop
vertex -10.869025 21.171431 -5.497944
vertex -16.746807 21.171429 -7.407783
vertex -12.493564 24.420595 -10.497946
endloop
endfacet
facet normal -0.038530 -0.661700 -0.748778
outer loop
vertex -16.746807 21.171429 -7.407783
vertex -17.886131 25.205772 -10.914324
vertex -12.493564 24.420595 -10.497946
endloop
endfacet
facet normal -0.408947 -0.661699 -0.628425
outer loop
vertex -16.746807 21.171429 -7.407783
vertex -22.004143 24.420610 -7.407799
vertex -17.886131 25.205772 -10.914324
endloop
endfacet
facet normal -0.491120 -0.794657 -0.356822
outer loop
vertex -16.746807 21.171429 -7.407783
vertex -20.379549 21.171455 -2.407831
vertex -22.004143 24.420610 -7.407799
endloop
endfacet
facet normal -0.724042 -0.661696 -0.194736
outer loop
vertex -20.379549 21.171455 -2.407831
vertex -24.066513 25.205814 -2.407831
vertex -22.004143 24.420610 -7.407799
endloop
endfacet
facet normal -0.724042 -0.661696 0.194736
outer loop
vertex -20.379549 21.171455 -2.407831
vertex -22.004143 24.420610 2.592138
vertex -24.066513 25.205814 -2.407831
endloop
endfacet
facet normal -0.491120 -0.794657 0.356822
outer loop
vertex -20.379549 21.171455 -2.407831
vertex -16.746807 21.171429 2.592122
vertex -22.004143 24.420610 2.592138
endloop
endfacet
facet normal -0.408947 -0.661699 0.628425
outer loop
vertex -16.746807 21.171429 2.592122
vertex -17.886131 25.205772 6.098662
vertex -22.004143 24.420610 2.592138
endloop
endfacet
facet normal 0.700224 -0.661699 -0.268031
outer loop
vertex -6.615774 24.420612 -2.407831
vertex -10.869025 21.171431 -5.497944
vertex -7.886178 25.205776 -7.665084
endloop
endfacet
facet normal 0.607060 -0.794656 0.000000
outer loop
vertex -6.615774 24.420612 -2.407831
vertex -10.869025 21.171431 0.682283
vertex -10.869025 21.171431 -5.497944
endloop
endfacet
facet normal 0.331305 -0.943524 0.000000
outer loop
vertex -10.869025 21.171431 0.682283
vertex -15.122252 19.677971 -2.407831
vertex -10.869025 21.171431 -5.497944
endloop
endfacet
facet normal -0.038530 -0.661700 0.748778
outer loop
vertex -16.746807 21.171429 2.592122
vertex -12.493564 24.420595 5.682284
vertex -17.886131 25.205772 6.098662
endloop
endfacet
facet normal 0.187594 -0.794658 0.577345
outer loop
vertex -16.746807 21.171429 2.592122
vertex -10.869025 21.171431 0.682283
vertex -12.493564 24.420595 5.682284
endloop
endfacet
facet normal 0.471299 -0.661698 0.583123
outer loop
vertex -10.869025 21.171431 0.682283
vertex -7.886178 25.205776 2.849422
vertex -12.493564 24.420595 5.682284
endloop
endfacet
endsolid Exported from Blender-2.74 (sub 0)
