solid Exported from Blender-2.74 (sub 0)
facet normal 0.102381 -0.943524 0.315089
outer loop
vertex 9.203140 23.083282 10.098615
vertex 13.456367 24.576742 13.188728
vertex 7.578585 24.576740 15.098567
endloop
endfacet
facet normal 0.700224 -0.661699 0.268032
outer loop
vertex 16.439213 28.611088 15.355867
vertex 13.456367 24.576742 13.188728
vertex 17.709618 27.825924 10.098615
endloop
endfacet
facet normal -0.268034 -0.943523 0.194736
outer loop
vertex 9.203140 23.083282 10.098615
vertex 7.578585 24.576740 15.098567
vertex 3.945843 24.576767 10.098615
endloop
endfacet
facet normal -0.268034 -0.943523 -0.194736
outer loop
vertex 9.203140 23.083282 10.098615
vertex 3.945843 24.576767 10.098615
vertex 7.578585 24.576740 5.098662
endloop
endfacet
facet normal 0.102381 -0.943524 -0.315089
outer loop
vertex 9.203140 23.083282 10.098615
vertex 7.578585 24.576740 5.098662
vertex 13.456367 24.576742 7.008501
endloop
endfacet
facet normal 0.904989 -0.330384 0.268031
outer loop
vertex 16.439213 28.611088 15.355867
vertex 17.709618 27.825924 10.098615
vertex 18.713718 33.083282 13.188741
endloop
endfacet
facet normal 0.024747 -0.330386 0.943521
outer loop
vertex 6.439260 28.611084 18.605106
vertex 11.831828 27.825907 18.188728
vertex 9.203140 33.083282 20.098614
endloop
endfacet
facet normal -0.889697 -0.330385 0.315095
outer loop
vertex 0.258880 28.611126 10.098615
vertex 2.321248 27.825922 15.098583
vertex -0.307437 33.083282 13.188741
endloop
endfacet
facet normal -0.574602 -0.330387 -0.748783
outer loop
vertex 6.439260 28.611084 1.592122
vertex 2.321248 27.825922 5.098646
vertex 3.325285 33.083282 2.008449
endloop
endfacet
facet normal 0.534576 -0.330387 -0.777865
outer loop
vertex 16.439213 28.611088 4.841362
vertex 11.831828 27.825907 2.008500
vertex 15.080996 33.083282 2.008449
endloop
endfacet
facet normal 0.802609 -0.125627 0.583127
outer loop
vertex 16.439213 28.611088 15.355867
vertex 18.713718 33.083282 13.188741
vertex 15.080996 33.083282 18.188782
endloop
endfacet
facet normal -0.306569 -0.125629 0.943522
outer loop
vertex 6.439260 28.611084 18.605106
vertex 9.203140 33.083282 20.098614
vertex 3.325285 33.083282 18.188782
endloop
endfacet
facet normal -0.992077 -0.125628 0.000000
outer loop
vertex 0.258880 28.611126 10.098615
vertex -0.307437 33.083282 13.188741
vertex -0.307437 33.083282 7.008489
endloop
endfacet
facet normal -0.306569 -0.125629 -0.943522
outer loop
vertex 6.439260 28.611084 1.592122
vertex 3.325285 33.083282 2.008449
vertex 9.203140 33.083282 0.098616
endloop
endfacet
facet normal 0.802609 -0.125627 -0.583127
outer loop
vertex 16.439213 28.611088 4.841362
vertex 15.080996 33.083282 2.008449
vertex 18.713718 33.083282 7.008489
endloop
endfacet
facet normal 0.408947 0.661699 0.628424
outer loop
vertex 11.967020 37.555481 18.605106
vertex 16.085033 38.340645 15.098583
vertex 10.827696 41.589825 15.098567
endloop
endfacet
facet normal -0.471299 0.661699 0.583122
outer loop
vertex 1.967067 37.555477 15.355867
vertex 6.574452 38.340660 18.188728
vertex 4.949914 41.589821 13.188728
endloop
endfacet
facet normal -0.700224 0.661699 -0.268032
outer loop
vertex 1.967067 37.555477 4.841362
vertex 0.696663 38.340641 10.098615
vertex 4.949914 41.589821 7.008501
endloop
endfacet
facet normal 0.038530 0.661699 -0.748779
outer loop
vertex 11.967020 37.555481 1.592122
vertex 6.574452 38.340660 2.008500
vertex 10.827696 41.589825 5.098662
endloop
endfacet
facet normal 0.724042 0.661695 -0.194736
outer loop
vertex 18.147400 37.555439 10.098615
vertex 16.085033 38.340645 5.098646
vertex 14.460438 41.589798 10.098615
endloop
endfacet
facet normal 0.268034 0.943523 -0.194736
outer loop
vertex 14.460438 41.589798 10.098615
vertex 10.827696 41.589825 5.098662
vertex 9.203140 43.083282 10.098615
endloop
endfacet
facet normal 0.491119 0.794657 -0.356822
outer loop
vertex 14.460438 41.589798 10.098615
vertex 16.085033 38.340645 5.098646
vertex 10.827696 41.589825 5.098662
endloop
endfacet
facet normal 0.408946 0.661699 -0.628424
outer loop
vertex 16.085033 38.340645 5.098646
vertex 11.967020 37.555481 1.592122
vertex 10.827696 41.589825 5.098662
endloop
endfacet
facet normal -0.102381 0.943523 -0.315091
outer loop
vertex 10.827696 41.589825 5.098662
vertex 4.949914 41.589821 7.008501
vertex 9.203140 43.083282 10.098615
endloop
endfacet
facet normal -0.187594 0.794658 -0.577345
outer loop
vertex 10.827696 41.589825 5.098662
vertex 6.574452 38.340660 2.008500
vertex 4.949914 41.589821 7.008501
endloop
endfacet
facet normal -0.471299 0.661699 -0.583122
outer loop
vertex 6.574452 38.340660 2.008500
vertex 1.967067 37.555477 4.841362
vertex 4.949914 41.589821 7.008501
endloop
endfacet
facet normal -0.331305 0.943524 0.000000
outer loop
vertex 4.949914 41.589821 7.008501
vertex 4.949914 41.589821 13.188728
vertex 9.203140 43.083282 10.098615
endloop
endfacet
facet normal -0.607060 0.794656 0.000000
outer loop
vertex 4.949914 41.589821 7.008501
vertex 0.696663 38.340641 10.098615
vertex 4.949914 41.589821 13.188728
endloop
endfacet
facet normal -0.700224 0.661699 0.268032
outer loop
vertex 0.696663 38.340641 10.098615
vertex 1.967067 37.555477 15.355867
vertex 4.949914 41.589821 13.188728
endloop
endfacet
facet normal -0.102381 0.943523 0.315091
outer loop
vertex 4.949914 41.589821 13.188728
vertex 10.827696 41.589825 15.098567
vertex 9.203140 43.083282 10.098615
endloop
endfacet
facet normal -0.187595 0.794658 0.577345
outer loop
vertex 4.949914 41.589821 13.188728
vertex 6.574452 38.340660 18.188728
vertex 10.827696 41.589825 15.098567
endloop
endfacet
facet normal 0.038530 0.661699 0.748779
outer loop
vertex 6.574452 38.340660 18.188728
vertex 11.967020 37.555481 18.605106
vertex 10.827696 41.589825 15.098567
endloop
endfacet
facet normal 0.268034 0.943523 0.194736
outer loop
vertex 10.827696 41.589825 15.098567
vertex 14.460438 41.589798 10.098615
vertex 9.203140 43.083282 10.098615
endloop
endfacet
facet normal 0.491119 0.794657 0.356822
outer loop
vertex 10.827696 41.589825 15.098567
vertex 16.085033 38.340645 15.098583
vertex 14.460438 41.589798 10.098615
endloop
endfacet
facet normal 0.724042 0.661695 0.194736
outer loop
vertex 16.085033 38.340645 15.098583
vertex 18.147400 37.555439 10.098615
vertex 14.460438 41.589798 10.098615
endloop
endfacet
facet normal 0.889697 0.330385 -0.315094
outer loop
vertex 18.713718 33.083282 7.008489
vertex 16.085033 38.340645 5.098646
vertex 18.147400 37.555439 10.098615
endloop
endfacet
facet normal 0.794656 0.187595 -0.577348
outer loop
vertex 18.713718 33.083282 7.008489
vertex 15.080996 33.083282 2.008449
vertex 16.085033 38.340645 5.098646
endloop
endfacet
facet normal 0.574602 0.330387 -0.748784
outer loop
vertex 15.080996 33.083282 2.008449
vertex 11.967020 37.555481 1.592122
vertex 16.085033 38.340645 5.098646
endloop
endfacet
facet normal -0.024747 0.330386 -0.943521
outer loop
vertex 9.203140 33.083282 0.098616
vertex 6.574452 38.340660 2.008500
vertex 11.967020 37.555481 1.592122
endloop
endfacet
facet normal -0.303531 0.187598 -0.934171
outer loop
vertex 9.203140 33.083282 0.098616
vertex 3.325285 33.083282 2.008449
vertex 6.574452 38.340660 2.008500
endloop
endfacet
facet normal -0.534576 0.330387 -0.777864
outer loop
vertex 3.325285 33.083282 2.008449
vertex 1.967067 37.555477 4.841362
vertex 6.574452 38.340660 2.008500
endloop
endfacet
facet normal -0.904989 0.330384 -0.268030
outer loop
vertex -0.307437 33.083282 7.008489
vertex 0.696663 38.340641 10.098615
vertex 1.967067 37.555477 4.841362
endloop
endfacet
facet normal -0.982246 0.187599 0.000000
outer loop
vertex -0.307437 33.083282 7.008489
vertex -0.307437 33.083282 13.188741
vertex 0.696663 38.340641 10.098615
endloop
endfacet
facet normal -0.904989 0.330384 0.268030
outer loop
vertex -0.307437 33.083282 13.188741
vertex 1.967067 37.555477 15.355867
vertex 0.696663 38.340641 10.098615
endloop
endfacet
facet normal -0.534577 0.330387 0.777864
outer loop
vertex 3.325285 33.083282 18.188782
vertex 6.574452 38.340660 18.188728
vertex 1.967067 37.555477 15.355867
endloop
endfacet
facet normal -0.303531 0.187598 0.934171
outer loop
vertex 3.325285 33.083282 18.188782
vertex 9.203140 33.083282 20.098614
vertex 6.574452 38.340660 18.188728
endloop
endfacet
facet normal -0.024747 0.330386 0.943521
outer loop
vertex 9.203140 33.083282 20.098614
vertex 11.967020 37.555481 18.605106
vertex 6.574452 38.340660 18.188728
endloop
endfacet
facet normal 0.574602 0.330388 0.748784
outer loop
vertex 15.080996 33.083282 18.188782
vertex 16.085033 38.340645 15.098583
vertex 11.967020 37.555481 18.605106
endloop
endfacet
facet normal 0.794656 0.187595 0.577348
outer loop
vertex 15.080996 33.083282 18.188782
vertex 18.713718 33.083282 13.188741
vertex 16.085033 38.340645 15.098583
endloop
endfacet
facet normal 0.889697 0.330385 0.315094
outer loop
vertex 18.713718 33.083282 13.188741
vertex 18.147400 37.555439 10.098615
vertex 16.085033 38.340645 15.098583
endloop
endfacet
facet normal 0.306569 0.125628 -0.943521
outer loop
vertex 15.080996 33.083282 2.008449
vertex 9.203140 33.083282 0.098616
vertex 11.967020 37.555481 1.592122
endloop
endfacet
facet normal 0.303531 -0.187597 -0.934171
outer loop
vertex 15.080996 33.083282 2.008449
vertex 11.831828 27.825907 2.008500
vertex 9.203140 33.083282 0.098616
endloop
endfacet
facet normal 0.024747 -0.330386 -0.943521
outer loop
vertex 11.831828 27.825907 2.008500
vertex 6.439260 28.611084 1.592122
vertex 9.203140 33.083282 0.098616
endloop
endfacet
facet normal -0.802609 0.125627 -0.583127
outer loop
vertex 3.325285 33.083282 2.008449
vertex -0.307437 33.083282 7.008489
vertex 1.967067 37.555477 4.841362
endloop
endfacet
facet normal -0.794656 -0.187595 -0.577348
outer loop
vertex 3.325285 33.083282 2.008449
vertex 2.321248 27.825922 5.098646
vertex -0.307437 33.083282 7.008489
endloop
endfacet
facet normal -0.889697 -0.330385 -0.315095
outer loop
vertex 2.321248 27.825922 5.098646
vertex 0.258880 28.611126 10.098615
vertex -0.307437 33.083282 7.008489
endloop
endfacet
facet normal -0.802608 0.125627 0.583127
outer loop
vertex -0.307437 33.083282 13.188741
vertex 3.325285 33.083282 18.188782
vertex 1.967067 37.555477 15.355867
endloop
endfacet
facet normal -0.794656 -0.187595 0.577348
outer loop
vertex -0.307437 33.083282 13.188741
vertex 2.321248 27.825922 15.098583
vertex 3.325285 33.083282 18.188782
endloop
endfacet
facet normal -0.574602 -0.330388 0.748783
outer loop
vertex 2.321248 27.825922 15.098583
vertex 6.439260 28.611084 18.605106
vertex 3.325285 33.083282 18.188782
endloop
endfacet
facet normal 0.306569 0.125629 0.943522
outer loop
vertex 9.203140 33.083282 20.098614
vertex 15.080996 33.083282 18.188782
vertex 11.967020 37.555481 18.605106
endloop
endfacet
facet normal 0.303531 -0.187598 0.934171
outer loop
vertex 9.203140 33.083282 20.098614
vertex 11.831828 27.825907 18.188728
vertex 15.080996 33.083282 18.188782
endloop
endfacet
facet normal 0.534576 -0.330387 0.777864
outer loop
vertex 11.831828 27.825907 18.188728
vertex 16.439213 28.611088 15.355867
vertex 15.080996 33.083282 18.188782
endloop
endfacet
facet normal 0.992077 0.125629 0.000000
outer loop
vertex 18.713718 33.083282 13.188741
vertex 18.713718 33.083282 7.008489
vertex 18.147400 37.555439 10.098615
endloop
endfacet
facet normal 0.982246 -0.187599 0.000000
outer loop
vertex 18.713718 33.083282 13.188741
vertex 17.709618 27.825924 10.098615
vertex 18.713718 33.083282 7.008489
endloop
endfacet
facet normal 0.904989 -0.330384 -0.268031
outer loop
vertex 17.709618 27.825924 10.098615
vertex 16.439213 28.611088 4.841362
vertex 18.713718 33.083282 7.008489
endloop
endfacet
facet normal 0.471299 -0.661699 -0.583123
outer loop
vertex 13.456367 24.576742 7.008501
vertex 11.831828 27.825907 2.008500
vertex 16.439213 28.611088 4.841362
endloop
endfacet
facet normal 0.187594 -0.794657 -0.577346
outer loop
vertex 13.456367 24.576742 7.008501
vertex 7.578585 24.576740 5.098662
vertex 11.831828 27.825907 2.008500
endloop
endfacet
facet normal -0.038530 -0.661699 -0.748778
outer loop
vertex 7.578585 24.576740 5.098662
vertex 6.439260 28.611084 1.592122
vertex 11.831828 27.825907 2.008500
endloop
endfacet
facet normal -0.408947 -0.661699 -0.628424
outer loop
vertex 7.578585 24.576740 5.098662
vertex 2.321248 27.825922 5.098646
vertex 6.439260 28.611084 1.592122
endloop
endfacet
facet normal -0.491120 -0.794657 -0.356821
outer loop
vertex 7.578585 24.576740 5.098662
vertex 3.945843 24.576767 10.098615
vertex 2.321248 27.825922 5.098646
endloop
endfacet
facet normal -0.724042 -0.661695 -0.194737
outer loop
vertex 3.945843 24.576767 10.098615
vertex 0.258880 28.611126 10.098615
vertex 2.321248 27.825922 5.098646
endloop
endfacet
facet normal -0.724042 -0.661695 0.194737
outer loop
vertex 3.945843 24.576767 10.098615
vertex 2.321248 27.825922 15.098583
vertex 0.258880 28.611126 10.098615
endloop
endfacet
facet normal -0.491120 -0.794657 0.356822
outer loop
vertex 3.945843 24.576767 10.098615
vertex 7.578585 24.576740 15.098567
vertex 2.321248 27.825922 15.098583
endloop
endfacet
facet normal -0.408947 -0.661699 0.628425
outer loop
vertex 7.578585 24.576740 15.098567
vertex 6.439260 28.611084 18.605106
vertex 2.321248 27.825922 15.098583
endloop
endfacet
facet normal 0.700224 -0.661699 -0.268031
outer loop
vertex 17.709618 27.825924 10.098615
vertex 13.456367 24.576742 7.008501
vertex 16.439213 28.611088 4.841362
endloop
endfacet
facet normal 0.607060 -0.794656 0.000000
outer loop
vertex 17.709618 27.825924 10.098615
vertex 13.456367 24.576742 13.188728
vertex 13.456367 24.576742 7.008501
endloop
endfacet
facet normal 0.331305 -0.943524 0.000000
outer loop
vertex 13.456367 24.576742 13.188728
vertex 9.203140 23.083282 10.098615
vertex 13.456367 24.576742 7.008501
endloop
endfacet
facet normal -0.038530 -0.661699 0.748779
outer loop
vertex 7.578585 24.576740 15.098567
vertex 11.831828 27.825907 18.188728
vertex 6.439260 28.611084 18.605106
endloop
endfacet
facet normal 0.187594 -0.794657 0.577346
outer loop
vertex 7.578585 24.576740 15.098567
vertex 13.456367 24.576742 13.188728
vertex 11.831828 27.825907 18.188728
endloop
endfacet
facet normal 0.471299 -0.661699 0.583123
outer loop
vertex 13.456367 24.576742 13.188728
vertex 16.439213 28.611088 15.355867
vertex 11.831828 27.825907 18.188728
endloop
endfacet
endsolid Exported from Blender-2.74 (sub 0)
