solid Exported from Blender-2.74 (sub 0)
facet normal 0.102381 -0.943523 0.315091
outer loop
vertex 13.577944 34.076950 -6.744541
vertex 17.831169 35.570412 -3.654428
vertex 11.953388 35.570408 -1.744589
endloop
endfacet
facet normal 0.700223 -0.661699 0.268033
outer loop
vertex 20.814016 39.604755 -1.487288
vertex 17.831169 35.570412 -3.654428
vertex 22.084421 38.819592 -6.744541
endloop
endfacet
facet normal -0.268034 -0.943523 0.194736
outer loop
vertex 13.577944 34.076950 -6.744541
vertex 11.953388 35.570408 -1.744589
vertex 8.320646 35.570435 -6.744541
endloop
endfacet
facet normal -0.268034 -0.943523 -0.194736
outer loop
vertex 13.577944 34.076950 -6.744541
vertex 8.320646 35.570435 -6.744541
vertex 11.953388 35.570408 -11.744493
endloop
endfacet
facet normal 0.102381 -0.943523 -0.315091
outer loop
vertex 13.577944 34.076950 -6.744541
vertex 11.953388 35.570408 -11.744493
vertex 17.831169 35.570412 -9.834655
endloop
endfacet
facet normal 0.904989 -0.330384 0.268031
outer loop
vertex 20.814016 39.604755 -1.487288
vertex 22.084421 38.819592 -6.744541
vertex 23.088520 44.076950 -3.654415
endloop
endfacet
facet normal 0.024747 -0.330386 0.943521
outer loop
vertex 10.814064 39.604752 1.761951
vertex 16.206631 38.819572 1.345573
vertex 13.577944 44.076950 3.255458
endloop
endfacet
facet normal -0.889697 -0.330385 0.315095
outer loop
vertex 4.633683 39.604794 -6.744541
vertex 6.696052 38.819588 -1.744573
vertex 4.067367 44.076950 -3.654415
endloop
endfacet
facet normal -0.574602 -0.330387 -0.748784
outer loop
vertex 10.814064 39.604752 -15.251034
vertex 6.696052 38.819588 -11.744510
vertex 7.700089 44.076950 -14.834707
endloop
endfacet
facet normal 0.534576 -0.330387 -0.777864
outer loop
vertex 20.814016 39.604755 -12.001795
vertex 16.206631 38.819572 -14.834656
vertex 19.455799 44.076950 -14.834707
endloop
endfacet
facet normal 0.802608 -0.125628 0.583127
outer loop
vertex 20.814016 39.604755 -1.487288
vertex 23.088520 44.076950 -3.654415
vertex 19.455799 44.076950 1.345625
endloop
endfacet
facet normal -0.306569 -0.125628 0.943522
outer loop
vertex 10.814064 39.604752 1.761951
vertex 13.577944 44.076950 3.255458
vertex 7.700089 44.076950 1.345625
endloop
endfacet
facet normal -0.992077 -0.125628 0.000000
outer loop
vertex 4.633683 39.604794 -6.744541
vertex 4.067367 44.076950 -3.654415
vertex 4.067367 44.076950 -9.834667
endloop
endfacet
facet normal -0.306569 -0.125629 -0.943521
outer loop
vertex 10.814064 39.604752 -15.251034
vertex 7.700089 44.076950 -14.834707
vertex 13.577944 44.076950 -16.744541
endloop
endfacet
facet normal 0.802608 -0.125627 -0.583127
outer loop
vertex 20.814016 39.604755 -12.001795
vertex 19.455799 44.076950 -14.834707
vertex 23.088520 44.076950 -9.834667
endloop
endfacet
facet normal 0.408947 0.661699 0.628424
outer loop
vertex 16.341824 48.549149 1.761951
vertex 20.459835 49.334312 -1.744573
vertex 15.202499 52.583492 -1.744589
endloop
endfacet
facet normal -0.471299 0.661699 0.583122
outer loop
vertex 6.341871 48.549145 -1.487288
vertex 10.949256 49.334328 1.345573
vertex 9.324718 52.583488 -3.654428
endloop
endfacet
facet normal -0.700224 0.661699 -0.268032
outer loop
vertex 6.341871 48.549145 -12.001795
vertex 5.071466 49.334309 -6.744541
vertex 9.324718 52.583488 -9.834655
endloop
endfacet
facet normal 0.038531 0.661699 -0.748779
outer loop
vertex 16.341824 48.549149 -15.251034
vertex 10.949256 49.334328 -14.834656
vertex 15.202499 52.583492 -11.744493
endloop
endfacet
facet normal 0.724042 0.661696 -0.194735
outer loop
vertex 22.522205 48.549107 -6.744541
vertex 20.459835 49.334312 -11.744510
vertex 18.835241 52.583466 -6.744541
endloop
endfacet
facet normal 0.268034 0.943523 -0.194736
outer loop
vertex 18.835241 52.583466 -6.744541
vertex 15.202499 52.583492 -11.744493
vertex 13.577944 54.076950 -6.744541
endloop
endfacet
facet normal 0.491119 0.794657 -0.356821
outer loop
vertex 18.835241 52.583466 -6.744541
vertex 20.459835 49.334312 -11.744510
vertex 15.202499 52.583492 -11.744493
endloop
endfacet
facet normal 0.408946 0.661699 -0.628425
outer loop
vertex 20.459835 49.334312 -11.744510
vertex 16.341824 48.549149 -15.251034
vertex 15.202499 52.583492 -11.744493
endloop
endfacet
facet normal -0.102381 0.943523 -0.315090
outer loop
vertex 15.202499 52.583492 -11.744493
vertex 9.324718 52.583488 -9.834655
vertex 13.577944 54.076950 -6.744541
endloop
endfacet
facet normal -0.187594 0.794658 -0.577345
outer loop
vertex 15.202499 52.583492 -11.744493
vertex 10.949256 49.334328 -14.834656
vertex 9.324718 52.583488 -9.834655
endloop
endfacet
facet normal -0.471299 0.661699 -0.583123
outer loop
vertex 10.949256 49.334328 -14.834656
vertex 6.341871 48.549145 -12.001795
vertex 9.324718 52.583488 -9.834655
endloop
endfacet
facet normal -0.331305 0.943524 0.000000
outer loop
vertex 9.324718 52.583488 -9.834655
vertex 9.324718 52.583488 -3.654428
vertex 13.577944 54.076950 -6.744541
endloop
endfacet
facet normal -0.607060 0.794656 0.000000
outer loop
vertex 9.324718 52.583488 -9.834655
vertex 5.071466 49.334309 -6.744541
vertex 9.324718 52.583488 -3.654428
endloop
endfacet
facet normal -0.700224 0.661699 0.268032
outer loop
vertex 5.071466 49.334309 -6.744541
vertex 6.341871 48.549145 -1.487288
vertex 9.324718 52.583488 -3.654428
endloop
endfacet
facet normal -0.102381 0.943523 0.315090
outer loop
vertex 9.324718 52.583488 -3.654428
vertex 15.202499 52.583492 -1.744589
vertex 13.577944 54.076950 -6.744541
endloop
endfacet
facet normal -0.187594 0.794658 0.577345
outer loop
vertex 9.324718 52.583488 -3.654428
vertex 10.949256 49.334328 1.345573
vertex 15.202499 52.583492 -1.744589
endloop
endfacet
facet normal 0.038530 0.661699 0.748779
outer loop
vertex 10.949256 49.334328 1.345573
vertex 16.341824 48.549149 1.761951
vertex 15.202499 52.583492 -1.744589
endloop
endfacet
facet normal 0.268034 0.943523 0.194736
outer loop
vertex 15.202499 52.583492 -1.744589
vertex 18.835241 52.583466 -6.744541
vertex 13.577944 54.076950 -6.744541
endloop
endfacet
facet normal 0.491119 0.794657 0.356822
outer loop
vertex 15.202499 52.583492 -1.744589
vertex 20.459835 49.334312 -1.744573
vertex 18.835241 52.583466 -6.744541
endloop
endfacet
facet normal 0.724042 0.661696 0.194736
outer loop
vertex 20.459835 49.334312 -1.744573
vertex 22.522205 48.549107 -6.744541
vertex 18.835241 52.583466 -6.744541
endloop
endfacet
facet normal 0.889697 0.330385 -0.315095
outer loop
vertex 23.088520 44.076950 -9.834667
vertex 20.459835 49.334312 -11.744510
vertex 22.522205 48.549107 -6.744541
endloop
endfacet
facet normal 0.794656 0.187595 -0.577348
outer loop
vertex 23.088520 44.076950 -9.834667
vertex 19.455799 44.076950 -14.834707
vertex 20.459835 49.334312 -11.744510
endloop
endfacet
facet normal 0.574602 0.330388 -0.748783
outer loop
vertex 19.455799 44.076950 -14.834707
vertex 16.341824 48.549149 -15.251034
vertex 20.459835 49.334312 -11.744510
endloop
endfacet
facet normal -0.024747 0.330387 -0.943521
outer loop
vertex 13.577944 44.076950 -16.744541
vertex 10.949256 49.334328 -14.834656
vertex 16.341824 48.549149 -15.251034
endloop
endfacet
facet normal -0.303531 0.187598 -0.934171
outer loop
vertex 13.577944 44.076950 -16.744541
vertex 7.700089 44.076950 -14.834707
vertex 10.949256 49.334328 -14.834656
endloop
endfacet
facet normal -0.534576 0.330387 -0.777864
outer loop
vertex 7.700089 44.076950 -14.834707
vertex 6.341871 48.549145 -12.001795
vertex 10.949256 49.334328 -14.834656
endloop
endfacet
facet normal -0.904989 0.330385 -0.268031
outer loop
vertex 4.067367 44.076950 -9.834667
vertex 5.071466 49.334309 -6.744541
vertex 6.341871 48.549145 -12.001795
endloop
endfacet
facet normal -0.982246 0.187599 0.000000
outer loop
vertex 4.067367 44.076950 -9.834667
vertex 4.067367 44.076950 -3.654415
vertex 5.071466 49.334309 -6.744541
endloop
endfacet
facet normal -0.904989 0.330385 0.268031
outer loop
vertex 4.067367 44.076950 -3.654415
vertex 6.341871 48.549145 -1.487288
vertex 5.071466 49.334309 -6.744541
endloop
endfacet
facet normal -0.534576 0.330387 0.777864
outer loop
vertex 7.700089 44.076950 1.345625
vertex 10.949256 49.334328 1.345573
vertex 6.341871 48.549145 -1.487288
endloop
endfacet
facet normal -0.303531 0.187597 0.934171
outer loop
vertex 7.700089 44.076950 1.345625
vertex 13.577944 44.076950 3.255458
vertex 10.949256 49.334328 1.345573
endloop
endfacet
facet normal -0.024747 0.330387 0.943521
outer loop
vertex 13.577944 44.076950 3.255458
vertex 16.341824 48.549149 1.761951
vertex 10.949256 49.334328 1.345573
endloop
endfacet
facet normal 0.574602 0.330388 0.748783
outer loop
vertex 19.455799 44.076950 1.345625
vertex 20.459835 49.334312 -1.744573
vertex 16.341824 48.549149 1.761951
endloop
endfacet
facet normal 0.794656 0.187595 0.577348
outer loop
vertex 19.455799 44.076950 1.345625
vertex 23.088520 44.076950 -3.654415
vertex 20.459835 49.334312 -1.744573
endloop
endfacet
facet normal 0.889697 0.330385 0.315095
outer loop
vertex 23.088520 44.076950 -3.654415
vertex 22.522205 48.549107 -6.744541
vertex 20.459835 49.334312 -1.744573
endloop
endfacet
facet normal 0.306569 0.125629 -0.943521
outer loop
vertex 19.455799 44.076950 -14.834707
vertex 13.577944 44.076950 -16.744541
vertex 16.341824 48.549149 -15.251034
endloop
endfacet
facet normal 0.303531 -0.187598 -0.934171
outer loop
vertex 19.455799 44.076950 -14.834707
vertex 16.206631 38.819572 -14.834656
vertex 13.577944 44.076950 -16.744541
endloop
endfacet
facet normal 0.024747 -0.330386 -0.943521
outer loop
vertex 16.206631 38.819572 -14.834656
vertex 10.814064 39.604752 -15.251034
vertex 13.577944 44.076950 -16.744541
endloop
endfacet
facet normal -0.802609 0.125627 -0.583127
outer loop
vertex 7.700089 44.076950 -14.834707
vertex 4.067367 44.076950 -9.834667
vertex 6.341871 48.549145 -12.001795
endloop
endfacet
facet normal -0.794656 -0.187595 -0.577348
outer loop
vertex 7.700089 44.076950 -14.834707
vertex 6.696052 38.819588 -11.744510
vertex 4.067367 44.076950 -9.834667
endloop
endfacet
facet normal -0.889697 -0.330385 -0.315095
outer loop
vertex 6.696052 38.819588 -11.744510
vertex 4.633683 39.604794 -6.744541
vertex 4.067367 44.076950 -9.834667
endloop
endfacet
facet normal -0.802609 0.125627 0.583127
outer loop
vertex 4.067367 44.076950 -3.654415
vertex 7.700089 44.076950 1.345625
vertex 6.341871 48.549145 -1.487288
endloop
endfacet
facet normal -0.794656 -0.187595 0.577348
outer loop
vertex 4.067367 44.076950 -3.654415
vertex 6.696052 38.819588 -1.744573
vertex 7.700089 44.076950 1.345625
endloop
endfacet
facet normal -0.574602 -0.330387 0.748784
outer loop
vertex 6.696052 38.819588 -1.744573
vertex 10.814064 39.604752 1.761951
vertex 7.700089 44.076950 1.345625
endloop
endfacet
facet normal 0.306569 0.125629 0.943521
outer loop
vertex 13.577944 44.076950 3.255458
vertex 19.455799 44.076950 1.345625
vertex 16.341824 48.549149 1.761951
endloop
endfacet
facet normal 0.303531 -0.187598 0.934171
outer loop
vertex 13.577944 44.076950 3.255458
vertex 16.206631 38.819572 1.345573
vertex 19.455799 44.076950 1.345625
endloop
endfacet
facet normal 0.534576 -0.330387 0.777864
outer loop
vertex 16.206631 38.819572 1.345573
vertex 20.814016 39.604755 -1.487288
vertex 19.455799 44.076950 1.345625
endloop
endfacet
facet normal 0.992077 0.125628 0.000000
outer loop
vertex 23.088520 44.076950 -3.654415
vertex 23.088520 44.076950 -9.834667
vertex 22.522205 48.549107 -6.744541
endloop
endfacet
facet normal 0.982246 -0.187597 0.000000
outer loop
vertex 23.088520 44.076950 -3.654415
vertex 22.084421 38.819592 -6.744541
vertex 23.088520 44.076950 -9.834667
endloop
endfacet
facet normal 0.904989 -0.330384 -0.268030
outer loop
vertex 22.084421 38.819592 -6.744541
vertex 20.814016 39.604755 -12.001795
vertex 23.088520 44.076950 -9.834667
endloop
endfacet
facet normal 0.471299 -0.661699 -0.583122
outer loop
vertex 17.831169 35.570412 -9.834655
vertex 16.206631 38.819572 -14.834656
vertex 20.814016 39.604755 -12.001795
endloop
endfacet
facet normal 0.187594 -0.794658 -0.577345
outer loop
vertex 17.831169 35.570412 -9.834655
vertex 11.953388 35.570408 -11.744493
vertex 16.206631 38.819572 -14.834656
endloop
endfacet
facet normal -0.038530 -0.661699 -0.748779
outer loop
vertex 11.953388 35.570408 -11.744493
vertex 10.814064 39.604752 -15.251034
vertex 16.206631 38.819572 -14.834656
endloop
endfacet
facet normal -0.408947 -0.661699 -0.628424
outer loop
vertex 11.953388 35.570408 -11.744493
vertex 6.696052 38.819588 -11.744510
vertex 10.814064 39.604752 -15.251034
endloop
endfacet
facet normal -0.491119 -0.794658 -0.356822
outer loop
vertex 11.953388 35.570408 -11.744493
vertex 8.320646 35.570435 -6.744541
vertex 6.696052 38.819588 -11.744510
endloop
endfacet
facet normal -0.724042 -0.661695 -0.194736
outer loop
vertex 8.320646 35.570435 -6.744541
vertex 4.633683 39.604794 -6.744541
vertex 6.696052 38.819588 -11.744510
endloop
endfacet
facet normal -0.724042 -0.661695 0.194736
outer loop
vertex 8.320646 35.570435 -6.744541
vertex 6.696052 38.819588 -1.744573
vertex 4.633683 39.604794 -6.744541
endloop
endfacet
facet normal -0.491119 -0.794657 0.356822
outer loop
vertex 8.320646 35.570435 -6.744541
vertex 11.953388 35.570408 -1.744589
vertex 6.696052 38.819588 -1.744573
endloop
endfacet
facet normal -0.408947 -0.661699 0.628424
outer loop
vertex 11.953388 35.570408 -1.744589
vertex 10.814064 39.604752 1.761951
vertex 6.696052 38.819588 -1.744573
endloop
endfacet
facet normal 0.700223 -0.661699 -0.268033
outer loop
vertex 22.084421 38.819592 -6.744541
vertex 17.831169 35.570412 -9.834655
vertex 20.814016 39.604755 -12.001795
endloop
endfacet
facet normal 0.607060 -0.794656 0.000000
outer loop
vertex 22.084421 38.819592 -6.744541
vertex 17.831169 35.570412 -3.654428
vertex 17.831169 35.570412 -9.834655
endloop
endfacet
facet normal 0.331305 -0.943524 0.000000
outer loop
vertex 17.831169 35.570412 -3.654428
vertex 13.577944 34.076950 -6.744541
vertex 17.831169 35.570412 -9.834655
endloop
endfacet
facet normal -0.038530 -0.661699 0.748779
outer loop
vertex 11.953388 35.570408 -1.744589
vertex 16.206631 38.819572 1.345573
vertex 10.814064 39.604752 1.761951
endloop
endfacet
facet normal 0.187595 -0.794658 0.577345
outer loop
vertex 11.953388 35.570408 -1.744589
vertex 17.831169 35.570412 -3.654428
vertex 16.206631 38.819572 1.345573
endloop
endfacet
facet normal 0.471299 -0.661699 0.583122
outer loop
vertex 17.831169 35.570412 -3.654428
vertex 20.814016 39.604755 -1.487288
vertex 16.206631 38.819572 1.345573
endloop
endfacet
endsolid Exported from Blender-2.74 (sub 0)
