solid Exported from Blender-2.74 (sub 0)
facet normal 0.102381 -0.943524 0.315089
outer loop
vertex -1.140525 29.436005 -16.336134
vertex 3.112702 30.929464 -13.246020
vertex -2.765080 30.929462 -11.336182
endloop
endfacet
facet normal 0.700224 -0.661699 0.268031
outer loop
vertex 6.095549 34.963810 -11.078880
vertex 3.112702 30.929464 -13.246020
vertex 7.365952 34.178646 -16.336134
endloop
endfacet
facet normal -0.268034 -0.943523 0.194737
outer loop
vertex -1.140525 29.436005 -16.336134
vertex -2.765080 30.929462 -11.336182
vertex -6.397821 30.929489 -16.336134
endloop
endfacet
facet normal -0.268034 -0.943523 -0.194737
outer loop
vertex -1.140525 29.436005 -16.336134
vertex -6.397821 30.929489 -16.336134
vertex -2.765080 30.929462 -21.336086
endloop
endfacet
facet normal 0.102381 -0.943524 -0.315089
outer loop
vertex -1.140525 29.436005 -16.336134
vertex -2.765080 30.929462 -21.336086
vertex 3.112702 30.929464 -19.426247
endloop
endfacet
facet normal 0.904989 -0.330385 0.268030
outer loop
vertex 6.095549 34.963810 -11.078880
vertex 7.365952 34.178646 -16.336134
vertex 8.370052 39.436005 -13.246008
endloop
endfacet
facet normal 0.024747 -0.330386 0.943521
outer loop
vertex -3.904405 34.963806 -7.829641
vertex 1.488163 34.178627 -8.246019
vertex -1.140525 39.436005 -6.336135
endloop
endfacet
facet normal -0.889697 -0.330384 0.315095
outer loop
vertex -10.084785 34.963848 -16.336134
vertex -8.022417 34.178642 -11.336165
vertex -10.651102 39.436005 -13.246008
endloop
endfacet
facet normal -0.574602 -0.330387 -0.748783
outer loop
vertex -3.904405 34.963806 -24.842627
vertex -8.022417 34.178642 -21.336102
vertex -7.018379 39.436005 -24.426300
endloop
endfacet
facet normal 0.534575 -0.330387 -0.777865
outer loop
vertex 6.095549 34.963810 -21.593388
vertex 1.488163 34.178627 -24.426249
vertex 4.737330 39.436005 -24.426300
endloop
endfacet
facet normal 0.802609 -0.125627 0.583127
outer loop
vertex 6.095549 34.963810 -11.078880
vertex 8.370052 39.436005 -13.246008
vertex 4.737330 39.436005 -8.245968
endloop
endfacet
facet normal -0.306570 -0.125629 0.943521
outer loop
vertex -3.904405 34.963806 -7.829641
vertex -1.140525 39.436005 -6.336135
vertex -7.018379 39.436005 -8.245968
endloop
endfacet
facet normal -0.992077 -0.125628 0.000000
outer loop
vertex -10.084785 34.963848 -16.336134
vertex -10.651102 39.436005 -13.246008
vertex -10.651102 39.436005 -19.426260
endloop
endfacet
facet normal -0.306569 -0.125628 -0.943522
outer loop
vertex -3.904405 34.963806 -24.842627
vertex -7.018379 39.436005 -24.426300
vertex -1.140525 39.436005 -26.336132
endloop
endfacet
facet normal 0.802609 -0.125627 -0.583127
outer loop
vertex 6.095549 34.963810 -21.593388
vertex 4.737330 39.436005 -24.426300
vertex 8.370052 39.436005 -19.426260
endloop
endfacet
facet normal 0.408946 0.661699 0.628424
outer loop
vertex 1.623355 43.908203 -7.829641
vertex 5.741367 44.693367 -11.336165
vertex 0.484031 47.942547 -11.336182
endloop
endfacet
facet normal -0.471300 0.661699 0.583122
outer loop
vertex -8.376597 43.908199 -11.078880
vertex -3.769212 44.693382 -8.246019
vertex -5.393751 47.942543 -13.246020
endloop
endfacet
facet normal -0.700224 0.661699 -0.268033
outer loop
vertex -8.376597 43.908199 -21.593388
vertex -9.647002 44.693363 -16.336134
vertex -5.393751 47.942543 -19.426247
endloop
endfacet
facet normal 0.038530 0.661699 -0.748779
outer loop
vertex 1.623355 43.908203 -24.842627
vertex -3.769212 44.693382 -24.426249
vertex 0.484031 47.942547 -21.336086
endloop
endfacet
facet normal 0.724042 0.661696 -0.194735
outer loop
vertex 7.803736 43.908161 -16.336134
vertex 5.741367 44.693367 -21.336102
vertex 4.116773 47.942520 -16.336134
endloop
endfacet
facet normal 0.268034 0.943523 -0.194736
outer loop
vertex 4.116773 47.942520 -16.336134
vertex 0.484031 47.942547 -21.336086
vertex -1.140525 49.436005 -16.336134
endloop
endfacet
facet normal 0.491119 0.794657 -0.356822
outer loop
vertex 4.116773 47.942520 -16.336134
vertex 5.741367 44.693367 -21.336102
vertex 0.484031 47.942547 -21.336086
endloop
endfacet
facet normal 0.408947 0.661699 -0.628424
outer loop
vertex 5.741367 44.693367 -21.336102
vertex 1.623355 43.908203 -24.842627
vertex 0.484031 47.942547 -21.336086
endloop
endfacet
facet normal -0.102381 0.943523 -0.315091
outer loop
vertex 0.484031 47.942547 -21.336086
vertex -5.393751 47.942543 -19.426247
vertex -1.140525 49.436005 -16.336134
endloop
endfacet
facet normal -0.187595 0.794658 -0.577344
outer loop
vertex 0.484031 47.942547 -21.336086
vertex -3.769212 44.693382 -24.426249
vertex -5.393751 47.942543 -19.426247
endloop
endfacet
facet normal -0.471299 0.661699 -0.583123
outer loop
vertex -3.769212 44.693382 -24.426249
vertex -8.376597 43.908199 -21.593388
vertex -5.393751 47.942543 -19.426247
endloop
endfacet
facet normal -0.331305 0.943524 0.000000
outer loop
vertex -5.393751 47.942543 -19.426247
vertex -5.393751 47.942543 -13.246020
vertex -1.140525 49.436005 -16.336134
endloop
endfacet
facet normal -0.607060 0.794656 0.000000
outer loop
vertex -5.393751 47.942543 -19.426247
vertex -9.647002 44.693363 -16.336134
vertex -5.393751 47.942543 -13.246020
endloop
endfacet
facet normal -0.700223 0.661699 0.268033
outer loop
vertex -9.647002 44.693363 -16.336134
vertex -8.376597 43.908199 -11.078880
vertex -5.393751 47.942543 -13.246020
endloop
endfacet
facet normal -0.102381 0.943523 0.315091
outer loop
vertex -5.393751 47.942543 -13.246020
vertex 0.484031 47.942547 -11.336182
vertex -1.140525 49.436005 -16.336134
endloop
endfacet
facet normal -0.187594 0.794658 0.577345
outer loop
vertex -5.393751 47.942543 -13.246020
vertex -3.769212 44.693382 -8.246019
vertex 0.484031 47.942547 -11.336182
endloop
endfacet
facet normal 0.038530 0.661699 0.748779
outer loop
vertex -3.769212 44.693382 -8.246019
vertex 1.623355 43.908203 -7.829641
vertex 0.484031 47.942547 -11.336182
endloop
endfacet
facet normal 0.268034 0.943523 0.194736
outer loop
vertex 0.484031 47.942547 -11.336182
vertex 4.116773 47.942520 -16.336134
vertex -1.140525 49.436005 -16.336134
endloop
endfacet
facet normal 0.491119 0.794657 0.356822
outer loop
vertex 0.484031 47.942547 -11.336182
vertex 5.741367 44.693367 -11.336165
vertex 4.116773 47.942520 -16.336134
endloop
endfacet
facet normal 0.724043 0.661695 0.194734
outer loop
vertex 5.741367 44.693367 -11.336165
vertex 7.803736 43.908161 -16.336134
vertex 4.116773 47.942520 -16.336134
endloop
endfacet
facet normal 0.889697 0.330385 -0.315096
outer loop
vertex 8.370052 39.436005 -19.426260
vertex 5.741367 44.693367 -21.336102
vertex 7.803736 43.908161 -16.336134
endloop
endfacet
facet normal 0.794656 0.187595 -0.577348
outer loop
vertex 8.370052 39.436005 -19.426260
vertex 4.737330 39.436005 -24.426300
vertex 5.741367 44.693367 -21.336102
endloop
endfacet
facet normal 0.574602 0.330387 -0.748784
outer loop
vertex 4.737330 39.436005 -24.426300
vertex 1.623355 43.908203 -24.842627
vertex 5.741367 44.693367 -21.336102
endloop
endfacet
facet normal -0.024746 0.330386 -0.943521
outer loop
vertex -1.140525 39.436005 -26.336132
vertex -3.769212 44.693382 -24.426249
vertex 1.623355 43.908203 -24.842627
endloop
endfacet
facet normal -0.303532 0.187597 -0.934171
outer loop
vertex -1.140525 39.436005 -26.336132
vertex -7.018379 39.436005 -24.426300
vertex -3.769212 44.693382 -24.426249
endloop
endfacet
facet normal -0.534576 0.330387 -0.777865
outer loop
vertex -7.018379 39.436005 -24.426300
vertex -8.376597 43.908199 -21.593388
vertex -3.769212 44.693382 -24.426249
endloop
endfacet
facet normal -0.904989 0.330385 -0.268031
outer loop
vertex -10.651102 39.436005 -19.426260
vertex -9.647002 44.693363 -16.336134
vertex -8.376597 43.908199 -21.593388
endloop
endfacet
facet normal -0.982246 0.187599 0.000000
outer loop
vertex -10.651102 39.436005 -19.426260
vertex -10.651102 39.436005 -13.246008
vertex -9.647002 44.693363 -16.336134
endloop
endfacet
facet normal -0.904989 0.330385 0.268031
outer loop
vertex -10.651102 39.436005 -13.246008
vertex -8.376597 43.908199 -11.078880
vertex -9.647002 44.693363 -16.336134
endloop
endfacet
facet normal -0.534576 0.330387 0.777864
outer loop
vertex -7.018379 39.436005 -8.245968
vertex -3.769212 44.693382 -8.246019
vertex -8.376597 43.908199 -11.078880
endloop
endfacet
facet normal -0.303531 0.187597 0.934171
outer loop
vertex -7.018379 39.436005 -8.245968
vertex -1.140525 39.436005 -6.336135
vertex -3.769212 44.693382 -8.246019
endloop
endfacet
facet normal -0.024747 0.330386 0.943521
outer loop
vertex -1.140525 39.436005 -6.336135
vertex 1.623355 43.908203 -7.829641
vertex -3.769212 44.693382 -8.246019
endloop
endfacet
facet normal 0.574602 0.330387 0.748784
outer loop
vertex 4.737330 39.436005 -8.245968
vertex 5.741367 44.693367 -11.336165
vertex 1.623355 43.908203 -7.829641
endloop
endfacet
facet normal 0.794655 0.187595 0.577348
outer loop
vertex 4.737330 39.436005 -8.245968
vertex 8.370052 39.436005 -13.246008
vertex 5.741367 44.693367 -11.336165
endloop
endfacet
facet normal 0.889697 0.330384 0.315095
outer loop
vertex 8.370052 39.436005 -13.246008
vertex 7.803736 43.908161 -16.336134
vertex 5.741367 44.693367 -11.336165
endloop
endfacet
facet normal 0.306569 0.125629 -0.943522
outer loop
vertex 4.737330 39.436005 -24.426300
vertex -1.140525 39.436005 -26.336132
vertex 1.623355 43.908203 -24.842627
endloop
endfacet
facet normal 0.303532 -0.187597 -0.934171
outer loop
vertex 4.737330 39.436005 -24.426300
vertex 1.488163 34.178627 -24.426249
vertex -1.140525 39.436005 -26.336132
endloop
endfacet
facet normal 0.024746 -0.330386 -0.943521
outer loop
vertex 1.488163 34.178627 -24.426249
vertex -3.904405 34.963806 -24.842627
vertex -1.140525 39.436005 -26.336132
endloop
endfacet
facet normal -0.802609 0.125627 -0.583127
outer loop
vertex -7.018379 39.436005 -24.426300
vertex -10.651102 39.436005 -19.426260
vertex -8.376597 43.908199 -21.593388
endloop
endfacet
facet normal -0.794656 -0.187595 -0.577348
outer loop
vertex -7.018379 39.436005 -24.426300
vertex -8.022417 34.178642 -21.336102
vertex -10.651102 39.436005 -19.426260
endloop
endfacet
facet normal -0.889697 -0.330385 -0.315095
outer loop
vertex -8.022417 34.178642 -21.336102
vertex -10.084785 34.963848 -16.336134
vertex -10.651102 39.436005 -19.426260
endloop
endfacet
facet normal -0.802609 0.125627 0.583127
outer loop
vertex -10.651102 39.436005 -13.246008
vertex -7.018379 39.436005 -8.245968
vertex -8.376597 43.908199 -11.078880
endloop
endfacet
facet normal -0.794655 -0.187595 0.577348
outer loop
vertex -10.651102 39.436005 -13.246008
vertex -8.022417 34.178642 -11.336165
vertex -7.018379 39.436005 -8.245968
endloop
endfacet
facet normal -0.574602 -0.330387 0.748783
outer loop
vertex -8.022417 34.178642 -11.336165
vertex -3.904405 34.963806 -7.829641
vertex -7.018379 39.436005 -8.245968
endloop
endfacet
facet normal 0.306570 0.125629 0.943521
outer loop
vertex -1.140525 39.436005 -6.336135
vertex 4.737330 39.436005 -8.245968
vertex 1.623355 43.908203 -7.829641
endloop
endfacet
facet normal 0.303531 -0.187597 0.934171
outer loop
vertex -1.140525 39.436005 -6.336135
vertex 1.488163 34.178627 -8.246019
vertex 4.737330 39.436005 -8.245968
endloop
endfacet
facet normal 0.534576 -0.330387 0.777864
outer loop
vertex 1.488163 34.178627 -8.246019
vertex 6.095549 34.963810 -11.078880
vertex 4.737330 39.436005 -8.245968
endloop
endfacet
facet normal 0.992077 0.125629 0.000000
outer loop
vertex 8.370052 39.436005 -13.246008
vertex 8.370052 39.436005 -19.426260
vertex 7.803736 43.908161 -16.336134
endloop
endfacet
facet normal 0.982246 -0.187599 0.000000
outer loop
vertex 8.370052 39.436005 -13.246008
vertex 7.365952 34.178646 -16.336134
vertex 8.370052 39.436005 -19.426260
endloop
endfacet
facet normal 0.904989 -0.330385 -0.268031
outer loop
vertex 7.365952 34.178646 -16.336134
vertex 6.095549 34.963810 -21.593388
vertex 8.370052 39.436005 -19.426260
endloop
endfacet
facet normal 0.471299 -0.661699 -0.583123
outer loop
vertex 3.112702 30.929464 -19.426247
vertex 1.488163 34.178627 -24.426249
vertex 6.095549 34.963810 -21.593388
endloop
endfacet
facet normal 0.187594 -0.794657 -0.577346
outer loop
vertex 3.112702 30.929464 -19.426247
vertex -2.765080 30.929462 -21.336086
vertex 1.488163 34.178627 -24.426249
endloop
endfacet
facet normal -0.038531 -0.661699 -0.748779
outer loop
vertex -2.765080 30.929462 -21.336086
vertex -3.904405 34.963806 -24.842627
vertex 1.488163 34.178627 -24.426249
endloop
endfacet
facet normal -0.408947 -0.661699 -0.628424
outer loop
vertex -2.765080 30.929462 -21.336086
vertex -8.022417 34.178642 -21.336102
vertex -3.904405 34.963806 -24.842627
endloop
endfacet
facet normal -0.491119 -0.794657 -0.356822
outer loop
vertex -2.765080 30.929462 -21.336086
vertex -6.397821 30.929489 -16.336134
vertex -8.022417 34.178642 -21.336102
endloop
endfacet
facet normal -0.724042 -0.661696 -0.194735
outer loop
vertex -6.397821 30.929489 -16.336134
vertex -10.084785 34.963848 -16.336134
vertex -8.022417 34.178642 -21.336102
endloop
endfacet
facet normal -0.724042 -0.661696 0.194735
outer loop
vertex -6.397821 30.929489 -16.336134
vertex -8.022417 34.178642 -11.336165
vertex -10.084785 34.963848 -16.336134
endloop
endfacet
facet normal -0.491119 -0.794657 0.356822
outer loop
vertex -6.397821 30.929489 -16.336134
vertex -2.765080 30.929462 -11.336182
vertex -8.022417 34.178642 -11.336165
endloop
endfacet
facet normal -0.408947 -0.661699 0.628424
outer loop
vertex -2.765080 30.929462 -11.336182
vertex -3.904405 34.963806 -7.829641
vertex -8.022417 34.178642 -11.336165
endloop
endfacet
facet normal 0.700224 -0.661699 -0.268030
outer loop
vertex 7.365952 34.178646 -16.336134
vertex 3.112702 30.929464 -19.426247
vertex 6.095549 34.963810 -21.593388
endloop
endfacet
facet normal 0.607061 -0.794656 0.000000
outer loop
vertex 7.365952 34.178646 -16.336134
vertex 3.112702 30.929464 -13.246020
vertex 3.112702 30.929464 -19.426247
endloop
endfacet
facet normal 0.331305 -0.943524 0.000000
outer loop
vertex 3.112702 30.929464 -13.246020
vertex -1.140525 29.436005 -16.336134
vertex 3.112702 30.929464 -19.426247
endloop
endfacet
facet normal -0.038530 -0.661700 0.748778
outer loop
vertex -2.765080 30.929462 -11.336182
vertex 1.488163 34.178627 -8.246019
vertex -3.904405 34.963806 -7.829641
endloop
endfacet
facet normal 0.187594 -0.794657 0.577346
outer loop
vertex -2.765080 30.929462 -11.336182
vertex 3.112702 30.929464 -13.246020
vertex 1.488163 34.178627 -8.246019
endloop
endfacet
facet normal 0.471299 -0.661698 0.583123
outer loop
vertex 3.112702 30.929464 -13.246020
vertex 6.095549 34.963810 -11.078880
vertex 1.488163 34.178627 -8.246019
endloop
endfacet
endsolid Exported from Blender-2.74 (sub 0)
