solid Exported from Blender-2.74 (sub 0)
facet normal 0.102381 -0.943523 0.315090
outer loop
vertex 14.988800 34.454979 7.790494
vertex 19.242027 35.948441 10.880608
vertex 13.364244 35.948437 12.790446
endloop
endfacet
facet normal 0.700224 -0.661699 0.268032
outer loop
vertex 22.224873 39.982784 13.047747
vertex 19.242027 35.948441 10.880608
vertex 23.495277 39.197620 7.790494
endloop
endfacet
facet normal -0.268034 -0.943523 0.194736
outer loop
vertex 14.988800 34.454979 7.790494
vertex 13.364244 35.948437 12.790446
vertex 9.731503 35.948463 7.790494
endloop
endfacet
facet normal -0.268034 -0.943523 -0.194736
outer loop
vertex 14.988800 34.454979 7.790494
vertex 9.731503 35.948463 7.790494
vertex 13.364244 35.948437 2.790542
endloop
endfacet
facet normal 0.102381 -0.943523 -0.315090
outer loop
vertex 14.988800 34.454979 7.790494
vertex 13.364244 35.948437 2.790542
vertex 19.242027 35.948441 4.700380
endloop
endfacet
facet normal 0.904989 -0.330385 0.268031
outer loop
vertex 22.224873 39.982784 13.047747
vertex 23.495277 39.197620 7.790494
vertex 24.499378 44.454979 10.880620
endloop
endfacet
facet normal 0.024747 -0.330386 0.943521
outer loop
vertex 12.224920 39.982780 16.296986
vertex 17.617489 39.197601 15.880609
vertex 14.988800 44.454979 17.790493
endloop
endfacet
facet normal -0.889697 -0.330385 0.315095
outer loop
vertex 6.044539 39.982822 7.790494
vertex 8.106908 39.197617 12.790462
vertex 5.478223 44.454979 10.880620
endloop
endfacet
facet normal -0.574602 -0.330388 -0.748783
outer loop
vertex 12.224920 39.982780 -0.715999
vertex 8.106908 39.197617 2.790525
vertex 9.110945 44.454979 -0.299672
endloop
endfacet
facet normal 0.534576 -0.330387 -0.777865
outer loop
vertex 22.224873 39.982784 2.533241
vertex 17.617487 39.197601 -0.299621
vertex 20.866655 44.454979 -0.299672
endloop
endfacet
facet normal 0.802609 -0.125628 0.583127
outer loop
vertex 22.224873 39.982784 13.047747
vertex 24.499378 44.454979 10.880620
vertex 20.866655 44.454979 15.880660
endloop
endfacet
facet normal -0.306569 -0.125629 0.943521
outer loop
vertex 12.224920 39.982780 16.296986
vertex 14.988800 44.454979 17.790493
vertex 9.110945 44.454979 15.880660
endloop
endfacet
facet normal -0.992077 -0.125629 0.000000
outer loop
vertex 6.044539 39.982822 7.790494
vertex 5.478223 44.454979 10.880620
vertex 5.478223 44.454979 4.700368
endloop
endfacet
facet normal -0.306569 -0.125629 -0.943521
outer loop
vertex 12.224920 39.982780 -0.715999
vertex 9.110945 44.454979 -0.299672
vertex 14.988800 44.454979 -2.209505
endloop
endfacet
facet normal 0.802609 -0.125628 -0.583127
outer loop
vertex 22.224873 39.982784 2.533241
vertex 20.866655 44.454979 -0.299672
vertex 24.499378 44.454979 4.700368
endloop
endfacet
facet normal 0.408946 0.661699 0.628424
outer loop
vertex 17.752680 48.927177 16.296986
vertex 21.870693 49.712341 12.790462
vertex 16.613356 52.961521 12.790446
endloop
endfacet
facet normal -0.471299 0.661699 0.583122
outer loop
vertex 7.752727 48.927174 13.047747
vertex 12.360112 49.712357 15.880609
vertex 10.735574 52.961517 10.880608
endloop
endfacet
facet normal -0.700224 0.661699 -0.268032
outer loop
vertex 7.752727 48.927174 2.533241
vertex 6.482323 49.712337 7.790494
vertex 10.735574 52.961517 4.700380
endloop
endfacet
facet normal 0.038530 0.661699 -0.748779
outer loop
vertex 17.752680 48.927177 -0.715999
vertex 12.360112 49.712357 -0.299621
vertex 16.613356 52.961521 2.790542
endloop
endfacet
facet normal 0.724042 0.661695 -0.194736
outer loop
vertex 23.933060 48.927135 7.790494
vertex 21.870693 49.712341 2.790525
vertex 20.246098 52.961494 7.790494
endloop
endfacet
facet normal 0.268035 0.943523 -0.194736
outer loop
vertex 20.246098 52.961494 7.790494
vertex 16.613356 52.961521 2.790542
vertex 14.988800 54.454979 7.790494
endloop
endfacet
facet normal 0.491119 0.794657 -0.356822
outer loop
vertex 20.246098 52.961494 7.790494
vertex 21.870693 49.712341 2.790525
vertex 16.613356 52.961521 2.790542
endloop
endfacet
facet normal 0.408946 0.661699 -0.628424
outer loop
vertex 21.870693 49.712341 2.790525
vertex 17.752680 48.927177 -0.715999
vertex 16.613356 52.961521 2.790542
endloop
endfacet
facet normal -0.102381 0.943523 -0.315092
outer loop
vertex 16.613356 52.961521 2.790542
vertex 10.735574 52.961517 4.700380
vertex 14.988800 54.454979 7.790494
endloop
endfacet
facet normal -0.187594 0.794658 -0.577344
outer loop
vertex 16.613356 52.961521 2.790542
vertex 12.360112 49.712357 -0.299621
vertex 10.735574 52.961517 4.700380
endloop
endfacet
facet normal -0.471299 0.661699 -0.583123
outer loop
vertex 12.360112 49.712357 -0.299621
vertex 7.752727 48.927174 2.533241
vertex 10.735574 52.961517 4.700380
endloop
endfacet
facet normal -0.331305 0.943524 0.000000
outer loop
vertex 10.735574 52.961517 4.700380
vertex 10.735574 52.961517 10.880608
vertex 14.988800 54.454979 7.790494
endloop
endfacet
facet normal -0.607060 0.794656 0.000000
outer loop
vertex 10.735574 52.961517 4.700380
vertex 6.482323 49.712337 7.790494
vertex 10.735574 52.961517 10.880608
endloop
endfacet
facet normal -0.700224 0.661699 0.268032
outer loop
vertex 6.482323 49.712337 7.790494
vertex 7.752727 48.927174 13.047747
vertex 10.735574 52.961517 10.880608
endloop
endfacet
facet normal -0.102381 0.943523 0.315092
outer loop
vertex 10.735574 52.961517 10.880608
vertex 16.613356 52.961521 12.790446
vertex 14.988800 54.454979 7.790494
endloop
endfacet
facet normal -0.187595 0.794659 0.577344
outer loop
vertex 10.735574 52.961517 10.880608
vertex 12.360112 49.712357 15.880609
vertex 16.613356 52.961521 12.790446
endloop
endfacet
facet normal 0.038530 0.661699 0.748779
outer loop
vertex 12.360112 49.712357 15.880609
vertex 17.752680 48.927177 16.296986
vertex 16.613356 52.961521 12.790446
endloop
endfacet
facet normal 0.268034 0.943523 0.194737
outer loop
vertex 16.613356 52.961521 12.790446
vertex 20.246098 52.961494 7.790494
vertex 14.988800 54.454979 7.790494
endloop
endfacet
facet normal 0.491119 0.794657 0.356822
outer loop
vertex 16.613356 52.961521 12.790446
vertex 21.870693 49.712341 12.790462
vertex 20.246098 52.961494 7.790494
endloop
endfacet
facet normal 0.724042 0.661695 0.194736
outer loop
vertex 21.870693 49.712341 12.790462
vertex 23.933060 48.927135 7.790494
vertex 20.246098 52.961494 7.790494
endloop
endfacet
facet normal 0.889697 0.330385 -0.315094
outer loop
vertex 24.499378 44.454979 4.700368
vertex 21.870693 49.712341 2.790525
vertex 23.933060 48.927135 7.790494
endloop
endfacet
facet normal 0.794655 0.187595 -0.577348
outer loop
vertex 24.499378 44.454979 4.700368
vertex 20.866655 44.454979 -0.299672
vertex 21.870693 49.712341 2.790525
endloop
endfacet
facet normal 0.574602 0.330387 -0.748783
outer loop
vertex 20.866655 44.454979 -0.299672
vertex 17.752680 48.927177 -0.715999
vertex 21.870693 49.712341 2.790525
endloop
endfacet
facet normal -0.024747 0.330386 -0.943521
outer loop
vertex 14.988800 44.454979 -2.209505
vertex 12.360112 49.712357 -0.299621
vertex 17.752680 48.927177 -0.715999
endloop
endfacet
facet normal -0.303531 0.187597 -0.934171
outer loop
vertex 14.988800 44.454979 -2.209505
vertex 9.110945 44.454979 -0.299672
vertex 12.360112 49.712357 -0.299621
endloop
endfacet
facet normal -0.534577 0.330387 -0.777864
outer loop
vertex 9.110945 44.454979 -0.299672
vertex 7.752727 48.927174 2.533241
vertex 12.360112 49.712357 -0.299621
endloop
endfacet
facet normal -0.904989 0.330385 -0.268031
outer loop
vertex 5.478223 44.454979 4.700368
vertex 6.482323 49.712337 7.790494
vertex 7.752727 48.927174 2.533241
endloop
endfacet
facet normal -0.982246 0.187599 0.000000
outer loop
vertex 5.478223 44.454979 4.700368
vertex 5.478223 44.454979 10.880620
vertex 6.482323 49.712337 7.790494
endloop
endfacet
facet normal -0.904989 0.330385 0.268031
outer loop
vertex 5.478223 44.454979 10.880620
vertex 7.752727 48.927174 13.047747
vertex 6.482323 49.712337 7.790494
endloop
endfacet
facet normal -0.534577 0.330387 0.777864
outer loop
vertex 9.110945 44.454979 15.880660
vertex 12.360112 49.712357 15.880609
vertex 7.752727 48.927174 13.047747
endloop
endfacet
facet normal -0.303531 0.187597 0.934171
outer loop
vertex 9.110945 44.454979 15.880660
vertex 14.988800 44.454979 17.790493
vertex 12.360112 49.712357 15.880609
endloop
endfacet
facet normal -0.024747 0.330386 0.943521
outer loop
vertex 14.988800 44.454979 17.790493
vertex 17.752680 48.927177 16.296986
vertex 12.360112 49.712357 15.880609
endloop
endfacet
facet normal 0.574602 0.330388 0.748783
outer loop
vertex 20.866655 44.454979 15.880660
vertex 21.870693 49.712341 12.790462
vertex 17.752680 48.927177 16.296986
endloop
endfacet
facet normal 0.794656 0.187596 0.577348
outer loop
vertex 20.866655 44.454979 15.880660
vertex 24.499378 44.454979 10.880620
vertex 21.870693 49.712341 12.790462
endloop
endfacet
facet normal 0.889697 0.330385 0.315094
outer loop
vertex 24.499378 44.454979 10.880620
vertex 23.933060 48.927135 7.790494
vertex 21.870693 49.712341 12.790462
endloop
endfacet
facet normal 0.306569 0.125628 -0.943522
outer loop
vertex 20.866655 44.454979 -0.299672
vertex 14.988800 44.454979 -2.209505
vertex 17.752680 48.927177 -0.715999
endloop
endfacet
facet normal 0.303531 -0.187598 -0.934171
outer loop
vertex 20.866655 44.454979 -0.299672
vertex 17.617487 39.197601 -0.299621
vertex 14.988800 44.454979 -2.209505
endloop
endfacet
facet normal 0.024747 -0.330386 -0.943521
outer loop
vertex 17.617487 39.197601 -0.299621
vertex 12.224920 39.982780 -0.715999
vertex 14.988800 44.454979 -2.209505
endloop
endfacet
facet normal -0.802609 0.125627 -0.583127
outer loop
vertex 9.110945 44.454979 -0.299672
vertex 5.478223 44.454979 4.700368
vertex 7.752727 48.927174 2.533241
endloop
endfacet
facet normal -0.794656 -0.187595 -0.577348
outer loop
vertex 9.110945 44.454979 -0.299672
vertex 8.106908 39.197617 2.790525
vertex 5.478223 44.454979 4.700368
endloop
endfacet
facet normal -0.889697 -0.330385 -0.315095
outer loop
vertex 8.106908 39.197617 2.790525
vertex 6.044539 39.982822 7.790494
vertex 5.478223 44.454979 4.700368
endloop
endfacet
facet normal -0.802608 0.125627 0.583127
outer loop
vertex 5.478223 44.454979 10.880620
vertex 9.110945 44.454979 15.880660
vertex 7.752727 48.927174 13.047747
endloop
endfacet
facet normal -0.794656 -0.187595 0.577348
outer loop
vertex 5.478223 44.454979 10.880620
vertex 8.106908 39.197617 12.790462
vertex 9.110945 44.454979 15.880660
endloop
endfacet
facet normal -0.574602 -0.330388 0.748783
outer loop
vertex 8.106908 39.197617 12.790462
vertex 12.224920 39.982780 16.296986
vertex 9.110945 44.454979 15.880660
endloop
endfacet
facet normal 0.306569 0.125629 0.943522
outer loop
vertex 14.988800 44.454979 17.790493
vertex 20.866655 44.454979 15.880660
vertex 17.752680 48.927177 16.296986
endloop
endfacet
facet normal 0.303531 -0.187598 0.934171
outer loop
vertex 14.988800 44.454979 17.790493
vertex 17.617489 39.197601 15.880609
vertex 20.866655 44.454979 15.880660
endloop
endfacet
facet normal 0.534577 -0.330387 0.777864
outer loop
vertex 17.617489 39.197601 15.880609
vertex 22.224873 39.982784 13.047747
vertex 20.866655 44.454979 15.880660
endloop
endfacet
facet normal 0.992077 0.125629 0.000000
outer loop
vertex 24.499378 44.454979 10.880620
vertex 24.499378 44.454979 4.700368
vertex 23.933060 48.927135 7.790494
endloop
endfacet
facet normal 0.982246 -0.187599 0.000000
outer loop
vertex 24.499378 44.454979 10.880620
vertex 23.495277 39.197620 7.790494
vertex 24.499378 44.454979 4.700368
endloop
endfacet
facet normal 0.904989 -0.330385 -0.268031
outer loop
vertex 23.495277 39.197620 7.790494
vertex 22.224873 39.982784 2.533241
vertex 24.499378 44.454979 4.700368
endloop
endfacet
facet normal 0.471299 -0.661699 -0.583122
outer loop
vertex 19.242027 35.948441 4.700380
vertex 17.617487 39.197601 -0.299621
vertex 22.224873 39.982784 2.533241
endloop
endfacet
facet normal 0.187594 -0.794658 -0.577345
outer loop
vertex 19.242027 35.948441 4.700380
vertex 13.364244 35.948437 2.790542
vertex 17.617487 39.197601 -0.299621
endloop
endfacet
facet normal -0.038530 -0.661700 -0.748778
outer loop
vertex 13.364244 35.948437 2.790542
vertex 12.224920 39.982780 -0.715999
vertex 17.617487 39.197601 -0.299621
endloop
endfacet
facet normal -0.408947 -0.661699 -0.628424
outer loop
vertex 13.364244 35.948437 2.790542
vertex 8.106908 39.197617 2.790525
vertex 12.224920 39.982780 -0.715999
endloop
endfacet
facet normal -0.491119 -0.794657 -0.356822
outer loop
vertex 13.364244 35.948437 2.790542
vertex 9.731503 35.948463 7.790494
vertex 8.106908 39.197617 2.790525
endloop
endfacet
facet normal -0.724042 -0.661695 -0.194735
outer loop
vertex 9.731503 35.948463 7.790494
vertex 6.044539 39.982822 7.790494
vertex 8.106908 39.197617 2.790525
endloop
endfacet
facet normal -0.724042 -0.661695 0.194735
outer loop
vertex 9.731503 35.948463 7.790494
vertex 8.106908 39.197617 12.790462
vertex 6.044539 39.982822 7.790494
endloop
endfacet
facet normal -0.491119 -0.794657 0.356822
outer loop
vertex 9.731503 35.948463 7.790494
vertex 13.364244 35.948437 12.790446
vertex 8.106908 39.197617 12.790462
endloop
endfacet
facet normal -0.408947 -0.661699 0.628424
outer loop
vertex 13.364244 35.948437 12.790446
vertex 12.224920 39.982780 16.296986
vertex 8.106908 39.197617 12.790462
endloop
endfacet
facet normal 0.700224 -0.661699 -0.268032
outer loop
vertex 23.495277 39.197620 7.790494
vertex 19.242027 35.948441 4.700380
vertex 22.224873 39.982784 2.533241
endloop
endfacet
facet normal 0.607060 -0.794656 0.000000
outer loop
vertex 23.495277 39.197620 7.790494
vertex 19.242027 35.948441 10.880608
vertex 19.242027 35.948441 4.700380
endloop
endfacet
facet normal 0.331305 -0.943524 0.000000
outer loop
vertex 19.242027 35.948441 10.880608
vertex 14.988800 34.454979 7.790494
vertex 19.242027 35.948441 4.700380
endloop
endfacet
facet normal -0.038530 -0.661700 0.748778
outer loop
vertex 13.364244 35.948437 12.790446
vertex 17.617489 39.197601 15.880609
vertex 12.224920 39.982780 16.296986
endloop
endfacet
facet normal 0.187594 -0.794658 0.577345
outer loop
vertex 13.364244 35.948437 12.790446
vertex 19.242027 35.948441 10.880608
vertex 17.617489 39.197601 15.880609
endloop
endfacet
facet normal 0.471300 -0.661699 0.583122
outer loop
vertex 19.242027 35.948441 10.880608
vertex 22.224873 39.982784 13.047747
vertex 17.617489 39.197601 15.880609
endloop
endfacet
endsolid Exported from Blender-2.74 (sub 0)
