solid Exported from Blender-2.74 (sub 0)
facet normal 0.102381 -0.943524 0.315089
outer loop
vertex 4.226099 25.412819 -11.227612
vertex 8.479324 26.906279 -8.137499
vertex 2.601543 26.906277 -6.227660
endloop
endfacet
facet normal 0.700224 -0.661699 0.268031
outer loop
vertex 11.462172 30.940624 -5.970359
vertex 8.479324 26.906279 -8.137499
vertex 12.732576 30.155460 -11.227612
endloop
endfacet
facet normal -0.268034 -0.943523 0.194737
outer loop
vertex 4.226099 25.412819 -11.227612
vertex 2.601543 26.906277 -6.227660
vertex -1.031199 26.906303 -11.227612
endloop
endfacet
facet normal -0.268034 -0.943523 -0.194737
outer loop
vertex 4.226099 25.412819 -11.227612
vertex -1.031199 26.906303 -11.227612
vertex 2.601543 26.906277 -16.227566
endloop
endfacet
facet normal 0.102381 -0.943524 -0.315089
outer loop
vertex 4.226099 25.412819 -11.227612
vertex 2.601543 26.906277 -16.227566
vertex 8.479324 26.906279 -14.317726
endloop
endfacet
facet normal 0.904989 -0.330385 0.268031
outer loop
vertex 11.462172 30.940624 -5.970359
vertex 12.732576 30.155460 -11.227612
vertex 13.736675 35.412819 -8.137486
endloop
endfacet
facet normal 0.024747 -0.330386 0.943521
outer loop
vertex 1.462219 30.940620 -2.721120
vertex 6.854786 30.155443 -3.137498
vertex 4.226099 35.412819 -1.227613
endloop
endfacet
facet normal -0.889698 -0.330385 0.315094
outer loop
vertex -4.718162 30.940662 -11.227612
vertex -2.655794 30.155458 -6.227644
vertex -5.284479 35.412819 -8.137486
endloop
endfacet
facet normal -0.574602 -0.330388 -0.748783
outer loop
vertex 1.462219 30.940620 -19.734104
vertex -2.655794 30.155458 -16.227581
vertex -1.651756 35.412819 -19.317780
endloop
endfacet
facet normal 0.534576 -0.330387 -0.777864
outer loop
vertex 11.462172 30.940624 -16.484865
vertex 6.854786 30.155443 -19.317726
vertex 10.103953 35.412819 -19.317780
endloop
endfacet
facet normal 0.802609 -0.125627 0.583127
outer loop
vertex 11.462172 30.940624 -5.970359
vertex 13.736675 35.412819 -8.137486
vertex 10.103953 35.412819 -3.137446
endloop
endfacet
facet normal -0.306569 -0.125628 0.943522
outer loop
vertex 1.462219 30.940620 -2.721120
vertex 4.226099 35.412819 -1.227613
vertex -1.651756 35.412819 -3.137446
endloop
endfacet
facet normal -0.992077 -0.125628 0.000000
outer loop
vertex -4.718162 30.940662 -11.227612
vertex -5.284479 35.412819 -8.137486
vertex -5.284479 35.412819 -14.317739
endloop
endfacet
facet normal -0.306568 -0.125629 -0.943522
outer loop
vertex 1.462219 30.940620 -19.734104
vertex -1.651756 35.412819 -19.317780
vertex 4.226099 35.412819 -21.227612
endloop
endfacet
facet normal 0.802609 -0.125627 -0.583127
outer loop
vertex 11.462172 30.940624 -16.484865
vertex 10.103953 35.412819 -19.317780
vertex 13.736675 35.412819 -14.317739
endloop
endfacet
facet normal 0.408947 0.661699 0.628424
outer loop
vertex 6.989979 39.885017 -2.721120
vertex 11.107990 40.670181 -6.227644
vertex 5.850654 43.919361 -6.227660
endloop
endfacet
facet normal -0.471300 0.661699 0.583122
outer loop
vertex -3.009974 39.885014 -5.970359
vertex 1.597411 40.670197 -3.137498
vertex -0.027128 43.919357 -8.137499
endloop
endfacet
facet normal -0.700224 0.661699 -0.268033
outer loop
vertex -3.009974 39.885014 -16.484865
vertex -4.280379 40.670177 -11.227612
vertex -0.027128 43.919357 -14.317726
endloop
endfacet
facet normal 0.038530 0.661699 -0.748779
outer loop
vertex 6.989979 39.885017 -19.734104
vertex 1.597411 40.670197 -19.317726
vertex 5.850654 43.919361 -16.227566
endloop
endfacet
facet normal 0.724042 0.661696 -0.194735
outer loop
vertex 13.170359 39.884975 -11.227612
vertex 11.107990 40.670181 -16.227581
vertex 9.483396 43.919334 -11.227612
endloop
endfacet
facet normal 0.268034 0.943523 -0.194736
outer loop
vertex 9.483396 43.919334 -11.227612
vertex 5.850654 43.919361 -16.227566
vertex 4.226099 45.412819 -11.227612
endloop
endfacet
facet normal 0.491119 0.794657 -0.356822
outer loop
vertex 9.483396 43.919334 -11.227612
vertex 11.107990 40.670181 -16.227581
vertex 5.850654 43.919361 -16.227566
endloop
endfacet
facet normal 0.408947 0.661699 -0.628424
outer loop
vertex 11.107990 40.670181 -16.227581
vertex 6.989979 39.885017 -19.734104
vertex 5.850654 43.919361 -16.227566
endloop
endfacet
facet normal -0.102381 0.943523 -0.315090
outer loop
vertex 5.850654 43.919361 -16.227566
vertex -0.027128 43.919357 -14.317726
vertex 4.226099 45.412819 -11.227612
endloop
endfacet
facet normal -0.187594 0.794658 -0.577345
outer loop
vertex 5.850654 43.919361 -16.227566
vertex 1.597411 40.670197 -19.317726
vertex -0.027128 43.919357 -14.317726
endloop
endfacet
facet normal -0.471299 0.661699 -0.583122
outer loop
vertex 1.597411 40.670197 -19.317726
vertex -3.009974 39.885014 -16.484865
vertex -0.027128 43.919357 -14.317726
endloop
endfacet
facet normal -0.331305 0.943524 0.000000
outer loop
vertex -0.027128 43.919357 -14.317726
vertex -0.027128 43.919357 -8.137499
vertex 4.226099 45.412819 -11.227612
endloop
endfacet
facet normal -0.607060 0.794656 0.000000
outer loop
vertex -0.027128 43.919357 -14.317726
vertex -4.280379 40.670177 -11.227612
vertex -0.027128 43.919357 -8.137499
endloop
endfacet
facet normal -0.700224 0.661699 0.268032
outer loop
vertex -4.280379 40.670177 -11.227612
vertex -3.009974 39.885014 -5.970359
vertex -0.027128 43.919357 -8.137499
endloop
endfacet
facet normal -0.102381 0.943523 0.315090
outer loop
vertex -0.027128 43.919357 -8.137499
vertex 5.850654 43.919361 -6.227660
vertex 4.226099 45.412819 -11.227612
endloop
endfacet
facet normal -0.187594 0.794658 0.577345
outer loop
vertex -0.027128 43.919357 -8.137499
vertex 1.597411 40.670197 -3.137498
vertex 5.850654 43.919361 -6.227660
endloop
endfacet
facet normal 0.038530 0.661699 0.748779
outer loop
vertex 1.597411 40.670197 -3.137498
vertex 6.989979 39.885017 -2.721120
vertex 5.850654 43.919361 -6.227660
endloop
endfacet
facet normal 0.268034 0.943523 0.194736
outer loop
vertex 5.850654 43.919361 -6.227660
vertex 9.483396 43.919334 -11.227612
vertex 4.226099 45.412819 -11.227612
endloop
endfacet
facet normal 0.491119 0.794657 0.356822
outer loop
vertex 5.850654 43.919361 -6.227660
vertex 11.107990 40.670181 -6.227644
vertex 9.483396 43.919334 -11.227612
endloop
endfacet
facet normal 0.724042 0.661696 0.194735
outer loop
vertex 11.107990 40.670181 -6.227644
vertex 13.170359 39.884975 -11.227612
vertex 9.483396 43.919334 -11.227612
endloop
endfacet
facet normal 0.889697 0.330385 -0.315094
outer loop
vertex 13.736675 35.412819 -14.317739
vertex 11.107990 40.670181 -16.227581
vertex 13.170359 39.884975 -11.227612
endloop
endfacet
facet normal 0.794656 0.187595 -0.577348
outer loop
vertex 13.736675 35.412819 -14.317739
vertex 10.103953 35.412819 -19.317780
vertex 11.107990 40.670181 -16.227581
endloop
endfacet
facet normal 0.574602 0.330387 -0.748784
outer loop
vertex 10.103953 35.412819 -19.317780
vertex 6.989979 39.885017 -19.734104
vertex 11.107990 40.670181 -16.227581
endloop
endfacet
facet normal -0.024747 0.330386 -0.943521
outer loop
vertex 4.226099 35.412819 -21.227612
vertex 1.597411 40.670197 -19.317726
vertex 6.989979 39.885017 -19.734104
endloop
endfacet
facet normal -0.303531 0.187598 -0.934171
outer loop
vertex 4.226099 35.412819 -21.227612
vertex -1.651756 35.412819 -19.317780
vertex 1.597411 40.670197 -19.317726
endloop
endfacet
facet normal -0.534576 0.330387 -0.777865
outer loop
vertex -1.651756 35.412819 -19.317780
vertex -3.009974 39.885014 -16.484865
vertex 1.597411 40.670197 -19.317726
endloop
endfacet
facet normal -0.904989 0.330385 -0.268031
outer loop
vertex -5.284479 35.412819 -14.317739
vertex -4.280379 40.670177 -11.227612
vertex -3.009974 39.885014 -16.484865
endloop
endfacet
facet normal -0.982246 0.187598 0.000000
outer loop
vertex -5.284479 35.412819 -14.317739
vertex -5.284479 35.412819 -8.137486
vertex -4.280379 40.670177 -11.227612
endloop
endfacet
facet normal -0.904989 0.330385 0.268031
outer loop
vertex -5.284479 35.412819 -8.137486
vertex -3.009974 39.885014 -5.970359
vertex -4.280379 40.670177 -11.227612
endloop
endfacet
facet normal -0.534576 0.330386 0.777865
outer loop
vertex -1.651756 35.412819 -3.137446
vertex 1.597411 40.670197 -3.137498
vertex -3.009974 39.885014 -5.970359
endloop
endfacet
facet normal -0.303531 0.187598 0.934171
outer loop
vertex -1.651756 35.412819 -3.137446
vertex 4.226099 35.412819 -1.227613
vertex 1.597411 40.670197 -3.137498
endloop
endfacet
facet normal -0.024747 0.330386 0.943521
outer loop
vertex 4.226099 35.412819 -1.227613
vertex 6.989979 39.885017 -2.721120
vertex 1.597411 40.670197 -3.137498
endloop
endfacet
facet normal 0.574602 0.330388 0.748784
outer loop
vertex 10.103953 35.412819 -3.137446
vertex 11.107990 40.670181 -6.227644
vertex 6.989979 39.885017 -2.721120
endloop
endfacet
facet normal 0.794656 0.187595 0.577348
outer loop
vertex 10.103953 35.412819 -3.137446
vertex 13.736675 35.412819 -8.137486
vertex 11.107990 40.670181 -6.227644
endloop
endfacet
facet normal 0.889697 0.330385 0.315094
outer loop
vertex 13.736675 35.412819 -8.137486
vertex 13.170359 39.884975 -11.227612
vertex 11.107990 40.670181 -6.227644
endloop
endfacet
facet normal 0.306569 0.125629 -0.943522
outer loop
vertex 10.103953 35.412819 -19.317780
vertex 4.226099 35.412819 -21.227612
vertex 6.989979 39.885017 -19.734104
endloop
endfacet
facet normal 0.303531 -0.187598 -0.934171
outer loop
vertex 10.103953 35.412819 -19.317780
vertex 6.854786 30.155443 -19.317726
vertex 4.226099 35.412819 -21.227612
endloop
endfacet
facet normal 0.024747 -0.330386 -0.943521
outer loop
vertex 6.854786 30.155443 -19.317726
vertex 1.462219 30.940620 -19.734104
vertex 4.226099 35.412819 -21.227612
endloop
endfacet
facet normal -0.802609 0.125627 -0.583127
outer loop
vertex -1.651756 35.412819 -19.317780
vertex -5.284479 35.412819 -14.317739
vertex -3.009974 39.885014 -16.484865
endloop
endfacet
facet normal -0.794655 -0.187595 -0.577348
outer loop
vertex -1.651756 35.412819 -19.317780
vertex -2.655794 30.155458 -16.227581
vertex -5.284479 35.412819 -14.317739
endloop
endfacet
facet normal -0.889697 -0.330385 -0.315094
outer loop
vertex -2.655794 30.155458 -16.227581
vertex -4.718162 30.940662 -11.227612
vertex -5.284479 35.412819 -14.317739
endloop
endfacet
facet normal -0.802609 0.125627 0.583127
outer loop
vertex -5.284479 35.412819 -8.137486
vertex -1.651756 35.412819 -3.137446
vertex -3.009974 39.885014 -5.970359
endloop
endfacet
facet normal -0.794655 -0.187595 0.577348
outer loop
vertex -5.284479 35.412819 -8.137486
vertex -2.655794 30.155458 -6.227644
vertex -1.651756 35.412819 -3.137446
endloop
endfacet
facet normal -0.574602 -0.330388 0.748783
outer loop
vertex -2.655794 30.155458 -6.227644
vertex 1.462219 30.940620 -2.721120
vertex -1.651756 35.412819 -3.137446
endloop
endfacet
facet normal 0.306569 0.125628 0.943521
outer loop
vertex 4.226099 35.412819 -1.227613
vertex 10.103953 35.412819 -3.137446
vertex 6.989979 39.885017 -2.721120
endloop
endfacet
facet normal 0.303531 -0.187597 0.934171
outer loop
vertex 4.226099 35.412819 -1.227613
vertex 6.854786 30.155443 -3.137498
vertex 10.103953 35.412819 -3.137446
endloop
endfacet
facet normal 0.534576 -0.330387 0.777864
outer loop
vertex 6.854786 30.155443 -3.137498
vertex 11.462172 30.940624 -5.970359
vertex 10.103953 35.412819 -3.137446
endloop
endfacet
facet normal 0.992077 0.125629 0.000000
outer loop
vertex 13.736675 35.412819 -8.137486
vertex 13.736675 35.412819 -14.317739
vertex 13.170359 39.884975 -11.227612
endloop
endfacet
facet normal 0.982246 -0.187598 0.000000
outer loop
vertex 13.736675 35.412819 -8.137486
vertex 12.732576 30.155460 -11.227612
vertex 13.736675 35.412819 -14.317739
endloop
endfacet
facet normal 0.904989 -0.330384 -0.268031
outer loop
vertex 12.732576 30.155460 -11.227612
vertex 11.462172 30.940624 -16.484865
vertex 13.736675 35.412819 -14.317739
endloop
endfacet
facet normal 0.471299 -0.661699 -0.583123
outer loop
vertex 8.479324 26.906279 -14.317726
vertex 6.854786 30.155443 -19.317726
vertex 11.462172 30.940624 -16.484865
endloop
endfacet
facet normal 0.187594 -0.794657 -0.577346
outer loop
vertex 8.479324 26.906279 -14.317726
vertex 2.601543 26.906277 -16.227566
vertex 6.854786 30.155443 -19.317726
endloop
endfacet
facet normal -0.038530 -0.661699 -0.748779
outer loop
vertex 2.601543 26.906277 -16.227566
vertex 1.462219 30.940620 -19.734104
vertex 6.854786 30.155443 -19.317726
endloop
endfacet
facet normal -0.408947 -0.661699 -0.628425
outer loop
vertex 2.601543 26.906277 -16.227566
vertex -2.655794 30.155458 -16.227581
vertex 1.462219 30.940620 -19.734104
endloop
endfacet
facet normal -0.491120 -0.794657 -0.356821
outer loop
vertex 2.601543 26.906277 -16.227566
vertex -1.031199 26.906303 -11.227612
vertex -2.655794 30.155458 -16.227581
endloop
endfacet
facet normal -0.724042 -0.661695 -0.194737
outer loop
vertex -1.031199 26.906303 -11.227612
vertex -4.718162 30.940662 -11.227612
vertex -2.655794 30.155458 -16.227581
endloop
endfacet
facet normal -0.724042 -0.661695 0.194737
outer loop
vertex -1.031199 26.906303 -11.227612
vertex -2.655794 30.155458 -6.227644
vertex -4.718162 30.940662 -11.227612
endloop
endfacet
facet normal -0.491119 -0.794657 0.356822
outer loop
vertex -1.031199 26.906303 -11.227612
vertex 2.601543 26.906277 -6.227660
vertex -2.655794 30.155458 -6.227644
endloop
endfacet
facet normal -0.408947 -0.661699 0.628424
outer loop
vertex 2.601543 26.906277 -6.227660
vertex 1.462219 30.940620 -2.721120
vertex -2.655794 30.155458 -6.227644
endloop
endfacet
facet normal 0.700224 -0.661699 -0.268031
outer loop
vertex 12.732576 30.155460 -11.227612
vertex 8.479324 26.906279 -14.317726
vertex 11.462172 30.940624 -16.484865
endloop
endfacet
facet normal 0.607060 -0.794656 0.000000
outer loop
vertex 12.732576 30.155460 -11.227612
vertex 8.479324 26.906279 -8.137499
vertex 8.479324 26.906279 -14.317726
endloop
endfacet
facet normal 0.331305 -0.943524 0.000000
outer loop
vertex 8.479324 26.906279 -8.137499
vertex 4.226099 25.412819 -11.227612
vertex 8.479324 26.906279 -14.317726
endloop
endfacet
facet normal -0.038530 -0.661700 0.748778
outer loop
vertex 2.601543 26.906277 -6.227660
vertex 6.854786 30.155443 -3.137498
vertex 1.462219 30.940620 -2.721120
endloop
endfacet
facet normal 0.187594 -0.794657 0.577345
outer loop
vertex 2.601543 26.906277 -6.227660
vertex 8.479324 26.906279 -8.137499
vertex 6.854786 30.155443 -3.137498
endloop
endfacet
facet normal 0.471299 -0.661698 0.583123
outer loop
vertex 8.479324 26.906279 -8.137499
vertex 11.462172 30.940624 -5.970359
vertex 6.854786 30.155443 -3.137498
endloop
endfacet
endsolid Exported from Blender-2.74 (sub 0)
