solid Exported from Blender-2.74 (sub 0)
facet normal 0.102381 -0.943524 0.315090
outer loop
vertex -10.390361 20.591896 -7.622732
vertex -6.137135 22.085356 -4.532619
vertex -12.014916 22.085354 -2.622780
endloop
endfacet
facet normal 0.700224 -0.661699 0.268031
outer loop
vertex -3.154288 26.119701 -2.365479
vertex -6.137135 22.085356 -4.532619
vertex -1.883883 25.334538 -7.622732
endloop
endfacet
facet normal -0.268034 -0.943523 0.194737
outer loop
vertex -10.390361 20.591896 -7.622732
vertex -12.014916 22.085354 -2.622780
vertex -15.647657 22.085381 -7.622732
endloop
endfacet
facet normal -0.268034 -0.943523 -0.194737
outer loop
vertex -10.390361 20.591896 -7.622732
vertex -15.647657 22.085381 -7.622732
vertex -12.014916 22.085354 -12.622684
endloop
endfacet
facet normal 0.102381 -0.943524 -0.315090
outer loop
vertex -10.390361 20.591896 -7.622732
vertex -12.014916 22.085354 -12.622684
vertex -6.137135 22.085356 -10.712846
endloop
endfacet
facet normal 0.904989 -0.330384 0.268031
outer loop
vertex -3.154288 26.119701 -2.365479
vertex -1.883883 25.334538 -7.622732
vertex -0.879784 30.591896 -4.532606
endloop
endfacet
facet normal 0.024747 -0.330386 0.943521
outer loop
vertex -13.154241 26.119698 0.883760
vertex -7.761673 25.334520 0.467382
vertex -10.390361 30.591896 2.377267
endloop
endfacet
facet normal -0.889697 -0.330385 0.315094
outer loop
vertex -19.334621 26.119740 -7.622732
vertex -17.272253 25.334536 -2.622764
vertex -19.900938 30.591896 -4.532606
endloop
endfacet
facet normal -0.574602 -0.330387 -0.748784
outer loop
vertex -13.154241 26.119698 -16.129225
vertex -17.272253 25.334536 -12.622701
vertex -16.268215 30.591896 -15.712898
endloop
endfacet
facet normal 0.534576 -0.330386 -0.777865
outer loop
vertex -3.154288 26.119701 -12.879986
vertex -7.761673 25.334520 -15.712847
vertex -4.512506 30.591896 -15.712898
endloop
endfacet
facet normal 0.802609 -0.125627 0.583127
outer loop
vertex -3.154288 26.119701 -2.365479
vertex -0.879784 30.591896 -4.532606
vertex -4.512506 30.591896 0.467434
endloop
endfacet
facet normal -0.306569 -0.125629 0.943521
outer loop
vertex -13.154241 26.119698 0.883760
vertex -10.390361 30.591896 2.377267
vertex -16.268215 30.591896 0.467434
endloop
endfacet
facet normal -0.992077 -0.125629 0.000000
outer loop
vertex -19.334621 26.119740 -7.622732
vertex -19.900938 30.591896 -4.532606
vertex -19.900938 30.591896 -10.712858
endloop
endfacet
facet normal -0.306569 -0.125629 -0.943522
outer loop
vertex -13.154241 26.119698 -16.129225
vertex -16.268215 30.591896 -15.712898
vertex -10.390361 30.591896 -17.622730
endloop
endfacet
facet normal 0.802609 -0.125627 -0.583127
outer loop
vertex -3.154288 26.119701 -12.879986
vertex -4.512506 30.591896 -15.712898
vertex -0.879784 30.591896 -10.712858
endloop
endfacet
facet normal 0.408947 0.661699 0.628424
outer loop
vertex -7.626481 35.064095 0.883760
vertex -3.508469 35.849258 -2.622764
vertex -8.765805 39.098438 -2.622780
endloop
endfacet
facet normal -0.471299 0.661699 0.583122
outer loop
vertex -17.626434 35.064091 -2.365479
vertex -13.019049 35.849274 0.467382
vertex -14.643587 39.098434 -4.532619
endloop
endfacet
facet normal -0.700223 0.661699 -0.268032
outer loop
vertex -17.626434 35.064091 -12.879986
vertex -18.896839 35.849255 -7.622732
vertex -14.643587 39.098434 -10.712846
endloop
endfacet
facet normal 0.038530 0.661699 -0.748779
outer loop
vertex -7.626481 35.064095 -16.129225
vertex -13.019049 35.849274 -15.712847
vertex -8.765805 39.098438 -12.622684
endloop
endfacet
facet normal 0.724042 0.661695 -0.194736
outer loop
vertex -1.446100 35.064053 -7.622732
vertex -3.508469 35.849258 -12.622701
vertex -5.133064 39.098412 -7.622732
endloop
endfacet
facet normal 0.268034 0.943523 -0.194737
outer loop
vertex -5.133064 39.098412 -7.622732
vertex -8.765805 39.098438 -12.622684
vertex -10.390361 40.591896 -7.622732
endloop
endfacet
facet normal 0.491119 0.794657 -0.356822
outer loop
vertex -5.133064 39.098412 -7.622732
vertex -3.508469 35.849258 -12.622701
vertex -8.765805 39.098438 -12.622684
endloop
endfacet
facet normal 0.408947 0.661699 -0.628424
outer loop
vertex -3.508469 35.849258 -12.622701
vertex -7.626481 35.064095 -16.129225
vertex -8.765805 39.098438 -12.622684
endloop
endfacet
facet normal -0.102381 0.943523 -0.315090
outer loop
vertex -8.765805 39.098438 -12.622684
vertex -14.643587 39.098434 -10.712846
vertex -10.390361 40.591896 -7.622732
endloop
endfacet
facet normal -0.187594 0.794658 -0.577345
outer loop
vertex -8.765805 39.098438 -12.622684
vertex -13.019049 35.849274 -15.712847
vertex -14.643587 39.098434 -10.712846
endloop
endfacet
facet normal -0.471300 0.661699 -0.583122
outer loop
vertex -13.019049 35.849274 -15.712847
vertex -17.626434 35.064091 -12.879986
vertex -14.643587 39.098434 -10.712846
endloop
endfacet
facet normal -0.331305 0.943524 0.000000
outer loop
vertex -14.643587 39.098434 -10.712846
vertex -14.643587 39.098434 -4.532619
vertex -10.390361 40.591896 -7.622732
endloop
endfacet
facet normal -0.607060 0.794656 0.000000
outer loop
vertex -14.643587 39.098434 -10.712846
vertex -18.896839 35.849255 -7.622732
vertex -14.643587 39.098434 -4.532619
endloop
endfacet
facet normal -0.700223 0.661699 0.268032
outer loop
vertex -18.896839 35.849255 -7.622732
vertex -17.626434 35.064091 -2.365479
vertex -14.643587 39.098434 -4.532619
endloop
endfacet
facet normal -0.102381 0.943523 0.315091
outer loop
vertex -14.643587 39.098434 -4.532619
vertex -8.765805 39.098438 -2.622780
vertex -10.390361 40.591896 -7.622732
endloop
endfacet
facet normal -0.187594 0.794658 0.577345
outer loop
vertex -14.643587 39.098434 -4.532619
vertex -13.019049 35.849274 0.467382
vertex -8.765805 39.098438 -2.622780
endloop
endfacet
facet normal 0.038530 0.661699 0.748779
outer loop
vertex -13.019049 35.849274 0.467382
vertex -7.626481 35.064095 0.883760
vertex -8.765805 39.098438 -2.622780
endloop
endfacet
facet normal 0.268034 0.943523 0.194736
outer loop
vertex -8.765805 39.098438 -2.622780
vertex -5.133064 39.098412 -7.622732
vertex -10.390361 40.591896 -7.622732
endloop
endfacet
facet normal 0.491119 0.794657 0.356822
outer loop
vertex -8.765805 39.098438 -2.622780
vertex -3.508469 35.849258 -2.622764
vertex -5.133064 39.098412 -7.622732
endloop
endfacet
facet normal 0.724042 0.661696 0.194736
outer loop
vertex -3.508469 35.849258 -2.622764
vertex -1.446100 35.064053 -7.622732
vertex -5.133064 39.098412 -7.622732
endloop
endfacet
facet normal 0.889697 0.330385 -0.315095
outer loop
vertex -0.879784 30.591896 -10.712858
vertex -3.508469 35.849258 -12.622701
vertex -1.446100 35.064053 -7.622732
endloop
endfacet
facet normal 0.794655 0.187595 -0.577348
outer loop
vertex -0.879784 30.591896 -10.712858
vertex -4.512506 30.591896 -15.712898
vertex -3.508469 35.849258 -12.622701
endloop
endfacet
facet normal 0.574602 0.330387 -0.748783
outer loop
vertex -4.512506 30.591896 -15.712898
vertex -7.626481 35.064095 -16.129225
vertex -3.508469 35.849258 -12.622701
endloop
endfacet
facet normal -0.024746 0.330386 -0.943521
outer loop
vertex -10.390361 30.591896 -17.622730
vertex -13.019049 35.849274 -15.712847
vertex -7.626481 35.064095 -16.129225
endloop
endfacet
facet normal -0.303531 0.187598 -0.934171
outer loop
vertex -10.390361 30.591896 -17.622730
vertex -16.268215 30.591896 -15.712898
vertex -13.019049 35.849274 -15.712847
endloop
endfacet
facet normal -0.534576 0.330387 -0.777864
outer loop
vertex -16.268215 30.591896 -15.712898
vertex -17.626434 35.064091 -12.879986
vertex -13.019049 35.849274 -15.712847
endloop
endfacet
facet normal -0.904989 0.330384 -0.268031
outer loop
vertex -19.900938 30.591896 -10.712858
vertex -18.896839 35.849255 -7.622732
vertex -17.626434 35.064091 -12.879986
endloop
endfacet
facet normal -0.982246 0.187599 0.000000
outer loop
vertex -19.900938 30.591896 -10.712858
vertex -19.900938 30.591896 -4.532606
vertex -18.896839 35.849255 -7.622732
endloop
endfacet
facet normal -0.904989 0.330384 0.268031
outer loop
vertex -19.900938 30.591896 -4.532606
vertex -17.626434 35.064091 -2.365479
vertex -18.896839 35.849255 -7.622732
endloop
endfacet
facet normal -0.534576 0.330387 0.777864
outer loop
vertex -16.268215 30.591896 0.467434
vertex -13.019049 35.849274 0.467382
vertex -17.626434 35.064091 -2.365479
endloop
endfacet
facet normal -0.303531 0.187598 0.934171
outer loop
vertex -16.268215 30.591896 0.467434
vertex -10.390361 30.591896 2.377267
vertex -13.019049 35.849274 0.467382
endloop
endfacet
facet normal -0.024747 0.330386 0.943521
outer loop
vertex -10.390361 30.591896 2.377267
vertex -7.626481 35.064095 0.883760
vertex -13.019049 35.849274 0.467382
endloop
endfacet
facet normal 0.574602 0.330387 0.748783
outer loop
vertex -4.512506 30.591896 0.467434
vertex -3.508469 35.849258 -2.622764
vertex -7.626481 35.064095 0.883760
endloop
endfacet
facet normal 0.794656 0.187595 0.577348
outer loop
vertex -4.512506 30.591896 0.467434
vertex -0.879784 30.591896 -4.532606
vertex -3.508469 35.849258 -2.622764
endloop
endfacet
facet normal 0.889697 0.330385 0.315095
outer loop
vertex -0.879784 30.591896 -4.532606
vertex -1.446100 35.064053 -7.622732
vertex -3.508469 35.849258 -2.622764
endloop
endfacet
facet normal 0.306569 0.125628 -0.943522
outer loop
vertex -4.512506 30.591896 -15.712898
vertex -10.390361 30.591896 -17.622730
vertex -7.626481 35.064095 -16.129225
endloop
endfacet
facet normal 0.303531 -0.187598 -0.934171
outer loop
vertex -4.512506 30.591896 -15.712898
vertex -7.761673 25.334520 -15.712847
vertex -10.390361 30.591896 -17.622730
endloop
endfacet
facet normal 0.024746 -0.330386 -0.943521
outer loop
vertex -7.761673 25.334520 -15.712847
vertex -13.154241 26.119698 -16.129225
vertex -10.390361 30.591896 -17.622730
endloop
endfacet
facet normal -0.802609 0.125626 -0.583127
outer loop
vertex -16.268215 30.591896 -15.712898
vertex -19.900938 30.591896 -10.712858
vertex -17.626434 35.064091 -12.879986
endloop
endfacet
facet normal -0.794655 -0.187595 -0.577348
outer loop
vertex -16.268215 30.591896 -15.712898
vertex -17.272253 25.334536 -12.622701
vertex -19.900938 30.591896 -10.712858
endloop
endfacet
facet normal -0.889697 -0.330385 -0.315095
outer loop
vertex -17.272253 25.334536 -12.622701
vertex -19.334621 26.119740 -7.622732
vertex -19.900938 30.591896 -10.712858
endloop
endfacet
facet normal -0.802609 0.125626 0.583127
outer loop
vertex -19.900938 30.591896 -4.532606
vertex -16.268215 30.591896 0.467434
vertex -17.626434 35.064091 -2.365479
endloop
endfacet
facet normal -0.794655 -0.187595 0.577348
outer loop
vertex -19.900938 30.591896 -4.532606
vertex -17.272253 25.334536 -2.622764
vertex -16.268215 30.591896 0.467434
endloop
endfacet
facet normal -0.574602 -0.330387 0.748784
outer loop
vertex -17.272253 25.334536 -2.622764
vertex -13.154241 26.119698 0.883760
vertex -16.268215 30.591896 0.467434
endloop
endfacet
facet normal 0.306569 0.125629 0.943522
outer loop
vertex -10.390361 30.591896 2.377267
vertex -4.512506 30.591896 0.467434
vertex -7.626481 35.064095 0.883760
endloop
endfacet
facet normal 0.303531 -0.187598 0.934171
outer loop
vertex -10.390361 30.591896 2.377267
vertex -7.761673 25.334520 0.467382
vertex -4.512506 30.591896 0.467434
endloop
endfacet
facet normal 0.534576 -0.330387 0.777865
outer loop
vertex -7.761673 25.334520 0.467382
vertex -3.154288 26.119701 -2.365479
vertex -4.512506 30.591896 0.467434
endloop
endfacet
facet normal 0.992077 0.125628 0.000000
outer loop
vertex -0.879784 30.591896 -4.532606
vertex -0.879784 30.591896 -10.712858
vertex -1.446100 35.064053 -7.622732
endloop
endfacet
facet normal 0.982246 -0.187599 0.000000
outer loop
vertex -0.879784 30.591896 -4.532606
vertex -1.883883 25.334538 -7.622732
vertex -0.879784 30.591896 -10.712858
endloop
endfacet
facet normal 0.904989 -0.330384 -0.268031
outer loop
vertex -1.883883 25.334538 -7.622732
vertex -3.154288 26.119701 -12.879986
vertex -0.879784 30.591896 -10.712858
endloop
endfacet
facet normal 0.471299 -0.661699 -0.583123
outer loop
vertex -6.137135 22.085356 -10.712846
vertex -7.761673 25.334520 -15.712847
vertex -3.154288 26.119701 -12.879986
endloop
endfacet
facet normal 0.187594 -0.794658 -0.577345
outer loop
vertex -6.137135 22.085356 -10.712846
vertex -12.014916 22.085354 -12.622684
vertex -7.761673 25.334520 -15.712847
endloop
endfacet
facet normal -0.038530 -0.661700 -0.748778
outer loop
vertex -12.014916 22.085354 -12.622684
vertex -13.154241 26.119698 -16.129225
vertex -7.761673 25.334520 -15.712847
endloop
endfacet
facet normal -0.408947 -0.661699 -0.628424
outer loop
vertex -12.014916 22.085354 -12.622684
vertex -17.272253 25.334536 -12.622701
vertex -13.154241 26.119698 -16.129225
endloop
endfacet
facet normal -0.491119 -0.794657 -0.356822
outer loop
vertex -12.014916 22.085354 -12.622684
vertex -15.647657 22.085381 -7.622732
vertex -17.272253 25.334536 -12.622701
endloop
endfacet
facet normal -0.724042 -0.661695 -0.194736
outer loop
vertex -15.647657 22.085381 -7.622732
vertex -19.334621 26.119740 -7.622732
vertex -17.272253 25.334536 -12.622701
endloop
endfacet
facet normal -0.724042 -0.661695 0.194736
outer loop
vertex -15.647657 22.085381 -7.622732
vertex -17.272253 25.334536 -2.622764
vertex -19.334621 26.119740 -7.622732
endloop
endfacet
facet normal -0.491120 -0.794657 0.356822
outer loop
vertex -15.647657 22.085381 -7.622732
vertex -12.014916 22.085354 -2.622780
vertex -17.272253 25.334536 -2.622764
endloop
endfacet
facet normal -0.408947 -0.661699 0.628424
outer loop
vertex -12.014916 22.085354 -2.622780
vertex -13.154241 26.119698 0.883760
vertex -17.272253 25.334536 -2.622764
endloop
endfacet
facet normal 0.700224 -0.661699 -0.268031
outer loop
vertex -1.883883 25.334538 -7.622732
vertex -6.137135 22.085356 -10.712846
vertex -3.154288 26.119701 -12.879986
endloop
endfacet
facet normal 0.607061 -0.794656 0.000000
outer loop
vertex -1.883883 25.334538 -7.622732
vertex -6.137135 22.085356 -4.532619
vertex -6.137135 22.085356 -10.712846
endloop
endfacet
facet normal 0.331305 -0.943524 0.000000
outer loop
vertex -6.137135 22.085356 -4.532619
vertex -10.390361 20.591896 -7.622732
vertex -6.137135 22.085356 -10.712846
endloop
endfacet
facet normal -0.038530 -0.661700 0.748778
outer loop
vertex -12.014916 22.085354 -2.622780
vertex -7.761673 25.334520 0.467382
vertex -13.154241 26.119698 0.883760
endloop
endfacet
facet normal 0.187594 -0.794657 0.577346
outer loop
vertex -12.014916 22.085354 -2.622780
vertex -6.137135 22.085356 -4.532619
vertex -7.761673 25.334520 0.467382
endloop
endfacet
facet normal 0.471299 -0.661699 0.583123
outer loop
vertex -6.137135 22.085356 -4.532619
vertex -3.154288 26.119701 -2.365479
vertex -7.761673 25.334520 0.467382
endloop
endfacet
endsolid Exported from Blender-2.74 (sub 0)
