solid Exported from Blender-2.74 (sub 0)
facet normal 0.102381 -0.943523 0.315091
outer loop
vertex 4.161819 34.635460 -9.777684
vertex 8.415046 36.128922 -6.687571
vertex 2.537264 36.128918 -4.777732
endloop
endfacet
facet normal 0.700223 -0.661699 0.268033
outer loop
vertex 11.397892 40.163265 -4.520431
vertex 8.415046 36.128922 -6.687571
vertex 12.668297 39.378101 -9.777684
endloop
endfacet
facet normal -0.268034 -0.943523 0.194736
outer loop
vertex 4.161819 34.635460 -9.777684
vertex 2.537264 36.128918 -4.777732
vertex -1.095478 36.128944 -9.777684
endloop
endfacet
facet normal -0.268035 -0.943523 -0.194736
outer loop
vertex 4.161819 34.635460 -9.777684
vertex -1.095478 36.128944 -9.777684
vertex 2.537264 36.128918 -14.777637
endloop
endfacet
facet normal 0.102381 -0.943523 -0.315091
outer loop
vertex 4.161819 34.635460 -9.777684
vertex 2.537264 36.128918 -14.777637
vertex 8.415046 36.128922 -12.867798
endloop
endfacet
facet normal 0.904989 -0.330385 0.268031
outer loop
vertex 11.397892 40.163265 -4.520431
vertex 12.668297 39.378101 -9.777684
vertex 13.672397 44.635460 -6.687558
endloop
endfacet
facet normal 0.024747 -0.330386 0.943521
outer loop
vertex 1.397939 40.163261 -1.271192
vertex 6.790507 39.378082 -1.687570
vertex 4.161819 44.635460 0.222315
endloop
endfacet
facet normal -0.889697 -0.330385 0.315095
outer loop
vertex -4.782441 40.163303 -9.777684
vertex -2.720073 39.378098 -4.777716
vertex -5.348758 44.635460 -6.687558
endloop
endfacet
facet normal -0.574602 -0.330388 -0.748783
outer loop
vertex 1.397939 40.163261 -18.284176
vertex -2.720073 39.378098 -14.777653
vertex -1.716035 44.635460 -17.867851
endloop
endfacet
facet normal 0.534577 -0.330387 -0.777864
outer loop
vertex 11.397892 40.163265 -15.034937
vertex 6.790507 39.378082 -17.867798
vertex 10.039675 44.635460 -17.867851
endloop
endfacet
facet normal 0.802609 -0.125627 0.583127
outer loop
vertex 11.397892 40.163265 -4.520431
vertex 13.672397 44.635460 -6.687558
vertex 10.039675 44.635460 -1.687518
endloop
endfacet
facet normal -0.306569 -0.125629 0.943522
outer loop
vertex 1.397939 40.163261 -1.271192
vertex 4.161819 44.635460 0.222315
vertex -1.716035 44.635460 -1.687518
endloop
endfacet
facet normal -0.992077 -0.125628 0.000000
outer loop
vertex -4.782441 40.163303 -9.777684
vertex -5.348758 44.635460 -6.687558
vertex -5.348758 44.635460 -12.867810
endloop
endfacet
facet normal -0.306569 -0.125629 -0.943522
outer loop
vertex 1.397939 40.163261 -18.284176
vertex -1.716035 44.635460 -17.867851
vertex 4.161819 44.635460 -19.777683
endloop
endfacet
facet normal 0.802609 -0.125627 -0.583127
outer loop
vertex 11.397892 40.163265 -15.034937
vertex 10.039675 44.635460 -17.867851
vertex 13.672397 44.635460 -12.867810
endloop
endfacet
facet normal 0.408947 0.661699 0.628424
outer loop
vertex 6.925699 49.107658 -1.271192
vertex 11.043712 49.892822 -4.777716
vertex 5.786375 53.142002 -4.777732
endloop
endfacet
facet normal -0.471300 0.661699 0.583122
outer loop
vertex -3.074254 49.107655 -4.520431
vertex 1.533132 49.892838 -1.687570
vertex -0.091407 53.141998 -6.687571
endloop
endfacet
facet normal -0.700224 0.661699 -0.268033
outer loop
vertex -3.074254 49.107655 -15.034937
vertex -4.344658 49.892818 -9.777684
vertex -0.091407 53.141998 -12.867798
endloop
endfacet
facet normal 0.038530 0.661699 -0.748778
outer loop
vertex 6.925699 49.107658 -18.284176
vertex 1.533132 49.892838 -17.867798
vertex 5.786375 53.142002 -14.777637
endloop
endfacet
facet normal 0.724042 0.661695 -0.194735
outer loop
vertex 13.106080 49.107616 -9.777684
vertex 11.043712 49.892822 -14.777653
vertex 9.419117 53.141975 -9.777684
endloop
endfacet
facet normal 0.268035 0.943523 -0.194736
outer loop
vertex 9.419117 53.141975 -9.777684
vertex 5.786375 53.142002 -14.777637
vertex 4.161819 54.635460 -9.777684
endloop
endfacet
facet normal 0.491119 0.794657 -0.356822
outer loop
vertex 9.419117 53.141975 -9.777684
vertex 11.043712 49.892822 -14.777653
vertex 5.786375 53.142002 -14.777637
endloop
endfacet
facet normal 0.408946 0.661699 -0.628424
outer loop
vertex 11.043712 49.892822 -14.777653
vertex 6.925699 49.107658 -18.284176
vertex 5.786375 53.142002 -14.777637
endloop
endfacet
facet normal -0.102381 0.943523 -0.315090
outer loop
vertex 5.786375 53.142002 -14.777637
vertex -0.091407 53.141998 -12.867798
vertex 4.161819 54.635460 -9.777684
endloop
endfacet
facet normal -0.187594 0.794658 -0.577345
outer loop
vertex 5.786375 53.142002 -14.777637
vertex 1.533132 49.892838 -17.867798
vertex -0.091407 53.141998 -12.867798
endloop
endfacet
facet normal -0.471299 0.661699 -0.583122
outer loop
vertex 1.533132 49.892838 -17.867798
vertex -3.074254 49.107655 -15.034937
vertex -0.091407 53.141998 -12.867798
endloop
endfacet
facet normal -0.331305 0.943524 0.000000
outer loop
vertex -0.091407 53.141998 -12.867798
vertex -0.091407 53.141998 -6.687571
vertex 4.161819 54.635460 -9.777684
endloop
endfacet
facet normal -0.607060 0.794656 0.000000
outer loop
vertex -0.091407 53.141998 -12.867798
vertex -4.344658 49.892818 -9.777684
vertex -0.091407 53.141998 -6.687571
endloop
endfacet
facet normal -0.700223 0.661699 0.268033
outer loop
vertex -4.344658 49.892818 -9.777684
vertex -3.074254 49.107655 -4.520431
vertex -0.091407 53.141998 -6.687571
endloop
endfacet
facet normal -0.102381 0.943523 0.315090
outer loop
vertex -0.091407 53.141998 -6.687571
vertex 5.786375 53.142002 -4.777732
vertex 4.161819 54.635460 -9.777684
endloop
endfacet
facet normal -0.187595 0.794658 0.577345
outer loop
vertex -0.091407 53.141998 -6.687571
vertex 1.533132 49.892838 -1.687570
vertex 5.786375 53.142002 -4.777732
endloop
endfacet
facet normal 0.038530 0.661700 0.748778
outer loop
vertex 1.533132 49.892838 -1.687570
vertex 6.925699 49.107658 -1.271192
vertex 5.786375 53.142002 -4.777732
endloop
endfacet
facet normal 0.268034 0.943523 0.194736
outer loop
vertex 5.786375 53.142002 -4.777732
vertex 9.419117 53.141975 -9.777684
vertex 4.161819 54.635460 -9.777684
endloop
endfacet
facet normal 0.491119 0.794657 0.356822
outer loop
vertex 5.786375 53.142002 -4.777732
vertex 11.043712 49.892822 -4.777716
vertex 9.419117 53.141975 -9.777684
endloop
endfacet
facet normal 0.724043 0.661695 0.194735
outer loop
vertex 11.043712 49.892822 -4.777716
vertex 13.106080 49.107616 -9.777684
vertex 9.419117 53.141975 -9.777684
endloop
endfacet
facet normal 0.889697 0.330385 -0.315095
outer loop
vertex 13.672397 44.635460 -12.867810
vertex 11.043712 49.892822 -14.777653
vertex 13.106080 49.107616 -9.777684
endloop
endfacet
facet normal 0.794656 0.187595 -0.577348
outer loop
vertex 13.672397 44.635460 -12.867810
vertex 10.039675 44.635460 -17.867851
vertex 11.043712 49.892822 -14.777653
endloop
endfacet
facet normal 0.574602 0.330388 -0.748783
outer loop
vertex 10.039675 44.635460 -17.867851
vertex 6.925699 49.107658 -18.284176
vertex 11.043712 49.892822 -14.777653
endloop
endfacet
facet normal -0.024747 0.330386 -0.943521
outer loop
vertex 4.161819 44.635460 -19.777683
vertex 1.533132 49.892838 -17.867798
vertex 6.925699 49.107658 -18.284176
endloop
endfacet
facet normal -0.303531 0.187598 -0.934171
outer loop
vertex 4.161819 44.635460 -19.777683
vertex -1.716035 44.635460 -17.867851
vertex 1.533132 49.892838 -17.867798
endloop
endfacet
facet normal -0.534576 0.330387 -0.777864
outer loop
vertex -1.716035 44.635460 -17.867851
vertex -3.074254 49.107655 -15.034937
vertex 1.533132 49.892838 -17.867798
endloop
endfacet
facet normal -0.904989 0.330384 -0.268031
outer loop
vertex -5.348758 44.635460 -12.867810
vertex -4.344658 49.892818 -9.777684
vertex -3.074254 49.107655 -15.034937
endloop
endfacet
facet normal -0.982246 0.187599 0.000000
outer loop
vertex -5.348758 44.635460 -12.867810
vertex -5.348758 44.635460 -6.687558
vertex -4.344658 49.892818 -9.777684
endloop
endfacet
facet normal -0.904989 0.330384 0.268031
outer loop
vertex -5.348758 44.635460 -6.687558
vertex -3.074254 49.107655 -4.520431
vertex -4.344658 49.892818 -9.777684
endloop
endfacet
facet normal -0.534576 0.330386 0.777865
outer loop
vertex -1.716035 44.635460 -1.687518
vertex 1.533132 49.892838 -1.687570
vertex -3.074254 49.107655 -4.520431
endloop
endfacet
facet normal -0.303531 0.187597 0.934171
outer loop
vertex -1.716035 44.635460 -1.687518
vertex 4.161819 44.635460 0.222315
vertex 1.533132 49.892838 -1.687570
endloop
endfacet
facet normal -0.024747 0.330386 0.943521
outer loop
vertex 4.161819 44.635460 0.222315
vertex 6.925699 49.107658 -1.271192
vertex 1.533132 49.892838 -1.687570
endloop
endfacet
facet normal 0.574602 0.330387 0.748783
outer loop
vertex 10.039675 44.635460 -1.687518
vertex 11.043712 49.892822 -4.777716
vertex 6.925699 49.107658 -1.271192
endloop
endfacet
facet normal 0.794656 0.187595 0.577348
outer loop
vertex 10.039675 44.635460 -1.687518
vertex 13.672397 44.635460 -6.687558
vertex 11.043712 49.892822 -4.777716
endloop
endfacet
facet normal 0.889697 0.330385 0.315095
outer loop
vertex 13.672397 44.635460 -6.687558
vertex 13.106080 49.107616 -9.777684
vertex 11.043712 49.892822 -4.777716
endloop
endfacet
facet normal 0.306569 0.125629 -0.943522
outer loop
vertex 10.039675 44.635460 -17.867851
vertex 4.161819 44.635460 -19.777683
vertex 6.925699 49.107658 -18.284176
endloop
endfacet
facet normal 0.303530 -0.187598 -0.934171
outer loop
vertex 10.039675 44.635460 -17.867851
vertex 6.790507 39.378082 -17.867798
vertex 4.161819 44.635460 -19.777683
endloop
endfacet
facet normal 0.024747 -0.330386 -0.943521
outer loop
vertex 6.790507 39.378082 -17.867798
vertex 1.397939 40.163261 -18.284176
vertex 4.161819 44.635460 -19.777683
endloop
endfacet
facet normal -0.802609 0.125627 -0.583127
outer loop
vertex -1.716035 44.635460 -17.867851
vertex -5.348758 44.635460 -12.867810
vertex -3.074254 49.107655 -15.034937
endloop
endfacet
facet normal -0.794656 -0.187595 -0.577348
outer loop
vertex -1.716035 44.635460 -17.867851
vertex -2.720073 39.378098 -14.777653
vertex -5.348758 44.635460 -12.867810
endloop
endfacet
facet normal -0.889697 -0.330385 -0.315095
outer loop
vertex -2.720073 39.378098 -14.777653
vertex -4.782441 40.163303 -9.777684
vertex -5.348758 44.635460 -12.867810
endloop
endfacet
facet normal -0.802609 0.125627 0.583127
outer loop
vertex -5.348758 44.635460 -6.687558
vertex -1.716035 44.635460 -1.687518
vertex -3.074254 49.107655 -4.520431
endloop
endfacet
facet normal -0.794656 -0.187595 0.577348
outer loop
vertex -5.348758 44.635460 -6.687558
vertex -2.720073 39.378098 -4.777716
vertex -1.716035 44.635460 -1.687518
endloop
endfacet
facet normal -0.574602 -0.330388 0.748783
outer loop
vertex -2.720073 39.378098 -4.777716
vertex 1.397939 40.163261 -1.271192
vertex -1.716035 44.635460 -1.687518
endloop
endfacet
facet normal 0.306569 0.125629 0.943521
outer loop
vertex 4.161819 44.635460 0.222315
vertex 10.039675 44.635460 -1.687518
vertex 6.925699 49.107658 -1.271192
endloop
endfacet
facet normal 0.303531 -0.187598 0.934171
outer loop
vertex 4.161819 44.635460 0.222315
vertex 6.790507 39.378082 -1.687570
vertex 10.039675 44.635460 -1.687518
endloop
endfacet
facet normal 0.534576 -0.330387 0.777864
outer loop
vertex 6.790507 39.378082 -1.687570
vertex 11.397892 40.163265 -4.520431
vertex 10.039675 44.635460 -1.687518
endloop
endfacet
facet normal 0.992077 0.125628 0.000000
outer loop
vertex 13.672397 44.635460 -6.687558
vertex 13.672397 44.635460 -12.867810
vertex 13.106080 49.107616 -9.777684
endloop
endfacet
facet normal 0.982246 -0.187598 0.000000
outer loop
vertex 13.672397 44.635460 -6.687558
vertex 12.668297 39.378101 -9.777684
vertex 13.672397 44.635460 -12.867810
endloop
endfacet
facet normal 0.904989 -0.330385 -0.268031
outer loop
vertex 12.668297 39.378101 -9.777684
vertex 11.397892 40.163265 -15.034937
vertex 13.672397 44.635460 -12.867810
endloop
endfacet
facet normal 0.471299 -0.661699 -0.583122
outer loop
vertex 8.415046 36.128922 -12.867798
vertex 6.790507 39.378082 -17.867798
vertex 11.397892 40.163265 -15.034937
endloop
endfacet
facet normal 0.187594 -0.794658 -0.577345
outer loop
vertex 8.415046 36.128922 -12.867798
vertex 2.537264 36.128918 -14.777637
vertex 6.790507 39.378082 -17.867798
endloop
endfacet
facet normal -0.038530 -0.661699 -0.748778
outer loop
vertex 2.537264 36.128918 -14.777637
vertex 1.397939 40.163261 -18.284176
vertex 6.790507 39.378082 -17.867798
endloop
endfacet
facet normal -0.408946 -0.661699 -0.628425
outer loop
vertex 2.537264 36.128918 -14.777637
vertex -2.720073 39.378098 -14.777653
vertex 1.397939 40.163261 -18.284176
endloop
endfacet
facet normal -0.491119 -0.794657 -0.356822
outer loop
vertex 2.537264 36.128918 -14.777637
vertex -1.095478 36.128944 -9.777684
vertex -2.720073 39.378098 -14.777653
endloop
endfacet
facet normal -0.724042 -0.661696 -0.194736
outer loop
vertex -1.095478 36.128944 -9.777684
vertex -4.782441 40.163303 -9.777684
vertex -2.720073 39.378098 -14.777653
endloop
endfacet
facet normal -0.724042 -0.661696 0.194736
outer loop
vertex -1.095478 36.128944 -9.777684
vertex -2.720073 39.378098 -4.777716
vertex -4.782441 40.163303 -9.777684
endloop
endfacet
facet normal -0.491119 -0.794657 0.356822
outer loop
vertex -1.095478 36.128944 -9.777684
vertex 2.537264 36.128918 -4.777732
vertex -2.720073 39.378098 -4.777716
endloop
endfacet
facet normal -0.408946 -0.661699 0.628425
outer loop
vertex 2.537264 36.128918 -4.777732
vertex 1.397939 40.163261 -1.271192
vertex -2.720073 39.378098 -4.777716
endloop
endfacet
facet normal 0.700224 -0.661699 -0.268033
outer loop
vertex 12.668297 39.378101 -9.777684
vertex 8.415046 36.128922 -12.867798
vertex 11.397892 40.163265 -15.034937
endloop
endfacet
facet normal 0.607060 -0.794656 0.000000
outer loop
vertex 12.668297 39.378101 -9.777684
vertex 8.415046 36.128922 -6.687571
vertex 8.415046 36.128922 -12.867798
endloop
endfacet
facet normal 0.331305 -0.943524 0.000000
outer loop
vertex 8.415046 36.128922 -6.687571
vertex 4.161819 34.635460 -9.777684
vertex 8.415046 36.128922 -12.867798
endloop
endfacet
facet normal -0.038530 -0.661700 0.748778
outer loop
vertex 2.537264 36.128918 -4.777732
vertex 6.790507 39.378082 -1.687570
vertex 1.397939 40.163261 -1.271192
endloop
endfacet
facet normal 0.187595 -0.794658 0.577345
outer loop
vertex 2.537264 36.128918 -4.777732
vertex 8.415046 36.128922 -6.687571
vertex 6.790507 39.378082 -1.687570
endloop
endfacet
facet normal 0.471300 -0.661699 0.583122
outer loop
vertex 8.415046 36.128922 -6.687571
vertex 11.397892 40.163265 -4.520431
vertex 6.790507 39.378082 -1.687570
endloop
endfacet
endsolid Exported from Blender-2.74 (sub 0)
