solid Exported from Blender-2.74 (sub 0)
facet normal 0.102381 -0.943524 0.315089
outer loop
vertex -8.820238 29.424919 -13.100518
vertex -4.567012 30.918379 -10.010405
vertex -10.444794 30.918377 -8.100566
endloop
endfacet
facet normal 0.700224 -0.661699 0.268031
outer loop
vertex -1.584165 34.952724 -7.843265
vertex -4.567012 30.918379 -10.010405
vertex -0.313761 34.167561 -13.100518
endloop
endfacet
facet normal -0.268034 -0.943523 0.194737
outer loop
vertex -8.820238 29.424919 -13.100518
vertex -10.444794 30.918377 -8.100566
vertex -14.077536 30.918404 -13.100518
endloop
endfacet
facet normal -0.268034 -0.943523 -0.194737
outer loop
vertex -8.820238 29.424919 -13.100518
vertex -14.077536 30.918404 -13.100518
vertex -10.444794 30.918377 -18.100471
endloop
endfacet
facet normal 0.102381 -0.943524 -0.315089
outer loop
vertex -8.820238 29.424919 -13.100518
vertex -10.444794 30.918377 -18.100471
vertex -4.567012 30.918379 -16.190632
endloop
endfacet
facet normal 0.904989 -0.330385 0.268031
outer loop
vertex -1.584165 34.952724 -7.843265
vertex -0.313761 34.167561 -13.100518
vertex 0.690339 39.424919 -10.010392
endloop
endfacet
facet normal 0.024747 -0.330386 0.943521
outer loop
vertex -11.584118 34.952721 -4.594026
vertex -6.191550 34.167542 -5.010404
vertex -8.820238 39.424919 -3.100519
endloop
endfacet
facet normal -0.889697 -0.330385 0.315095
outer loop
vertex -17.764500 34.952763 -13.100518
vertex -15.702130 34.167557 -8.100550
vertex -18.330814 39.424919 -10.010392
endloop
endfacet
facet normal -0.574601 -0.330388 -0.748784
outer loop
vertex -11.584118 34.952721 -21.607010
vertex -15.702130 34.167557 -18.100487
vertex -14.698093 39.424919 -21.190685
endloop
endfacet
facet normal 0.534576 -0.330387 -0.777864
outer loop
vertex -1.584165 34.952724 -18.357771
vertex -6.191550 34.167542 -21.190632
vertex -2.942383 39.424919 -21.190685
endloop
endfacet
facet normal 0.802609 -0.125627 0.583127
outer loop
vertex -1.584165 34.952724 -7.843265
vertex 0.690339 39.424919 -10.010392
vertex -2.942383 39.424919 -5.010352
endloop
endfacet
facet normal -0.306569 -0.125629 0.943521
outer loop
vertex -11.584118 34.952721 -4.594026
vertex -8.820238 39.424919 -3.100519
vertex -14.698093 39.424919 -5.010352
endloop
endfacet
facet normal -0.992077 -0.125628 0.000000
outer loop
vertex -17.764500 34.952763 -13.100518
vertex -18.330814 39.424919 -10.010392
vertex -18.330814 39.424919 -16.190645
endloop
endfacet
facet normal -0.306569 -0.125629 -0.943521
outer loop
vertex -11.584118 34.952721 -21.607010
vertex -14.698093 39.424919 -21.190685
vertex -8.820238 39.424919 -23.100517
endloop
endfacet
facet normal 0.802609 -0.125627 -0.583127
outer loop
vertex -1.584165 34.952724 -18.357771
vertex -2.942383 39.424919 -21.190685
vertex 0.690339 39.424919 -16.190645
endloop
endfacet
facet normal 0.408946 0.661699 0.628425
outer loop
vertex -6.056358 43.897118 -4.594026
vertex -1.938346 44.682281 -8.100550
vertex -7.195683 47.931461 -8.100566
endloop
endfacet
facet normal -0.471300 0.661699 0.583122
outer loop
vertex -16.056311 43.897114 -7.843265
vertex -11.448926 44.682297 -5.010404
vertex -13.073464 47.931458 -10.010405
endloop
endfacet
facet normal -0.700224 0.661699 -0.268033
outer loop
vertex -16.056311 43.897114 -18.357771
vertex -17.326715 44.682278 -13.100518
vertex -13.073464 47.931458 -16.190632
endloop
endfacet
facet normal 0.038530 0.661699 -0.748779
outer loop
vertex -6.056358 43.897118 -21.607010
vertex -11.448926 44.682297 -21.190632
vertex -7.195683 47.931461 -18.100471
endloop
endfacet
facet normal 0.724042 0.661696 -0.194736
outer loop
vertex 0.124022 43.897076 -13.100518
vertex -1.938346 44.682281 -18.100487
vertex -3.562941 47.931435 -13.100518
endloop
endfacet
facet normal 0.268034 0.943523 -0.194736
outer loop
vertex -3.562941 47.931435 -13.100518
vertex -7.195683 47.931461 -18.100471
vertex -8.820238 49.424919 -13.100518
endloop
endfacet
facet normal 0.491119 0.794657 -0.356821
outer loop
vertex -3.562941 47.931435 -13.100518
vertex -1.938346 44.682281 -18.100487
vertex -7.195683 47.931461 -18.100471
endloop
endfacet
facet normal 0.408947 0.661698 -0.628425
outer loop
vertex -1.938346 44.682281 -18.100487
vertex -6.056358 43.897118 -21.607010
vertex -7.195683 47.931461 -18.100471
endloop
endfacet
facet normal -0.102381 0.943523 -0.315091
outer loop
vertex -7.195683 47.931461 -18.100471
vertex -13.073464 47.931458 -16.190632
vertex -8.820238 49.424919 -13.100518
endloop
endfacet
facet normal -0.187595 0.794658 -0.577345
outer loop
vertex -7.195683 47.931461 -18.100471
vertex -11.448926 44.682297 -21.190632
vertex -13.073464 47.931458 -16.190632
endloop
endfacet
facet normal -0.471300 0.661699 -0.583122
outer loop
vertex -11.448926 44.682297 -21.190632
vertex -16.056311 43.897114 -18.357771
vertex -13.073464 47.931458 -16.190632
endloop
endfacet
facet normal -0.331305 0.943524 0.000000
outer loop
vertex -13.073464 47.931458 -16.190632
vertex -13.073464 47.931458 -10.010405
vertex -8.820238 49.424919 -13.100518
endloop
endfacet
facet normal -0.607060 0.794656 0.000000
outer loop
vertex -13.073464 47.931458 -16.190632
vertex -17.326715 44.682278 -13.100518
vertex -13.073464 47.931458 -10.010405
endloop
endfacet
facet normal -0.700223 0.661699 0.268033
outer loop
vertex -17.326715 44.682278 -13.100518
vertex -16.056311 43.897114 -7.843265
vertex -13.073464 47.931458 -10.010405
endloop
endfacet
facet normal -0.102381 0.943523 0.315091
outer loop
vertex -13.073464 47.931458 -10.010405
vertex -7.195683 47.931461 -8.100566
vertex -8.820238 49.424919 -13.100518
endloop
endfacet
facet normal -0.187594 0.794658 0.577345
outer loop
vertex -13.073464 47.931458 -10.010405
vertex -11.448926 44.682297 -5.010404
vertex -7.195683 47.931461 -8.100566
endloop
endfacet
facet normal 0.038530 0.661699 0.748779
outer loop
vertex -11.448926 44.682297 -5.010404
vertex -6.056358 43.897118 -4.594026
vertex -7.195683 47.931461 -8.100566
endloop
endfacet
facet normal 0.268034 0.943523 0.194736
outer loop
vertex -7.195683 47.931461 -8.100566
vertex -3.562941 47.931435 -13.100518
vertex -8.820238 49.424919 -13.100518
endloop
endfacet
facet normal 0.491119 0.794657 0.356821
outer loop
vertex -7.195683 47.931461 -8.100566
vertex -1.938346 44.682281 -8.100550
vertex -3.562941 47.931435 -13.100518
endloop
endfacet
facet normal 0.724042 0.661696 0.194736
outer loop
vertex -1.938346 44.682281 -8.100550
vertex 0.124022 43.897076 -13.100518
vertex -3.562941 47.931435 -13.100518
endloop
endfacet
facet normal 0.889697 0.330385 -0.315095
outer loop
vertex 0.690339 39.424919 -16.190645
vertex -1.938346 44.682281 -18.100487
vertex 0.124022 43.897076 -13.100518
endloop
endfacet
facet normal 0.794656 0.187595 -0.577348
outer loop
vertex 0.690339 39.424919 -16.190645
vertex -2.942383 39.424919 -21.190685
vertex -1.938346 44.682281 -18.100487
endloop
endfacet
facet normal 0.574602 0.330388 -0.748783
outer loop
vertex -2.942383 39.424919 -21.190685
vertex -6.056358 43.897118 -21.607010
vertex -1.938346 44.682281 -18.100487
endloop
endfacet
facet normal -0.024747 0.330387 -0.943521
outer loop
vertex -8.820238 39.424919 -23.100517
vertex -11.448926 44.682297 -21.190632
vertex -6.056358 43.897118 -21.607010
endloop
endfacet
facet normal -0.303531 0.187598 -0.934171
outer loop
vertex -8.820238 39.424919 -23.100517
vertex -14.698093 39.424919 -21.190685
vertex -11.448926 44.682297 -21.190632
endloop
endfacet
facet normal -0.534576 0.330387 -0.777864
outer loop
vertex -14.698093 39.424919 -21.190685
vertex -16.056311 43.897114 -18.357771
vertex -11.448926 44.682297 -21.190632
endloop
endfacet
facet normal -0.904989 0.330384 -0.268031
outer loop
vertex -18.330814 39.424919 -16.190645
vertex -17.326715 44.682278 -13.100518
vertex -16.056311 43.897114 -18.357771
endloop
endfacet
facet normal -0.982246 0.187598 0.000000
outer loop
vertex -18.330814 39.424919 -16.190645
vertex -18.330814 39.424919 -10.010392
vertex -17.326715 44.682278 -13.100518
endloop
endfacet
facet normal -0.904989 0.330384 0.268031
outer loop
vertex -18.330814 39.424919 -10.010392
vertex -16.056311 43.897114 -7.843265
vertex -17.326715 44.682278 -13.100518
endloop
endfacet
facet normal -0.534576 0.330387 0.777864
outer loop
vertex -14.698093 39.424919 -5.010352
vertex -11.448926 44.682297 -5.010404
vertex -16.056311 43.897114 -7.843265
endloop
endfacet
facet normal -0.303531 0.187597 0.934171
outer loop
vertex -14.698093 39.424919 -5.010352
vertex -8.820238 39.424919 -3.100519
vertex -11.448926 44.682297 -5.010404
endloop
endfacet
facet normal -0.024747 0.330387 0.943521
outer loop
vertex -8.820238 39.424919 -3.100519
vertex -6.056358 43.897118 -4.594026
vertex -11.448926 44.682297 -5.010404
endloop
endfacet
facet normal 0.574602 0.330387 0.748783
outer loop
vertex -2.942383 39.424919 -5.010352
vertex -1.938346 44.682281 -8.100550
vertex -6.056358 43.897118 -4.594026
endloop
endfacet
facet normal 0.794656 0.187595 0.577348
outer loop
vertex -2.942383 39.424919 -5.010352
vertex 0.690339 39.424919 -10.010392
vertex -1.938346 44.682281 -8.100550
endloop
endfacet
facet normal 0.889697 0.330385 0.315095
outer loop
vertex 0.690339 39.424919 -10.010392
vertex 0.124022 43.897076 -13.100518
vertex -1.938346 44.682281 -8.100550
endloop
endfacet
facet normal 0.306569 0.125629 -0.943521
outer loop
vertex -2.942383 39.424919 -21.190685
vertex -8.820238 39.424919 -23.100517
vertex -6.056358 43.897118 -21.607010
endloop
endfacet
facet normal 0.303531 -0.187598 -0.934171
outer loop
vertex -2.942383 39.424919 -21.190685
vertex -6.191550 34.167542 -21.190632
vertex -8.820238 39.424919 -23.100517
endloop
endfacet
facet normal 0.024747 -0.330386 -0.943521
outer loop
vertex -6.191550 34.167542 -21.190632
vertex -11.584118 34.952721 -21.607010
vertex -8.820238 39.424919 -23.100517
endloop
endfacet
facet normal -0.802609 0.125627 -0.583127
outer loop
vertex -14.698093 39.424919 -21.190685
vertex -18.330814 39.424919 -16.190645
vertex -16.056311 43.897114 -18.357771
endloop
endfacet
facet normal -0.794656 -0.187595 -0.577348
outer loop
vertex -14.698093 39.424919 -21.190685
vertex -15.702130 34.167557 -18.100487
vertex -18.330814 39.424919 -16.190645
endloop
endfacet
facet normal -0.889697 -0.330385 -0.315095
outer loop
vertex -15.702130 34.167557 -18.100487
vertex -17.764500 34.952763 -13.100518
vertex -18.330814 39.424919 -16.190645
endloop
endfacet
facet normal -0.802609 0.125627 0.583127
outer loop
vertex -18.330814 39.424919 -10.010392
vertex -14.698093 39.424919 -5.010352
vertex -16.056311 43.897114 -7.843265
endloop
endfacet
facet normal -0.794656 -0.187595 0.577348
outer loop
vertex -18.330814 39.424919 -10.010392
vertex -15.702130 34.167557 -8.100550
vertex -14.698093 39.424919 -5.010352
endloop
endfacet
facet normal -0.574602 -0.330387 0.748783
outer loop
vertex -15.702130 34.167557 -8.100550
vertex -11.584118 34.952721 -4.594026
vertex -14.698093 39.424919 -5.010352
endloop
endfacet
facet normal 0.306569 0.125628 0.943522
outer loop
vertex -8.820238 39.424919 -3.100519
vertex -2.942383 39.424919 -5.010352
vertex -6.056358 43.897118 -4.594026
endloop
endfacet
facet normal 0.303531 -0.187598 0.934171
outer loop
vertex -8.820238 39.424919 -3.100519
vertex -6.191550 34.167542 -5.010404
vertex -2.942383 39.424919 -5.010352
endloop
endfacet
facet normal 0.534576 -0.330387 0.777864
outer loop
vertex -6.191550 34.167542 -5.010404
vertex -1.584165 34.952724 -7.843265
vertex -2.942383 39.424919 -5.010352
endloop
endfacet
facet normal 0.992077 0.125628 0.000000
outer loop
vertex 0.690339 39.424919 -10.010392
vertex 0.690339 39.424919 -16.190645
vertex 0.124022 43.897076 -13.100518
endloop
endfacet
facet normal 0.982246 -0.187599 0.000000
outer loop
vertex 0.690339 39.424919 -10.010392
vertex -0.313761 34.167561 -13.100518
vertex 0.690339 39.424919 -16.190645
endloop
endfacet
facet normal 0.904989 -0.330385 -0.268031
outer loop
vertex -0.313761 34.167561 -13.100518
vertex -1.584165 34.952724 -18.357771
vertex 0.690339 39.424919 -16.190645
endloop
endfacet
facet normal 0.471300 -0.661698 -0.583123
outer loop
vertex -4.567012 30.918379 -16.190632
vertex -6.191550 34.167542 -21.190632
vertex -1.584165 34.952724 -18.357771
endloop
endfacet
facet normal 0.187594 -0.794657 -0.577346
outer loop
vertex -4.567012 30.918379 -16.190632
vertex -10.444794 30.918377 -18.100471
vertex -6.191550 34.167542 -21.190632
endloop
endfacet
facet normal -0.038530 -0.661699 -0.748779
outer loop
vertex -10.444794 30.918377 -18.100471
vertex -11.584118 34.952721 -21.607010
vertex -6.191550 34.167542 -21.190632
endloop
endfacet
facet normal -0.408947 -0.661699 -0.628424
outer loop
vertex -10.444794 30.918377 -18.100471
vertex -15.702130 34.167557 -18.100487
vertex -11.584118 34.952721 -21.607010
endloop
endfacet
facet normal -0.491119 -0.794657 -0.356821
outer loop
vertex -10.444794 30.918377 -18.100471
vertex -14.077536 30.918404 -13.100518
vertex -15.702130 34.167557 -18.100487
endloop
endfacet
facet normal -0.724042 -0.661695 -0.194735
outer loop
vertex -14.077536 30.918404 -13.100518
vertex -17.764500 34.952763 -13.100518
vertex -15.702130 34.167557 -18.100487
endloop
endfacet
facet normal -0.724042 -0.661696 0.194735
outer loop
vertex -14.077536 30.918404 -13.100518
vertex -15.702130 34.167557 -8.100550
vertex -17.764500 34.952763 -13.100518
endloop
endfacet
facet normal -0.491119 -0.794657 0.356822
outer loop
vertex -14.077536 30.918404 -13.100518
vertex -10.444794 30.918377 -8.100566
vertex -15.702130 34.167557 -8.100550
endloop
endfacet
facet normal -0.408946 -0.661699 0.628424
outer loop
vertex -10.444794 30.918377 -8.100566
vertex -11.584118 34.952721 -4.594026
vertex -15.702130 34.167557 -8.100550
endloop
endfacet
facet normal 0.700224 -0.661699 -0.268031
outer loop
vertex -0.313761 34.167561 -13.100518
vertex -4.567012 30.918379 -16.190632
vertex -1.584165 34.952724 -18.357771
endloop
endfacet
facet normal 0.607060 -0.794656 0.000000
outer loop
vertex -0.313761 34.167561 -13.100518
vertex -4.567012 30.918379 -10.010405
vertex -4.567012 30.918379 -16.190632
endloop
endfacet
facet normal 0.331305 -0.943524 0.000000
outer loop
vertex -4.567012 30.918379 -10.010405
vertex -8.820238 29.424919 -13.100518
vertex -4.567012 30.918379 -16.190632
endloop
endfacet
facet normal -0.038530 -0.661699 0.748779
outer loop
vertex -10.444794 30.918377 -8.100566
vertex -6.191550 34.167542 -5.010404
vertex -11.584118 34.952721 -4.594026
endloop
endfacet
facet normal 0.187594 -0.794658 0.577346
outer loop
vertex -10.444794 30.918377 -8.100566
vertex -4.567012 30.918379 -10.010405
vertex -6.191550 34.167542 -5.010404
endloop
endfacet
facet normal 0.471299 -0.661698 0.583123
outer loop
vertex -4.567012 30.918379 -10.010405
vertex -1.584165 34.952724 -7.843265
vertex -6.191550 34.167542 -5.010404
endloop
endfacet
endsolid Exported from Blender-2.74 (sub 0)
