solid Exported from Blender-2.74 (sub 0)
facet normal 0.102381 -0.943523 0.315091
outer loop
vertex 1.130561 48.615395 -9.368287
vertex 5.383788 50.108856 -6.278173
vertex -0.493994 50.108852 -4.368335
endloop
endfacet
facet normal 0.700224 -0.661699 0.268032
outer loop
vertex 8.366634 54.143200 -4.111034
vertex 5.383788 50.108856 -6.278173
vertex 9.637038 53.358036 -9.368287
endloop
endfacet
facet normal -0.268034 -0.943523 0.194735
outer loop
vertex 1.130561 48.615395 -9.368287
vertex -0.493994 50.108852 -4.368335
vertex -4.126736 50.108879 -9.368287
endloop
endfacet
facet normal -0.268035 -0.943523 -0.194735
outer loop
vertex 1.130561 48.615395 -9.368287
vertex -4.126736 50.108879 -9.368287
vertex -0.493994 50.108852 -14.368239
endloop
endfacet
facet normal 0.102381 -0.943523 -0.315091
outer loop
vertex 1.130561 48.615395 -9.368287
vertex -0.493994 50.108852 -14.368239
vertex 5.383788 50.108856 -12.458401
endloop
endfacet
facet normal 0.904990 -0.330384 0.268030
outer loop
vertex 8.366634 54.143200 -4.111034
vertex 9.637038 53.358036 -9.368287
vertex 10.641138 58.615395 -6.278161
endloop
endfacet
facet normal 0.024747 -0.330387 0.943521
outer loop
vertex -1.633319 54.143196 -0.861794
vertex 3.759249 53.358017 -1.278172
vertex 1.130561 58.615395 0.631712
endloop
endfacet
facet normal -0.889697 -0.330385 0.315095
outer loop
vertex -7.813699 54.143238 -9.368287
vertex -5.751331 53.358032 -4.368319
vertex -8.380016 58.615395 -6.278161
endloop
endfacet
facet normal -0.574602 -0.330388 -0.748783
outer loop
vertex -1.633319 54.143196 -17.874779
vertex -5.751331 53.358032 -14.368256
vertex -4.747293 58.615395 -17.458454
endloop
endfacet
facet normal 0.534576 -0.330387 -0.777864
outer loop
vertex 8.366634 54.143200 -14.625540
vertex 3.759249 53.358017 -17.458401
vertex 7.008416 58.615395 -17.458454
endloop
endfacet
facet normal 0.802609 -0.125627 0.583127
outer loop
vertex 8.366634 54.143200 -4.111034
vertex 10.641138 58.615395 -6.278161
vertex 7.008416 58.615395 -1.278121
endloop
endfacet
facet normal -0.306569 -0.125628 0.943522
outer loop
vertex -1.633319 54.143196 -0.861794
vertex 1.130561 58.615395 0.631712
vertex -4.747293 58.615395 -1.278121
endloop
endfacet
facet normal -0.992077 -0.125629 0.000000
outer loop
vertex -7.813699 54.143238 -9.368287
vertex -8.380016 58.615395 -6.278161
vertex -8.380016 58.615395 -12.458413
endloop
endfacet
facet normal -0.306569 -0.125628 -0.943522
outer loop
vertex -1.633319 54.143196 -17.874779
vertex -4.747293 58.615395 -17.458454
vertex 1.130561 58.615395 -19.368286
endloop
endfacet
facet normal 0.802609 -0.125627 -0.583127
outer loop
vertex 8.366634 54.143200 -14.625540
vertex 7.008416 58.615395 -17.458454
vertex 10.641138 58.615395 -12.458413
endloop
endfacet
facet normal 0.408946 0.661698 0.628425
outer loop
vertex 3.894441 63.087593 -0.861794
vertex 8.012453 63.872757 -4.368319
vertex 2.755117 67.121941 -4.368335
endloop
endfacet
facet normal -0.471299 0.661698 0.583123
outer loop
vertex -6.105512 63.087589 -4.111034
vertex -1.498126 63.872772 -1.278172
vertex -3.122665 67.121933 -6.278173
endloop
endfacet
facet normal -0.700224 0.661699 -0.268032
outer loop
vertex -6.105512 63.087589 -14.625540
vertex -7.375916 63.872753 -9.368287
vertex -3.122665 67.121933 -12.458401
endloop
endfacet
facet normal 0.038530 0.661697 -0.748781
outer loop
vertex 3.894441 63.087593 -17.874779
vertex -1.498127 63.872772 -17.458401
vertex 2.755117 67.121941 -14.368239
endloop
endfacet
facet normal 0.724042 0.661696 -0.194736
outer loop
vertex 10.074821 63.087551 -9.368287
vertex 8.012453 63.872757 -14.368256
vertex 6.387858 67.121910 -9.368287
endloop
endfacet
facet normal 0.268035 0.943523 -0.194735
outer loop
vertex 6.387858 67.121910 -9.368287
vertex 2.755117 67.121941 -14.368239
vertex 1.130561 68.615395 -9.368287
endloop
endfacet
facet normal 0.491120 0.794657 -0.356821
outer loop
vertex 6.387858 67.121910 -9.368287
vertex 8.012453 63.872757 -14.368256
vertex 2.755117 67.121941 -14.368239
endloop
endfacet
facet normal 0.408946 0.661698 -0.628425
outer loop
vertex 8.012453 63.872757 -14.368256
vertex 3.894441 63.087593 -17.874779
vertex 2.755117 67.121941 -14.368239
endloop
endfacet
facet normal -0.102382 0.943523 -0.315091
outer loop
vertex 2.755117 67.121941 -14.368239
vertex -3.122665 67.121933 -12.458401
vertex 1.130561 68.615395 -9.368287
endloop
endfacet
facet normal -0.187595 0.794659 -0.577343
outer loop
vertex 2.755117 67.121941 -14.368239
vertex -1.498127 63.872772 -17.458401
vertex -3.122665 67.121933 -12.458401
endloop
endfacet
facet normal -0.471299 0.661699 -0.583122
outer loop
vertex -1.498127 63.872772 -17.458401
vertex -6.105512 63.087589 -14.625540
vertex -3.122665 67.121933 -12.458401
endloop
endfacet
facet normal -0.331305 0.943524 0.000000
outer loop
vertex -3.122665 67.121933 -12.458401
vertex -3.122665 67.121933 -6.278173
vertex 1.130561 68.615395 -9.368287
endloop
endfacet
facet normal -0.607060 0.794656 0.000000
outer loop
vertex -3.122665 67.121933 -12.458401
vertex -7.375916 63.872753 -9.368287
vertex -3.122665 67.121933 -6.278173
endloop
endfacet
facet normal -0.700223 0.661699 0.268033
outer loop
vertex -7.375916 63.872753 -9.368287
vertex -6.105512 63.087589 -4.111034
vertex -3.122665 67.121933 -6.278173
endloop
endfacet
facet normal -0.102382 0.943523 0.315092
outer loop
vertex -3.122665 67.121933 -6.278173
vertex 2.755117 67.121941 -4.368335
vertex 1.130561 68.615395 -9.368287
endloop
endfacet
facet normal -0.187595 0.794658 0.577344
outer loop
vertex -3.122665 67.121933 -6.278173
vertex -1.498126 63.872772 -1.278172
vertex 2.755117 67.121941 -4.368335
endloop
endfacet
facet normal 0.038530 0.661699 0.748779
outer loop
vertex -1.498126 63.872772 -1.278172
vertex 3.894441 63.087593 -0.861794
vertex 2.755117 67.121941 -4.368335
endloop
endfacet
facet normal 0.268034 0.943523 0.194734
outer loop
vertex 2.755117 67.121941 -4.368335
vertex 6.387858 67.121910 -9.368287
vertex 1.130561 68.615395 -9.368287
endloop
endfacet
facet normal 0.491120 0.794657 0.356822
outer loop
vertex 2.755117 67.121941 -4.368335
vertex 8.012453 63.872757 -4.368319
vertex 6.387858 67.121910 -9.368287
endloop
endfacet
facet normal 0.724042 0.661696 0.194736
outer loop
vertex 8.012453 63.872757 -4.368319
vertex 10.074821 63.087551 -9.368287
vertex 6.387858 67.121910 -9.368287
endloop
endfacet
facet normal 0.889697 0.330385 -0.315095
outer loop
vertex 10.641138 58.615395 -12.458413
vertex 8.012453 63.872757 -14.368256
vertex 10.074821 63.087551 -9.368287
endloop
endfacet
facet normal 0.794656 0.187595 -0.577348
outer loop
vertex 10.641138 58.615395 -12.458413
vertex 7.008416 58.615395 -17.458454
vertex 8.012453 63.872757 -14.368256
endloop
endfacet
facet normal 0.574603 0.330388 -0.748783
outer loop
vertex 7.008416 58.615395 -17.458454
vertex 3.894441 63.087593 -17.874779
vertex 8.012453 63.872757 -14.368256
endloop
endfacet
facet normal -0.024747 0.330387 -0.943521
outer loop
vertex 1.130561 58.615395 -19.368286
vertex -1.498127 63.872772 -17.458401
vertex 3.894441 63.087593 -17.874779
endloop
endfacet
facet normal -0.303531 0.187598 -0.934171
outer loop
vertex 1.130561 58.615395 -19.368286
vertex -4.747293 58.615395 -17.458454
vertex -1.498127 63.872772 -17.458401
endloop
endfacet
facet normal -0.534576 0.330387 -0.777864
outer loop
vertex -4.747293 58.615395 -17.458454
vertex -6.105512 63.087589 -14.625540
vertex -1.498127 63.872772 -17.458401
endloop
endfacet
facet normal -0.904989 0.330384 -0.268030
outer loop
vertex -8.380016 58.615395 -12.458413
vertex -7.375916 63.872753 -9.368287
vertex -6.105512 63.087589 -14.625540
endloop
endfacet
facet normal -0.982246 0.187599 0.000000
outer loop
vertex -8.380016 58.615395 -12.458413
vertex -8.380016 58.615395 -6.278161
vertex -7.375916 63.872753 -9.368287
endloop
endfacet
facet normal -0.904989 0.330384 0.268030
outer loop
vertex -8.380016 58.615395 -6.278161
vertex -6.105512 63.087589 -4.111034
vertex -7.375916 63.872753 -9.368287
endloop
endfacet
facet normal -0.534576 0.330386 0.777865
outer loop
vertex -4.747293 58.615395 -1.278121
vertex -1.498126 63.872772 -1.278172
vertex -6.105512 63.087589 -4.111034
endloop
endfacet
facet normal -0.303531 0.187598 0.934171
outer loop
vertex -4.747293 58.615395 -1.278121
vertex 1.130561 58.615395 0.631712
vertex -1.498126 63.872772 -1.278172
endloop
endfacet
facet normal -0.024747 0.330387 0.943521
outer loop
vertex 1.130561 58.615395 0.631712
vertex 3.894441 63.087593 -0.861794
vertex -1.498126 63.872772 -1.278172
endloop
endfacet
facet normal 0.574603 0.330388 0.748783
outer loop
vertex 7.008416 58.615395 -1.278121
vertex 8.012453 63.872757 -4.368319
vertex 3.894441 63.087593 -0.861794
endloop
endfacet
facet normal 0.794655 0.187595 0.577348
outer loop
vertex 7.008416 58.615395 -1.278121
vertex 10.641138 58.615395 -6.278161
vertex 8.012453 63.872757 -4.368319
endloop
endfacet
facet normal 0.889697 0.330385 0.315095
outer loop
vertex 10.641138 58.615395 -6.278161
vertex 10.074821 63.087551 -9.368287
vertex 8.012453 63.872757 -4.368319
endloop
endfacet
facet normal 0.306569 0.125629 -0.943522
outer loop
vertex 7.008416 58.615395 -17.458454
vertex 1.130561 58.615395 -19.368286
vertex 3.894441 63.087593 -17.874779
endloop
endfacet
facet normal 0.303531 -0.187598 -0.934171
outer loop
vertex 7.008416 58.615395 -17.458454
vertex 3.759249 53.358017 -17.458401
vertex 1.130561 58.615395 -19.368286
endloop
endfacet
facet normal 0.024747 -0.330387 -0.943521
outer loop
vertex 3.759249 53.358017 -17.458401
vertex -1.633319 54.143196 -17.874779
vertex 1.130561 58.615395 -19.368286
endloop
endfacet
facet normal -0.802608 0.125627 -0.583128
outer loop
vertex -4.747293 58.615395 -17.458454
vertex -8.380016 58.615395 -12.458413
vertex -6.105512 63.087589 -14.625540
endloop
endfacet
facet normal -0.794656 -0.187595 -0.577348
outer loop
vertex -4.747293 58.615395 -17.458454
vertex -5.751331 53.358032 -14.368256
vertex -8.380016 58.615395 -12.458413
endloop
endfacet
facet normal -0.889697 -0.330385 -0.315095
outer loop
vertex -5.751331 53.358032 -14.368256
vertex -7.813699 54.143238 -9.368287
vertex -8.380016 58.615395 -12.458413
endloop
endfacet
facet normal -0.802609 0.125627 0.583127
outer loop
vertex -8.380016 58.615395 -6.278161
vertex -4.747293 58.615395 -1.278121
vertex -6.105512 63.087589 -4.111034
endloop
endfacet
facet normal -0.794656 -0.187595 0.577348
outer loop
vertex -8.380016 58.615395 -6.278161
vertex -5.751331 53.358032 -4.368319
vertex -4.747293 58.615395 -1.278121
endloop
endfacet
facet normal -0.574602 -0.330387 0.748783
outer loop
vertex -5.751331 53.358032 -4.368319
vertex -1.633319 54.143196 -0.861794
vertex -4.747293 58.615395 -1.278121
endloop
endfacet
facet normal 0.306569 0.125628 0.943522
outer loop
vertex 1.130561 58.615395 0.631712
vertex 7.008416 58.615395 -1.278121
vertex 3.894441 63.087593 -0.861794
endloop
endfacet
facet normal 0.303531 -0.187598 0.934171
outer loop
vertex 1.130561 58.615395 0.631712
vertex 3.759249 53.358017 -1.278172
vertex 7.008416 58.615395 -1.278121
endloop
endfacet
facet normal 0.534576 -0.330387 0.777864
outer loop
vertex 3.759249 53.358017 -1.278172
vertex 8.366634 54.143200 -4.111034
vertex 7.008416 58.615395 -1.278121
endloop
endfacet
facet normal 0.992077 0.125629 0.000000
outer loop
vertex 10.641138 58.615395 -6.278161
vertex 10.641138 58.615395 -12.458413
vertex 10.074821 63.087551 -9.368287
endloop
endfacet
facet normal 0.982246 -0.187599 0.000000
outer loop
vertex 10.641138 58.615395 -6.278161
vertex 9.637038 53.358036 -9.368287
vertex 10.641138 58.615395 -12.458413
endloop
endfacet
facet normal 0.904990 -0.330384 -0.268030
outer loop
vertex 9.637038 53.358036 -9.368287
vertex 8.366634 54.143200 -14.625540
vertex 10.641138 58.615395 -12.458413
endloop
endfacet
facet normal 0.471299 -0.661699 -0.583122
outer loop
vertex 5.383788 50.108856 -12.458401
vertex 3.759249 53.358017 -17.458401
vertex 8.366634 54.143200 -14.625540
endloop
endfacet
facet normal 0.187595 -0.794658 -0.577345
outer loop
vertex 5.383788 50.108856 -12.458401
vertex -0.493994 50.108852 -14.368239
vertex 3.759249 53.358017 -17.458401
endloop
endfacet
facet normal -0.038530 -0.661699 -0.748779
outer loop
vertex -0.493994 50.108852 -14.368239
vertex -1.633319 54.143196 -17.874779
vertex 3.759249 53.358017 -17.458401
endloop
endfacet
facet normal -0.408947 -0.661699 -0.628424
outer loop
vertex -0.493994 50.108852 -14.368239
vertex -5.751331 53.358032 -14.368256
vertex -1.633319 54.143196 -17.874779
endloop
endfacet
facet normal -0.491119 -0.794657 -0.356822
outer loop
vertex -0.493994 50.108852 -14.368239
vertex -4.126736 50.108879 -9.368287
vertex -5.751331 53.358032 -14.368256
endloop
endfacet
facet normal -0.724042 -0.661696 -0.194735
outer loop
vertex -4.126736 50.108879 -9.368287
vertex -7.813699 54.143238 -9.368287
vertex -5.751331 53.358032 -14.368256
endloop
endfacet
facet normal -0.724042 -0.661695 0.194735
outer loop
vertex -4.126736 50.108879 -9.368287
vertex -5.751331 53.358032 -4.368319
vertex -7.813699 54.143238 -9.368287
endloop
endfacet
facet normal -0.491119 -0.794657 0.356822
outer loop
vertex -4.126736 50.108879 -9.368287
vertex -0.493994 50.108852 -4.368335
vertex -5.751331 53.358032 -4.368319
endloop
endfacet
facet normal -0.408946 -0.661699 0.628424
outer loop
vertex -0.493994 50.108852 -4.368335
vertex -1.633319 54.143196 -0.861794
vertex -5.751331 53.358032 -4.368319
endloop
endfacet
facet normal 0.700223 -0.661699 -0.268033
outer loop
vertex 9.637038 53.358036 -9.368287
vertex 5.383788 50.108856 -12.458401
vertex 8.366634 54.143200 -14.625540
endloop
endfacet
facet normal 0.607060 -0.794656 0.000000
outer loop
vertex 9.637038 53.358036 -9.368287
vertex 5.383788 50.108856 -6.278173
vertex 5.383788 50.108856 -12.458401
endloop
endfacet
facet normal 0.331305 -0.943524 0.000000
outer loop
vertex 5.383788 50.108856 -6.278173
vertex 1.130561 48.615395 -9.368287
vertex 5.383788 50.108856 -12.458401
endloop
endfacet
facet normal -0.038530 -0.661698 0.748780
outer loop
vertex -0.493994 50.108852 -4.368335
vertex 3.759249 53.358017 -1.278172
vertex -1.633319 54.143196 -0.861794
endloop
endfacet
facet normal 0.187594 -0.794658 0.577344
outer loop
vertex -0.493994 50.108852 -4.368335
vertex 5.383788 50.108856 -6.278173
vertex 3.759249 53.358017 -1.278172
endloop
endfacet
facet normal 0.471300 -0.661699 0.583122
outer loop
vertex 5.383788 50.108856 -6.278173
vertex 8.366634 54.143200 -4.111034
vertex 3.759249 53.358017 -1.278172
endloop
endfacet
endsolid Exported from Blender-2.74 (sub 0)
