solid Exported from Blender-2.74 (sub 0)
facet normal 0.102381 -0.943524 0.315089
outer loop
vertex -0.023433 39.691273 -13.277184
vertex 4.229793 41.184731 -10.187071
vertex -1.647989 41.184731 -8.277232
endloop
endfacet
facet normal 0.700224 -0.661699 0.268031
outer loop
vertex 7.212640 45.219078 -8.019932
vertex 4.229793 41.184731 -10.187071
vertex 8.483044 44.433914 -13.277184
endloop
endfacet
facet normal -0.268034 -0.943523 0.194737
outer loop
vertex -0.023433 39.691273 -13.277184
vertex -1.647989 41.184731 -8.277232
vertex -5.280730 41.184757 -13.277184
endloop
endfacet
facet normal -0.268034 -0.943523 -0.194737
outer loop
vertex -0.023433 39.691273 -13.277184
vertex -5.280730 41.184757 -13.277184
vertex -1.647989 41.184731 -18.277138
endloop
endfacet
facet normal 0.102381 -0.943524 -0.315089
outer loop
vertex -0.023433 39.691273 -13.277184
vertex -1.647989 41.184731 -18.277138
vertex 4.229793 41.184731 -16.367298
endloop
endfacet
facet normal 0.904989 -0.330384 0.268031
outer loop
vertex 7.212640 45.219078 -8.019932
vertex 8.483044 44.433914 -13.277184
vertex 9.487144 49.691273 -10.187058
endloop
endfacet
facet normal 0.024747 -0.330386 0.943521
outer loop
vertex -2.787313 45.219074 -4.770692
vertex 2.605255 44.433899 -5.187070
vertex -0.023433 49.691273 -3.277185
endloop
endfacet
facet normal -0.889697 -0.330385 0.315095
outer loop
vertex -8.967694 45.219116 -13.277184
vertex -6.905325 44.433910 -8.277216
vertex -9.534011 49.691273 -10.187058
endloop
endfacet
facet normal -0.574602 -0.330388 -0.748783
outer loop
vertex -2.787313 45.219074 -21.783676
vertex -6.905325 44.433910 -18.277153
vertex -5.901288 49.691273 -21.367352
endloop
endfacet
facet normal 0.534576 -0.330387 -0.777864
outer loop
vertex 7.212640 45.219078 -18.534437
vertex 2.605254 44.433899 -21.367298
vertex 5.854422 49.691273 -21.367352
endloop
endfacet
facet normal 0.802609 -0.125627 0.583127
outer loop
vertex 7.212640 45.219078 -8.019932
vertex 9.487144 49.691273 -10.187058
vertex 5.854422 49.691273 -5.187018
endloop
endfacet
facet normal -0.306569 -0.125628 0.943522
outer loop
vertex -2.787313 45.219074 -4.770692
vertex -0.023433 49.691273 -3.277185
vertex -5.901288 49.691273 -5.187018
endloop
endfacet
facet normal -0.992077 -0.125629 0.000000
outer loop
vertex -8.967694 45.219116 -13.277184
vertex -9.534011 49.691273 -10.187058
vertex -9.534011 49.691273 -16.367311
endloop
endfacet
facet normal -0.306569 -0.125629 -0.943522
outer loop
vertex -2.787313 45.219074 -21.783676
vertex -5.901288 49.691273 -21.367352
vertex -0.023433 49.691273 -23.277184
endloop
endfacet
facet normal 0.802609 -0.125627 -0.583127
outer loop
vertex 7.212640 45.219078 -18.534437
vertex 5.854422 49.691273 -21.367352
vertex 9.487144 49.691273 -16.367311
endloop
endfacet
facet normal 0.408946 0.661698 0.628425
outer loop
vertex 2.740447 54.163471 -4.770692
vertex 6.858459 54.948635 -8.277216
vertex 1.601122 58.197815 -8.277232
endloop
endfacet
facet normal -0.471300 0.661699 0.583122
outer loop
vertex -7.259506 54.163467 -8.019932
vertex -2.652121 54.948647 -5.187070
vertex -4.276659 58.197815 -10.187071
endloop
endfacet
facet normal -0.700224 0.661699 -0.268032
outer loop
vertex -7.259506 54.163467 -18.534437
vertex -8.529911 54.948631 -13.277184
vertex -4.276659 58.197815 -16.367298
endloop
endfacet
facet normal 0.038530 0.661698 -0.748780
outer loop
vertex 2.740447 54.163471 -21.783676
vertex -2.652121 54.948647 -21.367298
vertex 1.601122 58.197815 -18.277138
endloop
endfacet
facet normal 0.724042 0.661695 -0.194737
outer loop
vertex 8.920827 54.163429 -13.277184
vertex 6.858459 54.948635 -18.277153
vertex 5.233864 58.197788 -13.277184
endloop
endfacet
facet normal 0.268034 0.943522 -0.194739
outer loop
vertex 5.233864 58.197788 -13.277184
vertex 1.601122 58.197815 -18.277138
vertex -0.023433 59.691273 -13.277184
endloop
endfacet
facet normal 0.491120 0.794658 -0.356819
outer loop
vertex 5.233864 58.197788 -13.277184
vertex 6.858459 54.948635 -18.277153
vertex 1.601122 58.197815 -18.277138
endloop
endfacet
facet normal 0.408947 0.661698 -0.628425
outer loop
vertex 6.858459 54.948635 -18.277153
vertex 2.740447 54.163471 -21.783676
vertex 1.601122 58.197815 -18.277138
endloop
endfacet
facet normal -0.102381 0.943524 -0.315087
outer loop
vertex 1.601122 58.197815 -18.277138
vertex -4.276659 58.197815 -16.367298
vertex -0.023433 59.691273 -13.277184
endloop
endfacet
facet normal -0.187594 0.794657 -0.577346
outer loop
vertex 1.601122 58.197815 -18.277138
vertex -2.652121 54.948647 -21.367298
vertex -4.276659 58.197815 -16.367298
endloop
endfacet
facet normal -0.471299 0.661698 -0.583123
outer loop
vertex -2.652121 54.948647 -21.367298
vertex -7.259506 54.163467 -18.534437
vertex -4.276659 58.197815 -16.367298
endloop
endfacet
facet normal -0.331304 0.943524 0.000000
outer loop
vertex -4.276659 58.197815 -16.367298
vertex -4.276659 58.197815 -10.187071
vertex -0.023433 59.691273 -13.277184
endloop
endfacet
facet normal -0.607061 0.794656 0.000000
outer loop
vertex -4.276659 58.197815 -16.367298
vertex -8.529911 54.948631 -13.277184
vertex -4.276659 58.197815 -10.187071
endloop
endfacet
facet normal -0.700224 0.661699 0.268032
outer loop
vertex -8.529911 54.948631 -13.277184
vertex -7.259506 54.163467 -8.019932
vertex -4.276659 58.197815 -10.187071
endloop
endfacet
facet normal -0.102381 0.943524 0.315088
outer loop
vertex -4.276659 58.197815 -10.187071
vertex 1.601122 58.197815 -8.277232
vertex -0.023433 59.691273 -13.277184
endloop
endfacet
facet normal -0.187594 0.794657 0.577347
outer loop
vertex -4.276659 58.197815 -10.187071
vertex -2.652121 54.948647 -5.187070
vertex 1.601122 58.197815 -8.277232
endloop
endfacet
facet normal 0.038530 0.661700 0.748778
outer loop
vertex -2.652121 54.948647 -5.187070
vertex 2.740447 54.163471 -4.770692
vertex 1.601122 58.197815 -8.277232
endloop
endfacet
facet normal 0.268034 0.943522 0.194739
outer loop
vertex 1.601122 58.197815 -8.277232
vertex 5.233864 58.197788 -13.277184
vertex -0.023433 59.691273 -13.277184
endloop
endfacet
facet normal 0.491120 0.794658 0.356820
outer loop
vertex 1.601122 58.197815 -8.277232
vertex 6.858459 54.948635 -8.277216
vertex 5.233864 58.197788 -13.277184
endloop
endfacet
facet normal 0.724042 0.661695 0.194737
outer loop
vertex 6.858459 54.948635 -8.277216
vertex 8.920827 54.163429 -13.277184
vertex 5.233864 58.197788 -13.277184
endloop
endfacet
facet normal 0.889697 0.330385 -0.315094
outer loop
vertex 9.487144 49.691273 -16.367311
vertex 6.858459 54.948635 -18.277153
vertex 8.920827 54.163429 -13.277184
endloop
endfacet
facet normal 0.794656 0.187595 -0.577348
outer loop
vertex 9.487144 49.691273 -16.367311
vertex 5.854422 49.691273 -21.367352
vertex 6.858459 54.948635 -18.277153
endloop
endfacet
facet normal 0.574602 0.330388 -0.748784
outer loop
vertex 5.854422 49.691273 -21.367352
vertex 2.740447 54.163471 -21.783676
vertex 6.858459 54.948635 -18.277153
endloop
endfacet
facet normal -0.024747 0.330387 -0.943521
outer loop
vertex -0.023433 49.691273 -23.277184
vertex -2.652121 54.948647 -21.367298
vertex 2.740447 54.163471 -21.783676
endloop
endfacet
facet normal -0.303531 0.187598 -0.934171
outer loop
vertex -0.023433 49.691273 -23.277184
vertex -5.901288 49.691273 -21.367352
vertex -2.652121 54.948647 -21.367298
endloop
endfacet
facet normal -0.534576 0.330387 -0.777864
outer loop
vertex -5.901288 49.691273 -21.367352
vertex -7.259506 54.163467 -18.534437
vertex -2.652121 54.948647 -21.367298
endloop
endfacet
facet normal -0.904989 0.330385 -0.268031
outer loop
vertex -9.534011 49.691273 -16.367311
vertex -8.529911 54.948631 -13.277184
vertex -7.259506 54.163467 -18.534437
endloop
endfacet
facet normal -0.982246 0.187598 0.000000
outer loop
vertex -9.534011 49.691273 -16.367311
vertex -9.534011 49.691273 -10.187058
vertex -8.529911 54.948631 -13.277184
endloop
endfacet
facet normal -0.904989 0.330385 0.268031
outer loop
vertex -9.534011 49.691273 -10.187058
vertex -7.259506 54.163467 -8.019932
vertex -8.529911 54.948631 -13.277184
endloop
endfacet
facet normal -0.534575 0.330386 0.777865
outer loop
vertex -5.901288 49.691273 -5.187018
vertex -2.652121 54.948647 -5.187070
vertex -7.259506 54.163467 -8.019932
endloop
endfacet
facet normal -0.303531 0.187598 0.934171
outer loop
vertex -5.901288 49.691273 -5.187018
vertex -0.023433 49.691273 -3.277185
vertex -2.652121 54.948647 -5.187070
endloop
endfacet
facet normal -0.024747 0.330387 0.943521
outer loop
vertex -0.023433 49.691273 -3.277185
vertex 2.740447 54.163471 -4.770692
vertex -2.652121 54.948647 -5.187070
endloop
endfacet
facet normal 0.574602 0.330387 0.748784
outer loop
vertex 5.854422 49.691273 -5.187018
vertex 6.858459 54.948635 -8.277216
vertex 2.740447 54.163471 -4.770692
endloop
endfacet
facet normal 0.794656 0.187595 0.577348
outer loop
vertex 5.854422 49.691273 -5.187018
vertex 9.487144 49.691273 -10.187058
vertex 6.858459 54.948635 -8.277216
endloop
endfacet
facet normal 0.889697 0.330385 0.315094
outer loop
vertex 9.487144 49.691273 -10.187058
vertex 8.920827 54.163429 -13.277184
vertex 6.858459 54.948635 -8.277216
endloop
endfacet
facet normal 0.306569 0.125629 -0.943522
outer loop
vertex 5.854422 49.691273 -21.367352
vertex -0.023433 49.691273 -23.277184
vertex 2.740447 54.163471 -21.783676
endloop
endfacet
facet normal 0.303530 -0.187598 -0.934172
outer loop
vertex 5.854422 49.691273 -21.367352
vertex 2.605254 44.433899 -21.367298
vertex -0.023433 49.691273 -23.277184
endloop
endfacet
facet normal 0.024747 -0.330386 -0.943521
outer loop
vertex 2.605254 44.433899 -21.367298
vertex -2.787313 45.219074 -21.783676
vertex -0.023433 49.691273 -23.277184
endloop
endfacet
facet normal -0.802609 0.125627 -0.583126
outer loop
vertex -5.901288 49.691273 -21.367352
vertex -9.534011 49.691273 -16.367311
vertex -7.259506 54.163467 -18.534437
endloop
endfacet
facet normal -0.794656 -0.187595 -0.577348
outer loop
vertex -5.901288 49.691273 -21.367352
vertex -6.905325 44.433910 -18.277153
vertex -9.534011 49.691273 -16.367311
endloop
endfacet
facet normal -0.889697 -0.330385 -0.315095
outer loop
vertex -6.905325 44.433910 -18.277153
vertex -8.967694 45.219116 -13.277184
vertex -9.534011 49.691273 -16.367311
endloop
endfacet
facet normal -0.802609 0.125627 0.583126
outer loop
vertex -9.534011 49.691273 -10.187058
vertex -5.901288 49.691273 -5.187018
vertex -7.259506 54.163467 -8.019932
endloop
endfacet
facet normal -0.794656 -0.187595 0.577348
outer loop
vertex -9.534011 49.691273 -10.187058
vertex -6.905325 44.433910 -8.277216
vertex -5.901288 49.691273 -5.187018
endloop
endfacet
facet normal -0.574602 -0.330388 0.748783
outer loop
vertex -6.905325 44.433910 -8.277216
vertex -2.787313 45.219074 -4.770692
vertex -5.901288 49.691273 -5.187018
endloop
endfacet
facet normal 0.306569 0.125629 0.943522
outer loop
vertex -0.023433 49.691273 -3.277185
vertex 5.854422 49.691273 -5.187018
vertex 2.740447 54.163471 -4.770692
endloop
endfacet
facet normal 0.303531 -0.187598 0.934171
outer loop
vertex -0.023433 49.691273 -3.277185
vertex 2.605255 44.433899 -5.187070
vertex 5.854422 49.691273 -5.187018
endloop
endfacet
facet normal 0.534576 -0.330387 0.777865
outer loop
vertex 2.605255 44.433899 -5.187070
vertex 7.212640 45.219078 -8.019932
vertex 5.854422 49.691273 -5.187018
endloop
endfacet
facet normal 0.992077 0.125628 0.000000
outer loop
vertex 9.487144 49.691273 -10.187058
vertex 9.487144 49.691273 -16.367311
vertex 8.920827 54.163429 -13.277184
endloop
endfacet
facet normal 0.982246 -0.187598 0.000000
outer loop
vertex 9.487144 49.691273 -10.187058
vertex 8.483044 44.433914 -13.277184
vertex 9.487144 49.691273 -16.367311
endloop
endfacet
facet normal 0.904989 -0.330384 -0.268031
outer loop
vertex 8.483044 44.433914 -13.277184
vertex 7.212640 45.219078 -18.534437
vertex 9.487144 49.691273 -16.367311
endloop
endfacet
facet normal 0.471299 -0.661698 -0.583124
outer loop
vertex 4.229793 41.184731 -16.367298
vertex 2.605254 44.433899 -21.367298
vertex 7.212640 45.219078 -18.534437
endloop
endfacet
facet normal 0.187594 -0.794658 -0.577345
outer loop
vertex 4.229793 41.184731 -16.367298
vertex -1.647989 41.184731 -18.277138
vertex 2.605254 44.433899 -21.367298
endloop
endfacet
facet normal -0.038530 -0.661699 -0.748779
outer loop
vertex -1.647989 41.184731 -18.277138
vertex -2.787313 45.219074 -21.783676
vertex 2.605254 44.433899 -21.367298
endloop
endfacet
facet normal -0.408946 -0.661698 -0.628426
outer loop
vertex -1.647989 41.184731 -18.277138
vertex -6.905325 44.433910 -18.277153
vertex -2.787313 45.219074 -21.783676
endloop
endfacet
facet normal -0.491120 -0.794658 -0.356820
outer loop
vertex -1.647989 41.184731 -18.277138
vertex -5.280730 41.184757 -13.277184
vertex -6.905325 44.433910 -18.277153
endloop
endfacet
facet normal -0.724042 -0.661696 -0.194737
outer loop
vertex -5.280730 41.184757 -13.277184
vertex -8.967694 45.219116 -13.277184
vertex -6.905325 44.433910 -18.277153
endloop
endfacet
facet normal -0.724042 -0.661695 0.194737
outer loop
vertex -5.280730 41.184757 -13.277184
vertex -6.905325 44.433910 -8.277216
vertex -8.967694 45.219116 -13.277184
endloop
endfacet
facet normal -0.491120 -0.794658 0.356820
outer loop
vertex -5.280730 41.184757 -13.277184
vertex -1.647989 41.184731 -8.277232
vertex -6.905325 44.433910 -8.277216
endloop
endfacet
facet normal -0.408946 -0.661698 0.628426
outer loop
vertex -1.647989 41.184731 -8.277232
vertex -2.787313 45.219074 -4.770692
vertex -6.905325 44.433910 -8.277216
endloop
endfacet
facet normal 0.700224 -0.661699 -0.268031
outer loop
vertex 8.483044 44.433914 -13.277184
vertex 4.229793 41.184731 -16.367298
vertex 7.212640 45.219078 -18.534437
endloop
endfacet
facet normal 0.607061 -0.794656 0.000000
outer loop
vertex 8.483044 44.433914 -13.277184
vertex 4.229793 41.184731 -10.187071
vertex 4.229793 41.184731 -16.367298
endloop
endfacet
facet normal 0.331304 -0.943524 0.000000
outer loop
vertex 4.229793 41.184731 -10.187071
vertex -0.023433 39.691273 -13.277184
vertex 4.229793 41.184731 -16.367298
endloop
endfacet
facet normal -0.038530 -0.661700 0.748778
outer loop
vertex -1.647989 41.184731 -8.277232
vertex 2.605255 44.433899 -5.187070
vertex -2.787313 45.219074 -4.770692
endloop
endfacet
facet normal 0.187594 -0.794657 0.577346
outer loop
vertex -1.647989 41.184731 -8.277232
vertex 4.229793 41.184731 -10.187071
vertex 2.605255 44.433899 -5.187070
endloop
endfacet
facet normal 0.471299 -0.661698 0.583123
outer loop
vertex 4.229793 41.184731 -10.187071
vertex 7.212640 45.219078 -8.019932
vertex 2.605255 44.433899 -5.187070
endloop
endfacet
endsolid Exported from Blender-2.74 (sub 0)
