solid Exported from Blender-2.74 (sub 0)
facet normal 0.102381 -0.943523 0.315091
outer loop
vertex -3.440890 45.461670 -13.725009
vertex 0.812337 46.955132 -10.634895
vertex -5.065445 46.955128 -8.725057
endloop
endfacet
facet normal 0.700223 -0.661699 0.268033
outer loop
vertex 3.795183 50.989475 -8.467756
vertex 0.812337 46.955132 -10.634895
vertex 5.065588 50.204311 -13.725009
endloop
endfacet
facet normal -0.268035 -0.943523 0.194735
outer loop
vertex -3.440890 45.461670 -13.725009
vertex -5.065445 46.955128 -8.725057
vertex -8.698187 46.955154 -13.725009
endloop
endfacet
facet normal -0.268035 -0.943523 -0.194735
outer loop
vertex -3.440890 45.461670 -13.725009
vertex -8.698187 46.955154 -13.725009
vertex -5.065445 46.955128 -18.724960
endloop
endfacet
facet normal 0.102381 -0.943523 -0.315091
outer loop
vertex -3.440890 45.461670 -13.725009
vertex -5.065445 46.955128 -18.724960
vertex 0.812337 46.955132 -16.815123
endloop
endfacet
facet normal 0.904989 -0.330385 0.268031
outer loop
vertex 3.795183 50.989475 -8.467756
vertex 5.065588 50.204311 -13.725009
vertex 6.069688 55.461670 -10.634883
endloop
endfacet
facet normal 0.024747 -0.330386 0.943521
outer loop
vertex -6.204770 50.989471 -5.218516
vertex -0.812202 50.204292 -5.634894
vertex -3.440890 55.461670 -3.725010
endloop
endfacet
facet normal -0.889697 -0.330385 0.315095
outer loop
vertex -12.385150 50.989513 -13.725009
vertex -10.322782 50.204308 -8.725040
vertex -12.951467 55.461670 -10.634883
endloop
endfacet
facet normal -0.574602 -0.330387 -0.748784
outer loop
vertex -6.204770 50.989471 -22.231503
vertex -10.322782 50.204308 -18.724977
vertex -9.318745 55.461670 -21.815174
endloop
endfacet
facet normal 0.534576 -0.330387 -0.777864
outer loop
vertex 3.795183 50.989475 -18.982262
vertex -0.812202 50.204292 -21.815125
vertex 2.436965 55.461670 -21.815174
endloop
endfacet
facet normal 0.802608 -0.125627 0.583127
outer loop
vertex 3.795183 50.989475 -8.467756
vertex 6.069688 55.461670 -10.634883
vertex 2.436965 55.461670 -5.634843
endloop
endfacet
facet normal -0.306569 -0.125628 0.943522
outer loop
vertex -6.204770 50.989471 -5.218516
vertex -3.440890 55.461670 -3.725010
vertex -9.318745 55.461670 -5.634843
endloop
endfacet
facet normal -0.992077 -0.125629 0.000000
outer loop
vertex -12.385150 50.989513 -13.725009
vertex -12.951467 55.461670 -10.634883
vertex -12.951467 55.461670 -16.815136
endloop
endfacet
facet normal -0.306569 -0.125628 -0.943522
outer loop
vertex -6.204770 50.989471 -22.231503
vertex -9.318745 55.461670 -21.815174
vertex -3.440890 55.461670 -23.725008
endloop
endfacet
facet normal 0.802608 -0.125627 -0.583127
outer loop
vertex 3.795183 50.989475 -18.982262
vertex 2.436965 55.461670 -21.815174
vertex 6.069688 55.461670 -16.815136
endloop
endfacet
facet normal 0.408947 0.661700 0.628423
outer loop
vertex -0.677010 59.933868 -5.218516
vertex 3.441003 60.719032 -8.725040
vertex -1.816334 63.968212 -8.725057
endloop
endfacet
facet normal -0.471300 0.661699 0.583122
outer loop
vertex -10.676963 59.933865 -8.467756
vertex -6.069577 60.719048 -5.634894
vertex -7.694116 63.968208 -10.634895
endloop
endfacet
facet normal -0.700224 0.661699 -0.268032
outer loop
vertex -10.676963 59.933865 -18.982262
vertex -11.947367 60.719028 -13.725009
vertex -7.694116 63.968208 -16.815123
endloop
endfacet
facet normal 0.038530 0.661700 -0.748778
outer loop
vertex -0.677010 59.933868 -22.231503
vertex -6.069577 60.719048 -21.815125
vertex -1.816334 63.968212 -18.724960
endloop
endfacet
facet normal 0.724042 0.661696 -0.194735
outer loop
vertex 5.503371 59.933826 -13.725009
vertex 3.441003 60.719032 -18.724977
vertex 1.816407 63.968185 -13.725009
endloop
endfacet
facet normal 0.268034 0.943523 -0.194736
outer loop
vertex 1.816407 63.968185 -13.725009
vertex -1.816334 63.968212 -18.724960
vertex -3.440890 65.461670 -13.725009
endloop
endfacet
facet normal 0.491119 0.794657 -0.356823
outer loop
vertex 1.816407 63.968185 -13.725009
vertex 3.441003 60.719032 -18.724977
vertex -1.816334 63.968212 -18.724960
endloop
endfacet
facet normal 0.408947 0.661700 -0.628422
outer loop
vertex 3.441003 60.719032 -18.724977
vertex -0.677010 59.933868 -22.231503
vertex -1.816334 63.968212 -18.724960
endloop
endfacet
facet normal -0.102382 0.943524 -0.315089
outer loop
vertex -1.816334 63.968212 -18.724960
vertex -7.694116 63.968208 -16.815123
vertex -3.440890 65.461670 -13.725009
endloop
endfacet
facet normal -0.187594 0.794658 -0.577345
outer loop
vertex -1.816334 63.968212 -18.724960
vertex -6.069577 60.719048 -21.815125
vertex -7.694116 63.968208 -16.815123
endloop
endfacet
facet normal -0.471300 0.661699 -0.583122
outer loop
vertex -6.069577 60.719048 -21.815125
vertex -10.676963 59.933865 -18.982262
vertex -7.694116 63.968208 -16.815123
endloop
endfacet
facet normal -0.331305 0.943524 0.000000
outer loop
vertex -7.694116 63.968208 -16.815123
vertex -7.694116 63.968208 -10.634895
vertex -3.440890 65.461670 -13.725009
endloop
endfacet
facet normal -0.607060 0.794656 0.000000
outer loop
vertex -7.694116 63.968208 -16.815123
vertex -11.947367 60.719028 -13.725009
vertex -7.694116 63.968208 -10.634895
endloop
endfacet
facet normal -0.700224 0.661699 0.268032
outer loop
vertex -11.947367 60.719028 -13.725009
vertex -10.676963 59.933865 -8.467756
vertex -7.694116 63.968208 -10.634895
endloop
endfacet
facet normal -0.102382 0.943523 0.315090
outer loop
vertex -7.694116 63.968208 -10.634895
vertex -1.816334 63.968212 -8.725057
vertex -3.440890 65.461670 -13.725009
endloop
endfacet
facet normal -0.187594 0.794657 0.577346
outer loop
vertex -7.694116 63.968208 -10.634895
vertex -6.069577 60.719048 -5.634894
vertex -1.816334 63.968212 -8.725057
endloop
endfacet
facet normal 0.038530 0.661700 0.748778
outer loop
vertex -6.069577 60.719048 -5.634894
vertex -0.677010 59.933868 -5.218516
vertex -1.816334 63.968212 -8.725057
endloop
endfacet
facet normal 0.268035 0.943523 0.194736
outer loop
vertex -1.816334 63.968212 -8.725057
vertex 1.816407 63.968185 -13.725009
vertex -3.440890 65.461670 -13.725009
endloop
endfacet
facet normal 0.491119 0.794657 0.356822
outer loop
vertex -1.816334 63.968212 -8.725057
vertex 3.441003 60.719032 -8.725040
vertex 1.816407 63.968185 -13.725009
endloop
endfacet
facet normal 0.724042 0.661696 0.194736
outer loop
vertex 3.441003 60.719032 -8.725040
vertex 5.503371 59.933826 -13.725009
vertex 1.816407 63.968185 -13.725009
endloop
endfacet
facet normal 0.889697 0.330385 -0.315094
outer loop
vertex 6.069688 55.461670 -16.815136
vertex 3.441003 60.719032 -18.724977
vertex 5.503371 59.933826 -13.725009
endloop
endfacet
facet normal 0.794656 0.187595 -0.577348
outer loop
vertex 6.069688 55.461670 -16.815136
vertex 2.436965 55.461670 -21.815174
vertex 3.441003 60.719032 -18.724977
endloop
endfacet
facet normal 0.574602 0.330387 -0.748784
outer loop
vertex 2.436965 55.461670 -21.815174
vertex -0.677010 59.933868 -22.231503
vertex 3.441003 60.719032 -18.724977
endloop
endfacet
facet normal -0.024747 0.330386 -0.943521
outer loop
vertex -3.440890 55.461670 -23.725008
vertex -6.069577 60.719048 -21.815125
vertex -0.677010 59.933868 -22.231503
endloop
endfacet
facet normal -0.303531 0.187598 -0.934171
outer loop
vertex -3.440890 55.461670 -23.725008
vertex -9.318745 55.461670 -21.815174
vertex -6.069577 60.719048 -21.815125
endloop
endfacet
facet normal -0.534576 0.330386 -0.777865
outer loop
vertex -9.318745 55.461670 -21.815174
vertex -10.676963 59.933865 -18.982262
vertex -6.069577 60.719048 -21.815125
endloop
endfacet
facet normal -0.904989 0.330385 -0.268031
outer loop
vertex -12.951467 55.461670 -16.815136
vertex -11.947367 60.719028 -13.725009
vertex -10.676963 59.933865 -18.982262
endloop
endfacet
facet normal -0.982246 0.187598 0.000000
outer loop
vertex -12.951467 55.461670 -16.815136
vertex -12.951467 55.461670 -10.634883
vertex -11.947367 60.719028 -13.725009
endloop
endfacet
facet normal -0.904989 0.330385 0.268030
outer loop
vertex -12.951467 55.461670 -10.634883
vertex -10.676963 59.933865 -8.467756
vertex -11.947367 60.719028 -13.725009
endloop
endfacet
facet normal -0.534576 0.330387 0.777865
outer loop
vertex -9.318745 55.461670 -5.634843
vertex -6.069577 60.719048 -5.634894
vertex -10.676963 59.933865 -8.467756
endloop
endfacet
facet normal -0.303531 0.187598 0.934171
outer loop
vertex -9.318745 55.461670 -5.634843
vertex -3.440890 55.461670 -3.725010
vertex -6.069577 60.719048 -5.634894
endloop
endfacet
facet normal -0.024747 0.330386 0.943521
outer loop
vertex -3.440890 55.461670 -3.725010
vertex -0.677010 59.933868 -5.218516
vertex -6.069577 60.719048 -5.634894
endloop
endfacet
facet normal 0.574602 0.330387 0.748784
outer loop
vertex 2.436965 55.461670 -5.634843
vertex 3.441003 60.719032 -8.725040
vertex -0.677010 59.933868 -5.218516
endloop
endfacet
facet normal 0.794656 0.187595 0.577348
outer loop
vertex 2.436965 55.461670 -5.634843
vertex 6.069688 55.461670 -10.634883
vertex 3.441003 60.719032 -8.725040
endloop
endfacet
facet normal 0.889697 0.330385 0.315094
outer loop
vertex 6.069688 55.461670 -10.634883
vertex 5.503371 59.933826 -13.725009
vertex 3.441003 60.719032 -8.725040
endloop
endfacet
facet normal 0.306569 0.125628 -0.943521
outer loop
vertex 2.436965 55.461670 -21.815174
vertex -3.440890 55.461670 -23.725008
vertex -0.677010 59.933868 -22.231503
endloop
endfacet
facet normal 0.303531 -0.187597 -0.934171
outer loop
vertex 2.436965 55.461670 -21.815174
vertex -0.812202 50.204292 -21.815125
vertex -3.440890 55.461670 -23.725008
endloop
endfacet
facet normal 0.024747 -0.330386 -0.943521
outer loop
vertex -0.812202 50.204292 -21.815125
vertex -6.204770 50.989471 -22.231503
vertex -3.440890 55.461670 -23.725008
endloop
endfacet
facet normal -0.802609 0.125627 -0.583127
outer loop
vertex -9.318745 55.461670 -21.815174
vertex -12.951467 55.461670 -16.815136
vertex -10.676963 59.933865 -18.982262
endloop
endfacet
facet normal -0.794656 -0.187595 -0.577348
outer loop
vertex -9.318745 55.461670 -21.815174
vertex -10.322782 50.204308 -18.724977
vertex -12.951467 55.461670 -16.815136
endloop
endfacet
facet normal -0.889697 -0.330385 -0.315095
outer loop
vertex -10.322782 50.204308 -18.724977
vertex -12.385150 50.989513 -13.725009
vertex -12.951467 55.461670 -16.815136
endloop
endfacet
facet normal -0.802609 0.125627 0.583127
outer loop
vertex -12.951467 55.461670 -10.634883
vertex -9.318745 55.461670 -5.634843
vertex -10.676963 59.933865 -8.467756
endloop
endfacet
facet normal -0.794656 -0.187595 0.577348
outer loop
vertex -12.951467 55.461670 -10.634883
vertex -10.322782 50.204308 -8.725040
vertex -9.318745 55.461670 -5.634843
endloop
endfacet
facet normal -0.574602 -0.330387 0.748784
outer loop
vertex -10.322782 50.204308 -8.725040
vertex -6.204770 50.989471 -5.218516
vertex -9.318745 55.461670 -5.634843
endloop
endfacet
facet normal 0.306569 0.125628 0.943522
outer loop
vertex -3.440890 55.461670 -3.725010
vertex 2.436965 55.461670 -5.634843
vertex -0.677010 59.933868 -5.218516
endloop
endfacet
facet normal 0.303531 -0.187598 0.934171
outer loop
vertex -3.440890 55.461670 -3.725010
vertex -0.812202 50.204292 -5.634894
vertex 2.436965 55.461670 -5.634843
endloop
endfacet
facet normal 0.534576 -0.330387 0.777864
outer loop
vertex -0.812202 50.204292 -5.634894
vertex 3.795183 50.989475 -8.467756
vertex 2.436965 55.461670 -5.634843
endloop
endfacet
facet normal 0.992077 0.125628 0.000000
outer loop
vertex 6.069688 55.461670 -10.634883
vertex 6.069688 55.461670 -16.815136
vertex 5.503371 59.933826 -13.725009
endloop
endfacet
facet normal 0.982246 -0.187599 0.000000
outer loop
vertex 6.069688 55.461670 -10.634883
vertex 5.065588 50.204311 -13.725009
vertex 6.069688 55.461670 -16.815136
endloop
endfacet
facet normal 0.904989 -0.330385 -0.268031
outer loop
vertex 5.065588 50.204311 -13.725009
vertex 3.795183 50.989475 -18.982262
vertex 6.069688 55.461670 -16.815136
endloop
endfacet
facet normal 0.471299 -0.661698 -0.583123
outer loop
vertex 0.812337 46.955132 -16.815123
vertex -0.812202 50.204292 -21.815125
vertex 3.795183 50.989475 -18.982262
endloop
endfacet
facet normal 0.187594 -0.794659 -0.577344
outer loop
vertex 0.812337 46.955132 -16.815123
vertex -5.065445 46.955128 -18.724960
vertex -0.812202 50.204292 -21.815125
endloop
endfacet
facet normal -0.038530 -0.661699 -0.748779
outer loop
vertex -5.065445 46.955128 -18.724960
vertex -6.204770 50.989471 -22.231503
vertex -0.812202 50.204292 -21.815125
endloop
endfacet
facet normal -0.408946 -0.661699 -0.628425
outer loop
vertex -5.065445 46.955128 -18.724960
vertex -10.322782 50.204308 -18.724977
vertex -6.204770 50.989471 -22.231503
endloop
endfacet
facet normal -0.491119 -0.794657 -0.356822
outer loop
vertex -5.065445 46.955128 -18.724960
vertex -8.698187 46.955154 -13.725009
vertex -10.322782 50.204308 -18.724977
endloop
endfacet
facet normal -0.724042 -0.661695 -0.194736
outer loop
vertex -8.698187 46.955154 -13.725009
vertex -12.385150 50.989513 -13.725009
vertex -10.322782 50.204308 -18.724977
endloop
endfacet
facet normal -0.724042 -0.661695 0.194736
outer loop
vertex -8.698187 46.955154 -13.725009
vertex -10.322782 50.204308 -8.725040
vertex -12.385150 50.989513 -13.725009
endloop
endfacet
facet normal -0.491119 -0.794657 0.356822
outer loop
vertex -8.698187 46.955154 -13.725009
vertex -5.065445 46.955128 -8.725057
vertex -10.322782 50.204308 -8.725040
endloop
endfacet
facet normal -0.408946 -0.661699 0.628425
outer loop
vertex -5.065445 46.955128 -8.725057
vertex -6.204770 50.989471 -5.218516
vertex -10.322782 50.204308 -8.725040
endloop
endfacet
facet normal 0.700224 -0.661699 -0.268032
outer loop
vertex 5.065588 50.204311 -13.725009
vertex 0.812337 46.955132 -16.815123
vertex 3.795183 50.989475 -18.982262
endloop
endfacet
facet normal 0.607060 -0.794656 0.000000
outer loop
vertex 5.065588 50.204311 -13.725009
vertex 0.812337 46.955132 -10.634895
vertex 0.812337 46.955132 -16.815123
endloop
endfacet
facet normal 0.331305 -0.943524 0.000000
outer loop
vertex 0.812337 46.955132 -10.634895
vertex -3.440890 45.461670 -13.725009
vertex 0.812337 46.955132 -16.815123
endloop
endfacet
facet normal -0.038530 -0.661700 0.748778
outer loop
vertex -5.065445 46.955128 -8.725057
vertex -0.812202 50.204292 -5.634894
vertex -6.204770 50.989471 -5.218516
endloop
endfacet
facet normal 0.187595 -0.794658 0.577344
outer loop
vertex -5.065445 46.955128 -8.725057
vertex 0.812337 46.955132 -10.634895
vertex -0.812202 50.204292 -5.634894
endloop
endfacet
facet normal 0.471300 -0.661699 0.583122
outer loop
vertex 0.812337 46.955132 -10.634895
vertex 3.795183 50.989475 -8.467756
vertex -0.812202 50.204292 -5.634894
endloop
endfacet
endsolid Exported from Blender-2.74 (sub 0)
