solid Exported from Blender-2.74 (sub 0)
facet normal 0.102381 -0.943524 0.315090
outer loop
vertex -17.419001 30.408539 1.329596
vertex -13.165774 31.901999 4.419710
vertex -19.043556 31.901997 6.329549
endloop
endfacet
facet normal 0.700224 -0.661699 0.268031
outer loop
vertex -10.182928 35.936344 6.586849
vertex -13.165774 31.901999 4.419710
vertex -8.912523 35.151180 1.329596
endloop
endfacet
facet normal -0.268034 -0.943523 0.194736
outer loop
vertex -17.419001 30.408539 1.329596
vertex -19.043556 31.901997 6.329549
vertex -22.676298 31.902023 1.329596
endloop
endfacet
facet normal -0.268034 -0.943523 -0.194736
outer loop
vertex -17.419001 30.408539 1.329596
vertex -22.676298 31.902023 1.329596
vertex -19.043556 31.901997 -3.670356
endloop
endfacet
facet normal 0.102381 -0.943524 -0.315090
outer loop
vertex -17.419001 30.408539 1.329596
vertex -19.043556 31.901997 -3.670356
vertex -13.165774 31.901999 -1.760517
endloop
endfacet
facet normal 0.904989 -0.330384 0.268031
outer loop
vertex -10.182928 35.936344 6.586849
vertex -8.912523 35.151180 1.329596
vertex -7.908423 40.408539 4.419723
endloop
endfacet
facet normal 0.024747 -0.330386 0.943521
outer loop
vertex -20.182880 35.936340 9.836089
vertex -14.790313 35.151161 9.419711
vertex -17.419001 40.408539 11.329596
endloop
endfacet
facet normal -0.889697 -0.330384 0.315095
outer loop
vertex -26.363262 35.936382 1.329596
vertex -24.300892 35.151176 6.329565
vertex -26.929577 40.408539 4.419723
endloop
endfacet
facet normal -0.574602 -0.330387 -0.748784
outer loop
vertex -20.182880 35.936340 -7.176896
vertex -24.300892 35.151176 -3.670372
vertex -23.296856 40.408539 -6.760570
endloop
endfacet
facet normal 0.534576 -0.330386 -0.777865
outer loop
vertex -10.182928 35.936344 -3.927657
vertex -14.790313 35.151161 -6.760518
vertex -11.541145 40.408539 -6.760570
endloop
endfacet
facet normal 0.802609 -0.125627 0.583127
outer loop
vertex -10.182928 35.936344 6.586849
vertex -7.908423 40.408539 4.419723
vertex -11.541145 40.408539 9.419763
endloop
endfacet
facet normal -0.306569 -0.125628 0.943522
outer loop
vertex -20.182880 35.936340 9.836089
vertex -17.419001 40.408539 11.329596
vertex -23.296856 40.408539 9.419763
endloop
endfacet
facet normal -0.992077 -0.125628 0.000000
outer loop
vertex -26.363262 35.936382 1.329596
vertex -26.929577 40.408539 4.419723
vertex -26.929577 40.408539 -1.760530
endloop
endfacet
facet normal -0.306569 -0.125628 -0.943522
outer loop
vertex -20.182880 35.936340 -7.176896
vertex -23.296856 40.408539 -6.760570
vertex -17.419001 40.408539 -8.670403
endloop
endfacet
facet normal 0.802609 -0.125627 -0.583127
outer loop
vertex -10.182928 35.936344 -3.927657
vertex -11.541145 40.408539 -6.760570
vertex -7.908423 40.408539 -1.760530
endloop
endfacet
facet normal 0.408946 0.661699 0.628425
outer loop
vertex -14.655121 44.880737 9.836089
vertex -10.537108 45.665901 6.329565
vertex -15.794445 48.915081 6.329549
endloop
endfacet
facet normal -0.471299 0.661699 0.583122
outer loop
vertex -24.655073 44.880733 6.586849
vertex -20.047688 45.665916 9.419711
vertex -21.672226 48.915077 4.419710
endloop
endfacet
facet normal -0.700223 0.661699 -0.268032
outer loop
vertex -24.655073 44.880733 -3.927657
vertex -25.925478 45.665897 1.329596
vertex -21.672226 48.915077 -1.760517
endloop
endfacet
facet normal 0.038530 0.661699 -0.748779
outer loop
vertex -14.655121 44.880737 -7.176896
vertex -20.047688 45.665916 -6.760518
vertex -15.794445 48.915081 -3.670356
endloop
endfacet
facet normal 0.724042 0.661695 -0.194735
outer loop
vertex -8.474740 44.880695 1.329596
vertex -10.537108 45.665901 -3.670372
vertex -12.161703 48.915054 1.329596
endloop
endfacet
facet normal 0.268034 0.943523 -0.194736
outer loop
vertex -12.161703 48.915054 1.329596
vertex -15.794445 48.915081 -3.670356
vertex -17.419001 50.408539 1.329596
endloop
endfacet
facet normal 0.491119 0.794657 -0.356822
outer loop
vertex -12.161703 48.915054 1.329596
vertex -10.537108 45.665901 -3.670372
vertex -15.794445 48.915081 -3.670356
endloop
endfacet
facet normal 0.408946 0.661699 -0.628425
outer loop
vertex -10.537108 45.665901 -3.670372
vertex -14.655121 44.880737 -7.176896
vertex -15.794445 48.915081 -3.670356
endloop
endfacet
facet normal -0.102381 0.943523 -0.315091
outer loop
vertex -15.794445 48.915081 -3.670356
vertex -21.672226 48.915077 -1.760517
vertex -17.419001 50.408539 1.329596
endloop
endfacet
facet normal -0.187594 0.794658 -0.577345
outer loop
vertex -15.794445 48.915081 -3.670356
vertex -20.047688 45.665916 -6.760518
vertex -21.672226 48.915077 -1.760517
endloop
endfacet
facet normal -0.471299 0.661699 -0.583122
outer loop
vertex -20.047688 45.665916 -6.760518
vertex -24.655073 44.880733 -3.927657
vertex -21.672226 48.915077 -1.760517
endloop
endfacet
facet normal -0.331305 0.943524 0.000000
outer loop
vertex -21.672226 48.915077 -1.760517
vertex -21.672226 48.915077 4.419710
vertex -17.419001 50.408539 1.329596
endloop
endfacet
facet normal -0.607060 0.794656 0.000000
outer loop
vertex -21.672226 48.915077 -1.760517
vertex -25.925478 45.665897 1.329596
vertex -21.672226 48.915077 4.419710
endloop
endfacet
facet normal -0.700224 0.661699 0.268032
outer loop
vertex -25.925478 45.665897 1.329596
vertex -24.655073 44.880733 6.586849
vertex -21.672226 48.915077 4.419710
endloop
endfacet
facet normal -0.102381 0.943523 0.315091
outer loop
vertex -21.672226 48.915077 4.419710
vertex -15.794445 48.915081 6.329549
vertex -17.419001 50.408539 1.329596
endloop
endfacet
facet normal -0.187594 0.794658 0.577345
outer loop
vertex -21.672226 48.915077 4.419710
vertex -20.047688 45.665916 9.419711
vertex -15.794445 48.915081 6.329549
endloop
endfacet
facet normal 0.038530 0.661699 0.748779
outer loop
vertex -20.047688 45.665916 9.419711
vertex -14.655121 44.880737 9.836089
vertex -15.794445 48.915081 6.329549
endloop
endfacet
facet normal 0.268034 0.943523 0.194736
outer loop
vertex -15.794445 48.915081 6.329549
vertex -12.161703 48.915054 1.329596
vertex -17.419001 50.408539 1.329596
endloop
endfacet
facet normal 0.491119 0.794657 0.356822
outer loop
vertex -15.794445 48.915081 6.329549
vertex -10.537108 45.665901 6.329565
vertex -12.161703 48.915054 1.329596
endloop
endfacet
facet normal 0.724043 0.661695 0.194735
outer loop
vertex -10.537108 45.665901 6.329565
vertex -8.474740 44.880695 1.329596
vertex -12.161703 48.915054 1.329596
endloop
endfacet
facet normal 0.889697 0.330385 -0.315095
outer loop
vertex -7.908423 40.408539 -1.760530
vertex -10.537108 45.665901 -3.670372
vertex -8.474740 44.880695 1.329596
endloop
endfacet
facet normal 0.794656 0.187595 -0.577348
outer loop
vertex -7.908423 40.408539 -1.760530
vertex -11.541145 40.408539 -6.760570
vertex -10.537108 45.665901 -3.670372
endloop
endfacet
facet normal 0.574602 0.330387 -0.748784
outer loop
vertex -11.541145 40.408539 -6.760570
vertex -14.655121 44.880737 -7.176896
vertex -10.537108 45.665901 -3.670372
endloop
endfacet
facet normal -0.024747 0.330386 -0.943521
outer loop
vertex -17.419001 40.408539 -8.670403
vertex -20.047688 45.665916 -6.760518
vertex -14.655121 44.880737 -7.176896
endloop
endfacet
facet normal -0.303531 0.187598 -0.934171
outer loop
vertex -17.419001 40.408539 -8.670403
vertex -23.296856 40.408539 -6.760570
vertex -20.047688 45.665916 -6.760518
endloop
endfacet
facet normal -0.534576 0.330387 -0.777864
outer loop
vertex -23.296856 40.408539 -6.760570
vertex -24.655073 44.880733 -3.927657
vertex -20.047688 45.665916 -6.760518
endloop
endfacet
facet normal -0.904989 0.330384 -0.268031
outer loop
vertex -26.929577 40.408539 -1.760530
vertex -25.925478 45.665897 1.329596
vertex -24.655073 44.880733 -3.927657
endloop
endfacet
facet normal -0.982246 0.187598 0.000000
outer loop
vertex -26.929577 40.408539 -1.760530
vertex -26.929577 40.408539 4.419723
vertex -25.925478 45.665897 1.329596
endloop
endfacet
facet normal -0.904989 0.330385 0.268031
outer loop
vertex -26.929577 40.408539 4.419723
vertex -24.655073 44.880733 6.586849
vertex -25.925478 45.665897 1.329596
endloop
endfacet
facet normal -0.534576 0.330387 0.777864
outer loop
vertex -23.296856 40.408539 9.419763
vertex -20.047688 45.665916 9.419711
vertex -24.655073 44.880733 6.586849
endloop
endfacet
facet normal -0.303531 0.187598 0.934171
outer loop
vertex -23.296856 40.408539 9.419763
vertex -17.419001 40.408539 11.329596
vertex -20.047688 45.665916 9.419711
endloop
endfacet
facet normal -0.024747 0.330386 0.943521
outer loop
vertex -17.419001 40.408539 11.329596
vertex -14.655121 44.880737 9.836089
vertex -20.047688 45.665916 9.419711
endloop
endfacet
facet normal 0.574602 0.330387 0.748784
outer loop
vertex -11.541145 40.408539 9.419763
vertex -10.537108 45.665901 6.329565
vertex -14.655121 44.880737 9.836089
endloop
endfacet
facet normal 0.794656 0.187595 0.577348
outer loop
vertex -11.541145 40.408539 9.419763
vertex -7.908423 40.408539 4.419723
vertex -10.537108 45.665901 6.329565
endloop
endfacet
facet normal 0.889697 0.330385 0.315095
outer loop
vertex -7.908423 40.408539 4.419723
vertex -8.474740 44.880695 1.329596
vertex -10.537108 45.665901 6.329565
endloop
endfacet
facet normal 0.306569 0.125628 -0.943521
outer loop
vertex -11.541145 40.408539 -6.760570
vertex -17.419001 40.408539 -8.670403
vertex -14.655121 44.880737 -7.176896
endloop
endfacet
facet normal 0.303531 -0.187597 -0.934171
outer loop
vertex -11.541145 40.408539 -6.760570
vertex -14.790313 35.151161 -6.760518
vertex -17.419001 40.408539 -8.670403
endloop
endfacet
facet normal 0.024747 -0.330386 -0.943521
outer loop
vertex -14.790313 35.151161 -6.760518
vertex -20.182880 35.936340 -7.176896
vertex -17.419001 40.408539 -8.670403
endloop
endfacet
facet normal -0.802609 0.125627 -0.583127
outer loop
vertex -23.296856 40.408539 -6.760570
vertex -26.929577 40.408539 -1.760530
vertex -24.655073 44.880733 -3.927657
endloop
endfacet
facet normal -0.794656 -0.187595 -0.577347
outer loop
vertex -23.296856 40.408539 -6.760570
vertex -24.300892 35.151176 -3.670372
vertex -26.929577 40.408539 -1.760530
endloop
endfacet
facet normal -0.889697 -0.330384 -0.315096
outer loop
vertex -24.300892 35.151176 -3.670372
vertex -26.363262 35.936382 1.329596
vertex -26.929577 40.408539 -1.760530
endloop
endfacet
facet normal -0.802609 0.125627 0.583127
outer loop
vertex -26.929577 40.408539 4.419723
vertex -23.296856 40.408539 9.419763
vertex -24.655073 44.880733 6.586849
endloop
endfacet
facet normal -0.794656 -0.187595 0.577347
outer loop
vertex -26.929577 40.408539 4.419723
vertex -24.300892 35.151176 6.329565
vertex -23.296856 40.408539 9.419763
endloop
endfacet
facet normal -0.574602 -0.330387 0.748783
outer loop
vertex -24.300892 35.151176 6.329565
vertex -20.182880 35.936340 9.836089
vertex -23.296856 40.408539 9.419763
endloop
endfacet
facet normal 0.306569 0.125628 0.943522
outer loop
vertex -17.419001 40.408539 11.329596
vertex -11.541145 40.408539 9.419763
vertex -14.655121 44.880737 9.836089
endloop
endfacet
facet normal 0.303531 -0.187597 0.934171
outer loop
vertex -17.419001 40.408539 11.329596
vertex -14.790313 35.151161 9.419711
vertex -11.541145 40.408539 9.419763
endloop
endfacet
facet normal 0.534576 -0.330387 0.777864
outer loop
vertex -14.790313 35.151161 9.419711
vertex -10.182928 35.936344 6.586849
vertex -11.541145 40.408539 9.419763
endloop
endfacet
facet normal 0.992077 0.125629 0.000000
outer loop
vertex -7.908423 40.408539 4.419723
vertex -7.908423 40.408539 -1.760530
vertex -8.474740 44.880695 1.329596
endloop
endfacet
facet normal 0.982246 -0.187599 0.000000
outer loop
vertex -7.908423 40.408539 4.419723
vertex -8.912523 35.151180 1.329596
vertex -7.908423 40.408539 -1.760530
endloop
endfacet
facet normal 0.904989 -0.330385 -0.268031
outer loop
vertex -8.912523 35.151180 1.329596
vertex -10.182928 35.936344 -3.927657
vertex -7.908423 40.408539 -1.760530
endloop
endfacet
facet normal 0.471299 -0.661698 -0.583123
outer loop
vertex -13.165774 31.901999 -1.760517
vertex -14.790313 35.151161 -6.760518
vertex -10.182928 35.936344 -3.927657
endloop
endfacet
facet normal 0.187594 -0.794657 -0.577346
outer loop
vertex -13.165774 31.901999 -1.760517
vertex -19.043556 31.901997 -3.670356
vertex -14.790313 35.151161 -6.760518
endloop
endfacet
facet normal -0.038530 -0.661700 -0.748778
outer loop
vertex -19.043556 31.901997 -3.670356
vertex -20.182880 35.936340 -7.176896
vertex -14.790313 35.151161 -6.760518
endloop
endfacet
facet normal -0.408946 -0.661699 -0.628424
outer loop
vertex -19.043556 31.901997 -3.670356
vertex -24.300892 35.151176 -3.670372
vertex -20.182880 35.936340 -7.176896
endloop
endfacet
facet normal -0.491120 -0.794657 -0.356822
outer loop
vertex -19.043556 31.901997 -3.670356
vertex -22.676298 31.902023 1.329596
vertex -24.300892 35.151176 -3.670372
endloop
endfacet
facet normal -0.724042 -0.661696 -0.194735
outer loop
vertex -22.676298 31.902023 1.329596
vertex -26.363262 35.936382 1.329596
vertex -24.300892 35.151176 -3.670372
endloop
endfacet
facet normal -0.724042 -0.661696 0.194735
outer loop
vertex -22.676298 31.902023 1.329596
vertex -24.300892 35.151176 6.329565
vertex -26.363262 35.936382 1.329596
endloop
endfacet
facet normal -0.491119 -0.794657 0.356822
outer loop
vertex -22.676298 31.902023 1.329596
vertex -19.043556 31.901997 6.329549
vertex -24.300892 35.151176 6.329565
endloop
endfacet
facet normal -0.408947 -0.661699 0.628424
outer loop
vertex -19.043556 31.901997 6.329549
vertex -20.182880 35.936340 9.836089
vertex -24.300892 35.151176 6.329565
endloop
endfacet
facet normal 0.700224 -0.661699 -0.268031
outer loop
vertex -8.912523 35.151180 1.329596
vertex -13.165774 31.901999 -1.760517
vertex -10.182928 35.936344 -3.927657
endloop
endfacet
facet normal 0.607060 -0.794656 0.000000
outer loop
vertex -8.912523 35.151180 1.329596
vertex -13.165774 31.901999 4.419710
vertex -13.165774 31.901999 -1.760517
endloop
endfacet
facet normal 0.331305 -0.943524 0.000000
outer loop
vertex -13.165774 31.901999 4.419710
vertex -17.419001 30.408539 1.329596
vertex -13.165774 31.901999 -1.760517
endloop
endfacet
facet normal -0.038530 -0.661700 0.748778
outer loop
vertex -19.043556 31.901997 6.329549
vertex -14.790313 35.151161 9.419711
vertex -20.182880 35.936340 9.836089
endloop
endfacet
facet normal 0.187594 -0.794657 0.577346
outer loop
vertex -19.043556 31.901997 6.329549
vertex -13.165774 31.901999 4.419710
vertex -14.790313 35.151161 9.419711
endloop
endfacet
facet normal 0.471299 -0.661698 0.583123
outer loop
vertex -13.165774 31.901999 4.419710
vertex -10.182928 35.936344 6.586849
vertex -14.790313 35.151161 9.419711
endloop
endfacet
endsolid Exported from Blender-2.74 (sub 0)
