solid Exported from Blender-2.74 (sub 0)
facet normal 0.102381 -0.943523 0.315090
outer loop
vertex 6.839458 22.822357 -9.343148
vertex 11.092684 24.315817 -6.253035
vertex 5.214902 24.315815 -4.343196
endloop
endfacet
facet normal 0.700224 -0.661699 0.268032
outer loop
vertex 14.075531 28.350163 -4.085895
vertex 11.092684 24.315817 -6.253035
vertex 15.345936 27.564999 -9.343148
endloop
endfacet
facet normal -0.268034 -0.943523 0.194736
outer loop
vertex 6.839458 22.822357 -9.343148
vertex 5.214902 24.315815 -4.343196
vertex 1.582161 24.315842 -9.343148
endloop
endfacet
facet normal -0.268034 -0.943523 -0.194736
outer loop
vertex 6.839458 22.822357 -9.343148
vertex 1.582161 24.315842 -9.343148
vertex 5.214902 24.315815 -14.343101
endloop
endfacet
facet normal 0.102381 -0.943523 -0.315090
outer loop
vertex 6.839458 22.822357 -9.343148
vertex 5.214902 24.315815 -14.343101
vertex 11.092684 24.315817 -12.433262
endloop
endfacet
facet normal 0.904989 -0.330384 0.268031
outer loop
vertex 14.075531 28.350163 -4.085895
vertex 15.345936 27.564999 -9.343148
vertex 16.350035 32.822357 -6.253022
endloop
endfacet
facet normal 0.024747 -0.330386 0.943521
outer loop
vertex 4.075578 28.350159 -0.836656
vertex 9.468145 27.564981 -1.253034
vertex 6.839458 32.822357 0.656851
endloop
endfacet
facet normal -0.889697 -0.330385 0.315094
outer loop
vertex -2.104803 28.350201 -9.343148
vertex -0.042434 27.564997 -4.343180
vertex -2.671119 32.822357 -6.253022
endloop
endfacet
facet normal -0.574602 -0.330388 -0.748783
outer loop
vertex 4.075578 28.350159 -17.849640
vertex -0.042434 27.564997 -14.343117
vertex 0.961603 32.822357 -17.433315
endloop
endfacet
facet normal 0.534576 -0.330387 -0.777864
outer loop
vertex 14.075531 28.350163 -14.600401
vertex 9.468145 27.564981 -17.433262
vertex 12.717313 32.822357 -17.433315
endloop
endfacet
facet normal 0.802609 -0.125627 0.583127
outer loop
vertex 14.075531 28.350163 -4.085895
vertex 16.350035 32.822357 -6.253022
vertex 12.717313 32.822357 -1.252982
endloop
endfacet
facet normal -0.306569 -0.125628 0.943522
outer loop
vertex 4.075578 28.350159 -0.836656
vertex 6.839458 32.822357 0.656851
vertex 0.961603 32.822357 -1.252982
endloop
endfacet
facet normal -0.992077 -0.125628 0.000000
outer loop
vertex -2.104803 28.350201 -9.343148
vertex -2.671119 32.822357 -6.253022
vertex -2.671119 32.822357 -12.433274
endloop
endfacet
facet normal -0.306569 -0.125629 -0.943521
outer loop
vertex 4.075578 28.350159 -17.849640
vertex 0.961603 32.822357 -17.433315
vertex 6.839458 32.822357 -19.343147
endloop
endfacet
facet normal 0.802609 -0.125627 -0.583127
outer loop
vertex 14.075531 28.350163 -14.600401
vertex 12.717313 32.822357 -17.433315
vertex 16.350035 32.822357 -12.433274
endloop
endfacet
facet normal 0.408946 0.661699 0.628425
outer loop
vertex 9.603338 37.294556 -0.836656
vertex 13.721350 38.079720 -4.343180
vertex 8.464013 41.328899 -4.343196
endloop
endfacet
facet normal -0.471299 0.661699 0.583122
outer loop
vertex -0.396615 37.294552 -4.085895
vertex 4.210771 38.079735 -1.253034
vertex 2.586232 41.328896 -6.253035
endloop
endfacet
facet normal -0.700223 0.661699 -0.268033
outer loop
vertex -0.396615 37.294552 -14.600401
vertex -1.667019 38.079716 -9.343148
vertex 2.586232 41.328896 -12.433262
endloop
endfacet
facet normal 0.038530 0.661699 -0.748779
outer loop
vertex 9.603338 37.294556 -17.849640
vertex 4.210770 38.079735 -17.433262
vertex 8.464013 41.328899 -14.343101
endloop
endfacet
facet normal 0.724042 0.661696 -0.194735
outer loop
vertex 15.783718 37.294514 -9.343148
vertex 13.721350 38.079720 -14.343117
vertex 12.096755 41.328873 -9.343148
endloop
endfacet
facet normal 0.268034 0.943523 -0.194737
outer loop
vertex 12.096755 41.328873 -9.343148
vertex 8.464013 41.328899 -14.343101
vertex 6.839458 42.822357 -9.343148
endloop
endfacet
facet normal 0.491119 0.794657 -0.356822
outer loop
vertex 12.096755 41.328873 -9.343148
vertex 13.721350 38.079720 -14.343117
vertex 8.464013 41.328899 -14.343101
endloop
endfacet
facet normal 0.408947 0.661699 -0.628425
outer loop
vertex 13.721350 38.079720 -14.343117
vertex 9.603338 37.294556 -17.849640
vertex 8.464013 41.328899 -14.343101
endloop
endfacet
facet normal -0.102381 0.943523 -0.315091
outer loop
vertex 8.464013 41.328899 -14.343101
vertex 2.586232 41.328896 -12.433262
vertex 6.839458 42.822357 -9.343148
endloop
endfacet
facet normal -0.187595 0.794658 -0.577345
outer loop
vertex 8.464013 41.328899 -14.343101
vertex 4.210770 38.079735 -17.433262
vertex 2.586232 41.328896 -12.433262
endloop
endfacet
facet normal -0.471299 0.661699 -0.583122
outer loop
vertex 4.210770 38.079735 -17.433262
vertex -0.396615 37.294552 -14.600401
vertex 2.586232 41.328896 -12.433262
endloop
endfacet
facet normal -0.331305 0.943524 0.000000
outer loop
vertex 2.586232 41.328896 -12.433262
vertex 2.586232 41.328896 -6.253035
vertex 6.839458 42.822357 -9.343148
endloop
endfacet
facet normal -0.607060 0.794656 0.000000
outer loop
vertex 2.586232 41.328896 -12.433262
vertex -1.667019 38.079716 -9.343148
vertex 2.586232 41.328896 -6.253035
endloop
endfacet
facet normal -0.700224 0.661699 0.268032
outer loop
vertex -1.667019 38.079716 -9.343148
vertex -0.396615 37.294552 -4.085895
vertex 2.586232 41.328896 -6.253035
endloop
endfacet
facet normal -0.102381 0.943523 0.315091
outer loop
vertex 2.586232 41.328896 -6.253035
vertex 8.464013 41.328899 -4.343196
vertex 6.839458 42.822357 -9.343148
endloop
endfacet
facet normal -0.187594 0.794658 0.577345
outer loop
vertex 2.586232 41.328896 -6.253035
vertex 4.210771 38.079735 -1.253034
vertex 8.464013 41.328899 -4.343196
endloop
endfacet
facet normal 0.038530 0.661699 0.748779
outer loop
vertex 4.210771 38.079735 -1.253034
vertex 9.603338 37.294556 -0.836656
vertex 8.464013 41.328899 -4.343196
endloop
endfacet
facet normal 0.268034 0.943523 0.194736
outer loop
vertex 8.464013 41.328899 -4.343196
vertex 12.096755 41.328873 -9.343148
vertex 6.839458 42.822357 -9.343148
endloop
endfacet
facet normal 0.491119 0.794657 0.356822
outer loop
vertex 8.464013 41.328899 -4.343196
vertex 13.721350 38.079720 -4.343180
vertex 12.096755 41.328873 -9.343148
endloop
endfacet
facet normal 0.724042 0.661696 0.194734
outer loop
vertex 13.721350 38.079720 -4.343180
vertex 15.783718 37.294514 -9.343148
vertex 12.096755 41.328873 -9.343148
endloop
endfacet
facet normal 0.889697 0.330384 -0.315095
outer loop
vertex 16.350035 32.822357 -12.433274
vertex 13.721350 38.079720 -14.343117
vertex 15.783718 37.294514 -9.343148
endloop
endfacet
facet normal 0.794656 0.187595 -0.577348
outer loop
vertex 16.350035 32.822357 -12.433274
vertex 12.717313 32.822357 -17.433315
vertex 13.721350 38.079720 -14.343117
endloop
endfacet
facet normal 0.574602 0.330388 -0.748783
outer loop
vertex 12.717313 32.822357 -17.433315
vertex 9.603338 37.294556 -17.849640
vertex 13.721350 38.079720 -14.343117
endloop
endfacet
facet normal -0.024747 0.330386 -0.943521
outer loop
vertex 6.839458 32.822357 -19.343147
vertex 4.210770 38.079735 -17.433262
vertex 9.603338 37.294556 -17.849640
endloop
endfacet
facet normal -0.303531 0.187598 -0.934171
outer loop
vertex 6.839458 32.822357 -19.343147
vertex 0.961603 32.822357 -17.433315
vertex 4.210770 38.079735 -17.433262
endloop
endfacet
facet normal -0.534577 0.330387 -0.777864
outer loop
vertex 0.961603 32.822357 -17.433315
vertex -0.396615 37.294552 -14.600401
vertex 4.210770 38.079735 -17.433262
endloop
endfacet
facet normal -0.904989 0.330384 -0.268031
outer loop
vertex -2.671119 32.822357 -12.433274
vertex -1.667019 38.079716 -9.343148
vertex -0.396615 37.294552 -14.600401
endloop
endfacet
facet normal -0.982246 0.187599 0.000000
outer loop
vertex -2.671119 32.822357 -12.433274
vertex -2.671119 32.822357 -6.253022
vertex -1.667019 38.079716 -9.343148
endloop
endfacet
facet normal -0.904989 0.330384 0.268031
outer loop
vertex -2.671119 32.822357 -6.253022
vertex -0.396615 37.294552 -4.085895
vertex -1.667019 38.079716 -9.343148
endloop
endfacet
facet normal -0.534576 0.330387 0.777864
outer loop
vertex 0.961603 32.822357 -1.252982
vertex 4.210771 38.079735 -1.253034
vertex -0.396615 37.294552 -4.085895
endloop
endfacet
facet normal -0.303531 0.187597 0.934171
outer loop
vertex 0.961603 32.822357 -1.252982
vertex 6.839458 32.822357 0.656851
vertex 4.210771 38.079735 -1.253034
endloop
endfacet
facet normal -0.024747 0.330386 0.943521
outer loop
vertex 6.839458 32.822357 0.656851
vertex 9.603338 37.294556 -0.836656
vertex 4.210771 38.079735 -1.253034
endloop
endfacet
facet normal 0.574602 0.330387 0.748783
outer loop
vertex 12.717313 32.822357 -1.252982
vertex 13.721350 38.079720 -4.343180
vertex 9.603338 37.294556 -0.836656
endloop
endfacet
facet normal 0.794656 0.187595 0.577348
outer loop
vertex 12.717313 32.822357 -1.252982
vertex 16.350035 32.822357 -6.253022
vertex 13.721350 38.079720 -4.343180
endloop
endfacet
facet normal 0.889697 0.330384 0.315095
outer loop
vertex 16.350035 32.822357 -6.253022
vertex 15.783718 37.294514 -9.343148
vertex 13.721350 38.079720 -4.343180
endloop
endfacet
facet normal 0.306569 0.125629 -0.943521
outer loop
vertex 12.717313 32.822357 -17.433315
vertex 6.839458 32.822357 -19.343147
vertex 9.603338 37.294556 -17.849640
endloop
endfacet
facet normal 0.303531 -0.187598 -0.934171
outer loop
vertex 12.717313 32.822357 -17.433315
vertex 9.468145 27.564981 -17.433262
vertex 6.839458 32.822357 -19.343147
endloop
endfacet
facet normal 0.024747 -0.330386 -0.943521
outer loop
vertex 9.468145 27.564981 -17.433262
vertex 4.075578 28.350159 -17.849640
vertex 6.839458 32.822357 -19.343147
endloop
endfacet
facet normal -0.802608 0.125627 -0.583127
outer loop
vertex 0.961603 32.822357 -17.433315
vertex -2.671119 32.822357 -12.433274
vertex -0.396615 37.294552 -14.600401
endloop
endfacet
facet normal -0.794655 -0.187595 -0.577348
outer loop
vertex 0.961603 32.822357 -17.433315
vertex -0.042434 27.564997 -14.343117
vertex -2.671119 32.822357 -12.433274
endloop
endfacet
facet normal -0.889697 -0.330385 -0.315094
outer loop
vertex -0.042434 27.564997 -14.343117
vertex -2.104803 28.350201 -9.343148
vertex -2.671119 32.822357 -12.433274
endloop
endfacet
facet normal -0.802609 0.125627 0.583127
outer loop
vertex -2.671119 32.822357 -6.253022
vertex 0.961603 32.822357 -1.252982
vertex -0.396615 37.294552 -4.085895
endloop
endfacet
facet normal -0.794655 -0.187595 0.577348
outer loop
vertex -2.671119 32.822357 -6.253022
vertex -0.042434 27.564997 -4.343180
vertex 0.961603 32.822357 -1.252982
endloop
endfacet
facet normal -0.574602 -0.330388 0.748783
outer loop
vertex -0.042434 27.564997 -4.343180
vertex 4.075578 28.350159 -0.836656
vertex 0.961603 32.822357 -1.252982
endloop
endfacet
facet normal 0.306569 0.125628 0.943521
outer loop
vertex 6.839458 32.822357 0.656851
vertex 12.717313 32.822357 -1.252982
vertex 9.603338 37.294556 -0.836656
endloop
endfacet
facet normal 0.303531 -0.187598 0.934171
outer loop
vertex 6.839458 32.822357 0.656851
vertex 9.468145 27.564981 -1.253034
vertex 12.717313 32.822357 -1.252982
endloop
endfacet
facet normal 0.534576 -0.330387 0.777865
outer loop
vertex 9.468145 27.564981 -1.253034
vertex 14.075531 28.350163 -4.085895
vertex 12.717313 32.822357 -1.252982
endloop
endfacet
facet normal 0.992077 0.125629 0.000000
outer loop
vertex 16.350035 32.822357 -6.253022
vertex 16.350035 32.822357 -12.433274
vertex 15.783718 37.294514 -9.343148
endloop
endfacet
facet normal 0.982246 -0.187598 0.000000
outer loop
vertex 16.350035 32.822357 -6.253022
vertex 15.345936 27.564999 -9.343148
vertex 16.350035 32.822357 -12.433274
endloop
endfacet
facet normal 0.904989 -0.330384 -0.268031
outer loop
vertex 15.345936 27.564999 -9.343148
vertex 14.075531 28.350163 -14.600401
vertex 16.350035 32.822357 -12.433274
endloop
endfacet
facet normal 0.471299 -0.661698 -0.583123
outer loop
vertex 11.092684 24.315817 -12.433262
vertex 9.468145 27.564981 -17.433262
vertex 14.075531 28.350163 -14.600401
endloop
endfacet
facet normal 0.187594 -0.794657 -0.577346
outer loop
vertex 11.092684 24.315817 -12.433262
vertex 5.214902 24.315815 -14.343101
vertex 9.468145 27.564981 -17.433262
endloop
endfacet
facet normal -0.038530 -0.661700 -0.748778
outer loop
vertex 5.214902 24.315815 -14.343101
vertex 4.075578 28.350159 -17.849640
vertex 9.468145 27.564981 -17.433262
endloop
endfacet
facet normal -0.408947 -0.661699 -0.628425
outer loop
vertex 5.214902 24.315815 -14.343101
vertex -0.042434 27.564997 -14.343117
vertex 4.075578 28.350159 -17.849640
endloop
endfacet
facet normal -0.491119 -0.794657 -0.356822
outer loop
vertex 5.214902 24.315815 -14.343101
vertex 1.582161 24.315842 -9.343148
vertex -0.042434 27.564997 -14.343117
endloop
endfacet
facet normal -0.724042 -0.661696 -0.194736
outer loop
vertex 1.582161 24.315842 -9.343148
vertex -2.104803 28.350201 -9.343148
vertex -0.042434 27.564997 -14.343117
endloop
endfacet
facet normal -0.724042 -0.661695 0.194736
outer loop
vertex 1.582161 24.315842 -9.343148
vertex -0.042434 27.564997 -4.343180
vertex -2.104803 28.350201 -9.343148
endloop
endfacet
facet normal -0.491119 -0.794657 0.356822
outer loop
vertex 1.582161 24.315842 -9.343148
vertex 5.214902 24.315815 -4.343196
vertex -0.042434 27.564997 -4.343180
endloop
endfacet
facet normal -0.408947 -0.661699 0.628424
outer loop
vertex 5.214902 24.315815 -4.343196
vertex 4.075578 28.350159 -0.836656
vertex -0.042434 27.564997 -4.343180
endloop
endfacet
facet normal 0.700224 -0.661699 -0.268031
outer loop
vertex 15.345936 27.564999 -9.343148
vertex 11.092684 24.315817 -12.433262
vertex 14.075531 28.350163 -14.600401
endloop
endfacet
facet normal 0.607060 -0.794656 0.000000
outer loop
vertex 15.345936 27.564999 -9.343148
vertex 11.092684 24.315817 -6.253035
vertex 11.092684 24.315817 -12.433262
endloop
endfacet
facet normal 0.331305 -0.943524 0.000000
outer loop
vertex 11.092684 24.315817 -6.253035
vertex 6.839458 22.822357 -9.343148
vertex 11.092684 24.315817 -12.433262
endloop
endfacet
facet normal -0.038530 -0.661700 0.748778
outer loop
vertex 5.214902 24.315815 -4.343196
vertex 9.468145 27.564981 -1.253034
vertex 4.075578 28.350159 -0.836656
endloop
endfacet
facet normal 0.187594 -0.794658 0.577345
outer loop
vertex 5.214902 24.315815 -4.343196
vertex 11.092684 24.315817 -6.253035
vertex 9.468145 27.564981 -1.253034
endloop
endfacet
facet normal 0.471299 -0.661698 0.583123
outer loop
vertex 11.092684 24.315817 -6.253035
vertex 14.075531 28.350163 -4.085895
vertex 9.468145 27.564981 -1.253034
endloop
endfacet
endsolid Exported from Blender-2.74 (sub 0)
