solid Exported from Blender-2.74 (sub 0)
facet normal 0.102381 -0.943523 0.315091
outer loop
vertex -11.660998 40.403587 -5.445127
vertex -7.407772 41.897049 -2.355013
vertex -13.285554 41.897045 -0.445174
endloop
endfacet
facet normal 0.700223 -0.661699 0.268033
outer loop
vertex -4.424925 45.931393 -0.187873
vertex -7.407772 41.897049 -2.355013
vertex -3.154521 45.146229 -5.445127
endloop
endfacet
facet normal -0.268034 -0.943523 0.194735
outer loop
vertex -11.660998 40.403587 -5.445127
vertex -13.285554 41.897045 -0.445174
vertex -16.918295 41.897072 -5.445127
endloop
endfacet
facet normal -0.268035 -0.943523 -0.194735
outer loop
vertex -11.660998 40.403587 -5.445127
vertex -16.918295 41.897072 -5.445127
vertex -13.285554 41.897045 -10.445079
endloop
endfacet
facet normal 0.102381 -0.943523 -0.315091
outer loop
vertex -11.660998 40.403587 -5.445127
vertex -13.285554 41.897045 -10.445079
vertex -7.407772 41.897049 -8.535240
endloop
endfacet
facet normal 0.904989 -0.330385 0.268031
outer loop
vertex -4.424925 45.931393 -0.187873
vertex -3.154521 45.146229 -5.445127
vertex -2.150421 50.403587 -2.355000
endloop
endfacet
facet normal 0.024747 -0.330386 0.943521
outer loop
vertex -14.424878 45.931389 3.061366
vertex -9.032310 45.146210 2.644988
vertex -11.660998 50.403587 4.554873
endloop
endfacet
facet normal -0.889697 -0.330385 0.315095
outer loop
vertex -20.605259 45.931431 -5.445127
vertex -18.542891 45.146225 -0.445158
vertex -21.171576 50.403587 -2.355000
endloop
endfacet
facet normal -0.574602 -0.330387 -0.748784
outer loop
vertex -14.424878 45.931389 -13.951619
vertex -18.542891 45.146225 -10.445095
vertex -17.538853 50.403587 -13.535293
endloop
endfacet
facet normal 0.534577 -0.330387 -0.777864
outer loop
vertex -4.424925 45.931393 -10.702379
vertex -9.032310 45.146210 -13.535241
vertex -5.783144 50.403587 -13.535293
endloop
endfacet
facet normal 0.802609 -0.125627 0.583127
outer loop
vertex -4.424925 45.931393 -0.187873
vertex -2.150421 50.403587 -2.355000
vertex -5.783144 50.403587 2.645040
endloop
endfacet
facet normal -0.306569 -0.125629 0.943522
outer loop
vertex -14.424878 45.931389 3.061366
vertex -11.660998 50.403587 4.554873
vertex -17.538853 50.403587 2.645040
endloop
endfacet
facet normal -0.992077 -0.125629 0.000000
outer loop
vertex -20.605259 45.931431 -5.445127
vertex -21.171576 50.403587 -2.355000
vertex -21.171576 50.403587 -8.535253
endloop
endfacet
facet normal -0.306569 -0.125629 -0.943521
outer loop
vertex -14.424878 45.931389 -13.951619
vertex -17.538853 50.403587 -13.535293
vertex -11.660998 50.403587 -15.445126
endloop
endfacet
facet normal 0.802609 -0.125627 -0.583127
outer loop
vertex -4.424925 45.931393 -10.702379
vertex -5.783144 50.403587 -13.535293
vertex -2.150421 50.403587 -8.535253
endloop
endfacet
facet normal 0.408947 0.661699 0.628424
outer loop
vertex -8.897119 54.875786 3.061366
vertex -4.779106 55.660950 -0.445158
vertex -10.036443 58.910130 -0.445174
endloop
endfacet
facet normal -0.471299 0.661699 0.583122
outer loop
vertex -18.897072 54.875782 -0.187873
vertex -14.289686 55.660965 2.644988
vertex -15.914225 58.910126 -2.355013
endloop
endfacet
facet normal -0.700224 0.661699 -0.268032
outer loop
vertex -18.897072 54.875782 -10.702379
vertex -20.167477 55.660946 -5.445127
vertex -15.914225 58.910126 -8.535240
endloop
endfacet
facet normal 0.038530 0.661700 -0.748778
outer loop
vertex -8.897119 54.875786 -13.951619
vertex -14.289686 55.660965 -13.535241
vertex -10.036443 58.910130 -10.445079
endloop
endfacet
facet normal 0.724042 0.661696 -0.194736
outer loop
vertex -2.716738 54.875744 -5.445127
vertex -4.779106 55.660950 -10.445095
vertex -6.403701 58.910103 -5.445127
endloop
endfacet
facet normal 0.268035 0.943523 -0.194736
outer loop
vertex -6.403701 58.910103 -5.445127
vertex -10.036443 58.910130 -10.445079
vertex -11.660998 60.403587 -5.445127
endloop
endfacet
facet normal 0.491119 0.794657 -0.356822
outer loop
vertex -6.403701 58.910103 -5.445127
vertex -4.779106 55.660950 -10.445095
vertex -10.036443 58.910130 -10.445079
endloop
endfacet
facet normal 0.408947 0.661699 -0.628424
outer loop
vertex -4.779106 55.660950 -10.445095
vertex -8.897119 54.875786 -13.951619
vertex -10.036443 58.910130 -10.445079
endloop
endfacet
facet normal -0.102381 0.943523 -0.315092
outer loop
vertex -10.036443 58.910130 -10.445079
vertex -15.914225 58.910126 -8.535240
vertex -11.660998 60.403587 -5.445127
endloop
endfacet
facet normal -0.187595 0.794658 -0.577345
outer loop
vertex -10.036443 58.910130 -10.445079
vertex -14.289686 55.660965 -13.535241
vertex -15.914225 58.910126 -8.535240
endloop
endfacet
facet normal -0.471299 0.661699 -0.583122
outer loop
vertex -14.289686 55.660965 -13.535241
vertex -18.897072 54.875782 -10.702379
vertex -15.914225 58.910126 -8.535240
endloop
endfacet
facet normal -0.331305 0.943524 0.000000
outer loop
vertex -15.914225 58.910126 -8.535240
vertex -15.914225 58.910126 -2.355013
vertex -11.660998 60.403587 -5.445127
endloop
endfacet
facet normal -0.607060 0.794656 0.000000
outer loop
vertex -15.914225 58.910126 -8.535240
vertex -20.167477 55.660946 -5.445127
vertex -15.914225 58.910126 -2.355013
endloop
endfacet
facet normal -0.700224 0.661699 0.268032
outer loop
vertex -20.167477 55.660946 -5.445127
vertex -18.897072 54.875782 -0.187873
vertex -15.914225 58.910126 -2.355013
endloop
endfacet
facet normal -0.102381 0.943523 0.315092
outer loop
vertex -15.914225 58.910126 -2.355013
vertex -10.036443 58.910130 -0.445174
vertex -11.660998 60.403587 -5.445127
endloop
endfacet
facet normal -0.187595 0.794658 0.577345
outer loop
vertex -15.914225 58.910126 -2.355013
vertex -14.289686 55.660965 2.644988
vertex -10.036443 58.910130 -0.445174
endloop
endfacet
facet normal 0.038530 0.661699 0.748778
outer loop
vertex -14.289686 55.660965 2.644988
vertex -8.897119 54.875786 3.061366
vertex -10.036443 58.910130 -0.445174
endloop
endfacet
facet normal 0.268034 0.943523 0.194736
outer loop
vertex -10.036443 58.910130 -0.445174
vertex -6.403701 58.910103 -5.445127
vertex -11.660998 60.403587 -5.445127
endloop
endfacet
facet normal 0.491119 0.794657 0.356823
outer loop
vertex -10.036443 58.910130 -0.445174
vertex -4.779106 55.660950 -0.445158
vertex -6.403701 58.910103 -5.445127
endloop
endfacet
facet normal 0.724042 0.661696 0.194736
outer loop
vertex -4.779106 55.660950 -0.445158
vertex -2.716738 54.875744 -5.445127
vertex -6.403701 58.910103 -5.445127
endloop
endfacet
facet normal 0.889697 0.330385 -0.315094
outer loop
vertex -2.150421 50.403587 -8.535253
vertex -4.779106 55.660950 -10.445095
vertex -2.716738 54.875744 -5.445127
endloop
endfacet
facet normal 0.794655 0.187595 -0.577348
outer loop
vertex -2.150421 50.403587 -8.535253
vertex -5.783144 50.403587 -13.535293
vertex -4.779106 55.660950 -10.445095
endloop
endfacet
facet normal 0.574602 0.330388 -0.748783
outer loop
vertex -5.783144 50.403587 -13.535293
vertex -8.897119 54.875786 -13.951619
vertex -4.779106 55.660950 -10.445095
endloop
endfacet
facet normal -0.024747 0.330387 -0.943521
outer loop
vertex -11.660998 50.403587 -15.445126
vertex -14.289686 55.660965 -13.535241
vertex -8.897119 54.875786 -13.951619
endloop
endfacet
facet normal -0.303531 0.187598 -0.934171
outer loop
vertex -11.660998 50.403587 -15.445126
vertex -17.538853 50.403587 -13.535293
vertex -14.289686 55.660965 -13.535241
endloop
endfacet
facet normal -0.534577 0.330386 -0.777864
outer loop
vertex -17.538853 50.403587 -13.535293
vertex -18.897072 54.875782 -10.702379
vertex -14.289686 55.660965 -13.535241
endloop
endfacet
facet normal -0.904989 0.330384 -0.268031
outer loop
vertex -21.171576 50.403587 -8.535253
vertex -20.167477 55.660946 -5.445127
vertex -18.897072 54.875782 -10.702379
endloop
endfacet
facet normal -0.982246 0.187599 0.000000
outer loop
vertex -21.171576 50.403587 -8.535253
vertex -21.171576 50.403587 -2.355000
vertex -20.167477 55.660946 -5.445127
endloop
endfacet
facet normal -0.904989 0.330384 0.268031
outer loop
vertex -21.171576 50.403587 -2.355000
vertex -18.897072 54.875782 -0.187873
vertex -20.167477 55.660946 -5.445127
endloop
endfacet
facet normal -0.534576 0.330387 0.777864
outer loop
vertex -17.538853 50.403587 2.645040
vertex -14.289686 55.660965 2.644988
vertex -18.897072 54.875782 -0.187873
endloop
endfacet
facet normal -0.303531 0.187598 0.934171
outer loop
vertex -17.538853 50.403587 2.645040
vertex -11.660998 50.403587 4.554873
vertex -14.289686 55.660965 2.644988
endloop
endfacet
facet normal -0.024747 0.330387 0.943521
outer loop
vertex -11.660998 50.403587 4.554873
vertex -8.897119 54.875786 3.061366
vertex -14.289686 55.660965 2.644988
endloop
endfacet
facet normal 0.574602 0.330388 0.748783
outer loop
vertex -5.783144 50.403587 2.645040
vertex -4.779106 55.660950 -0.445158
vertex -8.897119 54.875786 3.061366
endloop
endfacet
facet normal 0.794655 0.187595 0.577349
outer loop
vertex -5.783144 50.403587 2.645040
vertex -2.150421 50.403587 -2.355000
vertex -4.779106 55.660950 -0.445158
endloop
endfacet
facet normal 0.889697 0.330385 0.315094
outer loop
vertex -2.150421 50.403587 -2.355000
vertex -2.716738 54.875744 -5.445127
vertex -4.779106 55.660950 -0.445158
endloop
endfacet
facet normal 0.306569 0.125629 -0.943521
outer loop
vertex -5.783144 50.403587 -13.535293
vertex -11.660998 50.403587 -15.445126
vertex -8.897119 54.875786 -13.951619
endloop
endfacet
facet normal 0.303531 -0.187598 -0.934171
outer loop
vertex -5.783144 50.403587 -13.535293
vertex -9.032310 45.146210 -13.535241
vertex -11.660998 50.403587 -15.445126
endloop
endfacet
facet normal 0.024747 -0.330386 -0.943521
outer loop
vertex -9.032310 45.146210 -13.535241
vertex -14.424878 45.931389 -13.951619
vertex -11.660998 50.403587 -15.445126
endloop
endfacet
facet normal -0.802609 0.125626 -0.583127
outer loop
vertex -17.538853 50.403587 -13.535293
vertex -21.171576 50.403587 -8.535253
vertex -18.897072 54.875782 -10.702379
endloop
endfacet
facet normal -0.794656 -0.187595 -0.577348
outer loop
vertex -17.538853 50.403587 -13.535293
vertex -18.542891 45.146225 -10.445095
vertex -21.171576 50.403587 -8.535253
endloop
endfacet
facet normal -0.889697 -0.330385 -0.315095
outer loop
vertex -18.542891 45.146225 -10.445095
vertex -20.605259 45.931431 -5.445127
vertex -21.171576 50.403587 -8.535253
endloop
endfacet
facet normal -0.802609 0.125627 0.583127
outer loop
vertex -21.171576 50.403587 -2.355000
vertex -17.538853 50.403587 2.645040
vertex -18.897072 54.875782 -0.187873
endloop
endfacet
facet normal -0.794656 -0.187595 0.577348
outer loop
vertex -21.171576 50.403587 -2.355000
vertex -18.542891 45.146225 -0.445158
vertex -17.538853 50.403587 2.645040
endloop
endfacet
facet normal -0.574602 -0.330387 0.748784
outer loop
vertex -18.542891 45.146225 -0.445158
vertex -14.424878 45.931389 3.061366
vertex -17.538853 50.403587 2.645040
endloop
endfacet
facet normal 0.306569 0.125629 0.943521
outer loop
vertex -11.660998 50.403587 4.554873
vertex -5.783144 50.403587 2.645040
vertex -8.897119 54.875786 3.061366
endloop
endfacet
facet normal 0.303531 -0.187598 0.934171
outer loop
vertex -11.660998 50.403587 4.554873
vertex -9.032310 45.146210 2.644988
vertex -5.783144 50.403587 2.645040
endloop
endfacet
facet normal 0.534576 -0.330387 0.777864
outer loop
vertex -9.032310 45.146210 2.644988
vertex -4.424925 45.931393 -0.187873
vertex -5.783144 50.403587 2.645040
endloop
endfacet
facet normal 0.992077 0.125628 0.000000
outer loop
vertex -2.150421 50.403587 -2.355000
vertex -2.150421 50.403587 -8.535253
vertex -2.716738 54.875744 -5.445127
endloop
endfacet
facet normal 0.982246 -0.187599 0.000000
outer loop
vertex -2.150421 50.403587 -2.355000
vertex -3.154521 45.146229 -5.445127
vertex -2.150421 50.403587 -8.535253
endloop
endfacet
facet normal 0.904989 -0.330384 -0.268030
outer loop
vertex -3.154521 45.146229 -5.445127
vertex -4.424925 45.931393 -10.702379
vertex -2.150421 50.403587 -8.535253
endloop
endfacet
facet normal 0.471300 -0.661699 -0.583122
outer loop
vertex -7.407772 41.897049 -8.535240
vertex -9.032310 45.146210 -13.535241
vertex -4.424925 45.931393 -10.702379
endloop
endfacet
facet normal 0.187595 -0.794658 -0.577345
outer loop
vertex -7.407772 41.897049 -8.535240
vertex -13.285554 41.897045 -10.445079
vertex -9.032310 45.146210 -13.535241
endloop
endfacet
facet normal -0.038530 -0.661699 -0.748779
outer loop
vertex -13.285554 41.897045 -10.445079
vertex -14.424878 45.931389 -13.951619
vertex -9.032310 45.146210 -13.535241
endloop
endfacet
facet normal -0.408946 -0.661699 -0.628425
outer loop
vertex -13.285554 41.897045 -10.445079
vertex -18.542891 45.146225 -10.445095
vertex -14.424878 45.931389 -13.951619
endloop
endfacet
facet normal -0.491119 -0.794657 -0.356822
outer loop
vertex -13.285554 41.897045 -10.445079
vertex -16.918295 41.897072 -5.445127
vertex -18.542891 45.146225 -10.445095
endloop
endfacet
facet normal -0.724042 -0.661695 -0.194735
outer loop
vertex -16.918295 41.897072 -5.445127
vertex -20.605259 45.931431 -5.445127
vertex -18.542891 45.146225 -10.445095
endloop
endfacet
facet normal -0.724042 -0.661695 0.194735
outer loop
vertex -16.918295 41.897072 -5.445127
vertex -18.542891 45.146225 -0.445158
vertex -20.605259 45.931431 -5.445127
endloop
endfacet
facet normal -0.491119 -0.794657 0.356822
outer loop
vertex -16.918295 41.897072 -5.445127
vertex -13.285554 41.897045 -0.445174
vertex -18.542891 45.146225 -0.445158
endloop
endfacet
facet normal -0.408946 -0.661699 0.628425
outer loop
vertex -13.285554 41.897045 -0.445174
vertex -14.424878 45.931389 3.061366
vertex -18.542891 45.146225 -0.445158
endloop
endfacet
facet normal 0.700223 -0.661699 -0.268033
outer loop
vertex -3.154521 45.146229 -5.445127
vertex -7.407772 41.897049 -8.535240
vertex -4.424925 45.931393 -10.702379
endloop
endfacet
facet normal 0.607060 -0.794656 0.000000
outer loop
vertex -3.154521 45.146229 -5.445127
vertex -7.407772 41.897049 -2.355013
vertex -7.407772 41.897049 -8.535240
endloop
endfacet
facet normal 0.331305 -0.943524 0.000000
outer loop
vertex -7.407772 41.897049 -2.355013
vertex -11.660998 40.403587 -5.445127
vertex -7.407772 41.897049 -8.535240
endloop
endfacet
facet normal -0.038530 -0.661699 0.748779
outer loop
vertex -13.285554 41.897045 -0.445174
vertex -9.032310 45.146210 2.644988
vertex -14.424878 45.931389 3.061366
endloop
endfacet
facet normal 0.187595 -0.794658 0.577345
outer loop
vertex -13.285554 41.897045 -0.445174
vertex -7.407772 41.897049 -2.355013
vertex -9.032310 45.146210 2.644988
endloop
endfacet
facet normal 0.471299 -0.661699 0.583122
outer loop
vertex -7.407772 41.897049 -2.355013
vertex -4.424925 45.931393 -0.187873
vertex -9.032310 45.146210 2.644988
endloop
endfacet
endsolid Exported from Blender-2.74 (sub 0)
