solid Exported from Blender-2.74 (sub 0)
facet normal 0.102381 -0.943524 0.315089
outer loop
vertex -13.566192 19.910202 6.319501
vertex -9.312965 21.403662 9.409615
vertex -15.190747 21.403660 11.319453
endloop
endfacet
facet normal 0.700224 -0.661699 0.268031
outer loop
vertex -6.330119 25.438007 11.576754
vertex -9.312965 21.403662 9.409615
vertex -5.059714 24.652843 6.319501
endloop
endfacet
facet normal -0.268034 -0.943523 0.194736
outer loop
vertex -13.566192 19.910202 6.319501
vertex -15.190747 21.403660 11.319453
vertex -18.823488 21.403687 6.319501
endloop
endfacet
facet normal -0.268034 -0.943523 -0.194736
outer loop
vertex -13.566192 19.910202 6.319501
vertex -18.823488 21.403687 6.319501
vertex -15.190747 21.403660 1.319549
endloop
endfacet
facet normal 0.102381 -0.943524 -0.315089
outer loop
vertex -13.566192 19.910202 6.319501
vertex -15.190747 21.403660 1.319549
vertex -9.312965 21.403662 3.229388
endloop
endfacet
facet normal 0.904989 -0.330385 0.268031
outer loop
vertex -6.330119 25.438007 11.576754
vertex -5.059714 24.652843 6.319501
vertex -4.055614 29.910202 9.409627
endloop
endfacet
facet normal 0.024747 -0.330386 0.943521
outer loop
vertex -16.330072 25.438004 14.825994
vertex -10.937504 24.652826 14.409616
vertex -13.566192 29.910202 16.319500
endloop
endfacet
facet normal -0.889697 -0.330385 0.315095
outer loop
vertex -22.510452 25.438046 6.319501
vertex -20.448084 24.652842 11.319469
vertex -23.076769 29.910202 9.409627
endloop
endfacet
facet normal -0.574602 -0.330387 -0.748783
outer loop
vertex -16.330072 25.438004 -2.186992
vertex -20.448084 24.652842 1.319532
vertex -19.444046 29.910202 -1.770665
endloop
endfacet
facet normal 0.534576 -0.330387 -0.777865
outer loop
vertex -6.330119 25.438007 1.062248
vertex -10.937504 24.652826 -1.770614
vertex -7.688337 29.910202 -1.770665
endloop
endfacet
facet normal 0.802609 -0.125627 0.583127
outer loop
vertex -6.330119 25.438007 11.576754
vertex -4.055614 29.910202 9.409627
vertex -7.688337 29.910202 14.409667
endloop
endfacet
facet normal -0.306569 -0.125629 0.943522
outer loop
vertex -16.330072 25.438004 14.825994
vertex -13.566192 29.910202 16.319500
vertex -19.444046 29.910202 14.409667
endloop
endfacet
facet normal -0.992077 -0.125628 0.000000
outer loop
vertex -22.510452 25.438046 6.319501
vertex -23.076769 29.910202 9.409627
vertex -23.076769 29.910202 3.229375
endloop
endfacet
facet normal -0.306569 -0.125628 -0.943522
outer loop
vertex -16.330072 25.438004 -2.186992
vertex -19.444046 29.910202 -1.770665
vertex -13.566192 29.910202 -3.680498
endloop
endfacet
facet normal 0.802609 -0.125627 -0.583127
outer loop
vertex -6.330119 25.438007 1.062248
vertex -7.688337 29.910202 -1.770665
vertex -4.055614 29.910202 3.229375
endloop
endfacet
facet normal 0.408946 0.661699 0.628424
outer loop
vertex -10.802312 34.382401 14.825994
vertex -6.684299 35.167564 11.319469
vertex -11.941636 38.416744 11.319453
endloop
endfacet
facet normal -0.471299 0.661699 0.583122
outer loop
vertex -20.802265 34.382397 11.576754
vertex -16.194880 35.167580 14.409616
vertex -17.819418 38.416740 9.409615
endloop
endfacet
facet normal -0.700223 0.661699 -0.268032
outer loop
vertex -20.802265 34.382397 1.062248
vertex -22.072670 35.167561 6.319501
vertex -17.819418 38.416740 3.229388
endloop
endfacet
facet normal 0.038530 0.661700 -0.748778
outer loop
vertex -10.802312 34.382401 -2.186992
vertex -16.194880 35.167580 -1.770614
vertex -11.941636 38.416744 1.319549
endloop
endfacet
facet normal 0.724042 0.661696 -0.194735
outer loop
vertex -4.621931 34.382359 6.319501
vertex -6.684299 35.167564 1.319532
vertex -8.308895 38.416718 6.319501
endloop
endfacet
facet normal 0.268034 0.943523 -0.194736
outer loop
vertex -8.308895 38.416718 6.319501
vertex -11.941636 38.416744 1.319549
vertex -13.566192 39.910202 6.319501
endloop
endfacet
facet normal 0.491119 0.794657 -0.356823
outer loop
vertex -8.308895 38.416718 6.319501
vertex -6.684299 35.167564 1.319532
vertex -11.941636 38.416744 1.319549
endloop
endfacet
facet normal 0.408946 0.661699 -0.628424
outer loop
vertex -6.684299 35.167564 1.319532
vertex -10.802312 34.382401 -2.186992
vertex -11.941636 38.416744 1.319549
endloop
endfacet
facet normal -0.102381 0.943523 -0.315091
outer loop
vertex -11.941636 38.416744 1.319549
vertex -17.819418 38.416740 3.229388
vertex -13.566192 39.910202 6.319501
endloop
endfacet
facet normal -0.187594 0.794658 -0.577345
outer loop
vertex -11.941636 38.416744 1.319549
vertex -16.194880 35.167580 -1.770614
vertex -17.819418 38.416740 3.229388
endloop
endfacet
facet normal -0.471299 0.661699 -0.583122
outer loop
vertex -16.194880 35.167580 -1.770614
vertex -20.802265 34.382397 1.062248
vertex -17.819418 38.416740 3.229388
endloop
endfacet
facet normal -0.331305 0.943524 0.000000
outer loop
vertex -17.819418 38.416740 3.229388
vertex -17.819418 38.416740 9.409615
vertex -13.566192 39.910202 6.319501
endloop
endfacet
facet normal -0.607060 0.794656 0.000000
outer loop
vertex -17.819418 38.416740 3.229388
vertex -22.072670 35.167561 6.319501
vertex -17.819418 38.416740 9.409615
endloop
endfacet
facet normal -0.700223 0.661699 0.268032
outer loop
vertex -22.072670 35.167561 6.319501
vertex -20.802265 34.382397 11.576754
vertex -17.819418 38.416740 9.409615
endloop
endfacet
facet normal -0.102381 0.943523 0.315091
outer loop
vertex -17.819418 38.416740 9.409615
vertex -11.941636 38.416744 11.319453
vertex -13.566192 39.910202 6.319501
endloop
endfacet
facet normal -0.187595 0.794658 0.577345
outer loop
vertex -17.819418 38.416740 9.409615
vertex -16.194880 35.167580 14.409616
vertex -11.941636 38.416744 11.319453
endloop
endfacet
facet normal 0.038530 0.661700 0.748778
outer loop
vertex -16.194880 35.167580 14.409616
vertex -10.802312 34.382401 14.825994
vertex -11.941636 38.416744 11.319453
endloop
endfacet
facet normal 0.268034 0.943523 0.194735
outer loop
vertex -11.941636 38.416744 11.319453
vertex -8.308895 38.416718 6.319501
vertex -13.566192 39.910202 6.319501
endloop
endfacet
facet normal 0.491119 0.794657 0.356822
outer loop
vertex -11.941636 38.416744 11.319453
vertex -6.684299 35.167564 11.319469
vertex -8.308895 38.416718 6.319501
endloop
endfacet
facet normal 0.724042 0.661696 0.194736
outer loop
vertex -6.684299 35.167564 11.319469
vertex -4.621931 34.382359 6.319501
vertex -8.308895 38.416718 6.319501
endloop
endfacet
facet normal 0.889697 0.330385 -0.315095
outer loop
vertex -4.055614 29.910202 3.229375
vertex -6.684299 35.167564 1.319532
vertex -4.621931 34.382359 6.319501
endloop
endfacet
facet normal 0.794655 0.187595 -0.577348
outer loop
vertex -4.055614 29.910202 3.229375
vertex -7.688337 29.910202 -1.770665
vertex -6.684299 35.167564 1.319532
endloop
endfacet
facet normal 0.574602 0.330387 -0.748783
outer loop
vertex -7.688337 29.910202 -1.770665
vertex -10.802312 34.382401 -2.186992
vertex -6.684299 35.167564 1.319532
endloop
endfacet
facet normal -0.024747 0.330386 -0.943521
outer loop
vertex -13.566192 29.910202 -3.680498
vertex -16.194880 35.167580 -1.770614
vertex -10.802312 34.382401 -2.186992
endloop
endfacet
facet normal -0.303531 0.187598 -0.934171
outer loop
vertex -13.566192 29.910202 -3.680498
vertex -19.444046 29.910202 -1.770665
vertex -16.194880 35.167580 -1.770614
endloop
endfacet
facet normal -0.534576 0.330386 -0.777865
outer loop
vertex -19.444046 29.910202 -1.770665
vertex -20.802265 34.382397 1.062248
vertex -16.194880 35.167580 -1.770614
endloop
endfacet
facet normal -0.904989 0.330384 -0.268031
outer loop
vertex -23.076769 29.910202 3.229375
vertex -22.072670 35.167561 6.319501
vertex -20.802265 34.382397 1.062248
endloop
endfacet
facet normal -0.982246 0.187599 0.000000
outer loop
vertex -23.076769 29.910202 3.229375
vertex -23.076769 29.910202 9.409627
vertex -22.072670 35.167561 6.319501
endloop
endfacet
facet normal -0.904989 0.330384 0.268031
outer loop
vertex -23.076769 29.910202 9.409627
vertex -20.802265 34.382397 11.576754
vertex -22.072670 35.167561 6.319501
endloop
endfacet
facet normal -0.534576 0.330386 0.777865
outer loop
vertex -19.444046 29.910202 14.409667
vertex -16.194880 35.167580 14.409616
vertex -20.802265 34.382397 11.576754
endloop
endfacet
facet normal -0.303531 0.187598 0.934171
outer loop
vertex -19.444046 29.910202 14.409667
vertex -13.566192 29.910202 16.319500
vertex -16.194880 35.167580 14.409616
endloop
endfacet
facet normal -0.024746 0.330386 0.943521
outer loop
vertex -13.566192 29.910202 16.319500
vertex -10.802312 34.382401 14.825994
vertex -16.194880 35.167580 14.409616
endloop
endfacet
facet normal 0.574602 0.330387 0.748783
outer loop
vertex -7.688337 29.910202 14.409667
vertex -6.684299 35.167564 11.319469
vertex -10.802312 34.382401 14.825994
endloop
endfacet
facet normal 0.794655 0.187595 0.577348
outer loop
vertex -7.688337 29.910202 14.409667
vertex -4.055614 29.910202 9.409627
vertex -6.684299 35.167564 11.319469
endloop
endfacet
facet normal 0.889697 0.330385 0.315095
outer loop
vertex -4.055614 29.910202 9.409627
vertex -4.621931 34.382359 6.319501
vertex -6.684299 35.167564 11.319469
endloop
endfacet
facet normal 0.306569 0.125628 -0.943522
outer loop
vertex -7.688337 29.910202 -1.770665
vertex -13.566192 29.910202 -3.680498
vertex -10.802312 34.382401 -2.186992
endloop
endfacet
facet normal 0.303531 -0.187598 -0.934171
outer loop
vertex -7.688337 29.910202 -1.770665
vertex -10.937504 24.652826 -1.770614
vertex -13.566192 29.910202 -3.680498
endloop
endfacet
facet normal 0.024747 -0.330386 -0.943521
outer loop
vertex -10.937504 24.652826 -1.770614
vertex -16.330072 25.438004 -2.186992
vertex -13.566192 29.910202 -3.680498
endloop
endfacet
facet normal -0.802609 0.125627 -0.583127
outer loop
vertex -19.444046 29.910202 -1.770665
vertex -23.076769 29.910202 3.229375
vertex -20.802265 34.382397 1.062248
endloop
endfacet
facet normal -0.794655 -0.187595 -0.577348
outer loop
vertex -19.444046 29.910202 -1.770665
vertex -20.448084 24.652842 1.319532
vertex -23.076769 29.910202 3.229375
endloop
endfacet
facet normal -0.889697 -0.330385 -0.315094
outer loop
vertex -20.448084 24.652842 1.319532
vertex -22.510452 25.438046 6.319501
vertex -23.076769 29.910202 3.229375
endloop
endfacet
facet normal -0.802609 0.125627 0.583127
outer loop
vertex -23.076769 29.910202 9.409627
vertex -19.444046 29.910202 14.409667
vertex -20.802265 34.382397 11.576754
endloop
endfacet
facet normal -0.794656 -0.187595 0.577348
outer loop
vertex -23.076769 29.910202 9.409627
vertex -20.448084 24.652842 11.319469
vertex -19.444046 29.910202 14.409667
endloop
endfacet
facet normal -0.574602 -0.330387 0.748783
outer loop
vertex -20.448084 24.652842 11.319469
vertex -16.330072 25.438004 14.825994
vertex -19.444046 29.910202 14.409667
endloop
endfacet
facet normal 0.306569 0.125629 0.943522
outer loop
vertex -13.566192 29.910202 16.319500
vertex -7.688337 29.910202 14.409667
vertex -10.802312 34.382401 14.825994
endloop
endfacet
facet normal 0.303531 -0.187598 0.934171
outer loop
vertex -13.566192 29.910202 16.319500
vertex -10.937504 24.652826 14.409616
vertex -7.688337 29.910202 14.409667
endloop
endfacet
facet normal 0.534576 -0.330387 0.777864
outer loop
vertex -10.937504 24.652826 14.409616
vertex -6.330119 25.438007 11.576754
vertex -7.688337 29.910202 14.409667
endloop
endfacet
facet normal 0.992077 0.125628 0.000000
outer loop
vertex -4.055614 29.910202 9.409627
vertex -4.055614 29.910202 3.229375
vertex -4.621931 34.382359 6.319501
endloop
endfacet
facet normal 0.982246 -0.187599 0.000000
outer loop
vertex -4.055614 29.910202 9.409627
vertex -5.059714 24.652843 6.319501
vertex -4.055614 29.910202 3.229375
endloop
endfacet
facet normal 0.904989 -0.330385 -0.268031
outer loop
vertex -5.059714 24.652843 6.319501
vertex -6.330119 25.438007 1.062248
vertex -4.055614 29.910202 3.229375
endloop
endfacet
facet normal 0.471299 -0.661699 -0.583122
outer loop
vertex -9.312965 21.403662 3.229388
vertex -10.937504 24.652826 -1.770614
vertex -6.330119 25.438007 1.062248
endloop
endfacet
facet normal 0.187594 -0.794658 -0.577345
outer loop
vertex -9.312965 21.403662 3.229388
vertex -15.190747 21.403660 1.319549
vertex -10.937504 24.652826 -1.770614
endloop
endfacet
facet normal -0.038530 -0.661700 -0.748778
outer loop
vertex -15.190747 21.403660 1.319549
vertex -16.330072 25.438004 -2.186992
vertex -10.937504 24.652826 -1.770614
endloop
endfacet
facet normal -0.408947 -0.661699 -0.628425
outer loop
vertex -15.190747 21.403660 1.319549
vertex -20.448084 24.652842 1.319532
vertex -16.330072 25.438004 -2.186992
endloop
endfacet
facet normal -0.491120 -0.794657 -0.356821
outer loop
vertex -15.190747 21.403660 1.319549
vertex -18.823488 21.403687 6.319501
vertex -20.448084 24.652842 1.319532
endloop
endfacet
facet normal -0.724042 -0.661695 -0.194736
outer loop
vertex -18.823488 21.403687 6.319501
vertex -22.510452 25.438046 6.319501
vertex -20.448084 24.652842 1.319532
endloop
endfacet
facet normal -0.724042 -0.661695 0.194736
outer loop
vertex -18.823488 21.403687 6.319501
vertex -20.448084 24.652842 11.319469
vertex -22.510452 25.438046 6.319501
endloop
endfacet
facet normal -0.491120 -0.794657 0.356821
outer loop
vertex -18.823488 21.403687 6.319501
vertex -15.190747 21.403660 11.319453
vertex -20.448084 24.652842 11.319469
endloop
endfacet
facet normal -0.408947 -0.661699 0.628425
outer loop
vertex -15.190747 21.403660 11.319453
vertex -16.330072 25.438004 14.825994
vertex -20.448084 24.652842 11.319469
endloop
endfacet
facet normal 0.700224 -0.661699 -0.268031
outer loop
vertex -5.059714 24.652843 6.319501
vertex -9.312965 21.403662 3.229388
vertex -6.330119 25.438007 1.062248
endloop
endfacet
facet normal 0.607060 -0.794656 0.000000
outer loop
vertex -5.059714 24.652843 6.319501
vertex -9.312965 21.403662 9.409615
vertex -9.312965 21.403662 3.229388
endloop
endfacet
facet normal 0.331305 -0.943524 0.000000
outer loop
vertex -9.312965 21.403662 9.409615
vertex -13.566192 19.910202 6.319501
vertex -9.312965 21.403662 3.229388
endloop
endfacet
facet normal -0.038530 -0.661700 0.748778
outer loop
vertex -15.190747 21.403660 11.319453
vertex -10.937504 24.652826 14.409616
vertex -16.330072 25.438004 14.825994
endloop
endfacet
facet normal 0.187595 -0.794657 0.577346
outer loop
vertex -15.190747 21.403660 11.319453
vertex -9.312965 21.403662 9.409615
vertex -10.937504 24.652826 14.409616
endloop
endfacet
facet normal 0.471299 -0.661699 0.583122
outer loop
vertex -9.312965 21.403662 9.409615
vertex -6.330119 25.438007 11.576754
vertex -10.937504 24.652826 14.409616
endloop
endfacet
endsolid Exported from Blender-2.74 (sub 0)
