solid Exported from Blender-2.74 (sub 0)
facet normal 0.102381 -0.943523 0.315090
outer loop
vertex 6.713648 35.207100 15.636800
vertex 10.966875 36.700562 18.726913
vertex 5.089093 36.700558 20.636753
endloop
endfacet
facet normal 0.700223 -0.661699 0.268032
outer loop
vertex 13.949721 40.734905 20.894053
vertex 10.966875 36.700562 18.726913
vertex 15.220125 39.949741 15.636800
endloop
endfacet
facet normal -0.268035 -0.943523 0.194735
outer loop
vertex 6.713648 35.207100 15.636800
vertex 5.089093 36.700558 20.636753
vertex 1.456351 36.700584 15.636800
endloop
endfacet
facet normal -0.268035 -0.943523 -0.194735
outer loop
vertex 6.713648 35.207100 15.636800
vertex 1.456351 36.700584 15.636800
vertex 5.089093 36.700558 10.636847
endloop
endfacet
facet normal 0.102381 -0.943523 -0.315090
outer loop
vertex 6.713648 35.207100 15.636800
vertex 5.089093 36.700558 10.636847
vertex 10.966875 36.700562 12.546686
endloop
endfacet
facet normal 0.904989 -0.330384 0.268030
outer loop
vertex 13.949721 40.734905 20.894053
vertex 15.220125 39.949741 15.636800
vertex 16.224226 45.207100 18.726927
endloop
endfacet
facet normal 0.024747 -0.330387 0.943521
outer loop
vertex 3.949768 40.734901 24.143291
vertex 9.342337 39.949722 23.726913
vertex 6.713648 45.207100 25.636799
endloop
endfacet
facet normal -0.889697 -0.330385 0.315094
outer loop
vertex -2.230612 40.734943 15.636800
vertex -0.168244 39.949738 20.636768
vertex -2.796929 45.207100 18.726927
endloop
endfacet
facet normal -0.574602 -0.330388 -0.748783
outer loop
vertex 3.949768 40.734901 7.130307
vertex -0.168244 39.949738 10.636831
vertex 0.835793 45.207100 7.546634
endloop
endfacet
facet normal 0.534576 -0.330387 -0.777865
outer loop
vertex 13.949721 40.734905 10.379547
vertex 9.342336 39.949722 7.546685
vertex 12.591503 45.207100 7.546634
endloop
endfacet
facet normal 0.802608 -0.125628 0.583127
outer loop
vertex 13.949721 40.734905 20.894053
vertex 16.224226 45.207100 18.726927
vertex 12.591503 45.207100 23.726967
endloop
endfacet
facet normal -0.306569 -0.125629 0.943521
outer loop
vertex 3.949768 40.734901 24.143291
vertex 6.713648 45.207100 25.636799
vertex 0.835793 45.207100 23.726967
endloop
endfacet
facet normal -0.992077 -0.125628 0.000000
outer loop
vertex -2.230612 40.734943 15.636800
vertex -2.796929 45.207100 18.726927
vertex -2.796929 45.207100 12.546674
endloop
endfacet
facet normal -0.306569 -0.125628 -0.943522
outer loop
vertex 3.949768 40.734901 7.130307
vertex 0.835793 45.207100 7.546634
vertex 6.713648 45.207100 5.636801
endloop
endfacet
facet normal 0.802608 -0.125627 -0.583127
outer loop
vertex 13.949721 40.734905 10.379547
vertex 12.591503 45.207100 7.546634
vertex 16.224226 45.207100 12.546674
endloop
endfacet
facet normal 0.408946 0.661698 0.628425
outer loop
vertex 9.477529 49.679298 24.143291
vertex 13.595541 50.464462 20.636768
vertex 8.338203 53.713642 20.636753
endloop
endfacet
facet normal -0.471300 0.661699 0.583122
outer loop
vertex -0.522425 49.679295 20.894053
vertex 4.084961 50.464478 23.726913
vertex 2.460422 53.713638 18.726913
endloop
endfacet
facet normal -0.700224 0.661699 -0.268032
outer loop
vertex -0.522425 49.679295 10.379547
vertex -1.792829 50.464458 15.636800
vertex 2.460422 53.713638 12.546686
endloop
endfacet
facet normal 0.038530 0.661698 -0.748779
outer loop
vertex 9.477529 49.679298 7.130307
vertex 4.084960 50.464478 7.546685
vertex 8.338203 53.713642 10.636847
endloop
endfacet
facet normal 0.724042 0.661696 -0.194735
outer loop
vertex 15.657909 49.679256 15.636800
vertex 13.595541 50.464462 10.636831
vertex 11.970945 53.713615 15.636800
endloop
endfacet
facet normal 0.268034 0.943523 -0.194735
outer loop
vertex 11.970945 53.713615 15.636800
vertex 8.338203 53.713642 10.636847
vertex 6.713648 55.207100 15.636800
endloop
endfacet
facet normal 0.491119 0.794657 -0.356822
outer loop
vertex 11.970945 53.713615 15.636800
vertex 13.595541 50.464462 10.636831
vertex 8.338203 53.713642 10.636847
endloop
endfacet
facet normal 0.408946 0.661699 -0.628425
outer loop
vertex 13.595541 50.464462 10.636831
vertex 9.477529 49.679298 7.130307
vertex 8.338203 53.713642 10.636847
endloop
endfacet
facet normal -0.102381 0.943523 -0.315092
outer loop
vertex 8.338203 53.713642 10.636847
vertex 2.460422 53.713638 12.546686
vertex 6.713648 55.207100 15.636800
endloop
endfacet
facet normal -0.187595 0.794658 -0.577344
outer loop
vertex 8.338203 53.713642 10.636847
vertex 4.084960 50.464478 7.546685
vertex 2.460422 53.713638 12.546686
endloop
endfacet
facet normal -0.471299 0.661699 -0.583123
outer loop
vertex 4.084960 50.464478 7.546685
vertex -0.522425 49.679295 10.379547
vertex 2.460422 53.713638 12.546686
endloop
endfacet
facet normal -0.331305 0.943524 0.000000
outer loop
vertex 2.460422 53.713638 12.546686
vertex 2.460422 53.713638 18.726913
vertex 6.713648 55.207100 15.636800
endloop
endfacet
facet normal -0.607060 0.794656 0.000000
outer loop
vertex 2.460422 53.713638 12.546686
vertex -1.792829 50.464458 15.636800
vertex 2.460422 53.713638 18.726913
endloop
endfacet
facet normal -0.700224 0.661699 0.268032
outer loop
vertex -1.792829 50.464458 15.636800
vertex -0.522425 49.679295 20.894053
vertex 2.460422 53.713638 18.726913
endloop
endfacet
facet normal -0.102381 0.943523 0.315092
outer loop
vertex 2.460422 53.713638 18.726913
vertex 8.338203 53.713642 20.636753
vertex 6.713648 55.207100 15.636800
endloop
endfacet
facet normal -0.187594 0.794658 0.577345
outer loop
vertex 2.460422 53.713638 18.726913
vertex 4.084961 50.464478 23.726913
vertex 8.338203 53.713642 20.636753
endloop
endfacet
facet normal 0.038530 0.661700 0.748778
outer loop
vertex 4.084961 50.464478 23.726913
vertex 9.477529 49.679298 24.143291
vertex 8.338203 53.713642 20.636753
endloop
endfacet
facet normal 0.268034 0.943523 0.194736
outer loop
vertex 8.338203 53.713642 20.636753
vertex 11.970945 53.713615 15.636800
vertex 6.713648 55.207100 15.636800
endloop
endfacet
facet normal 0.491119 0.794657 0.356822
outer loop
vertex 8.338203 53.713642 20.636753
vertex 13.595541 50.464462 20.636768
vertex 11.970945 53.713615 15.636800
endloop
endfacet
facet normal 0.724042 0.661696 0.194735
outer loop
vertex 13.595541 50.464462 20.636768
vertex 15.657909 49.679256 15.636800
vertex 11.970945 53.713615 15.636800
endloop
endfacet
facet normal 0.889697 0.330385 -0.315095
outer loop
vertex 16.224226 45.207100 12.546674
vertex 13.595541 50.464462 10.636831
vertex 15.657909 49.679256 15.636800
endloop
endfacet
facet normal 0.794656 0.187595 -0.577348
outer loop
vertex 16.224226 45.207100 12.546674
vertex 12.591503 45.207100 7.546634
vertex 13.595541 50.464462 10.636831
endloop
endfacet
facet normal 0.574602 0.330387 -0.748783
outer loop
vertex 12.591503 45.207100 7.546634
vertex 9.477529 49.679298 7.130307
vertex 13.595541 50.464462 10.636831
endloop
endfacet
facet normal -0.024747 0.330387 -0.943521
outer loop
vertex 6.713648 45.207100 5.636801
vertex 4.084960 50.464478 7.546685
vertex 9.477529 49.679298 7.130307
endloop
endfacet
facet normal -0.303531 0.187597 -0.934171
outer loop
vertex 6.713648 45.207100 5.636801
vertex 0.835793 45.207100 7.546634
vertex 4.084960 50.464478 7.546685
endloop
endfacet
facet normal -0.534576 0.330387 -0.777864
outer loop
vertex 0.835793 45.207100 7.546634
vertex -0.522425 49.679295 10.379547
vertex 4.084960 50.464478 7.546685
endloop
endfacet
facet normal -0.904989 0.330384 -0.268031
outer loop
vertex -2.796929 45.207100 12.546674
vertex -1.792829 50.464458 15.636800
vertex -0.522425 49.679295 10.379547
endloop
endfacet
facet normal -0.982246 0.187599 0.000000
outer loop
vertex -2.796929 45.207100 12.546674
vertex -2.796929 45.207100 18.726927
vertex -1.792829 50.464458 15.636800
endloop
endfacet
facet normal -0.904989 0.330385 0.268031
outer loop
vertex -2.796929 45.207100 18.726927
vertex -0.522425 49.679295 20.894053
vertex -1.792829 50.464458 15.636800
endloop
endfacet
facet normal -0.534576 0.330387 0.777864
outer loop
vertex 0.835793 45.207100 23.726967
vertex 4.084961 50.464478 23.726913
vertex -0.522425 49.679295 20.894053
endloop
endfacet
facet normal -0.303531 0.187598 0.934171
outer loop
vertex 0.835793 45.207100 23.726967
vertex 6.713648 45.207100 25.636799
vertex 4.084961 50.464478 23.726913
endloop
endfacet
facet normal -0.024747 0.330386 0.943521
outer loop
vertex 6.713648 45.207100 25.636799
vertex 9.477529 49.679298 24.143291
vertex 4.084961 50.464478 23.726913
endloop
endfacet
facet normal 0.574602 0.330388 0.748783
outer loop
vertex 12.591503 45.207100 23.726967
vertex 13.595541 50.464462 20.636768
vertex 9.477529 49.679298 24.143291
endloop
endfacet
facet normal 0.794656 0.187595 0.577348
outer loop
vertex 12.591503 45.207100 23.726967
vertex 16.224226 45.207100 18.726927
vertex 13.595541 50.464462 20.636768
endloop
endfacet
facet normal 0.889697 0.330385 0.315095
outer loop
vertex 16.224226 45.207100 18.726927
vertex 15.657909 49.679256 15.636800
vertex 13.595541 50.464462 20.636768
endloop
endfacet
facet normal 0.306569 0.125628 -0.943522
outer loop
vertex 12.591503 45.207100 7.546634
vertex 6.713648 45.207100 5.636801
vertex 9.477529 49.679298 7.130307
endloop
endfacet
facet normal 0.303531 -0.187598 -0.934171
outer loop
vertex 12.591503 45.207100 7.546634
vertex 9.342336 39.949722 7.546685
vertex 6.713648 45.207100 5.636801
endloop
endfacet
facet normal 0.024747 -0.330386 -0.943521
outer loop
vertex 9.342336 39.949722 7.546685
vertex 3.949768 40.734901 7.130307
vertex 6.713648 45.207100 5.636801
endloop
endfacet
facet normal -0.802609 0.125627 -0.583127
outer loop
vertex 0.835793 45.207100 7.546634
vertex -2.796929 45.207100 12.546674
vertex -0.522425 49.679295 10.379547
endloop
endfacet
facet normal -0.794656 -0.187595 -0.577348
outer loop
vertex 0.835793 45.207100 7.546634
vertex -0.168244 39.949738 10.636831
vertex -2.796929 45.207100 12.546674
endloop
endfacet
facet normal -0.889697 -0.330385 -0.315094
outer loop
vertex -0.168244 39.949738 10.636831
vertex -2.230612 40.734943 15.636800
vertex -2.796929 45.207100 12.546674
endloop
endfacet
facet normal -0.802609 0.125627 0.583127
outer loop
vertex -2.796929 45.207100 18.726927
vertex 0.835793 45.207100 23.726967
vertex -0.522425 49.679295 20.894053
endloop
endfacet
facet normal -0.794656 -0.187595 0.577348
outer loop
vertex -2.796929 45.207100 18.726927
vertex -0.168244 39.949738 20.636768
vertex 0.835793 45.207100 23.726967
endloop
endfacet
facet normal -0.574602 -0.330388 0.748783
outer loop
vertex -0.168244 39.949738 20.636768
vertex 3.949768 40.734901 24.143291
vertex 0.835793 45.207100 23.726967
endloop
endfacet
facet normal 0.306569 0.125629 0.943522
outer loop
vertex 6.713648 45.207100 25.636799
vertex 12.591503 45.207100 23.726967
vertex 9.477529 49.679298 24.143291
endloop
endfacet
facet normal 0.303531 -0.187598 0.934171
outer loop
vertex 6.713648 45.207100 25.636799
vertex 9.342337 39.949722 23.726913
vertex 12.591503 45.207100 23.726967
endloop
endfacet
facet normal 0.534577 -0.330387 0.777864
outer loop
vertex 9.342337 39.949722 23.726913
vertex 13.949721 40.734905 20.894053
vertex 12.591503 45.207100 23.726967
endloop
endfacet
facet normal 0.992077 0.125629 0.000000
outer loop
vertex 16.224226 45.207100 18.726927
vertex 16.224226 45.207100 12.546674
vertex 15.657909 49.679256 15.636800
endloop
endfacet
facet normal 0.982246 -0.187599 0.000000
outer loop
vertex 16.224226 45.207100 18.726927
vertex 15.220125 39.949741 15.636800
vertex 16.224226 45.207100 12.546674
endloop
endfacet
facet normal 0.904989 -0.330384 -0.268030
outer loop
vertex 15.220125 39.949741 15.636800
vertex 13.949721 40.734905 10.379547
vertex 16.224226 45.207100 12.546674
endloop
endfacet
facet normal 0.471300 -0.661699 -0.583122
outer loop
vertex 10.966875 36.700562 12.546686
vertex 9.342336 39.949722 7.546685
vertex 13.949721 40.734905 10.379547
endloop
endfacet
facet normal 0.187595 -0.794658 -0.577344
outer loop
vertex 10.966875 36.700562 12.546686
vertex 5.089093 36.700558 10.636847
vertex 9.342336 39.949722 7.546685
endloop
endfacet
facet normal -0.038530 -0.661699 -0.748779
outer loop
vertex 5.089093 36.700558 10.636847
vertex 3.949768 40.734901 7.130307
vertex 9.342336 39.949722 7.546685
endloop
endfacet
facet normal -0.408946 -0.661699 -0.628425
outer loop
vertex 5.089093 36.700558 10.636847
vertex -0.168244 39.949738 10.636831
vertex 3.949768 40.734901 7.130307
endloop
endfacet
facet normal -0.491120 -0.794657 -0.356821
outer loop
vertex 5.089093 36.700558 10.636847
vertex 1.456351 36.700584 15.636800
vertex -0.168244 39.949738 10.636831
endloop
endfacet
facet normal -0.724042 -0.661696 -0.194736
outer loop
vertex 1.456351 36.700584 15.636800
vertex -2.230612 40.734943 15.636800
vertex -0.168244 39.949738 10.636831
endloop
endfacet
facet normal -0.724042 -0.661696 0.194736
outer loop
vertex 1.456351 36.700584 15.636800
vertex -0.168244 39.949738 20.636768
vertex -2.230612 40.734943 15.636800
endloop
endfacet
facet normal -0.491119 -0.794657 0.356822
outer loop
vertex 1.456351 36.700584 15.636800
vertex 5.089093 36.700558 20.636753
vertex -0.168244 39.949738 20.636768
endloop
endfacet
facet normal -0.408947 -0.661699 0.628425
outer loop
vertex 5.089093 36.700558 20.636753
vertex 3.949768 40.734901 24.143291
vertex -0.168244 39.949738 20.636768
endloop
endfacet
facet normal 0.700224 -0.661699 -0.268032
outer loop
vertex 15.220125 39.949741 15.636800
vertex 10.966875 36.700562 12.546686
vertex 13.949721 40.734905 10.379547
endloop
endfacet
facet normal 0.607060 -0.794656 0.000000
outer loop
vertex 15.220125 39.949741 15.636800
vertex 10.966875 36.700562 18.726913
vertex 10.966875 36.700562 12.546686
endloop
endfacet
facet normal 0.331305 -0.943524 0.000000
outer loop
vertex 10.966875 36.700562 18.726913
vertex 6.713648 35.207100 15.636800
vertex 10.966875 36.700562 12.546686
endloop
endfacet
facet normal -0.038530 -0.661698 0.748780
outer loop
vertex 5.089093 36.700558 20.636753
vertex 9.342337 39.949722 23.726913
vertex 3.949768 40.734901 24.143291
endloop
endfacet
facet normal 0.187594 -0.794658 0.577345
outer loop
vertex 5.089093 36.700558 20.636753
vertex 10.966875 36.700562 18.726913
vertex 9.342337 39.949722 23.726913
endloop
endfacet
facet normal 0.471300 -0.661699 0.583122
outer loop
vertex 10.966875 36.700562 18.726913
vertex 13.949721 40.734905 20.894053
vertex 9.342337 39.949722 23.726913
endloop
endfacet
endsolid Exported from Blender-2.74 (sub 0)
