solid Exported from Blender-2.74 (sub 0)
facet normal 0.102381 -0.943522 0.315093
outer loop
vertex -1.597872 47.692802 -1.274039
vertex 2.655354 49.186264 1.816075
vertex -3.222427 49.186260 3.725914
endloop
endfacet
facet normal 0.700223 -0.661699 0.268033
outer loop
vertex 5.638201 53.220608 3.983215
vertex 2.655354 49.186264 1.816075
vertex 6.908606 52.435444 -1.274039
endloop
endfacet
facet normal -0.268034 -0.943523 0.194734
outer loop
vertex -1.597872 47.692802 -1.274039
vertex -3.222427 49.186260 3.725914
vertex -6.855169 49.186287 -1.274039
endloop
endfacet
facet normal -0.268034 -0.943523 -0.194734
outer loop
vertex -1.597872 47.692802 -1.274039
vertex -6.855169 49.186287 -1.274039
vertex -3.222427 49.186260 -6.273991
endloop
endfacet
facet normal 0.102381 -0.943522 -0.315093
outer loop
vertex -1.597872 47.692802 -1.274039
vertex -3.222427 49.186260 -6.273991
vertex 2.655354 49.186264 -4.364152
endloop
endfacet
facet normal 0.904989 -0.330384 0.268031
outer loop
vertex 5.638201 53.220608 3.983215
vertex 6.908606 52.435444 -1.274039
vertex 7.912705 57.692802 1.816088
endloop
endfacet
facet normal 0.024747 -0.330386 0.943522
outer loop
vertex -4.361752 53.220604 7.232454
vertex 1.030816 52.435425 6.816076
vertex -1.597872 57.692802 8.725961
endloop
endfacet
facet normal -0.889697 -0.330385 0.315095
outer loop
vertex -10.542132 53.220646 -1.274039
vertex -8.479764 52.435440 3.725930
vertex -11.108449 57.692802 1.816088
endloop
endfacet
facet normal -0.574602 -0.330387 -0.748783
outer loop
vertex -4.361752 53.220604 -9.780531
vertex -8.479764 52.435440 -6.274007
vertex -7.475727 57.692802 -9.364204
endloop
endfacet
facet normal 0.534576 -0.330386 -0.777865
outer loop
vertex 5.638201 53.220608 -6.531292
vertex 1.030816 52.435425 -9.364153
vertex 4.279983 57.692802 -9.364204
endloop
endfacet
facet normal 0.802609 -0.125627 0.583127
outer loop
vertex 5.638201 53.220608 3.983215
vertex 7.912705 57.692802 1.816088
vertex 4.279983 57.692802 6.816128
endloop
endfacet
facet normal -0.306569 -0.125628 0.943522
outer loop
vertex -4.361752 53.220604 7.232454
vertex -1.597872 57.692802 8.725961
vertex -7.475727 57.692802 6.816128
endloop
endfacet
facet normal -0.992077 -0.125629 0.000000
outer loop
vertex -10.542132 53.220646 -1.274039
vertex -11.108449 57.692802 1.816088
vertex -11.108449 57.692802 -4.364165
endloop
endfacet
facet normal -0.306569 -0.125628 -0.943522
outer loop
vertex -4.361752 53.220604 -9.780531
vertex -7.475727 57.692802 -9.364204
vertex -1.597872 57.692802 -11.274037
endloop
endfacet
facet normal 0.802609 -0.125627 -0.583127
outer loop
vertex 5.638201 53.220608 -6.531292
vertex 4.279983 57.692802 -9.364204
vertex 7.912705 57.692802 -4.364165
endloop
endfacet
facet normal 0.408947 0.661699 0.628424
outer loop
vertex 1.166008 62.165001 7.232454
vertex 5.284020 62.950165 3.725930
vertex 0.026683 66.199348 3.725914
endloop
endfacet
facet normal -0.471299 0.661699 0.583122
outer loop
vertex -8.833945 62.164997 3.983215
vertex -4.226560 62.950180 6.816076
vertex -5.851098 66.199341 1.816075
endloop
endfacet
facet normal -0.700224 0.661699 -0.268032
outer loop
vertex -8.833945 62.164997 -6.531292
vertex -10.104349 62.950161 -1.274039
vertex -5.851098 66.199341 -4.364152
endloop
endfacet
facet normal 0.038530 0.661698 -0.748780
outer loop
vertex 1.166008 62.165001 -9.780531
vertex -4.226560 62.950180 -9.364153
vertex 0.026683 66.199348 -6.273991
endloop
endfacet
facet normal 0.724042 0.661696 -0.194736
outer loop
vertex 7.346389 62.164959 -1.274039
vertex 5.284020 62.950165 -6.274007
vertex 3.659425 66.199318 -1.274039
endloop
endfacet
facet normal 0.268034 0.943523 -0.194736
outer loop
vertex 3.659425 66.199318 -1.274039
vertex 0.026683 66.199348 -6.273991
vertex -1.597872 67.692802 -1.274039
endloop
endfacet
facet normal 0.491120 0.794657 -0.356821
outer loop
vertex 3.659425 66.199318 -1.274039
vertex 5.284020 62.950165 -6.274007
vertex 0.026683 66.199348 -6.273991
endloop
endfacet
facet normal 0.408947 0.661699 -0.628424
outer loop
vertex 5.284020 62.950165 -6.274007
vertex 1.166008 62.165001 -9.780531
vertex 0.026683 66.199348 -6.273991
endloop
endfacet
facet normal -0.102382 0.943522 -0.315093
outer loop
vertex 0.026683 66.199348 -6.273991
vertex -5.851098 66.199341 -4.364152
vertex -1.597872 67.692802 -1.274039
endloop
endfacet
facet normal -0.187595 0.794659 -0.577343
outer loop
vertex 0.026683 66.199348 -6.273991
vertex -4.226560 62.950180 -9.364153
vertex -5.851098 66.199341 -4.364152
endloop
endfacet
facet normal -0.471299 0.661699 -0.583122
outer loop
vertex -4.226560 62.950180 -9.364153
vertex -8.833945 62.164997 -6.531292
vertex -5.851098 66.199341 -4.364152
endloop
endfacet
facet normal -0.331305 0.943524 0.000000
outer loop
vertex -5.851098 66.199341 -4.364152
vertex -5.851098 66.199341 1.816075
vertex -1.597872 67.692802 -1.274039
endloop
endfacet
facet normal -0.607060 0.794656 0.000000
outer loop
vertex -5.851098 66.199341 -4.364152
vertex -10.104349 62.950161 -1.274039
vertex -5.851098 66.199341 1.816075
endloop
endfacet
facet normal -0.700224 0.661699 0.268033
outer loop
vertex -10.104349 62.950161 -1.274039
vertex -8.833945 62.164997 3.983215
vertex -5.851098 66.199341 1.816075
endloop
endfacet
facet normal -0.102382 0.943522 0.315094
outer loop
vertex -5.851098 66.199341 1.816075
vertex 0.026683 66.199348 3.725914
vertex -1.597872 67.692802 -1.274039
endloop
endfacet
facet normal -0.187595 0.794659 0.577343
outer loop
vertex -5.851098 66.199341 1.816075
vertex -4.226560 62.950180 6.816076
vertex 0.026683 66.199348 3.725914
endloop
endfacet
facet normal 0.038530 0.661698 0.748780
outer loop
vertex -4.226560 62.950180 6.816076
vertex 1.166008 62.165001 7.232454
vertex 0.026683 66.199348 3.725914
endloop
endfacet
facet normal 0.268034 0.943523 0.194736
outer loop
vertex 0.026683 66.199348 3.725914
vertex 3.659425 66.199318 -1.274039
vertex -1.597872 67.692802 -1.274039
endloop
endfacet
facet normal 0.491120 0.794657 0.356821
outer loop
vertex 0.026683 66.199348 3.725914
vertex 5.284020 62.950165 3.725930
vertex 3.659425 66.199318 -1.274039
endloop
endfacet
facet normal 0.724042 0.661696 0.194736
outer loop
vertex 5.284020 62.950165 3.725930
vertex 7.346389 62.164959 -1.274039
vertex 3.659425 66.199318 -1.274039
endloop
endfacet
facet normal 0.889697 0.330385 -0.315095
outer loop
vertex 7.912705 57.692802 -4.364165
vertex 5.284020 62.950165 -6.274007
vertex 7.346389 62.164959 -1.274039
endloop
endfacet
facet normal 0.794655 0.187595 -0.577348
outer loop
vertex 7.912705 57.692802 -4.364165
vertex 4.279983 57.692802 -9.364204
vertex 5.284020 62.950165 -6.274007
endloop
endfacet
facet normal 0.574602 0.330387 -0.748784
outer loop
vertex 4.279983 57.692802 -9.364204
vertex 1.166008 62.165001 -9.780531
vertex 5.284020 62.950165 -6.274007
endloop
endfacet
facet normal -0.024747 0.330386 -0.943521
outer loop
vertex -1.597872 57.692802 -11.274037
vertex -4.226560 62.950180 -9.364153
vertex 1.166008 62.165001 -9.780531
endloop
endfacet
facet normal -0.303531 0.187598 -0.934171
outer loop
vertex -1.597872 57.692802 -11.274037
vertex -7.475727 57.692802 -9.364204
vertex -4.226560 62.950180 -9.364153
endloop
endfacet
facet normal -0.534576 0.330386 -0.777865
outer loop
vertex -7.475727 57.692802 -9.364204
vertex -8.833945 62.164997 -6.531292
vertex -4.226560 62.950180 -9.364153
endloop
endfacet
facet normal -0.904989 0.330384 -0.268031
outer loop
vertex -11.108449 57.692802 -4.364165
vertex -10.104349 62.950161 -1.274039
vertex -8.833945 62.164997 -6.531292
endloop
endfacet
facet normal -0.982246 0.187599 0.000000
outer loop
vertex -11.108449 57.692802 -4.364165
vertex -11.108449 57.692802 1.816088
vertex -10.104349 62.950161 -1.274039
endloop
endfacet
facet normal -0.904989 0.330385 0.268031
outer loop
vertex -11.108449 57.692802 1.816088
vertex -8.833945 62.164997 3.983215
vertex -10.104349 62.950161 -1.274039
endloop
endfacet
facet normal -0.534576 0.330387 0.777865
outer loop
vertex -7.475727 57.692802 6.816128
vertex -4.226560 62.950180 6.816076
vertex -8.833945 62.164997 3.983215
endloop
endfacet
facet normal -0.303531 0.187598 0.934171
outer loop
vertex -7.475727 57.692802 6.816128
vertex -1.597872 57.692802 8.725961
vertex -4.226560 62.950180 6.816076
endloop
endfacet
facet normal -0.024747 0.330386 0.943521
outer loop
vertex -1.597872 57.692802 8.725961
vertex 1.166008 62.165001 7.232454
vertex -4.226560 62.950180 6.816076
endloop
endfacet
facet normal 0.574602 0.330387 0.748784
outer loop
vertex 4.279983 57.692802 6.816128
vertex 5.284020 62.950165 3.725930
vertex 1.166008 62.165001 7.232454
endloop
endfacet
facet normal 0.794656 0.187595 0.577348
outer loop
vertex 4.279983 57.692802 6.816128
vertex 7.912705 57.692802 1.816088
vertex 5.284020 62.950165 3.725930
endloop
endfacet
facet normal 0.889697 0.330385 0.315095
outer loop
vertex 7.912705 57.692802 1.816088
vertex 7.346389 62.164959 -1.274039
vertex 5.284020 62.950165 3.725930
endloop
endfacet
facet normal 0.306569 0.125628 -0.943522
outer loop
vertex 4.279983 57.692802 -9.364204
vertex -1.597872 57.692802 -11.274037
vertex 1.166008 62.165001 -9.780531
endloop
endfacet
facet normal 0.303531 -0.187598 -0.934171
outer loop
vertex 4.279983 57.692802 -9.364204
vertex 1.030816 52.435425 -9.364153
vertex -1.597872 57.692802 -11.274037
endloop
endfacet
facet normal 0.024747 -0.330386 -0.943521
outer loop
vertex 1.030816 52.435425 -9.364153
vertex -4.361752 53.220604 -9.780531
vertex -1.597872 57.692802 -11.274037
endloop
endfacet
facet normal -0.802610 0.125627 -0.583126
outer loop
vertex -7.475727 57.692802 -9.364204
vertex -11.108449 57.692802 -4.364165
vertex -8.833945 62.164997 -6.531292
endloop
endfacet
facet normal -0.794656 -0.187595 -0.577348
outer loop
vertex -7.475727 57.692802 -9.364204
vertex -8.479764 52.435440 -6.274007
vertex -11.108449 57.692802 -4.364165
endloop
endfacet
facet normal -0.889697 -0.330385 -0.315095
outer loop
vertex -8.479764 52.435440 -6.274007
vertex -10.542132 53.220646 -1.274039
vertex -11.108449 57.692802 -4.364165
endloop
endfacet
facet normal -0.802609 0.125627 0.583126
outer loop
vertex -11.108449 57.692802 1.816088
vertex -7.475727 57.692802 6.816128
vertex -8.833945 62.164997 3.983215
endloop
endfacet
facet normal -0.794656 -0.187595 0.577348
outer loop
vertex -11.108449 57.692802 1.816088
vertex -8.479764 52.435440 3.725930
vertex -7.475727 57.692802 6.816128
endloop
endfacet
facet normal -0.574602 -0.330387 0.748783
outer loop
vertex -8.479764 52.435440 3.725930
vertex -4.361752 53.220604 7.232454
vertex -7.475727 57.692802 6.816128
endloop
endfacet
facet normal 0.306569 0.125628 0.943522
outer loop
vertex -1.597872 57.692802 8.725961
vertex 4.279983 57.692802 6.816128
vertex 1.166008 62.165001 7.232454
endloop
endfacet
facet normal 0.303531 -0.187598 0.934171
outer loop
vertex -1.597872 57.692802 8.725961
vertex 1.030816 52.435425 6.816076
vertex 4.279983 57.692802 6.816128
endloop
endfacet
facet normal 0.534576 -0.330386 0.777865
outer loop
vertex 1.030816 52.435425 6.816076
vertex 5.638201 53.220608 3.983215
vertex 4.279983 57.692802 6.816128
endloop
endfacet
facet normal 0.992077 0.125629 0.000000
outer loop
vertex 7.912705 57.692802 1.816088
vertex 7.912705 57.692802 -4.364165
vertex 7.346389 62.164959 -1.274039
endloop
endfacet
facet normal 0.982246 -0.187599 0.000000
outer loop
vertex 7.912705 57.692802 1.816088
vertex 6.908606 52.435444 -1.274039
vertex 7.912705 57.692802 -4.364165
endloop
endfacet
facet normal 0.904989 -0.330384 -0.268031
outer loop
vertex 6.908606 52.435444 -1.274039
vertex 5.638201 53.220608 -6.531292
vertex 7.912705 57.692802 -4.364165
endloop
endfacet
facet normal 0.471299 -0.661699 -0.583122
outer loop
vertex 2.655354 49.186264 -4.364152
vertex 1.030816 52.435425 -9.364153
vertex 5.638201 53.220608 -6.531292
endloop
endfacet
facet normal 0.187594 -0.794658 -0.577345
outer loop
vertex 2.655354 49.186264 -4.364152
vertex -3.222427 49.186260 -6.273991
vertex 1.030816 52.435425 -9.364153
endloop
endfacet
facet normal -0.038530 -0.661700 -0.748778
outer loop
vertex -3.222427 49.186260 -6.273991
vertex -4.361752 53.220604 -9.780531
vertex 1.030816 52.435425 -9.364153
endloop
endfacet
facet normal -0.408946 -0.661699 -0.628424
outer loop
vertex -3.222427 49.186260 -6.273991
vertex -8.479764 52.435440 -6.274007
vertex -4.361752 53.220604 -9.780531
endloop
endfacet
facet normal -0.491119 -0.794657 -0.356822
outer loop
vertex -3.222427 49.186260 -6.273991
vertex -6.855169 49.186287 -1.274039
vertex -8.479764 52.435440 -6.274007
endloop
endfacet
facet normal -0.724042 -0.661696 -0.194736
outer loop
vertex -6.855169 49.186287 -1.274039
vertex -10.542132 53.220646 -1.274039
vertex -8.479764 52.435440 -6.274007
endloop
endfacet
facet normal -0.724042 -0.661695 0.194736
outer loop
vertex -6.855169 49.186287 -1.274039
vertex -8.479764 52.435440 3.725930
vertex -10.542132 53.220646 -1.274039
endloop
endfacet
facet normal -0.491119 -0.794657 0.356822
outer loop
vertex -6.855169 49.186287 -1.274039
vertex -3.222427 49.186260 3.725914
vertex -8.479764 52.435440 3.725930
endloop
endfacet
facet normal -0.408946 -0.661699 0.628424
outer loop
vertex -3.222427 49.186260 3.725914
vertex -4.361752 53.220604 7.232454
vertex -8.479764 52.435440 3.725930
endloop
endfacet
facet normal 0.700223 -0.661699 -0.268033
outer loop
vertex 6.908606 52.435444 -1.274039
vertex 2.655354 49.186264 -4.364152
vertex 5.638201 53.220608 -6.531292
endloop
endfacet
facet normal 0.607060 -0.794656 0.000000
outer loop
vertex 6.908606 52.435444 -1.274039
vertex 2.655354 49.186264 1.816075
vertex 2.655354 49.186264 -4.364152
endloop
endfacet
facet normal 0.331305 -0.943524 0.000000
outer loop
vertex 2.655354 49.186264 1.816075
vertex -1.597872 47.692802 -1.274039
vertex 2.655354 49.186264 -4.364152
endloop
endfacet
facet normal -0.038530 -0.661700 0.748778
outer loop
vertex -3.222427 49.186260 3.725914
vertex 1.030816 52.435425 6.816076
vertex -4.361752 53.220604 7.232454
endloop
endfacet
facet normal 0.187595 -0.794658 0.577344
outer loop
vertex -3.222427 49.186260 3.725914
vertex 2.655354 49.186264 1.816075
vertex 1.030816 52.435425 6.816076
endloop
endfacet
facet normal 0.471299 -0.661699 0.583122
outer loop
vertex 2.655354 49.186264 1.816075
vertex 5.638201 53.220608 3.983215
vertex 1.030816 52.435425 6.816076
endloop
endfacet
endsolid Exported from Blender-2.74 (sub 0)
