solid Exported from Blender-2.74 (sub 0)
facet normal 0.102381 -0.943523 0.315091
outer loop
vertex -11.096694 33.359055 6.875037
vertex -6.843468 34.852516 9.965151
vertex -12.721250 34.852512 11.874990
endloop
endfacet
facet normal 0.700224 -0.661699 0.268032
outer loop
vertex -3.860621 38.886860 12.132290
vertex -6.843468 34.852516 9.965151
vertex -2.590217 38.101696 6.875037
endloop
endfacet
facet normal -0.268034 -0.943523 0.194736
outer loop
vertex -11.096694 33.359055 6.875037
vertex -12.721250 34.852512 11.874990
vertex -16.353991 34.852539 6.875037
endloop
endfacet
facet normal -0.268034 -0.943523 -0.194736
outer loop
vertex -11.096694 33.359055 6.875037
vertex -16.353991 34.852539 6.875037
vertex -12.721250 34.852512 1.875085
endloop
endfacet
facet normal 0.102381 -0.943523 -0.315091
outer loop
vertex -11.096694 33.359055 6.875037
vertex -12.721250 34.852512 1.875085
vertex -6.843468 34.852516 3.784924
endloop
endfacet
facet normal 0.904989 -0.330384 0.268031
outer loop
vertex -3.860621 38.886860 12.132290
vertex -2.590217 38.101696 6.875037
vertex -1.586117 43.359055 9.965163
endloop
endfacet
facet normal 0.024747 -0.330386 0.943521
outer loop
vertex -13.860574 38.886856 15.381530
vertex -8.468006 38.101677 14.965152
vertex -11.096694 43.359055 16.875036
endloop
endfacet
facet normal -0.889697 -0.330385 0.315095
outer loop
vertex -20.040955 38.886898 6.875037
vertex -17.978586 38.101692 11.875006
vertex -20.607271 43.359055 9.965163
endloop
endfacet
facet normal -0.574602 -0.330387 -0.748783
outer loop
vertex -13.860574 38.886856 -1.631455
vertex -17.978586 38.101692 1.875069
vertex -16.974548 43.359055 -1.215129
endloop
endfacet
facet normal 0.534576 -0.330387 -0.777864
outer loop
vertex -3.860621 38.886860 1.617784
vertex -8.468006 38.101677 -1.215077
vertex -5.218839 43.359055 -1.215129
endloop
endfacet
facet normal 0.802608 -0.125627 0.583128
outer loop
vertex -3.860621 38.886860 12.132290
vertex -1.586117 43.359055 9.965163
vertex -5.218839 43.359055 14.965203
endloop
endfacet
facet normal -0.306569 -0.125629 0.943521
outer loop
vertex -13.860574 38.886856 15.381530
vertex -11.096694 43.359055 16.875036
vertex -16.974548 43.359055 14.965203
endloop
endfacet
facet normal -0.992077 -0.125629 0.000000
outer loop
vertex -20.040955 38.886898 6.875037
vertex -20.607271 43.359055 9.965163
vertex -20.607271 43.359055 3.784911
endloop
endfacet
facet normal -0.306569 -0.125629 -0.943521
outer loop
vertex -13.860574 38.886856 -1.631455
vertex -16.974548 43.359055 -1.215129
vertex -11.096694 43.359055 -3.124962
endloop
endfacet
facet normal 0.802608 -0.125627 -0.583127
outer loop
vertex -3.860621 38.886860 1.617784
vertex -5.218839 43.359055 -1.215129
vertex -1.586117 43.359055 3.784911
endloop
endfacet
facet normal 0.408946 0.661699 0.628425
outer loop
vertex -8.332814 47.831253 15.381530
vertex -4.214802 48.616417 11.875006
vertex -9.472138 51.865597 11.874990
endloop
endfacet
facet normal -0.471299 0.661699 0.583122
outer loop
vertex -18.332767 47.831249 12.132290
vertex -13.725382 48.616432 14.965152
vertex -15.349920 51.865593 9.965151
endloop
endfacet
facet normal -0.700224 0.661699 -0.268032
outer loop
vertex -18.332767 47.831249 1.617784
vertex -19.603172 48.616413 6.875037
vertex -15.349920 51.865593 3.784924
endloop
endfacet
facet normal 0.038530 0.661699 -0.748779
outer loop
vertex -8.332814 47.831253 -1.631455
vertex -13.725382 48.616432 -1.215077
vertex -9.472138 51.865597 1.875085
endloop
endfacet
facet normal 0.724042 0.661696 -0.194736
outer loop
vertex -2.152433 47.831211 6.875037
vertex -4.214802 48.616417 1.875069
vertex -5.839397 51.865570 6.875037
endloop
endfacet
facet normal 0.268034 0.943523 -0.194735
outer loop
vertex -5.839397 51.865570 6.875037
vertex -9.472138 51.865597 1.875085
vertex -11.096694 53.359055 6.875037
endloop
endfacet
facet normal 0.491119 0.794658 -0.356821
outer loop
vertex -5.839397 51.865570 6.875037
vertex -4.214802 48.616417 1.875069
vertex -9.472138 51.865597 1.875085
endloop
endfacet
facet normal 0.408946 0.661699 -0.628425
outer loop
vertex -4.214802 48.616417 1.875069
vertex -8.332814 47.831253 -1.631455
vertex -9.472138 51.865597 1.875085
endloop
endfacet
facet normal -0.102381 0.943523 -0.315091
outer loop
vertex -9.472138 51.865597 1.875085
vertex -15.349920 51.865593 3.784924
vertex -11.096694 53.359055 6.875037
endloop
endfacet
facet normal -0.187594 0.794658 -0.577345
outer loop
vertex -9.472138 51.865597 1.875085
vertex -13.725382 48.616432 -1.215077
vertex -15.349920 51.865593 3.784924
endloop
endfacet
facet normal -0.471299 0.661699 -0.583122
outer loop
vertex -13.725382 48.616432 -1.215077
vertex -18.332767 47.831249 1.617784
vertex -15.349920 51.865593 3.784924
endloop
endfacet
facet normal -0.331305 0.943524 0.000000
outer loop
vertex -15.349920 51.865593 3.784924
vertex -15.349920 51.865593 9.965151
vertex -11.096694 53.359055 6.875037
endloop
endfacet
facet normal -0.607060 0.794656 0.000000
outer loop
vertex -15.349920 51.865593 3.784924
vertex -19.603172 48.616413 6.875037
vertex -15.349920 51.865593 9.965151
endloop
endfacet
facet normal -0.700224 0.661699 0.268032
outer loop
vertex -19.603172 48.616413 6.875037
vertex -18.332767 47.831249 12.132290
vertex -15.349920 51.865593 9.965151
endloop
endfacet
facet normal -0.102381 0.943523 0.315091
outer loop
vertex -15.349920 51.865593 9.965151
vertex -9.472138 51.865597 11.874990
vertex -11.096694 53.359055 6.875037
endloop
endfacet
facet normal -0.187595 0.794658 0.577345
outer loop
vertex -15.349920 51.865593 9.965151
vertex -13.725382 48.616432 14.965152
vertex -9.472138 51.865597 11.874990
endloop
endfacet
facet normal 0.038531 0.661699 0.748779
outer loop
vertex -13.725382 48.616432 14.965152
vertex -8.332814 47.831253 15.381530
vertex -9.472138 51.865597 11.874990
endloop
endfacet
facet normal 0.268035 0.943523 0.194734
outer loop
vertex -9.472138 51.865597 11.874990
vertex -5.839397 51.865570 6.875037
vertex -11.096694 53.359055 6.875037
endloop
endfacet
facet normal 0.491119 0.794657 0.356822
outer loop
vertex -9.472138 51.865597 11.874990
vertex -4.214802 48.616417 11.875006
vertex -5.839397 51.865570 6.875037
endloop
endfacet
facet normal 0.724042 0.661696 0.194736
outer loop
vertex -4.214802 48.616417 11.875006
vertex -2.152433 47.831211 6.875037
vertex -5.839397 51.865570 6.875037
endloop
endfacet
facet normal 0.889697 0.330385 -0.315095
outer loop
vertex -1.586117 43.359055 3.784911
vertex -4.214802 48.616417 1.875069
vertex -2.152433 47.831211 6.875037
endloop
endfacet
facet normal 0.794656 0.187595 -0.577348
outer loop
vertex -1.586117 43.359055 3.784911
vertex -5.218839 43.359055 -1.215129
vertex -4.214802 48.616417 1.875069
endloop
endfacet
facet normal 0.574602 0.330387 -0.748783
outer loop
vertex -5.218839 43.359055 -1.215129
vertex -8.332814 47.831253 -1.631455
vertex -4.214802 48.616417 1.875069
endloop
endfacet
facet normal -0.024747 0.330386 -0.943521
outer loop
vertex -11.096694 43.359055 -3.124962
vertex -13.725382 48.616432 -1.215077
vertex -8.332814 47.831253 -1.631455
endloop
endfacet
facet normal -0.303531 0.187598 -0.934171
outer loop
vertex -11.096694 43.359055 -3.124962
vertex -16.974548 43.359055 -1.215129
vertex -13.725382 48.616432 -1.215077
endloop
endfacet
facet normal -0.534576 0.330386 -0.777865
outer loop
vertex -16.974548 43.359055 -1.215129
vertex -18.332767 47.831249 1.617784
vertex -13.725382 48.616432 -1.215077
endloop
endfacet
facet normal -0.904989 0.330384 -0.268031
outer loop
vertex -20.607271 43.359055 3.784911
vertex -19.603172 48.616413 6.875037
vertex -18.332767 47.831249 1.617784
endloop
endfacet
facet normal -0.982246 0.187599 0.000000
outer loop
vertex -20.607271 43.359055 3.784911
vertex -20.607271 43.359055 9.965163
vertex -19.603172 48.616413 6.875037
endloop
endfacet
facet normal -0.904989 0.330384 0.268031
outer loop
vertex -20.607271 43.359055 9.965163
vertex -18.332767 47.831249 12.132290
vertex -19.603172 48.616413 6.875037
endloop
endfacet
facet normal -0.534576 0.330386 0.777865
outer loop
vertex -16.974548 43.359055 14.965203
vertex -13.725382 48.616432 14.965152
vertex -18.332767 47.831249 12.132290
endloop
endfacet
facet normal -0.303531 0.187598 0.934171
outer loop
vertex -16.974548 43.359055 14.965203
vertex -11.096694 43.359055 16.875036
vertex -13.725382 48.616432 14.965152
endloop
endfacet
facet normal -0.024747 0.330386 0.943521
outer loop
vertex -11.096694 43.359055 16.875036
vertex -8.332814 47.831253 15.381530
vertex -13.725382 48.616432 14.965152
endloop
endfacet
facet normal 0.574602 0.330387 0.748783
outer loop
vertex -5.218839 43.359055 14.965203
vertex -4.214802 48.616417 11.875006
vertex -8.332814 47.831253 15.381530
endloop
endfacet
facet normal 0.794656 0.187595 0.577347
outer loop
vertex -5.218839 43.359055 14.965203
vertex -1.586117 43.359055 9.965163
vertex -4.214802 48.616417 11.875006
endloop
endfacet
facet normal 0.889697 0.330385 0.315095
outer loop
vertex -1.586117 43.359055 9.965163
vertex -2.152433 47.831211 6.875037
vertex -4.214802 48.616417 11.875006
endloop
endfacet
facet normal 0.306569 0.125628 -0.943521
outer loop
vertex -5.218839 43.359055 -1.215129
vertex -11.096694 43.359055 -3.124962
vertex -8.332814 47.831253 -1.631455
endloop
endfacet
facet normal 0.303531 -0.187597 -0.934171
outer loop
vertex -5.218839 43.359055 -1.215129
vertex -8.468006 38.101677 -1.215077
vertex -11.096694 43.359055 -3.124962
endloop
endfacet
facet normal 0.024747 -0.330386 -0.943521
outer loop
vertex -8.468006 38.101677 -1.215077
vertex -13.860574 38.886856 -1.631455
vertex -11.096694 43.359055 -3.124962
endloop
endfacet
facet normal -0.802609 0.125627 -0.583127
outer loop
vertex -16.974548 43.359055 -1.215129
vertex -20.607271 43.359055 3.784911
vertex -18.332767 47.831249 1.617784
endloop
endfacet
facet normal -0.794655 -0.187595 -0.577348
outer loop
vertex -16.974548 43.359055 -1.215129
vertex -17.978586 38.101692 1.875069
vertex -20.607271 43.359055 3.784911
endloop
endfacet
facet normal -0.889697 -0.330385 -0.315095
outer loop
vertex -17.978586 38.101692 1.875069
vertex -20.040955 38.886898 6.875037
vertex -20.607271 43.359055 3.784911
endloop
endfacet
facet normal -0.802609 0.125627 0.583127
outer loop
vertex -20.607271 43.359055 9.965163
vertex -16.974548 43.359055 14.965203
vertex -18.332767 47.831249 12.132290
endloop
endfacet
facet normal -0.794656 -0.187595 0.577348
outer loop
vertex -20.607271 43.359055 9.965163
vertex -17.978586 38.101692 11.875006
vertex -16.974548 43.359055 14.965203
endloop
endfacet
facet normal -0.574602 -0.330387 0.748783
outer loop
vertex -17.978586 38.101692 11.875006
vertex -13.860574 38.886856 15.381530
vertex -16.974548 43.359055 14.965203
endloop
endfacet
facet normal 0.306569 0.125628 0.943522
outer loop
vertex -11.096694 43.359055 16.875036
vertex -5.218839 43.359055 14.965203
vertex -8.332814 47.831253 15.381530
endloop
endfacet
facet normal 0.303531 -0.187598 0.934171
outer loop
vertex -11.096694 43.359055 16.875036
vertex -8.468006 38.101677 14.965152
vertex -5.218839 43.359055 14.965203
endloop
endfacet
facet normal 0.534577 -0.330387 0.777864
outer loop
vertex -8.468006 38.101677 14.965152
vertex -3.860621 38.886860 12.132290
vertex -5.218839 43.359055 14.965203
endloop
endfacet
facet normal 0.992077 0.125628 0.000000
outer loop
vertex -1.586117 43.359055 9.965163
vertex -1.586117 43.359055 3.784911
vertex -2.152433 47.831211 6.875037
endloop
endfacet
facet normal 0.982246 -0.187599 0.000000
outer loop
vertex -1.586117 43.359055 9.965163
vertex -2.590217 38.101696 6.875037
vertex -1.586117 43.359055 3.784911
endloop
endfacet
facet normal 0.904989 -0.330384 -0.268031
outer loop
vertex -2.590217 38.101696 6.875037
vertex -3.860621 38.886860 1.617784
vertex -1.586117 43.359055 3.784911
endloop
endfacet
facet normal 0.471300 -0.661699 -0.583122
outer loop
vertex -6.843468 34.852516 3.784924
vertex -8.468006 38.101677 -1.215077
vertex -3.860621 38.886860 1.617784
endloop
endfacet
facet normal 0.187595 -0.794658 -0.577345
outer loop
vertex -6.843468 34.852516 3.784924
vertex -12.721250 34.852512 1.875085
vertex -8.468006 38.101677 -1.215077
endloop
endfacet
facet normal -0.038530 -0.661699 -0.748779
outer loop
vertex -12.721250 34.852512 1.875085
vertex -13.860574 38.886856 -1.631455
vertex -8.468006 38.101677 -1.215077
endloop
endfacet
facet normal -0.408947 -0.661699 -0.628424
outer loop
vertex -12.721250 34.852512 1.875085
vertex -17.978586 38.101692 1.875069
vertex -13.860574 38.886856 -1.631455
endloop
endfacet
facet normal -0.491119 -0.794657 -0.356822
outer loop
vertex -12.721250 34.852512 1.875085
vertex -16.353991 34.852539 6.875037
vertex -17.978586 38.101692 1.875069
endloop
endfacet
facet normal -0.724042 -0.661695 -0.194735
outer loop
vertex -16.353991 34.852539 6.875037
vertex -20.040955 38.886898 6.875037
vertex -17.978586 38.101692 1.875069
endloop
endfacet
facet normal -0.724042 -0.661695 0.194735
outer loop
vertex -16.353991 34.852539 6.875037
vertex -17.978586 38.101692 11.875006
vertex -20.040955 38.886898 6.875037
endloop
endfacet
facet normal -0.491119 -0.794657 0.356822
outer loop
vertex -16.353991 34.852539 6.875037
vertex -12.721250 34.852512 11.874990
vertex -17.978586 38.101692 11.875006
endloop
endfacet
facet normal -0.408946 -0.661699 0.628424
outer loop
vertex -12.721250 34.852512 11.874990
vertex -13.860574 38.886856 15.381530
vertex -17.978586 38.101692 11.875006
endloop
endfacet
facet normal 0.700224 -0.661699 -0.268032
outer loop
vertex -2.590217 38.101696 6.875037
vertex -6.843468 34.852516 3.784924
vertex -3.860621 38.886860 1.617784
endloop
endfacet
facet normal 0.607060 -0.794656 0.000000
outer loop
vertex -2.590217 38.101696 6.875037
vertex -6.843468 34.852516 9.965151
vertex -6.843468 34.852516 3.784924
endloop
endfacet
facet normal 0.331305 -0.943524 0.000000
outer loop
vertex -6.843468 34.852516 9.965151
vertex -11.096694 33.359055 6.875037
vertex -6.843468 34.852516 3.784924
endloop
endfacet
facet normal -0.038530 -0.661699 0.748779
outer loop
vertex -12.721250 34.852512 11.874990
vertex -8.468006 38.101677 14.965152
vertex -13.860574 38.886856 15.381530
endloop
endfacet
facet normal 0.187595 -0.794658 0.577345
outer loop
vertex -12.721250 34.852512 11.874990
vertex -6.843468 34.852516 9.965151
vertex -8.468006 38.101677 14.965152
endloop
endfacet
facet normal 0.471299 -0.661699 0.583122
outer loop
vertex -6.843468 34.852516 9.965151
vertex -3.860621 38.886860 12.132290
vertex -8.468006 38.101677 14.965152
endloop
endfacet
endsolid Exported from Blender-2.74 (sub 0)
