solid Exported from Blender-2.74 (sub 0)
facet normal 0.102381 -0.943523 0.315091
outer loop
vertex 2.612673 33.380028 -8.289337
vertex 6.865900 34.873489 -5.199224
vertex 0.988118 34.873486 -3.289385
endloop
endfacet
facet normal 0.700224 -0.661699 0.268032
outer loop
vertex 9.848746 38.907833 -3.032084
vertex 6.865900 34.873489 -5.199224
vertex 11.119150 38.122669 -8.289337
endloop
endfacet
facet normal -0.268034 -0.943523 0.194736
outer loop
vertex 2.612673 33.380028 -8.289337
vertex 0.988118 34.873486 -3.289385
vertex -2.644624 34.873512 -8.289337
endloop
endfacet
facet normal -0.268034 -0.943523 -0.194736
outer loop
vertex 2.612673 33.380028 -8.289337
vertex -2.644624 34.873512 -8.289337
vertex 0.988118 34.873486 -13.289289
endloop
endfacet
facet normal 0.102381 -0.943523 -0.315091
outer loop
vertex 2.612673 33.380028 -8.289337
vertex 0.988118 34.873486 -13.289289
vertex 6.865900 34.873489 -11.379451
endloop
endfacet
facet normal 0.904989 -0.330385 0.268030
outer loop
vertex 9.848746 38.907833 -3.032084
vertex 11.119150 38.122669 -8.289337
vertex 12.123251 43.380028 -5.199211
endloop
endfacet
facet normal 0.024747 -0.330386 0.943521
outer loop
vertex -0.151207 38.907829 0.217155
vertex 5.241361 38.122650 -0.199223
vertex 2.612673 43.380028 1.710662
endloop
endfacet
facet normal -0.889697 -0.330385 0.315095
outer loop
vertex -6.331587 38.907871 -8.289337
vertex -4.269219 38.122665 -3.289369
vertex -6.897904 43.380028 -5.199211
endloop
endfacet
facet normal -0.574602 -0.330388 -0.748783
outer loop
vertex -0.151207 38.907829 -16.795830
vertex -4.269219 38.122665 -13.289306
vertex -3.265182 43.380028 -16.379503
endloop
endfacet
facet normal 0.534576 -0.330386 -0.777864
outer loop
vertex 9.848746 38.907833 -13.546591
vertex 5.241361 38.122650 -16.379452
vertex 8.490528 43.380028 -16.379503
endloop
endfacet
facet normal 0.802608 -0.125627 0.583127
outer loop
vertex 9.848746 38.907833 -3.032084
vertex 12.123251 43.380028 -5.199211
vertex 8.490528 43.380028 -0.199171
endloop
endfacet
facet normal -0.306569 -0.125628 0.943522
outer loop
vertex -0.151207 38.907829 0.217155
vertex 2.612673 43.380028 1.710662
vertex -3.265182 43.380028 -0.199171
endloop
endfacet
facet normal -0.992077 -0.125629 0.000000
outer loop
vertex -6.331587 38.907871 -8.289337
vertex -6.897904 43.380028 -5.199211
vertex -6.897904 43.380028 -11.379463
endloop
endfacet
facet normal -0.306570 -0.125629 -0.943521
outer loop
vertex -0.151207 38.907829 -16.795830
vertex -3.265182 43.380028 -16.379503
vertex 2.612673 43.380028 -18.289337
endloop
endfacet
facet normal 0.802608 -0.125627 -0.583127
outer loop
vertex 9.848746 38.907833 -13.546591
vertex 8.490528 43.380028 -16.379503
vertex 12.123251 43.380028 -11.379463
endloop
endfacet
facet normal 0.408946 0.661698 0.628425
outer loop
vertex 5.376554 47.852226 0.217155
vertex 9.494566 48.637390 -3.289369
vertex 4.237229 51.886570 -3.289385
endloop
endfacet
facet normal -0.471300 0.661699 0.583122
outer loop
vertex -4.623400 47.852222 -3.032084
vertex -0.016014 48.637405 -0.199223
vertex -1.640553 51.886566 -5.199224
endloop
endfacet
facet normal -0.700224 0.661699 -0.268032
outer loop
vertex -4.623400 47.852222 -13.546591
vertex -5.893804 48.637386 -8.289337
vertex -1.640553 51.886566 -11.379451
endloop
endfacet
facet normal 0.038530 0.661699 -0.748779
outer loop
vertex 5.376554 47.852226 -16.795830
vertex -0.016015 48.637405 -16.379452
vertex 4.237229 51.886570 -13.289289
endloop
endfacet
facet normal 0.724042 0.661695 -0.194736
outer loop
vertex 11.556934 47.852184 -8.289337
vertex 9.494566 48.637390 -13.289306
vertex 7.869970 51.886543 -8.289337
endloop
endfacet
facet normal 0.268035 0.943523 -0.194735
outer loop
vertex 7.869970 51.886543 -8.289337
vertex 4.237229 51.886570 -13.289289
vertex 2.612673 53.380028 -8.289337
endloop
endfacet
facet normal 0.491119 0.794658 -0.356821
outer loop
vertex 7.869970 51.886543 -8.289337
vertex 9.494566 48.637390 -13.289306
vertex 4.237229 51.886570 -13.289289
endloop
endfacet
facet normal 0.408946 0.661699 -0.628425
outer loop
vertex 9.494566 48.637390 -13.289306
vertex 5.376554 47.852226 -16.795830
vertex 4.237229 51.886570 -13.289289
endloop
endfacet
facet normal -0.102381 0.943523 -0.315092
outer loop
vertex 4.237229 51.886570 -13.289289
vertex -1.640553 51.886566 -11.379451
vertex 2.612673 53.380028 -8.289337
endloop
endfacet
facet normal -0.187594 0.794658 -0.577345
outer loop
vertex 4.237229 51.886570 -13.289289
vertex -0.016015 48.637405 -16.379452
vertex -1.640553 51.886566 -11.379451
endloop
endfacet
facet normal -0.471299 0.661698 -0.583123
outer loop
vertex -0.016015 48.637405 -16.379452
vertex -4.623400 47.852222 -13.546591
vertex -1.640553 51.886566 -11.379451
endloop
endfacet
facet normal -0.331305 0.943524 0.000000
outer loop
vertex -1.640553 51.886566 -11.379451
vertex -1.640553 51.886566 -5.199224
vertex 2.612673 53.380028 -8.289337
endloop
endfacet
facet normal -0.607060 0.794656 0.000000
outer loop
vertex -1.640553 51.886566 -11.379451
vertex -5.893804 48.637386 -8.289337
vertex -1.640553 51.886566 -5.199224
endloop
endfacet
facet normal -0.700224 0.661699 0.268032
outer loop
vertex -5.893804 48.637386 -8.289337
vertex -4.623400 47.852222 -3.032084
vertex -1.640553 51.886566 -5.199224
endloop
endfacet
facet normal -0.102381 0.943523 0.315092
outer loop
vertex -1.640553 51.886566 -5.199224
vertex 4.237229 51.886570 -3.289385
vertex 2.612673 53.380028 -8.289337
endloop
endfacet
facet normal -0.187595 0.794659 0.577344
outer loop
vertex -1.640553 51.886566 -5.199224
vertex -0.016014 48.637405 -0.199223
vertex 4.237229 51.886570 -3.289385
endloop
endfacet
facet normal 0.038530 0.661698 0.748780
outer loop
vertex -0.016014 48.637405 -0.199223
vertex 5.376554 47.852226 0.217155
vertex 4.237229 51.886570 -3.289385
endloop
endfacet
facet normal 0.268034 0.943523 0.194736
outer loop
vertex 4.237229 51.886570 -3.289385
vertex 7.869970 51.886543 -8.289337
vertex 2.612673 53.380028 -8.289337
endloop
endfacet
facet normal 0.491119 0.794658 0.356821
outer loop
vertex 4.237229 51.886570 -3.289385
vertex 9.494566 48.637390 -3.289369
vertex 7.869970 51.886543 -8.289337
endloop
endfacet
facet normal 0.724042 0.661695 0.194736
outer loop
vertex 9.494566 48.637390 -3.289369
vertex 11.556934 47.852184 -8.289337
vertex 7.869970 51.886543 -8.289337
endloop
endfacet
facet normal 0.889697 0.330385 -0.315094
outer loop
vertex 12.123251 43.380028 -11.379463
vertex 9.494566 48.637390 -13.289306
vertex 11.556934 47.852184 -8.289337
endloop
endfacet
facet normal 0.794655 0.187595 -0.577348
outer loop
vertex 12.123251 43.380028 -11.379463
vertex 8.490528 43.380028 -16.379503
vertex 9.494566 48.637390 -13.289306
endloop
endfacet
facet normal 0.574602 0.330388 -0.748783
outer loop
vertex 8.490528 43.380028 -16.379503
vertex 5.376554 47.852226 -16.795830
vertex 9.494566 48.637390 -13.289306
endloop
endfacet
facet normal -0.024747 0.330387 -0.943521
outer loop
vertex 2.612673 43.380028 -18.289337
vertex -0.016015 48.637405 -16.379452
vertex 5.376554 47.852226 -16.795830
endloop
endfacet
facet normal -0.303531 0.187597 -0.934171
outer loop
vertex 2.612673 43.380028 -18.289337
vertex -3.265182 43.380028 -16.379503
vertex -0.016015 48.637405 -16.379452
endloop
endfacet
facet normal -0.534577 0.330387 -0.777864
outer loop
vertex -3.265182 43.380028 -16.379503
vertex -4.623400 47.852222 -13.546591
vertex -0.016015 48.637405 -16.379452
endloop
endfacet
facet normal -0.904989 0.330384 -0.268031
outer loop
vertex -6.897904 43.380028 -11.379463
vertex -5.893804 48.637386 -8.289337
vertex -4.623400 47.852222 -13.546591
endloop
endfacet
facet normal -0.982246 0.187599 0.000000
outer loop
vertex -6.897904 43.380028 -11.379463
vertex -6.897904 43.380028 -5.199211
vertex -5.893804 48.637386 -8.289337
endloop
endfacet
facet normal -0.904989 0.330384 0.268031
outer loop
vertex -6.897904 43.380028 -5.199211
vertex -4.623400 47.852222 -3.032084
vertex -5.893804 48.637386 -8.289337
endloop
endfacet
facet normal -0.534575 0.330386 0.777865
outer loop
vertex -3.265182 43.380028 -0.199171
vertex -0.016014 48.637405 -0.199223
vertex -4.623400 47.852222 -3.032084
endloop
endfacet
facet normal -0.303531 0.187598 0.934171
outer loop
vertex -3.265182 43.380028 -0.199171
vertex 2.612673 43.380028 1.710662
vertex -0.016014 48.637405 -0.199223
endloop
endfacet
facet normal -0.024747 0.330387 0.943521
outer loop
vertex 2.612673 43.380028 1.710662
vertex 5.376554 47.852226 0.217155
vertex -0.016014 48.637405 -0.199223
endloop
endfacet
facet normal 0.574602 0.330388 0.748783
outer loop
vertex 8.490528 43.380028 -0.199171
vertex 9.494566 48.637390 -3.289369
vertex 5.376554 47.852226 0.217155
endloop
endfacet
facet normal 0.794655 0.187595 0.577348
outer loop
vertex 8.490528 43.380028 -0.199171
vertex 12.123251 43.380028 -5.199211
vertex 9.494566 48.637390 -3.289369
endloop
endfacet
facet normal 0.889697 0.330385 0.315094
outer loop
vertex 12.123251 43.380028 -5.199211
vertex 11.556934 47.852184 -8.289337
vertex 9.494566 48.637390 -3.289369
endloop
endfacet
facet normal 0.306570 0.125628 -0.943521
outer loop
vertex 8.490528 43.380028 -16.379503
vertex 2.612673 43.380028 -18.289337
vertex 5.376554 47.852226 -16.795830
endloop
endfacet
facet normal 0.303531 -0.187598 -0.934171
outer loop
vertex 8.490528 43.380028 -16.379503
vertex 5.241361 38.122650 -16.379452
vertex 2.612673 43.380028 -18.289337
endloop
endfacet
facet normal 0.024747 -0.330387 -0.943521
outer loop
vertex 5.241361 38.122650 -16.379452
vertex -0.151207 38.907829 -16.795830
vertex 2.612673 43.380028 -18.289337
endloop
endfacet
facet normal -0.802609 0.125627 -0.583127
outer loop
vertex -3.265182 43.380028 -16.379503
vertex -6.897904 43.380028 -11.379463
vertex -4.623400 47.852222 -13.546591
endloop
endfacet
facet normal -0.794655 -0.187595 -0.577348
outer loop
vertex -3.265182 43.380028 -16.379503
vertex -4.269219 38.122665 -13.289306
vertex -6.897904 43.380028 -11.379463
endloop
endfacet
facet normal -0.889697 -0.330385 -0.315095
outer loop
vertex -4.269219 38.122665 -13.289306
vertex -6.331587 38.907871 -8.289337
vertex -6.897904 43.380028 -11.379463
endloop
endfacet
facet normal -0.802609 0.125627 0.583127
outer loop
vertex -6.897904 43.380028 -5.199211
vertex -3.265182 43.380028 -0.199171
vertex -4.623400 47.852222 -3.032084
endloop
endfacet
facet normal -0.794655 -0.187595 0.577348
outer loop
vertex -6.897904 43.380028 -5.199211
vertex -4.269219 38.122665 -3.289369
vertex -3.265182 43.380028 -0.199171
endloop
endfacet
facet normal -0.574602 -0.330388 0.748783
outer loop
vertex -4.269219 38.122665 -3.289369
vertex -0.151207 38.907829 0.217155
vertex -3.265182 43.380028 -0.199171
endloop
endfacet
facet normal 0.306569 0.125628 0.943522
outer loop
vertex 2.612673 43.380028 1.710662
vertex 8.490528 43.380028 -0.199171
vertex 5.376554 47.852226 0.217155
endloop
endfacet
facet normal 0.303531 -0.187598 0.934171
outer loop
vertex 2.612673 43.380028 1.710662
vertex 5.241361 38.122650 -0.199223
vertex 8.490528 43.380028 -0.199171
endloop
endfacet
facet normal 0.534576 -0.330387 0.777864
outer loop
vertex 5.241361 38.122650 -0.199223
vertex 9.848746 38.907833 -3.032084
vertex 8.490528 43.380028 -0.199171
endloop
endfacet
facet normal 0.992077 0.125628 0.000000
outer loop
vertex 12.123251 43.380028 -5.199211
vertex 12.123251 43.380028 -11.379463
vertex 11.556934 47.852184 -8.289337
endloop
endfacet
facet normal 0.982246 -0.187599 0.000000
outer loop
vertex 12.123251 43.380028 -5.199211
vertex 11.119150 38.122669 -8.289337
vertex 12.123251 43.380028 -11.379463
endloop
endfacet
facet normal 0.904989 -0.330385 -0.268030
outer loop
vertex 11.119150 38.122669 -8.289337
vertex 9.848746 38.907833 -13.546591
vertex 12.123251 43.380028 -11.379463
endloop
endfacet
facet normal 0.471300 -0.661699 -0.583122
outer loop
vertex 6.865900 34.873489 -11.379451
vertex 5.241361 38.122650 -16.379452
vertex 9.848746 38.907833 -13.546591
endloop
endfacet
facet normal 0.187594 -0.794658 -0.577345
outer loop
vertex 6.865900 34.873489 -11.379451
vertex 0.988118 34.873486 -13.289289
vertex 5.241361 38.122650 -16.379452
endloop
endfacet
facet normal -0.038530 -0.661699 -0.748779
outer loop
vertex 0.988118 34.873486 -13.289289
vertex -0.151207 38.907829 -16.795830
vertex 5.241361 38.122650 -16.379452
endloop
endfacet
facet normal -0.408946 -0.661699 -0.628425
outer loop
vertex 0.988118 34.873486 -13.289289
vertex -4.269219 38.122665 -13.289306
vertex -0.151207 38.907829 -16.795830
endloop
endfacet
facet normal -0.491119 -0.794657 -0.356822
outer loop
vertex 0.988118 34.873486 -13.289289
vertex -2.644624 34.873512 -8.289337
vertex -4.269219 38.122665 -13.289306
endloop
endfacet
facet normal -0.724042 -0.661695 -0.194735
outer loop
vertex -2.644624 34.873512 -8.289337
vertex -6.331587 38.907871 -8.289337
vertex -4.269219 38.122665 -13.289306
endloop
endfacet
facet normal -0.724042 -0.661696 0.194735
outer loop
vertex -2.644624 34.873512 -8.289337
vertex -4.269219 38.122665 -3.289369
vertex -6.331587 38.907871 -8.289337
endloop
endfacet
facet normal -0.491119 -0.794657 0.356822
outer loop
vertex -2.644624 34.873512 -8.289337
vertex 0.988118 34.873486 -3.289385
vertex -4.269219 38.122665 -3.289369
endloop
endfacet
facet normal -0.408946 -0.661699 0.628425
outer loop
vertex 0.988118 34.873486 -3.289385
vertex -0.151207 38.907829 0.217155
vertex -4.269219 38.122665 -3.289369
endloop
endfacet
facet normal 0.700224 -0.661699 -0.268032
outer loop
vertex 11.119150 38.122669 -8.289337
vertex 6.865900 34.873489 -11.379451
vertex 9.848746 38.907833 -13.546591
endloop
endfacet
facet normal 0.607060 -0.794656 0.000000
outer loop
vertex 11.119150 38.122669 -8.289337
vertex 6.865900 34.873489 -5.199224
vertex 6.865900 34.873489 -11.379451
endloop
endfacet
facet normal 0.331305 -0.943524 0.000000
outer loop
vertex 6.865900 34.873489 -5.199224
vertex 2.612673 33.380028 -8.289337
vertex 6.865900 34.873489 -11.379451
endloop
endfacet
facet normal -0.038530 -0.661700 0.748778
outer loop
vertex 0.988118 34.873486 -3.289385
vertex 5.241361 38.122650 -0.199223
vertex -0.151207 38.907829 0.217155
endloop
endfacet
facet normal 0.187594 -0.794658 0.577345
outer loop
vertex 0.988118 34.873486 -3.289385
vertex 6.865900 34.873489 -5.199224
vertex 5.241361 38.122650 -0.199223
endloop
endfacet
facet normal 0.471300 -0.661699 0.583122
outer loop
vertex 6.865900 34.873489 -5.199224
vertex 9.848746 38.907833 -3.032084
vertex 5.241361 38.122650 -0.199223
endloop
endfacet
endsolid Exported from Blender-2.74 (sub 0)
