solid Exported from Blender-2.74 (sub 0)
facet normal 0.102381 -0.943523 0.315090
outer loop
vertex -3.053076 21.809441 15.279380
vertex 1.200151 23.302900 18.369493
vertex -4.677631 23.302898 20.279331
endloop
endfacet
facet normal 0.700224 -0.661699 0.268031
outer loop
vertex 4.182998 27.337246 20.536633
vertex 1.200151 23.302900 18.369493
vertex 5.453402 26.552082 15.279380
endloop
endfacet
facet normal -0.268034 -0.943523 0.194737
outer loop
vertex -3.053076 21.809441 15.279380
vertex -4.677631 23.302898 20.279331
vertex -8.310372 23.302925 15.279380
endloop
endfacet
facet normal -0.268034 -0.943523 -0.194737
outer loop
vertex -3.053076 21.809441 15.279380
vertex -8.310372 23.302925 15.279380
vertex -4.677631 23.302898 10.279428
endloop
endfacet
facet normal 0.102381 -0.943523 -0.315090
outer loop
vertex -3.053076 21.809441 15.279380
vertex -4.677631 23.302898 10.279428
vertex 1.200151 23.302900 12.189266
endloop
endfacet
facet normal 0.904989 -0.330384 0.268031
outer loop
vertex 4.182998 27.337246 20.536633
vertex 5.453402 26.552082 15.279380
vertex 6.457501 31.809441 18.369507
endloop
endfacet
facet normal 0.024747 -0.330386 0.943521
outer loop
vertex -5.816956 27.337242 23.785873
vertex -0.424388 26.552065 23.369495
vertex -3.053076 31.809441 25.279379
endloop
endfacet
facet normal -0.889697 -0.330385 0.315094
outer loop
vertex -11.997336 27.337284 15.279380
vertex -9.934968 26.552080 20.279348
vertex -12.563653 31.809441 18.369507
endloop
endfacet
facet normal -0.574602 -0.330387 -0.748784
outer loop
vertex -5.816956 27.337242 6.772887
vertex -9.934968 26.552080 10.279411
vertex -8.930930 31.809441 7.189214
endloop
endfacet
facet normal 0.534576 -0.330387 -0.777864
outer loop
vertex 4.182998 27.337246 10.022127
vertex -0.424388 26.552065 7.189265
vertex 2.824779 31.809441 7.189214
endloop
endfacet
facet normal 0.802609 -0.125627 0.583126
outer loop
vertex 4.182998 27.337246 20.536633
vertex 6.457501 31.809441 18.369507
vertex 2.824779 31.809441 23.369545
endloop
endfacet
facet normal -0.306569 -0.125628 0.943522
outer loop
vertex -5.816956 27.337242 23.785873
vertex -3.053076 31.809441 25.279379
vertex -8.930930 31.809441 23.369545
endloop
endfacet
facet normal -0.992077 -0.125629 0.000000
outer loop
vertex -11.997336 27.337284 15.279380
vertex -12.563653 31.809441 18.369507
vertex -12.563653 31.809441 12.189254
endloop
endfacet
facet normal -0.306569 -0.125628 -0.943522
outer loop
vertex -5.816956 27.337242 6.772887
vertex -8.930930 31.809441 7.189214
vertex -3.053076 31.809441 5.279381
endloop
endfacet
facet normal 0.802609 -0.125627 -0.583126
outer loop
vertex 4.182998 27.337246 10.022127
vertex 2.824779 31.809441 7.189214
vertex 6.457501 31.809441 12.189254
endloop
endfacet
facet normal 0.408947 0.661700 0.628423
outer loop
vertex -0.289196 36.281639 23.785873
vertex 3.828817 37.066803 20.279348
vertex -1.428520 40.315983 20.279331
endloop
endfacet
facet normal -0.471299 0.661699 0.583122
outer loop
vertex -10.289148 36.281635 20.536633
vertex -5.681763 37.066818 23.369495
vertex -7.306302 40.315979 18.369493
endloop
endfacet
facet normal -0.700224 0.661699 -0.268032
outer loop
vertex -10.289148 36.281635 10.022127
vertex -11.559553 37.066799 15.279380
vertex -7.306302 40.315979 12.189266
endloop
endfacet
facet normal 0.038530 0.661700 -0.748778
outer loop
vertex -0.289196 36.281639 6.772887
vertex -5.681764 37.066818 7.189265
vertex -1.428520 40.315983 10.279428
endloop
endfacet
facet normal 0.724042 0.661696 -0.194735
outer loop
vertex 5.891185 36.281597 15.279380
vertex 3.828817 37.066803 10.279411
vertex 2.204221 40.315956 15.279380
endloop
endfacet
facet normal 0.268034 0.943523 -0.194736
outer loop
vertex 2.204221 40.315956 15.279380
vertex -1.428520 40.315983 10.279428
vertex -3.053076 41.809441 15.279380
endloop
endfacet
facet normal 0.491119 0.794657 -0.356822
outer loop
vertex 2.204221 40.315956 15.279380
vertex 3.828817 37.066803 10.279411
vertex -1.428520 40.315983 10.279428
endloop
endfacet
facet normal 0.408947 0.661700 -0.628424
outer loop
vertex 3.828817 37.066803 10.279411
vertex -0.289196 36.281639 6.772887
vertex -1.428520 40.315983 10.279428
endloop
endfacet
facet normal -0.102381 0.943523 -0.315090
outer loop
vertex -1.428520 40.315983 10.279428
vertex -7.306302 40.315979 12.189266
vertex -3.053076 41.809441 15.279380
endloop
endfacet
facet normal -0.187594 0.794658 -0.577345
outer loop
vertex -1.428520 40.315983 10.279428
vertex -5.681764 37.066818 7.189265
vertex -7.306302 40.315979 12.189266
endloop
endfacet
facet normal -0.471299 0.661699 -0.583122
outer loop
vertex -5.681764 37.066818 7.189265
vertex -10.289148 36.281635 10.022127
vertex -7.306302 40.315979 12.189266
endloop
endfacet
facet normal -0.331305 0.943524 0.000000
outer loop
vertex -7.306302 40.315979 12.189266
vertex -7.306302 40.315979 18.369493
vertex -3.053076 41.809441 15.279380
endloop
endfacet
facet normal -0.607060 0.794656 0.000000
outer loop
vertex -7.306302 40.315979 12.189266
vertex -11.559553 37.066799 15.279380
vertex -7.306302 40.315979 18.369493
endloop
endfacet
facet normal -0.700224 0.661699 0.268032
outer loop
vertex -11.559553 37.066799 15.279380
vertex -10.289148 36.281635 20.536633
vertex -7.306302 40.315979 18.369493
endloop
endfacet
facet normal -0.102381 0.943523 0.315091
outer loop
vertex -7.306302 40.315979 18.369493
vertex -1.428520 40.315983 20.279331
vertex -3.053076 41.809441 15.279380
endloop
endfacet
facet normal -0.187594 0.794658 0.577345
outer loop
vertex -7.306302 40.315979 18.369493
vertex -5.681763 37.066818 23.369495
vertex -1.428520 40.315983 20.279331
endloop
endfacet
facet normal 0.038530 0.661700 0.748778
outer loop
vertex -5.681763 37.066818 23.369495
vertex -0.289196 36.281639 23.785873
vertex -1.428520 40.315983 20.279331
endloop
endfacet
facet normal 0.268034 0.943523 0.194735
outer loop
vertex -1.428520 40.315983 20.279331
vertex 2.204221 40.315956 15.279380
vertex -3.053076 41.809441 15.279380
endloop
endfacet
facet normal 0.491119 0.794657 0.356822
outer loop
vertex -1.428520 40.315983 20.279331
vertex 3.828817 37.066803 20.279348
vertex 2.204221 40.315956 15.279380
endloop
endfacet
facet normal 0.724042 0.661696 0.194736
outer loop
vertex 3.828817 37.066803 20.279348
vertex 5.891185 36.281597 15.279380
vertex 2.204221 40.315956 15.279380
endloop
endfacet
facet normal 0.889697 0.330385 -0.315095
outer loop
vertex 6.457501 31.809441 12.189254
vertex 3.828817 37.066803 10.279411
vertex 5.891185 36.281597 15.279380
endloop
endfacet
facet normal 0.794656 0.187595 -0.577348
outer loop
vertex 6.457501 31.809441 12.189254
vertex 2.824779 31.809441 7.189214
vertex 3.828817 37.066803 10.279411
endloop
endfacet
facet normal 0.574602 0.330387 -0.748784
outer loop
vertex 2.824779 31.809441 7.189214
vertex -0.289196 36.281639 6.772887
vertex 3.828817 37.066803 10.279411
endloop
endfacet
facet normal -0.024747 0.330386 -0.943521
outer loop
vertex -3.053076 31.809441 5.279381
vertex -5.681764 37.066818 7.189265
vertex -0.289196 36.281639 6.772887
endloop
endfacet
facet normal -0.303531 0.187597 -0.934171
outer loop
vertex -3.053076 31.809441 5.279381
vertex -8.930930 31.809441 7.189214
vertex -5.681764 37.066818 7.189265
endloop
endfacet
facet normal -0.534577 0.330387 -0.777864
outer loop
vertex -8.930930 31.809441 7.189214
vertex -10.289148 36.281635 10.022127
vertex -5.681764 37.066818 7.189265
endloop
endfacet
facet normal -0.904989 0.330385 -0.268031
outer loop
vertex -12.563653 31.809441 12.189254
vertex -11.559553 37.066799 15.279380
vertex -10.289148 36.281635 10.022127
endloop
endfacet
facet normal -0.982246 0.187599 0.000000
outer loop
vertex -12.563653 31.809441 12.189254
vertex -12.563653 31.809441 18.369507
vertex -11.559553 37.066799 15.279380
endloop
endfacet
facet normal -0.904989 0.330385 0.268031
outer loop
vertex -12.563653 31.809441 18.369507
vertex -10.289148 36.281635 20.536633
vertex -11.559553 37.066799 15.279380
endloop
endfacet
facet normal -0.534577 0.330386 0.777864
outer loop
vertex -8.930930 31.809441 23.369545
vertex -5.681763 37.066818 23.369495
vertex -10.289148 36.281635 20.536633
endloop
endfacet
facet normal -0.303530 0.187597 0.934172
outer loop
vertex -8.930930 31.809441 23.369545
vertex -3.053076 31.809441 25.279379
vertex -5.681763 37.066818 23.369495
endloop
endfacet
facet normal -0.024748 0.330386 0.943521
outer loop
vertex -3.053076 31.809441 25.279379
vertex -0.289196 36.281639 23.785873
vertex -5.681763 37.066818 23.369495
endloop
endfacet
facet normal 0.574602 0.330387 0.748784
outer loop
vertex 2.824779 31.809441 23.369545
vertex 3.828817 37.066803 20.279348
vertex -0.289196 36.281639 23.785873
endloop
endfacet
facet normal 0.794655 0.187595 0.577348
outer loop
vertex 2.824779 31.809441 23.369545
vertex 6.457501 31.809441 18.369507
vertex 3.828817 37.066803 20.279348
endloop
endfacet
facet normal 0.889697 0.330385 0.315095
outer loop
vertex 6.457501 31.809441 18.369507
vertex 5.891185 36.281597 15.279380
vertex 3.828817 37.066803 20.279348
endloop
endfacet
facet normal 0.306569 0.125628 -0.943521
outer loop
vertex 2.824779 31.809441 7.189214
vertex -3.053076 31.809441 5.279381
vertex -0.289196 36.281639 6.772887
endloop
endfacet
facet normal 0.303531 -0.187598 -0.934171
outer loop
vertex 2.824779 31.809441 7.189214
vertex -0.424388 26.552065 7.189265
vertex -3.053076 31.809441 5.279381
endloop
endfacet
facet normal 0.024747 -0.330386 -0.943521
outer loop
vertex -0.424388 26.552065 7.189265
vertex -5.816956 27.337242 6.772887
vertex -3.053076 31.809441 5.279381
endloop
endfacet
facet normal -0.802609 0.125627 -0.583127
outer loop
vertex -8.930930 31.809441 7.189214
vertex -12.563653 31.809441 12.189254
vertex -10.289148 36.281635 10.022127
endloop
endfacet
facet normal -0.794656 -0.187595 -0.577348
outer loop
vertex -8.930930 31.809441 7.189214
vertex -9.934968 26.552080 10.279411
vertex -12.563653 31.809441 12.189254
endloop
endfacet
facet normal -0.889697 -0.330385 -0.315094
outer loop
vertex -9.934968 26.552080 10.279411
vertex -11.997336 27.337284 15.279380
vertex -12.563653 31.809441 12.189254
endloop
endfacet
facet normal -0.802609 0.125627 0.583127
outer loop
vertex -12.563653 31.809441 18.369507
vertex -8.930930 31.809441 23.369545
vertex -10.289148 36.281635 20.536633
endloop
endfacet
facet normal -0.794655 -0.187595 0.577348
outer loop
vertex -12.563653 31.809441 18.369507
vertex -9.934968 26.552080 20.279348
vertex -8.930930 31.809441 23.369545
endloop
endfacet
facet normal -0.574602 -0.330387 0.748784
outer loop
vertex -9.934968 26.552080 20.279348
vertex -5.816956 27.337242 23.785873
vertex -8.930930 31.809441 23.369545
endloop
endfacet
facet normal 0.306569 0.125628 0.943522
outer loop
vertex -3.053076 31.809441 25.279379
vertex 2.824779 31.809441 23.369545
vertex -0.289196 36.281639 23.785873
endloop
endfacet
facet normal 0.303531 -0.187597 0.934171
outer loop
vertex -3.053076 31.809441 25.279379
vertex -0.424388 26.552065 23.369495
vertex 2.824779 31.809441 23.369545
endloop
endfacet
facet normal 0.534576 -0.330387 0.777864
outer loop
vertex -0.424388 26.552065 23.369495
vertex 4.182998 27.337246 20.536633
vertex 2.824779 31.809441 23.369545
endloop
endfacet
facet normal 0.992077 0.125628 0.000000
outer loop
vertex 6.457501 31.809441 18.369507
vertex 6.457501 31.809441 12.189254
vertex 5.891185 36.281597 15.279380
endloop
endfacet
facet normal 0.982246 -0.187599 0.000000
outer loop
vertex 6.457501 31.809441 18.369507
vertex 5.453402 26.552082 15.279380
vertex 6.457501 31.809441 12.189254
endloop
endfacet
facet normal 0.904989 -0.330384 -0.268031
outer loop
vertex 5.453402 26.552082 15.279380
vertex 4.182998 27.337246 10.022127
vertex 6.457501 31.809441 12.189254
endloop
endfacet
facet normal 0.471299 -0.661699 -0.583123
outer loop
vertex 1.200151 23.302900 12.189266
vertex -0.424388 26.552065 7.189265
vertex 4.182998 27.337246 10.022127
endloop
endfacet
facet normal 0.187594 -0.794658 -0.577345
outer loop
vertex 1.200151 23.302900 12.189266
vertex -4.677631 23.302898 10.279428
vertex -0.424388 26.552065 7.189265
endloop
endfacet
facet normal -0.038530 -0.661700 -0.748778
outer loop
vertex -4.677631 23.302898 10.279428
vertex -5.816956 27.337242 6.772887
vertex -0.424388 26.552065 7.189265
endloop
endfacet
facet normal -0.408946 -0.661699 -0.628424
outer loop
vertex -4.677631 23.302898 10.279428
vertex -9.934968 26.552080 10.279411
vertex -5.816956 27.337242 6.772887
endloop
endfacet
facet normal -0.491119 -0.794657 -0.356821
outer loop
vertex -4.677631 23.302898 10.279428
vertex -8.310372 23.302925 15.279380
vertex -9.934968 26.552080 10.279411
endloop
endfacet
facet normal -0.724042 -0.661696 -0.194736
outer loop
vertex -8.310372 23.302925 15.279380
vertex -11.997336 27.337284 15.279380
vertex -9.934968 26.552080 10.279411
endloop
endfacet
facet normal -0.724042 -0.661696 0.194736
outer loop
vertex -8.310372 23.302925 15.279380
vertex -9.934968 26.552080 20.279348
vertex -11.997336 27.337284 15.279380
endloop
endfacet
facet normal -0.491119 -0.794657 0.356822
outer loop
vertex -8.310372 23.302925 15.279380
vertex -4.677631 23.302898 20.279331
vertex -9.934968 26.552080 20.279348
endloop
endfacet
facet normal -0.408947 -0.661699 0.628424
outer loop
vertex -4.677631 23.302898 20.279331
vertex -5.816956 27.337242 23.785873
vertex -9.934968 26.552080 20.279348
endloop
endfacet
facet normal 0.700224 -0.661699 -0.268031
outer loop
vertex 5.453402 26.552082 15.279380
vertex 1.200151 23.302900 12.189266
vertex 4.182998 27.337246 10.022127
endloop
endfacet
facet normal 0.607060 -0.794656 0.000000
outer loop
vertex 5.453402 26.552082 15.279380
vertex 1.200151 23.302900 18.369493
vertex 1.200151 23.302900 12.189266
endloop
endfacet
facet normal 0.331305 -0.943524 0.000000
outer loop
vertex 1.200151 23.302900 18.369493
vertex -3.053076 21.809441 15.279380
vertex 1.200151 23.302900 12.189266
endloop
endfacet
facet normal -0.038530 -0.661700 0.748778
outer loop
vertex -4.677631 23.302898 20.279331
vertex -0.424388 26.552065 23.369495
vertex -5.816956 27.337242 23.785873
endloop
endfacet
facet normal 0.187594 -0.794658 0.577346
outer loop
vertex -4.677631 23.302898 20.279331
vertex 1.200151 23.302900 18.369493
vertex -0.424388 26.552065 23.369495
endloop
endfacet
facet normal 0.471299 -0.661699 0.583123
outer loop
vertex 1.200151 23.302900 18.369493
vertex 4.182998 27.337246 20.536633
vertex -0.424388 26.552065 23.369495
endloop
endfacet
endsolid Exported from Blender-2.74 (sub 0)
