solid Exported from Blender-2.74 (sub 0)
facet normal 0.102381 -0.943523 0.315091
outer loop
vertex -6.978157 47.245827 7.981353
vertex -2.724930 48.739288 11.071466
vertex -8.602712 48.739285 12.981305
endloop
endfacet
facet normal 0.700224 -0.661699 0.268032
outer loop
vertex 0.257916 52.773632 13.238605
vertex -2.724930 48.739288 11.071466
vertex 1.528321 51.988468 7.981353
endloop
endfacet
facet normal -0.268034 -0.943523 0.194736
outer loop
vertex -6.978157 47.245827 7.981353
vertex -8.602712 48.739285 12.981305
vertex -12.235454 48.739311 7.981353
endloop
endfacet
facet normal -0.268034 -0.943523 -0.194736
outer loop
vertex -6.978157 47.245827 7.981353
vertex -12.235454 48.739311 7.981353
vertex -8.602712 48.739285 2.981400
endloop
endfacet
facet normal 0.102381 -0.943523 -0.315091
outer loop
vertex -6.978157 47.245827 7.981353
vertex -8.602712 48.739285 2.981400
vertex -2.724930 48.739288 4.891239
endloop
endfacet
facet normal 0.904989 -0.330384 0.268031
outer loop
vertex 0.257916 52.773632 13.238605
vertex 1.528321 51.988468 7.981353
vertex 2.532421 57.245827 11.071479
endloop
endfacet
facet normal 0.024748 -0.330386 0.943521
outer loop
vertex -9.742037 52.773628 16.487846
vertex -4.349469 51.988449 16.071468
vertex -6.978157 57.245827 17.981352
endloop
endfacet
facet normal -0.889697 -0.330384 0.315095
outer loop
vertex -15.922417 52.773670 7.981353
vertex -13.860048 51.988464 12.981321
vertex -16.488733 57.245827 11.071479
endloop
endfacet
facet normal -0.574602 -0.330388 -0.748783
outer loop
vertex -9.742037 52.773628 -0.525140
vertex -13.860048 51.988464 2.981384
vertex -12.856011 57.245827 -0.108813
endloop
endfacet
facet normal 0.534576 -0.330387 -0.777864
outer loop
vertex 0.257916 52.773632 2.724100
vertex -4.349469 51.988449 -0.108762
vertex -1.100302 57.245827 -0.108813
endloop
endfacet
facet normal 0.802609 -0.125627 0.583127
outer loop
vertex 0.257916 52.773632 13.238605
vertex 2.532421 57.245827 11.071479
vertex -1.100302 57.245827 16.071518
endloop
endfacet
facet normal -0.306569 -0.125628 0.943522
outer loop
vertex -9.742037 52.773628 16.487846
vertex -6.978157 57.245827 17.981352
vertex -12.856011 57.245827 16.071518
endloop
endfacet
facet normal -0.992077 -0.125629 0.000000
outer loop
vertex -15.922417 52.773670 7.981353
vertex -16.488733 57.245827 11.071479
vertex -16.488733 57.245827 4.891227
endloop
endfacet
facet normal -0.306569 -0.125628 -0.943522
outer loop
vertex -9.742037 52.773628 -0.525140
vertex -12.856011 57.245827 -0.108813
vertex -6.978157 57.245827 -2.018646
endloop
endfacet
facet normal 0.802609 -0.125627 -0.583127
outer loop
vertex 0.257916 52.773632 2.724100
vertex -1.100302 57.245827 -0.108813
vertex 2.532421 57.245827 4.891227
endloop
endfacet
facet normal 0.408947 0.661699 0.628424
outer loop
vertex -4.214276 61.718025 16.487846
vertex -0.096264 62.503189 12.981321
vertex -5.353601 65.752373 12.981305
endloop
endfacet
facet normal -0.471300 0.661699 0.583122
outer loop
vertex -14.214230 61.718021 13.238605
vertex -9.606844 62.503204 16.071468
vertex -11.231382 65.752365 11.071466
endloop
endfacet
facet normal -0.700224 0.661699 -0.268032
outer loop
vertex -14.214230 61.718021 2.724100
vertex -15.484634 62.503185 7.981353
vertex -11.231382 65.752365 4.891239
endloop
endfacet
facet normal 0.038530 0.661699 -0.748779
outer loop
vertex -4.214276 61.718025 -0.525140
vertex -9.606844 62.503204 -0.108762
vertex -5.353601 65.752373 2.981400
endloop
endfacet
facet normal 0.724042 0.661695 -0.194736
outer loop
vertex 1.966104 61.717983 7.981353
vertex -0.096264 62.503189 2.981384
vertex -1.720860 65.752342 7.981353
endloop
endfacet
facet normal 0.268034 0.943523 -0.194736
outer loop
vertex -1.720860 65.752342 7.981353
vertex -5.353601 65.752373 2.981400
vertex -6.978157 67.245827 7.981353
endloop
endfacet
facet normal 0.491119 0.794657 -0.356822
outer loop
vertex -1.720860 65.752342 7.981353
vertex -0.096264 62.503189 2.981384
vertex -5.353601 65.752373 2.981400
endloop
endfacet
facet normal 0.408947 0.661699 -0.628424
outer loop
vertex -0.096264 62.503189 2.981384
vertex -4.214276 61.718025 -0.525140
vertex -5.353601 65.752373 2.981400
endloop
endfacet
facet normal -0.102382 0.943522 -0.315093
outer loop
vertex -5.353601 65.752373 2.981400
vertex -11.231382 65.752365 4.891239
vertex -6.978157 67.245827 7.981353
endloop
endfacet
facet normal -0.187595 0.794658 -0.577344
outer loop
vertex -5.353601 65.752373 2.981400
vertex -9.606844 62.503204 -0.108762
vertex -11.231382 65.752365 4.891239
endloop
endfacet
facet normal -0.471300 0.661699 -0.583121
outer loop
vertex -9.606844 62.503204 -0.108762
vertex -14.214230 61.718021 2.724100
vertex -11.231382 65.752365 4.891239
endloop
endfacet
facet normal -0.331305 0.943524 0.000000
outer loop
vertex -11.231382 65.752365 4.891239
vertex -11.231382 65.752365 11.071466
vertex -6.978157 67.245827 7.981353
endloop
endfacet
facet normal -0.607060 0.794656 0.000000
outer loop
vertex -11.231382 65.752365 4.891239
vertex -15.484634 62.503185 7.981353
vertex -11.231382 65.752365 11.071466
endloop
endfacet
facet normal -0.700224 0.661699 0.268032
outer loop
vertex -15.484634 62.503185 7.981353
vertex -14.214230 61.718021 13.238605
vertex -11.231382 65.752365 11.071466
endloop
endfacet
facet normal -0.102382 0.943522 0.315093
outer loop
vertex -11.231382 65.752365 11.071466
vertex -5.353601 65.752373 12.981305
vertex -6.978157 67.245827 7.981353
endloop
endfacet
facet normal -0.187595 0.794658 0.577344
outer loop
vertex -11.231382 65.752365 11.071466
vertex -9.606844 62.503204 16.071468
vertex -5.353601 65.752373 12.981305
endloop
endfacet
facet normal 0.038530 0.661699 0.748779
outer loop
vertex -9.606844 62.503204 16.071468
vertex -4.214276 61.718025 16.487846
vertex -5.353601 65.752373 12.981305
endloop
endfacet
facet normal 0.268034 0.943523 0.194736
outer loop
vertex -5.353601 65.752373 12.981305
vertex -1.720860 65.752342 7.981353
vertex -6.978157 67.245827 7.981353
endloop
endfacet
facet normal 0.491120 0.794657 0.356822
outer loop
vertex -5.353601 65.752373 12.981305
vertex -0.096264 62.503189 12.981321
vertex -1.720860 65.752342 7.981353
endloop
endfacet
facet normal 0.724042 0.661695 0.194737
outer loop
vertex -0.096264 62.503189 12.981321
vertex 1.966104 61.717983 7.981353
vertex -1.720860 65.752342 7.981353
endloop
endfacet
facet normal 0.889697 0.330385 -0.315095
outer loop
vertex 2.532421 57.245827 4.891227
vertex -0.096264 62.503189 2.981384
vertex 1.966104 61.717983 7.981353
endloop
endfacet
facet normal 0.794655 0.187595 -0.577348
outer loop
vertex 2.532421 57.245827 4.891227
vertex -1.100302 57.245827 -0.108813
vertex -0.096264 62.503189 2.981384
endloop
endfacet
facet normal 0.574602 0.330388 -0.748783
outer loop
vertex -1.100302 57.245827 -0.108813
vertex -4.214276 61.718025 -0.525140
vertex -0.096264 62.503189 2.981384
endloop
endfacet
facet normal -0.024747 0.330386 -0.943521
outer loop
vertex -6.978157 57.245827 -2.018646
vertex -9.606844 62.503204 -0.108762
vertex -4.214276 61.718025 -0.525140
endloop
endfacet
facet normal -0.303531 0.187598 -0.934171
outer loop
vertex -6.978157 57.245827 -2.018646
vertex -12.856011 57.245827 -0.108813
vertex -9.606844 62.503204 -0.108762
endloop
endfacet
facet normal -0.534576 0.330386 -0.777865
outer loop
vertex -12.856011 57.245827 -0.108813
vertex -14.214230 61.718021 2.724100
vertex -9.606844 62.503204 -0.108762
endloop
endfacet
facet normal -0.904989 0.330384 -0.268031
outer loop
vertex -16.488733 57.245827 4.891227
vertex -15.484634 62.503185 7.981353
vertex -14.214230 61.718021 2.724100
endloop
endfacet
facet normal -0.982246 0.187598 0.000000
outer loop
vertex -16.488733 57.245827 4.891227
vertex -16.488733 57.245827 11.071479
vertex -15.484634 62.503185 7.981353
endloop
endfacet
facet normal -0.904989 0.330384 0.268031
outer loop
vertex -16.488733 57.245827 11.071479
vertex -14.214230 61.718021 13.238605
vertex -15.484634 62.503185 7.981353
endloop
endfacet
facet normal -0.534576 0.330386 0.777865
outer loop
vertex -12.856011 57.245827 16.071518
vertex -9.606844 62.503204 16.071468
vertex -14.214230 61.718021 13.238605
endloop
endfacet
facet normal -0.303531 0.187597 0.934171
outer loop
vertex -12.856011 57.245827 16.071518
vertex -6.978157 57.245827 17.981352
vertex -9.606844 62.503204 16.071468
endloop
endfacet
facet normal -0.024748 0.330386 0.943521
outer loop
vertex -6.978157 57.245827 17.981352
vertex -4.214276 61.718025 16.487846
vertex -9.606844 62.503204 16.071468
endloop
endfacet
facet normal 0.574602 0.330387 0.748783
outer loop
vertex -1.100302 57.245827 16.071518
vertex -0.096264 62.503189 12.981321
vertex -4.214276 61.718025 16.487846
endloop
endfacet
facet normal 0.794656 0.187595 0.577348
outer loop
vertex -1.100302 57.245827 16.071518
vertex 2.532421 57.245827 11.071479
vertex -0.096264 62.503189 12.981321
endloop
endfacet
facet normal 0.889697 0.330385 0.315095
outer loop
vertex 2.532421 57.245827 11.071479
vertex 1.966104 61.717983 7.981353
vertex -0.096264 62.503189 12.981321
endloop
endfacet
facet normal 0.306569 0.125628 -0.943522
outer loop
vertex -1.100302 57.245827 -0.108813
vertex -6.978157 57.245827 -2.018646
vertex -4.214276 61.718025 -0.525140
endloop
endfacet
facet normal 0.303531 -0.187597 -0.934171
outer loop
vertex -1.100302 57.245827 -0.108813
vertex -4.349469 51.988449 -0.108762
vertex -6.978157 57.245827 -2.018646
endloop
endfacet
facet normal 0.024747 -0.330386 -0.943521
outer loop
vertex -4.349469 51.988449 -0.108762
vertex -9.742037 52.773628 -0.525140
vertex -6.978157 57.245827 -2.018646
endloop
endfacet
facet normal -0.802609 0.125627 -0.583126
outer loop
vertex -12.856011 57.245827 -0.108813
vertex -16.488733 57.245827 4.891227
vertex -14.214230 61.718021 2.724100
endloop
endfacet
facet normal -0.794656 -0.187595 -0.577348
outer loop
vertex -12.856011 57.245827 -0.108813
vertex -13.860048 51.988464 2.981384
vertex -16.488733 57.245827 4.891227
endloop
endfacet
facet normal -0.889697 -0.330384 -0.315095
outer loop
vertex -13.860048 51.988464 2.981384
vertex -15.922417 52.773670 7.981353
vertex -16.488733 57.245827 4.891227
endloop
endfacet
facet normal -0.802609 0.125627 0.583126
outer loop
vertex -16.488733 57.245827 11.071479
vertex -12.856011 57.245827 16.071518
vertex -14.214230 61.718021 13.238605
endloop
endfacet
facet normal -0.794656 -0.187595 0.577348
outer loop
vertex -16.488733 57.245827 11.071479
vertex -13.860048 51.988464 12.981321
vertex -12.856011 57.245827 16.071518
endloop
endfacet
facet normal -0.574602 -0.330387 0.748783
outer loop
vertex -13.860048 51.988464 12.981321
vertex -9.742037 52.773628 16.487846
vertex -12.856011 57.245827 16.071518
endloop
endfacet
facet normal 0.306570 0.125628 0.943521
outer loop
vertex -6.978157 57.245827 17.981352
vertex -1.100302 57.245827 16.071518
vertex -4.214276 61.718025 16.487846
endloop
endfacet
facet normal 0.303531 -0.187597 0.934171
outer loop
vertex -6.978157 57.245827 17.981352
vertex -4.349469 51.988449 16.071468
vertex -1.100302 57.245827 16.071518
endloop
endfacet
facet normal 0.534576 -0.330386 0.777864
outer loop
vertex -4.349469 51.988449 16.071468
vertex 0.257916 52.773632 13.238605
vertex -1.100302 57.245827 16.071518
endloop
endfacet
facet normal 0.992077 0.125628 0.000000
outer loop
vertex 2.532421 57.245827 11.071479
vertex 2.532421 57.245827 4.891227
vertex 1.966104 61.717983 7.981353
endloop
endfacet
facet normal 0.982246 -0.187599 0.000000
outer loop
vertex 2.532421 57.245827 11.071479
vertex 1.528321 51.988468 7.981353
vertex 2.532421 57.245827 4.891227
endloop
endfacet
facet normal 0.904989 -0.330384 -0.268031
outer loop
vertex 1.528321 51.988468 7.981353
vertex 0.257916 52.773632 2.724100
vertex 2.532421 57.245827 4.891227
endloop
endfacet
facet normal 0.471299 -0.661699 -0.583123
outer loop
vertex -2.724930 48.739288 4.891239
vertex -4.349469 51.988449 -0.108762
vertex 0.257916 52.773632 2.724100
endloop
endfacet
facet normal 0.187594 -0.794658 -0.577345
outer loop
vertex -2.724930 48.739288 4.891239
vertex -8.602712 48.739285 2.981400
vertex -4.349469 51.988449 -0.108762
endloop
endfacet
facet normal -0.038530 -0.661699 -0.748779
outer loop
vertex -8.602712 48.739285 2.981400
vertex -9.742037 52.773628 -0.525140
vertex -4.349469 51.988449 -0.108762
endloop
endfacet
facet normal -0.408946 -0.661699 -0.628425
outer loop
vertex -8.602712 48.739285 2.981400
vertex -13.860048 51.988464 2.981384
vertex -9.742037 52.773628 -0.525140
endloop
endfacet
facet normal -0.491119 -0.794657 -0.356822
outer loop
vertex -8.602712 48.739285 2.981400
vertex -12.235454 48.739311 7.981353
vertex -13.860048 51.988464 2.981384
endloop
endfacet
facet normal -0.724042 -0.661696 -0.194736
outer loop
vertex -12.235454 48.739311 7.981353
vertex -15.922417 52.773670 7.981353
vertex -13.860048 51.988464 2.981384
endloop
endfacet
facet normal -0.724042 -0.661696 0.194736
outer loop
vertex -12.235454 48.739311 7.981353
vertex -13.860048 51.988464 12.981321
vertex -15.922417 52.773670 7.981353
endloop
endfacet
facet normal -0.491119 -0.794657 0.356822
outer loop
vertex -12.235454 48.739311 7.981353
vertex -8.602712 48.739285 12.981305
vertex -13.860048 51.988464 12.981321
endloop
endfacet
facet normal -0.408946 -0.661699 0.628425
outer loop
vertex -8.602712 48.739285 12.981305
vertex -9.742037 52.773628 16.487846
vertex -13.860048 51.988464 12.981321
endloop
endfacet
facet normal 0.700224 -0.661699 -0.268032
outer loop
vertex 1.528321 51.988468 7.981353
vertex -2.724930 48.739288 4.891239
vertex 0.257916 52.773632 2.724100
endloop
endfacet
facet normal 0.607060 -0.794656 0.000000
outer loop
vertex 1.528321 51.988468 7.981353
vertex -2.724930 48.739288 11.071466
vertex -2.724930 48.739288 4.891239
endloop
endfacet
facet normal 0.331305 -0.943524 0.000000
outer loop
vertex -2.724930 48.739288 11.071466
vertex -6.978157 47.245827 7.981353
vertex -2.724930 48.739288 4.891239
endloop
endfacet
facet normal -0.038530 -0.661699 0.748779
outer loop
vertex -8.602712 48.739285 12.981305
vertex -4.349469 51.988449 16.071468
vertex -9.742037 52.773628 16.487846
endloop
endfacet
facet normal 0.187594 -0.794658 0.577345
outer loop
vertex -8.602712 48.739285 12.981305
vertex -2.724930 48.739288 11.071466
vertex -4.349469 51.988449 16.071468
endloop
endfacet
facet normal 0.471300 -0.661699 0.583122
outer loop
vertex -2.724930 48.739288 11.071466
vertex 0.257916 52.773632 13.238605
vertex -4.349469 51.988449 16.071468
endloop
endfacet
endsolid Exported from Blender-2.74 (sub 0)
