solid Exported from Blender-2.74 (sub 0)
facet normal 0.102381 -0.943524 0.315089
outer loop
vertex -1.573856 45.440651 -3.698117
vertex 2.679370 46.934113 -0.608004
vertex -3.198411 46.934109 1.301835
endloop
endfacet
facet normal 0.700224 -0.661699 0.268032
outer loop
vertex 5.662217 50.968456 1.559136
vertex 2.679370 46.934113 -0.608004
vertex 6.932621 50.183292 -3.698117
endloop
endfacet
facet normal -0.268034 -0.943523 0.194736
outer loop
vertex -1.573856 45.440651 -3.698117
vertex -3.198411 46.934109 1.301835
vertex -6.831153 46.934135 -3.698117
endloop
endfacet
facet normal -0.268034 -0.943523 -0.194736
outer loop
vertex -1.573856 45.440651 -3.698117
vertex -6.831153 46.934135 -3.698117
vertex -3.198411 46.934109 -8.698070
endloop
endfacet
facet normal 0.102381 -0.943524 -0.315089
outer loop
vertex -1.573856 45.440651 -3.698117
vertex -3.198411 46.934109 -8.698070
vertex 2.679370 46.934113 -6.788231
endloop
endfacet
facet normal 0.904989 -0.330385 0.268031
outer loop
vertex 5.662217 50.968456 1.559136
vertex 6.932621 50.183292 -3.698117
vertex 7.936721 55.440651 -0.607991
endloop
endfacet
facet normal 0.024747 -0.330387 0.943521
outer loop
vertex -4.337736 50.968452 4.808375
vertex 1.054832 50.183273 4.391997
vertex -1.573856 55.440651 6.301882
endloop
endfacet
facet normal -0.889697 -0.330385 0.315095
outer loop
vertex -10.518116 50.968494 -3.698117
vertex -8.455748 50.183289 1.301851
vertex -11.084433 55.440651 -0.607991
endloop
endfacet
facet normal -0.574602 -0.330387 -0.748783
outer loop
vertex -4.337736 50.968452 -12.204610
vertex -8.455748 50.183289 -8.698086
vertex -7.451711 55.440651 -11.788283
endloop
endfacet
facet normal 0.534576 -0.330387 -0.777864
outer loop
vertex 5.662217 50.968456 -8.955371
vertex 1.054832 50.183273 -11.788232
vertex 4.303999 55.440651 -11.788283
endloop
endfacet
facet normal 0.802609 -0.125627 0.583127
outer loop
vertex 5.662217 50.968456 1.559136
vertex 7.936721 55.440651 -0.607991
vertex 4.303999 55.440651 4.392049
endloop
endfacet
facet normal -0.306569 -0.125628 0.943522
outer loop
vertex -4.337736 50.968452 4.808375
vertex -1.573856 55.440651 6.301882
vertex -7.451711 55.440651 4.392049
endloop
endfacet
facet normal -0.992077 -0.125629 0.000000
outer loop
vertex -10.518116 50.968494 -3.698117
vertex -11.084433 55.440651 -0.607991
vertex -11.084433 55.440651 -6.788244
endloop
endfacet
facet normal -0.306569 -0.125628 -0.943522
outer loop
vertex -4.337736 50.968452 -12.204610
vertex -7.451711 55.440651 -11.788283
vertex -1.573856 55.440651 -13.698116
endloop
endfacet
facet normal 0.802609 -0.125627 -0.583127
outer loop
vertex 5.662217 50.968456 -8.955371
vertex 4.303999 55.440651 -11.788283
vertex 7.936721 55.440651 -6.788244
endloop
endfacet
facet normal 0.408947 0.661700 0.628423
outer loop
vertex 1.190024 59.912849 4.808375
vertex 5.308036 60.698013 1.301851
vertex 0.050700 63.947193 1.301835
endloop
endfacet
facet normal -0.471300 0.661699 0.583122
outer loop
vertex -8.809929 59.912846 1.559136
vertex -4.202543 60.698029 4.391997
vertex -5.827082 63.947189 -0.608004
endloop
endfacet
facet normal -0.700223 0.661699 -0.268034
outer loop
vertex -8.809929 59.912846 -8.955371
vertex -10.080334 60.698009 -3.698117
vertex -5.827082 63.947189 -6.788231
endloop
endfacet
facet normal 0.038530 0.661699 -0.748779
outer loop
vertex 1.190024 59.912849 -12.204610
vertex -4.202544 60.698029 -11.788232
vertex 0.050700 63.947193 -8.698070
endloop
endfacet
facet normal 0.724042 0.661696 -0.194736
outer loop
vertex 7.370405 59.912807 -3.698117
vertex 5.308036 60.698013 -8.698086
vertex 3.683441 63.947166 -3.698117
endloop
endfacet
facet normal 0.268034 0.943523 -0.194736
outer loop
vertex 3.683441 63.947166 -3.698117
vertex 0.050700 63.947193 -8.698070
vertex -1.573856 65.440651 -3.698117
endloop
endfacet
facet normal 0.491119 0.794657 -0.356822
outer loop
vertex 3.683441 63.947166 -3.698117
vertex 5.308036 60.698013 -8.698086
vertex 0.050700 63.947193 -8.698070
endloop
endfacet
facet normal 0.408947 0.661700 -0.628423
outer loop
vertex 5.308036 60.698013 -8.698086
vertex 1.190024 59.912849 -12.204610
vertex 0.050700 63.947193 -8.698070
endloop
endfacet
facet normal -0.102381 0.943522 -0.315093
outer loop
vertex 0.050700 63.947193 -8.698070
vertex -5.827082 63.947189 -6.788231
vertex -1.573856 65.440651 -3.698117
endloop
endfacet
facet normal -0.187595 0.794659 -0.577344
outer loop
vertex 0.050700 63.947193 -8.698070
vertex -4.202544 60.698029 -11.788232
vertex -5.827082 63.947189 -6.788231
endloop
endfacet
facet normal -0.471299 0.661699 -0.583122
outer loop
vertex -4.202544 60.698029 -11.788232
vertex -8.809929 59.912846 -8.955371
vertex -5.827082 63.947189 -6.788231
endloop
endfacet
facet normal -0.331305 0.943524 0.000000
outer loop
vertex -5.827082 63.947189 -6.788231
vertex -5.827082 63.947189 -0.608004
vertex -1.573856 65.440651 -3.698117
endloop
endfacet
facet normal -0.607060 0.794656 0.000000
outer loop
vertex -5.827082 63.947189 -6.788231
vertex -10.080334 60.698009 -3.698117
vertex -5.827082 63.947189 -0.608004
endloop
endfacet
facet normal -0.700223 0.661699 0.268033
outer loop
vertex -10.080334 60.698009 -3.698117
vertex -8.809929 59.912846 1.559136
vertex -5.827082 63.947189 -0.608004
endloop
endfacet
facet normal -0.102381 0.943522 0.315093
outer loop
vertex -5.827082 63.947189 -0.608004
vertex 0.050700 63.947193 1.301835
vertex -1.573856 65.440651 -3.698117
endloop
endfacet
facet normal -0.187595 0.794659 0.577343
outer loop
vertex -5.827082 63.947189 -0.608004
vertex -4.202543 60.698029 4.391997
vertex 0.050700 63.947193 1.301835
endloop
endfacet
facet normal 0.038530 0.661700 0.748778
outer loop
vertex -4.202543 60.698029 4.391997
vertex 1.190024 59.912849 4.808375
vertex 0.050700 63.947193 1.301835
endloop
endfacet
facet normal 0.268034 0.943523 0.194736
outer loop
vertex 0.050700 63.947193 1.301835
vertex 3.683441 63.947166 -3.698117
vertex -1.573856 65.440651 -3.698117
endloop
endfacet
facet normal 0.491119 0.794657 0.356822
outer loop
vertex 0.050700 63.947193 1.301835
vertex 5.308036 60.698013 1.301851
vertex 3.683441 63.947166 -3.698117
endloop
endfacet
facet normal 0.724042 0.661695 0.194736
outer loop
vertex 5.308036 60.698013 1.301851
vertex 7.370405 59.912807 -3.698117
vertex 3.683441 63.947166 -3.698117
endloop
endfacet
facet normal 0.889697 0.330384 -0.315095
outer loop
vertex 7.936721 55.440651 -6.788244
vertex 5.308036 60.698013 -8.698086
vertex 7.370405 59.912807 -3.698117
endloop
endfacet
facet normal 0.794656 0.187595 -0.577348
outer loop
vertex 7.936721 55.440651 -6.788244
vertex 4.303999 55.440651 -11.788283
vertex 5.308036 60.698013 -8.698086
endloop
endfacet
facet normal 0.574601 0.330387 -0.748784
outer loop
vertex 4.303999 55.440651 -11.788283
vertex 1.190024 59.912849 -12.204610
vertex 5.308036 60.698013 -8.698086
endloop
endfacet
facet normal -0.024747 0.330387 -0.943521
outer loop
vertex -1.573856 55.440651 -13.698116
vertex -4.202544 60.698029 -11.788232
vertex 1.190024 59.912849 -12.204610
endloop
endfacet
facet normal -0.303531 0.187598 -0.934171
outer loop
vertex -1.573856 55.440651 -13.698116
vertex -7.451711 55.440651 -11.788283
vertex -4.202544 60.698029 -11.788232
endloop
endfacet
facet normal -0.534576 0.330386 -0.777865
outer loop
vertex -7.451711 55.440651 -11.788283
vertex -8.809929 59.912846 -8.955371
vertex -4.202544 60.698029 -11.788232
endloop
endfacet
facet normal -0.904990 0.330384 -0.268030
outer loop
vertex -11.084433 55.440651 -6.788244
vertex -10.080334 60.698009 -3.698117
vertex -8.809929 59.912846 -8.955371
endloop
endfacet
facet normal -0.982246 0.187598 0.000000
outer loop
vertex -11.084433 55.440651 -6.788244
vertex -11.084433 55.440651 -0.607991
vertex -10.080334 60.698009 -3.698117
endloop
endfacet
facet normal -0.904989 0.330385 0.268030
outer loop
vertex -11.084433 55.440651 -0.607991
vertex -8.809929 59.912846 1.559136
vertex -10.080334 60.698009 -3.698117
endloop
endfacet
facet normal -0.534576 0.330386 0.777865
outer loop
vertex -7.451711 55.440651 4.392049
vertex -4.202543 60.698029 4.391997
vertex -8.809929 59.912846 1.559136
endloop
endfacet
facet normal -0.303531 0.187598 0.934171
outer loop
vertex -7.451711 55.440651 4.392049
vertex -1.573856 55.440651 6.301882
vertex -4.202543 60.698029 4.391997
endloop
endfacet
facet normal -0.024747 0.330385 0.943522
outer loop
vertex -1.573856 55.440651 6.301882
vertex 1.190024 59.912849 4.808375
vertex -4.202543 60.698029 4.391997
endloop
endfacet
facet normal 0.574601 0.330387 0.748784
outer loop
vertex 4.303999 55.440651 4.392049
vertex 5.308036 60.698013 1.301851
vertex 1.190024 59.912849 4.808375
endloop
endfacet
facet normal 0.794656 0.187595 0.577348
outer loop
vertex 4.303999 55.440651 4.392049
vertex 7.936721 55.440651 -0.607991
vertex 5.308036 60.698013 1.301851
endloop
endfacet
facet normal 0.889697 0.330385 0.315095
outer loop
vertex 7.936721 55.440651 -0.607991
vertex 7.370405 59.912807 -3.698117
vertex 5.308036 60.698013 1.301851
endloop
endfacet
facet normal 0.306569 0.125628 -0.943522
outer loop
vertex 4.303999 55.440651 -11.788283
vertex -1.573856 55.440651 -13.698116
vertex 1.190024 59.912849 -12.204610
endloop
endfacet
facet normal 0.303531 -0.187598 -0.934171
outer loop
vertex 4.303999 55.440651 -11.788283
vertex 1.054832 50.183273 -11.788232
vertex -1.573856 55.440651 -13.698116
endloop
endfacet
facet normal 0.024747 -0.330386 -0.943521
outer loop
vertex 1.054832 50.183273 -11.788232
vertex -4.337736 50.968452 -12.204610
vertex -1.573856 55.440651 -13.698116
endloop
endfacet
facet normal -0.802609 0.125627 -0.583127
outer loop
vertex -7.451711 55.440651 -11.788283
vertex -11.084433 55.440651 -6.788244
vertex -8.809929 59.912846 -8.955371
endloop
endfacet
facet normal -0.794655 -0.187595 -0.577348
outer loop
vertex -7.451711 55.440651 -11.788283
vertex -8.455748 50.183289 -8.698086
vertex -11.084433 55.440651 -6.788244
endloop
endfacet
facet normal -0.889697 -0.330384 -0.315095
outer loop
vertex -8.455748 50.183289 -8.698086
vertex -10.518116 50.968494 -3.698117
vertex -11.084433 55.440651 -6.788244
endloop
endfacet
facet normal -0.802609 0.125627 0.583127
outer loop
vertex -11.084433 55.440651 -0.607991
vertex -7.451711 55.440651 4.392049
vertex -8.809929 59.912846 1.559136
endloop
endfacet
facet normal -0.794656 -0.187595 0.577348
outer loop
vertex -11.084433 55.440651 -0.607991
vertex -8.455748 50.183289 1.301851
vertex -7.451711 55.440651 4.392049
endloop
endfacet
facet normal -0.574602 -0.330388 0.748783
outer loop
vertex -8.455748 50.183289 1.301851
vertex -4.337736 50.968452 4.808375
vertex -7.451711 55.440651 4.392049
endloop
endfacet
facet normal 0.306569 0.125628 0.943522
outer loop
vertex -1.573856 55.440651 6.301882
vertex 4.303999 55.440651 4.392049
vertex 1.190024 59.912849 4.808375
endloop
endfacet
facet normal 0.303531 -0.187597 0.934171
outer loop
vertex -1.573856 55.440651 6.301882
vertex 1.054832 50.183273 4.391997
vertex 4.303999 55.440651 4.392049
endloop
endfacet
facet normal 0.534576 -0.330387 0.777864
outer loop
vertex 1.054832 50.183273 4.391997
vertex 5.662217 50.968456 1.559136
vertex 4.303999 55.440651 4.392049
endloop
endfacet
facet normal 0.992077 0.125628 0.000000
outer loop
vertex 7.936721 55.440651 -0.607991
vertex 7.936721 55.440651 -6.788244
vertex 7.370405 59.912807 -3.698117
endloop
endfacet
facet normal 0.982246 -0.187599 0.000000
outer loop
vertex 7.936721 55.440651 -0.607991
vertex 6.932621 50.183292 -3.698117
vertex 7.936721 55.440651 -6.788244
endloop
endfacet
facet normal 0.904989 -0.330384 -0.268031
outer loop
vertex 6.932621 50.183292 -3.698117
vertex 5.662217 50.968456 -8.955371
vertex 7.936721 55.440651 -6.788244
endloop
endfacet
facet normal 0.471299 -0.661699 -0.583123
outer loop
vertex 2.679370 46.934113 -6.788231
vertex 1.054832 50.183273 -11.788232
vertex 5.662217 50.968456 -8.955371
endloop
endfacet
facet normal 0.187594 -0.794658 -0.577345
outer loop
vertex 2.679370 46.934113 -6.788231
vertex -3.198411 46.934109 -8.698070
vertex 1.054832 50.183273 -11.788232
endloop
endfacet
facet normal -0.038530 -0.661700 -0.748778
outer loop
vertex -3.198411 46.934109 -8.698070
vertex -4.337736 50.968452 -12.204610
vertex 1.054832 50.183273 -11.788232
endloop
endfacet
facet normal -0.408946 -0.661699 -0.628425
outer loop
vertex -3.198411 46.934109 -8.698070
vertex -8.455748 50.183289 -8.698086
vertex -4.337736 50.968452 -12.204610
endloop
endfacet
facet normal -0.491119 -0.794657 -0.356822
outer loop
vertex -3.198411 46.934109 -8.698070
vertex -6.831153 46.934135 -3.698117
vertex -8.455748 50.183289 -8.698086
endloop
endfacet
facet normal -0.724042 -0.661696 -0.194735
outer loop
vertex -6.831153 46.934135 -3.698117
vertex -10.518116 50.968494 -3.698117
vertex -8.455748 50.183289 -8.698086
endloop
endfacet
facet normal -0.724042 -0.661696 0.194735
outer loop
vertex -6.831153 46.934135 -3.698117
vertex -8.455748 50.183289 1.301851
vertex -10.518116 50.968494 -3.698117
endloop
endfacet
facet normal -0.491119 -0.794657 0.356822
outer loop
vertex -6.831153 46.934135 -3.698117
vertex -3.198411 46.934109 1.301835
vertex -8.455748 50.183289 1.301851
endloop
endfacet
facet normal -0.408946 -0.661699 0.628425
outer loop
vertex -3.198411 46.934109 1.301835
vertex -4.337736 50.968452 4.808375
vertex -8.455748 50.183289 1.301851
endloop
endfacet
facet normal 0.700224 -0.661699 -0.268032
outer loop
vertex 6.932621 50.183292 -3.698117
vertex 2.679370 46.934113 -6.788231
vertex 5.662217 50.968456 -8.955371
endloop
endfacet
facet normal 0.607060 -0.794656 0.000000
outer loop
vertex 6.932621 50.183292 -3.698117
vertex 2.679370 46.934113 -0.608004
vertex 2.679370 46.934113 -6.788231
endloop
endfacet
facet normal 0.331305 -0.943524 0.000000
outer loop
vertex 2.679370 46.934113 -0.608004
vertex -1.573856 45.440651 -3.698117
vertex 2.679370 46.934113 -6.788231
endloop
endfacet
facet normal -0.038530 -0.661699 0.748779
outer loop
vertex -3.198411 46.934109 1.301835
vertex 1.054832 50.183273 4.391997
vertex -4.337736 50.968452 4.808375
endloop
endfacet
facet normal 0.187594 -0.794658 0.577345
outer loop
vertex -3.198411 46.934109 1.301835
vertex 2.679370 46.934113 -0.608004
vertex 1.054832 50.183273 4.391997
endloop
endfacet
facet normal 0.471300 -0.661699 0.583121
outer loop
vertex 2.679370 46.934113 -0.608004
vertex 5.662217 50.968456 1.559136
vertex 1.054832 50.183273 4.391997
endloop
endfacet
endsolid Exported from Blender-2.74 (sub 0)
