solid Exported from Blender-2.74 (sub 0)
facet normal 0.102381 -0.943523 0.315091
outer loop
vertex -8.180748 42.688065 -7.296721
vertex -3.927522 44.181526 -4.206608
vertex -9.805304 44.181522 -2.296769
endloop
endfacet
facet normal 0.700224 -0.661699 0.268032
outer loop
vertex -0.944675 48.215870 -2.039468
vertex -3.927522 44.181526 -4.206608
vertex 0.325729 47.430706 -7.296721
endloop
endfacet
facet normal -0.268034 -0.943523 0.194735
outer loop
vertex -8.180748 42.688065 -7.296721
vertex -9.805304 44.181522 -2.296769
vertex -13.438046 44.181549 -7.296721
endloop
endfacet
facet normal -0.268034 -0.943523 -0.194735
outer loop
vertex -8.180748 42.688065 -7.296721
vertex -13.438046 44.181549 -7.296721
vertex -9.805304 44.181522 -12.296674
endloop
endfacet
facet normal 0.102381 -0.943523 -0.315091
outer loop
vertex -8.180748 42.688065 -7.296721
vertex -9.805304 44.181522 -12.296674
vertex -3.927522 44.181526 -10.386835
endloop
endfacet
facet normal 0.904989 -0.330385 0.268031
outer loop
vertex -0.944675 48.215870 -2.039468
vertex 0.325729 47.430706 -7.296721
vertex 1.329829 52.688065 -4.206595
endloop
endfacet
facet normal 0.024747 -0.330387 0.943521
outer loop
vertex -10.944628 48.215866 1.209771
vertex -5.552060 47.430687 0.793393
vertex -8.180748 52.688065 2.703278
endloop
endfacet
facet normal -0.889697 -0.330385 0.315094
outer loop
vertex -17.125008 48.215908 -7.296721
vertex -15.062640 47.430702 -2.296753
vertex -17.691326 52.688065 -4.206595
endloop
endfacet
facet normal -0.574602 -0.330388 -0.748783
outer loop
vertex -10.944628 48.215866 -15.803214
vertex -15.062640 47.430702 -12.296690
vertex -14.058603 52.688065 -15.386888
endloop
endfacet
facet normal 0.534576 -0.330386 -0.777864
outer loop
vertex -0.944675 48.215870 -12.553974
vertex -5.552060 47.430687 -15.386836
vertex -2.302893 52.688065 -15.386888
endloop
endfacet
facet normal 0.802609 -0.125627 0.583127
outer loop
vertex -0.944675 48.215870 -2.039468
vertex 1.329829 52.688065 -4.206595
vertex -2.302893 52.688065 0.793445
endloop
endfacet
facet normal -0.306569 -0.125628 0.943522
outer loop
vertex -10.944628 48.215866 1.209771
vertex -8.180748 52.688065 2.703278
vertex -14.058603 52.688065 0.793445
endloop
endfacet
facet normal -0.992077 -0.125629 0.000000
outer loop
vertex -17.125008 48.215908 -7.296721
vertex -17.691326 52.688065 -4.206595
vertex -17.691326 52.688065 -10.386847
endloop
endfacet
facet normal -0.306569 -0.125628 -0.943522
outer loop
vertex -10.944628 48.215866 -15.803214
vertex -14.058603 52.688065 -15.386888
vertex -8.180748 52.688065 -17.296721
endloop
endfacet
facet normal 0.802609 -0.125627 -0.583127
outer loop
vertex -0.944675 48.215870 -12.553974
vertex -2.302893 52.688065 -15.386888
vertex 1.329829 52.688065 -10.386847
endloop
endfacet
facet normal 0.408946 0.661698 0.628425
outer loop
vertex -5.416868 57.160263 1.209771
vertex -1.298856 57.945427 -2.296753
vertex -6.556192 61.194607 -2.296769
endloop
endfacet
facet normal -0.471300 0.661699 0.583121
outer loop
vertex -15.416821 57.160259 -2.039468
vertex -10.809436 57.945442 0.793393
vertex -12.433974 61.194603 -4.206608
endloop
endfacet
facet normal -0.700224 0.661699 -0.268033
outer loop
vertex -15.416821 57.160259 -12.553974
vertex -16.687225 57.945423 -7.296721
vertex -12.433974 61.194603 -10.386835
endloop
endfacet
facet normal 0.038530 0.661698 -0.748779
outer loop
vertex -5.416868 57.160263 -15.803214
vertex -10.809436 57.945442 -15.386836
vertex -6.556192 61.194607 -12.296674
endloop
endfacet
facet normal 0.724042 0.661696 -0.194735
outer loop
vertex 0.763513 57.160221 -7.296721
vertex -1.298856 57.945427 -12.296690
vertex -2.923451 61.194580 -7.296721
endloop
endfacet
facet normal 0.268034 0.943523 -0.194736
outer loop
vertex -2.923451 61.194580 -7.296721
vertex -6.556192 61.194607 -12.296674
vertex -8.180748 62.688065 -7.296721
endloop
endfacet
facet normal 0.491119 0.794657 -0.356821
outer loop
vertex -2.923451 61.194580 -7.296721
vertex -1.298856 57.945427 -12.296690
vertex -6.556192 61.194607 -12.296674
endloop
endfacet
facet normal 0.408946 0.661699 -0.628425
outer loop
vertex -1.298856 57.945427 -12.296690
vertex -5.416868 57.160263 -15.803214
vertex -6.556192 61.194607 -12.296674
endloop
endfacet
facet normal -0.102381 0.943524 -0.315089
outer loop
vertex -6.556192 61.194607 -12.296674
vertex -12.433974 61.194603 -10.386835
vertex -8.180748 62.688065 -7.296721
endloop
endfacet
facet normal -0.187595 0.794658 -0.577345
outer loop
vertex -6.556192 61.194607 -12.296674
vertex -10.809436 57.945442 -15.386836
vertex -12.433974 61.194603 -10.386835
endloop
endfacet
facet normal -0.471300 0.661699 -0.583121
outer loop
vertex -10.809436 57.945442 -15.386836
vertex -15.416821 57.160259 -12.553974
vertex -12.433974 61.194603 -10.386835
endloop
endfacet
facet normal -0.331305 0.943524 0.000000
outer loop
vertex -12.433974 61.194603 -10.386835
vertex -12.433974 61.194603 -4.206608
vertex -8.180748 62.688065 -7.296721
endloop
endfacet
facet normal -0.607060 0.794656 0.000000
outer loop
vertex -12.433974 61.194603 -10.386835
vertex -16.687225 57.945423 -7.296721
vertex -12.433974 61.194603 -4.206608
endloop
endfacet
facet normal -0.700223 0.661699 0.268033
outer loop
vertex -16.687225 57.945423 -7.296721
vertex -15.416821 57.160259 -2.039468
vertex -12.433974 61.194603 -4.206608
endloop
endfacet
facet normal -0.102381 0.943523 0.315090
outer loop
vertex -12.433974 61.194603 -4.206608
vertex -6.556192 61.194607 -2.296769
vertex -8.180748 62.688065 -7.296721
endloop
endfacet
facet normal -0.187594 0.794658 0.577345
outer loop
vertex -12.433974 61.194603 -4.206608
vertex -10.809436 57.945442 0.793393
vertex -6.556192 61.194607 -2.296769
endloop
endfacet
facet normal 0.038530 0.661698 0.748779
outer loop
vertex -10.809436 57.945442 0.793393
vertex -5.416868 57.160263 1.209771
vertex -6.556192 61.194607 -2.296769
endloop
endfacet
facet normal 0.268034 0.943523 0.194736
outer loop
vertex -6.556192 61.194607 -2.296769
vertex -2.923451 61.194580 -7.296721
vertex -8.180748 62.688065 -7.296721
endloop
endfacet
facet normal 0.491119 0.794657 0.356821
outer loop
vertex -6.556192 61.194607 -2.296769
vertex -1.298856 57.945427 -2.296753
vertex -2.923451 61.194580 -7.296721
endloop
endfacet
facet normal 0.724042 0.661696 0.194736
outer loop
vertex -1.298856 57.945427 -2.296753
vertex 0.763513 57.160221 -7.296721
vertex -2.923451 61.194580 -7.296721
endloop
endfacet
facet normal 0.889697 0.330385 -0.315095
outer loop
vertex 1.329829 52.688065 -10.386847
vertex -1.298856 57.945427 -12.296690
vertex 0.763513 57.160221 -7.296721
endloop
endfacet
facet normal 0.794656 0.187595 -0.577348
outer loop
vertex 1.329829 52.688065 -10.386847
vertex -2.302893 52.688065 -15.386888
vertex -1.298856 57.945427 -12.296690
endloop
endfacet
facet normal 0.574602 0.330388 -0.748783
outer loop
vertex -2.302893 52.688065 -15.386888
vertex -5.416868 57.160263 -15.803214
vertex -1.298856 57.945427 -12.296690
endloop
endfacet
facet normal -0.024747 0.330387 -0.943521
outer loop
vertex -8.180748 52.688065 -17.296721
vertex -10.809436 57.945442 -15.386836
vertex -5.416868 57.160263 -15.803214
endloop
endfacet
facet normal -0.303530 0.187597 -0.934172
outer loop
vertex -8.180748 52.688065 -17.296721
vertex -14.058603 52.688065 -15.386888
vertex -10.809436 57.945442 -15.386836
endloop
endfacet
facet normal -0.534576 0.330386 -0.777865
outer loop
vertex -14.058603 52.688065 -15.386888
vertex -15.416821 57.160259 -12.553974
vertex -10.809436 57.945442 -15.386836
endloop
endfacet
facet normal -0.904989 0.330385 -0.268031
outer loop
vertex -17.691326 52.688065 -10.386847
vertex -16.687225 57.945423 -7.296721
vertex -15.416821 57.160259 -12.553974
endloop
endfacet
facet normal -0.982246 0.187599 0.000000
outer loop
vertex -17.691326 52.688065 -10.386847
vertex -17.691326 52.688065 -4.206595
vertex -16.687225 57.945423 -7.296721
endloop
endfacet
facet normal -0.904989 0.330384 0.268031
outer loop
vertex -17.691326 52.688065 -4.206595
vertex -15.416821 57.160259 -2.039468
vertex -16.687225 57.945423 -7.296721
endloop
endfacet
facet normal -0.534576 0.330387 0.777865
outer loop
vertex -14.058603 52.688065 0.793445
vertex -10.809436 57.945442 0.793393
vertex -15.416821 57.160259 -2.039468
endloop
endfacet
facet normal -0.303531 0.187597 0.934171
outer loop
vertex -14.058603 52.688065 0.793445
vertex -8.180748 52.688065 2.703278
vertex -10.809436 57.945442 0.793393
endloop
endfacet
facet normal -0.024747 0.330387 0.943521
outer loop
vertex -8.180748 52.688065 2.703278
vertex -5.416868 57.160263 1.209771
vertex -10.809436 57.945442 0.793393
endloop
endfacet
facet normal 0.574602 0.330388 0.748783
outer loop
vertex -2.302893 52.688065 0.793445
vertex -1.298856 57.945427 -2.296753
vertex -5.416868 57.160263 1.209771
endloop
endfacet
facet normal 0.794656 0.187595 0.577348
outer loop
vertex -2.302893 52.688065 0.793445
vertex 1.329829 52.688065 -4.206595
vertex -1.298856 57.945427 -2.296753
endloop
endfacet
facet normal 0.889697 0.330385 0.315095
outer loop
vertex 1.329829 52.688065 -4.206595
vertex 0.763513 57.160221 -7.296721
vertex -1.298856 57.945427 -2.296753
endloop
endfacet
facet normal 0.306569 0.125628 -0.943522
outer loop
vertex -2.302893 52.688065 -15.386888
vertex -8.180748 52.688065 -17.296721
vertex -5.416868 57.160263 -15.803214
endloop
endfacet
facet normal 0.303531 -0.187598 -0.934171
outer loop
vertex -2.302893 52.688065 -15.386888
vertex -5.552060 47.430687 -15.386836
vertex -8.180748 52.688065 -17.296721
endloop
endfacet
facet normal 0.024747 -0.330387 -0.943521
outer loop
vertex -5.552060 47.430687 -15.386836
vertex -10.944628 48.215866 -15.803214
vertex -8.180748 52.688065 -17.296721
endloop
endfacet
facet normal -0.802609 0.125627 -0.583127
outer loop
vertex -14.058603 52.688065 -15.386888
vertex -17.691326 52.688065 -10.386847
vertex -15.416821 57.160259 -12.553974
endloop
endfacet
facet normal -0.794655 -0.187595 -0.577349
outer loop
vertex -14.058603 52.688065 -15.386888
vertex -15.062640 47.430702 -12.296690
vertex -17.691326 52.688065 -10.386847
endloop
endfacet
facet normal -0.889697 -0.330385 -0.315094
outer loop
vertex -15.062640 47.430702 -12.296690
vertex -17.125008 48.215908 -7.296721
vertex -17.691326 52.688065 -10.386847
endloop
endfacet
facet normal -0.802609 0.125627 0.583127
outer loop
vertex -17.691326 52.688065 -4.206595
vertex -14.058603 52.688065 0.793445
vertex -15.416821 57.160259 -2.039468
endloop
endfacet
facet normal -0.794655 -0.187595 0.577348
outer loop
vertex -17.691326 52.688065 -4.206595
vertex -15.062640 47.430702 -2.296753
vertex -14.058603 52.688065 0.793445
endloop
endfacet
facet normal -0.574602 -0.330388 0.748783
outer loop
vertex -15.062640 47.430702 -2.296753
vertex -10.944628 48.215866 1.209771
vertex -14.058603 52.688065 0.793445
endloop
endfacet
facet normal 0.306569 0.125628 0.943522
outer loop
vertex -8.180748 52.688065 2.703278
vertex -2.302893 52.688065 0.793445
vertex -5.416868 57.160263 1.209771
endloop
endfacet
facet normal 0.303531 -0.187598 0.934171
outer loop
vertex -8.180748 52.688065 2.703278
vertex -5.552060 47.430687 0.793393
vertex -2.302893 52.688065 0.793445
endloop
endfacet
facet normal 0.534576 -0.330386 0.777865
outer loop
vertex -5.552060 47.430687 0.793393
vertex -0.944675 48.215870 -2.039468
vertex -2.302893 52.688065 0.793445
endloop
endfacet
facet normal 0.992077 0.125628 0.000000
outer loop
vertex 1.329829 52.688065 -4.206595
vertex 1.329829 52.688065 -10.386847
vertex 0.763513 57.160221 -7.296721
endloop
endfacet
facet normal 0.982246 -0.187599 0.000000
outer loop
vertex 1.329829 52.688065 -4.206595
vertex 0.325729 47.430706 -7.296721
vertex 1.329829 52.688065 -10.386847
endloop
endfacet
facet normal 0.904989 -0.330384 -0.268031
outer loop
vertex 0.325729 47.430706 -7.296721
vertex -0.944675 48.215870 -12.553974
vertex 1.329829 52.688065 -10.386847
endloop
endfacet
facet normal 0.471299 -0.661699 -0.583123
outer loop
vertex -3.927522 44.181526 -10.386835
vertex -5.552060 47.430687 -15.386836
vertex -0.944675 48.215870 -12.553974
endloop
endfacet
facet normal 0.187594 -0.794657 -0.577346
outer loop
vertex -3.927522 44.181526 -10.386835
vertex -9.805304 44.181522 -12.296674
vertex -5.552060 47.430687 -15.386836
endloop
endfacet
facet normal -0.038530 -0.661699 -0.748779
outer loop
vertex -9.805304 44.181522 -12.296674
vertex -10.944628 48.215866 -15.803214
vertex -5.552060 47.430687 -15.386836
endloop
endfacet
facet normal -0.408947 -0.661699 -0.628424
outer loop
vertex -9.805304 44.181522 -12.296674
vertex -15.062640 47.430702 -12.296690
vertex -10.944628 48.215866 -15.803214
endloop
endfacet
facet normal -0.491119 -0.794657 -0.356822
outer loop
vertex -9.805304 44.181522 -12.296674
vertex -13.438046 44.181549 -7.296721
vertex -15.062640 47.430702 -12.296690
endloop
endfacet
facet normal -0.724042 -0.661695 -0.194736
outer loop
vertex -13.438046 44.181549 -7.296721
vertex -17.125008 48.215908 -7.296721
vertex -15.062640 47.430702 -12.296690
endloop
endfacet
facet normal -0.724042 -0.661695 0.194736
outer loop
vertex -13.438046 44.181549 -7.296721
vertex -15.062640 47.430702 -2.296753
vertex -17.125008 48.215908 -7.296721
endloop
endfacet
facet normal -0.491119 -0.794657 0.356822
outer loop
vertex -13.438046 44.181549 -7.296721
vertex -9.805304 44.181522 -2.296769
vertex -15.062640 47.430702 -2.296753
endloop
endfacet
facet normal -0.408947 -0.661699 0.628424
outer loop
vertex -9.805304 44.181522 -2.296769
vertex -10.944628 48.215866 1.209771
vertex -15.062640 47.430702 -2.296753
endloop
endfacet
facet normal 0.700224 -0.661699 -0.268032
outer loop
vertex 0.325729 47.430706 -7.296721
vertex -3.927522 44.181526 -10.386835
vertex -0.944675 48.215870 -12.553974
endloop
endfacet
facet normal 0.607060 -0.794656 0.000000
outer loop
vertex 0.325729 47.430706 -7.296721
vertex -3.927522 44.181526 -4.206608
vertex -3.927522 44.181526 -10.386835
endloop
endfacet
facet normal 0.331305 -0.943524 0.000000
outer loop
vertex -3.927522 44.181526 -4.206608
vertex -8.180748 42.688065 -7.296721
vertex -3.927522 44.181526 -10.386835
endloop
endfacet
facet normal -0.038530 -0.661699 0.748779
outer loop
vertex -9.805304 44.181522 -2.296769
vertex -5.552060 47.430687 0.793393
vertex -10.944628 48.215866 1.209771
endloop
endfacet
facet normal 0.187594 -0.794658 0.577345
outer loop
vertex -9.805304 44.181522 -2.296769
vertex -3.927522 44.181526 -4.206608
vertex -5.552060 47.430687 0.793393
endloop
endfacet
facet normal 0.471299 -0.661698 0.583123
outer loop
vertex -3.927522 44.181526 -4.206608
vertex -0.944675 48.215870 -2.039468
vertex -5.552060 47.430687 0.793393
endloop
endfacet
endsolid Exported from Blender-2.74 (sub 0)
