solid Exported from Blender-2.74 (sub 0)
facet normal 0.102382 -0.943523 0.315091
outer loop
vertex -0.775181 40.198799 15.870354
vertex 3.478045 41.692261 18.960466
vertex -2.399736 41.692257 20.870306
endloop
endfacet
facet normal 0.700223 -0.661699 0.268034
outer loop
vertex 6.460892 45.726604 21.127607
vertex 3.478045 41.692261 18.960466
vertex 7.731297 44.941441 15.870354
endloop
endfacet
facet normal -0.268035 -0.943523 0.194734
outer loop
vertex -0.775181 40.198799 15.870354
vertex -2.399736 41.692257 20.870306
vertex -6.032478 41.692284 15.870354
endloop
endfacet
facet normal -0.268035 -0.943523 -0.194734
outer loop
vertex -0.775181 40.198799 15.870354
vertex -6.032478 41.692284 15.870354
vertex -2.399736 41.692257 10.870401
endloop
endfacet
facet normal 0.102381 -0.943523 -0.315091
outer loop
vertex -0.775181 40.198799 15.870354
vertex -2.399736 41.692257 10.870401
vertex 3.478045 41.692261 12.780240
endloop
endfacet
facet normal 0.904989 -0.330385 0.268031
outer loop
vertex 6.460892 45.726604 21.127607
vertex 7.731297 44.941441 15.870354
vertex 8.735396 50.198799 18.960480
endloop
endfacet
facet normal 0.024747 -0.330386 0.943521
outer loop
vertex -3.539061 45.726601 24.376846
vertex 1.853507 44.941422 23.960468
vertex -0.775181 50.198799 25.870354
endloop
endfacet
facet normal -0.889697 -0.330385 0.315095
outer loop
vertex -9.719441 45.726643 15.870354
vertex -7.657073 44.941437 20.870323
vertex -10.285758 50.198799 18.960480
endloop
endfacet
facet normal -0.574603 -0.330388 -0.748783
outer loop
vertex -3.539061 45.726601 7.363861
vertex -7.657073 44.941437 10.870385
vertex -6.653036 50.198799 7.780188
endloop
endfacet
facet normal 0.534576 -0.330386 -0.777865
outer loop
vertex 6.460892 45.726604 10.613100
vertex 1.853507 44.941422 7.780239
vertex 5.102674 50.198799 7.780188
endloop
endfacet
facet normal 0.802609 -0.125627 0.583127
outer loop
vertex 6.460892 45.726604 21.127607
vertex 8.735396 50.198799 18.960480
vertex 5.102674 50.198799 23.960520
endloop
endfacet
facet normal -0.306569 -0.125628 0.943522
outer loop
vertex -3.539061 45.726601 24.376846
vertex -0.775181 50.198799 25.870354
vertex -6.653036 50.198799 23.960520
endloop
endfacet
facet normal -0.992077 -0.125628 0.000000
outer loop
vertex -9.719441 45.726643 15.870354
vertex -10.285758 50.198799 18.960480
vertex -10.285758 50.198799 12.780228
endloop
endfacet
facet normal -0.306568 -0.125628 -0.943522
outer loop
vertex -3.539061 45.726601 7.363861
vertex -6.653036 50.198799 7.780188
vertex -0.775181 50.198799 5.870355
endloop
endfacet
facet normal 0.802609 -0.125627 -0.583127
outer loop
vertex 6.460892 45.726604 10.613100
vertex 5.102674 50.198799 7.780188
vertex 8.735396 50.198799 12.780228
endloop
endfacet
facet normal 0.408946 0.661699 0.628424
outer loop
vertex 1.988699 54.670998 24.376846
vertex 6.106711 55.456161 20.870323
vertex 0.849374 58.705341 20.870306
endloop
endfacet
facet normal -0.471299 0.661699 0.583122
outer loop
vertex -8.011254 54.670994 21.127607
vertex -3.403869 55.456177 23.960468
vertex -5.028407 58.705338 18.960466
endloop
endfacet
facet normal -0.700223 0.661699 -0.268033
outer loop
vertex -8.011254 54.670994 10.613100
vertex -9.281658 55.456158 15.870354
vertex -5.028407 58.705338 12.780240
endloop
endfacet
facet normal 0.038530 0.661699 -0.748779
outer loop
vertex 1.988699 54.670998 7.363861
vertex -3.403869 55.456177 7.780239
vertex 0.849374 58.705341 10.870401
endloop
endfacet
facet normal 0.724042 0.661696 -0.194736
outer loop
vertex 8.169080 54.670956 15.870354
vertex 6.106711 55.456161 10.870385
vertex 4.482116 58.705315 15.870354
endloop
endfacet
facet normal 0.268035 0.943523 -0.194734
outer loop
vertex 4.482116 58.705315 15.870354
vertex 0.849374 58.705341 10.870401
vertex -0.775181 60.198799 15.870354
endloop
endfacet
facet normal 0.491119 0.794657 -0.356822
outer loop
vertex 4.482116 58.705315 15.870354
vertex 6.106711 55.456161 10.870385
vertex 0.849374 58.705341 10.870401
endloop
endfacet
facet normal 0.408946 0.661699 -0.628425
outer loop
vertex 6.106711 55.456161 10.870385
vertex 1.988699 54.670998 7.363861
vertex 0.849374 58.705341 10.870401
endloop
endfacet
facet normal -0.102381 0.943522 -0.315093
outer loop
vertex 0.849374 58.705341 10.870401
vertex -5.028407 58.705338 12.780240
vertex -0.775181 60.198799 15.870354
endloop
endfacet
facet normal -0.187594 0.794658 -0.577344
outer loop
vertex 0.849374 58.705341 10.870401
vertex -3.403869 55.456177 7.780239
vertex -5.028407 58.705338 12.780240
endloop
endfacet
facet normal -0.471300 0.661699 -0.583121
outer loop
vertex -3.403869 55.456177 7.780239
vertex -8.011254 54.670994 10.613100
vertex -5.028407 58.705338 12.780240
endloop
endfacet
facet normal -0.331305 0.943524 0.000000
outer loop
vertex -5.028407 58.705338 12.780240
vertex -5.028407 58.705338 18.960466
vertex -0.775181 60.198799 15.870354
endloop
endfacet
facet normal -0.607060 0.794656 0.000000
outer loop
vertex -5.028407 58.705338 12.780240
vertex -9.281658 55.456158 15.870354
vertex -5.028407 58.705338 18.960466
endloop
endfacet
facet normal -0.700224 0.661699 0.268032
outer loop
vertex -9.281658 55.456158 15.870354
vertex -8.011254 54.670994 21.127607
vertex -5.028407 58.705338 18.960466
endloop
endfacet
facet normal -0.102382 0.943522 0.315093
outer loop
vertex -5.028407 58.705338 18.960466
vertex 0.849374 58.705341 20.870306
vertex -0.775181 60.198799 15.870354
endloop
endfacet
facet normal -0.187594 0.794659 0.577344
outer loop
vertex -5.028407 58.705338 18.960466
vertex -3.403869 55.456177 23.960468
vertex 0.849374 58.705341 20.870306
endloop
endfacet
facet normal 0.038529 0.661699 0.748779
outer loop
vertex -3.403869 55.456177 23.960468
vertex 1.988699 54.670998 24.376846
vertex 0.849374 58.705341 20.870306
endloop
endfacet
facet normal 0.268035 0.943523 0.194734
outer loop
vertex 0.849374 58.705341 20.870306
vertex 4.482116 58.705315 15.870354
vertex -0.775181 60.198799 15.870354
endloop
endfacet
facet normal 0.491119 0.794657 0.356822
outer loop
vertex 0.849374 58.705341 20.870306
vertex 6.106711 55.456161 20.870323
vertex 4.482116 58.705315 15.870354
endloop
endfacet
facet normal 0.724042 0.661695 0.194735
outer loop
vertex 6.106711 55.456161 20.870323
vertex 8.169080 54.670956 15.870354
vertex 4.482116 58.705315 15.870354
endloop
endfacet
facet normal 0.889697 0.330385 -0.315095
outer loop
vertex 8.735396 50.198799 12.780228
vertex 6.106711 55.456161 10.870385
vertex 8.169080 54.670956 15.870354
endloop
endfacet
facet normal 0.794655 0.187595 -0.577348
outer loop
vertex 8.735396 50.198799 12.780228
vertex 5.102674 50.198799 7.780188
vertex 6.106711 55.456161 10.870385
endloop
endfacet
facet normal 0.574602 0.330387 -0.748783
outer loop
vertex 5.102674 50.198799 7.780188
vertex 1.988699 54.670998 7.363861
vertex 6.106711 55.456161 10.870385
endloop
endfacet
facet normal -0.024747 0.330387 -0.943521
outer loop
vertex -0.775181 50.198799 5.870355
vertex -3.403869 55.456177 7.780239
vertex 1.988699 54.670998 7.363861
endloop
endfacet
facet normal -0.303531 0.187598 -0.934171
outer loop
vertex -0.775181 50.198799 5.870355
vertex -6.653036 50.198799 7.780188
vertex -3.403869 55.456177 7.780239
endloop
endfacet
facet normal -0.534576 0.330386 -0.777865
outer loop
vertex -6.653036 50.198799 7.780188
vertex -8.011254 54.670994 10.613100
vertex -3.403869 55.456177 7.780239
endloop
endfacet
facet normal -0.904989 0.330385 -0.268030
outer loop
vertex -10.285758 50.198799 12.780228
vertex -9.281658 55.456158 15.870354
vertex -8.011254 54.670994 10.613100
endloop
endfacet
facet normal -0.982246 0.187598 0.000000
outer loop
vertex -10.285758 50.198799 12.780228
vertex -10.285758 50.198799 18.960480
vertex -9.281658 55.456158 15.870354
endloop
endfacet
facet normal -0.904989 0.330385 0.268030
outer loop
vertex -10.285758 50.198799 18.960480
vertex -8.011254 54.670994 21.127607
vertex -9.281658 55.456158 15.870354
endloop
endfacet
facet normal -0.534576 0.330387 0.777864
outer loop
vertex -6.653036 50.198799 23.960520
vertex -3.403869 55.456177 23.960468
vertex -8.011254 54.670994 21.127607
endloop
endfacet
facet normal -0.303532 0.187598 0.934171
outer loop
vertex -6.653036 50.198799 23.960520
vertex -0.775181 50.198799 25.870354
vertex -3.403869 55.456177 23.960468
endloop
endfacet
facet normal -0.024746 0.330386 0.943521
outer loop
vertex -0.775181 50.198799 25.870354
vertex 1.988699 54.670998 24.376846
vertex -3.403869 55.456177 23.960468
endloop
endfacet
facet normal 0.574602 0.330387 0.748783
outer loop
vertex 5.102674 50.198799 23.960520
vertex 6.106711 55.456161 20.870323
vertex 1.988699 54.670998 24.376846
endloop
endfacet
facet normal 0.794655 0.187595 0.577348
outer loop
vertex 5.102674 50.198799 23.960520
vertex 8.735396 50.198799 18.960480
vertex 6.106711 55.456161 20.870323
endloop
endfacet
facet normal 0.889697 0.330385 0.315095
outer loop
vertex 8.735396 50.198799 18.960480
vertex 8.169080 54.670956 15.870354
vertex 6.106711 55.456161 20.870323
endloop
endfacet
facet normal 0.306568 0.125628 -0.943522
outer loop
vertex 5.102674 50.198799 7.780188
vertex -0.775181 50.198799 5.870355
vertex 1.988699 54.670998 7.363861
endloop
endfacet
facet normal 0.303531 -0.187598 -0.934171
outer loop
vertex 5.102674 50.198799 7.780188
vertex 1.853507 44.941422 7.780239
vertex -0.775181 50.198799 5.870355
endloop
endfacet
facet normal 0.024747 -0.330386 -0.943521
outer loop
vertex 1.853507 44.941422 7.780239
vertex -3.539061 45.726601 7.363861
vertex -0.775181 50.198799 5.870355
endloop
endfacet
facet normal -0.802609 0.125626 -0.583127
outer loop
vertex -6.653036 50.198799 7.780188
vertex -10.285758 50.198799 12.780228
vertex -8.011254 54.670994 10.613100
endloop
endfacet
facet normal -0.794655 -0.187595 -0.577349
outer loop
vertex -6.653036 50.198799 7.780188
vertex -7.657073 44.941437 10.870385
vertex -10.285758 50.198799 12.780228
endloop
endfacet
facet normal -0.889697 -0.330385 -0.315095
outer loop
vertex -7.657073 44.941437 10.870385
vertex -9.719441 45.726643 15.870354
vertex -10.285758 50.198799 12.780228
endloop
endfacet
facet normal -0.802609 0.125626 0.583127
outer loop
vertex -10.285758 50.198799 18.960480
vertex -6.653036 50.198799 23.960520
vertex -8.011254 54.670994 21.127607
endloop
endfacet
facet normal -0.794655 -0.187595 0.577348
outer loop
vertex -10.285758 50.198799 18.960480
vertex -7.657073 44.941437 20.870323
vertex -6.653036 50.198799 23.960520
endloop
endfacet
facet normal -0.574603 -0.330388 0.748783
outer loop
vertex -7.657073 44.941437 20.870323
vertex -3.539061 45.726601 24.376846
vertex -6.653036 50.198799 23.960520
endloop
endfacet
facet normal 0.306569 0.125628 0.943522
outer loop
vertex -0.775181 50.198799 25.870354
vertex 5.102674 50.198799 23.960520
vertex 1.988699 54.670998 24.376846
endloop
endfacet
facet normal 0.303532 -0.187598 0.934171
outer loop
vertex -0.775181 50.198799 25.870354
vertex 1.853507 44.941422 23.960468
vertex 5.102674 50.198799 23.960520
endloop
endfacet
facet normal 0.534576 -0.330386 0.777865
outer loop
vertex 1.853507 44.941422 23.960468
vertex 6.460892 45.726604 21.127607
vertex 5.102674 50.198799 23.960520
endloop
endfacet
facet normal 0.992077 0.125628 0.000000
outer loop
vertex 8.735396 50.198799 18.960480
vertex 8.735396 50.198799 12.780228
vertex 8.169080 54.670956 15.870354
endloop
endfacet
facet normal 0.982246 -0.187598 0.000000
outer loop
vertex 8.735396 50.198799 18.960480
vertex 7.731297 44.941441 15.870354
vertex 8.735396 50.198799 12.780228
endloop
endfacet
facet normal 0.904989 -0.330385 -0.268031
outer loop
vertex 7.731297 44.941441 15.870354
vertex 6.460892 45.726604 10.613100
vertex 8.735396 50.198799 12.780228
endloop
endfacet
facet normal 0.471300 -0.661699 -0.583122
outer loop
vertex 3.478045 41.692261 12.780240
vertex 1.853507 44.941422 7.780239
vertex 6.460892 45.726604 10.613100
endloop
endfacet
facet normal 0.187595 -0.794659 -0.577344
outer loop
vertex 3.478045 41.692261 12.780240
vertex -2.399736 41.692257 10.870401
vertex 1.853507 44.941422 7.780239
endloop
endfacet
facet normal -0.038530 -0.661699 -0.748779
outer loop
vertex -2.399736 41.692257 10.870401
vertex -3.539061 45.726601 7.363861
vertex 1.853507 44.941422 7.780239
endloop
endfacet
facet normal -0.408946 -0.661699 -0.628424
outer loop
vertex -2.399736 41.692257 10.870401
vertex -7.657073 44.941437 10.870385
vertex -3.539061 45.726601 7.363861
endloop
endfacet
facet normal -0.491119 -0.794657 -0.356823
outer loop
vertex -2.399736 41.692257 10.870401
vertex -6.032478 41.692284 15.870354
vertex -7.657073 44.941437 10.870385
endloop
endfacet
facet normal -0.724042 -0.661695 -0.194735
outer loop
vertex -6.032478 41.692284 15.870354
vertex -9.719441 45.726643 15.870354
vertex -7.657073 44.941437 10.870385
endloop
endfacet
facet normal -0.724042 -0.661695 0.194735
outer loop
vertex -6.032478 41.692284 15.870354
vertex -7.657073 44.941437 20.870323
vertex -9.719441 45.726643 15.870354
endloop
endfacet
facet normal -0.491119 -0.794657 0.356822
outer loop
vertex -6.032478 41.692284 15.870354
vertex -2.399736 41.692257 20.870306
vertex -7.657073 44.941437 20.870323
endloop
endfacet
facet normal -0.408946 -0.661699 0.628424
outer loop
vertex -2.399736 41.692257 20.870306
vertex -3.539061 45.726601 24.376846
vertex -7.657073 44.941437 20.870323
endloop
endfacet
facet normal 0.700223 -0.661699 -0.268034
outer loop
vertex 7.731297 44.941441 15.870354
vertex 3.478045 41.692261 12.780240
vertex 6.460892 45.726604 10.613100
endloop
endfacet
facet normal 0.607060 -0.794656 0.000000
outer loop
vertex 7.731297 44.941441 15.870354
vertex 3.478045 41.692261 18.960466
vertex 3.478045 41.692261 12.780240
endloop
endfacet
facet normal 0.331305 -0.943524 0.000000
outer loop
vertex 3.478045 41.692261 18.960466
vertex -0.775181 40.198799 15.870354
vertex 3.478045 41.692261 12.780240
endloop
endfacet
facet normal -0.038530 -0.661700 0.748778
outer loop
vertex -2.399736 41.692257 20.870306
vertex 1.853507 44.941422 23.960468
vertex -3.539061 45.726601 24.376846
endloop
endfacet
facet normal 0.187594 -0.794658 0.577345
outer loop
vertex -2.399736 41.692257 20.870306
vertex 3.478045 41.692261 18.960466
vertex 1.853507 44.941422 23.960468
endloop
endfacet
facet normal 0.471300 -0.661699 0.583121
outer loop
vertex 3.478045 41.692261 18.960466
vertex 6.460892 45.726604 21.127607
vertex 1.853507 44.941422 23.960468
endloop
endfacet
endsolid Exported from Blender-2.74 (sub 0)
