solid Exported from Blender-2.74 (sub 0)
facet normal 0.102381 -0.943523 0.315091
outer loop
vertex 12.885707 45.703094 -2.125952
vertex 17.138933 47.196556 0.964161
vertex 11.261151 47.196552 2.874000
endloop
endfacet
facet normal 0.700224 -0.661699 0.268033
outer loop
vertex 20.121780 51.230900 3.131301
vertex 17.138933 47.196556 0.964161
vertex 21.392185 50.445736 -2.125952
endloop
endfacet
facet normal -0.268034 -0.943523 0.194736
outer loop
vertex 12.885707 45.703094 -2.125952
vertex 11.261151 47.196552 2.874000
vertex 7.628410 47.196579 -2.125952
endloop
endfacet
facet normal -0.268034 -0.943523 -0.194736
outer loop
vertex 12.885707 45.703094 -2.125952
vertex 7.628410 47.196579 -2.125952
vertex 11.261151 47.196552 -7.125904
endloop
endfacet
facet normal 0.102381 -0.943523 -0.315091
outer loop
vertex 12.885707 45.703094 -2.125952
vertex 11.261151 47.196552 -7.125904
vertex 17.138933 47.196556 -5.216065
endloop
endfacet
facet normal 0.904989 -0.330384 0.268031
outer loop
vertex 20.121780 51.230900 3.131301
vertex 21.392185 50.445736 -2.125952
vertex 22.396284 55.703094 0.964174
endloop
endfacet
facet normal 0.024747 -0.330386 0.943521
outer loop
vertex 10.121827 51.230896 6.380541
vertex 15.514395 50.445717 5.964163
vertex 12.885707 55.703094 7.874047
endloop
endfacet
facet normal -0.889697 -0.330385 0.315095
outer loop
vertex 3.941446 51.230938 -2.125952
vertex 6.003815 50.445732 2.874017
vertex 3.375130 55.703094 0.964174
endloop
endfacet
facet normal -0.574602 -0.330387 -0.748783
outer loop
vertex 10.121827 51.230896 -10.632444
vertex 6.003815 50.445732 -7.125920
vertex 7.007852 55.703094 -10.216118
endloop
endfacet
facet normal 0.534576 -0.330387 -0.777864
outer loop
vertex 20.121780 51.230900 -7.383205
vertex 15.514395 50.445717 -10.216066
vertex 18.763561 55.703094 -10.216118
endloop
endfacet
facet normal 0.802609 -0.125627 0.583127
outer loop
vertex 20.121780 51.230900 3.131301
vertex 22.396284 55.703094 0.964174
vertex 18.763561 55.703094 5.964214
endloop
endfacet
facet normal -0.306569 -0.125628 0.943522
outer loop
vertex 10.121827 51.230896 6.380541
vertex 12.885707 55.703094 7.874047
vertex 7.007852 55.703094 5.964214
endloop
endfacet
facet normal -0.992077 -0.125628 0.000000
outer loop
vertex 3.941446 51.230938 -2.125952
vertex 3.375130 55.703094 0.964174
vertex 3.375130 55.703094 -5.216078
endloop
endfacet
facet normal -0.306569 -0.125628 -0.943521
outer loop
vertex 10.121827 51.230896 -10.632444
vertex 7.007852 55.703094 -10.216118
vertex 12.885707 55.703094 -12.125951
endloop
endfacet
facet normal 0.802609 -0.125627 -0.583127
outer loop
vertex 20.121780 51.230900 -7.383205
vertex 18.763561 55.703094 -10.216118
vertex 22.396284 55.703094 -5.216078
endloop
endfacet
facet normal 0.408946 0.661698 0.628425
outer loop
vertex 15.649587 60.175293 6.380541
vertex 19.767599 60.960457 2.874017
vertex 14.510262 64.209641 2.874000
endloop
endfacet
facet normal -0.471299 0.661699 0.583122
outer loop
vertex 5.649634 60.175289 3.131301
vertex 10.257019 60.960472 5.964163
vertex 8.632481 64.209633 0.964161
endloop
endfacet
facet normal -0.700224 0.661699 -0.268032
outer loop
vertex 5.649634 60.175289 -7.383205
vertex 4.379230 60.960453 -2.125952
vertex 8.632481 64.209633 -5.216065
endloop
endfacet
facet normal 0.038530 0.661698 -0.748780
outer loop
vertex 15.649587 60.175293 -10.632444
vertex 10.257019 60.960472 -10.216066
vertex 14.510262 64.209641 -7.125904
endloop
endfacet
facet normal 0.724042 0.661695 -0.194736
outer loop
vertex 21.829967 60.175251 -2.125952
vertex 19.767599 60.960457 -7.125920
vertex 18.143003 64.209610 -2.125952
endloop
endfacet
facet normal 0.268035 0.943523 -0.194736
outer loop
vertex 18.143003 64.209610 -2.125952
vertex 14.510262 64.209641 -7.125904
vertex 12.885707 65.703094 -2.125952
endloop
endfacet
facet normal 0.491120 0.794657 -0.356821
outer loop
vertex 18.143003 64.209610 -2.125952
vertex 19.767599 60.960457 -7.125920
vertex 14.510262 64.209641 -7.125904
endloop
endfacet
facet normal 0.408947 0.661698 -0.628425
outer loop
vertex 19.767599 60.960457 -7.125920
vertex 15.649587 60.175293 -10.632444
vertex 14.510262 64.209641 -7.125904
endloop
endfacet
facet normal -0.102382 0.943524 -0.315089
outer loop
vertex 14.510262 64.209641 -7.125904
vertex 8.632481 64.209633 -5.216065
vertex 12.885707 65.703094 -2.125952
endloop
endfacet
facet normal -0.187595 0.794657 -0.577345
outer loop
vertex 14.510262 64.209641 -7.125904
vertex 10.257019 60.960472 -10.216066
vertex 8.632481 64.209633 -5.216065
endloop
endfacet
facet normal -0.471299 0.661699 -0.583122
outer loop
vertex 10.257019 60.960472 -10.216066
vertex 5.649634 60.175289 -7.383205
vertex 8.632481 64.209633 -5.216065
endloop
endfacet
facet normal -0.331305 0.943524 0.000000
outer loop
vertex 8.632481 64.209633 -5.216065
vertex 8.632481 64.209633 0.964161
vertex 12.885707 65.703094 -2.125952
endloop
endfacet
facet normal -0.607060 0.794656 0.000000
outer loop
vertex 8.632481 64.209633 -5.216065
vertex 4.379230 60.960453 -2.125952
vertex 8.632481 64.209633 0.964161
endloop
endfacet
facet normal -0.700224 0.661699 0.268033
outer loop
vertex 4.379230 60.960453 -2.125952
vertex 5.649634 60.175289 3.131301
vertex 8.632481 64.209633 0.964161
endloop
endfacet
facet normal -0.102382 0.943524 0.315089
outer loop
vertex 8.632481 64.209633 0.964161
vertex 14.510262 64.209641 2.874000
vertex 12.885707 65.703094 -2.125952
endloop
endfacet
facet normal -0.187595 0.794657 0.577346
outer loop
vertex 8.632481 64.209633 0.964161
vertex 10.257019 60.960472 5.964163
vertex 14.510262 64.209641 2.874000
endloop
endfacet
facet normal 0.038530 0.661698 0.748779
outer loop
vertex 10.257019 60.960472 5.964163
vertex 15.649587 60.175293 6.380541
vertex 14.510262 64.209641 2.874000
endloop
endfacet
facet normal 0.268035 0.943523 0.194737
outer loop
vertex 14.510262 64.209641 2.874000
vertex 18.143003 64.209610 -2.125952
vertex 12.885707 65.703094 -2.125952
endloop
endfacet
facet normal 0.491120 0.794657 0.356821
outer loop
vertex 14.510262 64.209641 2.874000
vertex 19.767599 60.960457 2.874017
vertex 18.143003 64.209610 -2.125952
endloop
endfacet
facet normal 0.724042 0.661695 0.194737
outer loop
vertex 19.767599 60.960457 2.874017
vertex 21.829967 60.175251 -2.125952
vertex 18.143003 64.209610 -2.125952
endloop
endfacet
facet normal 0.889697 0.330385 -0.315095
outer loop
vertex 22.396284 55.703094 -5.216078
vertex 19.767599 60.960457 -7.125920
vertex 21.829967 60.175251 -2.125952
endloop
endfacet
facet normal 0.794655 0.187595 -0.577348
outer loop
vertex 22.396284 55.703094 -5.216078
vertex 18.763561 55.703094 -10.216118
vertex 19.767599 60.960457 -7.125920
endloop
endfacet
facet normal 0.574602 0.330387 -0.748784
outer loop
vertex 18.763561 55.703094 -10.216118
vertex 15.649587 60.175293 -10.632444
vertex 19.767599 60.960457 -7.125920
endloop
endfacet
facet normal -0.024747 0.330386 -0.943521
outer loop
vertex 12.885707 55.703094 -12.125951
vertex 10.257019 60.960472 -10.216066
vertex 15.649587 60.175293 -10.632444
endloop
endfacet
facet normal -0.303531 0.187598 -0.934171
outer loop
vertex 12.885707 55.703094 -12.125951
vertex 7.007852 55.703094 -10.216118
vertex 10.257019 60.960472 -10.216066
endloop
endfacet
facet normal -0.534577 0.330387 -0.777864
outer loop
vertex 7.007852 55.703094 -10.216118
vertex 5.649634 60.175289 -7.383205
vertex 10.257019 60.960472 -10.216066
endloop
endfacet
facet normal -0.904989 0.330385 -0.268030
outer loop
vertex 3.375130 55.703094 -5.216078
vertex 4.379230 60.960453 -2.125952
vertex 5.649634 60.175289 -7.383205
endloop
endfacet
facet normal -0.982246 0.187599 0.000000
outer loop
vertex 3.375130 55.703094 -5.216078
vertex 3.375130 55.703094 0.964174
vertex 4.379230 60.960453 -2.125952
endloop
endfacet
facet normal -0.904989 0.330385 0.268030
outer loop
vertex 3.375130 55.703094 0.964174
vertex 5.649634 60.175289 3.131301
vertex 4.379230 60.960453 -2.125952
endloop
endfacet
facet normal -0.534577 0.330387 0.777864
outer loop
vertex 7.007852 55.703094 5.964214
vertex 10.257019 60.960472 5.964163
vertex 5.649634 60.175289 3.131301
endloop
endfacet
facet normal -0.303531 0.187598 0.934171
outer loop
vertex 7.007852 55.703094 5.964214
vertex 12.885707 55.703094 7.874047
vertex 10.257019 60.960472 5.964163
endloop
endfacet
facet normal -0.024747 0.330386 0.943521
outer loop
vertex 12.885707 55.703094 7.874047
vertex 15.649587 60.175293 6.380541
vertex 10.257019 60.960472 5.964163
endloop
endfacet
facet normal 0.574602 0.330387 0.748784
outer loop
vertex 18.763561 55.703094 5.964214
vertex 19.767599 60.960457 2.874017
vertex 15.649587 60.175293 6.380541
endloop
endfacet
facet normal 0.794656 0.187595 0.577348
outer loop
vertex 18.763561 55.703094 5.964214
vertex 22.396284 55.703094 0.964174
vertex 19.767599 60.960457 2.874017
endloop
endfacet
facet normal 0.889697 0.330385 0.315095
outer loop
vertex 22.396284 55.703094 0.964174
vertex 21.829967 60.175251 -2.125952
vertex 19.767599 60.960457 2.874017
endloop
endfacet
facet normal 0.306569 0.125628 -0.943521
outer loop
vertex 18.763561 55.703094 -10.216118
vertex 12.885707 55.703094 -12.125951
vertex 15.649587 60.175293 -10.632444
endloop
endfacet
facet normal 0.303531 -0.187598 -0.934171
outer loop
vertex 18.763561 55.703094 -10.216118
vertex 15.514395 50.445717 -10.216066
vertex 12.885707 55.703094 -12.125951
endloop
endfacet
facet normal 0.024747 -0.330386 -0.943521
outer loop
vertex 15.514395 50.445717 -10.216066
vertex 10.121827 51.230896 -10.632444
vertex 12.885707 55.703094 -12.125951
endloop
endfacet
facet normal -0.802609 0.125627 -0.583127
outer loop
vertex 7.007852 55.703094 -10.216118
vertex 3.375130 55.703094 -5.216078
vertex 5.649634 60.175289 -7.383205
endloop
endfacet
facet normal -0.794655 -0.187595 -0.577348
outer loop
vertex 7.007852 55.703094 -10.216118
vertex 6.003815 50.445732 -7.125920
vertex 3.375130 55.703094 -5.216078
endloop
endfacet
facet normal -0.889697 -0.330385 -0.315095
outer loop
vertex 6.003815 50.445732 -7.125920
vertex 3.941446 51.230938 -2.125952
vertex 3.375130 55.703094 -5.216078
endloop
endfacet
facet normal -0.802609 0.125627 0.583127
outer loop
vertex 3.375130 55.703094 0.964174
vertex 7.007852 55.703094 5.964214
vertex 5.649634 60.175289 3.131301
endloop
endfacet
facet normal -0.794656 -0.187595 0.577348
outer loop
vertex 3.375130 55.703094 0.964174
vertex 6.003815 50.445732 2.874017
vertex 7.007852 55.703094 5.964214
endloop
endfacet
facet normal -0.574602 -0.330387 0.748783
outer loop
vertex 6.003815 50.445732 2.874017
vertex 10.121827 51.230896 6.380541
vertex 7.007852 55.703094 5.964214
endloop
endfacet
facet normal 0.306569 0.125629 0.943522
outer loop
vertex 12.885707 55.703094 7.874047
vertex 18.763561 55.703094 5.964214
vertex 15.649587 60.175293 6.380541
endloop
endfacet
facet normal 0.303531 -0.187598 0.934171
outer loop
vertex 12.885707 55.703094 7.874047
vertex 15.514395 50.445717 5.964163
vertex 18.763561 55.703094 5.964214
endloop
endfacet
facet normal 0.534576 -0.330386 0.777864
outer loop
vertex 15.514395 50.445717 5.964163
vertex 20.121780 51.230900 3.131301
vertex 18.763561 55.703094 5.964214
endloop
endfacet
facet normal 0.992077 0.125628 0.000000
outer loop
vertex 22.396284 55.703094 0.964174
vertex 22.396284 55.703094 -5.216078
vertex 21.829967 60.175251 -2.125952
endloop
endfacet
facet normal 0.982246 -0.187599 0.000000
outer loop
vertex 22.396284 55.703094 0.964174
vertex 21.392185 50.445736 -2.125952
vertex 22.396284 55.703094 -5.216078
endloop
endfacet
facet normal 0.904989 -0.330384 -0.268031
outer loop
vertex 21.392185 50.445736 -2.125952
vertex 20.121780 51.230900 -7.383205
vertex 22.396284 55.703094 -5.216078
endloop
endfacet
facet normal 0.471300 -0.661699 -0.583122
outer loop
vertex 17.138933 47.196556 -5.216065
vertex 15.514395 50.445717 -10.216066
vertex 20.121780 51.230900 -7.383205
endloop
endfacet
facet normal 0.187595 -0.794658 -0.577344
outer loop
vertex 17.138933 47.196556 -5.216065
vertex 11.261151 47.196552 -7.125904
vertex 15.514395 50.445717 -10.216066
endloop
endfacet
facet normal -0.038530 -0.661699 -0.748779
outer loop
vertex 11.261151 47.196552 -7.125904
vertex 10.121827 51.230896 -10.632444
vertex 15.514395 50.445717 -10.216066
endloop
endfacet
facet normal -0.408946 -0.661699 -0.628425
outer loop
vertex 11.261151 47.196552 -7.125904
vertex 6.003815 50.445732 -7.125920
vertex 10.121827 51.230896 -10.632444
endloop
endfacet
facet normal -0.491119 -0.794657 -0.356822
outer loop
vertex 11.261151 47.196552 -7.125904
vertex 7.628410 47.196579 -2.125952
vertex 6.003815 50.445732 -7.125920
endloop
endfacet
facet normal -0.724042 -0.661696 -0.194736
outer loop
vertex 7.628410 47.196579 -2.125952
vertex 3.941446 51.230938 -2.125952
vertex 6.003815 50.445732 -7.125920
endloop
endfacet
facet normal -0.724042 -0.661696 0.194736
outer loop
vertex 7.628410 47.196579 -2.125952
vertex 6.003815 50.445732 2.874017
vertex 3.941446 51.230938 -2.125952
endloop
endfacet
facet normal -0.491119 -0.794657 0.356823
outer loop
vertex 7.628410 47.196579 -2.125952
vertex 11.261151 47.196552 2.874000
vertex 6.003815 50.445732 2.874017
endloop
endfacet
facet normal -0.408946 -0.661699 0.628425
outer loop
vertex 11.261151 47.196552 2.874000
vertex 10.121827 51.230896 6.380541
vertex 6.003815 50.445732 2.874017
endloop
endfacet
facet normal 0.700223 -0.661699 -0.268033
outer loop
vertex 21.392185 50.445736 -2.125952
vertex 17.138933 47.196556 -5.216065
vertex 20.121780 51.230900 -7.383205
endloop
endfacet
facet normal 0.607060 -0.794656 0.000000
outer loop
vertex 21.392185 50.445736 -2.125952
vertex 17.138933 47.196556 0.964161
vertex 17.138933 47.196556 -5.216065
endloop
endfacet
facet normal 0.331305 -0.943524 0.000000
outer loop
vertex 17.138933 47.196556 0.964161
vertex 12.885707 45.703094 -2.125952
vertex 17.138933 47.196556 -5.216065
endloop
endfacet
facet normal -0.038530 -0.661699 0.748779
outer loop
vertex 11.261151 47.196552 2.874000
vertex 15.514395 50.445717 5.964163
vertex 10.121827 51.230896 6.380541
endloop
endfacet
facet normal 0.187594 -0.794658 0.577344
outer loop
vertex 11.261151 47.196552 2.874000
vertex 17.138933 47.196556 0.964161
vertex 15.514395 50.445717 5.964163
endloop
endfacet
facet normal 0.471300 -0.661699 0.583122
outer loop
vertex 17.138933 47.196556 0.964161
vertex 20.121780 51.230900 3.131301
vertex 15.514395 50.445717 5.964163
endloop
endfacet
endsolid Exported from Blender-2.74 (sub 0)
