solid Exported from Blender-2.74 (sub 0)
facet normal 0.102381 -0.943523 0.315091
outer loop
vertex 6.951519 41.140121 12.890393
vertex 11.204746 42.633583 15.980507
vertex 5.326964 42.633579 17.890347
endloop
endfacet
facet normal 0.700224 -0.661699 0.268032
outer loop
vertex 14.187593 46.667927 18.147646
vertex 11.204746 42.633583 15.980507
vertex 15.457996 45.882763 12.890393
endloop
endfacet
facet normal -0.268034 -0.943523 0.194736
outer loop
vertex 6.951519 41.140121 12.890393
vertex 5.326964 42.633579 17.890347
vertex 1.694222 42.633606 12.890393
endloop
endfacet
facet normal -0.268034 -0.943523 -0.194736
outer loop
vertex 6.951519 41.140121 12.890393
vertex 1.694222 42.633606 12.890393
vertex 5.326964 42.633579 7.890441
endloop
endfacet
facet normal 0.102381 -0.943523 -0.315091
outer loop
vertex 6.951519 41.140121 12.890393
vertex 5.326964 42.633579 7.890441
vertex 11.204746 42.633583 9.800280
endloop
endfacet
facet normal 0.904989 -0.330385 0.268031
outer loop
vertex 14.187593 46.667927 18.147646
vertex 15.457996 45.882763 12.890393
vertex 16.462097 51.140121 15.980519
endloop
endfacet
facet normal 0.024747 -0.330386 0.943521
outer loop
vertex 4.187639 46.667923 21.396885
vertex 9.580208 45.882744 20.980507
vertex 6.951519 51.140121 22.890392
endloop
endfacet
facet normal -0.889697 -0.330385 0.315094
outer loop
vertex -1.992741 46.667965 12.890393
vertex 0.069627 45.882759 17.890362
vertex -2.559058 51.140121 15.980519
endloop
endfacet
facet normal -0.574602 -0.330387 -0.748784
outer loop
vertex 4.187639 46.667923 4.383901
vertex 0.069627 45.882759 7.890425
vertex 1.073665 51.140121 4.800227
endloop
endfacet
facet normal 0.534576 -0.330387 -0.777864
outer loop
vertex 14.187593 46.667927 7.633140
vertex 9.580207 45.882744 4.800279
vertex 12.829374 51.140121 4.800227
endloop
endfacet
facet normal 0.802608 -0.125627 0.583127
outer loop
vertex 14.187593 46.667927 18.147646
vertex 16.462097 51.140121 15.980519
vertex 12.829374 51.140121 20.980560
endloop
endfacet
facet normal -0.306569 -0.125629 0.943521
outer loop
vertex 4.187639 46.667923 21.396885
vertex 6.951519 51.140121 22.890392
vertex 1.073665 51.140121 20.980560
endloop
endfacet
facet normal -0.992077 -0.125628 0.000000
outer loop
vertex -1.992741 46.667965 12.890393
vertex -2.559058 51.140121 15.980519
vertex -2.559058 51.140121 9.800267
endloop
endfacet
facet normal -0.306569 -0.125628 -0.943522
outer loop
vertex 4.187639 46.667923 4.383901
vertex 1.073665 51.140121 4.800227
vertex 6.951519 51.140121 2.890394
endloop
endfacet
facet normal 0.802609 -0.125627 -0.583127
outer loop
vertex 14.187593 46.667927 7.633140
vertex 12.829374 51.140121 4.800227
vertex 16.462097 51.140121 9.800267
endloop
endfacet
facet normal 0.408946 0.661698 0.628425
outer loop
vertex 9.715400 55.612320 21.396885
vertex 13.833412 56.397484 17.890362
vertex 8.576075 59.646664 17.890347
endloop
endfacet
facet normal -0.471300 0.661699 0.583122
outer loop
vertex -0.284554 55.612316 18.147646
vertex 4.322832 56.397499 20.980507
vertex 2.698293 59.646660 15.980507
endloop
endfacet
facet normal -0.700223 0.661699 -0.268033
outer loop
vertex -0.284554 55.612316 7.633140
vertex -1.554958 56.397480 12.890393
vertex 2.698293 59.646660 9.800280
endloop
endfacet
facet normal 0.038530 0.661699 -0.748779
outer loop
vertex 9.715400 55.612320 4.383901
vertex 4.322832 56.397499 4.800279
vertex 8.576075 59.646664 7.890441
endloop
endfacet
facet normal 0.724042 0.661696 -0.194736
outer loop
vertex 15.895781 55.612278 12.890393
vertex 13.833412 56.397484 7.890425
vertex 12.208817 59.646637 12.890393
endloop
endfacet
facet normal 0.268035 0.943523 -0.194735
outer loop
vertex 12.208817 59.646637 12.890393
vertex 8.576075 59.646664 7.890441
vertex 6.951519 61.140121 12.890393
endloop
endfacet
facet normal 0.491119 0.794657 -0.356822
outer loop
vertex 12.208817 59.646637 12.890393
vertex 13.833412 56.397484 7.890425
vertex 8.576075 59.646664 7.890441
endloop
endfacet
facet normal 0.408946 0.661699 -0.628425
outer loop
vertex 13.833412 56.397484 7.890425
vertex 9.715400 55.612320 4.383901
vertex 8.576075 59.646664 7.890441
endloop
endfacet
facet normal -0.102381 0.943523 -0.315091
outer loop
vertex 8.576075 59.646664 7.890441
vertex 2.698293 59.646660 9.800280
vertex 6.951519 61.140121 12.890393
endloop
endfacet
facet normal -0.187594 0.794658 -0.577345
outer loop
vertex 8.576075 59.646664 7.890441
vertex 4.322832 56.397499 4.800279
vertex 2.698293 59.646660 9.800280
endloop
endfacet
facet normal -0.471300 0.661699 -0.583122
outer loop
vertex 4.322832 56.397499 4.800279
vertex -0.284554 55.612316 7.633140
vertex 2.698293 59.646660 9.800280
endloop
endfacet
facet normal -0.331305 0.943524 0.000000
outer loop
vertex 2.698293 59.646660 9.800280
vertex 2.698293 59.646660 15.980507
vertex 6.951519 61.140121 12.890393
endloop
endfacet
facet normal -0.607060 0.794656 0.000000
outer loop
vertex 2.698293 59.646660 9.800280
vertex -1.554958 56.397480 12.890393
vertex 2.698293 59.646660 15.980507
endloop
endfacet
facet normal -0.700223 0.661699 0.268033
outer loop
vertex -1.554958 56.397480 12.890393
vertex -0.284554 55.612316 18.147646
vertex 2.698293 59.646660 15.980507
endloop
endfacet
facet normal -0.102381 0.943523 0.315091
outer loop
vertex 2.698293 59.646660 15.980507
vertex 8.576075 59.646664 17.890347
vertex 6.951519 61.140121 12.890393
endloop
endfacet
facet normal -0.187594 0.794658 0.577345
outer loop
vertex 2.698293 59.646660 15.980507
vertex 4.322832 56.397499 20.980507
vertex 8.576075 59.646664 17.890347
endloop
endfacet
facet normal 0.038530 0.661699 0.748779
outer loop
vertex 4.322832 56.397499 20.980507
vertex 9.715400 55.612320 21.396885
vertex 8.576075 59.646664 17.890347
endloop
endfacet
facet normal 0.268034 0.943523 0.194736
outer loop
vertex 8.576075 59.646664 17.890347
vertex 12.208817 59.646637 12.890393
vertex 6.951519 61.140121 12.890393
endloop
endfacet
facet normal 0.491119 0.794657 0.356822
outer loop
vertex 8.576075 59.646664 17.890347
vertex 13.833412 56.397484 17.890362
vertex 12.208817 59.646637 12.890393
endloop
endfacet
facet normal 0.724042 0.661696 0.194736
outer loop
vertex 13.833412 56.397484 17.890362
vertex 15.895781 55.612278 12.890393
vertex 12.208817 59.646637 12.890393
endloop
endfacet
facet normal 0.889697 0.330385 -0.315095
outer loop
vertex 16.462097 51.140121 9.800267
vertex 13.833412 56.397484 7.890425
vertex 15.895781 55.612278 12.890393
endloop
endfacet
facet normal 0.794656 0.187595 -0.577348
outer loop
vertex 16.462097 51.140121 9.800267
vertex 12.829374 51.140121 4.800227
vertex 13.833412 56.397484 7.890425
endloop
endfacet
facet normal 0.574602 0.330387 -0.748783
outer loop
vertex 12.829374 51.140121 4.800227
vertex 9.715400 55.612320 4.383901
vertex 13.833412 56.397484 7.890425
endloop
endfacet
facet normal -0.024747 0.330386 -0.943521
outer loop
vertex 6.951519 51.140121 2.890394
vertex 4.322832 56.397499 4.800279
vertex 9.715400 55.612320 4.383901
endloop
endfacet
facet normal -0.303531 0.187597 -0.934171
outer loop
vertex 6.951519 51.140121 2.890394
vertex 1.073665 51.140121 4.800227
vertex 4.322832 56.397499 4.800279
endloop
endfacet
facet normal -0.534576 0.330387 -0.777864
outer loop
vertex 1.073665 51.140121 4.800227
vertex -0.284554 55.612316 7.633140
vertex 4.322832 56.397499 4.800279
endloop
endfacet
facet normal -0.904989 0.330384 -0.268031
outer loop
vertex -2.559058 51.140121 9.800267
vertex -1.554958 56.397480 12.890393
vertex -0.284554 55.612316 7.633140
endloop
endfacet
facet normal -0.982246 0.187598 0.000000
outer loop
vertex -2.559058 51.140121 9.800267
vertex -2.559058 51.140121 15.980519
vertex -1.554958 56.397480 12.890393
endloop
endfacet
facet normal -0.904989 0.330384 0.268031
outer loop
vertex -2.559058 51.140121 15.980519
vertex -0.284554 55.612316 18.147646
vertex -1.554958 56.397480 12.890393
endloop
endfacet
facet normal -0.534576 0.330387 0.777864
outer loop
vertex 1.073665 51.140121 20.980560
vertex 4.322832 56.397499 20.980507
vertex -0.284554 55.612316 18.147646
endloop
endfacet
facet normal -0.303531 0.187598 0.934171
outer loop
vertex 1.073665 51.140121 20.980560
vertex 6.951519 51.140121 22.890392
vertex 4.322832 56.397499 20.980507
endloop
endfacet
facet normal -0.024747 0.330387 0.943521
outer loop
vertex 6.951519 51.140121 22.890392
vertex 9.715400 55.612320 21.396885
vertex 4.322832 56.397499 20.980507
endloop
endfacet
facet normal 0.574602 0.330388 0.748783
outer loop
vertex 12.829374 51.140121 20.980560
vertex 13.833412 56.397484 17.890362
vertex 9.715400 55.612320 21.396885
endloop
endfacet
facet normal 0.794656 0.187595 0.577348
outer loop
vertex 12.829374 51.140121 20.980560
vertex 16.462097 51.140121 15.980519
vertex 13.833412 56.397484 17.890362
endloop
endfacet
facet normal 0.889697 0.330385 0.315095
outer loop
vertex 16.462097 51.140121 15.980519
vertex 15.895781 55.612278 12.890393
vertex 13.833412 56.397484 17.890362
endloop
endfacet
facet normal 0.306569 0.125628 -0.943522
outer loop
vertex 12.829374 51.140121 4.800227
vertex 6.951519 51.140121 2.890394
vertex 9.715400 55.612320 4.383901
endloop
endfacet
facet normal 0.303531 -0.187598 -0.934171
outer loop
vertex 12.829374 51.140121 4.800227
vertex 9.580207 45.882744 4.800279
vertex 6.951519 51.140121 2.890394
endloop
endfacet
facet normal 0.024747 -0.330386 -0.943521
outer loop
vertex 9.580207 45.882744 4.800279
vertex 4.187639 46.667923 4.383901
vertex 6.951519 51.140121 2.890394
endloop
endfacet
facet normal -0.802609 0.125627 -0.583127
outer loop
vertex 1.073665 51.140121 4.800227
vertex -2.559058 51.140121 9.800267
vertex -0.284554 55.612316 7.633140
endloop
endfacet
facet normal -0.794656 -0.187595 -0.577348
outer loop
vertex 1.073665 51.140121 4.800227
vertex 0.069627 45.882759 7.890425
vertex -2.559058 51.140121 9.800267
endloop
endfacet
facet normal -0.889697 -0.330385 -0.315095
outer loop
vertex 0.069627 45.882759 7.890425
vertex -1.992741 46.667965 12.890393
vertex -2.559058 51.140121 9.800267
endloop
endfacet
facet normal -0.802609 0.125627 0.583127
outer loop
vertex -2.559058 51.140121 15.980519
vertex 1.073665 51.140121 20.980560
vertex -0.284554 55.612316 18.147646
endloop
endfacet
facet normal -0.794656 -0.187595 0.577348
outer loop
vertex -2.559058 51.140121 15.980519
vertex 0.069627 45.882759 17.890362
vertex 1.073665 51.140121 20.980560
endloop
endfacet
facet normal -0.574601 -0.330387 0.748784
outer loop
vertex 0.069627 45.882759 17.890362
vertex 4.187639 46.667923 21.396885
vertex 1.073665 51.140121 20.980560
endloop
endfacet
facet normal 0.306569 0.125629 0.943521
outer loop
vertex 6.951519 51.140121 22.890392
vertex 12.829374 51.140121 20.980560
vertex 9.715400 55.612320 21.396885
endloop
endfacet
facet normal 0.303531 -0.187598 0.934171
outer loop
vertex 6.951519 51.140121 22.890392
vertex 9.580208 45.882744 20.980507
vertex 12.829374 51.140121 20.980560
endloop
endfacet
facet normal 0.534576 -0.330387 0.777864
outer loop
vertex 9.580208 45.882744 20.980507
vertex 14.187593 46.667927 18.147646
vertex 12.829374 51.140121 20.980560
endloop
endfacet
facet normal 0.992077 0.125628 0.000000
outer loop
vertex 16.462097 51.140121 15.980519
vertex 16.462097 51.140121 9.800267
vertex 15.895781 55.612278 12.890393
endloop
endfacet
facet normal 0.982246 -0.187599 0.000000
outer loop
vertex 16.462097 51.140121 15.980519
vertex 15.457996 45.882763 12.890393
vertex 16.462097 51.140121 9.800267
endloop
endfacet
facet normal 0.904989 -0.330385 -0.268031
outer loop
vertex 15.457996 45.882763 12.890393
vertex 14.187593 46.667927 7.633140
vertex 16.462097 51.140121 9.800267
endloop
endfacet
facet normal 0.471300 -0.661699 -0.583122
outer loop
vertex 11.204746 42.633583 9.800280
vertex 9.580207 45.882744 4.800279
vertex 14.187593 46.667927 7.633140
endloop
endfacet
facet normal 0.187594 -0.794658 -0.577344
outer loop
vertex 11.204746 42.633583 9.800280
vertex 5.326964 42.633579 7.890441
vertex 9.580207 45.882744 4.800279
endloop
endfacet
facet normal -0.038530 -0.661700 -0.748778
outer loop
vertex 5.326964 42.633579 7.890441
vertex 4.187639 46.667923 4.383901
vertex 9.580207 45.882744 4.800279
endloop
endfacet
facet normal -0.408946 -0.661699 -0.628425
outer loop
vertex 5.326964 42.633579 7.890441
vertex 0.069627 45.882759 7.890425
vertex 4.187639 46.667923 4.383901
endloop
endfacet
facet normal -0.491119 -0.794657 -0.356822
outer loop
vertex 5.326964 42.633579 7.890441
vertex 1.694222 42.633606 12.890393
vertex 0.069627 45.882759 7.890425
endloop
endfacet
facet normal -0.724042 -0.661696 -0.194736
outer loop
vertex 1.694222 42.633606 12.890393
vertex -1.992741 46.667965 12.890393
vertex 0.069627 45.882759 7.890425
endloop
endfacet
facet normal -0.724042 -0.661696 0.194736
outer loop
vertex 1.694222 42.633606 12.890393
vertex 0.069627 45.882759 17.890362
vertex -1.992741 46.667965 12.890393
endloop
endfacet
facet normal -0.491119 -0.794657 0.356822
outer loop
vertex 1.694222 42.633606 12.890393
vertex 5.326964 42.633579 17.890347
vertex 0.069627 45.882759 17.890362
endloop
endfacet
facet normal -0.408946 -0.661699 0.628425
outer loop
vertex 5.326964 42.633579 17.890347
vertex 4.187639 46.667923 21.396885
vertex 0.069627 45.882759 17.890362
endloop
endfacet
facet normal 0.700224 -0.661699 -0.268032
outer loop
vertex 15.457996 45.882763 12.890393
vertex 11.204746 42.633583 9.800280
vertex 14.187593 46.667927 7.633140
endloop
endfacet
facet normal 0.607060 -0.794656 0.000000
outer loop
vertex 15.457996 45.882763 12.890393
vertex 11.204746 42.633583 15.980507
vertex 11.204746 42.633583 9.800280
endloop
endfacet
facet normal 0.331305 -0.943524 0.000000
outer loop
vertex 11.204746 42.633583 15.980507
vertex 6.951519 41.140121 12.890393
vertex 11.204746 42.633583 9.800280
endloop
endfacet
facet normal -0.038530 -0.661699 0.748779
outer loop
vertex 5.326964 42.633579 17.890347
vertex 9.580208 45.882744 20.980507
vertex 4.187639 46.667923 21.396885
endloop
endfacet
facet normal 0.187594 -0.794658 0.577345
outer loop
vertex 5.326964 42.633579 17.890347
vertex 11.204746 42.633583 15.980507
vertex 9.580208 45.882744 20.980507
endloop
endfacet
facet normal 0.471299 -0.661698 0.583123
outer loop
vertex 11.204746 42.633583 15.980507
vertex 14.187593 46.667927 18.147646
vertex 9.580208 45.882744 20.980507
endloop
endfacet
endsolid Exported from Blender-2.74 (sub 0)
