solid Exported from Blender-2.74 (sub 0)
facet normal 0.102381 -0.943523 0.315091
outer loop
vertex -8.159917 36.311691 -11.509645
vertex -3.906691 37.805153 -8.419531
vertex -9.784472 37.805149 -6.509692
endloop
endfacet
facet normal 0.700224 -0.661699 0.268032
outer loop
vertex -0.923844 41.839497 -6.252391
vertex -3.906691 37.805153 -8.419531
vertex 0.346560 41.054333 -11.509645
endloop
endfacet
facet normal -0.268035 -0.943523 0.194735
outer loop
vertex -8.159917 36.311691 -11.509645
vertex -9.784472 37.805149 -6.509692
vertex -13.417213 37.805176 -11.509645
endloop
endfacet
facet normal -0.268034 -0.943523 -0.194735
outer loop
vertex -8.159917 36.311691 -11.509645
vertex -13.417213 37.805176 -11.509645
vertex -9.784472 37.805149 -16.509598
endloop
endfacet
facet normal 0.102381 -0.943523 -0.315091
outer loop
vertex -8.159917 36.311691 -11.509645
vertex -9.784472 37.805149 -16.509598
vertex -3.906691 37.805153 -14.599758
endloop
endfacet
facet normal 0.904989 -0.330384 0.268031
outer loop
vertex -0.923844 41.839497 -6.252391
vertex 0.346560 41.054333 -11.509645
vertex 1.350660 46.311691 -8.419518
endloop
endfacet
facet normal 0.024747 -0.330386 0.943521
outer loop
vertex -10.923797 41.839493 -3.003152
vertex -5.531229 41.054314 -3.419530
vertex -8.159917 46.311691 -1.509645
endloop
endfacet
facet normal -0.889697 -0.330385 0.315095
outer loop
vertex -17.104177 41.839535 -11.509645
vertex -15.041809 41.054329 -6.509676
vertex -17.670494 46.311691 -8.419518
endloop
endfacet
facet normal -0.574602 -0.330387 -0.748784
outer loop
vertex -10.923797 41.839493 -20.016136
vertex -15.041809 41.054329 -16.509613
vertex -14.037771 46.311691 -19.599812
endloop
endfacet
facet normal 0.534577 -0.330387 -0.777864
outer loop
vertex -0.923844 41.839497 -16.766897
vertex -5.531229 41.054314 -19.599758
vertex -2.282062 46.311691 -19.599812
endloop
endfacet
facet normal 0.802609 -0.125627 0.583127
outer loop
vertex -0.923844 41.839497 -6.252391
vertex 1.350660 46.311691 -8.419518
vertex -2.282062 46.311691 -3.419478
endloop
endfacet
facet normal -0.306569 -0.125629 0.943521
outer loop
vertex -10.923797 41.839493 -3.003152
vertex -8.159917 46.311691 -1.509645
vertex -14.037771 46.311691 -3.419478
endloop
endfacet
facet normal -0.992077 -0.125628 0.000000
outer loop
vertex -17.104177 41.839535 -11.509645
vertex -17.670494 46.311691 -8.419518
vertex -17.670494 46.311691 -14.599771
endloop
endfacet
facet normal -0.306569 -0.125629 -0.943521
outer loop
vertex -10.923797 41.839493 -20.016136
vertex -14.037771 46.311691 -19.599812
vertex -8.159917 46.311691 -21.509644
endloop
endfacet
facet normal 0.802609 -0.125627 -0.583127
outer loop
vertex -0.923844 41.839497 -16.766897
vertex -2.282062 46.311691 -19.599812
vertex 1.350660 46.311691 -14.599771
endloop
endfacet
facet normal 0.408946 0.661698 0.628425
outer loop
vertex -5.396037 50.783890 -3.003152
vertex -1.278025 51.569054 -6.509676
vertex -6.535361 54.818233 -6.509692
endloop
endfacet
facet normal -0.471300 0.661699 0.583122
outer loop
vertex -15.395990 50.783886 -6.252391
vertex -10.788605 51.569069 -3.419530
vertex -12.413143 54.818230 -8.419531
endloop
endfacet
facet normal -0.700223 0.661699 -0.268033
outer loop
vertex -15.395990 50.783886 -16.766897
vertex -16.666393 51.569050 -11.509645
vertex -12.413143 54.818230 -14.599758
endloop
endfacet
facet normal 0.038531 0.661699 -0.748779
outer loop
vertex -5.396037 50.783890 -20.016136
vertex -10.788605 51.569069 -19.599758
vertex -6.535361 54.818233 -16.509598
endloop
endfacet
facet normal 0.724042 0.661696 -0.194736
outer loop
vertex 0.784344 50.783848 -11.509645
vertex -1.278025 51.569054 -16.509613
vertex -2.902620 54.818207 -11.509645
endloop
endfacet
facet normal 0.268034 0.943523 -0.194735
outer loop
vertex -2.902620 54.818207 -11.509645
vertex -6.535361 54.818233 -16.509598
vertex -8.159917 56.311691 -11.509645
endloop
endfacet
facet normal 0.491119 0.794657 -0.356821
outer loop
vertex -2.902620 54.818207 -11.509645
vertex -1.278025 51.569054 -16.509613
vertex -6.535361 54.818233 -16.509598
endloop
endfacet
facet normal 0.408946 0.661699 -0.628425
outer loop
vertex -1.278025 51.569054 -16.509613
vertex -5.396037 50.783890 -20.016136
vertex -6.535361 54.818233 -16.509598
endloop
endfacet
facet normal -0.102381 0.943523 -0.315091
outer loop
vertex -6.535361 54.818233 -16.509598
vertex -12.413143 54.818230 -14.599758
vertex -8.159917 56.311691 -11.509645
endloop
endfacet
facet normal -0.187594 0.794658 -0.577345
outer loop
vertex -6.535361 54.818233 -16.509598
vertex -10.788605 51.569069 -19.599758
vertex -12.413143 54.818230 -14.599758
endloop
endfacet
facet normal -0.471300 0.661699 -0.583122
outer loop
vertex -10.788605 51.569069 -19.599758
vertex -15.395990 50.783886 -16.766897
vertex -12.413143 54.818230 -14.599758
endloop
endfacet
facet normal -0.331305 0.943524 0.000000
outer loop
vertex -12.413143 54.818230 -14.599758
vertex -12.413143 54.818230 -8.419531
vertex -8.159917 56.311691 -11.509645
endloop
endfacet
facet normal -0.607060 0.794656 0.000000
outer loop
vertex -12.413143 54.818230 -14.599758
vertex -16.666393 51.569050 -11.509645
vertex -12.413143 54.818230 -8.419531
endloop
endfacet
facet normal -0.700223 0.661699 0.268033
outer loop
vertex -16.666393 51.569050 -11.509645
vertex -15.395990 50.783886 -6.252391
vertex -12.413143 54.818230 -8.419531
endloop
endfacet
facet normal -0.102381 0.943523 0.315091
outer loop
vertex -12.413143 54.818230 -8.419531
vertex -6.535361 54.818233 -6.509692
vertex -8.159917 56.311691 -11.509645
endloop
endfacet
facet normal -0.187594 0.794658 0.577345
outer loop
vertex -12.413143 54.818230 -8.419531
vertex -10.788605 51.569069 -3.419530
vertex -6.535361 54.818233 -6.509692
endloop
endfacet
facet normal 0.038530 0.661699 0.748779
outer loop
vertex -10.788605 51.569069 -3.419530
vertex -5.396037 50.783890 -3.003152
vertex -6.535361 54.818233 -6.509692
endloop
endfacet
facet normal 0.268035 0.943523 0.194734
outer loop
vertex -6.535361 54.818233 -6.509692
vertex -2.902620 54.818207 -11.509645
vertex -8.159917 56.311691 -11.509645
endloop
endfacet
facet normal 0.491119 0.794657 0.356821
outer loop
vertex -6.535361 54.818233 -6.509692
vertex -1.278025 51.569054 -6.509676
vertex -2.902620 54.818207 -11.509645
endloop
endfacet
facet normal 0.724042 0.661696 0.194736
outer loop
vertex -1.278025 51.569054 -6.509676
vertex 0.784344 50.783848 -11.509645
vertex -2.902620 54.818207 -11.509645
endloop
endfacet
facet normal 0.889697 0.330385 -0.315095
outer loop
vertex 1.350660 46.311691 -14.599771
vertex -1.278025 51.569054 -16.509613
vertex 0.784344 50.783848 -11.509645
endloop
endfacet
facet normal 0.794656 0.187595 -0.577348
outer loop
vertex 1.350660 46.311691 -14.599771
vertex -2.282062 46.311691 -19.599812
vertex -1.278025 51.569054 -16.509613
endloop
endfacet
facet normal 0.574602 0.330388 -0.748783
outer loop
vertex -2.282062 46.311691 -19.599812
vertex -5.396037 50.783890 -20.016136
vertex -1.278025 51.569054 -16.509613
endloop
endfacet
facet normal -0.024747 0.330386 -0.943521
outer loop
vertex -8.159917 46.311691 -21.509644
vertex -10.788605 51.569069 -19.599758
vertex -5.396037 50.783890 -20.016136
endloop
endfacet
facet normal -0.303531 0.187598 -0.934171
outer loop
vertex -8.159917 46.311691 -21.509644
vertex -14.037771 46.311691 -19.599812
vertex -10.788605 51.569069 -19.599758
endloop
endfacet
facet normal -0.534576 0.330386 -0.777864
outer loop
vertex -14.037771 46.311691 -19.599812
vertex -15.395990 50.783886 -16.766897
vertex -10.788605 51.569069 -19.599758
endloop
endfacet
facet normal -0.904989 0.330384 -0.268031
outer loop
vertex -17.670494 46.311691 -14.599771
vertex -16.666393 51.569050 -11.509645
vertex -15.395990 50.783886 -16.766897
endloop
endfacet
facet normal -0.982246 0.187599 0.000000
outer loop
vertex -17.670494 46.311691 -14.599771
vertex -17.670494 46.311691 -8.419518
vertex -16.666393 51.569050 -11.509645
endloop
endfacet
facet normal -0.904989 0.330384 0.268031
outer loop
vertex -17.670494 46.311691 -8.419518
vertex -15.395990 50.783886 -6.252391
vertex -16.666393 51.569050 -11.509645
endloop
endfacet
facet normal -0.534576 0.330386 0.777865
outer loop
vertex -14.037771 46.311691 -3.419478
vertex -10.788605 51.569069 -3.419530
vertex -15.395990 50.783886 -6.252391
endloop
endfacet
facet normal -0.303531 0.187598 0.934171
outer loop
vertex -14.037771 46.311691 -3.419478
vertex -8.159917 46.311691 -1.509645
vertex -10.788605 51.569069 -3.419530
endloop
endfacet
facet normal -0.024747 0.330386 0.943521
outer loop
vertex -8.159917 46.311691 -1.509645
vertex -5.396037 50.783890 -3.003152
vertex -10.788605 51.569069 -3.419530
endloop
endfacet
facet normal 0.574602 0.330387 0.748783
outer loop
vertex -2.282062 46.311691 -3.419478
vertex -1.278025 51.569054 -6.509676
vertex -5.396037 50.783890 -3.003152
endloop
endfacet
facet normal 0.794656 0.187595 0.577348
outer loop
vertex -2.282062 46.311691 -3.419478
vertex 1.350660 46.311691 -8.419518
vertex -1.278025 51.569054 -6.509676
endloop
endfacet
facet normal 0.889697 0.330385 0.315095
outer loop
vertex 1.350660 46.311691 -8.419518
vertex 0.784344 50.783848 -11.509645
vertex -1.278025 51.569054 -6.509676
endloop
endfacet
facet normal 0.306569 0.125629 -0.943521
outer loop
vertex -2.282062 46.311691 -19.599812
vertex -8.159917 46.311691 -21.509644
vertex -5.396037 50.783890 -20.016136
endloop
endfacet
facet normal 0.303531 -0.187598 -0.934171
outer loop
vertex -2.282062 46.311691 -19.599812
vertex -5.531229 41.054314 -19.599758
vertex -8.159917 46.311691 -21.509644
endloop
endfacet
facet normal 0.024747 -0.330386 -0.943521
outer loop
vertex -5.531229 41.054314 -19.599758
vertex -10.923797 41.839493 -20.016136
vertex -8.159917 46.311691 -21.509644
endloop
endfacet
facet normal -0.802609 0.125627 -0.583127
outer loop
vertex -14.037771 46.311691 -19.599812
vertex -17.670494 46.311691 -14.599771
vertex -15.395990 50.783886 -16.766897
endloop
endfacet
facet normal -0.794656 -0.187595 -0.577348
outer loop
vertex -14.037771 46.311691 -19.599812
vertex -15.041809 41.054329 -16.509613
vertex -17.670494 46.311691 -14.599771
endloop
endfacet
facet normal -0.889697 -0.330385 -0.315095
outer loop
vertex -15.041809 41.054329 -16.509613
vertex -17.104177 41.839535 -11.509645
vertex -17.670494 46.311691 -14.599771
endloop
endfacet
facet normal -0.802609 0.125627 0.583127
outer loop
vertex -17.670494 46.311691 -8.419518
vertex -14.037771 46.311691 -3.419478
vertex -15.395990 50.783886 -6.252391
endloop
endfacet
facet normal -0.794656 -0.187595 0.577348
outer loop
vertex -17.670494 46.311691 -8.419518
vertex -15.041809 41.054329 -6.509676
vertex -14.037771 46.311691 -3.419478
endloop
endfacet
facet normal -0.574602 -0.330387 0.748783
outer loop
vertex -15.041809 41.054329 -6.509676
vertex -10.923797 41.839493 -3.003152
vertex -14.037771 46.311691 -3.419478
endloop
endfacet
facet normal 0.306569 0.125629 0.943521
outer loop
vertex -8.159917 46.311691 -1.509645
vertex -2.282062 46.311691 -3.419478
vertex -5.396037 50.783890 -3.003152
endloop
endfacet
facet normal 0.303531 -0.187597 0.934171
outer loop
vertex -8.159917 46.311691 -1.509645
vertex -5.531229 41.054314 -3.419530
vertex -2.282062 46.311691 -3.419478
endloop
endfacet
facet normal 0.534576 -0.330387 0.777864
outer loop
vertex -5.531229 41.054314 -3.419530
vertex -0.923844 41.839497 -6.252391
vertex -2.282062 46.311691 -3.419478
endloop
endfacet
facet normal 0.992077 0.125628 0.000000
outer loop
vertex 1.350660 46.311691 -8.419518
vertex 1.350660 46.311691 -14.599771
vertex 0.784344 50.783848 -11.509645
endloop
endfacet
facet normal 0.982246 -0.187599 0.000000
outer loop
vertex 1.350660 46.311691 -8.419518
vertex 0.346560 41.054333 -11.509645
vertex 1.350660 46.311691 -14.599771
endloop
endfacet
facet normal 0.904989 -0.330384 -0.268031
outer loop
vertex 0.346560 41.054333 -11.509645
vertex -0.923844 41.839497 -16.766897
vertex 1.350660 46.311691 -14.599771
endloop
endfacet
facet normal 0.471299 -0.661699 -0.583122
outer loop
vertex -3.906691 37.805153 -14.599758
vertex -5.531229 41.054314 -19.599758
vertex -0.923844 41.839497 -16.766897
endloop
endfacet
facet normal 0.187594 -0.794658 -0.577345
outer loop
vertex -3.906691 37.805153 -14.599758
vertex -9.784472 37.805149 -16.509598
vertex -5.531229 41.054314 -19.599758
endloop
endfacet
facet normal -0.038530 -0.661699 -0.748779
outer loop
vertex -9.784472 37.805149 -16.509598
vertex -10.923797 41.839493 -20.016136
vertex -5.531229 41.054314 -19.599758
endloop
endfacet
facet normal -0.408946 -0.661699 -0.628424
outer loop
vertex -9.784472 37.805149 -16.509598
vertex -15.041809 41.054329 -16.509613
vertex -10.923797 41.839493 -20.016136
endloop
endfacet
facet normal -0.491119 -0.794657 -0.356822
outer loop
vertex -9.784472 37.805149 -16.509598
vertex -13.417213 37.805176 -11.509645
vertex -15.041809 41.054329 -16.509613
endloop
endfacet
facet normal -0.724042 -0.661696 -0.194736
outer loop
vertex -13.417213 37.805176 -11.509645
vertex -17.104177 41.839535 -11.509645
vertex -15.041809 41.054329 -16.509613
endloop
endfacet
facet normal -0.724042 -0.661696 0.194736
outer loop
vertex -13.417213 37.805176 -11.509645
vertex -15.041809 41.054329 -6.509676
vertex -17.104177 41.839535 -11.509645
endloop
endfacet
facet normal -0.491119 -0.794657 0.356822
outer loop
vertex -13.417213 37.805176 -11.509645
vertex -9.784472 37.805149 -6.509692
vertex -15.041809 41.054329 -6.509676
endloop
endfacet
facet normal -0.408946 -0.661699 0.628424
outer loop
vertex -9.784472 37.805149 -6.509692
vertex -10.923797 41.839493 -3.003152
vertex -15.041809 41.054329 -6.509676
endloop
endfacet
facet normal 0.700224 -0.661699 -0.268033
outer loop
vertex 0.346560 41.054333 -11.509645
vertex -3.906691 37.805153 -14.599758
vertex -0.923844 41.839497 -16.766897
endloop
endfacet
facet normal 0.607060 -0.794656 0.000000
outer loop
vertex 0.346560 41.054333 -11.509645
vertex -3.906691 37.805153 -8.419531
vertex -3.906691 37.805153 -14.599758
endloop
endfacet
facet normal 0.331305 -0.943524 0.000000
outer loop
vertex -3.906691 37.805153 -8.419531
vertex -8.159917 36.311691 -11.509645
vertex -3.906691 37.805153 -14.599758
endloop
endfacet
facet normal -0.038530 -0.661699 0.748779
outer loop
vertex -9.784472 37.805149 -6.509692
vertex -5.531229 41.054314 -3.419530
vertex -10.923797 41.839493 -3.003152
endloop
endfacet
facet normal 0.187594 -0.794658 0.577345
outer loop
vertex -9.784472 37.805149 -6.509692
vertex -3.906691 37.805153 -8.419531
vertex -5.531229 41.054314 -3.419530
endloop
endfacet
facet normal 0.471300 -0.661699 0.583122
outer loop
vertex -3.906691 37.805153 -8.419531
vertex -0.923844 41.839497 -6.252391
vertex -5.531229 41.054314 -3.419530
endloop
endfacet
endsolid Exported from Blender-2.74 (sub 0)
