solid Exported from Blender-2.74 (sub 0)
facet normal 0.102381 -0.943524 0.315089
outer loop
vertex 0.235962 42.777267 -13.132445
vertex 4.489188 44.270729 -10.042332
vertex -1.388593 44.270725 -8.132493
endloop
endfacet
facet normal 0.700223 -0.661699 0.268033
outer loop
vertex 7.472035 48.305073 -7.875192
vertex 4.489188 44.270729 -10.042332
vertex 8.742439 47.519909 -13.132445
endloop
endfacet
facet normal -0.268034 -0.943523 0.194736
outer loop
vertex 0.235962 42.777267 -13.132445
vertex -1.388593 44.270725 -8.132493
vertex -5.021335 44.270752 -13.132445
endloop
endfacet
facet normal -0.268034 -0.943523 -0.194736
outer loop
vertex 0.235962 42.777267 -13.132445
vertex -5.021335 44.270752 -13.132445
vertex -1.388593 44.270725 -18.132397
endloop
endfacet
facet normal 0.102381 -0.943524 -0.315090
outer loop
vertex 0.235962 42.777267 -13.132445
vertex -1.388593 44.270725 -18.132397
vertex 4.489188 44.270729 -16.222559
endloop
endfacet
facet normal 0.904989 -0.330385 0.268031
outer loop
vertex 7.472035 48.305073 -7.875192
vertex 8.742439 47.519909 -13.132445
vertex 9.746539 52.777267 -10.042319
endloop
endfacet
facet normal 0.024747 -0.330386 0.943522
outer loop
vertex -2.527918 48.305069 -4.625953
vertex 2.864650 47.519890 -5.042331
vertex 0.235962 52.777267 -3.132446
endloop
endfacet
facet normal -0.889697 -0.330385 0.315094
outer loop
vertex -8.708299 48.305111 -13.132445
vertex -6.645930 47.519905 -8.132477
vertex -9.274615 52.777267 -10.042319
endloop
endfacet
facet normal -0.574602 -0.330387 -0.748784
outer loop
vertex -2.527918 48.305069 -21.638939
vertex -6.645930 47.519905 -18.132414
vertex -5.641893 52.777267 -21.222610
endloop
endfacet
facet normal 0.534576 -0.330387 -0.777864
outer loop
vertex 7.472035 48.305073 -18.389698
vertex 2.864650 47.519890 -21.222561
vertex 6.113817 52.777267 -21.222610
endloop
endfacet
facet normal 0.802609 -0.125627 0.583127
outer loop
vertex 7.472035 48.305073 -7.875192
vertex 9.746539 52.777267 -10.042319
vertex 6.113817 52.777267 -5.042279
endloop
endfacet
facet normal -0.306570 -0.125629 0.943521
outer loop
vertex -2.527918 48.305069 -4.625953
vertex 0.235962 52.777267 -3.132446
vertex -5.641893 52.777267 -5.042279
endloop
endfacet
facet normal -0.992077 -0.125628 0.000000
outer loop
vertex -8.708299 48.305111 -13.132445
vertex -9.274615 52.777267 -10.042319
vertex -9.274615 52.777267 -16.222572
endloop
endfacet
facet normal -0.306570 -0.125628 -0.943521
outer loop
vertex -2.527918 48.305069 -21.638939
vertex -5.641893 52.777267 -21.222610
vertex 0.235962 52.777267 -23.132444
endloop
endfacet
facet normal 0.802609 -0.125627 -0.583127
outer loop
vertex 7.472035 48.305073 -18.389698
vertex 6.113817 52.777267 -21.222610
vertex 9.746539 52.777267 -16.222572
endloop
endfacet
facet normal 0.408946 0.661699 0.628424
outer loop
vertex 2.999842 57.249466 -4.625953
vertex 7.117854 58.034630 -8.132477
vertex 1.860518 61.283810 -8.132493
endloop
endfacet
facet normal -0.471300 0.661699 0.583122
outer loop
vertex -7.000111 57.249462 -7.875192
vertex -2.392725 58.034645 -5.042331
vertex -4.017264 61.283806 -10.042332
endloop
endfacet
facet normal -0.700224 0.661699 -0.268032
outer loop
vertex -7.000111 57.249462 -18.389698
vertex -8.270515 58.034626 -13.132445
vertex -4.017264 61.283806 -16.222559
endloop
endfacet
facet normal 0.038531 0.661699 -0.748779
outer loop
vertex 2.999842 57.249466 -21.638939
vertex -2.392726 58.034645 -21.222561
vertex 1.860518 61.283810 -18.132397
endloop
endfacet
facet normal 0.724042 0.661696 -0.194735
outer loop
vertex 9.180223 57.249424 -13.132445
vertex 7.117854 58.034630 -18.132414
vertex 5.493259 61.283783 -13.132445
endloop
endfacet
facet normal 0.268034 0.943523 -0.194736
outer loop
vertex 5.493259 61.283783 -13.132445
vertex 1.860518 61.283810 -18.132397
vertex 0.235962 62.777267 -13.132445
endloop
endfacet
facet normal 0.491119 0.794658 -0.356821
outer loop
vertex 5.493259 61.283783 -13.132445
vertex 7.117854 58.034630 -18.132414
vertex 1.860518 61.283810 -18.132397
endloop
endfacet
facet normal 0.408946 0.661699 -0.628425
outer loop
vertex 7.117854 58.034630 -18.132414
vertex 2.999842 57.249466 -21.638939
vertex 1.860518 61.283810 -18.132397
endloop
endfacet
facet normal -0.102381 0.943523 -0.315091
outer loop
vertex 1.860518 61.283810 -18.132397
vertex -4.017264 61.283806 -16.222559
vertex 0.235962 62.777267 -13.132445
endloop
endfacet
facet normal -0.187594 0.794659 -0.577344
outer loop
vertex 1.860518 61.283810 -18.132397
vertex -2.392726 58.034645 -21.222561
vertex -4.017264 61.283806 -16.222559
endloop
endfacet
facet normal -0.471300 0.661699 -0.583121
outer loop
vertex -2.392726 58.034645 -21.222561
vertex -7.000111 57.249462 -18.389698
vertex -4.017264 61.283806 -16.222559
endloop
endfacet
facet normal -0.331305 0.943524 0.000000
outer loop
vertex -4.017264 61.283806 -16.222559
vertex -4.017264 61.283806 -10.042332
vertex 0.235962 62.777267 -13.132445
endloop
endfacet
facet normal -0.607060 0.794656 0.000000
outer loop
vertex -4.017264 61.283806 -16.222559
vertex -8.270515 58.034626 -13.132445
vertex -4.017264 61.283806 -10.042332
endloop
endfacet
facet normal -0.700223 0.661699 0.268033
outer loop
vertex -8.270515 58.034626 -13.132445
vertex -7.000111 57.249462 -7.875192
vertex -4.017264 61.283806 -10.042332
endloop
endfacet
facet normal -0.102381 0.943523 0.315091
outer loop
vertex -4.017264 61.283806 -10.042332
vertex 1.860518 61.283810 -8.132493
vertex 0.235962 62.777267 -13.132445
endloop
endfacet
facet normal -0.187594 0.794658 0.577345
outer loop
vertex -4.017264 61.283806 -10.042332
vertex -2.392725 58.034645 -5.042331
vertex 1.860518 61.283810 -8.132493
endloop
endfacet
facet normal 0.038530 0.661700 0.748778
outer loop
vertex -2.392725 58.034645 -5.042331
vertex 2.999842 57.249466 -4.625953
vertex 1.860518 61.283810 -8.132493
endloop
endfacet
facet normal 0.268034 0.943523 0.194736
outer loop
vertex 1.860518 61.283810 -8.132493
vertex 5.493259 61.283783 -13.132445
vertex 0.235962 62.777267 -13.132445
endloop
endfacet
facet normal 0.491119 0.794657 0.356822
outer loop
vertex 1.860518 61.283810 -8.132493
vertex 7.117854 58.034630 -8.132477
vertex 5.493259 61.283783 -13.132445
endloop
endfacet
facet normal 0.724042 0.661696 0.194736
outer loop
vertex 7.117854 58.034630 -8.132477
vertex 9.180223 57.249424 -13.132445
vertex 5.493259 61.283783 -13.132445
endloop
endfacet
facet normal 0.889697 0.330385 -0.315094
outer loop
vertex 9.746539 52.777267 -16.222572
vertex 7.117854 58.034630 -18.132414
vertex 9.180223 57.249424 -13.132445
endloop
endfacet
facet normal 0.794655 0.187595 -0.577348
outer loop
vertex 9.746539 52.777267 -16.222572
vertex 6.113817 52.777267 -21.222610
vertex 7.117854 58.034630 -18.132414
endloop
endfacet
facet normal 0.574602 0.330387 -0.748783
outer loop
vertex 6.113817 52.777267 -21.222610
vertex 2.999842 57.249466 -21.638939
vertex 7.117854 58.034630 -18.132414
endloop
endfacet
facet normal -0.024747 0.330386 -0.943521
outer loop
vertex 0.235962 52.777267 -23.132444
vertex -2.392726 58.034645 -21.222561
vertex 2.999842 57.249466 -21.638939
endloop
endfacet
facet normal -0.303531 0.187597 -0.934171
outer loop
vertex 0.235962 52.777267 -23.132444
vertex -5.641893 52.777267 -21.222610
vertex -2.392726 58.034645 -21.222561
endloop
endfacet
facet normal -0.534575 0.330386 -0.777865
outer loop
vertex -5.641893 52.777267 -21.222610
vertex -7.000111 57.249462 -18.389698
vertex -2.392726 58.034645 -21.222561
endloop
endfacet
facet normal -0.904989 0.330385 -0.268031
outer loop
vertex -9.274615 52.777267 -16.222572
vertex -8.270515 58.034626 -13.132445
vertex -7.000111 57.249462 -18.389698
endloop
endfacet
facet normal -0.982246 0.187598 0.000000
outer loop
vertex -9.274615 52.777267 -16.222572
vertex -9.274615 52.777267 -10.042319
vertex -8.270515 58.034626 -13.132445
endloop
endfacet
facet normal -0.904989 0.330385 0.268031
outer loop
vertex -9.274615 52.777267 -10.042319
vertex -7.000111 57.249462 -7.875192
vertex -8.270515 58.034626 -13.132445
endloop
endfacet
facet normal -0.534576 0.330387 0.777865
outer loop
vertex -5.641893 52.777267 -5.042279
vertex -2.392725 58.034645 -5.042331
vertex -7.000111 57.249462 -7.875192
endloop
endfacet
facet normal -0.303531 0.187597 0.934172
outer loop
vertex -5.641893 52.777267 -5.042279
vertex 0.235962 52.777267 -3.132446
vertex -2.392725 58.034645 -5.042331
endloop
endfacet
facet normal -0.024747 0.330387 0.943521
outer loop
vertex 0.235962 52.777267 -3.132446
vertex 2.999842 57.249466 -4.625953
vertex -2.392725 58.034645 -5.042331
endloop
endfacet
facet normal 0.574602 0.330387 0.748783
outer loop
vertex 6.113817 52.777267 -5.042279
vertex 7.117854 58.034630 -8.132477
vertex 2.999842 57.249466 -4.625953
endloop
endfacet
facet normal 0.794656 0.187595 0.577348
outer loop
vertex 6.113817 52.777267 -5.042279
vertex 9.746539 52.777267 -10.042319
vertex 7.117854 58.034630 -8.132477
endloop
endfacet
facet normal 0.889697 0.330385 0.315094
outer loop
vertex 9.746539 52.777267 -10.042319
vertex 9.180223 57.249424 -13.132445
vertex 7.117854 58.034630 -8.132477
endloop
endfacet
facet normal 0.306569 0.125628 -0.943522
outer loop
vertex 6.113817 52.777267 -21.222610
vertex 0.235962 52.777267 -23.132444
vertex 2.999842 57.249466 -21.638939
endloop
endfacet
facet normal 0.303531 -0.187597 -0.934171
outer loop
vertex 6.113817 52.777267 -21.222610
vertex 2.864650 47.519890 -21.222561
vertex 0.235962 52.777267 -23.132444
endloop
endfacet
facet normal 0.024747 -0.330386 -0.943521
outer loop
vertex 2.864650 47.519890 -21.222561
vertex -2.527918 48.305069 -21.638939
vertex 0.235962 52.777267 -23.132444
endloop
endfacet
facet normal -0.802609 0.125627 -0.583127
outer loop
vertex -5.641893 52.777267 -21.222610
vertex -9.274615 52.777267 -16.222572
vertex -7.000111 57.249462 -18.389698
endloop
endfacet
facet normal -0.794656 -0.187595 -0.577348
outer loop
vertex -5.641893 52.777267 -21.222610
vertex -6.645930 47.519905 -18.132414
vertex -9.274615 52.777267 -16.222572
endloop
endfacet
facet normal -0.889697 -0.330385 -0.315094
outer loop
vertex -6.645930 47.519905 -18.132414
vertex -8.708299 48.305111 -13.132445
vertex -9.274615 52.777267 -16.222572
endloop
endfacet
facet normal -0.802609 0.125627 0.583127
outer loop
vertex -9.274615 52.777267 -10.042319
vertex -5.641893 52.777267 -5.042279
vertex -7.000111 57.249462 -7.875192
endloop
endfacet
facet normal -0.794656 -0.187595 0.577348
outer loop
vertex -9.274615 52.777267 -10.042319
vertex -6.645930 47.519905 -8.132477
vertex -5.641893 52.777267 -5.042279
endloop
endfacet
facet normal -0.574602 -0.330387 0.748784
outer loop
vertex -6.645930 47.519905 -8.132477
vertex -2.527918 48.305069 -4.625953
vertex -5.641893 52.777267 -5.042279
endloop
endfacet
facet normal 0.306569 0.125628 0.943522
outer loop
vertex 0.235962 52.777267 -3.132446
vertex 6.113817 52.777267 -5.042279
vertex 2.999842 57.249466 -4.625953
endloop
endfacet
facet normal 0.303531 -0.187597 0.934171
outer loop
vertex 0.235962 52.777267 -3.132446
vertex 2.864650 47.519890 -5.042331
vertex 6.113817 52.777267 -5.042279
endloop
endfacet
facet normal 0.534576 -0.330386 0.777865
outer loop
vertex 2.864650 47.519890 -5.042331
vertex 7.472035 48.305073 -7.875192
vertex 6.113817 52.777267 -5.042279
endloop
endfacet
facet normal 0.992077 0.125628 0.000000
outer loop
vertex 9.746539 52.777267 -10.042319
vertex 9.746539 52.777267 -16.222572
vertex 9.180223 57.249424 -13.132445
endloop
endfacet
facet normal 0.982246 -0.187598 0.000000
outer loop
vertex 9.746539 52.777267 -10.042319
vertex 8.742439 47.519909 -13.132445
vertex 9.746539 52.777267 -16.222572
endloop
endfacet
facet normal 0.904989 -0.330385 -0.268031
outer loop
vertex 8.742439 47.519909 -13.132445
vertex 7.472035 48.305073 -18.389698
vertex 9.746539 52.777267 -16.222572
endloop
endfacet
facet normal 0.471299 -0.661699 -0.583122
outer loop
vertex 4.489188 44.270729 -16.222559
vertex 2.864650 47.519890 -21.222561
vertex 7.472035 48.305073 -18.389698
endloop
endfacet
facet normal 0.187594 -0.794658 -0.577345
outer loop
vertex 4.489188 44.270729 -16.222559
vertex -1.388593 44.270725 -18.132397
vertex 2.864650 47.519890 -21.222561
endloop
endfacet
facet normal -0.038531 -0.661700 -0.748778
outer loop
vertex -1.388593 44.270725 -18.132397
vertex -2.527918 48.305069 -21.638939
vertex 2.864650 47.519890 -21.222561
endloop
endfacet
facet normal -0.408946 -0.661699 -0.628424
outer loop
vertex -1.388593 44.270725 -18.132397
vertex -6.645930 47.519905 -18.132414
vertex -2.527918 48.305069 -21.638939
endloop
endfacet
facet normal -0.491119 -0.794657 -0.356823
outer loop
vertex -1.388593 44.270725 -18.132397
vertex -5.021335 44.270752 -13.132445
vertex -6.645930 47.519905 -18.132414
endloop
endfacet
facet normal -0.724042 -0.661696 -0.194735
outer loop
vertex -5.021335 44.270752 -13.132445
vertex -8.708299 48.305111 -13.132445
vertex -6.645930 47.519905 -18.132414
endloop
endfacet
facet normal -0.724042 -0.661696 0.194735
outer loop
vertex -5.021335 44.270752 -13.132445
vertex -6.645930 47.519905 -8.132477
vertex -8.708299 48.305111 -13.132445
endloop
endfacet
facet normal -0.491119 -0.794657 0.356822
outer loop
vertex -5.021335 44.270752 -13.132445
vertex -1.388593 44.270725 -8.132493
vertex -6.645930 47.519905 -8.132477
endloop
endfacet
facet normal -0.408946 -0.661699 0.628424
outer loop
vertex -1.388593 44.270725 -8.132493
vertex -2.527918 48.305069 -4.625953
vertex -6.645930 47.519905 -8.132477
endloop
endfacet
facet normal 0.700224 -0.661698 -0.268033
outer loop
vertex 8.742439 47.519909 -13.132445
vertex 4.489188 44.270729 -16.222559
vertex 7.472035 48.305073 -18.389698
endloop
endfacet
facet normal 0.607060 -0.794656 0.000000
outer loop
vertex 8.742439 47.519909 -13.132445
vertex 4.489188 44.270729 -10.042332
vertex 4.489188 44.270729 -16.222559
endloop
endfacet
facet normal 0.331305 -0.943524 0.000000
outer loop
vertex 4.489188 44.270729 -10.042332
vertex 0.235962 42.777267 -13.132445
vertex 4.489188 44.270729 -16.222559
endloop
endfacet
facet normal -0.038530 -0.661700 0.748778
outer loop
vertex -1.388593 44.270725 -8.132493
vertex 2.864650 47.519890 -5.042331
vertex -2.527918 48.305069 -4.625953
endloop
endfacet
facet normal 0.187594 -0.794657 0.577346
outer loop
vertex -1.388593 44.270725 -8.132493
vertex 4.489188 44.270729 -10.042332
vertex 2.864650 47.519890 -5.042331
endloop
endfacet
facet normal 0.471300 -0.661699 0.583121
outer loop
vertex 4.489188 44.270729 -10.042332
vertex 7.472035 48.305073 -7.875192
vertex 2.864650 47.519890 -5.042331
endloop
endfacet
endsolid Exported from Blender-2.74 (sub 0)
