solid Exported from Blender-2.74 (sub 0)
facet normal 0.102381 -0.943523 0.315090
outer loop
vertex 6.272165 41.699116 -13.127881
vertex 10.525391 43.192574 -10.037767
vertex 4.647609 43.192574 -8.127929
endloop
endfacet
facet normal 0.700224 -0.661699 0.268032
outer loop
vertex 13.508238 47.226921 -7.870628
vertex 10.525391 43.192574 -10.037767
vertex 14.778643 46.441757 -13.127881
endloop
endfacet
facet normal -0.268034 -0.943523 0.194736
outer loop
vertex 6.272165 41.699116 -13.127881
vertex 4.647609 43.192574 -8.127929
vertex 1.014868 43.192600 -13.127881
endloop
endfacet
facet normal -0.268034 -0.943523 -0.194736
outer loop
vertex 6.272165 41.699116 -13.127881
vertex 1.014868 43.192600 -13.127881
vertex 4.647609 43.192574 -18.127834
endloop
endfacet
facet normal 0.102381 -0.943523 -0.315090
outer loop
vertex 6.272165 41.699116 -13.127881
vertex 4.647609 43.192574 -18.127834
vertex 10.525391 43.192574 -16.217995
endloop
endfacet
facet normal 0.904989 -0.330385 0.268032
outer loop
vertex 13.508238 47.226921 -7.870628
vertex 14.778643 46.441757 -13.127881
vertex 15.782742 51.699116 -10.037755
endloop
endfacet
facet normal 0.024747 -0.330387 0.943521
outer loop
vertex 3.508285 47.226917 -4.621388
vertex 8.900852 46.441742 -5.037766
vertex 6.272165 51.699116 -3.127882
endloop
endfacet
facet normal -0.889697 -0.330385 0.315095
outer loop
vertex -2.672096 47.226959 -13.127881
vertex -0.609727 46.441753 -8.127913
vertex -3.238412 51.699116 -10.037755
endloop
endfacet
facet normal -0.574603 -0.330388 -0.748783
outer loop
vertex 3.508285 47.226917 -21.634373
vertex -0.609727 46.441753 -18.127850
vertex 0.394310 51.699116 -21.218048
endloop
endfacet
facet normal 0.534576 -0.330387 -0.777864
outer loop
vertex 13.508238 47.226921 -18.385134
vertex 8.900852 46.441742 -21.217995
vertex 12.150020 51.699116 -21.218048
endloop
endfacet
facet normal 0.802609 -0.125627 0.583127
outer loop
vertex 13.508238 47.226921 -7.870628
vertex 15.782742 51.699116 -10.037755
vertex 12.150020 51.699116 -5.037715
endloop
endfacet
facet normal -0.306569 -0.125628 0.943522
outer loop
vertex 3.508285 47.226917 -4.621388
vertex 6.272165 51.699116 -3.127882
vertex 0.394310 51.699116 -5.037715
endloop
endfacet
facet normal -0.992077 -0.125628 0.000000
outer loop
vertex -2.672096 47.226959 -13.127881
vertex -3.238412 51.699116 -10.037755
vertex -3.238412 51.699116 -16.218008
endloop
endfacet
facet normal -0.306569 -0.125629 -0.943521
outer loop
vertex 3.508285 47.226917 -21.634373
vertex 0.394310 51.699116 -21.218048
vertex 6.272165 51.699116 -23.127880
endloop
endfacet
facet normal 0.802609 -0.125627 -0.583127
outer loop
vertex 13.508238 47.226921 -18.385134
vertex 12.150020 51.699116 -21.218048
vertex 15.782742 51.699116 -16.218008
endloop
endfacet
facet normal 0.408946 0.661698 0.628425
outer loop
vertex 9.036045 56.171314 -4.621388
vertex 13.154057 56.956478 -8.127913
vertex 7.896720 60.205658 -8.127929
endloop
endfacet
facet normal -0.471299 0.661698 0.583123
outer loop
vertex -0.963908 56.171310 -7.870628
vertex 3.643477 56.956490 -5.037766
vertex 2.018939 60.205658 -10.037767
endloop
endfacet
facet normal -0.700224 0.661699 -0.268031
outer loop
vertex -0.963908 56.171310 -18.385134
vertex -2.234313 56.956474 -13.127881
vertex 2.018939 60.205658 -16.217995
endloop
endfacet
facet normal 0.038530 0.661699 -0.748779
outer loop
vertex 9.036045 56.171314 -21.634373
vertex 3.643477 56.956490 -21.217995
vertex 7.896720 60.205658 -18.127834
endloop
endfacet
facet normal 0.724042 0.661696 -0.194737
outer loop
vertex 15.216425 56.171272 -13.127881
vertex 13.154057 56.956478 -18.127850
vertex 11.529462 60.205631 -13.127881
endloop
endfacet
facet normal 0.268034 0.943523 -0.194737
outer loop
vertex 11.529462 60.205631 -13.127881
vertex 7.896720 60.205658 -18.127834
vertex 6.272165 61.699116 -13.127881
endloop
endfacet
facet normal 0.491120 0.794657 -0.356821
outer loop
vertex 11.529462 60.205631 -13.127881
vertex 13.154057 56.956478 -18.127850
vertex 7.896720 60.205658 -18.127834
endloop
endfacet
facet normal 0.408946 0.661698 -0.628426
outer loop
vertex 13.154057 56.956478 -18.127850
vertex 9.036045 56.171314 -21.634373
vertex 7.896720 60.205658 -18.127834
endloop
endfacet
facet normal -0.102381 0.943524 -0.315089
outer loop
vertex 7.896720 60.205658 -18.127834
vertex 2.018939 60.205658 -16.217995
vertex 6.272165 61.699116 -13.127881
endloop
endfacet
facet normal -0.187594 0.794657 -0.577346
outer loop
vertex 7.896720 60.205658 -18.127834
vertex 3.643477 56.956490 -21.217995
vertex 2.018939 60.205658 -16.217995
endloop
endfacet
facet normal -0.471299 0.661698 -0.583124
outer loop
vertex 3.643477 56.956490 -21.217995
vertex -0.963908 56.171310 -18.385134
vertex 2.018939 60.205658 -16.217995
endloop
endfacet
facet normal -0.331304 0.943524 0.000000
outer loop
vertex 2.018939 60.205658 -16.217995
vertex 2.018939 60.205658 -10.037767
vertex 6.272165 61.699116 -13.127881
endloop
endfacet
facet normal -0.607061 0.794656 0.000000
outer loop
vertex 2.018939 60.205658 -16.217995
vertex -2.234313 56.956474 -13.127881
vertex 2.018939 60.205658 -10.037767
endloop
endfacet
facet normal -0.700224 0.661699 0.268031
outer loop
vertex -2.234313 56.956474 -13.127881
vertex -0.963908 56.171310 -7.870628
vertex 2.018939 60.205658 -10.037767
endloop
endfacet
facet normal -0.102381 0.943524 0.315089
outer loop
vertex 2.018939 60.205658 -10.037767
vertex 7.896720 60.205658 -8.127929
vertex 6.272165 61.699116 -13.127881
endloop
endfacet
facet normal -0.187594 0.794658 0.577345
outer loop
vertex 2.018939 60.205658 -10.037767
vertex 3.643477 56.956490 -5.037766
vertex 7.896720 60.205658 -8.127929
endloop
endfacet
facet normal 0.038530 0.661699 0.748779
outer loop
vertex 3.643477 56.956490 -5.037766
vertex 9.036045 56.171314 -4.621388
vertex 7.896720 60.205658 -8.127929
endloop
endfacet
facet normal 0.268034 0.943522 0.194739
outer loop
vertex 7.896720 60.205658 -8.127929
vertex 11.529462 60.205631 -13.127881
vertex 6.272165 61.699116 -13.127881
endloop
endfacet
facet normal 0.491120 0.794658 0.356820
outer loop
vertex 7.896720 60.205658 -8.127929
vertex 13.154057 56.956478 -8.127913
vertex 11.529462 60.205631 -13.127881
endloop
endfacet
facet normal 0.724042 0.661696 0.194737
outer loop
vertex 13.154057 56.956478 -8.127913
vertex 15.216425 56.171272 -13.127881
vertex 11.529462 60.205631 -13.127881
endloop
endfacet
facet normal 0.889697 0.330385 -0.315095
outer loop
vertex 15.782742 51.699116 -16.218008
vertex 13.154057 56.956478 -18.127850
vertex 15.216425 56.171272 -13.127881
endloop
endfacet
facet normal 0.794656 0.187596 -0.577348
outer loop
vertex 15.782742 51.699116 -16.218008
vertex 12.150020 51.699116 -21.218048
vertex 13.154057 56.956478 -18.127850
endloop
endfacet
facet normal 0.574602 0.330388 -0.748783
outer loop
vertex 12.150020 51.699116 -21.218048
vertex 9.036045 56.171314 -21.634373
vertex 13.154057 56.956478 -18.127850
endloop
endfacet
facet normal -0.024747 0.330387 -0.943521
outer loop
vertex 6.272165 51.699116 -23.127880
vertex 3.643477 56.956490 -21.217995
vertex 9.036045 56.171314 -21.634373
endloop
endfacet
facet normal -0.303530 0.187598 -0.934172
outer loop
vertex 6.272165 51.699116 -23.127880
vertex 0.394310 51.699116 -21.218048
vertex 3.643477 56.956490 -21.217995
endloop
endfacet
facet normal -0.534576 0.330387 -0.777864
outer loop
vertex 0.394310 51.699116 -21.218048
vertex -0.963908 56.171310 -18.385134
vertex 3.643477 56.956490 -21.217995
endloop
endfacet
facet normal -0.904989 0.330385 -0.268032
outer loop
vertex -3.238412 51.699116 -16.218008
vertex -2.234313 56.956474 -13.127881
vertex -0.963908 56.171310 -18.385134
endloop
endfacet
facet normal -0.982246 0.187599 0.000000
outer loop
vertex -3.238412 51.699116 -16.218008
vertex -3.238412 51.699116 -10.037755
vertex -2.234313 56.956474 -13.127881
endloop
endfacet
facet normal -0.904989 0.330384 0.268032
outer loop
vertex -3.238412 51.699116 -10.037755
vertex -0.963908 56.171310 -7.870628
vertex -2.234313 56.956474 -13.127881
endloop
endfacet
facet normal -0.534576 0.330387 0.777865
outer loop
vertex 0.394310 51.699116 -5.037715
vertex 3.643477 56.956490 -5.037766
vertex -0.963908 56.171310 -7.870628
endloop
endfacet
facet normal -0.303531 0.187597 0.934171
outer loop
vertex 0.394310 51.699116 -5.037715
vertex 6.272165 51.699116 -3.127882
vertex 3.643477 56.956490 -5.037766
endloop
endfacet
facet normal -0.024747 0.330386 0.943521
outer loop
vertex 6.272165 51.699116 -3.127882
vertex 9.036045 56.171314 -4.621388
vertex 3.643477 56.956490 -5.037766
endloop
endfacet
facet normal 0.574602 0.330387 0.748783
outer loop
vertex 12.150020 51.699116 -5.037715
vertex 13.154057 56.956478 -8.127913
vertex 9.036045 56.171314 -4.621388
endloop
endfacet
facet normal 0.794656 0.187595 0.577347
outer loop
vertex 12.150020 51.699116 -5.037715
vertex 15.782742 51.699116 -10.037755
vertex 13.154057 56.956478 -8.127913
endloop
endfacet
facet normal 0.889697 0.330385 0.315094
outer loop
vertex 15.782742 51.699116 -10.037755
vertex 15.216425 56.171272 -13.127881
vertex 13.154057 56.956478 -8.127913
endloop
endfacet
facet normal 0.306569 0.125629 -0.943522
outer loop
vertex 12.150020 51.699116 -21.218048
vertex 6.272165 51.699116 -23.127880
vertex 9.036045 56.171314 -21.634373
endloop
endfacet
facet normal 0.303531 -0.187598 -0.934171
outer loop
vertex 12.150020 51.699116 -21.218048
vertex 8.900852 46.441742 -21.217995
vertex 6.272165 51.699116 -23.127880
endloop
endfacet
facet normal 0.024747 -0.330387 -0.943521
outer loop
vertex 8.900852 46.441742 -21.217995
vertex 3.508285 47.226917 -21.634373
vertex 6.272165 51.699116 -23.127880
endloop
endfacet
facet normal -0.802609 0.125627 -0.583126
outer loop
vertex 0.394310 51.699116 -21.218048
vertex -3.238412 51.699116 -16.218008
vertex -0.963908 56.171310 -18.385134
endloop
endfacet
facet normal -0.794656 -0.187595 -0.577347
outer loop
vertex 0.394310 51.699116 -21.218048
vertex -0.609727 46.441753 -18.127850
vertex -3.238412 51.699116 -16.218008
endloop
endfacet
facet normal -0.889697 -0.330385 -0.315095
outer loop
vertex -0.609727 46.441753 -18.127850
vertex -2.672096 47.226959 -13.127881
vertex -3.238412 51.699116 -16.218008
endloop
endfacet
facet normal -0.802609 0.125627 0.583126
outer loop
vertex -3.238412 51.699116 -10.037755
vertex 0.394310 51.699116 -5.037715
vertex -0.963908 56.171310 -7.870628
endloop
endfacet
facet normal -0.794656 -0.187595 0.577348
outer loop
vertex -3.238412 51.699116 -10.037755
vertex -0.609727 46.441753 -8.127913
vertex 0.394310 51.699116 -5.037715
endloop
endfacet
facet normal -0.574603 -0.330388 0.748783
outer loop
vertex -0.609727 46.441753 -8.127913
vertex 3.508285 47.226917 -4.621388
vertex 0.394310 51.699116 -5.037715
endloop
endfacet
facet normal 0.306569 0.125628 0.943522
outer loop
vertex 6.272165 51.699116 -3.127882
vertex 12.150020 51.699116 -5.037715
vertex 9.036045 56.171314 -4.621388
endloop
endfacet
facet normal 0.303531 -0.187598 0.934171
outer loop
vertex 6.272165 51.699116 -3.127882
vertex 8.900852 46.441742 -5.037766
vertex 12.150020 51.699116 -5.037715
endloop
endfacet
facet normal 0.534576 -0.330387 0.777865
outer loop
vertex 8.900852 46.441742 -5.037766
vertex 13.508238 47.226921 -7.870628
vertex 12.150020 51.699116 -5.037715
endloop
endfacet
facet normal 0.992077 0.125629 0.000000
outer loop
vertex 15.782742 51.699116 -10.037755
vertex 15.782742 51.699116 -16.218008
vertex 15.216425 56.171272 -13.127881
endloop
endfacet
facet normal 0.982246 -0.187598 0.000000
outer loop
vertex 15.782742 51.699116 -10.037755
vertex 14.778643 46.441757 -13.127881
vertex 15.782742 51.699116 -16.218008
endloop
endfacet
facet normal 0.904989 -0.330385 -0.268031
outer loop
vertex 14.778643 46.441757 -13.127881
vertex 13.508238 47.226921 -18.385134
vertex 15.782742 51.699116 -16.218008
endloop
endfacet
facet normal 0.471300 -0.661699 -0.583122
outer loop
vertex 10.525391 43.192574 -16.217995
vertex 8.900852 46.441742 -21.217995
vertex 13.508238 47.226921 -18.385134
endloop
endfacet
facet normal 0.187594 -0.794657 -0.577346
outer loop
vertex 10.525391 43.192574 -16.217995
vertex 4.647609 43.192574 -18.127834
vertex 8.900852 46.441742 -21.217995
endloop
endfacet
facet normal -0.038530 -0.661699 -0.748779
outer loop
vertex 4.647609 43.192574 -18.127834
vertex 3.508285 47.226917 -21.634373
vertex 8.900852 46.441742 -21.217995
endloop
endfacet
facet normal -0.408946 -0.661698 -0.628426
outer loop
vertex 4.647609 43.192574 -18.127834
vertex -0.609727 46.441753 -18.127850
vertex 3.508285 47.226917 -21.634373
endloop
endfacet
facet normal -0.491120 -0.794657 -0.356821
outer loop
vertex 4.647609 43.192574 -18.127834
vertex 1.014868 43.192600 -13.127881
vertex -0.609727 46.441753 -18.127850
endloop
endfacet
facet normal -0.724042 -0.661695 -0.194737
outer loop
vertex 1.014868 43.192600 -13.127881
vertex -2.672096 47.226959 -13.127881
vertex -0.609727 46.441753 -18.127850
endloop
endfacet
facet normal -0.724042 -0.661695 0.194737
outer loop
vertex 1.014868 43.192600 -13.127881
vertex -0.609727 46.441753 -8.127913
vertex -2.672096 47.226959 -13.127881
endloop
endfacet
facet normal -0.491119 -0.794657 0.356821
outer loop
vertex 1.014868 43.192600 -13.127881
vertex 4.647609 43.192574 -8.127929
vertex -0.609727 46.441753 -8.127913
endloop
endfacet
facet normal -0.408946 -0.661698 0.628425
outer loop
vertex 4.647609 43.192574 -8.127929
vertex 3.508285 47.226917 -4.621388
vertex -0.609727 46.441753 -8.127913
endloop
endfacet
facet normal 0.700224 -0.661699 -0.268032
outer loop
vertex 14.778643 46.441757 -13.127881
vertex 10.525391 43.192574 -16.217995
vertex 13.508238 47.226921 -18.385134
endloop
endfacet
facet normal 0.607061 -0.794656 0.000000
outer loop
vertex 14.778643 46.441757 -13.127881
vertex 10.525391 43.192574 -10.037767
vertex 10.525391 43.192574 -16.217995
endloop
endfacet
facet normal 0.331304 -0.943524 0.000000
outer loop
vertex 10.525391 43.192574 -10.037767
vertex 6.272165 41.699116 -13.127881
vertex 10.525391 43.192574 -16.217995
endloop
endfacet
facet normal -0.038530 -0.661699 0.748779
outer loop
vertex 4.647609 43.192574 -8.127929
vertex 8.900852 46.441742 -5.037766
vertex 3.508285 47.226917 -4.621388
endloop
endfacet
facet normal 0.187594 -0.794657 0.577345
outer loop
vertex 4.647609 43.192574 -8.127929
vertex 10.525391 43.192574 -10.037767
vertex 8.900852 46.441742 -5.037766
endloop
endfacet
facet normal 0.471300 -0.661699 0.583122
outer loop
vertex 10.525391 43.192574 -10.037767
vertex 13.508238 47.226921 -7.870628
vertex 8.900852 46.441742 -5.037766
endloop
endfacet
endsolid Exported from Blender-2.74 (sub 0)
