solid Exported from Blender-2.74 (sub 0)
facet normal 0.102381 -0.943523 0.315091
outer loop
vertex -16.830515 32.715141 -7.388653
vertex -12.577289 34.208603 -4.298539
vertex -18.455070 34.208599 -2.388700
endloop
endfacet
facet normal 0.700224 -0.661699 0.268032
outer loop
vertex -9.594442 38.242947 -2.131400
vertex -12.577289 34.208603 -4.298539
vertex -8.324038 37.457783 -7.388653
endloop
endfacet
facet normal -0.268034 -0.943523 0.194736
outer loop
vertex -16.830515 32.715141 -7.388653
vertex -18.455070 34.208599 -2.388700
vertex -22.087812 34.208626 -7.388653
endloop
endfacet
facet normal -0.268034 -0.943523 -0.194736
outer loop
vertex -16.830515 32.715141 -7.388653
vertex -22.087812 34.208626 -7.388653
vertex -18.455070 34.208599 -12.388605
endloop
endfacet
facet normal 0.102381 -0.943523 -0.315091
outer loop
vertex -16.830515 32.715141 -7.388653
vertex -18.455070 34.208599 -12.388605
vertex -12.577289 34.208603 -10.478766
endloop
endfacet
facet normal 0.904989 -0.330385 0.268031
outer loop
vertex -9.594442 38.242947 -2.131400
vertex -8.324038 37.457783 -7.388653
vertex -7.319938 42.715141 -4.298527
endloop
endfacet
facet normal 0.024747 -0.330387 0.943521
outer loop
vertex -19.594395 38.242943 1.117840
vertex -14.201827 37.457764 0.701462
vertex -16.830515 42.715141 2.611346
endloop
endfacet
facet normal -0.889697 -0.330385 0.315095
outer loop
vertex -25.774776 38.242985 -7.388653
vertex -23.712406 37.457779 -2.388684
vertex -26.341091 42.715141 -4.298527
endloop
endfacet
facet normal -0.574602 -0.330388 -0.748783
outer loop
vertex -19.594395 38.242943 -15.895145
vertex -23.712406 37.457779 -12.388621
vertex -22.708370 42.715141 -15.478819
endloop
endfacet
facet normal 0.534577 -0.330387 -0.777864
outer loop
vertex -9.594442 38.242947 -12.645906
vertex -14.201827 37.457764 -15.478767
vertex -10.952660 42.715141 -15.478819
endloop
endfacet
facet normal 0.802609 -0.125627 0.583127
outer loop
vertex -9.594442 38.242947 -2.131400
vertex -7.319938 42.715141 -4.298527
vertex -10.952660 42.715141 0.701513
endloop
endfacet
facet normal -0.306569 -0.125628 0.943522
outer loop
vertex -19.594395 38.242943 1.117840
vertex -16.830515 42.715141 2.611346
vertex -22.708370 42.715141 0.701513
endloop
endfacet
facet normal -0.992077 -0.125628 0.000000
outer loop
vertex -25.774776 38.242985 -7.388653
vertex -26.341091 42.715141 -4.298527
vertex -26.341091 42.715141 -10.478779
endloop
endfacet
facet normal -0.306569 -0.125629 -0.943522
outer loop
vertex -19.594395 38.242943 -15.895145
vertex -22.708370 42.715141 -15.478819
vertex -16.830515 42.715141 -17.388653
endloop
endfacet
facet normal 0.802609 -0.125627 -0.583127
outer loop
vertex -9.594442 38.242947 -12.645906
vertex -10.952660 42.715141 -15.478819
vertex -7.319938 42.715141 -10.478779
endloop
endfacet
facet normal 0.408947 0.661699 0.628424
outer loop
vertex -14.066635 47.187340 1.117840
vertex -9.948623 47.972504 -2.388684
vertex -15.205959 51.221684 -2.388700
endloop
endfacet
facet normal -0.471300 0.661699 0.583122
outer loop
vertex -24.066587 47.187336 -2.131400
vertex -19.459202 47.972519 0.701462
vertex -21.083740 51.221680 -4.298539
endloop
endfacet
facet normal -0.700223 0.661699 -0.268033
outer loop
vertex -24.066587 47.187336 -12.645906
vertex -25.336992 47.972500 -7.388653
vertex -21.083740 51.221680 -10.478766
endloop
endfacet
facet normal 0.038530 0.661699 -0.748779
outer loop
vertex -14.066635 47.187340 -15.895145
vertex -19.459202 47.972519 -15.478767
vertex -15.205959 51.221684 -12.388605
endloop
endfacet
facet normal 0.724042 0.661695 -0.194736
outer loop
vertex -7.886254 47.187298 -7.388653
vertex -9.948623 47.972504 -12.388621
vertex -11.573217 51.221657 -7.388653
endloop
endfacet
facet normal 0.268034 0.943523 -0.194737
outer loop
vertex -11.573217 51.221657 -7.388653
vertex -15.205959 51.221684 -12.388605
vertex -16.830515 52.715141 -7.388653
endloop
endfacet
facet normal 0.491119 0.794657 -0.356822
outer loop
vertex -11.573217 51.221657 -7.388653
vertex -9.948623 47.972504 -12.388621
vertex -15.205959 51.221684 -12.388605
endloop
endfacet
facet normal 0.408946 0.661699 -0.628424
outer loop
vertex -9.948623 47.972504 -12.388621
vertex -14.066635 47.187340 -15.895145
vertex -15.205959 51.221684 -12.388605
endloop
endfacet
facet normal -0.102381 0.943524 -0.315090
outer loop
vertex -15.205959 51.221684 -12.388605
vertex -21.083740 51.221680 -10.478766
vertex -16.830515 52.715141 -7.388653
endloop
endfacet
facet normal -0.187594 0.794658 -0.577345
outer loop
vertex -15.205959 51.221684 -12.388605
vertex -19.459202 47.972519 -15.478767
vertex -21.083740 51.221680 -10.478766
endloop
endfacet
facet normal -0.471300 0.661699 -0.583122
outer loop
vertex -19.459202 47.972519 -15.478767
vertex -24.066587 47.187336 -12.645906
vertex -21.083740 51.221680 -10.478766
endloop
endfacet
facet normal -0.331305 0.943524 0.000000
outer loop
vertex -21.083740 51.221680 -10.478766
vertex -21.083740 51.221680 -4.298539
vertex -16.830515 52.715141 -7.388653
endloop
endfacet
facet normal -0.607061 0.794656 0.000000
outer loop
vertex -21.083740 51.221680 -10.478766
vertex -25.336992 47.972500 -7.388653
vertex -21.083740 51.221680 -4.298539
endloop
endfacet
facet normal -0.700223 0.661699 0.268033
outer loop
vertex -25.336992 47.972500 -7.388653
vertex -24.066587 47.187336 -2.131400
vertex -21.083740 51.221680 -4.298539
endloop
endfacet
facet normal -0.102381 0.943523 0.315090
outer loop
vertex -21.083740 51.221680 -4.298539
vertex -15.205959 51.221684 -2.388700
vertex -16.830515 52.715141 -7.388653
endloop
endfacet
facet normal -0.187594 0.794657 0.577346
outer loop
vertex -21.083740 51.221680 -4.298539
vertex -19.459202 47.972519 0.701462
vertex -15.205959 51.221684 -2.388700
endloop
endfacet
facet normal 0.038530 0.661699 0.748779
outer loop
vertex -19.459202 47.972519 0.701462
vertex -14.066635 47.187340 1.117840
vertex -15.205959 51.221684 -2.388700
endloop
endfacet
facet normal 0.268034 0.943523 0.194736
outer loop
vertex -15.205959 51.221684 -2.388700
vertex -11.573217 51.221657 -7.388653
vertex -16.830515 52.715141 -7.388653
endloop
endfacet
facet normal 0.491119 0.794657 0.356822
outer loop
vertex -15.205959 51.221684 -2.388700
vertex -9.948623 47.972504 -2.388684
vertex -11.573217 51.221657 -7.388653
endloop
endfacet
facet normal 0.724042 0.661695 0.194736
outer loop
vertex -9.948623 47.972504 -2.388684
vertex -7.886254 47.187298 -7.388653
vertex -11.573217 51.221657 -7.388653
endloop
endfacet
facet normal 0.889697 0.330385 -0.315095
outer loop
vertex -7.319938 42.715141 -10.478779
vertex -9.948623 47.972504 -12.388621
vertex -7.886254 47.187298 -7.388653
endloop
endfacet
facet normal 0.794655 0.187595 -0.577348
outer loop
vertex -7.319938 42.715141 -10.478779
vertex -10.952660 42.715141 -15.478819
vertex -9.948623 47.972504 -12.388621
endloop
endfacet
facet normal 0.574602 0.330387 -0.748783
outer loop
vertex -10.952660 42.715141 -15.478819
vertex -14.066635 47.187340 -15.895145
vertex -9.948623 47.972504 -12.388621
endloop
endfacet
facet normal -0.024747 0.330386 -0.943521
outer loop
vertex -16.830515 42.715141 -17.388653
vertex -19.459202 47.972519 -15.478767
vertex -14.066635 47.187340 -15.895145
endloop
endfacet
facet normal -0.303531 0.187598 -0.934171
outer loop
vertex -16.830515 42.715141 -17.388653
vertex -22.708370 42.715141 -15.478819
vertex -19.459202 47.972519 -15.478767
endloop
endfacet
facet normal -0.534576 0.330387 -0.777864
outer loop
vertex -22.708370 42.715141 -15.478819
vertex -24.066587 47.187336 -12.645906
vertex -19.459202 47.972519 -15.478767
endloop
endfacet
facet normal -0.904989 0.330385 -0.268031
outer loop
vertex -26.341091 42.715141 -10.478779
vertex -25.336992 47.972500 -7.388653
vertex -24.066587 47.187336 -12.645906
endloop
endfacet
facet normal -0.982246 0.187598 0.000000
outer loop
vertex -26.341091 42.715141 -10.478779
vertex -26.341091 42.715141 -4.298527
vertex -25.336992 47.972500 -7.388653
endloop
endfacet
facet normal -0.904989 0.330385 0.268031
outer loop
vertex -26.341091 42.715141 -4.298527
vertex -24.066587 47.187336 -2.131400
vertex -25.336992 47.972500 -7.388653
endloop
endfacet
facet normal -0.534576 0.330387 0.777864
outer loop
vertex -22.708370 42.715141 0.701513
vertex -19.459202 47.972519 0.701462
vertex -24.066587 47.187336 -2.131400
endloop
endfacet
facet normal -0.303531 0.187598 0.934171
outer loop
vertex -22.708370 42.715141 0.701513
vertex -16.830515 42.715141 2.611346
vertex -19.459202 47.972519 0.701462
endloop
endfacet
facet normal -0.024747 0.330386 0.943521
outer loop
vertex -16.830515 42.715141 2.611346
vertex -14.066635 47.187340 1.117840
vertex -19.459202 47.972519 0.701462
endloop
endfacet
facet normal 0.574602 0.330387 0.748783
outer loop
vertex -10.952660 42.715141 0.701513
vertex -9.948623 47.972504 -2.388684
vertex -14.066635 47.187340 1.117840
endloop
endfacet
facet normal 0.794656 0.187595 0.577348
outer loop
vertex -10.952660 42.715141 0.701513
vertex -7.319938 42.715141 -4.298527
vertex -9.948623 47.972504 -2.388684
endloop
endfacet
facet normal 0.889697 0.330385 0.315095
outer loop
vertex -7.319938 42.715141 -4.298527
vertex -7.886254 47.187298 -7.388653
vertex -9.948623 47.972504 -2.388684
endloop
endfacet
facet normal 0.306569 0.125629 -0.943521
outer loop
vertex -10.952660 42.715141 -15.478819
vertex -16.830515 42.715141 -17.388653
vertex -14.066635 47.187340 -15.895145
endloop
endfacet
facet normal 0.303531 -0.187597 -0.934171
outer loop
vertex -10.952660 42.715141 -15.478819
vertex -14.201827 37.457764 -15.478767
vertex -16.830515 42.715141 -17.388653
endloop
endfacet
facet normal 0.024747 -0.330387 -0.943521
outer loop
vertex -14.201827 37.457764 -15.478767
vertex -19.594395 38.242943 -15.895145
vertex -16.830515 42.715141 -17.388653
endloop
endfacet
facet normal -0.802609 0.125627 -0.583126
outer loop
vertex -22.708370 42.715141 -15.478819
vertex -26.341091 42.715141 -10.478779
vertex -24.066587 47.187336 -12.645906
endloop
endfacet
facet normal -0.794656 -0.187595 -0.577348
outer loop
vertex -22.708370 42.715141 -15.478819
vertex -23.712406 37.457779 -12.388621
vertex -26.341091 42.715141 -10.478779
endloop
endfacet
facet normal -0.889697 -0.330385 -0.315095
outer loop
vertex -23.712406 37.457779 -12.388621
vertex -25.774776 38.242985 -7.388653
vertex -26.341091 42.715141 -10.478779
endloop
endfacet
facet normal -0.802609 0.125627 0.583126
outer loop
vertex -26.341091 42.715141 -4.298527
vertex -22.708370 42.715141 0.701513
vertex -24.066587 47.187336 -2.131400
endloop
endfacet
facet normal -0.794656 -0.187595 0.577348
outer loop
vertex -26.341091 42.715141 -4.298527
vertex -23.712406 37.457779 -2.388684
vertex -22.708370 42.715141 0.701513
endloop
endfacet
facet normal -0.574602 -0.330388 0.748783
outer loop
vertex -23.712406 37.457779 -2.388684
vertex -19.594395 38.242943 1.117840
vertex -22.708370 42.715141 0.701513
endloop
endfacet
facet normal 0.306569 0.125629 0.943522
outer loop
vertex -16.830515 42.715141 2.611346
vertex -10.952660 42.715141 0.701513
vertex -14.066635 47.187340 1.117840
endloop
endfacet
facet normal 0.303531 -0.187597 0.934171
outer loop
vertex -16.830515 42.715141 2.611346
vertex -14.201827 37.457764 0.701462
vertex -10.952660 42.715141 0.701513
endloop
endfacet
facet normal 0.534577 -0.330387 0.777864
outer loop
vertex -14.201827 37.457764 0.701462
vertex -9.594442 38.242947 -2.131400
vertex -10.952660 42.715141 0.701513
endloop
endfacet
facet normal 0.992077 0.125628 0.000000
outer loop
vertex -7.319938 42.715141 -4.298527
vertex -7.319938 42.715141 -10.478779
vertex -7.886254 47.187298 -7.388653
endloop
endfacet
facet normal 0.982246 -0.187599 0.000000
outer loop
vertex -7.319938 42.715141 -4.298527
vertex -8.324038 37.457783 -7.388653
vertex -7.319938 42.715141 -10.478779
endloop
endfacet
facet normal 0.904989 -0.330385 -0.268031
outer loop
vertex -8.324038 37.457783 -7.388653
vertex -9.594442 38.242947 -12.645906
vertex -7.319938 42.715141 -10.478779
endloop
endfacet
facet normal 0.471300 -0.661699 -0.583122
outer loop
vertex -12.577289 34.208603 -10.478766
vertex -14.201827 37.457764 -15.478767
vertex -9.594442 38.242947 -12.645906
endloop
endfacet
facet normal 0.187594 -0.794658 -0.577345
outer loop
vertex -12.577289 34.208603 -10.478766
vertex -18.455070 34.208599 -12.388605
vertex -14.201827 37.457764 -15.478767
endloop
endfacet
facet normal -0.038530 -0.661699 -0.748779
outer loop
vertex -18.455070 34.208599 -12.388605
vertex -19.594395 38.242943 -15.895145
vertex -14.201827 37.457764 -15.478767
endloop
endfacet
facet normal -0.408947 -0.661699 -0.628424
outer loop
vertex -18.455070 34.208599 -12.388605
vertex -23.712406 37.457779 -12.388621
vertex -19.594395 38.242943 -15.895145
endloop
endfacet
facet normal -0.491119 -0.794657 -0.356822
outer loop
vertex -18.455070 34.208599 -12.388605
vertex -22.087812 34.208626 -7.388653
vertex -23.712406 37.457779 -12.388621
endloop
endfacet
facet normal -0.724042 -0.661696 -0.194736
outer loop
vertex -22.087812 34.208626 -7.388653
vertex -25.774776 38.242985 -7.388653
vertex -23.712406 37.457779 -12.388621
endloop
endfacet
facet normal -0.724042 -0.661696 0.194736
outer loop
vertex -22.087812 34.208626 -7.388653
vertex -23.712406 37.457779 -2.388684
vertex -25.774776 38.242985 -7.388653
endloop
endfacet
facet normal -0.491119 -0.794657 0.356822
outer loop
vertex -22.087812 34.208626 -7.388653
vertex -18.455070 34.208599 -2.388700
vertex -23.712406 37.457779 -2.388684
endloop
endfacet
facet normal -0.408947 -0.661699 0.628424
outer loop
vertex -18.455070 34.208599 -2.388700
vertex -19.594395 38.242943 1.117840
vertex -23.712406 37.457779 -2.388684
endloop
endfacet
facet normal 0.700224 -0.661699 -0.268032
outer loop
vertex -8.324038 37.457783 -7.388653
vertex -12.577289 34.208603 -10.478766
vertex -9.594442 38.242947 -12.645906
endloop
endfacet
facet normal 0.607060 -0.794656 0.000000
outer loop
vertex -8.324038 37.457783 -7.388653
vertex -12.577289 34.208603 -4.298539
vertex -12.577289 34.208603 -10.478766
endloop
endfacet
facet normal 0.331305 -0.943524 0.000000
outer loop
vertex -12.577289 34.208603 -4.298539
vertex -16.830515 32.715141 -7.388653
vertex -12.577289 34.208603 -10.478766
endloop
endfacet
facet normal -0.038530 -0.661699 0.748779
outer loop
vertex -18.455070 34.208599 -2.388700
vertex -14.201827 37.457764 0.701462
vertex -19.594395 38.242943 1.117840
endloop
endfacet
facet normal 0.187594 -0.794658 0.577345
outer loop
vertex -18.455070 34.208599 -2.388700
vertex -12.577289 34.208603 -4.298539
vertex -14.201827 37.457764 0.701462
endloop
endfacet
facet normal 0.471299 -0.661699 0.583122
outer loop
vertex -12.577289 34.208603 -4.298539
vertex -9.594442 38.242947 -2.131400
vertex -14.201827 37.457764 0.701462
endloop
endfacet
endsolid Exported from Blender-2.74 (sub 0)
