solid Exported from Blender-2.74 (sub 0)
facet normal 0.102381 -0.943523 0.315090
outer loop
vertex -2.355885 20.112244 0.943812
vertex 1.897341 21.605703 4.033926
vertex -3.980441 21.605701 5.943765
endloop
endfacet
facet normal 0.700224 -0.661699 0.268031
outer loop
vertex 4.880188 25.640049 6.201065
vertex 1.897341 21.605703 4.033926
vertex 6.150592 24.854885 0.943812
endloop
endfacet
facet normal -0.268034 -0.943523 0.194737
outer loop
vertex -2.355885 20.112244 0.943812
vertex -3.980441 21.605701 5.943765
vertex -7.613182 21.605728 0.943812
endloop
endfacet
facet normal -0.268034 -0.943523 -0.194737
outer loop
vertex -2.355885 20.112244 0.943812
vertex -7.613182 21.605728 0.943812
vertex -3.980441 21.605701 -4.056140
endloop
endfacet
facet normal 0.102381 -0.943523 -0.315090
outer loop
vertex -2.355885 20.112244 0.943812
vertex -3.980441 21.605701 -4.056140
vertex 1.897341 21.605703 -2.146301
endloop
endfacet
facet normal 0.904989 -0.330385 0.268031
outer loop
vertex 4.880188 25.640049 6.201065
vertex 6.150592 24.854885 0.943812
vertex 7.154692 30.112244 4.033938
endloop
endfacet
facet normal 0.024747 -0.330386 0.943521
outer loop
vertex -5.119765 25.640045 9.450305
vertex 0.272803 24.854868 9.033927
vertex -2.355885 30.112244 10.943811
endloop
endfacet
facet normal -0.889697 -0.330385 0.315094
outer loop
vertex -11.300146 25.640087 0.943812
vertex -9.237778 24.854883 5.943781
vertex -11.866463 30.112244 4.033938
endloop
endfacet
facet normal -0.574602 -0.330387 -0.748783
outer loop
vertex -5.119765 25.640045 -7.562680
vertex -9.237778 24.854883 -4.056156
vertex -8.233740 30.112244 -7.146354
endloop
endfacet
facet normal 0.534576 -0.330387 -0.777865
outer loop
vertex 4.880188 25.640049 -4.313441
vertex 0.272802 24.854868 -7.146302
vertex 3.521970 30.112244 -7.146354
endloop
endfacet
facet normal 0.802609 -0.125627 0.583126
outer loop
vertex 4.880188 25.640049 6.201065
vertex 7.154692 30.112244 4.033938
vertex 3.521970 30.112244 9.033978
endloop
endfacet
facet normal -0.306570 -0.125629 0.943521
outer loop
vertex -5.119765 25.640045 9.450305
vertex -2.355885 30.112244 10.943811
vertex -8.233740 30.112244 9.033978
endloop
endfacet
facet normal -0.992077 -0.125629 0.000000
outer loop
vertex -11.300146 25.640087 0.943812
vertex -11.866463 30.112244 4.033938
vertex -11.866463 30.112244 -2.146314
endloop
endfacet
facet normal -0.306569 -0.125629 -0.943521
outer loop
vertex -5.119765 25.640045 -7.562680
vertex -8.233740 30.112244 -7.146354
vertex -2.355885 30.112244 -9.056187
endloop
endfacet
facet normal 0.802609 -0.125627 -0.583126
outer loop
vertex 4.880188 25.640049 -4.313441
vertex 3.521970 30.112244 -7.146354
vertex 7.154692 30.112244 -2.146314
endloop
endfacet
facet normal 0.408946 0.661698 0.628425
outer loop
vertex 0.407995 34.584442 9.450305
vertex 4.526007 35.369606 5.943781
vertex -0.731330 38.618786 5.943765
endloop
endfacet
facet normal -0.471299 0.661699 0.583122
outer loop
vertex -9.591958 34.584438 6.201065
vertex -4.984573 35.369621 9.033927
vertex -6.609112 38.618782 4.033926
endloop
endfacet
facet normal -0.700223 0.661699 -0.268033
outer loop
vertex -9.591958 34.584438 -4.313441
vertex -10.862363 35.369602 0.943812
vertex -6.609112 38.618782 -2.146301
endloop
endfacet
facet normal 0.038530 0.661700 -0.748778
outer loop
vertex 0.407995 34.584442 -7.562680
vertex -4.984573 35.369621 -7.146302
vertex -0.731330 38.618786 -4.056140
endloop
endfacet
facet normal 0.724042 0.661696 -0.194735
outer loop
vertex 6.588375 34.584400 0.943812
vertex 4.526007 35.369606 -4.056156
vertex 2.901412 38.618759 0.943812
endloop
endfacet
facet normal 0.268034 0.943523 -0.194736
outer loop
vertex 2.901412 38.618759 0.943812
vertex -0.731330 38.618786 -4.056140
vertex -2.355885 40.112244 0.943812
endloop
endfacet
facet normal 0.491119 0.794658 -0.356821
outer loop
vertex 2.901412 38.618759 0.943812
vertex 4.526007 35.369606 -4.056156
vertex -0.731330 38.618786 -4.056140
endloop
endfacet
facet normal 0.408946 0.661699 -0.628425
outer loop
vertex 4.526007 35.369606 -4.056156
vertex 0.407995 34.584442 -7.562680
vertex -0.731330 38.618786 -4.056140
endloop
endfacet
facet normal -0.102381 0.943523 -0.315090
outer loop
vertex -0.731330 38.618786 -4.056140
vertex -6.609112 38.618782 -2.146301
vertex -2.355885 40.112244 0.943812
endloop
endfacet
facet normal -0.187594 0.794658 -0.577345
outer loop
vertex -0.731330 38.618786 -4.056140
vertex -4.984573 35.369621 -7.146302
vertex -6.609112 38.618782 -2.146301
endloop
endfacet
facet normal -0.471299 0.661699 -0.583122
outer loop
vertex -4.984573 35.369621 -7.146302
vertex -9.591958 34.584438 -4.313441
vertex -6.609112 38.618782 -2.146301
endloop
endfacet
facet normal -0.331305 0.943524 0.000000
outer loop
vertex -6.609112 38.618782 -2.146301
vertex -6.609112 38.618782 4.033926
vertex -2.355885 40.112244 0.943812
endloop
endfacet
facet normal -0.607060 0.794656 0.000000
outer loop
vertex -6.609112 38.618782 -2.146301
vertex -10.862363 35.369602 0.943812
vertex -6.609112 38.618782 4.033926
endloop
endfacet
facet normal -0.700224 0.661699 0.268033
outer loop
vertex -10.862363 35.369602 0.943812
vertex -9.591958 34.584438 6.201065
vertex -6.609112 38.618782 4.033926
endloop
endfacet
facet normal -0.102381 0.943523 0.315091
outer loop
vertex -6.609112 38.618782 4.033926
vertex -0.731330 38.618786 5.943765
vertex -2.355885 40.112244 0.943812
endloop
endfacet
facet normal -0.187594 0.794658 0.577345
outer loop
vertex -6.609112 38.618782 4.033926
vertex -4.984573 35.369621 9.033927
vertex -0.731330 38.618786 5.943765
endloop
endfacet
facet normal 0.038530 0.661700 0.748778
outer loop
vertex -4.984573 35.369621 9.033927
vertex 0.407995 34.584442 9.450305
vertex -0.731330 38.618786 5.943765
endloop
endfacet
facet normal 0.268034 0.943523 0.194736
outer loop
vertex -0.731330 38.618786 5.943765
vertex 2.901412 38.618759 0.943812
vertex -2.355885 40.112244 0.943812
endloop
endfacet
facet normal 0.491119 0.794657 0.356821
outer loop
vertex -0.731330 38.618786 5.943765
vertex 4.526007 35.369606 5.943781
vertex 2.901412 38.618759 0.943812
endloop
endfacet
facet normal 0.724042 0.661695 0.194736
outer loop
vertex 4.526007 35.369606 5.943781
vertex 6.588375 34.584400 0.943812
vertex 2.901412 38.618759 0.943812
endloop
endfacet
facet normal 0.889697 0.330385 -0.315095
outer loop
vertex 7.154692 30.112244 -2.146314
vertex 4.526007 35.369606 -4.056156
vertex 6.588375 34.584400 0.943812
endloop
endfacet
facet normal 0.794656 0.187595 -0.577348
outer loop
vertex 7.154692 30.112244 -2.146314
vertex 3.521970 30.112244 -7.146354
vertex 4.526007 35.369606 -4.056156
endloop
endfacet
facet normal 0.574602 0.330387 -0.748783
outer loop
vertex 3.521970 30.112244 -7.146354
vertex 0.407995 34.584442 -7.562680
vertex 4.526007 35.369606 -4.056156
endloop
endfacet
facet normal -0.024747 0.330386 -0.943521
outer loop
vertex -2.355885 30.112244 -9.056187
vertex -4.984573 35.369621 -7.146302
vertex 0.407995 34.584442 -7.562680
endloop
endfacet
facet normal -0.303531 0.187597 -0.934171
outer loop
vertex -2.355885 30.112244 -9.056187
vertex -8.233740 30.112244 -7.146354
vertex -4.984573 35.369621 -7.146302
endloop
endfacet
facet normal -0.534576 0.330387 -0.777864
outer loop
vertex -8.233740 30.112244 -7.146354
vertex -9.591958 34.584438 -4.313441
vertex -4.984573 35.369621 -7.146302
endloop
endfacet
facet normal -0.904989 0.330384 -0.268031
outer loop
vertex -11.866463 30.112244 -2.146314
vertex -10.862363 35.369602 0.943812
vertex -9.591958 34.584438 -4.313441
endloop
endfacet
facet normal -0.982246 0.187599 0.000000
outer loop
vertex -11.866463 30.112244 -2.146314
vertex -11.866463 30.112244 4.033938
vertex -10.862363 35.369602 0.943812
endloop
endfacet
facet normal -0.904989 0.330385 0.268031
outer loop
vertex -11.866463 30.112244 4.033938
vertex -9.591958 34.584438 6.201065
vertex -10.862363 35.369602 0.943812
endloop
endfacet
facet normal -0.534576 0.330387 0.777864
outer loop
vertex -8.233740 30.112244 9.033978
vertex -4.984573 35.369621 9.033927
vertex -9.591958 34.584438 6.201065
endloop
endfacet
facet normal -0.303531 0.187597 0.934171
outer loop
vertex -8.233740 30.112244 9.033978
vertex -2.355885 30.112244 10.943811
vertex -4.984573 35.369621 9.033927
endloop
endfacet
facet normal -0.024747 0.330386 0.943521
outer loop
vertex -2.355885 30.112244 10.943811
vertex 0.407995 34.584442 9.450305
vertex -4.984573 35.369621 9.033927
endloop
endfacet
facet normal 0.574602 0.330388 0.748783
outer loop
vertex 3.521970 30.112244 9.033978
vertex 4.526007 35.369606 5.943781
vertex 0.407995 34.584442 9.450305
endloop
endfacet
facet normal 0.794656 0.187595 0.577348
outer loop
vertex 3.521970 30.112244 9.033978
vertex 7.154692 30.112244 4.033938
vertex 4.526007 35.369606 5.943781
endloop
endfacet
facet normal 0.889697 0.330385 0.315095
outer loop
vertex 7.154692 30.112244 4.033938
vertex 6.588375 34.584400 0.943812
vertex 4.526007 35.369606 5.943781
endloop
endfacet
facet normal 0.306569 0.125628 -0.943522
outer loop
vertex 3.521970 30.112244 -7.146354
vertex -2.355885 30.112244 -9.056187
vertex 0.407995 34.584442 -7.562680
endloop
endfacet
facet normal 0.303531 -0.187598 -0.934171
outer loop
vertex 3.521970 30.112244 -7.146354
vertex 0.272802 24.854868 -7.146302
vertex -2.355885 30.112244 -9.056187
endloop
endfacet
facet normal 0.024747 -0.330386 -0.943521
outer loop
vertex 0.272802 24.854868 -7.146302
vertex -5.119765 25.640045 -7.562680
vertex -2.355885 30.112244 -9.056187
endloop
endfacet
facet normal -0.802609 0.125627 -0.583127
outer loop
vertex -8.233740 30.112244 -7.146354
vertex -11.866463 30.112244 -2.146314
vertex -9.591958 34.584438 -4.313441
endloop
endfacet
facet normal -0.794655 -0.187595 -0.577348
outer loop
vertex -8.233740 30.112244 -7.146354
vertex -9.237778 24.854883 -4.056156
vertex -11.866463 30.112244 -2.146314
endloop
endfacet
facet normal -0.889697 -0.330385 -0.315094
outer loop
vertex -9.237778 24.854883 -4.056156
vertex -11.300146 25.640087 0.943812
vertex -11.866463 30.112244 -2.146314
endloop
endfacet
facet normal -0.802609 0.125627 0.583127
outer loop
vertex -11.866463 30.112244 4.033938
vertex -8.233740 30.112244 9.033978
vertex -9.591958 34.584438 6.201065
endloop
endfacet
facet normal -0.794655 -0.187595 0.577348
outer loop
vertex -11.866463 30.112244 4.033938
vertex -9.237778 24.854883 5.943781
vertex -8.233740 30.112244 9.033978
endloop
endfacet
facet normal -0.574602 -0.330387 0.748783
outer loop
vertex -9.237778 24.854883 5.943781
vertex -5.119765 25.640045 9.450305
vertex -8.233740 30.112244 9.033978
endloop
endfacet
facet normal 0.306569 0.125628 0.943521
outer loop
vertex -2.355885 30.112244 10.943811
vertex 3.521970 30.112244 9.033978
vertex 0.407995 34.584442 9.450305
endloop
endfacet
facet normal 0.303531 -0.187598 0.934171
outer loop
vertex -2.355885 30.112244 10.943811
vertex 0.272803 24.854868 9.033927
vertex 3.521970 30.112244 9.033978
endloop
endfacet
facet normal 0.534576 -0.330387 0.777864
outer loop
vertex 0.272803 24.854868 9.033927
vertex 4.880188 25.640049 6.201065
vertex 3.521970 30.112244 9.033978
endloop
endfacet
facet normal 0.992077 0.125628 0.000000
outer loop
vertex 7.154692 30.112244 4.033938
vertex 7.154692 30.112244 -2.146314
vertex 6.588375 34.584400 0.943812
endloop
endfacet
facet normal 0.982246 -0.187599 0.000000
outer loop
vertex 7.154692 30.112244 4.033938
vertex 6.150592 24.854885 0.943812
vertex 7.154692 30.112244 -2.146314
endloop
endfacet
facet normal 0.904989 -0.330384 -0.268031
outer loop
vertex 6.150592 24.854885 0.943812
vertex 4.880188 25.640049 -4.313441
vertex 7.154692 30.112244 -2.146314
endloop
endfacet
facet normal 0.471299 -0.661699 -0.583123
outer loop
vertex 1.897341 21.605703 -2.146301
vertex 0.272802 24.854868 -7.146302
vertex 4.880188 25.640049 -4.313441
endloop
endfacet
facet normal 0.187594 -0.794657 -0.577346
outer loop
vertex 1.897341 21.605703 -2.146301
vertex -3.980441 21.605701 -4.056140
vertex 0.272802 24.854868 -7.146302
endloop
endfacet
facet normal -0.038530 -0.661700 -0.748778
outer loop
vertex -3.980441 21.605701 -4.056140
vertex -5.119765 25.640045 -7.562680
vertex 0.272802 24.854868 -7.146302
endloop
endfacet
facet normal -0.408947 -0.661699 -0.628424
outer loop
vertex -3.980441 21.605701 -4.056140
vertex -9.237778 24.854883 -4.056156
vertex -5.119765 25.640045 -7.562680
endloop
endfacet
facet normal -0.491119 -0.794657 -0.356822
outer loop
vertex -3.980441 21.605701 -4.056140
vertex -7.613182 21.605728 0.943812
vertex -9.237778 24.854883 -4.056156
endloop
endfacet
facet normal -0.724042 -0.661695 -0.194737
outer loop
vertex -7.613182 21.605728 0.943812
vertex -11.300146 25.640087 0.943812
vertex -9.237778 24.854883 -4.056156
endloop
endfacet
facet normal -0.724042 -0.661695 0.194737
outer loop
vertex -7.613182 21.605728 0.943812
vertex -9.237778 24.854883 5.943781
vertex -11.300146 25.640087 0.943812
endloop
endfacet
facet normal -0.491119 -0.794657 0.356822
outer loop
vertex -7.613182 21.605728 0.943812
vertex -3.980441 21.605701 5.943765
vertex -9.237778 24.854883 5.943781
endloop
endfacet
facet normal -0.408947 -0.661699 0.628424
outer loop
vertex -3.980441 21.605701 5.943765
vertex -5.119765 25.640045 9.450305
vertex -9.237778 24.854883 5.943781
endloop
endfacet
facet normal 0.700224 -0.661699 -0.268031
outer loop
vertex 6.150592 24.854885 0.943812
vertex 1.897341 21.605703 -2.146301
vertex 4.880188 25.640049 -4.313441
endloop
endfacet
facet normal 0.607061 -0.794656 0.000000
outer loop
vertex 6.150592 24.854885 0.943812
vertex 1.897341 21.605703 4.033926
vertex 1.897341 21.605703 -2.146301
endloop
endfacet
facet normal 0.331305 -0.943524 0.000000
outer loop
vertex 1.897341 21.605703 4.033926
vertex -2.355885 20.112244 0.943812
vertex 1.897341 21.605703 -2.146301
endloop
endfacet
facet normal -0.038530 -0.661700 0.748778
outer loop
vertex -3.980441 21.605701 5.943765
vertex 0.272803 24.854868 9.033927
vertex -5.119765 25.640045 9.450305
endloop
endfacet
facet normal 0.187594 -0.794657 0.577346
outer loop
vertex -3.980441 21.605701 5.943765
vertex 1.897341 21.605703 4.033926
vertex 0.272803 24.854868 9.033927
endloop
endfacet
facet normal 0.471299 -0.661699 0.583123
outer loop
vertex 1.897341 21.605703 4.033926
vertex 4.880188 25.640049 6.201065
vertex 0.272803 24.854868 9.033927
endloop
endfacet
endsolid Exported from Blender-2.74 (sub 0)
