solid Exported from Blender-2.74 (sub 0)
facet normal 0.102381 -0.943523 0.315091
outer loop
vertex 2.029029 42.662537 -4.051454
vertex 6.282255 44.155998 -0.961341
vertex 0.404473 44.155994 0.948498
endloop
endfacet
facet normal 0.700223 -0.661699 0.268033
outer loop
vertex 9.265102 48.190342 1.205799
vertex 6.282255 44.155998 -0.961341
vertex 10.535506 47.405178 -4.051454
endloop
endfacet
facet normal -0.268034 -0.943523 0.194736
outer loop
vertex 2.029029 42.662537 -4.051454
vertex 0.404473 44.155994 0.948498
vertex -3.228268 44.156021 -4.051454
endloop
endfacet
facet normal -0.268034 -0.943523 -0.194736
outer loop
vertex 2.029029 42.662537 -4.051454
vertex -3.228268 44.156021 -4.051454
vertex 0.404473 44.155994 -9.051407
endloop
endfacet
facet normal 0.102381 -0.943523 -0.315091
outer loop
vertex 2.029029 42.662537 -4.051454
vertex 0.404473 44.155994 -9.051407
vertex 6.282255 44.155998 -7.141567
endloop
endfacet
facet normal 0.904989 -0.330384 0.268031
outer loop
vertex 9.265102 48.190342 1.205799
vertex 10.535506 47.405178 -4.051454
vertex 11.539606 52.662537 -0.961328
endloop
endfacet
facet normal 0.024747 -0.330386 0.943521
outer loop
vertex -0.734851 48.190338 4.455039
vertex 4.657717 47.405159 4.038661
vertex 2.029029 52.662537 5.948545
endloop
endfacet
facet normal -0.889697 -0.330385 0.315094
outer loop
vertex -6.915232 48.190380 -4.051454
vertex -4.852863 47.405174 0.948514
vertex -7.481548 52.662537 -0.961328
endloop
endfacet
facet normal -0.574603 -0.330388 -0.748783
outer loop
vertex -0.734851 48.190338 -12.557947
vertex -4.852863 47.405174 -9.051422
vertex -3.848826 52.662537 -12.141621
endloop
endfacet
facet normal 0.534576 -0.330386 -0.777865
outer loop
vertex 9.265102 48.190342 -9.308707
vertex 4.657717 47.405159 -12.141569
vertex 7.906884 52.662537 -12.141621
endloop
endfacet
facet normal 0.802609 -0.125627 0.583127
outer loop
vertex 9.265102 48.190342 1.205799
vertex 11.539606 52.662537 -0.961328
vertex 7.906884 52.662537 4.038712
endloop
endfacet
facet normal -0.306569 -0.125628 0.943522
outer loop
vertex -0.734851 48.190338 4.455039
vertex 2.029029 52.662537 5.948545
vertex -3.848826 52.662537 4.038712
endloop
endfacet
facet normal -0.992077 -0.125629 0.000000
outer loop
vertex -6.915232 48.190380 -4.051454
vertex -7.481548 52.662537 -0.961328
vertex -7.481548 52.662537 -7.141581
endloop
endfacet
facet normal -0.306569 -0.125628 -0.943522
outer loop
vertex -0.734851 48.190338 -12.557947
vertex -3.848826 52.662537 -12.141621
vertex 2.029029 52.662537 -14.051453
endloop
endfacet
facet normal 0.802609 -0.125627 -0.583127
outer loop
vertex 9.265102 48.190342 -9.308707
vertex 7.906884 52.662537 -12.141621
vertex 11.539606 52.662537 -7.141581
endloop
endfacet
facet normal 0.408946 0.661699 0.628424
outer loop
vertex 4.792909 57.134735 4.455039
vertex 8.910921 57.919899 0.948514
vertex 3.653584 61.169079 0.948498
endloop
endfacet
facet normal -0.471300 0.661699 0.583122
outer loop
vertex -5.207044 57.134731 1.205799
vertex -0.599659 57.919914 4.038661
vertex -2.224197 61.169075 -0.961341
endloop
endfacet
facet normal -0.700224 0.661699 -0.268033
outer loop
vertex -5.207044 57.134731 -9.308707
vertex -6.477448 57.919895 -4.051454
vertex -2.224197 61.169075 -7.141567
endloop
endfacet
facet normal 0.038530 0.661700 -0.748778
outer loop
vertex 4.792909 57.134735 -12.557947
vertex -0.599659 57.919914 -12.141569
vertex 3.653584 61.169079 -9.051407
endloop
endfacet
facet normal 0.724042 0.661695 -0.194736
outer loop
vertex 10.973289 57.134693 -4.051454
vertex 8.910921 57.919899 -9.051422
vertex 7.286326 61.169052 -4.051454
endloop
endfacet
facet normal 0.268034 0.943523 -0.194736
outer loop
vertex 7.286326 61.169052 -4.051454
vertex 3.653584 61.169079 -9.051407
vertex 2.029029 62.662537 -4.051454
endloop
endfacet
facet normal 0.491119 0.794657 -0.356823
outer loop
vertex 7.286326 61.169052 -4.051454
vertex 8.910921 57.919899 -9.051422
vertex 3.653584 61.169079 -9.051407
endloop
endfacet
facet normal 0.408947 0.661699 -0.628424
outer loop
vertex 8.910921 57.919899 -9.051422
vertex 4.792909 57.134735 -12.557947
vertex 3.653584 61.169079 -9.051407
endloop
endfacet
facet normal -0.102381 0.943524 -0.315089
outer loop
vertex 3.653584 61.169079 -9.051407
vertex -2.224197 61.169075 -7.141567
vertex 2.029029 62.662537 -4.051454
endloop
endfacet
facet normal -0.187594 0.794658 -0.577345
outer loop
vertex 3.653584 61.169079 -9.051407
vertex -0.599659 57.919914 -12.141569
vertex -2.224197 61.169075 -7.141567
endloop
endfacet
facet normal -0.471299 0.661699 -0.583122
outer loop
vertex -0.599659 57.919914 -12.141569
vertex -5.207044 57.134731 -9.308707
vertex -2.224197 61.169075 -7.141567
endloop
endfacet
facet normal -0.331305 0.943524 0.000000
outer loop
vertex -2.224197 61.169075 -7.141567
vertex -2.224197 61.169075 -0.961341
vertex 2.029029 62.662537 -4.051454
endloop
endfacet
facet normal -0.607060 0.794656 0.000000
outer loop
vertex -2.224197 61.169075 -7.141567
vertex -6.477448 57.919895 -4.051454
vertex -2.224197 61.169075 -0.961341
endloop
endfacet
facet normal -0.700223 0.661699 0.268033
outer loop
vertex -6.477448 57.919895 -4.051454
vertex -5.207044 57.134731 1.205799
vertex -2.224197 61.169075 -0.961341
endloop
endfacet
facet normal -0.102381 0.943523 0.315090
outer loop
vertex -2.224197 61.169075 -0.961341
vertex 3.653584 61.169079 0.948498
vertex 2.029029 62.662537 -4.051454
endloop
endfacet
facet normal -0.187595 0.794658 0.577345
outer loop
vertex -2.224197 61.169075 -0.961341
vertex -0.599659 57.919914 4.038661
vertex 3.653584 61.169079 0.948498
endloop
endfacet
facet normal 0.038530 0.661700 0.748778
outer loop
vertex -0.599659 57.919914 4.038661
vertex 4.792909 57.134735 4.455039
vertex 3.653584 61.169079 0.948498
endloop
endfacet
facet normal 0.268034 0.943523 0.194736
outer loop
vertex 3.653584 61.169079 0.948498
vertex 7.286326 61.169052 -4.051454
vertex 2.029029 62.662537 -4.051454
endloop
endfacet
facet normal 0.491119 0.794657 0.356822
outer loop
vertex 3.653584 61.169079 0.948498
vertex 8.910921 57.919899 0.948514
vertex 7.286326 61.169052 -4.051454
endloop
endfacet
facet normal 0.724042 0.661695 0.194736
outer loop
vertex 8.910921 57.919899 0.948514
vertex 10.973289 57.134693 -4.051454
vertex 7.286326 61.169052 -4.051454
endloop
endfacet
facet normal 0.889697 0.330385 -0.315094
outer loop
vertex 11.539606 52.662537 -7.141581
vertex 8.910921 57.919899 -9.051422
vertex 10.973289 57.134693 -4.051454
endloop
endfacet
facet normal 0.794655 0.187595 -0.577348
outer loop
vertex 11.539606 52.662537 -7.141581
vertex 7.906884 52.662537 -12.141621
vertex 8.910921 57.919899 -9.051422
endloop
endfacet
facet normal 0.574602 0.330388 -0.748783
outer loop
vertex 7.906884 52.662537 -12.141621
vertex 4.792909 57.134735 -12.557947
vertex 8.910921 57.919899 -9.051422
endloop
endfacet
facet normal -0.024747 0.330386 -0.943521
outer loop
vertex 2.029029 52.662537 -14.051453
vertex -0.599659 57.919914 -12.141569
vertex 4.792909 57.134735 -12.557947
endloop
endfacet
facet normal -0.303531 0.187598 -0.934171
outer loop
vertex 2.029029 52.662537 -14.051453
vertex -3.848826 52.662537 -12.141621
vertex -0.599659 57.919914 -12.141569
endloop
endfacet
facet normal -0.534576 0.330386 -0.777865
outer loop
vertex -3.848826 52.662537 -12.141621
vertex -5.207044 57.134731 -9.308707
vertex -0.599659 57.919914 -12.141569
endloop
endfacet
facet normal -0.904989 0.330385 -0.268030
outer loop
vertex -7.481548 52.662537 -7.141581
vertex -6.477448 57.919895 -4.051454
vertex -5.207044 57.134731 -9.308707
endloop
endfacet
facet normal -0.982246 0.187599 0.000000
outer loop
vertex -7.481548 52.662537 -7.141581
vertex -7.481548 52.662537 -0.961328
vertex -6.477448 57.919895 -4.051454
endloop
endfacet
facet normal -0.904989 0.330385 0.268030
outer loop
vertex -7.481548 52.662537 -0.961328
vertex -5.207044 57.134731 1.205799
vertex -6.477448 57.919895 -4.051454
endloop
endfacet
facet normal -0.534576 0.330387 0.777865
outer loop
vertex -3.848826 52.662537 4.038712
vertex -0.599659 57.919914 4.038661
vertex -5.207044 57.134731 1.205799
endloop
endfacet
facet normal -0.303531 0.187598 0.934171
outer loop
vertex -3.848826 52.662537 4.038712
vertex 2.029029 52.662537 5.948545
vertex -0.599659 57.919914 4.038661
endloop
endfacet
facet normal -0.024747 0.330386 0.943521
outer loop
vertex 2.029029 52.662537 5.948545
vertex 4.792909 57.134735 4.455039
vertex -0.599659 57.919914 4.038661
endloop
endfacet
facet normal 0.574602 0.330387 0.748783
outer loop
vertex 7.906884 52.662537 4.038712
vertex 8.910921 57.919899 0.948514
vertex 4.792909 57.134735 4.455039
endloop
endfacet
facet normal 0.794656 0.187595 0.577348
outer loop
vertex 7.906884 52.662537 4.038712
vertex 11.539606 52.662537 -0.961328
vertex 8.910921 57.919899 0.948514
endloop
endfacet
facet normal 0.889697 0.330385 0.315094
outer loop
vertex 11.539606 52.662537 -0.961328
vertex 10.973289 57.134693 -4.051454
vertex 8.910921 57.919899 0.948514
endloop
endfacet
facet normal 0.306569 0.125628 -0.943522
outer loop
vertex 7.906884 52.662537 -12.141621
vertex 2.029029 52.662537 -14.051453
vertex 4.792909 57.134735 -12.557947
endloop
endfacet
facet normal 0.303531 -0.187597 -0.934172
outer loop
vertex 7.906884 52.662537 -12.141621
vertex 4.657717 47.405159 -12.141569
vertex 2.029029 52.662537 -14.051453
endloop
endfacet
facet normal 0.024747 -0.330386 -0.943521
outer loop
vertex 4.657717 47.405159 -12.141569
vertex -0.734851 48.190338 -12.557947
vertex 2.029029 52.662537 -14.051453
endloop
endfacet
facet normal -0.802609 0.125627 -0.583127
outer loop
vertex -3.848826 52.662537 -12.141621
vertex -7.481548 52.662537 -7.141581
vertex -5.207044 57.134731 -9.308707
endloop
endfacet
facet normal -0.794655 -0.187595 -0.577348
outer loop
vertex -3.848826 52.662537 -12.141621
vertex -4.852863 47.405174 -9.051422
vertex -7.481548 52.662537 -7.141581
endloop
endfacet
facet normal -0.889697 -0.330385 -0.315094
outer loop
vertex -4.852863 47.405174 -9.051422
vertex -6.915232 48.190380 -4.051454
vertex -7.481548 52.662537 -7.141581
endloop
endfacet
facet normal -0.802609 0.125627 0.583127
outer loop
vertex -7.481548 52.662537 -0.961328
vertex -3.848826 52.662537 4.038712
vertex -5.207044 57.134731 1.205799
endloop
endfacet
facet normal -0.794655 -0.187595 0.577348
outer loop
vertex -7.481548 52.662537 -0.961328
vertex -4.852863 47.405174 0.948514
vertex -3.848826 52.662537 4.038712
endloop
endfacet
facet normal -0.574602 -0.330388 0.748783
outer loop
vertex -4.852863 47.405174 0.948514
vertex -0.734851 48.190338 4.455039
vertex -3.848826 52.662537 4.038712
endloop
endfacet
facet normal 0.306569 0.125629 0.943521
outer loop
vertex 2.029029 52.662537 5.948545
vertex 7.906884 52.662537 4.038712
vertex 4.792909 57.134735 4.455039
endloop
endfacet
facet normal 0.303531 -0.187597 0.934171
outer loop
vertex 2.029029 52.662537 5.948545
vertex 4.657717 47.405159 4.038661
vertex 7.906884 52.662537 4.038712
endloop
endfacet
facet normal 0.534576 -0.330386 0.777865
outer loop
vertex 4.657717 47.405159 4.038661
vertex 9.265102 48.190342 1.205799
vertex 7.906884 52.662537 4.038712
endloop
endfacet
facet normal 0.992077 0.125629 0.000000
outer loop
vertex 11.539606 52.662537 -0.961328
vertex 11.539606 52.662537 -7.141581
vertex 10.973289 57.134693 -4.051454
endloop
endfacet
facet normal 0.982246 -0.187599 0.000000
outer loop
vertex 11.539606 52.662537 -0.961328
vertex 10.535506 47.405178 -4.051454
vertex 11.539606 52.662537 -7.141581
endloop
endfacet
facet normal 0.904989 -0.330384 -0.268031
outer loop
vertex 10.535506 47.405178 -4.051454
vertex 9.265102 48.190342 -9.308707
vertex 11.539606 52.662537 -7.141581
endloop
endfacet
facet normal 0.471299 -0.661699 -0.583122
outer loop
vertex 6.282255 44.155998 -7.141567
vertex 4.657717 47.405159 -12.141569
vertex 9.265102 48.190342 -9.308707
endloop
endfacet
facet normal 0.187595 -0.794658 -0.577345
outer loop
vertex 6.282255 44.155998 -7.141567
vertex 0.404473 44.155994 -9.051407
vertex 4.657717 47.405159 -12.141569
endloop
endfacet
facet normal -0.038530 -0.661700 -0.748778
outer loop
vertex 0.404473 44.155994 -9.051407
vertex -0.734851 48.190338 -12.557947
vertex 4.657717 47.405159 -12.141569
endloop
endfacet
facet normal -0.408946 -0.661699 -0.628425
outer loop
vertex 0.404473 44.155994 -9.051407
vertex -4.852863 47.405174 -9.051422
vertex -0.734851 48.190338 -12.557947
endloop
endfacet
facet normal -0.491119 -0.794657 -0.356823
outer loop
vertex 0.404473 44.155994 -9.051407
vertex -3.228268 44.156021 -4.051454
vertex -4.852863 47.405174 -9.051422
endloop
endfacet
facet normal -0.724042 -0.661696 -0.194735
outer loop
vertex -3.228268 44.156021 -4.051454
vertex -6.915232 48.190380 -4.051454
vertex -4.852863 47.405174 -9.051422
endloop
endfacet
facet normal -0.724042 -0.661696 0.194735
outer loop
vertex -3.228268 44.156021 -4.051454
vertex -4.852863 47.405174 0.948514
vertex -6.915232 48.190380 -4.051454
endloop
endfacet
facet normal -0.491119 -0.794657 0.356822
outer loop
vertex -3.228268 44.156021 -4.051454
vertex 0.404473 44.155994 0.948498
vertex -4.852863 47.405174 0.948514
endloop
endfacet
facet normal -0.408946 -0.661699 0.628425
outer loop
vertex 0.404473 44.155994 0.948498
vertex -0.734851 48.190338 4.455039
vertex -4.852863 47.405174 0.948514
endloop
endfacet
facet normal 0.700223 -0.661699 -0.268033
outer loop
vertex 10.535506 47.405178 -4.051454
vertex 6.282255 44.155998 -7.141567
vertex 9.265102 48.190342 -9.308707
endloop
endfacet
facet normal 0.607060 -0.794656 0.000000
outer loop
vertex 10.535506 47.405178 -4.051454
vertex 6.282255 44.155998 -0.961341
vertex 6.282255 44.155998 -7.141567
endloop
endfacet
facet normal 0.331305 -0.943524 0.000000
outer loop
vertex 6.282255 44.155998 -0.961341
vertex 2.029029 42.662537 -4.051454
vertex 6.282255 44.155998 -7.141567
endloop
endfacet
facet normal -0.038530 -0.661700 0.748778
outer loop
vertex 0.404473 44.155994 0.948498
vertex 4.657717 47.405159 4.038661
vertex -0.734851 48.190338 4.455039
endloop
endfacet
facet normal 0.187595 -0.794658 0.577344
outer loop
vertex 0.404473 44.155994 0.948498
vertex 6.282255 44.155998 -0.961341
vertex 4.657717 47.405159 4.038661
endloop
endfacet
facet normal 0.471299 -0.661699 0.583122
outer loop
vertex 6.282255 44.155998 -0.961341
vertex 9.265102 48.190342 1.205799
vertex 4.657717 47.405159 4.038661
endloop
endfacet
endsolid Exported from Blender-2.74 (sub 0)
