solid Exported from Blender-2.74 (sub 0)
facet normal 0.102381 -0.943523 0.315091
outer loop
vertex 2.227884 33.735962 10.259105
vertex 6.481110 35.229424 13.349218
vertex 0.603328 35.229420 15.259057
endloop
endfacet
facet normal 0.700223 -0.661699 0.268033
outer loop
vertex 9.463957 39.263767 15.516357
vertex 6.481110 35.229424 13.349218
vertex 10.734362 38.478603 10.259105
endloop
endfacet
facet normal -0.268034 -0.943523 0.194736
outer loop
vertex 2.227884 33.735962 10.259105
vertex 0.603328 35.229420 15.259057
vertex -3.029413 35.229446 10.259105
endloop
endfacet
facet normal -0.268034 -0.943523 -0.194736
outer loop
vertex 2.227884 33.735962 10.259105
vertex -3.029413 35.229446 10.259105
vertex 0.603328 35.229420 5.259152
endloop
endfacet
facet normal 0.102381 -0.943523 -0.315091
outer loop
vertex 2.227884 33.735962 10.259105
vertex 0.603328 35.229420 5.259152
vertex 6.481110 35.229424 7.168991
endloop
endfacet
facet normal 0.904989 -0.330384 0.268031
outer loop
vertex 9.463957 39.263767 15.516357
vertex 10.734362 38.478603 10.259105
vertex 11.738461 43.735962 13.349231
endloop
endfacet
facet normal 0.024747 -0.330386 0.943521
outer loop
vertex -0.535996 39.263763 18.765598
vertex 4.856572 38.478584 18.349220
vertex 2.227884 43.735962 20.259104
endloop
endfacet
facet normal -0.889697 -0.330385 0.315095
outer loop
vertex -6.716377 39.263805 10.259105
vertex -4.654008 38.478600 15.259073
vertex -7.282693 43.735962 13.349231
endloop
endfacet
facet normal -0.574602 -0.330388 -0.748783
outer loop
vertex -0.535996 39.263763 1.752612
vertex -4.654008 38.478600 5.259136
vertex -3.649971 43.735962 2.168939
endloop
endfacet
facet normal 0.534577 -0.330387 -0.777864
outer loop
vertex 9.463957 39.263767 5.001852
vertex 4.856571 38.478584 2.168990
vertex 8.105739 43.735962 2.168939
endloop
endfacet
facet normal 0.802609 -0.125627 0.583127
outer loop
vertex 9.463957 39.263767 15.516357
vertex 11.738461 43.735962 13.349231
vertex 8.105739 43.735962 18.349270
endloop
endfacet
facet normal -0.306569 -0.125628 0.943522
outer loop
vertex -0.535996 39.263763 18.765598
vertex 2.227884 43.735962 20.259104
vertex -3.649971 43.735962 18.349270
endloop
endfacet
facet normal -0.992077 -0.125628 0.000000
outer loop
vertex -6.716377 39.263805 10.259105
vertex -7.282693 43.735962 13.349231
vertex -7.282693 43.735962 7.168979
endloop
endfacet
facet normal -0.306569 -0.125628 -0.943522
outer loop
vertex -0.535996 39.263763 1.752612
vertex -3.649971 43.735962 2.168939
vertex 2.227884 43.735962 0.259106
endloop
endfacet
facet normal 0.802609 -0.125627 -0.583127
outer loop
vertex 9.463957 39.263767 5.001852
vertex 8.105739 43.735962 2.168939
vertex 11.738461 43.735962 7.168979
endloop
endfacet
facet normal 0.408946 0.661699 0.628424
outer loop
vertex 4.991764 48.208160 18.765598
vertex 9.109776 48.993324 15.259073
vertex 3.852439 52.242504 15.259057
endloop
endfacet
facet normal -0.471300 0.661699 0.583122
outer loop
vertex -5.008189 48.208157 15.516357
vertex -0.400804 48.993340 18.349220
vertex -2.025342 52.242500 13.349218
endloop
endfacet
facet normal -0.700224 0.661699 -0.268033
outer loop
vertex -5.008189 48.208157 5.001852
vertex -6.278594 48.993320 10.259105
vertex -2.025342 52.242500 7.168991
endloop
endfacet
facet normal 0.038530 0.661700 -0.748778
outer loop
vertex 4.991764 48.208160 1.752612
vertex -0.400804 48.993340 2.168990
vertex 3.852439 52.242504 5.259152
endloop
endfacet
facet normal 0.724042 0.661695 -0.194736
outer loop
vertex 11.172144 48.208118 10.259105
vertex 9.109776 48.993324 5.259136
vertex 7.485181 52.242477 10.259105
endloop
endfacet
facet normal 0.268034 0.943523 -0.194737
outer loop
vertex 7.485181 52.242477 10.259105
vertex 3.852439 52.242504 5.259152
vertex 2.227884 53.735962 10.259105
endloop
endfacet
facet normal 0.491119 0.794658 -0.356821
outer loop
vertex 7.485181 52.242477 10.259105
vertex 9.109776 48.993324 5.259136
vertex 3.852439 52.242504 5.259152
endloop
endfacet
facet normal 0.408946 0.661699 -0.628425
outer loop
vertex 9.109776 48.993324 5.259136
vertex 4.991764 48.208160 1.752612
vertex 3.852439 52.242504 5.259152
endloop
endfacet
facet normal -0.102381 0.943523 -0.315091
outer loop
vertex 3.852439 52.242504 5.259152
vertex -2.025342 52.242500 7.168991
vertex 2.227884 53.735962 10.259105
endloop
endfacet
facet normal -0.187595 0.794658 -0.577345
outer loop
vertex 3.852439 52.242504 5.259152
vertex -0.400804 48.993340 2.168990
vertex -2.025342 52.242500 7.168991
endloop
endfacet
facet normal -0.471300 0.661699 -0.583122
outer loop
vertex -0.400804 48.993340 2.168990
vertex -5.008189 48.208157 5.001852
vertex -2.025342 52.242500 7.168991
endloop
endfacet
facet normal -0.331305 0.943524 0.000000
outer loop
vertex -2.025342 52.242500 7.168991
vertex -2.025342 52.242500 13.349218
vertex 2.227884 53.735962 10.259105
endloop
endfacet
facet normal -0.607060 0.794656 0.000000
outer loop
vertex -2.025342 52.242500 7.168991
vertex -6.278594 48.993320 10.259105
vertex -2.025342 52.242500 13.349218
endloop
endfacet
facet normal -0.700223 0.661699 0.268033
outer loop
vertex -6.278594 48.993320 10.259105
vertex -5.008189 48.208157 15.516357
vertex -2.025342 52.242500 13.349218
endloop
endfacet
facet normal -0.102381 0.943523 0.315092
outer loop
vertex -2.025342 52.242500 13.349218
vertex 3.852439 52.242504 15.259057
vertex 2.227884 53.735962 10.259105
endloop
endfacet
facet normal -0.187595 0.794659 0.577344
outer loop
vertex -2.025342 52.242500 13.349218
vertex -0.400804 48.993340 18.349220
vertex 3.852439 52.242504 15.259057
endloop
endfacet
facet normal 0.038530 0.661699 0.748779
outer loop
vertex -0.400804 48.993340 18.349220
vertex 4.991764 48.208160 18.765598
vertex 3.852439 52.242504 15.259057
endloop
endfacet
facet normal 0.268035 0.943523 0.194736
outer loop
vertex 3.852439 52.242504 15.259057
vertex 7.485181 52.242477 10.259105
vertex 2.227884 53.735962 10.259105
endloop
endfacet
facet normal 0.491119 0.794657 0.356821
outer loop
vertex 3.852439 52.242504 15.259057
vertex 9.109776 48.993324 15.259073
vertex 7.485181 52.242477 10.259105
endloop
endfacet
facet normal 0.724042 0.661695 0.194736
outer loop
vertex 9.109776 48.993324 15.259073
vertex 11.172144 48.208118 10.259105
vertex 7.485181 52.242477 10.259105
endloop
endfacet
facet normal 0.889697 0.330385 -0.315095
outer loop
vertex 11.738461 43.735962 7.168979
vertex 9.109776 48.993324 5.259136
vertex 11.172144 48.208118 10.259105
endloop
endfacet
facet normal 0.794656 0.187595 -0.577348
outer loop
vertex 11.738461 43.735962 7.168979
vertex 8.105739 43.735962 2.168939
vertex 9.109776 48.993324 5.259136
endloop
endfacet
facet normal 0.574602 0.330388 -0.748783
outer loop
vertex 8.105739 43.735962 2.168939
vertex 4.991764 48.208160 1.752612
vertex 9.109776 48.993324 5.259136
endloop
endfacet
facet normal -0.024747 0.330386 -0.943521
outer loop
vertex 2.227884 43.735962 0.259106
vertex -0.400804 48.993340 2.168990
vertex 4.991764 48.208160 1.752612
endloop
endfacet
facet normal -0.303531 0.187598 -0.934171
outer loop
vertex 2.227884 43.735962 0.259106
vertex -3.649971 43.735962 2.168939
vertex -0.400804 48.993340 2.168990
endloop
endfacet
facet normal -0.534576 0.330387 -0.777865
outer loop
vertex -3.649971 43.735962 2.168939
vertex -5.008189 48.208157 5.001852
vertex -0.400804 48.993340 2.168990
endloop
endfacet
facet normal -0.904989 0.330384 -0.268031
outer loop
vertex -7.282693 43.735962 7.168979
vertex -6.278594 48.993320 10.259105
vertex -5.008189 48.208157 5.001852
endloop
endfacet
facet normal -0.982246 0.187599 0.000000
outer loop
vertex -7.282693 43.735962 7.168979
vertex -7.282693 43.735962 13.349231
vertex -6.278594 48.993320 10.259105
endloop
endfacet
facet normal -0.904989 0.330384 0.268031
outer loop
vertex -7.282693 43.735962 13.349231
vertex -5.008189 48.208157 15.516357
vertex -6.278594 48.993320 10.259105
endloop
endfacet
facet normal -0.534576 0.330386 0.777865
outer loop
vertex -3.649971 43.735962 18.349270
vertex -0.400804 48.993340 18.349220
vertex -5.008189 48.208157 15.516357
endloop
endfacet
facet normal -0.303531 0.187597 0.934171
outer loop
vertex -3.649971 43.735962 18.349270
vertex 2.227884 43.735962 20.259104
vertex -0.400804 48.993340 18.349220
endloop
endfacet
facet normal -0.024747 0.330386 0.943521
outer loop
vertex 2.227884 43.735962 20.259104
vertex 4.991764 48.208160 18.765598
vertex -0.400804 48.993340 18.349220
endloop
endfacet
facet normal 0.574602 0.330387 0.748783
outer loop
vertex 8.105739 43.735962 18.349270
vertex 9.109776 48.993324 15.259073
vertex 4.991764 48.208160 18.765598
endloop
endfacet
facet normal 0.794656 0.187595 0.577348
outer loop
vertex 8.105739 43.735962 18.349270
vertex 11.738461 43.735962 13.349231
vertex 9.109776 48.993324 15.259073
endloop
endfacet
facet normal 0.889697 0.330385 0.315095
outer loop
vertex 11.738461 43.735962 13.349231
vertex 11.172144 48.208118 10.259105
vertex 9.109776 48.993324 15.259073
endloop
endfacet
facet normal 0.306569 0.125629 -0.943521
outer loop
vertex 8.105739 43.735962 2.168939
vertex 2.227884 43.735962 0.259106
vertex 4.991764 48.208160 1.752612
endloop
endfacet
facet normal 0.303531 -0.187597 -0.934171
outer loop
vertex 8.105739 43.735962 2.168939
vertex 4.856571 38.478584 2.168990
vertex 2.227884 43.735962 0.259106
endloop
endfacet
facet normal 0.024747 -0.330387 -0.943521
outer loop
vertex 4.856571 38.478584 2.168990
vertex -0.535996 39.263763 1.752612
vertex 2.227884 43.735962 0.259106
endloop
endfacet
facet normal -0.802609 0.125627 -0.583127
outer loop
vertex -3.649971 43.735962 2.168939
vertex -7.282693 43.735962 7.168979
vertex -5.008189 48.208157 5.001852
endloop
endfacet
facet normal -0.794656 -0.187595 -0.577348
outer loop
vertex -3.649971 43.735962 2.168939
vertex -4.654008 38.478600 5.259136
vertex -7.282693 43.735962 7.168979
endloop
endfacet
facet normal -0.889697 -0.330385 -0.315095
outer loop
vertex -4.654008 38.478600 5.259136
vertex -6.716377 39.263805 10.259105
vertex -7.282693 43.735962 7.168979
endloop
endfacet
facet normal -0.802608 0.125627 0.583127
outer loop
vertex -7.282693 43.735962 13.349231
vertex -3.649971 43.735962 18.349270
vertex -5.008189 48.208157 15.516357
endloop
endfacet
facet normal -0.794656 -0.187595 0.577348
outer loop
vertex -7.282693 43.735962 13.349231
vertex -4.654008 38.478600 15.259073
vertex -3.649971 43.735962 18.349270
endloop
endfacet
facet normal -0.574603 -0.330388 0.748783
outer loop
vertex -4.654008 38.478600 15.259073
vertex -0.535996 39.263763 18.765598
vertex -3.649971 43.735962 18.349270
endloop
endfacet
facet normal 0.306569 0.125628 0.943522
outer loop
vertex 2.227884 43.735962 20.259104
vertex 8.105739 43.735962 18.349270
vertex 4.991764 48.208160 18.765598
endloop
endfacet
facet normal 0.303531 -0.187597 0.934171
outer loop
vertex 2.227884 43.735962 20.259104
vertex 4.856572 38.478584 18.349220
vertex 8.105739 43.735962 18.349270
endloop
endfacet
facet normal 0.534577 -0.330386 0.777864
outer loop
vertex 4.856572 38.478584 18.349220
vertex 9.463957 39.263767 15.516357
vertex 8.105739 43.735962 18.349270
endloop
endfacet
facet normal 0.992077 0.125629 0.000000
outer loop
vertex 11.738461 43.735962 13.349231
vertex 11.738461 43.735962 7.168979
vertex 11.172144 48.208118 10.259105
endloop
endfacet
facet normal 0.982246 -0.187598 0.000000
outer loop
vertex 11.738461 43.735962 13.349231
vertex 10.734362 38.478603 10.259105
vertex 11.738461 43.735962 7.168979
endloop
endfacet
facet normal 0.904989 -0.330384 -0.268031
outer loop
vertex 10.734362 38.478603 10.259105
vertex 9.463957 39.263767 5.001852
vertex 11.738461 43.735962 7.168979
endloop
endfacet
facet normal 0.471299 -0.661699 -0.583123
outer loop
vertex 6.481110 35.229424 7.168991
vertex 4.856571 38.478584 2.168990
vertex 9.463957 39.263767 5.001852
endloop
endfacet
facet normal 0.187594 -0.794658 -0.577345
outer loop
vertex 6.481110 35.229424 7.168991
vertex 0.603328 35.229420 5.259152
vertex 4.856571 38.478584 2.168990
endloop
endfacet
facet normal -0.038530 -0.661700 -0.748778
outer loop
vertex 0.603328 35.229420 5.259152
vertex -0.535996 39.263763 1.752612
vertex 4.856571 38.478584 2.168990
endloop
endfacet
facet normal -0.408946 -0.661698 -0.628425
outer loop
vertex 0.603328 35.229420 5.259152
vertex -4.654008 38.478600 5.259136
vertex -0.535996 39.263763 1.752612
endloop
endfacet
facet normal -0.491119 -0.794657 -0.356821
outer loop
vertex 0.603328 35.229420 5.259152
vertex -3.029413 35.229446 10.259105
vertex -4.654008 38.478600 5.259136
endloop
endfacet
facet normal -0.724042 -0.661696 -0.194735
outer loop
vertex -3.029413 35.229446 10.259105
vertex -6.716377 39.263805 10.259105
vertex -4.654008 38.478600 5.259136
endloop
endfacet
facet normal -0.724042 -0.661696 0.194735
outer loop
vertex -3.029413 35.229446 10.259105
vertex -4.654008 38.478600 15.259073
vertex -6.716377 39.263805 10.259105
endloop
endfacet
facet normal -0.491119 -0.794657 0.356822
outer loop
vertex -3.029413 35.229446 10.259105
vertex 0.603328 35.229420 15.259057
vertex -4.654008 38.478600 15.259073
endloop
endfacet
facet normal -0.408946 -0.661698 0.628425
outer loop
vertex 0.603328 35.229420 15.259057
vertex -0.535996 39.263763 18.765598
vertex -4.654008 38.478600 15.259073
endloop
endfacet
facet normal 0.700223 -0.661699 -0.268033
outer loop
vertex 10.734362 38.478603 10.259105
vertex 6.481110 35.229424 7.168991
vertex 9.463957 39.263767 5.001852
endloop
endfacet
facet normal 0.607060 -0.794656 0.000000
outer loop
vertex 10.734362 38.478603 10.259105
vertex 6.481110 35.229424 13.349218
vertex 6.481110 35.229424 7.168991
endloop
endfacet
facet normal 0.331305 -0.943524 0.000000
outer loop
vertex 6.481110 35.229424 13.349218
vertex 2.227884 33.735962 10.259105
vertex 6.481110 35.229424 7.168991
endloop
endfacet
facet normal -0.038530 -0.661700 0.748778
outer loop
vertex 0.603328 35.229420 15.259057
vertex 4.856572 38.478584 18.349220
vertex -0.535996 39.263763 18.765598
endloop
endfacet
facet normal 0.187594 -0.794658 0.577345
outer loop
vertex 0.603328 35.229420 15.259057
vertex 6.481110 35.229424 13.349218
vertex 4.856572 38.478584 18.349220
endloop
endfacet
facet normal 0.471300 -0.661699 0.583122
outer loop
vertex 6.481110 35.229424 13.349218
vertex 9.463957 39.263767 15.516357
vertex 4.856572 38.478584 18.349220
endloop
endfacet
endsolid Exported from Blender-2.74 (sub 0)
