solid Exported from Blender-2.74 (sub 0)
facet normal 0.102381 -0.943523 0.315091
outer loop
vertex 1.610322 48.226334 12.869695
vertex 5.863548 49.719795 15.959808
vertex -0.014233 49.719791 17.869648
endloop
endfacet
facet normal 0.700224 -0.661699 0.268032
outer loop
vertex 8.846395 53.754139 18.126947
vertex 5.863548 49.719795 15.959808
vertex 10.116799 52.968975 12.869695
endloop
endfacet
facet normal -0.268034 -0.943523 0.194735
outer loop
vertex 1.610322 48.226334 12.869695
vertex -0.014233 49.719791 17.869648
vertex -3.646975 49.719818 12.869695
endloop
endfacet
facet normal -0.268034 -0.943523 -0.194735
outer loop
vertex 1.610322 48.226334 12.869695
vertex -3.646975 49.719818 12.869695
vertex -0.014233 49.719791 7.869742
endloop
endfacet
facet normal 0.102381 -0.943523 -0.315091
outer loop
vertex 1.610322 48.226334 12.869695
vertex -0.014233 49.719791 7.869742
vertex 5.863548 49.719795 9.779581
endloop
endfacet
facet normal 0.904989 -0.330384 0.268031
outer loop
vertex 8.846395 53.754139 18.126947
vertex 10.116799 52.968975 12.869695
vertex 11.120899 58.226334 15.959821
endloop
endfacet
facet normal 0.024747 -0.330386 0.943521
outer loop
vertex -1.153558 53.754135 21.376186
vertex 4.239010 52.968956 20.959808
vertex 1.610322 58.226334 22.869694
endloop
endfacet
facet normal -0.889697 -0.330385 0.315095
outer loop
vertex -7.333939 53.754177 12.869695
vertex -5.271570 52.968971 17.869663
vertex -7.900255 58.226334 15.959821
endloop
endfacet
facet normal -0.574603 -0.330388 -0.748783
outer loop
vertex -1.153558 53.754135 4.363202
vertex -5.271570 52.968971 7.869726
vertex -4.267533 58.226334 4.779529
endloop
endfacet
facet normal 0.534576 -0.330387 -0.777864
outer loop
vertex 8.846395 53.754139 7.612442
vertex 4.239010 52.968956 4.779580
vertex 7.488177 58.226334 4.779529
endloop
endfacet
facet normal 0.802608 -0.125627 0.583127
outer loop
vertex 8.846395 53.754139 18.126947
vertex 11.120899 58.226334 15.959821
vertex 7.488177 58.226334 20.959862
endloop
endfacet
facet normal -0.306569 -0.125629 0.943521
outer loop
vertex -1.153558 53.754135 21.376186
vertex 1.610322 58.226334 22.869694
vertex -4.267533 58.226334 20.959862
endloop
endfacet
facet normal -0.992077 -0.125628 0.000000
outer loop
vertex -7.333939 53.754177 12.869695
vertex -7.900255 58.226334 15.959821
vertex -7.900255 58.226334 9.779569
endloop
endfacet
facet normal -0.306569 -0.125628 -0.943522
outer loop
vertex -1.153558 53.754135 4.363202
vertex -4.267533 58.226334 4.779529
vertex 1.610322 58.226334 2.869696
endloop
endfacet
facet normal 0.802608 -0.125627 -0.583127
outer loop
vertex 8.846395 53.754139 7.612442
vertex 7.488177 58.226334 4.779529
vertex 11.120899 58.226334 9.779569
endloop
endfacet
facet normal 0.408946 0.661698 0.628426
outer loop
vertex 4.374202 62.698532 21.376186
vertex 8.492214 63.483696 17.869663
vertex 3.234878 66.732880 17.869648
endloop
endfacet
facet normal -0.471300 0.661700 0.583121
outer loop
vertex -5.625751 62.698528 18.126947
vertex -1.018366 63.483711 20.959808
vertex -2.642904 66.732872 15.959808
endloop
endfacet
facet normal -0.700224 0.661699 -0.268032
outer loop
vertex -5.625751 62.698528 7.612442
vertex -6.896155 63.483692 12.869695
vertex -2.642904 66.732872 9.779581
endloop
endfacet
facet normal 0.038530 0.661699 -0.748779
outer loop
vertex 4.374202 62.698532 4.363202
vertex -1.018366 63.483711 4.779580
vertex 3.234878 66.732880 7.869742
endloop
endfacet
facet normal 0.724042 0.661696 -0.194735
outer loop
vertex 10.554583 62.698490 12.869695
vertex 8.492214 63.483696 7.869726
vertex 6.867619 66.732849 12.869695
endloop
endfacet
facet normal 0.268034 0.943523 -0.194735
outer loop
vertex 6.867619 66.732849 12.869695
vertex 3.234878 66.732880 7.869742
vertex 1.610322 68.226334 12.869695
endloop
endfacet
facet normal 0.491120 0.794657 -0.356821
outer loop
vertex 6.867619 66.732849 12.869695
vertex 8.492214 63.483696 7.869726
vertex 3.234878 66.732880 7.869742
endloop
endfacet
facet normal 0.408946 0.661698 -0.628426
outer loop
vertex 8.492214 63.483696 7.869726
vertex 4.374202 62.698532 4.363202
vertex 3.234878 66.732880 7.869742
endloop
endfacet
facet normal -0.102382 0.943524 -0.315087
outer loop
vertex 3.234878 66.732880 7.869742
vertex -2.642904 66.732872 9.779581
vertex 1.610322 68.226334 12.869695
endloop
endfacet
facet normal -0.187595 0.794657 -0.577346
outer loop
vertex 3.234878 66.732880 7.869742
vertex -1.018366 63.483711 4.779580
vertex -2.642904 66.732872 9.779581
endloop
endfacet
facet normal -0.471300 0.661699 -0.583121
outer loop
vertex -1.018366 63.483711 4.779580
vertex -5.625751 62.698528 7.612442
vertex -2.642904 66.732872 9.779581
endloop
endfacet
facet normal -0.331305 0.943524 0.000000
outer loop
vertex -2.642904 66.732872 9.779581
vertex -2.642904 66.732872 15.959808
vertex 1.610322 68.226334 12.869695
endloop
endfacet
facet normal -0.607060 0.794656 0.000000
outer loop
vertex -2.642904 66.732872 9.779581
vertex -6.896155 63.483692 12.869695
vertex -2.642904 66.732872 15.959808
endloop
endfacet
facet normal -0.700224 0.661699 0.268033
outer loop
vertex -6.896155 63.483692 12.869695
vertex -5.625751 62.698528 18.126947
vertex -2.642904 66.732872 15.959808
endloop
endfacet
facet normal -0.102382 0.943524 0.315088
outer loop
vertex -2.642904 66.732872 15.959808
vertex 3.234878 66.732880 17.869648
vertex 1.610322 68.226334 12.869695
endloop
endfacet
facet normal -0.187595 0.794657 0.577346
outer loop
vertex -2.642904 66.732872 15.959808
vertex -1.018366 63.483711 20.959808
vertex 3.234878 66.732880 17.869648
endloop
endfacet
facet normal 0.038531 0.661699 0.748779
outer loop
vertex -1.018366 63.483711 20.959808
vertex 4.374202 62.698532 21.376186
vertex 3.234878 66.732880 17.869648
endloop
endfacet
facet normal 0.268034 0.943523 0.194736
outer loop
vertex 3.234878 66.732880 17.869648
vertex 6.867619 66.732849 12.869695
vertex 1.610322 68.226334 12.869695
endloop
endfacet
facet normal 0.491120 0.794657 0.356820
outer loop
vertex 3.234878 66.732880 17.869648
vertex 8.492214 63.483696 17.869663
vertex 6.867619 66.732849 12.869695
endloop
endfacet
facet normal 0.724042 0.661696 0.194736
outer loop
vertex 8.492214 63.483696 17.869663
vertex 10.554583 62.698490 12.869695
vertex 6.867619 66.732849 12.869695
endloop
endfacet
facet normal 0.889697 0.330385 -0.315095
outer loop
vertex 11.120899 58.226334 9.779569
vertex 8.492214 63.483696 7.869726
vertex 10.554583 62.698490 12.869695
endloop
endfacet
facet normal 0.794656 0.187595 -0.577347
outer loop
vertex 11.120899 58.226334 9.779569
vertex 7.488177 58.226334 4.779529
vertex 8.492214 63.483696 7.869726
endloop
endfacet
facet normal 0.574602 0.330387 -0.748784
outer loop
vertex 7.488177 58.226334 4.779529
vertex 4.374202 62.698532 4.363202
vertex 8.492214 63.483696 7.869726
endloop
endfacet
facet normal -0.024747 0.330387 -0.943521
outer loop
vertex 1.610322 58.226334 2.869696
vertex -1.018366 63.483711 4.779580
vertex 4.374202 62.698532 4.363202
endloop
endfacet
facet normal -0.303531 0.187598 -0.934171
outer loop
vertex 1.610322 58.226334 2.869696
vertex -4.267533 58.226334 4.779529
vertex -1.018366 63.483711 4.779580
endloop
endfacet
facet normal -0.534576 0.330386 -0.777865
outer loop
vertex -4.267533 58.226334 4.779529
vertex -5.625751 62.698528 7.612442
vertex -1.018366 63.483711 4.779580
endloop
endfacet
facet normal -0.904989 0.330385 -0.268031
outer loop
vertex -7.900255 58.226334 9.779569
vertex -6.896155 63.483692 12.869695
vertex -5.625751 62.698528 7.612442
endloop
endfacet
facet normal -0.982246 0.187599 0.000000
outer loop
vertex -7.900255 58.226334 9.779569
vertex -7.900255 58.226334 15.959821
vertex -6.896155 63.483692 12.869695
endloop
endfacet
facet normal -0.904989 0.330384 0.268031
outer loop
vertex -7.900255 58.226334 15.959821
vertex -5.625751 62.698528 18.126947
vertex -6.896155 63.483692 12.869695
endloop
endfacet
facet normal -0.534576 0.330387 0.777864
outer loop
vertex -4.267533 58.226334 20.959862
vertex -1.018366 63.483711 20.959808
vertex -5.625751 62.698528 18.126947
endloop
endfacet
facet normal -0.303531 0.187598 0.934171
outer loop
vertex -4.267533 58.226334 20.959862
vertex 1.610322 58.226334 22.869694
vertex -1.018366 63.483711 20.959808
endloop
endfacet
facet normal -0.024747 0.330386 0.943521
outer loop
vertex 1.610322 58.226334 22.869694
vertex 4.374202 62.698532 21.376186
vertex -1.018366 63.483711 20.959808
endloop
endfacet
facet normal 0.574601 0.330387 0.748784
outer loop
vertex 7.488177 58.226334 20.959862
vertex 8.492214 63.483696 17.869663
vertex 4.374202 62.698532 21.376186
endloop
endfacet
facet normal 0.794656 0.187595 0.577347
outer loop
vertex 7.488177 58.226334 20.959862
vertex 11.120899 58.226334 15.959821
vertex 8.492214 63.483696 17.869663
endloop
endfacet
facet normal 0.889697 0.330385 0.315095
outer loop
vertex 11.120899 58.226334 15.959821
vertex 10.554583 62.698490 12.869695
vertex 8.492214 63.483696 17.869663
endloop
endfacet
facet normal 0.306569 0.125629 -0.943522
outer loop
vertex 7.488177 58.226334 4.779529
vertex 1.610322 58.226334 2.869696
vertex 4.374202 62.698532 4.363202
endloop
endfacet
facet normal 0.303531 -0.187597 -0.934171
outer loop
vertex 7.488177 58.226334 4.779529
vertex 4.239010 52.968956 4.779580
vertex 1.610322 58.226334 2.869696
endloop
endfacet
facet normal 0.024747 -0.330386 -0.943521
outer loop
vertex 4.239010 52.968956 4.779580
vertex -1.153558 53.754135 4.363202
vertex 1.610322 58.226334 2.869696
endloop
endfacet
facet normal -0.802609 0.125627 -0.583127
outer loop
vertex -4.267533 58.226334 4.779529
vertex -7.900255 58.226334 9.779569
vertex -5.625751 62.698528 7.612442
endloop
endfacet
facet normal -0.794655 -0.187595 -0.577349
outer loop
vertex -4.267533 58.226334 4.779529
vertex -5.271570 52.968971 7.869726
vertex -7.900255 58.226334 9.779569
endloop
endfacet
facet normal -0.889697 -0.330385 -0.315095
outer loop
vertex -5.271570 52.968971 7.869726
vertex -7.333939 53.754177 12.869695
vertex -7.900255 58.226334 9.779569
endloop
endfacet
facet normal -0.802609 0.125627 0.583126
outer loop
vertex -7.900255 58.226334 15.959821
vertex -4.267533 58.226334 20.959862
vertex -5.625751 62.698528 18.126947
endloop
endfacet
facet normal -0.794655 -0.187595 0.577348
outer loop
vertex -7.900255 58.226334 15.959821
vertex -5.271570 52.968971 17.869663
vertex -4.267533 58.226334 20.959862
endloop
endfacet
facet normal -0.574602 -0.330388 0.748783
outer loop
vertex -5.271570 52.968971 17.869663
vertex -1.153558 53.754135 21.376186
vertex -4.267533 58.226334 20.959862
endloop
endfacet
facet normal 0.306569 0.125629 0.943521
outer loop
vertex 1.610322 58.226334 22.869694
vertex 7.488177 58.226334 20.959862
vertex 4.374202 62.698532 21.376186
endloop
endfacet
facet normal 0.303530 -0.187598 0.934172
outer loop
vertex 1.610322 58.226334 22.869694
vertex 4.239010 52.968956 20.959808
vertex 7.488177 58.226334 20.959862
endloop
endfacet
facet normal 0.534577 -0.330387 0.777864
outer loop
vertex 4.239010 52.968956 20.959808
vertex 8.846395 53.754139 18.126947
vertex 7.488177 58.226334 20.959862
endloop
endfacet
facet normal 0.992077 0.125628 0.000000
outer loop
vertex 11.120899 58.226334 15.959821
vertex 11.120899 58.226334 9.779569
vertex 10.554583 62.698490 12.869695
endloop
endfacet
facet normal 0.982246 -0.187599 0.000000
outer loop
vertex 11.120899 58.226334 15.959821
vertex 10.116799 52.968975 12.869695
vertex 11.120899 58.226334 9.779569
endloop
endfacet
facet normal 0.904989 -0.330384 -0.268031
outer loop
vertex 10.116799 52.968975 12.869695
vertex 8.846395 53.754139 7.612442
vertex 11.120899 58.226334 9.779569
endloop
endfacet
facet normal 0.471299 -0.661698 -0.583123
outer loop
vertex 5.863548 49.719795 9.779581
vertex 4.239010 52.968956 4.779580
vertex 8.846395 53.754139 7.612442
endloop
endfacet
facet normal 0.187594 -0.794657 -0.577346
outer loop
vertex 5.863548 49.719795 9.779581
vertex -0.014233 49.719791 7.869742
vertex 4.239010 52.968956 4.779580
endloop
endfacet
facet normal -0.038530 -0.661700 -0.748778
outer loop
vertex -0.014233 49.719791 7.869742
vertex -1.153558 53.754135 4.363202
vertex 4.239010 52.968956 4.779580
endloop
endfacet
facet normal -0.408946 -0.661698 -0.628426
outer loop
vertex -0.014233 49.719791 7.869742
vertex -5.271570 52.968971 7.869726
vertex -1.153558 53.754135 4.363202
endloop
endfacet
facet normal -0.491119 -0.794657 -0.356821
outer loop
vertex -0.014233 49.719791 7.869742
vertex -3.646975 49.719818 12.869695
vertex -5.271570 52.968971 7.869726
endloop
endfacet
facet normal -0.724042 -0.661696 -0.194736
outer loop
vertex -3.646975 49.719818 12.869695
vertex -7.333939 53.754177 12.869695
vertex -5.271570 52.968971 7.869726
endloop
endfacet
facet normal -0.724042 -0.661696 0.194736
outer loop
vertex -3.646975 49.719818 12.869695
vertex -5.271570 52.968971 17.869663
vertex -7.333939 53.754177 12.869695
endloop
endfacet
facet normal -0.491119 -0.794657 0.356821
outer loop
vertex -3.646975 49.719818 12.869695
vertex -0.014233 49.719791 17.869648
vertex -5.271570 52.968971 17.869663
endloop
endfacet
facet normal -0.408946 -0.661698 0.628426
outer loop
vertex -0.014233 49.719791 17.869648
vertex -1.153558 53.754135 21.376186
vertex -5.271570 52.968971 17.869663
endloop
endfacet
facet normal 0.700224 -0.661699 -0.268032
outer loop
vertex 10.116799 52.968975 12.869695
vertex 5.863548 49.719795 9.779581
vertex 8.846395 53.754139 7.612442
endloop
endfacet
facet normal 0.607060 -0.794656 0.000000
outer loop
vertex 10.116799 52.968975 12.869695
vertex 5.863548 49.719795 15.959808
vertex 5.863548 49.719795 9.779581
endloop
endfacet
facet normal 0.331305 -0.943524 0.000000
outer loop
vertex 5.863548 49.719795 15.959808
vertex 1.610322 48.226334 12.869695
vertex 5.863548 49.719795 9.779581
endloop
endfacet
facet normal -0.038530 -0.661700 0.748778
outer loop
vertex -0.014233 49.719791 17.869648
vertex 4.239010 52.968956 20.959808
vertex -1.153558 53.754135 21.376186
endloop
endfacet
facet normal 0.187594 -0.794657 0.577345
outer loop
vertex -0.014233 49.719791 17.869648
vertex 5.863548 49.719795 15.959808
vertex 4.239010 52.968956 20.959808
endloop
endfacet
facet normal 0.471299 -0.661698 0.583123
outer loop
vertex 5.863548 49.719795 15.959808
vertex 8.846395 53.754139 18.126947
vertex 4.239010 52.968956 20.959808
endloop
endfacet
endsolid Exported from Blender-2.74 (sub 0)
