solid Exported from Blender-2.74 (sub 0)
facet normal 0.102381 -0.943523 0.315091
outer loop
vertex -7.750154 41.884850 3.498634
vertex -3.496928 43.378311 6.588747
vertex -9.374709 43.378307 8.498586
endloop
endfacet
facet normal 0.700224 -0.661699 0.268032
outer loop
vertex -0.514081 47.412655 8.755887
vertex -3.496928 43.378311 6.588747
vertex 0.756323 46.627491 3.498634
endloop
endfacet
facet normal -0.268034 -0.943523 0.194736
outer loop
vertex -7.750154 41.884850 3.498634
vertex -9.374709 43.378307 8.498586
vertex -13.007451 43.378334 3.498634
endloop
endfacet
facet normal -0.268034 -0.943523 -0.194736
outer loop
vertex -7.750154 41.884850 3.498634
vertex -13.007451 43.378334 3.498634
vertex -9.374709 43.378307 -1.501319
endloop
endfacet
facet normal 0.102381 -0.943523 -0.315091
outer loop
vertex -7.750154 41.884850 3.498634
vertex -9.374709 43.378307 -1.501319
vertex -3.496928 43.378311 0.408520
endloop
endfacet
facet normal 0.904989 -0.330385 0.268031
outer loop
vertex -0.514081 47.412655 8.755887
vertex 0.756323 46.627491 3.498634
vertex 1.760423 51.884850 6.588760
endloop
endfacet
facet normal 0.024747 -0.330386 0.943521
outer loop
vertex -10.514034 47.412651 12.005126
vertex -5.121466 46.627472 11.588748
vertex -7.750154 51.884850 13.498632
endloop
endfacet
facet normal -0.889697 -0.330384 0.315096
outer loop
vertex -16.694414 47.412693 3.498634
vertex -14.632046 46.627487 8.498602
vertex -17.260731 51.884850 6.588760
endloop
endfacet
facet normal -0.574602 -0.330388 -0.748783
outer loop
vertex -10.514034 47.412651 -5.007859
vertex -14.632046 46.627487 -1.501335
vertex -13.628009 51.884850 -4.591533
endloop
endfacet
facet normal 0.534576 -0.330387 -0.777865
outer loop
vertex -0.514081 47.412655 -1.758620
vertex -5.121467 46.627472 -4.591481
vertex -1.872299 51.884850 -4.591533
endloop
endfacet
facet normal 0.802609 -0.125627 0.583127
outer loop
vertex -0.514081 47.412655 8.755887
vertex 1.760423 51.884850 6.588760
vertex -1.872299 51.884850 11.588799
endloop
endfacet
facet normal -0.306569 -0.125628 0.943522
outer loop
vertex -10.514034 47.412651 12.005126
vertex -7.750154 51.884850 13.498632
vertex -13.628009 51.884850 11.588799
endloop
endfacet
facet normal -0.992077 -0.125628 0.000000
outer loop
vertex -16.694414 47.412693 3.498634
vertex -17.260731 51.884850 6.588760
vertex -17.260731 51.884850 0.408507
endloop
endfacet
facet normal -0.306569 -0.125628 -0.943522
outer loop
vertex -10.514034 47.412651 -5.007859
vertex -13.628009 51.884850 -4.591533
vertex -7.750154 51.884850 -6.501366
endloop
endfacet
facet normal 0.802609 -0.125627 -0.583127
outer loop
vertex -0.514081 47.412655 -1.758620
vertex -1.872299 51.884850 -4.591533
vertex 1.760423 51.884850 0.408507
endloop
endfacet
facet normal 0.408946 0.661698 0.628425
outer loop
vertex -4.986274 56.357048 12.005126
vertex -0.868262 57.142212 8.498602
vertex -6.125598 60.391392 8.498586
endloop
endfacet
facet normal -0.471299 0.661699 0.583123
outer loop
vertex -14.986227 56.357044 8.755887
vertex -10.378841 57.142227 11.588748
vertex -12.003380 60.391388 6.588747
endloop
endfacet
facet normal -0.700224 0.661699 -0.268032
outer loop
vertex -14.986227 56.357044 -1.758620
vertex -16.256632 57.142208 3.498634
vertex -12.003380 60.391388 0.408520
endloop
endfacet
facet normal 0.038530 0.661699 -0.748779
outer loop
vertex -4.986274 56.357048 -5.007859
vertex -10.378841 57.142227 -4.591481
vertex -6.125598 60.391392 -1.501319
endloop
endfacet
facet normal 0.724042 0.661695 -0.194736
outer loop
vertex 1.194107 56.357006 3.498634
vertex -0.868262 57.142212 -1.501335
vertex -2.492857 60.391365 3.498634
endloop
endfacet
facet normal 0.268034 0.943523 -0.194736
outer loop
vertex -2.492857 60.391365 3.498634
vertex -6.125598 60.391392 -1.501319
vertex -7.750154 61.884850 3.498634
endloop
endfacet
facet normal 0.491119 0.794657 -0.356822
outer loop
vertex -2.492857 60.391365 3.498634
vertex -0.868262 57.142212 -1.501335
vertex -6.125598 60.391392 -1.501319
endloop
endfacet
facet normal 0.408946 0.661699 -0.628425
outer loop
vertex -0.868262 57.142212 -1.501335
vertex -4.986274 56.357048 -5.007859
vertex -6.125598 60.391392 -1.501319
endloop
endfacet
facet normal -0.102381 0.943523 -0.315090
outer loop
vertex -6.125598 60.391392 -1.501319
vertex -12.003380 60.391388 0.408520
vertex -7.750154 61.884850 3.498634
endloop
endfacet
facet normal -0.187594 0.794658 -0.577345
outer loop
vertex -6.125598 60.391392 -1.501319
vertex -10.378841 57.142227 -4.591481
vertex -12.003380 60.391388 0.408520
endloop
endfacet
facet normal -0.471299 0.661698 -0.583123
outer loop
vertex -10.378841 57.142227 -4.591481
vertex -14.986227 56.357044 -1.758620
vertex -12.003380 60.391388 0.408520
endloop
endfacet
facet normal -0.331305 0.943524 0.000000
outer loop
vertex -12.003380 60.391388 0.408520
vertex -12.003380 60.391388 6.588747
vertex -7.750154 61.884850 3.498634
endloop
endfacet
facet normal -0.607060 0.794656 0.000000
outer loop
vertex -12.003380 60.391388 0.408520
vertex -16.256632 57.142208 3.498634
vertex -12.003380 60.391388 6.588747
endloop
endfacet
facet normal -0.700223 0.661699 0.268032
outer loop
vertex -16.256632 57.142208 3.498634
vertex -14.986227 56.357044 8.755887
vertex -12.003380 60.391388 6.588747
endloop
endfacet
facet normal -0.102381 0.943523 0.315090
outer loop
vertex -12.003380 60.391388 6.588747
vertex -6.125598 60.391392 8.498586
vertex -7.750154 61.884850 3.498634
endloop
endfacet
facet normal -0.187594 0.794658 0.577345
outer loop
vertex -12.003380 60.391388 6.588747
vertex -10.378841 57.142227 11.588748
vertex -6.125598 60.391392 8.498586
endloop
endfacet
facet normal 0.038530 0.661699 0.748779
outer loop
vertex -10.378841 57.142227 11.588748
vertex -4.986274 56.357048 12.005126
vertex -6.125598 60.391392 8.498586
endloop
endfacet
facet normal 0.268035 0.943523 0.194736
outer loop
vertex -6.125598 60.391392 8.498586
vertex -2.492857 60.391365 3.498634
vertex -7.750154 61.884850 3.498634
endloop
endfacet
facet normal 0.491119 0.794657 0.356822
outer loop
vertex -6.125598 60.391392 8.498586
vertex -0.868262 57.142212 8.498602
vertex -2.492857 60.391365 3.498634
endloop
endfacet
facet normal 0.724042 0.661695 0.194737
outer loop
vertex -0.868262 57.142212 8.498602
vertex 1.194107 56.357006 3.498634
vertex -2.492857 60.391365 3.498634
endloop
endfacet
facet normal 0.889697 0.330385 -0.315095
outer loop
vertex 1.760423 51.884850 0.408507
vertex -0.868262 57.142212 -1.501335
vertex 1.194107 56.357006 3.498634
endloop
endfacet
facet normal 0.794656 0.187595 -0.577348
outer loop
vertex 1.760423 51.884850 0.408507
vertex -1.872299 51.884850 -4.591533
vertex -0.868262 57.142212 -1.501335
endloop
endfacet
facet normal 0.574603 0.330388 -0.748783
outer loop
vertex -1.872299 51.884850 -4.591533
vertex -4.986274 56.357048 -5.007859
vertex -0.868262 57.142212 -1.501335
endloop
endfacet
facet normal -0.024747 0.330387 -0.943521
outer loop
vertex -7.750154 51.884850 -6.501366
vertex -10.378841 57.142227 -4.591481
vertex -4.986274 56.357048 -5.007859
endloop
endfacet
facet normal -0.303531 0.187598 -0.934171
outer loop
vertex -7.750154 51.884850 -6.501366
vertex -13.628009 51.884850 -4.591533
vertex -10.378841 57.142227 -4.591481
endloop
endfacet
facet normal -0.534576 0.330387 -0.777864
outer loop
vertex -13.628009 51.884850 -4.591533
vertex -14.986227 56.357044 -1.758620
vertex -10.378841 57.142227 -4.591481
endloop
endfacet
facet normal -0.904989 0.330385 -0.268031
outer loop
vertex -17.260731 51.884850 0.408507
vertex -16.256632 57.142208 3.498634
vertex -14.986227 56.357044 -1.758620
endloop
endfacet
facet normal -0.982246 0.187598 0.000000
outer loop
vertex -17.260731 51.884850 0.408507
vertex -17.260731 51.884850 6.588760
vertex -16.256632 57.142208 3.498634
endloop
endfacet
facet normal -0.904989 0.330384 0.268031
outer loop
vertex -17.260731 51.884850 6.588760
vertex -14.986227 56.357044 8.755887
vertex -16.256632 57.142208 3.498634
endloop
endfacet
facet normal -0.534576 0.330387 0.777864
outer loop
vertex -13.628009 51.884850 11.588799
vertex -10.378841 57.142227 11.588748
vertex -14.986227 56.357044 8.755887
endloop
endfacet
facet normal -0.303531 0.187598 0.934171
outer loop
vertex -13.628009 51.884850 11.588799
vertex -7.750154 51.884850 13.498632
vertex -10.378841 57.142227 11.588748
endloop
endfacet
facet normal -0.024747 0.330387 0.943521
outer loop
vertex -7.750154 51.884850 13.498632
vertex -4.986274 56.357048 12.005126
vertex -10.378841 57.142227 11.588748
endloop
endfacet
facet normal 0.574603 0.330388 0.748783
outer loop
vertex -1.872299 51.884850 11.588799
vertex -0.868262 57.142212 8.498602
vertex -4.986274 56.357048 12.005126
endloop
endfacet
facet normal 0.794655 0.187595 0.577348
outer loop
vertex -1.872299 51.884850 11.588799
vertex 1.760423 51.884850 6.588760
vertex -0.868262 57.142212 8.498602
endloop
endfacet
facet normal 0.889697 0.330385 0.315095
outer loop
vertex 1.760423 51.884850 6.588760
vertex 1.194107 56.357006 3.498634
vertex -0.868262 57.142212 8.498602
endloop
endfacet
facet normal 0.306569 0.125628 -0.943522
outer loop
vertex -1.872299 51.884850 -4.591533
vertex -7.750154 51.884850 -6.501366
vertex -4.986274 56.357048 -5.007859
endloop
endfacet
facet normal 0.303531 -0.187597 -0.934171
outer loop
vertex -1.872299 51.884850 -4.591533
vertex -5.121467 46.627472 -4.591481
vertex -7.750154 51.884850 -6.501366
endloop
endfacet
facet normal 0.024747 -0.330386 -0.943521
outer loop
vertex -5.121467 46.627472 -4.591481
vertex -10.514034 47.412651 -5.007859
vertex -7.750154 51.884850 -6.501366
endloop
endfacet
facet normal -0.802609 0.125627 -0.583127
outer loop
vertex -13.628009 51.884850 -4.591533
vertex -17.260731 51.884850 0.408507
vertex -14.986227 56.357044 -1.758620
endloop
endfacet
facet normal -0.794656 -0.187595 -0.577348
outer loop
vertex -13.628009 51.884850 -4.591533
vertex -14.632046 46.627487 -1.501335
vertex -17.260731 51.884850 0.408507
endloop
endfacet
facet normal -0.889697 -0.330385 -0.315096
outer loop
vertex -14.632046 46.627487 -1.501335
vertex -16.694414 47.412693 3.498634
vertex -17.260731 51.884850 0.408507
endloop
endfacet
facet normal -0.802609 0.125627 0.583127
outer loop
vertex -17.260731 51.884850 6.588760
vertex -13.628009 51.884850 11.588799
vertex -14.986227 56.357044 8.755887
endloop
endfacet
facet normal -0.794656 -0.187595 0.577348
outer loop
vertex -17.260731 51.884850 6.588760
vertex -14.632046 46.627487 8.498602
vertex -13.628009 51.884850 11.588799
endloop
endfacet
facet normal -0.574602 -0.330387 0.748784
outer loop
vertex -14.632046 46.627487 8.498602
vertex -10.514034 47.412651 12.005126
vertex -13.628009 51.884850 11.588799
endloop
endfacet
facet normal 0.306569 0.125628 0.943522
outer loop
vertex -7.750154 51.884850 13.498632
vertex -1.872299 51.884850 11.588799
vertex -4.986274 56.357048 12.005126
endloop
endfacet
facet normal 0.303531 -0.187597 0.934171
outer loop
vertex -7.750154 51.884850 13.498632
vertex -5.121466 46.627472 11.588748
vertex -1.872299 51.884850 11.588799
endloop
endfacet
facet normal 0.534576 -0.330387 0.777864
outer loop
vertex -5.121466 46.627472 11.588748
vertex -0.514081 47.412655 8.755887
vertex -1.872299 51.884850 11.588799
endloop
endfacet
facet normal 0.992077 0.125628 0.000000
outer loop
vertex 1.760423 51.884850 6.588760
vertex 1.760423 51.884850 0.408507
vertex 1.194107 56.357006 3.498634
endloop
endfacet
facet normal 0.982246 -0.187599 0.000000
outer loop
vertex 1.760423 51.884850 6.588760
vertex 0.756323 46.627491 3.498634
vertex 1.760423 51.884850 0.408507
endloop
endfacet
facet normal 0.904989 -0.330385 -0.268031
outer loop
vertex 0.756323 46.627491 3.498634
vertex -0.514081 47.412655 -1.758620
vertex 1.760423 51.884850 0.408507
endloop
endfacet
facet normal 0.471299 -0.661699 -0.583122
outer loop
vertex -3.496928 43.378311 0.408520
vertex -5.121467 46.627472 -4.591481
vertex -0.514081 47.412655 -1.758620
endloop
endfacet
facet normal 0.187595 -0.794658 -0.577345
outer loop
vertex -3.496928 43.378311 0.408520
vertex -9.374709 43.378307 -1.501319
vertex -5.121467 46.627472 -4.591481
endloop
endfacet
facet normal -0.038530 -0.661699 -0.748779
outer loop
vertex -9.374709 43.378307 -1.501319
vertex -10.514034 47.412651 -5.007859
vertex -5.121467 46.627472 -4.591481
endloop
endfacet
facet normal -0.408947 -0.661699 -0.628424
outer loop
vertex -9.374709 43.378307 -1.501319
vertex -14.632046 46.627487 -1.501335
vertex -10.514034 47.412651 -5.007859
endloop
endfacet
facet normal -0.491119 -0.794657 -0.356821
outer loop
vertex -9.374709 43.378307 -1.501319
vertex -13.007451 43.378334 3.498634
vertex -14.632046 46.627487 -1.501335
endloop
endfacet
facet normal -0.724042 -0.661696 -0.194736
outer loop
vertex -13.007451 43.378334 3.498634
vertex -16.694414 47.412693 3.498634
vertex -14.632046 46.627487 -1.501335
endloop
endfacet
facet normal -0.724042 -0.661696 0.194736
outer loop
vertex -13.007451 43.378334 3.498634
vertex -14.632046 46.627487 8.498602
vertex -16.694414 47.412693 3.498634
endloop
endfacet
facet normal -0.491119 -0.794657 0.356822
outer loop
vertex -13.007451 43.378334 3.498634
vertex -9.374709 43.378307 8.498586
vertex -14.632046 46.627487 8.498602
endloop
endfacet
facet normal -0.408946 -0.661699 0.628424
outer loop
vertex -9.374709 43.378307 8.498586
vertex -10.514034 47.412651 12.005126
vertex -14.632046 46.627487 8.498602
endloop
endfacet
facet normal 0.700224 -0.661699 -0.268032
outer loop
vertex 0.756323 46.627491 3.498634
vertex -3.496928 43.378311 0.408520
vertex -0.514081 47.412655 -1.758620
endloop
endfacet
facet normal 0.607060 -0.794656 0.000000
outer loop
vertex 0.756323 46.627491 3.498634
vertex -3.496928 43.378311 6.588747
vertex -3.496928 43.378311 0.408520
endloop
endfacet
facet normal 0.331305 -0.943524 0.000000
outer loop
vertex -3.496928 43.378311 6.588747
vertex -7.750154 41.884850 3.498634
vertex -3.496928 43.378311 0.408520
endloop
endfacet
facet normal -0.038530 -0.661700 0.748778
outer loop
vertex -9.374709 43.378307 8.498586
vertex -5.121466 46.627472 11.588748
vertex -10.514034 47.412651 12.005126
endloop
endfacet
facet normal 0.187594 -0.794658 0.577345
outer loop
vertex -9.374709 43.378307 8.498586
vertex -3.496928 43.378311 6.588747
vertex -5.121466 46.627472 11.588748
endloop
endfacet
facet normal 0.471299 -0.661699 0.583123
outer loop
vertex -3.496928 43.378311 6.588747
vertex -0.514081 47.412655 8.755887
vertex -5.121466 46.627472 11.588748
endloop
endfacet
endsolid Exported from Blender-2.74 (sub 0)
