solid Exported from Blender-2.74 (sub 0)
facet normal 0.102381 -0.943523 0.315090
outer loop
vertex -3.179498 31.572319 -13.341870
vertex 1.073729 33.065781 -10.251757
vertex -4.804053 33.065777 -8.341918
endloop
endfacet
facet normal 0.700224 -0.661699 0.268033
outer loop
vertex 4.056575 37.100124 -8.084618
vertex 1.073729 33.065781 -10.251757
vertex 5.326980 36.314960 -13.341870
endloop
endfacet
facet normal -0.268034 -0.943523 0.194736
outer loop
vertex -3.179498 31.572319 -13.341870
vertex -4.804053 33.065777 -8.341918
vertex -8.436794 33.065804 -13.341870
endloop
endfacet
facet normal -0.268034 -0.943523 -0.194736
outer loop
vertex -3.179498 31.572319 -13.341870
vertex -8.436794 33.065804 -13.341870
vertex -4.804053 33.065777 -18.341824
endloop
endfacet
facet normal 0.102381 -0.943523 -0.315090
outer loop
vertex -3.179498 31.572319 -13.341870
vertex -4.804053 33.065777 -18.341824
vertex 1.073729 33.065781 -16.431984
endloop
endfacet
facet normal 0.904989 -0.330385 0.268031
outer loop
vertex 4.056575 37.100124 -8.084618
vertex 5.326980 36.314960 -13.341870
vertex 6.331079 41.572319 -10.251744
endloop
endfacet
facet normal 0.024747 -0.330386 0.943521
outer loop
vertex -5.943377 37.100121 -4.835378
vertex -0.550810 36.314941 -5.251756
vertex -3.179498 41.572319 -3.341871
endloop
endfacet
facet normal -0.889697 -0.330385 0.315095
outer loop
vertex -12.123758 37.100163 -13.341870
vertex -10.061390 36.314957 -8.341902
vertex -12.690075 41.572319 -10.251744
endloop
endfacet
facet normal -0.574602 -0.330387 -0.748784
outer loop
vertex -5.943377 37.100121 -21.848362
vertex -10.061390 36.314957 -18.341839
vertex -9.057352 41.572319 -21.432037
endloop
endfacet
facet normal 0.534576 -0.330387 -0.777864
outer loop
vertex 4.056575 37.100124 -18.599123
vertex -0.550810 36.314941 -21.431984
vertex 2.698357 41.572319 -21.432037
endloop
endfacet
facet normal 0.802609 -0.125627 0.583127
outer loop
vertex 4.056575 37.100124 -8.084618
vertex 6.331079 41.572319 -10.251744
vertex 2.698357 41.572319 -5.251704
endloop
endfacet
facet normal -0.306569 -0.125628 0.943522
outer loop
vertex -5.943377 37.100121 -4.835378
vertex -3.179498 41.572319 -3.341871
vertex -9.057352 41.572319 -5.251704
endloop
endfacet
facet normal -0.992077 -0.125628 0.000000
outer loop
vertex -12.123758 37.100163 -13.341870
vertex -12.690075 41.572319 -10.251744
vertex -12.690075 41.572319 -16.431997
endloop
endfacet
facet normal -0.306569 -0.125629 -0.943521
outer loop
vertex -5.943377 37.100121 -21.848362
vertex -9.057352 41.572319 -21.432037
vertex -3.179498 41.572319 -23.341869
endloop
endfacet
facet normal 0.802609 -0.125627 -0.583127
outer loop
vertex 4.056575 37.100124 -18.599123
vertex 2.698357 41.572319 -21.432037
vertex 6.331079 41.572319 -16.431997
endloop
endfacet
facet normal 0.408947 0.661700 0.628424
outer loop
vertex -0.415618 46.044518 -4.835378
vertex 3.702394 46.829681 -8.341902
vertex -1.554942 50.078861 -8.341918
endloop
endfacet
facet normal -0.471299 0.661699 0.583122
outer loop
vertex -10.415571 46.044514 -8.084618
vertex -5.808186 46.829697 -5.251756
vertex -7.432724 50.078857 -10.251757
endloop
endfacet
facet normal -0.700223 0.661699 -0.268033
outer loop
vertex -10.415571 46.044514 -18.599123
vertex -11.685975 46.829678 -13.341870
vertex -7.432724 50.078857 -16.431984
endloop
endfacet
facet normal 0.038530 0.661699 -0.748779
outer loop
vertex -0.415618 46.044518 -21.848362
vertex -5.808186 46.829697 -21.431984
vertex -1.554942 50.078861 -18.341824
endloop
endfacet
facet normal 0.724042 0.661695 -0.194736
outer loop
vertex 5.764763 46.044476 -13.341870
vertex 3.702394 46.829681 -18.341839
vertex 2.077799 50.078835 -13.341870
endloop
endfacet
facet normal 0.268034 0.943523 -0.194736
outer loop
vertex 2.077799 50.078835 -13.341870
vertex -1.554942 50.078861 -18.341824
vertex -3.179498 51.572319 -13.341870
endloop
endfacet
facet normal 0.491119 0.794657 -0.356822
outer loop
vertex 2.077799 50.078835 -13.341870
vertex 3.702394 46.829681 -18.341839
vertex -1.554942 50.078861 -18.341824
endloop
endfacet
facet normal 0.408947 0.661699 -0.628424
outer loop
vertex 3.702394 46.829681 -18.341839
vertex -0.415618 46.044518 -21.848362
vertex -1.554942 50.078861 -18.341824
endloop
endfacet
facet normal -0.102381 0.943523 -0.315091
outer loop
vertex -1.554942 50.078861 -18.341824
vertex -7.432724 50.078857 -16.431984
vertex -3.179498 51.572319 -13.341870
endloop
endfacet
facet normal -0.187594 0.794658 -0.577345
outer loop
vertex -1.554942 50.078861 -18.341824
vertex -5.808186 46.829697 -21.431984
vertex -7.432724 50.078857 -16.431984
endloop
endfacet
facet normal -0.471300 0.661699 -0.583122
outer loop
vertex -5.808186 46.829697 -21.431984
vertex -10.415571 46.044514 -18.599123
vertex -7.432724 50.078857 -16.431984
endloop
endfacet
facet normal -0.331305 0.943524 0.000000
outer loop
vertex -7.432724 50.078857 -16.431984
vertex -7.432724 50.078857 -10.251757
vertex -3.179498 51.572319 -13.341870
endloop
endfacet
facet normal -0.607060 0.794656 0.000000
outer loop
vertex -7.432724 50.078857 -16.431984
vertex -11.685975 46.829678 -13.341870
vertex -7.432724 50.078857 -10.251757
endloop
endfacet
facet normal -0.700223 0.661699 0.268033
outer loop
vertex -11.685975 46.829678 -13.341870
vertex -10.415571 46.044514 -8.084618
vertex -7.432724 50.078857 -10.251757
endloop
endfacet
facet normal -0.102381 0.943523 0.315091
outer loop
vertex -7.432724 50.078857 -10.251757
vertex -1.554942 50.078861 -8.341918
vertex -3.179498 51.572319 -13.341870
endloop
endfacet
facet normal -0.187594 0.794658 0.577345
outer loop
vertex -7.432724 50.078857 -10.251757
vertex -5.808186 46.829697 -5.251756
vertex -1.554942 50.078861 -8.341918
endloop
endfacet
facet normal 0.038530 0.661699 0.748779
outer loop
vertex -5.808186 46.829697 -5.251756
vertex -0.415618 46.044518 -4.835378
vertex -1.554942 50.078861 -8.341918
endloop
endfacet
facet normal 0.268034 0.943523 0.194736
outer loop
vertex -1.554942 50.078861 -8.341918
vertex 2.077799 50.078835 -13.341870
vertex -3.179498 51.572319 -13.341870
endloop
endfacet
facet normal 0.491119 0.794657 0.356822
outer loop
vertex -1.554942 50.078861 -8.341918
vertex 3.702394 46.829681 -8.341902
vertex 2.077799 50.078835 -13.341870
endloop
endfacet
facet normal 0.724042 0.661695 0.194736
outer loop
vertex 3.702394 46.829681 -8.341902
vertex 5.764763 46.044476 -13.341870
vertex 2.077799 50.078835 -13.341870
endloop
endfacet
facet normal 0.889697 0.330385 -0.315095
outer loop
vertex 6.331079 41.572319 -16.431997
vertex 3.702394 46.829681 -18.341839
vertex 5.764763 46.044476 -13.341870
endloop
endfacet
facet normal 0.794656 0.187595 -0.577348
outer loop
vertex 6.331079 41.572319 -16.431997
vertex 2.698357 41.572319 -21.432037
vertex 3.702394 46.829681 -18.341839
endloop
endfacet
facet normal 0.574601 0.330387 -0.748784
outer loop
vertex 2.698357 41.572319 -21.432037
vertex -0.415618 46.044518 -21.848362
vertex 3.702394 46.829681 -18.341839
endloop
endfacet
facet normal -0.024747 0.330387 -0.943521
outer loop
vertex -3.179498 41.572319 -23.341869
vertex -5.808186 46.829697 -21.431984
vertex -0.415618 46.044518 -21.848362
endloop
endfacet
facet normal -0.303531 0.187598 -0.934171
outer loop
vertex -3.179498 41.572319 -23.341869
vertex -9.057352 41.572319 -21.432037
vertex -5.808186 46.829697 -21.431984
endloop
endfacet
facet normal -0.534576 0.330387 -0.777864
outer loop
vertex -9.057352 41.572319 -21.432037
vertex -10.415571 46.044514 -18.599123
vertex -5.808186 46.829697 -21.431984
endloop
endfacet
facet normal -0.904989 0.330384 -0.268031
outer loop
vertex -12.690075 41.572319 -16.431997
vertex -11.685975 46.829678 -13.341870
vertex -10.415571 46.044514 -18.599123
endloop
endfacet
facet normal -0.982246 0.187598 0.000000
outer loop
vertex -12.690075 41.572319 -16.431997
vertex -12.690075 41.572319 -10.251744
vertex -11.685975 46.829678 -13.341870
endloop
endfacet
facet normal -0.904989 0.330384 0.268031
outer loop
vertex -12.690075 41.572319 -10.251744
vertex -10.415571 46.044514 -8.084618
vertex -11.685975 46.829678 -13.341870
endloop
endfacet
facet normal -0.534576 0.330387 0.777864
outer loop
vertex -9.057352 41.572319 -5.251704
vertex -5.808186 46.829697 -5.251756
vertex -10.415571 46.044514 -8.084618
endloop
endfacet
facet normal -0.303531 0.187597 0.934171
outer loop
vertex -9.057352 41.572319 -5.251704
vertex -3.179498 41.572319 -3.341871
vertex -5.808186 46.829697 -5.251756
endloop
endfacet
facet normal -0.024747 0.330387 0.943521
outer loop
vertex -3.179498 41.572319 -3.341871
vertex -0.415618 46.044518 -4.835378
vertex -5.808186 46.829697 -5.251756
endloop
endfacet
facet normal 0.574602 0.330387 0.748784
outer loop
vertex 2.698357 41.572319 -5.251704
vertex 3.702394 46.829681 -8.341902
vertex -0.415618 46.044518 -4.835378
endloop
endfacet
facet normal 0.794656 0.187595 0.577348
outer loop
vertex 2.698357 41.572319 -5.251704
vertex 6.331079 41.572319 -10.251744
vertex 3.702394 46.829681 -8.341902
endloop
endfacet
facet normal 0.889697 0.330385 0.315095
outer loop
vertex 6.331079 41.572319 -10.251744
vertex 5.764763 46.044476 -13.341870
vertex 3.702394 46.829681 -8.341902
endloop
endfacet
facet normal 0.306569 0.125629 -0.943521
outer loop
vertex 2.698357 41.572319 -21.432037
vertex -3.179498 41.572319 -23.341869
vertex -0.415618 46.044518 -21.848362
endloop
endfacet
facet normal 0.303531 -0.187598 -0.934171
outer loop
vertex 2.698357 41.572319 -21.432037
vertex -0.550810 36.314941 -21.431984
vertex -3.179498 41.572319 -23.341869
endloop
endfacet
facet normal 0.024747 -0.330387 -0.943521
outer loop
vertex -0.550810 36.314941 -21.431984
vertex -5.943377 37.100121 -21.848362
vertex -3.179498 41.572319 -23.341869
endloop
endfacet
facet normal -0.802608 0.125627 -0.583127
outer loop
vertex -9.057352 41.572319 -21.432037
vertex -12.690075 41.572319 -16.431997
vertex -10.415571 46.044514 -18.599123
endloop
endfacet
facet normal -0.794656 -0.187595 -0.577347
outer loop
vertex -9.057352 41.572319 -21.432037
vertex -10.061390 36.314957 -18.341839
vertex -12.690075 41.572319 -16.431997
endloop
endfacet
facet normal -0.889697 -0.330385 -0.315095
outer loop
vertex -10.061390 36.314957 -18.341839
vertex -12.123758 37.100163 -13.341870
vertex -12.690075 41.572319 -16.431997
endloop
endfacet
facet normal -0.802608 0.125627 0.583127
outer loop
vertex -12.690075 41.572319 -10.251744
vertex -9.057352 41.572319 -5.251704
vertex -10.415571 46.044514 -8.084618
endloop
endfacet
facet normal -0.794656 -0.187595 0.577348
outer loop
vertex -12.690075 41.572319 -10.251744
vertex -10.061390 36.314957 -8.341902
vertex -9.057352 41.572319 -5.251704
endloop
endfacet
facet normal -0.574602 -0.330387 0.748784
outer loop
vertex -10.061390 36.314957 -8.341902
vertex -5.943377 37.100121 -4.835378
vertex -9.057352 41.572319 -5.251704
endloop
endfacet
facet normal 0.306569 0.125628 0.943522
outer loop
vertex -3.179498 41.572319 -3.341871
vertex 2.698357 41.572319 -5.251704
vertex -0.415618 46.044518 -4.835378
endloop
endfacet
facet normal 0.303531 -0.187598 0.934171
outer loop
vertex -3.179498 41.572319 -3.341871
vertex -0.550810 36.314941 -5.251756
vertex 2.698357 41.572319 -5.251704
endloop
endfacet
facet normal 0.534576 -0.330387 0.777864
outer loop
vertex -0.550810 36.314941 -5.251756
vertex 4.056575 37.100124 -8.084618
vertex 2.698357 41.572319 -5.251704
endloop
endfacet
facet normal 0.992077 0.125628 0.000000
outer loop
vertex 6.331079 41.572319 -10.251744
vertex 6.331079 41.572319 -16.431997
vertex 5.764763 46.044476 -13.341870
endloop
endfacet
facet normal 0.982246 -0.187599 0.000000
outer loop
vertex 6.331079 41.572319 -10.251744
vertex 5.326980 36.314960 -13.341870
vertex 6.331079 41.572319 -16.431997
endloop
endfacet
facet normal 0.904989 -0.330385 -0.268031
outer loop
vertex 5.326980 36.314960 -13.341870
vertex 4.056575 37.100124 -18.599123
vertex 6.331079 41.572319 -16.431997
endloop
endfacet
facet normal 0.471300 -0.661699 -0.583122
outer loop
vertex 1.073729 33.065781 -16.431984
vertex -0.550810 36.314941 -21.431984
vertex 4.056575 37.100124 -18.599123
endloop
endfacet
facet normal 0.187595 -0.794657 -0.577346
outer loop
vertex 1.073729 33.065781 -16.431984
vertex -4.804053 33.065777 -18.341824
vertex -0.550810 36.314941 -21.431984
endloop
endfacet
facet normal -0.038530 -0.661699 -0.748779
outer loop
vertex -4.804053 33.065777 -18.341824
vertex -5.943377 37.100121 -21.848362
vertex -0.550810 36.314941 -21.431984
endloop
endfacet
facet normal -0.408947 -0.661700 -0.628424
outer loop
vertex -4.804053 33.065777 -18.341824
vertex -10.061390 36.314957 -18.341839
vertex -5.943377 37.100121 -21.848362
endloop
endfacet
facet normal -0.491119 -0.794657 -0.356822
outer loop
vertex -4.804053 33.065777 -18.341824
vertex -8.436794 33.065804 -13.341870
vertex -10.061390 36.314957 -18.341839
endloop
endfacet
facet normal -0.724042 -0.661696 -0.194736
outer loop
vertex -8.436794 33.065804 -13.341870
vertex -12.123758 37.100163 -13.341870
vertex -10.061390 36.314957 -18.341839
endloop
endfacet
facet normal -0.724042 -0.661696 0.194736
outer loop
vertex -8.436794 33.065804 -13.341870
vertex -10.061390 36.314957 -8.341902
vertex -12.123758 37.100163 -13.341870
endloop
endfacet
facet normal -0.491119 -0.794657 0.356822
outer loop
vertex -8.436794 33.065804 -13.341870
vertex -4.804053 33.065777 -8.341918
vertex -10.061390 36.314957 -8.341902
endloop
endfacet
facet normal -0.408947 -0.661700 0.628423
outer loop
vertex -4.804053 33.065777 -8.341918
vertex -5.943377 37.100121 -4.835378
vertex -10.061390 36.314957 -8.341902
endloop
endfacet
facet normal 0.700223 -0.661699 -0.268033
outer loop
vertex 5.326980 36.314960 -13.341870
vertex 1.073729 33.065781 -16.431984
vertex 4.056575 37.100124 -18.599123
endloop
endfacet
facet normal 0.607060 -0.794656 0.000000
outer loop
vertex 5.326980 36.314960 -13.341870
vertex 1.073729 33.065781 -10.251757
vertex 1.073729 33.065781 -16.431984
endloop
endfacet
facet normal 0.331305 -0.943524 0.000000
outer loop
vertex 1.073729 33.065781 -10.251757
vertex -3.179498 31.572319 -13.341870
vertex 1.073729 33.065781 -16.431984
endloop
endfacet
facet normal -0.038530 -0.661699 0.748779
outer loop
vertex -4.804053 33.065777 -8.341918
vertex -0.550810 36.314941 -5.251756
vertex -5.943377 37.100121 -4.835378
endloop
endfacet
facet normal 0.187594 -0.794658 0.577345
outer loop
vertex -4.804053 33.065777 -8.341918
vertex 1.073729 33.065781 -10.251757
vertex -0.550810 36.314941 -5.251756
endloop
endfacet
facet normal 0.471299 -0.661699 0.583122
outer loop
vertex 1.073729 33.065781 -10.251757
vertex 4.056575 37.100124 -8.084618
vertex -0.550810 36.314941 -5.251756
endloop
endfacet
endsolid Exported from Blender-2.74 (sub 0)
