solid Exported from Blender-2.74 (sub 0)
facet normal 0.102381 -0.943523 0.315091
outer loop
vertex 17.649195 40.511993 -0.260771
vertex 21.902420 42.005455 2.829342
vertex 16.024639 42.005451 4.739181
endloop
endfacet
facet normal 0.700223 -0.661699 0.268033
outer loop
vertex 24.885267 46.039799 4.996482
vertex 21.902420 42.005455 2.829342
vertex 26.155672 45.254635 -0.260771
endloop
endfacet
facet normal -0.268034 -0.943523 0.194735
outer loop
vertex 17.649195 40.511993 -0.260771
vertex 16.024639 42.005451 4.739181
vertex 12.391897 42.005478 -0.260771
endloop
endfacet
facet normal -0.268034 -0.943523 -0.194735
outer loop
vertex 17.649195 40.511993 -0.260771
vertex 12.391897 42.005478 -0.260771
vertex 16.024639 42.005451 -5.260724
endloop
endfacet
facet normal 0.102381 -0.943523 -0.315092
outer loop
vertex 17.649195 40.511993 -0.260771
vertex 16.024639 42.005451 -5.260724
vertex 21.902420 42.005455 -3.350885
endloop
endfacet
facet normal 0.904989 -0.330385 0.268031
outer loop
vertex 24.885267 46.039799 4.996482
vertex 26.155672 45.254635 -0.260771
vertex 27.159771 50.511993 2.829355
endloop
endfacet
facet normal 0.024747 -0.330386 0.943521
outer loop
vertex 14.885315 46.039795 8.245721
vertex 20.277882 45.254616 7.829343
vertex 17.649195 50.511993 9.739227
endloop
endfacet
facet normal -0.889697 -0.330385 0.315095
outer loop
vertex 8.704934 46.039837 -0.260771
vertex 10.767303 45.254631 4.739197
vertex 8.138618 50.511993 2.829355
endloop
endfacet
facet normal -0.574602 -0.330387 -0.748783
outer loop
vertex 14.885315 46.039795 -8.767264
vertex 10.767303 45.254631 -5.260740
vertex 11.771339 50.511993 -8.350938
endloop
endfacet
facet normal 0.534576 -0.330387 -0.777864
outer loop
vertex 24.885267 46.039799 -5.518024
vertex 20.277882 45.254616 -8.350886
vertex 23.527050 50.511993 -8.350938
endloop
endfacet
facet normal 0.802609 -0.125628 0.583126
outer loop
vertex 24.885267 46.039799 4.996482
vertex 27.159771 50.511993 2.829355
vertex 23.527050 50.511993 7.829395
endloop
endfacet
facet normal -0.306569 -0.125628 0.943522
outer loop
vertex 14.885315 46.039795 8.245721
vertex 17.649195 50.511993 9.739227
vertex 11.771339 50.511993 7.829395
endloop
endfacet
facet normal -0.992077 -0.125629 0.000000
outer loop
vertex 8.704934 46.039837 -0.260771
vertex 8.138618 50.511993 2.829355
vertex 8.138618 50.511993 -3.350898
endloop
endfacet
facet normal -0.306569 -0.125628 -0.943522
outer loop
vertex 14.885315 46.039795 -8.767264
vertex 11.771339 50.511993 -8.350938
vertex 17.649195 50.511993 -10.260771
endloop
endfacet
facet normal 0.802610 -0.125627 -0.583126
outer loop
vertex 24.885267 46.039799 -5.518024
vertex 23.527050 50.511993 -8.350938
vertex 27.159771 50.511993 -3.350898
endloop
endfacet
facet normal 0.408946 0.661699 0.628424
outer loop
vertex 20.413074 54.984192 8.245721
vertex 24.531086 55.769356 4.739197
vertex 19.273750 59.018536 4.739181
endloop
endfacet
facet normal -0.471299 0.661699 0.583122
outer loop
vertex 10.413122 54.984188 4.996482
vertex 15.020507 55.769371 7.829343
vertex 13.395968 59.018532 2.829342
endloop
endfacet
facet normal -0.700224 0.661699 -0.268033
outer loop
vertex 10.413122 54.984188 -5.518024
vertex 9.142717 55.769352 -0.260771
vertex 13.395968 59.018532 -3.350885
endloop
endfacet
facet normal 0.038530 0.661700 -0.748778
outer loop
vertex 20.413074 54.984192 -8.767264
vertex 15.020507 55.769371 -8.350886
vertex 19.273750 59.018536 -5.260724
endloop
endfacet
facet normal 0.724042 0.661696 -0.194736
outer loop
vertex 26.593456 54.984150 -0.260771
vertex 24.531086 55.769356 -5.260740
vertex 22.906492 59.018509 -0.260771
endloop
endfacet
facet normal 0.268034 0.943523 -0.194736
outer loop
vertex 22.906492 59.018509 -0.260771
vertex 19.273750 59.018536 -5.260724
vertex 17.649195 60.511993 -0.260771
endloop
endfacet
facet normal 0.491120 0.794657 -0.356821
outer loop
vertex 22.906492 59.018509 -0.260771
vertex 24.531086 55.769356 -5.260740
vertex 19.273750 59.018536 -5.260724
endloop
endfacet
facet normal 0.408946 0.661699 -0.628424
outer loop
vertex 24.531086 55.769356 -5.260740
vertex 20.413074 54.984192 -8.767264
vertex 19.273750 59.018536 -5.260724
endloop
endfacet
facet normal -0.102381 0.943523 -0.315090
outer loop
vertex 19.273750 59.018536 -5.260724
vertex 13.395968 59.018532 -3.350885
vertex 17.649195 60.511993 -0.260771
endloop
endfacet
facet normal -0.187594 0.794657 -0.577346
outer loop
vertex 19.273750 59.018536 -5.260724
vertex 15.020507 55.769371 -8.350886
vertex 13.395968 59.018532 -3.350885
endloop
endfacet
facet normal -0.471299 0.661699 -0.583122
outer loop
vertex 15.020507 55.769371 -8.350886
vertex 10.413122 54.984188 -5.518024
vertex 13.395968 59.018532 -3.350885
endloop
endfacet
facet normal -0.331305 0.943524 0.000000
outer loop
vertex 13.395968 59.018532 -3.350885
vertex 13.395968 59.018532 2.829342
vertex 17.649195 60.511993 -0.260771
endloop
endfacet
facet normal -0.607060 0.794656 0.000000
outer loop
vertex 13.395968 59.018532 -3.350885
vertex 9.142717 55.769352 -0.260771
vertex 13.395968 59.018532 2.829342
endloop
endfacet
facet normal -0.700223 0.661699 0.268033
outer loop
vertex 9.142717 55.769352 -0.260771
vertex 10.413122 54.984188 4.996482
vertex 13.395968 59.018532 2.829342
endloop
endfacet
facet normal -0.102381 0.943523 0.315091
outer loop
vertex 13.395968 59.018532 2.829342
vertex 19.273750 59.018536 4.739181
vertex 17.649195 60.511993 -0.260771
endloop
endfacet
facet normal -0.187594 0.794657 0.577346
outer loop
vertex 13.395968 59.018532 2.829342
vertex 15.020507 55.769371 7.829343
vertex 19.273750 59.018536 4.739181
endloop
endfacet
facet normal 0.038530 0.661700 0.748778
outer loop
vertex 15.020507 55.769371 7.829343
vertex 20.413074 54.984192 8.245721
vertex 19.273750 59.018536 4.739181
endloop
endfacet
facet normal 0.268034 0.943523 0.194736
outer loop
vertex 19.273750 59.018536 4.739181
vertex 22.906492 59.018509 -0.260771
vertex 17.649195 60.511993 -0.260771
endloop
endfacet
facet normal 0.491120 0.794657 0.356822
outer loop
vertex 19.273750 59.018536 4.739181
vertex 24.531086 55.769356 4.739197
vertex 22.906492 59.018509 -0.260771
endloop
endfacet
facet normal 0.724042 0.661696 0.194737
outer loop
vertex 24.531086 55.769356 4.739197
vertex 26.593456 54.984150 -0.260771
vertex 22.906492 59.018509 -0.260771
endloop
endfacet
facet normal 0.889697 0.330384 -0.315095
outer loop
vertex 27.159771 50.511993 -3.350898
vertex 24.531086 55.769356 -5.260740
vertex 26.593456 54.984150 -0.260771
endloop
endfacet
facet normal 0.794655 0.187596 -0.577348
outer loop
vertex 27.159771 50.511993 -3.350898
vertex 23.527050 50.511993 -8.350938
vertex 24.531086 55.769356 -5.260740
endloop
endfacet
facet normal 0.574602 0.330387 -0.748783
outer loop
vertex 23.527050 50.511993 -8.350938
vertex 20.413074 54.984192 -8.767264
vertex 24.531086 55.769356 -5.260740
endloop
endfacet
facet normal -0.024747 0.330386 -0.943521
outer loop
vertex 17.649195 50.511993 -10.260771
vertex 15.020507 55.769371 -8.350886
vertex 20.413074 54.984192 -8.767264
endloop
endfacet
facet normal -0.303531 0.187597 -0.934171
outer loop
vertex 17.649195 50.511993 -10.260771
vertex 11.771339 50.511993 -8.350938
vertex 15.020507 55.769371 -8.350886
endloop
endfacet
facet normal -0.534576 0.330387 -0.777864
outer loop
vertex 11.771339 50.511993 -8.350938
vertex 10.413122 54.984188 -5.518024
vertex 15.020507 55.769371 -8.350886
endloop
endfacet
facet normal -0.904989 0.330385 -0.268030
outer loop
vertex 8.138618 50.511993 -3.350898
vertex 9.142717 55.769352 -0.260771
vertex 10.413122 54.984188 -5.518024
endloop
endfacet
facet normal -0.982246 0.187599 0.000000
outer loop
vertex 8.138618 50.511993 -3.350898
vertex 8.138618 50.511993 2.829355
vertex 9.142717 55.769352 -0.260771
endloop
endfacet
facet normal -0.904989 0.330384 0.268030
outer loop
vertex 8.138618 50.511993 2.829355
vertex 10.413122 54.984188 4.996482
vertex 9.142717 55.769352 -0.260771
endloop
endfacet
facet normal -0.534576 0.330387 0.777864
outer loop
vertex 11.771339 50.511993 7.829395
vertex 15.020507 55.769371 7.829343
vertex 10.413122 54.984188 4.996482
endloop
endfacet
facet normal -0.303531 0.187597 0.934171
outer loop
vertex 11.771339 50.511993 7.829395
vertex 17.649195 50.511993 9.739227
vertex 15.020507 55.769371 7.829343
endloop
endfacet
facet normal -0.024747 0.330386 0.943521
outer loop
vertex 17.649195 50.511993 9.739227
vertex 20.413074 54.984192 8.245721
vertex 15.020507 55.769371 7.829343
endloop
endfacet
facet normal 0.574602 0.330387 0.748783
outer loop
vertex 23.527050 50.511993 7.829395
vertex 24.531086 55.769356 4.739197
vertex 20.413074 54.984192 8.245721
endloop
endfacet
facet normal 0.794656 0.187595 0.577348
outer loop
vertex 23.527050 50.511993 7.829395
vertex 27.159771 50.511993 2.829355
vertex 24.531086 55.769356 4.739197
endloop
endfacet
facet normal 0.889697 0.330385 0.315095
outer loop
vertex 27.159771 50.511993 2.829355
vertex 26.593456 54.984150 -0.260771
vertex 24.531086 55.769356 4.739197
endloop
endfacet
facet normal 0.306569 0.125629 -0.943522
outer loop
vertex 23.527050 50.511993 -8.350938
vertex 17.649195 50.511993 -10.260771
vertex 20.413074 54.984192 -8.767264
endloop
endfacet
facet normal 0.303531 -0.187598 -0.934171
outer loop
vertex 23.527050 50.511993 -8.350938
vertex 20.277882 45.254616 -8.350886
vertex 17.649195 50.511993 -10.260771
endloop
endfacet
facet normal 0.024747 -0.330386 -0.943521
outer loop
vertex 20.277882 45.254616 -8.350886
vertex 14.885315 46.039795 -8.767264
vertex 17.649195 50.511993 -10.260771
endloop
endfacet
facet normal -0.802609 0.125627 -0.583127
outer loop
vertex 11.771339 50.511993 -8.350938
vertex 8.138618 50.511993 -3.350898
vertex 10.413122 54.984188 -5.518024
endloop
endfacet
facet normal -0.794656 -0.187595 -0.577348
outer loop
vertex 11.771339 50.511993 -8.350938
vertex 10.767303 45.254631 -5.260740
vertex 8.138618 50.511993 -3.350898
endloop
endfacet
facet normal -0.889697 -0.330385 -0.315095
outer loop
vertex 10.767303 45.254631 -5.260740
vertex 8.704934 46.039837 -0.260771
vertex 8.138618 50.511993 -3.350898
endloop
endfacet
facet normal -0.802608 0.125627 0.583127
outer loop
vertex 8.138618 50.511993 2.829355
vertex 11.771339 50.511993 7.829395
vertex 10.413122 54.984188 4.996482
endloop
endfacet
facet normal -0.794656 -0.187595 0.577347
outer loop
vertex 8.138618 50.511993 2.829355
vertex 10.767303 45.254631 4.739197
vertex 11.771339 50.511993 7.829395
endloop
endfacet
facet normal -0.574602 -0.330388 0.748784
outer loop
vertex 10.767303 45.254631 4.739197
vertex 14.885315 46.039795 8.245721
vertex 11.771339 50.511993 7.829395
endloop
endfacet
facet normal 0.306569 0.125629 0.943522
outer loop
vertex 17.649195 50.511993 9.739227
vertex 23.527050 50.511993 7.829395
vertex 20.413074 54.984192 8.245721
endloop
endfacet
facet normal 0.303531 -0.187597 0.934171
outer loop
vertex 17.649195 50.511993 9.739227
vertex 20.277882 45.254616 7.829343
vertex 23.527050 50.511993 7.829395
endloop
endfacet
facet normal 0.534576 -0.330387 0.777864
outer loop
vertex 20.277882 45.254616 7.829343
vertex 24.885267 46.039799 4.996482
vertex 23.527050 50.511993 7.829395
endloop
endfacet
facet normal 0.992077 0.125628 0.000000
outer loop
vertex 27.159771 50.511993 2.829355
vertex 27.159771 50.511993 -3.350898
vertex 26.593456 54.984150 -0.260771
endloop
endfacet
facet normal 0.982246 -0.187598 0.000000
outer loop
vertex 27.159771 50.511993 2.829355
vertex 26.155672 45.254635 -0.260771
vertex 27.159771 50.511993 -3.350898
endloop
endfacet
facet normal 0.904989 -0.330384 -0.268031
outer loop
vertex 26.155672 45.254635 -0.260771
vertex 24.885267 46.039799 -5.518024
vertex 27.159771 50.511993 -3.350898
endloop
endfacet
facet normal 0.471299 -0.661699 -0.583123
outer loop
vertex 21.902420 42.005455 -3.350885
vertex 20.277882 45.254616 -8.350886
vertex 24.885267 46.039799 -5.518024
endloop
endfacet
facet normal 0.187595 -0.794658 -0.577344
outer loop
vertex 21.902420 42.005455 -3.350885
vertex 16.024639 42.005451 -5.260724
vertex 20.277882 45.254616 -8.350886
endloop
endfacet
facet normal -0.038530 -0.661699 -0.748779
outer loop
vertex 16.024639 42.005451 -5.260724
vertex 14.885315 46.039795 -8.767264
vertex 20.277882 45.254616 -8.350886
endloop
endfacet
facet normal -0.408947 -0.661699 -0.628424
outer loop
vertex 16.024639 42.005451 -5.260724
vertex 10.767303 45.254631 -5.260740
vertex 14.885315 46.039795 -8.767264
endloop
endfacet
facet normal -0.491119 -0.794657 -0.356822
outer loop
vertex 16.024639 42.005451 -5.260724
vertex 12.391897 42.005478 -0.260771
vertex 10.767303 45.254631 -5.260740
endloop
endfacet
facet normal -0.724042 -0.661695 -0.194736
outer loop
vertex 12.391897 42.005478 -0.260771
vertex 8.704934 46.039837 -0.260771
vertex 10.767303 45.254631 -5.260740
endloop
endfacet
facet normal -0.724042 -0.661695 0.194736
outer loop
vertex 12.391897 42.005478 -0.260771
vertex 10.767303 45.254631 4.739197
vertex 8.704934 46.039837 -0.260771
endloop
endfacet
facet normal -0.491119 -0.794657 0.356822
outer loop
vertex 12.391897 42.005478 -0.260771
vertex 16.024639 42.005451 4.739181
vertex 10.767303 45.254631 4.739197
endloop
endfacet
facet normal -0.408947 -0.661699 0.628424
outer loop
vertex 16.024639 42.005451 4.739181
vertex 14.885315 46.039795 8.245721
vertex 10.767303 45.254631 4.739197
endloop
endfacet
facet normal 0.700223 -0.661699 -0.268033
outer loop
vertex 26.155672 45.254635 -0.260771
vertex 21.902420 42.005455 -3.350885
vertex 24.885267 46.039799 -5.518024
endloop
endfacet
facet normal 0.607061 -0.794656 0.000000
outer loop
vertex 26.155672 45.254635 -0.260771
vertex 21.902420 42.005455 2.829342
vertex 21.902420 42.005455 -3.350885
endloop
endfacet
facet normal 0.331305 -0.943524 0.000000
outer loop
vertex 21.902420 42.005455 2.829342
vertex 17.649195 40.511993 -0.260771
vertex 21.902420 42.005455 -3.350885
endloop
endfacet
facet normal -0.038530 -0.661699 0.748779
outer loop
vertex 16.024639 42.005451 4.739181
vertex 20.277882 45.254616 7.829343
vertex 14.885315 46.039795 8.245721
endloop
endfacet
facet normal 0.187594 -0.794658 0.577345
outer loop
vertex 16.024639 42.005451 4.739181
vertex 21.902420 42.005455 2.829342
vertex 20.277882 45.254616 7.829343
endloop
endfacet
facet normal 0.471299 -0.661698 0.583123
outer loop
vertex 21.902420 42.005455 2.829342
vertex 24.885267 46.039799 4.996482
vertex 20.277882 45.254616 7.829343
endloop
endfacet
endsolid Exported from Blender-2.74 (sub 0)
