solid Exported from Blender-2.74 (sub 0)
facet normal 0.102381 -0.943523 0.315091
outer loop
vertex 5.311753 38.026047 -12.898887
vertex 9.564980 39.519508 -9.808773
vertex 3.687197 39.519505 -7.898934
endloop
endfacet
facet normal 0.700224 -0.661699 0.268032
outer loop
vertex 12.547826 43.553852 -7.641634
vertex 9.564980 39.519508 -9.808773
vertex 13.818230 42.768688 -12.898887
endloop
endfacet
facet normal -0.268035 -0.943523 0.194735
outer loop
vertex 5.311753 38.026047 -12.898887
vertex 3.687197 39.519505 -7.898934
vertex 0.054456 39.519531 -12.898887
endloop
endfacet
facet normal -0.268034 -0.943523 -0.194735
outer loop
vertex 5.311753 38.026047 -12.898887
vertex 0.054456 39.519531 -12.898887
vertex 3.687197 39.519505 -17.898838
endloop
endfacet
facet normal 0.102381 -0.943523 -0.315091
outer loop
vertex 5.311753 38.026047 -12.898887
vertex 3.687197 39.519505 -17.898838
vertex 9.564980 39.519508 -15.989000
endloop
endfacet
facet normal 0.904989 -0.330385 0.268031
outer loop
vertex 12.547826 43.553852 -7.641634
vertex 13.818230 42.768688 -12.898887
vertex 14.822330 48.026047 -9.808761
endloop
endfacet
facet normal 0.024747 -0.330386 0.943522
outer loop
vertex 2.547873 43.553848 -4.392394
vertex 7.940441 42.768669 -4.808772
vertex 5.311753 48.026047 -2.898888
endloop
endfacet
facet normal -0.889697 -0.330385 0.315095
outer loop
vertex -3.632508 43.553890 -12.898887
vertex -1.570139 42.768684 -7.898918
vertex -4.198824 48.026047 -9.808761
endloop
endfacet
facet normal -0.574602 -0.330388 -0.748783
outer loop
vertex 2.547873 43.553848 -21.405380
vertex -1.570139 42.768684 -17.898855
vertex -0.566102 48.026047 -20.989052
endloop
endfacet
facet normal 0.534577 -0.330387 -0.777864
outer loop
vertex 12.547826 43.553852 -18.156139
vertex 7.940440 42.768669 -20.989002
vertex 11.189608 48.026047 -20.989052
endloop
endfacet
facet normal 0.802609 -0.125627 0.583127
outer loop
vertex 12.547826 43.553852 -7.641634
vertex 14.822330 48.026047 -9.808761
vertex 11.189608 48.026047 -4.808721
endloop
endfacet
facet normal -0.306569 -0.125628 0.943522
outer loop
vertex 2.547873 43.553848 -4.392394
vertex 5.311753 48.026047 -2.898888
vertex -0.566102 48.026047 -4.808721
endloop
endfacet
facet normal -0.992077 -0.125628 0.000000
outer loop
vertex -3.632508 43.553890 -12.898887
vertex -4.198824 48.026047 -9.808761
vertex -4.198824 48.026047 -15.989013
endloop
endfacet
facet normal -0.306570 -0.125628 -0.943521
outer loop
vertex 2.547873 43.553848 -21.405380
vertex -0.566102 48.026047 -20.989052
vertex 5.311753 48.026047 -22.898886
endloop
endfacet
facet normal 0.802609 -0.125627 -0.583127
outer loop
vertex 12.547826 43.553852 -18.156139
vertex 11.189608 48.026047 -20.989052
vertex 14.822330 48.026047 -15.989013
endloop
endfacet
facet normal 0.408946 0.661698 0.628425
outer loop
vertex 8.075633 52.498245 -4.392394
vertex 12.193645 53.283409 -7.898918
vertex 6.936308 56.532589 -7.898934
endloop
endfacet
facet normal -0.471300 0.661699 0.583121
outer loop
vertex -1.924320 52.498241 -7.641634
vertex 2.683065 53.283424 -4.808772
vertex 1.058527 56.532585 -9.808773
endloop
endfacet
facet normal -0.700224 0.661699 -0.268032
outer loop
vertex -1.924320 52.498241 -18.156139
vertex -3.194725 53.283405 -12.898887
vertex 1.058527 56.532585 -15.989000
endloop
endfacet
facet normal 0.038531 0.661700 -0.748778
outer loop
vertex 8.075633 52.498245 -21.405380
vertex 2.683065 53.283424 -20.989002
vertex 6.936308 56.532589 -17.898838
endloop
endfacet
facet normal 0.724042 0.661696 -0.194735
outer loop
vertex 14.256014 52.498203 -12.898887
vertex 12.193645 53.283409 -17.898855
vertex 10.569050 56.532562 -12.898887
endloop
endfacet
facet normal 0.268034 0.943523 -0.194735
outer loop
vertex 10.569050 56.532562 -12.898887
vertex 6.936308 56.532589 -17.898838
vertex 5.311753 58.026047 -12.898887
endloop
endfacet
facet normal 0.491119 0.794657 -0.356823
outer loop
vertex 10.569050 56.532562 -12.898887
vertex 12.193645 53.283409 -17.898855
vertex 6.936308 56.532589 -17.898838
endloop
endfacet
facet normal 0.408946 0.661699 -0.628425
outer loop
vertex 12.193645 53.283409 -17.898855
vertex 8.075633 52.498245 -21.405380
vertex 6.936308 56.532589 -17.898838
endloop
endfacet
facet normal -0.102381 0.943523 -0.315091
outer loop
vertex 6.936308 56.532589 -17.898838
vertex 1.058527 56.532585 -15.989000
vertex 5.311753 58.026047 -12.898887
endloop
endfacet
facet normal -0.187594 0.794658 -0.577344
outer loop
vertex 6.936308 56.532589 -17.898838
vertex 2.683065 53.283424 -20.989002
vertex 1.058527 56.532585 -15.989000
endloop
endfacet
facet normal -0.471300 0.661699 -0.583122
outer loop
vertex 2.683065 53.283424 -20.989002
vertex -1.924320 52.498241 -18.156139
vertex 1.058527 56.532585 -15.989000
endloop
endfacet
facet normal -0.331305 0.943524 0.000000
outer loop
vertex 1.058527 56.532585 -15.989000
vertex 1.058527 56.532585 -9.808773
vertex 5.311753 58.026047 -12.898887
endloop
endfacet
facet normal -0.607060 0.794656 0.000000
outer loop
vertex 1.058527 56.532585 -15.989000
vertex -3.194725 53.283405 -12.898887
vertex 1.058527 56.532585 -9.808773
endloop
endfacet
facet normal -0.700224 0.661699 0.268032
outer loop
vertex -3.194725 53.283405 -12.898887
vertex -1.924320 52.498241 -7.641634
vertex 1.058527 56.532585 -9.808773
endloop
endfacet
facet normal -0.102381 0.943523 0.315091
outer loop
vertex 1.058527 56.532585 -9.808773
vertex 6.936308 56.532589 -7.898934
vertex 5.311753 58.026047 -12.898887
endloop
endfacet
facet normal -0.187595 0.794659 0.577344
outer loop
vertex 1.058527 56.532585 -9.808773
vertex 2.683065 53.283424 -4.808772
vertex 6.936308 56.532589 -7.898934
endloop
endfacet
facet normal 0.038530 0.661699 0.748779
outer loop
vertex 2.683065 53.283424 -4.808772
vertex 8.075633 52.498245 -4.392394
vertex 6.936308 56.532589 -7.898934
endloop
endfacet
facet normal 0.268035 0.943523 0.194734
outer loop
vertex 6.936308 56.532589 -7.898934
vertex 10.569050 56.532562 -12.898887
vertex 5.311753 58.026047 -12.898887
endloop
endfacet
facet normal 0.491119 0.794657 0.356822
outer loop
vertex 6.936308 56.532589 -7.898934
vertex 12.193645 53.283409 -7.898918
vertex 10.569050 56.532562 -12.898887
endloop
endfacet
facet normal 0.724042 0.661696 0.194736
outer loop
vertex 12.193645 53.283409 -7.898918
vertex 14.256014 52.498203 -12.898887
vertex 10.569050 56.532562 -12.898887
endloop
endfacet
facet normal 0.889697 0.330385 -0.315095
outer loop
vertex 14.822330 48.026047 -15.989013
vertex 12.193645 53.283409 -17.898855
vertex 14.256014 52.498203 -12.898887
endloop
endfacet
facet normal 0.794656 0.187595 -0.577348
outer loop
vertex 14.822330 48.026047 -15.989013
vertex 11.189608 48.026047 -20.989052
vertex 12.193645 53.283409 -17.898855
endloop
endfacet
facet normal 0.574602 0.330387 -0.748783
outer loop
vertex 11.189608 48.026047 -20.989052
vertex 8.075633 52.498245 -21.405380
vertex 12.193645 53.283409 -17.898855
endloop
endfacet
facet normal -0.024748 0.330386 -0.943521
outer loop
vertex 5.311753 48.026047 -22.898886
vertex 2.683065 53.283424 -20.989002
vertex 8.075633 52.498245 -21.405380
endloop
endfacet
facet normal -0.303531 0.187597 -0.934171
outer loop
vertex 5.311753 48.026047 -22.898886
vertex -0.566102 48.026047 -20.989052
vertex 2.683065 53.283424 -20.989002
endloop
endfacet
facet normal -0.534577 0.330386 -0.777864
outer loop
vertex -0.566102 48.026047 -20.989052
vertex -1.924320 52.498241 -18.156139
vertex 2.683065 53.283424 -20.989002
endloop
endfacet
facet normal -0.904989 0.330384 -0.268031
outer loop
vertex -4.198824 48.026047 -15.989013
vertex -3.194725 53.283405 -12.898887
vertex -1.924320 52.498241 -18.156139
endloop
endfacet
facet normal -0.982246 0.187599 0.000000
outer loop
vertex -4.198824 48.026047 -15.989013
vertex -4.198824 48.026047 -9.808761
vertex -3.194725 53.283405 -12.898887
endloop
endfacet
facet normal -0.904989 0.330385 0.268031
outer loop
vertex -4.198824 48.026047 -9.808761
vertex -1.924320 52.498241 -7.641634
vertex -3.194725 53.283405 -12.898887
endloop
endfacet
facet normal -0.534575 0.330386 0.777865
outer loop
vertex -0.566102 48.026047 -4.808721
vertex 2.683065 53.283424 -4.808772
vertex -1.924320 52.498241 -7.641634
endloop
endfacet
facet normal -0.303531 0.187598 0.934171
outer loop
vertex -0.566102 48.026047 -4.808721
vertex 5.311753 48.026047 -2.898888
vertex 2.683065 53.283424 -4.808772
endloop
endfacet
facet normal -0.024747 0.330387 0.943521
outer loop
vertex 5.311753 48.026047 -2.898888
vertex 8.075633 52.498245 -4.392394
vertex 2.683065 53.283424 -4.808772
endloop
endfacet
facet normal 0.574602 0.330387 0.748783
outer loop
vertex 11.189608 48.026047 -4.808721
vertex 12.193645 53.283409 -7.898918
vertex 8.075633 52.498245 -4.392394
endloop
endfacet
facet normal 0.794656 0.187595 0.577348
outer loop
vertex 11.189608 48.026047 -4.808721
vertex 14.822330 48.026047 -9.808761
vertex 12.193645 53.283409 -7.898918
endloop
endfacet
facet normal 0.889697 0.330385 0.315095
outer loop
vertex 14.822330 48.026047 -9.808761
vertex 14.256014 52.498203 -12.898887
vertex 12.193645 53.283409 -7.898918
endloop
endfacet
facet normal 0.306570 0.125628 -0.943521
outer loop
vertex 11.189608 48.026047 -20.989052
vertex 5.311753 48.026047 -22.898886
vertex 8.075633 52.498245 -21.405380
endloop
endfacet
facet normal 0.303531 -0.187597 -0.934171
outer loop
vertex 11.189608 48.026047 -20.989052
vertex 7.940440 42.768669 -20.989002
vertex 5.311753 48.026047 -22.898886
endloop
endfacet
facet normal 0.024748 -0.330386 -0.943521
outer loop
vertex 7.940440 42.768669 -20.989002
vertex 2.547873 43.553848 -21.405380
vertex 5.311753 48.026047 -22.898886
endloop
endfacet
facet normal -0.802609 0.125627 -0.583127
outer loop
vertex -0.566102 48.026047 -20.989052
vertex -4.198824 48.026047 -15.989013
vertex -1.924320 52.498241 -18.156139
endloop
endfacet
facet normal -0.794656 -0.187595 -0.577348
outer loop
vertex -0.566102 48.026047 -20.989052
vertex -1.570139 42.768684 -17.898855
vertex -4.198824 48.026047 -15.989013
endloop
endfacet
facet normal -0.889697 -0.330385 -0.315095
outer loop
vertex -1.570139 42.768684 -17.898855
vertex -3.632508 43.553890 -12.898887
vertex -4.198824 48.026047 -15.989013
endloop
endfacet
facet normal -0.802609 0.125627 0.583127
outer loop
vertex -4.198824 48.026047 -9.808761
vertex -0.566102 48.026047 -4.808721
vertex -1.924320 52.498241 -7.641634
endloop
endfacet
facet normal -0.794655 -0.187595 0.577348
outer loop
vertex -4.198824 48.026047 -9.808761
vertex -1.570139 42.768684 -7.898918
vertex -0.566102 48.026047 -4.808721
endloop
endfacet
facet normal -0.574603 -0.330388 0.748783
outer loop
vertex -1.570139 42.768684 -7.898918
vertex 2.547873 43.553848 -4.392394
vertex -0.566102 48.026047 -4.808721
endloop
endfacet
facet normal 0.306569 0.125628 0.943522
outer loop
vertex 5.311753 48.026047 -2.898888
vertex 11.189608 48.026047 -4.808721
vertex 8.075633 52.498245 -4.392394
endloop
endfacet
facet normal 0.303531 -0.187598 0.934171
outer loop
vertex 5.311753 48.026047 -2.898888
vertex 7.940441 42.768669 -4.808772
vertex 11.189608 48.026047 -4.808721
endloop
endfacet
facet normal 0.534576 -0.330387 0.777864
outer loop
vertex 7.940441 42.768669 -4.808772
vertex 12.547826 43.553852 -7.641634
vertex 11.189608 48.026047 -4.808721
endloop
endfacet
facet normal 0.992077 0.125628 0.000000
outer loop
vertex 14.822330 48.026047 -9.808761
vertex 14.822330 48.026047 -15.989013
vertex 14.256014 52.498203 -12.898887
endloop
endfacet
facet normal 0.982246 -0.187599 0.000000
outer loop
vertex 14.822330 48.026047 -9.808761
vertex 13.818230 42.768688 -12.898887
vertex 14.822330 48.026047 -15.989013
endloop
endfacet
facet normal 0.904989 -0.330385 -0.268031
outer loop
vertex 13.818230 42.768688 -12.898887
vertex 12.547826 43.553852 -18.156139
vertex 14.822330 48.026047 -15.989013
endloop
endfacet
facet normal 0.471300 -0.661699 -0.583122
outer loop
vertex 9.564980 39.519508 -15.989000
vertex 7.940440 42.768669 -20.989002
vertex 12.547826 43.553852 -18.156139
endloop
endfacet
facet normal 0.187594 -0.794658 -0.577345
outer loop
vertex 9.564980 39.519508 -15.989000
vertex 3.687197 39.519505 -17.898838
vertex 7.940440 42.768669 -20.989002
endloop
endfacet
facet normal -0.038530 -0.661699 -0.748779
outer loop
vertex 3.687197 39.519505 -17.898838
vertex 2.547873 43.553848 -21.405380
vertex 7.940440 42.768669 -20.989002
endloop
endfacet
facet normal -0.408946 -0.661699 -0.628425
outer loop
vertex 3.687197 39.519505 -17.898838
vertex -1.570139 42.768684 -17.898855
vertex 2.547873 43.553848 -21.405380
endloop
endfacet
facet normal -0.491119 -0.794657 -0.356822
outer loop
vertex 3.687197 39.519505 -17.898838
vertex 0.054456 39.519531 -12.898887
vertex -1.570139 42.768684 -17.898855
endloop
endfacet
facet normal -0.724042 -0.661696 -0.194736
outer loop
vertex 0.054456 39.519531 -12.898887
vertex -3.632508 43.553890 -12.898887
vertex -1.570139 42.768684 -17.898855
endloop
endfacet
facet normal -0.724042 -0.661696 0.194736
outer loop
vertex 0.054456 39.519531 -12.898887
vertex -1.570139 42.768684 -7.898918
vertex -3.632508 43.553890 -12.898887
endloop
endfacet
facet normal -0.491119 -0.794657 0.356822
outer loop
vertex 0.054456 39.519531 -12.898887
vertex 3.687197 39.519505 -7.898934
vertex -1.570139 42.768684 -7.898918
endloop
endfacet
facet normal -0.408946 -0.661699 0.628425
outer loop
vertex 3.687197 39.519505 -7.898934
vertex 2.547873 43.553848 -4.392394
vertex -1.570139 42.768684 -7.898918
endloop
endfacet
facet normal 0.700224 -0.661699 -0.268032
outer loop
vertex 13.818230 42.768688 -12.898887
vertex 9.564980 39.519508 -15.989000
vertex 12.547826 43.553852 -18.156139
endloop
endfacet
facet normal 0.607060 -0.794656 0.000000
outer loop
vertex 13.818230 42.768688 -12.898887
vertex 9.564980 39.519508 -9.808773
vertex 9.564980 39.519508 -15.989000
endloop
endfacet
facet normal 0.331305 -0.943524 0.000000
outer loop
vertex 9.564980 39.519508 -9.808773
vertex 5.311753 38.026047 -12.898887
vertex 9.564980 39.519508 -15.989000
endloop
endfacet
facet normal -0.038530 -0.661700 0.748778
outer loop
vertex 3.687197 39.519505 -7.898934
vertex 7.940441 42.768669 -4.808772
vertex 2.547873 43.553848 -4.392394
endloop
endfacet
facet normal 0.187594 -0.794658 0.577345
outer loop
vertex 3.687197 39.519505 -7.898934
vertex 9.564980 39.519508 -9.808773
vertex 7.940441 42.768669 -4.808772
endloop
endfacet
facet normal 0.471299 -0.661698 0.583123
outer loop
vertex 9.564980 39.519508 -9.808773
vertex 12.547826 43.553852 -7.641634
vertex 7.940441 42.768669 -4.808772
endloop
endfacet
endsolid Exported from Blender-2.74 (sub 0)
