solid Exported from Blender-2.74 (sub 0)
facet normal 0.102381 -0.943524 0.315089
outer loop
vertex -0.108003 19.382942 5.097504
vertex 4.145223 20.876402 8.187617
vertex -1.732558 20.876400 10.097456
endloop
endfacet
facet normal 0.700224 -0.661699 0.268032
outer loop
vertex 7.128070 24.910748 10.354757
vertex 4.145223 20.876402 8.187617
vertex 8.398475 24.125584 5.097504
endloop
endfacet
facet normal -0.268034 -0.943523 0.194737
outer loop
vertex -0.108003 19.382942 5.097504
vertex -1.732558 20.876400 10.097456
vertex -5.365300 20.876427 5.097504
endloop
endfacet
facet normal -0.268034 -0.943523 -0.194737
outer loop
vertex -0.108003 19.382942 5.097504
vertex -5.365300 20.876427 5.097504
vertex -1.732558 20.876400 0.097551
endloop
endfacet
facet normal 0.102381 -0.943524 -0.315089
outer loop
vertex -0.108003 19.382942 5.097504
vertex -1.732558 20.876400 0.097551
vertex 4.145223 20.876402 2.007390
endloop
endfacet
facet normal 0.904989 -0.330384 0.268031
outer loop
vertex 7.128070 24.910748 10.354757
vertex 8.398475 24.125584 5.097504
vertex 9.402575 29.382942 8.187630
endloop
endfacet
facet normal 0.024747 -0.330386 0.943521
outer loop
vertex -2.871883 24.910744 13.603996
vertex 2.520685 24.125566 13.187618
vertex -0.108003 29.382942 15.097503
endloop
endfacet
facet normal -0.889697 -0.330385 0.315094
outer loop
vertex -9.052263 24.910786 5.097504
vertex -6.989895 24.125582 10.097472
vertex -9.618580 29.382942 8.187630
endloop
endfacet
facet normal -0.574602 -0.330387 -0.748783
outer loop
vertex -2.871883 24.910744 -3.408989
vertex -6.989895 24.125582 0.097535
vertex -5.985858 29.382942 -2.992662
endloop
endfacet
facet normal 0.534576 -0.330387 -0.777864
outer loop
vertex 7.128070 24.910748 -0.159750
vertex 2.520685 24.125566 -2.992611
vertex 5.769852 29.382942 -2.992662
endloop
endfacet
facet normal 0.802609 -0.125627 0.583127
outer loop
vertex 7.128070 24.910748 10.354757
vertex 9.402575 29.382942 8.187630
vertex 5.769852 29.382942 13.187670
endloop
endfacet
facet normal -0.306570 -0.125629 0.943521
outer loop
vertex -2.871883 24.910744 13.603996
vertex -0.108003 29.382942 15.097503
vertex -5.985858 29.382942 13.187670
endloop
endfacet
facet normal -0.992077 -0.125628 0.000000
outer loop
vertex -9.052263 24.910786 5.097504
vertex -9.618580 29.382942 8.187630
vertex -9.618580 29.382942 2.007377
endloop
endfacet
facet normal -0.306570 -0.125629 -0.943521
outer loop
vertex -2.871883 24.910744 -3.408989
vertex -5.985858 29.382942 -2.992662
vertex -0.108003 29.382942 -4.902495
endloop
endfacet
facet normal 0.802609 -0.125627 -0.583127
outer loop
vertex 7.128070 24.910748 -0.159750
vertex 5.769852 29.382942 -2.992662
vertex 9.402575 29.382942 2.007377
endloop
endfacet
facet normal 0.408946 0.661699 0.628425
outer loop
vertex 2.655877 33.855141 13.603996
vertex 6.773889 34.640305 10.097472
vertex 1.516553 37.889484 10.097456
endloop
endfacet
facet normal -0.471299 0.661699 0.583122
outer loop
vertex -7.344076 33.855137 10.354757
vertex -2.736691 34.640320 13.187618
vertex -4.361229 37.889481 8.187617
endloop
endfacet
facet normal -0.700224 0.661699 -0.268033
outer loop
vertex -7.344076 33.855137 -0.159750
vertex -8.614480 34.640301 5.097504
vertex -4.361229 37.889481 2.007390
endloop
endfacet
facet normal 0.038530 0.661699 -0.748779
outer loop
vertex 2.655877 33.855141 -3.408989
vertex -2.736691 34.640320 -2.992611
vertex 1.516553 37.889484 0.097551
endloop
endfacet
facet normal 0.724042 0.661696 -0.194735
outer loop
vertex 8.836258 33.855099 5.097504
vertex 6.773889 34.640305 0.097535
vertex 5.149294 37.889458 5.097504
endloop
endfacet
facet normal 0.268034 0.943523 -0.194737
outer loop
vertex 5.149294 37.889458 5.097504
vertex 1.516553 37.889484 0.097551
vertex -0.108003 39.382942 5.097504
endloop
endfacet
facet normal 0.491119 0.794657 -0.356822
outer loop
vertex 5.149294 37.889458 5.097504
vertex 6.773889 34.640305 0.097535
vertex 1.516553 37.889484 0.097551
endloop
endfacet
facet normal 0.408946 0.661699 -0.628425
outer loop
vertex 6.773889 34.640305 0.097535
vertex 2.655877 33.855141 -3.408989
vertex 1.516553 37.889484 0.097551
endloop
endfacet
facet normal -0.102381 0.943523 -0.315091
outer loop
vertex 1.516553 37.889484 0.097551
vertex -4.361229 37.889481 2.007390
vertex -0.108003 39.382942 5.097504
endloop
endfacet
facet normal -0.187594 0.794658 -0.577344
outer loop
vertex 1.516553 37.889484 0.097551
vertex -2.736691 34.640320 -2.992611
vertex -4.361229 37.889481 2.007390
endloop
endfacet
facet normal -0.471300 0.661699 -0.583122
outer loop
vertex -2.736691 34.640320 -2.992611
vertex -7.344076 33.855137 -0.159750
vertex -4.361229 37.889481 2.007390
endloop
endfacet
facet normal -0.331305 0.943524 0.000000
outer loop
vertex -4.361229 37.889481 2.007390
vertex -4.361229 37.889481 8.187617
vertex -0.108003 39.382942 5.097504
endloop
endfacet
facet normal -0.607060 0.794656 0.000000
outer loop
vertex -4.361229 37.889481 2.007390
vertex -8.614480 34.640301 5.097504
vertex -4.361229 37.889481 8.187617
endloop
endfacet
facet normal -0.700223 0.661699 0.268033
outer loop
vertex -8.614480 34.640301 5.097504
vertex -7.344076 33.855137 10.354757
vertex -4.361229 37.889481 8.187617
endloop
endfacet
facet normal -0.102381 0.943523 0.315091
outer loop
vertex -4.361229 37.889481 8.187617
vertex 1.516553 37.889484 10.097456
vertex -0.108003 39.382942 5.097504
endloop
endfacet
facet normal -0.187594 0.794658 0.577345
outer loop
vertex -4.361229 37.889481 8.187617
vertex -2.736691 34.640320 13.187618
vertex 1.516553 37.889484 10.097456
endloop
endfacet
facet normal 0.038530 0.661699 0.748779
outer loop
vertex -2.736691 34.640320 13.187618
vertex 2.655877 33.855141 13.603996
vertex 1.516553 37.889484 10.097456
endloop
endfacet
facet normal 0.268034 0.943523 0.194736
outer loop
vertex 1.516553 37.889484 10.097456
vertex 5.149294 37.889458 5.097504
vertex -0.108003 39.382942 5.097504
endloop
endfacet
facet normal 0.491119 0.794657 0.356821
outer loop
vertex 1.516553 37.889484 10.097456
vertex 6.773889 34.640305 10.097472
vertex 5.149294 37.889458 5.097504
endloop
endfacet
facet normal 0.724042 0.661696 0.194736
outer loop
vertex 6.773889 34.640305 10.097472
vertex 8.836258 33.855099 5.097504
vertex 5.149294 37.889458 5.097504
endloop
endfacet
facet normal 0.889697 0.330385 -0.315095
outer loop
vertex 9.402575 29.382942 2.007377
vertex 6.773889 34.640305 0.097535
vertex 8.836258 33.855099 5.097504
endloop
endfacet
facet normal 0.794656 0.187595 -0.577348
outer loop
vertex 9.402575 29.382942 2.007377
vertex 5.769852 29.382942 -2.992662
vertex 6.773889 34.640305 0.097535
endloop
endfacet
facet normal 0.574602 0.330388 -0.748783
outer loop
vertex 5.769852 29.382942 -2.992662
vertex 2.655877 33.855141 -3.408989
vertex 6.773889 34.640305 0.097535
endloop
endfacet
facet normal -0.024747 0.330387 -0.943521
outer loop
vertex -0.108003 29.382942 -4.902495
vertex -2.736691 34.640320 -2.992611
vertex 2.655877 33.855141 -3.408989
endloop
endfacet
facet normal -0.303531 0.187597 -0.934171
outer loop
vertex -0.108003 29.382942 -4.902495
vertex -5.985858 29.382942 -2.992662
vertex -2.736691 34.640320 -2.992611
endloop
endfacet
facet normal -0.534576 0.330386 -0.777865
outer loop
vertex -5.985858 29.382942 -2.992662
vertex -7.344076 33.855137 -0.159750
vertex -2.736691 34.640320 -2.992611
endloop
endfacet
facet normal -0.904989 0.330384 -0.268031
outer loop
vertex -9.618580 29.382942 2.007377
vertex -8.614480 34.640301 5.097504
vertex -7.344076 33.855137 -0.159750
endloop
endfacet
facet normal -0.982246 0.187599 0.000000
outer loop
vertex -9.618580 29.382942 2.007377
vertex -9.618580 29.382942 8.187630
vertex -8.614480 34.640301 5.097504
endloop
endfacet
facet normal -0.904989 0.330384 0.268031
outer loop
vertex -9.618580 29.382942 8.187630
vertex -7.344076 33.855137 10.354757
vertex -8.614480 34.640301 5.097504
endloop
endfacet
facet normal -0.534576 0.330386 0.777865
outer loop
vertex -5.985858 29.382942 13.187670
vertex -2.736691 34.640320 13.187618
vertex -7.344076 33.855137 10.354757
endloop
endfacet
facet normal -0.303531 0.187598 0.934171
outer loop
vertex -5.985858 29.382942 13.187670
vertex -0.108003 29.382942 15.097503
vertex -2.736691 34.640320 13.187618
endloop
endfacet
facet normal -0.024747 0.330386 0.943521
outer loop
vertex -0.108003 29.382942 15.097503
vertex 2.655877 33.855141 13.603996
vertex -2.736691 34.640320 13.187618
endloop
endfacet
facet normal 0.574602 0.330388 0.748783
outer loop
vertex 5.769852 29.382942 13.187670
vertex 6.773889 34.640305 10.097472
vertex 2.655877 33.855141 13.603996
endloop
endfacet
facet normal 0.794656 0.187595 0.577348
outer loop
vertex 5.769852 29.382942 13.187670
vertex 9.402575 29.382942 8.187630
vertex 6.773889 34.640305 10.097472
endloop
endfacet
facet normal 0.889697 0.330385 0.315095
outer loop
vertex 9.402575 29.382942 8.187630
vertex 8.836258 33.855099 5.097504
vertex 6.773889 34.640305 10.097472
endloop
endfacet
facet normal 0.306569 0.125628 -0.943522
outer loop
vertex 5.769852 29.382942 -2.992662
vertex -0.108003 29.382942 -4.902495
vertex 2.655877 33.855141 -3.408989
endloop
endfacet
facet normal 0.303531 -0.187598 -0.934171
outer loop
vertex 5.769852 29.382942 -2.992662
vertex 2.520685 24.125566 -2.992611
vertex -0.108003 29.382942 -4.902495
endloop
endfacet
facet normal 0.024747 -0.330386 -0.943521
outer loop
vertex 2.520685 24.125566 -2.992611
vertex -2.871883 24.910744 -3.408989
vertex -0.108003 29.382942 -4.902495
endloop
endfacet
facet normal -0.802609 0.125627 -0.583127
outer loop
vertex -5.985858 29.382942 -2.992662
vertex -9.618580 29.382942 2.007377
vertex -7.344076 33.855137 -0.159750
endloop
endfacet
facet normal -0.794656 -0.187595 -0.577348
outer loop
vertex -5.985858 29.382942 -2.992662
vertex -6.989895 24.125582 0.097535
vertex -9.618580 29.382942 2.007377
endloop
endfacet
facet normal -0.889697 -0.330385 -0.315095
outer loop
vertex -6.989895 24.125582 0.097535
vertex -9.052263 24.910786 5.097504
vertex -9.618580 29.382942 2.007377
endloop
endfacet
facet normal -0.802609 0.125627 0.583127
outer loop
vertex -9.618580 29.382942 8.187630
vertex -5.985858 29.382942 13.187670
vertex -7.344076 33.855137 10.354757
endloop
endfacet
facet normal -0.794655 -0.187595 0.577348
outer loop
vertex -9.618580 29.382942 8.187630
vertex -6.989895 24.125582 10.097472
vertex -5.985858 29.382942 13.187670
endloop
endfacet
facet normal -0.574602 -0.330387 0.748783
outer loop
vertex -6.989895 24.125582 10.097472
vertex -2.871883 24.910744 13.603996
vertex -5.985858 29.382942 13.187670
endloop
endfacet
facet normal 0.306569 0.125628 0.943521
outer loop
vertex -0.108003 29.382942 15.097503
vertex 5.769852 29.382942 13.187670
vertex 2.655877 33.855141 13.603996
endloop
endfacet
facet normal 0.303531 -0.187597 0.934171
outer loop
vertex -0.108003 29.382942 15.097503
vertex 2.520685 24.125566 13.187618
vertex 5.769852 29.382942 13.187670
endloop
endfacet
facet normal 0.534576 -0.330386 0.777865
outer loop
vertex 2.520685 24.125566 13.187618
vertex 7.128070 24.910748 10.354757
vertex 5.769852 29.382942 13.187670
endloop
endfacet
facet normal 0.992077 0.125628 0.000000
outer loop
vertex 9.402575 29.382942 8.187630
vertex 9.402575 29.382942 2.007377
vertex 8.836258 33.855099 5.097504
endloop
endfacet
facet normal 0.982246 -0.187598 0.000000
outer loop
vertex 9.402575 29.382942 8.187630
vertex 8.398475 24.125584 5.097504
vertex 9.402575 29.382942 2.007377
endloop
endfacet
facet normal 0.904989 -0.330384 -0.268031
outer loop
vertex 8.398475 24.125584 5.097504
vertex 7.128070 24.910748 -0.159750
vertex 9.402575 29.382942 2.007377
endloop
endfacet
facet normal 0.471299 -0.661699 -0.583123
outer loop
vertex 4.145223 20.876402 2.007390
vertex 2.520685 24.125566 -2.992611
vertex 7.128070 24.910748 -0.159750
endloop
endfacet
facet normal 0.187594 -0.794657 -0.577346
outer loop
vertex 4.145223 20.876402 2.007390
vertex -1.732558 20.876400 0.097551
vertex 2.520685 24.125566 -2.992611
endloop
endfacet
facet normal -0.038530 -0.661699 -0.748779
outer loop
vertex -1.732558 20.876400 0.097551
vertex -2.871883 24.910744 -3.408989
vertex 2.520685 24.125566 -2.992611
endloop
endfacet
facet normal -0.408947 -0.661699 -0.628424
outer loop
vertex -1.732558 20.876400 0.097551
vertex -6.989895 24.125582 0.097535
vertex -2.871883 24.910744 -3.408989
endloop
endfacet
facet normal -0.491119 -0.794657 -0.356821
outer loop
vertex -1.732558 20.876400 0.097551
vertex -5.365300 20.876427 5.097504
vertex -6.989895 24.125582 0.097535
endloop
endfacet
facet normal -0.724042 -0.661695 -0.194736
outer loop
vertex -5.365300 20.876427 5.097504
vertex -9.052263 24.910786 5.097504
vertex -6.989895 24.125582 0.097535
endloop
endfacet
facet normal -0.724042 -0.661695 0.194736
outer loop
vertex -5.365300 20.876427 5.097504
vertex -6.989895 24.125582 10.097472
vertex -9.052263 24.910786 5.097504
endloop
endfacet
facet normal -0.491119 -0.794658 0.356821
outer loop
vertex -5.365300 20.876427 5.097504
vertex -1.732558 20.876400 10.097456
vertex -6.989895 24.125582 10.097472
endloop
endfacet
facet normal -0.408947 -0.661699 0.628424
outer loop
vertex -1.732558 20.876400 10.097456
vertex -2.871883 24.910744 13.603996
vertex -6.989895 24.125582 10.097472
endloop
endfacet
facet normal 0.700224 -0.661699 -0.268032
outer loop
vertex 8.398475 24.125584 5.097504
vertex 4.145223 20.876402 2.007390
vertex 7.128070 24.910748 -0.159750
endloop
endfacet
facet normal 0.607060 -0.794656 0.000000
outer loop
vertex 8.398475 24.125584 5.097504
vertex 4.145223 20.876402 8.187617
vertex 4.145223 20.876402 2.007390
endloop
endfacet
facet normal 0.331305 -0.943524 0.000000
outer loop
vertex 4.145223 20.876402 8.187617
vertex -0.108003 19.382942 5.097504
vertex 4.145223 20.876402 2.007390
endloop
endfacet
facet normal -0.038530 -0.661700 0.748778
outer loop
vertex -1.732558 20.876400 10.097456
vertex 2.520685 24.125566 13.187618
vertex -2.871883 24.910744 13.603996
endloop
endfacet
facet normal 0.187594 -0.794657 0.577346
outer loop
vertex -1.732558 20.876400 10.097456
vertex 4.145223 20.876402 8.187617
vertex 2.520685 24.125566 13.187618
endloop
endfacet
facet normal 0.471300 -0.661699 0.583122
outer loop
vertex 4.145223 20.876402 8.187617
vertex 7.128070 24.910748 10.354757
vertex 2.520685 24.125566 13.187618
endloop
endfacet
endsolid Exported from Blender-2.74 (sub 0)
