solid Exported from Blender-2.74 (sub 0)
facet normal 0.102381 -0.943524 0.315089
outer loop
vertex 11.964637 27.803619 -8.192998
vertex 16.217863 29.297079 -5.102884
vertex 10.340081 29.297077 -3.193046
endloop
endfacet
facet normal 0.700224 -0.661699 0.268031
outer loop
vertex 19.200710 33.331425 -2.935745
vertex 16.217863 29.297079 -5.102884
vertex 20.471115 32.546261 -8.192998
endloop
endfacet
facet normal -0.268034 -0.943523 0.194736
outer loop
vertex 11.964637 27.803619 -8.192998
vertex 10.340081 29.297077 -3.193046
vertex 6.707340 29.297104 -8.192998
endloop
endfacet
facet normal -0.268034 -0.943523 -0.194736
outer loop
vertex 11.964637 27.803619 -8.192998
vertex 6.707340 29.297104 -8.192998
vertex 10.340081 29.297077 -13.192950
endloop
endfacet
facet normal 0.102381 -0.943524 -0.315089
outer loop
vertex 11.964637 27.803619 -8.192998
vertex 10.340081 29.297077 -13.192950
vertex 16.217863 29.297079 -11.283112
endloop
endfacet
facet normal 0.904989 -0.330384 0.268031
outer loop
vertex 19.200710 33.331425 -2.935745
vertex 20.471115 32.546261 -8.192998
vertex 21.475214 37.803619 -5.102872
endloop
endfacet
facet normal 0.024747 -0.330386 0.943521
outer loop
vertex 9.200757 33.331421 0.313495
vertex 14.593325 32.546242 -0.102883
vertex 11.964637 37.803619 1.807001
endloop
endfacet
facet normal -0.889697 -0.330385 0.315094
outer loop
vertex 3.020376 33.331463 -8.192998
vertex 5.082745 32.546257 -3.193029
vertex 2.454060 37.803619 -5.102872
endloop
endfacet
facet normal -0.574602 -0.330388 -0.748784
outer loop
vertex 9.200757 33.331421 -16.699490
vertex 5.082745 32.546257 -13.192966
vertex 6.086782 37.803619 -16.283165
endloop
endfacet
facet normal 0.534576 -0.330386 -0.777864
outer loop
vertex 19.200710 33.331425 -13.450251
vertex 14.593325 32.546242 -16.283112
vertex 17.842491 37.803619 -16.283165
endloop
endfacet
facet normal 0.802608 -0.125627 0.583127
outer loop
vertex 19.200710 33.331425 -2.935745
vertex 21.475214 37.803619 -5.102872
vertex 17.842491 37.803619 -0.102832
endloop
endfacet
facet normal -0.306569 -0.125628 0.943522
outer loop
vertex 9.200757 33.331421 0.313495
vertex 11.964637 37.803619 1.807001
vertex 6.086782 37.803619 -0.102832
endloop
endfacet
facet normal -0.992077 -0.125628 0.000000
outer loop
vertex 3.020376 33.331463 -8.192998
vertex 2.454060 37.803619 -5.102872
vertex 2.454060 37.803619 -11.283124
endloop
endfacet
facet normal -0.306569 -0.125629 -0.943521
outer loop
vertex 9.200757 33.331421 -16.699490
vertex 6.086782 37.803619 -16.283165
vertex 11.964637 37.803619 -18.192997
endloop
endfacet
facet normal 0.802608 -0.125627 -0.583127
outer loop
vertex 19.200710 33.331425 -13.450251
vertex 17.842491 37.803619 -16.283165
vertex 21.475214 37.803619 -11.283124
endloop
endfacet
facet normal 0.408946 0.661699 0.628424
outer loop
vertex 14.728517 42.275818 0.313495
vertex 18.846529 43.060982 -3.193029
vertex 13.589192 46.310162 -3.193046
endloop
endfacet
facet normal -0.471299 0.661699 0.583122
outer loop
vertex 4.728564 42.275814 -2.935745
vertex 9.335949 43.060997 -0.102883
vertex 7.711411 46.310158 -5.102884
endloop
endfacet
facet normal -0.700224 0.661699 -0.268032
outer loop
vertex 4.728564 42.275814 -13.450251
vertex 3.458159 43.060978 -8.192998
vertex 7.711411 46.310158 -11.283112
endloop
endfacet
facet normal 0.038530 0.661699 -0.748779
outer loop
vertex 14.728517 42.275818 -16.699490
vertex 9.335949 43.060997 -16.283112
vertex 13.589192 46.310162 -13.192950
endloop
endfacet
facet normal 0.724042 0.661696 -0.194736
outer loop
vertex 20.908897 42.275776 -8.192998
vertex 18.846529 43.060982 -13.192966
vertex 17.221933 46.310135 -8.192998
endloop
endfacet
facet normal 0.268034 0.943523 -0.194736
outer loop
vertex 17.221933 46.310135 -8.192998
vertex 13.589192 46.310162 -13.192950
vertex 11.964637 47.803619 -8.192998
endloop
endfacet
facet normal 0.491119 0.794657 -0.356822
outer loop
vertex 17.221933 46.310135 -8.192998
vertex 18.846529 43.060982 -13.192966
vertex 13.589192 46.310162 -13.192950
endloop
endfacet
facet normal 0.408947 0.661699 -0.628424
outer loop
vertex 18.846529 43.060982 -13.192966
vertex 14.728517 42.275818 -16.699490
vertex 13.589192 46.310162 -13.192950
endloop
endfacet
facet normal -0.102381 0.943523 -0.315090
outer loop
vertex 13.589192 46.310162 -13.192950
vertex 7.711411 46.310158 -11.283112
vertex 11.964637 47.803619 -8.192998
endloop
endfacet
facet normal -0.187594 0.794657 -0.577345
outer loop
vertex 13.589192 46.310162 -13.192950
vertex 9.335949 43.060997 -16.283112
vertex 7.711411 46.310158 -11.283112
endloop
endfacet
facet normal -0.471299 0.661699 -0.583122
outer loop
vertex 9.335949 43.060997 -16.283112
vertex 4.728564 42.275814 -13.450251
vertex 7.711411 46.310158 -11.283112
endloop
endfacet
facet normal -0.331305 0.943524 0.000000
outer loop
vertex 7.711411 46.310158 -11.283112
vertex 7.711411 46.310158 -5.102884
vertex 11.964637 47.803619 -8.192998
endloop
endfacet
facet normal -0.607060 0.794656 0.000000
outer loop
vertex 7.711411 46.310158 -11.283112
vertex 3.458159 43.060978 -8.192998
vertex 7.711411 46.310158 -5.102884
endloop
endfacet
facet normal -0.700224 0.661699 0.268032
outer loop
vertex 3.458159 43.060978 -8.192998
vertex 4.728564 42.275814 -2.935745
vertex 7.711411 46.310158 -5.102884
endloop
endfacet
facet normal -0.102381 0.943523 0.315091
outer loop
vertex 7.711411 46.310158 -5.102884
vertex 13.589192 46.310162 -3.193046
vertex 11.964637 47.803619 -8.192998
endloop
endfacet
facet normal -0.187594 0.794658 0.577345
outer loop
vertex 7.711411 46.310158 -5.102884
vertex 9.335949 43.060997 -0.102883
vertex 13.589192 46.310162 -3.193046
endloop
endfacet
facet normal 0.038530 0.661699 0.748779
outer loop
vertex 9.335949 43.060997 -0.102883
vertex 14.728517 42.275818 0.313495
vertex 13.589192 46.310162 -3.193046
endloop
endfacet
facet normal 0.268034 0.943523 0.194735
outer loop
vertex 13.589192 46.310162 -3.193046
vertex 17.221933 46.310135 -8.192998
vertex 11.964637 47.803619 -8.192998
endloop
endfacet
facet normal 0.491119 0.794657 0.356822
outer loop
vertex 13.589192 46.310162 -3.193046
vertex 18.846529 43.060982 -3.193029
vertex 17.221933 46.310135 -8.192998
endloop
endfacet
facet normal 0.724042 0.661696 0.194737
outer loop
vertex 18.846529 43.060982 -3.193029
vertex 20.908897 42.275776 -8.192998
vertex 17.221933 46.310135 -8.192998
endloop
endfacet
facet normal 0.889697 0.330385 -0.315094
outer loop
vertex 21.475214 37.803619 -11.283124
vertex 18.846529 43.060982 -13.192966
vertex 20.908897 42.275776 -8.192998
endloop
endfacet
facet normal 0.794656 0.187595 -0.577348
outer loop
vertex 21.475214 37.803619 -11.283124
vertex 17.842491 37.803619 -16.283165
vertex 18.846529 43.060982 -13.192966
endloop
endfacet
facet normal 0.574602 0.330388 -0.748783
outer loop
vertex 17.842491 37.803619 -16.283165
vertex 14.728517 42.275818 -16.699490
vertex 18.846529 43.060982 -13.192966
endloop
endfacet
facet normal -0.024747 0.330386 -0.943521
outer loop
vertex 11.964637 37.803619 -18.192997
vertex 9.335949 43.060997 -16.283112
vertex 14.728517 42.275818 -16.699490
endloop
endfacet
facet normal -0.303531 0.187598 -0.934171
outer loop
vertex 11.964637 37.803619 -18.192997
vertex 6.086782 37.803619 -16.283165
vertex 9.335949 43.060997 -16.283112
endloop
endfacet
facet normal -0.534576 0.330387 -0.777864
outer loop
vertex 6.086782 37.803619 -16.283165
vertex 4.728564 42.275814 -13.450251
vertex 9.335949 43.060997 -16.283112
endloop
endfacet
facet normal -0.904989 0.330385 -0.268031
outer loop
vertex 2.454060 37.803619 -11.283124
vertex 3.458159 43.060978 -8.192998
vertex 4.728564 42.275814 -13.450251
endloop
endfacet
facet normal -0.982246 0.187599 0.000000
outer loop
vertex 2.454060 37.803619 -11.283124
vertex 2.454060 37.803619 -5.102872
vertex 3.458159 43.060978 -8.192998
endloop
endfacet
facet normal -0.904989 0.330385 0.268031
outer loop
vertex 2.454060 37.803619 -5.102872
vertex 4.728564 42.275814 -2.935745
vertex 3.458159 43.060978 -8.192998
endloop
endfacet
facet normal -0.534576 0.330387 0.777864
outer loop
vertex 6.086782 37.803619 -0.102832
vertex 9.335949 43.060997 -0.102883
vertex 4.728564 42.275814 -2.935745
endloop
endfacet
facet normal -0.303531 0.187598 0.934171
outer loop
vertex 6.086782 37.803619 -0.102832
vertex 11.964637 37.803619 1.807001
vertex 9.335949 43.060997 -0.102883
endloop
endfacet
facet normal -0.024747 0.330386 0.943521
outer loop
vertex 11.964637 37.803619 1.807001
vertex 14.728517 42.275818 0.313495
vertex 9.335949 43.060997 -0.102883
endloop
endfacet
facet normal 0.574602 0.330387 0.748783
outer loop
vertex 17.842491 37.803619 -0.102832
vertex 18.846529 43.060982 -3.193029
vertex 14.728517 42.275818 0.313495
endloop
endfacet
facet normal 0.794656 0.187595 0.577348
outer loop
vertex 17.842491 37.803619 -0.102832
vertex 21.475214 37.803619 -5.102872
vertex 18.846529 43.060982 -3.193029
endloop
endfacet
facet normal 0.889697 0.330385 0.315094
outer loop
vertex 21.475214 37.803619 -5.102872
vertex 20.908897 42.275776 -8.192998
vertex 18.846529 43.060982 -3.193029
endloop
endfacet
facet normal 0.306569 0.125629 -0.943521
outer loop
vertex 17.842491 37.803619 -16.283165
vertex 11.964637 37.803619 -18.192997
vertex 14.728517 42.275818 -16.699490
endloop
endfacet
facet normal 0.303531 -0.187598 -0.934171
outer loop
vertex 17.842491 37.803619 -16.283165
vertex 14.593325 32.546242 -16.283112
vertex 11.964637 37.803619 -18.192997
endloop
endfacet
facet normal 0.024747 -0.330386 -0.943521
outer loop
vertex 14.593325 32.546242 -16.283112
vertex 9.200757 33.331421 -16.699490
vertex 11.964637 37.803619 -18.192997
endloop
endfacet
facet normal -0.802608 0.125627 -0.583127
outer loop
vertex 6.086782 37.803619 -16.283165
vertex 2.454060 37.803619 -11.283124
vertex 4.728564 42.275814 -13.450251
endloop
endfacet
facet normal -0.794656 -0.187595 -0.577348
outer loop
vertex 6.086782 37.803619 -16.283165
vertex 5.082745 32.546257 -13.192966
vertex 2.454060 37.803619 -11.283124
endloop
endfacet
facet normal -0.889697 -0.330385 -0.315095
outer loop
vertex 5.082745 32.546257 -13.192966
vertex 3.020376 33.331463 -8.192998
vertex 2.454060 37.803619 -11.283124
endloop
endfacet
facet normal -0.802608 0.125627 0.583127
outer loop
vertex 2.454060 37.803619 -5.102872
vertex 6.086782 37.803619 -0.102832
vertex 4.728564 42.275814 -2.935745
endloop
endfacet
facet normal -0.794656 -0.187595 0.577348
outer loop
vertex 2.454060 37.803619 -5.102872
vertex 5.082745 32.546257 -3.193029
vertex 6.086782 37.803619 -0.102832
endloop
endfacet
facet normal -0.574602 -0.330387 0.748783
outer loop
vertex 5.082745 32.546257 -3.193029
vertex 9.200757 33.331421 0.313495
vertex 6.086782 37.803619 -0.102832
endloop
endfacet
facet normal 0.306569 0.125628 0.943521
outer loop
vertex 11.964637 37.803619 1.807001
vertex 17.842491 37.803619 -0.102832
vertex 14.728517 42.275818 0.313495
endloop
endfacet
facet normal 0.303531 -0.187598 0.934171
outer loop
vertex 11.964637 37.803619 1.807001
vertex 14.593325 32.546242 -0.102883
vertex 17.842491 37.803619 -0.102832
endloop
endfacet
facet normal 0.534576 -0.330386 0.777865
outer loop
vertex 14.593325 32.546242 -0.102883
vertex 19.200710 33.331425 -2.935745
vertex 17.842491 37.803619 -0.102832
endloop
endfacet
facet normal 0.992077 0.125628 0.000000
outer loop
vertex 21.475214 37.803619 -5.102872
vertex 21.475214 37.803619 -11.283124
vertex 20.908897 42.275776 -8.192998
endloop
endfacet
facet normal 0.982246 -0.187599 0.000000
outer loop
vertex 21.475214 37.803619 -5.102872
vertex 20.471115 32.546261 -8.192998
vertex 21.475214 37.803619 -11.283124
endloop
endfacet
facet normal 0.904989 -0.330384 -0.268031
outer loop
vertex 20.471115 32.546261 -8.192998
vertex 19.200710 33.331425 -13.450251
vertex 21.475214 37.803619 -11.283124
endloop
endfacet
facet normal 0.471299 -0.661698 -0.583123
outer loop
vertex 16.217863 29.297079 -11.283112
vertex 14.593325 32.546242 -16.283112
vertex 19.200710 33.331425 -13.450251
endloop
endfacet
facet normal 0.187594 -0.794657 -0.577346
outer loop
vertex 16.217863 29.297079 -11.283112
vertex 10.340081 29.297077 -13.192950
vertex 14.593325 32.546242 -16.283112
endloop
endfacet
facet normal -0.038530 -0.661699 -0.748779
outer loop
vertex 10.340081 29.297077 -13.192950
vertex 9.200757 33.331421 -16.699490
vertex 14.593325 32.546242 -16.283112
endloop
endfacet
facet normal -0.408946 -0.661699 -0.628425
outer loop
vertex 10.340081 29.297077 -13.192950
vertex 5.082745 32.546257 -13.192966
vertex 9.200757 33.331421 -16.699490
endloop
endfacet
facet normal -0.491119 -0.794657 -0.356821
outer loop
vertex 10.340081 29.297077 -13.192950
vertex 6.707340 29.297104 -8.192998
vertex 5.082745 32.546257 -13.192966
endloop
endfacet
facet normal -0.724042 -0.661696 -0.194736
outer loop
vertex 6.707340 29.297104 -8.192998
vertex 3.020376 33.331463 -8.192998
vertex 5.082745 32.546257 -13.192966
endloop
endfacet
facet normal -0.724042 -0.661696 0.194736
outer loop
vertex 6.707340 29.297104 -8.192998
vertex 5.082745 32.546257 -3.193029
vertex 3.020376 33.331463 -8.192998
endloop
endfacet
facet normal -0.491119 -0.794657 0.356821
outer loop
vertex 6.707340 29.297104 -8.192998
vertex 10.340081 29.297077 -3.193046
vertex 5.082745 32.546257 -3.193029
endloop
endfacet
facet normal -0.408946 -0.661699 0.628425
outer loop
vertex 10.340081 29.297077 -3.193046
vertex 9.200757 33.331421 0.313495
vertex 5.082745 32.546257 -3.193029
endloop
endfacet
facet normal 0.700224 -0.661699 -0.268031
outer loop
vertex 20.471115 32.546261 -8.192998
vertex 16.217863 29.297079 -11.283112
vertex 19.200710 33.331425 -13.450251
endloop
endfacet
facet normal 0.607060 -0.794656 0.000000
outer loop
vertex 20.471115 32.546261 -8.192998
vertex 16.217863 29.297079 -5.102884
vertex 16.217863 29.297079 -11.283112
endloop
endfacet
facet normal 0.331305 -0.943524 0.000000
outer loop
vertex 16.217863 29.297079 -5.102884
vertex 11.964637 27.803619 -8.192998
vertex 16.217863 29.297079 -11.283112
endloop
endfacet
facet normal -0.038530 -0.661699 0.748779
outer loop
vertex 10.340081 29.297077 -3.193046
vertex 14.593325 32.546242 -0.102883
vertex 9.200757 33.331421 0.313495
endloop
endfacet
facet normal 0.187594 -0.794657 0.577346
outer loop
vertex 10.340081 29.297077 -3.193046
vertex 16.217863 29.297079 -5.102884
vertex 14.593325 32.546242 -0.102883
endloop
endfacet
facet normal 0.471299 -0.661699 0.583123
outer loop
vertex 16.217863 29.297079 -5.102884
vertex 19.200710 33.331425 -2.935745
vertex 14.593325 32.546242 -0.102883
endloop
endfacet
endsolid Exported from Blender-2.74 (sub 0)
