solid Exported from Blender-2.74 (sub 0)
facet normal 0.102381 -0.943524 0.315088
outer loop
vertex 11.190663 36.766651 -8.903390
vertex 15.443890 38.260109 -5.813276
vertex 9.566108 38.260109 -3.903438
endloop
endfacet
facet normal 0.700224 -0.661699 0.268032
outer loop
vertex 18.426737 42.294456 -3.646137
vertex 15.443890 38.260109 -5.813276
vertex 19.697140 41.509293 -8.903390
endloop
endfacet
facet normal -0.268034 -0.943523 0.194736
outer loop
vertex 11.190663 36.766651 -8.903390
vertex 9.566108 38.260109 -3.903438
vertex 5.933366 38.260136 -8.903390
endloop
endfacet
facet normal -0.268034 -0.943523 -0.194736
outer loop
vertex 11.190663 36.766651 -8.903390
vertex 5.933366 38.260136 -8.903390
vertex 9.566108 38.260109 -13.903342
endloop
endfacet
facet normal 0.102381 -0.943524 -0.315088
outer loop
vertex 11.190663 36.766651 -8.903390
vertex 9.566108 38.260109 -13.903342
vertex 15.443890 38.260109 -11.993504
endloop
endfacet
facet normal 0.904989 -0.330384 0.268032
outer loop
vertex 18.426737 42.294456 -3.646137
vertex 19.697140 41.509293 -8.903390
vertex 20.701241 46.766651 -5.813264
endloop
endfacet
facet normal 0.024747 -0.330386 0.943521
outer loop
vertex 8.426784 42.294453 -0.396897
vertex 13.819351 41.509277 -0.813275
vertex 11.190663 46.766651 1.096609
endloop
endfacet
facet normal -0.889697 -0.330385 0.315094
outer loop
vertex 2.246403 42.294495 -8.903390
vertex 4.308771 41.509289 -3.903421
vertex 1.680086 46.766651 -5.813264
endloop
endfacet
facet normal -0.574602 -0.330388 -0.748783
outer loop
vertex 8.426784 42.294453 -17.409882
vertex 4.308771 41.509289 -13.903358
vertex 5.312809 46.766651 -16.993557
endloop
endfacet
facet normal 0.534575 -0.330387 -0.777865
outer loop
vertex 18.426737 42.294456 -14.160643
vertex 13.819351 41.509277 -16.993504
vertex 17.068518 46.766651 -16.993557
endloop
endfacet
facet normal 0.802609 -0.125628 0.583127
outer loop
vertex 18.426737 42.294456 -3.646137
vertex 20.701241 46.766651 -5.813264
vertex 17.068518 46.766651 -0.813224
endloop
endfacet
facet normal -0.306569 -0.125629 0.943522
outer loop
vertex 8.426784 42.294453 -0.396897
vertex 11.190663 46.766651 1.096609
vertex 5.312809 46.766651 -0.813224
endloop
endfacet
facet normal -0.992077 -0.125628 0.000000
outer loop
vertex 2.246403 42.294495 -8.903390
vertex 1.680086 46.766651 -5.813264
vertex 1.680086 46.766651 -11.993516
endloop
endfacet
facet normal -0.306569 -0.125629 -0.943522
outer loop
vertex 8.426784 42.294453 -17.409882
vertex 5.312809 46.766651 -16.993557
vertex 11.190663 46.766651 -18.903389
endloop
endfacet
facet normal 0.802609 -0.125628 -0.583126
outer loop
vertex 18.426737 42.294456 -14.160643
vertex 17.068518 46.766651 -16.993557
vertex 20.701241 46.766651 -11.993516
endloop
endfacet
facet normal 0.408946 0.661698 0.628425
outer loop
vertex 13.954543 51.238850 -0.396897
vertex 18.072556 52.024014 -3.903421
vertex 12.815219 55.273193 -3.903438
endloop
endfacet
facet normal -0.471299 0.661699 0.583122
outer loop
vertex 3.954590 51.238846 -3.646137
vertex 8.561975 52.024025 -0.813275
vertex 6.937437 55.273193 -5.813276
endloop
endfacet
facet normal -0.700224 0.661699 -0.268032
outer loop
vertex 3.954590 51.238846 -14.160643
vertex 2.684186 52.024010 -8.903390
vertex 6.937437 55.273193 -11.993504
endloop
endfacet
facet normal 0.038530 0.661700 -0.748778
outer loop
vertex 13.954543 51.238850 -17.409882
vertex 8.561975 52.024025 -16.993504
vertex 12.815219 55.273193 -13.903342
endloop
endfacet
facet normal 0.724041 0.661696 -0.194737
outer loop
vertex 20.134924 51.238808 -8.903390
vertex 18.072556 52.024014 -13.903358
vertex 16.447960 55.273167 -8.903390
endloop
endfacet
facet normal 0.268034 0.943523 -0.194738
outer loop
vertex 16.447960 55.273167 -8.903390
vertex 12.815219 55.273193 -13.903342
vertex 11.190663 56.766651 -8.903390
endloop
endfacet
facet normal 0.491120 0.794657 -0.356821
outer loop
vertex 16.447960 55.273167 -8.903390
vertex 18.072556 52.024014 -13.903358
vertex 12.815219 55.273193 -13.903342
endloop
endfacet
facet normal 0.408946 0.661699 -0.628425
outer loop
vertex 18.072556 52.024014 -13.903358
vertex 13.954543 51.238850 -17.409882
vertex 12.815219 55.273193 -13.903342
endloop
endfacet
facet normal -0.102381 0.943523 -0.315090
outer loop
vertex 12.815219 55.273193 -13.903342
vertex 6.937437 55.273193 -11.993504
vertex 11.190663 56.766651 -8.903390
endloop
endfacet
facet normal -0.187594 0.794657 -0.577346
outer loop
vertex 12.815219 55.273193 -13.903342
vertex 8.561975 52.024025 -16.993504
vertex 6.937437 55.273193 -11.993504
endloop
endfacet
facet normal -0.471300 0.661699 -0.583122
outer loop
vertex 8.561975 52.024025 -16.993504
vertex 3.954590 51.238846 -14.160643
vertex 6.937437 55.273193 -11.993504
endloop
endfacet
facet normal -0.331304 0.943524 0.000000
outer loop
vertex 6.937437 55.273193 -11.993504
vertex 6.937437 55.273193 -5.813276
vertex 11.190663 56.766651 -8.903390
endloop
endfacet
facet normal -0.607061 0.794655 0.000000
outer loop
vertex 6.937437 55.273193 -11.993504
vertex 2.684186 52.024010 -8.903390
vertex 6.937437 55.273193 -5.813276
endloop
endfacet
facet normal -0.700224 0.661699 0.268032
outer loop
vertex 2.684186 52.024010 -8.903390
vertex 3.954590 51.238846 -3.646137
vertex 6.937437 55.273193 -5.813276
endloop
endfacet
facet normal -0.102381 0.943523 0.315090
outer loop
vertex 6.937437 55.273193 -5.813276
vertex 12.815219 55.273193 -3.903438
vertex 11.190663 56.766651 -8.903390
endloop
endfacet
facet normal -0.187594 0.794658 0.577345
outer loop
vertex 6.937437 55.273193 -5.813276
vertex 8.561975 52.024025 -0.813275
vertex 12.815219 55.273193 -3.903438
endloop
endfacet
facet normal 0.038530 0.661700 0.748778
outer loop
vertex 8.561975 52.024025 -0.813275
vertex 13.954543 51.238850 -0.396897
vertex 12.815219 55.273193 -3.903438
endloop
endfacet
facet normal 0.268034 0.943522 0.194739
outer loop
vertex 12.815219 55.273193 -3.903438
vertex 16.447960 55.273167 -8.903390
vertex 11.190663 56.766651 -8.903390
endloop
endfacet
facet normal 0.491119 0.794658 0.356821
outer loop
vertex 12.815219 55.273193 -3.903438
vertex 18.072556 52.024014 -3.903421
vertex 16.447960 55.273167 -8.903390
endloop
endfacet
facet normal 0.724042 0.661696 0.194737
outer loop
vertex 18.072556 52.024014 -3.903421
vertex 20.134924 51.238808 -8.903390
vertex 16.447960 55.273167 -8.903390
endloop
endfacet
facet normal 0.889697 0.330385 -0.315094
outer loop
vertex 20.701241 46.766651 -11.993516
vertex 18.072556 52.024014 -13.903358
vertex 20.134924 51.238808 -8.903390
endloop
endfacet
facet normal 0.794656 0.187596 -0.577348
outer loop
vertex 20.701241 46.766651 -11.993516
vertex 17.068518 46.766651 -16.993557
vertex 18.072556 52.024014 -13.903358
endloop
endfacet
facet normal 0.574602 0.330388 -0.748783
outer loop
vertex 17.068518 46.766651 -16.993557
vertex 13.954543 51.238850 -17.409882
vertex 18.072556 52.024014 -13.903358
endloop
endfacet
facet normal -0.024747 0.330387 -0.943521
outer loop
vertex 11.190663 46.766651 -18.903389
vertex 8.561975 52.024025 -16.993504
vertex 13.954543 51.238850 -17.409882
endloop
endfacet
facet normal -0.303531 0.187598 -0.934171
outer loop
vertex 11.190663 46.766651 -18.903389
vertex 5.312809 46.766651 -16.993557
vertex 8.561975 52.024025 -16.993504
endloop
endfacet
facet normal -0.534576 0.330387 -0.777865
outer loop
vertex 5.312809 46.766651 -16.993557
vertex 3.954590 51.238846 -14.160643
vertex 8.561975 52.024025 -16.993504
endloop
endfacet
facet normal -0.904989 0.330384 -0.268031
outer loop
vertex 1.680086 46.766651 -11.993516
vertex 2.684186 52.024010 -8.903390
vertex 3.954590 51.238846 -14.160643
endloop
endfacet
facet normal -0.982246 0.187599 0.000000
outer loop
vertex 1.680086 46.766651 -11.993516
vertex 1.680086 46.766651 -5.813264
vertex 2.684186 52.024010 -8.903390
endloop
endfacet
facet normal -0.904989 0.330384 0.268031
outer loop
vertex 1.680086 46.766651 -5.813264
vertex 3.954590 51.238846 -3.646137
vertex 2.684186 52.024010 -8.903390
endloop
endfacet
facet normal -0.534576 0.330387 0.777864
outer loop
vertex 5.312809 46.766651 -0.813224
vertex 8.561975 52.024025 -0.813275
vertex 3.954590 51.238846 -3.646137
endloop
endfacet
facet normal -0.303531 0.187597 0.934171
outer loop
vertex 5.312809 46.766651 -0.813224
vertex 11.190663 46.766651 1.096609
vertex 8.561975 52.024025 -0.813275
endloop
endfacet
facet normal -0.024747 0.330387 0.943521
outer loop
vertex 11.190663 46.766651 1.096609
vertex 13.954543 51.238850 -0.396897
vertex 8.561975 52.024025 -0.813275
endloop
endfacet
facet normal 0.574602 0.330388 0.748783
outer loop
vertex 17.068518 46.766651 -0.813224
vertex 18.072556 52.024014 -3.903421
vertex 13.954543 51.238850 -0.396897
endloop
endfacet
facet normal 0.794656 0.187595 0.577348
outer loop
vertex 17.068518 46.766651 -0.813224
vertex 20.701241 46.766651 -5.813264
vertex 18.072556 52.024014 -3.903421
endloop
endfacet
facet normal 0.889697 0.330385 0.315094
outer loop
vertex 20.701241 46.766651 -5.813264
vertex 20.134924 51.238808 -8.903390
vertex 18.072556 52.024014 -3.903421
endloop
endfacet
facet normal 0.306569 0.125629 -0.943522
outer loop
vertex 17.068518 46.766651 -16.993557
vertex 11.190663 46.766651 -18.903389
vertex 13.954543 51.238850 -17.409882
endloop
endfacet
facet normal 0.303531 -0.187598 -0.934171
outer loop
vertex 17.068518 46.766651 -16.993557
vertex 13.819351 41.509277 -16.993504
vertex 11.190663 46.766651 -18.903389
endloop
endfacet
facet normal 0.024747 -0.330386 -0.943521
outer loop
vertex 13.819351 41.509277 -16.993504
vertex 8.426784 42.294453 -17.409882
vertex 11.190663 46.766651 -18.903389
endloop
endfacet
facet normal -0.802609 0.125627 -0.583126
outer loop
vertex 5.312809 46.766651 -16.993557
vertex 1.680086 46.766651 -11.993516
vertex 3.954590 51.238846 -14.160643
endloop
endfacet
facet normal -0.794656 -0.187595 -0.577348
outer loop
vertex 5.312809 46.766651 -16.993557
vertex 4.308771 41.509289 -13.903358
vertex 1.680086 46.766651 -11.993516
endloop
endfacet
facet normal -0.889697 -0.330385 -0.315094
outer loop
vertex 4.308771 41.509289 -13.903358
vertex 2.246403 42.294495 -8.903390
vertex 1.680086 46.766651 -11.993516
endloop
endfacet
facet normal -0.802609 0.125627 0.583126
outer loop
vertex 1.680086 46.766651 -5.813264
vertex 5.312809 46.766651 -0.813224
vertex 3.954590 51.238846 -3.646137
endloop
endfacet
facet normal -0.794656 -0.187595 0.577348
outer loop
vertex 1.680086 46.766651 -5.813264
vertex 4.308771 41.509289 -3.903421
vertex 5.312809 46.766651 -0.813224
endloop
endfacet
facet normal -0.574602 -0.330387 0.748783
outer loop
vertex 4.308771 41.509289 -3.903421
vertex 8.426784 42.294453 -0.396897
vertex 5.312809 46.766651 -0.813224
endloop
endfacet
facet normal 0.306569 0.125629 0.943522
outer loop
vertex 11.190663 46.766651 1.096609
vertex 17.068518 46.766651 -0.813224
vertex 13.954543 51.238850 -0.396897
endloop
endfacet
facet normal 0.303531 -0.187598 0.934171
outer loop
vertex 11.190663 46.766651 1.096609
vertex 13.819351 41.509277 -0.813275
vertex 17.068518 46.766651 -0.813224
endloop
endfacet
facet normal 0.534576 -0.330387 0.777865
outer loop
vertex 13.819351 41.509277 -0.813275
vertex 18.426737 42.294456 -3.646137
vertex 17.068518 46.766651 -0.813224
endloop
endfacet
facet normal 0.992077 0.125628 0.000000
outer loop
vertex 20.701241 46.766651 -5.813264
vertex 20.701241 46.766651 -11.993516
vertex 20.134924 51.238808 -8.903390
endloop
endfacet
facet normal 0.982246 -0.187599 0.000000
outer loop
vertex 20.701241 46.766651 -5.813264
vertex 19.697140 41.509293 -8.903390
vertex 20.701241 46.766651 -11.993516
endloop
endfacet
facet normal 0.904989 -0.330384 -0.268032
outer loop
vertex 19.697140 41.509293 -8.903390
vertex 18.426737 42.294456 -14.160643
vertex 20.701241 46.766651 -11.993516
endloop
endfacet
facet normal 0.471300 -0.661699 -0.583122
outer loop
vertex 15.443890 38.260109 -11.993504
vertex 13.819351 41.509277 -16.993504
vertex 18.426737 42.294456 -14.160643
endloop
endfacet
facet normal 0.187594 -0.794657 -0.577346
outer loop
vertex 15.443890 38.260109 -11.993504
vertex 9.566108 38.260109 -13.903342
vertex 13.819351 41.509277 -16.993504
endloop
endfacet
facet normal -0.038530 -0.661700 -0.748778
outer loop
vertex 9.566108 38.260109 -13.903342
vertex 8.426784 42.294453 -17.409882
vertex 13.819351 41.509277 -16.993504
endloop
endfacet
facet normal -0.408945 -0.661698 -0.628426
outer loop
vertex 9.566108 38.260109 -13.903342
vertex 4.308771 41.509289 -13.903358
vertex 8.426784 42.294453 -17.409882
endloop
endfacet
facet normal -0.491120 -0.794658 -0.356820
outer loop
vertex 9.566108 38.260109 -13.903342
vertex 5.933366 38.260136 -8.903390
vertex 4.308771 41.509289 -13.903358
endloop
endfacet
facet normal -0.724042 -0.661696 -0.194737
outer loop
vertex 5.933366 38.260136 -8.903390
vertex 2.246403 42.294495 -8.903390
vertex 4.308771 41.509289 -13.903358
endloop
endfacet
facet normal -0.724042 -0.661695 0.194737
outer loop
vertex 5.933366 38.260136 -8.903390
vertex 4.308771 41.509289 -3.903421
vertex 2.246403 42.294495 -8.903390
endloop
endfacet
facet normal -0.491120 -0.794658 0.356820
outer loop
vertex 5.933366 38.260136 -8.903390
vertex 9.566108 38.260109 -3.903438
vertex 4.308771 41.509289 -3.903421
endloop
endfacet
facet normal -0.408946 -0.661698 0.628426
outer loop
vertex 9.566108 38.260109 -3.903438
vertex 8.426784 42.294453 -0.396897
vertex 4.308771 41.509289 -3.903421
endloop
endfacet
facet normal 0.700224 -0.661699 -0.268032
outer loop
vertex 19.697140 41.509293 -8.903390
vertex 15.443890 38.260109 -11.993504
vertex 18.426737 42.294456 -14.160643
endloop
endfacet
facet normal 0.607061 -0.794656 0.000000
outer loop
vertex 19.697140 41.509293 -8.903390
vertex 15.443890 38.260109 -5.813276
vertex 15.443890 38.260109 -11.993504
endloop
endfacet
facet normal 0.331304 -0.943524 0.000000
outer loop
vertex 15.443890 38.260109 -5.813276
vertex 11.190663 36.766651 -8.903390
vertex 15.443890 38.260109 -11.993504
endloop
endfacet
facet normal -0.038530 -0.661700 0.748778
outer loop
vertex 9.566108 38.260109 -3.903438
vertex 13.819351 41.509277 -0.813275
vertex 8.426784 42.294453 -0.396897
endloop
endfacet
facet normal 0.187594 -0.794657 0.577346
outer loop
vertex 9.566108 38.260109 -3.903438
vertex 15.443890 38.260109 -5.813276
vertex 13.819351 41.509277 -0.813275
endloop
endfacet
facet normal 0.471300 -0.661699 0.583122
outer loop
vertex 15.443890 38.260109 -5.813276
vertex 18.426737 42.294456 -3.646137
vertex 13.819351 41.509277 -0.813275
endloop
endfacet
endsolid Exported from Blender-2.74 (sub 0)
