solid Exported from Blender-2.74 (sub 0)
facet normal 0.102381 -0.943523 0.315090
outer loop
vertex -8.282006 28.789101 12.121871
vertex -4.028780 30.282560 15.211985
vertex -9.906562 30.282558 17.121822
endloop
endfacet
facet normal 0.700224 -0.661699 0.268032
outer loop
vertex -1.045933 34.316906 17.379124
vertex -4.028780 30.282560 15.211985
vertex 0.224471 33.531742 12.121871
endloop
endfacet
facet normal -0.268035 -0.943523 0.194736
outer loop
vertex -8.282006 28.789101 12.121871
vertex -9.906562 30.282558 17.121822
vertex -13.539303 30.282585 12.121871
endloop
endfacet
facet normal -0.268034 -0.943523 -0.194736
outer loop
vertex -8.282006 28.789101 12.121871
vertex -13.539303 30.282585 12.121871
vertex -9.906562 30.282558 7.121919
endloop
endfacet
facet normal 0.102381 -0.943523 -0.315090
outer loop
vertex -8.282006 28.789101 12.121871
vertex -9.906562 30.282558 7.121919
vertex -4.028780 30.282560 9.031757
endloop
endfacet
facet normal 0.904989 -0.330384 0.268031
outer loop
vertex -1.045933 34.316906 17.379124
vertex 0.224471 33.531742 12.121871
vertex 1.228571 38.789101 15.211997
endloop
endfacet
facet normal 0.024747 -0.330386 0.943521
outer loop
vertex -11.045886 34.316902 20.628365
vertex -5.653318 33.531723 20.211987
vertex -8.282006 38.789101 22.121870
endloop
endfacet
facet normal -0.889697 -0.330385 0.315095
outer loop
vertex -17.226267 34.316944 12.121871
vertex -15.163898 33.531738 17.121840
vertex -17.792583 38.789101 15.211997
endloop
endfacet
facet normal -0.574602 -0.330387 -0.748783
outer loop
vertex -11.045886 34.316902 3.615378
vertex -15.163898 33.531738 7.121902
vertex -14.159861 38.789101 4.031705
endloop
endfacet
facet normal 0.534576 -0.330387 -0.777864
outer loop
vertex -1.045933 34.316906 6.864618
vertex -5.653318 33.531723 4.031756
vertex -2.404151 38.789101 4.031705
endloop
endfacet
facet normal 0.802608 -0.125627 0.583127
outer loop
vertex -1.045933 34.316906 17.379124
vertex 1.228571 38.789101 15.211997
vertex -2.404151 38.789101 20.212036
endloop
endfacet
facet normal -0.306569 -0.125628 0.943521
outer loop
vertex -11.045886 34.316902 20.628365
vertex -8.282006 38.789101 22.121870
vertex -14.159861 38.789101 20.212036
endloop
endfacet
facet normal -0.992077 -0.125628 0.000000
outer loop
vertex -17.226267 34.316944 12.121871
vertex -17.792583 38.789101 15.211997
vertex -17.792583 38.789101 9.031745
endloop
endfacet
facet normal -0.306569 -0.125628 -0.943522
outer loop
vertex -11.045886 34.316902 3.615378
vertex -14.159861 38.789101 4.031705
vertex -8.282006 38.789101 2.121872
endloop
endfacet
facet normal 0.802608 -0.125627 -0.583127
outer loop
vertex -1.045933 34.316906 6.864618
vertex -2.404151 38.789101 4.031705
vertex 1.228571 38.789101 9.031745
endloop
endfacet
facet normal 0.408947 0.661699 0.628424
outer loop
vertex -5.518126 43.261299 20.628365
vertex -1.400114 44.046463 17.121840
vertex -6.657451 47.295643 17.121822
endloop
endfacet
facet normal -0.471300 0.661699 0.583122
outer loop
vertex -15.518080 43.261295 17.379124
vertex -10.910694 44.046478 20.211987
vertex -12.535233 47.295639 15.211985
endloop
endfacet
facet normal -0.700224 0.661699 -0.268032
outer loop
vertex -15.518080 43.261295 6.864618
vertex -16.788483 44.046459 12.121871
vertex -12.535233 47.295639 9.031757
endloop
endfacet
facet normal 0.038530 0.661699 -0.748779
outer loop
vertex -5.518126 43.261299 3.615378
vertex -10.910694 44.046478 4.031756
vertex -6.657451 47.295643 7.121919
endloop
endfacet
facet normal 0.724042 0.661696 -0.194736
outer loop
vertex 0.662254 43.261257 12.121871
vertex -1.400114 44.046463 7.121902
vertex -3.024709 47.295616 12.121871
endloop
endfacet
facet normal 0.268034 0.943523 -0.194736
outer loop
vertex -3.024709 47.295616 12.121871
vertex -6.657451 47.295643 7.121919
vertex -8.282006 48.789101 12.121871
endloop
endfacet
facet normal 0.491119 0.794657 -0.356822
outer loop
vertex -3.024709 47.295616 12.121871
vertex -1.400114 44.046463 7.121902
vertex -6.657451 47.295643 7.121919
endloop
endfacet
facet normal 0.408946 0.661699 -0.628425
outer loop
vertex -1.400114 44.046463 7.121902
vertex -5.518126 43.261299 3.615378
vertex -6.657451 47.295643 7.121919
endloop
endfacet
facet normal -0.102381 0.943523 -0.315092
outer loop
vertex -6.657451 47.295643 7.121919
vertex -12.535233 47.295639 9.031757
vertex -8.282006 48.789101 12.121871
endloop
endfacet
facet normal -0.187595 0.794658 -0.577344
outer loop
vertex -6.657451 47.295643 7.121919
vertex -10.910694 44.046478 4.031756
vertex -12.535233 47.295639 9.031757
endloop
endfacet
facet normal -0.471299 0.661699 -0.583122
outer loop
vertex -10.910694 44.046478 4.031756
vertex -15.518080 43.261295 6.864618
vertex -12.535233 47.295639 9.031757
endloop
endfacet
facet normal -0.331305 0.943524 0.000000
outer loop
vertex -12.535233 47.295639 9.031757
vertex -12.535233 47.295639 15.211985
vertex -8.282006 48.789101 12.121871
endloop
endfacet
facet normal -0.607060 0.794656 0.000000
outer loop
vertex -12.535233 47.295639 9.031757
vertex -16.788483 44.046459 12.121871
vertex -12.535233 47.295639 15.211985
endloop
endfacet
facet normal -0.700224 0.661699 0.268032
outer loop
vertex -16.788483 44.046459 12.121871
vertex -15.518080 43.261295 17.379124
vertex -12.535233 47.295639 15.211985
endloop
endfacet
facet normal -0.102381 0.943523 0.315092
outer loop
vertex -12.535233 47.295639 15.211985
vertex -6.657451 47.295643 17.121822
vertex -8.282006 48.789101 12.121871
endloop
endfacet
facet normal -0.187594 0.794659 0.577344
outer loop
vertex -12.535233 47.295639 15.211985
vertex -10.910694 44.046478 20.211987
vertex -6.657451 47.295643 17.121822
endloop
endfacet
facet normal 0.038530 0.661699 0.748779
outer loop
vertex -10.910694 44.046478 20.211987
vertex -5.518126 43.261299 20.628365
vertex -6.657451 47.295643 17.121822
endloop
endfacet
facet normal 0.268035 0.943523 0.194735
outer loop
vertex -6.657451 47.295643 17.121822
vertex -3.024709 47.295616 12.121871
vertex -8.282006 48.789101 12.121871
endloop
endfacet
facet normal 0.491119 0.794657 0.356822
outer loop
vertex -6.657451 47.295643 17.121822
vertex -1.400114 44.046463 17.121840
vertex -3.024709 47.295616 12.121871
endloop
endfacet
facet normal 0.724042 0.661696 0.194736
outer loop
vertex -1.400114 44.046463 17.121840
vertex 0.662254 43.261257 12.121871
vertex -3.024709 47.295616 12.121871
endloop
endfacet
facet normal 0.889697 0.330385 -0.315095
outer loop
vertex 1.228571 38.789101 9.031745
vertex -1.400114 44.046463 7.121902
vertex 0.662254 43.261257 12.121871
endloop
endfacet
facet normal 0.794656 0.187595 -0.577348
outer loop
vertex 1.228571 38.789101 9.031745
vertex -2.404151 38.789101 4.031705
vertex -1.400114 44.046463 7.121902
endloop
endfacet
facet normal 0.574602 0.330388 -0.748783
outer loop
vertex -2.404151 38.789101 4.031705
vertex -5.518126 43.261299 3.615378
vertex -1.400114 44.046463 7.121902
endloop
endfacet
facet normal -0.024747 0.330386 -0.943521
outer loop
vertex -8.282006 38.789101 2.121872
vertex -10.910694 44.046478 4.031756
vertex -5.518126 43.261299 3.615378
endloop
endfacet
facet normal -0.303531 0.187598 -0.934171
outer loop
vertex -8.282006 38.789101 2.121872
vertex -14.159861 38.789101 4.031705
vertex -10.910694 44.046478 4.031756
endloop
endfacet
facet normal -0.534576 0.330386 -0.777865
outer loop
vertex -14.159861 38.789101 4.031705
vertex -15.518080 43.261295 6.864618
vertex -10.910694 44.046478 4.031756
endloop
endfacet
facet normal -0.904989 0.330384 -0.268031
outer loop
vertex -17.792583 38.789101 9.031745
vertex -16.788483 44.046459 12.121871
vertex -15.518080 43.261295 6.864618
endloop
endfacet
facet normal -0.982246 0.187599 0.000000
outer loop
vertex -17.792583 38.789101 9.031745
vertex -17.792583 38.789101 15.211997
vertex -16.788483 44.046459 12.121871
endloop
endfacet
facet normal -0.904989 0.330384 0.268031
outer loop
vertex -17.792583 38.789101 15.211997
vertex -15.518080 43.261295 17.379124
vertex -16.788483 44.046459 12.121871
endloop
endfacet
facet normal -0.534576 0.330386 0.777865
outer loop
vertex -14.159861 38.789101 20.212036
vertex -10.910694 44.046478 20.211987
vertex -15.518080 43.261295 17.379124
endloop
endfacet
facet normal -0.303531 0.187598 0.934171
outer loop
vertex -14.159861 38.789101 20.212036
vertex -8.282006 38.789101 22.121870
vertex -10.910694 44.046478 20.211987
endloop
endfacet
facet normal -0.024747 0.330386 0.943521
outer loop
vertex -8.282006 38.789101 22.121870
vertex -5.518126 43.261299 20.628365
vertex -10.910694 44.046478 20.211987
endloop
endfacet
facet normal 0.574602 0.330387 0.748783
outer loop
vertex -2.404151 38.789101 20.212036
vertex -1.400114 44.046463 17.121840
vertex -5.518126 43.261299 20.628365
endloop
endfacet
facet normal 0.794656 0.187595 0.577348
outer loop
vertex -2.404151 38.789101 20.212036
vertex 1.228571 38.789101 15.211997
vertex -1.400114 44.046463 17.121840
endloop
endfacet
facet normal 0.889697 0.330385 0.315095
outer loop
vertex 1.228571 38.789101 15.211997
vertex 0.662254 43.261257 12.121871
vertex -1.400114 44.046463 17.121840
endloop
endfacet
facet normal 0.306569 0.125628 -0.943522
outer loop
vertex -2.404151 38.789101 4.031705
vertex -8.282006 38.789101 2.121872
vertex -5.518126 43.261299 3.615378
endloop
endfacet
facet normal 0.303531 -0.187598 -0.934171
outer loop
vertex -2.404151 38.789101 4.031705
vertex -5.653318 33.531723 4.031756
vertex -8.282006 38.789101 2.121872
endloop
endfacet
facet normal 0.024747 -0.330386 -0.943521
outer loop
vertex -5.653318 33.531723 4.031756
vertex -11.045886 34.316902 3.615378
vertex -8.282006 38.789101 2.121872
endloop
endfacet
facet normal -0.802609 0.125627 -0.583127
outer loop
vertex -14.159861 38.789101 4.031705
vertex -17.792583 38.789101 9.031745
vertex -15.518080 43.261295 6.864618
endloop
endfacet
facet normal -0.794656 -0.187595 -0.577348
outer loop
vertex -14.159861 38.789101 4.031705
vertex -15.163898 33.531738 7.121902
vertex -17.792583 38.789101 9.031745
endloop
endfacet
facet normal -0.889697 -0.330385 -0.315095
outer loop
vertex -15.163898 33.531738 7.121902
vertex -17.226267 34.316944 12.121871
vertex -17.792583 38.789101 9.031745
endloop
endfacet
facet normal -0.802609 0.125627 0.583127
outer loop
vertex -17.792583 38.789101 15.211997
vertex -14.159861 38.789101 20.212036
vertex -15.518080 43.261295 17.379124
endloop
endfacet
facet normal -0.794656 -0.187595 0.577348
outer loop
vertex -17.792583 38.789101 15.211997
vertex -15.163898 33.531738 17.121840
vertex -14.159861 38.789101 20.212036
endloop
endfacet
facet normal -0.574602 -0.330387 0.748783
outer loop
vertex -15.163898 33.531738 17.121840
vertex -11.045886 34.316902 20.628365
vertex -14.159861 38.789101 20.212036
endloop
endfacet
facet normal 0.306570 0.125628 0.943521
outer loop
vertex -8.282006 38.789101 22.121870
vertex -2.404151 38.789101 20.212036
vertex -5.518126 43.261299 20.628365
endloop
endfacet
facet normal 0.303531 -0.187597 0.934171
outer loop
vertex -8.282006 38.789101 22.121870
vertex -5.653318 33.531723 20.211987
vertex -2.404151 38.789101 20.212036
endloop
endfacet
facet normal 0.534576 -0.330387 0.777864
outer loop
vertex -5.653318 33.531723 20.211987
vertex -1.045933 34.316906 17.379124
vertex -2.404151 38.789101 20.212036
endloop
endfacet
facet normal 0.992077 0.125628 0.000000
outer loop
vertex 1.228571 38.789101 15.211997
vertex 1.228571 38.789101 9.031745
vertex 0.662254 43.261257 12.121871
endloop
endfacet
facet normal 0.982246 -0.187599 0.000000
outer loop
vertex 1.228571 38.789101 15.211997
vertex 0.224471 33.531742 12.121871
vertex 1.228571 38.789101 9.031745
endloop
endfacet
facet normal 0.904989 -0.330384 -0.268031
outer loop
vertex 0.224471 33.531742 12.121871
vertex -1.045933 34.316906 6.864618
vertex 1.228571 38.789101 9.031745
endloop
endfacet
facet normal 0.471300 -0.661698 -0.583123
outer loop
vertex -4.028780 30.282560 9.031757
vertex -5.653318 33.531723 4.031756
vertex -1.045933 34.316906 6.864618
endloop
endfacet
facet normal 0.187594 -0.794658 -0.577345
outer loop
vertex -4.028780 30.282560 9.031757
vertex -9.906562 30.282558 7.121919
vertex -5.653318 33.531723 4.031756
endloop
endfacet
facet normal -0.038530 -0.661699 -0.748779
outer loop
vertex -9.906562 30.282558 7.121919
vertex -11.045886 34.316902 3.615378
vertex -5.653318 33.531723 4.031756
endloop
endfacet
facet normal -0.408946 -0.661698 -0.628425
outer loop
vertex -9.906562 30.282558 7.121919
vertex -15.163898 33.531738 7.121902
vertex -11.045886 34.316902 3.615378
endloop
endfacet
facet normal -0.491119 -0.794657 -0.356821
outer loop
vertex -9.906562 30.282558 7.121919
vertex -13.539303 30.282585 12.121871
vertex -15.163898 33.531738 7.121902
endloop
endfacet
facet normal -0.724042 -0.661696 -0.194735
outer loop
vertex -13.539303 30.282585 12.121871
vertex -17.226267 34.316944 12.121871
vertex -15.163898 33.531738 7.121902
endloop
endfacet
facet normal -0.724042 -0.661696 0.194735
outer loop
vertex -13.539303 30.282585 12.121871
vertex -15.163898 33.531738 17.121840
vertex -17.226267 34.316944 12.121871
endloop
endfacet
facet normal -0.491119 -0.794658 0.356821
outer loop
vertex -13.539303 30.282585 12.121871
vertex -9.906562 30.282558 17.121822
vertex -15.163898 33.531738 17.121840
endloop
endfacet
facet normal -0.408946 -0.661698 0.628425
outer loop
vertex -9.906562 30.282558 17.121822
vertex -11.045886 34.316902 20.628365
vertex -15.163898 33.531738 17.121840
endloop
endfacet
facet normal 0.700224 -0.661699 -0.268032
outer loop
vertex 0.224471 33.531742 12.121871
vertex -4.028780 30.282560 9.031757
vertex -1.045933 34.316906 6.864618
endloop
endfacet
facet normal 0.607060 -0.794656 0.000000
outer loop
vertex 0.224471 33.531742 12.121871
vertex -4.028780 30.282560 15.211985
vertex -4.028780 30.282560 9.031757
endloop
endfacet
facet normal 0.331305 -0.943524 0.000000
outer loop
vertex -4.028780 30.282560 15.211985
vertex -8.282006 28.789101 12.121871
vertex -4.028780 30.282560 9.031757
endloop
endfacet
facet normal -0.038530 -0.661699 0.748779
outer loop
vertex -9.906562 30.282558 17.121822
vertex -5.653318 33.531723 20.211987
vertex -11.045886 34.316902 20.628365
endloop
endfacet
facet normal 0.187594 -0.794658 0.577345
outer loop
vertex -9.906562 30.282558 17.121822
vertex -4.028780 30.282560 15.211985
vertex -5.653318 33.531723 20.211987
endloop
endfacet
facet normal 0.471299 -0.661699 0.583123
outer loop
vertex -4.028780 30.282560 15.211985
vertex -1.045933 34.316906 17.379124
vertex -5.653318 33.531723 20.211987
endloop
endfacet
endsolid Exported from Blender-2.74 (sub 0)
