solid Exported from Blender-2.74 (sub 0)
facet normal 0.102381 -0.943523 0.315092
outer loop
vertex -15.371862 36.333969 1.710893
vertex -11.118636 37.827431 4.801007
vertex -16.996418 37.827427 6.710846
endloop
endfacet
facet normal 0.700224 -0.661699 0.268032
outer loop
vertex -8.135790 41.861774 6.968146
vertex -11.118636 37.827431 4.801007
vertex -6.865385 41.076611 1.710893
endloop
endfacet
facet normal -0.268034 -0.943523 0.194736
outer loop
vertex -15.371862 36.333969 1.710893
vertex -16.996418 37.827427 6.710846
vertex -20.629160 37.827454 1.710893
endloop
endfacet
facet normal -0.268034 -0.943523 -0.194736
outer loop
vertex -15.371862 36.333969 1.710893
vertex -20.629160 37.827454 1.710893
vertex -16.996418 37.827427 -3.289059
endloop
endfacet
facet normal 0.102381 -0.943523 -0.315092
outer loop
vertex -15.371862 36.333969 1.710893
vertex -16.996418 37.827427 -3.289059
vertex -11.118636 37.827431 -1.379220
endloop
endfacet
facet normal 0.904989 -0.330384 0.268031
outer loop
vertex -8.135790 41.861774 6.968146
vertex -6.865385 41.076611 1.710893
vertex -5.861285 46.333969 4.801020
endloop
endfacet
facet normal 0.024747 -0.330386 0.943521
outer loop
vertex -18.135742 41.861771 10.217386
vertex -12.743175 41.076591 9.801008
vertex -15.371862 46.333969 11.710893
endloop
endfacet
facet normal -0.889697 -0.330385 0.315095
outer loop
vertex -24.316124 41.861813 1.710893
vertex -22.253754 41.076607 6.710862
vertex -24.882439 46.333969 4.801020
endloop
endfacet
facet normal -0.574602 -0.330388 -0.748783
outer loop
vertex -18.135742 41.861771 -6.795599
vertex -22.253754 41.076607 -3.289075
vertex -21.249718 46.333969 -6.379272
endloop
endfacet
facet normal 0.534576 -0.330387 -0.777864
outer loop
vertex -8.135790 41.861774 -3.546360
vertex -12.743175 41.076591 -6.379221
vertex -9.494007 46.333969 -6.379272
endloop
endfacet
facet normal 0.802609 -0.125627 0.583127
outer loop
vertex -8.135790 41.861774 6.968146
vertex -5.861285 46.333969 4.801020
vertex -9.494007 46.333969 9.801060
endloop
endfacet
facet normal -0.306569 -0.125628 0.943522
outer loop
vertex -18.135742 41.861771 10.217386
vertex -15.371862 46.333969 11.710893
vertex -21.249718 46.333969 9.801060
endloop
endfacet
facet normal -0.992077 -0.125628 0.000000
outer loop
vertex -24.316124 41.861813 1.710893
vertex -24.882439 46.333969 4.801020
vertex -24.882439 46.333969 -1.379233
endloop
endfacet
facet normal -0.306569 -0.125628 -0.943522
outer loop
vertex -18.135742 41.861771 -6.795599
vertex -21.249718 46.333969 -6.379272
vertex -15.371862 46.333969 -8.289105
endloop
endfacet
facet normal 0.802609 -0.125627 -0.583127
outer loop
vertex -8.135790 41.861774 -3.546360
vertex -9.494007 46.333969 -6.379272
vertex -5.861285 46.333969 -1.379233
endloop
endfacet
facet normal 0.408946 0.661698 0.628426
outer loop
vertex -12.607983 50.806168 10.217386
vertex -8.489970 51.591331 6.710862
vertex -13.747307 54.840511 6.710846
endloop
endfacet
facet normal -0.471299 0.661699 0.583122
outer loop
vertex -22.607935 50.806164 6.968146
vertex -18.000549 51.591347 9.801008
vertex -19.625088 54.840508 4.801007
endloop
endfacet
facet normal -0.700223 0.661700 -0.268032
outer loop
vertex -22.607935 50.806164 -3.546360
vertex -23.878340 51.591328 1.710893
vertex -19.625088 54.840508 -1.379220
endloop
endfacet
facet normal 0.038530 0.661699 -0.748779
outer loop
vertex -12.607983 50.806168 -6.795599
vertex -18.000549 51.591347 -6.379221
vertex -13.747307 54.840511 -3.289059
endloop
endfacet
facet normal 0.724042 0.661696 -0.194735
outer loop
vertex -6.427602 50.806126 1.710893
vertex -8.489970 51.591331 -3.289075
vertex -10.114565 54.840485 1.710893
endloop
endfacet
facet normal 0.268035 0.943523 -0.194735
outer loop
vertex -10.114565 54.840485 1.710893
vertex -13.747307 54.840511 -3.289059
vertex -15.371862 56.333969 1.710893
endloop
endfacet
facet normal 0.491119 0.794658 -0.356821
outer loop
vertex -10.114565 54.840485 1.710893
vertex -8.489970 51.591331 -3.289075
vertex -13.747307 54.840511 -3.289059
endloop
endfacet
facet normal 0.408946 0.661698 -0.628425
outer loop
vertex -8.489970 51.591331 -3.289075
vertex -12.607983 50.806168 -6.795599
vertex -13.747307 54.840511 -3.289059
endloop
endfacet
facet normal -0.102381 0.943523 -0.315091
outer loop
vertex -13.747307 54.840511 -3.289059
vertex -19.625088 54.840508 -1.379220
vertex -15.371862 56.333969 1.710893
endloop
endfacet
facet normal -0.187594 0.794658 -0.577345
outer loop
vertex -13.747307 54.840511 -3.289059
vertex -18.000549 51.591347 -6.379221
vertex -19.625088 54.840508 -1.379220
endloop
endfacet
facet normal -0.471299 0.661699 -0.583123
outer loop
vertex -18.000549 51.591347 -6.379221
vertex -22.607935 50.806164 -3.546360
vertex -19.625088 54.840508 -1.379220
endloop
endfacet
facet normal -0.331305 0.943524 0.000000
outer loop
vertex -19.625088 54.840508 -1.379220
vertex -19.625088 54.840508 4.801007
vertex -15.371862 56.333969 1.710893
endloop
endfacet
facet normal -0.607060 0.794656 0.000000
outer loop
vertex -19.625088 54.840508 -1.379220
vertex -23.878340 51.591328 1.710893
vertex -19.625088 54.840508 4.801007
endloop
endfacet
facet normal -0.700224 0.661699 0.268032
outer loop
vertex -23.878340 51.591328 1.710893
vertex -22.607935 50.806164 6.968146
vertex -19.625088 54.840508 4.801007
endloop
endfacet
facet normal -0.102381 0.943523 0.315091
outer loop
vertex -19.625088 54.840508 4.801007
vertex -13.747307 54.840511 6.710846
vertex -15.371862 56.333969 1.710893
endloop
endfacet
facet normal -0.187594 0.794658 0.577345
outer loop
vertex -19.625088 54.840508 4.801007
vertex -18.000549 51.591347 9.801008
vertex -13.747307 54.840511 6.710846
endloop
endfacet
facet normal 0.038531 0.661699 0.748779
outer loop
vertex -18.000549 51.591347 9.801008
vertex -12.607983 50.806168 10.217386
vertex -13.747307 54.840511 6.710846
endloop
endfacet
facet normal 0.268034 0.943523 0.194736
outer loop
vertex -13.747307 54.840511 6.710846
vertex -10.114565 54.840485 1.710893
vertex -15.371862 56.333969 1.710893
endloop
endfacet
facet normal 0.491119 0.794657 0.356822
outer loop
vertex -13.747307 54.840511 6.710846
vertex -8.489970 51.591331 6.710862
vertex -10.114565 54.840485 1.710893
endloop
endfacet
facet normal 0.724042 0.661695 0.194736
outer loop
vertex -8.489970 51.591331 6.710862
vertex -6.427602 50.806126 1.710893
vertex -10.114565 54.840485 1.710893
endloop
endfacet
facet normal 0.889697 0.330385 -0.315095
outer loop
vertex -5.861285 46.333969 -1.379233
vertex -8.489970 51.591331 -3.289075
vertex -6.427602 50.806126 1.710893
endloop
endfacet
facet normal 0.794655 0.187595 -0.577348
outer loop
vertex -5.861285 46.333969 -1.379233
vertex -9.494007 46.333969 -6.379272
vertex -8.489970 51.591331 -3.289075
endloop
endfacet
facet normal 0.574602 0.330387 -0.748783
outer loop
vertex -9.494007 46.333969 -6.379272
vertex -12.607983 50.806168 -6.795599
vertex -8.489970 51.591331 -3.289075
endloop
endfacet
facet normal -0.024747 0.330387 -0.943521
outer loop
vertex -15.371862 46.333969 -8.289105
vertex -18.000549 51.591347 -6.379221
vertex -12.607983 50.806168 -6.795599
endloop
endfacet
facet normal -0.303531 0.187597 -0.934171
outer loop
vertex -15.371862 46.333969 -8.289105
vertex -21.249718 46.333969 -6.379272
vertex -18.000549 51.591347 -6.379221
endloop
endfacet
facet normal -0.534576 0.330387 -0.777864
outer loop
vertex -21.249718 46.333969 -6.379272
vertex -22.607935 50.806164 -3.546360
vertex -18.000549 51.591347 -6.379221
endloop
endfacet
facet normal -0.904989 0.330384 -0.268031
outer loop
vertex -24.882439 46.333969 -1.379233
vertex -23.878340 51.591328 1.710893
vertex -22.607935 50.806164 -3.546360
endloop
endfacet
facet normal -0.982246 0.187598 0.000000
outer loop
vertex -24.882439 46.333969 -1.379233
vertex -24.882439 46.333969 4.801020
vertex -23.878340 51.591328 1.710893
endloop
endfacet
facet normal -0.904989 0.330385 0.268031
outer loop
vertex -24.882439 46.333969 4.801020
vertex -22.607935 50.806164 6.968146
vertex -23.878340 51.591328 1.710893
endloop
endfacet
facet normal -0.534576 0.330387 0.777864
outer loop
vertex -21.249718 46.333969 9.801060
vertex -18.000549 51.591347 9.801008
vertex -22.607935 50.806164 6.968146
endloop
endfacet
facet normal -0.303531 0.187597 0.934171
outer loop
vertex -21.249718 46.333969 9.801060
vertex -15.371862 46.333969 11.710893
vertex -18.000549 51.591347 9.801008
endloop
endfacet
facet normal -0.024747 0.330387 0.943521
outer loop
vertex -15.371862 46.333969 11.710893
vertex -12.607983 50.806168 10.217386
vertex -18.000549 51.591347 9.801008
endloop
endfacet
facet normal 0.574602 0.330387 0.748783
outer loop
vertex -9.494007 46.333969 9.801060
vertex -8.489970 51.591331 6.710862
vertex -12.607983 50.806168 10.217386
endloop
endfacet
facet normal 0.794655 0.187595 0.577348
outer loop
vertex -9.494007 46.333969 9.801060
vertex -5.861285 46.333969 4.801020
vertex -8.489970 51.591331 6.710862
endloop
endfacet
facet normal 0.889697 0.330385 0.315095
outer loop
vertex -5.861285 46.333969 4.801020
vertex -6.427602 50.806126 1.710893
vertex -8.489970 51.591331 6.710862
endloop
endfacet
facet normal 0.306569 0.125628 -0.943522
outer loop
vertex -9.494007 46.333969 -6.379272
vertex -15.371862 46.333969 -8.289105
vertex -12.607983 50.806168 -6.795599
endloop
endfacet
facet normal 0.303531 -0.187597 -0.934171
outer loop
vertex -9.494007 46.333969 -6.379272
vertex -12.743175 41.076591 -6.379221
vertex -15.371862 46.333969 -8.289105
endloop
endfacet
facet normal 0.024747 -0.330386 -0.943521
outer loop
vertex -12.743175 41.076591 -6.379221
vertex -18.135742 41.861771 -6.795599
vertex -15.371862 46.333969 -8.289105
endloop
endfacet
facet normal -0.802609 0.125627 -0.583127
outer loop
vertex -21.249718 46.333969 -6.379272
vertex -24.882439 46.333969 -1.379233
vertex -22.607935 50.806164 -3.546360
endloop
endfacet
facet normal -0.794656 -0.187595 -0.577347
outer loop
vertex -21.249718 46.333969 -6.379272
vertex -22.253754 41.076607 -3.289075
vertex -24.882439 46.333969 -1.379233
endloop
endfacet
facet normal -0.889697 -0.330385 -0.315095
outer loop
vertex -22.253754 41.076607 -3.289075
vertex -24.316124 41.861813 1.710893
vertex -24.882439 46.333969 -1.379233
endloop
endfacet
facet normal -0.802609 0.125627 0.583127
outer loop
vertex -24.882439 46.333969 4.801020
vertex -21.249718 46.333969 9.801060
vertex -22.607935 50.806164 6.968146
endloop
endfacet
facet normal -0.794656 -0.187595 0.577348
outer loop
vertex -24.882439 46.333969 4.801020
vertex -22.253754 41.076607 6.710862
vertex -21.249718 46.333969 9.801060
endloop
endfacet
facet normal -0.574602 -0.330388 0.748783
outer loop
vertex -22.253754 41.076607 6.710862
vertex -18.135742 41.861771 10.217386
vertex -21.249718 46.333969 9.801060
endloop
endfacet
facet normal 0.306569 0.125628 0.943522
outer loop
vertex -15.371862 46.333969 11.710893
vertex -9.494007 46.333969 9.801060
vertex -12.607983 50.806168 10.217386
endloop
endfacet
facet normal 0.303531 -0.187597 0.934171
outer loop
vertex -15.371862 46.333969 11.710893
vertex -12.743175 41.076591 9.801008
vertex -9.494007 46.333969 9.801060
endloop
endfacet
facet normal 0.534576 -0.330387 0.777864
outer loop
vertex -12.743175 41.076591 9.801008
vertex -8.135790 41.861774 6.968146
vertex -9.494007 46.333969 9.801060
endloop
endfacet
facet normal 0.992077 0.125628 0.000000
outer loop
vertex -5.861285 46.333969 4.801020
vertex -5.861285 46.333969 -1.379233
vertex -6.427602 50.806126 1.710893
endloop
endfacet
facet normal 0.982246 -0.187599 0.000000
outer loop
vertex -5.861285 46.333969 4.801020
vertex -6.865385 41.076611 1.710893
vertex -5.861285 46.333969 -1.379233
endloop
endfacet
facet normal 0.904989 -0.330385 -0.268031
outer loop
vertex -6.865385 41.076611 1.710893
vertex -8.135790 41.861774 -3.546360
vertex -5.861285 46.333969 -1.379233
endloop
endfacet
facet normal 0.471299 -0.661699 -0.583122
outer loop
vertex -11.118636 37.827431 -1.379220
vertex -12.743175 41.076591 -6.379221
vertex -8.135790 41.861774 -3.546360
endloop
endfacet
facet normal 0.187594 -0.794658 -0.577345
outer loop
vertex -11.118636 37.827431 -1.379220
vertex -16.996418 37.827427 -3.289059
vertex -12.743175 41.076591 -6.379221
endloop
endfacet
facet normal -0.038530 -0.661699 -0.748779
outer loop
vertex -16.996418 37.827427 -3.289059
vertex -18.135742 41.861771 -6.795599
vertex -12.743175 41.076591 -6.379221
endloop
endfacet
facet normal -0.408947 -0.661699 -0.628424
outer loop
vertex -16.996418 37.827427 -3.289059
vertex -22.253754 41.076607 -3.289075
vertex -18.135742 41.861771 -6.795599
endloop
endfacet
facet normal -0.491119 -0.794657 -0.356822
outer loop
vertex -16.996418 37.827427 -3.289059
vertex -20.629160 37.827454 1.710893
vertex -22.253754 41.076607 -3.289075
endloop
endfacet
facet normal -0.724042 -0.661696 -0.194736
outer loop
vertex -20.629160 37.827454 1.710893
vertex -24.316124 41.861813 1.710893
vertex -22.253754 41.076607 -3.289075
endloop
endfacet
facet normal -0.724042 -0.661696 0.194736
outer loop
vertex -20.629160 37.827454 1.710893
vertex -22.253754 41.076607 6.710862
vertex -24.316124 41.861813 1.710893
endloop
endfacet
facet normal -0.491119 -0.794657 0.356822
outer loop
vertex -20.629160 37.827454 1.710893
vertex -16.996418 37.827427 6.710846
vertex -22.253754 41.076607 6.710862
endloop
endfacet
facet normal -0.408947 -0.661699 0.628424
outer loop
vertex -16.996418 37.827427 6.710846
vertex -18.135742 41.861771 10.217386
vertex -22.253754 41.076607 6.710862
endloop
endfacet
facet normal 0.700224 -0.661699 -0.268032
outer loop
vertex -6.865385 41.076611 1.710893
vertex -11.118636 37.827431 -1.379220
vertex -8.135790 41.861774 -3.546360
endloop
endfacet
facet normal 0.607060 -0.794656 0.000000
outer loop
vertex -6.865385 41.076611 1.710893
vertex -11.118636 37.827431 4.801007
vertex -11.118636 37.827431 -1.379220
endloop
endfacet
facet normal 0.331305 -0.943524 0.000000
outer loop
vertex -11.118636 37.827431 4.801007
vertex -15.371862 36.333969 1.710893
vertex -11.118636 37.827431 -1.379220
endloop
endfacet
facet normal -0.038530 -0.661699 0.748779
outer loop
vertex -16.996418 37.827427 6.710846
vertex -12.743175 41.076591 9.801008
vertex -18.135742 41.861771 10.217386
endloop
endfacet
facet normal 0.187594 -0.794658 0.577345
outer loop
vertex -16.996418 37.827427 6.710846
vertex -11.118636 37.827431 4.801007
vertex -12.743175 41.076591 9.801008
endloop
endfacet
facet normal 0.471299 -0.661699 0.583122
outer loop
vertex -11.118636 37.827431 4.801007
vertex -8.135790 41.861774 6.968146
vertex -12.743175 41.076591 9.801008
endloop
endfacet
endsolid Exported from Blender-2.74 (sub 0)
