solid Exported from Blender-2.74 (sub 0)
facet normal 0.102381 -0.943523 0.315090
outer loop
vertex -3.114891 28.358215 14.777169
vertex 1.138335 29.851675 17.867283
vertex -4.739446 29.851673 19.777122
endloop
endfacet
facet normal 0.700224 -0.661699 0.268030
outer loop
vertex 4.121182 33.886021 20.034422
vertex 1.138335 29.851675 17.867283
vertex 5.391586 33.100857 14.777169
endloop
endfacet
facet normal -0.268034 -0.943523 0.194737
outer loop
vertex -3.114891 28.358215 14.777169
vertex -4.739446 29.851673 19.777122
vertex -8.372188 29.851700 14.777169
endloop
endfacet
facet normal -0.268034 -0.943523 -0.194737
outer loop
vertex -3.114891 28.358215 14.777169
vertex -8.372188 29.851700 14.777169
vertex -4.739446 29.851673 9.777217
endloop
endfacet
facet normal 0.102381 -0.943523 -0.315090
outer loop
vertex -3.114891 28.358215 14.777169
vertex -4.739446 29.851673 9.777217
vertex 1.138335 29.851675 11.687056
endloop
endfacet
facet normal 0.904989 -0.330384 0.268031
outer loop
vertex 4.121182 33.886021 20.034422
vertex 5.391586 33.100857 14.777169
vertex 6.395686 38.358215 17.867296
endloop
endfacet
facet normal 0.024746 -0.330386 0.943521
outer loop
vertex -5.878771 33.886017 23.283661
vertex -0.486203 33.100838 22.867283
vertex -3.114891 38.358215 24.777168
endloop
endfacet
facet normal -0.889697 -0.330385 0.315095
outer loop
vertex -12.059152 33.886059 14.777169
vertex -9.996783 33.100853 19.777138
vertex -12.625468 38.358215 17.867296
endloop
endfacet
facet normal -0.574602 -0.330387 -0.748784
outer loop
vertex -5.878771 33.886017 6.270677
vertex -9.996783 33.100853 9.777201
vertex -8.992745 38.358215 6.687003
endloop
endfacet
facet normal 0.534576 -0.330387 -0.777864
outer loop
vertex 4.121182 33.886021 9.519917
vertex -0.486203 33.100838 6.687055
vertex 2.762964 38.358215 6.687003
endloop
endfacet
facet normal 0.802609 -0.125627 0.583127
outer loop
vertex 4.121182 33.886021 20.034422
vertex 6.395686 38.358215 17.867296
vertex 2.762964 38.358215 22.867336
endloop
endfacet
facet normal -0.306569 -0.125629 0.943521
outer loop
vertex -5.878771 33.886017 23.283661
vertex -3.114891 38.358215 24.777168
vertex -8.992745 38.358215 22.867336
endloop
endfacet
facet normal -0.992077 -0.125629 0.000000
outer loop
vertex -12.059152 33.886059 14.777169
vertex -12.625468 38.358215 17.867296
vertex -12.625468 38.358215 11.687043
endloop
endfacet
facet normal -0.306569 -0.125629 -0.943521
outer loop
vertex -5.878771 33.886017 6.270677
vertex -8.992745 38.358215 6.687003
vertex -3.114891 38.358215 4.777170
endloop
endfacet
facet normal 0.802609 -0.125627 -0.583127
outer loop
vertex 4.121182 33.886021 9.519917
vertex 2.762964 38.358215 6.687003
vertex 6.395686 38.358215 11.687043
endloop
endfacet
facet normal 0.408947 0.661700 0.628424
outer loop
vertex -0.351011 42.830414 23.283661
vertex 3.767001 43.615578 19.777138
vertex -1.490335 46.864758 19.777122
endloop
endfacet
facet normal -0.471299 0.661699 0.583122
outer loop
vertex -10.350964 42.830410 20.034422
vertex -5.743578 43.615593 22.867283
vertex -7.368117 46.864754 17.867283
endloop
endfacet
facet normal -0.700224 0.661699 -0.268032
outer loop
vertex -10.350964 42.830410 9.519917
vertex -11.621368 43.615574 14.777169
vertex -7.368117 46.864754 11.687056
endloop
endfacet
facet normal 0.038530 0.661700 -0.748778
outer loop
vertex -0.351011 42.830414 6.270677
vertex -5.743579 43.615593 6.687055
vertex -1.490335 46.864758 9.777217
endloop
endfacet
facet normal 0.724042 0.661696 -0.194736
outer loop
vertex 5.829370 42.830372 14.777169
vertex 3.767001 43.615578 9.777201
vertex 2.142406 46.864731 14.777169
endloop
endfacet
facet normal 0.268034 0.943523 -0.194736
outer loop
vertex 2.142406 46.864731 14.777169
vertex -1.490335 46.864758 9.777217
vertex -3.114891 48.358215 14.777169
endloop
endfacet
facet normal 0.491119 0.794657 -0.356822
outer loop
vertex 2.142406 46.864731 14.777169
vertex 3.767001 43.615578 9.777201
vertex -1.490335 46.864758 9.777217
endloop
endfacet
facet normal 0.408947 0.661700 -0.628424
outer loop
vertex 3.767001 43.615578 9.777201
vertex -0.351011 42.830414 6.270677
vertex -1.490335 46.864758 9.777217
endloop
endfacet
facet normal -0.102381 0.943523 -0.315091
outer loop
vertex -1.490335 46.864758 9.777217
vertex -7.368117 46.864754 11.687056
vertex -3.114891 48.358215 14.777169
endloop
endfacet
facet normal -0.187594 0.794658 -0.577345
outer loop
vertex -1.490335 46.864758 9.777217
vertex -5.743579 43.615593 6.687055
vertex -7.368117 46.864754 11.687056
endloop
endfacet
facet normal -0.471300 0.661699 -0.583122
outer loop
vertex -5.743579 43.615593 6.687055
vertex -10.350964 42.830410 9.519917
vertex -7.368117 46.864754 11.687056
endloop
endfacet
facet normal -0.331305 0.943524 0.000000
outer loop
vertex -7.368117 46.864754 11.687056
vertex -7.368117 46.864754 17.867283
vertex -3.114891 48.358215 14.777169
endloop
endfacet
facet normal -0.607060 0.794656 0.000000
outer loop
vertex -7.368117 46.864754 11.687056
vertex -11.621368 43.615574 14.777169
vertex -7.368117 46.864754 17.867283
endloop
endfacet
facet normal -0.700224 0.661699 0.268032
outer loop
vertex -11.621368 43.615574 14.777169
vertex -10.350964 42.830410 20.034422
vertex -7.368117 46.864754 17.867283
endloop
endfacet
facet normal -0.102381 0.943523 0.315091
outer loop
vertex -7.368117 46.864754 17.867283
vertex -1.490335 46.864758 19.777122
vertex -3.114891 48.358215 14.777169
endloop
endfacet
facet normal -0.187595 0.794658 0.577345
outer loop
vertex -7.368117 46.864754 17.867283
vertex -5.743578 43.615593 22.867283
vertex -1.490335 46.864758 19.777122
endloop
endfacet
facet normal 0.038530 0.661699 0.748779
outer loop
vertex -5.743578 43.615593 22.867283
vertex -0.351011 42.830414 23.283661
vertex -1.490335 46.864758 19.777122
endloop
endfacet
facet normal 0.268034 0.943523 0.194736
outer loop
vertex -1.490335 46.864758 19.777122
vertex 2.142406 46.864731 14.777169
vertex -3.114891 48.358215 14.777169
endloop
endfacet
facet normal 0.491119 0.794657 0.356822
outer loop
vertex -1.490335 46.864758 19.777122
vertex 3.767001 43.615578 19.777138
vertex 2.142406 46.864731 14.777169
endloop
endfacet
facet normal 0.724042 0.661695 0.194736
outer loop
vertex 3.767001 43.615578 19.777138
vertex 5.829370 42.830372 14.777169
vertex 2.142406 46.864731 14.777169
endloop
endfacet
facet normal 0.889697 0.330385 -0.315095
outer loop
vertex 6.395686 38.358215 11.687043
vertex 3.767001 43.615578 9.777201
vertex 5.829370 42.830372 14.777169
endloop
endfacet
facet normal 0.794656 0.187595 -0.577348
outer loop
vertex 6.395686 38.358215 11.687043
vertex 2.762964 38.358215 6.687003
vertex 3.767001 43.615578 9.777201
endloop
endfacet
facet normal 0.574602 0.330388 -0.748783
outer loop
vertex 2.762964 38.358215 6.687003
vertex -0.351011 42.830414 6.270677
vertex 3.767001 43.615578 9.777201
endloop
endfacet
facet normal -0.024747 0.330386 -0.943521
outer loop
vertex -3.114891 38.358215 4.777170
vertex -5.743579 43.615593 6.687055
vertex -0.351011 42.830414 6.270677
endloop
endfacet
facet normal -0.303531 0.187597 -0.934171
outer loop
vertex -3.114891 38.358215 4.777170
vertex -8.992745 38.358215 6.687003
vertex -5.743579 43.615593 6.687055
endloop
endfacet
facet normal -0.534577 0.330386 -0.777864
outer loop
vertex -8.992745 38.358215 6.687003
vertex -10.350964 42.830410 9.519917
vertex -5.743579 43.615593 6.687055
endloop
endfacet
facet normal -0.904989 0.330385 -0.268031
outer loop
vertex -12.625468 38.358215 11.687043
vertex -11.621368 43.615574 14.777169
vertex -10.350964 42.830410 9.519917
endloop
endfacet
facet normal -0.982246 0.187599 0.000000
outer loop
vertex -12.625468 38.358215 11.687043
vertex -12.625468 38.358215 17.867296
vertex -11.621368 43.615574 14.777169
endloop
endfacet
facet normal -0.904989 0.330385 0.268031
outer loop
vertex -12.625468 38.358215 17.867296
vertex -10.350964 42.830410 20.034422
vertex -11.621368 43.615574 14.777169
endloop
endfacet
facet normal -0.534577 0.330387 0.777864
outer loop
vertex -8.992745 38.358215 22.867336
vertex -5.743578 43.615593 22.867283
vertex -10.350964 42.830410 20.034422
endloop
endfacet
facet normal -0.303531 0.187598 0.934171
outer loop
vertex -8.992745 38.358215 22.867336
vertex -3.114891 38.358215 24.777168
vertex -5.743578 43.615593 22.867283
endloop
endfacet
facet normal -0.024746 0.330386 0.943521
outer loop
vertex -3.114891 38.358215 24.777168
vertex -0.351011 42.830414 23.283661
vertex -5.743578 43.615593 22.867283
endloop
endfacet
facet normal 0.574602 0.330388 0.748783
outer loop
vertex 2.762964 38.358215 22.867336
vertex 3.767001 43.615578 19.777138
vertex -0.351011 42.830414 23.283661
endloop
endfacet
facet normal 0.794656 0.187595 0.577348
outer loop
vertex 2.762964 38.358215 22.867336
vertex 6.395686 38.358215 17.867296
vertex 3.767001 43.615578 19.777138
endloop
endfacet
facet normal 0.889697 0.330385 0.315095
outer loop
vertex 6.395686 38.358215 17.867296
vertex 5.829370 42.830372 14.777169
vertex 3.767001 43.615578 19.777138
endloop
endfacet
facet normal 0.306569 0.125628 -0.943522
outer loop
vertex 2.762964 38.358215 6.687003
vertex -3.114891 38.358215 4.777170
vertex -0.351011 42.830414 6.270677
endloop
endfacet
facet normal 0.303531 -0.187598 -0.934171
outer loop
vertex 2.762964 38.358215 6.687003
vertex -0.486203 33.100838 6.687055
vertex -3.114891 38.358215 4.777170
endloop
endfacet
facet normal 0.024747 -0.330386 -0.943521
outer loop
vertex -0.486203 33.100838 6.687055
vertex -5.878771 33.886017 6.270677
vertex -3.114891 38.358215 4.777170
endloop
endfacet
facet normal -0.802609 0.125627 -0.583127
outer loop
vertex -8.992745 38.358215 6.687003
vertex -12.625468 38.358215 11.687043
vertex -10.350964 42.830410 9.519917
endloop
endfacet
facet normal -0.794656 -0.187595 -0.577348
outer loop
vertex -8.992745 38.358215 6.687003
vertex -9.996783 33.100853 9.777201
vertex -12.625468 38.358215 11.687043
endloop
endfacet
facet normal -0.889697 -0.330385 -0.315095
outer loop
vertex -9.996783 33.100853 9.777201
vertex -12.059152 33.886059 14.777169
vertex -12.625468 38.358215 11.687043
endloop
endfacet
facet normal -0.802609 0.125627 0.583127
outer loop
vertex -12.625468 38.358215 17.867296
vertex -8.992745 38.358215 22.867336
vertex -10.350964 42.830410 20.034422
endloop
endfacet
facet normal -0.794655 -0.187595 0.577348
outer loop
vertex -12.625468 38.358215 17.867296
vertex -9.996783 33.100853 19.777138
vertex -8.992745 38.358215 22.867336
endloop
endfacet
facet normal -0.574602 -0.330387 0.748784
outer loop
vertex -9.996783 33.100853 19.777138
vertex -5.878771 33.886017 23.283661
vertex -8.992745 38.358215 22.867336
endloop
endfacet
facet normal 0.306569 0.125629 0.943522
outer loop
vertex -3.114891 38.358215 24.777168
vertex 2.762964 38.358215 22.867336
vertex -0.351011 42.830414 23.283661
endloop
endfacet
facet normal 0.303531 -0.187598 0.934171
outer loop
vertex -3.114891 38.358215 24.777168
vertex -0.486203 33.100838 22.867283
vertex 2.762964 38.358215 22.867336
endloop
endfacet
facet normal 0.534577 -0.330387 0.777864
outer loop
vertex -0.486203 33.100838 22.867283
vertex 4.121182 33.886021 20.034422
vertex 2.762964 38.358215 22.867336
endloop
endfacet
facet normal 0.992077 0.125628 0.000000
outer loop
vertex 6.395686 38.358215 17.867296
vertex 6.395686 38.358215 11.687043
vertex 5.829370 42.830372 14.777169
endloop
endfacet
facet normal 0.982246 -0.187599 0.000000
outer loop
vertex 6.395686 38.358215 17.867296
vertex 5.391586 33.100857 14.777169
vertex 6.395686 38.358215 11.687043
endloop
endfacet
facet normal 0.904989 -0.330384 -0.268031
outer loop
vertex 5.391586 33.100857 14.777169
vertex 4.121182 33.886021 9.519917
vertex 6.395686 38.358215 11.687043
endloop
endfacet
facet normal 0.471299 -0.661699 -0.583123
outer loop
vertex 1.138335 29.851675 11.687056
vertex -0.486203 33.100838 6.687055
vertex 4.121182 33.886021 9.519917
endloop
endfacet
facet normal 0.187594 -0.794658 -0.577345
outer loop
vertex 1.138335 29.851675 11.687056
vertex -4.739446 29.851673 9.777217
vertex -0.486203 33.100838 6.687055
endloop
endfacet
facet normal -0.038530 -0.661699 -0.748779
outer loop
vertex -4.739446 29.851673 9.777217
vertex -5.878771 33.886017 6.270677
vertex -0.486203 33.100838 6.687055
endloop
endfacet
facet normal -0.408946 -0.661699 -0.628425
outer loop
vertex -4.739446 29.851673 9.777217
vertex -9.996783 33.100853 9.777201
vertex -5.878771 33.886017 6.270677
endloop
endfacet
facet normal -0.491119 -0.794658 -0.356821
outer loop
vertex -4.739446 29.851673 9.777217
vertex -8.372188 29.851700 14.777169
vertex -9.996783 33.100853 9.777201
endloop
endfacet
facet normal -0.724042 -0.661696 -0.194736
outer loop
vertex -8.372188 29.851700 14.777169
vertex -12.059152 33.886059 14.777169
vertex -9.996783 33.100853 9.777201
endloop
endfacet
facet normal -0.724042 -0.661696 0.194736
outer loop
vertex -8.372188 29.851700 14.777169
vertex -9.996783 33.100853 19.777138
vertex -12.059152 33.886059 14.777169
endloop
endfacet
facet normal -0.491119 -0.794658 0.356821
outer loop
vertex -8.372188 29.851700 14.777169
vertex -4.739446 29.851673 19.777122
vertex -9.996783 33.100853 19.777138
endloop
endfacet
facet normal -0.408946 -0.661699 0.628425
outer loop
vertex -4.739446 29.851673 19.777122
vertex -5.878771 33.886017 23.283661
vertex -9.996783 33.100853 19.777138
endloop
endfacet
facet normal 0.700224 -0.661699 -0.268030
outer loop
vertex 5.391586 33.100857 14.777169
vertex 1.138335 29.851675 11.687056
vertex 4.121182 33.886021 9.519917
endloop
endfacet
facet normal 0.607060 -0.794656 0.000000
outer loop
vertex 5.391586 33.100857 14.777169
vertex 1.138335 29.851675 17.867283
vertex 1.138335 29.851675 11.687056
endloop
endfacet
facet normal 0.331305 -0.943524 0.000000
outer loop
vertex 1.138335 29.851675 17.867283
vertex -3.114891 28.358215 14.777169
vertex 1.138335 29.851675 11.687056
endloop
endfacet
facet normal -0.038530 -0.661699 0.748779
outer loop
vertex -4.739446 29.851673 19.777122
vertex -0.486203 33.100838 22.867283
vertex -5.878771 33.886017 23.283661
endloop
endfacet
facet normal 0.187594 -0.794658 0.577345
outer loop
vertex -4.739446 29.851673 19.777122
vertex 1.138335 29.851675 17.867283
vertex -0.486203 33.100838 22.867283
endloop
endfacet
facet normal 0.471299 -0.661698 0.583123
outer loop
vertex 1.138335 29.851675 17.867283
vertex 4.121182 33.886021 20.034422
vertex -0.486203 33.100838 22.867283
endloop
endfacet
endsolid Exported from Blender-2.74 (sub 0)
