solid Exported from Blender-2.74 (sub 0)
facet normal 0.102381 -0.943523 0.315091
outer loop
vertex -0.374350 45.023613 8.588790
vertex 3.878876 46.517075 11.678904
vertex -1.998905 46.517071 13.588742
endloop
endfacet
facet normal 0.700223 -0.661699 0.268034
outer loop
vertex 6.861723 50.551418 13.846043
vertex 3.878876 46.517075 11.678904
vertex 8.132128 49.766254 8.588790
endloop
endfacet
facet normal -0.268034 -0.943523 0.194736
outer loop
vertex -0.374350 45.023613 8.588790
vertex -1.998905 46.517071 13.588742
vertex -5.631647 46.517097 8.588790
endloop
endfacet
facet normal -0.268034 -0.943523 -0.194736
outer loop
vertex -0.374350 45.023613 8.588790
vertex -5.631647 46.517097 8.588790
vertex -1.998905 46.517071 3.588838
endloop
endfacet
facet normal 0.102381 -0.943523 -0.315091
outer loop
vertex -0.374350 45.023613 8.588790
vertex -1.998905 46.517071 3.588838
vertex 3.878876 46.517075 5.498676
endloop
endfacet
facet normal 0.904989 -0.330385 0.268031
outer loop
vertex 6.861723 50.551418 13.846043
vertex 8.132128 49.766254 8.588790
vertex 9.136228 55.023613 11.678916
endloop
endfacet
facet normal 0.024747 -0.330386 0.943521
outer loop
vertex -3.138230 50.551414 17.095284
vertex 2.254338 49.766235 16.678905
vertex -0.374350 55.023613 18.588789
endloop
endfacet
facet normal -0.889697 -0.330385 0.315095
outer loop
vertex -9.318610 50.551456 8.588790
vertex -7.256242 49.766251 13.588758
vertex -9.884927 55.023613 11.678916
endloop
endfacet
facet normal -0.574602 -0.330388 -0.748783
outer loop
vertex -3.138230 50.551414 0.082297
vertex -7.256242 49.766251 3.588821
vertex -6.252205 55.023613 0.498624
endloop
endfacet
facet normal 0.534576 -0.330387 -0.777864
outer loop
vertex 6.861723 50.551418 3.331537
vertex 2.254338 49.766235 0.498675
vertex 5.503505 55.023613 0.498624
endloop
endfacet
facet normal 0.802608 -0.125627 0.583127
outer loop
vertex 6.861723 50.551418 13.846043
vertex 9.136228 55.023613 11.678916
vertex 5.503505 55.023613 16.678955
endloop
endfacet
facet normal -0.306569 -0.125628 0.943522
outer loop
vertex -3.138230 50.551414 17.095284
vertex -0.374350 55.023613 18.588789
vertex -6.252205 55.023613 16.678955
endloop
endfacet
facet normal -0.992077 -0.125628 0.000000
outer loop
vertex -9.318610 50.551456 8.588790
vertex -9.884927 55.023613 11.678916
vertex -9.884927 55.023613 5.498664
endloop
endfacet
facet normal -0.306569 -0.125629 -0.943522
outer loop
vertex -3.138230 50.551414 0.082297
vertex -6.252205 55.023613 0.498624
vertex -0.374350 55.023613 -1.411209
endloop
endfacet
facet normal 0.802608 -0.125627 -0.583127
outer loop
vertex 6.861723 50.551418 3.331537
vertex 5.503505 55.023613 0.498624
vertex 9.136228 55.023613 5.498664
endloop
endfacet
facet normal 0.408946 0.661699 0.628424
outer loop
vertex 2.389530 59.495811 17.095284
vertex 6.507542 60.280975 13.588758
vertex 1.250206 63.530155 13.588742
endloop
endfacet
facet normal -0.471300 0.661699 0.583121
outer loop
vertex -7.610423 59.495808 13.846043
vertex -3.003037 60.280991 16.678905
vertex -4.627576 63.530151 11.678904
endloop
endfacet
facet normal -0.700224 0.661699 -0.268032
outer loop
vertex -7.610423 59.495808 3.331537
vertex -8.880827 60.280972 8.588790
vertex -4.627576 63.530151 5.498676
endloop
endfacet
facet normal 0.038530 0.661698 -0.748780
outer loop
vertex 2.389530 59.495811 0.082297
vertex -3.003038 60.280991 0.498675
vertex 1.250206 63.530155 3.588838
endloop
endfacet
facet normal 0.724042 0.661696 -0.194736
outer loop
vertex 8.569911 59.495770 8.588790
vertex 6.507542 60.280975 3.588821
vertex 4.882947 63.530128 8.588790
endloop
endfacet
facet normal 0.268034 0.943523 -0.194737
outer loop
vertex 4.882947 63.530128 8.588790
vertex 1.250206 63.530155 3.588838
vertex -0.374350 65.023613 8.588790
endloop
endfacet
facet normal 0.491119 0.794657 -0.356822
outer loop
vertex 4.882947 63.530128 8.588790
vertex 6.507542 60.280975 3.588821
vertex 1.250206 63.530155 3.588838
endloop
endfacet
facet normal 0.408947 0.661699 -0.628424
outer loop
vertex 6.507542 60.280975 3.588821
vertex 2.389530 59.495811 0.082297
vertex 1.250206 63.530155 3.588838
endloop
endfacet
facet normal -0.102381 0.943523 -0.315091
outer loop
vertex 1.250206 63.530155 3.588838
vertex -4.627576 63.530151 5.498676
vertex -0.374350 65.023613 8.588790
endloop
endfacet
facet normal -0.187594 0.794658 -0.577344
outer loop
vertex 1.250206 63.530155 3.588838
vertex -3.003038 60.280991 0.498675
vertex -4.627576 63.530151 5.498676
endloop
endfacet
facet normal -0.471300 0.661700 -0.583121
outer loop
vertex -3.003038 60.280991 0.498675
vertex -7.610423 59.495808 3.331537
vertex -4.627576 63.530151 5.498676
endloop
endfacet
facet normal -0.331305 0.943524 0.000000
outer loop
vertex -4.627576 63.530151 5.498676
vertex -4.627576 63.530151 11.678904
vertex -0.374350 65.023613 8.588790
endloop
endfacet
facet normal -0.607060 0.794656 0.000000
outer loop
vertex -4.627576 63.530151 5.498676
vertex -8.880827 60.280972 8.588790
vertex -4.627576 63.530151 11.678904
endloop
endfacet
facet normal -0.700224 0.661699 0.268032
outer loop
vertex -8.880827 60.280972 8.588790
vertex -7.610423 59.495808 13.846043
vertex -4.627576 63.530151 11.678904
endloop
endfacet
facet normal -0.102381 0.943523 0.315092
outer loop
vertex -4.627576 63.530151 11.678904
vertex 1.250206 63.530155 13.588742
vertex -0.374350 65.023613 8.588790
endloop
endfacet
facet normal -0.187594 0.794658 0.577346
outer loop
vertex -4.627576 63.530151 11.678904
vertex -3.003037 60.280991 16.678905
vertex 1.250206 63.530155 13.588742
endloop
endfacet
facet normal 0.038530 0.661699 0.748779
outer loop
vertex -3.003037 60.280991 16.678905
vertex 2.389530 59.495811 17.095284
vertex 1.250206 63.530155 13.588742
endloop
endfacet
facet normal 0.268034 0.943523 0.194736
outer loop
vertex 1.250206 63.530155 13.588742
vertex 4.882947 63.530128 8.588790
vertex -0.374350 65.023613 8.588790
endloop
endfacet
facet normal 0.491119 0.794657 0.356822
outer loop
vertex 1.250206 63.530155 13.588742
vertex 6.507542 60.280975 13.588758
vertex 4.882947 63.530128 8.588790
endloop
endfacet
facet normal 0.724042 0.661696 0.194736
outer loop
vertex 6.507542 60.280975 13.588758
vertex 8.569911 59.495770 8.588790
vertex 4.882947 63.530128 8.588790
endloop
endfacet
facet normal 0.889697 0.330385 -0.315095
outer loop
vertex 9.136228 55.023613 5.498664
vertex 6.507542 60.280975 3.588821
vertex 8.569911 59.495770 8.588790
endloop
endfacet
facet normal 0.794656 0.187595 -0.577348
outer loop
vertex 9.136228 55.023613 5.498664
vertex 5.503505 55.023613 0.498624
vertex 6.507542 60.280975 3.588821
endloop
endfacet
facet normal 0.574602 0.330387 -0.748784
outer loop
vertex 5.503505 55.023613 0.498624
vertex 2.389530 59.495811 0.082297
vertex 6.507542 60.280975 3.588821
endloop
endfacet
facet normal -0.024747 0.330387 -0.943521
outer loop
vertex -0.374350 55.023613 -1.411209
vertex -3.003038 60.280991 0.498675
vertex 2.389530 59.495811 0.082297
endloop
endfacet
facet normal -0.303530 0.187597 -0.934172
outer loop
vertex -0.374350 55.023613 -1.411209
vertex -6.252205 55.023613 0.498624
vertex -3.003038 60.280991 0.498675
endloop
endfacet
facet normal -0.534575 0.330386 -0.777866
outer loop
vertex -6.252205 55.023613 0.498624
vertex -7.610423 59.495808 3.331537
vertex -3.003038 60.280991 0.498675
endloop
endfacet
facet normal -0.904989 0.330385 -0.268031
outer loop
vertex -9.884927 55.023613 5.498664
vertex -8.880827 60.280972 8.588790
vertex -7.610423 59.495808 3.331537
endloop
endfacet
facet normal -0.982246 0.187598 0.000000
outer loop
vertex -9.884927 55.023613 5.498664
vertex -9.884927 55.023613 11.678916
vertex -8.880827 60.280972 8.588790
endloop
endfacet
facet normal -0.904989 0.330385 0.268031
outer loop
vertex -9.884927 55.023613 11.678916
vertex -7.610423 59.495808 13.846043
vertex -8.880827 60.280972 8.588790
endloop
endfacet
facet normal -0.534575 0.330386 0.777866
outer loop
vertex -6.252205 55.023613 16.678955
vertex -3.003037 60.280991 16.678905
vertex -7.610423 59.495808 13.846043
endloop
endfacet
facet normal -0.303531 0.187597 0.934171
outer loop
vertex -6.252205 55.023613 16.678955
vertex -0.374350 55.023613 18.588789
vertex -3.003037 60.280991 16.678905
endloop
endfacet
facet normal -0.024748 0.330386 0.943521
outer loop
vertex -0.374350 55.023613 18.588789
vertex 2.389530 59.495811 17.095284
vertex -3.003037 60.280991 16.678905
endloop
endfacet
facet normal 0.574602 0.330387 0.748784
outer loop
vertex 5.503505 55.023613 16.678955
vertex 6.507542 60.280975 13.588758
vertex 2.389530 59.495811 17.095284
endloop
endfacet
facet normal 0.794656 0.187595 0.577347
outer loop
vertex 5.503505 55.023613 16.678955
vertex 9.136228 55.023613 11.678916
vertex 6.507542 60.280975 13.588758
endloop
endfacet
facet normal 0.889697 0.330385 0.315095
outer loop
vertex 9.136228 55.023613 11.678916
vertex 8.569911 59.495770 8.588790
vertex 6.507542 60.280975 13.588758
endloop
endfacet
facet normal 0.306569 0.125629 -0.943521
outer loop
vertex 5.503505 55.023613 0.498624
vertex -0.374350 55.023613 -1.411209
vertex 2.389530 59.495811 0.082297
endloop
endfacet
facet normal 0.303531 -0.187597 -0.934171
outer loop
vertex 5.503505 55.023613 0.498624
vertex 2.254338 49.766235 0.498675
vertex -0.374350 55.023613 -1.411209
endloop
endfacet
facet normal 0.024747 -0.330386 -0.943521
outer loop
vertex 2.254338 49.766235 0.498675
vertex -3.138230 50.551414 0.082297
vertex -0.374350 55.023613 -1.411209
endloop
endfacet
facet normal -0.802609 0.125627 -0.583127
outer loop
vertex -6.252205 55.023613 0.498624
vertex -9.884927 55.023613 5.498664
vertex -7.610423 59.495808 3.331537
endloop
endfacet
facet normal -0.794656 -0.187595 -0.577348
outer loop
vertex -6.252205 55.023613 0.498624
vertex -7.256242 49.766251 3.588821
vertex -9.884927 55.023613 5.498664
endloop
endfacet
facet normal -0.889697 -0.330385 -0.315095
outer loop
vertex -7.256242 49.766251 3.588821
vertex -9.318610 50.551456 8.588790
vertex -9.884927 55.023613 5.498664
endloop
endfacet
facet normal -0.802609 0.125627 0.583127
outer loop
vertex -9.884927 55.023613 11.678916
vertex -6.252205 55.023613 16.678955
vertex -7.610423 59.495808 13.846043
endloop
endfacet
facet normal -0.794656 -0.187595 0.577348
outer loop
vertex -9.884927 55.023613 11.678916
vertex -7.256242 49.766251 13.588758
vertex -6.252205 55.023613 16.678955
endloop
endfacet
facet normal -0.574603 -0.330388 0.748783
outer loop
vertex -7.256242 49.766251 13.588758
vertex -3.138230 50.551414 17.095284
vertex -6.252205 55.023613 16.678955
endloop
endfacet
facet normal 0.306570 0.125628 0.943521
outer loop
vertex -0.374350 55.023613 18.588789
vertex 5.503505 55.023613 16.678955
vertex 2.389530 59.495811 17.095284
endloop
endfacet
facet normal 0.303531 -0.187597 0.934172
outer loop
vertex -0.374350 55.023613 18.588789
vertex 2.254338 49.766235 16.678905
vertex 5.503505 55.023613 16.678955
endloop
endfacet
facet normal 0.534576 -0.330386 0.777865
outer loop
vertex 2.254338 49.766235 16.678905
vertex 6.861723 50.551418 13.846043
vertex 5.503505 55.023613 16.678955
endloop
endfacet
facet normal 0.992077 0.125629 0.000000
outer loop
vertex 9.136228 55.023613 11.678916
vertex 9.136228 55.023613 5.498664
vertex 8.569911 59.495770 8.588790
endloop
endfacet
facet normal 0.982246 -0.187599 0.000000
outer loop
vertex 9.136228 55.023613 11.678916
vertex 8.132128 49.766254 8.588790
vertex 9.136228 55.023613 5.498664
endloop
endfacet
facet normal 0.904989 -0.330385 -0.268031
outer loop
vertex 8.132128 49.766254 8.588790
vertex 6.861723 50.551418 3.331537
vertex 9.136228 55.023613 5.498664
endloop
endfacet
facet normal 0.471299 -0.661699 -0.583122
outer loop
vertex 3.878876 46.517075 5.498676
vertex 2.254338 49.766235 0.498675
vertex 6.861723 50.551418 3.331537
endloop
endfacet
facet normal 0.187595 -0.794658 -0.577345
outer loop
vertex 3.878876 46.517075 5.498676
vertex -1.998905 46.517071 3.588838
vertex 2.254338 49.766235 0.498675
endloop
endfacet
facet normal -0.038530 -0.661699 -0.748779
outer loop
vertex -1.998905 46.517071 3.588838
vertex -3.138230 50.551414 0.082297
vertex 2.254338 49.766235 0.498675
endloop
endfacet
facet normal -0.408946 -0.661699 -0.628424
outer loop
vertex -1.998905 46.517071 3.588838
vertex -7.256242 49.766251 3.588821
vertex -3.138230 50.551414 0.082297
endloop
endfacet
facet normal -0.491119 -0.794657 -0.356822
outer loop
vertex -1.998905 46.517071 3.588838
vertex -5.631647 46.517097 8.588790
vertex -7.256242 49.766251 3.588821
endloop
endfacet
facet normal -0.724042 -0.661696 -0.194736
outer loop
vertex -5.631647 46.517097 8.588790
vertex -9.318610 50.551456 8.588790
vertex -7.256242 49.766251 3.588821
endloop
endfacet
facet normal -0.724042 -0.661695 0.194736
outer loop
vertex -5.631647 46.517097 8.588790
vertex -7.256242 49.766251 13.588758
vertex -9.318610 50.551456 8.588790
endloop
endfacet
facet normal -0.491119 -0.794657 0.356822
outer loop
vertex -5.631647 46.517097 8.588790
vertex -1.998905 46.517071 13.588742
vertex -7.256242 49.766251 13.588758
endloop
endfacet
facet normal -0.408946 -0.661699 0.628424
outer loop
vertex -1.998905 46.517071 13.588742
vertex -3.138230 50.551414 17.095284
vertex -7.256242 49.766251 13.588758
endloop
endfacet
facet normal 0.700223 -0.661699 -0.268034
outer loop
vertex 8.132128 49.766254 8.588790
vertex 3.878876 46.517075 5.498676
vertex 6.861723 50.551418 3.331537
endloop
endfacet
facet normal 0.607060 -0.794656 0.000000
outer loop
vertex 8.132128 49.766254 8.588790
vertex 3.878876 46.517075 11.678904
vertex 3.878876 46.517075 5.498676
endloop
endfacet
facet normal 0.331305 -0.943524 0.000000
outer loop
vertex 3.878876 46.517075 11.678904
vertex -0.374350 45.023613 8.588790
vertex 3.878876 46.517075 5.498676
endloop
endfacet
facet normal -0.038530 -0.661700 0.748778
outer loop
vertex -1.998905 46.517071 13.588742
vertex 2.254338 49.766235 16.678905
vertex -3.138230 50.551414 17.095284
endloop
endfacet
facet normal 0.187594 -0.794658 0.577345
outer loop
vertex -1.998905 46.517071 13.588742
vertex 3.878876 46.517075 11.678904
vertex 2.254338 49.766235 16.678905
endloop
endfacet
facet normal 0.471300 -0.661699 0.583121
outer loop
vertex 3.878876 46.517075 11.678904
vertex 6.861723 50.551418 13.846043
vertex 2.254338 49.766235 16.678905
endloop
endfacet
endsolid Exported from Blender-2.74 (sub 0)
