solid Exported from Blender-2.74 (sub 0)
facet normal 0.102381 -0.943523 0.315092
outer loop
vertex 10.011347 41.782440 10.740176
vertex 14.264573 43.275902 13.830290
vertex 8.386791 43.275898 15.740129
endloop
endfacet
facet normal 0.700224 -0.661699 0.268033
outer loop
vertex 17.247419 47.310246 15.997429
vertex 14.264573 43.275902 13.830290
vertex 18.517824 46.525082 10.740176
endloop
endfacet
facet normal -0.268034 -0.943523 0.194735
outer loop
vertex 10.011347 41.782440 10.740176
vertex 8.386791 43.275898 15.740129
vertex 4.754050 43.275925 10.740176
endloop
endfacet
facet normal -0.268034 -0.943523 -0.194735
outer loop
vertex 10.011347 41.782440 10.740176
vertex 4.754050 43.275925 10.740176
vertex 8.386791 43.275898 5.740224
endloop
endfacet
facet normal 0.102381 -0.943523 -0.315092
outer loop
vertex 10.011347 41.782440 10.740176
vertex 8.386791 43.275898 5.740224
vertex 14.264573 43.275902 7.650063
endloop
endfacet
facet normal 0.904989 -0.330384 0.268031
outer loop
vertex 17.247419 47.310246 15.997429
vertex 18.517824 46.525082 10.740176
vertex 19.521923 51.782440 13.830302
endloop
endfacet
facet normal 0.024747 -0.330386 0.943521
outer loop
vertex 7.247467 47.310242 19.246670
vertex 12.640035 46.525063 18.830292
vertex 10.011347 51.782440 20.740175
endloop
endfacet
facet normal -0.889697 -0.330385 0.315095
outer loop
vertex 1.067086 47.310284 10.740176
vertex 3.129455 46.525078 15.740145
vertex 0.500770 51.782440 13.830302
endloop
endfacet
facet normal -0.574602 -0.330387 -0.748783
outer loop
vertex 7.247467 47.310242 2.233684
vertex 3.129455 46.525078 5.740208
vertex 4.133492 51.782440 2.650010
endloop
endfacet
facet normal 0.534576 -0.330387 -0.777864
outer loop
vertex 17.247419 47.310246 5.482923
vertex 12.640035 46.525063 2.650062
vertex 15.889202 51.782440 2.650010
endloop
endfacet
facet normal 0.802609 -0.125628 0.583127
outer loop
vertex 17.247419 47.310246 15.997429
vertex 19.521923 51.782440 13.830302
vertex 15.889202 51.782440 18.830341
endloop
endfacet
facet normal -0.306570 -0.125628 0.943521
outer loop
vertex 7.247467 47.310242 19.246670
vertex 10.011347 51.782440 20.740175
vertex 4.133492 51.782440 18.830341
endloop
endfacet
facet normal -0.992077 -0.125628 0.000000
outer loop
vertex 1.067086 47.310284 10.740176
vertex 0.500770 51.782440 13.830302
vertex 0.500770 51.782440 7.650050
endloop
endfacet
facet normal -0.306569 -0.125629 -0.943522
outer loop
vertex 7.247467 47.310242 2.233684
vertex 4.133492 51.782440 2.650010
vertex 10.011347 51.782440 0.740177
endloop
endfacet
facet normal 0.802609 -0.125627 -0.583127
outer loop
vertex 17.247419 47.310246 5.482923
vertex 15.889202 51.782440 2.650010
vertex 19.521923 51.782440 7.650050
endloop
endfacet
facet normal 0.408947 0.661699 0.628424
outer loop
vertex 12.775227 56.254639 19.246670
vertex 16.893238 57.039803 15.740145
vertex 11.635902 60.288982 15.740129
endloop
endfacet
facet normal -0.471300 0.661699 0.583122
outer loop
vertex 2.775274 56.254635 15.997429
vertex 7.382659 57.039818 18.830292
vertex 5.758121 60.288979 13.830290
endloop
endfacet
facet normal -0.700224 0.661699 -0.268033
outer loop
vertex 2.775274 56.254635 5.482923
vertex 1.504869 57.039799 10.740176
vertex 5.758121 60.288979 7.650063
endloop
endfacet
facet normal 0.038530 0.661699 -0.748779
outer loop
vertex 12.775227 56.254639 2.233684
vertex 7.382659 57.039818 2.650062
vertex 11.635902 60.288982 5.740224
endloop
endfacet
facet normal 0.724042 0.661696 -0.194735
outer loop
vertex 18.955608 56.254597 10.740176
vertex 16.893238 57.039803 5.740208
vertex 15.268644 60.288956 10.740176
endloop
endfacet
facet normal 0.268035 0.943523 -0.194736
outer loop
vertex 15.268644 60.288956 10.740176
vertex 11.635902 60.288982 5.740224
vertex 10.011347 61.782440 10.740176
endloop
endfacet
facet normal 0.491119 0.794657 -0.356823
outer loop
vertex 15.268644 60.288956 10.740176
vertex 16.893238 57.039803 5.740208
vertex 11.635902 60.288982 5.740224
endloop
endfacet
facet normal 0.408947 0.661699 -0.628424
outer loop
vertex 16.893238 57.039803 5.740208
vertex 12.775227 56.254639 2.233684
vertex 11.635902 60.288982 5.740224
endloop
endfacet
facet normal -0.102381 0.943523 -0.315091
outer loop
vertex 11.635902 60.288982 5.740224
vertex 5.758121 60.288979 7.650063
vertex 10.011347 61.782440 10.740176
endloop
endfacet
facet normal -0.187594 0.794657 -0.577346
outer loop
vertex 11.635902 60.288982 5.740224
vertex 7.382659 57.039818 2.650062
vertex 5.758121 60.288979 7.650063
endloop
endfacet
facet normal -0.471300 0.661699 -0.583122
outer loop
vertex 7.382659 57.039818 2.650062
vertex 2.775274 56.254635 5.482923
vertex 5.758121 60.288979 7.650063
endloop
endfacet
facet normal -0.331305 0.943524 0.000000
outer loop
vertex 5.758121 60.288979 7.650063
vertex 5.758121 60.288979 13.830290
vertex 10.011347 61.782440 10.740176
endloop
endfacet
facet normal -0.607060 0.794656 0.000000
outer loop
vertex 5.758121 60.288979 7.650063
vertex 1.504869 57.039799 10.740176
vertex 5.758121 60.288979 13.830290
endloop
endfacet
facet normal -0.700223 0.661699 0.268034
outer loop
vertex 1.504869 57.039799 10.740176
vertex 2.775274 56.254635 15.997429
vertex 5.758121 60.288979 13.830290
endloop
endfacet
facet normal -0.102381 0.943523 0.315091
outer loop
vertex 5.758121 60.288979 13.830290
vertex 11.635902 60.288982 15.740129
vertex 10.011347 61.782440 10.740176
endloop
endfacet
facet normal -0.187594 0.794657 0.577346
outer loop
vertex 5.758121 60.288979 13.830290
vertex 7.382659 57.039818 18.830292
vertex 11.635902 60.288982 15.740129
endloop
endfacet
facet normal 0.038530 0.661699 0.748779
outer loop
vertex 7.382659 57.039818 18.830292
vertex 12.775227 56.254639 19.246670
vertex 11.635902 60.288982 15.740129
endloop
endfacet
facet normal 0.268034 0.943523 0.194736
outer loop
vertex 11.635902 60.288982 15.740129
vertex 15.268644 60.288956 10.740176
vertex 10.011347 61.782440 10.740176
endloop
endfacet
facet normal 0.491119 0.794657 0.356822
outer loop
vertex 11.635902 60.288982 15.740129
vertex 16.893238 57.039803 15.740145
vertex 15.268644 60.288956 10.740176
endloop
endfacet
facet normal 0.724042 0.661696 0.194735
outer loop
vertex 16.893238 57.039803 15.740145
vertex 18.955608 56.254597 10.740176
vertex 15.268644 60.288956 10.740176
endloop
endfacet
facet normal 0.889697 0.330384 -0.315095
outer loop
vertex 19.521923 51.782440 7.650050
vertex 16.893238 57.039803 5.740208
vertex 18.955608 56.254597 10.740176
endloop
endfacet
facet normal 0.794656 0.187595 -0.577347
outer loop
vertex 19.521923 51.782440 7.650050
vertex 15.889202 51.782440 2.650010
vertex 16.893238 57.039803 5.740208
endloop
endfacet
facet normal 0.574602 0.330387 -0.748784
outer loop
vertex 15.889202 51.782440 2.650010
vertex 12.775227 56.254639 2.233684
vertex 16.893238 57.039803 5.740208
endloop
endfacet
facet normal -0.024747 0.330387 -0.943521
outer loop
vertex 10.011347 51.782440 0.740177
vertex 7.382659 57.039818 2.650062
vertex 12.775227 56.254639 2.233684
endloop
endfacet
facet normal -0.303531 0.187597 -0.934171
outer loop
vertex 10.011347 51.782440 0.740177
vertex 4.133492 51.782440 2.650010
vertex 7.382659 57.039818 2.650062
endloop
endfacet
facet normal -0.534577 0.330387 -0.777864
outer loop
vertex 4.133492 51.782440 2.650010
vertex 2.775274 56.254635 5.482923
vertex 7.382659 57.039818 2.650062
endloop
endfacet
facet normal -0.904989 0.330385 -0.268030
outer loop
vertex 0.500770 51.782440 7.650050
vertex 1.504869 57.039799 10.740176
vertex 2.775274 56.254635 5.482923
endloop
endfacet
facet normal -0.982246 0.187599 0.000000
outer loop
vertex 0.500770 51.782440 7.650050
vertex 0.500770 51.782440 13.830302
vertex 1.504869 57.039799 10.740176
endloop
endfacet
facet normal -0.904989 0.330384 0.268030
outer loop
vertex 0.500770 51.782440 13.830302
vertex 2.775274 56.254635 15.997429
vertex 1.504869 57.039799 10.740176
endloop
endfacet
facet normal -0.534577 0.330387 0.777864
outer loop
vertex 4.133492 51.782440 18.830341
vertex 7.382659 57.039818 18.830292
vertex 2.775274 56.254635 15.997429
endloop
endfacet
facet normal -0.303531 0.187597 0.934171
outer loop
vertex 4.133492 51.782440 18.830341
vertex 10.011347 51.782440 20.740175
vertex 7.382659 57.039818 18.830292
endloop
endfacet
facet normal -0.024748 0.330386 0.943521
outer loop
vertex 10.011347 51.782440 20.740175
vertex 12.775227 56.254639 19.246670
vertex 7.382659 57.039818 18.830292
endloop
endfacet
facet normal 0.574602 0.330387 0.748784
outer loop
vertex 15.889202 51.782440 18.830341
vertex 16.893238 57.039803 15.740145
vertex 12.775227 56.254639 19.246670
endloop
endfacet
facet normal 0.794656 0.187595 0.577347
outer loop
vertex 15.889202 51.782440 18.830341
vertex 19.521923 51.782440 13.830302
vertex 16.893238 57.039803 15.740145
endloop
endfacet
facet normal 0.889697 0.330384 0.315095
outer loop
vertex 19.521923 51.782440 13.830302
vertex 18.955608 56.254597 10.740176
vertex 16.893238 57.039803 15.740145
endloop
endfacet
facet normal 0.306569 0.125628 -0.943522
outer loop
vertex 15.889202 51.782440 2.650010
vertex 10.011347 51.782440 0.740177
vertex 12.775227 56.254639 2.233684
endloop
endfacet
facet normal 0.303531 -0.187597 -0.934171
outer loop
vertex 15.889202 51.782440 2.650010
vertex 12.640035 46.525063 2.650062
vertex 10.011347 51.782440 0.740177
endloop
endfacet
facet normal 0.024747 -0.330386 -0.943521
outer loop
vertex 12.640035 46.525063 2.650062
vertex 7.247467 47.310242 2.233684
vertex 10.011347 51.782440 0.740177
endloop
endfacet
facet normal -0.802609 0.125627 -0.583127
outer loop
vertex 4.133492 51.782440 2.650010
vertex 0.500770 51.782440 7.650050
vertex 2.775274 56.254635 5.482923
endloop
endfacet
facet normal -0.794655 -0.187595 -0.577349
outer loop
vertex 4.133492 51.782440 2.650010
vertex 3.129455 46.525078 5.740208
vertex 0.500770 51.782440 7.650050
endloop
endfacet
facet normal -0.889697 -0.330385 -0.315095
outer loop
vertex 3.129455 46.525078 5.740208
vertex 1.067086 47.310284 10.740176
vertex 0.500770 51.782440 7.650050
endloop
endfacet
facet normal -0.802609 0.125627 0.583127
outer loop
vertex 0.500770 51.782440 13.830302
vertex 4.133492 51.782440 18.830341
vertex 2.775274 56.254635 15.997429
endloop
endfacet
facet normal -0.794655 -0.187595 0.577348
outer loop
vertex 0.500770 51.782440 13.830302
vertex 3.129455 46.525078 15.740145
vertex 4.133492 51.782440 18.830341
endloop
endfacet
facet normal -0.574601 -0.330387 0.748784
outer loop
vertex 3.129455 46.525078 15.740145
vertex 7.247467 47.310242 19.246670
vertex 4.133492 51.782440 18.830341
endloop
endfacet
facet normal 0.306570 0.125628 0.943521
outer loop
vertex 10.011347 51.782440 20.740175
vertex 15.889202 51.782440 18.830341
vertex 12.775227 56.254639 19.246670
endloop
endfacet
facet normal 0.303531 -0.187597 0.934171
outer loop
vertex 10.011347 51.782440 20.740175
vertex 12.640035 46.525063 18.830292
vertex 15.889202 51.782440 18.830341
endloop
endfacet
facet normal 0.534577 -0.330386 0.777864
outer loop
vertex 12.640035 46.525063 18.830292
vertex 17.247419 47.310246 15.997429
vertex 15.889202 51.782440 18.830341
endloop
endfacet
facet normal 0.992077 0.125628 0.000000
outer loop
vertex 19.521923 51.782440 13.830302
vertex 19.521923 51.782440 7.650050
vertex 18.955608 56.254597 10.740176
endloop
endfacet
facet normal 0.982246 -0.187598 0.000000
outer loop
vertex 19.521923 51.782440 13.830302
vertex 18.517824 46.525082 10.740176
vertex 19.521923 51.782440 7.650050
endloop
endfacet
facet normal 0.904989 -0.330384 -0.268030
outer loop
vertex 18.517824 46.525082 10.740176
vertex 17.247419 47.310246 5.482923
vertex 19.521923 51.782440 7.650050
endloop
endfacet
facet normal 0.471299 -0.661698 -0.583123
outer loop
vertex 14.264573 43.275902 7.650063
vertex 12.640035 46.525063 2.650062
vertex 17.247419 47.310246 5.482923
endloop
endfacet
facet normal 0.187594 -0.794658 -0.577344
outer loop
vertex 14.264573 43.275902 7.650063
vertex 8.386791 43.275898 5.740224
vertex 12.640035 46.525063 2.650062
endloop
endfacet
facet normal -0.038530 -0.661700 -0.748778
outer loop
vertex 8.386791 43.275898 5.740224
vertex 7.247467 47.310242 2.233684
vertex 12.640035 46.525063 2.650062
endloop
endfacet
facet normal -0.408947 -0.661699 -0.628424
outer loop
vertex 8.386791 43.275898 5.740224
vertex 3.129455 46.525078 5.740208
vertex 7.247467 47.310242 2.233684
endloop
endfacet
facet normal -0.491119 -0.794657 -0.356822
outer loop
vertex 8.386791 43.275898 5.740224
vertex 4.754050 43.275925 10.740176
vertex 3.129455 46.525078 5.740208
endloop
endfacet
facet normal -0.724042 -0.661696 -0.194735
outer loop
vertex 4.754050 43.275925 10.740176
vertex 1.067086 47.310284 10.740176
vertex 3.129455 46.525078 5.740208
endloop
endfacet
facet normal -0.724042 -0.661696 0.194735
outer loop
vertex 4.754050 43.275925 10.740176
vertex 3.129455 46.525078 15.740145
vertex 1.067086 47.310284 10.740176
endloop
endfacet
facet normal -0.491119 -0.794657 0.356822
outer loop
vertex 4.754050 43.275925 10.740176
vertex 8.386791 43.275898 15.740129
vertex 3.129455 46.525078 15.740145
endloop
endfacet
facet normal -0.408947 -0.661699 0.628424
outer loop
vertex 8.386791 43.275898 15.740129
vertex 7.247467 47.310242 19.246670
vertex 3.129455 46.525078 15.740145
endloop
endfacet
facet normal 0.700224 -0.661699 -0.268033
outer loop
vertex 18.517824 46.525082 10.740176
vertex 14.264573 43.275902 7.650063
vertex 17.247419 47.310246 5.482923
endloop
endfacet
facet normal 0.607060 -0.794656 0.000000
outer loop
vertex 18.517824 46.525082 10.740176
vertex 14.264573 43.275902 13.830290
vertex 14.264573 43.275902 7.650063
endloop
endfacet
facet normal 0.331305 -0.943524 0.000000
outer loop
vertex 14.264573 43.275902 13.830290
vertex 10.011347 41.782440 10.740176
vertex 14.264573 43.275902 7.650063
endloop
endfacet
facet normal -0.038530 -0.661700 0.748778
outer loop
vertex 8.386791 43.275898 15.740129
vertex 12.640035 46.525063 18.830292
vertex 7.247467 47.310242 19.246670
endloop
endfacet
facet normal 0.187594 -0.794658 0.577345
outer loop
vertex 8.386791 43.275898 15.740129
vertex 14.264573 43.275902 13.830290
vertex 12.640035 46.525063 18.830292
endloop
endfacet
facet normal 0.471299 -0.661698 0.583122
outer loop
vertex 14.264573 43.275902 13.830290
vertex 17.247419 47.310246 15.997429
vertex 12.640035 46.525063 18.830292
endloop
endfacet
endsolid Exported from Blender-2.74 (sub 0)
