solid Exported from Blender-2.74 (sub 0)
facet normal 0.102381 -0.943523 0.315090
outer loop
vertex 12.826035 40.324905 -7.116884
vertex 17.079262 41.818367 -4.026771
vertex 11.201480 41.818363 -2.116932
endloop
endfacet
facet normal 0.700224 -0.661699 0.268031
outer loop
vertex 20.062109 45.852711 -1.859631
vertex 17.079262 41.818367 -4.026771
vertex 21.332512 45.067547 -7.116884
endloop
endfacet
facet normal -0.268034 -0.943523 0.194736
outer loop
vertex 12.826035 40.324905 -7.116884
vertex 11.201480 41.818363 -2.116932
vertex 7.568738 41.818390 -7.116884
endloop
endfacet
facet normal -0.268034 -0.943523 -0.194736
outer loop
vertex 12.826035 40.324905 -7.116884
vertex 7.568738 41.818390 -7.116884
vertex 11.201480 41.818363 -12.116837
endloop
endfacet
facet normal 0.102381 -0.943523 -0.315090
outer loop
vertex 12.826035 40.324905 -7.116884
vertex 11.201480 41.818363 -12.116837
vertex 17.079262 41.818367 -10.206998
endloop
endfacet
facet normal 0.904989 -0.330384 0.268031
outer loop
vertex 20.062109 45.852711 -1.859631
vertex 21.332512 45.067547 -7.116884
vertex 22.336613 50.324905 -4.026758
endloop
endfacet
facet normal 0.024747 -0.330386 0.943521
outer loop
vertex 10.062156 45.852707 1.389608
vertex 15.454723 45.067528 0.973230
vertex 12.826035 50.324905 2.883115
endloop
endfacet
facet normal -0.889697 -0.330385 0.315095
outer loop
vertex 3.881775 45.852749 -7.116884
vertex 5.944143 45.067543 -2.116916
vertex 3.315458 50.324905 -4.026758
endloop
endfacet
facet normal -0.574602 -0.330387 -0.748784
outer loop
vertex 10.062156 45.852707 -15.623377
vertex 5.944143 45.067543 -12.116853
vertex 6.948181 50.324905 -15.207050
endloop
endfacet
facet normal 0.534576 -0.330387 -0.777864
outer loop
vertex 20.062109 45.852711 -12.374138
vertex 15.454723 45.067528 -15.206999
vertex 18.703890 50.324905 -15.207050
endloop
endfacet
facet normal 0.802608 -0.125627 0.583127
outer loop
vertex 20.062109 45.852711 -1.859631
vertex 22.336613 50.324905 -4.026758
vertex 18.703890 50.324905 0.973282
endloop
endfacet
facet normal -0.306569 -0.125629 0.943521
outer loop
vertex 10.062156 45.852707 1.389608
vertex 12.826035 50.324905 2.883115
vertex 6.948181 50.324905 0.973282
endloop
endfacet
facet normal -0.992077 -0.125628 0.000000
outer loop
vertex 3.881775 45.852749 -7.116884
vertex 3.315458 50.324905 -4.026758
vertex 3.315458 50.324905 -10.207010
endloop
endfacet
facet normal -0.306569 -0.125629 -0.943522
outer loop
vertex 10.062156 45.852707 -15.623377
vertex 6.948181 50.324905 -15.207050
vertex 12.826035 50.324905 -17.116882
endloop
endfacet
facet normal 0.802608 -0.125627 -0.583127
outer loop
vertex 20.062109 45.852711 -12.374138
vertex 18.703890 50.324905 -15.207050
vertex 22.336613 50.324905 -10.207010
endloop
endfacet
facet normal 0.408946 0.661698 0.628425
outer loop
vertex 15.589915 54.797104 1.389608
vertex 19.707928 55.582268 -2.116916
vertex 14.450591 58.831448 -2.116932
endloop
endfacet
facet normal -0.471299 0.661699 0.583122
outer loop
vertex 5.589962 54.797100 -1.859631
vertex 10.197348 55.582283 0.973230
vertex 8.572809 58.831444 -4.026771
endloop
endfacet
facet normal -0.700224 0.661699 -0.268032
outer loop
vertex 5.589962 54.797100 -12.374138
vertex 4.319558 55.582264 -7.116884
vertex 8.572809 58.831444 -10.206998
endloop
endfacet
facet normal 0.038530 0.661700 -0.748778
outer loop
vertex 15.589915 54.797104 -15.623377
vertex 10.197348 55.582283 -15.206999
vertex 14.450591 58.831448 -12.116837
endloop
endfacet
facet normal 0.724042 0.661696 -0.194736
outer loop
vertex 21.770296 54.797062 -7.116884
vertex 19.707928 55.582268 -12.116853
vertex 18.083332 58.831421 -7.116884
endloop
endfacet
facet normal 0.268035 0.943523 -0.194735
outer loop
vertex 18.083332 58.831421 -7.116884
vertex 14.450591 58.831448 -12.116837
vertex 12.826035 60.324905 -7.116884
endloop
endfacet
facet normal 0.491119 0.794658 -0.356821
outer loop
vertex 18.083332 58.831421 -7.116884
vertex 19.707928 55.582268 -12.116853
vertex 14.450591 58.831448 -12.116837
endloop
endfacet
facet normal 0.408946 0.661699 -0.628425
outer loop
vertex 19.707928 55.582268 -12.116853
vertex 15.589915 54.797104 -15.623377
vertex 14.450591 58.831448 -12.116837
endloop
endfacet
facet normal -0.102381 0.943523 -0.315090
outer loop
vertex 14.450591 58.831448 -12.116837
vertex 8.572809 58.831444 -10.206998
vertex 12.826035 60.324905 -7.116884
endloop
endfacet
facet normal -0.187594 0.794658 -0.577345
outer loop
vertex 14.450591 58.831448 -12.116837
vertex 10.197348 55.582283 -15.206999
vertex 8.572809 58.831444 -10.206998
endloop
endfacet
facet normal -0.471300 0.661698 -0.583123
outer loop
vertex 10.197348 55.582283 -15.206999
vertex 5.589962 54.797100 -12.374138
vertex 8.572809 58.831444 -10.206998
endloop
endfacet
facet normal -0.331305 0.943524 0.000000
outer loop
vertex 8.572809 58.831444 -10.206998
vertex 8.572809 58.831444 -4.026771
vertex 12.826035 60.324905 -7.116884
endloop
endfacet
facet normal -0.607060 0.794656 0.000000
outer loop
vertex 8.572809 58.831444 -10.206998
vertex 4.319558 55.582264 -7.116884
vertex 8.572809 58.831444 -4.026771
endloop
endfacet
facet normal -0.700224 0.661699 0.268032
outer loop
vertex 4.319558 55.582264 -7.116884
vertex 5.589962 54.797100 -1.859631
vertex 8.572809 58.831444 -4.026771
endloop
endfacet
facet normal -0.102381 0.943523 0.315091
outer loop
vertex 8.572809 58.831444 -4.026771
vertex 14.450591 58.831448 -2.116932
vertex 12.826035 60.324905 -7.116884
endloop
endfacet
facet normal -0.187594 0.794658 0.577345
outer loop
vertex 8.572809 58.831444 -4.026771
vertex 10.197348 55.582283 0.973230
vertex 14.450591 58.831448 -2.116932
endloop
endfacet
facet normal 0.038530 0.661700 0.748778
outer loop
vertex 10.197348 55.582283 0.973230
vertex 15.589915 54.797104 1.389608
vertex 14.450591 58.831448 -2.116932
endloop
endfacet
facet normal 0.268034 0.943523 0.194734
outer loop
vertex 14.450591 58.831448 -2.116932
vertex 18.083332 58.831421 -7.116884
vertex 12.826035 60.324905 -7.116884
endloop
endfacet
facet normal 0.491119 0.794657 0.356822
outer loop
vertex 14.450591 58.831448 -2.116932
vertex 19.707928 55.582268 -2.116916
vertex 18.083332 58.831421 -7.116884
endloop
endfacet
facet normal 0.724042 0.661696 0.194736
outer loop
vertex 19.707928 55.582268 -2.116916
vertex 21.770296 54.797062 -7.116884
vertex 18.083332 58.831421 -7.116884
endloop
endfacet
facet normal 0.889697 0.330385 -0.315095
outer loop
vertex 22.336613 50.324905 -10.207010
vertex 19.707928 55.582268 -12.116853
vertex 21.770296 54.797062 -7.116884
endloop
endfacet
facet normal 0.794655 0.187595 -0.577348
outer loop
vertex 22.336613 50.324905 -10.207010
vertex 18.703890 50.324905 -15.207050
vertex 19.707928 55.582268 -12.116853
endloop
endfacet
facet normal 0.574602 0.330388 -0.748783
outer loop
vertex 18.703890 50.324905 -15.207050
vertex 15.589915 54.797104 -15.623377
vertex 19.707928 55.582268 -12.116853
endloop
endfacet
facet normal -0.024746 0.330386 -0.943522
outer loop
vertex 12.826035 50.324905 -17.116882
vertex 10.197348 55.582283 -15.206999
vertex 15.589915 54.797104 -15.623377
endloop
endfacet
facet normal -0.303531 0.187598 -0.934171
outer loop
vertex 12.826035 50.324905 -17.116882
vertex 6.948181 50.324905 -15.207050
vertex 10.197348 55.582283 -15.206999
endloop
endfacet
facet normal -0.534576 0.330386 -0.777864
outer loop
vertex 6.948181 50.324905 -15.207050
vertex 5.589962 54.797100 -12.374138
vertex 10.197348 55.582283 -15.206999
endloop
endfacet
facet normal -0.904989 0.330385 -0.268031
outer loop
vertex 3.315458 50.324905 -10.207010
vertex 4.319558 55.582264 -7.116884
vertex 5.589962 54.797100 -12.374138
endloop
endfacet
facet normal -0.982246 0.187599 0.000000
outer loop
vertex 3.315458 50.324905 -10.207010
vertex 3.315458 50.324905 -4.026758
vertex 4.319558 55.582264 -7.116884
endloop
endfacet
facet normal -0.904989 0.330385 0.268031
outer loop
vertex 3.315458 50.324905 -4.026758
vertex 5.589962 54.797100 -1.859631
vertex 4.319558 55.582264 -7.116884
endloop
endfacet
facet normal -0.534576 0.330387 0.777864
outer loop
vertex 6.948181 50.324905 0.973282
vertex 10.197348 55.582283 0.973230
vertex 5.589962 54.797100 -1.859631
endloop
endfacet
facet normal -0.303531 0.187598 0.934171
outer loop
vertex 6.948181 50.324905 0.973282
vertex 12.826035 50.324905 2.883115
vertex 10.197348 55.582283 0.973230
endloop
endfacet
facet normal -0.024747 0.330386 0.943521
outer loop
vertex 12.826035 50.324905 2.883115
vertex 15.589915 54.797104 1.389608
vertex 10.197348 55.582283 0.973230
endloop
endfacet
facet normal 0.574602 0.330388 0.748783
outer loop
vertex 18.703890 50.324905 0.973282
vertex 19.707928 55.582268 -2.116916
vertex 15.589915 54.797104 1.389608
endloop
endfacet
facet normal 0.794656 0.187595 0.577348
outer loop
vertex 18.703890 50.324905 0.973282
vertex 22.336613 50.324905 -4.026758
vertex 19.707928 55.582268 -2.116916
endloop
endfacet
facet normal 0.889697 0.330385 0.315095
outer loop
vertex 22.336613 50.324905 -4.026758
vertex 21.770296 54.797062 -7.116884
vertex 19.707928 55.582268 -2.116916
endloop
endfacet
facet normal 0.306569 0.125629 -0.943522
outer loop
vertex 18.703890 50.324905 -15.207050
vertex 12.826035 50.324905 -17.116882
vertex 15.589915 54.797104 -15.623377
endloop
endfacet
facet normal 0.303531 -0.187597 -0.934171
outer loop
vertex 18.703890 50.324905 -15.207050
vertex 15.454723 45.067528 -15.206999
vertex 12.826035 50.324905 -17.116882
endloop
endfacet
facet normal 0.024746 -0.330386 -0.943521
outer loop
vertex 15.454723 45.067528 -15.206999
vertex 10.062156 45.852707 -15.623377
vertex 12.826035 50.324905 -17.116882
endloop
endfacet
facet normal -0.802609 0.125627 -0.583127
outer loop
vertex 6.948181 50.324905 -15.207050
vertex 3.315458 50.324905 -10.207010
vertex 5.589962 54.797100 -12.374138
endloop
endfacet
facet normal -0.794656 -0.187595 -0.577348
outer loop
vertex 6.948181 50.324905 -15.207050
vertex 5.944143 45.067543 -12.116853
vertex 3.315458 50.324905 -10.207010
endloop
endfacet
facet normal -0.889697 -0.330385 -0.315095
outer loop
vertex 5.944143 45.067543 -12.116853
vertex 3.881775 45.852749 -7.116884
vertex 3.315458 50.324905 -10.207010
endloop
endfacet
facet normal -0.802609 0.125627 0.583127
outer loop
vertex 3.315458 50.324905 -4.026758
vertex 6.948181 50.324905 0.973282
vertex 5.589962 54.797100 -1.859631
endloop
endfacet
facet normal -0.794656 -0.187595 0.577348
outer loop
vertex 3.315458 50.324905 -4.026758
vertex 5.944143 45.067543 -2.116916
vertex 6.948181 50.324905 0.973282
endloop
endfacet
facet normal -0.574602 -0.330387 0.748784
outer loop
vertex 5.944143 45.067543 -2.116916
vertex 10.062156 45.852707 1.389608
vertex 6.948181 50.324905 0.973282
endloop
endfacet
facet normal 0.306569 0.125629 0.943521
outer loop
vertex 12.826035 50.324905 2.883115
vertex 18.703890 50.324905 0.973282
vertex 15.589915 54.797104 1.389608
endloop
endfacet
facet normal 0.303531 -0.187598 0.934171
outer loop
vertex 12.826035 50.324905 2.883115
vertex 15.454723 45.067528 0.973230
vertex 18.703890 50.324905 0.973282
endloop
endfacet
facet normal 0.534576 -0.330387 0.777864
outer loop
vertex 15.454723 45.067528 0.973230
vertex 20.062109 45.852711 -1.859631
vertex 18.703890 50.324905 0.973282
endloop
endfacet
facet normal 0.992077 0.125628 0.000000
outer loop
vertex 22.336613 50.324905 -4.026758
vertex 22.336613 50.324905 -10.207010
vertex 21.770296 54.797062 -7.116884
endloop
endfacet
facet normal 0.982246 -0.187599 0.000000
outer loop
vertex 22.336613 50.324905 -4.026758
vertex 21.332512 45.067547 -7.116884
vertex 22.336613 50.324905 -10.207010
endloop
endfacet
facet normal 0.904989 -0.330384 -0.268030
outer loop
vertex 21.332512 45.067547 -7.116884
vertex 20.062109 45.852711 -12.374138
vertex 22.336613 50.324905 -10.207010
endloop
endfacet
facet normal 0.471299 -0.661699 -0.583123
outer loop
vertex 17.079262 41.818367 -10.206998
vertex 15.454723 45.067528 -15.206999
vertex 20.062109 45.852711 -12.374138
endloop
endfacet
facet normal 0.187594 -0.794658 -0.577345
outer loop
vertex 17.079262 41.818367 -10.206998
vertex 11.201480 41.818363 -12.116837
vertex 15.454723 45.067528 -15.206999
endloop
endfacet
facet normal -0.038530 -0.661700 -0.748778
outer loop
vertex 11.201480 41.818363 -12.116837
vertex 10.062156 45.852707 -15.623377
vertex 15.454723 45.067528 -15.206999
endloop
endfacet
facet normal -0.408947 -0.661699 -0.628424
outer loop
vertex 11.201480 41.818363 -12.116837
vertex 5.944143 45.067543 -12.116853
vertex 10.062156 45.852707 -15.623377
endloop
endfacet
facet normal -0.491119 -0.794657 -0.356822
outer loop
vertex 11.201480 41.818363 -12.116837
vertex 7.568738 41.818390 -7.116884
vertex 5.944143 45.067543 -12.116853
endloop
endfacet
facet normal -0.724042 -0.661696 -0.194736
outer loop
vertex 7.568738 41.818390 -7.116884
vertex 3.881775 45.852749 -7.116884
vertex 5.944143 45.067543 -12.116853
endloop
endfacet
facet normal -0.724042 -0.661696 0.194736
outer loop
vertex 7.568738 41.818390 -7.116884
vertex 5.944143 45.067543 -2.116916
vertex 3.881775 45.852749 -7.116884
endloop
endfacet
facet normal -0.491119 -0.794657 0.356822
outer loop
vertex 7.568738 41.818390 -7.116884
vertex 11.201480 41.818363 -2.116932
vertex 5.944143 45.067543 -2.116916
endloop
endfacet
facet normal -0.408946 -0.661699 0.628424
outer loop
vertex 11.201480 41.818363 -2.116932
vertex 10.062156 45.852707 1.389608
vertex 5.944143 45.067543 -2.116916
endloop
endfacet
facet normal 0.700224 -0.661699 -0.268032
outer loop
vertex 21.332512 45.067547 -7.116884
vertex 17.079262 41.818367 -10.206998
vertex 20.062109 45.852711 -12.374138
endloop
endfacet
facet normal 0.607060 -0.794656 0.000000
outer loop
vertex 21.332512 45.067547 -7.116884
vertex 17.079262 41.818367 -4.026771
vertex 17.079262 41.818367 -10.206998
endloop
endfacet
facet normal 0.331305 -0.943524 0.000000
outer loop
vertex 17.079262 41.818367 -4.026771
vertex 12.826035 40.324905 -7.116884
vertex 17.079262 41.818367 -10.206998
endloop
endfacet
facet normal -0.038530 -0.661700 0.748778
outer loop
vertex 11.201480 41.818363 -2.116932
vertex 15.454723 45.067528 0.973230
vertex 10.062156 45.852707 1.389608
endloop
endfacet
facet normal 0.187594 -0.794658 0.577345
outer loop
vertex 11.201480 41.818363 -2.116932
vertex 17.079262 41.818367 -4.026771
vertex 15.454723 45.067528 0.973230
endloop
endfacet
facet normal 0.471299 -0.661699 0.583123
outer loop
vertex 17.079262 41.818367 -4.026771
vertex 20.062109 45.852711 -1.859631
vertex 15.454723 45.067528 0.973230
endloop
endfacet
endsolid Exported from Blender-2.74 (sub 0)
