solid Exported from Blender-2.74 (sub 0)
facet normal 0.102381 -0.943523 0.315091
outer loop
vertex -12.186953 34.099869 9.309945
vertex -7.933726 35.593330 12.400059
vertex -13.811508 35.593327 14.309897
endloop
endfacet
facet normal 0.700224 -0.661699 0.268033
outer loop
vertex -4.950880 39.627674 14.567198
vertex -7.933726 35.593330 12.400059
vertex -3.680475 38.842510 9.309945
endloop
endfacet
facet normal -0.268034 -0.943523 0.194735
outer loop
vertex -12.186953 34.099869 9.309945
vertex -13.811508 35.593327 14.309897
vertex -17.444250 35.593353 9.309945
endloop
endfacet
facet normal -0.268034 -0.943523 -0.194735
outer loop
vertex -12.186953 34.099869 9.309945
vertex -17.444250 35.593353 9.309945
vertex -13.811508 35.593327 4.309993
endloop
endfacet
facet normal 0.102381 -0.943523 -0.315091
outer loop
vertex -12.186953 34.099869 9.309945
vertex -13.811508 35.593327 4.309993
vertex -7.933726 35.593330 6.219831
endloop
endfacet
facet normal 0.904989 -0.330384 0.268031
outer loop
vertex -4.950880 39.627674 14.567198
vertex -3.680475 38.842510 9.309945
vertex -2.676375 44.099869 12.400071
endloop
endfacet
facet normal 0.024747 -0.330386 0.943521
outer loop
vertex -14.950832 39.627670 17.816437
vertex -9.558265 38.842491 17.400059
vertex -12.186953 44.099869 19.309944
endloop
endfacet
facet normal -0.889697 -0.330385 0.315095
outer loop
vertex -21.131214 39.627712 9.309945
vertex -19.068844 38.842506 14.309914
vertex -21.697529 44.099869 12.400071
endloop
endfacet
facet normal -0.574602 -0.330387 -0.748783
outer loop
vertex -14.950832 39.627670 0.803452
vertex -19.068844 38.842506 4.309977
vertex -18.064808 44.099869 1.219779
endloop
endfacet
facet normal 0.534576 -0.330387 -0.777864
outer loop
vertex -4.950880 39.627674 4.052692
vertex -9.558265 38.842491 1.219831
vertex -6.309098 44.099869 1.219779
endloop
endfacet
facet normal 0.802609 -0.125627 0.583127
outer loop
vertex -4.950880 39.627674 14.567198
vertex -2.676375 44.099869 12.400071
vertex -6.309098 44.099869 17.400112
endloop
endfacet
facet normal -0.306569 -0.125629 0.943521
outer loop
vertex -14.950832 39.627670 17.816437
vertex -12.186953 44.099869 19.309944
vertex -18.064808 44.099869 17.400112
endloop
endfacet
facet normal -0.992077 -0.125628 0.000000
outer loop
vertex -21.131214 39.627712 9.309945
vertex -21.697529 44.099869 12.400071
vertex -21.697529 44.099869 6.219819
endloop
endfacet
facet normal -0.306569 -0.125629 -0.943521
outer loop
vertex -14.950832 39.627670 0.803452
vertex -18.064808 44.099869 1.219779
vertex -12.186953 44.099869 -0.690054
endloop
endfacet
facet normal 0.802609 -0.125627 -0.583127
outer loop
vertex -4.950880 39.627674 4.052692
vertex -6.309098 44.099869 1.219779
vertex -2.676375 44.099869 6.219819
endloop
endfacet
facet normal 0.408946 0.661699 0.628424
outer loop
vertex -9.423073 48.572067 17.816437
vertex -5.305060 49.357231 14.309914
vertex -10.562397 52.606411 14.309897
endloop
endfacet
facet normal -0.471300 0.661700 0.583121
outer loop
vertex -19.423025 48.572063 14.567198
vertex -14.815640 49.357246 17.400059
vertex -16.440178 52.606407 12.400059
endloop
endfacet
facet normal -0.700223 0.661699 -0.268033
outer loop
vertex -19.423025 48.572063 4.052692
vertex -20.693430 49.357227 9.309945
vertex -16.440178 52.606407 6.219831
endloop
endfacet
facet normal 0.038530 0.661699 -0.748779
outer loop
vertex -9.423073 48.572067 0.803452
vertex -14.815640 49.357246 1.219831
vertex -10.562397 52.606411 4.309993
endloop
endfacet
facet normal 0.724042 0.661696 -0.194736
outer loop
vertex -3.242692 48.572025 9.309945
vertex -5.305060 49.357231 4.309977
vertex -6.929656 52.606384 9.309945
endloop
endfacet
facet normal 0.268034 0.943523 -0.194735
outer loop
vertex -6.929656 52.606384 9.309945
vertex -10.562397 52.606411 4.309993
vertex -12.186953 54.099869 9.309945
endloop
endfacet
facet normal 0.491119 0.794658 -0.356821
outer loop
vertex -6.929656 52.606384 9.309945
vertex -5.305060 49.357231 4.309977
vertex -10.562397 52.606411 4.309993
endloop
endfacet
facet normal 0.408946 0.661699 -0.628425
outer loop
vertex -5.305060 49.357231 4.309977
vertex -9.423073 48.572067 0.803452
vertex -10.562397 52.606411 4.309993
endloop
endfacet
facet normal -0.102381 0.943523 -0.315091
outer loop
vertex -10.562397 52.606411 4.309993
vertex -16.440178 52.606407 6.219831
vertex -12.186953 54.099869 9.309945
endloop
endfacet
facet normal -0.187594 0.794658 -0.577345
outer loop
vertex -10.562397 52.606411 4.309993
vertex -14.815640 49.357246 1.219831
vertex -16.440178 52.606407 6.219831
endloop
endfacet
facet normal -0.471300 0.661700 -0.583121
outer loop
vertex -14.815640 49.357246 1.219831
vertex -19.423025 48.572063 4.052692
vertex -16.440178 52.606407 6.219831
endloop
endfacet
facet normal -0.331306 0.943524 0.000000
outer loop
vertex -16.440178 52.606407 6.219831
vertex -16.440178 52.606407 12.400059
vertex -12.186953 54.099869 9.309945
endloop
endfacet
facet normal -0.607060 0.794656 0.000000
outer loop
vertex -16.440178 52.606407 6.219831
vertex -20.693430 49.357227 9.309945
vertex -16.440178 52.606407 12.400059
endloop
endfacet
facet normal -0.700223 0.661699 0.268033
outer loop
vertex -20.693430 49.357227 9.309945
vertex -19.423025 48.572063 14.567198
vertex -16.440178 52.606407 12.400059
endloop
endfacet
facet normal -0.102381 0.943523 0.315092
outer loop
vertex -16.440178 52.606407 12.400059
vertex -10.562397 52.606411 14.309897
vertex -12.186953 54.099869 9.309945
endloop
endfacet
facet normal -0.187595 0.794658 0.577345
outer loop
vertex -16.440178 52.606407 12.400059
vertex -14.815640 49.357246 17.400059
vertex -10.562397 52.606411 14.309897
endloop
endfacet
facet normal 0.038531 0.661699 0.748779
outer loop
vertex -14.815640 49.357246 17.400059
vertex -9.423073 48.572067 17.816437
vertex -10.562397 52.606411 14.309897
endloop
endfacet
facet normal 0.268034 0.943523 0.194734
outer loop
vertex -10.562397 52.606411 14.309897
vertex -6.929656 52.606384 9.309945
vertex -12.186953 54.099869 9.309945
endloop
endfacet
facet normal 0.491119 0.794657 0.356822
outer loop
vertex -10.562397 52.606411 14.309897
vertex -5.305060 49.357231 14.309914
vertex -6.929656 52.606384 9.309945
endloop
endfacet
facet normal 0.724042 0.661696 0.194736
outer loop
vertex -5.305060 49.357231 14.309914
vertex -3.242692 48.572025 9.309945
vertex -6.929656 52.606384 9.309945
endloop
endfacet
facet normal 0.889697 0.330385 -0.315095
outer loop
vertex -2.676375 44.099869 6.219819
vertex -5.305060 49.357231 4.309977
vertex -3.242692 48.572025 9.309945
endloop
endfacet
facet normal 0.794655 0.187595 -0.577348
outer loop
vertex -2.676375 44.099869 6.219819
vertex -6.309098 44.099869 1.219779
vertex -5.305060 49.357231 4.309977
endloop
endfacet
facet normal 0.574602 0.330387 -0.748784
outer loop
vertex -6.309098 44.099869 1.219779
vertex -9.423073 48.572067 0.803452
vertex -5.305060 49.357231 4.309977
endloop
endfacet
facet normal -0.024747 0.330386 -0.943521
outer loop
vertex -12.186953 44.099869 -0.690054
vertex -14.815640 49.357246 1.219831
vertex -9.423073 48.572067 0.803452
endloop
endfacet
facet normal -0.303531 0.187598 -0.934171
outer loop
vertex -12.186953 44.099869 -0.690054
vertex -18.064808 44.099869 1.219779
vertex -14.815640 49.357246 1.219831
endloop
endfacet
facet normal -0.534576 0.330386 -0.777865
outer loop
vertex -18.064808 44.099869 1.219779
vertex -19.423025 48.572063 4.052692
vertex -14.815640 49.357246 1.219831
endloop
endfacet
facet normal -0.904989 0.330384 -0.268031
outer loop
vertex -21.697529 44.099869 6.219819
vertex -20.693430 49.357227 9.309945
vertex -19.423025 48.572063 4.052692
endloop
endfacet
facet normal -0.982246 0.187598 0.000000
outer loop
vertex -21.697529 44.099869 6.219819
vertex -21.697529 44.099869 12.400071
vertex -20.693430 49.357227 9.309945
endloop
endfacet
facet normal -0.904989 0.330384 0.268031
outer loop
vertex -21.697529 44.099869 12.400071
vertex -19.423025 48.572063 14.567198
vertex -20.693430 49.357227 9.309945
endloop
endfacet
facet normal -0.534576 0.330387 0.777865
outer loop
vertex -18.064808 44.099869 17.400112
vertex -14.815640 49.357246 17.400059
vertex -19.423025 48.572063 14.567198
endloop
endfacet
facet normal -0.303531 0.187598 0.934171
outer loop
vertex -18.064808 44.099869 17.400112
vertex -12.186953 44.099869 19.309944
vertex -14.815640 49.357246 17.400059
endloop
endfacet
facet normal -0.024747 0.330387 0.943521
outer loop
vertex -12.186953 44.099869 19.309944
vertex -9.423073 48.572067 17.816437
vertex -14.815640 49.357246 17.400059
endloop
endfacet
facet normal 0.574602 0.330387 0.748784
outer loop
vertex -6.309098 44.099869 17.400112
vertex -5.305060 49.357231 14.309914
vertex -9.423073 48.572067 17.816437
endloop
endfacet
facet normal 0.794656 0.187595 0.577348
outer loop
vertex -6.309098 44.099869 17.400112
vertex -2.676375 44.099869 12.400071
vertex -5.305060 49.357231 14.309914
endloop
endfacet
facet normal 0.889697 0.330385 0.315095
outer loop
vertex -2.676375 44.099869 12.400071
vertex -3.242692 48.572025 9.309945
vertex -5.305060 49.357231 14.309914
endloop
endfacet
facet normal 0.306569 0.125628 -0.943522
outer loop
vertex -6.309098 44.099869 1.219779
vertex -12.186953 44.099869 -0.690054
vertex -9.423073 48.572067 0.803452
endloop
endfacet
facet normal 0.303531 -0.187598 -0.934171
outer loop
vertex -6.309098 44.099869 1.219779
vertex -9.558265 38.842491 1.219831
vertex -12.186953 44.099869 -0.690054
endloop
endfacet
facet normal 0.024747 -0.330386 -0.943521
outer loop
vertex -9.558265 38.842491 1.219831
vertex -14.950832 39.627670 0.803452
vertex -12.186953 44.099869 -0.690054
endloop
endfacet
facet normal -0.802609 0.125627 -0.583127
outer loop
vertex -18.064808 44.099869 1.219779
vertex -21.697529 44.099869 6.219819
vertex -19.423025 48.572063 4.052692
endloop
endfacet
facet normal -0.794656 -0.187595 -0.577348
outer loop
vertex -18.064808 44.099869 1.219779
vertex -19.068844 38.842506 4.309977
vertex -21.697529 44.099869 6.219819
endloop
endfacet
facet normal -0.889697 -0.330384 -0.315095
outer loop
vertex -19.068844 38.842506 4.309977
vertex -21.131214 39.627712 9.309945
vertex -21.697529 44.099869 6.219819
endloop
endfacet
facet normal -0.802609 0.125627 0.583127
outer loop
vertex -21.697529 44.099869 12.400071
vertex -18.064808 44.099869 17.400112
vertex -19.423025 48.572063 14.567198
endloop
endfacet
facet normal -0.794656 -0.187595 0.577348
outer loop
vertex -21.697529 44.099869 12.400071
vertex -19.068844 38.842506 14.309914
vertex -18.064808 44.099869 17.400112
endloop
endfacet
facet normal -0.574602 -0.330388 0.748783
outer loop
vertex -19.068844 38.842506 14.309914
vertex -14.950832 39.627670 17.816437
vertex -18.064808 44.099869 17.400112
endloop
endfacet
facet normal 0.306569 0.125629 0.943522
outer loop
vertex -12.186953 44.099869 19.309944
vertex -6.309098 44.099869 17.400112
vertex -9.423073 48.572067 17.816437
endloop
endfacet
facet normal 0.303531 -0.187598 0.934171
outer loop
vertex -12.186953 44.099869 19.309944
vertex -9.558265 38.842491 17.400059
vertex -6.309098 44.099869 17.400112
endloop
endfacet
facet normal 0.534576 -0.330387 0.777864
outer loop
vertex -9.558265 38.842491 17.400059
vertex -4.950880 39.627674 14.567198
vertex -6.309098 44.099869 17.400112
endloop
endfacet
facet normal 0.992077 0.125628 0.000000
outer loop
vertex -2.676375 44.099869 12.400071
vertex -2.676375 44.099869 6.219819
vertex -3.242692 48.572025 9.309945
endloop
endfacet
facet normal 0.982246 -0.187599 0.000000
outer loop
vertex -2.676375 44.099869 12.400071
vertex -3.680475 38.842510 9.309945
vertex -2.676375 44.099869 6.219819
endloop
endfacet
facet normal 0.904989 -0.330385 -0.268031
outer loop
vertex -3.680475 38.842510 9.309945
vertex -4.950880 39.627674 4.052692
vertex -2.676375 44.099869 6.219819
endloop
endfacet
facet normal 0.471300 -0.661699 -0.583122
outer loop
vertex -7.933726 35.593330 6.219831
vertex -9.558265 38.842491 1.219831
vertex -4.950880 39.627674 4.052692
endloop
endfacet
facet normal 0.187594 -0.794658 -0.577344
outer loop
vertex -7.933726 35.593330 6.219831
vertex -13.811508 35.593327 4.309993
vertex -9.558265 38.842491 1.219831
endloop
endfacet
facet normal -0.038530 -0.661699 -0.748779
outer loop
vertex -13.811508 35.593327 4.309993
vertex -14.950832 39.627670 0.803452
vertex -9.558265 38.842491 1.219831
endloop
endfacet
facet normal -0.408946 -0.661699 -0.628425
outer loop
vertex -13.811508 35.593327 4.309993
vertex -19.068844 38.842506 4.309977
vertex -14.950832 39.627670 0.803452
endloop
endfacet
facet normal -0.491119 -0.794657 -0.356822
outer loop
vertex -13.811508 35.593327 4.309993
vertex -17.444250 35.593353 9.309945
vertex -19.068844 38.842506 4.309977
endloop
endfacet
facet normal -0.724042 -0.661696 -0.194736
outer loop
vertex -17.444250 35.593353 9.309945
vertex -21.131214 39.627712 9.309945
vertex -19.068844 38.842506 4.309977
endloop
endfacet
facet normal -0.724042 -0.661696 0.194736
outer loop
vertex -17.444250 35.593353 9.309945
vertex -19.068844 38.842506 14.309914
vertex -21.131214 39.627712 9.309945
endloop
endfacet
facet normal -0.491119 -0.794657 0.356822
outer loop
vertex -17.444250 35.593353 9.309945
vertex -13.811508 35.593327 14.309897
vertex -19.068844 38.842506 14.309914
endloop
endfacet
facet normal -0.408946 -0.661699 0.628425
outer loop
vertex -13.811508 35.593327 14.309897
vertex -14.950832 39.627670 17.816437
vertex -19.068844 38.842506 14.309914
endloop
endfacet
facet normal 0.700223 -0.661699 -0.268033
outer loop
vertex -3.680475 38.842510 9.309945
vertex -7.933726 35.593330 6.219831
vertex -4.950880 39.627674 4.052692
endloop
endfacet
facet normal 0.607060 -0.794656 0.000000
outer loop
vertex -3.680475 38.842510 9.309945
vertex -7.933726 35.593330 12.400059
vertex -7.933726 35.593330 6.219831
endloop
endfacet
facet normal 0.331305 -0.943524 0.000000
outer loop
vertex -7.933726 35.593330 12.400059
vertex -12.186953 34.099869 9.309945
vertex -7.933726 35.593330 6.219831
endloop
endfacet
facet normal -0.038530 -0.661699 0.748779
outer loop
vertex -13.811508 35.593327 14.309897
vertex -9.558265 38.842491 17.400059
vertex -14.950832 39.627670 17.816437
endloop
endfacet
facet normal 0.187595 -0.794658 0.577344
outer loop
vertex -13.811508 35.593327 14.309897
vertex -7.933726 35.593330 12.400059
vertex -9.558265 38.842491 17.400059
endloop
endfacet
facet normal 0.471299 -0.661699 0.583122
outer loop
vertex -7.933726 35.593330 12.400059
vertex -4.950880 39.627674 14.567198
vertex -9.558265 38.842491 17.400059
endloop
endfacet
endsolid Exported from Blender-2.74 (sub 0)
