solid Exported from Blender-2.74 (sub 0)
facet normal -0.634207 0.024176 -0.772785
outer loop
vertex -4.196931 -5.862437 -4.196945
vertex -2.489434 53.992619 -3.725717
vertex -3.297505 -5.862437 -4.935083
endloop
endfacet
facet normal -0.634208 0.024176 -0.772784
outer loop
vertex -4.196931 -5.862437 -4.196945
vertex -3.170268 53.886909 -3.170280
vertex -3.014069 53.899250 -3.298083
endloop
endfacet
facet normal -0.634206 0.024176 -0.772786
outer loop
vertex -4.196931 -5.862437 -4.196945
vertex -3.014069 53.899250 -3.298083
vertex -2.489434 53.992619 -3.725717
endloop
endfacet
facet normal -0.471259 0.024176 -0.881664
outer loop
vertex -3.297505 -5.862437 -4.935083
vertex -1.713551 54.121578 -4.136899
vertex -2.271357 -5.862437 -5.483569
endloop
endfacet
facet normal -0.471257 0.024176 -0.881665
outer loop
vertex -3.297505 -5.862437 -4.935083
vertex -2.489434 53.992619 -3.725717
vertex -1.925293 54.058689 -4.025444
endloop
endfacet
facet normal -0.471257 0.024176 -0.881665
outer loop
vertex -3.297505 -5.862437 -4.935083
vertex -1.925293 54.058689 -4.025444
vertex -1.713551 54.121578 -4.136899
endloop
endfacet
facet normal -0.097987 0.024176 -0.994894
outer loop
vertex -1.166256 -7.620229 -5.863217
vertex 0.000001 54.350674 -4.472176
vertex 0.000001 -7.620229 -5.978083
endloop
endfacet
facet normal -0.097988 0.024176 -0.994894
outer loop
vertex -1.166256 -7.620229 -5.863217
vertex -0.872748 54.292080 -4.387642
vertex -0.056869 54.342327 -4.466778
endloop
endfacet
facet normal -0.097976 0.024176 -0.994895
outer loop
vertex -1.166256 -7.620229 -5.863217
vertex -0.056869 54.342327 -4.466778
vertex 0.000001 54.350674 -4.472176
endloop
endfacet
facet normal -0.290198 0.024176 -0.956661
outer loop
vertex -1.166256 -7.620229 -5.863217
vertex -2.207990 -7.620229 -5.547213
vertex -2.134771 -5.862437 -5.525002
endloop
endfacet
facet normal -0.290190 0.024176 -0.956664
outer loop
vertex -2.271357 -5.862437 -5.483569
vertex -1.713551 54.121578 -4.136899
vertex -2.134771 -5.862437 -5.525002
endloop
endfacet
facet normal -0.290128 0.024182 -0.956682
outer loop
vertex -1.713551 54.121578 -4.136899
vertex -1.090249 54.261822 -4.322429
vertex -0.872748 54.292080 -4.387642
endloop
endfacet
facet normal -0.290198 0.024176 -0.956661
outer loop
vertex -0.872748 54.292080 -4.387642
vertex -1.166256 -7.620229 -5.863217
vertex -2.134771 -5.862437 -5.525002
endloop
endfacet
facet normal -0.290199 0.024176 -0.956661
outer loop
vertex -1.713551 54.121578 -4.136899
vertex -0.872748 54.292080 -4.387642
vertex -2.134771 -5.862437 -5.525002
endloop
endfacet
facet normal -0.881663 0.024176 -0.471260
outer loop
vertex -5.483560 -5.862437 -2.271374
vertex -3.728989 53.830219 -2.491640
vertex -4.935072 -5.862437 -3.297521
endloop
endfacet
facet normal -0.882606 0.024052 -0.469498
outer loop
vertex -4.145041 53.758511 -1.716941
vertex -3.797542 53.820747 -2.363873
vertex -3.728989 53.830219 -2.491640
endloop
endfacet
facet normal -0.881663 0.024176 -0.471260
outer loop
vertex -5.483560 -5.862437 -2.271374
vertex -4.145041 53.758511 -1.716941
vertex -3.728989 53.830219 -2.491640
endloop
endfacet
facet normal -0.772783 0.024176 -0.634209
outer loop
vertex -4.935072 -5.862437 -3.297521
vertex -3.170268 53.886909 -3.170280
vertex -4.196931 -5.862437 -4.196945
endloop
endfacet
facet normal -0.772784 0.024176 -0.634208
outer loop
vertex -4.935072 -5.862437 -3.297521
vertex -3.728989 53.830219 -2.491640
vertex -3.483472 53.855129 -2.789853
endloop
endfacet
facet normal -0.772783 0.024176 -0.634209
outer loop
vertex -4.935072 -5.862437 -3.297521
vertex -3.483472 53.855129 -2.789853
vertex -3.170268 53.886909 -3.170280
endloop
endfacet
facet normal -0.994894 0.024176 -0.097989
outer loop
vertex -5.978079 -7.620229 -0.000008
vertex -4.399309 53.802341 -0.875084
vertex -5.863212 -7.620229 -1.166274
endloop
endfacet
facet normal -0.994894 0.024176 -0.097989
outer loop
vertex -5.978079 -7.620229 -0.000008
vertex -4.480295 54.016418 -0.000007
vertex -4.453684 53.913696 -0.295534
endloop
endfacet
facet normal -0.994894 0.024176 -0.097990
outer loop
vertex -5.978079 -7.620229 -0.000008
vertex -4.453684 53.913696 -0.295534
vertex -4.399309 53.802341 -0.875084
endloop
endfacet
facet normal 0.000000 -1.000000 -0.000011
outer loop
vertex 0.000001 -7.620229 -5.978083
vertex -2.207990 -7.620229 -5.547213
vertex -1.166256 -7.620229 -5.863217
endloop
endfacet
facet normal 0.000000 -1.000000 0.000005
outer loop
vertex -5.863212 -7.620229 -1.166274
vertex -5.547252 -7.620229 -2.207850
vertex -5.522118 -7.620229 -2.124993
endloop
endfacet
facet normal 0.000000 -1.000000 0.000018
outer loop
vertex 0.000001 -7.620229 -5.978083
vertex -2.125054 -7.620229 -5.522055
vertex -2.207990 -7.620229 -5.547213
endloop
endfacet
facet normal 0.000000 -1.000000 0.000001
outer loop
vertex -5.863212 -7.620229 -1.166274
vertex -5.522118 -7.620229 -2.124993
vertex -5.281852 -7.620229 -1.675486
endloop
endfacet
facet normal 0.000000 -1.000000 0.000000
outer loop
vertex 0.000001 -7.620229 -5.978083
vertex -1.675548 -7.620229 -5.281789
vertex -2.125054 -7.620229 -5.522055
endloop
endfacet
facet normal 0.000000 -1.000000 0.000000
outer loop
vertex -5.863212 -7.620229 -1.166274
vertex -5.281852 -7.620229 -1.675486
vertex -4.958509 -7.620229 -1.281491
endloop
endfacet
facet normal 0.000000 -1.000000 0.000001
outer loop
vertex 0.000001 -7.620229 -5.978083
vertex -1.281553 -7.620229 -4.958446
vertex -1.675548 -7.620229 -5.281789
endloop
endfacet
facet normal 0.000000 -1.000000 -0.000001
outer loop
vertex -5.863212 -7.620229 -1.166274
vertex -4.958509 -7.620229 -1.281491
vertex -4.564514 -7.620229 -0.958148
endloop
endfacet
facet normal 0.000000 -1.000000 0.000001
outer loop
vertex 0.000001 -7.620229 -5.978083
vertex -0.958209 -7.620229 -4.564450
vertex -1.281553 -7.620229 -4.958446
endloop
endfacet
facet normal 0.000000 -1.000000 0.000002
outer loop
vertex -5.863212 -7.620229 -1.166274
vertex -4.564514 -7.620229 -0.958148
vertex -4.115008 -7.620229 -0.717881
endloop
endfacet
facet normal 0.000000 -1.000000 0.000000
outer loop
vertex 0.000001 -7.620229 -5.978083
vertex -0.717944 -7.620229 -4.114945
vertex -0.958209 -7.620229 -4.564450
endloop
endfacet
facet normal 0.000000 -1.000000 0.000000
outer loop
vertex -5.863212 -7.620229 -1.166274
vertex -4.115008 -7.620229 -0.717881
vertex -3.627267 -7.620229 -0.569926
endloop
endfacet
facet normal 0.000000 -1.000000 0.000000
outer loop
vertex 0.000001 -7.620229 -5.978083
vertex -0.569989 -7.620229 -3.627203
vertex -0.717944 -7.620229 -4.114945
endloop
endfacet
facet normal 0.000000 -1.000000 0.000000
outer loop
vertex -5.978079 -7.620229 -0.000008
vertex -5.863212 -7.620229 -1.166274
vertex -3.627267 -7.620229 -0.569926
endloop
endfacet
facet normal 0.000000 -1.000000 -0.000001
outer loop
vertex 0.000001 -7.620229 -5.978083
vertex -0.520030 -7.620229 -3.119967
vertex -0.569989 -7.620229 -3.627203
endloop
endfacet
facet normal 0.000000 -1.000000 0.000006
outer loop
vertex -5.978079 -7.620229 -0.000008
vertex -3.627267 -7.620229 -0.569926
vertex -3.120031 -7.620229 -0.519968
endloop
endfacet
facet normal 0.000000 -1.000000 0.000004
outer loop
vertex 0.000001 -7.620229 -5.978083
vertex -0.569989 -7.620229 -2.612733
vertex -0.520030 -7.620229 -3.119967
endloop
endfacet
facet normal 0.000000 -1.000000 -0.000008
outer loop
vertex -5.978079 -7.620229 -0.000008
vertex -3.120031 -7.620229 -0.519968
vertex -2.612796 -7.620229 -0.569926
endloop
endfacet
facet normal 0.000000 -1.000000 0.000000
outer loop
vertex 0.000001 -7.620229 -5.978083
vertex 1.166267 -7.620229 -5.863216
vertex -0.569989 -7.620229 -2.612733
endloop
endfacet
facet normal 0.000000 -1.000000 0.000000
outer loop
vertex -5.863214 -7.620229 1.166259
vertex -5.978079 -7.620229 -0.000008
vertex -2.612796 -7.620229 -0.569926
endloop
endfacet
facet normal 0.000000 -1.000000 -0.000003
outer loop
vertex 1.166267 -7.620229 -5.863216
vertex -0.717944 -7.620229 -2.124992
vertex -0.569989 -7.620229 -2.612733
endloop
endfacet
facet normal 0.000000 -1.000000 -0.000001
outer loop
vertex -5.863214 -7.620229 1.166259
vertex -2.612796 -7.620229 -0.569926
vertex -2.125054 -7.620229 -0.717881
endloop
endfacet
facet normal 0.000000 -1.000000 0.000009
outer loop
vertex 1.166267 -7.620229 -5.863216
vertex 2.207960 -7.620229 -5.547222
vertex 2.124996 -7.620229 -5.522055
endloop
endfacet
facet normal 0.000000 -1.000000 0.000009
outer loop
vertex -5.522116 -7.620229 2.125052
vertex -5.547242 -7.620229 2.207882
vertex -5.863214 -7.620229 1.166259
endloop
endfacet
facet normal 0.000000 -1.000000 0.000000
outer loop
vertex 1.166267 -7.620229 -5.863216
vertex 2.124996 -7.620229 -5.522055
vertex 1.675489 -7.620229 -5.281790
endloop
endfacet
facet normal 0.000000 -1.000000 -0.000001
outer loop
vertex -5.281849 -7.620229 1.675547
vertex -5.522116 -7.620229 2.125052
vertex -5.863214 -7.620229 1.166259
endloop
endfacet
facet normal 0.000000 -1.000000 -0.000001
outer loop
vertex 1.166267 -7.620229 -5.863216
vertex 1.675489 -7.620229 -5.281790
vertex 1.281494 -7.620229 -4.958447
endloop
endfacet
facet normal 0.000000 -1.000000 0.000002
outer loop
vertex -4.958506 -7.620229 1.281552
vertex -5.281849 -7.620229 1.675547
vertex -5.863214 -7.620229 1.166259
endloop
endfacet
facet normal 0.000000 -1.000000 0.000000
outer loop
vertex 1.166267 -7.620229 -5.863216
vertex 1.281494 -7.620229 -4.958447
vertex 0.958151 -7.620229 -4.564453
endloop
endfacet
facet normal 0.000000 -1.000000 0.000003
outer loop
vertex -4.564510 -7.620229 0.958210
vertex -4.958506 -7.620229 1.281552
vertex -5.863214 -7.620229 1.166259
endloop
endfacet
facet normal 0.000000 -1.000000 0.000001
outer loop
vertex 1.166267 -7.620229 -5.863216
vertex 0.958151 -7.620229 -4.564453
vertex -0.717944 -7.620229 -2.124992
endloop
endfacet
facet normal 0.000000 -1.000000 0.000000
outer loop
vertex -4.564510 -7.620229 0.958210
vertex -5.863214 -7.620229 1.166259
vertex -2.125054 -7.620229 -0.717881
endloop
endfacet
facet normal 0.000000 -1.000000 -0.000001
outer loop
vertex 0.958151 -7.620229 -4.564453
vertex -0.958209 -7.620229 -1.675485
vertex -0.717944 -7.620229 -2.124992
endloop
endfacet
facet normal 0.000000 -1.000000 0.000003
outer loop
vertex -4.564510 -7.620229 0.958210
vertex -2.125054 -7.620229 -0.717881
vertex -1.675548 -7.620229 -0.958146
endloop
endfacet
facet normal 0.000000 -1.000000 -0.000011
outer loop
vertex 0.958151 -7.620229 -4.564453
vertex 0.717884 -7.620229 -4.114947
vertex -0.958209 -7.620229 -1.675485
endloop
endfacet
facet normal 0.000000 -1.000000 0.000000
outer loop
vertex -4.115004 -7.620229 0.717944
vertex -4.564510 -7.620229 0.958210
vertex -1.675548 -7.620229 -0.958146
endloop
endfacet
facet normal 0.000000 -1.000000 0.000004
outer loop
vertex 0.717884 -7.620229 -4.114947
vertex 0.569928 -7.620229 -3.627205
vertex -0.958209 -7.620229 -1.675485
endloop
endfacet
facet normal 0.000000 -1.000000 0.000000
outer loop
vertex -3.627262 -7.620229 0.569990
vertex -4.115004 -7.620229 0.717944
vertex -1.675548 -7.620229 -0.958146
endloop
endfacet
facet normal 0.000000 -1.000000 -0.000003
outer loop
vertex 0.569928 -7.620229 -3.627205
vertex 0.519970 -7.620229 -3.119970
vertex -0.958209 -7.620229 -1.675485
endloop
endfacet
facet normal 0.000000 -1.000000 0.000000
outer loop
vertex -3.120030 -7.620229 0.520032
vertex -3.627262 -7.620229 0.569990
vertex -1.675548 -7.620229 -0.958146
endloop
endfacet
facet normal 0.000000 -1.000000 0.000004
outer loop
vertex 0.519970 -7.620229 -3.119970
vertex -1.281553 -7.620229 -1.281490
vertex -0.958209 -7.620229 -1.675485
endloop
endfacet
facet normal 0.000000 -1.000000 0.000008
outer loop
vertex -3.120030 -7.620229 0.520032
vertex -1.675548 -7.620229 -0.958146
vertex -1.281553 -7.620229 -1.281490
endloop
endfacet
facet normal 0.000000 -1.000000 -0.000007
outer loop
vertex -1.166267 -7.620229 5.863211
vertex -2.207874 -7.620229 5.547243
vertex -2.125054 -7.620229 5.522120
endloop
endfacet
facet normal 0.000000 -1.000000 -0.000002
outer loop
vertex -2.612796 -7.620229 0.569991
vertex -3.120030 -7.620229 0.520032
vertex -1.281553 -7.620229 -1.281490
endloop
endfacet
facet normal 0.000000 -1.000000 -0.000001
outer loop
vertex -1.166267 -7.620229 5.863211
vertex -2.125054 -7.620229 5.522120
vertex -1.675548 -7.620229 5.281853
endloop
endfacet
facet normal 0.000000 -1.000000 0.000000
outer loop
vertex -2.125054 -7.620229 0.717946
vertex -2.612796 -7.620229 0.569991
vertex -1.281553 -7.620229 -1.281490
endloop
endfacet
facet normal 0.000000 -1.000000 0.000000
outer loop
vertex -1.166267 -7.620229 5.863211
vertex -1.675548 -7.620229 5.281853
vertex -1.281553 -7.620229 4.958510
endloop
endfacet
facet normal 0.000000 -1.000000 0.000000
outer loop
vertex -1.675548 -7.620229 0.958212
vertex -2.125054 -7.620229 0.717946
vertex -1.281553 -7.620229 -1.281490
endloop
endfacet
facet normal 0.000000 -1.000000 0.000000
outer loop
vertex -1.166267 -7.620229 5.863211
vertex -1.281553 -7.620229 4.958510
vertex -0.958209 -7.620229 4.564515
endloop
endfacet
facet normal 0.000000 -1.000000 0.000000
outer loop
vertex -1.281553 -7.620229 1.281555
vertex -1.675548 -7.620229 0.958212
vertex -1.281553 -7.620229 -1.281490
endloop
endfacet
facet normal 0.000000 -1.000000 -0.000001
outer loop
vertex -1.166267 -7.620229 5.863211
vertex -0.958209 -7.620229 4.564515
vertex -0.717944 -7.620229 4.115009
endloop
endfacet
facet normal 0.000000 -1.000000 0.000000
outer loop
vertex -0.958209 -7.620229 1.675550
vertex -1.281553 -7.620229 1.281555
vertex -1.281553 -7.620229 -1.281490
endloop
endfacet
facet normal 0.000000 -1.000000 0.000012
outer loop
vertex -1.166267 -7.620229 5.863211
vertex -0.717944 -7.620229 4.115009
vertex -0.569989 -7.620229 3.627267
endloop
endfacet
facet normal 0.000000 -1.000000 -0.000001
outer loop
vertex -0.717944 -7.620229 2.125056
vertex -0.958209 -7.620229 1.675550
vertex -1.281553 -7.620229 -1.281490
endloop
endfacet
facet normal 0.000000 -1.000000 -0.000001
outer loop
vertex -0.000001 -7.620229 5.978078
vertex -1.166267 -7.620229 5.863211
vertex -0.569989 -7.620229 3.627267
endloop
endfacet
facet normal 0.000000 -1.000000 0.000000
outer loop
vertex -0.569989 -7.620229 2.612797
vertex -0.717944 -7.620229 2.125056
vertex -1.281553 -7.620229 -1.281490
endloop
endfacet
facet normal 0.000000 -1.000000 0.000000
outer loop
vertex -0.000001 -7.620229 5.978078
vertex -0.569989 -7.620229 3.627267
vertex -0.520030 -7.620229 3.120033
endloop
endfacet
facet normal 0.000000 -1.000000 -0.000000
outer loop
vertex 0.519970 -7.620229 -3.119970
vertex -0.569989 -7.620229 2.612797
vertex -1.281553 -7.620229 -1.281490
endloop
endfacet
facet normal 0.000000 -1.000000 -0.000000
outer loop
vertex -0.000001 -7.620229 5.978078
vertex -0.520030 -7.620229 3.120033
vertex -0.569989 -7.620229 2.612797
endloop
endfacet
facet normal 0.000000 -1.000000 0.000000
outer loop
vertex 2.207848 -7.620229 5.547252
vertex 1.166265 -7.620229 5.863212
vertex -0.000001 -7.620229 5.978078
endloop
endfacet
facet normal 0.000000 -1.000000 0.000004
outer loop
vertex 5.863214 -7.620229 1.166263
vertex 5.547212 -7.620229 2.207984
vertex 5.522056 -7.620229 2.125056
endloop
endfacet
facet normal 0.000000 -1.000000 0.000042
outer loop
vertex 2.124992 -7.620229 5.522118
vertex 2.207848 -7.620229 5.547252
vertex -0.000001 -7.620229 5.978078
endloop
endfacet
facet normal 0.000000 -1.000000 0.000000
outer loop
vertex 5.863214 -7.620229 1.166263
vertex 5.522056 -7.620229 2.125056
vertex 5.281791 -7.620229 1.675550
endloop
endfacet
facet normal 0.000000 -1.000000 -0.000005
outer loop
vertex 1.675485 -7.620229 5.281852
vertex 2.124992 -7.620229 5.522118
vertex -0.000001 -7.620229 5.978078
endloop
endfacet
facet normal 0.000000 -1.000000 0.000000
outer loop
vertex 5.863214 -7.620229 1.166263
vertex 5.281791 -7.620229 1.675550
vertex 4.958447 -7.620229 1.281555
endloop
endfacet
facet normal 0.000000 -1.000000 0.000002
outer loop
vertex 1.281491 -7.620229 4.958509
vertex 1.675485 -7.620229 5.281852
vertex -0.000001 -7.620229 5.978078
endloop
endfacet
facet normal 0.000000 -1.000000 0.000000
outer loop
vertex 5.863214 -7.620229 1.166263
vertex 4.958447 -7.620229 1.281555
vertex 4.564452 -7.620229 0.958212
endloop
endfacet
facet normal 0.000000 -1.000000 0.000000
outer loop
vertex 0.958148 -7.620229 4.564513
vertex 1.281491 -7.620229 4.958509
vertex -0.000001 -7.620229 5.978078
endloop
endfacet
facet normal 0.000000 -1.000000 0.000004
outer loop
vertex 5.863214 -7.620229 1.166263
vertex 4.564452 -7.620229 0.958212
vertex 4.114947 -7.620229 0.717946
endloop
endfacet
facet normal 0.000000 -1.000000 0.000000
outer loop
vertex 0.717882 -7.620229 4.115007
vertex 0.958148 -7.620229 4.564513
vertex -0.000001 -7.620229 5.978078
endloop
endfacet
facet normal 0.000000 -1.000000 -0.000036
outer loop
vertex 5.863214 -7.620229 1.166263
vertex 4.114947 -7.620229 0.717946
vertex 3.627204 -7.620229 0.569991
endloop
endfacet
facet normal 0.000000 -1.000000 -0.000002
outer loop
vertex 0.569928 -7.620229 3.627265
vertex 0.717882 -7.620229 4.115007
vertex -0.000001 -7.620229 5.978078
endloop
endfacet
facet normal 0.000000 -1.000000 0.000000
outer loop
vertex 5.978081 -7.620229 -0.000002
vertex 5.863214 -7.620229 1.166263
vertex 3.627204 -7.620229 0.569991
endloop
endfacet
facet normal 0.000000 -1.000000 0.000000
outer loop
vertex 0.519970 -7.620229 3.120030
vertex 0.569928 -7.620229 3.627265
vertex -0.000001 -7.620229 5.978078
endloop
endfacet
facet normal 0.000000 -1.000000 0.000002
outer loop
vertex 5.978081 -7.620229 -0.000002
vertex 3.627204 -7.620229 0.569991
vertex 3.119970 -7.620229 0.520032
endloop
endfacet
facet normal 0.000000 -1.000000 0.000004
outer loop
vertex 0.569928 -7.620229 2.612795
vertex 0.519970 -7.620229 3.120030
vertex -0.000001 -7.620229 5.978078
endloop
endfacet
facet normal 0.000000 -1.000000 -0.000012
outer loop
vertex 5.978081 -7.620229 -0.000002
vertex 3.119970 -7.620229 0.520032
vertex 2.612738 -7.620229 0.569990
endloop
endfacet
facet normal 0.000000 -1.000000 -0.000000
outer loop
vertex 0.569928 -7.620229 2.612795
vertex -0.000001 -7.620229 5.978078
vertex -0.569989 -7.620229 2.612797
endloop
endfacet
facet normal 0.000000 -1.000000 0.000000
outer loop
vertex 5.863214 -7.620229 -1.166268
vertex 5.978081 -7.620229 -0.000002
vertex 2.612738 -7.620229 0.569990
endloop
endfacet
facet normal 0.000000 -1.000000 0.000003
outer loop
vertex 0.717884 -7.620229 2.125052
vertex 0.569928 -7.620229 2.612795
vertex -0.569989 -7.620229 2.612797
endloop
endfacet
facet normal 0.000000 -1.000000 0.000001
outer loop
vertex 5.863214 -7.620229 -1.166268
vertex 2.612738 -7.620229 0.569990
vertex 2.124996 -7.620229 0.717944
endloop
endfacet
facet normal 0.000000 -1.000000 0.000000
outer loop
vertex 0.958151 -7.620229 1.675547
vertex 0.717884 -7.620229 2.125052
vertex -0.569989 -7.620229 2.612797
endloop
endfacet
facet normal 0.000000 -1.000000 0.000000
outer loop
vertex 5.522056 -7.620229 -2.124992
vertex 5.547223 -7.620229 -2.207954
vertex 5.863214 -7.620229 -1.166268
endloop
endfacet
facet normal 0.000000 -1.000000 0.000000
outer loop
vertex 1.281494 -7.620229 1.281552
vertex 0.958151 -7.620229 1.675547
vertex -0.569989 -7.620229 2.612797
endloop
endfacet
facet normal 0.000000 -1.000000 0.000000
outer loop
vertex 5.281791 -7.620229 -1.675485
vertex 5.522056 -7.620229 -2.124992
vertex 5.863214 -7.620229 -1.166268
endloop
endfacet
facet normal 0.000000 -1.000000 -0.000026
outer loop
vertex 1.675489 -7.620229 0.958210
vertex 1.281494 -7.620229 1.281552
vertex -0.569989 -7.620229 2.612797
endloop
endfacet
facet normal 0.000000 -1.000000 0.000000
outer loop
vertex 4.958447 -7.620229 -1.281490
vertex 5.281791 -7.620229 -1.675485
vertex 5.863214 -7.620229 -1.166268
endloop
endfacet
facet normal 0.000000 -1.000000 0.000000
outer loop
vertex 0.519970 -7.620229 -3.119970
vertex 0.569928 -7.620229 -2.612735
vertex -0.569989 -7.620229 2.612797
endloop
endfacet
facet normal 0.000000 -1.000000 0.000000
outer loop
vertex 4.564452 -7.620229 -0.958146
vertex 4.958447 -7.620229 -1.281490
vertex 5.863214 -7.620229 -1.166268
endloop
endfacet
facet normal 0.000000 -1.000000 0.000003
outer loop
vertex 0.569928 -7.620229 -2.612735
vertex 0.717882 -7.620229 -2.124993
vertex -0.569989 -7.620229 2.612797
endloop
endfacet
facet normal 0.000000 -1.000000 0.000000
outer loop
vertex 4.564452 -7.620229 -0.958146
vertex 5.863214 -7.620229 -1.166268
vertex 2.124996 -7.620229 0.717944
endloop
endfacet
facet normal 0.000000 -1.000000 0.000000
outer loop
vertex 0.717882 -7.620229 -2.124993
vertex 1.675489 -7.620229 0.958210
vertex -0.569989 -7.620229 2.612797
endloop
endfacet
facet normal 0.000000 -1.000000 0.000003
outer loop
vertex 4.564452 -7.620229 -0.958146
vertex 2.124996 -7.620229 0.717944
vertex 1.675489 -7.620229 0.958210
endloop
endfacet
facet normal 0.000000 -1.000000 0.000000
outer loop
vertex 0.717882 -7.620229 -2.124993
vertex 0.958148 -7.620229 -1.675486
vertex 1.675489 -7.620229 0.958210
endloop
endfacet
facet normal 0.000000 -1.000000 0.000000
outer loop
vertex 4.114945 -7.620229 -0.717881
vertex 4.564452 -7.620229 -0.958146
vertex 1.675489 -7.620229 0.958210
endloop
endfacet
facet normal 0.000000 -1.000000 0.000000
outer loop
vertex 0.958148 -7.620229 -1.675486
vertex 1.281491 -7.620229 -1.281491
vertex 1.675489 -7.620229 0.958210
endloop
endfacet
facet normal 0.000000 -1.000000 0.000000
outer loop
vertex 3.627203 -7.620229 -0.569926
vertex 4.114945 -7.620229 -0.717881
vertex 1.675489 -7.620229 0.958210
endloop
endfacet
facet normal 0.000000 -1.000000 0.000000
outer loop
vertex 1.281491 -7.620229 -1.281491
vertex 1.675485 -7.620229 -0.958148
vertex 1.675489 -7.620229 0.958210
endloop
endfacet
facet normal 0.000000 -1.000000 0.000000
outer loop
vertex 3.119968 -7.620229 -0.519968
vertex 3.627203 -7.620229 -0.569926
vertex 1.675489 -7.620229 0.958210
endloop
endfacet
facet normal 0.000000 -1.000000 0.000000
outer loop
vertex 1.675485 -7.620229 -0.958148
vertex 2.124992 -7.620229 -0.717881
vertex 1.675489 -7.620229 0.958210
endloop
endfacet
facet normal 0.000000 -1.000000 0.000000
outer loop
vertex 2.612733 -7.620229 -0.569926
vertex 3.119968 -7.620229 -0.519968
vertex 1.675489 -7.620229 0.958210
endloop
endfacet
facet normal 0.000000 -1.000000 0.000001
outer loop
vertex 2.124992 -7.620229 -0.717881
vertex 2.612733 -7.620229 -0.569926
vertex 1.675489 -7.620229 0.958210
endloop
endfacet
facet normal 0.097989 0.024176 -0.994894
outer loop
vertex 0.872205 54.408337 -4.384870
vertex 1.166267 -7.620229 -5.863216
vertex 0.000001 -7.620229 -5.978083
endloop
endfacet
facet normal 0.097987 0.024176 -0.994894
outer loop
vertex 0.000001 -7.620229 -5.978083
vertex 0.000001 54.350674 -4.472176
vertex 0.872205 54.408337 -4.384870
endloop
endfacet
facet normal -0.956660 0.024176 -0.290201
outer loop
vertex -5.863212 -7.620229 -1.166274
vertex -5.525041 -5.862437 -2.134630
vertex -5.547252 -7.620229 -2.207850
endloop
endfacet
facet normal -0.956661 0.024176 -0.290200
outer loop
vertex -4.145041 53.758511 -1.716941
vertex -5.483560 -5.862437 -2.271374
vertex -5.525041 -5.862437 -2.134630
endloop
endfacet
facet normal -0.956661 0.024176 -0.290199
outer loop
vertex -5.863212 -7.620229 -1.166274
vertex -4.399309 53.802341 -0.875084
vertex -4.293077 53.719372 -1.232196
endloop
endfacet
facet normal -0.956660 0.024176 -0.290201
outer loop
vertex -4.293077 53.719372 -1.232196
vertex -4.145041 53.758511 -1.716941
vertex -5.525041 -5.862437 -2.134630
endloop
endfacet
facet normal -0.956660 0.024176 -0.290201
outer loop
vertex -5.863212 -7.620229 -1.166274
vertex -4.293077 53.719372 -1.232196
vertex -5.525041 -5.862437 -2.134630
endloop
endfacet
facet normal -0.881664 0.024176 0.471258
outer loop
vertex -4.935078 -5.862437 3.297507
vertex -4.127864 54.523758 1.709811
vertex -5.483564 -5.862437 2.271360
endloop
endfacet
facet normal -0.881664 0.024176 0.471257
outer loop
vertex -4.935078 -5.862437 3.297507
vertex -3.710285 54.756161 2.479127
vertex -3.814859 54.669788 2.287913
endloop
endfacet
facet normal -0.881664 0.024176 0.471258
outer loop
vertex -4.935078 -5.862437 3.297507
vertex -3.958166 54.598782 2.023446
vertex -4.127864 54.523758 1.709811
endloop
endfacet
facet normal -0.881662 0.024176 0.471263
outer loop
vertex -4.935078 -5.862437 3.297507
vertex -3.814859 54.669788 2.287913
vertex -3.855371 54.644844 2.213399
endloop
endfacet
facet normal -0.881665 0.024176 0.471257
outer loop
vertex -4.935078 -5.862437 3.297507
vertex -3.855371 54.644844 2.213399
vertex -3.958166 54.598782 2.023446
endloop
endfacet
facet normal -0.994894 0.024176 0.097987
outer loop
vertex -4.480295 54.016418 -0.000007
vertex -5.978079 -7.620229 -0.000008
vertex -5.863214 -7.620229 1.166259
endloop
endfacet
facet normal -0.994894 0.024176 0.097988
outer loop
vertex -5.863214 -7.620229 1.166259
vertex -4.387679 54.290367 0.872757
vertex -4.480295 54.016418 -0.000007
endloop
endfacet
facet normal 0.290200 0.024176 -0.956661
outer loop
vertex 1.166267 -7.620229 -5.863216
vertex 2.134740 -5.862437 -5.525012
vertex 2.207960 -7.620229 -5.547222
endloop
endfacet
facet normal 0.290204 0.024176 -0.956659
outer loop
vertex 1.710001 54.504139 -4.128307
vertex 2.271367 -5.862437 -5.483566
vertex 2.134740 -5.862437 -5.525012
endloop
endfacet
facet normal 0.290202 0.024176 -0.956660
outer loop
vertex 1.166267 -7.620229 -5.863216
vertex 0.872205 54.408337 -4.384870
vertex 1.078971 54.404655 -4.322241
endloop
endfacet
facet normal 0.290200 0.024176 -0.956661
outer loop
vertex 1.442036 54.459515 -4.210721
vertex 1.710001 54.504139 -4.128307
vertex 2.134740 -5.862437 -5.525012
endloop
endfacet
facet normal 0.290198 0.024176 -0.956661
outer loop
vertex 1.166267 -7.620229 -5.863216
vertex 1.078971 54.404655 -4.322241
vertex 1.442036 54.459515 -4.210721
endloop
endfacet
facet normal 0.290199 0.024176 -0.956661
outer loop
vertex 1.166267 -7.620229 -5.863216
vertex 1.442036 54.459515 -4.210721
vertex 2.134740 -5.862437 -5.525012
endloop
endfacet
facet normal 0.956661 0.024176 -0.290200
outer loop
vertex 5.863214 -7.620229 -1.166268
vertex 5.547223 -7.620229 -2.207954
vertex 5.525012 -5.862437 -2.134734
endloop
endfacet
facet normal 0.956660 0.024176 -0.290201
outer loop
vertex 5.483564 -5.862437 -2.271368
vertex 4.119976 54.875114 -1.706553
vertex 5.525012 -5.862437 -2.134734
endloop
endfacet
facet normal 0.956517 0.024126 -0.290677
outer loop
vertex 4.119976 54.875114 -1.706553
vertex 4.295894 54.970676 -1.118667
vertex 4.370658 55.004574 -0.869381
endloop
endfacet
facet normal 0.956661 0.024176 -0.290200
outer loop
vertex 4.370658 55.004574 -0.869381
vertex 5.863214 -7.620229 -1.166268
vertex 5.525012 -5.862437 -2.134734
endloop
endfacet
facet normal 0.956661 0.024176 -0.290200
outer loop
vertex 4.119976 54.875114 -1.706553
vertex 4.370658 55.004574 -0.869381
vertex 5.525012 -5.862437 -2.134734
endloop
endfacet
facet normal 0.994894 0.024176 -0.097988
outer loop
vertex 5.863214 -7.620229 -1.166268
vertex 4.455027 55.056328 -0.000003
vertex 5.978081 -7.620229 -0.000002
endloop
endfacet
facet normal 0.994894 0.024176 -0.097989
outer loop
vertex 5.863214 -7.620229 -1.166268
vertex 4.370658 55.004574 -0.869381
vertex 4.392762 55.016033 -0.642127
endloop
endfacet
facet normal 0.994892 0.024177 -0.098008
outer loop
vertex 5.863214 -7.620229 -1.166268
vertex 4.453451 55.055084 -0.016308
vertex 4.455027 55.056328 -0.000003
endloop
endfacet
facet normal 0.994894 0.024176 -0.097988
outer loop
vertex 5.863214 -7.620229 -1.166268
vertex 4.392762 55.016033 -0.642127
vertex 4.453451 55.055084 -0.016308
endloop
endfacet
facet normal 0.994894 0.024176 0.097988
outer loop
vertex 5.978081 -7.620229 -0.000002
vertex 4.369129 55.068756 0.869070
vertex 5.863214 -7.620229 1.166263
endloop
endfacet
facet normal 0.994894 0.024176 0.097988
outer loop
vertex 5.978081 -7.620229 -0.000002
vertex 4.455027 55.056328 -0.000003
vertex 4.387379 55.056278 0.686847
endloop
endfacet
facet normal 0.994894 0.024176 0.097987
outer loop
vertex 5.978081 -7.620229 -0.000002
vertex 4.387379 55.056278 0.686847
vertex 4.369129 55.068756 0.869070
endloop
endfacet
facet normal 0.956661 0.024177 0.290200
outer loop
vertex 5.863214 -7.620229 1.166263
vertex 5.525001 -5.862437 2.134764
vertex 5.547212 -7.620229 2.207984
endloop
endfacet
facet normal 0.956663 0.024176 0.290191
outer loop
vertex 4.115002 55.096687 1.704486
vertex 5.483565 -5.862437 2.271363
vertex 5.525001 -5.862437 2.134764
endloop
endfacet
facet normal 0.956661 0.024176 0.290200
outer loop
vertex 5.863214 -7.620229 1.166263
vertex 4.369129 55.068756 0.869070
vertex 4.185116 55.059753 1.476428
endloop
endfacet
facet normal 0.956660 0.024176 0.290201
outer loop
vertex 4.185116 55.059753 1.476428
vertex 4.115002 55.096687 1.704486
vertex 5.525001 -5.862437 2.134764
endloop
endfacet
facet normal 0.956661 0.024176 0.290200
outer loop
vertex 5.863214 -7.620229 1.166263
vertex 4.185116 55.059753 1.476428
vertex 5.525001 -5.862437 2.134764
endloop
endfacet
facet normal 0.290200 0.024176 0.956661
outer loop
vertex 0.866730 55.562988 4.357346
vertex 2.271366 -5.862437 5.483562
vertex 1.701003 55.471630 4.106581
endloop
endfacet
facet normal 0.290199 0.024176 0.956661
outer loop
vertex 1.166265 -7.620229 5.863212
vertex 2.207848 -7.620229 5.547252
vertex 2.134628 -5.862437 5.525041
endloop
endfacet
facet normal 0.290198 0.024176 0.956661
outer loop
vertex 0.866730 55.562988 4.357346
vertex 2.134628 -5.862437 5.525041
vertex 2.271366 -5.862437 5.483562
endloop
endfacet
facet normal 0.290199 0.024176 0.956661
outer loop
vertex 0.866730 55.562988 4.357346
vertex 1.166265 -7.620229 5.863212
vertex 2.134628 -5.862437 5.525041
endloop
endfacet
facet normal 0.097988 0.024176 0.994894
outer loop
vertex 1.166265 -7.620229 5.863212
vertex -0.000001 55.590416 4.442045
vertex -0.000001 -7.620229 5.978078
endloop
endfacet
facet normal 0.097989 0.024176 0.994894
outer loop
vertex 1.166265 -7.620229 5.863212
vertex 0.866730 55.562988 4.357346
vertex 0.524444 55.559265 4.391149
endloop
endfacet
facet normal 0.097987 0.024176 0.994894
outer loop
vertex 1.166265 -7.620229 5.863212
vertex 0.524444 55.559265 4.391149
vertex -0.000001 55.590416 4.442045
endloop
endfacet
facet normal -0.097989 0.024176 0.994894
outer loop
vertex -0.000001 -7.620229 5.978078
vertex -0.866772 55.554325 4.357553
vertex -1.166267 -7.620229 5.863211
endloop
endfacet
facet normal -0.097140 0.023747 0.994987
outer loop
vertex -0.000001 55.590416 4.442045
vertex -0.456367 55.572060 4.397543
vertex -0.866772 55.554325 4.357553
endloop
endfacet
facet normal -0.097989 0.024176 0.994894
outer loop
vertex -0.000001 -7.620229 5.978078
vertex -0.000001 55.590416 4.442045
vertex -0.866772 55.554325 4.357553
endloop
endfacet
facet normal -0.290201 0.024176 0.956660
outer loop
vertex -1.701371 55.432175 4.107466
vertex -1.166267 -7.620229 5.863211
vertex -0.866772 55.554325 4.357553
endloop
endfacet
facet normal -0.290200 0.024177 0.956661
outer loop
vertex -2.134654 -5.862437 5.525031
vertex -2.207874 -7.620229 5.547243
vertex -1.166267 -7.620229 5.863211
endloop
endfacet
facet normal -0.290193 0.024176 0.956663
outer loop
vertex -1.701371 55.432175 4.107466
vertex -2.271368 -5.862437 5.483560
vertex -2.134654 -5.862437 5.525031
endloop
endfacet
facet normal -0.290200 0.024176 0.956661
outer loop
vertex -1.701371 55.432175 4.107466
vertex -2.134654 -5.862437 5.525031
vertex -1.166267 -7.620229 5.863211
endloop
endfacet
facet normal -0.956661 0.024176 0.290199
outer loop
vertex -4.387679 54.290367 0.872757
vertex -5.483564 -5.862437 2.271360
vertex -4.127864 54.523758 1.709811
endloop
endfacet
facet normal -0.956661 0.024176 0.290199
outer loop
vertex -5.863214 -7.620229 1.166259
vertex -5.547242 -7.620229 2.207882
vertex -5.525031 -5.862437 2.134662
endloop
endfacet
facet normal -0.956660 0.024176 0.290203
outer loop
vertex -4.387679 54.290367 0.872757
vertex -5.525031 -5.862437 2.134662
vertex -5.483564 -5.862437 2.271360
endloop
endfacet
facet normal -0.956661 0.024176 0.290199
outer loop
vertex -4.387679 54.290367 0.872757
vertex -5.863214 -7.620229 1.166259
vertex -5.525031 -5.862437 2.134662
endloop
endfacet
facet normal -0.772785 0.024176 0.634207
outer loop
vertex -4.196939 -5.862437 4.196933
vertex -3.150422 55.042297 3.150416
vertex -3.710285 54.756161 2.479127
endloop
endfacet
facet normal -0.772785 0.024176 0.634207
outer loop
vertex -3.710285 54.756161 2.479127
vertex -4.935078 -5.862437 3.297507
vertex -4.196939 -5.862437 4.196933
endloop
endfacet
facet normal 0.471259 0.024176 -0.881663
outer loop
vertex 2.271367 -5.862437 -5.483566
vertex 1.710001 54.504139 -4.128307
vertex 2.481552 54.576962 -3.713907
endloop
endfacet
facet normal 0.471259 0.024176 -0.881664
outer loop
vertex 2.481552 54.576962 -3.713907
vertex 3.297514 -5.862437 -4.935079
vertex 2.271367 -5.862437 -5.483566
endloop
endfacet
facet normal 0.881664 0.024176 -0.471259
outer loop
vertex 4.935078 -5.862437 -3.297514
vertex 4.119976 54.875114 -1.706553
vertex 5.483564 -5.862437 -2.271368
endloop
endfacet
facet normal 0.881664 0.024176 -0.471258
outer loop
vertex 4.935078 -5.862437 -3.297514
vertex 3.709875 54.776466 -2.478861
vertex 4.016788 54.822731 -1.902291
endloop
endfacet
facet normal 0.881664 0.024176 -0.471258
outer loop
vertex 4.935078 -5.862437 -3.297514
vertex 4.016788 54.822731 -1.902291
vertex 4.119976 54.875114 -1.706553
endloop
endfacet
facet normal 0.881663 0.024176 0.471259
outer loop
vertex 5.483565 -5.862437 2.271363
vertex 3.701988 55.166805 2.473586
vertex 4.935078 -5.862437 3.297510
endloop
endfacet
facet normal 0.876509 0.025461 0.480711
outer loop
vertex 4.115002 55.096687 1.704486
vertex 3.932607 55.127918 2.044121
vertex 3.701988 55.166805 2.473586
endloop
endfacet
facet normal 0.881664 0.024176 0.471258
outer loop
vertex 5.483565 -5.862437 2.271363
vertex 4.115002 55.096687 1.704486
vertex 3.701988 55.166805 2.473586
endloop
endfacet
facet normal 0.471259 0.024176 0.881664
outer loop
vertex 3.297513 -5.862437 4.935075
vertex 1.701003 55.471630 4.106581
vertex 2.271366 -5.862437 5.483562
endloop
endfacet
facet normal 0.471258 0.024176 0.881664
outer loop
vertex 3.297513 -5.862437 4.935075
vertex 2.470794 55.373821 3.697802
vertex 2.167189 55.398865 3.859395
endloop
endfacet
facet normal 0.471304 0.024175 0.881639
outer loop
vertex 3.297513 -5.862437 4.935075
vertex 1.708687 55.469746 4.102526
vertex 1.701003 55.471630 4.106581
endloop
endfacet
facet normal 0.471259 0.024176 0.881664
outer loop
vertex 3.297513 -5.862437 4.935075
vertex 2.167189 55.398865 3.859395
vertex 1.708687 55.469746 4.102526
endloop
endfacet
facet normal -0.471259 0.024176 0.881663
outer loop
vertex -2.271368 -5.862437 5.483560
vertex -2.472370 55.257137 3.700157
vertex -3.297515 -5.862437 4.935073
endloop
endfacet
facet normal -0.471259 0.024176 0.881663
outer loop
vertex -2.271368 -5.862437 5.483560
vertex -1.701371 55.432175 4.107466
vertex -2.130239 55.319595 3.881318
endloop
endfacet
facet normal -0.471256 0.024176 0.881665
outer loop
vertex -2.271368 -5.862437 5.483560
vertex -2.393634 55.271015 3.741863
vertex -2.472370 55.257137 3.700157
endloop
endfacet
facet normal -0.471260 0.024176 0.881663
outer loop
vertex -2.271368 -5.862437 5.483560
vertex -2.130239 55.319595 3.881318
vertex -2.393634 55.271015 3.741863
endloop
endfacet
facet normal -0.634208 0.024176 0.772784
outer loop
vertex -3.297515 -5.862437 4.935073
vertex -2.472370 55.257137 3.700157
vertex -3.150422 55.042297 3.150416
endloop
endfacet
facet normal -0.634209 0.024176 0.772784
outer loop
vertex -3.150422 55.042297 3.150416
vertex -4.196939 -5.862437 4.196933
vertex -3.297515 -5.862437 4.935073
endloop
endfacet
facet normal 0.634208 0.024176 -0.772784
outer loop
vertex 3.297514 -5.862437 -4.935079
vertex 3.157201 54.647694 -3.157203
vertex 4.196939 -5.862437 -4.196939
endloop
endfacet
facet normal 0.634207 0.024176 -0.772785
outer loop
vertex 3.297514 -5.862437 -4.935079
vertex 2.481552 54.576962 -3.713907
vertex 2.838511 54.578812 -3.420901
endloop
endfacet
facet normal 0.634205 0.024176 -0.772787
outer loop
vertex 3.297514 -5.862437 -4.935079
vertex 3.090348 54.628757 -3.212661
vertex 3.157201 54.647694 -3.157203
endloop
endfacet
facet normal 0.634206 0.024176 -0.772786
outer loop
vertex 3.297514 -5.862437 -4.935079
vertex 2.838511 54.578812 -3.420901
vertex 2.986102 54.601067 -3.299080
endloop
endfacet
facet normal 0.634215 0.024176 -0.772779
outer loop
vertex 3.297514 -5.862437 -4.935079
vertex 2.986102 54.601067 -3.299080
vertex 3.090348 54.628757 -3.212661
endloop
endfacet
facet normal 0.772784 0.024176 -0.634208
outer loop
vertex 4.196939 -5.862437 -4.196939
vertex 3.157201 54.647694 -3.157203
vertex 3.709875 54.776466 -2.478861
endloop
endfacet
facet normal 0.772785 0.024176 -0.634208
outer loop
vertex 3.709875 54.776466 -2.478861
vertex 4.935078 -5.862437 -3.297514
vertex 4.196939 -5.862437 -4.196939
endloop
endfacet
facet normal 0.772785 0.024176 0.634208
outer loop
vertex 4.935078 -5.862437 3.297510
vertex 3.146839 55.250763 3.146835
vertex 4.196939 -5.862437 4.196936
endloop
endfacet
facet normal 0.772786 0.024176 0.634206
outer loop
vertex 4.935078 -5.862437 3.297510
vertex 3.701988 55.166805 2.473586
vertex 3.685177 55.166889 2.494066
endloop
endfacet
facet normal 0.772785 0.024176 0.634208
outer loop
vertex 4.935078 -5.862437 3.297510
vertex 3.403878 55.202553 2.835470
vertex 3.146839 55.250763 3.146835
endloop
endfacet
facet normal 0.772784 0.024176 0.634209
outer loop
vertex 4.935078 -5.862437 3.297510
vertex 3.685177 55.166889 2.494066
vertex 3.403878 55.202553 2.835470
endloop
endfacet
facet normal 0.634208 0.024176 0.772784
outer loop
vertex 4.196939 -5.862437 4.196936
vertex 2.470794 55.373821 3.697802
vertex 3.297513 -5.862437 4.935075
endloop
endfacet
facet normal 0.634208 0.024176 0.772784
outer loop
vertex 4.196939 -5.862437 4.196936
vertex 3.146839 55.250763 3.146835
vertex 2.950328 55.264656 3.307674
endloop
endfacet
facet normal 0.634208 0.024176 0.772784
outer loop
vertex 4.196939 -5.862437 4.196936
vertex 2.950328 55.264656 3.307674
vertex 2.470794 55.373821 3.697802
endloop
endfacet
facet normal -0.098018 0.000000 0.995185
outer loop
vertex -3.120030 -7.620229 0.520032
vertex -2.612796 -7.620229 0.569991
vertex -2.612796 -5.862437 0.569991
endloop
endfacet
facet normal -0.098018 0.000000 0.995185
outer loop
vertex -2.612796 -5.862437 0.569991
vertex -3.120030 -5.862437 0.520032
vertex -3.120030 -7.620229 0.520032
endloop
endfacet
facet normal 0.098017 0.000000 0.995185
outer loop
vertex -3.627262 -7.620229 0.569990
vertex -3.120030 -7.620229 0.520032
vertex -3.120030 -5.862437 0.520032
endloop
endfacet
facet normal 0.098017 0.000000 0.995185
outer loop
vertex -3.120030 -5.862437 0.520032
vertex -3.627262 -5.862437 0.569990
vertex -3.627262 -7.620229 0.569990
endloop
endfacet
facet normal -0.290285 0.000000 0.956940
outer loop
vertex -2.612796 -7.620229 0.569991
vertex -2.125054 -7.620229 0.717946
vertex -2.125054 -5.862437 0.717946
endloop
endfacet
facet normal -0.290285 0.000000 0.956940
outer loop
vertex -2.125054 -5.862437 0.717946
vertex -2.612796 -5.862437 0.569991
vertex -2.612796 -7.620229 0.569991
endloop
endfacet
facet normal 0.290282 0.000000 0.956941
outer loop
vertex -4.115004 -7.620229 0.717944
vertex -3.627262 -7.620229 0.569990
vertex -3.627262 -5.862437 0.569990
endloop
endfacet
facet normal 0.290282 0.000000 0.956941
outer loop
vertex -3.627262 -5.862437 0.569990
vertex -4.115004 -5.862437 0.717944
vertex -4.115004 -7.620229 0.717944
endloop
endfacet
facet normal 0.471396 0.000000 0.881921
outer loop
vertex -4.564510 -7.620229 0.958210
vertex -4.115004 -7.620229 0.717944
vertex -4.115004 -5.862437 0.717944
endloop
endfacet
facet normal 0.471396 0.000000 0.881922
outer loop
vertex -4.115004 -5.862437 0.717944
vertex -4.564510 -5.862437 0.958210
vertex -4.564510 -7.620229 0.958210
endloop
endfacet
facet normal 0.634392 0.000000 0.773011
outer loop
vertex -4.958506 -7.620229 1.281552
vertex -4.564510 -7.620229 0.958210
vertex -4.564510 -5.862437 0.958210
endloop
endfacet
facet normal 0.634392 0.000000 0.773011
outer loop
vertex -4.564510 -5.862437 0.958210
vertex -4.958506 -5.862437 1.281552
vertex -4.958506 -7.620229 1.281552
endloop
endfacet
facet normal 0.773010 0.000000 0.634394
outer loop
vertex -5.281849 -7.620229 1.675547
vertex -4.958506 -7.620229 1.281552
vertex -4.958506 -5.862437 1.281552
endloop
endfacet
facet normal 0.773010 0.000000 0.634394
outer loop
vertex -4.958506 -5.862437 1.281552
vertex -5.281849 -5.862437 1.675547
vertex -5.281849 -7.620229 1.675547
endloop
endfacet
facet normal 0.881921 0.000000 0.471398
outer loop
vertex -5.522116 -7.620229 2.125052
vertex -5.281849 -7.620229 1.675547
vertex -5.281849 -5.862437 1.675547
endloop
endfacet
facet normal 0.881921 0.000000 0.471398
outer loop
vertex -5.281849 -5.862437 1.675547
vertex -5.522116 -5.862437 2.125052
vertex -5.522116 -7.620229 2.125052
endloop
endfacet
facet normal 0.956940 0.000001 0.290286
outer loop
vertex -5.525031 -5.862437 2.134662
vertex -5.547242 -7.620229 2.207882
vertex -5.522116 -7.620229 2.125052
endloop
endfacet
facet normal 0.956934 0.000000 0.290304
outer loop
vertex -5.522116 -7.620229 2.125052
vertex -5.522116 -5.862437 2.125052
vertex -5.525031 -5.862437 2.134662
endloop
endfacet
facet normal -0.290281 -0.000000 -0.956941
outer loop
vertex -2.125054 -7.620229 5.522120
vertex -2.207874 -7.620229 5.547243
vertex -2.134654 -5.862437 5.525031
endloop
endfacet
facet normal -0.290196 0.000000 -0.956967
outer loop
vertex -2.134654 -5.862437 5.525031
vertex -2.125054 -5.862437 5.522120
vertex -2.125054 -7.620229 5.522120
endloop
endfacet
facet normal -0.471398 0.000000 -0.881921
outer loop
vertex -1.675548 -7.620229 5.281853
vertex -2.125054 -7.620229 5.522120
vertex -2.125054 -5.862437 5.522120
endloop
endfacet
facet normal -0.471396 0.000000 -0.881922
outer loop
vertex -2.125054 -5.862437 5.522120
vertex -1.675548 -5.862437 5.281853
vertex -1.675548 -7.620229 5.281853
endloop
endfacet
facet normal -0.634393 0.000000 -0.773010
outer loop
vertex -1.281553 -7.620229 4.958510
vertex -1.675548 -7.620229 5.281853
vertex -1.675548 -5.862437 5.281853
endloop
endfacet
facet normal -0.634394 0.000000 -0.773010
outer loop
vertex -1.675548 -5.862437 5.281853
vertex -1.281553 -5.862437 4.958510
vertex -1.281553 -7.620229 4.958510
endloop
endfacet
facet normal -0.773010 0.000000 -0.634394
outer loop
vertex -0.958209 -7.620229 4.564515
vertex -1.281553 -7.620229 4.958510
vertex -1.281553 -5.862437 4.958510
endloop
endfacet
facet normal -0.773010 0.000000 -0.634393
outer loop
vertex -1.281553 -5.862437 4.958510
vertex -0.958209 -5.862437 4.564515
vertex -0.958209 -7.620229 4.564515
endloop
endfacet
facet normal -0.881922 0.000000 -0.471396
outer loop
vertex -0.717944 -7.620229 4.115009
vertex -0.958209 -7.620229 4.564515
vertex -0.958209 -5.862437 4.564515
endloop
endfacet
facet normal -0.881922 0.000000 -0.471395
outer loop
vertex -0.958209 -5.862437 4.564515
vertex -0.717944 -5.862437 4.115009
vertex -0.717944 -7.620229 4.115009
endloop
endfacet
facet normal -0.956940 0.000000 -0.290284
outer loop
vertex -0.569989 -7.620229 3.627267
vertex -0.717944 -7.620229 4.115009
vertex -0.717944 -5.862437 4.115009
endloop
endfacet
facet normal -0.956940 0.000000 -0.290285
outer loop
vertex -0.717944 -5.862437 4.115009
vertex -0.569989 -5.862437 3.627267
vertex -0.569989 -7.620229 3.627267
endloop
endfacet
facet normal -0.995185 0.000000 -0.098018
outer loop
vertex -0.520030 -7.620229 3.120033
vertex -0.569989 -7.620229 3.627267
vertex -0.569989 -5.862437 3.627267
endloop
endfacet
facet normal -0.995185 0.000000 -0.098018
outer loop
vertex -0.569989 -5.862437 3.627267
vertex -0.520030 -5.862437 3.120033
vertex -0.520030 -7.620229 3.120033
endloop
endfacet
facet normal -0.995185 0.000000 0.098018
outer loop
vertex -0.569989 -7.620229 2.612797
vertex -0.520030 -7.620229 3.120033
vertex -0.520030 -5.862437 3.120033
endloop
endfacet
facet normal -0.995185 0.000000 0.098018
outer loop
vertex -0.520030 -5.862437 3.120033
vertex -0.569989 -5.862437 2.612797
vertex -0.569989 -7.620229 2.612797
endloop
endfacet
facet normal -0.956940 0.000000 0.290285
outer loop
vertex -0.717944 -7.620229 2.125056
vertex -0.569989 -7.620229 2.612797
vertex -0.569989 -5.862437 2.612797
endloop
endfacet
facet normal -0.956940 0.000000 0.290285
outer loop
vertex -0.569989 -5.862437 2.612797
vertex -0.717944 -5.862437 2.125056
vertex -0.717944 -7.620229 2.125056
endloop
endfacet
facet normal -0.881922 0.000000 0.471396
outer loop
vertex -0.958209 -7.620229 1.675550
vertex -0.717944 -7.620229 2.125056
vertex -0.717944 -5.862437 2.125056
endloop
endfacet
facet normal -0.881922 0.000000 0.471396
outer loop
vertex -0.717944 -5.862437 2.125056
vertex -0.958209 -5.862437 1.675550
vertex -0.958209 -7.620229 1.675550
endloop
endfacet
facet normal -0.773010 0.000000 0.634393
outer loop
vertex -1.281553 -7.620229 1.281555
vertex -0.958209 -7.620229 1.675550
vertex -0.958209 -5.862437 1.675550
endloop
endfacet
facet normal -0.773010 0.000000 0.634394
outer loop
vertex -0.958209 -5.862437 1.675550
vertex -1.281553 -5.862437 1.281555
vertex -1.281553 -7.620229 1.281555
endloop
endfacet
facet normal -0.634394 0.000000 0.773010
outer loop
vertex -1.675548 -7.620229 0.958212
vertex -1.281553 -7.620229 1.281555
vertex -1.281553 -5.862437 1.281555
endloop
endfacet
facet normal -0.634393 0.000000 0.773010
outer loop
vertex -1.281553 -5.862437 1.281555
vertex -1.675548 -5.862437 0.958212
vertex -1.675548 -7.620229 0.958212
endloop
endfacet
facet normal -0.471397 0.000000 0.881921
outer loop
vertex -2.125054 -7.620229 0.717946
vertex -1.675548 -7.620229 0.958212
vertex -1.675548 -5.862437 0.958212
endloop
endfacet
facet normal -0.471396 0.000000 0.881921
outer loop
vertex -1.675548 -5.862437 0.958212
vertex -2.125054 -5.862437 0.717946
vertex -2.125054 -7.620229 0.717946
endloop
endfacet
facet normal -0.098018 0.000000 0.995185
outer loop
vertex 3.119970 -7.620229 0.520032
vertex 3.627204 -7.620229 0.569991
vertex 3.627204 -5.862437 0.569991
endloop
endfacet
facet normal -0.098018 0.000000 0.995185
outer loop
vertex 3.627204 -5.862437 0.569991
vertex 3.119970 -5.862437 0.520032
vertex 3.119970 -7.620229 0.520032
endloop
endfacet
facet normal 0.098017 0.000000 0.995185
outer loop
vertex 2.612738 -7.620229 0.569990
vertex 3.119970 -7.620229 0.520032
vertex 3.119970 -5.862437 0.520032
endloop
endfacet
facet normal 0.098017 0.000000 0.995185
outer loop
vertex 3.119970 -5.862437 0.520032
vertex 2.612738 -5.862437 0.569990
vertex 2.612738 -7.620229 0.569990
endloop
endfacet
facet normal -0.097844 -0.059626 0.993414
outer loop
vertex -2.612796 -5.862437 0.569991
vertex -1.440858 6.723727 1.440858
vertex -3.120030 -5.862437 0.520032
endloop
endfacet
facet normal -0.290284 0.000000 0.956940
outer loop
vertex 3.627204 -7.620229 0.569991
vertex 4.114947 -7.620229 0.717946
vertex 4.114947 -5.862437 0.717946
endloop
endfacet
facet normal -0.290284 0.000000 0.956940
outer loop
vertex 4.114947 -5.862437 0.717946
vertex 3.627204 -5.862437 0.569991
vertex 3.627204 -7.620229 0.569991
endloop
endfacet
facet normal 0.290282 0.000000 0.956941
outer loop
vertex 2.124996 -7.620229 0.717944
vertex 2.612738 -7.620229 0.569990
vertex 2.612738 -5.862437 0.569990
endloop
endfacet
facet normal 0.290282 0.000000 0.956941
outer loop
vertex 2.612738 -5.862437 0.569990
vertex 2.124996 -5.862437 0.717944
vertex 2.124996 -7.620229 0.717944
endloop
endfacet
facet normal 0.471396 0.000000 0.881922
outer loop
vertex 1.675489 -7.620229 0.958210
vertex 2.124996 -7.620229 0.717944
vertex 2.124996 -5.862437 0.717944
endloop
endfacet
facet normal 0.471396 0.000000 0.881922
outer loop
vertex 2.124996 -5.862437 0.717944
vertex 1.675489 -5.862437 0.958210
vertex 1.675489 -7.620229 0.958210
endloop
endfacet
facet normal 0.634392 0.000000 0.773011
outer loop
vertex 1.281494 -7.620229 1.281552
vertex 1.675489 -7.620229 0.958210
vertex 1.675489 -5.862437 0.958210
endloop
endfacet
facet normal 0.634392 0.000000 0.773011
outer loop
vertex 1.675489 -5.862437 0.958210
vertex 1.281494 -5.862437 1.281552
vertex 1.281494 -7.620229 1.281552
endloop
endfacet
facet normal 0.773010 0.000000 0.634394
outer loop
vertex 0.958151 -7.620229 1.675547
vertex 1.281494 -7.620229 1.281552
vertex 1.281494 -5.862437 1.281552
endloop
endfacet
facet normal 0.773010 0.000000 0.634393
outer loop
vertex 1.281494 -5.862437 1.281552
vertex 0.958151 -5.862437 1.675547
vertex 0.958151 -7.620229 1.675547
endloop
endfacet
facet normal 0.881921 0.000000 0.471398
outer loop
vertex 0.717884 -7.620229 2.125052
vertex 0.958151 -7.620229 1.675547
vertex 0.958151 -5.862437 1.675547
endloop
endfacet
facet normal 0.881921 0.000000 0.471398
outer loop
vertex 0.958151 -5.862437 1.675547
vertex 0.717884 -5.862437 2.125052
vertex 0.717884 -7.620229 2.125052
endloop
endfacet
facet normal 0.956940 0.000000 0.290287
outer loop
vertex 0.569928 -7.620229 2.612795
vertex 0.717884 -7.620229 2.125052
vertex 0.717884 -5.862437 2.125052
endloop
endfacet
facet normal 0.956940 0.000000 0.290287
outer loop
vertex 0.717884 -5.862437 2.125052
vertex 0.569928 -5.862437 2.612795
vertex 0.569928 -7.620229 2.612795
endloop
endfacet
facet normal 0.995185 0.000000 0.098018
outer loop
vertex 0.519970 -7.620229 3.120030
vertex 0.569928 -7.620229 2.612795
vertex 0.569928 -5.862437 2.612795
endloop
endfacet
facet normal 0.995185 0.000000 0.098018
outer loop
vertex 0.569928 -5.862437 2.612795
vertex 0.519970 -5.862437 3.120030
vertex 0.519970 -7.620229 3.120030
endloop
endfacet
facet normal 0.995185 0.000000 -0.098017
outer loop
vertex 0.569928 -7.620229 3.627265
vertex 0.519970 -7.620229 3.120030
vertex 0.519970 -5.862437 3.120030
endloop
endfacet
facet normal 0.995185 0.000000 -0.098017
outer loop
vertex 0.519970 -5.862437 3.120030
vertex 0.569928 -5.862437 3.627265
vertex 0.569928 -7.620229 3.627265
endloop
endfacet
facet normal 0.956941 0.000000 -0.290283
outer loop
vertex 0.717882 -7.620229 4.115007
vertex 0.569928 -7.620229 3.627265
vertex 0.569928 -5.862437 3.627265
endloop
endfacet
facet normal 0.956941 0.000000 -0.290284
outer loop
vertex 0.569928 -5.862437 3.627265
vertex 0.717882 -5.862437 4.115007
vertex 0.717882 -7.620229 4.115007
endloop
endfacet
facet normal 0.881921 0.000000 -0.471396
outer loop
vertex 0.958148 -7.620229 4.564513
vertex 0.717882 -7.620229 4.115007
vertex 0.717882 -5.862437 4.115007
endloop
endfacet
facet normal 0.881921 0.000000 -0.471397
outer loop
vertex 0.717882 -5.862437 4.115007
vertex 0.958148 -5.862437 4.564513
vertex 0.958148 -7.620229 4.564513
endloop
endfacet
facet normal 0.773011 0.000000 -0.634393
outer loop
vertex 1.281491 -7.620229 4.958509
vertex 0.958148 -7.620229 4.564513
vertex 0.958148 -5.862437 4.564513
endloop
endfacet
facet normal 0.773012 0.000000 -0.634392
outer loop
vertex 0.958148 -5.862437 4.564513
vertex 1.281491 -5.862437 4.958509
vertex 1.281491 -7.620229 4.958509
endloop
endfacet
facet normal 0.634393 0.000000 -0.773011
outer loop
vertex 1.675485 -7.620229 5.281852
vertex 1.281491 -7.620229 4.958509
vertex 1.281491 -5.862437 4.958509
endloop
endfacet
facet normal 0.634394 0.000000 -0.773010
outer loop
vertex 1.281491 -5.862437 4.958509
vertex 1.675485 -5.862437 5.281852
vertex 1.675485 -7.620229 5.281852
endloop
endfacet
facet normal 0.471395 0.000000 -0.881922
outer loop
vertex 2.124992 -7.620229 5.522118
vertex 1.675485 -7.620229 5.281852
vertex 1.675485 -5.862437 5.281852
endloop
endfacet
facet normal 0.471397 0.000000 -0.881921
outer loop
vertex 1.675485 -5.862437 5.281852
vertex 2.124992 -5.862437 5.522118
vertex 2.124992 -7.620229 5.522118
endloop
endfacet
facet normal 0.290294 0.000000 -0.956937
outer loop
vertex 2.134628 -5.862437 5.525041
vertex 2.207848 -7.620229 5.547252
vertex 2.124992 -7.620229 5.522118
endloop
endfacet
facet normal 0.290203 0.000000 -0.956965
outer loop
vertex 2.124992 -7.620229 5.522118
vertex 2.124992 -5.862437 5.522118
vertex 2.134628 -5.862437 5.525041
endloop
endfacet
facet normal -0.956940 -0.000000 0.290285
outer loop
vertex 5.522056 -7.620229 2.125056
vertex 5.547212 -7.620229 2.207984
vertex 5.525001 -5.862437 2.134764
endloop
endfacet
facet normal -0.956954 0.000000 0.290240
outer loop
vertex 5.525001 -5.862437 2.134764
vertex 5.522056 -5.862437 2.125056
vertex 5.522056 -7.620229 2.125056
endloop
endfacet
facet normal -0.881922 0.000000 0.471396
outer loop
vertex 5.281791 -7.620229 1.675550
vertex 5.522056 -7.620229 2.125056
vertex 5.522056 -5.862437 2.125056
endloop
endfacet
facet normal -0.881921 0.000000 0.471396
outer loop
vertex 5.522056 -5.862437 2.125056
vertex 5.281791 -5.862437 1.675550
vertex 5.281791 -7.620229 1.675550
endloop
endfacet
facet normal -0.773011 0.000000 0.634393
outer loop
vertex 4.958447 -7.620229 1.281555
vertex 5.281791 -7.620229 1.675550
vertex 5.281791 -5.862437 1.675550
endloop
endfacet
facet normal -0.773011 0.000000 0.634393
outer loop
vertex 5.281791 -5.862437 1.675550
vertex 4.958447 -5.862437 1.281555
vertex 4.958447 -7.620229 1.281555
endloop
endfacet
facet normal -0.634393 0.000000 0.773011
outer loop
vertex 4.564452 -7.620229 0.958212
vertex 4.958447 -7.620229 1.281555
vertex 4.958447 -5.862437 1.281555
endloop
endfacet
facet normal -0.634393 0.000000 0.773011
outer loop
vertex 4.958447 -5.862437 1.281555
vertex 4.564452 -5.862437 0.958212
vertex 4.564452 -7.620229 0.958212
endloop
endfacet
facet normal -0.471397 0.000000 0.881921
outer loop
vertex 4.114947 -7.620229 0.717946
vertex 4.564452 -7.620229 0.958212
vertex 4.564452 -5.862437 0.958212
endloop
endfacet
facet normal -0.471397 0.000000 0.881921
outer loop
vertex 4.564452 -5.862437 0.958212
vertex 4.114947 -5.862437 0.717946
vertex 4.114947 -7.620229 0.717946
endloop
endfacet
facet normal -0.290298 -0.000000 0.956936
outer loop
vertex -2.134771 -5.862437 -5.525002
vertex -2.207990 -7.620229 -5.547213
vertex -2.125054 -7.620229 -5.522055
endloop
endfacet
facet normal -0.290139 0.000000 0.956985
outer loop
vertex -2.125054 -7.620229 -5.522055
vertex -2.125054 -5.862437 -5.522055
vertex -2.134771 -5.862437 -5.525002
endloop
endfacet
facet normal 0.097658 -0.085571 0.991534
outer loop
vertex -3.120030 -5.862437 0.520032
vertex -1.440858 6.723727 1.440858
vertex -3.627262 -5.862437 0.569990
endloop
endfacet
facet normal -0.471396 0.000000 0.881922
outer loop
vertex -2.125054 -7.620229 -5.522055
vertex -1.675548 -7.620229 -5.281789
vertex -1.675548 -5.862437 -5.281789
endloop
endfacet
facet normal -0.471397 0.000000 0.881921
outer loop
vertex -1.675548 -5.862437 -5.281789
vertex -2.125054 -5.862437 -5.522055
vertex -2.125054 -7.620229 -5.522055
endloop
endfacet
facet normal 0.956941 0.000000 -0.290281
outer loop
vertex -5.522118 -7.620229 -2.124993
vertex -5.547252 -7.620229 -2.207850
vertex -5.525041 -5.862437 -2.134630
endloop
endfacet
facet normal 0.956949 0.000000 -0.290257
outer loop
vertex -5.525041 -5.862437 -2.134630
vertex -5.522118 -5.862437 -2.124993
vertex -5.522118 -7.620229 -2.124993
endloop
endfacet
facet normal 0.881922 0.000000 -0.471396
outer loop
vertex -5.281852 -7.620229 -1.675486
vertex -5.522118 -7.620229 -2.124993
vertex -5.522118 -5.862437 -2.124993
endloop
endfacet
facet normal 0.881922 0.000000 -0.471396
outer loop
vertex -5.522118 -5.862437 -2.124993
vertex -5.281852 -5.862437 -1.675486
vertex -5.281852 -7.620229 -1.675486
endloop
endfacet
facet normal 0.773011 0.000000 -0.634393
outer loop
vertex -4.958509 -7.620229 -1.281491
vertex -5.281852 -7.620229 -1.675486
vertex -5.281852 -5.862437 -1.675486
endloop
endfacet
facet normal 0.773011 0.000000 -0.634393
outer loop
vertex -5.281852 -5.862437 -1.675486
vertex -4.958509 -5.862437 -1.281491
vertex -4.958509 -7.620229 -1.281491
endloop
endfacet
facet normal 0.634394 0.000000 -0.773010
outer loop
vertex -4.564514 -7.620229 -0.958148
vertex -4.958509 -7.620229 -1.281491
vertex -4.958509 -5.862437 -1.281491
endloop
endfacet
facet normal 0.634393 0.000000 -0.773010
outer loop
vertex -4.958509 -5.862437 -1.281491
vertex -4.564514 -5.862437 -0.958148
vertex -4.564514 -7.620229 -0.958148
endloop
endfacet
facet normal 0.471398 0.000000 -0.881921
outer loop
vertex -4.115008 -7.620229 -0.717881
vertex -4.564514 -7.620229 -0.958148
vertex -4.564514 -5.862437 -0.958148
endloop
endfacet
facet normal 0.471397 0.000000 -0.881921
outer loop
vertex -4.564514 -5.862437 -0.958148
vertex -4.115008 -5.862437 -0.717881
vertex -4.115008 -7.620229 -0.717881
endloop
endfacet
facet normal 0.290285 0.000000 -0.956940
outer loop
vertex -3.627267 -7.620229 -0.569926
vertex -4.115008 -7.620229 -0.717881
vertex -4.115008 -5.862437 -0.717881
endloop
endfacet
facet normal 0.290285 0.000000 -0.956940
outer loop
vertex -4.115008 -5.862437 -0.717881
vertex -3.627267 -5.862437 -0.569926
vertex -3.627267 -7.620229 -0.569926
endloop
endfacet
facet normal 0.098018 0.000000 -0.995185
outer loop
vertex -3.120031 -7.620229 -0.519968
vertex -3.627267 -7.620229 -0.569926
vertex -3.627267 -5.862437 -0.569926
endloop
endfacet
facet normal 0.098018 0.000000 -0.995185
outer loop
vertex -3.627267 -5.862437 -0.569926
vertex -3.120031 -5.862437 -0.519968
vertex -3.120031 -7.620229 -0.519968
endloop
endfacet
facet normal -0.098018 0.000000 -0.995185
outer loop
vertex -2.612796 -7.620229 -0.569926
vertex -3.120031 -7.620229 -0.519968
vertex -3.120031 -5.862437 -0.519968
endloop
endfacet
facet normal -0.098018 0.000000 -0.995185
outer loop
vertex -3.120031 -5.862437 -0.519968
vertex -2.612796 -5.862437 -0.569926
vertex -2.612796 -7.620229 -0.569926
endloop
endfacet
facet normal -0.290283 0.000000 -0.956941
outer loop
vertex -2.125054 -7.620229 -0.717881
vertex -2.612796 -7.620229 -0.569926
vertex -2.612796 -5.862437 -0.569926
endloop
endfacet
facet normal -0.290283 0.000000 -0.956941
outer loop
vertex -2.612796 -5.862437 -0.569926
vertex -2.125054 -5.862437 -0.717881
vertex -2.125054 -7.620229 -0.717881
endloop
endfacet
facet normal -0.471397 0.000000 -0.881921
outer loop
vertex -1.675548 -7.620229 -0.958146
vertex -2.125054 -7.620229 -0.717881
vertex -2.125054 -5.862437 -0.717881
endloop
endfacet
facet normal -0.471397 0.000000 -0.881921
outer loop
vertex -2.125054 -5.862437 -0.717881
vertex -1.675548 -5.862437 -0.958146
vertex -1.675548 -7.620229 -0.958146
endloop
endfacet
facet normal -0.634393 0.000000 -0.773010
outer loop
vertex -1.281553 -7.620229 -1.281490
vertex -1.675548 -7.620229 -0.958146
vertex -1.675548 -5.862437 -0.958146
endloop
endfacet
facet normal -0.634394 0.000000 -0.773010
outer loop
vertex -1.675548 -5.862437 -0.958146
vertex -1.281553 -5.862437 -1.281490
vertex -1.281553 -7.620229 -1.281490
endloop
endfacet
facet normal -0.773010 0.000000 -0.634394
outer loop
vertex -0.958209 -7.620229 -1.675485
vertex -1.281553 -7.620229 -1.281490
vertex -1.281553 -5.862437 -1.281490
endloop
endfacet
facet normal -0.773009 0.000000 -0.634395
outer loop
vertex -1.281553 -5.862437 -1.281490
vertex -0.958209 -5.862437 -1.675485
vertex -0.958209 -7.620229 -1.675485
endloop
endfacet
facet normal -0.881922 0.000000 -0.471395
outer loop
vertex -0.717944 -7.620229 -2.124992
vertex -0.958209 -7.620229 -1.675485
vertex -0.958209 -5.862437 -1.675485
endloop
endfacet
facet normal -0.881922 0.000000 -0.471395
outer loop
vertex -0.958209 -5.862437 -1.675485
vertex -0.717944 -5.862437 -2.124992
vertex -0.717944 -7.620229 -2.124992
endloop
endfacet
facet normal -0.956940 0.000000 -0.290285
outer loop
vertex -0.569989 -7.620229 -2.612733
vertex -0.717944 -7.620229 -2.124992
vertex -0.717944 -5.862437 -2.124992
endloop
endfacet
facet normal -0.956940 0.000000 -0.290285
outer loop
vertex -0.717944 -5.862437 -2.124992
vertex -0.569989 -5.862437 -2.612733
vertex -0.569989 -7.620229 -2.612733
endloop
endfacet
facet normal -0.995185 0.000000 -0.098018
outer loop
vertex -0.520030 -7.620229 -3.119967
vertex -0.569989 -7.620229 -2.612733
vertex -0.569989 -5.862437 -2.612733
endloop
endfacet
facet normal -0.995185 0.000000 -0.098018
outer loop
vertex -0.569989 -5.862437 -2.612733
vertex -0.520030 -5.862437 -3.119967
vertex -0.520030 -7.620229 -3.119967
endloop
endfacet
facet normal -0.995185 0.000000 0.098018
outer loop
vertex -0.569989 -7.620229 -3.627203
vertex -0.520030 -7.620229 -3.119967
vertex -0.520030 -5.862437 -3.119967
endloop
endfacet
facet normal -0.995185 0.000000 0.098018
outer loop
vertex -0.520030 -5.862437 -3.119967
vertex -0.569989 -5.862437 -3.627203
vertex -0.569989 -7.620229 -3.627203
endloop
endfacet
facet normal -0.956940 0.000000 0.290284
outer loop
vertex -0.717944 -7.620229 -4.114945
vertex -0.569989 -7.620229 -3.627203
vertex -0.569989 -5.862437 -3.627203
endloop
endfacet
facet normal -0.956940 0.000000 0.290284
outer loop
vertex -0.569989 -5.862437 -3.627203
vertex -0.717944 -5.862437 -4.114945
vertex -0.717944 -7.620229 -4.114945
endloop
endfacet
facet normal -0.881922 0.000000 0.471396
outer loop
vertex -0.958209 -7.620229 -4.564450
vertex -0.717944 -7.620229 -4.114945
vertex -0.717944 -5.862437 -4.114945
endloop
endfacet
facet normal -0.881921 0.000000 0.471396
outer loop
vertex -0.717944 -5.862437 -4.114945
vertex -0.958209 -5.862437 -4.564450
vertex -0.958209 -7.620229 -4.564450
endloop
endfacet
facet normal -0.773011 0.000000 0.634393
outer loop
vertex -1.281553 -7.620229 -4.958446
vertex -0.958209 -7.620229 -4.564450
vertex -0.958209 -5.862437 -4.564450
endloop
endfacet
facet normal -0.773010 0.000000 0.634393
outer loop
vertex -0.958209 -5.862437 -4.564450
vertex -1.281553 -5.862437 -4.958446
vertex -1.281553 -7.620229 -4.958446
endloop
endfacet
facet normal -0.634393 0.000000 0.773011
outer loop
vertex -1.675548 -7.620229 -5.281789
vertex -1.281553 -7.620229 -4.958446
vertex -1.281553 -5.862437 -4.958446
endloop
endfacet
facet normal -0.634394 0.000000 0.773010
outer loop
vertex -1.281553 -5.862437 -4.958446
vertex -1.675548 -5.862437 -5.281789
vertex -1.675548 -7.620229 -5.281789
endloop
endfacet
facet normal -0.956940 0.000000 -0.290286
outer loop
vertex 5.525012 -5.862437 -2.134734
vertex 5.547223 -7.620229 -2.207954
vertex 5.522056 -7.620229 -2.124992
endloop
endfacet
facet normal -0.956942 0.000000 -0.290280
outer loop
vertex 5.522056 -7.620229 -2.124992
vertex 5.522056 -5.862437 -2.124992
vertex 5.525012 -5.862437 -2.134734
endloop
endfacet
facet normal 0.288328 -0.115854 0.950497
outer loop
vertex -3.627262 -5.862437 0.569990
vertex -1.440858 6.723727 1.440858
vertex -4.115004 -5.862437 0.717944
endloop
endfacet
facet normal -0.881922 0.000000 -0.471395
outer loop
vertex 5.522056 -7.620229 -2.124992
vertex 5.281791 -7.620229 -1.675485
vertex 5.281791 -5.862437 -1.675485
endloop
endfacet
facet normal -0.881922 0.000000 -0.471395
outer loop
vertex 5.281791 -5.862437 -1.675485
vertex 5.522056 -5.862437 -2.124992
vertex 5.522056 -7.620229 -2.124992
endloop
endfacet
facet normal 0.290280 0.000000 0.956942
outer loop
vertex 2.124996 -7.620229 -5.522055
vertex 2.207960 -7.620229 -5.547222
vertex 2.134740 -5.862437 -5.525012
endloop
endfacet
facet normal 0.290276 0.000000 0.956943
outer loop
vertex 2.134740 -5.862437 -5.525012
vertex 2.124996 -5.862437 -5.522055
vertex 2.124996 -7.620229 -5.522055
endloop
endfacet
facet normal 0.471397 0.000000 0.881921
outer loop
vertex 1.675489 -7.620229 -5.281790
vertex 2.124996 -7.620229 -5.522055
vertex 2.124996 -5.862437 -5.522055
endloop
endfacet
facet normal 0.471394 0.000000 0.881923
outer loop
vertex 2.124996 -5.862437 -5.522055
vertex 1.675489 -5.862437 -5.281790
vertex 1.675489 -7.620229 -5.281790
endloop
endfacet
facet normal 0.634393 0.000000 0.773010
outer loop
vertex 1.281494 -7.620229 -4.958447
vertex 1.675489 -7.620229 -5.281790
vertex 1.675489 -5.862437 -5.281790
endloop
endfacet
facet normal 0.634392 0.000000 0.773011
outer loop
vertex 1.675489 -5.862437 -5.281790
vertex 1.281494 -5.862437 -4.958447
vertex 1.281494 -7.620229 -4.958447
endloop
endfacet
facet normal 0.773009 0.000000 0.634395
outer loop
vertex 0.958151 -7.620229 -4.564453
vertex 1.281494 -7.620229 -4.958447
vertex 1.281494 -5.862437 -4.958447
endloop
endfacet
facet normal 0.773009 0.000000 0.634395
outer loop
vertex 1.281494 -5.862437 -4.958447
vertex 0.958151 -5.862437 -4.564453
vertex 0.958151 -7.620229 -4.564453
endloop
endfacet
facet normal 0.881921 0.000000 0.471397
outer loop
vertex 0.717884 -7.620229 -4.114947
vertex 0.958151 -7.620229 -4.564453
vertex 0.958151 -5.862437 -4.564453
endloop
endfacet
facet normal 0.881921 0.000000 0.471398
outer loop
vertex 0.958151 -5.862437 -4.564453
vertex 0.717884 -5.862437 -4.114947
vertex 0.717884 -7.620229 -4.114947
endloop
endfacet
facet normal 0.956940 0.000000 0.290287
outer loop
vertex 0.569928 -7.620229 -3.627205
vertex 0.717884 -7.620229 -4.114947
vertex 0.717884 -5.862437 -4.114947
endloop
endfacet
facet normal 0.956940 0.000000 0.290287
outer loop
vertex 0.717884 -5.862437 -4.114947
vertex 0.569928 -5.862437 -3.627205
vertex 0.569928 -7.620229 -3.627205
endloop
endfacet
facet normal 0.995185 0.000000 0.098018
outer loop
vertex 0.519970 -7.620229 -3.119970
vertex 0.569928 -7.620229 -3.627205
vertex 0.569928 -5.862437 -3.627205
endloop
endfacet
facet normal 0.995185 0.000000 0.098018
outer loop
vertex 0.569928 -5.862437 -3.627205
vertex 0.519970 -5.862437 -3.119970
vertex 0.519970 -7.620229 -3.119970
endloop
endfacet
facet normal 0.995185 0.000000 -0.098017
outer loop
vertex 0.569928 -7.620229 -2.612735
vertex 0.519970 -7.620229 -3.119970
vertex 0.519970 -5.862437 -3.119970
endloop
endfacet
facet normal 0.995185 0.000000 -0.098017
outer loop
vertex 0.519970 -5.862437 -3.119970
vertex 0.569928 -5.862437 -2.612735
vertex 0.569928 -7.620229 -2.612735
endloop
endfacet
facet normal 0.956941 0.000000 -0.290283
outer loop
vertex 0.717882 -7.620229 -2.124993
vertex 0.569928 -7.620229 -2.612735
vertex 0.569928 -5.862437 -2.612735
endloop
endfacet
facet normal 0.956941 0.000000 -0.290284
outer loop
vertex 0.569928 -5.862437 -2.612735
vertex 0.717882 -5.862437 -2.124993
vertex 0.717882 -7.620229 -2.124993
endloop
endfacet
facet normal 0.881922 0.000000 -0.471396
outer loop
vertex 0.958148 -7.620229 -1.675486
vertex 0.717882 -7.620229 -2.124993
vertex 0.717882 -5.862437 -2.124993
endloop
endfacet
facet normal 0.881922 0.000000 -0.471396
outer loop
vertex 0.717882 -5.862437 -2.124993
vertex 0.958148 -5.862437 -1.675486
vertex 0.958148 -7.620229 -1.675486
endloop
endfacet
facet normal 0.773010 0.000000 -0.634393
outer loop
vertex 1.281491 -7.620229 -1.281491
vertex 0.958148 -7.620229 -1.675486
vertex 0.958148 -5.862437 -1.675486
endloop
endfacet
facet normal 0.773011 0.000000 -0.634393
outer loop
vertex 0.958148 -5.862437 -1.675486
vertex 1.281491 -5.862437 -1.281491
vertex 1.281491 -7.620229 -1.281491
endloop
endfacet
facet normal 0.634394 0.000000 -0.773010
outer loop
vertex 1.675485 -7.620229 -0.958148
vertex 1.281491 -7.620229 -1.281491
vertex 1.281491 -5.862437 -1.281491
endloop
endfacet
facet normal 0.634394 0.000000 -0.773010
outer loop
vertex 1.281491 -5.862437 -1.281491
vertex 1.675485 -5.862437 -0.958148
vertex 1.675485 -7.620229 -0.958148
endloop
endfacet
facet normal 0.471397 0.000000 -0.881921
outer loop
vertex 2.124992 -7.620229 -0.717881
vertex 1.675485 -7.620229 -0.958148
vertex 1.675485 -5.862437 -0.958148
endloop
endfacet
facet normal 0.471397 0.000000 -0.881921
outer loop
vertex 1.675485 -5.862437 -0.958148
vertex 2.124992 -5.862437 -0.717881
vertex 2.124992 -7.620229 -0.717881
endloop
endfacet
facet normal 0.290285 0.000000 -0.956940
outer loop
vertex 2.612733 -7.620229 -0.569926
vertex 2.124992 -7.620229 -0.717881
vertex 2.124992 -5.862437 -0.717881
endloop
endfacet
facet normal 0.290285 0.000000 -0.956940
outer loop
vertex 2.124992 -5.862437 -0.717881
vertex 2.612733 -5.862437 -0.569926
vertex 2.612733 -7.620229 -0.569926
endloop
endfacet
facet normal 0.098018 0.000000 -0.995185
outer loop
vertex 3.119968 -7.620229 -0.519968
vertex 2.612733 -7.620229 -0.569926
vertex 2.612733 -5.862437 -0.569926
endloop
endfacet
facet normal 0.098018 0.000000 -0.995185
outer loop
vertex 2.612733 -5.862437 -0.569926
vertex 3.119968 -5.862437 -0.519968
vertex 3.119968 -7.620229 -0.519968
endloop
endfacet
facet normal -0.098018 0.000000 -0.995185
outer loop
vertex 3.627203 -7.620229 -0.569926
vertex 3.119968 -7.620229 -0.519968
vertex 3.119968 -5.862437 -0.519968
endloop
endfacet
facet normal -0.098018 0.000000 -0.995185
outer loop
vertex 3.119968 -5.862437 -0.519968
vertex 3.627203 -5.862437 -0.569926
vertex 3.627203 -7.620229 -0.569926
endloop
endfacet
facet normal -0.290283 0.000000 -0.956941
outer loop
vertex 4.114945 -7.620229 -0.717881
vertex 3.627203 -7.620229 -0.569926
vertex 3.627203 -5.862437 -0.569926
endloop
endfacet
facet normal -0.290284 0.000000 -0.956941
outer loop
vertex 3.627203 -5.862437 -0.569926
vertex 4.114945 -5.862437 -0.717881
vertex 4.114945 -7.620229 -0.717881
endloop
endfacet
facet normal -0.471396 0.000000 -0.881922
outer loop
vertex 4.564452 -7.620229 -0.958146
vertex 4.114945 -7.620229 -0.717881
vertex 4.114945 -5.862437 -0.717881
endloop
endfacet
facet normal -0.471396 0.000000 -0.881922
outer loop
vertex 4.114945 -5.862437 -0.717881
vertex 4.564452 -5.862437 -0.958146
vertex 4.564452 -7.620229 -0.958146
endloop
endfacet
facet normal -0.634393 0.000000 -0.773010
outer loop
vertex 4.958447 -7.620229 -1.281490
vertex 4.564452 -7.620229 -0.958146
vertex 4.564452 -5.862437 -0.958146
endloop
endfacet
facet normal -0.634394 0.000000 -0.773010
outer loop
vertex 4.564452 -5.862437 -0.958146
vertex 4.958447 -5.862437 -1.281490
vertex 4.958447 -7.620229 -1.281490
endloop
endfacet
facet normal -0.773010 0.000000 -0.634394
outer loop
vertex 5.281791 -7.620229 -1.675485
vertex 4.958447 -7.620229 -1.281490
vertex 4.958447 -5.862437 -1.281490
endloop
endfacet
facet normal -0.773010 0.000000 -0.634394
outer loop
vertex 4.958447 -5.862437 -1.281490
vertex 5.281791 -5.862437 -1.675485
vertex 5.281791 -7.620229 -1.675485
endloop
endfacet
facet normal -0.022890 0.933831 0.356981
outer loop
vertex -0.056869 54.342327 -4.466778
vertex -0.872748 54.292080 -4.387642
vertex -1.090249 54.261822 -4.322429
endloop
endfacet
facet normal -0.124249 0.946426 0.298060
outer loop
vertex -1.713551 54.121578 -4.136899
vertex -1.925293 54.058689 -4.025444
vertex -1.090249 54.261822 -4.322429
endloop
endfacet
facet normal -0.003130 0.977784 0.209590
outer loop
vertex -1.925293 54.058689 -4.025444
vertex -2.489434 53.992619 -3.725717
vertex -3.014069 53.899250 -3.298083
endloop
endfacet
facet normal -0.032574 0.997869 0.056528
outer loop
vertex -3.014069 53.899250 -3.298083
vertex -3.170268 53.886909 -3.170280
vertex -3.483472 53.855129 -2.789853
endloop
endfacet
facet normal -0.032703 0.997863 0.056573
outer loop
vertex -3.483472 53.855129 -2.789853
vertex -3.728989 53.830219 -2.491640
vertex -3.797542 53.820747 -2.363873
endloop
endfacet
facet normal -0.066446 0.995977 0.060117
outer loop
vertex -3.797542 53.820747 -2.363873
vertex -4.145041 53.758511 -1.716941
vertex -4.293077 53.719372 -1.232196
endloop
endfacet
facet normal 0.190887 0.967141 -0.167928
outer loop
vertex -4.293077 53.719372 -1.232196
vertex -4.399309 53.802341 -0.875084
vertex -4.453684 53.913696 -0.295534
endloop
endfacet
facet normal 0.160937 0.936661 -0.311073
outer loop
vertex -4.453684 53.913696 -0.295534
vertex -4.480295 54.016418 -0.000007
vertex -4.387679 54.290367 0.872757
endloop
endfacet
facet normal 0.160863 0.936660 -0.311111
outer loop
vertex -4.387679 54.290367 0.872757
vertex -4.127864 54.523758 1.709811
vertex -3.958166 54.598782 2.023446
endloop
endfacet
facet normal -0.881524 0.024139 0.471522
outer loop
vertex -3.958166 54.598782 2.023446
vertex -3.855371 54.644844 2.213399
vertex -3.814859 54.669788 2.287913
endloop
endfacet
facet normal 0.079044 0.891502 -0.446068
outer loop
vertex -3.814859 54.669788 2.287913
vertex -3.710285 54.756161 2.479127
vertex -3.150422 55.042297 3.150416
endloop
endfacet
facet normal 0.079039 0.891393 -0.446285
outer loop
vertex -3.150422 55.042297 3.150416
vertex -2.472370 55.257137 3.700157
vertex -2.393634 55.271015 3.741863
endloop
endfacet
facet normal 0.005802 0.890794 -0.454369
outer loop
vertex -2.130239 55.319595 3.881318
vertex -1.701371 55.432175 4.107466
vertex -0.866772 55.554325 4.357553
endloop
endfacet
facet normal 0.056950 0.904562 -0.422522
outer loop
vertex -3.150422 55.042297 3.150416
vertex -2.393634 55.271015 3.741863
vertex -2.130239 55.319595 3.881318
endloop
endfacet
facet normal -0.578989 0.809608 0.096470
outer loop
vertex -3.958166 54.598782 2.023446
vertex -3.814859 54.669788 2.287913
vertex -3.150422 55.042297 3.150416
endloop
endfacet
facet normal 0.160818 0.936682 -0.311071
outer loop
vertex -4.453684 53.913696 -0.295534
vertex -4.387679 54.290367 0.872757
vertex -3.958166 54.598782 2.023446
endloop
endfacet
facet normal -0.719405 0.645207 -0.257224
outer loop
vertex -3.797542 53.820747 -2.363873
vertex -4.293077 53.719372 -1.232196
vertex -4.453684 53.913696 -0.295534
endloop
endfacet
facet normal -0.032671 0.997882 0.056245
outer loop
vertex -3.014069 53.899250 -3.298083
vertex -3.483472 53.855129 -2.789853
vertex -3.797542 53.820747 -2.363873
endloop
endfacet
facet normal -0.319903 0.904997 -0.280433
outer loop
vertex -1.925293 54.058689 -4.025444
vertex -3.014069 53.899250 -3.298083
vertex -1.090249 54.261822 -4.322429
endloop
endfacet
facet normal -0.157670 0.538572 -0.827696
outer loop
vertex 0.000001 54.350674 -4.472176
vertex -0.056869 54.342327 -4.466778
vertex -1.090249 54.261822 -4.322429
endloop
endfacet
facet normal -0.098879 0.919530 0.380379
outer loop
vertex 1.078971 54.404655 -4.322241
vertex 0.872205 54.408337 -4.384870
vertex 0.000001 54.350674 -4.472176
endloop
endfacet
facet normal 0.289209 0.024038 -0.956964
outer loop
vertex 1.710001 54.504139 -4.128307
vertex 1.442036 54.459515 -4.210721
vertex 1.078971 54.404655 -4.322241
endloop
endfacet
facet normal -0.243557 0.925243 0.290868
outer loop
vertex 2.838511 54.578812 -3.420901
vertex 2.481552 54.576962 -3.713907
vertex 1.710001 54.504139 -4.128307
endloop
endfacet
facet normal 0.634362 0.024198 -0.772658
outer loop
vertex 3.090348 54.628757 -3.212661
vertex 2.986102 54.601067 -3.299080
vertex 2.838511 54.578812 -3.420901
endloop
endfacet
facet normal -0.359261 0.925887 0.116894
outer loop
vertex 3.709875 54.776466 -2.478861
vertex 3.157201 54.647694 -3.157203
vertex 3.090348 54.628757 -3.212661
endloop
endfacet
facet normal 0.881669 0.024175 -0.471248
outer loop
vertex 4.119976 54.875114 -1.706553
vertex 4.016788 54.822731 -1.902291
vertex 3.709875 54.776466 -2.478861
endloop
endfacet
facet normal -0.956582 -0.024127 0.290463
outer loop
vertex 4.370658 55.004574 -0.869381
vertex 4.295894 54.970676 -1.118667
vertex 4.119976 54.875114 -1.706553
endloop
endfacet
facet normal -0.364064 0.930674 -0.036098
outer loop
vertex 4.387379 55.056278 0.686847
vertex 4.455027 55.056328 -0.000003
vertex 4.453451 55.055084 -0.016308
endloop
endfacet
facet normal -0.458183 0.888858 -0.000264
outer loop
vertex 4.392762 55.016033 -0.642127
vertex 4.370658 55.004574 -0.869381
vertex 4.119976 54.875114 -1.706553
endloop
endfacet
facet normal -0.302837 0.952568 -0.030068
outer loop
vertex 4.387379 55.056278 0.686847
vertex 4.453451 55.055084 -0.016308
vertex 4.392762 55.016033 -0.642127
endloop
endfacet
facet normal -0.377972 0.920302 -0.100907
outer loop
vertex 4.185116 55.059753 1.476428
vertex 4.369129 55.068756 0.869070
vertex 4.387379 55.056278 0.686847
endloop
endfacet
facet normal -0.283260 0.929133 -0.237647
outer loop
vertex 3.932607 55.127918 2.044121
vertex 4.115002 55.096687 1.704486
vertex 4.185116 55.059753 1.476428
endloop
endfacet
facet normal -0.283100 0.929480 -0.236476
outer loop
vertex 3.685177 55.166889 2.494066
vertex 3.701988 55.166805 2.473586
vertex 3.932607 55.127918 2.044121
endloop
endfacet
facet normal -0.163354 0.945617 -0.281290
outer loop
vertex 2.950328 55.264656 3.307674
vertex 3.146839 55.250763 3.146835
vertex 3.403878 55.202553 2.835470
endloop
endfacet
facet normal 0.064913 0.996608 -0.050576
outer loop
vertex 3.403878 55.202553 2.835470
vertex 3.685177 55.166889 2.494066
vertex 3.932607 55.127918 2.044121
endloop
endfacet
facet normal 0.518379 0.845350 0.129100
outer loop
vertex 3.932607 55.127918 2.044121
vertex 4.185116 55.059753 1.476428
vertex 4.387379 55.056278 0.686847
endloop
endfacet
facet normal -0.364981 0.930542 -0.029665
outer loop
vertex 4.387379 55.056278 0.686847
vertex 4.392762 55.016033 -0.642127
vertex 4.119976 54.875114 -1.706553
endloop
endfacet
facet normal -0.228605 0.973515 -0.002970
outer loop
vertex 4.119976 54.875114 -1.706553
vertex 3.709875 54.776466 -2.478861
vertex 3.090348 54.628757 -3.212661
endloop
endfacet
facet normal 0.278803 0.801213 -0.529458
outer loop
vertex 3.090348 54.628757 -3.212661
vertex 2.838511 54.578812 -3.420901
vertex 1.710001 54.504139 -4.128307
endloop
endfacet
facet normal 0.032669 0.842112 -0.538313
outer loop
vertex 1.710001 54.504139 -4.128307
vertex 1.078971 54.404655 -4.322241
vertex 0.000001 54.350674 -4.472176
endloop
endfacet
facet normal -0.042733 0.964376 0.261061
outer loop
vertex -3.014069 53.899250 -3.298083
vertex 0.000001 54.350674 -4.472176
vertex -1.090249 54.261822 -4.322429
endloop
endfacet
facet normal -0.238406 0.963856 -0.118927
outer loop
vertex -3.014069 53.899250 -3.298083
vertex -3.797542 53.820747 -2.363873
vertex -4.453684 53.913696 -0.295534
endloop
endfacet
facet normal -0.185767 0.952409 -0.241676
outer loop
vertex -4.453684 53.913696 -0.295534
vertex -3.958166 54.598782 2.023446
vertex -3.150422 55.042297 3.150416
endloop
endfacet
facet normal -0.087174 0.965668 -0.244716
outer loop
vertex -3.150422 55.042297 3.150416
vertex -2.130239 55.319595 3.881318
vertex -0.866772 55.554325 4.357553
endloop
endfacet
facet normal 0.097140 -0.023750 -0.994987
outer loop
vertex -0.866772 55.554325 4.357553
vertex -0.456367 55.572060 4.397543
vertex -0.000001 55.590416 4.442045
endloop
endfacet
facet normal -0.059824 0.857276 -0.511369
outer loop
vertex 0.524444 55.559265 4.391149
vertex 0.866730 55.562988 4.357346
vertex 1.701003 55.471630 4.106581
endloop
endfacet
facet normal 0.007980 0.887405 -0.460921
outer loop
vertex -0.866772 55.554325 4.357553
vertex -0.000001 55.590416 4.442045
vertex 0.524444 55.559265 4.391149
endloop
endfacet
facet normal -0.060992 0.955153 -0.289762
outer loop
vertex -4.453684 53.913696 -0.295534
vertex -3.150422 55.042297 3.150416
vertex -0.866772 55.554325 4.357553
endloop
endfacet
facet normal -0.182533 0.978864 -0.092232
outer loop
vertex -3.014069 53.899250 -3.298083
vertex -4.453684 53.913696 -0.295534
vertex 0.000001 54.350674 -4.472176
endloop
endfacet
facet normal -0.089157 0.996017 -0.001142
outer loop
vertex 3.090348 54.628757 -3.212661
vertex 1.710001 54.504139 -4.128307
vertex 0.000001 54.350674 -4.472176
endloop
endfacet
facet normal -0.151623 0.986750 -0.057745
outer loop
vertex 4.387379 55.056278 0.686847
vertex 4.119976 54.875114 -1.706553
vertex 3.090348 54.628757 -3.212661
endloop
endfacet
facet normal 0.123725 0.992256 -0.010919
outer loop
vertex 3.403878 55.202553 2.835470
vertex 3.932607 55.127918 2.044121
vertex 4.387379 55.056278 0.686847
endloop
endfacet
facet normal 0.456269 0.826612 0.329441
outer loop
vertex 2.470794 55.373821 3.697802
vertex 2.950328 55.264656 3.307674
vertex 3.403878 55.202553 2.835470
endloop
endfacet
facet normal -0.059921 0.856229 -0.513110
outer loop
vertex 0.524444 55.559265 4.391149
vertex 1.701003 55.471630 4.106581
vertex 1.708687 55.469746 4.102526
endloop
endfacet
facet normal -0.052952 0.966959 -0.249371
outer loop
vertex 2.167189 55.398865 3.859395
vertex 2.470794 55.373821 3.697802
vertex 3.403878 55.202553 2.835470
endloop
endfacet
facet normal 0.008099 0.964007 -0.265752
outer loop
vertex 0.524444 55.559265 4.391149
vertex 1.708687 55.469746 4.102526
vertex 2.167189 55.398865 3.859395
endloop
endfacet
facet normal 0.004764 0.941928 -0.335782
outer loop
vertex -4.453684 53.913696 -0.295534
vertex -0.866772 55.554325 4.357553
vertex 0.524444 55.559265 4.391149
endloop
endfacet
facet normal -0.092054 0.995736 0.006021
outer loop
vertex -4.453684 53.913696 -0.295534
vertex 3.090348 54.628757 -3.212661
vertex 0.000001 54.350674 -4.472176
endloop
endfacet
facet normal -0.052286 0.994419 -0.091633
outer loop
vertex 3.403878 55.202553 2.835470
vertex 4.387379 55.056278 0.686847
vertex 3.090348 54.628757 -3.212661
endloop
endfacet
facet normal 0.057899 0.991075 -0.120073
outer loop
vertex 0.524444 55.559265 4.391149
vertex 2.167189 55.398865 3.859395
vertex 3.403878 55.202553 2.835470
endloop
endfacet
facet normal -0.158870 0.972101 -0.172571
outer loop
vertex -4.453684 53.913696 -0.295534
vertex 0.524444 55.559265 4.391149
vertex 3.090348 54.628757 -3.212661
endloop
endfacet
facet normal 0.070134 0.992730 -0.097818
outer loop
vertex 0.524444 55.559265 4.391149
vertex 3.403878 55.202553 2.835470
vertex 3.090348 54.628757 -3.212661
endloop
endfacet
facet normal 0.278550 -0.282512 0.917931
outer loop
vertex 2.134740 -5.862437 -5.525012
vertex 1.440812 6.723727 -1.440812
vertex 2.124996 -5.862437 -5.522055
endloop
endfacet
facet normal 0.456189 -0.251952 0.853471
outer loop
vertex 2.124996 -5.862437 -5.522055
vertex 1.440812 6.723727 -1.440812
vertex 1.675489 -5.862437 -5.281790
endloop
endfacet
facet normal 0.619041 -0.218653 0.754307
outer loop
vertex 1.675489 -5.862437 -5.281790
vertex 1.440812 6.723727 -1.440812
vertex 1.281494 -5.862437 -4.958447
endloop
endfacet
facet normal 0.759827 -0.183897 0.623575
outer loop
vertex 1.281494 -5.862437 -4.958447
vertex 1.440812 6.723727 -1.440812
vertex 0.958151 -5.862437 -4.564453
endloop
endfacet
facet normal 0.872059 -0.149126 0.466127
outer loop
vertex 0.958151 -5.862437 -4.564453
vertex 1.440812 6.723727 -1.440812
vertex 0.717884 -5.862437 -4.114947
endloop
endfacet
facet normal 0.950496 -0.115856 0.288332
outer loop
vertex 0.717884 -5.862437 -4.114947
vertex 1.440812 6.723727 -1.440812
vertex 0.569928 -5.862437 -3.627205
endloop
endfacet
facet normal 0.991534 -0.085573 0.097658
outer loop
vertex 0.569928 -5.862437 -3.627205
vertex 1.440812 6.723727 -1.440812
vertex 0.519970 -5.862437 -3.119970
endloop
endfacet
facet normal 0.993414 -0.059628 -0.097842
outer loop
vertex 0.519970 -5.862437 -3.119970
vertex 1.440812 6.723727 -1.440812
vertex 0.569928 -5.862437 -2.612735
endloop
endfacet
facet normal 0.956207 -0.039155 -0.290061
outer loop
vertex 0.569928 -5.862437 -2.612735
vertex 1.440812 6.723727 -1.440812
vertex 0.717882 -5.862437 -2.124993
endloop
endfacet
facet normal 0.881646 -0.025023 -0.471248
outer loop
vertex 0.717882 -5.862437 -2.124993
vertex 1.440812 6.723727 -1.440812
vertex 0.958148 -5.862437 -1.675486
endloop
endfacet
facet normal 0.772888 -0.017813 -0.634293
outer loop
vertex 0.958148 -5.862437 -1.675486
vertex 1.440812 6.723727 -1.440812
vertex 1.281491 -5.862437 -1.281491
endloop
endfacet
facet normal 0.634293 -0.017813 -0.772887
outer loop
vertex 1.281491 -5.862437 -1.281491
vertex 1.440812 6.723727 -1.440812
vertex 1.675485 -5.862437 -0.958148
endloop
endfacet
facet normal 0.471249 -0.025023 -0.881645
outer loop
vertex 1.675485 -5.862437 -0.958148
vertex 1.440812 6.723727 -1.440812
vertex 2.124992 -5.862437 -0.717881
endloop
endfacet
facet normal 0.290062 -0.039155 -0.956206
outer loop
vertex 2.124992 -5.862437 -0.717881
vertex 1.440812 6.723727 -1.440812
vertex 2.612733 -5.862437 -0.569926
endloop
endfacet
facet normal 0.097844 -0.059628 -0.993414
outer loop
vertex 2.612733 -5.862437 -0.569926
vertex 1.440812 6.723727 -1.440812
vertex 3.119968 -5.862437 -0.519968
endloop
endfacet
facet normal -0.097659 -0.085573 -0.991534
outer loop
vertex 3.119968 -5.862437 -0.519968
vertex 1.440812 6.723727 -1.440812
vertex 3.627203 -5.862437 -0.569926
endloop
endfacet
facet normal -0.288328 -0.115855 -0.950497
outer loop
vertex 3.627203 -5.862437 -0.569926
vertex 1.440812 6.723727 -1.440812
vertex 4.114945 -5.862437 -0.717881
endloop
endfacet
facet normal -0.466125 -0.149126 -0.872060
outer loop
vertex 4.114945 -5.862437 -0.717881
vertex 1.440812 6.723727 -1.440812
vertex 4.564452 -5.862437 -0.958146
endloop
endfacet
facet normal -0.623574 -0.183898 -0.759827
outer loop
vertex 4.564452 -5.862437 -0.958146
vertex 1.440812 6.723727 -1.440812
vertex 4.958447 -5.862437 -1.281490
endloop
endfacet
facet normal -0.754305 -0.218653 -0.619043
outer loop
vertex 4.958447 -5.862437 -1.281490
vertex 1.440812 6.723727 -1.440812
vertex 5.281791 -5.862437 -1.675485
endloop
endfacet
facet normal -0.853471 -0.251952 -0.456188
outer loop
vertex 5.281791 -5.862437 -1.675485
vertex 1.440812 6.723727 -1.440812
vertex 5.522056 -5.862437 -2.124992
endloop
endfacet
facet normal -0.917955 -0.282522 -0.278460
outer loop
vertex 5.522056 -5.862437 -2.124992
vertex 1.440812 6.723727 -1.440812
vertex 5.525012 -5.862437 -2.134734
endloop
endfacet
facet normal -0.909672 -0.310402 0.275947
outer loop
vertex 5.525012 -5.862437 -2.134734
vertex 1.440812 6.723727 -1.440812
vertex 5.483564 -5.862437 -2.271368
endloop
endfacet
facet normal -0.841323 -0.299913 0.449696
outer loop
vertex 5.483564 -5.862437 -2.271368
vertex 1.440812 6.723727 -1.440812
vertex 4.935078 -5.862437 -3.297514
endloop
endfacet
facet normal -0.738723 -0.294524 0.606254
outer loop
vertex 4.935078 -5.862437 -3.297514
vertex 1.440812 6.723727 -1.440812
vertex 4.196939 -5.862437 -4.196939
endloop
endfacet
facet normal -0.606255 -0.294524 0.738722
outer loop
vertex 4.196939 -5.862437 -4.196939
vertex 1.440812 6.723727 -1.440812
vertex 3.297514 -5.862437 -4.935079
endloop
endfacet
facet normal -0.449697 -0.299914 0.841323
outer loop
vertex 3.297514 -5.862437 -4.935079
vertex 1.440812 6.723727 -1.440812
vertex 2.271367 -5.862437 -5.483566
endloop
endfacet
facet normal -0.275949 -0.310402 0.909672
outer loop
vertex 2.271367 -5.862437 -5.483566
vertex 1.440812 6.723727 -1.440812
vertex 2.134740 -5.862437 -5.525012
endloop
endfacet
facet normal 0.466125 -0.149125 0.872060
outer loop
vertex -4.115004 -5.862437 0.717944
vertex -1.440858 6.723727 1.440858
vertex -4.564510 -5.862437 0.958210
endloop
endfacet
facet normal 0.623573 -0.183897 0.759828
outer loop
vertex -4.564510 -5.862437 0.958210
vertex -1.440858 6.723727 1.440858
vertex -4.958506 -5.862437 1.281552
endloop
endfacet
facet normal 0.754305 -0.218653 0.619044
outer loop
vertex -4.958506 -5.862437 1.281552
vertex -1.440858 6.723727 1.440858
vertex -5.281849 -5.862437 1.675547
endloop
endfacet
facet normal 0.853470 -0.251952 0.456190
outer loop
vertex -5.281849 -5.862437 1.675547
vertex -1.440858 6.723727 1.440858
vertex -5.522116 -5.862437 2.125052
endloop
endfacet
facet normal 0.917949 -0.282522 0.278480
outer loop
vertex -5.522116 -5.862437 2.125052
vertex -1.440858 6.723727 1.440858
vertex -5.525031 -5.862437 2.134662
endloop
endfacet
facet normal 0.909673 -0.310398 -0.275949
outer loop
vertex -5.525031 -5.862437 2.134662
vertex -1.440858 6.723727 1.440858
vertex -5.483564 -5.862437 2.271360
endloop
endfacet
facet normal 0.841325 -0.299909 -0.449697
outer loop
vertex -5.483564 -5.862437 2.271360
vertex -1.440858 6.723727 1.440858
vertex -4.935078 -5.862437 3.297507
endloop
endfacet
facet normal 0.738725 -0.294519 -0.606255
outer loop
vertex -4.935078 -5.862437 3.297507
vertex -1.440858 6.723727 1.440858
vertex -4.196939 -5.862437 4.196933
endloop
endfacet
facet normal 0.606256 -0.294519 -0.738723
outer loop
vertex -4.196939 -5.862437 4.196933
vertex -1.440858 6.723727 1.440858
vertex -3.297515 -5.862437 4.935073
endloop
endfacet
facet normal 0.449698 -0.299909 -0.841324
outer loop
vertex -3.297515 -5.862437 4.935073
vertex -1.440858 6.723727 1.440858
vertex -2.271368 -5.862437 5.483560
endloop
endfacet
facet normal 0.275940 -0.310398 -0.909676
outer loop
vertex -2.271368 -5.862437 5.483560
vertex -1.440858 6.723727 1.440858
vertex -2.134654 -5.862437 5.525031
endloop
endfacet
facet normal -0.278388 -0.282532 -0.917974
outer loop
vertex -2.134654 -5.862437 5.525031
vertex -1.440858 6.723727 1.440858
vertex -2.125054 -5.862437 5.522120
endloop
endfacet
facet normal -0.456190 -0.251952 -0.853470
outer loop
vertex -2.125054 -5.862437 5.522120
vertex -1.440858 6.723727 1.440858
vertex -1.675548 -5.862437 5.281853
endloop
endfacet
facet normal -0.619042 -0.218653 -0.754306
outer loop
vertex -1.675548 -5.862437 5.281853
vertex -1.440858 6.723727 1.440858
vertex -1.281553 -5.862437 4.958510
endloop
endfacet
facet normal -0.759827 -0.183897 -0.623574
outer loop
vertex -1.281553 -5.862437 4.958510
vertex -1.440858 6.723727 1.440858
vertex -0.958209 -5.862437 4.564515
endloop
endfacet
facet normal -0.872061 -0.149125 -0.466125
outer loop
vertex -0.958209 -5.862437 4.564515
vertex -1.440858 6.723727 1.440858
vertex -0.717944 -5.862437 4.115009
endloop
endfacet
facet normal -0.950496 -0.115855 -0.288330
outer loop
vertex -0.717944 -5.862437 4.115009
vertex -1.440858 6.723727 1.440858
vertex -0.569989 -5.862437 3.627267
endloop
endfacet
facet normal -0.991534 -0.085571 -0.097658
outer loop
vertex -0.569989 -5.862437 3.627267
vertex -1.440858 6.723727 1.440858
vertex -0.520030 -5.862437 3.120033
endloop
endfacet
facet normal -0.993414 -0.059626 0.097843
outer loop
vertex -0.520030 -5.862437 3.120033
vertex -1.440858 6.723727 1.440858
vertex -0.569989 -5.862437 2.612797
endloop
endfacet
facet normal -0.956206 -0.039154 0.290062
outer loop
vertex -0.569989 -5.862437 2.612797
vertex -1.440858 6.723727 1.440858
vertex -0.717944 -5.862437 2.125056
endloop
endfacet
facet normal -0.881646 -0.025022 0.471248
outer loop
vertex -0.717944 -5.862437 2.125056
vertex -1.440858 6.723727 1.440858
vertex -0.958209 -5.862437 1.675550
endloop
endfacet
facet normal -0.772888 -0.017811 0.634293
outer loop
vertex -0.958209 -5.862437 1.675550
vertex -1.440858 6.723727 1.440858
vertex -1.281553 -5.862437 1.281555
endloop
endfacet
facet normal -0.634293 -0.017811 0.772888
outer loop
vertex -1.281553 -5.862437 1.281555
vertex -1.440858 6.723727 1.440858
vertex -1.675548 -5.862437 0.958212
endloop
endfacet
facet normal -0.471249 -0.025022 0.881645
outer loop
vertex -1.675548 -5.862437 0.958212
vertex -1.440858 6.723727 1.440858
vertex -2.125054 -5.862437 0.717946
endloop
endfacet
facet normal -0.290062 -0.039154 0.956206
outer loop
vertex -2.125054 -5.862437 0.717946
vertex -1.440858 6.723727 1.440858
vertex -2.612796 -5.862437 0.569991
endloop
endfacet
facet normal -0.097658 -0.085571 0.991534
outer loop
vertex 3.627204 -5.862437 0.569991
vertex 1.440812 6.723727 1.440861
vertex 3.119970 -5.862437 0.520032
endloop
endfacet
facet normal 0.097843 -0.059627 0.993414
outer loop
vertex 3.119970 -5.862437 0.520032
vertex 1.440812 6.723727 1.440861
vertex 2.612738 -5.862437 0.569990
endloop
endfacet
facet normal 0.290060 -0.039154 0.956207
outer loop
vertex 2.612738 -5.862437 0.569990
vertex 1.440812 6.723727 1.440861
vertex 2.124996 -5.862437 0.717944
endloop
endfacet
facet normal 0.471248 -0.025022 0.881646
outer loop
vertex 2.124996 -5.862437 0.717944
vertex 1.440812 6.723727 1.440861
vertex 1.675489 -5.862437 0.958210
endloop
endfacet
facet normal 0.634292 -0.017812 0.772889
outer loop
vertex 1.675489 -5.862437 0.958210
vertex 1.440812 6.723727 1.440861
vertex 1.281494 -5.862437 1.281552
endloop
endfacet
facet normal 0.772887 -0.017812 0.634293
outer loop
vertex 1.281494 -5.862437 1.281552
vertex 1.440812 6.723727 1.440861
vertex 0.958151 -5.862437 1.675547
endloop
endfacet
facet normal 0.881645 -0.025023 0.471250
outer loop
vertex 0.958151 -5.862437 1.675547
vertex 1.440812 6.723727 1.440861
vertex 0.717884 -5.862437 2.125052
endloop
endfacet
facet normal 0.956206 -0.039155 0.290064
outer loop
vertex 0.717884 -5.862437 2.125052
vertex 1.440812 6.723727 1.440861
vertex 0.569928 -5.862437 2.612795
endloop
endfacet
facet normal 0.993414 -0.059628 0.097843
outer loop
vertex 0.569928 -5.862437 2.612795
vertex 1.440812 6.723727 1.440861
vertex 0.519970 -5.862437 3.120030
endloop
endfacet
facet normal 0.991534 -0.085573 -0.097657
outer loop
vertex 0.519970 -5.862437 3.120030
vertex 1.440812 6.723727 1.440861
vertex 0.569928 -5.862437 3.627265
endloop
endfacet
facet normal 0.950497 -0.115855 -0.288328
outer loop
vertex 0.569928 -5.862437 3.627265
vertex 1.440812 6.723727 1.440861
vertex 0.717882 -5.862437 4.115007
endloop
endfacet
facet normal 0.872060 -0.149126 -0.466125
outer loop
vertex 0.717882 -5.862437 4.115007
vertex 1.440812 6.723727 1.440861
vertex 0.958148 -5.862437 4.564513
endloop
endfacet
facet normal 0.759827 -0.183898 -0.623573
outer loop
vertex 0.958148 -5.862437 4.564513
vertex 1.440812 6.723727 1.440861
vertex 1.281491 -5.862437 4.958509
endloop
endfacet
facet normal 0.619043 -0.218653 -0.754305
outer loop
vertex 1.281491 -5.862437 4.958509
vertex 1.440812 6.723727 1.440861
vertex 1.675485 -5.862437 5.281852
endloop
endfacet
facet normal 0.456189 -0.251953 -0.853471
outer loop
vertex 1.675485 -5.862437 5.281852
vertex 1.440812 6.723727 1.440861
vertex 2.124992 -5.862437 5.522118
endloop
endfacet
facet normal 0.278454 -0.282518 -0.917958
outer loop
vertex 2.124992 -5.862437 5.522118
vertex 1.440812 6.723727 1.440861
vertex 2.134628 -5.862437 5.525041
endloop
endfacet
facet normal -0.275948 -0.310399 -0.909673
outer loop
vertex 2.134628 -5.862437 5.525041
vertex 1.440812 6.723727 1.440861
vertex 2.271366 -5.862437 5.483562
endloop
endfacet
facet normal -0.449697 -0.299910 -0.841324
outer loop
vertex 2.271366 -5.862437 5.483562
vertex 1.440812 6.723727 1.440861
vertex 3.297513 -5.862437 4.935075
endloop
endfacet
facet normal -0.606255 -0.294521 -0.738723
outer loop
vertex 3.297513 -5.862437 4.935075
vertex 1.440812 6.723727 1.440861
vertex 4.196939 -5.862437 4.196936
endloop
endfacet
facet normal -0.738723 -0.294522 -0.606255
outer loop
vertex 4.196939 -5.862437 4.196936
vertex 1.440812 6.723727 1.440861
vertex 4.935078 -5.862437 3.297510
endloop
endfacet
facet normal -0.841324 -0.299912 -0.449697
outer loop
vertex 4.935078 -5.862437 3.297510
vertex 1.440812 6.723727 1.440861
vertex 5.483565 -5.862437 2.271363
endloop
endfacet
facet normal -0.909675 -0.310402 -0.275939
outer loop
vertex 5.483565 -5.862437 2.271363
vertex 1.440812 6.723727 1.440861
vertex 5.525001 -5.862437 2.134764
endloop
endfacet
facet normal -0.917968 -0.282530 0.278409
outer loop
vertex 5.525001 -5.862437 2.134764
vertex 1.440812 6.723727 1.440861
vertex 5.522056 -5.862437 2.125056
endloop
endfacet
facet normal -0.853471 -0.251951 0.456189
outer loop
vertex 5.522056 -5.862437 2.125056
vertex 1.440812 6.723727 1.440861
vertex 5.281791 -5.862437 1.675550
endloop
endfacet
facet normal -0.754306 -0.218652 0.619042
outer loop
vertex 5.281791 -5.862437 1.675550
vertex 1.440812 6.723727 1.440861
vertex 4.958447 -5.862437 1.281555
endloop
endfacet
facet normal -0.623573 -0.183896 0.759828
outer loop
vertex 4.958447 -5.862437 1.281555
vertex 1.440812 6.723727 1.440861
vertex 4.564452 -5.862437 0.958212
endloop
endfacet
facet normal -0.466126 -0.149125 0.872060
outer loop
vertex 4.564452 -5.862437 0.958212
vertex 1.440812 6.723727 1.440861
vertex 4.114947 -5.862437 0.717946
endloop
endfacet
facet normal -0.288330 -0.115854 0.950497
outer loop
vertex 4.114947 -5.862437 0.717946
vertex 1.440812 6.723727 1.440861
vertex 3.627204 -5.862437 0.569991
endloop
endfacet
facet normal 0.909674 -0.310399 0.275947
outer loop
vertex -5.483560 -5.862437 -2.271374
vertex -1.440860 6.723727 -1.440810
vertex -5.525041 -5.862437 -2.134630
endloop
endfacet
facet normal 0.841324 -0.299910 0.449698
outer loop
vertex -4.935072 -5.862437 -3.297521
vertex -1.440860 6.723727 -1.440810
vertex -5.483560 -5.862437 -2.271374
endloop
endfacet
facet normal 0.738723 -0.294521 0.606256
outer loop
vertex -4.196931 -5.862437 -4.196945
vertex -1.440860 6.723727 -1.440810
vertex -4.935072 -5.862437 -3.297521
endloop
endfacet
facet normal 0.606254 -0.294522 0.738724
outer loop
vertex -3.297505 -5.862437 -4.935083
vertex -1.440860 6.723727 -1.440810
vertex -4.196931 -5.862437 -4.196945
endloop
endfacet
facet normal 0.449696 -0.299912 0.841324
outer loop
vertex -2.271357 -5.862437 -5.483569
vertex -1.440860 6.723727 -1.440810
vertex -3.297505 -5.862437 -4.935083
endloop
endfacet
facet normal 0.275951 -0.310401 0.909672
outer loop
vertex -2.134771 -5.862437 -5.525002
vertex -1.440860 6.723727 -1.440810
vertex -2.271357 -5.862437 -5.483569
endloop
endfacet
facet normal -0.278478 -0.282508 0.917954
outer loop
vertex -2.125054 -5.862437 -5.522055
vertex -1.440860 6.723727 -1.440810
vertex -2.134771 -5.862437 -5.525002
endloop
endfacet
facet normal -0.456189 -0.251951 0.853471
outer loop
vertex -1.675548 -5.862437 -5.281789
vertex -1.440860 6.723727 -1.440810
vertex -2.125054 -5.862437 -5.522055
endloop
endfacet
facet normal -0.619043 -0.218652 0.754305
outer loop
vertex -1.281553 -5.862437 -4.958446
vertex -1.440860 6.723727 -1.440810
vertex -1.675548 -5.862437 -5.281789
endloop
endfacet
facet normal -0.759827 -0.183897 0.623575
outer loop
vertex -0.958209 -5.862437 -4.564450
vertex -1.440860 6.723727 -1.440810
vertex -1.281553 -5.862437 -4.958446
endloop
endfacet
facet normal -0.872060 -0.149125 0.466125
outer loop
vertex -0.717944 -5.862437 -4.114945
vertex -1.440860 6.723727 -1.440810
vertex -0.958209 -5.862437 -4.564450
endloop
endfacet
facet normal -0.950497 -0.115854 0.288330
outer loop
vertex -0.569989 -5.862437 -3.627203
vertex -1.440860 6.723727 -1.440810
vertex -0.717944 -5.862437 -4.114945
endloop
endfacet
facet normal -0.991534 -0.085571 0.097658
outer loop
vertex -0.520030 -5.862437 -3.119967
vertex -1.440860 6.723727 -1.440810
vertex -0.569989 -5.862437 -3.627203
endloop
endfacet
facet normal -0.993414 -0.059627 -0.097843
outer loop
vertex -0.569989 -5.862437 -2.612733
vertex -1.440860 6.723727 -1.440810
vertex -0.520030 -5.862437 -3.119967
endloop
endfacet
facet normal -0.956206 -0.039154 -0.290063
outer loop
vertex -0.717944 -5.862437 -2.124992
vertex -1.440860 6.723727 -1.440810
vertex -0.569989 -5.862437 -2.612733
endloop
endfacet
facet normal -0.881646 -0.025023 -0.471247
outer loop
vertex -0.958209 -5.862437 -1.675485
vertex -1.440860 6.723727 -1.440810
vertex -0.717944 -5.862437 -2.124992
endloop
endfacet
facet normal -0.772887 -0.017812 -0.634294
outer loop
vertex -1.281553 -5.862437 -1.281490
vertex -1.440860 6.723727 -1.440810
vertex -0.958209 -5.862437 -1.675485
endloop
endfacet
facet normal -0.634293 -0.017812 -0.772888
outer loop
vertex -1.675548 -5.862437 -0.958146
vertex -1.440860 6.723727 -1.440810
vertex -1.281553 -5.862437 -1.281490
endloop
endfacet
facet normal -0.471249 -0.025023 -0.881645
outer loop
vertex -2.125054 -5.862437 -0.717881
vertex -1.440860 6.723727 -1.440810
vertex -1.675548 -5.862437 -0.958146
endloop
endfacet
facet normal -0.290061 -0.039155 -0.956207
outer loop
vertex -2.612796 -5.862437 -0.569926
vertex -1.440860 6.723727 -1.440810
vertex -2.125054 -5.862437 -0.717881
endloop
endfacet
facet normal -0.097844 -0.059628 -0.993414
outer loop
vertex -3.120031 -5.862437 -0.519968
vertex -1.440860 6.723727 -1.440810
vertex -2.612796 -5.862437 -0.569926
endloop
endfacet
facet normal 0.097658 -0.085573 -0.991534
outer loop
vertex -3.627267 -5.862437 -0.569926
vertex -1.440860 6.723727 -1.440810
vertex -3.120031 -5.862437 -0.519968
endloop
endfacet
facet normal 0.288330 -0.115856 -0.950496
outer loop
vertex -4.115008 -5.862437 -0.717881
vertex -1.440860 6.723727 -1.440810
vertex -3.627267 -5.862437 -0.569926
endloop
endfacet
facet normal 0.466127 -0.149126 -0.872059
outer loop
vertex -4.564514 -5.862437 -0.958148
vertex -1.440860 6.723727 -1.440810
vertex -4.115008 -5.862437 -0.717881
endloop
endfacet
facet normal 0.623574 -0.183898 -0.759827
outer loop
vertex -4.958509 -5.862437 -1.281491
vertex -1.440860 6.723727 -1.440810
vertex -4.564514 -5.862437 -0.958148
endloop
endfacet
facet normal 0.754306 -0.218653 -0.619042
outer loop
vertex -5.281852 -5.862437 -1.675486
vertex -1.440860 6.723727 -1.440810
vertex -4.958509 -5.862437 -1.281491
endloop
endfacet
facet normal 0.853471 -0.251953 -0.456189
outer loop
vertex -5.522118 -5.862437 -2.124993
vertex -1.440860 6.723727 -1.440810
vertex -5.281852 -5.862437 -1.675486
endloop
endfacet
facet normal 0.917960 -0.282536 -0.278429
outer loop
vertex -5.525041 -5.862437 -2.134630
vertex -1.440860 6.723727 -1.440810
vertex -5.522118 -5.862437 -2.124993
endloop
endfacet
endsolid Exported from Blender-2.74 (sub 0)
