solid Exported from Blender-2.74 (sub 0)
facet normal 0.098017 0.000000 -0.995185
outer loop
vertex -3.136841 9.779915 -8.489455
vertex -3.136841 21.452419 -8.489455
vertex -1.998244 21.452419 -8.377314
endloop
endfacet
facet normal 0.098016 0.000000 -0.995185
outer loop
vertex -1.998244 21.452419 -8.377314
vertex -1.998244 9.779915 -8.377314
vertex -3.136841 9.779915 -8.489455
endloop
endfacet
facet normal 0.000000 -1.000000 0.000007
outer loop
vertex -3.136841 9.779915 -8.489455
vertex -5.370270 9.779915 -8.045201
vertex -4.275428 9.779915 -8.377316
endloop
endfacet
facet normal 0.000000 -1.000000 0.000000
outer loop
vertex -7.263690 9.779915 -6.780062
vertex -6.379283 9.779915 -7.505875
vertex -5.370270 9.779915 -8.045201
endloop
endfacet
facet normal 0.000000 -1.000000 -0.000004
outer loop
vertex -8.528832 9.779915 -4.886646
vertex -7.989504 9.779915 -5.895657
vertex -7.263690 9.779915 -6.780062
endloop
endfacet
facet normal 0.000000 -1.000000 -0.000002
outer loop
vertex -8.973094 9.779915 -2.653208
vertex -8.860950 9.779915 -3.791805
vertex -8.528832 9.779915 -4.886646
endloop
endfacet
facet normal 0.000000 -1.000000 0.000001
outer loop
vertex -8.528837 9.779915 -0.419768
vertex -8.860953 9.779915 -1.514610
vertex -8.973094 9.779915 -2.653208
endloop
endfacet
facet normal 0.000000 -1.000000 0.000004
outer loop
vertex -7.263698 9.779915 1.473650
vertex -7.989511 9.779915 0.589244
vertex -8.528837 9.779915 -0.419768
endloop
endfacet
facet normal 0.000000 -1.000000 0.000000
outer loop
vertex -5.370281 9.779915 2.738792
vertex -6.379292 9.779915 2.199464
vertex -7.263698 9.779915 1.473650
endloop
endfacet
facet normal 0.000000 -1.000000 0.000007
outer loop
vertex -3.136843 9.779915 3.183052
vertex -4.275440 9.779915 3.070910
vertex -5.370281 9.779915 2.738792
endloop
endfacet
facet normal 0.000000 -1.000000 0.000007
outer loop
vertex -0.903404 9.779915 2.738794
vertex -1.998246 9.779915 3.070910
vertex -3.136843 9.779915 3.183052
endloop
endfacet
facet normal 0.000000 -1.000000 -0.000007
outer loop
vertex 0.990013 9.779915 1.473652
vertex 0.105607 9.779915 2.199466
vertex -0.903404 9.779915 2.738794
endloop
endfacet
facet normal 0.000000 -1.000000 0.000007
outer loop
vertex 2.255154 9.779915 -0.419765
vertex 1.715827 9.779915 0.589247
vertex 0.990013 9.779915 1.473652
endloop
endfacet
facet normal 0.000000 -1.000000 0.000000
outer loop
vertex 2.699412 9.779915 -2.653202
vertex 2.587270 9.779915 -1.514606
vertex 2.255154 9.779915 -0.419765
endloop
endfacet
facet normal 0.000000 -1.000000 0.000002
outer loop
vertex 2.255154 9.779915 -4.886640
vertex 2.587270 9.779915 -3.791799
vertex 2.699412 9.779915 -2.653202
endloop
endfacet
facet normal 0.000000 -1.000000 -0.000004
outer loop
vertex 0.990013 9.779915 -6.780056
vertex 1.715827 9.779915 -5.895651
vertex 2.255154 9.779915 -4.886640
endloop
endfacet
facet normal 0.000000 -1.000000 0.000015
outer loop
vertex -0.903403 9.779915 -8.045197
vertex 0.105608 9.779915 -7.505870
vertex 0.990013 9.779915 -6.780056
endloop
endfacet
facet normal 0.000000 -1.000000 0.000000
outer loop
vertex -3.136841 9.779915 -8.489455
vertex -1.998244 9.779915 -8.377314
vertex -0.903403 9.779915 -8.045197
endloop
endfacet
facet normal 0.000000 -1.000000 0.000000
outer loop
vertex -3.136841 9.779915 -8.489455
vertex -7.263690 9.779915 -6.780062
vertex -5.370270 9.779915 -8.045201
endloop
endfacet
facet normal 0.000000 -1.000000 0.000001
outer loop
vertex -8.973094 9.779915 -2.653208
vertex -8.528832 9.779915 -4.886646
vertex -7.263690 9.779915 -6.780062
endloop
endfacet
facet normal 0.000000 -1.000000 -0.000001
outer loop
vertex -7.263698 9.779915 1.473650
vertex -8.528837 9.779915 -0.419768
vertex -8.973094 9.779915 -2.653208
endloop
endfacet
facet normal 0.000000 -1.000000 0.000000
outer loop
vertex -3.136843 9.779915 3.183052
vertex -5.370281 9.779915 2.738792
vertex -7.263698 9.779915 1.473650
endloop
endfacet
facet normal 0.000000 -1.000000 0.000002
outer loop
vertex 0.990013 9.779915 1.473652
vertex -0.903404 9.779915 2.738794
vertex -3.136843 9.779915 3.183052
endloop
endfacet
facet normal 0.000000 -1.000000 -0.000001
outer loop
vertex 2.699412 9.779915 -2.653202
vertex 2.255154 9.779915 -0.419765
vertex 0.990013 9.779915 1.473652
endloop
endfacet
facet normal 0.000000 -1.000000 0.000000
outer loop
vertex 0.990013 9.779915 -6.780056
vertex 2.255154 9.779915 -4.886640
vertex 2.699412 9.779915 -2.653202
endloop
endfacet
facet normal 0.000000 -1.000000 -0.000004
outer loop
vertex -3.136841 9.779915 -8.489455
vertex -0.903403 9.779915 -8.045197
vertex 0.990013 9.779915 -6.780056
endloop
endfacet
facet normal 0.000000 -1.000000 0.000000
outer loop
vertex -3.136841 9.779915 -8.489455
vertex -8.973094 9.779915 -2.653208
vertex -7.263690 9.779915 -6.780062
endloop
endfacet
facet normal 0.000000 -1.000000 -0.000001
outer loop
vertex -3.136843 9.779915 3.183052
vertex -7.263698 9.779915 1.473650
vertex -8.973094 9.779915 -2.653208
endloop
endfacet
facet normal 0.000000 -1.000000 0.000000
outer loop
vertex 2.699412 9.779915 -2.653202
vertex 0.990013 9.779915 1.473652
vertex -3.136843 9.779915 3.183052
endloop
endfacet
facet normal 0.000000 -1.000000 0.000001
outer loop
vertex -3.136841 9.779915 -8.489455
vertex 0.990013 9.779915 -6.780056
vertex 2.699412 9.779915 -2.653202
endloop
endfacet
facet normal 0.000000 -1.000000 0.000000
outer loop
vertex -3.136841 9.779915 -8.489455
vertex -3.136843 9.779915 3.183052
vertex -8.973094 9.779915 -2.653208
endloop
endfacet
facet normal 0.000000 -1.000000 -0.000000
outer loop
vertex -3.136841 9.779915 -8.489455
vertex 2.699412 9.779915 -2.653202
vertex -3.136843 9.779915 3.183052
endloop
endfacet
facet normal -0.098014 0.000000 -0.995185
outer loop
vertex -3.136841 21.452419 -8.489455
vertex -3.136841 9.779915 -8.489455
vertex -4.275428 9.779915 -8.377316
endloop
endfacet
facet normal -0.098017 0.000000 -0.995185
outer loop
vertex -4.275428 9.779915 -8.377316
vertex -4.275428 21.452419 -8.377315
vertex -3.136841 21.452419 -8.489455
endloop
endfacet
facet normal 0.097845 -0.059204 -0.993439
outer loop
vertex -1.998244 21.452419 -8.377314
vertex -3.136841 21.452419 -8.489455
vertex -3.080763 43.608929 -9.804359
endloop
endfacet
facet normal 0.097845 -0.059204 -0.993439
outer loop
vertex -3.080763 43.608929 -9.804359
vertex -2.288229 43.608929 -9.726301
vertex -1.998244 21.452419 -8.377314
endloop
endfacet
facet normal 0.290286 0.000000 -0.956940
outer loop
vertex -1.998244 9.779915 -8.377314
vertex -1.998244 21.452419 -8.377314
vertex -0.903403 21.452419 -8.045197
endloop
endfacet
facet normal 0.290285 0.000000 -0.956940
outer loop
vertex -0.903403 21.452419 -8.045197
vertex -0.903403 9.779915 -8.045197
vertex -1.998244 9.779915 -8.377314
endloop
endfacet
facet normal 0.471396 0.000000 -0.881922
outer loop
vertex -0.903403 9.779915 -8.045197
vertex -0.903403 21.452419 -8.045197
vertex 0.105608 21.452419 -7.505869
endloop
endfacet
facet normal 0.471397 0.000000 -0.881921
outer loop
vertex 0.105608 21.452419 -7.505869
vertex 0.105608 9.779915 -7.505870
vertex -0.903403 9.779915 -8.045197
endloop
endfacet
facet normal 0.634394 0.000000 -0.773010
outer loop
vertex 0.105608 9.779915 -7.505870
vertex 0.105608 21.452419 -7.505869
vertex 0.990013 21.452419 -6.780056
endloop
endfacet
facet normal 0.634394 0.000000 -0.773010
outer loop
vertex 0.990013 21.452419 -6.780056
vertex 0.990013 9.779915 -6.780056
vertex 0.105608 9.779915 -7.505870
endloop
endfacet
facet normal 0.773011 0.000000 -0.634393
outer loop
vertex 0.990013 9.779915 -6.780056
vertex 0.990013 21.452419 -6.780056
vertex 1.715827 21.452419 -5.895649
endloop
endfacet
facet normal 0.773010 0.000000 -0.634394
outer loop
vertex 1.715827 21.452419 -5.895649
vertex 1.715827 9.779915 -5.895651
vertex 0.990013 9.779915 -6.780056
endloop
endfacet
facet normal 0.881921 0.000000 -0.471397
outer loop
vertex 1.715827 9.779915 -5.895651
vertex 1.715827 21.452419 -5.895649
vertex 2.255154 21.452419 -4.886640
endloop
endfacet
facet normal 0.881921 0.000000 -0.471396
outer loop
vertex 2.255154 21.452419 -4.886640
vertex 2.255154 9.779915 -4.886640
vertex 1.715827 9.779915 -5.895651
endloop
endfacet
facet normal 0.956940 0.000000 -0.290284
outer loop
vertex 2.255154 9.779915 -4.886640
vertex 2.255154 21.452419 -4.886640
vertex 2.587270 21.452419 -3.791798
endloop
endfacet
facet normal 0.956940 0.000000 -0.290285
outer loop
vertex 2.587270 21.452419 -3.791798
vertex 2.587270 9.779915 -3.791799
vertex 2.255154 9.779915 -4.886640
endloop
endfacet
facet normal 0.995185 0.000000 -0.098017
outer loop
vertex 2.587270 9.779915 -3.791799
vertex 2.587270 21.452419 -3.791798
vertex 2.699412 21.452419 -2.653202
endloop
endfacet
facet normal 0.995185 0.000000 -0.098017
outer loop
vertex 2.699412 21.452419 -2.653202
vertex 2.699412 9.779915 -2.653202
vertex 2.587270 9.779915 -3.791799
endloop
endfacet
facet normal 0.995185 0.000000 0.098017
outer loop
vertex 2.699412 9.779915 -2.653202
vertex 2.699412 21.452419 -2.653202
vertex 2.587270 21.452419 -1.514605
endloop
endfacet
facet normal 0.995185 0.000000 0.098017
outer loop
vertex 2.587270 21.452419 -1.514605
vertex 2.587270 9.779915 -1.514606
vertex 2.699412 9.779915 -2.653202
endloop
endfacet
facet normal 0.956940 0.000000 0.290285
outer loop
vertex 2.587270 9.779915 -1.514606
vertex 2.587270 21.452419 -1.514605
vertex 2.255154 21.452419 -0.419765
endloop
endfacet
facet normal 0.956940 -0.000000 0.290285
outer loop
vertex 2.255154 21.452419 -0.419765
vertex 2.255154 9.779915 -0.419765
vertex 2.587270 9.779915 -1.514606
endloop
endfacet
facet normal 0.881922 -0.000000 0.471396
outer loop
vertex 2.255154 9.779915 -0.419765
vertex 2.255154 21.452419 -0.419765
vertex 1.715827 21.452419 0.589247
endloop
endfacet
facet normal 0.881921 -0.000000 0.471397
outer loop
vertex 1.715827 21.452419 0.589247
vertex 1.715827 9.779915 0.589247
vertex 2.255154 9.779915 -0.419765
endloop
endfacet
facet normal 0.773010 -0.000000 0.634393
outer loop
vertex 1.715827 9.779915 0.589247
vertex 1.715827 21.452419 0.589247
vertex 0.990013 21.452419 1.473653
endloop
endfacet
facet normal 0.773010 -0.000000 0.634393
outer loop
vertex 0.990013 21.452419 1.473653
vertex 0.990013 9.779915 1.473652
vertex 1.715827 9.779915 0.589247
endloop
endfacet
facet normal 0.634394 -0.000000 0.773010
outer loop
vertex 0.990013 9.779915 1.473652
vertex 0.990013 21.452419 1.473653
vertex 0.105607 21.452419 2.199467
endloop
endfacet
facet normal 0.634394 -0.000000 0.773010
outer loop
vertex 0.105607 21.452419 2.199467
vertex 0.105607 9.779915 2.199466
vertex 0.990013 9.779915 1.473652
endloop
endfacet
facet normal 0.471396 -0.000000 0.881921
outer loop
vertex 0.105607 9.779915 2.199466
vertex 0.105607 21.452419 2.199467
vertex -0.903404 21.452419 2.738795
endloop
endfacet
facet normal 0.471397 -0.000000 0.881921
outer loop
vertex -0.903404 21.452419 2.738795
vertex -0.903404 9.779915 2.738794
vertex 0.105607 9.779915 2.199466
endloop
endfacet
facet normal 0.290284 -0.000000 0.956940
outer loop
vertex -0.903404 9.779915 2.738794
vertex -0.903404 21.452419 2.738795
vertex -1.998246 21.452419 3.070911
endloop
endfacet
facet normal 0.290284 -0.000000 0.956940
outer loop
vertex -1.998246 21.452419 3.070911
vertex -1.998246 9.779915 3.070910
vertex -0.903404 9.779915 2.738794
endloop
endfacet
facet normal 0.098017 -0.000000 0.995185
outer loop
vertex -1.998246 9.779915 3.070910
vertex -1.998246 21.452419 3.070911
vertex -3.136843 21.452419 3.183052
endloop
endfacet
facet normal 0.098017 0.000000 0.995185
outer loop
vertex -3.136843 21.452419 3.183052
vertex -3.136843 9.779915 3.183052
vertex -1.998246 9.779915 3.070910
endloop
endfacet
facet normal -0.098018 0.000000 0.995185
outer loop
vertex -3.136843 9.779915 3.183052
vertex -3.136843 21.452419 3.183052
vertex -4.275440 21.452419 3.070910
endloop
endfacet
facet normal -0.098018 -0.000000 0.995185
outer loop
vertex -4.275440 21.452419 3.070910
vertex -4.275440 9.779915 3.070910
vertex -3.136843 9.779915 3.183052
endloop
endfacet
facet normal -0.290285 -0.000000 0.956940
outer loop
vertex -4.275440 9.779915 3.070910
vertex -4.275440 21.452419 3.070910
vertex -5.370281 21.452419 2.738793
endloop
endfacet
facet normal -0.290285 -0.000000 0.956940
outer loop
vertex -5.370281 21.452419 2.738793
vertex -5.370281 9.779915 2.738792
vertex -4.275440 9.779915 3.070910
endloop
endfacet
facet normal -0.471397 -0.000000 0.881921
outer loop
vertex -5.370281 9.779915 2.738792
vertex -5.370281 21.452419 2.738793
vertex -6.379292 21.452419 2.199465
endloop
endfacet
facet normal -0.471397 -0.000000 0.881921
outer loop
vertex -6.379292 21.452419 2.199465
vertex -6.379292 9.779915 2.199464
vertex -5.370281 9.779915 2.738792
endloop
endfacet
facet normal -0.634394 0.000000 0.773010
outer loop
vertex -6.379292 9.779915 2.199464
vertex -6.379292 21.452419 2.199465
vertex -7.263698 21.452419 1.473651
endloop
endfacet
facet normal -0.634394 -0.000000 0.773010
outer loop
vertex -7.263698 21.452419 1.473651
vertex -7.263698 9.779915 1.473650
vertex -6.379292 9.779915 2.199464
endloop
endfacet
facet normal -0.773011 0.000000 0.634393
outer loop
vertex -7.263698 9.779915 1.473650
vertex -7.263698 21.452419 1.473651
vertex -7.989511 21.452419 0.589244
endloop
endfacet
facet normal -0.773011 0.000000 0.634393
outer loop
vertex -7.989511 21.452419 0.589244
vertex -7.989511 9.779915 0.589244
vertex -7.263698 9.779915 1.473650
endloop
endfacet
facet normal -0.881922 0.000000 0.471396
outer loop
vertex -7.989511 9.779915 0.589244
vertex -7.989511 21.452419 0.589244
vertex -8.528837 21.452419 -0.419768
endloop
endfacet
facet normal -0.881922 0.000000 0.471396
outer loop
vertex -8.528837 21.452419 -0.419768
vertex -8.528837 9.779915 -0.419768
vertex -7.989511 9.779915 0.589244
endloop
endfacet
facet normal -0.956940 0.000000 0.290284
outer loop
vertex -8.528837 9.779915 -0.419768
vertex -8.528837 21.452419 -0.419768
vertex -8.860953 21.452419 -1.514610
endloop
endfacet
facet normal -0.956940 0.000000 0.290284
outer loop
vertex -8.860953 21.452419 -1.514610
vertex -8.860953 9.779915 -1.514610
vertex -8.528837 9.779915 -0.419768
endloop
endfacet
facet normal -0.995185 -0.000000 0.098016
outer loop
vertex -8.860953 9.779915 -1.514610
vertex -8.860953 21.452419 -1.514610
vertex -8.973094 21.452419 -2.653207
endloop
endfacet
facet normal -0.995185 0.000000 0.098016
outer loop
vertex -8.973094 21.452419 -2.653207
vertex -8.973094 9.779915 -2.653208
vertex -8.860953 9.779915 -1.514610
endloop
endfacet
facet normal -0.995185 -0.000000 -0.098018
outer loop
vertex -8.973094 9.779915 -2.653208
vertex -8.973094 21.452419 -2.653207
vertex -8.860950 21.452419 -3.791804
endloop
endfacet
facet normal -0.995185 0.000000 -0.098018
outer loop
vertex -8.860950 21.452419 -3.791804
vertex -8.860950 9.779915 -3.791805
vertex -8.973094 9.779915 -2.653208
endloop
endfacet
facet normal -0.956940 0.000000 -0.290286
outer loop
vertex -8.860950 9.779915 -3.791805
vertex -8.860950 21.452419 -3.791804
vertex -8.528832 21.452419 -4.886645
endloop
endfacet
facet normal -0.956940 0.000000 -0.290286
outer loop
vertex -8.528832 21.452419 -4.886645
vertex -8.528832 9.779915 -4.886646
vertex -8.860950 9.779915 -3.791805
endloop
endfacet
facet normal -0.881921 0.000000 -0.471397
outer loop
vertex -8.528832 9.779915 -4.886646
vertex -8.528832 21.452419 -4.886645
vertex -7.989504 21.452419 -5.895657
endloop
endfacet
facet normal -0.881921 0.000000 -0.471398
outer loop
vertex -7.989504 21.452419 -5.895657
vertex -7.989504 9.779915 -5.895657
vertex -8.528832 9.779915 -4.886646
endloop
endfacet
facet normal -0.773009 0.000000 -0.634395
outer loop
vertex -7.989504 21.452419 -5.895657
vertex -7.263690 21.452419 -6.780061
vertex -7.263690 9.779915 -6.780062
endloop
endfacet
facet normal -0.773010 0.000000 -0.634394
outer loop
vertex -7.263690 9.779915 -6.780062
vertex -7.989504 9.779915 -5.895657
vertex -7.989504 21.452419 -5.895657
endloop
endfacet
facet normal -0.634392 0.000000 -0.773011
outer loop
vertex -7.263690 9.779915 -6.780062
vertex -7.263690 21.452419 -6.780061
vertex -6.379283 21.452419 -7.505874
endloop
endfacet
facet normal -0.634393 0.000000 -0.773011
outer loop
vertex -6.379283 21.452419 -7.505874
vertex -6.379283 9.779915 -7.505875
vertex -7.263690 9.779915 -6.780062
endloop
endfacet
facet normal -0.471395 0.000000 -0.881922
outer loop
vertex -6.379283 9.779915 -7.505875
vertex -6.379283 21.452419 -7.505874
vertex -5.370270 21.452419 -8.045200
endloop
endfacet
facet normal -0.471395 0.000000 -0.881922
outer loop
vertex -5.370270 21.452419 -8.045200
vertex -5.370270 9.779915 -8.045201
vertex -6.379283 9.779915 -7.505875
endloop
endfacet
facet normal -0.290284 0.000000 -0.956941
outer loop
vertex -5.370270 9.779915 -8.045201
vertex -5.370270 21.452419 -8.045200
vertex -4.275428 21.452419 -8.377315
endloop
endfacet
facet normal -0.290284 0.000000 -0.956941
outer loop
vertex -4.275428 21.452419 -8.377315
vertex -4.275428 9.779915 -8.377316
vertex -5.370270 9.779915 -8.045201
endloop
endfacet
facet normal -0.097848 -0.058711 -0.993468
outer loop
vertex -3.136841 21.452419 -8.489455
vertex -4.275428 21.452419 -8.377315
vertex -3.873291 43.608929 -9.726304
endloop
endfacet
facet normal -0.097846 -0.058711 -0.993468
outer loop
vertex -3.873291 43.608929 -9.726304
vertex -3.080763 43.608929 -9.804359
vertex -3.136841 21.452419 -8.489455
endloop
endfacet
facet normal 0.289856 -0.054383 -0.955524
outer loop
vertex -0.903403 21.452419 -8.045197
vertex -1.998244 21.452419 -8.377314
vertex -2.288229 43.608929 -9.726301
endloop
endfacet
facet normal 0.289854 -0.054383 -0.955525
outer loop
vertex -2.288229 43.608929 -9.726301
vertex -1.526152 43.608929 -9.495128
vertex -0.903403 21.452419 -8.045197
endloop
endfacet
facet normal 0.470933 -0.044420 -0.881050
outer loop
vertex 0.105608 21.452419 -7.505869
vertex -0.903403 21.452419 -8.045197
vertex -1.526152 43.608929 -9.495128
endloop
endfacet
facet normal 0.470929 -0.044420 -0.881052
outer loop
vertex -1.526152 43.608929 -9.495128
vertex -0.823818 43.608929 -9.119722
vertex 0.105608 21.452419 -7.505869
endloop
endfacet
facet normal 0.634114 -0.029680 -0.772670
outer loop
vertex 0.990013 21.452419 -6.780056
vertex 0.105608 21.452419 -7.505869
vertex -0.823818 43.608929 -9.119722
endloop
endfacet
facet normal 0.634114 -0.029680 -0.772670
outer loop
vertex -0.823818 43.608929 -9.119722
vertex -0.208216 43.608929 -8.614511
vertex 0.990013 21.452419 -6.780056
endloop
endfacet
facet normal 0.772966 -0.010720 -0.634356
outer loop
vertex 1.715827 21.452419 -5.895649
vertex 0.990013 21.452419 -6.780056
vertex -0.208216 43.608929 -8.614511
endloop
endfacet
facet normal 0.772966 -0.010720 -0.634357
outer loop
vertex -0.208216 43.608929 -8.614511
vertex 0.296994 43.608929 -7.998911
vertex 1.715827 21.452419 -5.895649
endloop
endfacet
facet normal 0.881861 0.011726 -0.471364
outer loop
vertex 2.255154 21.452419 -4.886640
vertex 1.715827 21.452419 -5.895649
vertex 0.296994 43.608929 -7.998911
endloop
endfacet
facet normal 0.881860 0.011726 -0.471365
outer loop
vertex 0.296994 43.608929 -7.998911
vertex 0.672400 43.608929 -7.296577
vertex 2.255154 21.452419 -4.886640
endloop
endfacet
facet normal 0.956294 0.036761 -0.290088
outer loop
vertex 2.587270 21.452419 -3.791798
vertex 2.255154 21.452419 -4.886640
vertex 0.672400 43.608929 -7.296577
endloop
endfacet
facet normal 0.956294 0.036760 -0.290088
outer loop
vertex 0.672400 43.608929 -7.296577
vertex 0.903573 43.608929 -6.534500
vertex 2.587270 21.452419 -3.791798
endloop
endfacet
facet normal 0.993185 0.063364 -0.097820
outer loop
vertex 2.699412 21.452419 -2.653202
vertex 2.587270 21.452419 -3.791798
vertex 0.903573 43.608929 -6.534500
endloop
endfacet
facet normal 0.993185 0.063364 -0.097821
outer loop
vertex 0.903573 43.608929 -6.534500
vertex 0.981631 43.608929 -5.741966
vertex 2.699412 21.452419 -2.653202
endloop
endfacet
facet normal 0.991106 0.090448 0.097616
outer loop
vertex 2.587270 21.452419 -1.514605
vertex 2.699412 21.452419 -2.653202
vertex 0.981631 43.608929 -5.741966
endloop
endfacet
facet normal 0.991106 0.090448 0.097615
outer loop
vertex 0.981631 43.608929 -5.741966
vertex 0.903574 43.608929 -4.949432
vertex 2.587270 21.452419 -1.514605
endloop
endfacet
facet normal 0.950378 0.116913 0.288294
outer loop
vertex 2.255154 21.452419 -0.419765
vertex 2.587270 21.452419 -1.514605
vertex 0.903574 43.608929 -4.949432
endloop
endfacet
facet normal 0.950378 0.116913 0.288294
outer loop
vertex 0.903574 43.608929 -4.949432
vertex 0.672400 43.608929 -4.187356
vertex 2.255154 21.452419 -0.419765
endloop
endfacet
facet normal 0.873021 0.141714 0.466639
outer loop
vertex 1.715827 21.452419 0.589247
vertex 2.255154 21.452419 -0.419765
vertex 0.672400 43.608929 -4.187356
endloop
endfacet
facet normal 0.873021 0.141714 0.466639
outer loop
vertex 0.672400 43.608929 -4.187356
vertex 0.296994 43.608929 -3.485020
vertex 1.715827 21.452419 0.589247
endloop
endfacet
facet normal 0.762555 0.163910 0.625814
outer loop
vertex 0.990013 21.452419 1.473653
vertex 1.715827 21.452419 0.589247
vertex 0.296994 43.608929 -3.485020
endloop
endfacet
facet normal 0.762556 0.163910 0.625813
outer loop
vertex 0.296994 43.608929 -3.485020
vertex -0.208216 43.608929 -2.869419
vertex 0.990013 21.452419 1.473653
endloop
endfacet
facet normal 0.623715 0.182704 0.759999
outer loop
vertex 0.105607 21.452419 2.199467
vertex 0.990013 21.452419 1.473653
vertex -0.208216 43.608929 -2.869419
endloop
endfacet
facet normal 0.623715 0.182704 0.759999
outer loop
vertex -0.208216 43.608929 -2.869419
vertex -0.823818 43.608929 -2.364208
vertex 0.105607 21.452419 2.199467
endloop
endfacet
facet normal 0.462115 0.197461 0.864557
outer loop
vertex -0.903404 21.452419 2.738795
vertex 0.105607 21.452419 2.199467
vertex -0.823818 43.608929 -2.364208
endloop
endfacet
facet normal 0.462115 0.197462 0.864557
outer loop
vertex -0.823818 43.608929 -2.364208
vertex -1.526153 43.608929 -1.988802
vertex -0.903404 21.452419 2.738795
endloop
endfacet
facet normal 0.283953 0.207713 0.936069
outer loop
vertex -1.998246 21.452419 3.070911
vertex -0.903404 21.452419 2.738795
vertex -1.526153 43.608929 -1.988802
endloop
endfacet
facet normal 0.283953 0.207713 0.936070
outer loop
vertex -1.526153 43.608929 -1.988802
vertex -2.288230 43.608929 -1.757629
vertex -1.998246 21.452419 3.070911
endloop
endfacet
facet normal 0.095764 0.213149 0.972315
outer loop
vertex -3.136843 21.452419 3.183052
vertex -1.998246 21.452419 3.070911
vertex -2.288230 43.608929 -1.757629
endloop
endfacet
facet normal 0.095764 0.213149 0.972315
outer loop
vertex -2.288230 43.608929 -1.757629
vertex -3.080764 43.608929 -1.679572
vertex -3.136843 21.452419 3.183052
endloop
endfacet
facet normal -0.095755 0.213611 0.972215
outer loop
vertex -4.275440 21.452419 3.070910
vertex -3.136843 21.452419 3.183052
vertex -3.080764 43.608929 -1.679572
endloop
endfacet
facet normal -0.095755 0.213611 0.972215
outer loop
vertex -3.080764 43.608929 -1.679572
vertex -3.873298 43.608929 -1.757630
vertex -4.275440 21.452419 3.070910
endloop
endfacet
facet normal -0.283869 0.209088 0.935789
outer loop
vertex -5.370281 21.452419 2.738793
vertex -4.275440 21.452419 3.070910
vertex -3.873298 43.608929 -1.757630
endloop
endfacet
facet normal -0.283869 0.209088 0.935789
outer loop
vertex -3.873298 43.608929 -1.757630
vertex -4.635375 43.608929 -1.988804
vertex -5.370281 21.452419 2.738793
endloop
endfacet
facet normal -0.461901 0.199708 0.864155
outer loop
vertex -6.379292 21.452419 2.199465
vertex -5.370281 21.452419 2.738793
vertex -4.635375 43.608929 -1.988804
endloop
endfacet
facet normal -0.461900 0.199708 0.864156
outer loop
vertex -4.635375 43.608929 -1.988804
vertex -5.337710 43.608929 -2.364209
vertex -6.379292 21.452419 2.199465
endloop
endfacet
facet normal -0.623353 0.185753 0.759557
outer loop
vertex -7.263698 21.452419 1.473651
vertex -6.379292 21.452419 2.199465
vertex -5.337710 43.608929 -2.364209
endloop
endfacet
facet normal -0.623354 0.185753 0.759556
outer loop
vertex -5.337710 43.608929 -2.364209
vertex -5.953310 43.608929 -2.869421
vertex -7.263698 21.452419 1.473651
endloop
endfacet
facet normal -0.762069 0.167663 0.625412
outer loop
vertex -7.989511 21.452419 0.589244
vertex -7.263698 21.452419 1.473651
vertex -5.953310 43.608929 -2.869421
endloop
endfacet
facet normal -0.762068 0.167662 0.625413
outer loop
vertex -5.953310 43.608929 -2.869421
vertex -6.458522 43.608929 -3.485022
vertex -7.989511 21.452419 0.589244
endloop
endfacet
facet normal -0.872466 0.146040 0.466342
outer loop
vertex -8.528837 21.452419 -0.419768
vertex -7.989511 21.452419 0.589244
vertex -6.458522 43.608929 -3.485022
endloop
endfacet
facet normal -0.872467 0.146040 0.466341
outer loop
vertex -6.458522 43.608929 -3.485022
vertex -6.833927 43.608929 -4.187358
vertex -8.528837 21.452419 -0.419768
endloop
endfacet
facet normal -0.949833 0.121654 0.288128
outer loop
vertex -8.860953 21.452419 -1.514610
vertex -8.528837 21.452419 -0.419768
vertex -6.833927 43.608929 -4.187358
endloop
endfacet
facet normal -0.949833 0.121654 0.288127
outer loop
vertex -6.833927 43.608929 -4.187358
vertex -7.065099 43.608929 -4.949435
vertex -8.860953 21.452419 -1.514610
endloop
endfacet
facet normal -0.990644 0.095420 0.097569
outer loop
vertex -8.973094 21.452419 -2.653207
vertex -8.860953 21.452419 -1.514610
vertex -7.065099 43.608929 -4.949435
endloop
endfacet
facet normal -0.990644 0.095420 0.097570
outer loop
vertex -7.065099 43.608929 -4.949435
vertex -7.143157 43.608929 -5.741970
vertex -8.973094 21.452419 -2.653207
endloop
endfacet
facet normal -0.992856 0.068369 -0.097789
outer loop
vertex -8.860950 21.452419 -3.791804
vertex -8.973094 21.452419 -2.653207
vertex -7.143157 43.608929 -5.741970
endloop
endfacet
facet normal -0.992856 0.068369 -0.097789
outer loop
vertex -7.143157 43.608929 -5.741970
vertex -7.065097 43.608929 -6.534503
vertex -8.860950 21.452419 -3.791804
endloop
endfacet
facet normal -0.956112 0.041593 -0.290035
outer loop
vertex -8.528832 21.452419 -4.886645
vertex -8.860950 21.452419 -3.791804
vertex -7.065097 43.608929 -6.534503
endloop
endfacet
facet normal -0.956112 0.041593 -0.290034
outer loop
vertex -7.065097 43.608929 -6.534503
vertex -6.833923 43.608929 -7.296581
vertex -8.528832 21.452419 -4.886645
endloop
endfacet
facet normal -0.881806 0.016189 -0.471335
outer loop
vertex -7.989504 21.452419 -5.895657
vertex -8.528832 21.452419 -4.886645
vertex -6.833923 43.608929 -7.296581
endloop
endfacet
facet normal -0.881806 0.016189 -0.471334
outer loop
vertex -6.833923 43.608929 -7.296581
vertex -6.458518 43.608929 -7.998916
vertex -7.989504 21.452419 -5.895657
endloop
endfacet
facet normal -0.772991 -0.006807 -0.634381
outer loop
vertex -7.263690 21.452419 -6.780061
vertex -7.989504 21.452419 -5.895657
vertex -6.458518 43.608929 -7.998916
endloop
endfacet
facet normal -0.772990 -0.006807 -0.634381
outer loop
vertex -6.458518 43.608929 -7.998916
vertex -5.953305 43.608929 -8.614515
vertex -7.263690 21.452419 -6.780061
endloop
endfacet
facet normal -0.634171 -0.026473 -0.772740
outer loop
vertex -6.379283 21.452419 -7.505874
vertex -7.263690 21.452419 -6.780061
vertex -5.953305 43.608929 -8.614515
endloop
endfacet
facet normal -0.634170 -0.026473 -0.772740
outer loop
vertex -5.953305 43.608929 -8.614515
vertex -5.337703 43.608929 -9.119726
vertex -6.379283 21.452419 -7.505874
endloop
endfacet
facet normal -0.470979 -0.042040 -0.881142
outer loop
vertex -5.370270 21.452419 -8.045200
vertex -6.379283 21.452419 -7.505874
vertex -5.337703 43.608929 -9.119726
endloop
endfacet
facet normal -0.470979 -0.042041 -0.881142
outer loop
vertex -5.337703 43.608929 -9.119726
vertex -4.635368 43.608929 -9.495131
vertex -5.370270 21.452419 -8.045200
endloop
endfacet
facet normal -0.289875 -0.052920 -0.955600
outer loop
vertex -4.275428 21.452419 -8.377315
vertex -5.370270 21.452419 -8.045200
vertex -4.635368 43.608929 -9.495131
endloop
endfacet
facet normal -0.289880 -0.052920 -0.955599
outer loop
vertex -4.635368 43.608929 -9.495131
vertex -3.873291 43.608929 -9.726304
vertex -4.275428 21.452419 -8.377315
endloop
endfacet
endsolid Exported from Blender-2.74 (sub 0)
