solid Exported from Blender-2.74 (sub 0)
facet normal 0.098017 0.000000 -0.995185
outer loop
vertex 0.000000 -10.500004 -39.799999
vertex 0.000000 10.499992 -39.799999
vertex 7.764594 10.499992 -39.035252
endloop
endfacet
facet normal 0.098017 0.000000 -0.995185
outer loop
vertex 7.764594 10.499992 -39.035252
vertex 7.764594 -10.500004 -39.035252
vertex 0.000000 -10.500004 -39.799999
endloop
endfacet
facet normal 0.000000 -1.000000 0.000000
outer loop
vertex -39.799999 -10.500004 -0.000038
vertex -24.199997 -10.500004 -0.000023
vertex -23.735006 -10.500004 4.721165
endloop
endfacet
facet normal 0.000000 -1.000000 0.000000
outer loop
vertex 28.142847 -10.500004 -28.142847
vertex 33.092491 -10.500004 -22.111692
vertex 23.735001 -10.500004 4.721183
endloop
endfacet
facet normal 0.000000 -1.000000 -0.000000
outer loop
vertex -39.799999 -10.500004 -0.000038
vertex -23.735006 -10.500004 4.721165
vertex -22.357891 -10.500004 9.260920
endloop
endfacet
facet normal 0.000000 -1.000000 0.000000
outer loop
vertex 33.092491 -10.500004 -22.111692
vertex 22.357882 -10.500004 9.260935
vertex 23.735001 -10.500004 4.721183
endloop
endfacet
facet normal 0.000000 -1.000000 -0.000000
outer loop
vertex -39.799999 -10.500004 -0.000038
vertex -22.357891 -10.500004 9.260920
vertex -20.121574 -10.500004 13.444784
endloop
endfacet
facet normal 0.000000 -1.000000 0.000000
outer loop
vertex 33.092491 -10.500004 -22.111692
vertex 36.770405 -10.500004 -15.230800
vertex 22.357882 -10.500004 9.260935
endloop
endfacet
facet normal 0.000000 -1.000000 0.000000
outer loop
vertex -39.799999 -10.500004 -0.000038
vertex -20.121574 -10.500004 13.444784
vertex -17.111994 -10.500004 17.111973
endloop
endfacet
facet normal 0.000000 -1.000000 0.000000
outer loop
vertex 36.770405 -10.500004 -15.230800
vertex 20.121563 -10.500004 13.444797
vertex 22.357882 -10.500004 9.260935
endloop
endfacet
facet normal 0.000000 -1.000000 0.000003
outer loop
vertex -39.799999 -10.500004 -0.000038
vertex -17.111994 -10.500004 17.111973
vertex -13.444809 -10.500004 20.121559
endloop
endfacet
facet normal 0.000000 -1.000000 0.000000
outer loop
vertex 36.770405 -10.500004 -15.230800
vertex 39.035252 -10.500004 -7.764595
vertex 20.121563 -10.500004 13.444797
endloop
endfacet
facet normal 0.000000 -1.000000 -0.000000
outer loop
vertex -39.035259 -10.500004 7.764560
vertex -39.799999 -10.500004 -0.000038
vertex -13.444809 -10.500004 20.121559
endloop
endfacet
facet normal 0.000000 -1.000000 -0.000003
outer loop
vertex 39.035252 -10.500004 -7.764595
vertex 17.111982 -10.500004 17.111982
vertex 20.121563 -10.500004 13.444797
endloop
endfacet
facet normal 0.000000 -1.000000 0.000001
outer loop
vertex -39.035259 -10.500004 7.764560
vertex -13.444809 -10.500004 20.121559
vertex -9.260949 -10.500004 22.357876
endloop
endfacet
facet normal 0.000000 -1.000000 0.000000
outer loop
vertex 39.035252 -10.500004 -7.764595
vertex 39.799999 -10.500004 -0.000003
vertex 17.111982 -10.500004 17.111982
endloop
endfacet
facet normal 0.000000 -1.000000 0.000000
outer loop
vertex -36.770420 -10.500004 15.230769
vertex -39.035259 -10.500004 7.764560
vertex -9.260949 -10.500004 22.357876
endloop
endfacet
facet normal 0.000000 -1.000000 0.000007
outer loop
vertex 39.799999 -10.500004 -0.000003
vertex 13.444797 -10.500004 20.121563
vertex 17.111982 -10.500004 17.111982
endloop
endfacet
facet normal 0.000000 -1.000000 -0.000004
outer loop
vertex -36.770420 -10.500004 15.230769
vertex -9.260949 -10.500004 22.357876
vertex -4.721195 -10.500004 23.735001
endloop
endfacet
facet normal 0.000000 -1.000000 0.000000
outer loop
vertex 39.799999 -10.500004 -0.000003
vertex 39.035252 -10.500004 7.764589
vertex 13.444797 -10.500004 20.121563
endloop
endfacet
facet normal 0.000000 -1.000000 0.000000
outer loop
vertex -33.092506 -10.500004 22.111673
vertex -36.770420 -10.500004 15.230769
vertex -4.721195 -10.500004 23.735001
endloop
endfacet
facet normal 0.000000 -1.000000 -0.000003
outer loop
vertex 39.035252 -10.500004 7.764589
vertex 9.260935 -10.500004 22.357885
vertex 13.444797 -10.500004 20.121563
endloop
endfacet
facet normal 0.000000 -1.000000 -0.000011
outer loop
vertex -33.092506 -10.500004 22.111673
vertex -4.721195 -10.500004 23.735001
vertex -0.000008 -10.500004 24.199997
endloop
endfacet
facet normal 0.000000 -1.000000 -0.000000
outer loop
vertex 39.035252 -10.500004 7.764589
vertex 36.770405 -10.500004 15.230793
vertex 9.260935 -10.500004 22.357885
endloop
endfacet
facet normal 0.000000 -1.000000 0.000000
outer loop
vertex -28.142866 -10.500004 28.142830
vertex -33.092506 -10.500004 22.111673
vertex -0.000008 -10.500004 24.199997
endloop
endfacet
facet normal 0.000000 -1.000000 -0.000003
outer loop
vertex 36.770405 -10.500004 15.230793
vertex 4.721180 -10.500004 23.735001
vertex 9.260935 -10.500004 22.357885
endloop
endfacet
facet normal 0.000000 -1.000000 0.000006
outer loop
vertex -28.142866 -10.500004 28.142830
vertex -0.000008 -10.500004 24.199997
vertex 4.721180 -10.500004 23.735001
endloop
endfacet
facet normal 0.000000 -1.000000 0.000000
outer loop
vertex -15.230817 -10.500004 36.770397
vertex -22.111713 -10.500004 33.092480
vertex -28.142866 -10.500004 28.142830
endloop
endfacet
facet normal 0.000000 -1.000000 -0.000001
outer loop
vertex -0.000013 -10.500004 39.799999
vertex -7.764610 -10.500004 39.035244
vertex -15.230817 -10.500004 36.770397
endloop
endfacet
facet normal 0.000000 -1.000000 0.000000
outer loop
vertex 15.230793 -10.500004 36.770409
vertex 7.764585 -10.500004 39.035252
vertex -0.000013 -10.500004 39.799999
endloop
endfacet
facet normal 0.000000 -1.000000 -0.000001
outer loop
vertex 28.142847 -10.500004 28.142847
vertex 22.111692 -10.500004 33.092491
vertex 15.230793 -10.500004 36.770409
endloop
endfacet
facet normal 0.000000 -1.000000 -0.000001
outer loop
vertex 36.770405 -10.500004 15.230793
vertex 33.092491 -10.500004 22.111692
vertex 28.142847 -10.500004 28.142847
endloop
endfacet
facet normal 0.000000 -1.000000 0.000000
outer loop
vertex -15.230817 -10.500004 36.770397
vertex -28.142866 -10.500004 28.142830
vertex 4.721180 -10.500004 23.735001
endloop
endfacet
facet normal 0.000000 -1.000000 0.000000
outer loop
vertex 36.770405 -10.500004 15.230793
vertex 28.142847 -10.500004 28.142847
vertex 4.721180 -10.500004 23.735001
endloop
endfacet
facet normal 0.000000 -1.000000 0.000000
outer loop
vertex 28.142847 -10.500004 28.142847
vertex 15.230793 -10.500004 36.770409
vertex -0.000013 -10.500004 39.799999
endloop
endfacet
facet normal 0.000000 -1.000000 0.000000
outer loop
vertex -0.000013 -10.500004 39.799999
vertex -15.230817 -10.500004 36.770397
vertex 4.721180 -10.500004 23.735001
endloop
endfacet
facet normal 0.000000 -1.000000 -0.000000
outer loop
vertex 28.142847 -10.500004 28.142847
vertex -0.000013 -10.500004 39.799999
vertex 4.721180 -10.500004 23.735001
endloop
endfacet
facet normal 0.000000 -1.000000 0.000000
outer loop
vertex 0.000000 -10.500004 -39.799999
vertex -15.230746 -10.500004 -36.770428
vertex -7.764535 -10.500004 -39.035263
endloop
endfacet
facet normal 0.000000 -1.000000 0.000000
outer loop
vertex -28.142813 -10.500004 -28.142883
vertex -22.111652 -10.500004 -33.092522
vertex -15.230746 -10.500004 -36.770428
endloop
endfacet
facet normal 0.000000 -1.000000 0.000001
outer loop
vertex -36.770386 -10.500004 -15.230841
vertex -33.092464 -10.500004 -22.111736
vertex -28.142813 -10.500004 -28.142883
endloop
endfacet
facet normal 0.000000 -1.000000 0.000000
outer loop
vertex -39.799999 -10.500004 -0.000038
vertex -39.035240 -10.500004 -7.764636
vertex -36.770386 -10.500004 -15.230841
endloop
endfacet
facet normal 0.000000 -1.000000 0.000000
outer loop
vertex -23.734995 -10.500004 -4.721210
vertex -24.199997 -10.500004 -0.000023
vertex -39.799999 -10.500004 -0.000038
endloop
endfacet
facet normal 0.000000 -1.000000 -0.000001
outer loop
vertex 28.142847 -10.500004 -28.142847
vertex 23.735001 -10.500004 4.721183
vertex 24.199997 -10.500004 -0.000002
endloop
endfacet
facet normal 0.000000 -1.000000 0.000000
outer loop
vertex -22.357870 -10.500004 -9.260962
vertex -23.734995 -10.500004 -4.721210
vertex -39.799999 -10.500004 -0.000038
endloop
endfacet
facet normal 0.000000 -1.000000 0.000000
outer loop
vertex 28.142847 -10.500004 -28.142847
vertex 24.199997 -10.500004 -0.000002
vertex 23.735001 -10.500004 -4.721186
endloop
endfacet
facet normal 0.000000 -1.000000 -0.000001
outer loop
vertex -20.121548 -10.500004 -13.444823
vertex -22.357870 -10.500004 -9.260962
vertex -39.799999 -10.500004 -0.000038
endloop
endfacet
facet normal 0.000000 -1.000000 -0.000000
outer loop
vertex 28.142847 -10.500004 -28.142847
vertex 23.735001 -10.500004 -4.721186
vertex 22.357882 -10.500004 -9.260939
endloop
endfacet
facet normal 0.000000 -1.000000 0.000001
outer loop
vertex -17.111961 -10.500004 -17.112003
vertex -20.121548 -10.500004 -13.444823
vertex -39.799999 -10.500004 -0.000038
endloop
endfacet
facet normal 0.000000 -1.000000 -0.000000
outer loop
vertex 28.142847 -10.500004 -28.142847
vertex 22.357882 -10.500004 -9.260939
vertex 20.121563 -10.500004 -13.444797
endloop
endfacet
facet normal 0.000000 -1.000000 0.000006
outer loop
vertex -13.444772 -10.500004 -20.121582
vertex -17.111961 -10.500004 -17.112003
vertex -39.799999 -10.500004 -0.000038
endloop
endfacet
facet normal 0.000000 -1.000000 0.000000
outer loop
vertex 28.142847 -10.500004 -28.142847
vertex 20.121563 -10.500004 -13.444797
vertex 17.111982 -10.500004 -17.111982
endloop
endfacet
facet normal 0.000000 -1.000000 -0.000000
outer loop
vertex -13.444772 -10.500004 -20.121582
vertex -39.799999 -10.500004 -0.000038
vertex -36.770386 -10.500004 -15.230841
endloop
endfacet
facet normal 0.000000 -1.000000 -0.000000
outer loop
vertex 28.142847 -10.500004 -28.142847
vertex 17.111982 -10.500004 -17.111982
vertex 13.444798 -10.500004 -20.121563
endloop
endfacet
facet normal 0.000000 -1.000000 -0.000002
outer loop
vertex -9.260905 -10.500004 -22.357897
vertex -13.444772 -10.500004 -20.121582
vertex -36.770386 -10.500004 -15.230841
endloop
endfacet
facet normal 0.000000 -1.000000 0.000000
outer loop
vertex 28.142847 -10.500004 -28.142847
vertex 13.444798 -10.500004 -20.121563
vertex 9.260939 -10.500004 -22.357882
endloop
endfacet
facet normal 0.000000 -1.000000 0.000000
outer loop
vertex -4.721149 -10.500004 -23.735008
vertex -9.260905 -10.500004 -22.357897
vertex -36.770386 -10.500004 -15.230841
endloop
endfacet
facet normal 0.000000 -1.000000 -0.000000
outer loop
vertex 28.142847 -10.500004 -28.142847
vertex 9.260939 -10.500004 -22.357882
vertex 4.721186 -10.500004 -23.735001
endloop
endfacet
facet normal 0.000000 -1.000000 0.000000
outer loop
vertex -4.721149 -10.500004 -23.735008
vertex -36.770386 -10.500004 -15.230841
vertex -28.142813 -10.500004 -28.142883
endloop
endfacet
facet normal 0.000000 -1.000000 -0.000000
outer loop
vertex 28.142847 -10.500004 -28.142847
vertex 4.721186 -10.500004 -23.735001
vertex 0.000000 -10.500004 -24.199997
endloop
endfacet
facet normal 0.000000 -1.000000 0.000000
outer loop
vertex 0.000000 -10.500004 -24.199997
vertex -4.721149 -10.500004 -23.735008
vertex -28.142813 -10.500004 -28.142883
endloop
endfacet
facet normal 0.000000 -1.000000 0.000000
outer loop
vertex 0.000000 -10.500004 -39.799999
vertex -28.142813 -10.500004 -28.142883
vertex -15.230746 -10.500004 -36.770428
endloop
endfacet
facet normal 0.000000 -1.000000 0.000000
outer loop
vertex 0.000000 -10.500004 -39.799999
vertex 7.764594 -10.500004 -39.035252
vertex 15.230802 -10.500004 -36.770405
endloop
endfacet
facet normal 0.000000 -1.000000 0.000000
outer loop
vertex 15.230802 -10.500004 -36.770405
vertex 22.111694 -10.500004 -33.092491
vertex 28.142847 -10.500004 -28.142847
endloop
endfacet
facet normal 0.000000 -1.000000 0.000000
outer loop
vertex 28.142847 -10.500004 -28.142847
vertex 0.000000 -10.500004 -24.199997
vertex -28.142813 -10.500004 -28.142883
endloop
endfacet
facet normal 0.000000 -1.000000 -0.000000
outer loop
vertex 0.000000 -10.500004 -39.799999
vertex 15.230802 -10.500004 -36.770405
vertex -28.142813 -10.500004 -28.142883
endloop
endfacet
facet normal 0.000000 -1.000000 0.000000
outer loop
vertex 15.230802 -10.500004 -36.770405
vertex 28.142847 -10.500004 -28.142847
vertex -28.142813 -10.500004 -28.142883
endloop
endfacet
facet normal -0.098016 0.000000 -0.995185
outer loop
vertex 0.000000 10.499992 -39.799999
vertex 0.000000 -10.500004 -39.799999
vertex -7.764535 -10.500004 -39.035263
endloop
endfacet
facet normal -0.098017 0.000000 -0.995185
outer loop
vertex -7.764535 -10.500004 -39.035263
vertex -7.764535 10.499992 -39.035263
vertex 0.000000 10.499992 -39.799999
endloop
endfacet
facet normal 0.000000 1.000000 0.000000
outer loop
vertex 7.764594 10.499992 -39.035252
vertex 22.111694 10.499992 -33.092491
vertex 15.230802 10.499992 -36.770405
endloop
endfacet
facet normal 0.000000 1.000000 -0.000001
outer loop
vertex 33.092491 10.499992 -22.111692
vertex 28.142847 10.499992 -28.142847
vertex 22.111694 10.499992 -33.092491
endloop
endfacet
facet normal 0.000000 1.000000 0.000000
outer loop
vertex 39.035252 10.499992 -7.764595
vertex 36.770405 10.499992 -15.230800
vertex 33.092491 10.499992 -22.111692
endloop
endfacet
facet normal 0.000000 1.000000 0.000000
outer loop
vertex 39.035252 10.499992 7.764589
vertex 39.799999 10.499992 -0.000003
vertex 39.035252 10.499992 -7.764595
endloop
endfacet
facet normal 0.000000 1.000000 0.000000
outer loop
vertex 33.092491 10.499992 22.111692
vertex 36.770405 10.499992 15.230793
vertex 39.035252 10.499992 7.764589
endloop
endfacet
facet normal 0.000000 1.000000 0.000000
outer loop
vertex 22.111692 10.499992 33.092491
vertex 28.142847 10.499992 28.142847
vertex 33.092491 10.499992 22.111692
endloop
endfacet
facet normal 0.000000 1.000000 -0.000001
outer loop
vertex 7.764585 10.499992 39.035252
vertex 15.230793 10.499992 36.770409
vertex 22.111692 10.499992 33.092491
endloop
endfacet
facet normal 0.000000 1.000000 0.000000
outer loop
vertex -7.764610 10.499992 39.035244
vertex -0.000013 10.499992 39.799999
vertex 7.764585 10.499992 39.035252
endloop
endfacet
facet normal 0.000000 1.000000 0.000000
outer loop
vertex -22.111713 10.499992 33.092480
vertex -15.230817 10.499992 36.770397
vertex -7.764610 10.499992 39.035244
endloop
endfacet
facet normal 0.000000 1.000000 0.000000
outer loop
vertex -33.092506 10.499992 22.111673
vertex -28.142866 10.499992 28.142830
vertex -22.111713 10.499992 33.092480
endloop
endfacet
facet normal 0.000000 1.000000 0.000000
outer loop
vertex -39.035259 10.499992 7.764560
vertex -36.770420 10.499992 15.230769
vertex -33.092506 10.499992 22.111673
endloop
endfacet
facet normal 0.000000 1.000000 0.000000
outer loop
vertex -39.035240 10.499992 -7.764636
vertex -39.799999 10.499992 -0.000038
vertex -39.035259 10.499992 7.764560
endloop
endfacet
facet normal 0.000000 1.000000 -0.000000
outer loop
vertex -33.092464 10.499992 -22.111736
vertex -36.770386 10.499992 -15.230841
vertex -39.035240 10.499992 -7.764636
endloop
endfacet
facet normal 0.000000 1.000000 -0.000001
outer loop
vertex -22.111652 10.499992 -33.092522
vertex -28.142813 10.499992 -28.142883
vertex -33.092464 10.499992 -22.111736
endloop
endfacet
facet normal 0.000000 1.000000 0.000000
outer loop
vertex -7.764535 10.499992 -39.035263
vertex -15.230746 10.499992 -36.770428
vertex -22.111652 10.499992 -33.092522
endloop
endfacet
facet normal 0.000000 1.000000 -0.000001
outer loop
vertex 7.764594 10.499992 -39.035252
vertex 0.000000 10.499992 -39.799999
vertex -7.764535 10.499992 -39.035263
endloop
endfacet
facet normal 0.000000 1.000000 0.000000
outer loop
vertex 7.764594 10.499992 -39.035252
vertex 33.092491 10.499992 -22.111692
vertex 22.111694 10.499992 -33.092491
endloop
endfacet
facet normal 0.000000 1.000000 0.000000
outer loop
vertex 39.035252 10.499992 7.764589
vertex 39.035252 10.499992 -7.764595
vertex 33.092491 10.499992 -22.111692
endloop
endfacet
facet normal 0.000000 1.000000 -0.000000
outer loop
vertex 22.111692 10.499992 33.092491
vertex 33.092491 10.499992 22.111692
vertex 39.035252 10.499992 7.764589
endloop
endfacet
facet normal 0.000000 1.000000 0.000000
outer loop
vertex -7.764610 10.499992 39.035244
vertex 7.764585 10.499992 39.035252
vertex 22.111692 10.499992 33.092491
endloop
endfacet
facet normal 0.000000 1.000000 0.000000
outer loop
vertex -33.092506 10.499992 22.111673
vertex -22.111713 10.499992 33.092480
vertex -7.764610 10.499992 39.035244
endloop
endfacet
facet normal 0.000000 1.000000 -0.000000
outer loop
vertex -39.035240 10.499992 -7.764636
vertex -39.035259 10.499992 7.764560
vertex -33.092506 10.499992 22.111673
endloop
endfacet
facet normal 0.000000 1.000000 0.000000
outer loop
vertex -22.111652 10.499992 -33.092522
vertex -33.092464 10.499992 -22.111736
vertex -39.035240 10.499992 -7.764636
endloop
endfacet
facet normal 0.000000 1.000000 -0.000000
outer loop
vertex 7.764594 10.499992 -39.035252
vertex -7.764535 10.499992 -39.035263
vertex -22.111652 10.499992 -33.092522
endloop
endfacet
facet normal 0.000000 1.000000 0.000000
outer loop
vertex 7.764594 10.499992 -39.035252
vertex 39.035252 10.499992 7.764589
vertex 33.092491 10.499992 -22.111692
endloop
endfacet
facet normal 0.000000 1.000000 0.000000
outer loop
vertex -7.764610 10.499992 39.035244
vertex 22.111692 10.499992 33.092491
vertex 39.035252 10.499992 7.764589
endloop
endfacet
facet normal 0.000000 1.000000 0.000000
outer loop
vertex -39.035240 10.499992 -7.764636
vertex -33.092506 10.499992 22.111673
vertex -7.764610 10.499992 39.035244
endloop
endfacet
facet normal 0.000000 1.000000 0.000000
outer loop
vertex 7.764594 10.499992 -39.035252
vertex -22.111652 10.499992 -33.092522
vertex -39.035240 10.499992 -7.764636
endloop
endfacet
facet normal 0.000000 1.000000 0.000000
outer loop
vertex 7.764594 10.499992 -39.035252
vertex -7.764610 10.499992 39.035244
vertex 39.035252 10.499992 7.764589
endloop
endfacet
facet normal 0.000000 1.000000 0.000000
outer loop
vertex 7.764594 10.499992 -39.035252
vertex -39.035240 10.499992 -7.764636
vertex -7.764610 10.499992 39.035244
endloop
endfacet
facet normal 0.290284 0.000000 -0.956940
outer loop
vertex 7.764594 -10.500004 -39.035252
vertex 7.764594 10.499992 -39.035252
vertex 15.230802 10.499992 -36.770405
endloop
endfacet
facet normal 0.290284 0.000000 -0.956940
outer loop
vertex 15.230802 10.499992 -36.770405
vertex 15.230802 -10.500004 -36.770405
vertex 7.764594 -10.500004 -39.035252
endloop
endfacet
facet normal 0.471396 0.000000 -0.881922
outer loop
vertex 15.230802 -10.500004 -36.770405
vertex 15.230802 10.499992 -36.770405
vertex 22.111694 10.499992 -33.092491
endloop
endfacet
facet normal 0.471397 0.000000 -0.881921
outer loop
vertex 22.111694 10.499992 -33.092491
vertex 22.111694 -10.500004 -33.092491
vertex 15.230802 -10.500004 -36.770405
endloop
endfacet
facet normal 0.634394 0.000000 -0.773010
outer loop
vertex 22.111694 -10.500004 -33.092491
vertex 22.111694 10.499992 -33.092491
vertex 28.142847 10.499992 -28.142847
endloop
endfacet
facet normal 0.634393 0.000000 -0.773011
outer loop
vertex 28.142847 10.499992 -28.142847
vertex 28.142847 -10.500004 -28.142847
vertex 22.111694 -10.500004 -33.092491
endloop
endfacet
facet normal 0.773010 0.000000 -0.634393
outer loop
vertex 28.142847 -10.500004 -28.142847
vertex 28.142847 10.499992 -28.142847
vertex 33.092491 10.499992 -22.111692
endloop
endfacet
facet normal 0.773010 0.000000 -0.634394
outer loop
vertex 33.092491 10.499992 -22.111692
vertex 33.092491 -10.500004 -22.111692
vertex 28.142847 -10.500004 -28.142847
endloop
endfacet
facet normal 0.881921 0.000000 -0.471397
outer loop
vertex 33.092491 -10.500004 -22.111692
vertex 33.092491 10.499992 -22.111692
vertex 36.770405 10.499992 -15.230800
endloop
endfacet
facet normal 0.881921 0.000000 -0.471397
outer loop
vertex 36.770405 10.499992 -15.230800
vertex 36.770405 -10.500004 -15.230800
vertex 33.092491 -10.500004 -22.111692
endloop
endfacet
facet normal 0.956940 0.000000 -0.290285
outer loop
vertex 36.770405 -10.500004 -15.230800
vertex 36.770405 10.499992 -15.230800
vertex 39.035252 10.499992 -7.764595
endloop
endfacet
facet normal 0.956940 0.000000 -0.290284
outer loop
vertex 39.035252 10.499992 -7.764595
vertex 39.035252 -10.500004 -7.764595
vertex 36.770405 -10.500004 -15.230800
endloop
endfacet
facet normal 0.995185 0.000000 -0.098017
outer loop
vertex 39.035252 -10.500004 -7.764595
vertex 39.035252 10.499992 -7.764595
vertex 39.799999 10.499992 -0.000003
endloop
endfacet
facet normal 0.995185 0.000000 -0.098017
outer loop
vertex 39.799999 10.499992 -0.000003
vertex 39.799999 -10.500004 -0.000003
vertex 39.035252 -10.500004 -7.764595
endloop
endfacet
facet normal 0.995185 0.000000 0.098017
outer loop
vertex 39.799999 -10.500004 -0.000003
vertex 39.799999 10.499992 -0.000003
vertex 39.035252 10.499992 7.764589
endloop
endfacet
facet normal 0.995185 0.000000 0.098017
outer loop
vertex 39.035252 10.499992 7.764589
vertex 39.035252 -10.500004 7.764589
vertex 39.799999 -10.500004 -0.000003
endloop
endfacet
facet normal 0.956940 0.000000 0.290285
outer loop
vertex 39.035252 -10.500004 7.764589
vertex 39.035252 10.499992 7.764589
vertex 36.770405 10.499992 15.230793
endloop
endfacet
facet normal 0.956940 0.000000 0.290285
outer loop
vertex 36.770405 10.499992 15.230793
vertex 36.770405 -10.500004 15.230793
vertex 39.035252 -10.500004 7.764589
endloop
endfacet
facet normal 0.881921 0.000000 0.471396
outer loop
vertex 36.770405 -10.500004 15.230793
vertex 36.770405 10.499992 15.230793
vertex 33.092491 10.499992 22.111692
endloop
endfacet
facet normal 0.881921 0.000000 0.471396
outer loop
vertex 33.092491 10.499992 22.111692
vertex 33.092491 -10.500004 22.111692
vertex 36.770405 -10.500004 15.230793
endloop
endfacet
facet normal 0.773010 0.000000 0.634394
outer loop
vertex 33.092491 -10.500004 22.111692
vertex 33.092491 10.499992 22.111692
vertex 28.142847 10.499992 28.142847
endloop
endfacet
facet normal 0.773010 0.000000 0.634393
outer loop
vertex 28.142847 10.499992 28.142847
vertex 28.142847 -10.500004 28.142847
vertex 33.092491 -10.500004 22.111692
endloop
endfacet
facet normal 0.634393 0.000000 0.773011
outer loop
vertex 28.142847 -10.500004 28.142847
vertex 28.142847 10.499992 28.142847
vertex 22.111692 10.499992 33.092491
endloop
endfacet
facet normal 0.634394 0.000000 0.773010
outer loop
vertex 22.111692 10.499992 33.092491
vertex 22.111692 -10.500004 33.092491
vertex 28.142847 -10.500004 28.142847
endloop
endfacet
facet normal 0.471397 0.000000 0.881921
outer loop
vertex 22.111692 -10.500004 33.092491
vertex 22.111692 10.499992 33.092491
vertex 15.230793 10.499992 36.770409
endloop
endfacet
facet normal 0.471397 0.000000 0.881921
outer loop
vertex 15.230793 10.499992 36.770409
vertex 15.230793 -10.500004 36.770409
vertex 22.111692 -10.500004 33.092491
endloop
endfacet
facet normal 0.290284 0.000000 0.956940
outer loop
vertex 15.230793 -10.500004 36.770409
vertex 15.230793 10.499992 36.770409
vertex 7.764585 10.499992 39.035252
endloop
endfacet
facet normal 0.290283 0.000000 0.956941
outer loop
vertex 7.764585 10.499992 39.035252
vertex 7.764585 -10.500004 39.035252
vertex 15.230793 -10.500004 36.770409
endloop
endfacet
facet normal 0.098017 0.000000 0.995185
outer loop
vertex 7.764585 -10.500004 39.035252
vertex 7.764585 10.499992 39.035252
vertex -0.000013 10.499992 39.799999
endloop
endfacet
facet normal 0.098017 0.000000 0.995185
outer loop
vertex -0.000013 10.499992 39.799999
vertex -0.000013 -10.500004 39.799999
vertex 7.764585 -10.500004 39.035252
endloop
endfacet
facet normal -0.098018 0.000000 0.995185
outer loop
vertex -0.000013 -10.500004 39.799999
vertex -0.000013 10.499992 39.799999
vertex -7.764610 10.499992 39.035244
endloop
endfacet
facet normal -0.098018 0.000000 0.995185
outer loop
vertex -7.764610 10.499992 39.035244
vertex -7.764610 -10.500004 39.035244
vertex -0.000013 -10.500004 39.799999
endloop
endfacet
facet normal -0.290284 0.000000 0.956940
outer loop
vertex -7.764610 -10.500004 39.035244
vertex -7.764610 10.499992 39.035244
vertex -15.230817 10.499992 36.770397
endloop
endfacet
facet normal -0.290284 0.000000 0.956940
outer loop
vertex -15.230817 10.499992 36.770397
vertex -15.230817 -10.500004 36.770397
vertex -7.764610 -10.500004 39.035244
endloop
endfacet
facet normal -0.471397 0.000000 0.881921
outer loop
vertex -15.230817 -10.500004 36.770397
vertex -15.230817 10.499992 36.770397
vertex -22.111713 10.499992 33.092480
endloop
endfacet
facet normal -0.471397 0.000000 0.881921
outer loop
vertex -22.111713 10.499992 33.092480
vertex -22.111713 -10.500004 33.092480
vertex -15.230817 -10.500004 36.770397
endloop
endfacet
facet normal -0.634394 0.000000 0.773010
outer loop
vertex -22.111713 -10.500004 33.092480
vertex -22.111713 10.499992 33.092480
vertex -28.142866 10.499992 28.142830
endloop
endfacet
facet normal -0.634394 0.000000 0.773010
outer loop
vertex -28.142866 10.499992 28.142830
vertex -28.142866 -10.500004 28.142830
vertex -22.111713 -10.500004 33.092480
endloop
endfacet
facet normal -0.773011 0.000000 0.634393
outer loop
vertex -28.142866 -10.500004 28.142830
vertex -28.142866 10.499992 28.142830
vertex -33.092506 10.499992 22.111673
endloop
endfacet
facet normal -0.773010 0.000000 0.634393
outer loop
vertex -33.092506 10.499992 22.111673
vertex -33.092506 -10.500004 22.111673
vertex -28.142866 -10.500004 28.142830
endloop
endfacet
facet normal -0.881922 0.000000 0.471396
outer loop
vertex -33.092506 -10.500004 22.111673
vertex -33.092506 10.499992 22.111673
vertex -36.770420 10.499992 15.230769
endloop
endfacet
facet normal -0.881921 0.000000 0.471396
outer loop
vertex -36.770420 10.499992 15.230769
vertex -36.770420 -10.500004 15.230769
vertex -33.092506 -10.500004 22.111673
endloop
endfacet
facet normal -0.956941 0.000000 0.290283
outer loop
vertex -36.770420 -10.500004 15.230769
vertex -36.770420 10.499992 15.230769
vertex -39.035259 10.499992 7.764560
endloop
endfacet
facet normal -0.956941 0.000000 0.290283
outer loop
vertex -39.035259 10.499992 7.764560
vertex -39.035259 -10.500004 7.764560
vertex -36.770420 -10.500004 15.230769
endloop
endfacet
facet normal -0.995185 0.000000 0.098016
outer loop
vertex -39.035259 -10.500004 7.764560
vertex -39.035259 10.499992 7.764560
vertex -39.799999 10.499992 -0.000038
endloop
endfacet
facet normal -0.995185 0.000000 0.098016
outer loop
vertex -39.799999 10.499992 -0.000038
vertex -39.799999 -10.500004 -0.000038
vertex -39.035259 -10.500004 7.764560
endloop
endfacet
facet normal -0.995185 0.000000 -0.098019
outer loop
vertex -39.799999 -10.500004 -0.000038
vertex -39.799999 10.499992 -0.000038
vertex -39.035240 10.499992 -7.764636
endloop
endfacet
facet normal -0.995185 0.000000 -0.098019
outer loop
vertex -39.035240 10.499992 -7.764636
vertex -39.035240 -10.500004 -7.764636
vertex -39.799999 -10.500004 -0.000038
endloop
endfacet
facet normal -0.956940 0.000000 -0.290285
outer loop
vertex -39.035240 -10.500004 -7.764636
vertex -39.035240 10.499992 -7.764636
vertex -36.770386 10.499992 -15.230841
endloop
endfacet
facet normal -0.956940 0.000000 -0.290285
outer loop
vertex -36.770386 10.499992 -15.230841
vertex -36.770386 -10.500004 -15.230841
vertex -39.035240 -10.500004 -7.764636
endloop
endfacet
facet normal -0.881921 0.000000 -0.471398
outer loop
vertex -36.770386 -10.500004 -15.230841
vertex -36.770386 10.499992 -15.230841
vertex -33.092464 10.499992 -22.111736
endloop
endfacet
facet normal -0.881921 0.000000 -0.471397
outer loop
vertex -33.092464 10.499992 -22.111736
vertex -33.092464 -10.500004 -22.111736
vertex -36.770386 -10.500004 -15.230841
endloop
endfacet
facet normal -0.773009 0.000000 -0.634395
outer loop
vertex -33.092464 -10.500004 -22.111736
vertex -33.092464 10.499992 -22.111736
vertex -28.142813 10.499992 -28.142883
endloop
endfacet
facet normal -0.773009 0.000000 -0.634395
outer loop
vertex -28.142813 10.499992 -28.142883
vertex -28.142813 -10.500004 -28.142883
vertex -33.092464 -10.500004 -22.111736
endloop
endfacet
facet normal -0.634393 0.000000 -0.773011
outer loop
vertex -28.142813 -10.500004 -28.142883
vertex -28.142813 10.499992 -28.142883
vertex -22.111652 10.499992 -33.092522
endloop
endfacet
facet normal -0.634393 0.000000 -0.773011
outer loop
vertex -22.111652 10.499992 -33.092522
vertex -22.111652 -10.500004 -33.092522
vertex -28.142813 -10.500004 -28.142883
endloop
endfacet
facet normal -0.471395 0.000000 -0.881922
outer loop
vertex -22.111652 -10.500004 -33.092522
vertex -22.111652 10.499992 -33.092522
vertex -15.230746 10.499992 -36.770428
endloop
endfacet
facet normal -0.471396 0.000000 -0.881922
outer loop
vertex -15.230746 10.499992 -36.770428
vertex -15.230746 -10.500004 -36.770428
vertex -22.111652 -10.500004 -33.092522
endloop
endfacet
facet normal -0.290284 0.000000 -0.956941
outer loop
vertex -15.230746 -10.500004 -36.770428
vertex -15.230746 10.499992 -36.770428
vertex -7.764535 10.499992 -39.035263
endloop
endfacet
facet normal -0.290282 0.000000 -0.956941
outer loop
vertex -7.764535 10.499992 -39.035263
vertex -7.764535 -10.500004 -39.035263
vertex -15.230746 -10.500004 -36.770428
endloop
endfacet
facet normal -0.098017 0.000000 0.995185
outer loop
vertex 0.000000 -10.500004 -24.199997
vertex 4.721186 -10.500004 -23.735001
vertex 4.721186 7.899998 -23.735001
endloop
endfacet
facet normal -0.098017 0.000000 0.995185
outer loop
vertex 4.721186 7.899998 -23.735001
vertex 0.000000 7.899998 -24.199997
vertex 0.000000 -10.500004 -24.199997
endloop
endfacet
facet normal 0.098016 0.000000 0.995185
outer loop
vertex -4.721149 -10.500004 -23.735008
vertex 0.000000 -10.500004 -24.199997
vertex 0.000000 7.899998 -24.199997
endloop
endfacet
facet normal 0.098016 0.000000 0.995185
outer loop
vertex 0.000000 7.899998 -24.199997
vertex -4.721149 7.899998 -23.735008
vertex -4.721149 -10.500004 -23.735008
endloop
endfacet
facet normal 0.000000 -1.000000 0.000003
outer loop
vertex 4.721186 7.899998 -23.735001
vertex -4.721149 7.899998 -23.735008
vertex 0.000000 7.899998 -24.199997
endloop
endfacet
facet normal 0.000000 -1.000000 0.000002
outer loop
vertex -13.444772 7.899998 -20.121582
vertex -9.260905 7.899998 -22.357897
vertex -4.721149 7.899998 -23.735008
endloop
endfacet
facet normal 0.000000 -1.000000 0.000000
outer loop
vertex -20.121548 7.899998 -13.444823
vertex -17.111961 7.899998 -17.112003
vertex -13.444772 7.899998 -20.121582
endloop
endfacet
facet normal 0.000000 -1.000000 0.000000
outer loop
vertex -23.734995 7.899998 -4.721210
vertex -22.357870 7.899998 -9.260962
vertex -20.121548 7.899998 -13.444823
endloop
endfacet
facet normal 0.000000 -1.000000 -0.000000
outer loop
vertex -23.735006 7.899998 4.721165
vertex -24.199997 7.899998 -0.000023
vertex -23.734995 7.899998 -4.721210
endloop
endfacet
facet normal 0.000000 -1.000000 0.000000
outer loop
vertex -20.121574 7.899998 13.444784
vertex -22.357891 7.899998 9.260920
vertex -23.735006 7.899998 4.721165
endloop
endfacet
facet normal 0.000000 -1.000000 -0.000001
outer loop
vertex -13.444809 7.899998 20.121559
vertex -17.111994 7.899998 17.111973
vertex -20.121574 7.899998 13.444784
endloop
endfacet
facet normal 0.000000 -1.000000 0.000002
outer loop
vertex -4.721195 7.899998 23.735001
vertex -9.260949 7.899998 22.357876
vertex -13.444809 7.899998 20.121559
endloop
endfacet
facet normal 0.000000 -1.000000 -0.000002
outer loop
vertex 4.721180 7.899998 23.735001
vertex -0.000008 7.899998 24.199997
vertex -4.721195 7.899998 23.735001
endloop
endfacet
facet normal 0.000000 -1.000000 0.000000
outer loop
vertex 13.444797 7.899998 20.121563
vertex 9.260935 7.899998 22.357885
vertex 4.721180 7.899998 23.735001
endloop
endfacet
facet normal 0.000000 -1.000000 -0.000001
outer loop
vertex 20.121563 7.899998 13.444797
vertex 17.111982 7.899998 17.111982
vertex 13.444797 7.899998 20.121563
endloop
endfacet
facet normal 0.000000 -1.000000 0.000000
outer loop
vertex 23.735001 7.899998 4.721183
vertex 22.357882 7.899998 9.260935
vertex 20.121563 7.899998 13.444797
endloop
endfacet
facet normal 0.000000 -1.000000 0.000000
outer loop
vertex 23.735001 7.899998 -4.721186
vertex 24.199997 7.899998 -0.000002
vertex 23.735001 7.899998 4.721183
endloop
endfacet
facet normal 0.000000 -1.000000 -0.000000
outer loop
vertex 20.121563 7.899998 -13.444797
vertex 22.357882 7.899998 -9.260939
vertex 23.735001 7.899998 -4.721186
endloop
endfacet
facet normal 0.000000 -1.000000 0.000000
outer loop
vertex 13.444798 7.899998 -20.121563
vertex 17.111982 7.899998 -17.111982
vertex 20.121563 7.899998 -13.444797
endloop
endfacet
facet normal 0.000000 -1.000000 0.000000
outer loop
vertex 4.721186 7.899998 -23.735001
vertex 9.260939 7.899998 -22.357882
vertex 13.444798 7.899998 -20.121563
endloop
endfacet
facet normal 0.000000 -1.000000 0.000000
outer loop
vertex 4.721186 7.899998 -23.735001
vertex -13.444772 7.899998 -20.121582
vertex -4.721149 7.899998 -23.735008
endloop
endfacet
facet normal 0.000000 -1.000000 0.000000
outer loop
vertex -23.734995 7.899998 -4.721210
vertex -20.121548 7.899998 -13.444823
vertex -13.444772 7.899998 -20.121582
endloop
endfacet
facet normal 0.000000 -1.000000 0.000000
outer loop
vertex -20.121574 7.899998 13.444784
vertex -23.735006 7.899998 4.721165
vertex -23.734995 7.899998 -4.721210
endloop
endfacet
facet normal 0.000000 -1.000000 -0.000000
outer loop
vertex -4.721195 7.899998 23.735001
vertex -13.444809 7.899998 20.121559
vertex -20.121574 7.899998 13.444784
endloop
endfacet
facet normal 0.000000 -1.000000 0.000000
outer loop
vertex 13.444797 7.899998 20.121563
vertex 4.721180 7.899998 23.735001
vertex -4.721195 7.899998 23.735001
endloop
endfacet
facet normal 0.000000 -1.000000 0.000000
outer loop
vertex 23.735001 7.899998 4.721183
vertex 20.121563 7.899998 13.444797
vertex 13.444797 7.899998 20.121563
endloop
endfacet
facet normal 0.000000 -1.000000 0.000000
outer loop
vertex 20.121563 7.899998 -13.444797
vertex 23.735001 7.899998 -4.721186
vertex 23.735001 7.899998 4.721183
endloop
endfacet
facet normal 0.000000 -1.000000 0.000000
outer loop
vertex 4.721186 7.899998 -23.735001
vertex 13.444798 7.899998 -20.121563
vertex 20.121563 7.899998 -13.444797
endloop
endfacet
facet normal 0.000000 -1.000000 -0.000000
outer loop
vertex 4.721186 7.899998 -23.735001
vertex -23.734995 7.899998 -4.721210
vertex -13.444772 7.899998 -20.121582
endloop
endfacet
facet normal 0.000000 -1.000000 0.000000
outer loop
vertex -4.721195 7.899998 23.735001
vertex -20.121574 7.899998 13.444784
vertex -23.734995 7.899998 -4.721210
endloop
endfacet
facet normal 0.000000 -1.000000 0.000000
outer loop
vertex 23.735001 7.899998 4.721183
vertex 13.444797 7.899998 20.121563
vertex -4.721195 7.899998 23.735001
endloop
endfacet
facet normal 0.000000 -1.000000 -0.000000
outer loop
vertex 4.721186 7.899998 -23.735001
vertex 20.121563 7.899998 -13.444797
vertex 23.735001 7.899998 4.721183
endloop
endfacet
facet normal 0.000000 -1.000000 0.000000
outer loop
vertex 4.721186 7.899998 -23.735001
vertex -4.721195 7.899998 23.735001
vertex -23.734995 7.899998 -4.721210
endloop
endfacet
facet normal 0.000000 -1.000000 0.000000
outer loop
vertex 4.721186 7.899998 -23.735001
vertex 23.735001 7.899998 4.721183
vertex -4.721195 7.899998 23.735001
endloop
endfacet
facet normal -0.290285 0.000000 0.956940
outer loop
vertex 4.721186 -10.500004 -23.735001
vertex 9.260939 -10.500004 -22.357882
vertex 9.260939 7.899998 -22.357882
endloop
endfacet
facet normal -0.290285 0.000000 0.956940
outer loop
vertex 9.260939 7.899998 -22.357882
vertex 4.721186 7.899998 -23.735001
vertex 4.721186 -10.500004 -23.735001
endloop
endfacet
facet normal 0.290283 0.000000 0.956941
outer loop
vertex -9.260905 -10.500004 -22.357897
vertex -4.721149 -10.500004 -23.735008
vertex -4.721149 7.899998 -23.735008
endloop
endfacet
facet normal 0.290283 0.000000 0.956941
outer loop
vertex -4.721149 7.899998 -23.735008
vertex -9.260905 7.899998 -22.357897
vertex -9.260905 -10.500004 -22.357897
endloop
endfacet
facet normal 0.471396 0.000000 0.881922
outer loop
vertex -13.444772 -10.500004 -20.121582
vertex -9.260905 -10.500004 -22.357897
vertex -9.260905 7.899998 -22.357897
endloop
endfacet
facet normal 0.471395 0.000000 0.881922
outer loop
vertex -9.260905 7.899998 -22.357897
vertex -13.444772 7.899998 -20.121582
vertex -13.444772 -10.500004 -20.121582
endloop
endfacet
facet normal 0.634393 0.000000 0.773011
outer loop
vertex -17.111961 -10.500004 -17.112003
vertex -13.444772 -10.500004 -20.121582
vertex -13.444772 7.899998 -20.121582
endloop
endfacet
facet normal 0.634392 0.000000 0.773011
outer loop
vertex -13.444772 7.899998 -20.121582
vertex -17.111961 7.899998 -17.112003
vertex -17.111961 -10.500004 -17.112003
endloop
endfacet
facet normal 0.773010 0.000000 0.634394
outer loop
vertex -20.121548 -10.500004 -13.444823
vertex -17.111961 -10.500004 -17.112003
vertex -17.111961 7.899998 -17.112003
endloop
endfacet
facet normal 0.773010 0.000000 0.634394
outer loop
vertex -17.111961 7.899998 -17.112003
vertex -20.121548 7.899998 -13.444823
vertex -20.121548 -10.500004 -13.444823
endloop
endfacet
facet normal 0.881921 0.000000 0.471397
outer loop
vertex -22.357870 -10.500004 -9.260962
vertex -20.121548 -10.500004 -13.444823
vertex -20.121548 7.899998 -13.444823
endloop
endfacet
facet normal 0.881921 0.000000 0.471397
outer loop
vertex -20.121548 7.899998 -13.444823
vertex -22.357870 7.899998 -9.260962
vertex -22.357870 -10.500004 -9.260962
endloop
endfacet
facet normal 0.956940 0.000000 0.290286
outer loop
vertex -23.734995 -10.500004 -4.721210
vertex -22.357870 -10.500004 -9.260962
vertex -22.357870 7.899998 -9.260962
endloop
endfacet
facet normal 0.956940 0.000000 0.290286
outer loop
vertex -22.357870 7.899998 -9.260962
vertex -23.734995 7.899998 -4.721210
vertex -23.734995 -10.500004 -4.721210
endloop
endfacet
facet normal 0.995185 0.000000 0.098018
outer loop
vertex -24.199997 -10.500004 -0.000023
vertex -23.734995 -10.500004 -4.721210
vertex -23.734995 7.899998 -4.721210
endloop
endfacet
facet normal 0.995185 0.000000 0.098018
outer loop
vertex -23.734995 7.899998 -4.721210
vertex -24.199997 7.899998 -0.000023
vertex -24.199997 -10.500004 -0.000023
endloop
endfacet
facet normal 0.995185 0.000000 -0.098016
outer loop
vertex -23.735006 -10.500004 4.721165
vertex -24.199997 -10.500004 -0.000023
vertex -24.199997 7.899998 -0.000023
endloop
endfacet
facet normal 0.995185 0.000000 -0.098016
outer loop
vertex -24.199997 7.899998 -0.000023
vertex -23.735006 7.899998 4.721165
vertex -23.735006 -10.500004 4.721165
endloop
endfacet
facet normal 0.956941 0.000000 -0.290284
outer loop
vertex -22.357891 -10.500004 9.260920
vertex -23.735006 -10.500004 4.721165
vertex -23.735006 7.899998 4.721165
endloop
endfacet
facet normal 0.956941 0.000000 -0.290284
outer loop
vertex -23.735006 7.899998 4.721165
vertex -22.357891 7.899998 9.260920
vertex -22.357891 -10.500004 9.260920
endloop
endfacet
facet normal 0.881922 0.000000 -0.471396
outer loop
vertex -20.121574 -10.500004 13.444784
vertex -22.357891 -10.500004 9.260920
vertex -22.357891 7.899998 9.260920
endloop
endfacet
facet normal 0.881922 0.000000 -0.471396
outer loop
vertex -22.357891 7.899998 9.260920
vertex -20.121574 7.899998 13.444784
vertex -20.121574 -10.500004 13.444784
endloop
endfacet
facet normal 0.773011 0.000000 -0.634393
outer loop
vertex -17.111994 -10.500004 17.111973
vertex -20.121574 -10.500004 13.444784
vertex -20.121574 7.899998 13.444784
endloop
endfacet
facet normal 0.773011 0.000000 -0.634393
outer loop
vertex -20.121574 7.899998 13.444784
vertex -17.111994 7.899998 17.111973
vertex -17.111994 -10.500004 17.111973
endloop
endfacet
facet normal 0.634394 0.000000 -0.773010
outer loop
vertex -13.444809 -10.500004 20.121559
vertex -17.111994 -10.500004 17.111973
vertex -17.111994 7.899998 17.111973
endloop
endfacet
facet normal 0.634394 0.000000 -0.773010
outer loop
vertex -17.111994 7.899998 17.111973
vertex -13.444809 7.899998 20.121559
vertex -13.444809 -10.500004 20.121559
endloop
endfacet
facet normal 0.471396 0.000000 -0.881922
outer loop
vertex -9.260949 -10.500004 22.357876
vertex -13.444809 -10.500004 20.121559
vertex -13.444809 7.899998 20.121559
endloop
endfacet
facet normal 0.471396 0.000000 -0.881921
outer loop
vertex -13.444809 7.899998 20.121559
vertex -9.260949 7.899998 22.357876
vertex -9.260949 -10.500004 22.357876
endloop
endfacet
facet normal 0.290286 0.000000 -0.956940
outer loop
vertex -4.721195 -10.500004 23.735001
vertex -9.260949 -10.500004 22.357876
vertex -9.260949 7.899998 22.357876
endloop
endfacet
facet normal 0.290286 0.000000 -0.956940
outer loop
vertex -9.260949 7.899998 22.357876
vertex -4.721195 7.899998 23.735001
vertex -4.721195 -10.500004 23.735001
endloop
endfacet
facet normal 0.098017 0.000000 -0.995185
outer loop
vertex -0.000008 -10.500004 24.199997
vertex -4.721195 -10.500004 23.735001
vertex -4.721195 7.899998 23.735001
endloop
endfacet
facet normal 0.098017 0.000000 -0.995185
outer loop
vertex -4.721195 7.899998 23.735001
vertex -0.000008 7.899998 24.199997
vertex -0.000008 -10.500004 24.199997
endloop
endfacet
facet normal -0.098017 0.000000 -0.995185
outer loop
vertex 4.721180 -10.500004 23.735001
vertex -0.000008 -10.500004 24.199997
vertex -0.000008 7.899998 24.199997
endloop
endfacet
facet normal -0.098017 0.000000 -0.995185
outer loop
vertex -0.000008 7.899998 24.199997
vertex 4.721180 7.899998 23.735001
vertex 4.721180 -10.500004 23.735001
endloop
endfacet
facet normal -0.290284 0.000000 -0.956941
outer loop
vertex 9.260935 -10.500004 22.357885
vertex 4.721180 -10.500004 23.735001
vertex 4.721180 7.899998 23.735001
endloop
endfacet
facet normal -0.290284 0.000000 -0.956941
outer loop
vertex 4.721180 7.899998 23.735001
vertex 9.260935 7.899998 22.357885
vertex 9.260935 -10.500004 22.357885
endloop
endfacet
facet normal -0.471397 0.000000 -0.881921
outer loop
vertex 13.444797 -10.500004 20.121563
vertex 9.260935 -10.500004 22.357885
vertex 9.260935 7.899998 22.357885
endloop
endfacet
facet normal -0.471397 0.000000 -0.881921
outer loop
vertex 9.260935 7.899998 22.357885
vertex 13.444797 7.899998 20.121563
vertex 13.444797 -10.500004 20.121563
endloop
endfacet
facet normal -0.634394 0.000000 -0.773010
outer loop
vertex 17.111982 -10.500004 17.111982
vertex 13.444797 -10.500004 20.121563
vertex 13.444797 7.899998 20.121563
endloop
endfacet
facet normal -0.634393 0.000000 -0.773011
outer loop
vertex 13.444797 7.899998 20.121563
vertex 17.111982 7.899998 17.111982
vertex 17.111982 -10.500004 17.111982
endloop
endfacet
facet normal -0.773011 0.000000 -0.634393
outer loop
vertex 20.121563 -10.500004 13.444797
vertex 17.111982 -10.500004 17.111982
vertex 17.111982 7.899998 17.111982
endloop
endfacet
facet normal -0.773010 0.000000 -0.634393
outer loop
vertex 17.111982 7.899998 17.111982
vertex 20.121563 7.899998 13.444797
vertex 20.121563 -10.500004 13.444797
endloop
endfacet
facet normal -0.881922 0.000000 -0.471396
outer loop
vertex 22.357882 -10.500004 9.260935
vertex 20.121563 -10.500004 13.444797
vertex 20.121563 7.899998 13.444797
endloop
endfacet
facet normal -0.881921 0.000000 -0.471397
outer loop
vertex 20.121563 7.899998 13.444797
vertex 22.357882 7.899998 9.260935
vertex 22.357882 -10.500004 9.260935
endloop
endfacet
facet normal -0.956940 0.000000 -0.290285
outer loop
vertex 23.735001 -10.500004 4.721183
vertex 22.357882 -10.500004 9.260935
vertex 22.357882 7.899998 9.260935
endloop
endfacet
facet normal -0.956940 0.000000 -0.290285
outer loop
vertex 22.357882 7.899998 9.260935
vertex 23.735001 7.899998 4.721183
vertex 23.735001 -10.500004 4.721183
endloop
endfacet
facet normal -0.995185 0.000000 -0.098017
outer loop
vertex 24.199997 -10.500004 -0.000002
vertex 23.735001 -10.500004 4.721183
vertex 23.735001 7.899998 4.721183
endloop
endfacet
facet normal -0.995185 0.000000 -0.098017
outer loop
vertex 23.735001 7.899998 4.721183
vertex 24.199997 7.899998 -0.000002
vertex 24.199997 -10.500004 -0.000002
endloop
endfacet
facet normal -0.995185 0.000000 0.098017
outer loop
vertex 23.735001 -10.500004 -4.721186
vertex 24.199997 -10.500004 -0.000002
vertex 24.199997 7.899998 -0.000002
endloop
endfacet
facet normal -0.995185 0.000000 0.098017
outer loop
vertex 24.199997 7.899998 -0.000002
vertex 23.735001 7.899998 -4.721186
vertex 23.735001 -10.500004 -4.721186
endloop
endfacet
facet normal -0.956940 0.000000 0.290285
outer loop
vertex 22.357882 -10.500004 -9.260939
vertex 23.735001 -10.500004 -4.721186
vertex 23.735001 7.899998 -4.721186
endloop
endfacet
facet normal -0.956940 0.000000 0.290285
outer loop
vertex 23.735001 7.899998 -4.721186
vertex 22.357882 7.899998 -9.260939
vertex 22.357882 -10.500004 -9.260939
endloop
endfacet
facet normal -0.881921 0.000000 0.471397
outer loop
vertex 20.121563 -10.500004 -13.444797
vertex 22.357882 -10.500004 -9.260939
vertex 22.357882 7.899998 -9.260939
endloop
endfacet
facet normal -0.881921 0.000000 0.471397
outer loop
vertex 22.357882 7.899998 -9.260939
vertex 20.121563 7.899998 -13.444797
vertex 20.121563 -10.500004 -13.444797
endloop
endfacet
facet normal -0.773010 0.000000 0.634393
outer loop
vertex 17.111982 -10.500004 -17.111982
vertex 20.121563 -10.500004 -13.444797
vertex 20.121563 7.899998 -13.444797
endloop
endfacet
facet normal -0.773011 0.000000 0.634393
outer loop
vertex 20.121563 7.899998 -13.444797
vertex 17.111982 7.899998 -17.111982
vertex 17.111982 -10.500004 -17.111982
endloop
endfacet
facet normal -0.634393 0.000000 0.773011
outer loop
vertex 13.444798 -10.500004 -20.121563
vertex 17.111982 -10.500004 -17.111982
vertex 17.111982 7.899998 -17.111982
endloop
endfacet
facet normal -0.634394 0.000000 0.773010
outer loop
vertex 17.111982 7.899998 -17.111982
vertex 13.444798 7.899998 -20.121563
vertex 13.444798 -10.500004 -20.121563
endloop
endfacet
facet normal -0.471397 0.000000 0.881921
outer loop
vertex 9.260939 -10.500004 -22.357882
vertex 13.444798 -10.500004 -20.121563
vertex 13.444798 7.899998 -20.121563
endloop
endfacet
facet normal -0.471396 0.000000 0.881922
outer loop
vertex 13.444798 7.899998 -20.121563
vertex 9.260939 7.899998 -22.357882
vertex 9.260939 -10.500004 -22.357882
endloop
endfacet
endsolid Exported from Blender-2.74 (sub 0)
