solid Exported from Blender-2.74 (sub 0)
facet normal 0.105488 -0.972158 0.209239
outer loop
vertex 2.490375 48.355316 8.712998
vertex 5.521434 49.419628 12.129830
vertex 1.332637 49.419624 14.241596
endloop
endfacet
facet normal 0.715409 -0.676048 0.176493
outer loop
vertex 7.647156 52.294704 14.526101
vertex 5.521434 49.419628 12.129830
vertex 8.552510 51.735157 8.712998
endloop
endfacet
facet normal -0.271056 -0.954159 0.126924
outer loop
vertex 2.490375 48.355316 8.712998
vertex 1.332637 49.419624 14.241596
vertex -1.256235 49.419647 8.712998
endloop
endfacet
facet normal -0.271056 -0.954159 -0.126924
outer loop
vertex 2.490375 48.355316 8.712998
vertex -1.256235 49.419647 8.712998
vertex 1.332637 49.419624 3.184406
endloop
endfacet
facet normal 0.105488 -0.972158 -0.209239
outer loop
vertex 2.490375 48.355316 8.712998
vertex 1.332637 49.419624 3.184406
vertex 5.521434 49.419628 5.296166
endloop
endfacet
facet normal 0.924614 -0.337549 0.176494
outer loop
vertex 7.647156 52.294704 14.526101
vertex 8.552510 51.735157 8.712998
vertex 9.268081 55.481808 12.129840
endloop
endfacet
facet normal 0.035735 -0.477092 0.878127
outer loop
vertex 0.520698 52.294701 18.118877
vertex 4.363707 51.735146 17.658480
vertex 2.490375 55.481808 19.770298
endloop
endfacet
facet normal -0.916699 -0.340412 0.209244
outer loop
vertex -3.883746 52.294731 8.712998
vertex -2.414000 51.735153 14.241617
vertex -4.287332 55.481808 12.129840
endloop
endfacet
facet normal -0.700827 -0.402965 -0.588609
outer loop
vertex 0.520698 52.294701 -0.692881
vertex -2.414000 51.735153 3.184384
vertex -1.698474 55.481808 -0.232536
endloop
endfacet
facet normal 0.664972 -0.410976 -0.623627
outer loop
vertex 7.647156 52.294704 2.899900
vertex 4.363707 51.735146 -0.232479
vertex 6.679223 55.481808 -0.232536
endloop
endfacet
facet normal 0.896666 -0.140348 0.419871
outer loop
vertex 7.647156 52.294704 14.526101
vertex 9.268081 55.481808 12.129840
vertex 6.679223 55.481808 17.658531
endloop
endfacet
facet normal -0.442698 -0.181413 0.878127
outer loop
vertex 0.520698 52.294701 18.118877
vertex 2.490375 55.481808 19.770298
vertex -1.698474 55.481808 17.658531
endloop
endfacet
facet normal -0.992077 -0.125629 0.000000
outer loop
vertex -3.883746 52.294731 8.712998
vertex -4.287332 55.481808 12.129840
vertex -4.287332 55.481808 5.296155
endloop
endfacet
facet normal -0.442697 -0.181412 -0.878128
outer loop
vertex 0.520698 52.294701 -0.692881
vertex -1.698474 55.481808 -0.232536
vertex 2.490375 55.481808 -2.344296
endloop
endfacet
facet normal 0.896666 -0.140349 -0.419871
outer loop
vertex 7.647156 52.294704 2.899900
vertex 6.679223 55.481808 -0.232536
vertex 9.268081 55.481808 5.296155
endloop
endfacet
facet normal 0.466302 0.754504 0.461830
outer loop
vertex 4.460051 58.668919 18.118877
vertex 7.394750 59.228462 14.241617
vertex 3.648113 61.543991 14.241596
endloop
endfacet
facet normal -0.526530 0.739241 0.419868
outer loop
vertex -2.666406 58.668915 14.526101
vertex 0.617042 59.228474 17.658480
vertex -0.540684 61.543987 12.129830
endloop
endfacet
facet normal -0.715408 0.676048 -0.176495
outer loop
vertex -2.666406 58.668915 2.899900
vertex -3.571760 59.228462 8.712998
vertex -0.540684 61.543987 5.296166
endloop
endfacet
facet normal 0.046994 0.807056 -0.588603
outer loop
vertex 4.460051 58.668919 -0.692881
vertex 0.617042 59.228474 -0.232479
vertex 3.648113 61.543991 3.184406
endloop
endfacet
facet normal 0.732204 0.669154 -0.126924
outer loop
vertex 8.864494 58.668888 8.712998
vertex 7.394750 59.228462 3.184384
vertex 6.236984 61.543972 8.712998
endloop
endfacet
facet normal 0.271055 0.954159 -0.126922
outer loop
vertex 6.236984 61.543972 8.712998
vertex 3.648113 61.543991 3.184406
vertex 2.490375 62.608299 8.712998
endloop
endfacet
facet normal 0.510486 0.825992 -0.239042
outer loop
vertex 6.236984 61.543972 8.712998
vertex 7.394750 59.228462 3.184384
vertex 3.648113 61.543991 3.184406
endloop
endfacet
facet normal 0.466302 0.754504 -0.461830
outer loop
vertex 7.394750 59.228462 3.184384
vertex 4.460051 58.668919 -0.692881
vertex 3.648113 61.543991 3.184406
endloop
endfacet
facet normal -0.105488 0.972158 -0.209238
outer loop
vertex 3.648113 61.543991 3.184406
vertex -0.540684 61.543987 5.296166
vertex 2.490375 62.608299 8.712998
endloop
endfacet
facet normal -0.209067 0.885617 -0.414697
outer loop
vertex 3.648113 61.543991 3.184406
vertex 0.617042 59.228474 -0.232479
vertex -0.540684 61.543987 5.296166
endloop
endfacet
facet normal -0.526530 0.739241 -0.419869
outer loop
vertex 0.617042 59.228474 -0.232479
vertex -2.666406 58.668915 2.899900
vertex -0.540684 61.543987 5.296166
endloop
endfacet
facet normal -0.331305 0.943524 0.000000
outer loop
vertex -0.540684 61.543987 5.296166
vertex -0.540684 61.543987 12.129830
vertex 2.490375 62.608299 8.712998
endloop
endfacet
facet normal -0.607060 0.794656 0.000000
outer loop
vertex -0.540684 61.543987 5.296166
vertex -3.571760 59.228462 8.712998
vertex -0.540684 61.543987 12.129830
endloop
endfacet
facet normal -0.715408 0.676048 0.176495
outer loop
vertex -3.571760 59.228462 8.712998
vertex -2.666406 58.668915 14.526101
vertex -0.540684 61.543987 12.129830
endloop
endfacet
facet normal -0.105488 0.972158 0.209237
outer loop
vertex -0.540684 61.543987 12.129830
vertex 3.648113 61.543991 14.241596
vertex 2.490375 62.608299 8.712998
endloop
endfacet
facet normal -0.209067 0.885617 0.414697
outer loop
vertex -0.540684 61.543987 12.129830
vertex 0.617042 59.228474 17.658480
vertex 3.648113 61.543991 14.241596
endloop
endfacet
facet normal 0.046994 0.807055 0.588603
outer loop
vertex 0.617042 59.228474 17.658480
vertex 4.460051 58.668919 18.118877
vertex 3.648113 61.543991 14.241596
endloop
endfacet
facet normal 0.271055 0.954159 0.126921
outer loop
vertex 3.648113 61.543991 14.241596
vertex 6.236984 61.543972 8.712998
vertex 2.490375 62.608299 8.712998
endloop
endfacet
facet normal 0.510486 0.825992 0.239042
outer loop
vertex 3.648113 61.543991 14.241596
vertex 7.394750 59.228462 14.241617
vertex 6.236984 61.543972 8.712998
endloop
endfacet
facet normal 0.732204 0.669154 0.126923
outer loop
vertex 7.394750 59.228462 14.241617
vertex 8.864494 58.668888 8.712998
vertex 6.236984 61.543972 8.712998
endloop
endfacet
facet normal 0.916699 0.340412 -0.209244
outer loop
vertex 9.268081 55.481808 5.296155
vertex 7.394750 59.228462 3.184384
vertex 8.864494 58.668888 8.712998
endloop
endfacet
facet normal 0.885617 0.209068 -0.414697
outer loop
vertex 9.268081 55.481808 5.296155
vertex 6.679223 55.481808 -0.232536
vertex 7.394750 59.228462 3.184384
endloop
endfacet
facet normal 0.700826 0.402964 -0.588610
outer loop
vertex 6.679223 55.481808 -0.232536
vertex 4.460051 58.668919 -0.692881
vertex 7.394750 59.228462 3.184384
endloop
endfacet
facet normal -0.035736 0.477090 -0.878128
outer loop
vertex 2.490375 55.481808 -2.344296
vertex 0.617042 59.228474 -0.232479
vertex 4.460051 58.668919 -0.692881
endloop
endfacet
facet normal -0.433695 0.268045 -0.860268
outer loop
vertex 2.490375 55.481808 -2.344296
vertex -1.698474 55.481808 -0.232536
vertex 0.617042 59.228474 -0.232479
endloop
endfacet
facet normal -0.664973 0.410976 -0.623626
outer loop
vertex -1.698474 55.481808 -0.232536
vertex -2.666406 58.668915 2.899900
vertex 0.617042 59.228474 -0.232479
endloop
endfacet
facet normal -0.924614 0.337549 -0.176494
outer loop
vertex -4.287332 55.481808 5.296155
vertex -3.571760 59.228462 8.712998
vertex -2.666406 58.668915 2.899900
endloop
endfacet
facet normal -0.982246 0.187599 0.000000
outer loop
vertex -4.287332 55.481808 5.296155
vertex -4.287332 55.481808 12.129840
vertex -3.571760 59.228462 8.712998
endloop
endfacet
facet normal -0.924614 0.337549 0.176493
outer loop
vertex -4.287332 55.481808 12.129840
vertex -2.666406 58.668915 14.526101
vertex -3.571760 59.228462 8.712998
endloop
endfacet
facet normal -0.664973 0.410976 0.623627
outer loop
vertex -1.698474 55.481808 17.658531
vertex 0.617042 59.228474 17.658480
vertex -2.666406 58.668915 14.526101
endloop
endfacet
facet normal -0.433697 0.268044 0.860267
outer loop
vertex -1.698474 55.481808 17.658531
vertex 2.490375 55.481808 19.770298
vertex 0.617042 59.228474 17.658480
endloop
endfacet
facet normal -0.035734 0.477091 0.878127
outer loop
vertex 2.490375 55.481808 19.770298
vertex 4.460051 58.668919 18.118877
vertex 0.617042 59.228474 17.658480
endloop
endfacet
facet normal 0.700826 0.402964 0.588611
outer loop
vertex 6.679223 55.481808 17.658531
vertex 7.394750 59.228462 14.241617
vertex 4.460051 58.668919 18.118877
endloop
endfacet
facet normal 0.885617 0.209067 0.414697
outer loop
vertex 6.679223 55.481808 17.658531
vertex 9.268081 55.481808 12.129840
vertex 7.394750 59.228462 14.241617
endloop
endfacet
facet normal 0.916699 0.340412 0.209244
outer loop
vertex 9.268081 55.481808 12.129840
vertex 8.864494 58.668888 8.712998
vertex 7.394750 59.228462 14.241617
endloop
endfacet
facet normal 0.442699 0.181413 -0.878127
outer loop
vertex 6.679223 55.481808 -0.232536
vertex 2.490375 55.481808 -2.344296
vertex 4.460051 58.668919 -0.692881
endloop
endfacet
facet normal 0.433693 -0.268045 -0.860269
outer loop
vertex 6.679223 55.481808 -0.232536
vertex 4.363707 51.735146 -0.232479
vertex 2.490375 55.481808 -2.344296
endloop
endfacet
facet normal 0.035736 -0.477092 -0.878127
outer loop
vertex 4.363707 51.735146 -0.232479
vertex 0.520698 52.294701 -0.692881
vertex 2.490375 55.481808 -2.344296
endloop
endfacet
facet normal -0.896666 0.140350 -0.419872
outer loop
vertex -1.698474 55.481808 -0.232536
vertex -4.287332 55.481808 5.296155
vertex -2.666406 58.668915 2.899900
endloop
endfacet
facet normal -0.885616 -0.209068 -0.414698
outer loop
vertex -1.698474 55.481808 -0.232536
vertex -2.414000 51.735153 3.184384
vertex -4.287332 55.481808 5.296155
endloop
endfacet
facet normal -0.916699 -0.340412 -0.209244
outer loop
vertex -2.414000 51.735153 3.184384
vertex -3.883746 52.294731 8.712998
vertex -4.287332 55.481808 5.296155
endloop
endfacet
facet normal -0.896666 0.140349 0.419872
outer loop
vertex -4.287332 55.481808 12.129840
vertex -1.698474 55.481808 17.658531
vertex -2.666406 58.668915 14.526101
endloop
endfacet
facet normal -0.885616 -0.209067 0.414698
outer loop
vertex -4.287332 55.481808 12.129840
vertex -2.414000 51.735153 14.241617
vertex -1.698474 55.481808 17.658531
endloop
endfacet
facet normal -0.700827 -0.402965 0.588610
outer loop
vertex -2.414000 51.735153 14.241617
vertex 0.520698 52.294701 18.118877
vertex -1.698474 55.481808 17.658531
endloop
endfacet
facet normal 0.442700 0.181413 0.878126
outer loop
vertex 2.490375 55.481808 19.770298
vertex 6.679223 55.481808 17.658531
vertex 4.460051 58.668919 18.118877
endloop
endfacet
facet normal 0.433694 -0.268044 0.860268
outer loop
vertex 2.490375 55.481808 19.770298
vertex 4.363707 51.735146 17.658480
vertex 6.679223 55.481808 17.658531
endloop
endfacet
facet normal 0.664972 -0.410976 0.623627
outer loop
vertex 4.363707 51.735146 17.658480
vertex 7.647156 52.294704 14.526101
vertex 6.679223 55.481808 17.658531
endloop
endfacet
facet normal 0.992077 0.125628 0.000000
outer loop
vertex 9.268081 55.481808 12.129840
vertex 9.268081 55.481808 5.296155
vertex 8.864494 58.668888 8.712998
endloop
endfacet
facet normal 0.982246 -0.187599 0.000000
outer loop
vertex 9.268081 55.481808 12.129840
vertex 8.552510 51.735157 8.712998
vertex 9.268081 55.481808 5.296155
endloop
endfacet
facet normal 0.924614 -0.337549 -0.176494
outer loop
vertex 8.552510 51.735157 8.712998
vertex 7.647156 52.294704 2.899900
vertex 9.268081 55.481808 5.296155
endloop
endfacet
facet normal 0.526530 -0.739241 -0.419868
outer loop
vertex 5.521434 49.419628 5.296166
vertex 4.363707 51.735146 -0.232479
vertex 7.647156 52.294704 2.899900
endloop
endfacet
facet normal 0.209068 -0.885618 -0.414695
outer loop
vertex 5.521434 49.419628 5.296166
vertex 1.332637 49.419624 3.184406
vertex 4.363707 51.735146 -0.232479
endloop
endfacet
facet normal -0.046994 -0.807055 -0.588604
outer loop
vertex 1.332637 49.419624 3.184406
vertex 0.520698 52.294701 -0.692881
vertex 4.363707 51.735146 -0.232479
endloop
endfacet
facet normal -0.466302 -0.754504 -0.461829
outer loop
vertex 1.332637 49.419624 3.184406
vertex -2.414000 51.735153 3.184384
vertex 0.520698 52.294701 -0.692881
endloop
endfacet
facet normal -0.510486 -0.825993 -0.239041
outer loop
vertex 1.332637 49.419624 3.184406
vertex -1.256235 49.419647 8.712998
vertex -2.414000 51.735153 3.184384
endloop
endfacet
facet normal -0.732204 -0.669154 -0.126924
outer loop
vertex -1.256235 49.419647 8.712998
vertex -3.883746 52.294731 8.712998
vertex -2.414000 51.735153 3.184384
endloop
endfacet
facet normal -0.732204 -0.669154 0.126924
outer loop
vertex -1.256235 49.419647 8.712998
vertex -2.414000 51.735153 14.241617
vertex -3.883746 52.294731 8.712998
endloop
endfacet
facet normal -0.510486 -0.825993 0.239041
outer loop
vertex -1.256235 49.419647 8.712998
vertex 1.332637 49.419624 14.241596
vertex -2.414000 51.735153 14.241617
endloop
endfacet
facet normal -0.466302 -0.754504 0.461830
outer loop
vertex 1.332637 49.419624 14.241596
vertex 0.520698 52.294701 18.118877
vertex -2.414000 51.735153 14.241617
endloop
endfacet
facet normal 0.715409 -0.676048 -0.176494
outer loop
vertex 8.552510 51.735157 8.712998
vertex 5.521434 49.419628 5.296166
vertex 7.647156 52.294704 2.899900
endloop
endfacet
facet normal 0.607061 -0.794655 0.000000
outer loop
vertex 8.552510 51.735157 8.712998
vertex 5.521434 49.419628 12.129830
vertex 5.521434 49.419628 5.296166
endloop
endfacet
facet normal 0.331305 -0.943524 0.000000
outer loop
vertex 5.521434 49.419628 12.129830
vertex 2.490375 48.355316 8.712998
vertex 5.521434 49.419628 5.296166
endloop
endfacet
facet normal -0.046994 -0.807054 0.588604
outer loop
vertex 1.332637 49.419624 14.241596
vertex 4.363707 51.735146 17.658480
vertex 0.520698 52.294701 18.118877
endloop
endfacet
facet normal 0.209068 -0.885617 0.414695
outer loop
vertex 1.332637 49.419624 14.241596
vertex 5.521434 49.419628 12.129830
vertex 4.363707 51.735146 17.658480
endloop
endfacet
facet normal 0.526530 -0.739241 0.419868
outer loop
vertex 5.521434 49.419628 12.129830
vertex 7.647156 52.294704 14.526101
vertex 4.363707 51.735146 17.658480
endloop
endfacet
endsolid Exported from Blender-2.74 (sub 0)
