solid Exported from Blender-2.74 (sub 0)
facet normal -0.729702 -0.679977 -0.071873
outer loop
vertex -12.127370 48.448517 -0.925394
vertex -7.065097 43.608929 -6.534503
vertex -7.143157 43.608929 -5.741970
endloop
endfacet
facet normal -0.729700 -0.679979 -0.071876
outer loop
vertex -7.143157 43.608929 -5.741970
vertex -11.916225 48.194386 -0.664769
vertex -12.127370 48.448517 -0.925394
endloop
endfacet
facet normal -0.797009 -0.553469 -0.241762
outer loop
vertex -7.065097 43.608929 -6.534503
vertex -12.127370 48.448517 -0.925394
vertex -12.239628 48.703304 -1.138595
endloop
endfacet
facet normal -0.797006 -0.553467 -0.241774
outer loop
vertex -12.239628 48.703304 -1.138595
vertex -6.833923 43.608929 -7.296581
vertex -7.065097 43.608929 -6.534503
endloop
endfacet
facet normal -0.654823 -0.753025 0.064499
outer loop
vertex -11.916225 48.194386 -0.664769
vertex -7.143157 43.608929 -5.741970
vertex -7.065099 43.608929 -4.949435
endloop
endfacet
facet normal -0.654822 -0.753026 0.064496
outer loop
vertex -7.065099 43.608929 -4.949435
vertex -11.608448 47.952423 -0.364989
vertex -11.916225 48.194386 -0.664769
endloop
endfacet
facet normal -0.828195 -0.343705 -0.442673
outer loop
vertex -12.255547 48.948704 -1.299341
vertex -6.458518 43.608929 -7.998916
vertex -6.833923 43.608929 -7.296581
endloop
endfacet
facet normal -0.828192 -0.343699 -0.442684
outer loop
vertex -6.833923 43.608929 -7.296581
vertex -12.239628 48.703304 -1.138595
vertex -12.255547 48.948704 -1.299341
endloop
endfacet
facet normal -0.581387 -0.794283 0.176363
outer loop
vertex -11.608448 47.952423 -0.364989
vertex -7.065099 43.608929 -4.949435
vertex -6.833927 43.608929 -4.187358
endloop
endfacet
facet normal -0.581387 -0.794286 0.176349
outer loop
vertex -6.833927 43.608929 -4.187358
vertex -11.212189 47.735039 -0.037739
vertex -11.608448 47.952423 -0.364989
endloop
endfacet
facet normal -0.772287 -0.043214 -0.633802
outer loop
vertex -12.181245 49.176395 -1.405404
vertex -5.953305 43.608929 -8.614515
vertex -6.458518 43.608929 -7.998916
endloop
endfacet
facet normal -0.772284 -0.043219 -0.633805
outer loop
vertex -6.458518 43.608929 -7.998916
vertex -12.255547 48.948704 -1.299341
vertex -12.181245 49.176395 -1.405404
endloop
endfacet
facet normal -0.510215 -0.815660 0.272725
outer loop
vertex -6.833927 43.608929 -4.187358
vertex -10.854937 47.597935 0.220574
vertex -11.212189 47.735039 -0.037739
endloop
endfacet
facet normal -0.510226 -0.815666 0.272687
outer loop
vertex -6.458522 43.608929 -3.485022
vertex -10.801913 47.609722 0.355037
vertex -10.854937 47.597935 0.220574
endloop
endfacet
facet normal -0.510215 -0.815664 0.272715
outer loop
vertex -6.833927 43.608929 -4.187358
vertex -6.458522 43.608929 -3.485022
vertex -10.854937 47.597935 0.220574
endloop
endfacet
facet normal -0.609076 0.279668 -0.742168
outer loop
vertex -12.025225 49.379807 -1.456795
vertex -5.337703 43.608929 -9.119726
vertex -5.953305 43.608929 -8.614515
endloop
endfacet
facet normal -0.609076 0.279665 -0.742168
outer loop
vertex -5.953305 43.608929 -8.614515
vertex -12.181245 49.176395 -1.405404
vertex -12.025225 49.379807 -1.456795
endloop
endfacet
facet normal -0.439251 -0.822867 0.360483
outer loop
vertex -10.801913 47.609722 0.355037
vertex -6.458522 43.608929 -3.485022
vertex -5.953310 43.608929 -2.869421
endloop
endfacet
facet normal -0.439250 -0.822866 0.360487
outer loop
vertex -5.953310 43.608929 -2.869421
vertex -10.557788 47.725101 0.915875
vertex -10.801913 47.609722 0.355037
endloop
endfacet
facet normal -0.399779 0.529877 -0.747935
outer loop
vertex -11.797407 49.553944 -1.455198
vertex -4.635368 43.608929 -9.495131
vertex -5.337703 43.608929 -9.119726
endloop
endfacet
facet normal -0.399783 0.529883 -0.747929
outer loop
vertex -5.337703 43.608929 -9.119726
vertex -12.025225 49.379807 -1.456795
vertex -11.797407 49.553944 -1.455198
endloop
endfacet
facet normal -0.365180 -0.817706 0.444972
outer loop
vertex -10.557788 47.725101 0.915875
vertex -5.953310 43.608929 -2.869421
vertex -5.337710 43.608929 -2.364209
endloop
endfacet
facet normal -0.365180 -0.817704 0.444976
outer loop
vertex -5.337710 43.608929 -2.364209
vertex -10.307769 47.897751 1.438334
vertex -10.557788 47.725101 0.915875
endloop
endfacet
facet normal -0.211041 0.686622 -0.695709
outer loop
vertex -11.508413 49.695168 -1.403484
vertex -3.873291 43.608929 -9.726304
vertex -4.635368 43.608929 -9.495131
endloop
endfacet
facet normal -0.211042 0.686624 -0.695707
outer loop
vertex -4.635368 43.608929 -9.495131
vertex -11.797407 49.553944 -1.455198
vertex -11.508413 49.695168 -1.403484
endloop
endfacet
facet normal -0.283536 -0.798888 0.530457
outer loop
vertex -10.307769 47.897751 1.438334
vertex -5.337710 43.608929 -2.364209
vertex -4.635375 43.608929 -1.988804
endloop
endfacet
facet normal -0.283532 -0.798887 0.530461
outer loop
vertex -4.635375 43.608929 -1.988804
vertex -10.065199 48.116081 1.896795
vertex -10.307769 47.897751 1.438334
endloop
endfacet
facet normal -0.061591 0.777903 -0.625359
outer loop
vertex -11.169109 49.800941 -1.305326
vertex -3.080763 43.608929 -9.804359
vertex -3.873291 43.608929 -9.726304
endloop
endfacet
facet normal -0.061591 0.777900 -0.625362
outer loop
vertex -3.873291 43.608929 -9.726304
vertex -11.508413 49.695168 -1.403484
vertex -11.169109 49.800941 -1.305326
endloop
endfacet
facet normal -0.188169 -0.761453 0.620308
outer loop
vertex -10.065199 48.116081 1.896795
vertex -4.635375 43.608929 -1.988804
vertex -3.873298 43.608929 -1.757630
endloop
endfacet
facet normal -0.188171 -0.761456 0.620303
outer loop
vertex -3.873298 43.608929 -1.757630
vertex -9.841732 48.366589 2.272094
vertex -10.065199 48.116081 1.896795
endloop
endfacet
facet normal 0.054522 0.831024 -0.553559
outer loop
vertex -10.790355 49.869602 -1.164941
vertex -2.288229 43.608929 -9.726301
vertex -3.080763 43.608929 -9.804359
endloop
endfacet
facet normal 0.054527 0.831021 -0.553561
outer loop
vertex -3.080763 43.608929 -9.804359
vertex -11.169109 49.800941 -1.305326
vertex -10.790355 49.869602 -1.164941
endloop
endfacet
facet normal -0.070500 -0.694725 0.715812
outer loop
vertex -9.841732 48.366589 2.272094
vertex -3.873298 43.608929 -1.757630
vertex -3.080764 43.608929 -1.679572
endloop
endfacet
facet normal -0.070500 -0.694730 0.715808
outer loop
vertex -3.080764 43.608929 -1.679572
vertex -9.646578 48.635372 2.552183
vertex -9.841732 48.366589 2.272094
endloop
endfacet
facet normal 0.146990 0.862293 -0.484608
outer loop
vertex -1.526152 43.608929 -9.495128
vertex -10.521571 49.889778 -1.047509
vertex -10.453739 49.950462 -0.918952
endloop
endfacet
facet normal 0.146994 0.862302 -0.484591
outer loop
vertex -2.288229 43.608929 -9.726301
vertex -10.790355 49.869602 -1.164941
vertex -10.521571 49.889778 -1.047509
endloop
endfacet
facet normal 0.146999 0.862300 -0.484592
outer loop
vertex -1.526152 43.608929 -9.495128
vertex -2.288229 43.608929 -9.726301
vertex -10.521571 49.889778 -1.047509
endloop
endfacet
facet normal 0.079929 -0.578819 0.811530
outer loop
vertex -9.646578 48.635372 2.552183
vertex -3.080764 43.608929 -1.679572
vertex -2.288230 43.608929 -1.757629
endloop
endfacet
facet normal 0.079926 -0.578820 0.811529
outer loop
vertex -2.288230 43.608929 -1.757629
vertex -9.486224 48.909286 2.731759
vertex -9.646578 48.635372 2.552183
endloop
endfacet
facet normal 0.223565 0.880383 -0.418263
outer loop
vertex -10.253255 50.095570 -0.506358
vertex -0.823818 43.608929 -9.119722
vertex -1.526152 43.608929 -9.495128
endloop
endfacet
facet normal 0.223567 0.880381 -0.418266
outer loop
vertex -1.526152 43.608929 -9.495128
vertex -10.453739 49.950462 -0.918952
vertex -10.253255 50.095570 -0.506358
endloop
endfacet
facet normal 0.267987 -0.384337 0.883441
outer loop
vertex -9.486224 48.909286 2.731759
vertex -2.288230 43.608929 -1.757629
vertex -1.526153 43.608929 -1.988802
endloop
endfacet
facet normal 0.267990 -0.384339 0.883439
outer loop
vertex -1.526153 43.608929 -1.988802
vertex -9.364538 49.176769 2.811213
vertex -9.486224 48.909286 2.731759
endloop
endfacet
facet normal 0.289644 0.889691 -0.352925
outer loop
vertex -10.059249 50.203194 -0.075840
vertex -0.208216 43.608929 -8.614511
vertex -0.823818 43.608929 -9.119722
endloop
endfacet
facet normal 0.289643 0.889693 -0.352921
outer loop
vertex -0.823818 43.608929 -9.119722
vertex -10.253255 50.095570 -0.506358
vertex -10.059249 50.203194 -0.075840
endloop
endfacet
facet normal 0.469215 -0.096224 0.877826
outer loop
vertex -9.364538 49.176769 2.811213
vertex -1.526153 43.608929 -1.988802
vertex -0.823818 43.608929 -2.364208
endloop
endfacet
facet normal 0.469198 -0.096218 0.877835
outer loop
vertex -0.823818 43.608929 -2.364208
vertex -9.283137 49.428211 2.795264
vertex -9.364538 49.176769 2.811213
endloop
endfacet
facet normal 0.349014 0.892271 -0.286428
outer loop
vertex -9.876520 50.271881 0.360794
vertex 0.296994 43.608929 -7.998911
vertex -0.208216 43.608929 -8.614511
endloop
endfacet
facet normal 0.349015 0.892267 -0.286442
outer loop
vertex -0.208216 43.608929 -8.614511
vertex -10.059249 50.203194 -0.075840
vertex -9.876520 50.271881 0.360794
endloop
endfacet
facet normal 0.617322 0.230463 0.752197
outer loop
vertex -9.283137 49.428211 2.795264
vertex -0.823818 43.608929 -2.364208
vertex -0.208216 43.608929 -2.869419
endloop
endfacet
facet normal 0.617326 0.230463 0.752193
outer loop
vertex -0.208216 43.608929 -2.869419
vertex -9.241856 49.656029 2.691587
vertex -9.283137 49.428211 2.795264
endloop
endfacet
facet normal 0.404400 0.888671 -0.216160
outer loop
vertex -9.709387 50.300819 0.792455
vertex 0.672400 43.608929 -7.296577
vertex 0.296994 43.608929 -7.998911
endloop
endfacet
facet normal 0.404403 0.888673 -0.216143
outer loop
vertex 0.296994 43.608929 -7.998911
vertex -9.876520 50.271881 0.360794
vertex -9.709387 50.300819 0.792455
endloop
endfacet
facet normal 0.671171 0.496110 0.550822
outer loop
vertex -9.241856 49.656029 2.691587
vertex -0.208216 43.608929 -2.869419
vertex 0.296994 43.608929 -3.485020
endloop
endfacet
facet normal 0.671162 0.496103 0.550838
outer loop
vertex 0.296994 43.608929 -3.485020
vertex -9.239240 49.854507 2.509634
vertex -9.241856 49.656029 2.691587
endloop
endfacet
facet normal 0.457819 0.878132 -0.138876
outer loop
vertex -9.561821 50.289688 1.208535
vertex 0.903573 43.608929 -6.534500
vertex 0.672400 43.608929 -7.296577
endloop
endfacet
facet normal 0.457819 0.878131 -0.138884
outer loop
vertex 0.672400 43.608929 -7.296577
vertex -9.709387 50.300819 0.792455
vertex -9.561821 50.289688 1.208535
endloop
endfacet
facet normal 0.657444 0.666544 0.351405
outer loop
vertex -9.239240 49.854507 2.509634
vertex 0.296994 43.608929 -3.485020
vertex 0.672400 43.608929 -4.187356
endloop
endfacet
facet normal 0.657449 0.666544 0.351398
outer loop
vertex 0.672400 43.608929 -4.187356
vertex -9.272955 50.019508 2.259748
vertex -9.239240 49.854507 2.509634
endloop
endfacet
facet normal 0.510690 0.858292 -0.050305
outer loop
vertex -9.437550 50.238609 1.598680
vertex 0.981631 43.608929 -5.741966
vertex 0.903573 43.608929 -6.534500
endloop
endfacet
facet normal 0.510691 0.858293 -0.050285
outer loop
vertex 0.903573 43.608929 -6.534500
vertex -9.561821 50.289688 1.208535
vertex -9.437550 50.238609 1.598680
endloop
endfacet
facet normal 0.614836 0.766283 0.186512
outer loop
vertex -9.272955 50.019508 2.259748
vertex 0.672400 43.608929 -4.187356
vertex 0.903574 43.608929 -4.949432
endloop
endfacet
facet normal 0.614831 0.766286 0.186518
outer loop
vertex 0.903574 43.608929 -4.949432
vertex -9.340127 50.148167 1.952564
vertex -9.272955 50.019508 2.259748
endloop
endfacet
facet normal 0.563550 0.824215 0.055503
outer loop
vertex -9.340127 50.148167 1.952564
vertex 0.903574 43.608929 -4.949432
vertex 0.981631 43.608929 -5.741966
endloop
endfacet
facet normal 0.563549 0.824216 0.055495
outer loop
vertex 0.981631 43.608929 -5.741966
vertex -9.437550 50.238609 1.598680
vertex -9.340127 50.148167 1.952564
endloop
endfacet
endsolid Exported from Blender-2.74 (sub 0)
