solid Exported from Blender-2.74 (sub 0)
facet normal -0.098028 0.000000 0.995184
outer loop
vertex 0.000000 9.052849 -33.977215
vertex 0.000000 -9.052853 -33.977215
vertex 6.628602 -9.052853 -33.324284
endloop
endfacet
facet normal -0.098028 0.000000 0.995184
outer loop
vertex 6.628602 -9.052853 -33.324284
vertex 6.628602 9.052849 -33.324284
vertex 0.000000 9.052849 -33.977215
endloop
endfacet
facet normal 0.000938 0.999999 -0.000770
outer loop
vertex 29.382250 -9.034878 5.844480
vertex 28.250908 -9.052853 -18.876810
vertex 24.025637 -9.052853 -24.025637
endloop
endfacet
facet normal 0.000000 1.000000 0.000000
outer loop
vertex 33.324284 -9.052853 -6.628603
vertex 31.390736 -9.052853 -13.002516
vertex 28.250908 -9.052853 -18.876810
endloop
endfacet
facet normal 0.000000 1.000000 0.000000
outer loop
vertex 33.324284 -9.052853 6.628596
vertex 33.977215 -9.052853 -0.000003
vertex 33.324284 -9.052853 -6.628603
endloop
endfacet
facet normal 0.000000 1.000000 0.000000
outer loop
vertex 28.250908 -9.052853 18.876810
vertex 31.390736 -9.052853 13.002511
vertex 33.324284 -9.052853 6.628596
endloop
endfacet
facet normal 0.000000 1.000000 0.000000
outer loop
vertex 18.876810 -9.052853 28.250908
vertex 24.025637 -9.052853 24.025637
vertex 28.250908 -9.052853 18.876810
endloop
endfacet
facet normal 0.000000 1.000000 0.000000
outer loop
vertex 6.628592 -9.052853 33.324284
vertex 13.002511 -9.052853 31.390738
vertex 18.876810 -9.052853 28.250908
endloop
endfacet
facet normal 0.000000 1.000000 0.000000
outer loop
vertex -6.628617 -9.052853 33.324276
vertex -0.000013 -9.052853 33.977215
vertex 6.628592 -9.052853 33.324284
endloop
endfacet
facet normal 0.000000 1.000000 0.000000
outer loop
vertex -18.876831 -9.052853 28.250898
vertex -13.002533 -9.052853 31.390728
vertex -6.628617 -9.052853 33.324276
endloop
endfacet
facet normal 0.000000 1.000000 0.000000
outer loop
vertex -28.250925 -9.052853 18.876789
vertex -24.025656 -9.052853 24.025620
vertex -18.876831 -9.052853 28.250898
endloop
endfacet
facet normal 0.000000 1.000000 0.000000
outer loop
vertex -33.324287 -9.052853 6.628567
vertex -31.390749 -9.052853 13.002487
vertex -28.250925 -9.052853 18.876789
endloop
endfacet
facet normal -0.021610 0.999764 0.002129
outer loop
vertex -29.668533 -8.959721 -0.000023
vertex -33.977215 -9.052853 -0.000038
vertex -33.324287 -9.052853 6.628567
endloop
endfacet
facet normal 0.001973 0.999998 -0.000817
outer loop
vertex 29.382250 -9.034878 5.844480
vertex 33.324284 -9.052853 -6.628603
vertex 28.250908 -9.052853 -18.876810
endloop
endfacet
facet normal 0.003139 0.999870 0.015779
outer loop
vertex -29.445974 -9.052853 5.857157
vertex -29.668533 -8.959721 -0.000023
vertex -33.324287 -9.052853 6.628567
endloop
endfacet
facet normal 0.183961 0.981295 0.056728
outer loop
vertex 29.382250 -9.034878 5.844480
vertex 27.737551 -9.052853 11.489219
vertex 33.324284 -9.052853 -6.628603
endloop
endfacet
facet normal 0.000000 1.000000 0.000000
outer loop
vertex -27.737562 -9.052853 11.489202
vertex -29.445974 -9.052853 5.857157
vertex -33.324287 -9.052853 6.628567
endloop
endfacet
facet normal 0.000000 1.000000 0.000000
outer loop
vertex 27.737551 -9.052853 11.489219
vertex 33.324284 -9.052853 6.628596
vertex 33.324284 -9.052853 -6.628603
endloop
endfacet
facet normal 0.000000 1.000000 0.000000
outer loop
vertex -24.963152 -9.052853 16.679665
vertex -27.737562 -9.052853 11.489202
vertex -33.324287 -9.052853 6.628567
endloop
endfacet
facet normal 0.000000 1.000000 0.000000
outer loop
vertex 27.737551 -9.052853 11.489219
vertex 24.963144 -9.052853 16.679678
vertex 33.324284 -9.052853 6.628596
endloop
endfacet
facet normal 0.000000 1.000000 -0.000030
outer loop
vertex -21.229204 -9.052853 21.229183
vertex -24.963152 -9.052853 16.679665
vertex -33.324287 -9.052853 6.628567
endloop
endfacet
facet normal 0.000000 1.000000 0.000000
outer loop
vertex 24.963144 -9.052853 16.679678
vertex 21.229193 -9.052853 21.229193
vertex 33.324284 -9.052853 6.628596
endloop
endfacet
facet normal 0.000000 1.000000 0.000000
outer loop
vertex -21.229204 -9.052853 21.229183
vertex -33.324287 -9.052853 6.628567
vertex -28.250925 -9.052853 18.876789
endloop
endfacet
facet normal 0.000000 1.000000 0.000000
outer loop
vertex 21.229193 -9.052853 21.229193
vertex 28.250908 -9.052853 18.876810
vertex 33.324284 -9.052853 6.628596
endloop
endfacet
facet normal 0.000000 1.000000 -0.000000
outer loop
vertex -16.679691 -9.052853 24.963139
vertex -21.229204 -9.052853 21.229183
vertex -28.250925 -9.052853 18.876789
endloop
endfacet
facet normal 0.000000 1.000000 0.000000
outer loop
vertex 21.229193 -9.052853 21.229193
vertex 16.679678 -9.052853 24.963144
vertex 28.250908 -9.052853 18.876810
endloop
endfacet
facet normal 0.000000 1.000000 0.000060
outer loop
vertex -11.489233 -9.052853 27.737545
vertex -16.679691 -9.052853 24.963139
vertex -28.250925 -9.052853 18.876789
endloop
endfacet
facet normal 0.000000 1.000000 -0.000060
outer loop
vertex 16.679678 -9.052853 24.963144
vertex 11.489219 -9.052853 27.737553
vertex 28.250908 -9.052853 18.876810
endloop
endfacet
facet normal 0.000000 1.000000 -0.000000
outer loop
vertex -11.489233 -9.052853 27.737545
vertex -28.250925 -9.052853 18.876789
vertex -18.876831 -9.052853 28.250898
endloop
endfacet
facet normal 0.000000 1.000000 0.000000
outer loop
vertex 11.489219 -9.052853 27.737553
vertex 18.876810 -9.052853 28.250908
vertex 28.250908 -9.052853 18.876810
endloop
endfacet
facet normal 0.000000 1.000000 0.000000
outer loop
vertex -5.857188 -9.052853 29.445971
vertex -11.489233 -9.052853 27.737545
vertex -18.876831 -9.052853 28.250898
endloop
endfacet
facet normal 0.000000 1.000000 0.000001
outer loop
vertex 11.489219 -9.052853 27.737553
vertex 5.857172 -9.052853 29.445971
vertex 18.876810 -9.052853 28.250908
endloop
endfacet
facet normal 0.000000 1.000000 0.000000
outer loop
vertex -0.000008 -9.052853 30.022783
vertex -5.857188 -9.052853 29.445971
vertex -18.876831 -9.052853 28.250898
endloop
endfacet
facet normal 0.000000 1.000000 -0.000060
outer loop
vertex 5.857172 -9.052853 29.445971
vertex -0.000008 -9.052853 30.022783
vertex 18.876810 -9.052853 28.250908
endloop
endfacet
facet normal 0.000000 1.000000 -0.000000
outer loop
vertex -6.628617 -9.052853 33.324276
vertex 6.628592 -9.052853 33.324284
vertex 18.876810 -9.052853 28.250908
endloop
endfacet
facet normal 0.000000 1.000000 0.000000
outer loop
vertex -0.000008 -9.052853 30.022783
vertex -18.876831 -9.052853 28.250898
vertex -6.628617 -9.052853 33.324276
endloop
endfacet
facet normal 0.000000 1.000000 0.000000
outer loop
vertex -0.000008 -9.052853 30.022783
vertex -6.628617 -9.052853 33.324276
vertex 18.876810 -9.052853 28.250908
endloop
endfacet
facet normal 0.000000 1.000000 0.000000
outer loop
vertex -6.628542 -9.052853 -33.324295
vertex 6.628602 -9.052853 -33.324284
vertex 0.000000 -9.052853 -33.977215
endloop
endfacet
facet normal 0.000000 1.000000 0.000001
outer loop
vertex 18.876814 -9.052853 -28.250908
vertex 13.002518 -9.052853 -31.390736
vertex 6.628602 -9.052853 -33.324284
endloop
endfacet
facet normal -0.021607 0.999627 -0.016715
outer loop
vertex -33.977215 -9.052853 -0.000038
vertex -29.668533 -8.959721 -0.000023
vertex -29.445965 -9.052853 -5.857203
endloop
endfacet
facet normal 0.000000 1.000000 0.000000
outer loop
vertex 24.025637 -9.052853 -24.025637
vertex 18.876814 -9.052853 -28.250908
vertex 6.628602 -9.052853 -33.324284
endloop
endfacet
facet normal 0.000000 1.000000 -0.000000
outer loop
vertex -33.977215 -9.052853 -0.000038
vertex -29.445965 -9.052853 -5.857203
vertex -27.737539 -9.052853 -11.489246
endloop
endfacet
facet normal 0.000000 1.000000 -0.000000
outer loop
vertex -6.628542 -9.052853 -33.324295
vertex 24.025637 -9.052853 -24.025637
vertex 6.628602 -9.052853 -33.324284
endloop
endfacet
facet normal 0.000000 1.000000 0.000000
outer loop
vertex -33.977215 -9.052853 -0.000038
vertex -27.737539 -9.052853 -11.489246
vertex -24.963123 -9.052853 -16.679707
endloop
endfacet
facet normal 0.000000 1.000000 0.000000
outer loop
vertex -6.628542 -9.052853 -33.324295
vertex -13.002462 -9.052853 -31.390759
vertex -18.876770 -9.052853 -28.250938
endloop
endfacet
facet normal 0.000000 1.000000 0.000000
outer loop
vertex -33.324272 -9.052853 -6.628643
vertex -33.977215 -9.052853 -0.000038
vertex -24.963123 -9.052853 -16.679707
endloop
endfacet
facet normal 0.000000 1.000000 0.000000
outer loop
vertex -6.628542 -9.052853 -33.324295
vertex -18.876770 -9.052853 -28.250938
vertex -24.025604 -9.052853 -24.025429
endloop
endfacet
facet normal 0.000000 1.000000 -0.000015
outer loop
vertex -33.324272 -9.052853 -6.628643
vertex -24.963123 -9.052853 -16.679707
vertex -21.229172 -9.052853 -21.229460
endloop
endfacet
facet normal 0.000000 1.000000 -0.000000
outer loop
vertex -6.628542 -9.052853 -33.324295
vertex -24.025604 -9.052853 -24.025429
vertex -28.250883 -9.052853 -18.876856
endloop
endfacet
facet normal 0.000000 1.000000 0.000000
outer loop
vertex -31.390717 -9.052853 -13.002557
vertex -33.324272 -9.052853 -6.628643
vertex -21.229172 -9.052853 -21.229460
endloop
endfacet
facet normal 0.000000 1.000000 0.000000
outer loop
vertex -6.628542 -9.052853 -33.324295
vertex -28.250883 -9.052853 -18.876856
vertex -31.390717 -9.052853 -13.002557
endloop
endfacet
facet normal 0.000000 1.000000 -0.000030
outer loop
vertex -31.390717 -9.052853 -13.002557
vertex -21.229172 -9.052853 -21.229460
vertex -16.679655 -9.052853 -24.963163
endloop
endfacet
facet normal 0.000000 1.000000 0.000011
outer loop
vertex -6.628542 -9.052853 -33.324295
vertex -31.390717 -9.052853 -13.002557
vertex -16.679655 -9.052853 -24.963163
endloop
endfacet
facet normal 0.000000 1.000000 -0.000001
outer loop
vertex -6.628542 -9.052853 -33.324295
vertex -16.679655 -9.052853 -24.963163
vertex -11.489189 -9.052853 -27.737564
endloop
endfacet
facet normal 0.000000 1.000000 -0.000000
outer loop
vertex -6.628542 -9.052853 -33.324295
vertex -11.489189 -9.052853 -27.737564
vertex -5.857142 -9.052853 -29.445976
endloop
endfacet
facet normal 0.000000 1.000000 0.000000
outer loop
vertex -6.628542 -9.052853 -33.324295
vertex -5.857142 -9.052853 -29.445976
vertex 0.000000 -9.052853 -30.022783
endloop
endfacet
facet normal 0.000000 1.000000 0.000000
outer loop
vertex -6.628542 -9.052853 -33.324295
vertex 0.000000 -9.052853 -30.022783
vertex 5.857178 -9.052853 -29.445971
endloop
endfacet
facet normal 0.000000 1.000000 0.000000
outer loop
vertex -6.628542 -9.052853 -33.324295
vertex 5.857178 -9.052853 -29.445971
vertex 11.489223 -9.052853 -27.737551
endloop
endfacet
facet normal 0.000000 1.000000 0.000011
outer loop
vertex -6.628542 -9.052853 -33.324295
vertex 11.489223 -9.052853 -27.737551
vertex 24.025637 -9.052853 -24.025637
endloop
endfacet
facet normal 0.000000 1.000000 0.000000
outer loop
vertex 11.489223 -9.052853 -27.737551
vertex 16.679680 -9.052853 -24.963144
vertex 24.025637 -9.052853 -24.025637
endloop
endfacet
facet normal 0.000000 1.000000 0.000000
outer loop
vertex 16.679680 -9.052853 -24.963144
vertex 21.229193 -9.052853 -21.229193
vertex 24.025637 -9.052853 -24.025637
endloop
endfacet
facet normal 0.000000 1.000000 0.000000
outer loop
vertex 21.229193 -9.052853 -21.229193
vertex 24.963144 -9.052853 -16.679678
vertex 24.025637 -9.052853 -24.025637
endloop
endfacet
facet normal -0.011637 0.999931 0.001485
outer loop
vertex 24.963144 -9.052853 -16.679678
vertex 29.382250 -9.034878 5.844480
vertex 24.025637 -9.052853 -24.025637
endloop
endfacet
facet normal -0.002359 -0.999996 0.001261
outer loop
vertex 24.963144 -9.052853 -16.679678
vertex 27.737551 -9.052853 -11.489223
vertex 29.382250 -9.034878 5.844480
endloop
endfacet
facet normal 0.000000 -1.000000 0.000000
outer loop
vertex 27.737551 -9.052853 -11.489223
vertex 29.445971 -9.052853 -5.857179
vertex 30.022783 -9.052853 -0.000002
endloop
endfacet
facet normal -0.009969 -0.999948 0.001983
outer loop
vertex 27.737551 -9.052853 -11.489223
vertex 30.022783 -9.052853 -0.000002
vertex 29.382250 -9.034878 5.844480
endloop
endfacet
facet normal 0.098027 0.000000 0.995184
outer loop
vertex 0.000000 -9.052853 -33.977215
vertex 0.000000 9.052849 -33.977215
vertex -6.628542 9.052849 -33.324295
endloop
endfacet
facet normal 0.098028 0.000000 0.995184
outer loop
vertex -6.628542 9.052849 -33.324295
vertex -6.628542 -9.052853 -33.324295
vertex 0.000000 -9.052853 -33.977215
endloop
endfacet
facet normal 0.000000 -1.000000 -0.000001
outer loop
vertex 13.002518 9.052849 -31.390736
vertex 0.000000 9.052849 -33.977215
vertex 6.628602 9.052849 -33.324284
endloop
endfacet
facet normal 0.000000 -1.000000 0.000001
outer loop
vertex -13.002462 9.052849 -31.390759
vertex -6.628542 9.052849 -33.324295
vertex 0.000000 9.052849 -33.977215
endloop
endfacet
facet normal 0.000000 -1.000000 0.000001
outer loop
vertex -24.025604 9.052849 -24.025429
vertex -18.876770 9.052849 -28.250938
vertex -13.002462 9.052849 -31.390759
endloop
endfacet
facet normal 0.000000 -1.000000 -0.000001
outer loop
vertex -31.390717 9.052849 -13.002557
vertex -28.250883 9.052849 -18.876856
vertex -24.025604 9.052849 -24.025429
endloop
endfacet
facet normal 0.000000 -1.000000 0.000000
outer loop
vertex -33.977215 9.052849 -0.000038
vertex -33.324272 9.052849 -6.628643
vertex -31.390717 9.052849 -13.002557
endloop
endfacet
facet normal 0.000000 -1.000000 -0.000000
outer loop
vertex -31.390749 9.052849 13.002487
vertex -33.324287 9.052849 6.628567
vertex -33.977215 9.052849 -0.000038
endloop
endfacet
facet normal 0.000000 -1.000000 0.000000
outer loop
vertex -24.025412 9.052849 24.025620
vertex -28.250925 9.052849 18.876789
vertex -31.390749 9.052849 13.002487
endloop
endfacet
facet normal 0.000000 -1.000000 0.000001
outer loop
vertex -13.002533 9.052849 31.390728
vertex -18.876831 9.052849 28.250898
vertex -24.025412 9.052849 24.025620
endloop
endfacet
facet normal 0.000000 -1.000000 0.000001
outer loop
vertex -0.000013 9.052849 33.977215
vertex -6.628617 9.052849 33.324276
vertex -13.002533 9.052849 31.390728
endloop
endfacet
facet normal 0.000000 -1.000000 0.000000
outer loop
vertex 13.002511 9.052849 31.390738
vertex 6.628592 9.052849 33.324284
vertex -0.000013 9.052849 33.977215
endloop
endfacet
facet normal 0.000000 -1.000000 0.000001
outer loop
vertex 24.025637 9.052849 24.025637
vertex 18.876810 9.052849 28.250908
vertex 13.002511 9.052849 31.390738
endloop
endfacet
facet normal 0.000000 -1.000000 0.000000
outer loop
vertex 31.390736 9.052849 13.002511
vertex 28.250908 9.052849 18.876810
vertex 24.025637 9.052849 24.025637
endloop
endfacet
facet normal 0.000000 -1.000000 0.000000
outer loop
vertex 33.977215 9.052849 -0.000003
vertex 33.324284 9.052849 6.628596
vertex 31.390736 9.052849 13.002511
endloop
endfacet
facet normal 0.000000 -1.000000 -0.000000
outer loop
vertex 31.390736 9.052849 -13.002516
vertex 33.324284 9.052849 -6.628603
vertex 33.977215 9.052849 -0.000003
endloop
endfacet
facet normal 0.000000 -1.000000 0.000000
outer loop
vertex 24.025637 9.052849 -24.025637
vertex 28.250908 9.052849 -18.876810
vertex 31.390736 9.052849 -13.002516
endloop
endfacet
facet normal 0.000000 -1.000000 -0.000001
outer loop
vertex 13.002518 9.052849 -31.390736
vertex 18.876814 9.052849 -28.250908
vertex 24.025637 9.052849 -24.025637
endloop
endfacet
facet normal 0.000000 -1.000000 0.000000
outer loop
vertex 13.002518 9.052849 -31.390736
vertex -13.002462 9.052849 -31.390759
vertex 0.000000 9.052849 -33.977215
endloop
endfacet
facet normal 0.000000 -1.000000 -0.000000
outer loop
vertex -31.390717 9.052849 -13.002557
vertex -24.025604 9.052849 -24.025429
vertex -13.002462 9.052849 -31.390759
endloop
endfacet
facet normal 0.000000 -1.000000 0.000000
outer loop
vertex -31.390749 9.052849 13.002487
vertex -33.977215 9.052849 -0.000038
vertex -31.390717 9.052849 -13.002557
endloop
endfacet
facet normal 0.000000 -1.000000 -0.000000
outer loop
vertex -13.002533 9.052849 31.390728
vertex -24.025412 9.052849 24.025620
vertex -31.390749 9.052849 13.002487
endloop
endfacet
facet normal 0.000000 -1.000000 0.000000
outer loop
vertex 13.002511 9.052849 31.390738
vertex -0.000013 9.052849 33.977215
vertex -13.002533 9.052849 31.390728
endloop
endfacet
facet normal 0.000000 -1.000000 -0.000000
outer loop
vertex 31.390736 9.052849 13.002511
vertex 24.025637 9.052849 24.025637
vertex 13.002511 9.052849 31.390738
endloop
endfacet
facet normal 0.000000 -1.000000 0.000000
outer loop
vertex 31.390736 9.052849 -13.002516
vertex 33.977215 9.052849 -0.000003
vertex 31.390736 9.052849 13.002511
endloop
endfacet
facet normal 0.000000 -1.000000 0.000000
outer loop
vertex 13.002518 9.052849 -31.390736
vertex 24.025637 9.052849 -24.025637
vertex 31.390736 9.052849 -13.002516
endloop
endfacet
facet normal 0.000000 -1.000000 -0.000000
outer loop
vertex 13.002518 9.052849 -31.390736
vertex -31.390717 9.052849 -13.002557
vertex -13.002462 9.052849 -31.390759
endloop
endfacet
facet normal 0.000000 -1.000000 0.000000
outer loop
vertex -13.002533 9.052849 31.390728
vertex -31.390749 9.052849 13.002487
vertex -31.390717 9.052849 -13.002557
endloop
endfacet
facet normal 0.000000 -1.000000 -0.000000
outer loop
vertex 31.390736 9.052849 13.002511
vertex 13.002511 9.052849 31.390738
vertex -13.002533 9.052849 31.390728
endloop
endfacet
facet normal 0.000000 -1.000000 0.000000
outer loop
vertex 13.002518 9.052849 -31.390736
vertex 31.390736 9.052849 -13.002516
vertex 31.390736 9.052849 13.002511
endloop
endfacet
facet normal 0.000000 -1.000000 0.000000
outer loop
vertex 13.002518 9.052849 -31.390736
vertex -13.002533 9.052849 31.390728
vertex -31.390717 9.052849 -13.002557
endloop
endfacet
facet normal 0.000000 -1.000000 0.000000
outer loop
vertex 13.002518 9.052849 -31.390736
vertex 31.390736 9.052849 13.002511
vertex -13.002533 9.052849 31.390728
endloop
endfacet
facet normal -0.290291 0.000000 0.956938
outer loop
vertex 13.002518 -9.052853 -31.390736
vertex 13.002518 9.052849 -31.390736
vertex 6.628602 9.052849 -33.324284
endloop
endfacet
facet normal -0.290291 0.000000 0.956938
outer loop
vertex 6.628602 9.052849 -33.324284
vertex 6.628602 -9.052853 -33.324284
vertex 13.002518 -9.052853 -31.390736
endloop
endfacet
facet normal -0.471391 0.000000 0.881924
outer loop
vertex 18.876814 -9.052853 -28.250908
vertex 18.876814 9.052849 -28.250908
vertex 13.002518 9.052849 -31.390736
endloop
endfacet
facet normal -0.471391 0.000000 0.881924
outer loop
vertex 13.002518 9.052849 -31.390736
vertex 13.002518 -9.052853 -31.390736
vertex 18.876814 -9.052853 -28.250908
endloop
endfacet
facet normal -0.634370 0.000000 0.773030
outer loop
vertex 24.025637 -9.052853 -24.025637
vertex 24.025637 9.052849 -24.025637
vertex 18.876814 9.052849 -28.250908
endloop
endfacet
facet normal -0.634370 0.000000 0.773029
outer loop
vertex 18.876814 9.052849 -28.250908
vertex 18.876814 -9.052853 -28.250908
vertex 24.025637 -9.052853 -24.025637
endloop
endfacet
facet normal -0.773030 0.000000 0.634370
outer loop
vertex 28.250908 -9.052853 -18.876810
vertex 28.250908 9.052849 -18.876810
vertex 24.025637 9.052849 -24.025637
endloop
endfacet
facet normal -0.773030 0.000000 0.634370
outer loop
vertex 24.025637 9.052849 -24.025637
vertex 24.025637 -9.052853 -24.025637
vertex 28.250908 -9.052853 -18.876810
endloop
endfacet
facet normal -0.881924 0.000000 0.471391
outer loop
vertex 31.390736 -9.052853 -13.002516
vertex 31.390736 9.052849 -13.002516
vertex 28.250908 9.052849 -18.876810
endloop
endfacet
facet normal -0.881924 0.000000 0.471391
outer loop
vertex 28.250908 9.052849 -18.876810
vertex 28.250908 -9.052853 -18.876810
vertex 31.390736 -9.052853 -13.002516
endloop
endfacet
facet normal -0.956939 0.000000 0.290291
outer loop
vertex 33.324284 -9.052853 -6.628603
vertex 33.324284 9.052849 -6.628603
vertex 31.390736 9.052849 -13.002516
endloop
endfacet
facet normal -0.956939 0.000000 0.290291
outer loop
vertex 31.390736 9.052849 -13.002516
vertex 31.390736 -9.052853 -13.002516
vertex 33.324284 -9.052853 -6.628603
endloop
endfacet
facet normal -0.995184 0.000000 0.098028
outer loop
vertex 33.977215 -9.052853 -0.000003
vertex 33.977215 9.052849 -0.000003
vertex 33.324284 9.052849 -6.628603
endloop
endfacet
facet normal -0.995184 0.000000 0.098028
outer loop
vertex 33.324284 9.052849 -6.628603
vertex 33.324284 -9.052853 -6.628603
vertex 33.977215 -9.052853 -0.000003
endloop
endfacet
facet normal -0.995184 0.000000 -0.098028
outer loop
vertex 33.324284 -9.052853 6.628596
vertex 33.324284 9.052849 6.628596
vertex 33.977215 9.052849 -0.000003
endloop
endfacet
facet normal -0.995184 0.000000 -0.098028
outer loop
vertex 33.977215 9.052849 -0.000003
vertex 33.977215 -9.052853 -0.000003
vertex 33.324284 -9.052853 6.628596
endloop
endfacet
facet normal -0.956939 0.000000 -0.290290
outer loop
vertex 31.390736 -9.052853 13.002511
vertex 31.390736 9.052849 13.002511
vertex 33.324284 9.052849 6.628596
endloop
endfacet
facet normal -0.956939 0.000000 -0.290291
outer loop
vertex 33.324284 9.052849 6.628596
vertex 33.324284 -9.052853 6.628596
vertex 31.390736 -9.052853 13.002511
endloop
endfacet
facet normal -0.881924 0.000000 -0.471391
outer loop
vertex 28.250908 -9.052853 18.876810
vertex 28.250908 9.052849 18.876810
vertex 31.390736 9.052849 13.002511
endloop
endfacet
facet normal -0.881925 0.000000 -0.471391
outer loop
vertex 31.390736 9.052849 13.002511
vertex 31.390736 -9.052853 13.002511
vertex 28.250908 -9.052853 18.876810
endloop
endfacet
facet normal -0.773030 0.000000 -0.634370
outer loop
vertex 24.025637 -9.052853 24.025637
vertex 24.025637 9.052849 24.025637
vertex 28.250908 9.052849 18.876810
endloop
endfacet
facet normal -0.773030 0.000000 -0.634370
outer loop
vertex 28.250908 9.052849 18.876810
vertex 28.250908 -9.052853 18.876810
vertex 24.025637 -9.052853 24.025637
endloop
endfacet
facet normal -0.634370 0.000000 -0.773030
outer loop
vertex 18.876810 -9.052853 28.250908
vertex 18.876810 9.052849 28.250908
vertex 24.025637 9.052849 24.025637
endloop
endfacet
facet normal -0.634370 0.000000 -0.773030
outer loop
vertex 24.025637 9.052849 24.025637
vertex 24.025637 -9.052853 24.025637
vertex 18.876810 -9.052853 28.250908
endloop
endfacet
facet normal -0.471391 0.000000 -0.881924
outer loop
vertex 13.002511 -9.052853 31.390738
vertex 13.002511 9.052849 31.390738
vertex 18.876810 9.052849 28.250908
endloop
endfacet
facet normal -0.471391 0.000000 -0.881924
outer loop
vertex 18.876810 9.052849 28.250908
vertex 18.876810 -9.052853 28.250908
vertex 13.002511 -9.052853 31.390738
endloop
endfacet
facet normal -0.290291 0.000000 -0.956939
outer loop
vertex 6.628592 -9.052853 33.324284
vertex 6.628592 9.052849 33.324284
vertex 13.002511 9.052849 31.390738
endloop
endfacet
facet normal -0.290290 0.000000 -0.956939
outer loop
vertex 13.002511 9.052849 31.390738
vertex 13.002511 -9.052853 31.390738
vertex 6.628592 -9.052853 33.324284
endloop
endfacet
facet normal -0.098028 0.000000 -0.995184
outer loop
vertex -0.000013 -9.052853 33.977215
vertex -0.000013 9.052849 33.977215
vertex 6.628592 9.052849 33.324284
endloop
endfacet
facet normal -0.098028 0.000000 -0.995184
outer loop
vertex 6.628592 9.052849 33.324284
vertex 6.628592 -9.052853 33.324284
vertex -0.000013 -9.052853 33.977215
endloop
endfacet
facet normal 0.098029 0.000000 -0.995184
outer loop
vertex -6.628617 -9.052853 33.324276
vertex -6.628617 9.052849 33.324276
vertex -0.000013 9.052849 33.977215
endloop
endfacet
facet normal 0.098030 0.000000 -0.995184
outer loop
vertex -0.000013 9.052849 33.977215
vertex -0.000013 -9.052853 33.977215
vertex -6.628617 -9.052853 33.324276
endloop
endfacet
facet normal 0.290291 0.000000 -0.956939
outer loop
vertex -13.002533 -9.052853 31.390728
vertex -13.002533 9.052849 31.390728
vertex -6.628617 9.052849 33.324276
endloop
endfacet
facet normal 0.290290 0.000000 -0.956939
outer loop
vertex -6.628617 9.052849 33.324276
vertex -6.628617 -9.052853 33.324276
vertex -13.002533 -9.052853 31.390728
endloop
endfacet
facet normal 0.471391 0.000000 -0.881925
outer loop
vertex -18.876831 -9.052853 28.250898
vertex -18.876831 9.052849 28.250898
vertex -13.002533 9.052849 31.390728
endloop
endfacet
facet normal 0.471391 0.000000 -0.881924
outer loop
vertex -13.002533 9.052849 31.390728
vertex -13.002533 -9.052853 31.390728
vertex -18.876831 -9.052853 28.250898
endloop
endfacet
facet normal 0.634389 -0.000009 -0.773014
outer loop
vertex -24.025656 -9.052853 24.025620
vertex -24.025412 9.052849 24.025620
vertex -18.876831 9.052849 28.250898
endloop
endfacet
facet normal 0.634370 0.000000 -0.773029
outer loop
vertex -18.876831 9.052849 28.250898
vertex -18.876831 -9.052853 28.250898
vertex -24.025656 -9.052853 24.025620
endloop
endfacet
facet normal 0.773012 0.000000 -0.634391
outer loop
vertex -28.250925 -9.052853 18.876789
vertex -28.250925 9.052849 18.876789
vertex -24.025412 9.052849 24.025620
endloop
endfacet
facet normal 0.773030 -0.000010 -0.634369
outer loop
vertex -24.025412 9.052849 24.025620
vertex -24.025656 -9.052853 24.025620
vertex -28.250925 -9.052853 18.876789
endloop
endfacet
facet normal 0.881925 0.000000 -0.471390
outer loop
vertex -31.390749 -9.052853 13.002487
vertex -31.390749 9.052849 13.002487
vertex -28.250925 9.052849 18.876789
endloop
endfacet
facet normal 0.881925 0.000000 -0.471390
outer loop
vertex -28.250925 9.052849 18.876789
vertex -28.250925 -9.052853 18.876789
vertex -31.390749 -9.052853 13.002487
endloop
endfacet
facet normal 0.956939 0.000000 -0.290289
outer loop
vertex -33.324287 -9.052853 6.628567
vertex -33.324287 9.052849 6.628567
vertex -31.390749 9.052849 13.002487
endloop
endfacet
facet normal 0.956939 0.000000 -0.290289
outer loop
vertex -31.390749 9.052849 13.002487
vertex -31.390749 -9.052853 13.002487
vertex -33.324287 -9.052853 6.628567
endloop
endfacet
facet normal 0.995184 0.000000 -0.098027
outer loop
vertex -33.977215 -9.052853 -0.000038
vertex -33.977215 9.052849 -0.000038
vertex -33.324287 9.052849 6.628567
endloop
endfacet
facet normal 0.995184 0.000000 -0.098027
outer loop
vertex -33.324287 9.052849 6.628567
vertex -33.324287 -9.052853 6.628567
vertex -33.977215 -9.052853 -0.000038
endloop
endfacet
facet normal 0.995183 0.000000 0.098029
outer loop
vertex -33.324272 -9.052853 -6.628643
vertex -33.324272 9.052849 -6.628643
vertex -33.977215 9.052849 -0.000038
endloop
endfacet
facet normal 0.995183 0.000000 0.098029
outer loop
vertex -33.977215 9.052849 -0.000038
vertex -33.977215 -9.052853 -0.000038
vertex -33.324272 -9.052853 -6.628643
endloop
endfacet
facet normal 0.956938 0.000000 0.290292
outer loop
vertex -31.390717 -9.052853 -13.002557
vertex -31.390717 9.052849 -13.002557
vertex -33.324272 9.052849 -6.628643
endloop
endfacet
facet normal 0.956938 0.000000 0.290292
outer loop
vertex -33.324272 9.052849 -6.628643
vertex -33.324272 -9.052853 -6.628643
vertex -31.390717 -9.052853 -13.002557
endloop
endfacet
facet normal 0.881924 0.000000 0.471392
outer loop
vertex -28.250883 -9.052853 -18.876856
vertex -28.250883 9.052849 -18.876856
vertex -31.390717 9.052849 -13.002557
endloop
endfacet
facet normal 0.881924 0.000000 0.471391
outer loop
vertex -31.390717 9.052849 -13.002557
vertex -31.390717 -9.052853 -13.002557
vertex -28.250883 -9.052853 -18.876856
endloop
endfacet
facet normal 0.773014 0.000000 0.634389
outer loop
vertex -24.025604 -9.052853 -24.025429
vertex -24.025604 9.052849 -24.025429
vertex -28.250883 9.052849 -18.876856
endloop
endfacet
facet normal 0.773014 0.000000 0.634389
outer loop
vertex -28.250883 9.052849 -18.876856
vertex -28.250883 -9.052853 -18.876856
vertex -24.025604 -9.052853 -24.025429
endloop
endfacet
facet normal 0.634391 0.000000 0.773013
outer loop
vertex -18.876770 -9.052853 -28.250938
vertex -18.876770 9.052849 -28.250938
vertex -24.025604 9.052849 -24.025429
endloop
endfacet
facet normal 0.634391 0.000000 0.773013
outer loop
vertex -24.025604 9.052849 -24.025429
vertex -24.025604 -9.052853 -24.025429
vertex -18.876770 -9.052853 -28.250938
endloop
endfacet
facet normal 0.471389 0.000000 0.881925
outer loop
vertex -13.002462 -9.052853 -31.390759
vertex -13.002462 9.052849 -31.390759
vertex -18.876770 9.052849 -28.250938
endloop
endfacet
facet normal 0.471389 0.000000 0.881925
outer loop
vertex -18.876770 9.052849 -28.250938
vertex -18.876770 -9.052853 -28.250938
vertex -13.002462 -9.052853 -31.390759
endloop
endfacet
facet normal 0.290288 0.000000 0.956939
outer loop
vertex -6.628542 -9.052853 -33.324295
vertex -6.628542 9.052849 -33.324295
vertex -13.002462 9.052849 -31.390759
endloop
endfacet
facet normal 0.290290 0.000000 0.956939
outer loop
vertex -13.002462 9.052849 -31.390759
vertex -13.002462 -9.052853 -31.390759
vertex -6.628542 -9.052853 -33.324295
endloop
endfacet
facet normal 0.098006 0.000000 -0.995186
outer loop
vertex 0.000000 9.347145 -30.022783
vertex 5.857178 9.347145 -29.445971
vertex 5.857178 -9.052853 -29.445971
endloop
endfacet
facet normal 0.098005 0.000000 -0.995186
outer loop
vertex 5.857178 -9.052853 -29.445971
vertex 0.000000 -9.052853 -30.022783
vertex 0.000000 9.347145 -30.022783
endloop
endfacet
facet normal -0.098005 0.000000 -0.995186
outer loop
vertex -5.857142 9.347145 -29.445976
vertex 0.000000 9.347145 -30.022783
vertex 0.000000 -9.052853 -30.022783
endloop
endfacet
facet normal -0.098004 0.000000 -0.995186
outer loop
vertex 0.000000 -9.052853 -30.022783
vertex -5.857142 -9.052853 -29.445976
vertex -5.857142 9.347145 -29.445976
endloop
endfacet
facet normal 0.000000 1.000000 0.000001
outer loop
vertex 0.000000 9.347145 -30.022783
vertex 11.489223 9.347145 -27.737551
vertex 5.857178 9.347145 -29.445971
endloop
endfacet
facet normal 0.000000 1.000000 -0.000001
outer loop
vertex 21.229193 9.347145 -21.229193
vertex 16.679680 9.347145 -24.963144
vertex 11.489223 9.347145 -27.737551
endloop
endfacet
facet normal 0.000000 1.000000 0.000000
outer loop
vertex 27.737551 9.347145 -11.489223
vertex 24.963144 9.347145 -16.679678
vertex 21.229193 9.347145 -21.229193
endloop
endfacet
facet normal 0.000000 1.000000 0.000000
outer loop
vertex 30.022783 9.347145 -0.000002
vertex 29.445971 9.347145 -5.857179
vertex 27.737551 9.347145 -11.489223
endloop
endfacet
facet normal 0.000000 1.000000 -0.000000
outer loop
vertex 27.737551 9.347145 11.489219
vertex 29.445971 9.347145 5.857175
vertex 30.022783 9.347145 -0.000002
endloop
endfacet
facet normal 0.000000 1.000000 0.000001
outer loop
vertex 21.229193 9.347145 21.229193
vertex 24.963144 9.347145 16.679678
vertex 27.737551 9.347145 11.489219
endloop
endfacet
facet normal 0.000000 1.000000 -0.000001
outer loop
vertex 11.489219 9.347145 27.737553
vertex 16.679678 9.347145 24.963144
vertex 21.229193 9.347145 21.229193
endloop
endfacet
facet normal 0.000000 1.000000 -0.000002
outer loop
vertex -0.000008 9.347145 30.022783
vertex 5.857172 9.347145 29.445971
vertex 11.489219 9.347145 27.737553
endloop
endfacet
facet normal 0.000000 1.000000 0.000001
outer loop
vertex -11.489233 9.347145 27.737545
vertex -5.857188 9.347145 29.445971
vertex -0.000008 9.347145 30.022783
endloop
endfacet
facet normal 0.000000 1.000000 0.000000
outer loop
vertex -21.229204 9.347145 21.229183
vertex -16.679691 9.347145 24.963139
vertex -11.489233 9.347145 27.737545
endloop
endfacet
facet normal 0.000000 1.000000 0.000000
outer loop
vertex -27.737562 9.347145 11.489202
vertex -24.963152 9.347145 16.679665
vertex -21.229204 9.347145 21.229183
endloop
endfacet
facet normal 0.000000 1.000000 -0.000000
outer loop
vertex -30.022783 9.347145 -0.000023
vertex -29.445974 9.347145 5.857157
vertex -27.737562 9.347145 11.489202
endloop
endfacet
facet normal 0.000000 1.000000 -0.000000
outer loop
vertex -27.737539 9.347145 -11.489246
vertex -29.445965 9.347145 -5.857203
vertex -30.022783 9.347145 -0.000023
endloop
endfacet
facet normal 0.000000 1.000000 0.000000
outer loop
vertex -21.229172 9.347145 -21.229460
vertex -24.963123 9.347145 -16.679707
vertex -27.737539 9.347145 -11.489246
endloop
endfacet
facet normal 0.000000 1.000000 0.000000
outer loop
vertex -11.489189 9.347145 -27.737564
vertex -16.679655 9.347145 -24.963163
vertex -21.229172 9.347145 -21.229460
endloop
endfacet
facet normal 0.000000 1.000000 -0.000001
outer loop
vertex 0.000000 9.347145 -30.022783
vertex -5.857142 9.347145 -29.445976
vertex -11.489189 9.347145 -27.737564
endloop
endfacet
facet normal 0.000000 1.000000 0.000000
outer loop
vertex 0.000000 9.347145 -30.022783
vertex 21.229193 9.347145 -21.229193
vertex 11.489223 9.347145 -27.737551
endloop
endfacet
facet normal 0.000000 1.000000 -0.000000
outer loop
vertex 30.022783 9.347145 -0.000002
vertex 27.737551 9.347145 -11.489223
vertex 21.229193 9.347145 -21.229193
endloop
endfacet
facet normal 0.000000 1.000000 0.000000
outer loop
vertex 21.229193 9.347145 21.229193
vertex 27.737551 9.347145 11.489219
vertex 30.022783 9.347145 -0.000002
endloop
endfacet
facet normal 0.000000 1.000000 0.000000
outer loop
vertex -0.000008 9.347145 30.022783
vertex 11.489219 9.347145 27.737553
vertex 21.229193 9.347145 21.229193
endloop
endfacet
facet normal 0.000000 1.000000 -0.000000
outer loop
vertex -21.229204 9.347145 21.229183
vertex -11.489233 9.347145 27.737545
vertex -0.000008 9.347145 30.022783
endloop
endfacet
facet normal 0.000000 1.000000 0.000000
outer loop
vertex -30.022783 9.347145 -0.000023
vertex -27.737562 9.347145 11.489202
vertex -21.229204 9.347145 21.229183
endloop
endfacet
facet normal 0.000000 1.000000 0.000000
outer loop
vertex -21.229172 9.347145 -21.229460
vertex -27.737539 9.347145 -11.489246
vertex -30.022783 9.347145 -0.000023
endloop
endfacet
facet normal 0.000000 1.000000 0.000000
outer loop
vertex 0.000000 9.347145 -30.022783
vertex -11.489189 9.347145 -27.737564
vertex -21.229172 9.347145 -21.229460
endloop
endfacet
facet normal 0.000000 1.000000 -0.000000
outer loop
vertex 0.000000 9.347145 -30.022783
vertex 30.022783 9.347145 -0.000002
vertex 21.229193 9.347145 -21.229193
endloop
endfacet
facet normal 0.000000 1.000000 -0.000000
outer loop
vertex -0.000008 9.347145 30.022783
vertex 21.229193 9.347145 21.229193
vertex 30.022783 9.347145 -0.000002
endloop
endfacet
facet normal 0.000000 1.000000 0.000000
outer loop
vertex -30.022783 9.347145 -0.000023
vertex -21.229204 9.347145 21.229183
vertex -0.000008 9.347145 30.022783
endloop
endfacet
facet normal 0.000000 1.000000 -0.000000
outer loop
vertex 0.000000 9.347145 -30.022783
vertex -21.229172 9.347145 -21.229460
vertex -30.022783 9.347145 -0.000023
endloop
endfacet
facet normal 0.000000 1.000000 0.000000
outer loop
vertex 0.000000 9.347145 -30.022783
vertex -0.000008 9.347145 30.022783
vertex 30.022783 9.347145 -0.000002
endloop
endfacet
facet normal 0.000000 1.000000 0.000000
outer loop
vertex 0.000000 9.347145 -30.022783
vertex -30.022783 9.347145 -0.000023
vertex -0.000008 9.347145 30.022783
endloop
endfacet
facet normal 0.290278 0.000000 -0.956942
outer loop
vertex 5.857178 9.347145 -29.445971
vertex 11.489223 9.347145 -27.737551
vertex 11.489223 -9.052853 -27.737551
endloop
endfacet
facet normal 0.290278 0.000000 -0.956942
outer loop
vertex 11.489223 -9.052853 -27.737551
vertex 5.857178 -9.052853 -29.445971
vertex 5.857178 9.347145 -29.445971
endloop
endfacet
facet normal -0.290277 0.000000 -0.956943
outer loop
vertex -11.489189 9.347145 -27.737564
vertex -5.857142 9.347145 -29.445976
vertex -5.857142 -9.052853 -29.445976
endloop
endfacet
facet normal -0.290277 0.000000 -0.956943
outer loop
vertex -5.857142 -9.052853 -29.445976
vertex -11.489189 -9.052853 -27.737564
vertex -11.489189 9.347145 -27.737564
endloop
endfacet
facet normal -0.471402 0.000000 -0.881919
outer loop
vertex -16.679655 9.347145 -24.963163
vertex -11.489189 9.347145 -27.737564
vertex -11.489189 -9.052853 -27.737564
endloop
endfacet
facet normal -0.471402 0.000000 -0.881918
outer loop
vertex -11.489189 -9.052853 -27.737564
vertex -16.679655 -9.052853 -24.963163
vertex -16.679655 9.347145 -24.963163
endloop
endfacet
facet normal -0.634394 0.000000 -0.773009
outer loop
vertex -21.229172 9.347145 -21.229460
vertex -16.679655 9.347145 -24.963163
vertex -16.679655 -9.052853 -24.963163
endloop
endfacet
facet normal -0.634394 0.000000 -0.773009
outer loop
vertex -16.679655 -9.052853 -24.963163
vertex -21.229172 -9.052853 -21.229460
vertex -21.229172 9.347145 -21.229460
endloop
endfacet
facet normal -0.773005 0.000000 -0.634400
outer loop
vertex -24.963123 9.347145 -16.679707
vertex -21.229172 9.347145 -21.229460
vertex -21.229172 -9.052853 -21.229460
endloop
endfacet
facet normal -0.773005 0.000000 -0.634400
outer loop
vertex -21.229172 -9.052853 -21.229460
vertex -24.963123 -9.052853 -16.679707
vertex -24.963123 9.347145 -16.679707
endloop
endfacet
facet normal -0.881917 0.000000 -0.471404
outer loop
vertex -27.737539 9.347145 -11.489246
vertex -24.963123 9.347145 -16.679707
vertex -24.963123 -9.052853 -16.679707
endloop
endfacet
facet normal -0.881917 0.000000 -0.471404
outer loop
vertex -24.963123 -9.052853 -16.679707
vertex -27.737539 -9.052853 -11.489246
vertex -27.737539 9.347145 -11.489246
endloop
endfacet
facet normal -0.956942 0.000000 -0.290279
outer loop
vertex -29.445965 9.347145 -5.857203
vertex -27.737539 9.347145 -11.489246
vertex -27.737539 -9.052853 -11.489246
endloop
endfacet
facet normal -0.956942 0.000000 -0.290279
outer loop
vertex -27.737539 -9.052853 -11.489246
vertex -29.445965 -9.052853 -5.857203
vertex -29.445965 9.347145 -5.857203
endloop
endfacet
facet normal -0.995186 0.000000 -0.098006
outer loop
vertex -30.022783 9.347145 -0.000023
vertex -29.445965 9.347145 -5.857203
vertex -29.445965 -9.052853 -5.857203
endloop
endfacet
facet normal -0.999104 -0.019333 -0.037658
outer loop
vertex -29.445965 -9.052853 -5.857203
vertex -29.668533 -8.959721 -0.000023
vertex -30.022783 9.347145 -0.000023
endloop
endfacet
facet normal -0.995001 -0.019254 0.097987
outer loop
vertex -29.445974 9.347145 5.857157
vertex -30.022783 9.347145 -0.000023
vertex -29.668533 -8.959721 -0.000023
endloop
endfacet
facet normal -0.999279 0.000000 0.037970
outer loop
vertex -29.668533 -8.959721 -0.000023
vertex -29.445974 -9.052853 5.857157
vertex -29.445974 9.347145 5.857157
endloop
endfacet
facet normal -0.956943 0.000000 0.290277
outer loop
vertex -27.737562 9.347145 11.489202
vertex -29.445974 9.347145 5.857157
vertex -29.445974 -9.052853 5.857157
endloop
endfacet
facet normal -0.956943 0.000000 0.290277
outer loop
vertex -29.445974 -9.052853 5.857157
vertex -27.737562 -9.052853 11.489202
vertex -27.737562 9.347145 11.489202
endloop
endfacet
facet normal -0.881918 0.000000 0.471404
outer loop
vertex -24.963152 9.347145 16.679665
vertex -27.737562 9.347145 11.489202
vertex -27.737562 -9.052853 11.489202
endloop
endfacet
facet normal -0.881918 0.000000 0.471403
outer loop
vertex -27.737562 -9.052853 11.489202
vertex -24.963152 -9.052853 16.679665
vertex -24.963152 9.347145 16.679665
endloop
endfacet
facet normal -0.772989 0.000000 0.634419
outer loop
vertex -21.229204 9.347145 21.229183
vertex -24.963152 9.347145 16.679665
vertex -24.963152 -9.052853 16.679665
endloop
endfacet
facet normal -0.772989 0.000000 0.634419
outer loop
vertex -24.963152 -9.052853 16.679665
vertex -21.229204 -9.052853 21.229183
vertex -21.229204 9.347145 21.229183
endloop
endfacet
facet normal -0.634420 0.000000 0.772988
outer loop
vertex -16.679691 9.347145 24.963139
vertex -21.229204 9.347145 21.229183
vertex -21.229204 -9.052853 21.229183
endloop
endfacet
facet normal -0.634420 0.000000 0.772988
outer loop
vertex -21.229204 -9.052853 21.229183
vertex -16.679691 -9.052853 24.963139
vertex -16.679691 9.347145 24.963139
endloop
endfacet
facet normal -0.471403 0.000000 0.881918
outer loop
vertex -11.489233 9.347145 27.737545
vertex -16.679691 9.347145 24.963139
vertex -16.679691 -9.052853 24.963139
endloop
endfacet
facet normal -0.471403 0.000000 0.881918
outer loop
vertex -16.679691 -9.052853 24.963139
vertex -11.489233 -9.052853 27.737545
vertex -11.489233 9.347145 27.737545
endloop
endfacet
facet normal -0.290280 0.000000 0.956942
outer loop
vertex -5.857188 9.347145 29.445971
vertex -11.489233 9.347145 27.737545
vertex -11.489233 -9.052853 27.737545
endloop
endfacet
facet normal -0.290278 0.000000 0.956942
outer loop
vertex -11.489233 -9.052853 27.737545
vertex -5.857188 -9.052853 29.445971
vertex -5.857188 9.347145 29.445971
endloop
endfacet
facet normal -0.098006 0.000000 0.995186
outer loop
vertex -0.000008 9.347145 30.022783
vertex -5.857188 9.347145 29.445971
vertex -5.857188 -9.052853 29.445971
endloop
endfacet
facet normal -0.098005 0.000000 0.995186
outer loop
vertex -5.857188 -9.052853 29.445971
vertex -0.000008 -9.052853 30.022783
vertex -0.000008 9.347145 30.022783
endloop
endfacet
facet normal 0.098005 0.000000 0.995186
outer loop
vertex 5.857172 9.347145 29.445971
vertex -0.000008 9.347145 30.022783
vertex -0.000008 -9.052853 30.022783
endloop
endfacet
facet normal 0.098006 0.000000 0.995186
outer loop
vertex -0.000008 -9.052853 30.022783
vertex 5.857172 -9.052853 29.445971
vertex 5.857172 9.347145 29.445971
endloop
endfacet
facet normal 0.290277 0.000000 0.956943
outer loop
vertex 11.489219 9.347145 27.737553
vertex 5.857172 9.347145 29.445971
vertex 5.857172 -9.052853 29.445971
endloop
endfacet
facet normal 0.290278 0.000000 0.956942
outer loop
vertex 5.857172 -9.052853 29.445971
vertex 11.489219 -9.052853 27.737553
vertex 11.489219 9.347145 27.737553
endloop
endfacet
facet normal 0.471403 0.000000 0.881918
outer loop
vertex 16.679678 9.347145 24.963144
vertex 11.489219 9.347145 27.737553
vertex 11.489219 -9.052853 27.737553
endloop
endfacet
facet normal 0.471404 0.000000 0.881918
outer loop
vertex 11.489219 -9.052853 27.737553
vertex 16.679678 -9.052853 24.963144
vertex 16.679678 9.347145 24.963144
endloop
endfacet
facet normal 0.634420 0.000000 0.772989
outer loop
vertex 21.229193 9.347145 21.229193
vertex 16.679678 9.347145 24.963144
vertex 16.679678 -9.052853 24.963144
endloop
endfacet
facet normal 0.634420 0.000000 0.772989
outer loop
vertex 16.679678 -9.052853 24.963144
vertex 21.229193 -9.052853 21.229193
vertex 21.229193 9.347145 21.229193
endloop
endfacet
facet normal 0.772989 0.000000 0.634420
outer loop
vertex 24.963144 9.347145 16.679678
vertex 21.229193 9.347145 21.229193
vertex 21.229193 -9.052853 21.229193
endloop
endfacet
facet normal 0.772989 0.000000 0.634420
outer loop
vertex 21.229193 -9.052853 21.229193
vertex 24.963144 -9.052853 16.679678
vertex 24.963144 9.347145 16.679678
endloop
endfacet
facet normal 0.881918 0.000000 0.471403
outer loop
vertex 27.737551 9.347145 11.489219
vertex 24.963144 9.347145 16.679678
vertex 24.963144 -9.052853 16.679678
endloop
endfacet
facet normal 0.881918 0.000000 0.471403
outer loop
vertex 24.963144 -9.052853 16.679678
vertex 27.737551 -9.052853 11.489219
vertex 27.737551 9.347145 11.489219
endloop
endfacet
facet normal 0.956942 0.000000 0.290278
outer loop
vertex 29.445971 9.347145 5.857175
vertex 27.737551 9.347145 11.489219
vertex 27.737551 -9.052853 11.489219
endloop
endfacet
facet normal 0.960074 -0.003521 0.279724
outer loop
vertex 27.737551 -9.052853 11.489219
vertex 29.382250 -9.034878 5.844480
vertex 29.445971 9.347145 5.857175
endloop
endfacet
facet normal 0.995180 -0.003517 0.098005
outer loop
vertex 30.022783 9.347145 -0.000002
vertex 29.445971 9.347145 5.857175
vertex 29.382250 -9.034878 5.844480
endloop
endfacet
facet normal 0.994048 0.000000 0.108944
outer loop
vertex 29.382250 -9.034878 5.844480
vertex 30.022783 -9.052853 -0.000002
vertex 30.022783 9.347145 -0.000002
endloop
endfacet
facet normal 0.995186 0.000000 -0.098006
outer loop
vertex 29.445971 9.347145 -5.857179
vertex 30.022783 9.347145 -0.000002
vertex 30.022783 -9.052853 -0.000002
endloop
endfacet
facet normal 0.995186 0.000000 -0.098006
outer loop
vertex 30.022783 -9.052853 -0.000002
vertex 29.445971 -9.052853 -5.857179
vertex 29.445971 9.347145 -5.857179
endloop
endfacet
facet normal 0.956942 0.000000 -0.290278
outer loop
vertex 27.737551 9.347145 -11.489223
vertex 29.445971 9.347145 -5.857179
vertex 29.445971 -9.052853 -5.857179
endloop
endfacet
facet normal 0.956942 0.000000 -0.290278
outer loop
vertex 29.445971 -9.052853 -5.857179
vertex 27.737551 -9.052853 -11.489223
vertex 27.737551 9.347145 -11.489223
endloop
endfacet
facet normal 0.881918 0.000000 -0.471403
outer loop
vertex 24.963144 9.347145 -16.679678
vertex 27.737551 9.347145 -11.489223
vertex 27.737551 -9.052853 -11.489223
endloop
endfacet
facet normal 0.881918 0.000000 -0.471403
outer loop
vertex 27.737551 -9.052853 -11.489223
vertex 24.963144 -9.052853 -16.679678
vertex 24.963144 9.347145 -16.679678
endloop
endfacet
facet normal 0.772989 0.000000 -0.634420
outer loop
vertex 21.229193 9.347145 -21.229193
vertex 24.963144 9.347145 -16.679678
vertex 24.963144 -9.052853 -16.679678
endloop
endfacet
facet normal 0.772989 0.000000 -0.634420
outer loop
vertex 24.963144 -9.052853 -16.679678
vertex 21.229193 -9.052853 -21.229193
vertex 21.229193 9.347145 -21.229193
endloop
endfacet
facet normal 0.634420 0.000000 -0.772988
outer loop
vertex 16.679680 9.347145 -24.963144
vertex 21.229193 9.347145 -21.229193
vertex 21.229193 -9.052853 -21.229193
endloop
endfacet
facet normal 0.634420 0.000000 -0.772988
outer loop
vertex 21.229193 -9.052853 -21.229193
vertex 16.679680 -9.052853 -24.963144
vertex 16.679680 9.347145 -24.963144
endloop
endfacet
facet normal 0.471403 0.000000 -0.881918
outer loop
vertex 11.489223 9.347145 -27.737551
vertex 16.679680 9.347145 -24.963144
vertex 16.679680 -9.052853 -24.963144
endloop
endfacet
facet normal 0.471403 0.000000 -0.881918
outer loop
vertex 16.679680 -9.052853 -24.963144
vertex 11.489223 -9.052853 -27.737551
vertex 11.489223 9.347145 -27.737551
endloop
endfacet
endsolid Exported from Blender-2.74 (sub 0)
