solid Exported from Blender-2.74 (sub 0)
facet normal 0.246582 0.527662 0.812878
outer loop
vertex -1.465075 51.484116 -7.119341
vertex -2.288230 43.608929 -1.757629
vertex -1.526153 43.608929 -1.988802
endloop
endfacet
facet normal 0.246585 0.527662 0.812877
outer loop
vertex -1.526153 43.608929 -1.988802
vertex -0.997806 51.384098 -7.196162
vertex -1.465075 51.484116 -7.119341
endloop
endfacet
facet normal 0.081531 0.555072 0.827797
outer loop
vertex -1.952577 51.522770 -7.097246
vertex -3.080764 43.608929 -1.679571
vertex -2.288230 43.608929 -1.757629
endloop
endfacet
facet normal 0.081531 0.555073 0.827796
outer loop
vertex -2.288230 43.608929 -1.757629
vertex -1.465075 51.484116 -7.119341
vertex -1.952577 51.522770 -7.097246
endloop
endfacet
facet normal -0.237370 0.575624 0.782504
outer loop
vertex -2.940166 51.415039 -7.216885
vertex -4.635375 43.608929 -1.988803
vertex -3.873298 43.608929 -1.757629
endloop
endfacet
facet normal -0.237369 0.575624 0.782504
outer loop
vertex -3.873298 43.608929 -1.757629
vertex -2.448292 51.499664 -7.129929
vertex -2.940166 51.415039 -7.216885
endloop
endfacet
facet normal -0.387448 0.569612 0.724863
outer loop
vertex -3.415832 51.269798 -7.357003
vertex -5.337710 43.608929 -2.364209
vertex -4.635375 43.608929 -1.988803
endloop
endfacet
facet normal -0.387451 0.569612 0.724861
outer loop
vertex -4.635375 43.608929 -1.988803
vertex -2.940166 51.415039 -7.216885
vertex -3.415832 51.269798 -7.357003
endloop
endfacet
facet normal 0.093695 -0.293681 -0.951301
outer loop
vertex -2.288229 43.608929 -9.726301
vertex -2.290217 48.876080 -11.352548
vertex -1.733189 48.919037 -11.310947
endloop
endfacet
facet normal 0.093703 -0.293689 -0.951297
outer loop
vertex -3.080763 43.608929 -9.804359
vertex -2.329276 48.880348 -11.357713
vertex -2.290217 48.876080 -11.352548
endloop
endfacet
facet normal 0.093693 -0.293681 -0.951301
outer loop
vertex -2.288229 43.608929 -9.726301
vertex -3.080763 43.608929 -9.804359
vertex -2.290217 48.876080 -11.352548
endloop
endfacet
facet normal -0.094400 -0.268989 -0.958506
outer loop
vertex -2.329276 48.880348 -11.357713
vertex -3.080763 43.608929 -9.804359
vertex -3.873291 43.608929 -9.726304
endloop
endfacet
facet normal -0.094406 -0.268988 -0.958506
outer loop
vertex -3.873291 43.608929 -9.726304
vertex -2.905867 48.965885 -11.324928
vertex -2.329276 48.880348 -11.357713
endloop
endfacet
facet normal -0.282701 -0.227058 -0.931947
outer loop
vertex -2.905867 48.965885 -11.324928
vertex -3.873291 43.608929 -9.726304
vertex -4.635368 43.608929 -9.495131
endloop
endfacet
facet normal -0.282701 -0.227059 -0.931947
outer loop
vertex -4.635368 43.608929 -9.495131
vertex -3.449631 49.069027 -11.185109
vertex -2.905867 48.965885 -11.324928
endloop
endfacet
facet normal 0.844937 0.286555 0.451627
outer loop
vertex 0.155724 50.838879 -7.808089
vertex 0.296994 43.608929 -3.485020
vertex 0.672400 43.608929 -4.187356
endloop
endfacet
facet normal 0.844938 0.286554 0.451626
outer loop
vertex 0.672400 43.608929 -4.187356
vertex 0.408987 50.622925 -8.144893
vertex 0.155724 50.838879 -7.808089
endloop
endfacet
facet normal 0.411536 0.487691 0.769932
outer loop
vertex -0.997806 51.384098 -7.196162
vertex -1.526153 43.608929 -1.988802
vertex -0.823818 43.608929 -2.364208
endloop
endfacet
facet normal 0.411539 0.487690 0.769931
outer loop
vertex -0.823818 43.608929 -2.364208
vertex -0.563022 51.223824 -7.327038
vertex -0.997806 51.384098 -7.196162
endloop
endfacet
facet normal -0.080478 0.570847 0.817103
outer loop
vertex -2.448292 51.499664 -7.129929
vertex -3.873298 43.608929 -1.757629
vertex -3.080764 43.608929 -1.679571
endloop
endfacet
facet normal -0.080480 0.570847 0.817103
outer loop
vertex -3.080764 43.608929 -1.679571
vertex -1.952577 51.522770 -7.097246
vertex -2.448292 51.499664 -7.129929
endloop
endfacet
facet normal -0.528754 0.552548 0.644290
outer loop
vertex -3.862341 51.065704 -7.548411
vertex -5.953310 43.608929 -2.869421
vertex -5.337710 43.608929 -2.364209
endloop
endfacet
facet normal -0.528754 0.552547 0.644291
outer loop
vertex -5.337710 43.608929 -2.364209
vertex -3.415832 51.269798 -7.357003
vertex -3.862341 51.065704 -7.548411
endloop
endfacet
facet normal -0.464681 -0.168167 -0.869362
outer loop
vertex -3.449631 49.069027 -11.185109
vertex -4.635368 43.608929 -9.495131
vertex -5.337703 43.608929 -9.119726
endloop
endfacet
facet normal -0.464681 -0.168169 -0.869362
outer loop
vertex -5.337703 43.608929 -9.119726
vertex -3.938795 49.185173 -10.946115
vertex -3.449631 49.069027 -11.185109
endloop
endfacet
facet normal 0.276801 -0.301238 -0.912489
outer loop
vertex -1.159928 48.998287 -11.163213
vertex -1.526152 43.608929 -9.495128
vertex -2.288229 43.608929 -9.726301
endloop
endfacet
facet normal 0.276800 -0.301238 -0.912490
outer loop
vertex -2.288229 43.608929 -9.726301
vertex -1.733189 48.919037 -11.310947
vertex -1.159928 48.998287 -11.163213
endloop
endfacet
facet normal 0.450890 -0.291733 -0.843558
outer loop
vertex -0.635528 49.106731 -10.920419
vertex -0.823818 43.608929 -9.119722
vertex -1.526152 43.608929 -9.495128
endloop
endfacet
facet normal 0.450891 -0.291733 -0.843557
outer loop
vertex -1.526152 43.608929 -9.495128
vertex -1.159928 48.998287 -11.163213
vertex -0.635528 49.106731 -10.920419
endloop
endfacet
facet normal 0.611699 -0.265077 -0.745358
outer loop
vertex -0.181724 49.239067 -10.595056
vertex -0.208216 43.608929 -8.614511
vertex -0.823818 43.608929 -9.119722
endloop
endfacet
facet normal 0.611699 -0.265077 -0.745358
outer loop
vertex -0.823818 43.608929 -9.119722
vertex -0.635528 49.106731 -10.920419
vertex -0.181724 49.239067 -10.595056
endloop
endfacet
facet normal 0.753864 -0.221184 -0.618682
outer loop
vertex 0.184053 49.389084 -10.202988
vertex 0.296994 43.608929 -7.998911
vertex -0.208216 43.608929 -8.614511
endloop
endfacet
facet normal 0.753866 -0.221184 -0.618679
outer loop
vertex -0.208216 43.608929 -8.614511
vertex -0.181724 49.239067 -10.595056
vertex 0.184053 49.389084 -10.202988
endloop
endfacet
facet normal 0.870500 -0.160415 -0.465291
outer loop
vertex 0.449278 49.550095 -9.762296
vertex 0.672400 43.608929 -7.296577
vertex 0.296994 43.608929 -7.998911
endloop
endfacet
facet normal 0.870501 -0.160415 -0.465291
outer loop
vertex 0.296994 43.608929 -7.998911
vertex 0.184053 49.389084 -10.202988
vertex 0.449278 49.550095 -9.762296
endloop
endfacet
facet normal 0.953540 -0.084235 -0.289252
outer loop
vertex 0.903573 43.608929 -6.534500
vertex 0.528356 49.633194 -9.525812
vertex 0.602980 49.787704 -9.324803
endloop
endfacet
facet normal 0.953539 -0.084237 -0.289255
outer loop
vertex 0.672400 43.608929 -7.296577
vertex 0.449278 49.550095 -9.762296
vertex 0.528356 49.633194 -9.525812
endloop
endfacet
facet normal 0.953539 -0.084236 -0.289253
outer loop
vertex 0.903573 43.608929 -6.534500
vertex 0.672400 43.608929 -7.296577
vertex 0.528356 49.633194 -9.525812
endloop
endfacet
facet normal 0.995176 0.004151 -0.098017
outer loop
vertex 0.642067 50.089756 -8.915164
vertex 0.981631 43.608929 -5.741966
vertex 0.903573 43.608929 -6.534500
endloop
endfacet
facet normal 0.995176 0.004151 -0.098017
outer loop
vertex 0.903573 43.608929 -6.534500
vertex 0.602980 49.787704 -9.324803
vertex 0.642067 50.089756 -8.915164
endloop
endfacet
facet normal 0.990233 0.099636 0.097529
outer loop
vertex 0.574604 50.371002 -8.517522
vertex 0.903574 43.608929 -4.949432
vertex 0.981631 43.608929 -5.741966
endloop
endfacet
facet normal 0.990233 0.099636 0.097528
outer loop
vertex 0.981631 43.608929 -5.741966
vertex 0.642067 50.089756 -8.915164
vertex 0.574604 50.371002 -8.517522
endloop
endfacet
facet normal 0.938406 0.195859 0.284663
outer loop
vertex 0.408987 50.622925 -8.144893
vertex 0.672400 43.608929 -4.187356
vertex 0.903574 43.608929 -4.949432
endloop
endfacet
facet normal 0.938406 0.195859 0.284663
outer loop
vertex 0.903574 43.608929 -4.949432
vertex 0.574604 50.371002 -8.517522
vertex 0.408987 50.622925 -8.144893
endloop
endfacet
facet normal 0.719095 0.366922 0.590145
outer loop
vertex -0.173373 51.013832 -7.515859
vertex -0.208216 43.608929 -2.869419
vertex 0.296994 43.608929 -3.485020
endloop
endfacet
facet normal 0.719094 0.366922 0.590145
outer loop
vertex 0.296994 43.608929 -3.485020
vertex 0.155724 50.838879 -7.808089
vertex -0.173373 51.013832 -7.515859
endloop
endfacet
facet normal 0.571458 0.434243 0.696325
outer loop
vertex -0.823818 43.608929 -2.364208
vertex -0.210777 51.026260 -7.492912
vertex -0.563022 51.223824 -7.327038
endloop
endfacet
facet normal 0.571461 0.434241 0.696324
outer loop
vertex -0.208216 43.608929 -2.869419
vertex -0.173373 51.013832 -7.515859
vertex -0.210777 51.026260 -7.492912
endloop
endfacet
facet normal 0.571459 0.434242 0.696325
outer loop
vertex -0.823818 43.608929 -2.364208
vertex -0.208216 43.608929 -2.869419
vertex -0.210777 51.026260 -7.492912
endloop
endfacet
facet normal -0.658504 0.523755 0.540420
outer loop
vertex -4.265992 50.805641 -7.788218
vertex -6.458522 43.608929 -3.485022
vertex -5.953310 43.608929 -2.869421
endloop
endfacet
facet normal -0.658505 0.523757 0.540416
outer loop
vertex -5.953310 43.608929 -2.869421
vertex -3.862341 51.065704 -7.548411
vertex -4.265992 50.805641 -7.788218
endloop
endfacet
facet normal -0.772562 0.482288 0.412973
outer loop
vertex -6.833927 43.608929 -4.187358
vertex -4.544292 50.555214 -8.016406
vertex -4.606668 50.511459 -8.082000
endloop
endfacet
facet normal -0.772577 0.482288 0.412944
outer loop
vertex -6.458522 43.608929 -3.485022
vertex -4.265992 50.805641 -7.788218
vertex -4.544292 50.555214 -8.016406
endloop
endfacet
facet normal -0.772574 0.482289 0.412950
outer loop
vertex -6.833927 43.608929 -4.187358
vertex -6.458522 43.608929 -3.485022
vertex -4.544292 50.555214 -8.016406
endloop
endfacet
facet normal -0.865197 0.427260 0.262454
outer loop
vertex -4.852628 50.237724 -8.447199
vertex -7.065099 43.608929 -4.949435
vertex -6.833927 43.608929 -4.187358
endloop
endfacet
facet normal -0.865199 0.427261 0.262449
outer loop
vertex -6.833927 43.608929 -4.187358
vertex -4.606668 50.511459 -8.082000
vertex -4.852628 50.237724 -8.447199
endloop
endfacet
facet normal -0.929062 0.358408 0.091583
outer loop
vertex -7.143157 43.608929 -5.741970
vertex -5.007178 49.931686 -8.817801
vertex -5.011288 49.925339 -8.834662
endloop
endfacet
facet normal -0.929080 0.358380 0.091506
outer loop
vertex -7.065099 43.608929 -4.949435
vertex -4.852628 50.237724 -8.447199
vertex -5.007178 49.931686 -8.817801
endloop
endfacet
facet normal -0.929080 0.358380 0.091507
outer loop
vertex -7.143157 43.608929 -5.741970
vertex -7.065099 43.608929 -4.949435
vertex -5.007178 49.931686 -8.817801
endloop
endfacet
facet normal -0.956341 0.276658 -0.094193
outer loop
vertex -5.024610 49.722443 -9.295335
vertex -7.065097 43.608929 -6.534503
vertex -7.143157 43.608929 -5.741970
endloop
endfacet
facet normal -0.956341 0.276657 -0.094195
outer loop
vertex -7.143157 43.608929 -5.741970
vertex -5.011288 49.925339 -8.834662
vertex -5.024610 49.722443 -9.295335
endloop
endfacet
facet normal -0.940411 0.185051 -0.285278
outer loop
vertex -6.833923 43.608929 -7.296581
vertex -4.989023 49.633194 -9.470542
vertex -4.913151 49.561626 -9.767085
endloop
endfacet
facet normal -0.940412 0.185052 -0.285274
outer loop
vertex -7.065097 43.608929 -6.534503
vertex -5.024610 49.722443 -9.295335
vertex -4.989023 49.633194 -9.470542
endloop
endfacet
facet normal -0.940414 0.185051 -0.285268
outer loop
vertex -6.833923 43.608929 -7.296581
vertex -7.065097 43.608929 -6.534503
vertex -4.989023 49.633194 -9.470542
endloop
endfacet
facet normal -0.878455 0.088582 -0.469542
outer loop
vertex -4.683107 49.436501 -10.221072
vertex -6.458518 43.608929 -7.998916
vertex -6.833923 43.608929 -7.296581
endloop
endfacet
facet normal -0.878453 0.088583 -0.469546
outer loop
vertex -6.833923 43.608929 -7.296581
vertex -4.913151 49.561626 -9.767085
vertex -4.683107 49.436501 -10.221072
endloop
endfacet
facet normal -0.772993 -0.006404 -0.634382
outer loop
vertex -4.354836 49.309364 -10.619786
vertex -5.953305 43.608929 -8.614515
vertex -6.458518 43.608929 -7.998916
endloop
endfacet
facet normal -0.772991 -0.006403 -0.634384
outer loop
vertex -6.458518 43.608929 -7.998916
vertex -4.683107 49.436501 -10.221072
vertex -4.354836 49.309364 -10.619786
endloop
endfacet
facet normal -0.631608 -0.093622 -0.769614
outer loop
vertex -3.938795 49.185173 -10.946115
vertex -5.337703 43.608929 -9.119726
vertex -5.953305 43.608929 -8.614515
endloop
endfacet
facet normal -0.631606 -0.093622 -0.769616
outer loop
vertex -5.953305 43.608929 -8.614515
vertex -4.354836 49.309364 -10.619786
vertex -3.938795 49.185173 -10.946115
endloop
endfacet
endsolid Exported from Blender-2.74 (sub 0)
