solid Exported from Blender-2.74 (sub 0)
facet normal 0.049433 -0.947348 0.316368
outer loop
vertex 0.000000 47.863625 -14.742168
vertex 10.479734 49.633202 -11.080734
vertex -4.002822 49.633198 -8.817795
endloop
endfacet
facet normal 0.426592 -0.838283 0.339559
outer loop
vertex 17.829317 54.413441 -8.512922
vertex 10.479734 49.633202 -11.080734
vertex 20.959534 53.483112 -14.742168
endloop
endfacet
facet normal -0.132608 -0.970709 0.200346
outer loop
vertex 0.000000 47.863625 -14.742168
vertex -4.002822 49.633198 -8.817795
vertex -12.953714 49.633228 -14.742168
endloop
endfacet
facet normal -0.132608 -0.970709 -0.200346
outer loop
vertex 0.000000 47.863625 -14.742168
vertex -12.953714 49.633228 -14.742168
vertex -4.002822 49.633198 -20.666542
endloop
endfacet
facet normal 0.049433 -0.947348 -0.316368
outer loop
vertex 0.000000 47.863625 -14.742168
vertex -4.002822 49.633198 -20.666542
vertex 10.479734 49.633202 -18.403603
endloop
endfacet
facet normal 0.715083 -0.542861 0.440407
outer loop
vertex 17.829317 54.413441 -8.512922
vertex 20.959534 53.483112 -14.742168
vertex 23.433582 59.712482 -11.080721
endloop
endfacet
facet normal 0.011903 -0.330464 0.943744
outer loop
vertex -6.810061 54.413437 -4.662944
vertex 6.476954 53.483093 -5.156301
vertex 0.000000 59.712482 -2.893308
endloop
endfacet
facet normal -0.683796 -0.528031 0.503594
outer loop
vertex -22.038208 54.413490 -14.742168
vertex -16.956638 53.483109 -8.817775
vertex -23.433582 59.712482 -11.080721
endloop
endfacet
facet normal -0.319882 -0.382473 -0.866828
outer loop
vertex -6.810061 54.413437 -24.821394
vertex -16.956638 53.483109 -20.666561
vertex -14.482739 59.712482 -24.328093
endloop
endfacet
facet normal 0.291018 -0.374014 -0.880581
outer loop
vertex 17.829317 54.413441 -20.971415
vertex 6.476954 53.483093 -24.328033
vertex 14.482739 59.712482 -24.328093
endloop
endfacet
facet normal 0.543243 -0.176819 0.820745
outer loop
vertex 17.829317 54.413441 -8.512922
vertex 23.433582 59.712482 -11.080721
vertex 14.482739 59.712482 -5.156242
endloop
endfacet
facet normal -0.153058 -0.130429 0.979572
outer loop
vertex -6.810061 54.413437 -4.662944
vertex 0.000000 59.712482 -2.893308
vertex -14.482739 59.712482 -5.156242
endloop
endfacet
facet normal -0.967034 -0.254648 0.000000
outer loop
vertex -22.038208 54.413490 -14.742168
vertex -23.433582 59.712482 -11.080721
vertex -23.433582 59.712482 -18.403616
endloop
endfacet
facet normal -0.153058 -0.130428 -0.979572
outer loop
vertex -6.810061 54.413437 -24.821394
vertex -14.482739 59.712482 -24.328093
vertex 0.000000 59.712482 -26.591028
endloop
endfacet
facet normal 0.543243 -0.176819 -0.820745
outer loop
vertex 17.829317 54.413441 -20.971415
vertex 14.482739 59.712482 -24.328093
vertex 23.433582 59.712482 -18.403616
endloop
endfacet
facet normal 0.210666 0.708832 0.673184
outer loop
vertex 6.810061 65.011528 -4.662944
vertex 16.956638 65.941856 -8.817775
vertex 4.002822 69.791763 -8.817795
endloop
endfacet
facet normal -0.248886 0.726641 0.640351
outer loop
vertex -17.829317 65.011528 -8.512922
vertex -6.476954 65.941872 -5.156301
vertex -10.479734 69.791763 -11.080734
endloop
endfacet
facet normal -0.426591 0.838283 -0.339561
outer loop
vertex -17.829317 65.011528 -20.971415
vertex -20.959534 65.941856 -14.742168
vertex -10.479734 69.791763 -18.403603
endloop
endfacet
facet normal 0.018539 0.662076 -0.749207
outer loop
vertex 6.810061 65.011528 -24.821394
vertex -6.476954 65.941872 -24.328033
vertex 4.002822 69.791763 -20.666542
endloop
endfacet
facet normal 0.450633 0.856392 -0.252036
outer loop
vertex 22.038208 65.011475 -14.742168
vertex 16.956638 65.941856 -20.666561
vertex 12.953714 69.791733 -14.742168
endloop
endfacet
facet normal 0.132609 0.970709 -0.200349
outer loop
vertex 12.953714 69.791733 -14.742168
vertex 4.002822 69.791763 -20.666542
vertex 0.000000 71.561340 -14.742168
endloop
endfacet
facet normal 0.261676 0.880467 -0.395352
outer loop
vertex 12.953714 69.791733 -14.742168
vertex 16.956638 65.941856 -20.666561
vertex 4.002822 69.791763 -20.666542
endloop
endfacet
facet normal 0.210666 0.708832 -0.673184
outer loop
vertex 16.956638 65.941856 -20.666561
vertex 6.810061 65.011528 -24.821394
vertex 4.002822 69.791763 -20.666542
endloop
endfacet
facet normal -0.049433 0.947348 -0.316366
outer loop
vertex 4.002822 69.791763 -20.666542
vertex -10.479734 69.791763 -18.403603
vertex 0.000000 71.561340 -14.742168
endloop
endfacet
facet normal -0.091457 0.805630 -0.585316
outer loop
vertex 4.002822 69.791763 -20.666542
vertex -6.476954 65.941872 -24.328033
vertex -10.479734 69.791763 -18.403603
endloop
endfacet
facet normal -0.248886 0.726641 -0.640351
outer loop
vertex -6.476954 65.941872 -24.328033
vertex -17.829317 65.011528 -20.971415
vertex -10.479734 69.791763 -18.403603
endloop
endfacet
facet normal -0.166500 0.986041 0.000000
outer loop
vertex -10.479734 69.791763 -18.403603
vertex -10.479734 69.791763 -11.080734
vertex 0.000000 71.561340 -14.742168
endloop
endfacet
facet normal -0.344832 0.938664 0.000000
outer loop
vertex -10.479734 69.791763 -18.403603
vertex -20.959534 65.941856 -14.742168
vertex -10.479734 69.791763 -11.080734
endloop
endfacet
facet normal -0.426591 0.838283 0.339560
outer loop
vertex -20.959534 65.941856 -14.742168
vertex -17.829317 65.011528 -8.512922
vertex -10.479734 69.791763 -11.080734
endloop
endfacet
facet normal -0.049433 0.947348 0.316367
outer loop
vertex -10.479734 69.791763 -11.080734
vertex 4.002822 69.791763 -8.817795
vertex 0.000000 71.561340 -14.742168
endloop
endfacet
facet normal -0.091458 0.805631 0.585316
outer loop
vertex -10.479734 69.791763 -11.080734
vertex -6.476954 65.941872 -5.156301
vertex 4.002822 69.791763 -8.817795
endloop
endfacet
facet normal 0.018539 0.662076 0.749207
outer loop
vertex -6.476954 65.941872 -5.156301
vertex 6.810061 65.011528 -4.662944
vertex 4.002822 69.791763 -8.817795
endloop
endfacet
facet normal 0.132609 0.970708 0.200350
outer loop
vertex 4.002822 69.791763 -8.817795
vertex 12.953714 69.791733 -14.742168
vertex 0.000000 71.561340 -14.742168
endloop
endfacet
facet normal 0.261676 0.880467 0.395352
outer loop
vertex 4.002822 69.791763 -8.817795
vertex 16.956638 65.941856 -8.817775
vertex 12.953714 69.791733 -14.742168
endloop
endfacet
facet normal 0.450633 0.856392 0.252036
outer loop
vertex 16.956638 65.941856 -8.817775
vertex 22.038208 65.011475 -14.742168
vertex 12.953714 69.791733 -14.742168
endloop
endfacet
facet normal 0.683796 0.528031 -0.503593
outer loop
vertex 23.433582 59.712482 -18.403616
vertex 16.956638 65.941856 -20.666561
vertex 22.038208 65.011475 -14.742168
endloop
endfacet
facet normal 0.532731 0.261520 -0.804863
outer loop
vertex 23.433582 59.712482 -18.403616
vertex 14.482739 59.712482 -24.328093
vertex 16.956638 65.941856 -20.666561
endloop
endfacet
facet normal 0.319881 0.382472 -0.866828
outer loop
vertex 14.482739 59.712482 -24.328093
vertex 6.810061 65.011528 -24.821394
vertex 16.956638 65.941856 -20.666561
endloop
endfacet
facet normal -0.011904 0.330464 -0.943743
outer loop
vertex 0.000000 59.712482 -26.591028
vertex -6.476954 65.941872 -24.328033
vertex 6.810061 65.011528 -24.821394
endloop
endfacet
facet normal -0.151425 0.194616 -0.969121
outer loop
vertex 0.000000 59.712482 -26.591028
vertex -14.482739 59.712482 -24.328093
vertex -6.476954 65.941872 -24.328033
endloop
endfacet
facet normal -0.291017 0.374013 -0.880581
outer loop
vertex -14.482739 59.712482 -24.328093
vertex -17.829317 65.011528 -20.971415
vertex -6.476954 65.941872 -24.328033
endloop
endfacet
facet normal -0.715084 0.542860 -0.440407
outer loop
vertex -23.433582 59.712482 -18.403616
vertex -20.959534 65.941856 -14.742168
vertex -17.829317 65.011528 -20.971415
endloop
endfacet
facet normal -0.929384 0.369113 0.000000
outer loop
vertex -23.433582 59.712482 -18.403616
vertex -23.433582 59.712482 -11.080721
vertex -20.959534 65.941856 -14.742168
endloop
endfacet
facet normal -0.715084 0.542860 0.440407
outer loop
vertex -23.433582 59.712482 -11.080721
vertex -17.829317 65.011528 -8.512922
vertex -20.959534 65.941856 -14.742168
endloop
endfacet
facet normal -0.291017 0.374013 0.880581
outer loop
vertex -14.482739 59.712482 -5.156242
vertex -6.476954 65.941872 -5.156301
vertex -17.829317 65.011528 -8.512922
endloop
endfacet
facet normal -0.151426 0.194616 0.969121
outer loop
vertex -14.482739 59.712482 -5.156242
vertex 0.000000 59.712482 -2.893308
vertex -6.476954 65.941872 -5.156301
endloop
endfacet
facet normal -0.011903 0.330464 0.943743
outer loop
vertex 0.000000 59.712482 -2.893308
vertex 6.810061 65.011528 -4.662944
vertex -6.476954 65.941872 -5.156301
endloop
endfacet
facet normal 0.319881 0.382473 0.866828
outer loop
vertex 14.482739 59.712482 -5.156242
vertex 16.956638 65.941856 -8.817775
vertex 6.810061 65.011528 -4.662944
endloop
endfacet
facet normal 0.532731 0.261520 0.804863
outer loop
vertex 14.482739 59.712482 -5.156242
vertex 23.433582 59.712482 -11.080721
vertex 16.956638 65.941856 -8.817775
endloop
endfacet
facet normal 0.683796 0.528031 0.503593
outer loop
vertex 23.433582 59.712482 -11.080721
vertex 22.038208 65.011475 -14.742168
vertex 16.956638 65.941856 -8.817775
endloop
endfacet
facet normal 0.153059 0.130428 -0.979572
outer loop
vertex 14.482739 59.712482 -24.328093
vertex 0.000000 59.712482 -26.591028
vertex 6.810061 65.011528 -24.821394
endloop
endfacet
facet normal 0.151425 -0.194616 -0.969121
outer loop
vertex 14.482739 59.712482 -24.328093
vertex 6.476954 53.483093 -24.328033
vertex 0.000000 59.712482 -26.591028
endloop
endfacet
facet normal 0.011904 -0.330464 -0.943744
outer loop
vertex 6.476954 53.483093 -24.328033
vertex -6.810061 54.413437 -24.821394
vertex 0.000000 59.712482 -26.591028
endloop
endfacet
facet normal -0.543243 0.176819 -0.820745
outer loop
vertex -14.482739 59.712482 -24.328093
vertex -23.433582 59.712482 -18.403616
vertex -17.829317 65.011528 -20.971415
endloop
endfacet
facet normal -0.532731 -0.261520 -0.804863
outer loop
vertex -14.482739 59.712482 -24.328093
vertex -16.956638 53.483109 -20.666561
vertex -23.433582 59.712482 -18.403616
endloop
endfacet
facet normal -0.683796 -0.528031 -0.503594
outer loop
vertex -16.956638 53.483109 -20.666561
vertex -22.038208 54.413490 -14.742168
vertex -23.433582 59.712482 -18.403616
endloop
endfacet
facet normal -0.543243 0.176819 0.820745
outer loop
vertex -23.433582 59.712482 -11.080721
vertex -14.482739 59.712482 -5.156242
vertex -17.829317 65.011528 -8.512922
endloop
endfacet
facet normal -0.532731 -0.261520 0.804863
outer loop
vertex -23.433582 59.712482 -11.080721
vertex -16.956638 53.483109 -8.817775
vertex -14.482739 59.712482 -5.156242
endloop
endfacet
facet normal -0.319881 -0.382473 0.866828
outer loop
vertex -16.956638 53.483109 -8.817775
vertex -6.810061 54.413437 -4.662944
vertex -14.482739 59.712482 -5.156242
endloop
endfacet
facet normal 0.153059 0.130429 0.979572
outer loop
vertex 0.000000 59.712482 -2.893308
vertex 14.482739 59.712482 -5.156242
vertex 6.810061 65.011528 -4.662944
endloop
endfacet
facet normal 0.151425 -0.194616 0.969121
outer loop
vertex 0.000000 59.712482 -2.893308
vertex 6.476954 53.483093 -5.156301
vertex 14.482739 59.712482 -5.156242
endloop
endfacet
facet normal 0.291018 -0.374014 0.880581
outer loop
vertex 6.476954 53.483093 -5.156301
vertex 17.829317 54.413441 -8.512922
vertex 14.482739 59.712482 -5.156242
endloop
endfacet
facet normal 0.967034 0.254648 0.000000
outer loop
vertex 23.433582 59.712482 -11.080721
vertex 23.433582 59.712482 -18.403616
vertex 22.038208 65.011475 -14.742168
endloop
endfacet
facet normal 0.929384 -0.369114 0.000000
outer loop
vertex 23.433582 59.712482 -11.080721
vertex 20.959534 53.483112 -14.742168
vertex 23.433582 59.712482 -18.403616
endloop
endfacet
facet normal 0.715084 -0.542861 -0.440406
outer loop
vertex 20.959534 53.483112 -14.742168
vertex 17.829317 54.413441 -20.971415
vertex 23.433582 59.712482 -18.403616
endloop
endfacet
facet normal 0.248886 -0.726640 -0.640352
outer loop
vertex 10.479734 49.633202 -18.403603
vertex 6.476954 53.483093 -24.328033
vertex 17.829317 54.413441 -20.971415
endloop
endfacet
facet normal 0.091458 -0.805630 -0.585317
outer loop
vertex 10.479734 49.633202 -18.403603
vertex -4.002822 49.633198 -20.666542
vertex 6.476954 53.483093 -24.328033
endloop
endfacet
facet normal -0.018539 -0.662077 -0.749207
outer loop
vertex -4.002822 49.633198 -20.666542
vertex -6.810061 54.413437 -24.821394
vertex 6.476954 53.483093 -24.328033
endloop
endfacet
facet normal -0.210665 -0.708829 -0.673187
outer loop
vertex -4.002822 49.633198 -20.666542
vertex -16.956638 53.483109 -20.666561
vertex -6.810061 54.413437 -24.821394
endloop
endfacet
facet normal -0.261677 -0.880467 -0.395351
outer loop
vertex -4.002822 49.633198 -20.666542
vertex -12.953714 49.633228 -14.742168
vertex -16.956638 53.483109 -20.666561
endloop
endfacet
facet normal -0.450634 -0.856393 -0.252034
outer loop
vertex -12.953714 49.633228 -14.742168
vertex -22.038208 54.413490 -14.742168
vertex -16.956638 53.483109 -20.666561
endloop
endfacet
facet normal -0.450634 -0.856393 0.252034
outer loop
vertex -12.953714 49.633228 -14.742168
vertex -16.956638 53.483109 -8.817775
vertex -22.038208 54.413490 -14.742168
endloop
endfacet
facet normal -0.261677 -0.880467 0.395352
outer loop
vertex -12.953714 49.633228 -14.742168
vertex -4.002822 49.633198 -8.817795
vertex -16.956638 53.483109 -8.817775
endloop
endfacet
facet normal -0.210665 -0.708829 0.673188
outer loop
vertex -4.002822 49.633198 -8.817795
vertex -6.810061 54.413437 -4.662944
vertex -16.956638 53.483109 -8.817775
endloop
endfacet
facet normal 0.426591 -0.838283 -0.339560
outer loop
vertex 20.959534 53.483112 -14.742168
vertex 10.479734 49.633202 -18.403603
vertex 17.829317 54.413441 -20.971415
endloop
endfacet
facet normal 0.344832 -0.938664 0.000000
outer loop
vertex 20.959534 53.483112 -14.742168
vertex 10.479734 49.633202 -11.080734
vertex 10.479734 49.633202 -18.403603
endloop
endfacet
facet normal 0.166500 -0.986041 0.000000
outer loop
vertex 10.479734 49.633202 -11.080734
vertex 0.000000 47.863625 -14.742168
vertex 10.479734 49.633202 -18.403603
endloop
endfacet
facet normal -0.018539 -0.662077 0.749207
outer loop
vertex -4.002822 49.633198 -8.817795
vertex 6.476954 53.483093 -5.156301
vertex -6.810061 54.413437 -4.662944
endloop
endfacet
facet normal 0.091458 -0.805630 0.585316
outer loop
vertex -4.002822 49.633198 -8.817795
vertex 10.479734 49.633202 -11.080734
vertex 6.476954 53.483093 -5.156301
endloop
endfacet
facet normal 0.248886 -0.726640 0.640352
outer loop
vertex 10.479734 49.633202 -11.080734
vertex 17.829317 54.413441 -8.512922
vertex 6.476954 53.483093 -5.156301
endloop
endfacet
endsolid Exported from Blender-2.74 (sub 0)
