solid Exported from Blender-2.74 (sub 0)
facet normal 0.223359 0.414413 0.882254
outer loop
vertex -13.958372 60.332653 9.300619
vertex -10.294516 53.442505 11.609496
vertex -7.743794 61.472042 7.192095
endloop
endfacet
facet normal 0.728099 0.138084 0.671420
outer loop
vertex -6.896181 50.236652 8.583592
vertex -7.743794 61.472042 7.192095
vertex -10.294516 53.442505 11.609496
endloop
endfacet
facet normal -0.209402 -0.891817 0.401016
outer loop
vertex -18.473896 44.198051 3.683290
vertex -22.222374 46.439034 6.709623
vertex -29.143785 46.439056 3.095462
endloop
endfacet
facet normal -0.175757 -0.925106 -0.336584
outer loop
vertex -18.473896 44.198051 3.683290
vertex -29.143785 46.439056 3.095462
vertex -22.222374 46.439034 -0.518699
endloop
endfacet
facet normal 0.063234 -0.856075 -0.512968
outer loop
vertex -18.473896 44.198051 3.683290
vertex -22.222374 46.439034 -0.518699
vertex -11.023504 46.439034 0.861806
endloop
endfacet
facet normal -0.655111 -0.443662 0.611549
outer loop
vertex -36.168510 50.653847 3.095462
vertex -32.239109 49.833519 6.709637
vertex -37.247513 55.326004 5.329125
endloop
endfacet
facet normal -0.268242 -0.281282 -0.921372
outer loop
vertex -24.393103 50.653801 -3.053364
vertex -32.239109 49.833519 -0.518713
vertex -30.326124 55.326004 -2.752427
endloop
endfacet
facet normal 0.348911 -0.207311 -0.913939
outer loop
vertex -10.390434 50.791313 -1.546319
vertex -14.118715 49.833508 -2.752389
vertex -12.978232 55.463512 -3.594059
endloop
endfacet
facet normal -0.974354 -0.225020 0.000000
outer loop
vertex -36.168510 50.653847 3.095462
vertex -37.247513 55.326004 5.329125
vertex -37.247513 55.326004 0.861799
endloop
endfacet
facet normal -0.121836 -0.091053 -0.988365
outer loop
vertex -24.393103 50.653801 -3.053364
vertex -30.326124 55.326004 -2.752427
vertex -19.127127 55.326004 -4.132929
endloop
endfacet
facet normal 0.478502 -0.116423 -0.870334
outer loop
vertex -10.390434 50.791313 -1.546319
vertex -12.978232 55.463512 -3.594059
vertex -5.105385 55.457092 0.735225
endloop
endfacet
facet normal 0.154375 0.604383 0.781594
outer loop
vertex -13.958372 60.332653 9.300619
vertex -7.743794 61.472042 7.192095
vertex -16.031879 64.212975 6.709623
endloop
endfacet
facet normal -0.313434 0.672002 0.670949
outer loop
vertex -32.913933 59.998203 6.895611
vertex -25.226315 61.477592 9.005171
vertex -27.230749 64.212975 5.329118
endloop
endfacet
facet normal -0.447749 0.771646 -0.451755
outer loop
vertex -32.913933 59.998203 -0.704687
vertex -35.334423 60.818481 3.095462
vertex -27.230749 64.212975 0.861806
endloop
endfacet
facet normal 0.016653 0.521578 -0.853041
outer loop
vertex -13.861153 59.998207 -3.053364
vertex -24.135538 60.818501 -2.752389
vertex -16.031879 64.212975 -0.518699
endloop
endfacet
facet normal 0.581693 0.513696 -0.630674
outer loop
vertex -5.535360 60.224937 3.144607
vertex -11.065250 60.955994 -1.360345
vertex -9.110468 64.212944 3.095462
endloop
endfacet
facet normal 0.147633 0.947772 -0.282725
outer loop
vertex -9.110468 64.212944 3.095462
vertex -16.031879 64.212975 -0.518699
vertex -19.127127 65.773224 3.095462
endloop
endfacet
facet normal 0.338119 0.682931 -0.647519
outer loop
vertex -9.110468 64.212944 3.095462
vertex -11.065250 60.955994 -1.360345
vertex -16.031879 64.212975 -0.518699
endloop
endfacet
facet normal 0.259101 0.592263 -0.762949
outer loop
vertex -11.065250 60.955994 -1.360345
vertex -13.861153 59.998207 -3.053364
vertex -16.031879 64.212975 -0.518699
endloop
endfacet
facet normal -0.053507 0.899295 -0.434057
outer loop
vertex -16.031879 64.212975 -0.518699
vertex -27.230749 64.212975 0.861806
vertex -19.127127 65.773224 3.095462
endloop
endfacet
facet normal -0.088915 0.686903 -0.721290
outer loop
vertex -16.031879 64.212975 -0.518699
vertex -24.135538 60.818501 -2.752389
vertex -27.230749 64.212975 0.861806
endloop
endfacet
facet normal -0.234457 0.600323 -0.764619
outer loop
vertex -24.135538 60.818501 -2.752389
vertex -32.913933 59.998203 -0.704687
vertex -27.230749 64.212975 0.861806
endloop
endfacet
facet normal -0.189065 0.981965 0.000000
outer loop
vertex -27.230749 64.212975 0.861806
vertex -27.230749 64.212975 5.329118
vertex -19.127127 65.773224 3.095462
endloop
endfacet
facet normal -0.386357 0.922349 0.000000
outer loop
vertex -27.230749 64.212975 0.861806
vertex -35.334423 60.818481 3.095462
vertex -27.230749 64.212975 5.329118
endloop
endfacet
facet normal -0.447749 0.771646 0.451755
outer loop
vertex -35.334423 60.818481 3.095462
vertex -32.913933 59.998203 6.895611
vertex -27.230749 64.212975 5.329118
endloop
endfacet
facet normal -0.053507 0.899295 0.434056
outer loop
vertex -27.230749 64.212975 5.329118
vertex -16.031879 64.212975 6.709623
vertex -19.127127 65.773224 3.095462
endloop
endfacet
facet normal -0.076648 0.779435 0.621777
outer loop
vertex -27.230749 64.212975 5.329118
vertex -25.226315 61.477592 9.005171
vertex -16.031879 64.212975 6.709623
endloop
endfacet
facet normal 0.036185 0.568248 0.822061
outer loop
vertex -25.226315 61.477592 9.005171
vertex -13.958372 60.332653 9.300619
vertex -16.031879 64.212975 6.709623
endloop
endfacet
facet normal 0.147633 0.947772 0.282725
outer loop
vertex -16.031879 64.212975 6.709623
vertex -9.110468 64.212944 3.095462
vertex -19.127127 65.773224 3.095462
endloop
endfacet
facet normal 0.250288 0.841198 0.479313
outer loop
vertex -16.031879 64.212975 6.709623
vertex -7.743794 61.472042 7.192095
vertex -9.110468 64.212944 3.095462
endloop
endfacet
facet normal 0.729010 0.655943 0.195663
outer loop
vertex -7.743794 61.472042 7.192095
vertex -5.535360 60.224937 3.144607
vertex -9.110468 64.212944 3.095462
endloop
endfacet
facet normal 0.609969 0.400533 -0.683748
outer loop
vertex -5.105385 55.457092 0.735225
vertex -11.065250 60.955994 -1.360345
vertex -5.535360 60.224937 3.144607
endloop
endfacet
facet normal 0.473632 0.185207 -0.861029
outer loop
vertex -5.105385 55.457092 0.735225
vertex -12.978232 55.463512 -3.594059
vertex -11.065250 60.955994 -1.360345
endloop
endfacet
facet normal 0.459089 0.192789 -0.867219
outer loop
vertex -12.978232 55.463512 -3.594059
vertex -13.861153 59.998207 -3.053364
vertex -11.065250 60.955994 -1.360345
endloop
endfacet
facet normal -0.009670 0.235453 -0.971838
outer loop
vertex -19.127127 55.326004 -4.132929
vertex -24.135538 60.818501 -2.752389
vertex -13.861153 59.998207 -3.053364
endloop
endfacet
facet normal -0.121197 0.136608 -0.983183
outer loop
vertex -19.127127 55.326004 -4.132929
vertex -30.326124 55.326004 -2.752427
vertex -24.135538 60.818501 -2.752389
endloop
endfacet
facet normal -0.242672 0.273521 -0.930750
outer loop
vertex -30.326124 55.326004 -2.752427
vertex -32.913933 59.998203 -0.704687
vertex -24.135538 60.818501 -2.752389
endloop
endfacet
facet normal -0.697970 0.464700 -0.544877
outer loop
vertex -37.247513 55.326004 0.861799
vertex -35.334423 60.818481 3.095462
vertex -32.913933 59.998203 -0.704687
endloop
endfacet
facet normal -0.944355 0.328929 0.000000
outer loop
vertex -37.247513 55.326004 0.861799
vertex -37.247513 55.326004 5.329125
vertex -35.334423 60.818481 3.095462
endloop
endfacet
facet normal -0.697970 0.464700 0.544877
outer loop
vertex -37.247513 55.326004 5.329125
vertex -32.913933 59.998203 6.895611
vertex -35.334423 60.818481 3.095462
endloop
endfacet
facet normal -0.302231 0.264729 0.915737
outer loop
vertex -31.136673 55.326393 8.832748
vertex -25.226315 61.477592 9.005171
vertex -32.913933 59.998203 6.895611
endloop
endfacet
facet normal 0.083541 0.134005 -0.987453
outer loop
vertex -12.978232 55.463512 -3.594059
vertex -19.127127 55.326004 -4.132929
vertex -13.861153 59.998207 -3.053364
endloop
endfacet
facet normal 0.089767 -0.165020 -0.982197
outer loop
vertex -12.978232 55.463512 -3.594059
vertex -14.118715 49.833508 -2.752389
vertex -19.127127 55.326004 -4.132929
endloop
endfacet
facet normal 0.009670 -0.235453 -0.971838
outer loop
vertex -14.118715 49.833508 -2.752389
vertex -24.393103 50.653801 -3.053364
vertex -19.127127 55.326004 -4.132929
endloop
endfacet
facet normal -0.458886 0.130991 -0.878786
outer loop
vertex -30.326124 55.326004 -2.752427
vertex -37.247513 55.326004 0.861799
vertex -32.913933 59.998203 -0.704687
endloop
endfacet
facet normal -0.453949 -0.195438 -0.869330
outer loop
vertex -30.326124 55.326004 -2.752427
vertex -32.239109 49.833519 -0.518713
vertex -37.247513 55.326004 0.861799
endloop
endfacet
facet normal -0.655112 -0.443662 -0.611549
outer loop
vertex -32.239109 49.833519 -0.518713
vertex -36.168510 50.653847 3.095462
vertex -37.247513 55.326004 0.861799
endloop
endfacet
facet normal -0.490326 0.168065 0.855181
outer loop
vertex -37.247513 55.326004 5.329125
vertex -31.136673 55.326393 8.832748
vertex -32.913933 59.998203 6.895611
endloop
endfacet
facet normal -0.484137 -0.229223 0.844433
outer loop
vertex -37.247513 55.326004 5.329125
vertex -32.239109 49.833519 6.709637
vertex -31.136673 55.326393 8.832748
endloop
endfacet
facet normal -0.285830 -0.295037 0.911731
outer loop
vertex -32.239109 49.833519 6.709637
vertex -25.483879 51.312893 9.306142
vertex -31.136673 55.326393 8.832748
endloop
endfacet
facet normal 0.133229 -0.710404 0.691069
outer loop
vertex -18.473896 44.198051 3.683290
vertex -10.294516 53.442505 11.609496
vertex -22.222374 46.439034 6.709623
endloop
endfacet
facet normal 0.700372 -0.657587 -0.277596
outer loop
vertex -6.896181 50.236652 8.583592
vertex -10.390434 50.791313 -1.546319
vertex -5.105385 55.457092 0.735225
endloop
endfacet
facet normal 0.379697 -0.489552 -0.784964
outer loop
vertex -11.023504 46.439034 0.861806
vertex -14.118715 49.833508 -2.752389
vertex -10.390434 50.791313 -1.546319
endloop
endfacet
facet normal 0.088915 -0.686903 -0.721289
outer loop
vertex -11.023504 46.439034 0.861806
vertex -22.222374 46.439034 -0.518699
vertex -14.118715 49.833508 -2.752389
endloop
endfacet
facet normal -0.016653 -0.521577 -0.853041
outer loop
vertex -22.222374 46.439034 -0.518699
vertex -24.393103 50.653801 -3.053364
vertex -14.118715 49.833508 -2.752389
endloop
endfacet
facet normal -0.195687 -0.577452 -0.792626
outer loop
vertex -22.222374 46.439034 -0.518699
vertex -32.239109 49.833519 -0.518713
vertex -24.393103 50.653801 -3.053364
endloop
endfacet
facet normal -0.273432 -0.806868 -0.523639
outer loop
vertex -22.222374 46.439034 -0.518699
vertex -29.143785 46.439056 3.095462
vertex -32.239109 49.833519 -0.518713
endloop
endfacet
facet normal -0.483345 -0.805584 -0.342654
outer loop
vertex -29.143785 46.439056 3.095462
vertex -36.168510 50.653847 3.095462
vertex -32.239109 49.833519 -0.518713
endloop
endfacet
facet normal -0.483345 -0.805584 0.342654
outer loop
vertex -29.143785 46.439056 3.095462
vertex -32.239109 49.833519 6.709637
vertex -36.168510 50.653847 3.095462
endloop
endfacet
facet normal -0.273432 -0.806869 0.523639
outer loop
vertex -29.143785 46.439056 3.095462
vertex -22.222374 46.439034 6.709623
vertex -32.239109 49.833519 6.709637
endloop
endfacet
facet normal -0.188809 -0.557156 0.808658
outer loop
vertex -22.222374 46.439034 6.709623
vertex -25.483879 51.312893 9.306142
vertex -32.239109 49.833519 6.709637
endloop
endfacet
facet normal 0.893451 -0.309869 -0.325157
outer loop
vertex -6.896181 50.236652 8.583592
vertex -11.023504 46.439034 0.861806
vertex -10.390434 50.791313 -1.546319
endloop
endfacet
facet normal -0.023135 0.030174 0.999277
outer loop
vertex -25.483879 51.312893 9.306142
vertex -13.958372 60.332653 9.300619
vertex -25.226315 61.477592 9.005171
endloop
endfacet
facet normal -0.177028 0.226795 0.957719
outer loop
vertex -25.483879 51.312893 9.306142
vertex -10.294516 53.442505 11.609496
vertex -13.958372 60.332653 9.300619
endloop
endfacet
facet normal -0.060747 -0.500675 0.863501
outer loop
vertex -22.222374 46.439034 6.709623
vertex -10.294516 53.442505 11.609496
vertex -25.483879 51.312893 9.306142
endloop
endfacet
facet normal 0.837858 -0.184132 0.513896
outer loop
vertex -5.105385 55.457092 0.735225
vertex -5.535360 60.224937 3.144607
vertex -7.743794 61.472042 7.192095
endloop
endfacet
facet normal 0.951394 0.107517 0.288600
outer loop
vertex -7.743794 61.472042 7.192095
vertex -6.896181 50.236652 8.583592
vertex -5.105385 55.457092 0.735225
endloop
endfacet
facet normal -0.061468 0.031097 0.997625
outer loop
vertex -31.136673 55.326393 8.832748
vertex -25.483879 51.312893 9.306142
vertex -25.226315 61.477592 9.005171
endloop
endfacet
facet normal 0.363764 -0.898079 0.247247
outer loop
vertex -18.473896 44.198051 3.683290
vertex -11.023504 46.439034 0.861806
vertex -6.896181 50.236652 8.583592
endloop
endfacet
facet normal 0.033082 -0.667257 0.744093
outer loop
vertex -6.896181 50.236652 8.583592
vertex -10.294516 53.442505 11.609496
vertex -18.473896 44.198051 3.683290
endloop
endfacet
endsolid Exported from Blender-2.74 (sub 0)
