solid Exported from Blender-2.74 (sub 0)
facet normal -0.036988 0.926070 -0.375535
outer loop
vertex -3.080763 43.608929 -9.804359
vertex -1.701683 50.310524 6.585883
vertex -1.596051 50.274185 6.485868
endloop
endfacet
facet normal -0.036992 0.926068 -0.375538
outer loop
vertex -3.873291 43.608929 -9.726304
vertex -1.797064 50.380417 6.767634
vertex -1.701683 50.310524 6.585883
endloop
endfacet
facet normal -0.036986 0.926069 -0.375537
outer loop
vertex -3.080763 43.608929 -9.804359
vertex -3.873291 43.608929 -9.726304
vertex -1.701683 50.310524 6.585883
endloop
endfacet
facet normal 0.037566 0.923668 -0.381347
outer loop
vertex -3.080763 43.608929 -9.804359
vertex -1.596051 50.274185 6.485868
vertex -1.374177 50.189850 6.303455
endloop
endfacet
facet normal 0.037560 0.923668 -0.381348
outer loop
vertex -1.374177 50.189850 6.303455
vertex -2.288229 43.608929 -9.726301
vertex -3.080763 43.608929 -9.804359
endloop
endfacet
facet normal -0.110864 0.924186 -0.365498
outer loop
vertex -1.797064 50.380417 6.767634
vertex -1.986452 50.449249 6.999153
vertex -1.895311 50.449249 6.971506
endloop
endfacet
facet normal -0.110863 0.924198 -0.365469
outer loop
vertex -3.873291 43.608929 -9.726304
vertex -4.635368 43.608929 -9.495131
vertex -1.986452 50.449249 6.999153
endloop
endfacet
facet normal -0.110872 0.924197 -0.365469
outer loop
vertex -1.797064 50.380417 6.767634
vertex -3.873291 43.608929 -9.726304
vertex -1.986452 50.449249 6.999153
endloop
endfacet
facet normal 0.116144 0.916470 -0.382875
outer loop
vertex -1.148255 50.095650 6.146498
vertex -1.526152 43.608929 -9.495128
vertex -2.288229 43.608929 -9.726301
endloop
endfacet
facet normal 0.116132 0.916471 -0.382876
outer loop
vertex -2.288229 43.608929 -9.726301
vertex -1.374177 50.189850 6.303455
vertex -1.148255 50.095650 6.146498
endloop
endfacet
facet normal -0.187330 0.917647 -0.350472
outer loop
vertex -4.635368 43.608929 -9.495131
vertex -5.337703 43.608929 -9.119726
vertex -2.180444 50.449249 7.102843
endloop
endfacet
facet normal -0.187330 0.917649 -0.350468
outer loop
vertex -2.180444 50.449249 7.102843
vertex -1.986452 50.449249 6.999153
vertex -4.635368 43.608929 -9.495131
endloop
endfacet
facet normal -0.201005 0.721542 -0.662552
outer loop
vertex -1.895311 50.449249 6.971506
vertex -1.986452 50.449249 6.999153
vertex -1.955155 50.500671 7.045656
endloop
endfacet
facet normal 0.202737 0.902792 -0.379294
outer loop
vertex -0.926354 49.994118 6.023446
vertex -0.823818 43.608929 -9.119722
vertex -1.526152 43.608929 -9.495128
endloop
endfacet
facet normal 0.202745 0.902790 -0.379294
outer loop
vertex -1.526152 43.608929 -9.495128
vertex -1.148255 50.095650 6.146498
vertex -0.926354 49.994118 6.023446
endloop
endfacet
facet normal -0.270009 0.904903 -0.329006
outer loop
vertex -5.337703 43.608929 -9.119726
vertex -5.953305 43.608929 -8.614515
vertex -2.350480 50.449249 7.242388
endloop
endfacet
facet normal -0.270007 0.904902 -0.329011
outer loop
vertex -2.350480 50.449249 7.242388
vertex -2.180444 50.449249 7.102843
vertex -5.337703 43.608929 -9.119726
endloop
endfacet
facet normal -0.319579 0.735205 -0.597781
outer loop
vertex -1.955155 50.500671 7.045656
vertex -1.986452 50.449249 6.999153
vertex -2.180444 50.449249 7.102843
endloop
endfacet
facet normal -0.319564 0.735179 -0.597821
outer loop
vertex -2.180444 50.449249 7.102843
vertex -2.081640 50.602497 7.238484
vertex -1.955155 50.500671 7.045656
endloop
endfacet
facet normal 0.302491 0.879001 -0.368587
outer loop
vertex -0.718113 49.888710 5.942968
vertex -0.208216 43.608929 -8.614511
vertex -0.823818 43.608929 -9.119722
endloop
endfacet
facet normal 0.302489 0.879002 -0.368587
outer loop
vertex -0.823818 43.608929 -9.119722
vertex -0.926354 49.994118 6.023446
vertex -0.718113 49.888710 5.942968
endloop
endfacet
facet normal -0.363350 0.882641 -0.298198
outer loop
vertex -5.953305 43.608929 -8.614515
vertex -6.458518 43.608929 -7.998916
vertex -2.490025 50.449249 7.412423
endloop
endfacet
facet normal -0.363351 0.882641 -0.298196
outer loop
vertex -2.490025 50.449249 7.412423
vertex -2.350480 50.449249 7.242388
vertex -5.953305 43.608929 -8.614515
endloop
endfacet
facet normal -0.428186 0.737875 -0.521725
outer loop
vertex -2.081640 50.602497 7.238484
vertex -2.180444 50.449249 7.102843
vertex -2.350480 50.449249 7.242388
endloop
endfacet
facet normal -0.428180 0.737854 -0.521760
outer loop
vertex -2.350480 50.449249 7.242388
vertex -2.191729 50.683971 7.444052
vertex -2.081640 50.602497 7.238484
endloop
endfacet
facet normal 0.422261 0.837619 -0.346541
outer loop
vertex -0.534481 49.783829 5.913219
vertex 0.296994 43.608929 -7.998911
vertex -0.208216 43.608929 -8.614511
endloop
endfacet
facet normal 0.422265 0.837617 -0.346540
outer loop
vertex -0.208216 43.608929 -8.614511
vertex -0.718113 49.888710 5.942968
vertex -0.534481 49.783829 5.913219
endloop
endfacet
facet normal -0.472991 0.844014 -0.252823
outer loop
vertex -6.458518 43.608929 -7.998916
vertex -6.833923 43.608929 -7.296581
vertex -2.593716 50.449249 7.606415
endloop
endfacet
facet normal -0.472992 0.844017 -0.252812
outer loop
vertex -2.593716 50.449249 7.606415
vertex -2.490025 50.449249 7.412423
vertex -6.458518 43.608929 -7.998916
endloop
endfacet
facet normal -0.528374 0.729917 -0.433638
outer loop
vertex -2.191729 50.683971 7.444052
vertex -2.350480 50.449249 7.242388
vertex -2.490025 50.449249 7.412423
endloop
endfacet
facet normal -0.528382 0.729923 -0.433618
outer loop
vertex -2.490025 50.449249 7.412423
vertex -2.283171 50.743793 7.656175
vertex -2.191729 50.683971 7.444052
endloop
endfacet
facet normal 0.569952 0.763116 -0.304645
outer loop
vertex -0.387081 49.684753 5.940800
vertex 0.672400 43.608929 -7.296577
vertex 0.296994 43.608929 -7.998911
endloop
endfacet
facet normal 0.569940 0.763124 -0.304648
outer loop
vertex 0.296994 43.608929 -7.998911
vertex -0.534481 49.783829 5.913219
vertex -0.387081 49.684753 5.940800
endloop
endfacet
facet normal -0.604959 0.774821 -0.183515
outer loop
vertex -6.833923 43.608929 -7.296581
vertex -7.065097 43.608929 -6.534503
vertex -2.657569 50.449249 7.816908
endloop
endfacet
facet normal -0.604956 0.774827 -0.183497
outer loop
vertex -2.657569 50.449249 7.816908
vertex -2.593716 50.449249 7.606415
vertex -6.833923 43.608929 -7.296581
endloop
endfacet
facet normal -0.620671 0.710433 -0.331743
outer loop
vertex -2.283171 50.743793 7.656175
vertex -2.490025 50.449249 7.412423
vertex -2.593716 50.449249 7.606415
endloop
endfacet
facet normal -0.620663 0.710424 -0.331777
outer loop
vertex -2.593716 50.449249 7.606415
vertex -2.354226 50.781155 7.869115
vertex -2.283171 50.743793 7.656175
endloop
endfacet
facet normal 0.747496 0.624366 -0.226751
outer loop
vertex -0.287143 49.597317 6.029500
vertex 0.903573 43.608929 -6.534500
vertex 0.672400 43.608929 -7.296577
endloop
endfacet
facet normal 0.747504 0.624359 -0.226746
outer loop
vertex 0.672400 43.608929 -7.296577
vertex -0.387081 49.684753 5.940800
vertex -0.287143 49.597317 6.029500
endloop
endfacet
facet normal -0.759434 0.646271 -0.074797
outer loop
vertex -7.065097 43.608929 -6.534503
vertex -7.143157 43.608929 -5.741970
vertex -2.679129 50.449249 8.035814
endloop
endfacet
facet normal -0.759435 0.646270 -0.074788
outer loop
vertex -2.679129 50.449249 8.035814
vertex -2.657569 50.449249 7.816908
vertex -7.065097 43.608929 -6.534503
endloop
endfacet
facet normal -0.704154 0.677154 -0.213613
outer loop
vertex -2.354226 50.781155 7.869115
vertex -2.593716 50.449249 7.606415
vertex -2.657569 50.449249 7.816908
endloop
endfacet
facet normal -0.704159 0.677162 -0.213570
outer loop
vertex -2.657569 50.449249 7.816908
vertex -2.403546 50.795597 8.077487
vertex -2.354226 50.781155 7.869115
endloop
endfacet
facet normal 0.922879 0.374208 -0.090897
outer loop
vertex -0.244070 49.527416 6.179053
vertex 0.981631 43.608929 -5.741966
vertex 0.903573 43.608929 -6.534500
endloop
endfacet
facet normal 0.922879 0.374210 -0.090894
outer loop
vertex 0.903573 43.608929 -6.534500
vertex -0.287143 49.597317 6.029500
vertex -0.244070 49.527416 6.179053
endloop
endfacet
facet normal -0.906840 0.411906 0.089305
outer loop
vertex -7.143157 43.608929 -5.741970
vertex -7.065099 43.608929 -4.949435
vertex -2.657569 50.449249 8.254721
endloop
endfacet
facet normal -0.906835 0.411912 0.089322
outer loop
vertex -2.657569 50.449249 8.254721
vertex -2.679129 50.449249 8.035814
vertex -7.143157 43.608929 -5.741970
endloop
endfacet
facet normal -0.775727 0.626426 -0.076401
outer loop
vertex -2.403546 50.795597 8.077487
vertex -2.657569 50.449249 7.816908
vertex -2.679129 50.449249 8.035814
endloop
endfacet
facet normal -0.775729 0.626423 -0.076404
outer loop
vertex -2.679129 50.449249 8.035814
vertex -2.430089 50.786957 8.276152
vertex -2.403546 50.795597 8.077487
endloop
endfacet
facet normal 0.995147 0.008674 0.098013
outer loop
vertex -0.263869 49.480267 6.384253
vertex 0.903574 43.608929 -4.949432
vertex 0.981631 43.608929 -5.741966
endloop
endfacet
facet normal 0.995147 0.008674 0.098015
outer loop
vertex 0.981631 43.608929 -5.741966
vertex -0.244070 49.527416 6.179053
vertex -0.263869 49.480267 6.384253
endloop
endfacet
facet normal -0.955428 0.056169 0.289831
outer loop
vertex -7.065099 43.608929 -4.949435
vertex -6.833927 43.608929 -4.187358
vertex -2.593717 50.449249 8.465214
endloop
endfacet
facet normal -0.955431 0.056155 0.289825
outer loop
vertex -2.593717 50.449249 8.465214
vertex -2.657569 50.449249 8.254721
vertex -7.065099 43.608929 -4.949435
endloop
endfacet
facet normal -0.829010 0.553242 0.081647
outer loop
vertex -2.430089 50.786957 8.276152
vertex -2.679129 50.449249 8.035814
vertex -2.657569 50.449249 8.254721
endloop
endfacet
facet normal -0.829011 0.553243 0.081627
outer loop
vertex -2.657569 50.449249 8.254721
vertex -2.433075 50.755337 8.460096
vertex -2.430089 50.786957 8.276152
endloop
endfacet
facet normal 0.897457 -0.347070 0.272240
outer loop
vertex -0.347831 49.459660 6.634765
vertex 0.672400 43.608929 -4.187356
vertex 0.903574 43.608929 -4.949432
endloop
endfacet
facet normal 0.897456 -0.347070 0.272242
outer loop
vertex 0.903574 43.608929 -4.949432
vertex -0.263869 49.480267 6.384253
vertex -0.347831 49.459660 6.634765
endloop
endfacet
facet normal -0.838675 -0.309302 0.448282
outer loop
vertex -6.833927 43.608929 -4.187358
vertex -6.458522 43.608929 -3.485022
vertex -2.490026 50.449249 8.659206
endloop
endfacet
facet normal -0.838680 -0.309306 0.448270
outer loop
vertex -2.490026 50.449249 8.659206
vertex -2.593717 50.449249 8.465214
vertex -6.833927 43.608929 -4.187358
endloop
endfacet
facet normal -0.853483 0.452256 0.258904
outer loop
vertex -2.433075 50.755337 8.460096
vertex -2.657569 50.449249 8.254721
vertex -2.593717 50.449249 8.465214
endloop
endfacet
facet normal -0.853483 0.452255 0.258905
outer loop
vertex -2.593717 50.449249 8.465214
vertex -2.411987 50.701103 8.624347
vertex -2.433075 50.755337 8.460096
endloop
endfacet
facet normal 0.716335 -0.583319 0.382889
outer loop
vertex -0.491862 49.467316 6.915892
vertex 0.296994 43.608929 -3.485020
vertex 0.672400 43.608929 -4.187356
endloop
endfacet
facet normal 0.716336 -0.583319 0.382887
outer loop
vertex 0.672400 43.608929 -4.187356
vertex -0.347831 49.459660 6.634765
vertex -0.491862 49.467316 6.915892
endloop
endfacet
facet normal -0.639871 -0.561079 0.525124
outer loop
vertex -6.458522 43.608929 -3.485022
vertex -5.953310 43.608929 -2.869421
vertex -2.350482 50.449249 8.829242
endloop
endfacet
facet normal -0.639865 -0.561070 0.525142
outer loop
vertex -2.350482 50.449249 8.829242
vertex -2.490026 50.449249 8.659206
vertex -6.458522 43.608929 -3.485022
endloop
endfacet
facet normal -0.835355 0.320655 0.446501
outer loop
vertex -2.593717 50.449249 8.465214
vertex -2.383165 50.652756 8.712993
vertex -2.411987 50.701103 8.624347
endloop
endfacet
facet normal -0.835345 0.320633 0.446535
outer loop
vertex -2.490026 50.449249 8.659206
vertex -2.358418 50.636650 8.770855
vertex -2.383165 50.652756 8.712993
endloop
endfacet
facet normal -0.835358 0.320634 0.446510
outer loop
vertex -2.593717 50.449249 8.465214
vertex -2.490026 50.449249 8.659206
vertex -2.383165 50.652756 8.712993
endloop
endfacet
facet normal 0.540567 -0.714828 0.443632
outer loop
vertex -0.686762 49.502594 7.210220
vertex -0.208216 43.608929 -2.869419
vertex 0.296994 43.608929 -3.485020
endloop
endfacet
facet normal 0.540561 -0.714832 0.443632
outer loop
vertex 0.296994 43.608929 -3.485020
vertex -0.491862 49.467316 6.915892
vertex -0.686762 49.502594 7.210220
endloop
endfacet
facet normal -0.451306 -0.702790 0.549917
outer loop
vertex -5.953310 43.608929 -2.869421
vertex -5.337710 43.608929 -2.364209
vertex -2.180446 50.449249 8.968786
endloop
endfacet
facet normal -0.451308 -0.702791 0.549914
outer loop
vertex -2.180446 50.449249 8.968786
vertex -2.350482 50.449249 8.829242
vertex -5.953310 43.608929 -2.869421
endloop
endfacet
facet normal -0.762710 0.162717 0.625937
outer loop
vertex -2.358418 50.636650 8.770855
vertex -2.490026 50.449249 8.659206
vertex -2.350482 50.449249 8.829242
endloop
endfacet
facet normal -0.762702 0.162717 0.625946
outer loop
vertex -2.350482 50.449249 8.829242
vertex -2.271879 50.565468 8.894807
vertex -2.358418 50.636650 8.770855
endloop
endfacet
facet normal 0.392361 -0.785799 0.478093
outer loop
vertex -0.919424 49.562592 7.499771
vertex -0.823818 43.608929 -2.364208
vertex -0.208216 43.608929 -2.869419
endloop
endfacet
facet normal 0.392355 -0.785802 0.478093
outer loop
vertex -0.208216 43.608929 -2.869419
vertex -0.686762 49.502594 7.210220
vertex -0.919424 49.562592 7.499771
endloop
endfacet
facet normal -0.295381 -0.779306 0.552660
outer loop
vertex -2.150030 50.449249 8.985044
vertex -4.635375 43.608929 -1.988804
vertex -2.042757 50.303864 8.837371
endloop
endfacet
facet normal -0.295403 -0.779297 0.552660
outer loop
vertex -2.180446 50.449249 8.968786
vertex -5.337710 43.608929 -2.364209
vertex -4.635375 43.608929 -1.988804
endloop
endfacet
facet normal -0.295408 -0.779284 0.552676
outer loop
vertex -2.150030 50.449249 8.985044
vertex -2.180446 50.449249 8.968786
vertex -4.635375 43.608929 -1.988804
endloop
endfacet
facet normal -0.634401 -0.007037 0.772972
outer loop
vertex -2.271879 50.565468 8.894807
vertex -2.350482 50.449249 8.829242
vertex -2.180446 50.449249 8.968786
endloop
endfacet
facet normal -0.634325 -0.007043 0.773035
outer loop
vertex -2.180446 50.449249 8.968786
vertex -2.168303 50.468086 8.978924
vertex -2.271879 50.565468 8.894807
endloop
endfacet
facet normal 0.267179 -0.823868 0.499857
outer loop
vertex -1.174645 49.642651 7.768152
vertex -1.526153 43.608929 -1.988802
vertex -0.823818 43.608929 -2.364208
endloop
endfacet
facet normal 0.267195 -0.823864 0.499855
outer loop
vertex -0.823818 43.608929 -2.364208
vertex -0.919424 49.562592 7.499771
vertex -1.174645 49.642651 7.768152
endloop
endfacet
facet normal -0.165965 -0.820437 0.547118
outer loop
vertex -4.635375 43.608929 -1.988804
vertex -1.976217 50.207462 8.712993
vertex -2.042757 50.303864 8.837371
endloop
endfacet
facet normal -0.165960 -0.820446 0.547106
outer loop
vertex -3.873298 43.608929 -1.757630
vertex -1.877295 50.118759 8.609981
vertex -1.976217 50.207462 8.712993
endloop
endfacet
facet normal -0.165965 -0.820444 0.547108
outer loop
vertex -4.635375 43.608929 -1.988804
vertex -3.873298 43.608929 -1.757630
vertex -1.976217 50.207462 8.712993
endloop
endfacet
facet normal 0.156324 -0.842557 0.515422
outer loop
vertex -2.288230 43.608929 -1.757629
vertex -1.410125 49.727413 7.978146
vertex -1.435607 49.747578 8.018838
endloop
endfacet
facet normal 0.156340 -0.842562 0.515410
outer loop
vertex -1.526153 43.608929 -1.988802
vertex -1.174645 49.642651 7.768152
vertex -1.410125 49.727413 7.978146
endloop
endfacet
facet normal 0.156347 -0.842561 0.515409
outer loop
vertex -2.288230 43.608929 -1.757629
vertex -1.526153 43.608929 -1.988802
vertex -1.410125 49.727413 7.978146
endloop
endfacet
facet normal -0.053020 -0.841073 0.538317
outer loop
vertex -1.877295 50.118759 8.609981
vertex -3.873298 43.608929 -1.757630
vertex -3.080764 43.608929 -1.679572
endloop
endfacet
facet normal -0.053034 -0.841070 0.538320
outer loop
vertex -3.080764 43.608929 -1.679572
vertex -1.670265 49.941021 8.352678
vertex -1.877295 50.118759 8.609981
endloop
endfacet
facet normal 0.051983 -0.847783 0.527790
outer loop
vertex -1.670265 49.941021 8.352678
vertex -3.080764 43.608929 -1.679572
vertex -2.288230 43.608929 -1.757629
endloop
endfacet
facet normal 0.051989 -0.847783 0.527789
outer loop
vertex -2.288230 43.608929 -1.757629
vertex -1.435607 49.747578 8.018838
vertex -1.670265 49.941021 8.352678
endloop
endfacet
endsolid Exported from Blender-2.74 (sub 0)
