solid Exported from Blender-2.74 (sub 0)
facet normal -0.174708 0.798606 -0.575938
outer loop
vertex -3.811130 36.364182 -9.200919
vertex 0.000000 43.833431 0.000000
vertex -1.942889 36.364182 -9.767641
endloop
endfacet
facet normal 0.000000 -1.000000 -0.000001
outer loop
vertex 9.200913 36.364182 -3.811143
vertex 5.494302 36.364182 1.092884
vertex 5.601942 36.364182 -0.000000
endloop
endfacet
facet normal 0.000000 -1.000000 0.000002
outer loop
vertex -9.958998 36.364182 -0.000010
vertex -5.601942 36.364182 -0.000005
vertex -5.494303 36.364182 1.092880
endloop
endfacet
facet normal 0.000000 -1.000000 -0.000005
outer loop
vertex 9.200913 36.364182 -3.811143
vertex 5.175519 36.364182 2.143769
vertex 5.494302 36.364182 1.092884
endloop
endfacet
facet normal 0.000000 -1.000000 -0.000002
outer loop
vertex -9.958998 36.364182 -0.000010
vertex -5.494303 36.364182 1.092880
vertex -5.175521 36.364182 2.143766
endloop
endfacet
facet normal 0.000000 -1.000000 0.000014
outer loop
vertex 9.200913 36.364182 -3.811143
vertex 4.657845 36.364182 3.112272
vertex 5.175519 36.364182 2.143769
endloop
endfacet
facet normal 0.000000 -1.000000 0.000003
outer loop
vertex -9.958998 36.364182 -0.000010
vertex -5.175521 36.364182 2.143766
vertex -4.657846 36.364182 3.112269
endloop
endfacet
facet normal 0.000000 -1.000000 -0.000002
outer loop
vertex 9.200913 36.364182 -3.811143
vertex 9.767638 36.364182 -1.942904
vertex 4.657845 36.364182 3.112272
endloop
endfacet
facet normal 0.000000 -1.000000 0.000005
outer loop
vertex -9.958998 36.364182 -0.000010
vertex -4.657846 36.364182 3.112269
vertex -3.961173 36.364182 3.961169
endloop
endfacet
facet normal 0.000000 -1.000000 0.000023
outer loop
vertex 9.767638 36.364182 -1.942904
vertex 3.961171 36.364182 3.961171
vertex 4.657845 36.364182 3.112272
endloop
endfacet
facet normal 0.000000 -1.000000 -0.000033
outer loop
vertex -9.958998 36.364182 -0.000010
vertex -3.961173 36.364182 3.961169
vertex -3.112275 36.364182 4.657843
endloop
endfacet
facet normal 0.000000 -1.000000 0.000000
outer loop
vertex 9.767638 36.364182 -1.942904
vertex 9.958998 36.364182 -0.000001
vertex 3.961171 36.364182 3.961171
endloop
endfacet
facet normal 0.000000 -1.000000 0.000000
outer loop
vertex -9.767640 36.364182 1.942895
vertex -9.958998 36.364182 -0.000010
vertex -3.112275 36.364182 4.657843
endloop
endfacet
facet normal 0.000000 -1.000000 -0.000014
outer loop
vertex 9.958998 36.364182 -0.000001
vertex 3.112272 36.364182 4.657845
vertex 3.961171 36.364182 3.961171
endloop
endfacet
facet normal 0.000000 -1.000000 -0.000047
outer loop
vertex -9.767640 36.364182 1.942895
vertex -3.112275 36.364182 4.657843
vertex -2.143773 36.364182 5.175518
endloop
endfacet
facet normal 0.000000 -1.000000 0.000000
outer loop
vertex 9.958998 36.364182 -0.000001
vertex 9.767638 36.364182 1.942903
vertex 3.112272 36.364182 4.657845
endloop
endfacet
facet normal 0.000000 -1.000000 0.000005
outer loop
vertex -9.200917 36.364182 3.811136
vertex -9.767640 36.364182 1.942895
vertex -2.143773 36.364182 5.175518
endloop
endfacet
facet normal 0.000000 -1.000000 -0.000009
outer loop
vertex 9.767638 36.364182 1.942903
vertex 2.143769 36.364182 5.175519
vertex 3.112272 36.364182 4.657845
endloop
endfacet
facet normal 0.000000 -1.000000 -0.000009
outer loop
vertex -9.200917 36.364182 3.811136
vertex -2.143773 36.364182 5.175518
vertex -1.092887 36.364182 5.494302
endloop
endfacet
facet normal 0.000000 -1.000000 0.000000
outer loop
vertex 9.767638 36.364182 1.942903
vertex 9.200913 36.364182 3.811142
vertex 2.143769 36.364182 5.175519
endloop
endfacet
facet normal 0.000000 -1.000000 0.000000
outer loop
vertex -8.280608 36.364182 5.532917
vertex -9.200917 36.364182 3.811136
vertex -1.092887 36.364182 5.494302
endloop
endfacet
facet normal 0.000000 -1.000000 0.000047
outer loop
vertex 9.200913 36.364182 3.811142
vertex 1.092883 36.364182 5.494302
vertex 2.143769 36.364182 5.175519
endloop
endfacet
facet normal 0.000000 -1.000000 -0.000047
outer loop
vertex -8.280608 36.364182 5.532917
vertex -1.092887 36.364182 5.494302
vertex -0.000002 36.364182 5.601942
endloop
endfacet
facet normal 0.000000 -1.000000 0.000000
outer loop
vertex 9.200913 36.364182 3.811142
vertex 8.280604 36.364182 5.532922
vertex 1.092883 36.364182 5.494302
endloop
endfacet
facet normal 0.000000 -1.000000 0.000000
outer loop
vertex -7.042079 36.364182 7.042070
vertex -8.280608 36.364182 5.532917
vertex -0.000002 36.364182 5.601942
endloop
endfacet
facet normal 0.000000 -1.000000 -0.000047
outer loop
vertex 8.280604 36.364182 5.532922
vertex -0.000002 36.364182 5.601942
vertex 1.092883 36.364182 5.494302
endloop
endfacet
facet normal 0.000000 -1.000000 0.000000
outer loop
vertex 8.280604 36.364182 5.532922
vertex 7.042074 36.364182 7.042074
vertex 5.532922 36.364182 8.280604
endloop
endfacet
facet normal 0.000000 -1.000000 0.000000
outer loop
vertex 5.532922 36.364182 8.280604
vertex 3.811142 36.364182 9.200914
vertex 1.942902 36.364182 9.767638
endloop
endfacet
facet normal 0.000000 -1.000000 0.000000
outer loop
vertex 1.942902 36.364182 9.767638
vertex -0.000003 36.364182 9.958998
vertex -1.942908 36.364182 9.767637
endloop
endfacet
facet normal 0.000000 -1.000000 0.000021
outer loop
vertex -1.942908 36.364182 9.767637
vertex -3.811148 36.364182 9.200912
vertex -5.532928 36.364182 8.280601
endloop
endfacet
facet normal 0.000000 -1.000000 0.000006
outer loop
vertex -5.532928 36.364182 8.280601
vertex -7.042079 36.364182 7.042070
vertex -0.000002 36.364182 5.601942
endloop
endfacet
facet normal 0.000000 -1.000000 0.000001
outer loop
vertex 8.280604 36.364182 5.532922
vertex 5.532922 36.364182 8.280604
vertex -0.000002 36.364182 5.601942
endloop
endfacet
facet normal 0.000000 -1.000000 -0.000005
outer loop
vertex 5.532922 36.364182 8.280604
vertex 1.942902 36.364182 9.767638
vertex -1.942908 36.364182 9.767637
endloop
endfacet
facet normal 0.000000 -1.000000 0.000000
outer loop
vertex -1.942908 36.364182 9.767637
vertex -5.532928 36.364182 8.280601
vertex -0.000002 36.364182 5.601942
endloop
endfacet
facet normal 0.000000 -1.000000 0.000001
outer loop
vertex 5.532922 36.364182 8.280604
vertex -1.942908 36.364182 9.767637
vertex -0.000002 36.364182 5.601942
endloop
endfacet
facet normal 0.000000 -1.000000 0.000000
outer loop
vertex 0.000000 36.364182 -9.958998
vertex -3.811130 36.364182 -9.200919
vertex -1.942889 36.364182 -9.767641
endloop
endfacet
facet normal 0.000000 -1.000000 -0.000010
outer loop
vertex -7.042066 36.364182 -7.042083
vertex -5.532911 36.364182 -8.280611
vertex -3.811130 36.364182 -9.200919
endloop
endfacet
facet normal 0.000000 -1.000000 0.000000
outer loop
vertex -9.200910 36.364182 -3.811154
vertex -8.280597 36.364182 -5.532933
vertex -7.042066 36.364182 -7.042083
endloop
endfacet
facet normal 0.000000 -1.000000 -0.000005
outer loop
vertex -9.958998 36.364182 -0.000010
vertex -9.767636 36.364182 -1.942914
vertex -9.200910 36.364182 -3.811154
endloop
endfacet
facet normal 0.000000 -1.000000 0.000000
outer loop
vertex -5.494301 36.364182 -1.092890
vertex -5.601942 36.364182 -0.000005
vertex -9.958998 36.364182 -0.000010
endloop
endfacet
facet normal 0.000000 -1.000000 0.000001
outer loop
vertex 9.200913 36.364182 -3.811143
vertex 5.601942 36.364182 -0.000000
vertex 5.494302 36.364182 -1.092885
endloop
endfacet
facet normal 0.000000 -1.000000 0.000000
outer loop
vertex -5.175517 36.364182 -2.143776
vertex -5.494301 36.364182 -1.092890
vertex -9.958998 36.364182 -0.000010
endloop
endfacet
facet normal 0.000000 -1.000000 0.000003
outer loop
vertex 9.200913 36.364182 -3.811143
vertex 5.494302 36.364182 -1.092885
vertex 5.175519 36.364182 -2.143770
endloop
endfacet
facet normal 0.000000 -1.000000 0.000000
outer loop
vertex -4.657840 36.364182 -3.112278
vertex -5.175517 36.364182 -2.143776
vertex -9.958998 36.364182 -0.000010
endloop
endfacet
facet normal 0.000000 -1.000000 -0.000003
outer loop
vertex 9.200913 36.364182 -3.811143
vertex 5.175519 36.364182 -2.143770
vertex 4.657845 36.364182 -3.112272
endloop
endfacet
facet normal 0.000000 -1.000000 0.000000
outer loop
vertex -3.961166 36.364182 -3.961176
vertex -4.657840 36.364182 -3.112278
vertex -9.958998 36.364182 -0.000010
endloop
endfacet
facet normal 0.000000 -1.000000 0.000003
outer loop
vertex 9.200913 36.364182 -3.811143
vertex 4.657845 36.364182 -3.112272
vertex 3.961171 36.364182 -3.961171
endloop
endfacet
facet normal 0.000000 -1.000000 -0.000037
outer loop
vertex -3.112266 36.364182 -4.657848
vertex -3.961166 36.364182 -3.961176
vertex -9.958998 36.364182 -0.000010
endloop
endfacet
facet normal 0.000000 -1.000000 0.000008
outer loop
vertex 9.200913 36.364182 -3.811143
vertex 3.961171 36.364182 -3.961171
vertex 3.112272 36.364182 -4.657845
endloop
endfacet
facet normal 0.000000 -1.000000 0.000001
outer loop
vertex -3.112266 36.364182 -4.657848
vertex -9.958998 36.364182 -0.000010
vertex -9.200910 36.364182 -3.811154
endloop
endfacet
facet normal 0.000000 -1.000000 -0.000003
outer loop
vertex 9.200913 36.364182 -3.811143
vertex 3.112272 36.364182 -4.657845
vertex 2.143770 36.364182 -5.175519
endloop
endfacet
facet normal 0.000000 -1.000000 0.000000
outer loop
vertex -2.143763 36.364182 -5.175522
vertex -3.112266 36.364182 -4.657848
vertex -9.200910 36.364182 -3.811154
endloop
endfacet
facet normal 0.000000 -1.000000 -0.000019
outer loop
vertex 9.200913 36.364182 -3.811143
vertex 2.143770 36.364182 -5.175519
vertex 1.092885 36.364182 -5.494302
endloop
endfacet
facet normal 0.000000 -1.000000 0.000075
outer loop
vertex -1.092876 36.364182 -5.494304
vertex -2.143763 36.364182 -5.175522
vertex -9.200910 36.364182 -3.811154
endloop
endfacet
facet normal 0.000000 -1.000000 0.000000
outer loop
vertex 8.280604 36.364182 -5.532922
vertex 9.200913 36.364182 -3.811143
vertex 1.092885 36.364182 -5.494302
endloop
endfacet
facet normal 0.000000 -1.000000 -0.000001
outer loop
vertex -1.092876 36.364182 -5.494304
vertex -9.200910 36.364182 -3.811154
vertex -7.042066 36.364182 -7.042083
endloop
endfacet
facet normal 0.000000 -1.000000 0.000009
outer loop
vertex 8.280604 36.364182 -5.532922
vertex 1.092885 36.364182 -5.494302
vertex 0.000000 36.364182 -5.601942
endloop
endfacet
facet normal 0.000000 -1.000000 0.000000
outer loop
vertex 0.000000 36.364182 -5.601942
vertex -1.092876 36.364182 -5.494304
vertex -7.042066 36.364182 -7.042083
endloop
endfacet
facet normal 0.000000 -1.000000 0.000000
outer loop
vertex 0.000000 36.364182 -9.958998
vertex -7.042066 36.364182 -7.042083
vertex -3.811130 36.364182 -9.200919
endloop
endfacet
facet normal 0.000000 -1.000000 0.000021
outer loop
vertex 0.000000 36.364182 -9.958998
vertex 1.942904 36.364182 -9.767638
vertex 3.811143 36.364182 -9.200913
endloop
endfacet
facet normal 0.000000 -1.000000 0.000010
outer loop
vertex 3.811143 36.364182 -9.200913
vertex 5.532922 36.364182 -8.280603
vertex 7.042074 36.364182 -7.042074
endloop
endfacet
facet normal 0.000000 -1.000000 0.000000
outer loop
vertex 7.042074 36.364182 -7.042074
vertex 8.280604 36.364182 -5.532922
vertex 0.000000 36.364182 -5.601942
endloop
endfacet
facet normal 0.000000 -1.000000 0.000000
outer loop
vertex 0.000000 36.364182 -9.958998
vertex 0.000000 36.364182 -5.601942
vertex -7.042066 36.364182 -7.042083
endloop
endfacet
facet normal 0.000000 -1.000000 -0.000005
outer loop
vertex 0.000000 36.364182 -9.958998
vertex 3.811143 36.364182 -9.200913
vertex 7.042074 36.364182 -7.042074
endloop
endfacet
facet normal 0.000000 -1.000000 0.000000
outer loop
vertex 0.000000 36.364182 -9.958998
vertex 7.042074 36.364182 -7.042074
vertex 0.000000 36.364182 -5.601942
endloop
endfacet
facet normal -0.283711 0.798607 -0.530788
outer loop
vertex -5.532911 36.364182 -8.280611
vertex 0.000000 43.833431 0.000000
vertex -3.811130 36.364182 -9.200919
endloop
endfacet
facet normal -0.058992 0.798607 -0.598955
outer loop
vertex -1.942889 36.364182 -9.767641
vertex 0.000000 43.833431 0.000000
vertex 0.000000 36.364182 -9.958998
endloop
endfacet
facet normal 0.058992 0.798606 -0.598956
outer loop
vertex 0.000000 36.364182 -9.958998
vertex 0.000000 43.833431 0.000000
vertex 1.942904 36.364182 -9.767638
endloop
endfacet
facet normal 0.174709 0.798606 -0.575938
outer loop
vertex 1.942904 36.364182 -9.767638
vertex 0.000000 43.833431 0.000000
vertex 3.811143 36.364182 -9.200913
endloop
endfacet
facet normal 0.283712 0.798607 -0.530787
outer loop
vertex 3.811143 36.364182 -9.200913
vertex 0.000000 43.833431 0.000000
vertex 5.532922 36.364182 -8.280603
endloop
endfacet
facet normal 0.381812 0.798607 -0.465238
outer loop
vertex 5.532922 36.364182 -8.280603
vertex 0.000000 43.833431 0.000000
vertex 7.042074 36.364182 -7.042074
endloop
endfacet
facet normal 0.465239 0.798607 -0.381810
outer loop
vertex 7.042074 36.364182 -7.042074
vertex 0.000000 43.833431 0.000000
vertex 8.280604 36.364182 -5.532922
endloop
endfacet
facet normal 0.530787 0.798606 -0.283714
outer loop
vertex 8.280604 36.364182 -5.532922
vertex 0.000000 43.833431 0.000000
vertex 9.200913 36.364182 -3.811143
endloop
endfacet
facet normal 0.575938 0.798607 -0.174707
outer loop
vertex 9.200913 36.364182 -3.811143
vertex 0.000000 43.833431 0.000000
vertex 9.767638 36.364182 -1.942904
endloop
endfacet
facet normal 0.598955 0.798607 -0.058992
outer loop
vertex 9.767638 36.364182 -1.942904
vertex 0.000000 43.833431 0.000000
vertex 9.958998 36.364182 -0.000001
endloop
endfacet
facet normal 0.598955 0.798607 0.058992
outer loop
vertex 9.958998 36.364182 -0.000001
vertex 0.000000 43.833431 0.000000
vertex 9.767638 36.364182 1.942903
endloop
endfacet
facet normal 0.575938 0.798607 0.174707
outer loop
vertex 9.767638 36.364182 1.942903
vertex 0.000000 43.833431 0.000000
vertex 9.200913 36.364182 3.811142
endloop
endfacet
facet normal 0.530787 0.798606 0.283714
outer loop
vertex 9.200913 36.364182 3.811142
vertex 0.000000 43.833431 0.000000
vertex 8.280604 36.364182 5.532922
endloop
endfacet
facet normal 0.465239 0.798607 0.381811
outer loop
vertex 8.280604 36.364182 5.532922
vertex 0.000000 43.833431 0.000000
vertex 7.042074 36.364182 7.042074
endloop
endfacet
facet normal 0.381812 0.798606 0.465239
outer loop
vertex 7.042074 36.364182 7.042074
vertex 0.000000 43.833431 0.000000
vertex 5.532922 36.364182 8.280604
endloop
endfacet
facet normal 0.283712 0.798607 0.530787
outer loop
vertex 5.532922 36.364182 8.280604
vertex 0.000000 43.833431 0.000000
vertex 3.811142 36.364182 9.200914
endloop
endfacet
facet normal 0.174709 0.798607 0.575938
outer loop
vertex 3.811142 36.364182 9.200914
vertex 0.000000 43.833431 0.000000
vertex 1.942902 36.364182 9.767638
endloop
endfacet
facet normal 0.058992 0.798606 0.598956
outer loop
vertex 1.942902 36.364182 9.767638
vertex 0.000000 43.833431 0.000000
vertex -0.000003 36.364182 9.958998
endloop
endfacet
facet normal -0.058992 0.798606 0.598955
outer loop
vertex -0.000003 36.364182 9.958998
vertex 0.000000 43.833431 0.000000
vertex -1.942908 36.364182 9.767637
endloop
endfacet
facet normal -0.174709 0.798606 0.575938
outer loop
vertex -1.942908 36.364182 9.767637
vertex 0.000000 43.833431 0.000000
vertex -3.811148 36.364182 9.200912
endloop
endfacet
facet normal -0.283712 0.798606 0.530787
outer loop
vertex -3.811148 36.364182 9.200912
vertex 0.000000 43.833431 0.000000
vertex -5.532928 36.364182 8.280601
endloop
endfacet
facet normal -0.381811 0.798606 0.465240
outer loop
vertex -5.532928 36.364182 8.280601
vertex 0.000000 43.833431 0.000000
vertex -7.042079 36.364182 7.042070
endloop
endfacet
facet normal -0.465239 0.798607 0.381810
outer loop
vertex -7.042079 36.364182 7.042070
vertex 0.000000 43.833431 0.000000
vertex -8.280608 36.364182 5.532917
endloop
endfacet
facet normal -0.530787 0.798606 0.283714
outer loop
vertex -8.280608 36.364182 5.532917
vertex 0.000000 43.833431 0.000000
vertex -9.200917 36.364182 3.811136
endloop
endfacet
facet normal -0.575938 0.798607 0.174705
outer loop
vertex -9.200917 36.364182 3.811136
vertex 0.000000 43.833431 0.000000
vertex -9.767640 36.364182 1.942895
endloop
endfacet
facet normal -0.598955 0.798607 0.058992
outer loop
vertex -9.767640 36.364182 1.942895
vertex 0.000000 43.833431 0.000000
vertex -9.958998 36.364182 -0.000010
endloop
endfacet
facet normal -0.598955 0.798607 -0.058992
outer loop
vertex -9.958998 36.364182 -0.000010
vertex 0.000000 43.833431 0.000000
vertex -9.767636 36.364182 -1.942914
endloop
endfacet
facet normal -0.575937 0.798607 -0.174710
outer loop
vertex -9.767636 36.364182 -1.942914
vertex 0.000000 43.833431 0.000000
vertex -9.200910 36.364182 -3.811154
endloop
endfacet
facet normal -0.530787 0.798607 -0.283711
outer loop
vertex -9.200910 36.364182 -3.811154
vertex 0.000000 43.833431 0.000000
vertex -8.280597 36.364182 -5.532933
endloop
endfacet
facet normal -0.465239 0.798607 -0.381811
outer loop
vertex -8.280597 36.364182 -5.532933
vertex 0.000000 43.833431 0.000000
vertex -7.042066 36.364182 -7.042083
endloop
endfacet
facet normal -0.381811 0.798606 -0.465240
outer loop
vertex -7.042066 36.364182 -7.042083
vertex 0.000000 43.833431 0.000000
vertex -5.532911 36.364182 -8.280611
endloop
endfacet
facet normal 0.000000 -1.000000 0.000032
outer loop
vertex -2.143763 36.364182 -5.175522
vertex -3.961166 36.364182 -3.961176
vertex -3.112266 36.364182 -4.657848
endloop
endfacet
facet normal 0.000000 -1.000000 0.000000
outer loop
vertex -5.175517 36.364182 -2.143776
vertex -4.657840 36.364182 -3.112278
vertex -3.961166 36.364182 -3.961176
endloop
endfacet
facet normal 0.000000 -1.000000 0.000000
outer loop
vertex -5.601942 36.364182 -0.000005
vertex -5.494301 36.364182 -1.092890
vertex -5.175517 36.364182 -2.143776
endloop
endfacet
facet normal 0.000000 -1.000000 0.000000
outer loop
vertex -5.175521 36.364182 2.143766
vertex -5.494303 36.364182 1.092880
vertex -5.601942 36.364182 -0.000005
endloop
endfacet
facet normal 0.000000 -1.000000 0.000000
outer loop
vertex -3.961173 36.364182 3.961169
vertex -4.657846 36.364182 3.112269
vertex -5.175521 36.364182 2.143766
endloop
endfacet
facet normal 0.000000 -1.000000 0.000016
outer loop
vertex -2.143773 36.364182 5.175518
vertex -3.112275 36.364182 4.657843
vertex -3.961173 36.364182 3.961169
endloop
endfacet
facet normal 0.000000 -1.000000 0.000065
outer loop
vertex -0.000002 36.364182 5.601942
vertex -1.092887 36.364182 5.494302
vertex -2.143773 36.364182 5.175518
endloop
endfacet
facet normal 0.000000 -1.000000 0.000000
outer loop
vertex 2.143769 36.364182 5.175519
vertex 1.092883 36.364182 5.494302
vertex -0.000002 36.364182 5.601942
endloop
endfacet
facet normal 0.000000 -1.000000 -0.000032
outer loop
vertex 3.961171 36.364182 3.961171
vertex 3.112272 36.364182 4.657845
vertex 2.143769 36.364182 5.175519
endloop
endfacet
facet normal 0.000000 -1.000000 0.000000
outer loop
vertex 5.175519 36.364182 2.143769
vertex 4.657845 36.364182 3.112272
vertex 3.961171 36.364182 3.961171
endloop
endfacet
facet normal 0.000000 -1.000000 0.000000
outer loop
vertex 5.601942 36.364182 -0.000000
vertex 5.494302 36.364182 1.092884
vertex 5.175519 36.364182 2.143769
endloop
endfacet
facet normal 0.000000 -1.000000 0.000004
outer loop
vertex 5.175519 36.364182 -2.143770
vertex 5.494302 36.364182 -1.092885
vertex 5.601942 36.364182 -0.000000
endloop
endfacet
facet normal 0.000000 -1.000000 -0.000016
outer loop
vertex 3.961171 36.364182 -3.961171
vertex 4.657845 36.364182 -3.112272
vertex 5.175519 36.364182 -2.143770
endloop
endfacet
facet normal 0.000000 -1.000000 -0.000016
outer loop
vertex 2.143770 36.364182 -5.175519
vertex 3.112272 36.364182 -4.657845
vertex 3.961171 36.364182 -3.961171
endloop
endfacet
facet normal 0.000000 -1.000000 0.000032
outer loop
vertex 0.000000 36.364182 -5.601942
vertex 1.092885 36.364182 -5.494302
vertex 2.143770 36.364182 -5.175519
endloop
endfacet
facet normal 0.000000 -1.000000 0.000000
outer loop
vertex -2.143763 36.364182 -5.175522
vertex -1.092876 36.364182 -5.494304
vertex 0.000000 36.364182 -5.601942
endloop
endfacet
facet normal 0.000000 -1.000000 -0.000004
outer loop
vertex -2.143763 36.364182 -5.175522
vertex -5.175517 36.364182 -2.143776
vertex -3.961166 36.364182 -3.961176
endloop
endfacet
facet normal 0.000000 -1.000000 -0.000001
outer loop
vertex -5.175521 36.364182 2.143766
vertex -5.601942 36.364182 -0.000005
vertex -5.175517 36.364182 -2.143776
endloop
endfacet
facet normal 0.000000 -1.000000 -0.000004
outer loop
vertex -2.143773 36.364182 5.175518
vertex -3.961173 36.364182 3.961169
vertex -5.175521 36.364182 2.143766
endloop
endfacet
facet normal 0.000000 -1.000000 0.000000
outer loop
vertex 2.143769 36.364182 5.175519
vertex -0.000002 36.364182 5.601942
vertex -2.143773 36.364182 5.175518
endloop
endfacet
facet normal 0.000000 -1.000000 0.000000
outer loop
vertex 5.175519 36.364182 2.143769
vertex 3.961171 36.364182 3.961171
vertex 2.143769 36.364182 5.175519
endloop
endfacet
facet normal 0.000000 -1.000000 0.000000
outer loop
vertex 5.175519 36.364182 -2.143770
vertex 5.601942 36.364182 -0.000000
vertex 5.175519 36.364182 2.143769
endloop
endfacet
facet normal 0.000000 -1.000000 0.000004
outer loop
vertex 2.143770 36.364182 -5.175519
vertex 3.961171 36.364182 -3.961171
vertex 5.175519 36.364182 -2.143770
endloop
endfacet
facet normal 0.000000 -1.000000 0.000008
outer loop
vertex -2.143763 36.364182 -5.175522
vertex 0.000000 36.364182 -5.601942
vertex 2.143770 36.364182 -5.175519
endloop
endfacet
facet normal 0.000000 -1.000000 -0.000000
outer loop
vertex -2.143763 36.364182 -5.175522
vertex -5.175521 36.364182 2.143766
vertex -5.175517 36.364182 -2.143776
endloop
endfacet
facet normal 0.000000 -1.000000 -0.000001
outer loop
vertex 2.143769 36.364182 5.175519
vertex -2.143773 36.364182 5.175518
vertex -5.175521 36.364182 2.143766
endloop
endfacet
facet normal 0.000000 -1.000000 0.000001
outer loop
vertex 5.175519 36.364182 -2.143770
vertex 5.175519 36.364182 2.143769
vertex 2.143769 36.364182 5.175519
endloop
endfacet
facet normal 0.000000 -1.000000 -0.000001
outer loop
vertex -2.143763 36.364182 -5.175522
vertex 2.143770 36.364182 -5.175519
vertex 5.175519 36.364182 -2.143770
endloop
endfacet
facet normal 0.000000 -1.000000 0.000001
outer loop
vertex -2.143763 36.364182 -5.175522
vertex 2.143769 36.364182 5.175519
vertex -5.175521 36.364182 2.143766
endloop
endfacet
facet normal 0.000000 -1.000000 -0.000000
outer loop
vertex -2.143763 36.364182 -5.175522
vertex 5.175519 36.364182 -2.143770
vertex 2.143769 36.364182 5.175519
endloop
endfacet
endsolid Exported from Blender-2.74 (sub 0)
