solid Exported from Blender-2.74 (sub 0)
facet normal -0.161559 0.830811 -0.532590
outer loop
vertex -1.092875 36.364185 -5.494298
vertex -2.914334 30.139809 -14.651461
vertex -5.716695 30.139809 -13.801379
endloop
endfacet
facet normal -0.161558 0.830812 -0.532589
outer loop
vertex -5.716695 30.139809 -13.801379
vertex -2.143760 36.364185 -5.175517
vertex -1.092875 36.364185 -5.494298
endloop
endfacet
facet normal -0.054551 0.830812 -0.553874
outer loop
vertex -2.914334 30.139809 -14.651461
vertex -1.092875 36.364185 -5.494298
vertex 0.000000 36.364185 -5.601936
endloop
endfacet
facet normal -0.054552 0.830811 -0.553875
outer loop
vertex 0.000000 36.364185 -5.601936
vertex 0.000000 30.139809 -14.938496
vertex -2.914334 30.139809 -14.651461
endloop
endfacet
facet normal 0.000000 -1.000000 0.000009
outer loop
vertex 0.000000 30.139809 -14.938496
vertex -5.716695 30.139809 -13.801379
vertex -2.914334 30.139809 -14.651461
endloop
endfacet
facet normal 0.000000 -1.000000 0.000000
outer loop
vertex -10.563098 30.139809 -10.563126
vertex -8.299367 30.139809 -12.420917
vertex -5.716695 30.139809 -13.801379
endloop
endfacet
facet normal 0.000000 -1.000000 0.000000
outer loop
vertex -13.801364 30.139809 -5.716730
vertex -12.420896 30.139809 -8.299398
vertex -10.563098 30.139809 -10.563126
endloop
endfacet
facet normal 0.000000 -1.000000 -0.000002
outer loop
vertex -14.938496 30.139809 -0.000014
vertex -14.651454 30.139809 -2.914371
vertex -13.801364 30.139809 -5.716730
endloop
endfacet
facet normal 0.000000 -1.000000 -0.000001
outer loop
vertex -13.801375 30.139809 5.716703
vertex -14.651460 30.139809 2.914343
vertex -14.938496 30.139809 -0.000014
endloop
endfacet
facet normal 0.000000 -1.000000 -0.000005
outer loop
vertex -10.563119 30.139809 10.563106
vertex -12.420911 30.139809 8.299375
vertex -13.801375 30.139809 5.716703
endloop
endfacet
facet normal 0.000000 -1.000000 0.000000
outer loop
vertex -5.716722 30.139809 13.801367
vertex -8.299391 30.139809 12.420900
vertex -10.563119 30.139809 10.563106
endloop
endfacet
facet normal 0.000000 -1.000000 0.000000
outer loop
vertex -0.000005 30.139809 14.938496
vertex -2.914362 30.139809 14.651456
vertex -5.716722 30.139809 13.801367
endloop
endfacet
facet normal 0.000000 -1.000000 -0.000009
outer loop
vertex 5.716712 30.139809 13.801372
vertex 2.914353 30.139809 14.651457
vertex -0.000005 30.139809 14.938496
endloop
endfacet
facet normal 0.000000 -1.000000 0.000000
outer loop
vertex 10.563111 30.139809 10.563111
vertex 8.299384 30.139809 12.420907
vertex 5.716712 30.139809 13.801372
endloop
endfacet
facet normal 0.000000 -1.000000 -0.000005
outer loop
vertex 13.801371 30.139809 5.716712
vertex 12.420907 30.139809 8.299384
vertex 10.563111 30.139809 10.563111
endloop
endfacet
facet normal 0.000000 -1.000000 -0.000002
outer loop
vertex 14.938496 30.139809 -0.000001
vertex 14.651457 30.139809 2.914354
vertex 13.801371 30.139809 5.716712
endloop
endfacet
facet normal 0.000000 -1.000000 0.000000
outer loop
vertex 13.801370 30.139809 -5.716715
vertex 14.651456 30.139809 -2.914356
vertex 14.938496 30.139809 -0.000001
endloop
endfacet
facet normal 0.000000 -1.000000 0.000000
outer loop
vertex 10.563111 30.139809 -10.563111
vertex 12.420907 30.139809 -8.299384
vertex 13.801370 30.139809 -5.716715
endloop
endfacet
facet normal 0.000000 -1.000000 0.000000
outer loop
vertex 5.716715 30.139809 -13.801370
vertex 8.299384 30.139809 -12.420906
vertex 10.563111 30.139809 -10.563111
endloop
endfacet
facet normal 0.000000 -1.000000 -0.000009
outer loop
vertex 0.000000 30.139809 -14.938496
vertex 2.914356 30.139809 -14.651456
vertex 5.716715 30.139809 -13.801370
endloop
endfacet
facet normal 0.000000 -1.000000 0.000000
outer loop
vertex 0.000000 30.139809 -14.938496
vertex -10.563098 30.139809 -10.563126
vertex -5.716695 30.139809 -13.801379
endloop
endfacet
facet normal 0.000000 -1.000000 -0.000001
outer loop
vertex -14.938496 30.139809 -0.000014
vertex -13.801364 30.139809 -5.716730
vertex -10.563098 30.139809 -10.563126
endloop
endfacet
facet normal 0.000000 -1.000000 0.000001
outer loop
vertex -10.563119 30.139809 10.563106
vertex -13.801375 30.139809 5.716703
vertex -14.938496 30.139809 -0.000014
endloop
endfacet
facet normal 0.000000 -1.000000 0.000000
outer loop
vertex -0.000005 30.139809 14.938496
vertex -5.716722 30.139809 13.801367
vertex -10.563119 30.139809 10.563106
endloop
endfacet
facet normal 0.000000 -1.000000 0.000000
outer loop
vertex 10.563111 30.139809 10.563111
vertex 5.716712 30.139809 13.801372
vertex -0.000005 30.139809 14.938496
endloop
endfacet
facet normal 0.000000 -1.000000 0.000001
outer loop
vertex 14.938496 30.139809 -0.000001
vertex 13.801371 30.139809 5.716712
vertex 10.563111 30.139809 10.563111
endloop
endfacet
facet normal 0.000000 -1.000000 0.000000
outer loop
vertex 10.563111 30.139809 -10.563111
vertex 13.801370 30.139809 -5.716715
vertex 14.938496 30.139809 -0.000001
endloop
endfacet
facet normal 0.000000 -1.000000 0.000000
outer loop
vertex 0.000000 30.139809 -14.938496
vertex 5.716715 30.139809 -13.801370
vertex 10.563111 30.139809 -10.563111
endloop
endfacet
facet normal 0.000000 -1.000000 0.000000
outer loop
vertex 0.000000 30.139809 -14.938496
vertex -14.938496 30.139809 -0.000014
vertex -10.563098 30.139809 -10.563126
endloop
endfacet
facet normal 0.000000 -1.000000 0.000000
outer loop
vertex -0.000005 30.139809 14.938496
vertex -10.563119 30.139809 10.563106
vertex -14.938496 30.139809 -0.000014
endloop
endfacet
facet normal 0.000000 -1.000000 0.000000
outer loop
vertex 14.938496 30.139809 -0.000001
vertex 10.563111 30.139809 10.563111
vertex -0.000005 30.139809 14.938496
endloop
endfacet
facet normal 0.000000 -1.000000 0.000000
outer loop
vertex 0.000000 30.139809 -14.938496
vertex 10.563111 30.139809 -10.563111
vertex 14.938496 30.139809 -0.000001
endloop
endfacet
facet normal 0.000000 -1.000000 0.000000
outer loop
vertex 0.000000 30.139809 -14.938496
vertex -0.000005 30.139809 14.938496
vertex -14.938496 30.139809 -0.000014
endloop
endfacet
facet normal 0.000000 -1.000000 -0.000000
outer loop
vertex 0.000000 30.139809 -14.938496
vertex 14.938496 30.139809 -0.000001
vertex -0.000005 30.139809 14.938496
endloop
endfacet
facet normal -0.262357 0.830811 -0.490838
outer loop
vertex -2.143760 36.364185 -5.175517
vertex -5.716695 30.139809 -13.801379
vertex -8.299367 30.139809 -12.420917
endloop
endfacet
facet normal -0.262358 0.830811 -0.490837
outer loop
vertex -8.299367 30.139809 -12.420917
vertex -3.112263 36.364185 -4.657844
vertex -2.143760 36.364185 -5.175517
endloop
endfacet
facet normal 0.054552 0.830811 -0.553875
outer loop
vertex 1.092884 36.364185 -5.494296
vertex 2.914356 30.139809 -14.651456
vertex 0.000000 30.139809 -14.938496
endloop
endfacet
facet normal 0.054552 0.830811 -0.553874
outer loop
vertex 0.000000 30.139809 -14.938496
vertex 0.000000 36.364185 -5.601936
vertex 1.092884 36.364185 -5.494296
endloop
endfacet
facet normal 0.161559 0.830811 -0.532590
outer loop
vertex 2.143768 36.364185 -5.175513
vertex 5.716715 30.139809 -13.801370
vertex 2.914356 30.139809 -14.651456
endloop
endfacet
facet normal 0.161559 0.830812 -0.532589
outer loop
vertex 2.914356 30.139809 -14.651456
vertex 1.092884 36.364185 -5.494296
vertex 2.143768 36.364185 -5.175513
endloop
endfacet
facet normal 0.262357 0.830811 -0.490837
outer loop
vertex 3.112269 36.364185 -4.657840
vertex 8.299384 30.139809 -12.420906
vertex 5.716715 30.139809 -13.801370
endloop
endfacet
facet normal 0.262358 0.830811 -0.490837
outer loop
vertex 5.716715 30.139809 -13.801370
vertex 2.143768 36.364185 -5.175513
vertex 3.112269 36.364185 -4.657840
endloop
endfacet
facet normal 0.353075 0.830811 -0.430222
outer loop
vertex 3.961167 36.364185 -3.961167
vertex 10.563111 30.139809 -10.563111
vertex 8.299384 30.139809 -12.420906
endloop
endfacet
facet normal 0.353075 0.830811 -0.430223
outer loop
vertex 8.299384 30.139809 -12.420906
vertex 3.112269 36.364185 -4.657840
vertex 3.961167 36.364185 -3.961167
endloop
endfacet
facet normal 0.430222 0.830811 -0.353076
outer loop
vertex 4.657840 36.364185 -3.112269
vertex 12.420907 30.139809 -8.299384
vertex 10.563111 30.139809 -10.563111
endloop
endfacet
facet normal 0.430222 0.830812 -0.353073
outer loop
vertex 10.563111 30.139809 -10.563111
vertex 3.961167 36.364185 -3.961167
vertex 4.657840 36.364185 -3.112269
endloop
endfacet
facet normal 0.490837 0.830811 -0.262357
outer loop
vertex 5.175513 36.364185 -2.143768
vertex 13.801370 30.139809 -5.716715
vertex 12.420907 30.139809 -8.299384
endloop
endfacet
facet normal 0.490838 0.830811 -0.262357
outer loop
vertex 12.420907 30.139809 -8.299384
vertex 4.657840 36.364185 -3.112269
vertex 5.175513 36.364185 -2.143768
endloop
endfacet
facet normal 0.532589 0.830811 -0.161559
outer loop
vertex 5.494296 36.364185 -1.092884
vertex 14.651456 30.139809 -2.914356
vertex 13.801370 30.139809 -5.716715
endloop
endfacet
facet normal 0.532589 0.830811 -0.161561
outer loop
vertex 13.801370 30.139809 -5.716715
vertex 5.175513 36.364185 -2.143768
vertex 5.494296 36.364185 -1.092884
endloop
endfacet
facet normal 0.553874 0.830811 -0.054550
outer loop
vertex 5.601936 36.364185 -0.000000
vertex 14.938496 30.139809 -0.000001
vertex 14.651456 30.139809 -2.914356
endloop
endfacet
facet normal 0.553874 0.830811 -0.054554
outer loop
vertex 14.651456 30.139809 -2.914356
vertex 5.494296 36.364185 -1.092884
vertex 5.601936 36.364185 -0.000000
endloop
endfacet
facet normal 0.553874 0.830811 0.054552
outer loop
vertex 5.494296 36.364185 1.092883
vertex 14.651457 30.139809 2.914354
vertex 14.938496 30.139809 -0.000001
endloop
endfacet
facet normal 0.553875 0.830811 0.054549
outer loop
vertex 14.938496 30.139809 -0.000001
vertex 5.601936 36.364185 -0.000000
vertex 5.494296 36.364185 1.092883
endloop
endfacet
facet normal 0.532589 0.830811 0.161559
outer loop
vertex 5.175514 36.364185 2.143767
vertex 13.801371 30.139809 5.716712
vertex 14.651457 30.139809 2.914354
endloop
endfacet
facet normal 0.532589 0.830811 0.161563
outer loop
vertex 14.651457 30.139809 2.914354
vertex 5.494296 36.364185 1.092883
vertex 5.175514 36.364185 2.143767
endloop
endfacet
facet normal 0.490837 0.830811 0.262357
outer loop
vertex 4.657840 36.364185 3.112269
vertex 12.420907 30.139809 8.299384
vertex 13.801371 30.139809 5.716712
endloop
endfacet
facet normal 0.490838 0.830812 0.262354
outer loop
vertex 13.801371 30.139809 5.716712
vertex 5.175514 36.364185 2.143767
vertex 4.657840 36.364185 3.112269
endloop
endfacet
facet normal 0.430222 0.830811 0.353075
outer loop
vertex 3.961167 36.364185 3.961167
vertex 10.563111 30.139809 10.563111
vertex 12.420907 30.139809 8.299384
endloop
endfacet
facet normal 0.430222 0.830811 0.353075
outer loop
vertex 12.420907 30.139809 8.299384
vertex 4.657840 36.364185 3.112269
vertex 3.961167 36.364185 3.961167
endloop
endfacet
facet normal 0.353074 0.830811 0.430222
outer loop
vertex 3.112269 36.364185 4.657840
vertex 8.299384 30.139809 12.420907
vertex 10.563111 30.139809 10.563111
endloop
endfacet
facet normal 0.353075 0.830811 0.430222
outer loop
vertex 10.563111 30.139809 10.563111
vertex 3.961167 36.364185 3.961167
vertex 3.112269 36.364185 4.657840
endloop
endfacet
facet normal 0.262358 0.830811 0.490837
outer loop
vertex 2.143767 36.364185 5.175514
vertex 5.716712 30.139809 13.801372
vertex 8.299384 30.139809 12.420907
endloop
endfacet
facet normal 0.262358 0.830811 0.490838
outer loop
vertex 8.299384 30.139809 12.420907
vertex 3.112269 36.364185 4.657840
vertex 2.143767 36.364185 5.175514
endloop
endfacet
facet normal 0.161559 0.830811 0.532590
outer loop
vertex 1.092882 36.364185 5.494296
vertex 2.914353 30.139809 14.651457
vertex 5.716712 30.139809 13.801372
endloop
endfacet
facet normal 0.161558 0.830812 0.532589
outer loop
vertex 5.716712 30.139809 13.801372
vertex 2.143767 36.364185 5.175514
vertex 1.092882 36.364185 5.494296
endloop
endfacet
facet normal 0.054552 0.830811 0.553875
outer loop
vertex -0.000002 36.364185 5.601936
vertex -0.000005 30.139809 14.938496
vertex 2.914353 30.139809 14.651457
endloop
endfacet
facet normal 0.054553 0.830812 0.553874
outer loop
vertex 2.914353 30.139809 14.651457
vertex 1.092882 36.364185 5.494296
vertex -0.000002 36.364185 5.601936
endloop
endfacet
facet normal -0.054552 0.830811 0.553874
outer loop
vertex -1.092886 36.364185 5.494296
vertex -2.914362 30.139809 14.651456
vertex -0.000005 30.139809 14.938496
endloop
endfacet
facet normal -0.054552 0.830811 0.553874
outer loop
vertex -0.000005 30.139809 14.938496
vertex -0.000002 36.364185 5.601936
vertex -1.092886 36.364185 5.494296
endloop
endfacet
facet normal -0.161560 0.830811 0.532589
outer loop
vertex -2.143770 36.364185 5.175513
vertex -5.716722 30.139809 13.801367
vertex -2.914362 30.139809 14.651456
endloop
endfacet
facet normal -0.161559 0.830811 0.532589
outer loop
vertex -2.914362 30.139809 14.651456
vertex -1.092886 36.364185 5.494296
vertex -2.143770 36.364185 5.175513
endloop
endfacet
facet normal -0.262358 0.830811 0.490838
outer loop
vertex -3.112272 36.364185 4.657838
vertex -8.299391 30.139809 12.420900
vertex -5.716722 30.139809 13.801367
endloop
endfacet
facet normal -0.262358 0.830811 0.490837
outer loop
vertex -5.716722 30.139809 13.801367
vertex -2.143770 36.364185 5.175513
vertex -3.112272 36.364185 4.657838
endloop
endfacet
facet normal -0.353074 0.830811 0.430223
outer loop
vertex -3.961169 36.364185 3.961165
vertex -10.563119 30.139809 10.563106
vertex -8.299391 30.139809 12.420900
endloop
endfacet
facet normal -0.353075 0.830812 0.430220
outer loop
vertex -8.299391 30.139809 12.420900
vertex -3.112272 36.364185 4.657838
vertex -3.961169 36.364185 3.961165
endloop
endfacet
facet normal -0.430223 0.830811 0.353074
outer loop
vertex -4.657842 36.364185 3.112266
vertex -12.420911 30.139809 8.299375
vertex -10.563119 30.139809 10.563106
endloop
endfacet
facet normal -0.430223 0.830811 0.353073
outer loop
vertex -10.563119 30.139809 10.563106
vertex -3.961169 36.364185 3.961165
vertex -4.657842 36.364185 3.112266
endloop
endfacet
facet normal -0.490837 0.830811 0.262358
outer loop
vertex -5.175516 36.364185 2.143764
vertex -13.801375 30.139809 5.716703
vertex -12.420911 30.139809 8.299375
endloop
endfacet
facet normal -0.490838 0.830811 0.262357
outer loop
vertex -12.420911 30.139809 8.299375
vertex -4.657842 36.364185 3.112266
vertex -5.175516 36.364185 2.143764
endloop
endfacet
facet normal -0.532590 0.830811 0.161559
outer loop
vertex -5.494298 36.364185 1.092879
vertex -14.651460 30.139809 2.914343
vertex -13.801375 30.139809 5.716703
endloop
endfacet
facet normal -0.532590 0.830812 0.161555
outer loop
vertex -13.801375 30.139809 5.716703
vertex -5.175516 36.364185 2.143764
vertex -5.494298 36.364185 1.092879
endloop
endfacet
facet normal -0.553875 0.830811 0.054550
outer loop
vertex -5.601936 36.364185 -0.000005
vertex -14.938496 30.139809 -0.000014
vertex -14.651460 30.139809 2.914343
endloop
endfacet
facet normal -0.553874 0.830811 0.054556
outer loop
vertex -14.651460 30.139809 2.914343
vertex -5.494298 36.364185 1.092879
vertex -5.601936 36.364185 -0.000005
endloop
endfacet
facet normal -0.553874 0.830811 -0.054552
outer loop
vertex -5.494295 36.364185 -1.092889
vertex -14.651454 30.139809 -2.914371
vertex -14.938496 30.139809 -0.000014
endloop
endfacet
facet normal -0.553874 0.830811 -0.054550
outer loop
vertex -14.938496 30.139809 -0.000014
vertex -5.601936 36.364185 -0.000005
vertex -5.494295 36.364185 -1.092889
endloop
endfacet
facet normal -0.532589 0.830811 -0.161559
outer loop
vertex -5.175512 36.364185 -2.143774
vertex -13.801364 30.139809 -5.716730
vertex -14.651454 30.139809 -2.914371
endloop
endfacet
facet normal -0.532589 0.830811 -0.161558
outer loop
vertex -14.651454 30.139809 -2.914371
vertex -5.494295 36.364185 -1.092889
vertex -5.175512 36.364185 -2.143774
endloop
endfacet
facet normal -0.490837 0.830811 -0.262358
outer loop
vertex -4.657835 36.364185 -3.112274
vertex -12.420896 30.139809 -8.299398
vertex -13.801364 30.139809 -5.716730
endloop
endfacet
facet normal -0.490836 0.830810 -0.262363
outer loop
vertex -13.801364 30.139809 -5.716730
vertex -5.175512 36.364185 -2.143774
vertex -4.657835 36.364185 -3.112274
endloop
endfacet
facet normal -0.430222 0.830811 -0.353076
outer loop
vertex -3.961162 36.364185 -3.961172
vertex -10.563098 30.139809 -10.563126
vertex -12.420896 30.139809 -8.299398
endloop
endfacet
facet normal -0.430222 0.830812 -0.353073
outer loop
vertex -12.420896 30.139809 -8.299398
vertex -4.657835 36.364185 -3.112274
vertex -3.961162 36.364185 -3.961172
endloop
endfacet
facet normal -0.353074 0.830811 -0.430223
outer loop
vertex -3.112263 36.364185 -4.657844
vertex -8.299367 30.139809 -12.420917
vertex -10.563098 30.139809 -10.563126
endloop
endfacet
facet normal -0.353073 0.830811 -0.430224
outer loop
vertex -10.563098 30.139809 -10.563126
vertex -3.961162 36.364185 -3.961172
vertex -3.112263 36.364185 -4.657844
endloop
endfacet
facet normal 0.000000 1.000000 0.000004
outer loop
vertex -5.175516 36.364185 2.143764
vertex -5.601936 36.364185 -0.000005
vertex -5.494298 36.364185 1.092879
endloop
endfacet
facet normal 0.000000 1.000000 0.000004
outer loop
vertex -5.175512 36.364185 -2.143774
vertex -5.494295 36.364185 -1.092889
vertex -5.601936 36.364185 -0.000005
endloop
endfacet
facet normal 0.000000 1.000000 0.000000
outer loop
vertex -3.961162 36.364185 -3.961172
vertex -4.657835 36.364185 -3.112274
vertex -5.175512 36.364185 -2.143774
endloop
endfacet
facet normal 0.000000 1.000000 0.000032
outer loop
vertex -2.143760 36.364185 -5.175517
vertex -3.112263 36.364185 -4.657844
vertex -3.961162 36.364185 -3.961172
endloop
endfacet
facet normal 0.000000 1.000000 0.000000
outer loop
vertex 0.000000 36.364185 -5.601936
vertex -1.092875 36.364185 -5.494298
vertex -2.143760 36.364185 -5.175517
endloop
endfacet
facet normal 0.000000 1.000000 -0.000032
outer loop
vertex 2.143768 36.364185 -5.175513
vertex 1.092884 36.364185 -5.494296
vertex 0.000000 36.364185 -5.601936
endloop
endfacet
facet normal 0.000000 1.000000 0.000000
outer loop
vertex 3.961167 36.364185 -3.961167
vertex 3.112269 36.364185 -4.657840
vertex 2.143768 36.364185 -5.175513
endloop
endfacet
facet normal 0.000000 1.000000 0.000016
outer loop
vertex 5.175513 36.364185 -2.143768
vertex 4.657840 36.364185 -3.112269
vertex 3.961167 36.364185 -3.961167
endloop
endfacet
facet normal 0.000000 1.000000 0.000000
outer loop
vertex 5.601936 36.364185 -0.000000
vertex 5.494296 36.364185 -1.092884
vertex 5.175513 36.364185 -2.143768
endloop
endfacet
facet normal 0.000000 1.000000 0.000000
outer loop
vertex 5.175514 36.364185 2.143767
vertex 5.494296 36.364185 1.092883
vertex 5.601936 36.364185 -0.000000
endloop
endfacet
facet normal 0.000000 1.000000 0.000000
outer loop
vertex 3.961167 36.364185 3.961167
vertex 4.657840 36.364185 3.112269
vertex 5.175514 36.364185 2.143767
endloop
endfacet
facet normal 0.000000 1.000000 -0.000016
outer loop
vertex 2.143767 36.364185 5.175514
vertex 3.112269 36.364185 4.657840
vertex 3.961167 36.364185 3.961167
endloop
endfacet
facet normal 0.000000 1.000000 0.000032
outer loop
vertex -0.000002 36.364185 5.601936
vertex 1.092882 36.364185 5.494296
vertex 2.143767 36.364185 5.175514
endloop
endfacet
facet normal 0.000000 1.000000 0.000000
outer loop
vertex -2.143770 36.364185 5.175513
vertex -1.092886 36.364185 5.494296
vertex -0.000002 36.364185 5.601936
endloop
endfacet
facet normal 0.000000 1.000000 0.000000
outer loop
vertex -3.961169 36.364185 3.961165
vertex -3.112272 36.364185 4.657838
vertex -2.143770 36.364185 5.175513
endloop
endfacet
facet normal 0.000000 1.000000 0.000000
outer loop
vertex -5.175516 36.364185 2.143764
vertex -4.657842 36.364185 3.112266
vertex -3.961169 36.364185 3.961165
endloop
endfacet
facet normal 0.000000 1.000000 0.000000
outer loop
vertex -5.175516 36.364185 2.143764
vertex -5.175512 36.364185 -2.143774
vertex -5.601936 36.364185 -0.000005
endloop
endfacet
facet normal 0.000000 1.000000 -0.000004
outer loop
vertex -2.143760 36.364185 -5.175517
vertex -3.961162 36.364185 -3.961172
vertex -5.175512 36.364185 -2.143774
endloop
endfacet
facet normal 0.000000 1.000000 0.000008
outer loop
vertex 2.143768 36.364185 -5.175513
vertex 0.000000 36.364185 -5.601936
vertex -2.143760 36.364185 -5.175517
endloop
endfacet
facet normal 0.000000 1.000000 0.000008
outer loop
vertex 5.175513 36.364185 -2.143768
vertex 3.961167 36.364185 -3.961167
vertex 2.143768 36.364185 -5.175513
endloop
endfacet
facet normal 0.000000 1.000000 0.000001
outer loop
vertex 5.175514 36.364185 2.143767
vertex 5.601936 36.364185 -0.000000
vertex 5.175513 36.364185 -2.143768
endloop
endfacet
facet normal 0.000000 1.000000 0.000000
outer loop
vertex 2.143767 36.364185 5.175514
vertex 3.961167 36.364185 3.961167
vertex 5.175514 36.364185 2.143767
endloop
endfacet
facet normal 0.000000 1.000000 0.000000
outer loop
vertex -2.143770 36.364185 5.175513
vertex -0.000002 36.364185 5.601936
vertex 2.143767 36.364185 5.175514
endloop
endfacet
facet normal 0.000000 1.000000 0.000000
outer loop
vertex -5.175516 36.364185 2.143764
vertex -3.961169 36.364185 3.961165
vertex -2.143770 36.364185 5.175513
endloop
endfacet
facet normal 0.000000 1.000000 0.000000
outer loop
vertex -5.175516 36.364185 2.143764
vertex -2.143760 36.364185 -5.175517
vertex -5.175512 36.364185 -2.143774
endloop
endfacet
facet normal 0.000000 1.000000 0.000000
outer loop
vertex 5.175513 36.364185 -2.143768
vertex 2.143768 36.364185 -5.175513
vertex -2.143760 36.364185 -5.175517
endloop
endfacet
facet normal 0.000000 1.000000 0.000000
outer loop
vertex 2.143767 36.364185 5.175514
vertex 5.175514 36.364185 2.143767
vertex 5.175513 36.364185 -2.143768
endloop
endfacet
facet normal 0.000000 1.000000 0.000000
outer loop
vertex -5.175516 36.364185 2.143764
vertex -2.143770 36.364185 5.175513
vertex 2.143767 36.364185 5.175514
endloop
endfacet
facet normal 0.000000 1.000000 0.000001
outer loop
vertex -5.175516 36.364185 2.143764
vertex 5.175513 36.364185 -2.143768
vertex -2.143760 36.364185 -5.175517
endloop
endfacet
facet normal 0.000000 1.000000 -0.000001
outer loop
vertex -5.175516 36.364185 2.143764
vertex 2.143767 36.364185 5.175514
vertex 5.175513 36.364185 -2.143768
endloop
endfacet
endsolid Exported from Blender-2.74 (sub 0)
