solid Exported from Blender-2.74 (sub 0)
facet normal -0.205756 0.705398 -0.678291
outer loop
vertex -1.942890 30.139809 -9.767645
vertex -3.885778 20.180813 -19.535282
vertex -7.622260 20.180813 -18.401838
endloop
endfacet
facet normal -0.205756 0.705398 -0.678290
outer loop
vertex -7.622260 20.180813 -18.401838
vertex -3.811131 30.139809 -9.200923
vertex -1.942890 30.139809 -9.767645
endloop
endfacet
facet normal 0.000000 1.000000 0.000010
outer loop
vertex -1.942909 30.139809 9.767641
vertex -5.532929 30.139809 8.280603
vertex -3.811149 30.139809 9.200916
endloop
endfacet
facet normal 0.000000 1.000000 0.000000
outer loop
vertex -8.280611 30.139809 5.532918
vertex -7.042082 30.139809 7.042073
vertex -5.532929 30.139809 8.280603
endloop
endfacet
facet normal 0.000000 1.000000 -0.000005
outer loop
vertex -9.767644 30.139809 1.942896
vertex -9.200921 30.139809 3.811137
vertex -8.280611 30.139809 5.532918
endloop
endfacet
facet normal 0.000000 1.000000 0.000000
outer loop
vertex -9.767640 30.139809 -1.942915
vertex -9.959002 30.139809 -0.000010
vertex -9.767644 30.139809 1.942896
endloop
endfacet
facet normal 0.000000 1.000000 -0.000005
outer loop
vertex -8.280600 30.139809 -5.532935
vertex -9.200913 30.139809 -3.811155
vertex -9.767640 30.139809 -1.942915
endloop
endfacet
facet normal 0.000000 1.000000 0.000000
outer loop
vertex -5.532913 30.139809 -8.280614
vertex -7.042068 30.139809 -7.042086
vertex -8.280600 30.139809 -5.532935
endloop
endfacet
facet normal 0.000000 1.000000 0.000000
outer loop
vertex -1.942890 30.139809 -9.767645
vertex -3.811131 30.139809 -9.200923
vertex -5.532913 30.139809 -8.280614
endloop
endfacet
facet normal 0.000000 1.000000 0.000000
outer loop
vertex 1.942905 30.139809 -9.767642
vertex 0.000000 30.139809 -9.959002
vertex -1.942890 30.139809 -9.767645
endloop
endfacet
facet normal 0.000000 1.000000 0.000010
outer loop
vertex 5.532924 30.139809 -8.280606
vertex 3.811145 30.139809 -9.200917
vertex 1.942905 30.139809 -9.767642
endloop
endfacet
facet normal 0.000000 1.000000 0.000000
outer loop
vertex 8.280607 30.139809 -5.532924
vertex 7.042077 30.139809 -7.042077
vertex 5.532924 30.139809 -8.280606
endloop
endfacet
facet normal 0.000000 1.000000 0.000005
outer loop
vertex 9.767642 30.139809 -1.942905
vertex 9.200917 30.139809 -3.811145
vertex 8.280607 30.139809 -5.532924
endloop
endfacet
facet normal 0.000000 1.000000 0.000000
outer loop
vertex 9.767642 30.139809 1.942904
vertex 9.959002 30.139809 -0.000001
vertex 9.767642 30.139809 -1.942905
endloop
endfacet
facet normal 0.000000 1.000000 -0.000005
outer loop
vertex 8.280607 30.139809 5.532924
vertex 9.200917 30.139809 3.811143
vertex 9.767642 30.139809 1.942904
endloop
endfacet
facet normal 0.000000 1.000000 0.000010
outer loop
vertex 5.532924 30.139809 8.280607
vertex 7.042077 30.139809 7.042077
vertex 8.280607 30.139809 5.532924
endloop
endfacet
facet normal 0.000000 1.000000 0.000010
outer loop
vertex 1.942902 30.139809 9.767642
vertex 3.811143 30.139809 9.200918
vertex 5.532924 30.139809 8.280607
endloop
endfacet
facet normal 0.000000 1.000000 0.000010
outer loop
vertex -1.942909 30.139809 9.767641
vertex -0.000003 30.139809 9.959002
vertex 1.942902 30.139809 9.767642
endloop
endfacet
facet normal 0.000000 1.000000 0.000000
outer loop
vertex -1.942909 30.139809 9.767641
vertex -8.280611 30.139809 5.532918
vertex -5.532929 30.139809 8.280603
endloop
endfacet
facet normal 0.000000 1.000000 0.000000
outer loop
vertex -9.767640 30.139809 -1.942915
vertex -9.767644 30.139809 1.942896
vertex -8.280611 30.139809 5.532918
endloop
endfacet
facet normal 0.000000 1.000000 0.000001
outer loop
vertex -5.532913 30.139809 -8.280614
vertex -8.280600 30.139809 -5.532935
vertex -9.767640 30.139809 -1.942915
endloop
endfacet
facet normal 0.000000 1.000000 -0.000003
outer loop
vertex 1.942905 30.139809 -9.767642
vertex -1.942890 30.139809 -9.767645
vertex -5.532913 30.139809 -8.280614
endloop
endfacet
facet normal 0.000000 1.000000 0.000000
outer loop
vertex 8.280607 30.139809 -5.532924
vertex 5.532924 30.139809 -8.280606
vertex 1.942905 30.139809 -9.767642
endloop
endfacet
facet normal 0.000000 1.000000 0.000000
outer loop
vertex 9.767642 30.139809 1.942904
vertex 9.767642 30.139809 -1.942905
vertex 8.280607 30.139809 -5.532924
endloop
endfacet
facet normal 0.000000 1.000000 -0.000001
outer loop
vertex 5.532924 30.139809 8.280607
vertex 8.280607 30.139809 5.532924
vertex 9.767642 30.139809 1.942904
endloop
endfacet
facet normal 0.000000 1.000000 -0.000003
outer loop
vertex -1.942909 30.139809 9.767641
vertex 1.942902 30.139809 9.767642
vertex 5.532924 30.139809 8.280607
endloop
endfacet
facet normal 0.000000 1.000000 0.000000
outer loop
vertex -1.942909 30.139809 9.767641
vertex -9.767640 30.139809 -1.942915
vertex -8.280611 30.139809 5.532918
endloop
endfacet
facet normal 0.000000 1.000000 0.000000
outer loop
vertex 1.942905 30.139809 -9.767642
vertex -5.532913 30.139809 -8.280614
vertex -9.767640 30.139809 -1.942915
endloop
endfacet
facet normal 0.000000 1.000000 0.000000
outer loop
vertex 9.767642 30.139809 1.942904
vertex 8.280607 30.139809 -5.532924
vertex 1.942905 30.139809 -9.767642
endloop
endfacet
facet normal 0.000000 1.000000 0.000000
outer loop
vertex -1.942909 30.139809 9.767641
vertex 5.532924 30.139809 8.280607
vertex 9.767642 30.139809 1.942904
endloop
endfacet
facet normal 0.000000 1.000000 0.000000
outer loop
vertex -1.942909 30.139809 9.767641
vertex 1.942905 30.139809 -9.767642
vertex -9.767640 30.139809 -1.942915
endloop
endfacet
facet normal 0.000000 1.000000 -0.000000
outer loop
vertex -1.942909 30.139809 9.767641
vertex 9.767642 30.139809 1.942904
vertex 1.942905 30.139809 -9.767642
endloop
endfacet
facet normal -0.069476 0.705398 -0.705398
outer loop
vertex -3.885778 20.180813 -19.535282
vertex -1.942890 30.139809 -9.767645
vertex 0.000000 30.139809 -9.959002
endloop
endfacet
facet normal -0.069475 0.705398 -0.705398
outer loop
vertex 0.000000 30.139809 -9.959002
vertex 0.000000 20.180813 -19.917995
vertex -3.885778 20.180813 -19.535282
endloop
endfacet
facet normal 0.000000 -1.000000 0.000000
outer loop
vertex 18.401827 20.180813 -7.622287
vertex 14.938496 20.180813 -0.000001
vertex 14.651456 20.180813 -2.914356
endloop
endfacet
facet normal 0.000000 -1.000000 0.000000
outer loop
vertex -14.651454 20.180813 -2.914371
vertex -14.938496 20.180813 -0.000014
vertex -19.917995 20.180813 -0.000019
endloop
endfacet
facet normal 0.000000 -1.000000 -0.000001
outer loop
vertex 18.401827 20.180813 -7.622287
vertex 14.651456 20.180813 -2.914356
vertex 13.801370 20.180813 -5.716715
endloop
endfacet
facet normal 0.000000 -1.000000 0.000000
outer loop
vertex -13.801364 20.180813 -5.716730
vertex -14.651454 20.180813 -2.914371
vertex -19.917995 20.180813 -0.000019
endloop
endfacet
facet normal 0.000000 -1.000000 0.000000
outer loop
vertex 18.401827 20.180813 -7.622287
vertex 13.801370 20.180813 -5.716715
vertex 12.420907 20.180813 -8.299384
endloop
endfacet
facet normal 0.000000 -1.000000 0.000000
outer loop
vertex -12.420896 20.180813 -8.299398
vertex -13.801364 20.180813 -5.716730
vertex -19.917995 20.180813 -0.000019
endloop
endfacet
facet normal 0.000000 -1.000000 0.000000
outer loop
vertex 18.401827 20.180813 -7.622287
vertex 12.420907 20.180813 -8.299384
vertex 10.563111 20.180813 -10.563111
endloop
endfacet
facet normal 0.000000 -1.000000 0.000020
outer loop
vertex -10.563098 20.180813 -10.563126
vertex -12.420896 20.180813 -8.299398
vertex -19.917995 20.180813 -0.000019
endloop
endfacet
facet normal 0.000000 -1.000000 0.000000
outer loop
vertex 18.401827 20.180813 -7.622287
vertex 10.563111 20.180813 -10.563111
vertex 8.299384 20.180813 -12.420906
endloop
endfacet
facet normal 0.000000 -1.000000 -0.000001
outer loop
vertex -10.563098 20.180813 -10.563126
vertex -19.917995 20.180813 -0.000019
vertex -19.535273 20.180813 -3.885829
endloop
endfacet
facet normal 0.000000 -1.000000 -0.000010
outer loop
vertex 18.401827 20.180813 -7.622287
vertex 8.299384 20.180813 -12.420906
vertex 5.716715 20.180813 -13.801370
endloop
endfacet
facet normal 0.000000 -1.000000 0.000000
outer loop
vertex -8.299367 20.180813 -12.420917
vertex -10.563098 20.180813 -10.563126
vertex -19.535273 20.180813 -3.885829
endloop
endfacet
facet normal 0.000000 -1.000000 -0.000001
outer loop
vertex 16.561209 20.180813 -11.065844
vertex 18.401827 20.180813 -7.622287
vertex 5.716715 20.180813 -13.801370
endloop
endfacet
facet normal 0.000000 -1.000000 -0.000000
outer loop
vertex -8.299367 20.180813 -12.420917
vertex -19.535273 20.180813 -3.885829
vertex -18.401819 20.180813 -7.622307
endloop
endfacet
facet normal 0.000000 -1.000000 0.000029
outer loop
vertex 16.561209 20.180813 -11.065844
vertex 5.716715 20.180813 -13.801370
vertex 2.914356 20.180813 -14.651456
endloop
endfacet
facet normal 0.000000 -1.000000 0.000000
outer loop
vertex -5.716695 20.180813 -13.801379
vertex -8.299367 20.180813 -12.420917
vertex -18.401819 20.180813 -7.622307
endloop
endfacet
facet normal 0.000000 -1.000000 0.000000
outer loop
vertex 14.084148 20.180813 -14.084148
vertex 16.561209 20.180813 -11.065844
vertex 2.914356 20.180813 -14.651456
endloop
endfacet
facet normal 0.000000 -1.000000 0.000000
outer loop
vertex -5.716695 20.180813 -13.801379
vertex -18.401819 20.180813 -7.622307
vertex -16.561193 20.180813 -11.065866
endloop
endfacet
facet normal 0.000000 -1.000000 0.000010
outer loop
vertex 14.084148 20.180813 -14.084148
vertex 2.914356 20.180813 -14.651456
vertex 0.000000 20.180813 -14.938496
endloop
endfacet
facet normal 0.000000 -1.000000 0.000000
outer loop
vertex -2.914334 20.180813 -14.651461
vertex -5.716695 20.180813 -13.801379
vertex -16.561193 20.180813 -11.065866
endloop
endfacet
facet normal 0.000000 -1.000000 0.000000
outer loop
vertex 11.065845 20.180813 -16.561207
vertex 14.084148 20.180813 -14.084148
vertex 0.000000 20.180813 -14.938496
endloop
endfacet
facet normal 0.000000 -1.000000 -0.000000
outer loop
vertex -2.914334 20.180813 -14.651461
vertex -16.561193 20.180813 -11.065866
vertex -14.084131 20.180813 -14.084167
endloop
endfacet
facet normal 0.000000 -1.000000 0.000020
outer loop
vertex -2.914334 20.180813 -14.651461
vertex 11.065845 20.180813 -16.561207
vertex 0.000000 20.180813 -14.938496
endloop
endfacet
facet normal 0.000000 -1.000000 0.000000
outer loop
vertex 3.885808 20.180813 -19.535276
vertex 7.622287 20.180813 -18.401827
vertex 11.065845 20.180813 -16.561207
endloop
endfacet
facet normal 0.000000 -1.000000 0.000000
outer loop
vertex -3.885778 20.180813 -19.535282
vertex 0.000000 20.180813 -19.917995
vertex 3.885808 20.180813 -19.535276
endloop
endfacet
facet normal 0.000000 -1.000000 0.000000
outer loop
vertex -11.065823 20.180813 -16.561222
vertex -7.622260 20.180813 -18.401838
vertex -3.885778 20.180813 -19.535282
endloop
endfacet
facet normal 0.000000 -1.000000 0.000000
outer loop
vertex -2.914334 20.180813 -14.651461
vertex -14.084131 20.180813 -14.084167
vertex -11.065823 20.180813 -16.561222
endloop
endfacet
facet normal 0.000000 -1.000000 -0.000001
outer loop
vertex -2.914334 20.180813 -14.651461
vertex 3.885808 20.180813 -19.535276
vertex 11.065845 20.180813 -16.561207
endloop
endfacet
facet normal 0.000000 -1.000000 -0.000001
outer loop
vertex -11.065823 20.180813 -16.561222
vertex -3.885778 20.180813 -19.535282
vertex 3.885808 20.180813 -19.535276
endloop
endfacet
facet normal 0.000000 -1.000000 0.000001
outer loop
vertex -2.914334 20.180813 -14.651461
vertex -11.065823 20.180813 -16.561222
vertex 3.885808 20.180813 -19.535276
endloop
endfacet
facet normal 0.000000 -1.000000 -0.000000
outer loop
vertex -19.917995 20.180813 -0.000019
vertex -14.938496 20.180813 -0.000014
vertex -14.651460 20.180813 2.914343
endloop
endfacet
facet normal 0.000000 -1.000000 0.000000
outer loop
vertex 14.651457 20.180813 2.914354
vertex 14.938496 20.180813 -0.000001
vertex 18.401827 20.180813 -7.622287
endloop
endfacet
facet normal 0.000000 -1.000000 0.000000
outer loop
vertex -13.801375 20.180813 5.716703
vertex -19.917995 20.180813 -0.000019
vertex -14.651460 20.180813 2.914343
endloop
endfacet
facet normal 0.000000 -1.000000 0.000000
outer loop
vertex 13.801371 20.180813 5.716712
vertex 14.651457 20.180813 2.914354
vertex 18.401827 20.180813 -7.622287
endloop
endfacet
facet normal 0.000000 -1.000000 0.000000
outer loop
vertex -13.801375 20.180813 5.716703
vertex -12.420911 20.180813 8.299375
vertex -19.917995 20.180813 -0.000019
endloop
endfacet
facet normal 0.000000 -1.000000 -0.000000
outer loop
vertex 13.801371 20.180813 5.716712
vertex 18.401827 20.180813 -7.622287
vertex 19.535276 20.180813 -3.885809
endloop
endfacet
facet normal 0.000000 -1.000000 0.000020
outer loop
vertex -12.420911 20.180813 8.299375
vertex -10.563119 20.180813 10.563106
vertex -19.917995 20.180813 -0.000019
endloop
endfacet
facet normal 0.000000 -1.000000 0.000000
outer loop
vertex 12.420907 20.180813 8.299384
vertex 13.801371 20.180813 5.716712
vertex 19.535276 20.180813 -3.885809
endloop
endfacet
facet normal 0.000000 -1.000000 -0.000000
outer loop
vertex -10.563119 20.180813 10.563106
vertex -19.535280 20.180813 3.885791
vertex -19.917995 20.180813 -0.000019
endloop
endfacet
facet normal 0.000000 -1.000000 -0.000001
outer loop
vertex 12.420907 20.180813 8.299384
vertex 19.535276 20.180813 -3.885809
vertex 19.917995 20.180813 -0.000002
endloop
endfacet
facet normal 0.000000 -1.000000 0.000000
outer loop
vertex -10.563119 20.180813 10.563106
vertex -8.299391 20.180813 12.420900
vertex -19.535280 20.180813 3.885791
endloop
endfacet
facet normal 0.000000 -1.000000 0.000000
outer loop
vertex 10.563111 20.180813 10.563111
vertex 12.420907 20.180813 8.299384
vertex 19.917995 20.180813 -0.000002
endloop
endfacet
facet normal 0.000000 -1.000000 0.000000
outer loop
vertex -8.299391 20.180813 12.420900
vertex -18.401834 20.180813 7.622272
vertex -19.535280 20.180813 3.885791
endloop
endfacet
facet normal 0.000000 -1.000000 -0.000000
outer loop
vertex 10.563111 20.180813 10.563111
vertex 19.917995 20.180813 -0.000002
vertex 19.535276 20.180813 3.885806
endloop
endfacet
facet normal 0.000000 -1.000000 0.000020
outer loop
vertex -8.299391 20.180813 12.420900
vertex -5.716722 20.180813 13.801367
vertex -18.401834 20.180813 7.622272
endloop
endfacet
facet normal 0.000000 -1.000000 0.000000
outer loop
vertex 8.299384 20.180813 12.420907
vertex 10.563111 20.180813 10.563111
vertex 19.535276 20.180813 3.885806
endloop
endfacet
facet normal 0.000000 -1.000000 -0.000000
outer loop
vertex -5.716722 20.180813 13.801367
vertex -16.561216 20.180813 11.065833
vertex -18.401834 20.180813 7.622272
endloop
endfacet
facet normal 0.000000 -1.000000 0.000000
outer loop
vertex 8.299384 20.180813 12.420907
vertex 19.535276 20.180813 3.885806
vertex 18.401827 20.180813 7.622283
endloop
endfacet
facet normal 0.000000 -1.000000 0.000000
outer loop
vertex -5.716722 20.180813 13.801367
vertex -2.914362 20.180813 14.651456
vertex -16.561216 20.180813 11.065833
endloop
endfacet
facet normal 0.000000 -1.000000 -0.000020
outer loop
vertex 5.716712 20.180813 13.801372
vertex 8.299384 20.180813 12.420907
vertex 18.401827 20.180813 7.622283
endloop
endfacet
facet normal 0.000000 -1.000000 0.000001
outer loop
vertex -2.914362 20.180813 14.651456
vertex -14.084159 20.180813 14.084141
vertex -16.561216 20.180813 11.065833
endloop
endfacet
facet normal 0.000000 -1.000000 -0.000000
outer loop
vertex 5.716712 20.180813 13.801372
vertex 18.401827 20.180813 7.622283
vertex 16.561209 20.180813 11.065844
endloop
endfacet
facet normal 0.000000 -1.000000 0.000000
outer loop
vertex -2.914362 20.180813 14.651456
vertex -0.000005 20.180813 14.938496
vertex -14.084159 20.180813 14.084141
endloop
endfacet
facet normal 0.000000 -1.000000 0.000039
outer loop
vertex 2.914353 20.180813 14.651457
vertex 5.716712 20.180813 13.801372
vertex 16.561209 20.180813 11.065844
endloop
endfacet
facet normal 0.000000 -1.000000 0.000000
outer loop
vertex -0.000005 20.180813 14.938496
vertex -11.065855 20.180813 16.561201
vertex -14.084159 20.180813 14.084141
endloop
endfacet
facet normal 0.000000 -1.000000 -0.000001
outer loop
vertex 2.914353 20.180813 14.651457
vertex 16.561209 20.180813 11.065844
vertex 14.084148 20.180813 14.084148
endloop
endfacet
facet normal 0.000000 -1.000000 0.000000
outer loop
vertex -0.000005 20.180813 14.938496
vertex 2.914353 20.180813 14.651457
vertex -11.065855 20.180813 16.561201
endloop
endfacet
facet normal 0.000000 -1.000000 0.000000
outer loop
vertex -3.885816 20.180813 19.535275
vertex -7.622296 20.180813 18.401825
vertex -11.065855 20.180813 16.561201
endloop
endfacet
facet normal 0.000000 -1.000000 0.000000
outer loop
vertex 3.885803 20.180813 19.535276
vertex -0.000006 20.180813 19.917995
vertex -3.885816 20.180813 19.535275
endloop
endfacet
facet normal 0.000000 -1.000000 0.000000
outer loop
vertex 11.065844 20.180813 16.561209
vertex 7.622283 20.180813 18.401829
vertex 3.885803 20.180813 19.535276
endloop
endfacet
facet normal 0.000000 -1.000000 0.000001
outer loop
vertex 2.914353 20.180813 14.651457
vertex 14.084148 20.180813 14.084148
vertex 11.065844 20.180813 16.561209
endloop
endfacet
facet normal 0.000000 -1.000000 0.000000
outer loop
vertex 2.914353 20.180813 14.651457
vertex -3.885816 20.180813 19.535275
vertex -11.065855 20.180813 16.561201
endloop
endfacet
facet normal 0.000000 -1.000000 -0.000001
outer loop
vertex 11.065844 20.180813 16.561209
vertex 3.885803 20.180813 19.535276
vertex -3.885816 20.180813 19.535275
endloop
endfacet
facet normal 0.000000 -1.000000 0.000000
outer loop
vertex 2.914353 20.180813 14.651457
vertex 11.065844 20.180813 16.561209
vertex -3.885816 20.180813 19.535275
endloop
endfacet
facet normal -0.334130 0.705398 -0.625116
outer loop
vertex -3.811131 30.139809 -9.200923
vertex -7.622260 20.180813 -18.401838
vertex -11.065823 20.180813 -16.561222
endloop
endfacet
facet normal -0.334131 0.705398 -0.625116
outer loop
vertex -11.065823 20.180813 -16.561222
vertex -5.532913 30.139809 -8.280614
vertex -3.811131 30.139809 -9.200923
endloop
endfacet
facet normal -0.205757 0.705398 0.678290
outer loop
vertex -3.811149 30.139809 9.200916
vertex -7.622296 20.180813 18.401825
vertex -3.885816 20.180813 19.535275
endloop
endfacet
facet normal -0.205757 0.705398 0.678290
outer loop
vertex -3.885816 20.180813 19.535275
vertex -1.942909 30.139809 9.767641
vertex -3.811149 30.139809 9.200916
endloop
endfacet
facet normal -0.069476 0.705398 0.705398
outer loop
vertex -1.942909 30.139809 9.767641
vertex -3.885816 20.180813 19.535275
vertex -0.000006 20.180813 19.917995
endloop
endfacet
facet normal -0.069476 0.705398 0.705398
outer loop
vertex -0.000006 20.180813 19.917995
vertex -0.000003 30.139809 9.959002
vertex -1.942909 30.139809 9.767641
endloop
endfacet
facet normal 0.069476 0.705398 0.705398
outer loop
vertex -0.000003 30.139809 9.959002
vertex -0.000006 20.180813 19.917995
vertex 3.885803 20.180813 19.535276
endloop
endfacet
facet normal 0.069476 0.705398 0.705398
outer loop
vertex 3.885803 20.180813 19.535276
vertex 1.942902 30.139809 9.767642
vertex -0.000003 30.139809 9.959002
endloop
endfacet
facet normal 0.205757 0.705398 0.678291
outer loop
vertex 1.942902 30.139809 9.767642
vertex 3.885803 20.180813 19.535276
vertex 7.622283 20.180813 18.401829
endloop
endfacet
facet normal 0.205757 0.705398 0.678290
outer loop
vertex 7.622283 20.180813 18.401829
vertex 3.811143 30.139809 9.200918
vertex 1.942902 30.139809 9.767642
endloop
endfacet
facet normal 0.334131 0.705398 0.625116
outer loop
vertex 3.811143 30.139809 9.200918
vertex 7.622283 20.180813 18.401829
vertex 11.065844 20.180813 16.561209
endloop
endfacet
facet normal 0.334132 0.705398 0.625115
outer loop
vertex 11.065844 20.180813 16.561209
vertex 5.532924 30.139809 8.280607
vertex 3.811143 30.139809 9.200918
endloop
endfacet
facet normal 0.449665 0.705398 0.547919
outer loop
vertex 5.532924 30.139809 8.280607
vertex 11.065844 20.180813 16.561209
vertex 14.084148 20.180813 14.084148
endloop
endfacet
facet normal 0.449666 0.705398 0.547919
outer loop
vertex 14.084148 20.180813 14.084148
vertex 7.042077 30.139809 7.042077
vertex 5.532924 30.139809 8.280607
endloop
endfacet
facet normal 0.547918 0.705398 0.449665
outer loop
vertex 7.042077 30.139809 7.042077
vertex 14.084148 20.180813 14.084148
vertex 16.561209 20.180813 11.065844
endloop
endfacet
facet normal 0.547919 0.705397 0.449666
outer loop
vertex 16.561209 20.180813 11.065844
vertex 8.280607 30.139809 5.532924
vertex 7.042077 30.139809 7.042077
endloop
endfacet
facet normal 0.625116 0.705398 0.334131
outer loop
vertex 8.280607 30.139809 5.532924
vertex 16.561209 20.180813 11.065844
vertex 18.401827 20.180813 7.622283
endloop
endfacet
facet normal 0.625116 0.705398 0.334131
outer loop
vertex 18.401827 20.180813 7.622283
vertex 9.200917 30.139809 3.811143
vertex 8.280607 30.139809 5.532924
endloop
endfacet
facet normal 0.678290 0.705398 0.205757
outer loop
vertex 9.200917 30.139809 3.811143
vertex 18.401827 20.180813 7.622283
vertex 19.535276 20.180813 3.885806
endloop
endfacet
facet normal 0.678290 0.705398 0.205757
outer loop
vertex 19.535276 20.180813 3.885806
vertex 9.767642 30.139809 1.942904
vertex 9.200917 30.139809 3.811143
endloop
endfacet
facet normal 0.705398 0.705398 0.069476
outer loop
vertex 9.767642 30.139809 1.942904
vertex 19.535276 20.180813 3.885806
vertex 19.917995 20.180813 -0.000002
endloop
endfacet
facet normal 0.705398 0.705398 0.069476
outer loop
vertex 19.917995 20.180813 -0.000002
vertex 9.959002 30.139809 -0.000001
vertex 9.767642 30.139809 1.942904
endloop
endfacet
facet normal 0.705398 0.705398 -0.069476
outer loop
vertex 9.959002 30.139809 -0.000001
vertex 19.917995 20.180813 -0.000002
vertex 19.535276 20.180813 -3.885809
endloop
endfacet
facet normal 0.705398 0.705398 -0.069476
outer loop
vertex 19.535276 20.180813 -3.885809
vertex 9.767642 30.139809 -1.942905
vertex 9.959002 30.139809 -0.000001
endloop
endfacet
facet normal 0.678290 0.705398 -0.205757
outer loop
vertex 9.767642 30.139809 -1.942905
vertex 19.535276 20.180813 -3.885809
vertex 18.401827 20.180813 -7.622287
endloop
endfacet
facet normal 0.678290 0.705398 -0.205757
outer loop
vertex 18.401827 20.180813 -7.622287
vertex 9.200917 30.139809 -3.811145
vertex 9.767642 30.139809 -1.942905
endloop
endfacet
facet normal 0.625116 0.705398 -0.334131
outer loop
vertex 9.200917 30.139809 -3.811145
vertex 18.401827 20.180813 -7.622287
vertex 16.561209 20.180813 -11.065844
endloop
endfacet
facet normal 0.625115 0.705398 -0.334131
outer loop
vertex 16.561209 20.180813 -11.065844
vertex 8.280607 30.139809 -5.532924
vertex 9.200917 30.139809 -3.811145
endloop
endfacet
facet normal 0.547919 0.705398 -0.449665
outer loop
vertex 8.280607 30.139809 -5.532924
vertex 16.561209 20.180813 -11.065844
vertex 14.084148 20.180813 -14.084148
endloop
endfacet
facet normal 0.547918 0.705398 -0.449665
outer loop
vertex 14.084148 20.180813 -14.084148
vertex 7.042077 30.139809 -7.042077
vertex 8.280607 30.139809 -5.532924
endloop
endfacet
facet normal 0.449665 0.705398 -0.547919
outer loop
vertex 7.042077 30.139809 -7.042077
vertex 14.084148 20.180813 -14.084148
vertex 11.065845 20.180813 -16.561207
endloop
endfacet
facet normal 0.449665 0.705398 -0.547919
outer loop
vertex 11.065845 20.180813 -16.561207
vertex 5.532924 30.139809 -8.280606
vertex 7.042077 30.139809 -7.042077
endloop
endfacet
facet normal 0.334132 0.705398 -0.625116
outer loop
vertex 5.532924 30.139809 -8.280606
vertex 11.065845 20.180813 -16.561207
vertex 7.622287 20.180813 -18.401827
endloop
endfacet
facet normal 0.334132 0.705398 -0.625116
outer loop
vertex 7.622287 20.180813 -18.401827
vertex 3.811145 30.139809 -9.200917
vertex 5.532924 30.139809 -8.280606
endloop
endfacet
facet normal 0.205757 0.705398 -0.678290
outer loop
vertex 3.811145 30.139809 -9.200917
vertex 7.622287 20.180813 -18.401827
vertex 3.885808 20.180813 -19.535276
endloop
endfacet
facet normal 0.205756 0.705398 -0.678290
outer loop
vertex 3.885808 20.180813 -19.535276
vertex 1.942905 30.139809 -9.767642
vertex 3.811145 30.139809 -9.200917
endloop
endfacet
facet normal 0.069476 0.705398 -0.705398
outer loop
vertex 1.942905 30.139809 -9.767642
vertex 3.885808 20.180813 -19.535276
vertex 0.000000 20.180813 -19.917995
endloop
endfacet
facet normal 0.069475 0.705398 -0.705398
outer loop
vertex 0.000000 20.180813 -19.917995
vertex 0.000000 30.139809 -9.959002
vertex 1.942905 30.139809 -9.767642
endloop
endfacet
facet normal -0.449664 0.705398 -0.547919
outer loop
vertex -5.532913 30.139809 -8.280614
vertex -11.065823 20.180813 -16.561222
vertex -14.084131 20.180813 -14.084167
endloop
endfacet
facet normal -0.449664 0.705398 -0.547919
outer loop
vertex -14.084131 20.180813 -14.084167
vertex -7.042068 30.139809 -7.042086
vertex -5.532913 30.139809 -8.280614
endloop
endfacet
facet normal -0.547918 0.705398 -0.449666
outer loop
vertex -7.042068 30.139809 -7.042086
vertex -14.084131 20.180813 -14.084167
vertex -16.561193 20.180813 -11.065866
endloop
endfacet
facet normal -0.547918 0.705398 -0.449666
outer loop
vertex -16.561193 20.180813 -11.065866
vertex -8.280600 30.139809 -5.532935
vertex -7.042068 30.139809 -7.042086
endloop
endfacet
facet normal -0.625115 0.705398 -0.334132
outer loop
vertex -8.280600 30.139809 -5.532935
vertex -16.561193 20.180813 -11.065866
vertex -18.401819 20.180813 -7.622307
endloop
endfacet
facet normal -0.625115 0.705398 -0.334132
outer loop
vertex -18.401819 20.180813 -7.622307
vertex -9.200913 30.139809 -3.811155
vertex -8.280600 30.139809 -5.532935
endloop
endfacet
facet normal -0.678290 0.705398 -0.205758
outer loop
vertex -9.200913 30.139809 -3.811155
vertex -18.401819 20.180813 -7.622307
vertex -19.535273 20.180813 -3.885829
endloop
endfacet
facet normal -0.678290 0.705398 -0.205758
outer loop
vertex -19.535273 20.180813 -3.885829
vertex -9.767640 30.139809 -1.942915
vertex -9.200913 30.139809 -3.811155
endloop
endfacet
facet normal -0.705398 0.705398 -0.069476
outer loop
vertex -9.767640 30.139809 -1.942915
vertex -19.535273 20.180813 -3.885829
vertex -19.917995 20.180813 -0.000019
endloop
endfacet
facet normal -0.705398 0.705398 -0.069476
outer loop
vertex -19.917995 20.180813 -0.000019
vertex -9.959002 30.139809 -0.000010
vertex -9.767640 30.139809 -1.942915
endloop
endfacet
facet normal -0.705398 0.705398 0.069475
outer loop
vertex -9.959002 30.139809 -0.000010
vertex -19.917995 20.180813 -0.000019
vertex -19.535280 20.180813 3.885791
endloop
endfacet
facet normal -0.705398 0.705398 0.069476
outer loop
vertex -19.535280 20.180813 3.885791
vertex -9.767644 30.139809 1.942896
vertex -9.959002 30.139809 -0.000010
endloop
endfacet
facet normal -0.678290 0.705398 0.205756
outer loop
vertex -9.767644 30.139809 1.942896
vertex -19.535280 20.180813 3.885791
vertex -18.401834 20.180813 7.622272
endloop
endfacet
facet normal -0.678290 0.705398 0.205756
outer loop
vertex -18.401834 20.180813 7.622272
vertex -9.200921 30.139809 3.811137
vertex -9.767644 30.139809 1.942896
endloop
endfacet
facet normal -0.625116 0.705398 0.334131
outer loop
vertex -9.200921 30.139809 3.811137
vertex -18.401834 20.180813 7.622272
vertex -16.561216 20.180813 11.065833
endloop
endfacet
facet normal -0.625116 0.705398 0.334131
outer loop
vertex -16.561216 20.180813 11.065833
vertex -8.280611 30.139809 5.532918
vertex -9.200921 30.139809 3.811137
endloop
endfacet
facet normal -0.547919 0.705398 0.449665
outer loop
vertex -8.280611 30.139809 5.532918
vertex -16.561216 20.180813 11.065833
vertex -14.084159 20.180813 14.084141
endloop
endfacet
facet normal -0.547919 0.705397 0.449665
outer loop
vertex -14.084159 20.180813 14.084141
vertex -7.042082 30.139809 7.042073
vertex -8.280611 30.139809 5.532918
endloop
endfacet
facet normal -0.449666 0.705398 0.547918
outer loop
vertex -7.042082 30.139809 7.042073
vertex -14.084159 20.180813 14.084141
vertex -11.065855 20.180813 16.561201
endloop
endfacet
facet normal -0.449665 0.705398 0.547919
outer loop
vertex -11.065855 20.180813 16.561201
vertex -5.532929 30.139809 8.280603
vertex -7.042082 30.139809 7.042073
endloop
endfacet
facet normal -0.334132 0.705398 0.625116
outer loop
vertex -5.532929 30.139809 8.280603
vertex -11.065855 20.180813 16.561201
vertex -7.622296 20.180813 18.401825
endloop
endfacet
facet normal -0.334132 0.705398 0.625115
outer loop
vertex -7.622296 20.180813 18.401825
vertex -3.811149 30.139809 9.200916
vertex -5.532929 30.139809 8.280603
endloop
endfacet
facet normal 0.000000 -1.000000 -0.000005
outer loop
vertex -5.716695 20.180813 -13.801379
vertex -10.563098 20.180813 -10.563126
vertex -8.299367 20.180813 -12.420917
endloop
endfacet
facet normal 0.000000 -1.000000 -0.000005
outer loop
vertex -13.801364 20.180813 -5.716730
vertex -12.420896 20.180813 -8.299398
vertex -10.563098 20.180813 -10.563126
endloop
endfacet
facet normal 0.000000 -1.000000 0.000000
outer loop
vertex -14.938496 20.180813 -0.000014
vertex -14.651454 20.180813 -2.914371
vertex -13.801364 20.180813 -5.716730
endloop
endfacet
facet normal 0.000000 -1.000000 -0.000001
outer loop
vertex -13.801375 20.180813 5.716703
vertex -14.651460 20.180813 2.914343
vertex -14.938496 20.180813 -0.000014
endloop
endfacet
facet normal 0.000000 -1.000000 -0.000002
outer loop
vertex -10.563119 20.180813 10.563106
vertex -12.420911 20.180813 8.299375
vertex -13.801375 20.180813 5.716703
endloop
endfacet
facet normal 0.000000 -1.000000 0.000000
outer loop
vertex -5.716722 20.180813 13.801367
vertex -8.299391 20.180813 12.420900
vertex -10.563119 20.180813 10.563106
endloop
endfacet
facet normal 0.000000 -1.000000 0.000005
outer loop
vertex -0.000005 20.180813 14.938496
vertex -2.914362 20.180813 14.651456
vertex -5.716722 20.180813 13.801367
endloop
endfacet
facet normal 0.000000 -1.000000 -0.000005
outer loop
vertex 5.716712 20.180813 13.801372
vertex 2.914353 20.180813 14.651457
vertex -0.000005 20.180813 14.938496
endloop
endfacet
facet normal 0.000000 -1.000000 0.000000
outer loop
vertex 10.563111 20.180813 10.563111
vertex 8.299384 20.180813 12.420907
vertex 5.716712 20.180813 13.801372
endloop
endfacet
facet normal 0.000000 -1.000000 0.000000
outer loop
vertex 13.801371 20.180813 5.716712
vertex 12.420907 20.180813 8.299384
vertex 10.563111 20.180813 10.563111
endloop
endfacet
facet normal 0.000000 -1.000000 0.000000
outer loop
vertex 14.938496 20.180813 -0.000001
vertex 14.651457 20.180813 2.914354
vertex 13.801371 20.180813 5.716712
endloop
endfacet
facet normal 0.000000 -1.000000 0.000001
outer loop
vertex 13.801370 20.180813 -5.716715
vertex 14.651456 20.180813 -2.914356
vertex 14.938496 20.180813 -0.000001
endloop
endfacet
facet normal 0.000000 -1.000000 -0.000002
outer loop
vertex 10.563111 20.180813 -10.563111
vertex 12.420907 20.180813 -8.299384
vertex 13.801370 20.180813 -5.716715
endloop
endfacet
facet normal 0.000000 -1.000000 0.000000
outer loop
vertex 5.716715 20.180813 -13.801370
vertex 8.299384 20.180813 -12.420906
vertex 10.563111 20.180813 -10.563111
endloop
endfacet
facet normal 0.000000 -1.000000 0.000000
outer loop
vertex 0.000000 20.180813 -14.938496
vertex 2.914356 20.180813 -14.651456
vertex 5.716715 20.180813 -13.801370
endloop
endfacet
facet normal 0.000000 -1.000000 -0.000005
outer loop
vertex -5.716695 20.180813 -13.801379
vertex -2.914334 20.180813 -14.651461
vertex 0.000000 20.180813 -14.938496
endloop
endfacet
facet normal 0.000000 -1.000000 0.000001
outer loop
vertex -5.716695 20.180813 -13.801379
vertex -13.801364 20.180813 -5.716730
vertex -10.563098 20.180813 -10.563126
endloop
endfacet
facet normal 0.000000 -1.000000 0.000000
outer loop
vertex -13.801375 20.180813 5.716703
vertex -14.938496 20.180813 -0.000014
vertex -13.801364 20.180813 -5.716730
endloop
endfacet
facet normal 0.000000 -1.000000 -0.000001
outer loop
vertex -5.716722 20.180813 13.801367
vertex -10.563119 20.180813 10.563106
vertex -13.801375 20.180813 5.716703
endloop
endfacet
facet normal 0.000000 -1.000000 0.000002
outer loop
vertex 5.716712 20.180813 13.801372
vertex -0.000005 20.180813 14.938496
vertex -5.716722 20.180813 13.801367
endloop
endfacet
facet normal 0.000000 -1.000000 0.000001
outer loop
vertex 13.801371 20.180813 5.716712
vertex 10.563111 20.180813 10.563111
vertex 5.716712 20.180813 13.801372
endloop
endfacet
facet normal 0.000000 -1.000000 0.000000
outer loop
vertex 13.801370 20.180813 -5.716715
vertex 14.938496 20.180813 -0.000001
vertex 13.801371 20.180813 5.716712
endloop
endfacet
facet normal 0.000000 -1.000000 0.000000
outer loop
vertex 5.716715 20.180813 -13.801370
vertex 10.563111 20.180813 -10.563111
vertex 13.801370 20.180813 -5.716715
endloop
endfacet
facet normal 0.000000 -1.000000 0.000001
outer loop
vertex -5.716695 20.180813 -13.801379
vertex 0.000000 20.180813 -14.938496
vertex 5.716715 20.180813 -13.801370
endloop
endfacet
facet normal 0.000000 -1.000000 -0.000000
outer loop
vertex -5.716695 20.180813 -13.801379
vertex -13.801375 20.180813 5.716703
vertex -13.801364 20.180813 -5.716730
endloop
endfacet
facet normal 0.000000 -1.000000 0.000000
outer loop
vertex 5.716712 20.180813 13.801372
vertex -5.716722 20.180813 13.801367
vertex -13.801375 20.180813 5.716703
endloop
endfacet
facet normal 0.000000 -1.000000 -0.000000
outer loop
vertex 13.801370 20.180813 -5.716715
vertex 13.801371 20.180813 5.716712
vertex 5.716712 20.180813 13.801372
endloop
endfacet
facet normal 0.000000 -1.000000 0.000000
outer loop
vertex -5.716695 20.180813 -13.801379
vertex 5.716715 20.180813 -13.801370
vertex 13.801370 20.180813 -5.716715
endloop
endfacet
facet normal 0.000000 -1.000000 0.000000
outer loop
vertex -5.716695 20.180813 -13.801379
vertex 5.716712 20.180813 13.801372
vertex -13.801375 20.180813 5.716703
endloop
endfacet
facet normal 0.000000 -1.000000 0.000000
outer loop
vertex -5.716695 20.180813 -13.801379
vertex 13.801370 20.180813 -5.716715
vertex 5.716712 20.180813 13.801372
endloop
endfacet
endsolid Exported from Blender-2.74 (sub 0)
