solid Exported from Blender-2.74 (sub 0)
facet normal -0.205756 0.705398 -0.678290
outer loop
vertex -2.914334 20.180813 -14.651461
vertex -5.828667 5.242317 -29.302921
vertex -11.433390 5.242317 -27.602758
endloop
endfacet
facet normal -0.205756 0.705398 -0.678290
outer loop
vertex -11.433390 5.242317 -27.602758
vertex -5.716695 20.180813 -13.801379
vertex -2.914334 20.180813 -14.651461
endloop
endfacet
facet normal 0.000000 1.000000 0.000001
outer loop
vertex -13.801375 20.180813 5.716703
vertex -14.938496 20.180813 -0.000014
vertex -14.651460 20.180813 2.914343
endloop
endfacet
facet normal 0.000000 1.000000 0.000000
outer loop
vertex -13.801364 20.180813 -5.716730
vertex -14.651454 20.180813 -2.914371
vertex -14.938496 20.180813 -0.000014
endloop
endfacet
facet normal 0.000000 1.000000 0.000005
outer loop
vertex -10.563098 20.180813 -10.563126
vertex -12.420896 20.180813 -8.299398
vertex -13.801364 20.180813 -5.716730
endloop
endfacet
facet normal 0.000000 1.000000 0.000005
outer loop
vertex -5.716695 20.180813 -13.801379
vertex -8.299367 20.180813 -12.420917
vertex -10.563098 20.180813 -10.563126
endloop
endfacet
facet normal 0.000000 1.000000 0.000005
outer loop
vertex 0.000000 20.180813 -14.938496
vertex -2.914334 20.180813 -14.651461
vertex -5.716695 20.180813 -13.801379
endloop
endfacet
facet normal 0.000000 1.000000 0.000000
outer loop
vertex 5.716715 20.180813 -13.801370
vertex 2.914356 20.180813 -14.651456
vertex 0.000000 20.180813 -14.938496
endloop
endfacet
facet normal 0.000000 1.000000 0.000000
outer loop
vertex 10.563111 20.180813 -10.563111
vertex 8.299384 20.180813 -12.420906
vertex 5.716715 20.180813 -13.801370
endloop
endfacet
facet normal 0.000000 1.000000 0.000000
outer loop
vertex 13.801370 20.180813 -5.716715
vertex 12.420907 20.180813 -8.299384
vertex 10.563111 20.180813 -10.563111
endloop
endfacet
facet normal 0.000000 1.000000 0.000000
outer loop
vertex 14.938496 20.180813 -0.000001
vertex 14.651456 20.180813 -2.914356
vertex 13.801370 20.180813 -5.716715
endloop
endfacet
facet normal 0.000000 1.000000 0.000001
outer loop
vertex 13.801371 20.180813 5.716712
vertex 14.651457 20.180813 2.914354
vertex 14.938496 20.180813 -0.000001
endloop
endfacet
facet normal 0.000000 1.000000 0.000002
outer loop
vertex 10.563111 20.180813 10.563111
vertex 12.420907 20.180813 8.299384
vertex 13.801371 20.180813 5.716712
endloop
endfacet
facet normal 0.000000 1.000000 0.000000
outer loop
vertex 5.716712 20.180813 13.801372
vertex 8.299384 20.180813 12.420907
vertex 10.563111 20.180813 10.563111
endloop
endfacet
facet normal 0.000000 1.000000 0.000005
outer loop
vertex -0.000005 20.180813 14.938496
vertex 2.914353 20.180813 14.651457
vertex 5.716712 20.180813 13.801372
endloop
endfacet
facet normal 0.000000 1.000000 -0.000005
outer loop
vertex -5.716722 20.180813 13.801367
vertex -2.914362 20.180813 14.651456
vertex -0.000005 20.180813 14.938496
endloop
endfacet
facet normal 0.000000 1.000000 0.000000
outer loop
vertex -10.563119 20.180813 10.563106
vertex -8.299391 20.180813 12.420900
vertex -5.716722 20.180813 13.801367
endloop
endfacet
facet normal 0.000000 1.000000 0.000005
outer loop
vertex -13.801375 20.180813 5.716703
vertex -12.420911 20.180813 8.299375
vertex -10.563119 20.180813 10.563106
endloop
endfacet
facet normal 0.000000 1.000000 0.000000
outer loop
vertex -13.801375 20.180813 5.716703
vertex -13.801364 20.180813 -5.716730
vertex -14.938496 20.180813 -0.000014
endloop
endfacet
facet normal 0.000000 1.000000 -0.000001
outer loop
vertex -5.716695 20.180813 -13.801379
vertex -10.563098 20.180813 -10.563126
vertex -13.801364 20.180813 -5.716730
endloop
endfacet
facet normal 0.000000 1.000000 -0.000001
outer loop
vertex 5.716715 20.180813 -13.801370
vertex 0.000000 20.180813 -14.938496
vertex -5.716695 20.180813 -13.801379
endloop
endfacet
facet normal 0.000000 1.000000 0.000000
outer loop
vertex 13.801370 20.180813 -5.716715
vertex 10.563111 20.180813 -10.563111
vertex 5.716715 20.180813 -13.801370
endloop
endfacet
facet normal 0.000000 1.000000 0.000000
outer loop
vertex 13.801371 20.180813 5.716712
vertex 14.938496 20.180813 -0.000001
vertex 13.801370 20.180813 -5.716715
endloop
endfacet
facet normal 0.000000 1.000000 -0.000001
outer loop
vertex 5.716712 20.180813 13.801372
vertex 10.563111 20.180813 10.563111
vertex 13.801371 20.180813 5.716712
endloop
endfacet
facet normal 0.000000 1.000000 -0.000002
outer loop
vertex -5.716722 20.180813 13.801367
vertex -0.000005 20.180813 14.938496
vertex 5.716712 20.180813 13.801372
endloop
endfacet
facet normal 0.000000 1.000000 0.000001
outer loop
vertex -13.801375 20.180813 5.716703
vertex -10.563119 20.180813 10.563106
vertex -5.716722 20.180813 13.801367
endloop
endfacet
facet normal 0.000000 1.000000 0.000000
outer loop
vertex -13.801375 20.180813 5.716703
vertex -5.716695 20.180813 -13.801379
vertex -13.801364 20.180813 -5.716730
endloop
endfacet
facet normal 0.000000 1.000000 0.000000
outer loop
vertex 13.801370 20.180813 -5.716715
vertex 5.716715 20.180813 -13.801370
vertex -5.716695 20.180813 -13.801379
endloop
endfacet
facet normal 0.000000 1.000000 0.000000
outer loop
vertex 5.716712 20.180813 13.801372
vertex 13.801371 20.180813 5.716712
vertex 13.801370 20.180813 -5.716715
endloop
endfacet
facet normal 0.000000 1.000000 0.000000
outer loop
vertex -13.801375 20.180813 5.716703
vertex -5.716722 20.180813 13.801367
vertex 5.716712 20.180813 13.801372
endloop
endfacet
facet normal 0.000000 1.000000 0.000000
outer loop
vertex -13.801375 20.180813 5.716703
vertex 13.801370 20.180813 -5.716715
vertex -5.716695 20.180813 -13.801379
endloop
endfacet
facet normal 0.000000 1.000000 0.000000
outer loop
vertex -13.801375 20.180813 5.716703
vertex 5.716712 20.180813 13.801372
vertex 13.801370 20.180813 -5.716715
endloop
endfacet
facet normal -0.069475 0.705398 -0.705398
outer loop
vertex -5.828667 5.242317 -29.302921
vertex -2.914334 20.180813 -14.651461
vertex 0.000000 20.180813 -14.938496
endloop
endfacet
facet normal -0.069475 0.705398 -0.705398
outer loop
vertex 0.000000 20.180813 -14.938496
vertex 0.000000 5.242317 -29.876991
vertex -5.828667 5.242317 -29.302921
endloop
endfacet
facet normal 0.000000 -1.000000 0.000000
outer loop
vertex 0.000000 5.242317 -29.876991
vertex -11.433390 5.242317 -27.602758
vertex -5.828667 5.242317 -29.302921
endloop
endfacet
facet normal 0.000000 -1.000000 -0.000001
outer loop
vertex -21.126196 5.242317 -21.126251
vertex -16.598734 5.242317 -24.841833
vertex -11.433390 5.242317 -27.602758
endloop
endfacet
facet normal 0.000000 -1.000000 0.000000
outer loop
vertex -27.602728 5.242317 -11.433460
vertex -24.841791 5.242317 -16.598797
vertex -21.126196 5.242317 -21.126251
endloop
endfacet
facet normal 0.000000 -1.000000 0.000000
outer loop
vertex -29.876991 5.242317 -0.000029
vertex -29.302908 5.242317 -5.828743
vertex -27.602728 5.242317 -11.433460
endloop
endfacet
facet normal 0.000000 -1.000000 -0.000000
outer loop
vertex -27.602751 5.242317 11.433407
vertex -29.302919 5.242317 5.828686
vertex -29.876991 5.242317 -0.000029
endloop
endfacet
facet normal 0.000000 -1.000000 0.000000
outer loop
vertex -21.126238 5.242317 21.126211
vertex -24.841822 5.242317 16.598749
vertex -27.602751 5.242317 11.433407
endloop
endfacet
facet normal 0.000000 -1.000000 -0.000001
outer loop
vertex -11.433443 5.242317 27.602734
vertex -16.598782 5.242317 24.841801
vertex -21.126238 5.242317 21.126211
endloop
endfacet
facet normal 0.000000 -1.000000 -0.000001
outer loop
vertex -0.000010 5.242317 29.876991
vertex -5.828724 5.242317 29.302912
vertex -11.433443 5.242317 27.602734
endloop
endfacet
facet normal 0.000000 -1.000000 -0.000001
outer loop
vertex 11.433425 5.242317 27.602743
vertex 5.828705 5.242317 29.302914
vertex -0.000010 5.242317 29.876991
endloop
endfacet
facet normal 0.000000 -1.000000 -0.000001
outer loop
vertex 21.126223 5.242317 21.126223
vertex 16.598768 5.242317 24.841814
vertex 11.433425 5.242317 27.602743
endloop
endfacet
facet normal 0.000000 -1.000000 0.000000
outer loop
vertex 27.602741 5.242317 11.433425
vertex 24.841814 5.242317 16.598768
vertex 21.126223 5.242317 21.126223
endloop
endfacet
facet normal 0.000000 -1.000000 -0.000000
outer loop
vertex 29.876991 5.242317 -0.000002
vertex 29.302914 5.242317 5.828709
vertex 27.602741 5.242317 11.433425
endloop
endfacet
facet normal 0.000000 -1.000000 0.000000
outer loop
vertex 27.602739 5.242317 -11.433431
vertex 29.302912 5.242317 -5.828713
vertex 29.876991 5.242317 -0.000002
endloop
endfacet
facet normal 0.000000 -1.000000 -0.000001
outer loop
vertex 21.126223 5.242317 -21.126223
vertex 24.841814 5.242317 -16.598768
vertex 27.602739 5.242317 -11.433431
endloop
endfacet
facet normal 0.000000 -1.000000 0.000000
outer loop
vertex 11.433431 5.242317 -27.602739
vertex 16.598768 5.242317 -24.841812
vertex 21.126223 5.242317 -21.126223
endloop
endfacet
facet normal 0.000000 -1.000000 0.000001
outer loop
vertex 0.000000 5.242317 -29.876991
vertex 5.828712 5.242317 -29.302912
vertex 11.433431 5.242317 -27.602739
endloop
endfacet
facet normal 0.000000 -1.000000 0.000000
outer loop
vertex 0.000000 5.242317 -29.876991
vertex -21.126196 5.242317 -21.126251
vertex -11.433390 5.242317 -27.602758
endloop
endfacet
facet normal 0.000000 -1.000000 0.000000
outer loop
vertex -29.876991 5.242317 -0.000029
vertex -27.602728 5.242317 -11.433460
vertex -21.126196 5.242317 -21.126251
endloop
endfacet
facet normal 0.000000 -1.000000 -0.000000
outer loop
vertex -21.126238 5.242317 21.126211
vertex -27.602751 5.242317 11.433407
vertex -29.876991 5.242317 -0.000029
endloop
endfacet
facet normal 0.000000 -1.000000 0.000000
outer loop
vertex -0.000010 5.242317 29.876991
vertex -11.433443 5.242317 27.602734
vertex -21.126238 5.242317 21.126211
endloop
endfacet
facet normal 0.000000 -1.000000 0.000000
outer loop
vertex 21.126223 5.242317 21.126223
vertex 11.433425 5.242317 27.602743
vertex -0.000010 5.242317 29.876991
endloop
endfacet
facet normal 0.000000 -1.000000 0.000000
outer loop
vertex 29.876991 5.242317 -0.000002
vertex 27.602741 5.242317 11.433425
vertex 21.126223 5.242317 21.126223
endloop
endfacet
facet normal 0.000000 -1.000000 0.000000
outer loop
vertex 21.126223 5.242317 -21.126223
vertex 27.602739 5.242317 -11.433431
vertex 29.876991 5.242317 -0.000002
endloop
endfacet
facet normal 0.000000 -1.000000 -0.000000
outer loop
vertex 0.000000 5.242317 -29.876991
vertex 11.433431 5.242317 -27.602739
vertex 21.126223 5.242317 -21.126223
endloop
endfacet
facet normal 0.000000 -1.000000 -0.000000
outer loop
vertex 0.000000 5.242317 -29.876991
vertex -29.876991 5.242317 -0.000029
vertex -21.126196 5.242317 -21.126251
endloop
endfacet
facet normal 0.000000 -1.000000 -0.000000
outer loop
vertex -0.000010 5.242317 29.876991
vertex -21.126238 5.242317 21.126211
vertex -29.876991 5.242317 -0.000029
endloop
endfacet
facet normal 0.000000 -1.000000 0.000000
outer loop
vertex 29.876991 5.242317 -0.000002
vertex 21.126223 5.242317 21.126223
vertex -0.000010 5.242317 29.876991
endloop
endfacet
facet normal 0.000000 -1.000000 0.000000
outer loop
vertex 0.000000 5.242317 -29.876991
vertex 21.126223 5.242317 -21.126223
vertex 29.876991 5.242317 -0.000002
endloop
endfacet
facet normal 0.000000 -1.000000 0.000000
outer loop
vertex 0.000000 5.242317 -29.876991
vertex -0.000010 5.242317 29.876991
vertex -29.876991 5.242317 -0.000029
endloop
endfacet
facet normal 0.000000 -1.000000 0.000000
outer loop
vertex 0.000000 5.242317 -29.876991
vertex 29.876991 5.242317 -0.000002
vertex -0.000010 5.242317 29.876991
endloop
endfacet
facet normal -0.334131 0.705398 -0.625116
outer loop
vertex -5.716695 20.180813 -13.801379
vertex -11.433390 5.242317 -27.602758
vertex -16.598734 5.242317 -24.841833
endloop
endfacet
facet normal -0.334130 0.705398 -0.625116
outer loop
vertex -16.598734 5.242317 -24.841833
vertex -8.299367 20.180813 -12.420917
vertex -5.716695 20.180813 -13.801379
endloop
endfacet
facet normal -0.678290 0.705398 0.205757
outer loop
vertex -14.651460 20.180813 2.914343
vertex -29.302919 5.242317 5.828686
vertex -27.602751 5.242317 11.433407
endloop
endfacet
facet normal -0.678290 0.705399 0.205756
outer loop
vertex -27.602751 5.242317 11.433407
vertex -13.801375 20.180813 5.716703
vertex -14.651460 20.180813 2.914343
endloop
endfacet
facet normal -0.625116 0.705398 0.334131
outer loop
vertex -13.801375 20.180813 5.716703
vertex -27.602751 5.242317 11.433407
vertex -24.841822 5.242317 16.598749
endloop
endfacet
facet normal -0.625116 0.705398 0.334131
outer loop
vertex -24.841822 5.242317 16.598749
vertex -12.420911 20.180813 8.299375
vertex -13.801375 20.180813 5.716703
endloop
endfacet
facet normal -0.547919 0.705398 0.449665
outer loop
vertex -12.420911 20.180813 8.299375
vertex -24.841822 5.242317 16.598749
vertex -21.126238 5.242317 21.126211
endloop
endfacet
facet normal -0.547919 0.705398 0.449665
outer loop
vertex -21.126238 5.242317 21.126211
vertex -10.563119 20.180813 10.563106
vertex -12.420911 20.180813 8.299375
endloop
endfacet
facet normal -0.449665 0.705398 0.547918
outer loop
vertex -10.563119 20.180813 10.563106
vertex -21.126238 5.242317 21.126211
vertex -16.598782 5.242317 24.841801
endloop
endfacet
facet normal -0.449666 0.705398 0.547918
outer loop
vertex -16.598782 5.242317 24.841801
vertex -8.299391 20.180813 12.420900
vertex -10.563119 20.180813 10.563106
endloop
endfacet
facet normal -0.334131 0.705398 0.625116
outer loop
vertex -8.299391 20.180813 12.420900
vertex -16.598782 5.242317 24.841801
vertex -11.433443 5.242317 27.602734
endloop
endfacet
facet normal -0.334131 0.705398 0.625116
outer loop
vertex -11.433443 5.242317 27.602734
vertex -5.716722 20.180813 13.801367
vertex -8.299391 20.180813 12.420900
endloop
endfacet
facet normal -0.205758 0.705398 0.678290
outer loop
vertex -5.716722 20.180813 13.801367
vertex -11.433443 5.242317 27.602734
vertex -5.828724 5.242317 29.302912
endloop
endfacet
facet normal -0.205757 0.705398 0.678290
outer loop
vertex -5.828724 5.242317 29.302912
vertex -2.914362 20.180813 14.651456
vertex -5.716722 20.180813 13.801367
endloop
endfacet
facet normal -0.069476 0.705398 0.705398
outer loop
vertex -2.914362 20.180813 14.651456
vertex -5.828724 5.242317 29.302912
vertex -0.000010 5.242317 29.876991
endloop
endfacet
facet normal -0.069476 0.705398 0.705398
outer loop
vertex -0.000010 5.242317 29.876991
vertex -0.000005 20.180813 14.938496
vertex -2.914362 20.180813 14.651456
endloop
endfacet
facet normal 0.069476 0.705398 0.705398
outer loop
vertex -0.000005 20.180813 14.938496
vertex -0.000010 5.242317 29.876991
vertex 5.828705 5.242317 29.302914
endloop
endfacet
facet normal 0.069476 0.705398 0.705398
outer loop
vertex 5.828705 5.242317 29.302914
vertex 2.914353 20.180813 14.651457
vertex -0.000005 20.180813 14.938496
endloop
endfacet
facet normal 0.205756 0.705398 0.678290
outer loop
vertex 2.914353 20.180813 14.651457
vertex 5.828705 5.242317 29.302914
vertex 11.433425 5.242317 27.602743
endloop
endfacet
facet normal 0.205756 0.705398 0.678290
outer loop
vertex 11.433425 5.242317 27.602743
vertex 5.716712 20.180813 13.801372
vertex 2.914353 20.180813 14.651457
endloop
endfacet
facet normal 0.334131 0.705398 0.625116
outer loop
vertex 5.716712 20.180813 13.801372
vertex 11.433425 5.242317 27.602743
vertex 16.598768 5.242317 24.841814
endloop
endfacet
facet normal 0.334131 0.705398 0.625116
outer loop
vertex 16.598768 5.242317 24.841814
vertex 8.299384 20.180813 12.420907
vertex 5.716712 20.180813 13.801372
endloop
endfacet
facet normal 0.449665 0.705398 0.547918
outer loop
vertex 8.299384 20.180813 12.420907
vertex 16.598768 5.242317 24.841814
vertex 21.126223 5.242317 21.126223
endloop
endfacet
facet normal 0.449666 0.705398 0.547918
outer loop
vertex 21.126223 5.242317 21.126223
vertex 10.563111 20.180813 10.563111
vertex 8.299384 20.180813 12.420907
endloop
endfacet
facet normal 0.547918 0.705398 0.449665
outer loop
vertex 10.563111 20.180813 10.563111
vertex 21.126223 5.242317 21.126223
vertex 24.841814 5.242317 16.598768
endloop
endfacet
facet normal 0.547919 0.705398 0.449665
outer loop
vertex 24.841814 5.242317 16.598768
vertex 12.420907 20.180813 8.299384
vertex 10.563111 20.180813 10.563111
endloop
endfacet
facet normal 0.625116 0.705398 0.334131
outer loop
vertex 12.420907 20.180813 8.299384
vertex 24.841814 5.242317 16.598768
vertex 27.602741 5.242317 11.433425
endloop
endfacet
facet normal 0.625116 0.705398 0.334131
outer loop
vertex 27.602741 5.242317 11.433425
vertex 13.801371 20.180813 5.716712
vertex 12.420907 20.180813 8.299384
endloop
endfacet
facet normal 0.678290 0.705398 0.205757
outer loop
vertex 13.801371 20.180813 5.716712
vertex 27.602741 5.242317 11.433425
vertex 29.302914 5.242317 5.828709
endloop
endfacet
facet normal 0.678290 0.705398 0.205757
outer loop
vertex 29.302914 5.242317 5.828709
vertex 14.651457 20.180813 2.914354
vertex 13.801371 20.180813 5.716712
endloop
endfacet
facet normal 0.705398 0.705398 0.069476
outer loop
vertex 14.651457 20.180813 2.914354
vertex 29.302914 5.242317 5.828709
vertex 29.876991 5.242317 -0.000002
endloop
endfacet
facet normal 0.705398 0.705398 0.069476
outer loop
vertex 29.876991 5.242317 -0.000002
vertex 14.938496 20.180813 -0.000001
vertex 14.651457 20.180813 2.914354
endloop
endfacet
facet normal 0.705398 0.705398 -0.069476
outer loop
vertex 14.938496 20.180813 -0.000001
vertex 29.876991 5.242317 -0.000002
vertex 29.302912 5.242317 -5.828713
endloop
endfacet
facet normal 0.705398 0.705398 -0.069476
outer loop
vertex 29.302912 5.242317 -5.828713
vertex 14.651456 20.180813 -2.914356
vertex 14.938496 20.180813 -0.000001
endloop
endfacet
facet normal 0.678290 0.705398 -0.205757
outer loop
vertex 14.651456 20.180813 -2.914356
vertex 29.302912 5.242317 -5.828713
vertex 27.602739 5.242317 -11.433431
endloop
endfacet
facet normal 0.678290 0.705398 -0.205757
outer loop
vertex 27.602739 5.242317 -11.433431
vertex 13.801370 20.180813 -5.716715
vertex 14.651456 20.180813 -2.914356
endloop
endfacet
facet normal 0.625116 0.705398 -0.334131
outer loop
vertex 13.801370 20.180813 -5.716715
vertex 27.602739 5.242317 -11.433431
vertex 24.841814 5.242317 -16.598768
endloop
endfacet
facet normal 0.625116 0.705399 -0.334131
outer loop
vertex 24.841814 5.242317 -16.598768
vertex 12.420907 20.180813 -8.299384
vertex 13.801370 20.180813 -5.716715
endloop
endfacet
facet normal 0.547918 0.705398 -0.449665
outer loop
vertex 12.420907 20.180813 -8.299384
vertex 24.841814 5.242317 -16.598768
vertex 21.126223 5.242317 -21.126223
endloop
endfacet
facet normal 0.547919 0.705398 -0.449665
outer loop
vertex 21.126223 5.242317 -21.126223
vertex 10.563111 20.180813 -10.563111
vertex 12.420907 20.180813 -8.299384
endloop
endfacet
facet normal 0.449665 0.705398 -0.547918
outer loop
vertex 10.563111 20.180813 -10.563111
vertex 21.126223 5.242317 -21.126223
vertex 16.598768 5.242317 -24.841812
endloop
endfacet
facet normal 0.449665 0.705399 -0.547918
outer loop
vertex 16.598768 5.242317 -24.841812
vertex 8.299384 20.180813 -12.420906
vertex 10.563111 20.180813 -10.563111
endloop
endfacet
facet normal 0.334131 0.705398 -0.625116
outer loop
vertex 8.299384 20.180813 -12.420906
vertex 16.598768 5.242317 -24.841812
vertex 11.433431 5.242317 -27.602739
endloop
endfacet
facet normal 0.334132 0.705398 -0.625116
outer loop
vertex 11.433431 5.242317 -27.602739
vertex 5.716715 20.180813 -13.801370
vertex 8.299384 20.180813 -12.420906
endloop
endfacet
facet normal 0.205757 0.705398 -0.678290
outer loop
vertex 5.716715 20.180813 -13.801370
vertex 11.433431 5.242317 -27.602739
vertex 5.828712 5.242317 -29.302912
endloop
endfacet
facet normal 0.205756 0.705398 -0.678290
outer loop
vertex 5.828712 5.242317 -29.302912
vertex 2.914356 20.180813 -14.651456
vertex 5.716715 20.180813 -13.801370
endloop
endfacet
facet normal 0.069476 0.705398 -0.705398
outer loop
vertex 2.914356 20.180813 -14.651456
vertex 5.828712 5.242317 -29.302912
vertex 0.000000 5.242317 -29.876991
endloop
endfacet
facet normal 0.069476 0.705398 -0.705398
outer loop
vertex 0.000000 5.242317 -29.876991
vertex 0.000000 20.180813 -14.938496
vertex 2.914356 20.180813 -14.651456
endloop
endfacet
facet normal -0.449664 0.705398 -0.547919
outer loop
vertex -8.299367 20.180813 -12.420917
vertex -16.598734 5.242317 -24.841833
vertex -21.126196 5.242317 -21.126251
endloop
endfacet
facet normal -0.449664 0.705398 -0.547920
outer loop
vertex -21.126196 5.242317 -21.126251
vertex -10.563098 20.180813 -10.563126
vertex -8.299367 20.180813 -12.420917
endloop
endfacet
facet normal -0.547918 0.705398 -0.449666
outer loop
vertex -10.563098 20.180813 -10.563126
vertex -21.126196 5.242317 -21.126251
vertex -24.841791 5.242317 -16.598797
endloop
endfacet
facet normal -0.547918 0.705398 -0.449666
outer loop
vertex -24.841791 5.242317 -16.598797
vertex -12.420896 20.180813 -8.299398
vertex -10.563098 20.180813 -10.563126
endloop
endfacet
facet normal -0.625115 0.705398 -0.334132
outer loop
vertex -12.420896 20.180813 -8.299398
vertex -24.841791 5.242317 -16.598797
vertex -27.602728 5.242317 -11.433460
endloop
endfacet
facet normal -0.625116 0.705398 -0.334132
outer loop
vertex -27.602728 5.242317 -11.433460
vertex -13.801364 20.180813 -5.716730
vertex -12.420896 20.180813 -8.299398
endloop
endfacet
facet normal -0.678290 0.705398 -0.205758
outer loop
vertex -13.801364 20.180813 -5.716730
vertex -27.602728 5.242317 -11.433460
vertex -29.302908 5.242317 -5.828743
endloop
endfacet
facet normal -0.678290 0.705398 -0.205758
outer loop
vertex -29.302908 5.242317 -5.828743
vertex -14.651454 20.180813 -2.914371
vertex -13.801364 20.180813 -5.716730
endloop
endfacet
facet normal -0.705398 0.705398 -0.069476
outer loop
vertex -14.651454 20.180813 -2.914371
vertex -29.302908 5.242317 -5.828743
vertex -29.876991 5.242317 -0.000029
endloop
endfacet
facet normal -0.705398 0.705398 -0.069476
outer loop
vertex -29.876991 5.242317 -0.000029
vertex -14.938496 20.180813 -0.000014
vertex -14.651454 20.180813 -2.914371
endloop
endfacet
facet normal -0.705398 0.705398 0.069475
outer loop
vertex -14.938496 20.180813 -0.000014
vertex -29.876991 5.242317 -0.000029
vertex -29.302919 5.242317 5.828686
endloop
endfacet
facet normal -0.705398 0.705398 0.069475
outer loop
vertex -29.302919 5.242317 5.828686
vertex -14.651460 20.180813 2.914343
vertex -14.938496 20.180813 -0.000014
endloop
endfacet
endsolid Exported from Blender-2.74 (sub 0)
