solid Exported from Blender-2.74 (sub 0)
facet normal 0.098018 0.000000 -0.995185
outer loop
vertex 0.000000 -10.690624 -7.469247
vertex 0.000000 5.242315 -7.469247
vertex 1.457178 5.242315 -7.325727
endloop
endfacet
facet normal 0.098017 0.000000 -0.995185
outer loop
vertex 1.457178 5.242315 -7.325727
vertex 1.457178 -10.690624 -7.325727
vertex 0.000000 -10.690624 -7.469247
endloop
endfacet
facet normal -0.098016 0.000000 -0.995185
outer loop
vertex 0.000000 5.242315 -7.469247
vertex 0.000000 -10.690624 -7.469247
vertex -1.457167 -10.690624 -7.325729
endloop
endfacet
facet normal -0.098016 0.000000 -0.995185
outer loop
vertex -1.457167 -10.690624 -7.325729
vertex -1.457167 5.242315 -7.325729
vertex 0.000000 5.242315 -7.469247
endloop
endfacet
facet normal 0.000000 1.000000 0.000002
outer loop
vertex -1.457181 5.242315 7.325727
vertex -4.149695 5.242315 6.210449
vertex -2.858361 5.242315 6.900683
endloop
endfacet
facet normal 0.000000 1.000000 0.000002
outer loop
vertex -6.210454 5.242315 4.149686
vertex -5.281559 5.242315 5.281553
vertex -4.149695 5.242315 6.210449
endloop
endfacet
facet normal 0.000000 1.000000 0.000000
outer loop
vertex -7.325729 5.242315 1.457172
vertex -6.900687 5.242315 2.858351
vertex -6.210454 5.242315 4.149686
endloop
endfacet
facet normal 0.000000 1.000000 -0.000000
outer loop
vertex -7.325727 5.242315 -1.457185
vertex -7.469247 5.242315 -0.000007
vertex -7.325729 5.242315 1.457172
endloop
endfacet
facet normal 0.000000 1.000000 -0.000001
outer loop
vertex -6.210448 5.242315 -4.149699
vertex -6.900682 5.242315 -2.858365
vertex -7.325727 5.242315 -1.457185
endloop
endfacet
facet normal 0.000000 1.000000 0.000002
outer loop
vertex -4.149683 5.242315 -6.210457
vertex -5.281548 5.242315 -5.281562
vertex -6.210448 5.242315 -4.149699
endloop
endfacet
facet normal 0.000000 1.000000 0.000000
outer loop
vertex -1.457167 5.242315 -7.325729
vertex -2.858347 5.242315 -6.900690
vertex -4.149683 5.242315 -6.210457
endloop
endfacet
facet normal 0.000000 1.000000 0.000005
outer loop
vertex 1.457178 5.242315 -7.325727
vertex 0.000000 5.242315 -7.469247
vertex -1.457167 5.242315 -7.325729
endloop
endfacet
facet normal 0.000000 1.000000 -0.000002
outer loop
vertex 4.149692 5.242315 -6.210453
vertex 2.858358 5.242315 -6.900684
vertex 1.457178 5.242315 -7.325727
endloop
endfacet
facet normal 0.000000 1.000000 -0.000002
outer loop
vertex 6.210454 5.242315 -4.149692
vertex 5.281555 5.242315 -5.281555
vertex 4.149692 5.242315 -6.210453
endloop
endfacet
facet normal 0.000000 1.000000 -0.000001
outer loop
vertex 7.325727 5.242315 -1.457178
vertex 6.900684 5.242315 -2.858358
vertex 6.210454 5.242315 -4.149692
endloop
endfacet
facet normal 0.000000 1.000000 0.000000
outer loop
vertex 7.325727 5.242315 1.457177
vertex 7.469247 5.242315 -0.000001
vertex 7.325727 5.242315 -1.457178
endloop
endfacet
facet normal 0.000000 1.000000 0.000000
outer loop
vertex 6.210454 5.242315 4.149692
vertex 6.900684 5.242315 2.858356
vertex 7.325727 5.242315 1.457177
endloop
endfacet
facet normal 0.000000 1.000000 0.000002
outer loop
vertex 4.149692 5.242315 6.210454
vertex 5.281555 5.242315 5.281555
vertex 6.210454 5.242315 4.149692
endloop
endfacet
facet normal 0.000000 1.000000 0.000005
outer loop
vertex 1.457176 5.242315 7.325727
vertex 2.858356 5.242315 6.900685
vertex 4.149692 5.242315 6.210454
endloop
endfacet
facet normal 0.000000 1.000000 0.000000
outer loop
vertex -1.457181 5.242315 7.325727
vertex -0.000002 5.242315 7.469247
vertex 1.457176 5.242315 7.325727
endloop
endfacet
facet normal 0.000000 1.000000 -0.000001
outer loop
vertex -1.457181 5.242315 7.325727
vertex -6.210454 5.242315 4.149686
vertex -4.149695 5.242315 6.210449
endloop
endfacet
facet normal 0.000000 1.000000 0.000000
outer loop
vertex -7.325727 5.242315 -1.457185
vertex -7.325729 5.242315 1.457172
vertex -6.210454 5.242315 4.149686
endloop
endfacet
facet normal 0.000000 1.000000 -0.000001
outer loop
vertex -4.149683 5.242315 -6.210457
vertex -6.210448 5.242315 -4.149699
vertex -7.325727 5.242315 -1.457185
endloop
endfacet
facet normal 0.000000 1.000000 -0.000001
outer loop
vertex 1.457178 5.242315 -7.325727
vertex -1.457167 5.242315 -7.325729
vertex -4.149683 5.242315 -6.210457
endloop
endfacet
facet normal 0.000000 1.000000 0.000000
outer loop
vertex 6.210454 5.242315 -4.149692
vertex 4.149692 5.242315 -6.210453
vertex 1.457178 5.242315 -7.325727
endloop
endfacet
facet normal 0.000000 1.000000 0.000000
outer loop
vertex 7.325727 5.242315 1.457177
vertex 7.325727 5.242315 -1.457178
vertex 6.210454 5.242315 -4.149692
endloop
endfacet
facet normal 0.000000 1.000000 -0.000001
outer loop
vertex 4.149692 5.242315 6.210454
vertex 6.210454 5.242315 4.149692
vertex 7.325727 5.242315 1.457177
endloop
endfacet
facet normal 0.000000 1.000000 -0.000001
outer loop
vertex -1.457181 5.242315 7.325727
vertex 1.457176 5.242315 7.325727
vertex 4.149692 5.242315 6.210454
endloop
endfacet
facet normal 0.000000 1.000000 0.000000
outer loop
vertex -1.457181 5.242315 7.325727
vertex -7.325727 5.242315 -1.457185
vertex -6.210454 5.242315 4.149686
endloop
endfacet
facet normal 0.000000 1.000000 0.000000
outer loop
vertex 1.457178 5.242315 -7.325727
vertex -4.149683 5.242315 -6.210457
vertex -7.325727 5.242315 -1.457185
endloop
endfacet
facet normal 0.000000 1.000000 0.000000
outer loop
vertex 7.325727 5.242315 1.457177
vertex 6.210454 5.242315 -4.149692
vertex 1.457178 5.242315 -7.325727
endloop
endfacet
facet normal 0.000000 1.000000 0.000000
outer loop
vertex -1.457181 5.242315 7.325727
vertex 4.149692 5.242315 6.210454
vertex 7.325727 5.242315 1.457177
endloop
endfacet
facet normal 0.000000 1.000000 0.000000
outer loop
vertex -1.457181 5.242315 7.325727
vertex 1.457178 5.242315 -7.325727
vertex -7.325727 5.242315 -1.457185
endloop
endfacet
facet normal 0.000000 1.000000 0.000000
outer loop
vertex -1.457181 5.242315 7.325727
vertex 7.325727 5.242315 1.457177
vertex 1.457178 5.242315 -7.325727
endloop
endfacet
facet normal 0.290285 0.000000 -0.956940
outer loop
vertex 1.457178 -10.690624 -7.325727
vertex 1.457178 5.242315 -7.325727
vertex 2.858358 5.242315 -6.900684
endloop
endfacet
facet normal 0.290285 0.000000 -0.956940
outer loop
vertex 2.858358 5.242315 -6.900684
vertex 2.858358 -10.690624 -6.900684
vertex 1.457178 -10.690624 -7.325727
endloop
endfacet
facet normal -0.290283 0.000000 -0.956941
outer loop
vertex -2.858347 -10.690624 -6.900690
vertex -2.858347 5.242315 -6.900690
vertex -1.457167 5.242315 -7.325729
endloop
endfacet
facet normal -0.290282 0.000000 -0.956941
outer loop
vertex -1.457167 5.242315 -7.325729
vertex -1.457167 -10.690624 -7.325729
vertex -2.858347 -10.690624 -6.900690
endloop
endfacet
facet normal -0.290285 0.000000 0.956940
outer loop
vertex -1.457181 -10.690624 7.325727
vertex -1.457181 5.242315 7.325727
vertex -2.858361 5.242315 6.900683
endloop
endfacet
facet normal -0.290285 0.000000 0.956940
outer loop
vertex -2.858361 5.242315 6.900683
vertex -2.858361 -10.690624 6.900683
vertex -1.457181 -10.690624 7.325727
endloop
endfacet
facet normal -0.098018 0.000000 0.995185
outer loop
vertex -0.000002 -10.690624 7.469247
vertex -0.000002 5.242315 7.469247
vertex -1.457181 5.242315 7.325727
endloop
endfacet
facet normal -0.098017 0.000000 0.995185
outer loop
vertex -1.457181 5.242315 7.325727
vertex -1.457181 -10.690624 7.325727
vertex -0.000002 -10.690624 7.469247
endloop
endfacet
facet normal 0.098017 0.000000 0.995185
outer loop
vertex 1.457176 -10.690624 7.325727
vertex 1.457176 5.242315 7.325727
vertex -0.000002 5.242315 7.469247
endloop
endfacet
facet normal 0.098017 0.000000 0.995185
outer loop
vertex -0.000002 5.242315 7.469247
vertex -0.000002 -10.690624 7.469247
vertex 1.457176 -10.690624 7.325727
endloop
endfacet
facet normal 0.290284 0.000000 0.956941
outer loop
vertex 2.858356 -10.690624 6.900685
vertex 2.858356 5.242315 6.900685
vertex 1.457176 5.242315 7.325727
endloop
endfacet
facet normal 0.290285 0.000000 0.956940
outer loop
vertex 1.457176 5.242315 7.325727
vertex 1.457176 -10.690624 7.325727
vertex 2.858356 -10.690624 6.900685
endloop
endfacet
facet normal 0.471395 0.000000 0.881922
outer loop
vertex 4.149692 -10.690624 6.210454
vertex 4.149692 5.242315 6.210454
vertex 2.858356 5.242315 6.900685
endloop
endfacet
facet normal 0.471396 0.000000 0.881922
outer loop
vertex 2.858356 5.242315 6.900685
vertex 2.858356 -10.690624 6.900685
vertex 4.149692 -10.690624 6.210454
endloop
endfacet
facet normal 0.634395 0.000000 0.773009
outer loop
vertex 5.281555 -10.690624 5.281555
vertex 5.281555 5.242315 5.281555
vertex 4.149692 5.242315 6.210454
endloop
endfacet
facet normal 0.634395 0.000000 0.773009
outer loop
vertex 4.149692 5.242315 6.210454
vertex 4.149692 -10.690624 6.210454
vertex 5.281555 -10.690624 5.281555
endloop
endfacet
facet normal 0.773009 0.000000 0.634394
outer loop
vertex 6.210454 -10.690624 4.149692
vertex 6.210454 5.242315 4.149692
vertex 5.281555 5.242315 5.281555
endloop
endfacet
facet normal 0.773009 0.000000 0.634395
outer loop
vertex 5.281555 5.242315 5.281555
vertex 5.281555 -10.690624 5.281555
vertex 6.210454 -10.690624 4.149692
endloop
endfacet
facet normal 0.881922 0.000000 0.471395
outer loop
vertex 6.900684 -10.690624 2.858356
vertex 6.900684 5.242315 2.858356
vertex 6.210454 5.242315 4.149692
endloop
endfacet
facet normal 0.881922 0.000000 0.471395
outer loop
vertex 6.210454 5.242315 4.149692
vertex 6.210454 -10.690624 4.149692
vertex 6.900684 -10.690624 2.858356
endloop
endfacet
facet normal 0.956940 0.000000 0.290285
outer loop
vertex 7.325727 -10.690624 1.457177
vertex 7.325727 5.242315 1.457177
vertex 6.900684 5.242315 2.858356
endloop
endfacet
facet normal 0.956940 0.000000 0.290285
outer loop
vertex 6.900684 5.242315 2.858356
vertex 6.900684 -10.690624 2.858356
vertex 7.325727 -10.690624 1.457177
endloop
endfacet
facet normal 0.995185 0.000000 0.098017
outer loop
vertex 7.469247 -10.690624 -0.000001
vertex 7.469247 5.242315 -0.000001
vertex 7.325727 5.242315 1.457177
endloop
endfacet
facet normal 0.995185 0.000000 0.098017
outer loop
vertex 7.325727 5.242315 1.457177
vertex 7.325727 -10.690624 1.457177
vertex 7.469247 -10.690624 -0.000001
endloop
endfacet
facet normal 0.995185 0.000000 -0.098017
outer loop
vertex 7.325727 -10.690624 -1.457178
vertex 7.325727 5.242315 -1.457178
vertex 7.469247 5.242315 -0.000001
endloop
endfacet
facet normal 0.995185 0.000000 -0.098017
outer loop
vertex 7.469247 5.242315 -0.000001
vertex 7.469247 -10.690624 -0.000001
vertex 7.325727 -10.690624 -1.457178
endloop
endfacet
facet normal 0.956940 0.000000 -0.290285
outer loop
vertex 6.900684 -10.690624 -2.858358
vertex 6.900684 5.242315 -2.858358
vertex 7.325727 5.242315 -1.457178
endloop
endfacet
facet normal 0.956940 0.000000 -0.290285
outer loop
vertex 7.325727 5.242315 -1.457178
vertex 7.325727 -10.690624 -1.457178
vertex 6.900684 -10.690624 -2.858358
endloop
endfacet
facet normal 0.881922 0.000000 -0.471396
outer loop
vertex 6.210454 -10.690624 -4.149692
vertex 6.210454 5.242315 -4.149692
vertex 6.900684 5.242315 -2.858358
endloop
endfacet
facet normal 0.881922 0.000000 -0.471395
outer loop
vertex 6.900684 5.242315 -2.858358
vertex 6.900684 -10.690624 -2.858358
vertex 6.210454 -10.690624 -4.149692
endloop
endfacet
facet normal 0.773009 0.000000 -0.634395
outer loop
vertex 5.281555 -10.690624 -5.281555
vertex 5.281555 5.242315 -5.281555
vertex 6.210454 5.242315 -4.149692
endloop
endfacet
facet normal 0.773009 0.000000 -0.634394
outer loop
vertex 6.210454 5.242315 -4.149692
vertex 6.210454 -10.690624 -4.149692
vertex 5.281555 -10.690624 -5.281555
endloop
endfacet
facet normal 0.634394 0.000000 -0.773010
outer loop
vertex 4.149692 -10.690624 -6.210453
vertex 4.149692 5.242315 -6.210453
vertex 5.281555 5.242315 -5.281555
endloop
endfacet
facet normal 0.634395 0.000000 -0.773009
outer loop
vertex 5.281555 5.242315 -5.281555
vertex 5.281555 -10.690624 -5.281555
vertex 4.149692 -10.690624 -6.210453
endloop
endfacet
facet normal 0.471396 0.000000 -0.881922
outer loop
vertex 2.858358 -10.690624 -6.900684
vertex 2.858358 5.242315 -6.900684
vertex 4.149692 5.242315 -6.210453
endloop
endfacet
facet normal 0.471396 0.000000 -0.881922
outer loop
vertex 4.149692 5.242315 -6.210453
vertex 4.149692 -10.690624 -6.210453
vertex 2.858358 -10.690624 -6.900684
endloop
endfacet
facet normal -0.471396 0.000000 -0.881922
outer loop
vertex -4.149683 -10.690624 -6.210457
vertex -4.149683 5.242315 -6.210457
vertex -2.858347 5.242315 -6.900690
endloop
endfacet
facet normal -0.471396 0.000000 -0.881921
outer loop
vertex -2.858347 5.242315 -6.900690
vertex -2.858347 -10.690624 -6.900690
vertex -4.149683 -10.690624 -6.210457
endloop
endfacet
facet normal -0.634393 0.000000 -0.773011
outer loop
vertex -5.281548 -10.690624 -5.281562
vertex -5.281548 5.242315 -5.281562
vertex -4.149683 5.242315 -6.210457
endloop
endfacet
facet normal -0.634393 0.000000 -0.773011
outer loop
vertex -4.149683 5.242315 -6.210457
vertex -4.149683 -10.690624 -6.210457
vertex -5.281548 -10.690624 -5.281562
endloop
endfacet
facet normal -0.773009 0.000000 -0.634395
outer loop
vertex -6.210448 -10.690624 -4.149699
vertex -6.210448 5.242315 -4.149699
vertex -5.281548 5.242315 -5.281562
endloop
endfacet
facet normal -0.773009 0.000000 -0.634395
outer loop
vertex -5.281548 5.242315 -5.281562
vertex -5.281548 -10.690624 -5.281562
vertex -6.210448 -10.690624 -4.149699
endloop
endfacet
facet normal -0.881921 0.000000 -0.471398
outer loop
vertex -6.900682 -10.690624 -2.858365
vertex -6.900682 5.242315 -2.858365
vertex -6.210448 5.242315 -4.149699
endloop
endfacet
facet normal -0.881921 0.000000 -0.471398
outer loop
vertex -6.210448 5.242315 -4.149699
vertex -6.210448 -10.690624 -4.149699
vertex -6.900682 -10.690624 -2.858365
endloop
endfacet
facet normal -0.956940 0.000000 -0.290286
outer loop
vertex -7.325727 -10.690624 -1.457185
vertex -7.325727 5.242315 -1.457185
vertex -6.900682 5.242315 -2.858365
endloop
endfacet
facet normal -0.956940 0.000000 -0.290286
outer loop
vertex -6.900682 5.242315 -2.858365
vertex -6.900682 -10.690624 -2.858365
vertex -7.325727 -10.690624 -1.457185
endloop
endfacet
facet normal -0.995185 0.000000 -0.098017
outer loop
vertex -7.469247 -10.690624 -0.000007
vertex -7.469247 5.242315 -0.000007
vertex -7.325727 5.242315 -1.457185
endloop
endfacet
facet normal -0.995185 0.000000 -0.098017
outer loop
vertex -7.325727 5.242315 -1.457185
vertex -7.325727 -10.690624 -1.457185
vertex -7.469247 -10.690624 -0.000007
endloop
endfacet
facet normal -0.995185 0.000000 0.098016
outer loop
vertex -7.325729 -10.690624 1.457172
vertex -7.325729 5.242315 1.457172
vertex -7.469247 5.242315 -0.000007
endloop
endfacet
facet normal -0.995185 0.000000 0.098016
outer loop
vertex -7.469247 5.242315 -0.000007
vertex -7.469247 -10.690624 -0.000007
vertex -7.325729 -10.690624 1.457172
endloop
endfacet
facet normal -0.956941 0.000000 0.290284
outer loop
vertex -6.900687 -10.690624 2.858351
vertex -6.900687 5.242315 2.858351
vertex -7.325729 5.242315 1.457172
endloop
endfacet
facet normal -0.956941 0.000000 0.290284
outer loop
vertex -7.325729 5.242315 1.457172
vertex -7.325729 -10.690624 1.457172
vertex -6.900687 -10.690624 2.858351
endloop
endfacet
facet normal -0.881921 0.000000 0.471396
outer loop
vertex -6.210454 -10.690624 4.149686
vertex -6.210454 5.242315 4.149686
vertex -6.900687 5.242315 2.858351
endloop
endfacet
facet normal -0.881921 0.000000 0.471396
outer loop
vertex -6.900687 5.242315 2.858351
vertex -6.900687 -10.690624 2.858351
vertex -6.210454 -10.690624 4.149686
endloop
endfacet
facet normal -0.773012 0.000000 0.634392
outer loop
vertex -5.281559 -10.690624 5.281553
vertex -5.281559 5.242315 5.281553
vertex -6.210454 5.242315 4.149686
endloop
endfacet
facet normal -0.773012 0.000000 0.634392
outer loop
vertex -6.210454 5.242315 4.149686
vertex -6.210454 -10.690624 4.149686
vertex -5.281559 -10.690624 5.281553
endloop
endfacet
facet normal -0.634393 0.000000 0.773011
outer loop
vertex -4.149695 -10.690624 6.210449
vertex -4.149695 5.242315 6.210449
vertex -5.281559 5.242315 5.281553
endloop
endfacet
facet normal -0.634394 0.000000 0.773010
outer loop
vertex -5.281559 5.242315 5.281553
vertex -5.281559 -10.690624 5.281553
vertex -4.149695 -10.690624 6.210449
endloop
endfacet
facet normal -0.471398 0.000000 0.881921
outer loop
vertex -2.858361 -10.690624 6.900683
vertex -2.858361 5.242315 6.900683
vertex -4.149695 5.242315 6.210449
endloop
endfacet
facet normal -0.471397 0.000000 0.881921
outer loop
vertex -4.149695 5.242315 6.210449
vertex -4.149695 -10.690624 6.210449
vertex -2.858361 -10.690624 6.900683
endloop
endfacet
facet normal 0.000000 -1.000000 0.000005
outer loop
vertex 2.858356 -10.690624 6.900685
vertex 5.281555 -10.690624 5.281555
vertex 4.149692 -10.690624 6.210454
endloop
endfacet
facet normal 0.000000 -1.000000 0.000000
outer loop
vertex 6.900684 -10.690624 2.858356
vertex 6.210454 -10.690624 4.149692
vertex 5.281555 -10.690624 5.281555
endloop
endfacet
facet normal 0.000000 -1.000000 -0.000002
outer loop
vertex 7.469247 -10.690624 -0.000001
vertex 7.325727 -10.690624 1.457177
vertex 6.900684 -10.690624 2.858356
endloop
endfacet
facet normal 0.000000 -1.000000 0.000001
outer loop
vertex 6.900684 -10.690624 -2.858358
vertex 7.325727 -10.690624 -1.457178
vertex 7.469247 -10.690624 -0.000001
endloop
endfacet
facet normal 0.000000 -1.000000 0.000002
outer loop
vertex 5.281555 -10.690624 -5.281555
vertex 6.210454 -10.690624 -4.149692
vertex 6.900684 -10.690624 -2.858358
endloop
endfacet
facet normal 0.000000 -1.000000 0.000000
outer loop
vertex 2.858358 -10.690624 -6.900684
vertex 4.149692 -10.690624 -6.210453
vertex 5.281555 -10.690624 -5.281555
endloop
endfacet
facet normal 0.000000 -1.000000 -0.000005
outer loop
vertex 0.000000 -10.690624 -7.469247
vertex 1.457178 -10.690624 -7.325727
vertex 2.858358 -10.690624 -6.900684
endloop
endfacet
facet normal 0.000000 -1.000000 0.000005
outer loop
vertex -2.858347 -10.690624 -6.900690
vertex -1.457167 -10.690624 -7.325729
vertex 0.000000 -10.690624 -7.469247
endloop
endfacet
facet normal 0.000000 -1.000000 0.000000
outer loop
vertex -5.281548 -10.690624 -5.281562
vertex -4.149683 -10.690624 -6.210457
vertex -2.858347 -10.690624 -6.900690
endloop
endfacet
facet normal 0.000000 -1.000000 -0.000005
outer loop
vertex -6.900682 -10.690624 -2.858365
vertex -6.210448 -10.690624 -4.149699
vertex -5.281548 -10.690624 -5.281562
endloop
endfacet
facet normal 0.000000 -1.000000 -0.000002
outer loop
vertex -7.469247 -10.690624 -0.000007
vertex -7.325727 -10.690624 -1.457185
vertex -6.900682 -10.690624 -2.858365
endloop
endfacet
facet normal 0.000000 -1.000000 0.000001
outer loop
vertex -6.900687 -10.690624 2.858351
vertex -7.325729 -10.690624 1.457172
vertex -7.469247 -10.690624 -0.000007
endloop
endfacet
facet normal 0.000000 -1.000000 -0.000005
outer loop
vertex -5.281559 -10.690624 5.281553
vertex -6.210454 -10.690624 4.149686
vertex -6.900687 -10.690624 2.858351
endloop
endfacet
facet normal 0.000000 -1.000000 0.000000
outer loop
vertex -2.858361 -10.690624 6.900683
vertex -4.149695 -10.690624 6.210449
vertex -5.281559 -10.690624 5.281553
endloop
endfacet
facet normal 0.000000 -1.000000 0.000005
outer loop
vertex -0.000002 -10.690624 7.469247
vertex -1.457181 -10.690624 7.325727
vertex -2.858361 -10.690624 6.900683
endloop
endfacet
facet normal 0.000000 -1.000000 0.000000
outer loop
vertex 2.858356 -10.690624 6.900685
vertex 1.457176 -10.690624 7.325727
vertex -0.000002 -10.690624 7.469247
endloop
endfacet
facet normal 0.000000 -1.000000 0.000001
outer loop
vertex 2.858356 -10.690624 6.900685
vertex 6.900684 -10.690624 2.858356
vertex 5.281555 -10.690624 5.281555
endloop
endfacet
facet normal 0.000000 -1.000000 0.000000
outer loop
vertex 6.900684 -10.690624 -2.858358
vertex 7.469247 -10.690624 -0.000001
vertex 6.900684 -10.690624 2.858356
endloop
endfacet
facet normal 0.000000 -1.000000 0.000001
outer loop
vertex 2.858358 -10.690624 -6.900684
vertex 5.281555 -10.690624 -5.281555
vertex 6.900684 -10.690624 -2.858358
endloop
endfacet
facet normal 0.000000 -1.000000 0.000000
outer loop
vertex -2.858347 -10.690624 -6.900690
vertex 0.000000 -10.690624 -7.469247
vertex 2.858358 -10.690624 -6.900684
endloop
endfacet
facet normal 0.000000 -1.000000 0.000000
outer loop
vertex -6.900682 -10.690624 -2.858365
vertex -5.281548 -10.690624 -5.281562
vertex -2.858347 -10.690624 -6.900690
endloop
endfacet
facet normal 0.000000 -1.000000 0.000000
outer loop
vertex -6.900687 -10.690624 2.858351
vertex -7.469247 -10.690624 -0.000007
vertex -6.900682 -10.690624 -2.858365
endloop
endfacet
facet normal 0.000000 -1.000000 0.000001
outer loop
vertex -2.858361 -10.690624 6.900683
vertex -5.281559 -10.690624 5.281553
vertex -6.900687 -10.690624 2.858351
endloop
endfacet
facet normal 0.000000 -1.000000 0.000002
outer loop
vertex 2.858356 -10.690624 6.900685
vertex -0.000002 -10.690624 7.469247
vertex -2.858361 -10.690624 6.900683
endloop
endfacet
facet normal 0.000000 -1.000000 -0.000001
outer loop
vertex 2.858356 -10.690624 6.900685
vertex 6.900684 -10.690624 -2.858358
vertex 6.900684 -10.690624 2.858356
endloop
endfacet
facet normal 0.000000 -1.000000 -0.000000
outer loop
vertex -2.858347 -10.690624 -6.900690
vertex 2.858358 -10.690624 -6.900684
vertex 6.900684 -10.690624 -2.858358
endloop
endfacet
facet normal 0.000000 -1.000000 0.000000
outer loop
vertex -6.900687 -10.690624 2.858351
vertex -6.900682 -10.690624 -2.858365
vertex -2.858347 -10.690624 -6.900690
endloop
endfacet
facet normal 0.000000 -1.000000 0.000000
outer loop
vertex 2.858356 -10.690624 6.900685
vertex -2.858361 -10.690624 6.900683
vertex -6.900687 -10.690624 2.858351
endloop
endfacet
facet normal 0.000000 -1.000000 0.000000
outer loop
vertex 2.858356 -10.690624 6.900685
vertex -2.858347 -10.690624 -6.900690
vertex 6.900684 -10.690624 -2.858358
endloop
endfacet
facet normal 0.000000 -1.000000 -0.000000
outer loop
vertex 2.858356 -10.690624 6.900685
vertex -6.900687 -10.690624 2.858351
vertex -2.858347 -10.690624 -6.900690
endloop
endfacet
endsolid Exported from Blender-2.74 (sub 0)
