solid Exported from Blender-2.74 (sub 0)
facet normal 0.995185 0.000000 -0.098017
outer loop
vertex -1.412332 7.368592 0.280929
vertex -1.412332 1.300000 0.280929
vertex -1.440001 1.300000 -0.000000
endloop
endfacet
facet normal 0.995185 0.000000 -0.098017
outer loop
vertex -1.440001 1.300000 -0.000000
vertex -1.440001 7.368592 -0.000000
vertex -1.412332 7.368592 0.280929
endloop
endfacet
facet normal 0.773011 0.000000 0.634393
outer loop
vertex -1.018235 7.368592 -1.018234
vertex -1.197317 7.368592 -0.800021
vertex -1.197317 1.300000 -0.800021
endloop
endfacet
facet normal 0.773011 0.000000 0.634392
outer loop
vertex -1.197317 1.300000 -0.800021
vertex -1.018235 1.300000 -1.018234
vertex -1.018235 7.368592 -1.018234
endloop
endfacet
facet normal -0.290285 0.000000 -0.956940
outer loop
vertex 0.280931 7.368592 1.412331
vertex 0.551065 7.368592 1.330387
vertex 0.551065 1.300000 1.330387
endloop
endfacet
facet normal -0.290285 0.000000 -0.956940
outer loop
vertex 0.551065 1.300000 1.330387
vertex 0.280931 1.300000 1.412331
vertex 0.280931 7.368592 1.412331
endloop
endfacet
facet normal 0.956941 0.000000 -0.290284
outer loop
vertex -1.330388 7.368592 0.551063
vertex -1.330388 1.300000 0.551063
vertex -1.412332 1.300000 0.280929
endloop
endfacet
facet normal 0.956941 0.000000 -0.290284
outer loop
vertex -1.412332 1.300000 0.280929
vertex -1.412332 7.368592 0.280929
vertex -1.330388 7.368592 0.551063
endloop
endfacet
facet normal 0.634393 0.000000 0.773010
outer loop
vertex -0.800022 7.368592 -1.197316
vertex -1.018235 7.368592 -1.018234
vertex -1.018235 1.300000 -1.018234
endloop
endfacet
facet normal 0.634393 0.000000 0.773010
outer loop
vertex -1.018235 1.300000 -1.018234
vertex -0.800022 1.300000 -1.197316
vertex -0.800022 7.368592 -1.197316
endloop
endfacet
facet normal -0.098018 0.000000 -0.995185
outer loop
vertex 0.000000 7.368592 1.440001
vertex 0.280931 7.368592 1.412331
vertex 0.280931 1.300000 1.412331
endloop
endfacet
facet normal -0.098017 0.000000 -0.995185
outer loop
vertex 0.280931 1.300000 1.412331
vertex 0.000000 1.300000 1.440001
vertex 0.000000 7.368592 1.440001
endloop
endfacet
facet normal 0.881922 0.000000 -0.471396
outer loop
vertex -1.197317 7.368592 0.800021
vertex -1.197317 1.300000 0.800021
vertex -1.330388 1.300000 0.551063
endloop
endfacet
facet normal 0.881921 0.000000 -0.471397
outer loop
vertex -1.330388 1.300000 0.551063
vertex -1.330388 7.368592 0.551063
vertex -1.197317 7.368592 0.800021
endloop
endfacet
facet normal 0.471397 0.000000 0.881921
outer loop
vertex -0.551065 7.368592 -1.330387
vertex -0.800022 7.368592 -1.197316
vertex -0.800022 1.300000 -1.197316
endloop
endfacet
facet normal 0.471397 0.000000 0.881921
outer loop
vertex -0.800022 1.300000 -1.197316
vertex -0.551065 1.300000 -1.330387
vertex -0.551065 7.368592 -1.330387
endloop
endfacet
facet normal 0.773011 0.000000 -0.634392
outer loop
vertex -1.018235 7.368592 1.018234
vertex -1.018235 1.300000 1.018234
vertex -1.197317 1.300000 0.800021
endloop
endfacet
facet normal 0.773011 0.000000 -0.634393
outer loop
vertex -1.197317 1.300000 0.800021
vertex -1.197317 7.368592 0.800021
vertex -1.018235 7.368592 1.018234
endloop
endfacet
facet normal 0.290285 0.000000 0.956940
outer loop
vertex -0.280931 7.368592 -1.412331
vertex -0.551065 7.368592 -1.330387
vertex -0.551065 1.300000 -1.330387
endloop
endfacet
facet normal 0.290285 0.000000 0.956940
outer loop
vertex -0.551065 1.300000 -1.330387
vertex -0.280931 1.300000 -1.412331
vertex -0.280931 7.368592 -1.412331
endloop
endfacet
facet normal 0.634393 0.000000 -0.773010
outer loop
vertex -0.800022 7.368592 1.197316
vertex -0.800022 1.300000 1.197316
vertex -1.018235 1.300000 1.018234
endloop
endfacet
facet normal 0.634393 0.000000 -0.773010
outer loop
vertex -1.018235 1.300000 1.018234
vertex -1.018235 7.368592 1.018234
vertex -0.800022 7.368592 1.197316
endloop
endfacet
facet normal 0.098018 0.000000 0.995185
outer loop
vertex 0.000000 7.368592 -1.440001
vertex -0.280931 7.368592 -1.412331
vertex -0.280931 1.300000 -1.412331
endloop
endfacet
facet normal 0.098017 0.000000 0.995185
outer loop
vertex -0.280931 1.300000 -1.412331
vertex 0.000000 1.300000 -1.440001
vertex 0.000000 7.368592 -1.440001
endloop
endfacet
facet normal 0.471397 0.000000 -0.881921
outer loop
vertex -0.551065 7.368592 1.330387
vertex -0.551065 1.300000 1.330387
vertex -0.800022 1.300000 1.197316
endloop
endfacet
facet normal 0.471397 0.000000 -0.881921
outer loop
vertex -0.800022 1.300000 1.197316
vertex -0.800022 7.368592 1.197316
vertex -0.551065 7.368592 1.330387
endloop
endfacet
facet normal -0.995185 0.000000 0.098017
outer loop
vertex 1.412332 7.368592 -0.280929
vertex 1.412332 1.300000 -0.280929
vertex 1.440001 1.300000 -0.000000
endloop
endfacet
facet normal -0.995185 0.000000 0.098017
outer loop
vertex 1.440001 1.300000 -0.000000
vertex 1.440001 7.368592 -0.000000
vertex 1.412332 7.368592 -0.280929
endloop
endfacet
facet normal 0.290285 0.000000 -0.956940
outer loop
vertex -0.280931 7.368592 1.412331
vertex -0.280931 1.300000 1.412331
vertex -0.551065 1.300000 1.330387
endloop
endfacet
facet normal 0.290285 0.000000 -0.956940
outer loop
vertex -0.551065 1.300000 1.330387
vertex -0.551065 7.368592 1.330387
vertex -0.280931 7.368592 1.412331
endloop
endfacet
facet normal -0.956941 0.000000 0.290284
outer loop
vertex 1.330388 7.368592 -0.551063
vertex 1.330388 1.300000 -0.551063
vertex 1.412332 1.300000 -0.280929
endloop
endfacet
facet normal -0.956941 0.000000 0.290284
outer loop
vertex 1.412332 1.300000 -0.280929
vertex 1.412332 7.368592 -0.280929
vertex 1.330388 7.368592 -0.551063
endloop
endfacet
facet normal 0.098017 0.000000 -0.995185
outer loop
vertex 0.000000 7.368592 1.440001
vertex 0.000000 1.300000 1.440001
vertex -0.280931 1.300000 1.412331
endloop
endfacet
facet normal 0.098018 0.000000 -0.995185
outer loop
vertex -0.280931 1.300000 1.412331
vertex -0.280931 7.368592 1.412331
vertex 0.000000 7.368592 1.440001
endloop
endfacet
facet normal -0.881922 0.000000 0.471396
outer loop
vertex 1.197317 7.368592 -0.800021
vertex 1.197317 1.300000 -0.800021
vertex 1.330388 1.300000 -0.551063
endloop
endfacet
facet normal -0.881921 0.000000 0.471397
outer loop
vertex 1.330388 1.300000 -0.551063
vertex 1.330388 7.368592 -0.551063
vertex 1.197317 7.368592 -0.800021
endloop
endfacet
facet normal -0.995185 0.000000 -0.098017
outer loop
vertex 1.412332 7.368592 0.280929
vertex 1.440001 7.368592 -0.000000
vertex 1.440001 1.300000 -0.000000
endloop
endfacet
facet normal -0.995185 0.000000 -0.098017
outer loop
vertex 1.440001 1.300000 -0.000000
vertex 1.412332 1.300000 0.280929
vertex 1.412332 7.368592 0.280929
endloop
endfacet
facet normal -0.773011 0.000000 0.634392
outer loop
vertex 1.018235 7.368592 -1.018234
vertex 1.018235 1.300000 -1.018234
vertex 1.197317 1.300000 -0.800021
endloop
endfacet
facet normal -0.773011 0.000000 0.634393
outer loop
vertex 1.197317 1.300000 -0.800021
vertex 1.197317 7.368592 -0.800021
vertex 1.018235 7.368592 -1.018234
endloop
endfacet
facet normal -0.956941 0.000000 -0.290284
outer loop
vertex 1.330388 7.368592 0.551063
vertex 1.412332 7.368592 0.280929
vertex 1.412332 1.300000 0.280929
endloop
endfacet
facet normal -0.956941 0.000000 -0.290284
outer loop
vertex 1.412332 1.300000 0.280929
vertex 1.330388 1.300000 0.551063
vertex 1.330388 7.368592 0.551063
endloop
endfacet
facet normal -0.634393 0.000000 0.773010
outer loop
vertex 0.800022 7.368592 -1.197316
vertex 0.800022 1.300000 -1.197316
vertex 1.018235 1.300000 -1.018234
endloop
endfacet
facet normal -0.634393 0.000000 0.773010
outer loop
vertex 1.018235 1.300000 -1.018234
vertex 1.018235 7.368592 -1.018234
vertex 0.800022 7.368592 -1.197316
endloop
endfacet
facet normal -0.881921 0.000000 -0.471397
outer loop
vertex 1.197317 7.368592 0.800021
vertex 1.330388 7.368592 0.551063
vertex 1.330388 1.300000 0.551063
endloop
endfacet
facet normal -0.881922 0.000000 -0.471396
outer loop
vertex 1.330388 1.300000 0.551063
vertex 1.197317 1.300000 0.800021
vertex 1.197317 7.368592 0.800021
endloop
endfacet
facet normal -0.471397 0.000000 0.881921
outer loop
vertex 0.551065 7.368592 -1.330387
vertex 0.551065 1.300000 -1.330387
vertex 0.800022 1.300000 -1.197316
endloop
endfacet
facet normal -0.471397 0.000000 0.881921
outer loop
vertex 0.800022 1.300000 -1.197316
vertex 0.800022 7.368592 -1.197316
vertex 0.551065 7.368592 -1.330387
endloop
endfacet
facet normal 0.995185 0.000000 0.098017
outer loop
vertex -1.412332 7.368592 -0.280929
vertex -1.440001 7.368592 -0.000000
vertex -1.440001 1.300000 -0.000000
endloop
endfacet
facet normal 0.995185 0.000000 0.098017
outer loop
vertex -1.440001 1.300000 -0.000000
vertex -1.412332 1.300000 -0.280929
vertex -1.412332 7.368592 -0.280929
endloop
endfacet
facet normal -0.773011 0.000000 -0.634393
outer loop
vertex 1.018235 7.368592 1.018234
vertex 1.197317 7.368592 0.800021
vertex 1.197317 1.300000 0.800021
endloop
endfacet
facet normal -0.773011 0.000000 -0.634392
outer loop
vertex 1.197317 1.300000 0.800021
vertex 1.018235 1.300000 1.018234
vertex 1.018235 7.368592 1.018234
endloop
endfacet
facet normal -0.290285 0.000000 0.956940
outer loop
vertex 0.280931 7.368592 -1.412331
vertex 0.280931 1.300000 -1.412331
vertex 0.551065 1.300000 -1.330387
endloop
endfacet
facet normal -0.290285 0.000000 0.956940
outer loop
vertex 0.551065 1.300000 -1.330387
vertex 0.551065 7.368592 -1.330387
vertex 0.280931 7.368592 -1.412331
endloop
endfacet
facet normal 0.956941 0.000000 0.290284
outer loop
vertex -1.330388 7.368592 -0.551063
vertex -1.412332 7.368592 -0.280929
vertex -1.412332 1.300000 -0.280929
endloop
endfacet
facet normal 0.956941 0.000000 0.290284
outer loop
vertex -1.412332 1.300000 -0.280929
vertex -1.330388 1.300000 -0.551063
vertex -1.330388 7.368592 -0.551063
endloop
endfacet
facet normal -0.634393 0.000000 -0.773010
outer loop
vertex 0.800022 7.368592 1.197316
vertex 1.018235 7.368592 1.018234
vertex 1.018235 1.300000 1.018234
endloop
endfacet
facet normal -0.634393 0.000000 -0.773010
outer loop
vertex 1.018235 1.300000 1.018234
vertex 0.800022 1.300000 1.197316
vertex 0.800022 7.368592 1.197316
endloop
endfacet
facet normal -0.098017 0.000000 0.995185
outer loop
vertex 0.000000 7.368592 -1.440001
vertex 0.000000 1.300000 -1.440001
vertex 0.280931 1.300000 -1.412331
endloop
endfacet
facet normal -0.098018 0.000000 0.995185
outer loop
vertex 0.280931 1.300000 -1.412331
vertex 0.280931 7.368592 -1.412331
vertex 0.000000 7.368592 -1.440001
endloop
endfacet
facet normal 0.881921 0.000000 0.471397
outer loop
vertex -1.197317 7.368592 -0.800021
vertex -1.330388 7.368592 -0.551063
vertex -1.330388 1.300000 -0.551063
endloop
endfacet
facet normal 0.881922 0.000000 0.471396
outer loop
vertex -1.330388 1.300000 -0.551063
vertex -1.197317 1.300000 -0.800021
vertex -1.197317 7.368592 -0.800021
endloop
endfacet
facet normal -0.471397 0.000000 -0.881921
outer loop
vertex 0.551065 7.368592 1.330387
vertex 0.800022 7.368592 1.197316
vertex 0.800022 1.300000 1.197316
endloop
endfacet
facet normal -0.471397 0.000000 -0.881921
outer loop
vertex 0.800022 1.300000 1.197316
vertex 0.551065 1.300000 1.330387
vertex 0.551065 7.368592 1.330387
endloop
endfacet
facet normal 0.000000 1.000000 0.000000
outer loop
vertex 0.280931 1.300000 1.412331
vertex -0.280931 1.300000 1.412331
vertex 0.000000 1.300000 1.440001
endloop
endfacet
facet normal 0.000000 1.000000 0.000000
outer loop
vertex -0.800022 1.300000 1.197316
vertex -0.551065 1.300000 1.330387
vertex -0.280931 1.300000 1.412331
endloop
endfacet
facet normal 0.000000 1.000000 0.000000
outer loop
vertex -1.197317 1.300000 0.800021
vertex -1.018235 1.300000 1.018234
vertex -0.800022 1.300000 1.197316
endloop
endfacet
facet normal 0.000000 1.000000 0.000000
outer loop
vertex -1.412332 1.300000 0.280929
vertex -1.330388 1.300000 0.551063
vertex -1.197317 1.300000 0.800021
endloop
endfacet
facet normal 0.000000 1.000000 0.000000
outer loop
vertex -1.412332 1.300000 -0.280929
vertex -1.440001 1.300000 -0.000000
vertex -1.412332 1.300000 0.280929
endloop
endfacet
facet normal 0.000000 1.000000 0.000000
outer loop
vertex -1.197317 1.300000 -0.800021
vertex -1.330388 1.300000 -0.551063
vertex -1.412332 1.300000 -0.280929
endloop
endfacet
facet normal 0.000000 1.000000 -0.000002
outer loop
vertex -0.800022 1.300000 -1.197316
vertex -1.018235 1.300000 -1.018234
vertex -1.197317 1.300000 -0.800021
endloop
endfacet
facet normal 0.000000 1.000000 0.000000
outer loop
vertex -0.280931 1.300000 -1.412331
vertex -0.551065 1.300000 -1.330387
vertex -0.800022 1.300000 -1.197316
endloop
endfacet
facet normal 0.000000 1.000000 0.000000
outer loop
vertex 0.280931 1.300000 -1.412331
vertex 0.000000 1.300000 -1.440001
vertex -0.280931 1.300000 -1.412331
endloop
endfacet
facet normal 0.000000 1.000000 0.000000
outer loop
vertex 0.800022 1.300000 -1.197316
vertex 0.551065 1.300000 -1.330387
vertex 0.280931 1.300000 -1.412331
endloop
endfacet
facet normal 0.000000 1.000000 0.000000
outer loop
vertex 1.197317 1.300000 -0.800021
vertex 1.018235 1.300000 -1.018234
vertex 0.800022 1.300000 -1.197316
endloop
endfacet
facet normal 0.000000 1.000000 0.000000
outer loop
vertex 1.412332 1.300000 -0.280929
vertex 1.330388 1.300000 -0.551063
vertex 1.197317 1.300000 -0.800021
endloop
endfacet
facet normal 0.000000 1.000000 0.000000
outer loop
vertex 1.412332 1.300000 0.280929
vertex 1.440001 1.300000 -0.000000
vertex 1.412332 1.300000 -0.280929
endloop
endfacet
facet normal 0.000000 1.000000 0.000000
outer loop
vertex 1.197317 1.300000 0.800021
vertex 1.330388 1.300000 0.551063
vertex 1.412332 1.300000 0.280929
endloop
endfacet
facet normal 0.000000 1.000000 0.000002
outer loop
vertex 0.800022 1.300000 1.197316
vertex 1.018235 1.300000 1.018234
vertex 1.197317 1.300000 0.800021
endloop
endfacet
facet normal 0.000000 1.000000 0.000000
outer loop
vertex 0.280931 1.300000 1.412331
vertex 0.551065 1.300000 1.330387
vertex 0.800022 1.300000 1.197316
endloop
endfacet
facet normal 0.000000 1.000000 0.000001
outer loop
vertex 0.280931 1.300000 1.412331
vertex -0.800022 1.300000 1.197316
vertex -0.280931 1.300000 1.412331
endloop
endfacet
facet normal 0.000000 1.000000 0.000000
outer loop
vertex -1.412332 1.300000 0.280929
vertex -1.197317 1.300000 0.800021
vertex -0.800022 1.300000 1.197316
endloop
endfacet
facet normal 0.000000 1.000000 0.000000
outer loop
vertex -1.197317 1.300000 -0.800021
vertex -1.412332 1.300000 -0.280929
vertex -1.412332 1.300000 0.280929
endloop
endfacet
facet normal 0.000000 1.000000 0.000001
outer loop
vertex -0.280931 1.300000 -1.412331
vertex -0.800022 1.300000 -1.197316
vertex -1.197317 1.300000 -0.800021
endloop
endfacet
facet normal 0.000000 1.000000 -0.000001
outer loop
vertex 0.800022 1.300000 -1.197316
vertex 0.280931 1.300000 -1.412331
vertex -0.280931 1.300000 -1.412331
endloop
endfacet
facet normal 0.000000 1.000000 0.000000
outer loop
vertex 1.412332 1.300000 -0.280929
vertex 1.197317 1.300000 -0.800021
vertex 0.800022 1.300000 -1.197316
endloop
endfacet
facet normal 0.000000 1.000000 0.000000
outer loop
vertex 1.197317 1.300000 0.800021
vertex 1.412332 1.300000 0.280929
vertex 1.412332 1.300000 -0.280929
endloop
endfacet
facet normal 0.000000 1.000000 -0.000001
outer loop
vertex 0.280931 1.300000 1.412331
vertex 0.800022 1.300000 1.197316
vertex 1.197317 1.300000 0.800021
endloop
endfacet
facet normal 0.000000 1.000000 -0.000000
outer loop
vertex 0.280931 1.300000 1.412331
vertex -1.412332 1.300000 0.280929
vertex -0.800022 1.300000 1.197316
endloop
endfacet
facet normal 0.000000 1.000000 -0.000000
outer loop
vertex -0.280931 1.300000 -1.412331
vertex -1.197317 1.300000 -0.800021
vertex -1.412332 1.300000 0.280929
endloop
endfacet
facet normal 0.000000 1.000000 0.000000
outer loop
vertex 1.412332 1.300000 -0.280929
vertex 0.800022 1.300000 -1.197316
vertex -0.280931 1.300000 -1.412331
endloop
endfacet
facet normal 0.000000 1.000000 0.000000
outer loop
vertex 0.280931 1.300000 1.412331
vertex 1.197317 1.300000 0.800021
vertex 1.412332 1.300000 -0.280929
endloop
endfacet
facet normal 0.000000 1.000000 0.000000
outer loop
vertex 0.280931 1.300000 1.412331
vertex -0.280931 1.300000 -1.412331
vertex -1.412332 1.300000 0.280929
endloop
endfacet
facet normal 0.000000 1.000000 0.000000
outer loop
vertex 0.280931 1.300000 1.412331
vertex 1.412332 1.300000 -0.280929
vertex -0.280931 1.300000 -1.412331
endloop
endfacet
facet normal -0.608784 -0.616252 -0.499616
outer loop
vertex 1.197317 7.368592 0.800021
vertex 1.018235 7.368592 1.018234
vertex 0.000000 9.200002 -0.000000
endloop
endfacet
facet normal 0.783757 -0.616252 0.077192
outer loop
vertex -1.440001 7.368592 -0.000000
vertex -1.412332 7.368592 -0.280929
vertex 0.000000 9.200002 -0.000000
endloop
endfacet
facet normal -0.371249 -0.616252 0.694556
outer loop
vertex 0.800022 7.368592 -1.197316
vertex 0.000000 9.200002 -0.000000
vertex 0.551065 7.368592 -1.330387
endloop
endfacet
facet normal -0.694557 -0.616252 -0.371247
outer loop
vertex 1.330388 7.368592 0.551063
vertex 1.197317 7.368592 0.800021
vertex 0.000000 9.200002 -0.000000
endloop
endfacet
facet normal -0.499615 -0.616251 0.608785
outer loop
vertex 1.018235 7.368592 -1.018234
vertex 0.000000 9.200002 -0.000000
vertex 0.800022 7.368592 -1.197316
endloop
endfacet
facet normal -0.753638 -0.616252 -0.228611
outer loop
vertex 1.412332 7.368592 0.280929
vertex 1.330388 7.368592 0.551063
vertex 0.000000 9.200002 -0.000000
endloop
endfacet
facet normal -0.608784 -0.616252 0.499616
outer loop
vertex 1.197317 7.368592 -0.800021
vertex 0.000000 9.200002 -0.000000
vertex 1.018235 7.368592 -1.018234
endloop
endfacet
facet normal -0.783757 -0.616252 -0.077192
outer loop
vertex 1.440001 7.368592 -0.000000
vertex 1.412332 7.368592 0.280929
vertex 0.000000 9.200002 -0.000000
endloop
endfacet
facet normal -0.694557 -0.616252 0.371247
outer loop
vertex 1.330388 7.368592 -0.551063
vertex 0.000000 9.200002 -0.000000
vertex 1.197317 7.368592 -0.800021
endloop
endfacet
facet normal 0.077194 -0.616252 -0.783757
outer loop
vertex -0.280931 7.368592 1.412331
vertex 0.000000 9.200002 -0.000000
vertex 0.000000 7.368592 1.440001
endloop
endfacet
facet normal -0.753638 -0.616252 0.228611
outer loop
vertex 1.412332 7.368592 -0.280929
vertex 0.000000 9.200002 -0.000000
vertex 1.330388 7.368592 -0.551063
endloop
endfacet
facet normal 0.228614 -0.616252 -0.753637
outer loop
vertex -0.551065 7.368592 1.330387
vertex 0.000000 9.200002 -0.000000
vertex -0.280931 7.368592 1.412331
endloop
endfacet
facet normal -0.783757 -0.616252 0.077192
outer loop
vertex 1.440001 7.368592 -0.000000
vertex 0.000000 9.200002 -0.000000
vertex 1.412332 7.368592 -0.280929
endloop
endfacet
facet normal 0.371249 -0.616252 -0.694556
outer loop
vertex -0.800022 7.368592 1.197316
vertex 0.000000 9.200002 -0.000000
vertex -0.551065 7.368592 1.330387
endloop
endfacet
facet normal 0.077194 -0.616252 0.783757
outer loop
vertex -0.280931 7.368592 -1.412331
vertex 0.000000 7.368592 -1.440001
vertex 0.000000 9.200002 -0.000000
endloop
endfacet
facet normal 0.499615 -0.616251 -0.608785
outer loop
vertex -1.018235 7.368592 1.018234
vertex 0.000000 9.200002 -0.000000
vertex -0.800022 7.368592 1.197316
endloop
endfacet
facet normal 0.228614 -0.616252 0.753637
outer loop
vertex -0.551065 7.368592 -1.330387
vertex -0.280931 7.368592 -1.412331
vertex 0.000000 9.200002 -0.000000
endloop
endfacet
facet normal 0.608784 -0.616252 -0.499616
outer loop
vertex -1.197317 7.368592 0.800021
vertex 0.000000 9.200002 -0.000000
vertex -1.018235 7.368592 1.018234
endloop
endfacet
facet normal 0.371249 -0.616252 0.694556
outer loop
vertex -0.800022 7.368592 -1.197316
vertex -0.551065 7.368592 -1.330387
vertex 0.000000 9.200002 -0.000000
endloop
endfacet
facet normal 0.694557 -0.616252 -0.371247
outer loop
vertex -1.330388 7.368592 0.551063
vertex 0.000000 9.200002 -0.000000
vertex -1.197317 7.368592 0.800021
endloop
endfacet
facet normal -0.077194 -0.616252 -0.783757
outer loop
vertex 0.280931 7.368592 1.412331
vertex 0.000000 7.368592 1.440001
vertex 0.000000 9.200002 -0.000000
endloop
endfacet
facet normal 0.499615 -0.616251 0.608785
outer loop
vertex -1.018235 7.368592 -1.018234
vertex -0.800022 7.368592 -1.197316
vertex 0.000000 9.200002 -0.000000
endloop
endfacet
facet normal 0.753638 -0.616252 -0.228611
outer loop
vertex -1.412332 7.368592 0.280929
vertex 0.000000 9.200002 -0.000000
vertex -1.330388 7.368592 0.551063
endloop
endfacet
facet normal -0.228614 -0.616251 -0.753638
outer loop
vertex 0.551065 7.368592 1.330387
vertex 0.280931 7.368592 1.412331
vertex 0.000000 9.200002 -0.000000
endloop
endfacet
facet normal 0.608784 -0.616252 0.499616
outer loop
vertex -1.197317 7.368592 -0.800021
vertex -1.018235 7.368592 -1.018234
vertex 0.000000 9.200002 -0.000000
endloop
endfacet
facet normal 0.783757 -0.616252 -0.077192
outer loop
vertex -1.440001 7.368592 -0.000000
vertex 0.000000 9.200002 -0.000000
vertex -1.412332 7.368592 0.280929
endloop
endfacet
facet normal -0.371249 -0.616252 -0.694556
outer loop
vertex 0.800022 7.368592 1.197316
vertex 0.551065 7.368592 1.330387
vertex 0.000000 9.200002 -0.000000
endloop
endfacet
facet normal 0.694557 -0.616252 0.371247
outer loop
vertex -1.330388 7.368592 -0.551063
vertex -1.197317 7.368592 -0.800021
vertex 0.000000 9.200002 -0.000000
endloop
endfacet
facet normal -0.077194 -0.616252 0.783757
outer loop
vertex 0.280931 7.368592 -1.412331
vertex 0.000000 9.200002 -0.000000
vertex 0.000000 7.368592 -1.440001
endloop
endfacet
facet normal -0.499615 -0.616251 -0.608785
outer loop
vertex 1.018235 7.368592 1.018234
vertex 0.800022 7.368592 1.197316
vertex 0.000000 9.200002 -0.000000
endloop
endfacet
facet normal 0.753638 -0.616252 0.228611
outer loop
vertex -1.412332 7.368592 -0.280929
vertex -1.330388 7.368592 -0.551063
vertex 0.000000 9.200002 -0.000000
endloop
endfacet
facet normal -0.228614 -0.616251 0.753638
outer loop
vertex 0.551065 7.368592 -1.330387
vertex 0.000000 9.200002 -0.000000
vertex 0.280931 7.368592 -1.412331
endloop
endfacet
endsolid Exported from Blender-2.74 (sub 0)
